<?xml version="1.0" encoding="UTF-8" standalone="no"?>
<svg
   xmlns:dc="http://purl.org/dc/elements/1.1/"
   xmlns:cc="http://creativecommons.org/ns#"
   xmlns:rdf="http://www.w3.org/1999/02/22-rdf-syntax-ns#"
   xmlns:svg="http://www.w3.org/2000/svg"
   xmlns="http://www.w3.org/2000/svg"
   xml:space="preserve"
   style="enable-background:new 0 0 383.344 383.345;"
   viewBox="0 0 383.344 383.345"
   height="383.345px"
   width="383.344px"
   y="0px"
   x="0px"
   id="Capa_1"
   version="1.1"><metadata
   id="metadata41"><rdf:RDF><cc:Work
       rdf:about=""><dc:format>image/svg+xml</dc:format><dc:type
         rdf:resource="http://purl.org/dc/dcmitype/StillImage" /><dc:title></dc:title></cc:Work></rdf:RDF></metadata><defs
   id="defs39" />
<g
   style="fill:#015f79;fill-opacity:0.78431374"
   id="g4">
	<path
   style="fill:#015f79;fill-opacity:0.78431374"
   id="path2"
   d="M273.217,106.899c-27.181-44.864-57.413-83.693-73.016-102.846c-2.088-2.565-5.221-4.054-8.528-4.053   c-3.308,0-6.44,1.489-8.529,4.054c-15.602,19.159-45.834,58.001-73.015,102.869c-35.028,57.823-52.789,105.63-52.789,142.09   c0,74.071,60.261,134.332,134.332,134.332s134.332-60.261,134.332-134.332C326.005,212.529,308.246,164.715,273.217,106.899z    M210.106,333.868c-7.844,2.006-15.986,3.022-24.205,3.022c-50.186,0-91.015-37.929-91.015-84.55   c0-11.255,2.97-24.405,8.825-39.083c0.989-2.48,3.807-3.895,6.585-3.295c2.776,0.598,4.64,3.018,4.354,5.65   c-0.342,3.148-0.516,6.223-0.516,9.136c0,50.735,40.881,93.221,95.093,98.821c2.698,0.279,4.803,2.297,5.018,4.812   C214.461,330.896,212.723,333.198,210.106,333.868z" />
</g>
<g
   id="g6">
</g>
<g
   id="g8">
</g>
<g
   id="g10">
</g>
<g
   id="g12">
</g>
<g
   id="g14">
</g>
<g
   id="g16">
</g>
<g
   id="g18">
</g>
<g
   id="g20">
</g>
<g
   id="g22">
</g>
<g
   id="g24">
</g>
<g
   id="g26">
</g>
<g
   id="g28">
</g>
<g
   id="g30">
</g>
<g
   id="g32">
</g>
<g
   id="g34">
</g>
</svg>