<svg width="71" height="41" viewBox="0 0 71 41" fill="none" xmlns="http://www.w3.org/2000/svg">
<path d="M60.1103 15.9909C59.6957 14.8773 59.0141 13.8826 58.1253 13.0941C57.2364 12.3056 56.1675 11.7474 55.0125 11.4686C53.8712 11.1906 52.6799 11.1906 51.5386 11.4686C50.0658 8.41499 47.8402 5.78634 45.0712 3.8301C42.3023 1.87385 39.0811 0.654354 35.7108 0.286414C35.0281 0.211191 34.3421 0.170034 33.6553 0.163086C29.8556 0.178064 26.1384 1.27175 22.9361 3.31687C19.7338 5.36198 17.1781 8.27441 15.5664 11.7153C12.2046 11.3899 8.83733 12.2784 6.07374 14.2201C3.31015 16.1618 1.33272 19.0284 0.499142 22.3014C0.195946 23.4624 0.0439455 24.6576 0.0469178 25.8575C0.0523383 29.614 1.54558 33.2153 4.19985 35.8734C6.85413 38.5315 10.4533 40.03 14.2097 40.0409H58.6919C61.7611 40.0136 64.7045 38.8177 66.9231 36.6967C69.1416 34.5756 70.4684 31.6889 70.6334 28.624C70.7984 25.5591 69.7893 22.5466 67.8114 20.1996C65.8334 17.8526 63.0354 16.3475 59.9869 15.9909H60.1103ZM58.8153 36.5464H14.2919C12.8014 36.5504 11.3267 36.242 9.96269 35.6411C8.5987 35.0402 7.37574 34.1602 6.37267 33.0578C5.36959 31.9554 4.60867 30.655 4.13891 29.2405C3.66916 27.826 3.50101 26.3287 3.64532 24.8452C3.78962 23.3617 4.24318 21.925 4.97674 20.6275C5.71031 19.3301 6.70761 18.2007 7.90435 17.3122C9.10109 16.4238 10.4707 15.796 11.9249 15.4693C13.3792 15.1425 14.8857 15.1242 16.3475 15.4153L17.7864 15.6825L18.3003 14.3053C19.4854 11.1968 21.5856 8.52077 24.3234 6.63073C27.0612 4.7407 30.3079 3.72548 33.6347 3.71919C34.1691 3.71919 34.7241 3.71919 35.3819 3.71919C37.132 3.90832 38.8398 4.3804 40.4386 5.11698C44.3955 6.9195 47.4774 10.2158 49.0103 14.2847L49.7297 16.217L51.518 15.1892C52.0437 14.8933 52.6332 14.729 53.2361 14.7102C53.839 14.6914 54.4376 14.8186 54.9807 15.0811C55.5238 15.3436 55.9955 15.7335 56.3553 16.2176C56.7152 16.7017 56.9527 17.2657 57.0475 17.8614L57.2941 19.362H58.918C61.1859 19.362 63.3609 20.2629 64.9646 21.8665C66.5682 23.4702 67.4691 25.6452 67.4691 27.9131C67.4691 30.181 66.5682 32.356 64.9646 33.9596C63.3609 35.5633 61.1859 36.4642 58.918 36.4642L58.8153 36.5464Z" fill="white"/>
</svg>
