<svg width="175" height="133" viewBox="0 0 175 133" fill="none" xmlns="http://www.w3.org/2000/svg">
<path d="M174.999 37.2783C175.037 36.0785 174.303 34.9911 173.173 34.5705C172.057 34.1546 170.783 34.4916 170.023 35.4189C165.733 40.6506 159.404 43.65 152.648 43.65C140.263 43.65 130.187 33.5739 130.187 21.1914C130.187 14.956 132.703 9.15551 137.268 4.85356C138.145 4.02902 138.399 2.74082 137.904 1.6486C137.404 0.556387 136.274 -0.105633 135.074 0.0138652C117.099 1.75855 103.402 16.1796 102.315 33.9802C97.4846 31.1146 91.8538 29.4846 85.8645 29.4846C85.5801 29.4846 85.2957 29.5133 85.0113 29.5205C82.6954 29.5826 80.3987 29.8766 78.1736 30.4287C74.1274 31.4301 70.2891 33.2058 66.9049 35.6794C60.0672 31.6212 52.3093 29.4846 44.3364 29.4846C19.8893 29.4846 0 49.374 0 73.8234C0 98.2728 19.8893 118.162 44.3364 118.162C47.5987 118.162 50.8992 117.78 54.1807 117.025C60.0528 126.333 70.2795 132.029 81.381 132.029C94.8795 132.029 106.774 123.635 111.432 111.222C115.811 113.363 120.61 114.482 125.497 114.482C143.226 114.482 157.645 100.061 157.645 82.3317C157.645 77.5541 156.581 73.0299 154.701 68.955C166.462 63.2119 174.611 51.3409 174.999 37.2783ZM125.495 108.87C120.471 108.87 115.567 107.436 111.296 104.723C110.84 104.434 110.316 104.286 109.788 104.286C109.439 104.286 109.088 104.351 108.751 104.482C107.914 104.817 107.291 105.531 107.066 106.403C104.083 118.188 93.5196 126.417 81.3786 126.417C71.6036 126.417 62.6507 121.068 58.007 112.45C57.3809 111.298 56.0472 110.725 54.7758 111.081C51.2984 112.053 47.7875 112.548 44.334 112.548C22.982 112.548 5.61405 95.1778 5.61405 73.8258C5.61405 52.4738 22.9844 35.1034 44.334 35.1034C51.8815 35.1034 59.2164 37.2998 65.5402 41.4512C66.5775 42.1276 67.9302 42.0487 68.8766 41.2576C71.1041 39.4054 73.6088 37.9547 76.276 36.9222C78.2358 36.1622 80.2816 35.6412 82.3776 35.3616C83.5295 35.2086 84.6935 35.1058 85.8645 35.1058C92.1526 35.1058 97.9674 37.2687 102.547 40.9708C107.052 44.6107 110.362 49.742 111.719 55.7791C111.906 56.5821 112.429 57.2657 113.163 57.6457C113.897 58.0304 114.759 58.0711 115.519 57.758C115.789 57.6481 116.069 57.5716 116.341 57.4688C119.291 56.379 122.359 55.803 125.495 55.803C134.001 55.803 141.563 59.8397 146.422 66.0847C147.617 67.6166 148.64 69.2824 149.474 71.0558C151.094 74.4854 152.026 78.2998 152.026 82.3389C152.029 96.9679 140.124 108.87 125.495 108.87ZM151.902 64.0771C146.99 57.0147 139.335 51.9958 130.471 50.6096C128.846 50.3586 127.194 50.1842 125.495 50.1842C125.201 50.1842 124.912 50.2081 124.618 50.2176C121.812 50.2917 119.049 50.7171 116.365 51.5154C114.661 46.3244 111.717 41.8049 107.922 38.22C107.883 37.5699 107.824 36.9198 107.824 36.2578C107.824 22.8907 116.232 11.4618 128.291 7.21963C125.863 11.4212 124.57 16.1916 124.57 21.1938C124.57 36.6784 137.165 49.2688 152.648 49.2688C158.305 49.2688 163.725 47.5839 168.299 44.5056C165.929 53.2194 159.87 60.2985 151.902 64.0771Z" fill="white"/>
</svg>
