<svg width="73" height="53" viewBox="0 0 73 53" fill="none" xmlns="http://www.w3.org/2000/svg">
<path d="M55.7666 7.69359C56.1836 7.81627 56.6321 7.77098 57.0162 7.56741C57.4003 7.36384 57.6895 7.01814 57.8221 6.60415L59.0554 2.71913C59.1439 2.44003 59.1563 2.14236 59.0912 1.85689C59.0262 1.57141 58.8861 1.30847 58.6854 1.09524C58.4995 0.867921 58.2485 0.702951 57.966 0.622473C57.7595 0.558958 57.5425 0.536756 57.3274 0.557139C57.1123 0.577522 56.9034 0.640079 56.7125 0.741253C56.5216 0.842428 56.3525 0.980242 56.2149 1.14679C56.0773 1.31334 55.9738 1.50537 55.9105 1.71192L54.6771 5.59691C54.6675 5.72692 54.6675 5.85747 54.6771 5.98747C54.656 6.35033 54.75 6.71058 54.9456 7.01691C55.1412 7.32325 55.4285 7.56006 55.7666 7.69359Z" fill="white"/>
<path d="M64.7498 12.8942L68.0181 10.4686C68.3762 10.2056 68.6159 9.81194 68.6852 9.37312C68.7545 8.9343 68.6477 8.48584 68.3881 8.12532L68.2648 8.00199C67.991 7.69205 67.6104 7.49666 67.199 7.45476C66.7876 7.41285 66.3755 7.52751 66.0448 7.77587L62.7559 10.222C62.3988 10.4946 62.1647 10.8978 62.1049 11.3431C62.0451 11.7883 62.1647 12.2391 62.4373 12.5962C62.7099 12.9532 63.1132 13.1874 63.5584 13.2472C64.0036 13.3069 64.4544 13.1873 64.8115 12.9148L64.7498 12.8942Z" fill="white"/>
<path d="M71.903 19.1844C71.7468 19.0117 71.5567 18.8733 71.3444 18.7778C71.1321 18.6823 70.9024 18.6317 70.6696 18.6294H66.5585C66.1377 18.6338 65.7342 18.7974 65.4291 19.0872C65.124 19.377 64.94 19.7716 64.9141 20.1916V20.315C64.9195 20.7584 65.0994 21.1819 65.415 21.4935C65.7305 21.8052 66.1561 21.98 66.5996 21.98H70.7107C71.1542 21.9746 71.5777 21.7946 71.8893 21.4791C72.201 21.1635 72.3758 20.7379 72.3757 20.2944C72.3645 19.8779 72.1955 19.4811 71.903 19.1844Z" fill="white"/>
<path d="M35.2311 10.5102L38.4994 12.8741C38.8372 13.0953 39.2431 13.188 39.6434 13.1352C40.0437 13.0824 40.4117 12.8877 40.6805 12.5865C40.9494 12.2853 41.1012 11.8976 41.1083 11.4939C41.1155 11.0903 40.9775 10.6974 40.7194 10.3869C40.6692 10.3277 40.6142 10.2727 40.555 10.2225L37.2455 7.838C36.8825 7.58054 36.4324 7.47712 35.9934 7.55029C35.5544 7.62345 35.1621 7.86728 34.9022 8.22856C34.7188 8.48716 34.6185 8.79546 34.6144 9.11247C34.5982 9.37776 34.6457 9.64307 34.753 9.88625C34.8603 10.1294 35.0242 10.3434 35.2311 10.5102Z" fill="white"/>
<path d="M45.0994 5.5973L45.4283 6.60453C45.4791 6.83457 45.5776 7.0514 45.7174 7.24103C45.8572 7.43065 46.0352 7.58886 46.2399 7.70545C46.4447 7.82204 46.6715 7.89442 46.906 7.91792C47.1404 7.94142 47.3771 7.91553 47.6009 7.84189C47.8247 7.76826 48.0306 7.64851 48.2052 7.49041C48.3799 7.33231 48.5195 7.13936 48.615 6.92399C48.7105 6.70861 48.7598 6.47563 48.7597 6.24004C48.7596 6.00444 48.7101 5.77148 48.6144 5.55619L47.3194 1.69174C47.2979 1.61756 47.263 1.54791 47.2166 1.48619C47.0414 1.11358 46.7343 0.819124 46.3546 0.65968C45.975 0.500236 45.5498 0.487123 45.161 0.622857C44.7539 0.763934 44.4162 1.05557 44.2174 1.43787C44.0187 1.82016 43.9738 2.26409 44.0922 2.67841L45.0994 5.5973Z" fill="white"/>
<path d="M68.0173 30.1404L64.7078 27.7765C64.3448 27.519 63.8947 27.4156 63.4556 27.4888C63.0166 27.5619 62.6244 27.8058 62.3645 28.167C62.1841 28.4286 62.0776 28.734 62.0561 29.0509C62.0446 29.3328 62.1022 29.6132 62.224 29.8676C62.3459 30.122 62.5282 30.3427 62.755 30.5104L66.0645 32.8743C66.4022 33.0955 66.8081 33.1881 67.2084 33.1354C67.6087 33.0826 67.9767 32.8879 68.2456 32.5867C68.5144 32.2855 68.6662 31.8978 68.6734 31.4941C68.6805 31.0904 68.5425 30.6976 68.2845 30.387C68.2056 30.2944 68.1159 30.2116 68.0173 30.1404Z" fill="white"/>
<path d="M53.9794 30.7778C53.4186 29.292 52.3408 28.0583 50.9437 27.3031C49.5466 26.548 47.9241 26.322 46.3738 26.6667C45.0368 23.9735 43.0453 21.6588 40.5816 19.935C38.118 18.2112 35.2611 17.1332 32.2727 16.8C31.5533 16.8 30.9572 16.6973 30.361 16.6973C26.9788 16.7154 23.6707 17.6901 20.819 19.5088C17.9673 21.3275 15.6883 23.9159 14.2455 26.975C12.5298 26.8377 10.8041 27.0494 9.1724 27.5972C7.54073 28.1451 6.03695 29.0177 4.75175 30.1626C3.46654 31.3074 2.42655 32.7008 1.69451 34.2585C0.962468 35.8162 0.553551 37.5061 0.492417 39.2262C0.431283 40.9463 0.719189 42.6609 1.33879 44.2667C1.9584 45.8725 2.89686 47.3362 4.09754 48.5694C5.29823 49.8026 6.73627 50.7798 8.32493 51.4421C9.91358 52.1044 11.6199 52.438 13.3411 52.4228H52.7049C55.4681 52.4079 58.1219 51.3415 60.1272 49.4404C62.1325 47.5393 63.3388 44.9461 63.5011 42.1876C63.6634 39.4292 62.7694 36.7124 61.0008 34.5893C59.2323 32.4663 56.7217 31.0961 53.9794 30.7573V30.7778ZM52.6844 48.9284H13.3411C10.8949 48.923 8.55052 47.9488 6.82083 46.2192C5.09115 44.4895 4.11703 42.1451 4.1116 39.6989C4.11483 38.916 4.21145 38.1362 4.39939 37.3762C4.92108 35.4026 6.08096 33.657 7.69833 32.4114C9.31569 31.1659 11.2997 30.4903 13.3411 30.4901C13.9061 30.4878 14.4702 30.5359 15.0266 30.6339L16.4655 30.9012L16.9794 29.5239C18.0275 26.8443 19.8549 24.5404 22.2257 22.9098C24.5964 21.2793 27.4015 20.3969 30.2788 20.3767C30.7516 20.3767 31.2244 20.3767 31.8205 20.3767C33.3442 20.5456 34.83 20.9622 36.2194 21.61C39.6699 23.1851 42.3589 26.0588 43.7016 29.6062L44.421 31.5384L46.2094 30.5106C46.5475 30.3132 46.9213 30.1844 47.3092 30.1315C47.6972 30.0786 48.0918 30.1026 48.4705 30.2023C49.0896 30.3397 49.6503 30.6673 50.0741 31.139C50.4979 31.6108 50.7638 32.2032 50.8344 32.8334L51.0605 34.3134H52.6844C54.6361 34.3134 56.5078 35.0887 57.8879 36.4688C59.268 37.8488 60.0433 39.7206 60.0433 41.6723C60.0433 43.624 59.268 45.4957 57.8879 46.8758C56.5078 48.2558 54.6361 49.0312 52.6844 49.0312V48.9284Z" fill="white"/>
<path d="M47.3388 24.9194C48.9206 24.8287 50.4957 25.188 51.8818 25.9556C53.2678 26.7232 54.4081 27.8677 55.1705 29.2566L56.2805 29.5238C57.839 28.7271 59.1682 27.5455 60.1421 26.0911C61.116 24.6367 61.7024 22.9577 61.8455 21.2132C61.9887 19.4687 61.684 17.7165 60.9602 16.1228C60.2365 14.5291 59.1177 13.1466 57.7099 12.1064C56.3022 11.0662 54.6521 10.4028 52.9161 10.1791C51.1801 9.9553 49.4157 10.1786 47.7902 10.8278C46.1646 11.477 44.7319 12.5306 43.6276 13.8888C42.5234 15.2469 41.7843 16.8645 41.4805 18.5883C43.8785 20.2382 45.8796 22.4008 47.3388 24.9194ZM45.4271 14.6416C46.6194 13.2849 48.2433 12.7711 49.0655 13.5111C49.8877 14.2511 49.5588 15.8955 48.3666 17.2521C47.1744 18.6088 45.5505 19.1022 44.7283 18.3827C43.906 17.6633 44.2349 15.9572 45.4271 14.6005V14.6416Z" fill="white"/>
</svg>
