<svg width="70" height="58" viewBox="0 0 70 58" fill="none" xmlns="http://www.w3.org/2000/svg">
<path d="M15.7108 31.8462C15.8454 31.2456 15.9143 30.6322 15.9163 30.0167C15.9163 28.4956 15.9163 26.8101 15.9163 26.8101C14.5538 27.8545 13.3249 29.0627 12.2575 30.4073C12.0522 30.7464 11.9192 31.1243 11.8669 31.5173C11.784 31.9461 11.859 32.3905 12.0781 32.7683C12.2973 33.1461 12.6457 33.4319 13.0591 33.5729C13.3477 33.6625 13.6524 33.6874 13.9517 33.6458C14.2509 33.6042 14.5373 33.4972 14.7905 33.3323C15.0437 33.1675 15.2574 32.9488 15.4165 32.692C15.5756 32.4351 15.676 32.1463 15.7108 31.8462ZM12.9769 30.2223C13.0573 30.0565 13.1967 29.9268 13.3678 29.8583C13.5389 29.7899 13.7293 29.7878 13.9019 29.8523C14.1486 30.0373 14.1486 30.469 13.9019 30.8595C13.6552 31.2501 13.2236 31.394 12.9769 31.2295C12.7302 31.0651 12.7097 30.654 12.9769 30.2223Z" fill="white"/>
<path d="M1.42408 33.0795C1.21978 33.421 1.08041 33.7973 1.01298 34.1895C0.942787 34.6172 1.0233 35.056 1.24075 35.4309C1.4582 35.8058 1.79911 36.0936 2.2052 36.245C2.49524 36.3528 2.80585 36.3936 3.11389 36.3646C3.42192 36.3355 3.71943 36.2373 3.98421 36.0772C4.24899 35.9172 4.47422 35.6994 4.64312 35.4402C4.81201 35.1809 4.92021 34.8869 4.95964 34.58C5.0862 33.9855 5.14824 33.379 5.14465 32.7712C5.14465 31.2501 5.14465 29.5439 5.14465 29.5439C3.76448 30.5658 2.51495 31.7532 1.42408 33.0795ZM2.2052 32.9562C2.47242 32.5656 2.88353 32.4012 3.1302 32.5862C3.37686 32.7712 3.37686 33.2028 3.1302 33.5728C2.88353 33.9428 2.47242 34.1278 2.2052 33.9428C1.93798 33.7578 1.95854 33.3262 2.2052 32.9562Z" fill="white"/>
<path d="M14.0055 42.5556C13.8066 42.8977 13.6741 43.2743 13.6149 43.6656C13.532 44.0944 13.607 44.5387 13.8262 44.9166C14.0453 45.2944 14.3938 45.5802 14.8072 45.7211C15.0961 45.8251 15.4046 45.863 15.71 45.8321C16.0155 45.8012 16.3102 45.7023 16.5724 45.5426C16.8346 45.3829 17.0577 45.1665 17.2254 44.9093C17.393 44.652 17.5009 44.3605 17.5411 44.0561C17.677 43.4558 17.7459 42.8422 17.7466 42.2267C17.7466 40.7261 17.7466 39.02 17.7466 39.02C16.3635 40.0457 15.1076 41.2326 14.0055 42.5556ZM14.8072 42.4322C15.0538 42.0417 15.465 41.8772 15.7322 42.0417C15.855 42.1807 15.9228 42.3598 15.9228 42.5453C15.9228 42.7308 15.855 42.9099 15.7322 43.0489C15.465 43.4189 15.0538 43.5834 14.8072 43.4189C14.5605 43.2545 14.5605 42.8022 14.8894 42.4322H14.8072Z" fill="white"/>
<path d="M21.6116 51.8881C21.4041 52.228 21.2645 52.605 21.2005 52.9981C21.1303 53.4258 21.2108 53.8646 21.4283 54.2395C21.6457 54.6144 21.9866 54.9022 22.3927 55.0536C22.6827 55.1614 22.9934 55.2022 23.3014 55.1731C23.6094 55.1441 23.9069 55.0459 24.1717 54.8858C24.4365 54.7258 24.6617 54.508 24.8306 54.2488C24.9995 53.9895 25.1077 53.6955 25.1471 53.3886C25.2736 52.7871 25.3356 52.1739 25.3321 51.5592C25.3321 50.0586 25.3321 48.3525 25.3321 48.3525C23.952 49.3744 22.7024 50.5618 21.6116 51.8881ZM22.3927 51.7647C22.6599 51.3742 23.071 51.2098 23.3177 51.3948C23.5644 51.5798 23.5849 51.9909 23.3177 52.3814C23.2372 52.5472 23.0979 52.6769 22.9268 52.7454C22.7557 52.8138 22.5653 52.816 22.3927 52.7514C22.146 52.587 22.146 52.1347 22.3927 51.7647Z" fill="white"/>
<path d="M33.9841 47.4477C33.7711 47.7849 33.631 48.163 33.5729 48.5577C33.4944 48.9861 33.5714 49.4286 33.7899 49.8054C34.0085 50.1822 34.3543 50.4686 34.7652 50.6132C35.0552 50.7209 35.3658 50.7618 35.6739 50.7327C35.9819 50.7037 36.2794 50.6055 36.5442 50.4454C36.809 50.2853 37.0342 50.0676 37.2031 49.8083C37.372 49.5491 37.4802 49.2551 37.5196 48.9482C37.6369 48.3453 37.6989 47.733 37.7046 47.1188C37.7046 45.6182 37.7046 43.9121 37.7046 43.9121C36.3245 44.934 35.0749 46.1214 33.9841 47.4477ZM34.7652 47.3243C35.0118 46.9338 35.4435 46.7693 35.6902 46.9543C35.9369 47.1393 35.9369 47.571 35.6902 47.941C35.4435 48.311 35.0118 48.496 34.7652 48.311C34.5185 48.126 34.5185 47.6943 34.7652 47.3243Z" fill="white"/>
<path d="M42.7014 54.1899C42.485 54.5254 42.3447 54.9043 42.2903 55.2998C42.2201 55.7275 42.3006 56.1663 42.5181 56.5412C42.7355 56.9162 43.0765 57.2039 43.4825 57.3554C43.7726 57.4631 44.0832 57.504 44.3912 57.4749C44.6993 57.4459 44.9968 57.3476 45.2616 57.1876C45.5263 57.0275 45.7516 56.8098 45.9205 56.5505C46.0894 56.2913 46.1976 55.9973 46.237 55.6904C46.3543 55.0875 46.4162 54.4751 46.422 53.861C46.422 52.3604 46.422 50.6543 46.422 50.6543C45.0418 51.6762 43.7923 52.8636 42.7014 54.1899ZM43.4825 54.0665C43.7498 53.6965 44.1609 53.5115 44.4075 53.6965C44.6542 53.8815 44.6542 54.3132 44.4075 54.6832C44.1609 55.0532 43.7498 55.2382 43.4825 55.0532C43.2153 54.8682 43.2359 54.4365 43.4825 54.0665Z" fill="white"/>
<path d="M57.8704 44.3232C56.5198 45.3665 55.2983 46.5673 54.2321 47.8999C54.0152 48.2428 53.875 48.6284 53.821 49.0305C53.7425 49.4589 53.8194 49.9014 54.0379 50.2782C54.2565 50.655 54.6023 50.9414 55.0132 51.086C55.9999 51.4971 57.2949 51.086 57.7677 49.421C57.8841 48.8249 57.946 48.2195 57.9527 47.6121C58.0554 46.0088 57.8704 44.3232 57.8704 44.3232ZM55.0132 47.7766C55.2599 47.4066 55.6916 47.2421 55.9382 47.4066C56.1849 47.571 56.1849 48.0233 55.9382 48.4138C55.6916 48.8044 55.2599 48.9482 55.0132 48.7838C54.7665 48.6193 54.7665 48.1671 55.0132 47.7766Z" fill="white"/>
<path d="M69.6697 30.0163C69.1169 27.8042 67.7543 25.88 65.8513 24.624C63.9482 23.368 61.6433 22.8716 59.3919 23.233H59.0219C58.2301 21.1571 56.9375 19.309 55.2592 17.853C53.5809 16.397 51.5689 15.3783 49.4019 14.8875C48.4367 14.6733 47.4512 14.563 46.4625 14.5586C45.9692 14.5586 45.4964 14.5586 45.0236 14.5586C42.5464 14.8327 40.1931 15.7859 38.2235 17.313C36.2539 18.8401 34.7445 20.8817 33.8619 23.2125C33.2389 22.8488 32.5277 22.6639 31.8064 22.678C31.4871 22.6772 31.1692 22.7187 30.8608 22.8014C30.0834 22.9946 29.3793 23.4108 28.8352 23.9987C28.2911 24.5866 27.9306 25.3208 27.798 26.1108C26.363 26.1093 24.9568 26.5139 23.7419 27.2777C22.527 28.0416 21.5531 29.1335 20.9325 30.4275C20.428 31.4575 20.1677 32.59 20.1719 33.7369C20.1719 35.754 20.9732 37.6885 22.3995 39.1149C23.8259 40.5412 25.7604 41.3425 27.7775 41.3425H60.6664C61.872 41.3452 63.0664 41.11 64.181 40.6505C65.2957 40.191 66.3088 39.5162 67.1623 38.6646C68.0157 37.813 68.6929 36.8014 69.1549 35.6878C69.6169 34.5742 69.8547 33.3804 69.8547 32.1747C69.8763 31.4505 69.8142 30.7263 69.6697 30.0163Z" fill="white"/>
<path d="M30.5721 21.2191C31.3723 21.0552 32.1974 21.0552 32.9977 21.2191C34.5632 18.168 37.1126 15.7345 40.2332 14.3124C41.7148 13.6292 43.2977 13.1918 44.9199 13.0174H45.0843C44.46 12.177 43.6479 11.494 42.7129 11.0229C41.7779 10.5518 40.7458 10.3057 39.6988 10.3041C39.5923 9.6022 39.2794 8.94788 38.7999 8.42442C38.3203 7.90096 37.6959 7.53206 37.006 7.36465C36.7259 7.33457 36.4433 7.33457 36.1632 7.36465C35.5356 7.35975 34.9181 7.52299 34.3749 7.83742C33.2791 4.89533 31.0615 2.50773 28.2082 1.19798C27.0562 0.652751 25.8181 0.311925 24.5493 0.19075C24.1316 0.16949 23.7131 0.16949 23.2954 0.19075C20.8945 0.151038 18.5376 0.838533 16.5346 2.16291C14.5315 3.48728 12.9759 5.38658 12.0721 7.61131C11.5838 7.52067 11.0887 7.47251 10.5921 7.4674C8.78799 7.49134 7.04182 8.10805 5.62283 9.22245C4.20383 10.3368 3.19078 11.887 2.73987 13.6341C2.56593 14.3055 2.47617 14.996 2.47266 15.6896C2.47266 17.8703 3.33893 19.9617 4.8809 21.5036C6.42286 23.0456 8.51421 23.9118 10.6949 23.9118H27.1393C27.899 22.61 29.1268 21.6469 30.5721 21.2191Z" fill="white"/>
</svg>
