<svg width="71" height="53" viewBox="0 0 71 53" fill="none" xmlns="http://www.w3.org/2000/svg">
<path d="M28.8457 32.0354C29.6449 31.8618 30.472 31.8618 31.2712 32.0354C32.8368 28.9843 35.3862 26.5508 38.5068 25.1287C39.9917 24.4548 41.5732 24.0178 43.1935 23.8338H43.3579C42.7304 22.9917 41.9148 22.3079 40.9762 21.8368C40.0376 21.3657 39.002 21.1204 37.9518 21.1204C37.8402 20.4206 37.5255 19.7689 37.0468 19.2463C36.5681 18.7238 35.9464 18.3533 35.259 18.1809C34.9826 18.1165 34.7001 18.082 34.4162 18.0782C33.7886 18.0733 33.1711 18.2365 32.6279 18.551C31.5321 15.6089 29.3145 13.2213 26.4612 11.9115C25.3057 11.3756 24.0693 11.0353 22.8024 10.9043C22.3912 10.9043 21.9596 10.9043 21.5485 10.9043C19.1362 10.9048 16.7811 11.6382 14.7951 13.0075C12.8092 14.3767 11.2862 16.3171 10.4279 18.5715C9.93904 18.488 9.44387 18.4467 8.94792 18.4482C7.13828 18.451 5.38172 19.0599 3.95851 20.1776C2.5353 21.2953 1.52743 22.8574 1.09569 24.6148C0.91168 25.2843 0.821748 25.9761 0.828476 26.6704C0.855127 28.8155 1.71911 30.8653 3.23606 32.3822C4.75301 33.8992 6.80279 34.7632 8.94792 34.7898H25.3924C26.1365 33.4534 27.3772 32.4638 28.8457 32.0354Z" fill="white"/>
<path d="M63.1946 14.6662C61.6101 12.4018 59.3575 10.6891 56.7518 9.76774C54.1461 8.84635 51.3177 8.76231 48.6619 9.52732C51.2624 9.64316 53.7429 10.6545 55.6831 12.3899C57.6233 14.1253 58.9039 16.4782 59.3079 19.0497C59.7119 21.6213 59.2145 24.2535 57.8999 26.5002C56.5853 28.747 54.5344 30.4702 52.0946 31.3779C51.431 31.6397 50.7422 31.8326 50.0391 31.9534C47.2593 32.4163 44.407 31.8223 42.043 30.2884C44.1623 32.9757 47.2427 34.7345 50.6342 35.1937C54.0256 35.6529 57.4628 34.7766 60.2205 32.7497C62.9781 30.7228 64.8405 27.7039 65.4146 24.3299C65.9886 20.956 65.2295 17.4911 63.2974 14.6662H63.1946Z" fill="white"/>
<path d="M67.9225 40.8336C67.5064 39.2318 66.6664 37.7718 65.4908 36.607C64.3152 35.4423 62.8475 34.6159 61.2419 34.2147C59.3321 35.6285 57.1121 36.5657 54.7669 36.9485C53.966 37.0883 53.1544 37.1571 52.3414 37.1541C50.0692 37.1445 47.8287 36.6198 45.7886 35.6193C43.7485 34.6188 41.9618 33.1687 40.563 31.378L39.3092 29.4458L38.6925 28.2741L38.3225 27.1436C35.4884 28.669 33.2991 31.1649 32.1558 34.1736C31.5293 33.8185 30.8204 33.6341 30.1003 33.6391C29.781 33.6383 29.4631 33.6798 29.1547 33.7624C28.3773 33.9557 27.6732 34.3718 27.1291 34.9598C26.585 35.5477 26.2245 36.2819 26.0919 37.0719C24.6604 37.0743 23.2585 37.4807 22.0477 38.2443C20.8368 39.0079 19.866 40.0977 19.2469 41.3885C18.7424 42.4186 18.4822 43.5511 18.4864 44.698C18.4864 46.717 19.287 48.6537 20.7127 50.0832C22.1385 51.5128 24.0729 52.3187 26.0919 52.3241H58.9808C61.4177 52.3241 63.7548 51.3561 65.478 49.6329C67.2011 47.9098 68.1692 45.5727 68.1692 43.1358C68.1919 42.3607 68.109 41.5862 67.9225 40.8336Z" fill="white"/>
<path d="M42.1448 12.0761L46.1326 11.4594L42.1448 10.8222L43.7276 8.64328L41.5487 10.2261L40.9321 6.23828L40.2948 10.2261L38.1159 8.64328L39.6987 10.8222L35.7109 11.4594L39.6987 12.0761L38.1159 14.2344L40.2948 12.6516L40.9321 16.66L41.5487 12.6516L43.7276 14.2344L42.1448 12.0761Z" fill="white"/>
<path d="M21.1177 3.42245L22.2072 1.90132L20.7066 3.01134L20.275 0.236328L19.8433 3.01134L18.3427 1.90132L19.4322 3.42245L16.6777 3.85409L19.4322 4.28578L18.3427 5.78632L19.8433 4.69688L20.275 7.45132L20.7066 4.69688L22.2072 5.78632L21.1177 4.28578L23.8927 3.85409L21.1177 3.42245Z" fill="white"/>
<path d="M70.2039 8.70494L68.3128 8.41717L69.0528 7.36884L68.025 8.12939L67.7167 6.23828L67.4289 8.12939L66.4011 7.36884L67.1411 8.41717L65.25 8.70494L67.1411 9.01329L66.4011 10.0411L67.4289 9.28049L67.7167 11.1922L68.025 9.28049L69.0528 10.0411L68.3128 9.01329L70.2039 8.70494Z" fill="white"/>
</svg>
