<svg width="120" height="90" viewBox="0 0 120 90" fill="none" xmlns="http://www.w3.org/2000/svg">
<path d="M119.291 25.4115C119.317 24.5937 118.817 23.8524 118.047 23.5656C117.286 23.2822 116.417 23.5119 115.899 24.144C112.975 27.7103 108.661 29.7549 104.055 29.7549C95.6128 29.7549 88.7442 22.8863 88.7442 14.4455C88.7442 10.195 90.4598 6.24103 93.5715 3.30853C94.1694 2.74646 94.3421 1.86833 94.0048 1.1238C93.6643 0.379272 92.8937 -0.0720071 92.0759 0.00945148C79.8229 1.19875 70.4861 11.0292 69.7448 23.1632C66.4523 21.2099 62.614 20.0988 58.5312 20.0988C58.3374 20.0988 58.1435 20.1183 57.9496 20.1232C56.371 20.1656 54.8053 20.366 53.2886 20.7423C50.5304 21.4249 47.9139 22.6354 45.607 24.3216C40.946 21.5552 35.6577 20.0988 30.2228 20.0988C13.558 20.0988 0 33.6567 0 50.3232C0 66.9896 13.558 80.5476 30.2228 80.5476C32.4466 80.5476 34.6965 80.2869 36.9333 79.7721C40.9362 86.1177 47.9074 90 55.4749 90C64.6765 90 72.7849 84.2784 75.9601 75.8164C78.9448 77.2762 82.2161 78.0386 85.5478 78.0386C97.633 78.0386 107.462 68.2082 107.462 56.123C107.462 52.8663 106.737 49.7823 105.455 47.0045C113.472 43.0896 119.027 34.9975 119.291 25.4115ZM85.5462 74.2133C82.1217 74.2133 78.7786 73.2358 75.8673 71.3867C75.5561 71.1896 75.1993 71.0886 74.8393 71.0886C74.6014 71.0886 74.3619 71.1326 74.1322 71.2222C73.562 71.4503 73.1368 71.9374 72.9836 72.532C70.9504 80.5655 63.7495 86.1747 55.4733 86.1747C48.81 86.1747 42.7071 82.5286 39.5416 76.6538C39.1148 75.8686 38.2057 75.4776 37.339 75.7203C34.9685 76.3834 32.5753 76.7206 30.2211 76.7206C15.6661 76.7206 3.82692 64.8798 3.82692 50.3248C3.82692 35.7698 15.6677 23.9289 30.2211 23.9289C35.3661 23.9289 40.366 25.4262 44.6768 28.256C45.3838 28.7171 46.306 28.6633 46.9511 28.1241C48.4695 26.8615 50.1769 25.8726 51.995 25.1687C53.3309 24.6507 54.7255 24.2955 56.1543 24.1049C56.9395 24.0006 57.733 23.9306 58.5312 23.9306C62.8176 23.9306 66.7814 25.405 69.9029 27.9286C72.9739 30.4098 75.2303 33.9076 76.1556 38.0229C76.2827 38.5703 76.6395 39.0363 77.1396 39.2953C77.6398 39.5576 78.2279 39.5853 78.746 39.3719C78.9301 39.2969 79.1207 39.2448 79.3064 39.1747C81.3168 38.4318 83.4087 38.0392 85.5462 38.0392C91.3444 38.0392 96.4991 40.7909 99.8112 45.0479C100.626 46.0922 101.323 47.2277 101.892 48.4366C102.996 50.7744 103.632 53.3746 103.632 56.1279C103.633 66.1001 95.5183 74.2133 85.5462 74.2133ZM103.547 43.6794C100.199 38.8652 94.9807 35.4439 88.9381 34.499C87.8303 34.3279 86.7045 34.209 85.5462 34.209C85.3458 34.209 85.1487 34.2253 84.9483 34.2318C83.0356 34.2823 81.1523 34.5723 79.3227 35.1165C78.1611 31.5779 76.154 28.4971 73.5669 26.0534C73.5408 25.6103 73.5001 25.1671 73.5001 24.7158C73.5001 15.6039 79.2315 7.81318 87.4523 4.9214C85.7971 7.78549 84.9157 11.0373 84.9157 14.4472C84.9157 25.0026 93.5014 33.585 104.055 33.585C107.911 33.585 111.606 32.4365 114.725 30.3381C113.109 36.2781 108.979 41.1037 103.547 43.6794Z" fill="white"/>
</svg>
