<svg width="61" height="40" viewBox="0 0 61 40" fill="none" xmlns="http://www.w3.org/2000/svg">
<path d="M29.4461 39.5915C24.2336 39.5915 19.6421 36.35 17.8419 31.5573C16.1524 32.3841 14.2995 32.8168 12.4125 32.8168C5.56867 32.8168 0 27.2472 0 20.4043C0 13.5595 5.56774 7.99175 12.4125 7.99175C13.6121 7.99175 14.7932 8.16338 15.9374 8.50387C17.6001 3.44178 22.283 0 27.7141 0C30.3476 0 32.9165 0.844299 35.0351 2.39171C37.675 0.825845 40.6702 0 43.7475 0C53.1861 0 60.865 7.67895 60.865 17.1185C60.865 26.558 53.187 34.2369 43.7484 34.2369C42.4889 34.2369 41.2137 34.0902 39.9477 33.7968C37.6805 37.3926 33.7313 39.5915 29.4461 39.5915ZM18.4767 28.8777C18.6124 28.8777 18.748 28.9026 18.8772 28.9552C19.2001 29.0835 19.4419 29.3594 19.5277 29.6962C20.6793 34.2461 24.7577 37.424 29.4461 37.424C33.2191 37.424 36.6757 35.358 38.4695 32.0316C38.7103 31.585 39.227 31.3645 39.717 31.5019C41.0596 31.8784 42.416 32.0685 43.7484 32.0685C51.9921 32.0685 58.6984 25.3621 58.6984 17.1185C58.6984 8.8748 51.9921 2.16841 43.7484 2.16841C40.8344 2.16841 38.0026 3.01548 35.561 4.61918C35.1615 4.88031 34.6383 4.85079 34.272 4.54536C32.4348 3.01271 30.1059 2.16841 27.7151 2.16841C22.8975 2.16841 18.7923 5.45056 17.7311 10.1491C17.661 10.46 17.458 10.7249 17.1757 10.8716C16.8933 11.0183 16.5602 11.0349 16.2649 10.915C15.0322 10.413 13.7367 10.1592 12.4135 10.1592C6.76452 10.1592 2.16933 14.7544 2.16933 20.4052C2.16933 26.0532 6.76452 30.6503 12.4135 30.6503C14.3521 30.6503 16.2474 30.0948 17.8954 29.0484C18.0716 28.9349 18.2737 28.8777 18.4767 28.8777Z" fill="white"/>
</svg>
