<svg width="87" height="57" viewBox="0 0 87 57" fill="none" xmlns="http://www.w3.org/2000/svg">
<path d="M41.9643 56.4227C34.5358 56.4227 27.9924 51.8031 25.4268 44.973C23.0191 46.1512 20.3785 46.7679 17.6894 46.7679C7.93602 46.7679 0 38.8306 0 29.0786C0 19.3239 7.93471 11.3892 17.6894 11.3892C19.3989 11.3892 21.0821 11.6338 22.7127 12.119C25.0823 4.90495 31.7559 0 39.496 0C43.249 0 46.91 1.20323 49.9292 3.40848C53.6914 1.17693 57.9599 0 62.3454 0C75.7966 0 86.74 10.9434 86.74 24.3959C86.74 37.8483 75.7979 48.7917 62.3468 48.7917C60.5518 48.7917 58.7344 48.5827 56.9303 48.1645C53.6993 53.289 48.0711 56.4227 41.9643 56.4227ZM26.3315 41.1542C26.5249 41.1542 26.7182 41.1897 26.9023 41.2647C27.3625 41.4475 27.707 41.8407 27.8293 42.3206C29.4705 48.8049 35.2827 53.3337 41.9643 53.3337C47.3413 53.3337 52.2673 50.3895 54.8236 45.6489C55.1669 45.0124 55.9033 44.6981 56.6015 44.8941C58.5148 45.4306 60.4479 45.7015 62.3468 45.7015C74.095 45.7015 83.6524 36.1441 83.6524 24.3959C83.6524 12.6477 74.095 3.09025 62.3468 3.09025C58.194 3.09025 54.1582 4.29742 50.6788 6.58289C50.1094 6.95503 49.3638 6.91295 48.8417 6.47769C46.2235 4.29348 42.9045 3.09025 39.4973 3.09025C32.6317 3.09025 26.7813 7.7677 25.269 14.4637C25.1691 14.9068 24.8798 15.2842 24.4774 15.4933C24.075 15.7024 23.6003 15.7261 23.1795 15.5551C21.4227 14.8398 19.5764 14.4781 17.6907 14.4781C9.64026 14.4781 3.09156 21.0268 3.09156 29.0799C3.09156 37.129 9.64026 43.6803 17.6907 43.6803C20.4535 43.6803 23.1545 42.8887 25.5031 41.3975C25.7543 41.2357 26.0422 41.1542 26.3315 41.1542Z" fill="white"/>
</svg>
