<svg width="33" height="24" viewBox="0 0 33 24" fill="none" xmlns="http://www.w3.org/2000/svg">
<path d="M0.845618 7.16326H16.5263C16.6242 7.17119 16.7179 7.1928 16.8173 7.1928C18.8031 7.1928 20.413 5.58295 20.413 3.5964C20.413 1.60984 18.8031 0 16.8173 0C14.8307 0 13.2209 1.60984 13.2209 3.5964C13.2209 4.28643 13.4247 4.92389 13.7618 5.47131H0.845618C0.378871 5.47131 0 5.85018 0 6.31765C0 6.78511 0.378871 7.16326 0.845618 7.16326Z" fill="white"/>
<path d="M21.5415 15.8507C21.517 15.8493 21.4962 15.8363 21.4709 15.8363H1.3749C0.908157 15.8363 0.528564 16.2152 0.528564 16.6826C0.528564 17.1501 0.907437 17.529 1.3749 17.529H18.3607C18.0136 18.0822 17.8047 18.7311 17.8047 19.4327C17.8047 21.4185 19.4145 23.0291 21.4011 23.0291C23.3869 23.0291 24.9968 21.4193 24.9968 19.4327C24.9968 17.4951 23.4604 15.9263 21.5415 15.8507Z" fill="white"/>
<path d="M33.0002 9.06698C33.0002 7.08115 31.3904 5.47058 29.4045 5.47058C27.418 5.47058 25.8081 7.08043 25.8081 9.06698C25.8081 9.76854 26.017 10.4175 26.3642 10.9707H0.91714C0.449673 10.9707 0.0708008 11.3496 0.0708008 11.817C0.0708008 12.2845 0.448953 12.6634 0.91714 12.6634H29.4744C29.4996 12.6634 29.5198 12.6511 29.545 12.649C31.4638 12.5733 33.0002 11.0046 33.0002 9.06698Z" fill="white"/>
</svg>
