<svg width="59" height="57" viewBox="0 0 59 57" fill="none" xmlns="http://www.w3.org/2000/svg">
<path d="M38.6319 17.1825C36.0458 15.0493 32.796 13.886 29.4436 13.8936C25.6274 13.8936 21.9675 15.4096 19.2691 18.108C16.5707 20.8064 15.0547 24.4663 15.0547 28.2825C15.0869 32.0887 16.6132 35.7299 19.3047 38.4214C21.9962 41.1128 25.6374 42.6392 29.4436 42.6714C32.4475 42.7167 35.3903 41.8206 37.8592 40.1088C40.3281 38.3971 42.1992 35.9554 43.2103 33.1264C44.2213 30.2973 44.3214 27.2228 43.4967 24.3339C42.6719 21.4451 40.9636 18.8869 38.6114 17.018L38.6319 17.1825ZM20.7691 20.3275C22.4341 18.4364 24.7158 17.7169 25.8669 18.7241C27.018 19.7314 26.5864 22.0953 24.9008 23.9864C23.2152 25.8775 20.9541 26.5969 19.803 25.5897C18.6519 24.5825 19.1658 22.2186 20.7691 20.3275Z" fill="white"/>
<path d="M14.1925 39.1157C13.7997 38.6908 13.2647 38.4247 12.6888 38.3679C12.113 38.3111 11.5363 38.4674 11.068 38.8073L6.48413 42.199C6.205 42.4001 5.97495 42.6617 5.81121 42.9643C5.64747 43.2669 5.55427 43.6025 5.53858 43.9462C5.49835 44.3949 5.58944 44.8455 5.80076 45.2434C6.01209 45.6412 6.33452 45.9689 6.7288 46.1868C7.12308 46.4046 7.5722 46.5031 8.02146 46.4703C8.47071 46.4374 8.90073 46.2746 9.25913 46.0018L13.8636 42.6101C14.1128 42.4272 14.3234 42.1969 14.4832 41.9323C14.6431 41.6677 14.749 41.374 14.7948 41.0683C14.8407 40.7626 14.8256 40.4509 14.7504 40.151C14.6753 39.8512 14.5415 39.5692 14.3569 39.3212L14.1925 39.1157Z" fill="white"/>
<path d="M10.8211 28.3238C10.8137 27.7451 10.5943 27.1892 10.2045 26.7615C9.98041 26.5224 9.70986 26.3316 9.4094 26.2008C9.10895 26.07 8.78493 26.002 8.45725 26.001H2.74281C2.14902 26.0051 1.57891 26.2344 1.14774 26.6427C0.716566 27.051 0.456466 27.6077 0.420018 28.2004C0.420018 28.2004 0.420018 28.3238 0.420018 28.3649C0.414417 28.9848 0.652605 29.5822 1.08324 30.0282C1.51387 30.4742 2.10248 30.7332 2.72225 30.7493H8.43669C8.75331 30.7494 9.06677 30.6864 9.35878 30.564C9.65079 30.4416 9.91549 30.2622 10.1375 30.0365C10.3594 29.8107 10.5342 29.5429 10.6516 29.2489C10.7689 28.9548 10.8266 28.6403 10.8211 28.3238V28.3238Z" fill="white"/>
<path d="M35.2823 10.6666C35.5765 10.7589 35.8861 10.7922 36.1932 10.7647C36.5003 10.7371 36.799 10.6492 37.072 10.5059C37.3451 10.3627 37.5872 10.167 37.7845 9.93004C37.9818 9.69306 38.1304 9.41948 38.2218 9.12497L39.9484 3.67774C40.0744 3.2862 40.0932 2.86806 40.0028 2.4668C39.9124 2.06554 39.7162 1.69582 39.4345 1.39608C39.1644 1.0899 38.8163 0.862584 38.4273 0.738299C38.1331 0.642461 37.8229 0.605831 37.5145 0.63052C37.2061 0.655209 36.9056 0.740731 36.6304 0.882148C36.3552 1.02356 36.1107 1.21808 35.9111 1.45447C35.7115 1.69086 35.5607 1.96443 35.4673 2.25941L33.7406 7.70664C33.7193 7.89789 33.7193 8.09094 33.7406 8.28219C33.7047 8.79299 33.8356 9.30165 34.1136 9.73167C34.3916 10.1617 34.8018 10.4898 35.2823 10.6666V10.6666Z" fill="white"/>
<path d="M47.9438 17.9432L52.5277 14.531C52.777 14.3482 52.9876 14.1178 53.1474 13.8532C53.3072 13.5886 53.4131 13.295 53.459 12.9893C53.5048 12.6836 53.4897 12.3718 53.4146 12.0719C53.3394 11.7721 53.2057 11.4901 53.0211 11.2421C52.9716 11.1823 52.9165 11.1272 52.8566 11.0777C52.4725 10.6472 51.9419 10.375 51.3681 10.3142C50.7944 10.2534 50.2185 10.4083 49.7527 10.7488L45.1483 14.1405C44.8743 14.3466 44.6481 14.6094 44.4849 14.9109C44.3217 15.2124 44.2255 15.5456 44.2027 15.8877C44.1577 16.4398 44.3188 16.989 44.655 17.4294C45.0246 17.9314 45.5776 18.2671 46.1936 18.3634C46.8096 18.4596 47.4387 18.3086 47.9438 17.9432Z" fill="white"/>
<path d="M57.9143 26.7616C57.6926 26.5195 57.4225 26.3267 57.1215 26.1957C56.8205 26.0647 56.4953 25.9984 56.1671 26.0011H50.4526C49.8609 26.0055 49.2932 26.2355 48.8654 26.6443C48.4375 27.053 48.1818 27.6096 48.1504 28.2005C48.1504 28.2005 48.1504 28.3238 48.1504 28.3649C48.1558 28.9883 48.4073 29.5843 48.85 30.0232C49.2927 30.4621 49.8909 30.7083 50.5143 30.7083H56.2287C56.6856 30.7077 57.1323 30.5736 57.514 30.3225C57.8956 30.0714 58.1956 29.7141 58.3768 29.2948C58.5581 28.8754 58.6129 28.4122 58.5343 27.9622C58.4558 27.5121 58.2474 27.0948 57.9348 26.7616H57.9143Z" fill="white"/>
<path d="M38.1812 47.6666C38.1416 47.5667 38.0935 47.4704 38.0373 47.3788C37.7698 46.853 37.3138 46.4475 36.7604 46.2432C36.207 46.0389 35.5969 46.0508 35.0519 46.2766C34.5069 46.5024 34.0671 46.9254 33.8204 47.4612C33.5736 47.997 33.538 48.6062 33.7207 49.1671L35.0362 53.1549L35.5295 54.5732C35.625 54.8664 35.7774 55.1378 35.9779 55.3719C36.1784 55.6061 36.4232 55.7984 36.6981 55.9378C36.9731 56.0772 37.2729 56.1609 37.5803 56.1843C37.8877 56.2076 38.1967 56.1701 38.4895 56.0738C39.0798 55.872 39.5676 55.4469 39.8481 54.8897C40.1286 54.3325 40.1796 53.6876 39.9901 53.0932L38.1812 47.6666Z" fill="white"/>
<path d="M23.6691 46.1044C23.0776 45.9171 22.436 45.9721 21.885 46.2573C21.3339 46.5424 20.9185 47.0345 20.7297 47.6255L19.003 53.0727C18.9834 53.2641 18.9834 53.4569 19.003 53.6483C18.9588 54.2254 19.1297 54.7986 19.4829 55.2572C19.836 55.7158 20.3464 56.0275 20.9158 56.1322C21.4851 56.2369 22.073 56.1271 22.5662 55.8241C23.0594 55.5211 23.423 55.0462 23.5869 54.4911L25.3136 49.0438C25.4291 48.6512 25.4426 48.2356 25.3527 47.8363C25.2627 47.4371 25.0724 47.0673 24.7997 46.7622C24.4929 46.44 24.1008 46.2119 23.6691 46.1044V46.1044Z" fill="white"/>
<path d="M13.8634 14.0997L9.21781 10.7697C8.96612 10.5882 8.68089 10.4586 8.37869 10.3882C8.07649 10.3178 7.76331 10.3082 7.45735 10.3598C7.15139 10.4114 6.85874 10.5233 6.59636 10.689C6.33398 10.8546 6.1071 11.0707 5.92891 11.3247C5.68108 11.6841 5.53221 12.1024 5.49724 12.5375C5.47694 12.9353 5.5566 13.3318 5.72895 13.6909C5.9013 14.0499 6.16086 14.3601 6.48391 14.5931L11.1295 17.9231C11.5995 18.2822 12.188 18.4503 12.7769 18.3935C13.3657 18.3368 13.9113 18.0595 14.3041 17.6172C14.697 17.1749 14.908 16.6004 14.8949 16.009C14.8818 15.4176 14.6454 14.853 14.2334 14.4286C14.1205 14.3077 13.9967 14.1976 13.8634 14.0997V14.0997Z" fill="white"/>
<path d="M20.2982 7.70648L20.771 9.12481C20.8681 9.42445 21.0234 9.70201 21.2278 9.94164C21.4323 10.1813 21.6819 10.3783 21.9625 10.5215C22.2431 10.6646 22.5491 10.7511 22.8632 10.776C23.1772 10.8009 23.493 10.7637 23.7926 10.6665C24.0923 10.5693 24.3698 10.4141 24.6095 10.2096C24.8491 10.0052 25.0461 9.75552 25.1893 9.47494C25.3324 9.19435 25.4189 8.88831 25.4438 8.5743C25.4687 8.26028 25.4315 7.94444 25.3343 7.64481L23.5254 2.21815C23.4931 2.11868 23.4518 2.02236 23.4021 1.93037C23.153 1.37692 22.6989 0.941708 22.1353 0.716351C21.5718 0.490995 20.9428 0.493079 20.3808 0.722154C19.8187 0.951229 19.3675 1.38943 19.122 1.94451C18.8766 2.4996 18.8561 3.12825 19.0648 3.69815L20.2982 7.70648Z" fill="white"/>
<path d="M52.4667 42.1574L47.8212 38.8274C47.3168 38.4653 46.6892 38.3182 46.0764 38.4184C45.4636 38.5186 44.9156 38.858 44.5528 39.3619C44.2928 39.7227 44.1429 40.1511 44.1212 40.5952C44.0928 40.9919 44.1667 41.3892 44.3358 41.7491C44.505 42.1091 44.7637 42.4195 45.0873 42.6508L49.7328 45.9602C50.2029 46.3194 50.7914 46.4874 51.3802 46.4307C51.9691 46.374 52.5147 46.0966 52.9075 45.6544C53.3004 45.2121 53.5114 44.6376 53.4983 44.0462C53.4851 43.4548 53.2488 42.8902 52.8367 42.4658C52.7331 42.3414 52.6077 42.237 52.4667 42.1574Z" fill="white"/>
</svg>
