<svg width="43" height="31" viewBox="0 0 43 31" fill="none" xmlns="http://www.w3.org/2000/svg">
<path d="M33.3743 22.09H31.3743C31.3743 16.412 26.7553 11.792 21.0773 11.792C15.3993 11.792 10.7793 16.412 10.7793 22.09H8.7793C8.7793 15.309 14.2963 9.79199 21.0773 9.79199C27.8573 9.79199 33.3743 15.308 33.3743 22.09Z" fill="white"/>
<path d="M22.0771 0H20.0771V7.403H22.0771V0Z" fill="white"/>
<path d="M12.1148 10.7005L6.88013 5.46582L5.46593 6.88002L10.7006 12.1147L12.1148 10.7005Z" fill="white"/>
<path d="M36.6869 6.87904L35.2727 5.46484L30.038 10.6995L31.4522 12.1137L36.6869 6.87904Z" fill="white"/>
<path d="M42.153 20.0767H34.75V22.0767H42.153V20.0767Z" fill="white"/>
<path d="M7.402 20.0767H0V22.0767H7.402V20.0767Z" fill="white"/>
<path d="M33.3743 24.5908H8.7793V26.5908H33.3743V24.5908Z" fill="white"/>
<path d="M33.3743 28.75H8.7793V30.75H33.3743V28.75Z" fill="white"/>
</svg>
