<svg width="73" height="46" viewBox="0 0 73 46" fill="none" xmlns="http://www.w3.org/2000/svg">
<path d="M44.0916 14.2901C44.9913 12.8926 45.4694 11.2655 45.4689 9.60347C45.4689 9.3568 45.4689 9.11014 45.4689 8.86347C45.2859 6.70239 44.2982 4.68878 42.7013 3.22129C41.1044 1.75381 39.0146 0.939453 36.8458 0.939453C34.677 0.939453 32.5873 1.75381 30.9903 3.22129C29.3934 4.68878 28.4057 6.70239 28.2228 8.86347H32.2105C32.3764 7.75273 32.9356 6.73849 33.7863 6.00535C34.637 5.27222 35.7228 4.86894 36.8458 4.86894C37.9689 4.86894 39.0546 5.27222 39.9053 6.00535C40.756 6.73849 41.3152 7.75273 41.4811 8.86347C41.4811 9.11014 41.4811 9.3568 41.4811 9.60347C41.4756 10.8483 40.9773 12.0404 40.0951 12.9187C39.2129 13.797 38.0188 14.2901 36.7739 14.2901H7.99609V18.2779H36.7739C38.2303 18.281 39.6641 17.9173 40.943 17.2204C42.2219 16.5235 43.3047 15.5157 44.0916 14.2901Z" fill="white"/>
<path d="M45.1196 27.7745H16.3418V31.7212H45.1196C46.3663 31.7266 47.5605 32.2243 48.4421 33.1059C49.3237 33.9875 49.8214 35.1816 49.8268 36.4284C49.8268 36.6751 49.8268 36.9012 49.8268 37.1478C49.6609 38.2586 49.1018 39.2728 48.251 40.006C47.4003 40.7391 46.3146 41.1424 45.1915 41.1424C44.0685 41.1424 42.9827 40.7391 42.132 40.006C41.2813 39.2728 40.7221 38.2586 40.5562 37.1478H36.4451C36.628 39.3089 37.6157 41.3225 39.2127 42.79C40.8096 44.2575 42.8994 45.0719 45.0682 45.0719C47.237 45.0719 49.3267 44.2575 50.9237 42.79C52.5206 41.3225 53.5083 39.3089 53.6912 37.1478C53.6912 36.9012 53.6912 36.6751 53.6912 36.4284C53.6967 35.2904 53.4766 34.1627 53.0436 33.1103C52.6106 32.0579 51.9734 31.1017 51.1687 30.297C50.364 29.4924 49.4079 28.8551 48.3555 28.4222C47.3031 27.9892 46.1753 27.7691 45.0373 27.7745H45.1196Z" fill="white"/>
<path d="M60.247 0.826172C58.6634 0.82617 57.0954 1.13842 55.6326 1.74505C54.1698 2.35168 52.841 3.24078 51.7222 4.36149C50.6034 5.48221 49.7166 6.81253 49.1124 8.27634C48.5083 9.74015 48.1987 11.3087 48.2014 12.8923C48.2025 13.8756 48.3198 14.8554 48.5509 15.8112H52.662C52.2819 14.885 52.0864 13.8934 52.0864 12.8923C52.0864 11.2954 52.5597 9.73437 53.4465 8.40635C54.3332 7.07832 55.5937 6.04289 57.0686 5.43086C58.5435 4.81883 60.1667 4.65765 61.7332 4.96769C63.2997 5.27773 64.7392 6.04509 65.8698 7.17281C67.0003 8.30053 67.7713 9.73803 68.0854 11.3037C68.3994 12.8694 68.2423 14.493 67.6341 15.9695C67.0258 17.446 65.9936 18.7091 64.6678 19.5992C63.342 20.4893 61.7822 20.9665 60.1853 20.9706H0.574219V24.9173H60.1853C62.8693 24.9232 65.4779 24.0294 67.5943 22.3787C69.7107 20.7281 71.2129 18.4158 71.8609 15.8112C72.109 14.8581 72.2334 13.8771 72.2309 12.8923C72.231 9.70634 70.971 6.64968 68.7259 4.38919C66.4808 2.1287 63.4329 0.847882 60.247 0.826172Z" fill="white"/>
</svg>
