<svg width="191" height="144" viewBox="0 0 191 144" fill="none" xmlns="http://www.w3.org/2000/svg">
<path d="M190.999 40.6289C191.04 39.3213 190.241 38.1362 189.009 37.6777C187.792 37.2245 186.404 37.5918 185.576 38.6024C180.9 44.3042 174.003 47.5732 166.639 47.5732C153.141 47.5732 142.16 36.5915 142.16 23.0963C142.16 16.3005 144.902 9.97878 149.877 5.29023C150.833 4.39159 151.11 2.98762 150.57 1.79725C150.026 0.606876 148.794 -0.114638 147.486 0.0155995C127.896 1.91707 112.968 17.6342 111.783 37.0344C106.519 33.9113 100.382 32.1348 93.8544 32.1348C93.5445 32.1348 93.2345 32.1661 92.9245 32.1739C90.4005 32.2416 87.8974 32.562 85.4723 33.1637C81.0625 34.2551 76.8792 36.1904 73.1909 38.8863C65.7387 34.4635 57.2837 32.1348 48.5942 32.1348C21.9502 32.1348 0.273438 53.8116 0.273438 80.4582C0.273438 107.105 21.9502 128.782 48.5942 128.782C52.1497 128.782 55.7469 128.365 59.3232 127.542C65.7231 137.687 76.8688 143.894 88.9679 143.894C103.68 143.894 116.643 134.746 121.72 121.217C126.492 123.551 131.722 124.77 137.049 124.77C156.371 124.77 172.086 109.053 172.086 89.7311C172.086 84.5242 170.927 79.5934 168.877 75.1523C181.695 68.8931 190.577 55.9553 190.999 40.6289ZM137.046 118.654C131.571 118.654 126.226 117.091 121.572 114.135C121.074 113.82 120.504 113.658 119.928 113.658C119.548 113.658 119.165 113.729 118.798 113.872C117.886 114.237 117.206 115.015 116.961 115.966C113.71 128.81 102.197 137.778 88.9653 137.778C78.3119 137.778 68.5545 131.949 63.4934 122.556C62.811 121.301 61.3575 120.676 59.9718 121.064C56.1819 122.124 52.3555 122.663 48.5916 122.663C25.3207 122.663 6.392 103.732 6.392 80.4608C6.392 57.1899 25.3234 38.2586 48.5916 38.2586C56.8174 38.2586 64.8114 40.6524 71.7036 45.1768C72.8341 45.914 74.3084 45.828 75.3398 44.9658C77.7675 42.9472 80.4973 41.3661 83.4042 40.2408C85.5401 39.4125 87.7697 38.8447 90.0541 38.5399C91.3096 38.3732 92.5781 38.2612 93.8544 38.2612C100.708 38.2612 107.045 40.6185 112.036 44.6533C116.946 48.6203 120.553 54.2127 122.033 60.7923C122.236 61.6675 122.806 62.4125 123.606 62.8266C124.406 63.246 125.346 63.2903 126.174 62.9491C126.469 62.8292 126.773 62.7459 127.07 62.6339C130.285 61.4461 133.629 60.8184 137.046 60.8184C146.317 60.8184 154.558 65.2178 159.854 72.024C161.156 73.6937 162.271 75.5092 163.18 77.4419C164.946 81.1797 165.962 85.3369 165.962 89.7389C165.964 105.683 152.99 118.654 137.046 118.654ZM165.826 69.836C160.474 62.139 152.131 56.669 142.47 55.1582C140.698 54.8847 138.898 54.6946 137.046 54.6946C136.726 54.6946 136.411 54.7206 136.091 54.7311C133.033 54.8118 130.021 55.2755 127.096 56.1454C125.239 50.4879 122.03 45.5623 117.894 41.6552C117.852 40.9467 117.787 40.2382 117.787 39.5167C117.787 24.9483 126.95 12.4924 140.094 7.86893C137.448 12.4481 136.038 17.6472 136.038 23.0989C136.038 39.9751 149.765 53.697 166.639 53.697C172.805 53.697 178.712 51.8606 183.698 48.5057C181.114 58.0026 174.511 65.7179 165.826 69.836Z" fill="white"/>
</svg>
