<svg width="22" height="14" viewBox="0 0 22 14" fill="none" xmlns="http://www.w3.org/2000/svg">
<path d="M13.3309 4.14606C13.6068 3.71648 13.7541 3.21698 13.7556 2.70643C13.7556 2.62725 13.7556 2.55526 13.7556 2.48327C13.6958 1.82294 13.3913 1.20883 12.9018 0.761608C12.4123 0.314389 11.7733 0.0664062 11.1102 0.0664062C10.4472 0.0664062 9.80814 0.314389 9.31865 0.761608C8.82915 1.20883 8.52462 1.82294 8.4649 2.48327H9.667C9.72545 2.14962 9.89967 1.84726 10.159 1.62938C10.4184 1.4115 10.7463 1.29207 11.085 1.29207C11.4238 1.29207 11.7517 1.4115 12.011 1.62938C12.2704 1.84726 12.4446 2.14962 12.5031 2.48327C12.5105 2.55747 12.5105 2.63223 12.5031 2.70643C12.5031 3.08824 12.3514 3.45442 12.0814 3.7244C11.8114 3.99439 11.4453 4.14606 11.0634 4.14606H2.20972V5.36254H11.1066C11.5491 5.35993 11.9841 5.24739 12.3723 5.03505C12.7605 4.82272 13.0899 4.51724 13.3309 4.14606Z" fill="white"/>
<path d="M13.6477 8.27795H4.79395V9.49444H13.6477C14.0295 9.49444 14.3957 9.64612 14.6656 9.9161C14.9356 10.1861 15.0873 10.5523 15.0873 10.9341C15.0948 11.0083 15.0948 11.083 15.0873 11.1572C15.0289 11.4909 14.8546 11.7932 14.5953 12.0111C14.3359 12.229 14.008 12.3484 13.6693 12.3484C13.3305 12.3484 13.0026 12.229 12.7433 12.0111C12.4839 11.7932 12.3097 11.4909 12.2512 11.1572H11.0276C11.0873 11.8176 11.3918 12.4317 11.8813 12.8789C12.3708 13.3261 13.0098 13.5741 13.6729 13.5741C14.3359 13.5741 14.9749 13.3261 15.4644 12.8789C15.9539 12.4317 16.2585 11.8176 16.3182 11.1572C16.3182 11.0852 16.3182 11.0061 16.3182 10.9341C16.3182 10.2296 16.0383 9.55404 15.5402 9.05592C15.0421 8.5578 14.3665 8.27795 13.6621 8.27795H13.6477Z" fill="white"/>
<path d="M18.3049 0.0144002C17.7428 0.014505 17.1881 0.142432 16.6827 0.38851C16.1773 0.634587 15.7346 0.992367 15.3878 1.43479C15.0411 1.87721 14.7995 2.39269 14.6814 2.94223C14.5632 3.49178 14.5716 4.061 14.7058 4.60683H15.9871C15.7965 4.11372 15.7688 3.57255 15.9079 3.06254C16.0471 2.55252 16.3458 2.10044 16.7604 1.77241C17.1749 1.44439 17.6836 1.25766 18.212 1.23955C18.7403 1.22143 19.2606 1.37288 19.6967 1.67175C20.1327 1.97061 20.4617 2.4012 20.6354 2.90049C20.8092 3.39977 20.8186 3.94155 20.6622 4.44656C20.5059 4.95156 20.192 5.39328 19.7665 5.70706C19.3411 6.02084 18.8264 6.19023 18.2977 6.19042H0V7.39251H18.3049C18.8207 7.39284 19.3307 7.2847 19.8019 7.07512C20.2732 6.86555 20.695 6.55922 21.0402 6.17602C21.5214 5.64648 21.8384 4.98854 21.9526 4.2822C22.0669 3.57586 21.9734 2.85154 21.6837 2.19731C21.3939 1.54308 20.9204 0.987132 20.3205 0.597043C19.7207 0.206954 19.0204 -0.00046937 18.3049 7.97527e-07V0.0144002Z" fill="white"/>
</svg>
