<svg width="150" height="147" viewBox="0 0 150 147" fill="none" xmlns="http://www.w3.org/2000/svg">
<path d="M76.1631 110.654C55.808 110.654 39.2461 94.0953 39.2461 73.7339C39.2461 53.3788 55.8111 36.8169 76.1631 36.8169C96.5245 36.8169 113.083 53.3788 113.083 73.7339C113.083 94.0953 96.5214 110.654 76.1631 110.654ZM76.1631 44.2022C59.8778 44.2022 46.6314 57.4548 46.6314 73.737C46.6314 90.0287 59.8809 103.272 76.1631 103.272C92.4453 103.272 105.698 90.0287 105.698 73.737C105.698 57.4548 92.4484 44.2022 76.1631 44.2022Z" fill="white"/>
<path d="M76.1626 22.7718C74.1262 22.7718 72.4731 21.1188 72.4731 19.0792V3.69264C72.4731 1.65304 74.123 0 76.1626 0C78.2022 0 79.8584 1.65304 79.8584 3.69264V19.0792C79.8584 21.1188 78.1991 22.7718 76.1626 22.7718Z" fill="white"/>
<path d="M112.91 41.5368C111.964 41.5368 111.018 41.1753 110.299 40.4557C108.856 39.0163 108.856 36.6782 110.299 35.2357L123.526 22.0082C124.969 20.5657 127.304 20.5657 128.746 22.0082C130.189 23.4475 130.189 25.7857 128.746 27.2282L115.519 40.4557C114.799 41.1753 113.856 41.5368 112.91 41.5368Z" fill="white"/>
<path d="M33.5333 41.5375C32.5874 41.5375 31.6414 41.1761 30.9249 40.4564L17.6943 27.2289C16.2549 25.7864 16.2549 23.4514 17.6943 22.0089C19.1367 20.5664 21.4718 20.5664 22.9142 22.0089L36.1449 35.2364C37.5842 36.6789 37.5842 39.0139 36.1449 40.4564C35.4252 41.1761 34.4793 41.5375 33.5333 41.5375Z" fill="white"/>
<path d="M73.2205 146.907C71.184 146.907 69.5278 145.254 69.5278 143.215V127.831C69.5278 125.792 71.1809 124.139 73.2205 124.139C75.2601 124.139 76.9131 125.792 76.9131 127.831V143.215C76.9131 145.258 75.2601 146.907 73.2205 146.907Z" fill="white"/>
<path d="M23.2459 125.986C22.3031 125.986 21.3603 125.628 20.6375 124.905C19.195 123.466 19.195 121.128 20.6375 119.685L33.865 106.458C35.3075 105.015 37.6457 105.015 39.0882 106.458C40.5307 107.897 40.5307 110.235 39.0882 111.678L25.8607 124.905C25.1378 125.628 24.1919 125.986 23.2459 125.986Z" fill="white"/>
<path d="M129.081 125.986C128.138 125.986 127.192 125.628 126.472 124.905L113.245 111.678C111.802 110.235 111.802 107.9 113.245 106.458C114.687 105.015 117.019 105.015 118.462 106.458L131.696 119.685C133.135 121.128 133.135 123.466 131.696 124.905C130.97 125.628 130.027 125.986 129.081 125.986Z" fill="white"/>
<path d="M20.3048 77.4289H3.6895C1.65305 77.4289 0 75.779 0 73.7363C0 71.6998 1.6499 70.0436 3.6895 70.0436H20.3048C22.3413 70.0436 23.9943 71.6998 23.9943 73.7363C23.9943 75.7759 22.3444 77.4289 20.3048 77.4289Z" fill="white"/>
<path d="M145.827 77.4292H126.135C124.099 77.4292 122.439 75.7793 122.439 73.7366C122.439 71.7002 124.096 70.044 126.135 70.044H145.827C147.864 70.044 149.517 71.7002 149.517 73.7366C149.517 75.7762 147.864 77.4292 145.827 77.4292Z" fill="white"/>
</svg>
