<svg width="43" height="32" viewBox="0 0 43 32" fill="none" xmlns="http://www.w3.org/2000/svg">
<path d="M42.153 21.3545H0V23.3545H42.153V21.3545Z" fill="white"/>
<path d="M42.153 25.3545H0V27.3545H42.153V25.3545Z" fill="white"/>
<path d="M42.153 29.3545H0V31.3545H42.153V29.3545Z" fill="white"/>
<path d="M13.8678 5.28278C14.9598 4.19078 16.2398 3.40778 17.6028 2.90878C17.3388 6.32378 18.4848 9.82677 21.0538 12.4578L21.0498 12.4618C21.0648 12.4778 21.0798 12.4888 21.0948 12.5028C21.1148 12.5228 21.1298 12.5438 21.1498 12.5638L21.1558 12.5578C23.7858 15.1278 27.2908 16.2728 30.7048 16.0088C30.4108 16.8128 30.0058 17.5808 29.5088 18.3058H31.8478C32.3068 17.4498 32.6718 16.5548 32.9158 15.6318C33.1078 14.9048 33.2348 14.1668 33.2928 13.4208C32.6188 13.6678 31.9268 13.8398 31.2248 13.9418C28.1398 14.3848 24.8908 13.4418 22.5098 11.0898C20.1678 8.71078 19.2298 5.46977 19.6718 2.38977C19.7728 1.68677 19.9448 0.994777 20.1908 0.321777C19.4458 0.379777 18.7078 0.506777 17.9808 0.697777C15.9558 1.23478 14.0398 2.28277 12.4548 3.86777C8.55078 7.77077 7.83578 13.6608 10.2878 18.3048H12.6138C9.91877 14.3038 10.3318 8.81978 13.8678 5.28278Z" fill="white"/>
</svg>
