<svg width="1063" height="1063" viewBox="0 0 1063 1063" fill="none" xmlns="http://www.w3.org/2000/svg">
<mask id="mask0_122_4130" style="mask-type:alpha" maskUnits="userSpaceOnUse" x="0" y="0" width="1063" height="1063">
<rect width="1062.7" height="1062.7" fill="url(#paint0_linear_122_4130)"/>
</mask>
<g mask="url(#mask0_122_4130)">
<rect x="-10.3862" width="1062.7" height="1062.7" fill="url(#paint1_linear_122_4130)"/>
<rect x="-15.6665" y="409.937" width="1121.45" height="3.91659" fill="url(#paint2_linear_122_4130)"/>
<rect width="1121.45" height="5.22212" transform="matrix(-1 0 0 1 1074.45 143.608)" fill="url(#paint3_linear_122_4130)"/>
<rect width="1121.45" height="3.91659" transform="matrix(-1 0 0 1 1105.78 133.164)" fill="url(#paint4_linear_122_4130)"/>
<rect x="-138.386" y="744.153" width="1044.42" height="3.91659" fill="url(#paint5_linear_122_4130)"/>
<rect x="1348.61" y="565.295" width="1044.42" height="3.91668" transform="rotate(180 1348.61 565.295)" fill="url(#paint6_linear_122_4130)"/>
<rect x="1159.31" y="835.54" width="1174.98" height="3.9167" transform="rotate(180 1159.31 835.54)" fill="url(#paint7_linear_122_4130)"/>
<rect x="1195.87" y="592.711" width="1044.42" height="3.91668" transform="rotate(180 1195.87 592.711)" fill="url(#paint8_linear_122_4130)"/>
<path d="M1020.44 717.026C1017.49 708.847 1026.19 707.047 1033.24 700.013C1040.13 692.979 1045.38 691.834 1033.24 687.58C1021.1 683.327 1021.1 679.074 1025.69 675.148C1030.29 671.222 1013.55 676.62 1013.55 676.62C1013.55 676.62 1020.44 667.786 1006.01 660.588C991.407 653.554 975.821 644.23 972.376 655.19C968.931 666.15 965.978 670.731 960.236 667.95C954.494 665.169 944.486 664.024 942.19 669.095C939.893 674.003 949.08 677.601 939.237 679.728C929.393 681.855 928.245 675.475 920.042 676.947C911.839 678.419 911.839 682.673 909.542 684.472C907.246 686.272 897.402 684.472 891.004 687.744C884.606 691.016 881.161 689.871 878.208 685.944C875.255 682.018 868.364 679.892 862.458 679.892C856.716 679.892 849.17 673.185 846.217 671.712C843.264 670.24 832.272 667.786 829.975 674.493C827.678 681.2 820.624 685.454 817.179 683.327C813.734 681.2 799.789 678.419 792.734 672.694C785.844 666.968 774.688 674.166 770.587 669.913C766.485 665.66 753.689 658.298 746.142 657.48C738.596 656.826 718.909 660.588 717.104 669.913C715.3 679.074 723.995 688.725 707.753 687.253C691.512 685.781 635.076 688.235 630.483 696.414C625.889 704.593 635.076 719.807 645.084 723.079C653.287 725.696 670.184 725.205 670.348 732.403L1002.07 732.403C1002.23 732.403 1002.4 732.403 1002.56 732.24C1014.7 729.459 1023.4 725.205 1020.44 717.026Z" fill="url(#paint9_linear_122_4130)"/>
<path d="M317.135 874.714C320.259 872.268 314.997 869.823 317.628 867.703C323.382 862.976 335.714 859.063 335.878 856.454C336.372 848.303 343.77 837.706 339.331 835.587C337.523 834.609 336.043 829.881 329.795 831.348C325.191 832.489 315.984 839.825 311.709 840.315C307.763 840.804 304.474 835.261 302.83 836.565C296.911 840.804 278.825 849.118 273.892 846.021C268.96 842.923 264.849 834.935 254.655 840.152C244.461 845.368 230.65 843.575 222.594 837.543C217.497 833.793 217.168 835.75 207.632 842.434C206.152 843.575 202.863 838.521 199.575 839.825C196.615 840.967 193.82 848.466 192.176 849.77C189.052 852.379 186.257 856.291 182.147 854.498C182.147 854.498 180.996 850.096 183.297 840.967C185.599 832 191.19 822.381 188.723 819.284C186.421 816.349 182.969 823.197 175.57 826.131C172.117 827.435 164.554 823.034 161.759 825.153C157.484 828.413 154.524 837.054 154.524 837.054C154.524 837.054 150.578 829.392 142.85 829.718C136.767 829.881 127.888 837.217 120.983 839.662C111.775 842.923 101.581 855.639 100.266 856.291C98.786 857.107 101.746 864.117 95.8265 874.877C94.5112 877.322 92.867 879.931 91.3872 882.539L303.817 882.539C304.146 881.724 304.639 880.909 305.296 880.257C306.776 878.137 314.997 876.344 317.135 874.714Z" fill="url(#paint10_linear_122_4130)"/>
<path d="M721.479 811.378C715.966 813.857 712.958 814.518 712.123 811.378C711.288 808.237 708.949 805.428 706.61 805.428C704.271 805.428 704.271 802.287 703.602 800.469C702.934 798.651 698.924 798.321 697.421 798.651C695.917 798.982 691.239 794.519 690.738 793.032C690.07 791.709 692.576 789.561 693.411 787.082C694.246 784.602 700.094 777.661 704.605 779.809C708.949 781.958 711.622 793.362 714.796 790.222C717.971 787.082 716.801 782.123 717.971 782.619C719.14 782.95 722.983 785.429 723.317 786.42C723.651 787.412 729.498 788.9 730.334 786.09C731.169 783.28 735.847 783.611 738.019 787.082C740.024 790.552 735.346 799.973 738.019 800.634C740.692 801.296 743.7 805.593 746.039 809.725C748.378 813.857 745.036 825.096 736.348 825.096C735.513 825.096 729.833 818.485 724.988 818.485C720.142 818.485 716.968 825.096 716.801 822.286C716.133 819.642 721.479 811.378 721.479 811.378Z" fill="url(#paint11_linear_122_4130)"/>
<path d="M594.257 859.511C589.361 865.753 586.423 868.381 583.485 865.261C580.547 862.14 576.14 860.333 573.366 861.647C570.591 863.125 568.796 859.347 567 857.704C565.205 856.062 560.309 858.033 558.84 859.347C557.371 860.661 549.21 858.197 547.741 856.883C546.272 855.569 547.578 851.791 547.088 848.341C546.762 846.37 552.801 844.399 554.596 840.785C555.902 837.993 552.638 833.065 555.412 832.901C561.778 832.737 571.897 844.563 573.692 838.979C575.487 833.394 571.244 828.302 572.713 827.973C574.345 827.644 580.221 828.137 581.2 829.287C582.179 830.273 589.85 828.466 589.034 824.523C588.381 820.745 593.931 818.282 598.501 821.074C603.07 823.866 603.397 837.829 606.824 837.007C610.252 836.186 616.291 839.307 621.514 842.757C624.615 844.892 621.024 852.941 619.555 859.183C618.576 863.289 620.045 866.41 619.718 866.739C619.392 866.903 617.27 871.502 614.659 872.16C612.7 872.652 610.578 875.116 608.783 874.623C606.335 874.131 604.539 870.517 604.539 870.517C604.539 870.517 597.521 878.401 595.399 875.281C593.278 872.488 594.257 859.511 594.257 859.511Z" fill="url(#paint12_linear_122_4130)"/>
<path d="M1152.3 1.76501L1178.93 14.1216C1182.43 15.7465 1184.67 19.2558 1184.67 23.116C1184.67 28.5922 1180.23 33.0316 1174.75 33.0316H848.336C842.678 33.0316 838.091 28.4449 838.091 22.787C838.091 19.0809 840.093 15.6637 843.326 13.8512L865.834 1.23074C868.224 -0.109478 870.919 -0.813316 873.659 -0.813316H896.694C901.033 -0.813316 905.186 0.949135 908.201 4.06996L915.768 11.9028C918.783 15.0236 922.936 16.786 927.276 16.786H952.661C954.732 16.786 956.784 16.3838 958.702 15.6016L998.956 -0.813316L1031.96 -12.9339C1036.7 -14.6775 1041.99 -14.0743 1046.23 -11.307L1082.93 12.6865C1086.9 15.2842 1091.82 15.9834 1096.36 14.595L1140.89 0.978165C1144.66 -0.175334 1148.72 0.104877 1152.3 1.76501Z" fill="url(#paint13_linear_122_4130)"/>
<path d="M631.194 -36.2834C651.721 -20.6688 683.113 3.22577 696.529 13.4849C700.433 16.4703 702.684 21.0826 702.684 25.9973V33.8375C702.684 42.674 695.52 49.8375 686.684 49.8375H98.0656C89.2291 49.8375 82.0656 42.674 82.0656 33.8375V25.7182C82.0656 20.9628 84.168 16.4531 87.8567 13.4518C106.179 -1.45678 135.57 -24.0257 141.235 -23.0384C149.124 -21.6634 204.348 18.2121 213.552 18.2121C222.757 18.2121 321.372 -1.03811 337.15 -10.6632C352.929 -20.2883 429.191 -40.9136 437.08 -40.9136C444.969 -40.9136 496.249 -6.53818 508.083 -10.6632C516.923 -13.7447 580.717 -29.8543 617.676 -39.0649C622.379 -40.237 627.336 -39.2179 631.194 -36.2834Z" fill="url(#paint14_linear_122_4130)"/>
<path d="M1265.6 -98.0532C1270.66 -96.1528 1275.32 -94.2523 1279.78 -92.3518V81.0126C1277.55 81.2238 1276.94 83.3354 1276.13 88.8256C1274.92 96.4275 1265.8 107.83 1253.25 108.464C1240.69 109.097 1232.79 117.544 1220.44 125.568C1207.88 133.592 1213.75 143.517 1183.78 151.541C1153.81 159.565 1165.55 146.051 1152.59 133.592C1139.63 120.922 1146.31 130.847 1143.88 134.648C1141.45 138.449 1133.55 135.493 1132.74 133.803C1131.93 132.114 1126.67 124.512 1119.17 132.325C1111.68 139.927 1111.68 136.548 1111.28 135.07C1110.87 133.592 1098.31 130.213 1092.64 137.182C1086.77 144.15 1081.91 138.66 1060.24 132.325C1038.57 125.99 1042.82 122.612 1042.82 130.847C1042.82 139.293 1034.92 137.182 1023.38 138.871C1011.84 140.56 1001.3 127.046 1000.09 134.014C998.875 140.983 981.458 134.014 982.673 135.704C983.888 137.393 982.268 140.772 977.204 145.628C972.141 150.485 970.116 148.373 967.686 146.684C965.255 144.995 966.471 143.094 958.167 138.238C949.863 133.381 943.18 136.548 943.18 138.871C943.18 141.405 934.066 154.286 926.168 157.031C918.269 159.776 917.459 169.701 910.776 170.334C904.093 170.968 903.688 159.776 901.257 156.609C898.827 153.441 894.979 154.92 893.764 161.254C892.549 167.589 882.625 167.589 875.537 167.589C868.448 167.589 865.208 171.813 857.714 179.414C850.221 187.016 842.727 184.693 825.31 179.414C807.893 174.135 802.02 174.135 788.248 174.769C774.476 175.402 775.286 172.657 769.211 170.968C762.932 169.279 763.742 172.024 756.249 170.968C748.755 169.912 754.629 156.609 750.781 159.776C747.135 162.944 734.579 165.478 725.87 165.689C717.161 166.111 707.238 162.521 697.111 161.466C687.188 160.41 684.555 157.876 677.669 151.963C670.581 146.051 668.15 139.082 661.062 132.747C653.973 126.413 638.176 116.91 636.556 120.078C634.936 123.245 627.443 124.723 622.379 122.823C617.316 121.134 608.203 121.767 600.709 122.823C593.216 123.879 590.785 122.189 587.748 119.655C584.912 117.121 584.507 117.121 578.634 116.066C572.761 115.01 568.305 116.066 568.71 111.209C569.115 106.352 568.71 102.551 560.812 104.452C552.913 106.563 553.318 106.986 550.483 99.8061C547.647 92.8377 544.61 96.6387 535.496 97.061C526.382 97.4833 525.977 97.6945 525.977 92.4154C525.977 87.1363 520.104 89.248 508.965 89.248C497.826 89.248 496.003 87.5587 495.193 84.3912C494.383 81.2238 476.156 84.8135 475.143 82.2796C474.333 79.7456 466.435 80.5903 458.536 81.6461C450.638 82.7019 458.131 85.4471 458.536 90.0926C458.941 94.7382 457.321 100.228 452.663 97.061C448.005 93.8935 449.828 89.248 441.929 90.3038C434.031 91.3596 425.727 91.7819 424.107 95.3717C422.487 98.9615 413.778 101.073 407.095 102.762C400.411 104.452 405.069 117.755 400.006 125.146C394.943 132.536 385.424 138.871 377.121 137.393C368.817 135.915 370.437 131.48 368.412 133.17C366.387 134.859 363.349 136.337 356.868 133.17C350.185 130.002 346.134 130.002 344.312 131.058C342.691 132.114 335.603 130.636 331.755 126.835C328.11 123.034 322.236 123.034 316.768 121.556C311.3 120.078 298.541 117.755 293.478 126.835C288.415 135.915 285.984 135.281 283.554 135.493C281.124 135.915 274.035 131.269 273.63 136.971C273.225 142.672 262.896 145.628 260.264 140.56C257.833 135.281 244.467 138.449 240.214 142.039C235.96 145.628 218.543 157.031 212.062 151.541C205.379 145.84 204.974 143.517 204.974 143.517C179.658 133.381 199.506 124.934 189.177 117.966C178.848 110.998 173.38 83.7578 170.14 81.6461C166.899 79.5345 162.241 81.6461 159.811 79.5345C157.38 77.4229 152.722 75.7336 153.127 71.5103C153.533 67.2871 144.824 65.1754 142.394 65.5978C139.963 66.0201 129.837 66.0201 128.217 61.7968C126.597 57.7847 119.508 61.3745 117.483 61.5857C115.458 62.008 108.369 61.5857 105.331 59.0517C102.496 56.5178 101.078 52.7169 98.2429 52.0834C95.4076 51.4499 93.5849 50.3941 95.0026 47.6489C96.2177 45.115 93.7875 45.115 91.7622 41.1029C89.7369 37.302 86.294 37.9355 77.5854 37.9355C68.8768 37.9355 69.6869 45.115 57.5353 41.7364C55.3075 41.1029 50.4469 37.0908 48.8267 36.2462C47.2065 35.4015 43.3585 34.768 42.5484 35.8238C41.7383 36.8796 36.2701 35.8238 36.2701 35.8238C36.2701 35.8238 33.8399 34.1346 33.0298 31.3894C32.2196 28.6443 28.3716 29.7001 28.3716 29.7001C28.3716 29.7001 24.7262 29.7001 22.9035 31.1783C21.2833 32.6564 19.663 29.7001 17.4352 27.1662C15.41 24.6322 8.32152 23.7876 4.06848 26.5327C-15.9816 40.0471 -24.6902 31.6006 -32.3861 28.0108V-98.0532H1265.6Z" fill="url(#paint15_linear_122_4130)"/>
<path d="M154.398 -17.3287C152.989 -5.43546 156.411 8.15687 152.385 12.8292C148.36 17.5016 133.265 57.8537 129.44 53.3937C125.616 48.9337 110.119 11.3425 105.489 17.2892C100.86 23.4482 92.6081 36.191 85.5637 31.5186C78.7205 26.6339 67.2481 33.6424 59.3986 44.8985C51.5491 56.1546 51.1466 75.0564 38.6679 53.3937C38.6679 53.3937 33.4349 71.446 28.0006 82.4897C22.5663 93.5334 4.65321 66.3489 4.65321 66.3489C4.65321 66.3489 -21.3106 82.9145 -27.55 56.5794V-38.779C-16.8827 -47.4866 -6.0141 -53.4332 0.627809 -51.5218C9.48368 -48.9733 11.2952 -98.033 22.9688 -108.44C34.8438 -118.846 49.1339 -110.776 47.1212 -97.1834C45.1085 -83.8035 64.6317 -77.6445 67.2482 -81.255C69.8647 -85.0778 85.1611 -87.414 89.1865 -86.5645C93.2119 -85.7149 81.7396 -67.6627 85.9663 -47.9114C90.1929 -28.1601 116.962 -70.8484 133.466 -70.636C150.171 -70.4236 155.807 -29.222 154.398 -17.3287Z" fill="url(#paint16_linear_122_4130)"/>
<path d="M428.986 41.4712C438.481 53.8777 444.34 59.1347 449.997 52.8263C455.653 46.5179 464.138 42.9431 469.391 45.6768C474.644 48.6207 478.28 41.2609 481.715 37.6861C485.149 34.3216 494.645 38.5273 497.473 41.0506C500.301 43.574 516.059 38.7375 519.09 36.2142C522.12 33.6908 519.292 25.9104 520.1 19.1814C520.706 15.3964 508.988 11.401 505.554 4.04123C502.928 -1.63634 509.19 -11.3092 503.938 -11.5195C491.614 -11.9401 472.219 11.8216 468.785 0.466467C465.351 -10.8887 473.634 -20.7719 470.603 -21.4027C467.573 -22.0336 456.259 -20.9821 454.239 -18.8793C452.421 -16.7765 437.673 -20.5616 438.885 -28.342C440.299 -35.9121 429.39 -40.7485 420.703 -35.0709C412.015 -29.3934 411.409 -1.63633 404.742 -3.1083C398.075 -4.58026 386.358 1.51788 376.257 8.45713C370.196 12.6627 377.065 28.8543 380.095 41.2609C381.913 49.2515 379.085 55.7702 379.893 56.1908C380.701 56.6114 384.742 65.6534 389.792 66.9151C393.631 67.9665 397.671 72.803 401.308 71.9619C405.955 70.9104 409.389 63.9712 409.389 63.9712C409.389 63.9712 423.127 79.7422 426.965 73.6441C431.006 67.546 428.986 41.4712 428.986 41.4712Z" fill="url(#paint17_linear_122_4130)"/>
<path d="M1026.35 111.795C1029.18 107.858 1035.86 112.417 1039.91 108.065C1043.96 103.713 1050.03 101.019 1053.87 103.092C1057.51 105.164 1060.35 99.9834 1062.57 97.4967C1065 95.2173 1071.88 98.1184 1073.91 99.9834C1075.93 101.848 1087.26 98.3256 1089.29 96.4606C1091.31 94.5957 1105.07 84.442 1105.68 79.6759C1106.08 76.9821 1082.2 79.0543 1079.57 73.8738C1077.75 69.9366 1082.2 63.0984 1078.36 62.8912C1069.66 62.6839 1055.69 79.2615 1053.26 71.3872C1050.84 63.5128 1056.71 56.4674 1054.68 56.0529C1052.46 55.6385 1044.36 56.4674 1042.94 57.9179C1041.53 59.3684 1031 56.6746 1032.02 51.2869C1033.03 45.8992 1025.14 42.5837 1019.07 46.5209C1012.79 50.458 1012.39 70.1438 1007.53 68.9005C1002.67 67.8644 994.377 72.216 987.294 76.9821C982.842 79.8831 929.62 81.3337 931.643 90.0369C932.048 92.1091 937.714 105.371 945.607 108.272C950.868 110.344 957.344 97.704 963.617 97.4967C973.735 97.4967 983.854 109.101 989.722 110.344C990.329 110.552 993.162 116.975 996.805 118.011C999.436 118.633 1002.47 122.156 1005.1 121.534C1008.34 120.705 1010.97 115.939 1010.97 115.939C1010.97 115.939 1020.68 127.129 1023.52 122.777C1026.55 118.426 1026.35 111.795 1026.35 111.795Z" fill="url(#paint18_linear_122_4130)"/>
<path d="M1171.85 20.2427C1171.85 20.2427 1181.38 30.3443 1166.37 41.919C1151.36 53.4937 1135.34 68.0147 1129.46 54.5459C1123.58 41.0772 1119.32 35.8159 1113.44 40.4458C1107.35 45.0757 1096.6 48.2325 1092.95 42.1294C1089.51 36.2369 1099.24 30.1338 1087.68 29.0815C1076.12 28.0293 1076.12 36.4473 1066.59 36.0264C1057.26 35.6055 1056.45 30.1338 1053.41 28.4502C1050.57 26.5562 1039.61 30.5547 1031.91 27.6084C1024.2 24.6621 1020.35 26.5562 1017.91 32.0279C1015.28 37.4995 1007.98 41.4981 1001.28 42.3399C994.794 43.3921 987.492 53.2833 984.45 55.5982C981.408 57.9131 969.442 62.9639 965.589 54.7564C961.735 46.5489 953.217 42.3399 949.567 45.7071C946.119 49.0743 930.908 54.9669 924.013 63.5953C917.117 72.0133 903.529 64.858 899.675 70.961C895.822 77.0641 882.842 88.8492 874.527 90.9537C866.212 93.2687 843.294 91.5851 839.644 80.2208C835.993 68.8565 844.105 55.1773 826.055 59.8072C808.005 64.4371 744.323 71.1715 737.427 61.4908C730.734 52.0206 738.441 30.9756 748.987 25.083C759.533 19.4009 784.479 17.2964 772.513 2.56492C760.345 -12.1666 753.246 -25.4249 756.897 -36.5787C760.547 -47.7325 769.065 -54.046 794.011 -56.9923C818.957 -59.9386 864.184 -52.152 883.451 -47.7325C902.718 -43.3131 903.529 -56.7819 906.368 -64.1476C909.41 -71.5133 941.252 -76.985 969.442 -80.7731C997.633 -84.7717 1010.21 -62.2536 1030.49 -59.7282C1050.77 -57.4132 1105.33 -78.2477 1110.8 -76.7746C1116.28 -75.3014 1128.45 -65.1998 1128.45 -56.9923C1128.24 -48.5743 1134.73 -50.0475 1148.93 -48.5743C1163.13 -47.1012 1173.67 -43.1026 1172.05 -32.3697C1170.22 -21.4263 1180.37 -20.795 1189.49 -13.0084C1198.62 -5.22174 1204.7 -4.80084 1191.72 2.77535C1178.74 10.3515 1179.55 15.8232 1185.44 19.8218C1191.93 24.0308 1171.85 20.2427 1171.85 20.2427Z" fill="url(#paint19_linear_122_4130)"/>
<path d="M459.611 6.46939C459.611 6.46939 454.974 12.9483 468.077 8.55937C481.18 4.17041 473.52 8.97737 479.568 11.2764C485.414 13.5753 495.896 10.2314 497.509 6.46939C499.121 2.70742 505.975 4.37942 511.216 9.81337C516.458 15.2473 519.683 4.37941 529.359 0.826438C539.035 -2.72653 544.679 -10.4595 558.79 -8.7875C572.901 -7.11551 578.949 -5.65251 584.19 -11.0865C589.431 -16.5204 581.973 -26.5524 595.479 -29.2693C608.985 -31.7773 612.21 -31.9863 614.226 -40.5552C616.242 -49.3332 641.44 -50.7962 608.38 -61.2461C575.32 -71.696 582.174 -80.8919 557.178 -73.577C532.181 -66.2621 528.553 -67.934 514.845 -71.278C501.137 -74.622 493.074 -78.175 489.647 -70.651C486.422 -63.1271 469.488 -62.9181 456.385 -66.053C443.484 -69.188 436.025 -72.532 432.195 -66.053C428.365 -59.5741 427.962 -40.3462 412.843 -33.2403C397.523 -26.1344 389.661 -12.1315 394.701 -5.8615C399.74 0.408447 415.262 17.5463 419.496 12.5303C423.729 7.72336 431.792 -2.93553 434.211 11.9034C436.63 26.7422 456.587 9.81336 459.611 6.46939Z" fill="url(#paint20_linear_122_4130)"/>
<path d="M473.228 -6.88563C471.609 4.77966 476.466 17.9031 471.407 22.2776C466.348 26.6521 439.03 34.9844 434.174 30.61C429.317 26.2355 412.724 19.153 407.058 24.7773C401.19 30.61 394.917 43.1085 385.811 38.3174C376.705 33.5263 362.136 39.7756 352.423 50.3993C342.71 61.0231 332.794 52.2741 316.404 31.0266C316.404 31.0266 319.641 75.3964 312.964 86.0201C306.084 96.6439 282.611 69.5637 282.611 69.5637C282.611 69.5637 276.54 81.4373 268.648 83.3121C262.578 84.7703 255.293 76.4379 248.817 74.7714C240.319 72.48 233.236 57.0652 231.82 56.4402C230.403 55.8153 235.26 44.775 232.224 31.0266C229.391 18.7363 223.928 3.94643 222.309 -7.30225H473.228C473.228 -7.30225 473.228 -7.09394 473.228 -6.88563Z" fill="url(#paint21_linear_122_4130)"/>
<path d="M1278.17 32.9584C1275.33 35.5028 1271.89 37.6232 1267.84 38.2593C1263.99 38.8954 1259.54 33.5945 1254.88 32.9584C1249.82 32.3223 1242.73 41.2277 1236.66 43.136C1232.61 44.4083 1228.96 37.8352 1226.74 39.5315C1221.27 43.7722 1224.71 48.6489 1221.47 50.5573C1214.79 54.1618 1210.34 47.1647 1200.82 37.1991C1196.57 32.7464 1191.3 41.8638 1186.24 38.8954C1185.03 38.2592 1182.8 29.1418 1180.57 27.8696C1177.94 26.3853 1175.11 32.7464 1173.89 31.0501C1170.45 26.1733 1172.47 21.2965 1170.25 22.7807C1165.79 25.7492 1167.41 18.328 1162.55 13.4512C1159.92 10.9068 1152.02 13.0271 1148.58 9.42256C1142.31 2.84949 1139.07 -6.26799 1131.37 -10.0846C1126.72 -12.417 1120.64 -9.23648 1111.13 -12.205C1086.02 -19.8382 1096.55 -23.8669 1073.87 -51.2193C1050.99 -78.5718 1073.26 -65.8497 1079.54 -72.2108C1085.61 -78.5718 1088.45 -76.8755 1101.2 -71.5746C1113.96 -66.2738 1112.95 -79.2079 1120.24 -80.9042C1127.53 -82.6004 1131.98 -77.9357 1143.12 -68.6062C1154.25 -59.2767 1163.16 -62.6692 1173.28 -60.3368C1183.41 -58.0044 1191.71 -65.6377 1193.33 -58.0044C1194.95 -50.3712 1200.01 -45.0703 1203.45 -47.4027C1206.9 -49.7351 1217.42 -46.7666 1221.27 -41.4657C1225.12 -36.1649 1216.21 -36.1649 1229.57 -32.7723C1242.94 -29.1677 1235.65 -26.4113 1235.65 -26.4113C1240.1 -27.6835 1265.82 -31.076 1260.15 -17.0818C1254.48 -3.08748 1266.83 -7.75223 1272.9 -9.44851C1274.93 -10.0846 1276.55 -7.96427 1278.17 -4.78375V32.9584V32.9584Z" fill="url(#paint22_linear_122_4130)"/>
<path d="M353.8 -33.7827C357.24 -37.6036 351.169 -87.7009 346.11 -91.5219C319.397 -113.174 349.348 -127.397 353.8 -135.888C358.05 -144.379 356.836 -137.374 357.645 -131.43C358.455 -125.486 359.871 -123.788 361.085 -133.34C362.3 -142.893 362.907 -145.44 365.133 -143.53C367.359 -141.619 367.561 -142.893 367.966 -150.959C368.371 -159.026 372.013 -170.701 376.87 -171.55C381.727 -172.187 384.763 -181.103 389.619 -189.594C394.476 -198.085 394.274 -210.184 405.809 -218.463C417.344 -226.954 410.868 -211.034 415.725 -197.872C420.784 -184.711 421.998 -195.325 423.01 -199.358C424.022 -203.392 431.307 -200.632 431.914 -199.358C433.736 -195.75 436.974 -194.264 439.2 -201.481C441.426 -208.911 443.449 -202.967 451.747 -196.387C460.044 -189.806 458.425 -186.197 458.425 -194.901C458.425 -203.604 482.304 -198.297 481.697 -199.995C481.292 -201.906 479.471 -203.392 481.495 -208.699C483.518 -213.793 486.352 -210.184 487.363 -208.274C488.375 -206.364 487.971 -207.637 491.208 -202.543C494.446 -197.448 497.077 -200.632 497.077 -203.179C497.077 -205.727 494.244 -220.161 497.28 -222.921C500.315 -225.893 504.565 -228.228 507.196 -229.077C509.826 -229.714 515.898 -219.949 516.302 -226.742C516.707 -233.323 520.552 -233.323 523.385 -233.323C526.218 -233.323 527.433 -237.78 530.266 -245.847C533.099 -253.913 536.134 -251.366 542.813 -245.847C549.491 -240.328 551.919 -240.328 557.181 -241.177C562.442 -241.814 562.24 -239.054 564.668 -237.144C567.097 -235.233 566.692 -238.205 569.728 -237.144C572.561 -236.082 570.335 -222.072 571.751 -225.468C573.168 -228.865 578.025 -231.412 581.465 -231.624C584.905 -232.049 588.75 -228.228 592.595 -227.167C596.44 -226.105 597.452 -223.558 600.083 -217.19C602.916 -211.034 606.356 -204.665 609.19 -198.085C612.023 -191.504 618.094 -188.957 618.701 -192.353C619.308 -195.75 626.998 -185.773 629.831 -186.834C632.664 -187.895 636.105 -180.89 638.331 -179.829C640.557 -178.768 642.378 -179.829 642.176 -174.734C641.973 -169.64 649.866 -165.819 650.473 -162.422C651.889 -155.205 649.461 -158.389 653.104 -158.814C656.746 -159.238 661.198 -152.021 665.448 -152.021C669.698 -152.021 670.507 -150.11 670.71 -146.926C671.114 -143.53 678.197 -147.351 678.4 -144.803C678.804 -142.256 681.84 -142.893 684.876 -144.166C687.911 -145.228 687.709 -143.742 687.506 -148.412C687.304 -153.082 692.566 -148.837 694.184 -145.652C696.006 -142.256 692.363 -139.921 695.399 -140.982C698.434 -142.044 699.244 -140.133 700.053 -143.742C700.66 -147.351 702.077 -143.317 704.708 -145.228C707.338 -147.138 700.458 -149.261 702.279 -157.115C704.303 -164.757 707.946 -171.338 711.183 -169.852C714.421 -168.366 713.814 -163.696 714.624 -165.394C715.433 -167.305 723.326 -161.998 723.933 -163.271C724.54 -164.333 727.373 -162.847 728.79 -158.814C730.206 -154.78 737.896 -143.317 739.92 -141.831C741.944 -140.345 742.955 -142.681 744.979 -152.233C747.003 -161.785 750.241 -162.422 751.252 -162.847C752.264 -163.271 760.966 -167.092 761.978 -161.573C762.99 -156.054 768.049 -159.45 769.668 -163.059C771.287 -166.668 773.918 -164.545 776.346 -158.601C778.977 -152.658 779.179 -150.11 779.179 -150.11C789.095 -139.496 787.072 -151.808 791.119 -144.591C795.167 -137.161 803.464 -143.317 804.88 -141.195C806.094 -139.072 811.761 -139.921 812.773 -137.798C813.784 -135.675 823.903 -130.368 823.701 -125.911C823.498 -121.453 802.654 -112.537 803.666 -112.962C804.678 -113.386 808.523 -113.386 809.13 -109.141C809.737 -104.895 812.57 -108.716 813.38 -108.929C814.189 -109.353 817.022 -108.929 818.034 -106.381C819.248 -103.834 819.653 -99.8007 820.867 -98.9516C822.082 -98.3147 822.689 -97.0411 822.082 -94.2815C821.677 -91.5219 822.486 -91.5219 823.296 -87.4886C824.105 -83.4554 825.32 -84.0922 828.76 -84.0922C832.2 -84.0922 836.247 -90.0359 836.45 -88.1254C836.855 -86.215 839.283 -83.4554 839.89 -82.394C840.497 -81.3326 841.914 -80.908 842.318 -81.9694C842.723 -83.0308 845.759 -80.0589 845.961 -77.2993C846.366 -74.3275 847.782 -75.3889 847.782 -75.3889C847.782 -75.3889 851.223 -75.3889 852.032 -72.6293C852.842 -69.8697 855.27 -70.9311 857.091 -71.9924C859.115 -73.0538 859.722 -72.417 863.365 -71.9924C867.007 -71.5679 869.841 -66.0487 869.841 -66.0487C870.448 -64.9873 871.662 -63.9259 872.269 -71.7802C872.471 -73.6907 879.959 -76.4502 885.625 -71.7802C887.447 -70.2942 886.84 -66.261 887.447 -60.5295C887.851 -56.4962 892.101 -58.4067 892.101 -58.4067C896.351 -60.3172 899.386 -60.9541 909.505 -47.5806C919.623 -33.9949 922.254 -22.532 935.003 -16.8005C947.146 -11.2813 919.219 -3.4271 914.362 27.9898H380.31C375.656 16.7392 372.62 5.06396 360.883 -3.4271C328.504 -26.1407 350.36 -29.9617 353.8 -33.7827Z" fill="url(#paint23_linear_122_4130)"/>
<path d="M227.435 5.43094C228.449 -2.00287 225.609 -10.6757 228.449 -13.3601C231.492 -16.251 247.316 -21.6199 250.156 -18.7289C252.996 -15.838 262.53 -11.2951 265.979 -15.012C269.428 -18.7289 273.079 -26.7822 278.354 -23.6848C283.628 -20.5874 292.148 -24.7173 297.829 -31.5316C303.509 -38.5524 309.189 -32.7706 318.724 -18.9354C318.724 -18.9354 316.898 -47.6382 320.752 -54.4525C324.607 -61.2668 338.401 -43.9213 338.401 -43.9213C338.401 -43.9213 341.85 -51.5616 346.516 -52.8005C350.168 -53.6265 354.225 -48.2577 358.079 -47.2252C362.948 -45.7797 367.208 -35.6615 367.817 -35.2485C368.628 -34.8355 365.788 -27.6082 367.614 -18.7289C369.845 -7.99121 374.714 5.43095 373.7 12.8648H233.724C230.072 9.76734 227.029 7.70238 227.435 5.43094Z" fill="url(#paint24_linear_122_4130)"/>
<path d="M882.634 2.40896C878.987 12.9381 889.723 15.2545 898.434 24.3095C906.942 33.3646 913.424 34.8386 898.434 40.3137C883.444 45.7889 883.444 51.264 889.116 56.318C894.788 61.372 874.126 54.4227 874.126 54.4227C874.126 54.4227 882.634 65.7942 864.808 75.0598C846.779 84.1148 827.535 96.118 823.281 82.009C819.027 67.9 815.381 62.0037 808.291 65.5836C801.202 69.1635 788.845 70.6376 786.009 64.1095C783.173 57.7921 794.517 53.1593 782.363 50.4217C770.209 47.6841 768.791 55.8968 758.662 54.0016C748.534 52.1063 748.534 46.6312 745.698 44.3148C742.862 41.9984 730.708 44.3148 722.808 40.1032C714.908 35.8915 710.654 37.3656 707.008 42.4196C703.362 47.4735 694.854 50.2111 687.561 50.2111C680.471 50.2111 671.153 58.845 667.507 60.7402C663.861 62.6354 650.289 65.7942 647.453 57.1603C644.617 48.5264 635.907 43.0513 631.653 45.7889C627.399 48.5265 610.181 52.1064 601.47 59.4767C592.962 66.8471 579.188 57.5815 574.124 63.0566C569.059 68.5318 553.259 78.008 543.941 79.0609C534.623 79.9032 510.315 75.0598 508.087 63.0566C505.858 51.264 516.595 38.8397 496.54 40.7349C476.486 42.6301 406.803 39.4714 401.131 28.9423C395.459 18.4132 406.803 -1.17093 419.16 -5.38257C429.288 -8.75188 450.152 -8.12013 450.355 -17.3857H859.946C860.149 -17.3857 860.351 -17.3858 860.554 -17.1752C875.544 -13.5953 886.28 -8.12014 882.634 2.40896Z" fill="url(#paint25_linear_122_4130)"/>
<path d="M1267.83 144.329C1260.75 151.534 1248.81 154.076 1245.97 141.574C1243.14 129.072 1254.47 120.172 1242.53 114.874C1230.39 109.576 1228.97 125.469 1219.25 122.079C1209.33 118.476 1209.33 107.881 1206.5 103.431C1203.67 98.9811 1191.72 103.431 1183.83 95.3787C1176.13 87.3263 1171.88 90.0811 1168.24 99.8287C1164.8 109.576 1156.3 114.874 1149.21 114.874C1142.13 114.874 1133.02 131.826 1129.37 135.217C1125.73 138.819 1112.37 144.964 1109.54 128.012C1106.7 111.06 1098.2 100.464 1093.95 105.762C1089.7 111.06 1072.69 118.264 1064.19 132.462C1055.69 146.66 1042.33 128.86 1037.27 139.667C1035.25 144.117 1023.5 146.66 1019.05 152.169C1012.78 159.798 1012.78 169.757 1007.51 170.817C1003.26 171.664 996.177 147.719 989.294 143.481C980.995 138.607 973.303 152.381 972.088 139.667C970.064 116.569 980.59 92.6239 960.752 96.2263C950.833 97.9216 928.768 116.569 908.323 112.967C898.404 111.272 899.214 101.312 891.724 93.2596C887.473 88.5977 880.591 97.4977 875.328 93.8954C870.874 90.9287 867.231 75.4596 866.623 73.1287C864.801 66.5596 859.336 54.6929 860.955 41.131C861.563 35.1977 869.862 29.0524 869.862 22.6953C869.862 14.8548 876.947 7.0143 876.542 0.0214327C875.53 -14.6 866.826 -26.0429 871.279 -29.0095C883.222 -37.0619 902.25 -16.2952 912.777 -29.8572C921.886 -41.7238 918.647 -55.7096 913.384 -69.4834H1279.78V159.374C1276.54 144.329 1273.3 138.819 1267.83 144.329Z" fill="url(#paint26_linear_122_4130)"/>
<path d="M52.128 5.92485C66.285 4.24249 70.1276 -4.58995 78.824 -10.4782C87.5204 -16.1562 88.3294 -27.5122 94.5989 -23.5166C100.868 -19.5209 107.947 -19.5209 108.756 -23.5166C109.565 -27.5122 118.868 -33.4005 125.137 -32.5593C131.407 -31.7181 125.137 -25.1989 136.868 -32.5593C148.598 -39.9196 145.564 -32.5593 145.564 -32.5593C147.991 -36.5549 163.564 -57.7948 169.024 -43.9153C174.485 -30.0357 179.945 -42.2329 183.181 -47.9109C186.215 -53.5889 205.226 -40.5505 211.495 -35.7137C217.765 -30.8769 213.113 -15.315 199.765 -4.80022C193.698 0.0365874 191.271 6.55575 190.057 12.8646H28.8701C32.5105 7.39693 38.9822 7.39692 52.128 5.92485Z" fill="url(#paint27_linear_122_4130)"/>
<path d="M244.895 1.29606C248.732 4.50824 242.269 7.72043 245.5 10.5043C252.569 16.7145 267.715 21.8541 267.917 25.2804C268.523 35.9877 277.611 49.9071 272.158 52.691C269.937 53.9759 268.119 60.1861 260.445 58.2588C254.79 56.7598 243.481 47.1232 238.23 46.4808C233.383 45.8384 229.344 53.1193 227.325 51.4062C220.054 45.8384 197.84 34.9169 191.781 38.9857C185.723 43.0545 180.674 53.5476 168.153 46.695C155.632 39.8423 138.668 42.1979 128.772 50.1213C122.511 55.0466 122.108 52.4769 110.394 43.6969C108.577 42.1979 104.538 48.8364 100.499 47.1232C96.8635 45.6242 93.4303 35.7735 91.4108 34.0603C87.5737 30.634 84.1406 25.4945 79.0918 27.8501C79.0918 27.8501 77.678 33.6321 80.5053 45.6242C83.3327 57.4022 90.1991 70.0368 87.1698 74.1056C84.3425 77.9602 80.1015 68.9661 71.0137 65.1115C66.7727 63.3983 57.4828 69.1802 54.0496 66.3964C48.7989 62.1134 45.1637 50.7637 45.1637 50.7637C45.1637 50.7637 40.3169 60.8286 30.8251 60.4003C23.3529 60.1861 12.4475 50.5496 3.96547 47.3374C-7.34386 43.0545 -19.865 26.3511 -21.4806 25.4945C-23.2982 24.4238 -19.6629 15.2155 -26.9332 1.08193C-28.5488 -2.13026 -30.5684 -5.55658 -32.3859 -8.98291H228.536C228.94 -7.91218 229.546 -6.84147 230.354 -5.98488C232.172 -3.20099 242.269 -0.845401 244.895 1.29606Z" fill="url(#paint28_linear_122_4130)"/>
<path d="M787.589 99.9817C787.589 99.9817 785.964 100.409 788.807 101.479C791.651 102.548 789.62 102.334 790.432 103.617C791.042 104.9 793.276 105.756 794.089 105.542C794.901 105.114 795.714 106.398 795.917 108.108C796.12 109.819 798.151 108.322 800.183 109.178C802.214 110.033 804.245 109.605 806.48 111.958C808.714 114.31 809.527 115.38 811.152 115.38C812.777 115.166 812.98 112.386 815.418 113.883C818.058 115.38 818.668 115.807 820.09 114.738C821.512 113.455 825.981 117.091 821.918 110.247C817.652 103.617 820.09 102.976 815.011 100.623C809.73 98.2708 809.324 97.4154 807.496 94.8491C805.667 92.2828 804.652 90.358 803.23 91.2135C801.605 92.0689 798.761 89.5026 796.933 87.1501C795.104 84.7976 794.495 83.0867 792.87 83.5145C791.245 84.1561 788.604 87.364 785.151 86.2947C781.698 85.2254 778.448 86.5085 778.448 88.2194C778.448 89.9303 778.854 95.2768 780.073 95.0629C781.495 94.8491 784.135 94.2075 782.713 97.2015C780.885 100.196 786.573 100.196 787.589 99.9817Z" fill="url(#paint29_linear_122_4130)"/>
<rect x="-186.386" y="326.289" width="1302.86" height="5.00802" fill="url(#paint30_linear_122_4130)"/>
<path d="M-15.1202 438.734L-42.2123 451.094C-45.712 452.691 -47.9575 456.184 -47.9575 460.03C-47.9575 465.455 -43.56 469.852 -38.1354 469.852H292.04C297.643 469.852 302.185 465.31 302.185 459.707C302.185 456.011 300.175 452.607 296.938 450.823L274.081 438.222C271.715 436.918 269.058 436.234 266.356 436.234H242.831C238.538 436.234 234.426 437.958 231.418 441.02L223.647 448.929C220.638 451.991 216.526 453.715 212.234 453.715H186.357C184.317 453.715 182.296 453.325 180.403 452.566L139.666 436.234L106.142 424.127C101.455 422.434 96.2474 423.022 92.0557 425.716L54.6973 449.73C50.7624 452.259 45.9178 452.94 41.4384 451.593L-3.87157 437.968C-7.58981 436.85 -11.5877 437.122 -15.1202 438.734Z" fill="url(#paint31_linear_122_4130)"/>
<path d="M511.33 400.911C490.616 416.403 458.847 440.178 445.244 450.405C441.279 453.386 438.985 458.037 438.985 462.998V470.546C438.985 479.382 446.149 486.546 454.985 486.546H1049.99C1058.82 486.546 1065.99 479.382 1065.99 470.546V462.719C1065.99 457.917 1063.84 453.368 1060.09 450.369C1041.58 435.56 1011.93 413.177 1006.21 414.157C998.237 415.523 942.445 455.132 933.146 455.132C923.847 455.132 824.218 436.01 808.278 426.449C792.337 416.888 715.29 396.401 707.32 396.401C699.35 396.401 647.542 430.547 635.587 426.449C626.642 423.383 561.998 407.335 524.686 398.193C520.044 397.056 515.158 398.048 511.33 400.911Z" fill="url(#paint32_linear_122_4130)"/>
<path d="M-129.721 339.644C-134.836 341.531 -139.542 343.419 -144.043 345.307V517.512C-141.793 517.722 -141.179 519.82 -140.361 525.273C-139.133 532.824 -129.925 544.151 -117.24 544.78C-104.554 545.409 -96.5743 553.799 -84.0932 561.77C-71.4075 569.741 -77.3412 579.599 -47.0591 587.569C-16.7771 595.54 -28.6444 582.116 -15.5495 569.741C-2.45453 557.155 -9.20661 567.014 -6.75131 570.789C-4.29601 574.565 3.68371 571.628 4.50215 569.95C5.32058 568.272 10.6404 560.721 18.2109 568.482C25.7814 576.033 25.7814 572.677 26.1906 571.209C26.5998 569.741 39.2856 566.384 45.0146 573.306C50.9482 580.228 55.8588 574.775 77.7519 568.482C99.645 562.189 95.3482 558.833 95.3482 567.014C95.3482 575.404 103.328 573.306 114.991 574.984C126.653 576.662 137.293 563.238 138.521 570.16C139.748 577.082 157.345 570.16 156.117 571.838C154.889 573.516 156.526 576.872 161.641 581.696C166.756 586.521 168.803 584.423 171.258 582.745C173.713 581.067 172.486 579.179 180.874 574.355C189.263 569.531 196.015 572.677 196.015 574.984C196.015 577.501 205.223 590.296 213.203 593.023C221.182 595.75 222.001 605.608 228.753 606.237C235.505 606.866 235.914 595.75 238.369 592.603C240.825 589.457 244.712 590.925 245.94 597.218C247.168 603.51 257.193 603.51 264.355 603.51C271.516 603.51 274.79 607.705 282.36 615.256C289.931 622.808 297.501 620.5 315.097 615.256C332.694 610.013 338.627 610.013 352.541 610.642C366.454 611.271 365.636 608.544 371.774 606.866C378.117 605.188 377.298 607.915 384.869 606.866C392.439 605.818 386.506 592.603 390.393 595.75C394.076 598.896 406.762 601.413 415.56 601.623C424.358 602.042 434.384 598.476 444.615 597.428C454.64 596.379 457.3 593.862 464.257 587.989C471.418 582.116 473.874 575.194 481.035 568.902C488.196 562.609 504.156 553.17 505.792 556.316C507.429 559.463 515 560.931 520.115 559.043C525.23 557.365 534.438 557.994 542.008 559.043C549.579 560.092 552.034 558.414 555.103 555.897C557.968 553.38 558.377 553.38 564.31 552.331C570.244 551.282 574.745 552.331 574.336 547.507C573.927 542.683 574.336 538.907 582.316 540.795C590.296 542.892 589.886 543.312 592.751 536.18C595.615 529.259 598.685 533.034 607.892 533.454C617.099 533.873 617.509 534.083 617.509 528.839C617.509 523.595 623.442 525.693 634.696 525.693C645.949 525.693 647.791 524.015 648.609 520.868C649.427 517.722 667.842 521.288 668.865 518.771C669.684 516.254 677.663 517.093 685.643 518.142C693.623 519.191 686.052 521.917 685.643 526.532C685.234 531.146 686.871 536.6 691.577 533.454C696.283 530.307 694.441 525.693 702.421 526.742C710.401 527.79 718.79 528.21 720.426 531.776C722.063 535.341 730.862 537.439 737.614 539.117C744.366 540.795 739.66 554.009 744.775 561.35C749.89 568.692 759.507 574.984 767.896 573.516C776.285 572.048 774.648 567.643 776.694 569.321C778.74 570.999 781.809 572.467 788.356 569.321C795.109 566.175 799.201 566.175 801.042 567.224C802.679 568.272 809.84 566.804 813.728 563.028C817.411 559.253 823.344 559.253 828.869 557.785C834.393 556.316 847.284 554.009 852.399 563.028C857.514 572.048 859.969 571.419 862.425 571.628C864.88 572.048 872.041 567.433 872.45 573.097C872.86 578.76 883.295 581.696 885.955 576.662C888.41 571.419 901.914 574.565 906.211 578.131C910.508 581.696 928.104 593.023 934.651 587.569C941.403 581.906 941.813 579.599 941.813 579.599C967.389 569.531 947.337 561.141 957.772 554.219C968.207 547.297 973.732 520.239 977.005 518.142C980.279 516.044 984.985 518.142 987.44 516.044C989.896 513.947 994.602 512.269 994.192 508.074C993.783 503.879 1002.58 501.781 1005.04 502.201C1007.49 502.62 1017.72 502.62 1019.36 498.425C1021 494.44 1028.16 498.006 1030.2 498.215C1032.25 498.635 1039.41 498.215 1042.48 495.698C1045.34 493.181 1046.78 489.406 1049.64 488.777C1052.51 488.147 1054.35 487.099 1052.91 484.372C1051.69 481.855 1054.14 481.855 1056.19 477.87C1058.23 474.094 1061.71 474.723 1070.51 474.723C1079.31 474.723 1078.49 481.855 1090.77 478.499C1093.02 477.87 1097.93 473.884 1099.57 473.045C1101.2 472.206 1105.09 471.577 1105.91 472.626C1106.73 473.674 1112.25 472.626 1112.25 472.626C1112.25 472.626 1114.71 470.948 1115.53 468.221C1116.34 465.494 1120.23 466.543 1120.23 466.543C1120.23 466.543 1123.91 466.543 1125.76 468.011C1127.39 469.479 1129.03 466.543 1131.28 464.026C1133.33 461.509 1140.49 460.67 1144.78 463.397C1165.04 476.821 1173.84 468.431 1181.61 464.865V339.644H-129.721Z" fill="url(#paint33_linear_122_4130)"/>
<path d="M992.909 419.829C994.332 431.642 990.875 445.144 994.942 449.785C999.009 454.426 1014.26 494.509 1018.12 490.078C1021.99 485.648 1037.64 448.308 1042.32 454.215C1047 460.333 1055.33 472.991 1062.45 468.35C1069.36 463.497 1080.95 470.459 1088.89 481.64C1096.82 492.821 1097.22 511.596 1109.83 490.078C1109.83 490.078 1115.12 508.01 1120.61 518.98C1126.1 529.95 1144.19 502.947 1144.19 502.947C1144.19 502.947 1170.42 519.402 1176.73 493.243V398.522C1165.95 389.872 1154.97 383.966 1148.26 385.864C1139.31 388.396 1137.48 339.664 1125.69 329.327C1113.69 318.99 1099.26 327.006 1101.29 340.508C1103.32 353.798 1083.6 359.916 1080.95 356.33C1078.31 352.532 1062.86 350.212 1058.79 351.056C1054.72 351.9 1066.31 369.831 1062.04 389.45C1057.77 409.07 1030.73 366.667 1014.06 366.878C997.179 367.089 991.485 408.015 992.909 419.829Z" fill="url(#paint34_linear_122_4130)"/>
<path d="M715.498 478.236C705.905 490.559 699.986 495.781 694.271 489.515C688.556 483.249 679.983 479.698 674.677 482.413C669.37 485.337 665.696 478.027 662.226 474.476C658.757 471.134 649.164 475.311 646.306 477.818C643.449 480.324 627.529 475.52 624.467 473.014C621.405 470.507 624.263 462.779 623.446 456.095C622.834 452.335 634.672 448.367 638.142 441.056C640.795 435.416 634.468 425.808 639.775 425.599C652.225 425.181 671.819 448.784 675.289 437.505C678.759 426.226 670.391 416.409 673.452 415.782C676.514 415.155 687.944 416.2 689.985 418.289C691.822 420.377 706.721 416.618 705.497 408.889C704.068 401.37 715.089 396.566 723.866 402.205C732.642 407.845 733.255 435.416 739.99 433.954C746.726 432.492 758.564 438.549 768.769 445.442C774.892 449.62 767.953 465.703 764.891 478.027C763.054 485.964 765.912 492.439 765.095 492.857C764.279 493.275 760.197 502.256 755.094 503.51C751.216 504.554 747.134 509.358 743.46 508.523C738.766 507.478 735.296 500.585 735.296 500.585C735.296 500.585 721.417 516.251 717.539 510.194C713.457 504.136 715.498 478.236 715.498 478.236Z" fill="url(#paint35_linear_122_4130)"/>
<path d="M111.99 548.089C109.128 544.178 102.381 548.707 98.2924 544.384C94.2035 540.062 88.0701 537.386 84.1857 539.444C80.5056 541.503 77.6434 536.357 75.3945 533.887C72.9411 531.622 65.9899 534.504 63.9455 536.357C61.901 538.209 50.452 534.71 48.4076 532.857C46.3631 531.005 32.4608 520.919 31.8474 516.185C31.4385 513.509 55.5632 515.567 58.221 510.422C60.061 506.511 55.5632 499.718 59.4477 499.512C68.2388 499.307 82.3456 515.773 84.799 507.952C87.2523 500.13 81.3234 493.132 83.3679 492.72C85.6168 492.308 93.7946 493.132 95.2257 494.572C96.6569 496.013 107.288 493.337 106.266 487.986C105.244 482.634 113.217 479.341 119.35 483.252C125.688 487.162 126.097 506.717 131.004 505.482C135.911 504.452 144.293 508.775 151.448 513.509C155.946 516.391 209.716 517.832 207.671 526.477C207.262 528.535 201.538 541.708 193.564 544.59C188.249 546.648 181.706 534.092 175.369 533.887C165.146 533.887 154.924 545.413 148.995 546.648C148.382 546.854 145.52 553.235 141.839 554.264C139.182 554.882 136.115 558.381 133.457 557.763C130.186 556.94 127.528 552.206 127.528 552.206C127.528 552.206 117.715 563.321 114.853 558.998C111.786 554.676 111.99 548.089 111.99 548.089Z" fill="url(#paint36_linear_122_4130)"/>
<path d="M-35.0032 457.149C-35.0032 457.149 -44.6333 467.183 -29.471 478.68C-14.3087 490.178 1.87808 504.602 7.82007 491.223C13.7621 477.844 18.0649 472.618 24.0069 477.217C30.1538 481.816 41.0132 484.952 44.7014 478.89C48.1846 473.036 38.3496 466.974 50.0287 465.929C61.7077 464.884 61.7078 473.245 71.3379 472.827C80.7631 472.409 81.5827 466.974 84.6561 465.302C87.5247 463.42 98.589 467.392 106.375 464.466C114.161 461.539 118.054 463.42 120.513 468.855C123.177 474.291 130.553 478.262 137.314 479.099C143.871 480.144 151.247 489.969 154.321 492.268C157.394 494.568 169.483 499.585 173.376 491.432C177.269 483.279 185.875 479.099 189.563 482.443C193.046 485.788 208.413 491.641 215.38 500.212C222.346 508.574 236.074 501.466 239.967 507.528C243.86 513.591 256.974 525.297 265.374 527.387C273.775 529.687 296.928 528.015 300.617 516.726C304.305 505.438 296.109 491.85 314.345 496.449C332.58 501.048 396.918 507.737 403.884 498.121C410.646 488.715 402.86 467.81 392.205 461.957C381.551 456.313 356.348 454.222 368.437 439.589C380.731 424.956 387.902 411.787 384.214 400.707C380.526 389.628 371.92 383.357 346.718 380.43C321.516 377.504 275.824 385.238 256.359 389.628C236.894 394.018 236.074 380.639 233.206 373.323C230.132 366.006 197.964 360.571 169.483 356.808C141.003 352.837 128.299 375.204 107.809 377.713C87.3198 380.012 32.2027 359.317 26.6705 360.78C21.1383 362.244 8.84455 372.278 8.84455 380.43C9.04945 388.792 2.49277 387.329 -11.85 388.792C-26.1927 390.255 -36.8473 394.227 -35.2081 404.888C-33.3641 415.759 -43.6089 416.386 -52.8292 424.12C-62.0495 431.855 -68.1964 432.273 -55.083 439.798C-41.9697 447.324 -42.7893 452.759 -48.7313 456.731C-55.2879 460.912 -35.0032 457.149 -35.0032 457.149Z" fill="url(#paint37_linear_122_4130)"/>
<path d="M684.558 443.468C684.558 443.468 689.242 449.903 676.004 445.544C662.767 441.184 670.506 445.959 664.396 448.242C658.49 450.526 647.9 447.204 646.27 443.468C644.641 439.731 637.717 441.392 632.422 446.789C627.126 452.187 623.868 441.392 614.092 437.862C604.317 434.333 598.614 426.652 584.358 428.313C570.102 429.973 563.993 431.427 558.698 426.029C553.403 420.631 560.938 410.667 547.293 407.968C533.648 405.477 530.389 405.269 528.353 396.757C526.316 388.038 500.859 386.585 534.259 376.205C567.659 365.825 560.734 356.69 585.988 363.956C611.241 371.222 614.907 369.561 628.756 366.24C642.604 362.918 650.751 359.389 654.213 366.863C657.471 374.336 674.579 374.544 687.816 371.43C700.85 368.316 708.386 364.994 712.255 371.43C716.125 377.866 716.532 396.965 731.806 404.023C747.284 411.082 755.227 424.991 750.136 431.219C745.044 437.447 729.363 454.47 725.086 449.488C720.809 444.713 712.663 434.126 710.219 448.865C707.775 463.605 687.613 446.789 684.558 443.468Z" fill="url(#paint38_linear_122_4130)"/>
<path d="M219.287 221.344C207.64 221.135 206.005 223.862 204.983 228.267C204.166 232.672 185.161 227.847 184.344 231.203C183.526 234.56 175.353 233.72 167.179 232.252C159.005 230.784 166.77 226.798 167.179 220.505C167.587 214.212 165.953 206.451 161.048 210.646C156.348 215.051 157.983 221.554 149.809 220.086C141.635 218.617 133.053 217.988 131.213 213.164C129.579 208.339 120.383 205.402 113.435 202.885C106.487 200.368 111.187 181.909 106.079 171.63C100.97 161.352 90.9568 152.542 82.3742 154.639C73.7915 156.527 75.4263 163.03 73.3829 160.513C71.135 157.995 68.2742 156.108 61.3263 160.513C54.5828 164.708 50.2915 164.708 48.4524 163.24C46.8176 161.771 39.4611 163.659 35.5785 169.113C31.6959 174.567 25.5654 174.567 20.048 176.455C14.5306 178.343 1.04365 181.909 -4.06505 169.113C-9.17375 156.527 -11.8303 157.366 -14.4868 156.947C-17.1433 156.527 -24.4999 162.82 -24.9086 155.059C-25.3172 147.297 -36.1477 142.892 -38.8042 150.234C-41.4607 157.576 -55.1521 153.171 -59.4434 148.346C-63.7347 143.522 -70.6825 146.458 -77.6303 154.22C-84.5782 161.981 -84.9869 165.337 -84.9869 165.337C-111.348 179.391 -90.5043 191.138 -101.335 200.997C-112.165 210.856 -117.683 248.824 -121.156 251.76C-124.63 254.697 -129.33 251.76 -131.987 254.697C-134.643 257.634 -139.343 260.151 -138.935 265.814C-138.73 268.961 -141.387 271.268 -144.043 272.737V378.038H331.27L338.014 369.019C335.766 370.487 288.153 221.974 219.287 221.344Z" fill="url(#paint39_linear_122_4130)"/>
<path d="M1181.61 341.313C1180.39 340.265 1179.16 337.541 1177.93 332.93C1174.86 320.145 1173.23 316.791 1167.09 319.306C1160.95 321.822 1160.54 320.354 1159.32 309.456C1158.09 298.767 1148.47 283.048 1135.38 282C1122.29 280.952 1114.11 269.215 1101.22 258.107C1088.13 246.789 1088.74 230.651 1057.45 219.543C1026.15 208.225 1043.94 229.393 1030.65 246.999C1017.15 264.604 1013.67 250.352 1011.22 245.113C1008.56 239.663 1005.49 242.597 1004.67 245.113C1003.85 247.628 1003.44 259.784 995.669 249.095C987.895 238.406 987.895 243.226 987.486 245.113C987.077 246.999 973.985 252.029 968.053 242.178C961.916 232.328 956.802 240.292 934.301 249.095C911.799 257.897 916.095 262.718 916.095 250.981C916.095 239.244 907.913 242.178 895.639 239.663C883.57 237.148 872.728 256.221 871.296 246.58C870.069 236.729 851.863 246.58 853.091 244.065C854.318 241.55 850.022 226.459 844.908 219.543C839.794 212.626 840.203 215.561 837.544 218.076C834.885 220.591 836.317 233.795 827.521 240.502C818.929 247.418 811.974 243.017 811.974 239.454C811.974 236.1 802.36 217.866 794.177 214.094C785.995 210.111 785.177 196.488 778.222 195.44C771.267 194.392 770.858 210.111 768.198 214.513C765.539 218.914 761.652 217.028 760.425 208.225C759.198 199.422 748.765 199.422 741.401 199.422C734.037 199.422 730.559 193.554 722.786 182.865C715.013 172.176 707.24 175.529 689.034 182.865C670.828 190.201 664.691 190.201 650.372 189.153C636.053 188.105 636.871 192.087 630.53 194.602C623.984 197.117 624.802 193.135 617.029 194.602C609.255 196.069 615.392 214.722 611.301 210.321C607.414 205.92 594.323 202.566 585.322 201.938C576.321 201.518 565.889 206.339 555.456 207.806C545.024 209.273 542.364 212.626 535 221.01C527.636 229.393 524.977 239.034 517.613 247.837C514.953 250.981 511.271 254.754 507.385 257.897V341.313H1181.61Z" fill="url(#paint40_linear_122_4130)"/>
<path d="M670.8 430.202C672.436 441.789 667.529 454.825 672.64 459.17C677.751 463.515 705.35 471.792 710.256 467.447C715.163 463.102 731.926 456.066 737.65 461.653C743.579 467.447 749.916 479.862 759.116 475.103C768.316 470.344 783.035 476.551 792.848 487.104C802.661 497.657 812.678 488.966 829.237 467.861C829.237 467.861 825.966 511.934 832.713 522.487C839.663 533.039 863.378 506.14 863.378 506.14C863.378 506.14 869.511 517.935 877.484 519.797C883.617 521.245 890.976 512.968 897.518 511.313C906.105 509.037 913.26 493.725 914.691 493.105C916.122 492.484 911.216 481.517 914.282 467.861C917.144 455.653 922.664 440.962 924.299 429.788H670.8C670.8 429.788 670.8 429.995 670.8 430.202Z" fill="url(#paint41_linear_122_4130)"/>
<path d="M-142.415 469.78C-139.551 472.307 -136.074 474.413 -131.983 475.045C-128.096 475.677 -123.596 470.412 -118.891 469.78C-113.777 469.148 -106.618 477.994 -100.481 479.889C-96.39 481.153 -92.7079 474.624 -90.4578 476.309C-84.9348 480.521 -88.4123 485.365 -85.1394 487.261C-78.389 490.841 -73.8888 483.891 -64.2747 473.992C-59.979 469.569 -54.6605 478.626 -49.5466 475.677C-48.3193 475.045 -46.0692 465.989 -43.8191 464.725C-41.1598 463.251 -38.2961 469.569 -37.0687 467.884C-33.5913 463.04 -35.6368 458.196 -33.3867 459.67C-28.8865 462.619 -30.5229 455.247 -25.6136 450.403C-22.9544 447.876 -14.9767 449.982 -11.4992 446.401C-5.15801 439.872 -1.88511 430.816 5.88802 427.024C10.5928 424.708 16.7295 427.867 26.3436 424.918C51.7085 417.336 41.0716 413.334 63.9819 386.165C87.0967 358.995 64.5956 371.632 58.2544 365.314C52.1177 358.995 49.2539 360.68 36.3669 365.945C23.4798 371.211 24.5026 358.363 17.1386 356.678C9.77458 354.993 5.27436 359.627 -5.97622 368.894C-17.2268 378.161 -26.2273 374.791 -36.4551 377.108C-46.6829 379.425 -55.0697 371.843 -56.7061 379.425C-58.3426 387.007 -63.4565 392.273 -66.9339 389.956C-70.4114 387.639 -81.0483 390.588 -84.9348 395.853C-88.8214 401.118 -79.8209 401.118 -93.3216 404.488C-106.822 408.069 -99.4583 410.807 -99.4583 410.807C-103.959 409.543 -129.937 406.173 -124.21 420.074C-118.482 433.975 -130.96 429.341 -137.097 427.656C-139.142 427.024 -140.779 429.131 -142.415 432.29V469.78V469.78Z" fill="url(#paint42_linear_122_4130)"/>
<path d="M791.457 403.485C787.981 399.689 794.115 349.927 799.226 346.131C826.213 324.624 795.955 310.497 791.457 302.062C787.163 293.628 788.39 300.586 787.572 306.49C786.754 312.394 785.323 314.081 784.097 304.593C782.87 295.104 782.256 292.574 780.008 294.471C777.759 296.369 777.554 295.104 777.145 287.091C776.736 279.079 773.056 267.482 768.149 266.638C763.243 266.006 760.176 257.15 755.269 248.715C750.362 240.281 750.567 228.262 738.913 220.039C727.259 211.604 733.802 227.419 728.895 240.492C723.784 253.565 722.557 243.022 721.535 239.016C720.513 235.009 713.152 237.751 712.539 239.016C710.699 242.6 707.428 244.076 705.179 236.907C702.93 229.527 700.885 235.431 692.503 241.968C684.121 248.504 685.756 252.089 685.756 243.444C685.756 234.799 661.631 240.07 662.244 238.383C662.653 236.485 664.493 235.009 662.449 229.738C660.404 224.677 657.542 228.262 656.52 230.16C655.498 232.057 655.907 230.792 652.635 235.853C649.364 240.914 646.706 237.751 646.706 235.22C646.706 232.69 649.569 218.352 646.502 215.611C643.435 212.659 639.142 210.339 636.484 209.496C633.826 208.863 627.692 218.563 627.283 211.815C626.875 205.279 622.99 205.279 620.128 205.279C617.265 205.279 616.039 200.851 613.176 192.838C610.314 184.825 607.247 187.356 600.501 192.838C593.754 198.32 591.3 198.32 585.985 197.477C580.669 196.844 580.873 199.585 578.42 201.483C575.967 203.381 576.375 200.429 573.309 201.483C570.446 202.537 572.695 216.454 571.264 213.08C569.833 209.707 564.926 207.176 561.451 206.965C557.975 206.544 554.09 210.339 550.206 211.393C546.321 212.448 545.299 214.978 542.641 221.304C539.779 227.419 536.303 233.744 533.441 240.281C530.579 246.818 524.445 249.348 523.832 245.974C523.219 242.6 515.449 252.511 512.587 251.456C509.725 250.402 506.249 257.36 504 258.415C501.751 259.469 499.911 258.415 500.116 263.475C500.32 268.536 492.347 272.331 491.733 275.705C490.302 282.874 492.756 279.711 489.075 279.29C485.395 278.868 480.897 286.037 476.604 286.037C472.311 286.037 471.493 287.935 471.288 291.098C470.879 294.471 463.724 290.676 463.519 293.206C463.11 295.736 460.044 295.104 456.977 293.839C453.91 292.784 454.115 294.26 454.319 289.622C454.523 284.983 449.208 289.2 447.572 292.363C445.732 295.737 449.412 298.056 446.345 297.002C443.279 295.947 442.461 297.845 441.643 294.26C441.03 290.676 439.599 294.682 436.941 292.784C434.283 290.887 441.234 288.778 439.394 280.976C437.35 273.386 433.67 266.849 430.398 268.325C427.127 269.801 427.74 274.44 426.923 272.753C426.105 270.855 418.131 276.127 417.518 274.862C416.905 273.807 414.042 275.283 412.611 279.29C411.18 283.296 403.411 294.682 401.366 296.158C399.322 297.634 398.3 295.315 396.255 285.826C394.211 276.338 390.94 275.705 389.917 275.283C388.895 274.862 380.104 271.066 379.081 276.548C378.059 282.031 372.948 278.657 371.312 275.072C369.677 271.488 367.019 273.596 364.565 279.5C361.908 285.404 361.703 287.935 361.703 287.935C351.685 298.478 353.73 286.248 349.641 293.417C345.552 300.797 337.169 294.682 335.738 296.791C334.511 298.899 328.787 298.056 327.764 300.165C326.742 302.273 316.52 307.545 316.724 311.973C316.929 316.401 337.987 325.257 336.965 324.835C335.942 324.413 332.058 324.413 331.445 328.63C330.831 332.847 327.969 329.052 327.151 328.841C326.333 328.419 323.471 328.841 322.449 331.371C321.222 333.902 320.813 337.908 319.587 338.751C318.36 339.384 317.746 340.649 318.36 343.39C318.769 346.131 317.951 346.131 317.133 350.138C316.315 354.144 315.089 353.512 311.613 353.512C308.137 353.512 304.048 347.607 303.844 349.505C303.435 351.403 300.982 354.144 300.368 355.198C299.755 356.253 298.324 356.674 297.915 355.62C297.506 354.566 294.439 357.518 294.235 360.259C293.826 363.211 292.395 362.157 292.395 362.157C292.395 362.157 288.919 362.157 288.101 364.898C287.283 367.639 284.83 366.585 282.99 365.53C280.945 364.476 280.332 365.109 276.652 365.53C272.972 365.952 270.11 371.434 270.11 371.434C269.496 372.489 268.27 373.543 267.656 365.741C267.452 363.844 259.887 361.102 254.163 365.741C252.323 367.217 252.936 371.224 252.322 376.917C251.914 380.923 247.62 379.025 247.62 379.025C243.327 377.128 240.26 376.495 230.037 389.779C219.815 403.274 217.157 414.66 204.277 420.353C192.01 425.836 220.224 433.637 225.131 464.844H764.674C769.376 453.669 772.443 442.072 784.301 433.637C817.013 411.076 794.932 407.28 791.457 403.485Z" fill="url(#paint43_linear_122_4130)"/>
<path d="M919.121 442.436C918.096 435.052 920.965 426.437 918.096 423.771C915.022 420.899 899.036 415.566 896.167 418.438C893.297 421.31 883.665 425.822 880.18 422.13C876.696 418.438 873.007 410.438 867.678 413.515C862.35 416.592 853.742 412.49 848.003 405.721C842.265 398.747 836.526 404.49 826.893 418.233C826.893 418.233 828.738 389.722 824.844 382.953C820.95 376.184 807.013 393.414 807.013 393.414C807.013 393.414 803.529 385.825 798.815 384.594C795.126 383.774 791.027 389.107 787.133 390.132C782.214 391.568 777.91 401.619 777.296 402.029C776.476 402.439 779.345 409.618 777.5 418.438C775.246 429.104 770.327 442.436 771.352 449.82H912.767C916.457 446.744 919.531 444.693 919.121 442.436Z" fill="url(#paint44_linear_122_4130)"/>
<path d="M257.185 439.434C260.869 449.893 250.022 452.194 241.222 461.189C232.627 470.183 226.078 471.647 241.222 477.086C256.367 482.524 256.367 487.963 250.636 492.983C244.906 498.003 265.78 491.1 265.78 491.1C265.78 491.1 257.185 502.396 275.194 511.6C293.408 520.594 312.85 532.517 317.148 518.502C321.445 504.488 325.129 498.631 332.292 502.187C339.455 505.743 351.938 507.207 354.803 500.723C357.668 494.447 346.208 489.845 358.487 487.126C370.766 484.407 372.199 492.565 382.431 490.682C392.664 488.8 392.664 483.361 395.529 481.06C398.394 478.759 410.673 481.06 418.654 476.877C426.636 472.693 430.933 474.157 434.617 479.178C438.301 484.198 446.896 486.917 454.263 486.917C461.426 486.917 470.84 495.493 474.524 497.376C478.207 499.258 491.919 502.396 494.784 493.82C497.649 485.244 506.449 479.805 510.747 482.524C515.044 485.244 532.44 488.8 541.24 496.121C549.835 503.442 563.751 494.238 568.867 499.677C573.984 505.115 589.946 514.528 599.36 515.574C608.774 516.411 633.332 511.6 635.583 499.677C637.835 487.963 626.988 475.622 647.249 477.504C667.509 479.387 737.909 476.249 743.639 465.79C749.369 455.332 737.909 435.878 725.425 431.695C715.192 428.348 694.113 428.976 693.909 419.772H280.106C279.901 419.772 279.697 419.772 279.492 419.981C264.348 423.537 253.501 428.976 257.185 439.434Z" fill="url(#paint45_linear_122_4130)"/>
<path d="M-131.977 580.405C-124.82 587.562 -112.754 590.088 -109.89 577.669C-107.027 565.25 -118.48 556.41 -106.414 551.147C-94.1432 545.885 -92.7117 561.672 -82.8952 558.304C-72.8743 554.726 -72.8743 544.201 -70.0112 539.781C-67.148 535.361 -55.082 539.781 -47.1061 531.782C-39.3348 523.784 -35.0401 526.52 -31.3589 536.203C-27.8823 545.885 -19.2929 551.147 -12.1351 551.147C-4.97726 551.147 4.22566 567.986 7.90682 571.354C11.588 574.933 25.0856 581.037 27.9487 564.198C30.8118 547.359 39.4012 536.834 43.6959 542.096C47.9906 547.359 65.1694 554.515 73.7588 568.618C82.3481 582.721 95.8457 565.04 100.958 575.774C103.004 580.195 114.865 582.721 119.364 588.193C125.704 595.771 125.704 605.664 131.021 606.716C135.316 607.558 142.474 583.773 149.427 579.563C157.812 574.722 165.583 588.404 166.81 575.774C168.855 552.831 158.221 529.046 178.263 532.624C188.284 534.308 210.575 552.831 231.231 549.253C241.252 547.569 240.434 537.676 248.001 529.677C252.295 525.047 259.249 533.887 264.566 530.309C269.065 527.362 272.746 511.996 273.36 509.681C275.2 503.156 280.722 491.369 279.086 477.897C278.472 472.004 270.088 465.899 270.088 459.585C270.088 451.797 262.93 444.009 263.339 437.062C264.361 422.539 273.155 411.172 268.656 408.226C256.59 400.227 237.366 420.855 226.732 407.384C217.529 395.596 220.801 381.704 226.118 368.022H-144.043V595.35C-140.771 580.405 -137.499 574.933 -131.977 580.405Z" fill="url(#paint46_linear_122_4130)"/>
<path d="M1096.23 442.927C1081.93 441.256 1078.05 432.482 1069.26 426.634C1060.47 420.993 1059.66 409.713 1053.32 413.682C1046.99 417.651 1039.84 417.651 1039.02 413.682C1038.2 409.713 1028.8 403.864 1022.47 404.7C1016.14 405.536 1022.47 412.011 1010.62 404.7C998.769 397.389 1001.83 404.7 1001.83 404.7C999.382 400.731 983.649 379.633 978.132 393.42C972.616 407.207 967.099 395.091 963.83 389.451C960.765 383.811 941.559 396.762 935.225 401.567C928.891 406.371 933.59 421.829 947.075 432.274C953.205 437.078 955.657 443.554 956.883 449.82H1119.73C1116.05 444.389 1109.51 444.389 1096.23 442.927Z" fill="url(#paint47_linear_122_4130)"/>
<path d="M901.482 438.329C897.605 441.52 904.134 444.71 900.87 447.476C893.729 453.644 878.426 458.75 878.222 462.153C877.61 472.789 868.429 486.615 873.938 489.38C876.182 490.657 878.018 496.825 885.771 494.911C891.484 493.422 902.91 483.85 908.215 483.212C913.111 482.574 917.192 489.806 919.232 488.104C926.577 482.574 949.02 471.725 955.141 475.767C961.262 479.808 966.363 490.231 979.013 483.424C991.663 476.618 1008.8 478.957 1018.8 486.828C1025.12 491.72 1025.53 489.168 1037.37 480.446C1039.2 478.957 1043.28 485.552 1047.36 483.85C1051.04 482.361 1054.5 472.576 1056.54 470.874C1060.42 467.471 1063.89 462.366 1068.99 464.706C1068.99 464.706 1070.42 470.449 1067.56 482.361C1064.71 494.06 1057.77 506.61 1060.83 510.652C1063.68 514.481 1067.97 505.547 1077.15 501.718C1081.44 500.016 1090.82 505.759 1094.29 502.994C1099.59 498.74 1103.27 487.466 1103.27 487.466C1103.27 487.466 1108.16 497.464 1117.75 497.038C1125.3 496.825 1136.32 487.253 1144.89 484.062C1156.31 479.808 1168.96 463.216 1170.6 462.366C1172.43 461.302 1168.76 452.155 1176.1 438.116C1177.74 434.926 1179.78 431.522 1181.61 428.119H918.008C917.6 429.182 916.988 430.246 916.172 431.097C914.336 433.862 904.134 436.202 901.482 438.329Z" fill="url(#paint48_linear_122_4130)"/>
<path d="M854.406 401.063C847.688 404.142 844.024 404.963 843.006 401.063C841.988 397.162 839.138 393.672 836.289 393.672C833.439 393.672 833.439 389.771 832.624 387.513C831.81 385.255 826.925 384.844 825.092 385.255C823.26 385.665 817.561 380.122 816.95 378.274C816.136 376.632 819.189 373.963 820.207 370.884C821.225 367.804 828.35 359.181 833.846 361.85C839.138 364.519 842.395 378.685 846.263 374.784C850.131 370.884 848.706 364.725 850.131 365.34C851.556 365.751 856.238 368.831 856.645 370.062C857.052 371.294 864.177 373.142 865.195 369.652C866.213 366.162 871.912 366.572 874.559 370.884C877.001 375.195 871.302 386.897 874.559 387.718C877.816 388.539 881.48 393.877 884.33 399.01C887.18 404.142 883.108 418.103 872.523 418.103C871.505 418.103 864.584 409.891 858.681 409.891C852.777 409.891 848.91 418.103 848.706 414.613C847.892 411.328 854.406 401.063 854.406 401.063Z" fill="url(#paint49_linear_122_4130)"/>
<path d="M711.092 345.474C704.374 348.644 700.71 349.489 699.692 345.474C698.674 341.458 695.824 337.865 692.975 337.865C690.125 337.865 690.125 333.85 689.31 331.525C688.496 329.2 683.611 328.778 681.779 329.2C679.946 329.623 674.247 323.917 673.636 322.015C672.822 320.324 675.875 317.577 676.893 314.407C677.911 311.237 685.036 302.361 690.532 305.108C695.825 307.855 699.082 322.438 702.949 318.422C706.817 314.407 705.392 308.067 706.817 308.701C708.242 309.123 712.924 312.293 713.331 313.561C713.738 314.829 720.863 316.732 721.881 313.139C722.899 309.546 728.598 309.969 731.245 314.407C733.687 318.845 727.988 330.891 731.245 331.737C734.502 332.582 738.166 338.077 741.016 343.36C743.866 348.644 739.794 363.015 729.209 363.015C728.191 363.015 721.27 354.561 715.367 354.561C709.463 354.561 705.596 363.015 705.392 359.422C704.578 356.04 711.092 345.474 711.092 345.474Z" fill="url(#paint50_linear_122_4130)"/>
<path d="M354.435 390.546C347.717 393.716 344.053 394.561 343.035 390.546C342.018 386.53 339.168 382.938 336.318 382.938C333.468 382.938 333.468 378.922 332.654 376.597C331.839 374.273 326.954 373.85 325.122 374.273C323.29 374.695 317.59 368.989 316.979 367.087C316.165 365.397 319.218 362.649 320.236 359.479C321.254 356.309 328.379 347.433 333.875 350.18C339.168 352.928 342.425 367.51 346.292 363.494C350.16 359.479 348.735 353.139 350.16 353.773C351.585 354.196 356.267 357.366 356.674 358.634C357.081 359.902 364.206 361.804 365.224 358.211C366.242 354.618 371.942 355.041 374.588 359.479C377.031 363.917 371.331 375.963 374.588 376.809C377.845 377.654 381.509 383.149 384.359 388.432C387.209 393.716 383.138 408.087 372.552 408.087C371.535 408.087 364.613 399.633 358.71 399.633C352.807 399.633 348.939 408.087 348.735 404.494C347.921 401.324 354.435 390.546 354.435 390.546Z" fill="url(#paint51_linear_122_4130)"/>
<path d="M549.835 372.878C549.835 372.878 552.081 374.751 546.975 374.335C541.869 373.919 545.137 374.959 543.094 376.415C541.256 377.663 537.171 377.455 536.354 376.415C535.537 375.167 533.086 376.415 531.861 378.912C530.431 381.2 528.388 377.871 524.712 377.455C521.035 377.039 518.176 374.959 513.478 376.831C508.576 378.704 506.533 379.744 504.287 378.496C502.04 377.039 503.674 372.878 498.772 373.295C493.666 373.711 492.644 373.919 491.215 371.006C489.785 368.094 480.593 369.966 491.419 363.309C502.244 356.651 498.976 353.947 508.576 354.363C518.176 354.571 519.197 353.739 523.895 351.242C528.388 348.746 531.044 346.874 532.882 349.162C534.72 351.45 540.643 349.994 545.137 347.706C549.426 345.417 551.673 343.545 553.715 345.417C555.758 347.29 557.392 353.947 563.519 355.195C569.647 356.235 573.528 360.396 572.302 363.101C571.077 365.805 566.992 373.086 565.154 371.838C563.111 370.59 559.434 367.677 559.843 372.878C559.843 377.871 551.264 373.711 549.835 372.878Z" fill="url(#paint52_linear_122_4130)"/>
<path d="M353.208 536.355C353.208 536.355 354.85 536.78 351.977 537.842C349.103 538.904 351.156 538.692 350.335 539.966C349.719 541.241 347.462 542.09 346.641 541.878C345.82 541.453 344.999 542.728 344.794 544.427C344.589 546.127 342.536 544.64 340.484 545.489C338.432 546.339 336.38 545.914 334.122 548.251C331.865 550.588 331.044 551.65 329.402 551.65C327.76 551.437 327.555 548.676 325.092 550.163C322.425 551.65 321.809 552.075 320.372 551.013C318.936 549.738 314.421 553.349 318.525 546.552C322.835 539.966 320.372 539.329 325.503 536.992C330.839 534.655 331.249 533.806 333.096 531.257C334.943 528.707 335.969 526.795 337.406 527.645C339.048 528.495 341.921 525.946 343.768 523.609C345.615 521.272 346.23 519.573 347.872 519.998C349.514 520.635 352.182 523.821 355.67 522.759C359.159 521.697 362.443 522.972 362.443 524.671C362.443 526.371 362.032 531.681 360.801 531.469C359.364 531.256 356.697 530.619 358.133 533.593C359.98 536.567 354.234 536.567 353.208 536.355Z" fill="url(#paint53_linear_122_4130)"/>
<path d="M25.8645 496.503C25.8645 496.503 27.5063 496.928 24.6332 497.99C21.7601 499.052 23.8123 498.84 22.9914 500.115C22.3758 501.389 20.1184 502.239 19.2975 501.814C18.4766 501.389 17.6557 502.664 17.4505 504.363C17.2453 506.063 15.193 504.576 13.1408 505.425C11.0886 506.275 9.03641 505.85 6.77898 508.187C4.52155 510.524 3.70065 511.586 2.05888 511.586C0.417114 511.373 0.211896 508.612 -2.25076 510.099C-4.91864 511.586 -5.53431 512.011 -6.97085 510.949C-8.4074 509.674 -12.9223 513.285 -8.81785 506.488C-4.5082 499.902 -6.97086 499.265 -1.84032 496.928C3.49543 494.591 3.90588 493.742 5.75287 491.193C7.59986 488.643 8.62597 486.731 10.0625 487.581C11.7043 488.431 14.5774 485.882 16.4244 483.545C18.2714 481.208 18.887 479.509 20.5288 479.934C22.1706 480.571 24.8385 483.757 28.3272 482.695C31.816 481.633 35.0995 482.908 35.0995 484.607C35.0995 486.307 34.6891 491.617 33.4577 491.405C32.0212 491.193 29.3533 490.555 30.7899 493.529C32.4316 496.503 26.8907 496.503 25.8645 496.503Z" fill="url(#paint54_linear_122_4130)"/>
<path d="M72.2436 385.319C66.0304 393.301 62.3024 396.661 58.5744 392.67C54.8465 388.68 49.2545 386.369 45.7337 388.05C42.2128 389.94 39.9346 385.109 37.6565 383.009C35.3783 380.908 29.165 383.429 27.301 385.109C25.437 386.789 15.0816 383.639 13.2176 381.959C11.3536 380.278 13.0105 375.447 12.3892 371.037C11.9749 368.516 19.638 365.996 21.9162 361.375C23.573 357.804 19.4309 351.503 22.9517 351.293C31.029 351.083 43.8697 366.206 46.1479 359.064C48.4261 351.923 43.0413 345.412 44.9053 344.992C46.9764 344.572 54.4323 345.202 55.6749 346.672C56.9176 347.933 66.6517 345.622 65.6161 340.581C64.7877 335.75 71.8294 332.6 77.6284 336.17C83.4275 339.741 83.8417 357.594 88.191 356.544C92.5403 355.494 100.203 359.485 106.831 363.895C110.766 366.626 106.209 376.918 104.345 384.899C103.103 390.15 104.967 394.141 104.553 394.561C104.138 394.771 101.446 400.652 98.1322 401.492C95.6469 402.122 92.9545 405.273 90.6763 404.643C87.5697 404.012 85.2915 399.392 85.2915 399.392C85.2915 399.392 76.3858 409.473 73.6934 405.483C71.001 401.912 72.2436 385.319 72.2436 385.319Z" fill="url(#paint55_linear_122_4130)"/>
<path d="M575.881 296.634C569.774 304.616 566.109 307.976 562.444 303.986C558.779 299.995 553.282 297.684 550.024 299.365C546.563 301.255 544.324 296.424 542.084 294.324C539.844 292.223 533.737 294.744 531.904 296.424C530.072 298.104 519.892 294.954 518.059 293.274C516.227 291.593 517.856 286.762 517.245 282.352C516.838 279.831 524.371 277.311 526.611 272.69C528.239 269.119 524.167 262.818 527.629 262.608C535.569 262.398 548.192 277.521 550.432 270.38C552.671 263.238 547.378 256.727 549.21 256.307C551.246 255.887 558.576 256.517 559.797 257.987C561.019 259.248 570.588 256.937 569.57 252.106C568.755 247.276 575.678 244.125 581.379 247.696C587.079 251.266 587.487 269.119 591.762 268.069C596.038 267.019 603.571 271.01 610.086 275.42C613.954 278.151 609.475 288.443 607.643 296.424C606.421 301.675 608.254 305.666 607.846 306.086C607.439 306.296 604.792 312.177 601.535 313.017C599.092 313.647 596.445 316.798 594.205 316.168C591.151 315.538 588.912 310.917 588.912 310.917C588.912 310.917 580.157 320.999 577.51 317.008C574.66 313.437 575.881 296.634 575.881 296.634Z" fill="url(#paint56_linear_122_4130)"/>
<path d="M1112.69 393.666C1106.48 401.647 1102.75 405.008 1099.02 401.017C1095.3 397.027 1089.7 394.716 1086.39 396.397C1082.87 398.287 1080.59 393.456 1078.31 391.356C1076.04 389.255 1069.82 391.776 1067.96 393.456C1066.09 395.136 1055.74 391.986 1053.87 390.305C1052.01 388.625 1053.67 383.794 1053.05 379.384C1052.63 376.863 1060.3 374.343 1062.57 369.722C1064.23 366.151 1060.09 359.85 1063.61 359.64C1071.69 359.43 1084.53 374.553 1086.81 367.411C1089.08 360.27 1083.7 353.759 1085.56 353.339C1087.63 352.919 1095.09 353.549 1096.33 355.019C1097.57 356.279 1107.31 353.969 1106.27 348.928C1105.44 344.097 1112.49 340.947 1118.29 344.517C1124.08 348.088 1124.5 365.941 1128.85 364.891C1133.2 363.841 1140.86 367.831 1147.49 372.242C1151.42 374.973 1146.87 385.265 1145 393.246C1143.76 398.497 1145.62 402.488 1145.21 402.908C1144.8 403.118 1142.1 408.999 1138.79 409.839C1136.3 410.469 1133.61 413.62 1131.13 412.989C1128.02 412.359 1125.74 407.739 1125.74 407.739C1125.74 407.739 1116.84 417.82 1114.14 413.83C1111.45 410.259 1112.69 393.666 1112.69 393.666Z" fill="url(#paint57_linear_122_4130)"/>
<path d="M543.101 785.93C542.117 785.11 541.133 782.979 540.149 779.373C537.689 769.375 536.377 766.752 531.458 768.719C526.538 770.686 526.211 769.539 525.227 761.015C524.243 752.656 516.535 740.363 506.041 739.543C495.546 738.723 488.986 729.544 478.655 720.857C468.16 712.006 468.652 699.385 443.563 690.698C418.473 681.846 432.74 698.401 422.081 712.17C411.258 725.938 408.47 714.792 406.502 710.695C404.371 706.433 401.911 708.728 401.255 710.695C400.599 712.662 400.271 722.168 394.04 713.809C387.808 705.45 387.808 709.22 387.48 710.695C387.152 712.17 376.657 716.104 371.902 708.4C366.982 700.696 362.883 706.925 344.845 713.809C326.806 720.693 330.25 724.463 330.25 715.284C330.25 706.105 323.691 708.4 313.852 706.433C304.177 704.466 295.486 719.382 294.338 711.842C293.354 704.138 278.759 711.842 279.743 709.875C280.727 707.908 277.283 696.107 273.184 690.698C269.084 685.289 269.412 687.583 267.28 689.55C265.149 691.517 266.296 701.844 259.245 707.089C252.358 712.498 246.782 709.056 246.782 706.269C246.782 703.647 239.075 689.386 232.516 686.436C225.957 683.322 225.301 672.667 219.725 671.848C214.15 671.028 213.822 683.322 211.69 686.764C209.558 690.206 206.442 688.731 205.459 681.846C204.475 674.962 196.111 674.962 190.208 674.962C184.305 674.962 181.517 670.373 175.286 662.013C169.054 653.654 162.823 656.276 148.228 662.013C133.634 667.75 128.714 667.75 117.235 666.931C105.757 666.111 106.412 669.225 101.329 671.192C96.0815 673.159 96.7374 670.045 90.5061 671.192C84.2747 672.34 89.1942 686.928 85.9145 683.486C82.7988 680.043 72.3039 677.421 65.0886 676.929C57.8733 676.601 49.5102 680.371 41.147 681.519C32.7838 682.666 30.652 685.289 24.7486 691.845C18.8452 698.401 16.7134 705.941 10.81 712.826C8.67823 715.284 5.72653 718.235 2.61084 720.693V785.93H543.101Z" fill="url(#paint58_linear_122_4130)"/>
<g filter="url(#filter0_f_122_4130)">
<path d="M219.808 413.076C216.475 398.643 198.831 404.581 225.211 347.852C325.039 247.537 770.57 225.76 828.966 310.58C854.387 335.413 852.169 362.063 823.563 390.445C853.186 418.234 869.172 475.188 808.706 504.919C836.674 540.21 839.473 567.608 788.446 578.128C784.627 638.199 783.776 669.917 722.262 679.29C733.275 740.044 696.157 762.497 679.04 772.467C695.642 799.225 733.155 797.29 677.689 853.663C741.959 867.211 765.294 898.553 720.911 934.86C749.733 944.633 785.915 971.972 758.731 1012.06C809.221 1042.71 788.77 1070.62 751.978 1078.62C751.244 1087.21 753.882 1099.13 746.575 1101.25C762.419 1134.68 715.894 1152.28 696.599 1153.16L689.845 1163.81C669.439 1219.25 660.643 1206.02 646.623 1223.71C629.903 1248.36 643.754 1257.95 646.623 1272.96C629.55 1263.49 606.825 1266.09 610.154 1213.06C594.365 1198.96 573.699 1186.78 627.713 1145.17C617.524 1113.13 652.973 1101.85 688.493 1090.6C662.582 1068.49 665.531 1041.23 679.038 1012.06C642.44 991.463 594.321 1010.65 596.646 936.19C591.606 913.075 478.758 951.391 471.031 812.398C448.714 817.776 366.192 811.277 412.952 741.85C379.082 714.878 316.46 732.438 327.859 635.362C312.917 621.319 254.82 663.236 300.845 570.138C301.548 559.608 195.108 588.482 268.429 472.968C222.542 470.551 177.7 467.515 219.805 413.069L219.808 413.076Z" fill="#8FA0AF"/>
</g>
<path d="M315.918 577.662C497.686 467.36 671.12 511.219 698.166 526.044C556.841 518.851 415.642 538.202 296.555 631.862C298.622 616.136 299.567 601.32 315.925 577.662H315.918Z" fill="#B7C7DE"/>
<path d="M237.146 425.379C233.959 411.387 217.091 417.144 242.312 362.146C337.755 264.892 763.734 243.779 819.563 326.013C843.866 350.088 841.748 375.924 814.397 403.441C842.718 430.38 858.002 485.597 800.192 514.422C826.933 548.636 829.607 575.198 780.822 585.398C777.171 643.636 776.357 674.385 717.545 683.474C728.074 742.373 692.588 764.142 676.221 773.807C692.095 799.749 727.958 797.874 674.93 852.525C736.377 865.66 758.687 896.046 716.254 931.243C743.81 940.718 778.403 967.224 752.412 1006.09C800.685 1035.81 781.133 1062.86 745.955 1070.61C745.254 1078.95 747.776 1090.5 740.79 1092.55C755.938 1124.97 711.458 1142.03 693.008 1142.88L686.551 1153.2C667.04 1206.95 658.633 1194.13 645.228 1211.28C629.242 1235.18 642.485 1244.48 645.228 1259.02C628.905 1249.84 607.176 1252.37 610.36 1200.95C595.265 1187.28 575.505 1175.48 627.148 1135.14C617.407 1104.07 651.298 1093.13 685.26 1082.23C660.486 1060.8 663.306 1034.36 676.22 1006.09C641.23 986.119 595.224 1004.72 597.447 932.533C592.629 910.124 484.738 947.271 477.349 812.519C456.014 817.733 377.114 811.432 421.821 744.124C389.439 717.977 329.564 735 340.464 640.887C326.179 627.273 270.633 667.911 314.636 577.654C315.308 567.445 213.545 595.439 283.643 483.449C239.772 481.105 196.899 478.162 237.154 425.378L237.146 425.379Z" fill="#929EB4"/>
<path d="M596.145 929.96C630.991 902.669 668.37 878.494 725.283 878.342C673.631 869.173 628.444 888.008 587.105 923.508L596.145 929.96Z" fill="#6A737A"/>
<path d="M509.636 897.043C584.296 792.177 676.869 806.71 676.869 806.71C676.869 806.71 585.321 785.352 492.84 878.331C498.436 883.915 504.032 888.261 509.628 897.043H509.636Z" fill="#69717C"/>
<path d="M478.63 810.576C571.447 720.997 658.131 729.922 658.131 729.922C506.376 699.908 416.448 798.08 416.647 798.316C421.956 799.085 439.113 821.449 478.634 810.576L478.63 810.576Z" fill="#77808F"/>
<path d="M392.121 728.644C441.913 677.379 504.234 661.215 593.578 657.668C544.551 640.12 366.358 685.442 352.745 709.933C363.27 716.914 370.28 724.898 392.132 728.644H392.121Z" fill="#77808F"/>
<path d="M237.146 425.379C325.385 350.379 461.075 323.536 618.093 338.918C559.46 316.839 415.154 297.972 229.39 390.536C227.087 408.009 230.868 418.187 237.138 425.379H237.146Z" fill="#B7C8DF"/>
<path d="M259.112 547.979C382.051 423.451 685.257 436.998 685.257 436.998C667.476 444.994 562.626 370 281.061 487.326C272.845 506.646 259.608 520.948 259.107 547.977L259.112 547.979Z" fill="#BBD5F0"/>
<path d="M237.797 458.278C430.521 280.883 815.626 388.072 813.746 435.063C659.784 336.853 284.495 397.557 237.797 458.278Z" fill="#B7C7DE"/>
<path d="M290.751 572.495C323.388 528.891 381.409 524.413 428.281 509.262C381.382 512.89 338.985 500.025 269.443 566.688C278.499 571.518 283.344 572.861 290.751 572.495V572.495Z" fill="#767F8E"/>
<path d="M358.548 307.946C336.116 331.776 350.307 335.272 357.257 342.79C351.676 353.113 325.065 363.438 363.714 373.761C331.489 402.315 331.372 416.611 361.131 417.638C359.798 427.55 334.916 448.324 374.045 439.576C359.87 460.654 349.835 481.73 383.084 502.809C380.786 514.683 358.706 532.736 407.619 528.619C389.376 556.662 358.469 589.861 429.573 581.528C384.796 674.391 426.643 664.205 450.236 675.733C445.047 693.814 435.204 714.684 479.938 702.833C471.933 719.109 437.73 733.748 479.938 753.161C476.988 772.783 462.466 800.757 518.68 777.679C502.411 805.716 490.636 831.322 525.137 831.879C522.554 865.43 535.468 881.777 563.879 880.917C570.671 887.546 569.45 898.752 598.746 892.531C602.837 898.816 586.49 907.37 618.116 910.597C620.443 926.048 598.182 946.413 631.03 955.764C632.479 967.877 624.98 986.945 655.565 976.412C656.59 993.939 673.833 992.016 691.724 989.317C677.949 1022.87 679.671 1049.54 696.889 1069.33L683.975 1091.26C669.008 1092.65 653.754 1093.76 655.566 1111.91C629.85 1117.37 631.656 1131.07 640.069 1146.76C624.292 1152.96 603.683 1154.95 614.241 1184.18L618.115 1231.93C622.281 1216.35 618.998 1188.37 632.321 1188.05C627.74 1151.94 648.584 1161.56 659.439 1153.21C658.328 1140.96 648.21 1126.72 676.227 1120.95C676.351 1097.97 691.313 1104.64 700.763 1100.3C718.947 1091.86 720.818 1076.44 714.968 1057.71C695.312 1047.32 708.563 1020.48 714.968 997.062C703.918 983.132 723.131 955.245 672.353 959.639C670.163 948.754 660.307 940.423 637.486 936.411C670.099 910.897 648.062 895.022 623.28 879.629C610.797 853.76 598.313 846.573 585.831 855.111C595.614 835.812 600.083 816.824 552.256 800.911C568.483 781.985 593.274 763.058 543.217 744.13C548.079 707.471 549.057 675.08 519.972 675.735C533.878 617.608 500.047 649.588 486.397 643.474C501.208 629.976 496.061 618.694 479.941 608.631C516.735 589.926 629.013 569.943 477.358 554.431C536.5 531.823 551.061 508.201 459.279 482.165C510.351 460.384 573.423 438.881 481.232 413.77C537.169 398.886 525.796 381.76 478.649 363.442C528.906 347.323 517.135 324.317 507.059 301.499L529.013 280.851C465.276 282.973 408.513 292.063 358.551 307.951L358.548 307.946Z" fill="#C3D5E9"/>
<path d="M758.858 607.327C549.103 526.272 324.198 633.173 341.753 639.589C340.124 652.25 339.194 662.436 339.17 678.304C443.706 619.658 554.493 569.59 758.861 607.327H758.858Z" fill="#BCD6F1"/>
<path d="M704.62 280.847C751.827 299.927 763.027 385.1 709.786 371.179C843.514 457.617 709.786 497.645 709.786 497.645C783.115 537.76 801.451 569.324 720.117 585.396C752.428 652.362 699.626 665.2 659.423 686.052C668.529 718.379 672.06 750.998 616.809 786.708C660.11 793.917 689.915 806.62 641.344 851.232C673.789 867.145 724.28 873.141 691.707 924.788C726.17 942.482 747.049 964.353 736.905 995.764C757.369 1024.35 772.27 1051.7 731.74 1066.74C738.69 1109.11 717.24 1125.68 686.542 1133.84C678.318 1154.45 674.829 1179.78 650.383 1184.17C618.463 1200.35 626.253 1212.57 627.139 1225.47L641.722 1256.2C634.388 1226.44 638.788 1208.77 659.423 1199.66C674.214 1187.92 681.234 1160.66 691.707 1140.3C688.224 1137.37 741.38 1143.59 742.071 1095.13C744.223 1086.53 741.021 1069.9 748.527 1069.32C786.707 1057.96 796.222 1033.64 752.558 1006.01C777.336 975.566 744.263 934.916 716.087 931.241C773.205 878.72 698.816 857.553 674.921 853.813C700.105 827.794 709.757 812.314 675.755 773.648C711.115 752.458 722.315 721.756 717.536 684.763C753.465 677.142 781.038 663.778 780.591 586.686C826.473 571.607 820.781 545.283 800.184 515.71C840.737 487.019 847.895 450.293 814.232 402.149C877.433 325.146 750.93 282.7 704.622 280.845L704.62 280.847Z" fill="#77808F"/>
<path d="M814.397 402.145C762.855 379.318 710.534 356.802 620.696 349.236C678.882 353.072 718.017 333.844 829.891 377.625C823.351 395.412 819.396 395.115 814.394 402.144L814.397 402.145Z" fill="#6A727D"/>
<path d="M800.187 515.712C626.254 434.224 534.26 463.709 442.472 488.612C676.887 451.196 740.254 510.164 818.266 560.878C818.266 547.161 815.531 532.837 800.187 515.712Z" fill="#69717A"/>
<path d="M782.108 585.395C684.691 532.221 625.045 554.531 554.834 555.713C643.171 559.597 743.147 564.924 780.173 600.234L782.108 585.395Z" fill="#667079"/>
<path d="M773.068 649.928C609.874 581.205 470.097 643.43 463.136 652.509C635.61 621.314 698.564 646.964 751.12 673.157C763.394 669.129 767.289 658.821 773.073 649.929L773.068 649.928Z" fill="#616B77"/>
<path d="M720.132 687.344C621.299 652.212 530.59 676.276 443.773 728.639C525.238 696.033 606.908 664.631 716.896 720.896C722.19 712.522 719.415 698.772 720.124 687.345L720.132 687.344Z" fill="#68727B"/>
<path d="M703.337 750.577C609.005 742.784 563.953 775.003 523.835 811.228C574.396 796.685 623.334 765.343 683.319 782.194C663.116 773.068 694.528 761.227 703.335 750.577H703.337Z" fill="#6A727D"/>
<path d="M693.014 830.594C587.451 832.855 583.213 868.866 561.294 898.989C595.446 877.106 617.676 845.83 677.518 848.016C686.883 842.208 688.238 836.401 693.014 830.594L693.014 830.594Z" fill="#69717C"/>
<path d="M740.146 900.909C679.9 903.707 652.769 935.474 623.276 960.916C655.239 948.767 681.864 920.587 716.901 929.944L740.146 900.909Z" fill="#69727B"/>
<path d="M675.567 1006.09C699.629 1002.03 703.163 980.929 747.238 1006.09C735.613 989.631 726.037 971.333 665.882 998.35L675.567 1006.09Z" fill="#667079"/>
<path d="M762.745 1016.41C740.693 1014.3 725.098 1023.49 709.798 1033.18C742.942 1026.3 766.619 1028.02 780.824 1038.35C777.836 1025.72 772.601 1017.02 762.745 1016.41V1016.41Z" fill="#6A737C"/>
<path d="M757.574 1065.46C748.125 1053.45 721.886 1060.31 699.462 1062.88C715.414 1067.46 737.91 1070.96 744.66 1077.07C742.078 1070.62 746.382 1066.75 757.574 1065.46L757.574 1065.46Z" fill="#6A707C"/>
<path d="M300.424 295.047C168.991 325.666 207.56 344.766 191.948 359.57C152.145 318.277 280.479 298.711 300.424 295.047Z" fill="#6A727D"/>
<path d="M594.861 249.88C678.337 254.237 929.977 244.482 873.805 332.47C891.808 279.647 772.396 258.14 594.861 249.88V249.88Z" fill="#69717A"/>
<path d="M233.277 403.446C156.197 433.84 137.768 454.779 167.416 467.969C150.952 439.263 197.113 422.292 233.277 403.446Z" fill="#69717A"/>
<path d="M281.06 606.045C158.049 630.471 271.799 538.418 281.06 540.23C248.464 575.4 207.031 614.16 281.06 606.045Z" fill="#69717A"/>
<path d="M357.246 660.244C322.14 671.157 256.744 709.624 321.088 710.572C283.845 735.072 249.897 677.057 357.246 660.244Z" fill="#69717A"/>
<path d="M429.708 762.049C399.478 771.016 343.166 802.621 398.572 803.402C366.503 823.532 337.271 775.863 429.708 762.049Z" fill="#69717A"/>
<path d="M489.116 829.149C462.021 836.614 411.549 862.928 461.209 863.576C432.465 880.336 406.264 840.65 489.116 829.149Z" fill="#69717A"/>
<path d="M489.116 829.149C462.021 836.614 411.549 862.928 461.209 863.576C432.465 880.336 406.264 840.65 489.116 829.149Z" fill="#69717A"/>
<path d="M603.901 906.727C568.795 917.639 503.399 956.106 567.743 957.055C530.5 981.555 496.552 923.539 603.901 906.727Z" fill="#69717A"/>
<path d="M689.126 981.576C654.02 992.489 588.624 1030.96 652.968 1031.9C615.725 1056.4 581.777 998.389 689.126 981.576Z" fill="#69717A"/>
<path d="M682.473 901.054C714.808 883.567 788.03 863.663 743.771 910.343C787.327 900.818 769.487 836.021 682.473 901.054Z" fill="#69717A"/>
<path d="M715.088 983.076C746.614 964.173 818.881 941.042 776.738 989.639C819.83 978.193 799.131 914.249 715.088 983.076Z" fill="#69717A"/>
<path d="M658.608 796.051C691.494 778.781 763.052 760.59 714.672 808.385C756.896 800.022 749.767 730.484 658.608 796.051Z" fill="#69717A"/>
<path d="M682.69 725.194C720.32 715.832 800.789 710.776 743.802 742.236C791.111 741.126 788.287 685.264 682.69 725.194Z" fill="#69717A"/>
<path d="M723.983 608.863C772.021 604.12 867.328 612.463 786.013 640.998C841.124 648.205 865.556 578.677 723.983 608.863Z" fill="#69717A"/>
<path d="M806.479 573.471C971.771 491.235 763.689 493.018 754.146 503.114C820.767 512.002 900.718 516.941 806.479 573.471Z" fill="#69717A"/>
<path d="M764.969 393.257C847.56 386.552 873.343 397.22 852.559 422.129C854.663 389.108 805.743 394.227 764.969 393.257Z" fill="#69717A"/>
<path d="M362.598 590.327C425.108 548.734 517.988 530.396 583.58 534.664C522.096 538.745 434.13 556.43 362.598 590.327V590.327Z" fill="white"/>
<path d="M326.078 524.637C394.788 483.044 496.879 464.706 568.972 468.974C501.39 473.054 404.7 490.74 326.078 524.637V524.637Z" fill="white"/>
<path d="M320.166 438.911C392.817 404.653 496.261 396.98 567.526 408.687C499.884 405.752 401.882 413.336 320.166 438.911Z" fill="white"/>
<path d="M389.988 687.055C439.583 645.462 513.274 627.125 565.311 631.392C516.53 635.473 446.738 653.159 389.988 687.055V687.055Z" fill="white"/>
<path d="M426.526 769.186C471.988 727.593 539.537 709.255 587.237 713.523C542.522 717.603 478.547 735.289 426.526 769.186V769.186Z" fill="white"/>
</g>
<defs>
<filter id="filter0_f_122_4130" x="182.688" y="237.726" width="687.543" height="1055.54" filterUnits="userSpaceOnUse" color-interpolation-filters="sRGB">
<feFlood flood-opacity="0" result="BackgroundImageFix"/>
<feBlend mode="normal" in="SourceGraphic" in2="BackgroundImageFix" result="shape"/>
<feGaussianBlur stdDeviation="10.1561" result="effect1_foregroundBlur_122_4130"/>
</filter>
<linearGradient id="paint0_linear_122_4130" x1="531.351" y1="0" x2="531.351" y2="1062.7" gradientUnits="userSpaceOnUse">
<stop stop-color="#626D7C"/>
<stop offset="1" stop-color="#708CA7"/>
</linearGradient>
<linearGradient id="paint1_linear_122_4130" x1="520.965" y1="0" x2="520.965" y2="1062.7" gradientUnits="userSpaceOnUse">
<stop stop-color="#626D7C"/>
<stop offset="1" stop-color="#708CA7"/>
</linearGradient>
<linearGradient id="paint2_linear_122_4130" x1="1159.46" y1="413.851" x2="-41.9326" y2="413.855" gradientUnits="userSpaceOnUse">
<stop stop-color="#FEFEFE" stop-opacity="0"/>
<stop offset="1" stop-color="white"/>
</linearGradient>
<linearGradient id="paint3_linear_122_4130" x1="1175.13" y1="5.21927" x2="-26.2661" y2="5.2223" gradientUnits="userSpaceOnUse">
<stop stop-color="#FEFEFE" stop-opacity="0"/>
<stop offset="1" stop-color="white"/>
</linearGradient>
<linearGradient id="paint4_linear_122_4130" x1="1175.13" y1="3.91445" x2="-26.2661" y2="3.91849" gradientUnits="userSpaceOnUse">
<stop stop-color="#FEFEFE" stop-opacity="0"/>
<stop offset="1" stop-color="white"/>
</linearGradient>
<linearGradient id="paint5_linear_122_4130" x1="956.026" y1="748.067" x2="-162.848" y2="748.071" gradientUnits="userSpaceOnUse">
<stop stop-color="#FEFEFE" stop-opacity="0"/>
<stop offset="1" stop-color="white"/>
</linearGradient>
<linearGradient id="paint6_linear_122_4130" x1="2443.03" y1="569.209" x2="1324.15" y2="569.213" gradientUnits="userSpaceOnUse">
<stop stop-color="#FEFEFE" stop-opacity="0"/>
<stop offset="1" stop-color="white"/>
</linearGradient>
<linearGradient id="paint7_linear_122_4130" x1="2390.53" y1="839.455" x2="1131.79" y2="839.459" gradientUnits="userSpaceOnUse">
<stop stop-color="#FEFEFE" stop-opacity="0"/>
<stop offset="1" stop-color="white"/>
</linearGradient>
<linearGradient id="paint8_linear_122_4130" x1="2290.28" y1="596.625" x2="1171.4" y2="596.629" gradientUnits="userSpaceOnUse">
<stop stop-color="#FEFEFE" stop-opacity="0"/>
<stop offset="1" stop-color="white"/>
</linearGradient>
<linearGradient id="paint9_linear_122_4130" x1="834.974" y1="659.027" x2="834.974" y2="741.136" gradientUnits="userSpaceOnUse">
<stop stop-color="white"/>
<stop offset="1" stop-color="#666E83"/>
</linearGradient>
<linearGradient id="paint10_linear_122_4130" x1="215.811" y1="818.36" x2="215.811" y2="882.331" gradientUnits="userSpaceOnUse">
<stop stop-color="white"/>
<stop offset="1" stop-color="#666E83"/>
</linearGradient>
<linearGradient id="paint11_linear_122_4130" x1="718.502" y1="825.265" x2="718.502" y2="779.499" gradientUnits="userSpaceOnUse">
<stop stop-color="white"/>
<stop offset="1" stop-color="#666E83"/>
</linearGradient>
<linearGradient id="paint12_linear_122_4130" x1="584.829" y1="876.38" x2="584.829" y2="820.128" gradientUnits="userSpaceOnUse">
<stop stop-color="white"/>
<stop offset="1" stop-color="#666E83"/>
</linearGradient>
<linearGradient id="paint13_linear_122_4130" x1="1060.18" y1="-36.972" x2="876.599" y2="157.565" gradientUnits="userSpaceOnUse">
<stop stop-color="#FEFEFE"/>
<stop offset="1" stop-color="#BFBFBF"/>
</linearGradient>
<linearGradient id="paint14_linear_122_4130" x1="479.768" y1="-80.514" x2="444.613" y2="305.318" gradientUnits="userSpaceOnUse">
<stop stop-color="#FEFEFE"/>
<stop offset="1" stop-color="#BFBFBF"/>
</linearGradient>
<linearGradient id="paint15_linear_122_4130" x1="623.601" y1="214.108" x2="623.601" y2="-68.3652" gradientUnits="userSpaceOnUse">
<stop stop-color="white"/>
<stop offset="1" stop-color="#666E83"/>
</linearGradient>
<linearGradient id="paint16_linear_122_4130" x1="63.6931" y1="85.1991" x2="63.6931" y2="-112.983" gradientUnits="userSpaceOnUse">
<stop stop-color="white"/>
<stop offset="1" stop-color="#666E83"/>
</linearGradient>
<linearGradient id="paint17_linear_122_4130" x1="447.209" y1="75.0729" x2="447.209" y2="-37.4452" gradientUnits="userSpaceOnUse">
<stop stop-color="white"/>
<stop offset="1" stop-color="#666E83"/>
</linearGradient>
<linearGradient id="paint18_linear_122_4130" x1="1018.8" y1="123.805" x2="1018.8" y2="44.7082" gradientUnits="userSpaceOnUse">
<stop stop-color="white"/>
<stop offset="1" stop-color="#666E83"/>
</linearGradient>
<linearGradient id="paint19_linear_122_4130" x1="967.469" y1="92.0227" x2="967.469" y2="-81.2267" gradientUnits="userSpaceOnUse">
<stop stop-color="white"/>
<stop offset="1" stop-color="#666E83"/>
</linearGradient>
<linearGradient id="paint20_linear_122_4130" x1="509.378" y1="18.0165" x2="509.377" y2="-76.2371" gradientUnits="userSpaceOnUse">
<stop stop-color="white"/>
<stop offset="1" stop-color="#666E83"/>
</linearGradient>
<linearGradient id="paint21_linear_122_4130" x1="347.695" y1="88.4411" x2="347.695" y2="-7.45264" gradientUnits="userSpaceOnUse">
<stop stop-color="white"/>
<stop offset="1" stop-color="#666E83"/>
</linearGradient>
<linearGradient id="paint22_linear_122_4130" x1="1171.06" y1="51.5099" x2="1171.06" y2="-81.6412" gradientUnits="userSpaceOnUse">
<stop stop-color="white"/>
<stop offset="1" stop-color="#666E83"/>
</linearGradient>
<linearGradient id="paint23_linear_122_4130" x1="636.56" y1="-251.084" x2="636.56" y2="28.4664" gradientUnits="userSpaceOnUse">
<stop stop-color="white"/>
<stop offset="1" stop-color="#5F5E7C"/>
</linearGradient>
<linearGradient id="paint24_linear_122_4130" x1="300.382" y1="-65.9611" x2="300.382" y2="2.91708" gradientUnits="userSpaceOnUse">
<stop stop-color="white"/>
<stop offset="1" stop-color="#5F5E7C"/>
</linearGradient>
<linearGradient id="paint25_linear_122_4130" x1="653.625" y1="77.0696" x2="653.625" y2="-28.6266" gradientUnits="userSpaceOnUse">
<stop stop-color="white"/>
<stop offset="1" stop-color="#5F5E7C"/>
</linearGradient>
<linearGradient id="paint26_linear_122_4130" x1="1070.04" y1="170.875" x2="1070.04" y2="-69.3323" gradientUnits="userSpaceOnUse">
<stop stop-color="white"/>
<stop offset="1" stop-color="#666E83"/>
</linearGradient>
<linearGradient id="paint27_linear_122_4130" x1="121.308" y1="-49.3987" x2="121.308" y2="12.7984" gradientUnits="userSpaceOnUse">
<stop stop-color="white"/>
<stop offset="1" stop-color="#666E83"/>
</linearGradient>
<linearGradient id="paint28_linear_122_4130" x1="120.44" y1="75.3185" x2="120.44" y2="-8.70923" gradientUnits="userSpaceOnUse">
<stop stop-color="white"/>
<stop offset="1" stop-color="#666E83"/>
</linearGradient>
<linearGradient id="paint29_linear_122_4130" x1="800.91" y1="115.455" x2="800.91" y2="83.5378" gradientUnits="userSpaceOnUse">
<stop stop-color="white"/>
<stop offset="1" stop-color="#666E83"/>
</linearGradient>
<linearGradient id="paint30_linear_122_4130" x1="1178.83" y1="331.294" x2="-216.901" y2="331.299" gradientUnits="userSpaceOnUse">
<stop stop-color="#FEFEFE" stop-opacity="0"/>
<stop offset="1" stop-color="white"/>
</linearGradient>
<linearGradient id="paint31_linear_122_4130" x1="77.808" y1="400.317" x2="259.962" y2="596.633" gradientUnits="userSpaceOnUse">
<stop stop-color="#FEFEFE"/>
<stop offset="1" stop-color="#BFBFBF"/>
</linearGradient>
<linearGradient id="paint32_linear_122_4130" x1="664.193" y1="357.065" x2="698.536" y2="740.424" gradientUnits="userSpaceOnUse">
<stop stop-color="#FEFEFE"/>
<stop offset="1" stop-color="#BFBFBF"/>
</linearGradient>
<linearGradient id="paint33_linear_122_4130" x1="518.881" y1="649.718" x2="518.881" y2="369.133" gradientUnits="userSpaceOnUse">
<stop stop-color="white"/>
<stop offset="1" stop-color="#666E83"/>
</linearGradient>
<linearGradient id="paint34_linear_122_4130" x1="1084.55" y1="521.671" x2="1084.55" y2="324.814" gradientUnits="userSpaceOnUse">
<stop stop-color="white"/>
<stop offset="1" stop-color="#666E83"/>
</linearGradient>
<linearGradient id="paint35_linear_122_4130" x1="697.087" y1="511.613" x2="697.087" y2="399.847" gradientUnits="userSpaceOnUse">
<stop stop-color="white"/>
<stop offset="1" stop-color="#666E83"/>
</linearGradient>
<linearGradient id="paint36_linear_122_4130" x1="119.614" y1="560.019" x2="119.614" y2="481.451" gradientUnits="userSpaceOnUse">
<stop stop-color="white"/>
<stop offset="1" stop-color="#666E83"/>
</linearGradient>
<linearGradient id="paint37_linear_122_4130" x1="171.477" y1="528.449" x2="171.477" y2="356.358" gradientUnits="userSpaceOnUse">
<stop stop-color="white"/>
<stop offset="1" stop-color="#666E83"/>
</linearGradient>
<linearGradient id="paint38_linear_122_4130" x1="634.279" y1="454.938" x2="634.279" y2="361.314" gradientUnits="userSpaceOnUse">
<stop stop-color="white"/>
<stop offset="1" stop-color="#666E83"/>
</linearGradient>
<linearGradient id="paint39_linear_122_4130" x1="97.2131" y1="151.698" x2="97.2131" y2="383.763" gradientUnits="userSpaceOnUse">
<stop stop-color="white"/>
<stop offset="1" stop-color="#666E83"/>
</linearGradient>
<linearGradient id="paint40_linear_122_4130" x1="844.56" y1="162.577" x2="844.56" y2="327.966" gradientUnits="userSpaceOnUse">
<stop stop-color="white"/>
<stop offset="1" stop-color="#666E83"/>
</linearGradient>
<linearGradient id="paint41_linear_122_4130" x1="797.624" y1="524.891" x2="797.624" y2="429.639" gradientUnits="userSpaceOnUse">
<stop stop-color="white"/>
<stop offset="1" stop-color="#666E83"/>
</linearGradient>
<linearGradient id="paint42_linear_122_4130" x1="-34.2062" y1="488.207" x2="-34.2062" y2="355.946" gradientUnits="userSpaceOnUse">
<stop stop-color="white"/>
<stop offset="1" stop-color="#666E83"/>
</linearGradient>
<linearGradient id="paint43_linear_122_4130" x1="505.789" y1="187.636" x2="505.789" y2="465.318" gradientUnits="userSpaceOnUse">
<stop stop-color="white"/>
<stop offset="1" stop-color="#666E83"/>
</linearGradient>
<linearGradient id="paint44_linear_122_4130" x1="845.424" y1="371.522" x2="845.424" y2="439.939" gradientUnits="userSpaceOnUse">
<stop stop-color="white"/>
<stop offset="1" stop-color="#666E83"/>
</linearGradient>
<linearGradient id="paint45_linear_122_4130" x1="488.549" y1="513.596" x2="488.549" y2="408.606" gradientUnits="userSpaceOnUse">
<stop stop-color="white"/>
<stop offset="1" stop-color="#666E83"/>
</linearGradient>
<linearGradient id="paint46_linear_122_4130" x1="67.8492" y1="606.774" x2="67.8492" y2="368.172" gradientUnits="userSpaceOnUse">
<stop stop-color="white"/>
<stop offset="1" stop-color="#666E83"/>
</linearGradient>
<linearGradient id="paint47_linear_122_4130" x1="1026.34" y1="387.973" x2="1026.34" y2="449.755" gradientUnits="userSpaceOnUse">
<stop stop-color="white"/>
<stop offset="1" stop-color="#666E83"/>
</linearGradient>
<linearGradient id="paint48_linear_122_4130" x1="1027.22" y1="511.857" x2="1027.22" y2="428.391" gradientUnits="userSpaceOnUse">
<stop stop-color="white"/>
<stop offset="1" stop-color="#666E83"/>
</linearGradient>
<linearGradient id="paint49_linear_122_4130" x1="850.863" y1="418.344" x2="850.863" y2="361.496" gradientUnits="userSpaceOnUse">
<stop stop-color="white"/>
<stop offset="1" stop-color="#666E83"/>
</linearGradient>
<linearGradient id="paint50_linear_122_4130" x1="707.464" y1="363.231" x2="707.464" y2="304.711" gradientUnits="userSpaceOnUse">
<stop stop-color="white"/>
<stop offset="1" stop-color="#666E83"/>
</linearGradient>
<linearGradient id="paint51_linear_122_4130" x1="350.903" y1="408.459" x2="350.903" y2="349.94" gradientUnits="userSpaceOnUse">
<stop stop-color="white"/>
<stop offset="1" stop-color="#666E83"/>
</linearGradient>
<linearGradient id="paint52_linear_122_4130" x1="529.027" y1="379.503" x2="529.029" y2="344.204" gradientUnits="userSpaceOnUse">
<stop stop-color="white"/>
<stop offset="1" stop-color="#666E83"/>
</linearGradient>
<linearGradient id="paint53_linear_122_4130" x1="339.749" y1="551.724" x2="339.749" y2="520.021" gradientUnits="userSpaceOnUse">
<stop stop-color="white"/>
<stop offset="1" stop-color="#666E83"/>
</linearGradient>
<linearGradient id="paint54_linear_122_4130" x1="12.3429" y1="511.755" x2="12.3429" y2="480.052" gradientUnits="userSpaceOnUse">
<stop stop-color="white"/>
<stop offset="1" stop-color="#666E83"/>
</linearGradient>
<linearGradient id="paint55_linear_122_4130" x1="60.2801" y1="406.889" x2="60.28" y2="334.961" gradientUnits="userSpaceOnUse">
<stop stop-color="white"/>
<stop offset="1" stop-color="#666E83"/>
</linearGradient>
<linearGradient id="paint56_linear_122_4130" x1="564.139" y1="318.234" x2="564.139" y2="246.305" gradientUnits="userSpaceOnUse">
<stop stop-color="white"/>
<stop offset="1" stop-color="#666E83"/>
</linearGradient>
<linearGradient id="paint57_linear_122_4130" x1="1100.87" y1="415.205" x2="1100.87" y2="343.275" gradientUnits="userSpaceOnUse">
<stop stop-color="white"/>
<stop offset="1" stop-color="#666E83"/>
</linearGradient>
<linearGradient id="paint58_linear_122_4130" x1="272.905" y1="646.147" x2="272.905" y2="775.492" gradientUnits="userSpaceOnUse">
<stop stop-color="white"/>
<stop offset="1" stop-color="#666E83"/>
</linearGradient>
</defs>
</svg>
