<?xml version="1.0" encoding="utf-8"?>
<!-- Generator: Adobe Illustrator 23.0.5, SVG Export Plug-In . SVG Version: 6.00 Build 0)  -->
<svg version="1.1" id="Слой_1" xmlns="http://www.w3.org/2000/svg" xmlns:xlink="http://www.w3.org/1999/xlink" x="0px" y="0px"
	 width="1046.2px" height="1061.9px" viewBox="0 0 1046.2 1061.9" style="enable-background:new 0 0 1046.2 1061.9;"
	 xml:space="preserve">
<style type="text/css">
	.st0{fill:url(#SVGID_1_);filter:url(#Adobe_OpacityMaskFilter);}
	.st1{mask:url(#mask0_0_1_1_);}
	.st2{fill:url(#SVGID_2_);}
	.st3{fill:url(#SVGID_3_);}
	.st4{fill:url(#SVGID_4_);}
	.st5{fill:url(#SVGID_5_);}
	.st6{fill:url(#SVGID_6_);}
	.st7{fill:url(#SVGID_7_);}
	.st8{fill:url(#SVGID_8_);}
	.st9{fill:url(#SVGID_9_);}
	.st10{fill:url(#SVGID_10_);}
	.st11{fill:url(#SVGID_11_);}
	.st12{fill:url(#SVGID_12_);}
	.st13{fill:url(#SVGID_13_);}
	.st14{fill:url(#SVGID_14_);}
	.st15{fill:url(#SVGID_15_);}
	.st16{fill:url(#SVGID_16_);}
	.st17{fill:url(#SVGID_17_);}
	.st18{fill:url(#SVGID_18_);}
	.st19{fill:url(#SVGID_19_);}
	.st20{fill:url(#SVGID_20_);}
	.st21{fill:url(#SVGID_21_);}
	.st22{fill:url(#SVGID_22_);}
	.st23{fill:url(#SVGID_23_);}
	.st24{fill:url(#SVGID_24_);}
	.st25{fill:url(#SVGID_25_);}
	.st26{fill:url(#SVGID_26_);}
	.st27{fill:url(#SVGID_27_);}
	.st28{fill:url(#SVGID_28_);}
	.st29{fill:url(#SVGID_29_);}
	.st30{fill:url(#SVGID_30_);}
	.st31{fill:url(#SVGID_31_);}
	.st32{fill:url(#SVGID_32_);}
	.st33{fill:url(#SVGID_33_);}
	.st34{fill:url(#SVGID_34_);}
	.st35{fill:url(#SVGID_35_);}
	.st36{fill:url(#SVGID_36_);}
	.st37{fill:url(#SVGID_37_);}
	.st38{fill:url(#SVGID_38_);}
	.st39{fill:url(#SVGID_39_);}
	.st40{fill:url(#SVGID_40_);}
	.st41{fill:url(#SVGID_41_);}
	.st42{fill:url(#SVGID_42_);}
	.st43{fill:url(#SVGID_43_);}
	.st44{fill:url(#SVGID_44_);}
	.st45{fill:url(#SVGID_45_);}
	.st46{fill:url(#SVGID_46_);}
	.st47{fill:url(#SVGID_47_);}
	.st48{fill:url(#SVGID_48_);}
	.st49{fill:url(#SVGID_49_);}
	.st50{fill:url(#SVGID_50_);}
	.st51{fill:url(#SVGID_51_);}
	.st52{fill:url(#SVGID_52_);}
	.st53{fill:url(#SVGID_53_);}
	.st54{fill:url(#SVGID_54_);}
	.st55{fill:url(#SVGID_55_);}
	.st56{fill:url(#SVGID_56_);}
	.st57{fill:url(#SVGID_57_);}
	.st58{fill:url(#SVGID_58_);}
	.st59{fill:url(#SVGID_59_);}
	.st60{fill:url(#SVGID_60_);}
	.st61{fill:url(#SVGID_61_);}
	.st62{fill:url(#SVGID_62_);}
	.st63{fill:url(#SVGID_63_);}
	.st64{fill:url(#SVGID_64_);}
	.st65{fill:url(#SVGID_65_);}
	.st66{fill:url(#SVGID_66_);}
	.st67{fill:url(#SVGID_67_);}
	.st68{fill:url(#SVGID_68_);}
	.st69{fill:url(#SVGID_69_);}
	.st70{fill:url(#SVGID_70_);}
	.st71{fill:url(#SVGID_71_);}
	.st72{fill:url(#SVGID_72_);}
	.st73{fill:url(#SVGID_73_);}
	.st74{fill:url(#SVGID_74_);}
	.st75{fill:url(#SVGID_75_);}
	.st76{fill:url(#SVGID_76_);}
	.st77{fill:url(#SVGID_77_);}
</style>
<defs>
	<filter id="Adobe_OpacityMaskFilter" filterUnits="userSpaceOnUse" x="-189" y="-251" width="1535" height="1313.7">
		<feColorMatrix  type="matrix" values="1 0 0 0 0  0 1 0 0 0  0 0 1 0 0  0 0 0 1 0"/>
	</filter>
</defs>
<mask maskUnits="userSpaceOnUse" x="-189" y="-251" width="1535" height="1313.7" id="mask0_0_1_1_">
	
		<linearGradient id="SVGID_1_" gradientUnits="userSpaceOnUse" x1="528.739" y1="1139.8898" x2="528.739" y2="77.1898" gradientTransform="matrix(1 0 0 -1 0 1139.8898)">
		<stop  offset="0" style="stop-color:#626D7C"/>
		<stop  offset="1" style="stop-color:#708CA7"/>
	</linearGradient>
	<rect x="-2.6" y="0" class="st0" width="1062.7" height="1062.7"/>
</mask>
<g class="st1">
	
		<linearGradient id="SVGID_2_" gradientUnits="userSpaceOnUse" x1="518.352" y1="1139.8898" x2="518.352" y2="77.1898" gradientTransform="matrix(1 0 0 -1 0 1139.8898)">
		<stop  offset="0" style="stop-color:#626D7C"/>
		<stop  offset="1" style="stop-color:#708CA7"/>
	</linearGradient>
	<rect x="-13" y="0" class="st2" width="1062.7" height="1062.7"/>
	
		<linearGradient id="SVGID_3_" gradientUnits="userSpaceOnUse" x1="1156.8485" y1="728.0226" x2="-44.5435" y2="728.0187" gradientTransform="matrix(1 0 0 -1 0 1139.8898)">
		<stop  offset="0" style="stop-color:#FEFEFE;stop-opacity:0"/>
		<stop  offset="1" style="stop-color:#FFFFFF"/>
	</linearGradient>
	<rect x="-18.3" y="409.9" class="st3" width="1121.4" height="3.9"/>
	
		<linearGradient id="SVGID_4_" gradientUnits="userSpaceOnUse" x1="1851.5187" y1="1137.3015" x2="650.1226" y2="1137.2986" gradientTransform="matrix(-1 0 0 -1 1748.228 1283.4978)">
		<stop  offset="0" style="stop-color:#FEFEFE;stop-opacity:0"/>
		<stop  offset="1" style="stop-color:#FFFFFF"/>
	</linearGradient>
	<rect x="-49.6" y="143.6" class="st4" width="1121.4" height="5.2"/>
	
		<linearGradient id="SVGID_5_" gradientUnits="userSpaceOnUse" x1="1851.5184" y1="1137.9644" x2="650.1224" y2="1137.9602" gradientTransform="matrix(-1 0 0 -1 1779.5681 1273.0537)">
		<stop  offset="0" style="stop-color:#FEFEFE;stop-opacity:0"/>
		<stop  offset="1" style="stop-color:#FFFFFF"/>
	</linearGradient>
	<rect x="-18.3" y="133.2" class="st5" width="1121.4" height="3.9"/>
	
		<linearGradient id="SVGID_6_" gradientUnits="userSpaceOnUse" x1="953.4185" y1="393.8082" x2="-165.4603" y2="393.8044" gradientTransform="matrix(1 0 0 -1 0 1139.8898)">
		<stop  offset="0" style="stop-color:#FEFEFE;stop-opacity:0"/>
		<stop  offset="1" style="stop-color:#FFFFFF"/>
	</linearGradient>
	<rect x="-141" y="744.2" class="st6" width="1044.4" height="3.9"/>
	
		<linearGradient id="SVGID_7_" gradientUnits="userSpaceOnUse" x1="3294.4197" y1="274.6772" x2="2175.5396" y2="274.6731" gradientTransform="matrix(-1 0 0 1 3545.998 288.7002)">
		<stop  offset="0" style="stop-color:#FEFEFE;stop-opacity:0"/>
		<stop  offset="1" style="stop-color:#FFFFFF"/>
	</linearGradient>
	<rect x="301.6" y="561.4" class="st7" width="1044.4" height="3.9"/>
	
		<linearGradient id="SVGID_8_" gradientUnits="userSpaceOnUse" x1="3241.9194" y1="4.4262" x2="1983.1796" y2="4.4222" gradientTransform="matrix(-1 0 0 1 3167.3982 829.1902)">
		<stop  offset="0" style="stop-color:#FEFEFE;stop-opacity:0"/>
		<stop  offset="1" style="stop-color:#FFFFFF"/>
	</linearGradient>
	<rect x="-18.3" y="831.6" class="st8" width="1175" height="3.9"/>
	
		<linearGradient id="SVGID_9_" gradientUnits="userSpaceOnUse" x1="3141.6697" y1="247.2606" x2="2022.7996" y2="247.2565" gradientTransform="matrix(-1 0 0 1 3240.5181 343.5322)">
		<stop  offset="0" style="stop-color:#FEFEFE;stop-opacity:0"/>
		<stop  offset="1" style="stop-color:#FFFFFF"/>
	</linearGradient>
	<rect x="148.8" y="588.8" class="st9" width="1044.4" height="3.9"/>
	
		<linearGradient id="SVGID_10_" gradientUnits="userSpaceOnUse" x1="832.2753" y1="480.8628" x2="832.2753" y2="398.7538" gradientTransform="matrix(1 0 0 -1 0 1139.8898)">
		<stop  offset="0" style="stop-color:#FFFFFF"/>
		<stop  offset="1" style="stop-color:#666E83"/>
	</linearGradient>
	<path class="st10" d="M1017.8,717c-2.9-8.2,5.8-10,12.8-17c6.9-7,12.1-8.2,0-12.4c-12.1-4.3-12.1-8.5-7.6-12.4
		c4.6-3.9-12.1,1.5-12.1,1.5s6.9-8.8-7.5-16c-14.6-7-30.2-16.4-33.6-5.4c-3.4,11-6.4,15.5-12.1,12.8c-5.8-2.8-15.8-3.9-18.1,1.1
		c-2.3,4.9,6.9,8.5-2.9,10.6c-9.8,2.1-11-4.3-19.2-2.8c-8.2,1.5-8.2,5.7-10.5,7.5c-2.3,1.8-12.1,0-18.5,3.3
		c-6.4,3.3-9.8,2.1-12.8-1.8c-3-3.9-9.8-6.1-15.8-6.1c-5.7,0-13.3-6.7-16.2-8.2c-3-1.5-13.9-3.9-16.3,2.8c-2.3,6.7-9.3,11-12.8,8.8
		c-3.4-2.1-17.4-4.9-24.4-10.6c-6.9-5.7-18,1.5-22.1-2.8c-4.1-4.3-16.9-11.6-24.4-12.4c-7.5-0.7-27.2,3.1-29,12.4
		c-1.8,9.2,6.9,18.8-9.4,17.3c-16.2-1.5-72.7,1-77.3,9.2c-4.6,8.2,4.6,23.4,14.6,26.7c8.2,2.6,25.1,2.1,25.3,9.3h331.7
		c0.2,0,0.3,0,0.5-0.2C1012.1,729.5,1020.8,725.2,1017.8,717z"/>
	
		<linearGradient id="SVGID_11_" gradientUnits="userSpaceOnUse" x1="213.4552" y1="321.5298" x2="213.4552" y2="257.5588" gradientTransform="matrix(1 0 0 -1 0 1139.8898)">
		<stop  offset="0" style="stop-color:#FFFFFF"/>
		<stop  offset="1" style="stop-color:#666E83"/>
	</linearGradient>
	<path class="st11" d="M314.5,874.7c3.1-2.4-2.1-4.9,0.5-7c5.8-4.7,18.1-8.6,18.3-11.2c0.5-8.2,7.9-18.7,3.5-20.9
		c-1.8-1-3.3-5.7-9.5-4.2c-4.6,1.1-13.8,8.5-18.1,9c-3.9,0.5-7.2-5.1-8.9-3.8c-5.9,4.2-24,12.6-28.9,9.5c-4.9-3.1-9-11.1-19.2-5.9
		c-10.2,5.2-24,3.4-32.1-2.6c-5.1-3.8-5.4-1.8-15,4.9c-1.5,1.1-4.8-3.9-8.1-2.6c-3,1.1-5.8,8.6-7.4,9.9c-3.1,2.6-5.9,6.5-10,4.7
		c0,0-1.2-4.4,1.2-13.5c2.3-9,7.9-18.6,5.4-21.7c-2.3-2.9-5.8,3.9-13.2,6.8c-3.5,1.3-11-3.1-13.8-1c-4.3,3.3-7.2,11.9-7.2,11.9
		s-3.9-7.7-11.7-7.3c-6.1,0.2-15,7.5-21.9,9.9c-9.2,3.3-19.4,16-20.7,16.6c-1.5,0.8,1.5,7.8-4.4,18.6c-1.3,2.4-3,5.1-4.4,7.7h212.4
		c0.3-0.8,0.8-1.6,1.5-2.3C304.2,878.1,312.4,876.3,314.5,874.7z"/>
	
		<linearGradient id="SVGID_12_" gradientUnits="userSpaceOnUse" x1="716.0842" y1="314.6248" x2="716.0842" y2="360.3907" gradientTransform="matrix(1 0 0 -1 0 1139.8898)">
		<stop  offset="0" style="stop-color:#FFFFFF"/>
		<stop  offset="1" style="stop-color:#666E83"/>
	</linearGradient>
	<path class="st12" d="M718.9,811.4c-5.5,2.5-8.5,3.1-9.4,0c-0.8-3.1-3.2-6-5.5-6s-2.3-3.1-3-5c-0.7-1.8-4.7-2.1-6.2-1.8
		c-1.5,0.3-6.2-4.1-6.7-5.6c-0.7-1.3,1.8-3.5,2.7-6c0.8-2.5,6.7-9.4,11.2-7.3c4.3,2.1,7,13.6,10.2,10.4c3.2-3.1,2-8.1,3.2-7.6
		c1.2,0.3,5,2.8,5.3,3.8c0.3,1,6.2,2.5,7-0.3c0.8-2.8,5.5-2.5,7.7,1c2,3.5-2.7,12.9,0,13.6c2.7,0.7,5.7,5,8,9.1
		c2.3,4.1-1,15.4-9.7,15.4c-0.8,0-6.5-6.6-11.4-6.6c-4.8,0-8,6.6-8.2,3.8C713.5,819.6,718.9,811.4,718.9,811.4z"/>
	
		<linearGradient id="SVGID_13_" gradientUnits="userSpaceOnUse" x1="582.267" y1="263.5098" x2="582.267" y2="319.7618" gradientTransform="matrix(1 0 0 -1 0 1139.8898)">
		<stop  offset="0" style="stop-color:#FFFFFF"/>
		<stop  offset="1" style="stop-color:#666E83"/>
	</linearGradient>
	<path class="st13" d="M591.6,859.5c-4.9,6.2-7.8,8.9-10.8,5.8c-2.9-3.1-7.3-4.9-10.1-3.6c-2.8,1.5-4.6-2.3-6.4-3.9
		c-1.8-1.6-6.7,0.3-8.2,1.6c-1.5,1.3-9.6-1.1-11.1-2.5s-0.2-5.1-0.7-8.5c-0.3-2,5.7-3.9,7.5-7.6c1.3-2.8-2-7.7,0.8-7.9
		c6.4-0.2,16.5,11.7,18.3,6.1c1.8-5.6-2.4-10.7-1-11c1.6-0.3,7.5,0.2,8.5,1.3c1,1,8.7-0.8,7.8-4.8c-0.7-3.8,4.9-6.2,9.5-3.4
		c4.6,2.8,4.9,16.8,8.3,15.9c3.4-0.8,9.5,2.3,14.7,5.8c3.1,2.1-0.5,10.2-2,16.4c-1,4.1,0.5,7.2,0.2,7.6c-0.3,0.2-2.4,4.8-5.1,5.4
		c-2,0.5-4.1,3-5.9,2.5c-2.4-0.5-4.2-4.1-4.2-4.1s-7,7.9-9.1,4.8C590.7,872.5,591.6,859.5,591.6,859.5z"/>
	
		<linearGradient id="SVGID_14_" gradientUnits="userSpaceOnUse" x1="1061.635" y1="1173.0248" x2="878.055" y2="978.4877" gradientTransform="matrix(1 0 0 -1 0 1139.8898)">
		<stop  offset="0" style="stop-color:#FEFEFE"/>
		<stop  offset="1" style="stop-color:#BFBFBF"/>
	</linearGradient>
	<path class="st14" d="M1149.7,1.8l26.6,12.4c3.5,1.6,5.7,5.1,5.7,9c0,5.5-4.4,9.9-9.9,9.9H845.7c-5.7,0-10.3-4.6-10.3-10.2
		c0-3.7,2-7.1,5.2-8.9l22.5-12.6c2.4-1.3,5.1-2,7.8-2h23c4.3,0,8.5,1.8,11.5,4.9l7.6,7.8c3,3.1,7.2,4.9,11.5,4.9H950
		c2.1,0,4.1-0.4,6-1.2l40.3-16.4l33-12.1c4.8-1.7,10-1.1,14.3,1.6l36.7,24c4,2.6,8.9,3.3,13.4,1.9L1138.3,1
		C1142-0.2,1146.1,0.1,1149.7,1.8z"/>
	
		<linearGradient id="SVGID_15_" gradientUnits="userSpaceOnUse" x1="400.4503" y1="1227.3929" x2="365.2953" y2="841.5609" gradientTransform="matrix(1 0 0 -1 0 1139.8898)">
		<stop  offset="0" style="stop-color:#FEFEFE"/>
		<stop  offset="1" style="stop-color:#BFBFBF"/>
	</linearGradient>
	<path class="st15" d="M628.6-36.3c20.5,15.6,51.9,39.5,65.3,49.8c3.9,3,6.2,7.6,6.2,12.5v7.8c0,8.8-7.2,16-16,16H95.5
		c-8.8,0-16-7.2-16-16v-8.1c0-4.8,2.1-9.3,5.8-12.3C103.6-1.5,133-24,138.6-23c7.9,1.4,63.1,41.3,72.3,41.3
		c9.2,0,107.8-19.3,123.6-28.9c15.8-9.6,92-30.3,99.9-30.3c7.9,0,59.2,34.4,71,30.3c8.8-3.1,72.6-19.2,109.6-28.4
		C619.8-40.2,624.7-39.2,628.6-36.3z"/>
	
		<linearGradient id="SVGID_16_" gradientUnits="userSpaceOnUse" x1="621.0855" y1="925.7817" x2="621.0855" y2="1208.118" gradientTransform="matrix(1 0 0 -1 0 1139.8898)">
		<stop  offset="0" style="stop-color:#FFFFFF"/>
		<stop  offset="1" style="stop-color:#666E83"/>
	</linearGradient>
	<path class="st16" d="M1263-98.1c5.1,1.9,9.7,3.8,14.2,5.7V81c-2.2,0.2-2.8,2.3-3.7,7.8c-1.2,7.6-10.3,19-22.9,19.6
		c-12.6,0.6-20.5,9.1-32.8,17.1c-12.6,8-6.7,17.9-36.7,26s-18.2-5.5-31.2-17.9c-13-12.7-6.3-2.7-8.7,1.1c-2.4,3.8-10.3,0.8-11.1-0.8
		c-0.8-1.7-6.1-9.3-13.6-1.5c-7.5,7.6-7.5,4.2-7.9,2.7c-0.4-1.5-13-4.9-18.6,2.1c-5.9,7-10.7,1.5-32.4-4.9s-17.4-9.7-17.4-1.5
		c0,8.4-7.9,6.3-19.4,8s-22.1-11.8-23.3-4.9c-1.2,7-18.6,0-17.4,1.7c1.2,1.7-0.4,5.1-5.5,9.9c-5.1,4.9-7.1,2.7-9.5,1.1
		c-2.4-1.7-1.2-3.6-9.5-8.4c-8.3-4.9-15-1.7-15,0.6c0,2.5-9.1,15.4-17,18.2c-7.9,2.7-8.7,12.7-15.4,13.3c-6.7,0.6-7.1-10.6-9.5-13.7
		c-2.4-3.2-6.3-1.7-7.5,4.6c-1.2,6.3-11.1,6.3-18.2,6.3c-7.1,0-10.3,4.2-17.8,11.8c-7.5,7.6-15,5.3-32.4,0
		c-17.4-5.3-23.3-5.3-37.1-4.6c-13.8,0.6-13-2.1-19-3.8c-6.3-1.7-5.5,1.1-13,0c-7.5-1.1-1.6-14.4-5.5-11.2
		c-3.6,3.2-16.2,5.7-24.9,5.9c-8.7,0.4-18.6-3.2-28.8-4.2c-9.9-1.1-12.6-3.6-19.4-9.5c-7.1-5.9-9.5-12.9-16.6-19.2
		c-7.1-6.3-22.9-15.8-24.5-12.7c-1.6,3.2-9.1,4.6-14.2,2.7c-5.1-1.7-14.2-1.1-21.7,0c-7.5,1.1-9.9-0.6-13-3.2
		c-2.8-2.5-3.2-2.5-9.1-3.6c-5.9-1.1-10.3,0-9.9-4.9s0-8.7-7.9-6.8c-7.9,2.1-7.5,2.5-10.3-4.6c-2.8-7-5.9-3.2-15-2.7
		c-9.1,0.4-9.5,0.6-9.5-4.6c0-5.3-5.9-3.2-17-3.2c-11.1,0-13-1.7-13.8-4.9c-0.8-3.2-19,0.4-20-2.1c-0.8-2.5-8.7-1.7-16.6-0.6
		c-7.9,1.1-0.4,3.8,0,8.4c0.4,4.6-1.2,10.1-5.9,7c-4.7-3.2-2.8-7.8-10.7-6.8c-7.9,1.1-16.2,1.5-17.8,5.1c-1.6,3.6-10.3,5.7-17,7.4
		c-6.7,1.7-2,15-7.1,22.4c-5.1,7.4-14.6,13.7-22.9,12.2c-8.3-1.5-6.7-5.9-8.7-4.2c-2,1.7-5.1,3.2-11.5,0c-6.7-3.2-10.7-3.2-12.6-2.1
		c-1.6,1.1-8.7-0.4-12.6-4.2c-3.6-3.8-9.5-3.8-15-5.3c-5.5-1.5-18.2-3.8-23.3,5.3c-5.1,9.1-7.5,8.4-9.9,8.7
		c-2.4,0.4-9.5-4.2-9.9,1.5c-0.4,5.7-10.7,8.7-13.4,3.6c-2.4-5.3-15.8-2.1-20,1.5c-4.3,3.6-21.7,15-28.2,9.5c-6.7-5.7-7.1-8-7.1-8
		c-25.3-10.1-5.5-18.6-15.8-25.6c-10.3-7-15.8-34.2-19-36.3c-3.2-2.1-7.9,0-10.3-2.1c-2.4-2.1-7.1-3.8-6.7-8
		c0.4-4.2-8.3-6.3-10.7-5.9c-2.4,0.4-12.6,0.4-14.2-3.8c-1.6-4-8.7-0.4-10.7-0.2c-2,0.4-9.1,0-12.2-2.5c-2.8-2.5-4.3-6.3-7.1-7
		c-2.8-0.6-4.7-1.7-3.2-4.4c1.2-2.5-1.2-2.5-3.2-6.5c-2-3.8-5.5-3.2-14.2-3.2s-7.9,7.2-20.1,3.8c-2.2-0.6-7.1-4.6-8.7-5.5
		c-1.6-0.8-5.5-1.5-6.3-0.4c-0.8,1.1-6.3,0-6.3,0s-2.4-1.7-3.2-4.4c-0.8-2.7-4.7-1.7-4.7-1.7s-3.6,0-5.5,1.5c-1.6,1.5-3.2-1.5-5.5-4
		c-2-2.5-9.1-3.4-13.4-0.6C-18.6,40-27.3,31.6-35,28V-98.1H1263z"/>
	
		<linearGradient id="SVGID_17_" gradientUnits="userSpaceOnUse" x1="60.9168" y1="1054.7605" x2="60.9168" y2="1253.0682" gradientTransform="matrix(1 0 0 -1 0 1139.8898)">
		<stop  offset="0" style="stop-color:#FFFFFF"/>
		<stop  offset="1" style="stop-color:#666E83"/>
	</linearGradient>
	<path class="st17" d="M151.8-17.3c-1.4,11.9,2,25.5-2,30.2c-4,4.7-19.1,45-22.9,40.6c-3.8-4.5-19.3-42.1-24-36.1
		C98.2,23.4,90,36.2,83,31.5c-6.8-4.9-18.3,2.1-26.2,13.4c-7.9,11.3-8.3,30.2-20.7,8.5c0,0-5.2,18.1-10.7,29.1
		C20,93.5,2,66.3,2,66.3s-26,16.6-32.2-9.8v-95.4C-19.5-47.5-8.6-53.4-2-51.5C6.9-49,8.7-98,20.4-108.4
		c11.9-10.4,26.2-2.3,24.2,11.3c-2,13.4,17.5,19.5,20.1,15.9c2.6-3.8,17.9-6.2,21.9-5.3c4,0.8-7.4,18.9-3.2,38.7
		c4.2,19.8,31-22.9,47.5-22.7C147.6-70.4,153.2-29.2,151.8-17.3z"/>
	
		<linearGradient id="SVGID_18_" gradientUnits="userSpaceOnUse" x1="444.5717" y1="1064.8438" x2="444.5717" y2="1177.4423" gradientTransform="matrix(1 0 0 -1 0 1139.8898)">
		<stop  offset="0" style="stop-color:#FFFFFF"/>
		<stop  offset="1" style="stop-color:#666E83"/>
	</linearGradient>
	<path class="st18" d="M426.4,41.5c9.5,12.4,15.4,17.7,21,11.4c5.7-6.3,14.1-9.9,19.4-7.1c5.3,2.9,8.9-4.4,12.3-8
		c3.4-3.4,12.9,0.8,15.8,3.4c2.8,2.5,18.6-2.3,21.6-4.8c3-2.5,0.2-10.3,1-17c0.6-3.8-11.1-7.8-14.5-15.1c-2.6-5.7,3.6-15.4-1.6-15.6
		c-12.3-0.4-31.7,23.3-35.2,12c-3.4-11.4,4.8-21.2,1.8-21.9c-3-0.6-14.3,0.4-16.4,2.5c-1.8,2.1-16.6-1.7-15.4-9.5
		c1.4-7.6-9.5-12.4-18.2-6.7c-8.7,5.7-9.3,33.4-16,32c-6.7-1.5-18.4,4.6-28.5,11.6c-6.1,4.2,0.8,20.4,3.8,32.8
		c1.8,8-1,14.5-0.2,14.9s4.8,9.5,9.9,10.7c3.8,1.1,7.9,5.9,11.5,5c4.6-1.1,8.1-8,8.1-8s13.7,15.8,17.6,9.7
		C428.4,67.5,426.4,41.5,426.4,41.5z"/>
	
		<linearGradient id="SVGID_19_" gradientUnits="userSpaceOnUse" x1="1016.0235" y1="1016.1071" x2="1016.0235" y2="1095.2048" gradientTransform="matrix(1 0 0 -1 0 1139.8898)">
		<stop  offset="0" style="stop-color:#FFFFFF"/>
		<stop  offset="1" style="stop-color:#666E83"/>
	</linearGradient>
	<path class="st19" d="M1023.7,111.8c2.8-3.9,9.5,0.6,13.6-3.7c4-4.4,10.1-7,14-5c3.6,2.1,6.5-3.1,8.7-5.6c2.4-2.3,9.3,0.6,11.3,2.5
		c2,1.9,13.3-1.7,15.4-3.5c2-1.9,15.8-12,16.4-16.8c0.4-2.7-23.5-0.6-26.1-5.8c-1.8-3.9,2.6-10.8-1.2-11
		c-8.7-0.2-22.7,16.4-25.1,8.5c-2.4-7.9,3.4-14.9,1.4-15.3c-2.2-0.4-10.3,0.4-11.7,1.9c-1.4,1.5-11.9-1.2-10.9-6.6
		c1-5.4-6.9-8.7-13-4.8c-6.3,3.9-6.7,23.6-11.5,22.4c-4.9-1-13.2,3.3-20.2,8.1C980.2,79.9,927,81.3,929,90c0.4,2.1,6.1,15.3,14,18.2
		c5.3,2.1,11.7-10.6,18-10.8c10.1,0,20.2,11.6,26.1,12.8c0.6,0.2,3.4,6.6,7.1,7.7c2.6,0.6,5.7,4.1,8.3,3.5c3.2-0.8,5.9-5.6,5.9-5.6
		s9.7,11.2,12.6,6.8C1023.9,118.4,1023.7,111.8,1023.7,111.8z"/>
	
		<linearGradient id="SVGID_20_" gradientUnits="userSpaceOnUse" x1="964.4393" y1="1048.0381" x2="964.4393" y2="1221.1373" gradientTransform="matrix(1 0 0 -1 0 1139.8898)">
		<stop  offset="0" style="stop-color:#FFFFFF"/>
		<stop  offset="1" style="stop-color:#666E83"/>
	</linearGradient>
	<path class="st20" d="M1169.2,20.2c0,0,9.5,10.1-5.5,21.7s-31,26.1-36.9,12.6c-5.9-13.5-10.1-18.7-16-14.1
		c-6.1,4.6-16.8,7.8-20.5,1.7c-3.4-5.9,6.3-12-5.3-13c-11.6-1.1-11.6,7.4-21.1,6.9c-9.3-0.4-10.1-5.9-13.2-7.6
		c-2.8-1.9-13.8,2.1-21.5-0.8c-7.7-2.9-11.6-1.1-14,4.4c-2.6,5.5-9.9,9.5-16.6,10.3c-6.5,1.1-13.8,10.9-16.8,13.3
		c-3,2.3-15,7.4-18.9-0.8c-3.9-8.2-12.4-12.4-16-9c-3.4,3.4-18.7,9.3-25.6,17.9c-6.9,8.4-20.5,1.3-24.3,7.4
		c-3.9,6.1-16.8,17.9-25.1,20c-8.3,2.3-31.2,0.6-34.9-10.7c-3.7-11.4,4.5-25-13.6-20.4c-18,4.6-81.7,11.4-88.6,1.7
		c-6.7-9.5,1-30.5,11.6-36.4c10.5-5.7,35.5-7.8,23.5-22.5c-12.2-14.7-19.3-28-15.6-39.1c3.7-11.2,12.2-17.5,37.1-20.4
		c24.9-2.9,70.2,4.8,89.4,9.3c19.3,4.4,20.1-9,22.9-16.4c3-7.4,34.9-12.8,63.1-16.6c28.2-4,40.8,18.5,61.1,21
		c20.3,2.3,74.8-18.5,80.3-17c5.5,1.5,17.6,11.6,17.6,19.8c-0.2,8.4,6.3,6.9,20.5,8.4c14.2,1.5,24.7,5.5,23.1,16.2
		c-1.8,10.9,8.3,11.6,17.4,19.4c9.1,7.8,15.2,8.2,2.2,15.8c-13,7.6-12.2,13-6.3,17C1189.3,24,1169.2,20.2,1169.2,20.2z"/>
	
		<linearGradient id="SVGID_21_" gradientUnits="userSpaceOnUse" x1="506.6331" y1="1121.8733" x2="506.6331" y2="1216.1268" gradientTransform="matrix(1 0 0 -1 0 1139.8898)">
		<stop  offset="0" style="stop-color:#FFFFFF"/>
		<stop  offset="1" style="stop-color:#666E83"/>
	</linearGradient>
	<path class="st21" d="M457,6.5c0,0-4.6,6.5,8.5,2.1c13.1-4.4,5.4,0.4,11.5,2.7c5.8,2.3,16.3-1,17.9-4.8c1.6-3.8,8.5-2.1,13.7,3.3
		c5.2,5.4,8.5-5.4,18.1-9c9.7-3.6,15.3-11.3,29.4-9.6c14.1,1.7,20.2,3.1,25.4-2.3c5.2-5.4-2.2-15.5,11.3-18.2
		c13.5-2.5,16.7-2.7,18.7-11.3c2-8.8,27.2-10.2-5.8-20.7c-33.1-10.4-26.2-19.6-51.2-12.3c-25,7.3-28.6,5.6-42.3,2.3
		c-13.7-3.3-21.8-6.9-25.2,0.6c-3.2,7.5-20.2,7.7-33.3,4.6c-12.9-3.1-20.4-6.5-24.2,0c-3.8,6.5-4.2,25.7-19.4,32.8
		c-15.3,7.1-23.2,21.1-18.1,27.4c5,6.3,20.6,23.4,24.8,18.4c4.2-4.8,12.3-15.5,14.7-0.6C434,26.7,454,9.8,457,6.5z"/>
	
		<linearGradient id="SVGID_22_" gradientUnits="userSpaceOnUse" x1="345.4338" y1="1051.3993" x2="345.4338" y2="1147.293" gradientTransform="matrix(1 0 0 -1 0 1139.8898)">
		<stop  offset="0" style="stop-color:#FFFFFF"/>
		<stop  offset="1" style="stop-color:#666E83"/>
	</linearGradient>
	<path class="st22" d="M470.6-6.9c-1.6,11.7,3.2,24.8-1.8,29.2c-5.1,4.4-32.4,12.7-37.2,8.3c-4.9-4.4-21.5-11.5-27.1-5.8
		c-5.9,5.8-12.1,18.3-21.2,13.5c-9.1-4.8-23.7,1.5-33.4,12.1c-9.7,10.6-19.6,1.9-36-19.4c0,0,3.2,44.4-3.4,55
		C303.5,96.6,280,69.6,280,69.6s-6.1,11.9-14,13.7c-6.1,1.5-13.4-6.9-19.8-8.5c-8.5-2.3-15.6-17.7-17-18.3
		c-1.4-0.6,3.4-11.7,0.4-25.4c-2.8-12.3-8.3-27.1-9.9-38.3h250.9C470.6-7.3,470.6-7.1,470.6-6.9z"/>
	
		<linearGradient id="SVGID_23_" gradientUnits="userSpaceOnUse" x1="1168.359" y1="1088.3719" x2="1168.359" y2="1221.5229" gradientTransform="matrix(1 0 0 -1 0 1139.8898)">
		<stop  offset="0" style="stop-color:#FFFFFF"/>
		<stop  offset="1" style="stop-color:#666E83"/>
	</linearGradient>
	<path class="st23" d="M1275.6,33c-2.8,2.5-6.3,4.7-10.3,5.3c-3.8,0.6-8.3-4.7-13-5.3c-5.1-0.6-12.2,8.3-18.2,10.2
		c-4.1,1.3-7.7-5.3-9.9-3.6c-5.5,4.2-2,9.1-5.3,11c-6.7,3.6-11.1-3.4-20.7-13.4c-4.3-4.5-9.5,4.7-14.6,1.7c-1.2-0.6-3.4-9.8-5.7-11
		c-2.6-1.5-5.5,4.9-6.7,3.2c-3.4-4.9-1.4-9.8-3.6-8.3c-4.5,3-2.8-4.5-7.7-9.3c-2.6-2.5-10.5-0.4-14-4c-6.3-6.6-9.5-15.7-17.2-19.5
		c-4.7-2.3-10.7,0.8-20.2-2.1c-25.1-7.6-14.6-11.7-37.3-39c-22.9-27.4-0.6-14.6,5.7-21c6.1-6.4,8.9-4.7,21.7,0.6
		c12.8,5.3,11.8-7.6,19-9.3c7.3-1.7,11.7,3,22.9,12.3c11.1,9.3,20,5.9,30.2,8.3c10.1,2.3,18.4-5.3,20,2.3
		c1.6,7.6,6.7,12.9,10.1,10.6c3.5-2.3,14,0.6,17.8,5.9c3.8,5.3-5.1,5.3,8.3,8.7c13.4,3.6,6.1,6.4,6.1,6.4c4.4-1.3,30.2-4.7,24.5,9.3
		c-5.7,14,6.7,9.3,12.8,7.6c2-0.6,3.7,1.5,5.3,4.7V33L1275.6,33z"/>
	
		<linearGradient id="SVGID_24_" gradientUnits="userSpaceOnUse" x1="633.9786" y1="1390.8751" x2="633.9786" y2="1111.3247" gradientTransform="matrix(1 0 0 -1 0 1139.8898)">
		<stop  offset="0" style="stop-color:#FFFFFF"/>
		<stop  offset="1" style="stop-color:#5F5E7C"/>
	</linearGradient>
	<path class="st24" d="M351.2-33.8c3.4-3.8-2.6-53.9-7.7-57.7c-26.7-21.7,3.2-35.9,7.7-44.4c4.3-8.5,3-1.5,3.8,4.5
		c0.8,5.9,2.2,7.6,3.4-1.9c1.2-9.6,1.8-12.1,4-10.2c2.2,1.9,2.4,0.6,2.8-7.4c0.4-8.1,4-19.7,8.9-20.6c4.9-0.6,7.9-9.6,12.7-18
		c4.9-8.5,4.7-20.6,16.2-28.9c11.5-8.5,5.1,7.4,9.9,20.6c5.1,13.2,6.3,2.5,7.3-1.5c1-4,8.3-1.3,8.9,0c1.8,3.6,5.1,5.1,7.3-2.1
		c2.2-7.4,4.2-1.5,12.5,5.1c8.3,6.6,6.7,10.2,6.7,1.5c0-8.7,23.9-3.4,23.3-5.1c-0.4-1.9-2.2-3.4-0.2-8.7c2-5.1,4.9-1.5,5.9,0.4
		c1,1.9,0.6,0.6,3.8,5.7c3.2,5.1,5.9,1.9,5.9-0.6c0-2.5-2.8-17,0.2-19.7c3-3,7.3-5.3,9.9-6.2c2.6-0.6,8.7,9.1,9.1,2.3
		c0.4-6.6,4.3-6.6,7.1-6.6c2.8,0,4-4.5,6.9-12.5c2.8-8.1,5.9-5.5,12.5,0c6.7,5.5,9.1,5.5,14.4,4.7c5.3-0.6,5.1,2.1,7.5,4
		c2.4,1.9,2-1.1,5.1,0c2.8,1.1,0.6,15.1,2,11.7c1.4-3.4,6.3-5.9,9.7-6.2c3.4-0.4,7.3,3.4,11.1,4.5c3.8,1.1,4.9,3.6,7.5,10
		c2.8,6.2,6.3,12.5,9.1,19.1c2.8,6.6,8.9,9.1,9.5,5.7c0.6-3.4,8.3,6.6,11.1,5.5s6.3,5.9,8.5,7c2.2,1.1,4,0,3.8,5.1
		c-0.2,5.1,7.7,8.9,8.3,12.3c1.4,7.2-1,4,2.6,3.6c3.6-0.4,8.1,6.8,12.3,6.8s5.1,1.9,5.3,5.1c0.4,3.4,7.5-0.4,7.7,2.1
		c0.4,2.5,3.4,1.9,6.5,0.6c3-1.1,2.8,0.4,2.6-4.2c-0.2-4.7,5.1-0.4,6.7,2.8c1.8,3.4-1.8,5.7,1.2,4.7c3-1.1,3.8,0.8,4.7-2.8
		c0.6-3.6,2,0.4,4.7-1.5c2.6-1.9-4.3-4-2.4-11.9c2-7.6,5.7-14.2,8.9-12.7c3.2,1.5,2.6,6.2,3.4,4.5c0.8-1.9,8.7,3.4,9.3,2.1
		c0.6-1.1,3.4,0.4,4.9,4.5c1.4,4,9.1,15.5,11.1,17c2,1.5,3-0.9,5.1-10.4c2-9.6,5.3-10.2,6.3-10.6c1-0.4,9.7-4.2,10.7,1.3
		c1,5.5,6.1,2.1,7.7-1.5c1.6-3.6,4.3-1.5,6.7,4.5c2.6,5.9,2.8,8.5,2.8,8.5c9.9,10.6,7.9-1.7,11.9,5.5c4,7.4,12.3,1.3,13.8,3.4
		c1.2,2.1,6.9,1.3,7.9,3.4c1,2.1,11.1,7.4,10.9,11.9c-0.2,4.5-21,13.4-20,12.9c1-0.4,4.9-0.4,5.5,3.8c0.6,4.2,3.4,0.4,4.3,0.2
		c0.8-0.4,3.6,0,4.7,2.5c1.2,2.5,1.6,6.6,2.8,7.4c1.2,0.6,1.8,1.9,1.2,4.7c-0.4,2.8,0.4,2.8,1.2,6.8c0.8,4,2,3.4,5.5,3.4
		c3.4,0,7.5-5.9,7.7-4c0.4,1.9,2.8,4.7,3.4,5.7c0.6,1.1,2,1.5,2.4,0.4c0.4-1.1,3.4,1.9,3.6,4.7c0.4,3,1.8,1.9,1.8,1.9s3.4,0,4.3,2.8
		c0.8,2.8,3.2,1.7,5.1,0.6c2-1.1,2.6-0.4,6.3,0c3.7,0.4,6.5,5.9,6.5,5.9c0.6,1.1,1.8,2.1,2.4-5.7c0.2-1.9,7.7-4.7,13.3,0
		c1.8,1.5,1.2,5.5,1.8,11.3c0.4,4,4.7,2.1,4.7,2.1c4.3-1.9,7.3-2.5,17.4,10.8c10.1,13.6,12.8,25,25.5,30.8
		c12.1,5.5-15.8,13.4-20.6,44.8H377.7C373,16.7,370,5.1,358.3-3.4C325.9-26.1,347.7-30,351.2-33.8z"/>
	
		<linearGradient id="SVGID_25_" gradientUnits="userSpaceOnUse" x1="297.8792" y1="1205.8508" x2="297.8792" y2="1136.9473" gradientTransform="matrix(1 0 0 -1 0 1139.8898)">
		<stop  offset="0" style="stop-color:#FFFFFF"/>
		<stop  offset="1" style="stop-color:#5F5E7C"/>
	</linearGradient>
	<path class="st25" d="M224.8,5.4c1-7.4-1.8-16.1,1-18.8c3-2.9,18.9-8.3,21.7-5.4c2.8,2.9,12.4,7.4,15.8,3.7s7.1-11.8,12.4-8.7
		c5.3,3.1,13.8-1,19.5-7.8c5.7-7,11.4-1.2,20.9,12.6c0,0-1.8-28.7,2-35.5c3.9-6.8,17.6,10.5,17.6,10.5s3.4-7.6,8.1-8.9
		c3.7-0.8,7.7,4.5,11.6,5.6c4.9,1.4,9.1,11.6,9.7,12c0.8,0.4-2,7.6-0.2,16.5c2.2,10.7,7.1,24.2,6.1,31.6h-140
		C227.5,9.8,224.4,7.7,224.8,5.4z"/>
	
		<linearGradient id="SVGID_26_" gradientUnits="userSpaceOnUse" x1="650.9053" y1="1062.8202" x2="650.9053" y2="1168.5164" gradientTransform="matrix(1 0 0 -1 0 1139.8898)">
		<stop  offset="0" style="stop-color:#FFFFFF"/>
		<stop  offset="1" style="stop-color:#5F5E7C"/>
	</linearGradient>
	<path class="st26" d="M880,2.4c-3.6,10.5,7.1,12.8,15.8,21.9c8.5,9.1,15,10.5,0,16c-15,5.5-15,11-9.3,16c5.7,5.1-15-1.9-15-1.9
		s8.5,11.4-9.3,20.6c-18,9.1-37.3,21.1-41.5,6.9c-4.3-14.1-7.9-20-15-16.4c-7.1,3.6-19.4,5.1-22.3-1.5c-2.8-6.3,8.5-11-3.6-13.7
		c-12.2-2.7-13.6,5.5-23.7,3.6c-10.1-1.9-10.1-7.4-13-9.7c-2.8-2.3-15,0-22.9-4.2c-7.9-4.2-12.2-2.7-15.8,2.3
		c-3.6,5.1-12.2,7.8-19.4,7.8c-7.1,0-16.4,8.6-20.1,10.5s-17.2,5.1-20.1-3.6c-2.8-8.6-11.5-14.1-15.8-11.4
		c-4.3,2.7-21.5,6.3-30.2,13.7c-8.5,7.4-22.3-1.9-27.3,3.6c-5.1,5.5-20.9,15-30.2,16c-9.3,0.8-33.6-4-35.9-16
		c-2.2-11.8,8.5-24.2-11.5-22.3c-20.1,1.9-89.7-1.3-95.4-11.8s5.7-30.1,18-34.3c10.1-3.4,31-2.7,31.2-12h409.6c0.2,0,0.4,0,0.6,0.2
		C872.9-13.6,883.7-8.1,880,2.4z"/>
	
		<linearGradient id="SVGID_27_" gradientUnits="userSpaceOnUse" x1="1067.6074" y1="969.0508" x2="1067.6074" y2="1209.3733" gradientTransform="matrix(1 0 0 -1 0 1139.8898)">
		<stop  offset="0" style="stop-color:#FFFFFF"/>
		<stop  offset="1" style="stop-color:#666E83"/>
	</linearGradient>
	<path class="st27" d="M1265.2,144.3c-7.1,7.2-19,9.7-21.9-2.8c-2.8-12.5,8.5-21.4-3.4-26.7c-12.1-5.3-13.6,10.6-23.3,7.2
		c-9.9-3.6-9.9-14.2-12.8-18.6c-2.8-4.4-14.8,0-22.7-8.1c-7.7-8.1-11.9-5.3-15.6,4.4c-3.4,9.7-11.9,15-19,15
		c-7.1,0-16.2,17-19.8,20.3c-3.6,3.6-17,9.7-19.8-7.2c-2.8-17-11.3-27.5-15.6-22.3c-4.3,5.3-21.3,12.5-29.8,26.7
		c-8.5,14.2-21.9-3.6-26.9,7.2c-2,4.4-13.8,7-18.2,12.5c-6.3,7.6-6.3,17.6-11.5,18.6c-4.3,0.8-11.3-23.1-18.2-27.3
		c-8.3-4.9-16,8.9-17.2-3.8c-2-23.1,8.5-47-11.3-43.4c-9.9,1.7-32,20.3-52.4,16.7c-9.9-1.7-9.1-11.7-16.6-19.7
		c-4.3-4.7-11.1,4.2-16.4,0.6c-4.5-3-8.1-18.4-8.7-20.8c-1.8-6.6-7.3-18.4-5.7-32c0.6-5.9,8.9-12.1,8.9-18.4
		c0-7.8,7.1-15.7,6.7-22.7c-1-14.6-9.7-26.1-5.3-29c11.9-8.1,31,12.7,41.5-0.8c9.1-11.9,5.9-25.9,0.6-39.6h366.4v228.9
		C1273.9,144.3,1270.7,138.8,1265.2,144.3z"/>
	
		<linearGradient id="SVGID_28_" gradientUnits="userSpaceOnUse" x1="118.9486" y1="1189.2885" x2="118.9486" y2="1127.1072" gradientTransform="matrix(1 0 0 -1 0 1139.8898)">
		<stop  offset="0" style="stop-color:#FFFFFF"/>
		<stop  offset="1" style="stop-color:#666E83"/>
	</linearGradient>
	<path class="st28" d="M49.5,5.9c14.2-1.7,18-10.5,26.7-16.4c8.7-5.7,9.5-17,15.8-13c6.3,4,13.3,4,14.2,0c0.8-4,10.1-9.9,16.4-9
		c6.3,0.8,0,7.4,11.7,0c11.7-7.4,8.7,0,8.7,0c2.4-4,18-25.2,23.5-11.4c5.5,13.9,10.9,1.7,14.2-4c3-5.7,22,7.4,28.3,12.2
		c6.3,4.8,1.6,20.4-11.7,30.9c-6.1,4.8-8.5,11.4-9.7,17.7H26.3C29.9,7.4,36.4,7.4,49.5,5.9z"/>
	
		<linearGradient id="SVGID_29_" gradientUnits="userSpaceOnUse" x1="118.1423" y1="1064.5713" x2="118.1423" y2="1148.6" gradientTransform="matrix(1 0 0 -1 0 1139.8898)">
		<stop  offset="0" style="stop-color:#FFFFFF"/>
		<stop  offset="1" style="stop-color:#666E83"/>
	</linearGradient>
	<path class="st29" d="M242.3,1.3c3.8,3.2-2.6,6.4,0.6,9.2c7.1,6.2,22.2,11.3,22.4,14.8c0.6,10.7,9.7,24.6,4.2,27.4
		c-2.2,1.3-4,7.5-11.7,5.6c-5.7-1.5-17-11.1-22.2-11.8c-4.8-0.6-8.9,6.6-10.9,4.9c-7.3-5.6-29.5-16.5-35.5-12.4
		c-6.1,4.1-11.1,14.6-23.6,7.7c-12.5-6.9-29.5-4.5-39.4,3.4c-6.3,4.9-6.7,2.4-18.4-6.4c-1.8-1.5-5.9,5.1-9.9,3.4
		c-3.6-1.5-7.1-11.3-9.1-13.1c-3.8-3.4-7.3-8.6-12.3-6.2c0,0-1.4,5.8,1.4,17.8c2.8,11.8,9.7,24.4,6.7,28.5c-2.8,3.9-7.1-5.1-16.2-9
		c-4.2-1.7-13.5,4.1-17,1.3c-5.3-4.3-8.9-15.6-8.9-15.6s-4.8,10.1-14.3,9.6c-7.5-0.2-18.4-9.9-26.9-13.1
		c-11.3-4.3-23.8-21-25.4-21.8c-1.8-1.1,1.8-10.3-5.5-24.4C-31.2-2.1-33.2-5.6-35-9h260.9c0.4,1.1,1,2.1,1.8,3
		C229.6-3.2,239.7-0.8,242.3,1.3z"/>
	
		<linearGradient id="SVGID_30_" gradientUnits="userSpaceOnUse" x1="798.4039" y1="1024.4348" x2="798.4039" y2="1056.366" gradientTransform="matrix(1 0 0 -1 0 1139.8898)">
		<stop  offset="0" style="stop-color:#FFFFFF"/>
		<stop  offset="1" style="stop-color:#666E83"/>
	</linearGradient>
	<path class="st30" d="M785,100c0,0-1.6,0.4,1.2,1.5c2.8,1.1,0.8,0.9,1.6,2.1c0.6,1.3,2.8,2.1,3.7,1.9c0.8-0.4,1.6,0.9,1.8,2.6
		c0.2,1.7,2.2,0.2,4.3,1.1c2,0.9,4.1,0.4,6.3,2.8c2.2,2.4,3,3.4,4.7,3.4c1.6-0.2,1.8-3,4.3-1.5c2.6,1.5,3.3,1.9,4.7,0.9
		c1.4-1.3,5.9,2.4,1.8-4.5c-4.3-6.6-1.8-7.3-6.9-9.6c-5.3-2.4-5.7-3.2-7.5-5.8s-2.8-4.5-4.3-3.6c-1.6,0.9-4.5-1.7-6.3-4.1
		s-2.4-4.1-4.1-3.6c-1.6,0.6-4.3,3.8-7.7,2.8c-3.5-1.1-6.7,0.2-6.7,1.9s0.4,7.1,1.6,6.8c1.4-0.2,4.1-0.9,2.6,2.1
		C778.3,100.2,784,100.2,785,100z"/>
	
		<linearGradient id="SVGID_31_" gradientUnits="userSpaceOnUse" x1="1176.2184" y1="811.1273" x2="-219.5132" y2="811.1224" gradientTransform="matrix(1 0 0 -1 0 1139.8898)">
		<stop  offset="0" style="stop-color:#FEFEFE;stop-opacity:0"/>
		<stop  offset="1" style="stop-color:#FFFFFF"/>
	</linearGradient>
	<rect x="-189" y="326.3" class="st31" width="1302.9" height="5"/>
	
		<linearGradient id="SVGID_32_" gradientUnits="userSpaceOnUse" x1="72.0312" y1="736.6354" x2="254.1853" y2="540.3193" gradientTransform="matrix(1 0 0 -1 0 1139.8898)">
		<stop  offset="0" style="stop-color:#FEFEFE"/>
		<stop  offset="1" style="stop-color:#BFBFBF"/>
	</linearGradient>
	<path class="st32" d="M-17.7,438.7l-27.1,12.4c-3.5,1.6-5.7,5.1-5.7,8.9c0,5.4,4.4,9.8,9.8,9.8h330.2c5.6,0,10.1-4.5,10.1-10.1
		c0-3.7-2-7.1-5.2-8.9l-22.9-12.6c-2.4-1.3-5-2-7.7-2h-23.5c-4.3,0-8.4,1.7-11.4,4.8l-7.8,7.9c-3,3.1-7.1,4.8-11.4,4.8h-25.9
		c-2,0-4.1-0.4-6-1.1l-40.7-16.3l-33.5-12.1c-4.7-1.7-9.9-1.1-14.1,1.6l-37.4,24c-3.9,2.5-8.8,3.2-13.3,1.9L-6.5,438
		C-10.2,436.9-14.2,437.1-17.7,438.7z"/>
	
		<linearGradient id="SVGID_33_" gradientUnits="userSpaceOnUse" x1="739.4305" y1="789.7988" x2="773.7734" y2="406.4398" gradientTransform="matrix(1 0 0 -1 0 1139.8898)">
		<stop  offset="0" style="stop-color:#FEFEFE"/>
		<stop  offset="1" style="stop-color:#BFBFBF"/>
	</linearGradient>
	<path class="st33" d="M508.7,400.9c-20.7,15.5-52.5,39.3-66.1,49.5c-4,3-6.3,7.6-6.3,12.6v7.5c0,8.8,7.2,16,16,16h595
		c8.8,0,16-7.2,16-16v-7.8c0-4.8-2.1-9.4-5.9-12.4c-18.5-14.8-48.2-37.2-53.9-36.2c-8,1.4-63.8,41-73.1,41
		c-9.3,0-108.9-19.1-124.9-28.7c-15.9-9.6-93-30-101-30s-59.8,34.1-71.7,30c-8.9-3.1-73.6-19.1-110.9-28.3
		C517.4,397.1,512.5,398,508.7,400.9z"/>
	
		<linearGradient id="SVGID_34_" gradientUnits="userSpaceOnUse" x1="516.1721" y1="490.1718" x2="516.1721" y2="770.6209" gradientTransform="matrix(1 0 0 -1 0 1139.8898)">
		<stop  offset="0" style="stop-color:#FFFFFF"/>
		<stop  offset="1" style="stop-color:#666E83"/>
	</linearGradient>
	<path class="st34" d="M-132.3,339.6c-5.1,1.9-9.8,3.8-14.3,5.7v172.2c2.3,0.2,2.9,2.3,3.7,7.8c1.2,7.6,10.4,18.9,23.1,19.5
		c12.7,0.6,20.7,9,33.1,17c12.7,8,6.8,17.8,37,25.8c30.3,8,18.4-5.5,31.5-17.8c13.1-12.6,6.3-2.7,8.8,1c2.5,3.8,10.4,0.8,11.3-0.8
		c0.8-1.7,6.1-9.2,13.7-1.5c7.6,7.6,7.6,4.2,8,2.7c0.4-1.5,13.1-4.8,18.8,2.1c5.9,6.9,10.8,1.5,32.7-4.8c21.9-6.3,17.6-9.6,17.6-1.5
		c0,8.4,8,6.3,19.6,8c11.7,1.7,22.3-11.7,23.5-4.8s18.8,0,17.6,1.7c-1.2,1.7,0.4,5,5.5,9.9c5.1,4.8,7.2,2.7,9.6,1
		c2.5-1.7,1.2-3.6,9.6-8.4c8.4-4.8,15.1-1.7,15.1,0.6c0,2.5,9.2,15.3,17.2,18s8.8,12.6,15.6,13.2c6.8,0.6,7.2-10.5,9.6-13.6
		c2.5-3.1,6.3-1.7,7.6,4.6c1.2,6.3,11.3,6.3,18.4,6.3s10.4,4.2,18,11.7c7.6,7.6,15.1,5.2,32.7,0c17.6-5.2,23.5-5.2,37.4-4.6
		c13.9,0.6,13.1-2.1,19.2-3.8c6.3-1.7,5.5,1,13.1,0c7.6-1,1.6-14.3,5.5-11.1c3.7,3.1,16.4,5.7,25.2,5.9c8.8,0.4,18.8-3.1,29.1-4.2
		c10-1,12.7-3.6,19.6-9.4c7.2-5.9,9.6-12.8,16.8-19.1c7.2-6.3,23.1-15.7,24.8-12.6c1.6,3.1,9.2,4.6,14.3,2.7c5.1-1.7,14.3-1,21.9,0
		c7.6,1,10-0.6,13.1-3.1c2.9-2.5,3.3-2.5,9.2-3.6c5.9-1,10.4,0,10-4.8c-0.4-4.8,0-8.6,8-6.7c8,2.1,7.6,2.5,10.4-4.6
		c2.9-6.9,5.9-3.1,15.1-2.7c9.2,0.4,9.6,0.6,9.6-4.6s5.9-3.1,17.2-3.1c11.3,0,13.1-1.7,13.9-4.8c0.8-3.1,19.2,0.4,20.3-2.1
		c0.8-2.5,8.8-1.7,16.8-0.6c8,1,0.4,3.8,0,8.4c-0.4,4.6,1.2,10.1,5.9,6.9c4.7-3.1,2.9-7.8,10.8-6.7c8,1,16.4,1.5,18,5
		c1.6,3.6,10.4,5.7,17.2,7.3c6.8,1.7,2,14.9,7.2,22.2c5.1,7.3,14.7,13.6,23.1,12.2c8.4-1.5,6.8-5.9,8.8-4.2c2,1.7,5.1,3.1,11.7,0
		c6.8-3.1,10.8-3.1,12.7-2.1c1.6,1,8.8-0.4,12.7-4.2c3.7-3.8,9.6-3.8,15.1-5.2c5.5-1.5,18.4-3.8,23.5,5.2c5.1,9,7.6,8.4,10,8.6
		c2.5,0.4,9.6-4.2,10,1.5c0.4,5.7,10.8,8.6,13.5,3.6c2.5-5.2,16-2.1,20.3,1.5c4.3,3.6,21.9,14.9,28.4,9.4c6.8-5.7,7.2-8,7.2-8
		c25.6-10.1,5.5-18.5,16-25.4c10.4-6.9,16-34,19.2-36.1c3.3-2.1,8,0,10.4-2.1c2.5-2.1,7.2-3.8,6.8-8c-0.4-4.2,8.4-6.3,10.9-5.9
		c2.4,0.4,12.7,0.4,14.3-3.8c1.6-4,8.8-0.4,10.8-0.2c2.1,0.4,9.2,0,12.3-2.5c2.9-2.5,4.3-6.3,7.2-6.9c2.9-0.6,4.7-1.7,3.3-4.4
		c-1.2-2.5,1.2-2.5,3.3-6.5c2-3.8,5.5-3.1,14.3-3.1s8,7.1,20.3,3.8c2.3-0.6,7.2-4.6,8.8-5.5c1.6-0.8,5.5-1.5,6.3-0.4
		c0.8,1,6.3,0,6.3,0s2.5-1.7,3.3-4.4c0.8-2.7,4.7-1.7,4.7-1.7s3.7,0,5.5,1.5c1.6,1.5,3.3-1.5,5.5-4c2-2.5,9.2-3.4,13.5-0.6
		c20.3,13.4,29.1,5,36.8,1.5V339.6H-132.3z"/>
	
		<linearGradient id="SVGID_35_" gradientUnits="userSpaceOnUse" x1="1082.1046" y1="618.288" x2="1082.1046" y2="815.2703" gradientTransform="matrix(1 0 0 -1 0 1139.8898)">
		<stop  offset="0" style="stop-color:#FFFFFF"/>
		<stop  offset="1" style="stop-color:#666E83"/>
	</linearGradient>
	<path class="st35" d="M990.3,419.8c1.4,11.8-2,25.3,2,30c4.1,4.6,19.3,44.7,23.2,40.3c3.9-4.4,19.5-41.8,24.2-35.9
		c4.7,6.1,13,18.8,20.1,14.1c6.9-4.9,18.5,2.1,26.4,13.3c7.9,11.2,8.3,30,20.9,8.4c0,0,5.3,17.9,10.8,28.9c5.5,11,23.6-16,23.6-16
		s26.2,16.5,32.5-9.7v-94.7c-10.8-8.6-21.8-14.6-28.5-12.7c-8.9,2.5-10.8-46.2-22.6-56.5c-12-10.3-26.4-2.3-24.4,11.2
		c2,13.3-17.7,19.4-20.3,15.8c-2.6-3.8-18.1-6.1-22.2-5.3c-4.1,0.8,7.5,18.8,3.3,38.4c-4.3,19.6-31.3-22.8-48-22.6
		C994.6,367.1,988.9,408,990.3,419.8z"/>
	
		<linearGradient id="SVGID_36_" gradientUnits="userSpaceOnUse" x1="694.5016" y1="628.3034" x2="694.5016" y2="740.1494" gradientTransform="matrix(1 0 0 -1 0 1139.8898)">
		<stop  offset="0" style="stop-color:#FFFFFF"/>
		<stop  offset="1" style="stop-color:#666E83"/>
	</linearGradient>
	<path class="st36" d="M712.9,478.2c-9.6,12.3-15.5,17.5-21.2,11.3c-5.7-6.3-14.3-9.8-19.6-7.1c-5.3,2.9-9-4.4-12.5-7.9
		c-3.5-3.3-13.1,0.8-15.9,3.3c-2.9,2.5-18.8-2.3-21.8-4.8c-3.1-2.5-0.2-10.2-1-16.9c-0.6-3.8,11.2-7.7,14.7-15
		c2.7-5.6-3.7-15.2,1.6-15.5c12.5-0.4,32,23.2,35.5,11.9s-4.9-21.1-1.8-21.7c3.1-0.6,14.5,0.4,16.5,2.5c1.8,2.1,16.7-1.7,15.5-9.4
		c-1.4-7.5,9.6-12.3,18.4-6.7c8.8,5.6,9.4,33.2,16.1,31.7c6.7-1.5,18.6,4.6,28.8,11.5c6.1,4.2-0.8,20.3-3.9,32.6
		c-1.8,7.9,1,14.4,0.2,14.8c-0.8,0.4-4.9,9.4-10,10.7c-3.9,1-8,5.8-11.6,5c-4.7-1-8.2-7.9-8.2-7.9s-13.9,15.7-17.8,9.6
		C710.8,504.1,712.9,478.2,712.9,478.2z"/>
	
		<linearGradient id="SVGID_37_" gradientUnits="userSpaceOnUse" x1="117.1738" y1="579.8934" x2="117.1738" y2="658.4614" gradientTransform="matrix(1 0 0 -1 0 1139.8898)">
		<stop  offset="0" style="stop-color:#FFFFFF"/>
		<stop  offset="1" style="stop-color:#666E83"/>
	</linearGradient>
	<path class="st37" d="M109.4,548.1c-2.9-3.9-9.6,0.6-13.7-3.7c-4.1-4.3-10.2-7-14.1-4.9c-3.7,2.1-6.5-3.1-8.8-5.6
		c-2.5-2.3-9.4,0.6-11.4,2.5c-2,1.9-13.5-1.6-15.5-3.5c-2-1.9-15.9-11.9-16.6-16.7c-0.4-2.7,23.7-0.6,26.4-5.8
		c1.8-3.9-2.7-10.7,1.2-10.9c8.8-0.2,22.9,16.3,25.4,8.4c2.5-7.8-3.5-14.8-1.4-15.2c2.2-0.4,10.4,0.4,11.9,1.9
		c1.4,1.4,12.1-1.2,11-6.6c-1-5.4,7-8.6,13.1-4.7c6.3,3.9,6.7,23.5,11.7,22.2c4.9-1,13.3,3.3,20.4,8c4.5,2.9,58.3,4.3,56.2,13
		c-0.4,2.1-6.1,15.2-14.1,18.1c-5.3,2.1-11.9-10.5-18.2-10.7c-10.2,0-20.4,11.5-26.4,12.8c-0.6,0.2-3.5,6.6-7.2,7.6
		c-2.7,0.6-5.7,4.1-8.4,3.5c-3.3-0.8-5.9-5.6-5.9-5.6s-9.8,11.1-12.7,6.8C109.2,554.7,109.4,548.1,109.4,548.1z"/>
	
		<linearGradient id="SVGID_38_" gradientUnits="userSpaceOnUse" x1="169.2881" y1="611.6107" x2="169.2881" y2="783.553" gradientTransform="matrix(1 0 0 -1 0 1139.8898)">
		<stop  offset="0" style="stop-color:#FFFFFF"/>
		<stop  offset="1" style="stop-color:#666E83"/>
	</linearGradient>
	<path class="st38" d="M-37.6,457.1c0,0-9.6,10,5.5,21.5c15.2,11.5,31.3,25.9,37.3,12.5c5.9-13.4,10.2-18.6,16.2-14
		c6.1,4.6,17,7.7,20.7,1.7c3.5-5.9-6.4-11.9,5.3-13c11.7-1,11.7,7.3,21.3,6.9c9.4-0.4,10.2-5.9,13.3-7.5c2.9-1.9,13.9,2.1,21.7-0.8
		c7.8-2.9,11.7-1,14.1,4.4c2.7,5.4,10,9.4,16.8,10.2c6.6,1,13.9,10.9,17,13.2c3.1,2.3,15.2,7.3,19.1-0.8c3.9-8.2,12.5-12.3,16.2-9
		c3.5,3.3,18.9,9.2,25.8,17.8c7,8.4,20.7,1.3,24.6,7.3c3.9,6.1,17,17.8,25.4,19.9c8.4,2.3,31.6,0.6,35.2-10.7
		c3.7-11.3-4.5-24.9,13.7-20.3c18.2,4.6,82.6,11.3,89.5,1.7c6.8-9.4-1-30.3-11.7-36.2c-10.7-5.6-35.9-7.7-23.8-22.4
		c12.3-14.6,19.5-27.8,15.8-38.9c-3.7-11.1-12.3-17.4-37.5-20.3c-25.2-2.9-70.9,4.8-90.4,9.2c-19.5,4.4-20.3-9-23.2-16.3
		c-3.1-7.3-35.2-12.8-63.7-16.5c-28.5-4-41.2,18.4-61.7,20.9c-20.5,2.3-75.6-18.4-81.1-16.9c-5.5,1.5-17.8,11.5-17.8,19.6
		c0.2,8.4-6.4,6.9-20.7,8.4c-14.3,1.5-25,5.4-23.4,16.1c1.8,10.9-8.4,11.5-17.6,19.2c-9.2,7.7-15.4,8.2-2.3,15.7
		c13.1,7.5,12.3,13,6.4,16.9C-57.9,460.9-37.6,457.1-37.6,457.1z"/>
	
		<linearGradient id="SVGID_39_" gradientUnits="userSpaceOnUse" x1="631.8024" y1="684.9518" x2="631.8024" y2="778.5757" gradientTransform="matrix(1 0 0 -1 0 1139.8898)">
		<stop  offset="0" style="stop-color:#FFFFFF"/>
		<stop  offset="1" style="stop-color:#666E83"/>
	</linearGradient>
	<path class="st39" d="M681.9,443.5c0,0,4.7,6.4-8.6,2.1c-13.2-4.4-5.5,0.4-11.6,2.7c-5.9,2.3-16.5-1-18.1-4.8
		c-1.6-3.7-8.6-2.1-13.8,3.3c-5.3,5.4-8.6-5.4-18.3-8.9c-9.8-3.5-15.5-11.2-29.7-9.5c-14.3,1.7-20.4,3.1-25.7-2.3
		c-5.3-5.4,2.2-15.4-11.4-18.1c-13.6-2.5-16.9-2.7-18.9-11.2c-2-8.7-27.5-10.2,5.9-20.6c33.4-10.4,26.5-19.5,51.7-12.2
		c25.3,7.3,28.9,5.6,42.8,2.3c13.8-3.3,22-6.9,25.5,0.6c3.3,7.5,20.4,7.7,33.6,4.6c13-3.1,20.6-6.4,24.4,0
		c3.9,6.4,4.3,25.5,19.6,32.6c15.5,7.1,23.4,21,18.3,27.2c-5.1,6.2-20.8,23.3-25.1,18.3c-4.3-4.8-12.4-15.4-14.9-0.6
		C705.2,463.6,685,446.8,681.9,443.5z"/>
	
		<linearGradient id="SVGID_40_" gradientUnits="userSpaceOnUse" x1="94.3736" y1="988.1918" x2="94.3736" y2="756.1537" gradientTransform="matrix(1 0 0 -1 0 1139.8898)">
		<stop  offset="0" style="stop-color:#FFFFFF"/>
		<stop  offset="1" style="stop-color:#666E83"/>
	</linearGradient>
	<path class="st40" d="M216.7,221.3c-11.6-0.2-13.3,2.5-14.3,6.9c-0.8,4.4-19.8-0.4-20.6,2.9c-0.8,3.4-9,2.5-17.2,1
		c-8.2-1.5-0.4-5.5,0-11.7s-1.2-14.1-6.1-9.9c-4.7,4.4-3.1,10.9-11.2,9.4c-8.2-1.5-16.8-2.1-18.6-6.9c-1.6-4.8-10.8-7.8-17.8-10.3
		c-6.9-2.5-2.2-21-7.4-31.3c-5.1-10.3-15.1-19.1-23.7-17c-8.6,1.9-6.9,8.4-9,5.9c-2.2-2.5-5.1-4.4-12.1,0c-6.7,4.2-11,4.2-12.9,2.7
		c-1.6-1.5-9,0.4-12.9,5.9c-3.9,5.5-10,5.5-15.5,7.3c-5.5,1.9-19,5.5-24.1-7.3c-5.1-12.6-7.8-11.7-10.4-12.2
		c-2.7-0.4-10,5.9-10.4-1.9c-0.4-7.8-11.2-12.2-13.9-4.8c-2.7,7.3-16.3,2.9-20.6-1.9c-4.3-4.8-11.2-1.9-18.2,5.9
		c-6.9,7.8-7.4,11.1-7.4,11.1c-26.4,14.1-5.5,25.8-16.3,35.7c-10.8,9.9-16.3,47.8-19.8,50.8c-3.5,2.9-8.2,0-10.8,2.9
		c-2.7,2.9-7.4,5.5-6.9,11.1c0.2,3.1-2.5,5.5-5.1,6.9V378h475.3l6.7-9C333.2,370.5,285.5,222,216.7,221.3z"/>
	
		<linearGradient id="SVGID_41_" gradientUnits="userSpaceOnUse" x1="841.8865" y1="977.3127" x2="841.8865" y2="812.0479" gradientTransform="matrix(1 0 0 -1 0 1139.8898)">
		<stop  offset="0" style="stop-color:#FFFFFF"/>
		<stop  offset="1" style="stop-color:#666E83"/>
	</linearGradient>
	<path class="st41" d="M1179,341.3c-1.2-1-2.4-3.8-3.7-8.4c-3.1-12.8-4.7-16.1-10.8-13.6s-6.5,1-7.8-9.9
		c-1.2-10.7-10.8-26.4-23.9-27.5s-21.3-12.8-34.2-23.9c-13.1-11.3-12.5-27.5-43.8-38.6c-31.3-11.3-13.5,9.9-26.8,27.5
		c-13.5,17.6-17,3.4-19.4-1.9c-2.7-5.4-5.7-2.5-6.5,0c-0.8,2.5-1.2,14.7-9,4c-7.8-10.7-7.8-5.9-8.2-4c-0.4,1.9-13.5,6.9-19.4-2.9
		c-6.1-9.8-11.3-1.9-33.8,6.9c-22.5,8.8-18.2,13.6-18.2,1.9c0-11.7-8.2-8.8-20.4-11.3c-12.1-2.5-22.9,16.6-24.3,6.9
		c-1.2-9.9-19.4,0-18.2-2.5c1.2-2.5-3.1-17.6-8.2-24.5c-5.1-6.9-4.7-4-7.4-1.5c-2.7,2.5-1.2,15.7-10,22.4c-8.6,6.9-15.5,2.5-15.5-1
		c0-3.4-9.6-21.6-17.8-25.4c-8.2-4-9-17.6-16-18.7c-7-1-7.4,14.7-10,19.1c-2.7,4.4-6.5,2.5-7.8-6.3c-1.2-8.8-11.7-8.8-19-8.8
		s-10.8-5.9-18.6-16.6c-7.8-10.7-15.5-7.3-33.8,0c-18.2,7.3-24.3,7.3-38.7,6.3s-13.5,2.9-19.8,5.4c-6.5,2.5-5.7-1.5-13.5,0
		c-7.8,1.5-1.6,20.1-5.7,15.7c-3.9-4.4-17-7.8-26-8.4c-9-0.4-19.4,4.4-29.9,5.9c-10.4,1.5-13.1,4.8-20.5,13.2
		c-7.4,8.4-10,18-17.4,26.8c-2.7,3.1-6.3,6.9-10.2,10.1v83.4H1179z"/>
	
		<linearGradient id="SVGID_42_" gradientUnits="userSpaceOnUse" x1="794.6601" y1="614.9492" x2="794.6601" y2="710.2012" gradientTransform="matrix(1 0 0 -1 0 1139.8898)">
		<stop  offset="0" style="stop-color:#FFFFFF"/>
		<stop  offset="1" style="stop-color:#666E83"/>
	</linearGradient>
	<path class="st42" d="M668.2,430.2c1.6,11.6-3.3,24.6,1.8,29c5.1,4.3,32.7,12.6,37.6,8.3c4.9-4.3,21.7-11.4,27.4-5.8
		c5.9,5.8,12.3,18.2,21.5,13.4s23.9,1.4,33.7,12c9.8,10.6,19.8,1.9,36.4-19.2c0,0-3.3,44.1,3.5,54.6c6.9,10.6,30.7-16.3,30.7-16.3
		s6.1,11.8,14.1,13.7c6.1,1.4,13.5-6.8,20-8.5c8.6-2.3,15.7-17.6,17.2-18.2c1.4-0.6-3.5-11.6-0.4-25.2c2.9-12.2,8.4-26.9,10-38.1
		H668.2C668.2,429.8,668.2,430,668.2,430.2z"/>
	
		<linearGradient id="SVGID_43_" gradientUnits="userSpaceOnUse" x1="-36.7259" y1="651.6748" x2="-36.7259" y2="783.9358" gradientTransform="matrix(1 0 0 -1 0 1139.8898)">
		<stop  offset="0" style="stop-color:#FFFFFF"/>
		<stop  offset="1" style="stop-color:#666E83"/>
	</linearGradient>
	<path class="st43" d="M-145,469.8c2.9,2.5,6.3,4.6,10.4,5.3c3.9,0.6,8.4-4.6,13.1-5.3c5.1-0.6,12.3,8.2,18.4,10.1
		c4.1,1.3,7.8-5.3,10-3.6c5.5,4.2,2,9.1,5.3,11c6.8,3.6,11.3-3.4,20.9-13.3c4.3-4.4,9.6,4.6,14.7,1.7c1.2-0.6,3.5-9.7,5.7-11
		c2.7-1.5,5.5,4.8,6.8,3.2c3.5-4.8,1.4-9.7,3.7-8.2c4.5,2.9,2.9-4.4,7.8-9.3c2.7-2.5,10.6-0.4,14.1-4c6.3-6.5,9.6-15.6,17.4-19.4
		c4.7-2.3,10.8,0.8,20.5-2.1c25.4-7.6,14.7-11.6,37.6-38.8c23.1-27.2,0.6-14.5-5.7-20.9c-6.1-6.3-9-4.6-21.9,0.6
		c-12.9,5.3-11.9-7.6-19.2-9.3c-7.4-1.7-11.9,2.9-23.1,12.2c-11.3,9.3-20.3,5.9-30.5,8.2c-10.2,2.3-18.6-5.3-20.3,2.3
		c-1.6,7.6-6.8,12.8-10.2,10.5c-3.5-2.3-14.1,0.6-18,5.9c-3.9,5.3,5.1,5.3-8.4,8.6c-13.5,3.6-6.1,6.3-6.1,6.3
		c-4.5-1.3-30.5-4.6-24.8,9.3c5.7,13.9-6.8,9.3-12.9,7.6c-2-0.6-3.7,1.5-5.3,4.6V469.8L-145,469.8z"/>
	
		<linearGradient id="SVGID_44_" gradientUnits="userSpaceOnUse" x1="503.1444" y1="952.1561" x2="503.1444" y2="674.4741" gradientTransform="matrix(1 0 0 -1 0 1139.8898)">
		<stop  offset="0" style="stop-color:#FFFFFF"/>
		<stop  offset="1" style="stop-color:#666E83"/>
	</linearGradient>
	<path class="st44" d="M788.8,403.5c-3.5-3.8,2.7-53.6,7.8-57.4c27-21.5-3.3-35.6-7.8-44.1c-4.3-8.4-3.1-1.5-3.9,4.4
		c-0.8,5.9-2.2,7.6-3.5-1.9c-1.2-9.5-1.8-12-4.1-10.1c-2.2,1.9-2.5,0.6-2.9-7.4c-0.4-8-4.1-19.6-9-20.5c-4.9-0.6-8-9.5-12.9-17.9
		c-4.9-8.4-4.7-20.5-16.4-28.7c-11.7-8.4-5.1,7.4-10,20.5c-5.1,13.1-6.3,2.5-7.4-1.5c-1-4-8.4-1.3-9,0c-1.8,3.6-5.1,5.1-7.4-2.1
		c-2.2-7.4-4.3-1.5-12.7,5.1c-8.4,6.5-6.7,10.1-6.7,1.5s-24.1-3.4-23.5-5.1c0.4-1.9,2.2-3.4,0.2-8.6c-2-5.1-4.9-1.5-5.9,0.4
		c-1,1.9-0.6,0.6-3.9,5.7c-3.3,5.1-5.9,1.9-5.9-0.6c0-2.5,2.9-16.9-0.2-19.6c-3.1-3-7.4-5.3-10-6.1c-2.7-0.6-8.8,9.1-9.2,2.3
		c-0.4-6.5-4.3-6.5-7.2-6.5c-2.9,0-4.1-4.4-7-12.4c-2.9-8-5.9-5.5-12.7,0c-6.7,5.5-9.2,5.5-14.5,4.6c-5.3-0.6-5.1,2.1-7.6,4
		s-2-1.1-5.1,0c-2.9,1.1-0.6,15-2,11.6c-1.4-3.4-6.3-5.9-9.8-6.1c-3.5-0.4-7.4,3.4-11.2,4.4c-3.9,1.1-4.9,3.6-7.6,9.9
		c-2.9,6.1-6.3,12.4-9.2,19c-2.9,6.5-9,9.1-9.6,5.7c-0.6-3.4-8.4,6.5-11.2,5.5c-2.9-1.1-6.3,5.9-8.6,7c-2.2,1.1-4.1,0-3.9,5.1
		c0.2,5.1-7.8,8.9-8.4,12.2c-1.4,7.2,1,4-2.7,3.6c-3.7-0.4-8.2,6.7-12.5,6.7c-4.3,0-5.1,1.9-5.3,5.1c-0.4,3.4-7.6-0.4-7.8,2.1
		c-0.4,2.5-3.5,1.9-6.5,0.6c-3.1-1.1-2.9,0.4-2.7-4.2c0.2-4.6-5.1-0.4-6.7,2.7c-1.8,3.4,1.8,5.7-1.2,4.6c-3.1-1.1-3.9,0.8-4.7-2.7
		c-0.6-3.6-2,0.4-4.7-1.5c-2.7-1.9,4.3-4,2.5-11.8c-2-7.6-5.7-14.1-9-12.7c-3.3,1.5-2.7,6.1-3.5,4.4c-0.8-1.9-8.8,3.4-9.4,2.1
		c-0.6-1.1-3.5,0.4-4.9,4.4c-1.4,4-9.2,15.4-11.2,16.9c-2,1.5-3.1-0.8-5.1-10.3c-2-9.5-5.3-10.1-6.3-10.5c-1-0.4-9.8-4.2-10.8,1.3
		c-1,5.5-6.1,2.1-7.8-1.5c-1.6-3.6-4.3-1.5-6.7,4.4c-2.7,5.9-2.9,8.4-2.9,8.4c-10,10.5-8-1.7-12.1,5.5c-4.1,7.4-12.5,1.3-13.9,3.4
		c-1.2,2.1-7,1.3-8,3.4c-1,2.1-11.2,7.4-11,11.8c0.2,4.4,21.3,13.3,20.2,12.9c-1-0.4-4.9-0.4-5.5,3.8c-0.6,4.2-3.5,0.4-4.3,0.2
		c-0.8-0.4-3.7,0-4.7,2.5c-1.2,2.5-1.6,6.5-2.9,7.4c-1.2,0.6-1.8,1.9-1.2,4.6c0.4,2.7-0.4,2.7-1.2,6.7c-0.8,4-2,3.4-5.5,3.4
		s-7.6-5.9-7.8-4c-0.4,1.9-2.9,4.6-3.5,5.7c-0.6,1.1-2,1.5-2.5,0.4c-0.4-1.1-3.5,1.9-3.7,4.6c-0.4,3-1.8,1.9-1.8,1.9s-3.5,0-4.3,2.7
		s-3.3,1.7-5.1,0.6c-2-1.1-2.7-0.4-6.3,0c-3.7,0.4-6.5,5.9-6.5,5.9c-0.6,1.1-1.8,2.1-2.5-5.7c-0.2-1.9-7.8-4.6-13.5,0
		c-1.8,1.5-1.2,5.5-1.8,11.2c-0.4,4-4.7,2.1-4.7,2.1c-4.3-1.9-7.4-2.5-17.6,10.8c-10.2,13.5-12.9,24.9-25.8,30.6
		c-12.3,5.5,15.9,13.3,20.9,44.5h539.5c4.7-11.2,7.8-22.8,19.6-31.2C814.4,411.1,792.3,407.3,788.8,403.5z"/>
	
		<linearGradient id="SVGID_45_" gradientUnits="userSpaceOnUse" x1="842.7043" y1="768.3688" x2="842.7043" y2="699.926" gradientTransform="matrix(1 0 0 -1 0 1139.8898)">
		<stop  offset="0" style="stop-color:#FFFFFF"/>
		<stop  offset="1" style="stop-color:#666E83"/>
	</linearGradient>
	<path class="st45" d="M916.5,442.4c-1-7.4,1.8-16-1-18.7c-3.1-2.9-19.1-8.2-21.9-5.3c-2.9,2.9-12.5,7.4-16,3.7
		c-3.5-3.7-7.2-11.7-12.5-8.6c-5.3,3.1-13.9-1-19.7-7.8c-5.7-7-11.5-1.2-21.1,12.5c0,0,1.8-28.5-2-35.3
		c-3.9-6.8-17.8,10.5-17.8,10.5s-3.5-7.6-8.2-8.8c-3.7-0.8-7.8,4.5-11.7,5.5c-4.9,1.4-9.2,11.5-9.8,11.9c-0.8,0.4,2.1,7.6,0.2,16.4
		c-2.3,10.7-7.2,24-6.1,31.4h141.4C913.8,446.7,916.9,444.7,916.5,442.4z"/>
	
		<linearGradient id="SVGID_46_" gradientUnits="userSpaceOnUse" x1="486.0453" y1="626.2938" x2="486.0453" y2="731.2838" gradientTransform="matrix(1 0 0 -1 0 1139.8898)">
		<stop  offset="0" style="stop-color:#FFFFFF"/>
		<stop  offset="1" style="stop-color:#666E83"/>
	</linearGradient>
	<path class="st46" d="M254.6,439.4c3.7,10.5-7.2,12.8-16,21.8c-8.6,9-15.1,10.5,0,15.9c15.1,5.4,15.1,10.9,9.4,15.9
		c-5.7,5,15.1-1.9,15.1-1.9s-8.6,11.3,9.4,20.5c18.2,9,37.7,20.9,42,6.9c4.3-14,8-19.9,15.1-16.3c7.2,3.6,19.6,5,22.5-1.5
		c2.9-6.3-8.6-10.9,3.7-13.6s13.7,5.4,23.9,3.6c10.2-1.9,10.2-7.3,13.1-9.6s15.1,0,23.1-4.2c8-4.2,12.3-2.7,16,2.3
		c3.7,5,12.3,7.7,19.6,7.7c7.2,0,16.6,8.6,20.3,10.5c3.7,1.9,17.4,5,20.3-3.6c2.9-8.6,11.7-14,16-11.3c4.3,2.7,21.7,6.3,30.5,13.6
		c8.6,7.3,22.5-1.9,27.6,3.6c5.1,5.4,21.1,14.9,30.5,15.9c9.4,0.8,34-4,36.2-15.9c2.3-11.7-8.6-24.1,11.7-22.2
		c20.3,1.9,90.7-1.3,96.4-11.7c5.7-10.5-5.7-29.9-18.2-34.1c-10.2-3.3-31.3-2.7-31.5-11.9H277.5c-0.2,0-0.4,0-0.6,0.2
		C261.7,423.5,250.9,429,254.6,439.4z"/>
	
		<linearGradient id="SVGID_47_" gradientUnits="userSpaceOnUse" x1="65.0592" y1="533.1519" x2="65.0592" y2="771.8677" gradientTransform="matrix(1 0 0 -1 0 1139.8898)">
		<stop  offset="0" style="stop-color:#FFFFFF"/>
		<stop  offset="1" style="stop-color:#666E83"/>
	</linearGradient>
	<path class="st47" d="M-134.6,580.4c7.2,7.2,19.2,9.7,22.1-2.7s-8.6-21.3,3.5-26.5c12.3-5.3,13.7,10.5,23.5,7.2
		c10-3.6,10-14.1,12.9-18.5s14.9,0,22.9-8c7.8-8,12.1-5.3,15.7,4.4c3.5,9.7,12.1,14.9,19.2,14.9c7.2,0,16.4,16.8,20,20.2
		c3.7,3.6,17.2,9.7,20-7.2c2.9-16.8,11.5-27.4,15.7-22.1c4.3,5.3,21.5,12.4,30.1,26.5c8.6,14.1,22.1-3.6,27.2,7.2
		c2,4.4,13.9,6.9,18.4,12.4c6.3,7.6,6.3,17.5,11.7,18.5c4.3,0.8,11.5-22.9,18.4-27.2c8.4-4.8,16.2,8.8,17.4-3.8
		c2-22.9-8.6-46.7,11.5-43.2c10,1.7,32.3,20.2,53,16.6c10-1.7,9.2-11.6,16.8-19.6c4.3-4.6,11.2,4.2,16.6,0.6
		c4.5-2.9,8.2-18.3,8.8-20.6c1.8-6.5,7.4-18.3,5.7-31.8c-0.6-5.9-9-12-9-18.3c0-7.8-7.2-15.6-6.7-22.5c1-14.5,9.8-25.9,5.3-28.8
		c-12.1-8-31.3,12.6-41.9-0.8c-9.2-11.8-5.9-25.7-0.6-39.4h-370.2v227.3C-143.4,580.4-140.1,574.9-134.6,580.4z"/>
	
		<linearGradient id="SVGID_48_" gradientUnits="userSpaceOnUse" x1="1023.4739" y1="751.9167" x2="1023.4739" y2="690.1514" gradientTransform="matrix(1 0 0 -1 0 1139.8898)">
		<stop  offset="0" style="stop-color:#FFFFFF"/>
		<stop  offset="1" style="stop-color:#666E83"/>
	</linearGradient>
	<path class="st48" d="M1093.6,442.9c-14.3-1.7-18.2-10.4-27-16.3c-8.8-5.6-9.6-16.9-15.9-13c-6.3,4-13.5,4-14.3,0
		c-0.8-4-10.2-9.8-16.6-9c-6.3,0.8,0,7.3-11.8,0c-11.8-7.3-8.8,0-8.8,0c-2.4-4-18.2-25.1-23.7-11.3c-5.5,13.8-11,1.7-14.3-4
		c-3.1-5.6-22.3,7.3-28.6,12.1c-6.3,4.8-1.6,20.3,11.8,30.7c6.1,4.8,8.6,11.3,9.8,17.5h162.8
		C1113.4,444.4,1106.9,444.4,1093.6,442.9z"/>
	
		<linearGradient id="SVGID_49_" gradientUnits="userSpaceOnUse" x1="1024.2872" y1="628.0328" x2="1024.2872" y2="711.4998" gradientTransform="matrix(1 0 0 -1 0 1139.8898)">
		<stop  offset="0" style="stop-color:#FFFFFF"/>
		<stop  offset="1" style="stop-color:#666E83"/>
	</linearGradient>
	<path class="st49" d="M898.9,438.3c-3.9,3.2,2.7,6.4-0.6,9.1c-7.1,6.2-22.4,11.3-22.7,14.7c-0.6,10.6-9.8,24.5-4.3,27.2
		c2.2,1.3,4.1,7.4,11.8,5.5c5.7-1.5,17.1-11.1,22.4-11.7c4.9-0.6,9,6.6,11,4.9c7.3-5.5,29.8-16.4,35.9-12.3
		c6.1,4,11.2,14.5,23.9,7.7c12.7-6.8,29.8-4.5,39.8,3.4c6.3,4.9,6.7,2.3,18.6-6.4c1.8-1.5,5.9,5.1,10,3.4c3.7-1.5,7.1-11.3,9.2-13
		c3.9-3.4,7.3-8.5,12.4-6.2c0,0,1.4,5.7-1.4,17.7c-2.9,11.7-9.8,24.2-6.7,28.3c2.9,3.8,7.1-5.1,16.3-8.9c4.3-1.7,13.7,4,17.1,1.3
		c5.3-4.3,9-15.5,9-15.5s4.9,10,14.5,9.6c7.6-0.2,18.6-9.8,27.1-13c11.4-4.3,24.1-20.8,25.7-21.7c1.8-1.1-1.8-10.2,5.5-24.3
		c1.6-3.2,3.7-6.6,5.5-10H915.4c-0.4,1.1-1,2.1-1.8,3C911.7,433.9,901.5,436.2,898.9,438.3z"/>
	
		<linearGradient id="SVGID_50_" gradientUnits="userSpaceOnUse" x1="848.4028" y1="721.5458" x2="848.4028" y2="778.3937" gradientTransform="matrix(1 0 0 -1 0 1139.8898)">
		<stop  offset="0" style="stop-color:#FFFFFF"/>
		<stop  offset="1" style="stop-color:#666E83"/>
	</linearGradient>
	<path class="st50" d="M851.8,401.1c-6.7,3.1-10.4,3.9-11.4,0c-1-3.9-3.9-7.4-6.7-7.4c-2.8,0-2.8-3.9-3.7-6.2
		c-0.8-2.3-5.7-2.7-7.5-2.3c-1.8,0.4-7.5-5.1-8.1-7c-0.8-1.6,2.2-4.3,3.3-7.4c1-3.1,8.1-11.7,13.6-9c5.3,2.7,8.6,16.8,12.4,12.9
		c3.9-3.9,2.4-10.1,3.9-9.4c1.4,0.4,6.1,3.5,6.5,4.7c0.4,1.2,7.5,3.1,8.5-0.4c1-3.5,6.7-3.1,9.4,1.2c2.4,4.3-3.3,16,0,16.8
		c3.3,0.8,6.9,6.2,9.8,11.3c2.9,5.1-1.2,19.1-11.8,19.1c-1,0-7.9-8.2-13.8-8.2c-5.9,0-9.8,8.2-10,4.7
		C845.3,411.3,851.8,401.1,851.8,401.1z"/>
	
		<linearGradient id="SVGID_51_" gradientUnits="userSpaceOnUse" x1="705.0877" y1="776.6597" x2="705.0877" y2="835.1788" gradientTransform="matrix(1 0 0 -1 0 1139.8898)">
		<stop  offset="0" style="stop-color:#FFFFFF"/>
		<stop  offset="1" style="stop-color:#666E83"/>
	</linearGradient>
	<path class="st51" d="M708.5,345.5c-6.7,3.2-10.4,4-11.4,0c-1-4-3.9-7.6-6.7-7.6s-2.8-4-3.7-6.3c-0.8-2.3-5.7-2.7-7.5-2.3
		c-1.8,0.4-7.5-5.3-8.1-7.2c-0.8-1.7,2.2-4.4,3.3-7.6c1-3.2,8.1-12,13.6-9.3c5.3,2.7,8.5,17.3,12.4,13.3c3.9-4,2.4-10.4,3.9-9.7
		c1.4,0.4,6.1,3.6,6.5,4.9c0.4,1.3,7.5,3.2,8.5-0.4c1-3.6,6.7-3.2,9.4,1.3c2.4,4.4-3.3,16.5,0,17.3c3.3,0.8,6.9,6.3,9.8,11.6
		c2.8,5.3-1.2,19.7-11.8,19.7c-1,0-7.9-8.5-13.8-8.5c-5.9,0-9.8,8.5-10,4.9C702,356,708.5,345.5,708.5,345.5z"/>
	
		<linearGradient id="SVGID_52_" gradientUnits="userSpaceOnUse" x1="348.4307" y1="731.4307" x2="348.4307" y2="789.9498" gradientTransform="matrix(1 0 0 -1 0 1139.8898)">
		<stop  offset="0" style="stop-color:#FFFFFF"/>
		<stop  offset="1" style="stop-color:#666E83"/>
	</linearGradient>
	<path class="st52" d="M351.8,390.5c-6.7,3.2-10.4,4-11.4,0c-1-4-3.9-7.6-6.7-7.6c-2.8,0-2.8-4-3.7-6.3c-0.8-2.3-5.7-2.7-7.5-2.3
		c-1.8,0.4-7.5-5.3-8.1-7.2c-0.8-1.7,2.2-4.4,3.3-7.6c1-3.2,8.1-12,13.6-9.3c5.3,2.7,8.6,17.3,12.4,13.3c3.9-4,2.4-10.4,3.9-9.7
		c1.4,0.4,6.1,3.6,6.5,4.9c0.4,1.3,7.5,3.2,8.6-0.4s6.7-3.2,9.4,1.3c2.4,4.4-3.3,16.5,0,17.3c3.3,0.8,6.9,6.3,9.8,11.6
		c2.9,5.3-1.2,19.7-11.8,19.7c-1,0-7.9-8.5-13.8-8.5c-5.9,0-9.8,8.5-10,4.9C345.3,401.3,351.8,390.5,351.8,390.5z"/>
	
		<linearGradient id="SVGID_53_" gradientUnits="userSpaceOnUse" x1="526.7581" y1="760.3868" x2="526.7601" y2="795.6857" gradientTransform="matrix(1 0 0 -1 0 1139.8898)">
		<stop  offset="0" style="stop-color:#FFFFFF"/>
		<stop  offset="1" style="stop-color:#666E83"/>
	</linearGradient>
	<path class="st53" d="M547.2,372.9c0,0,2.2,1.9-2.9,1.5c-5.1-0.4-1.8,0.6-3.9,2.1c-1.8,1.2-5.9,1-6.7,0c-0.8-1.2-3.3,0-4.5,2.5
		c-1.4,2.3-3.5-1-7.1-1.5c-3.7-0.4-6.5-2.5-11.2-0.6c-4.9,1.9-6.9,2.9-9.2,1.7c-2.2-1.5-0.6-5.6-5.5-5.2c-5.1,0.4-6.1,0.6-7.6-2.3
		c-1.4-2.9-10.6-1,0.2-7.7c10.8-6.7,7.6-9.4,17.2-8.9c9.6,0.2,10.6-0.6,15.3-3.1c4.5-2.5,7.1-4.4,9-2.1c1.8,2.3,7.8,0.8,12.3-1.5
		c4.3-2.3,6.5-4.2,8.6-2.3c2,1.9,3.7,8.5,9.8,9.8c6.1,1,10,5.2,8.8,7.9c-1.2,2.7-5.3,10-7.1,8.7c-2-1.2-5.7-4.2-5.3,1
		C557.2,377.9,548.7,373.7,547.2,372.9z"/>
	
		<linearGradient id="SVGID_54_" gradientUnits="userSpaceOnUse" x1="337.0309" y1="588.1648" x2="337.0309" y2="619.8822" gradientTransform="matrix(1 0 0 -1 0 1139.8898)">
		<stop  offset="0" style="stop-color:#FFFFFF"/>
		<stop  offset="1" style="stop-color:#666E83"/>
	</linearGradient>
	<path class="st54" d="M350.6,536.4c0,0,1.6,0.4-1.2,1.5c-2.9,1.1-0.8,0.9-1.6,2.1c-0.6,1.3-2.9,2.1-3.7,1.9
		c-0.8-0.4-1.6,0.9-1.8,2.5c-0.2,1.7-2.3,0.2-4.3,1.1c-2.1,0.8-4.1,0.4-6.4,2.8c-2.3,2.3-3.1,3.4-4.7,3.4c-1.6-0.2-1.8-3-4.3-1.5
		c-2.7,1.5-3.3,1.9-4.7,0.8c-1.4-1.3-6,2.3-1.8-4.5c4.3-6.6,1.8-7.2,7-9.6c5.3-2.3,5.7-3.2,7.6-5.7c1.8-2.6,2.9-4.5,4.3-3.6
		c1.6,0.8,4.5-1.7,6.4-4c1.8-2.3,2.5-4,4.1-3.6c1.6,0.6,4.3,3.8,7.8,2.8c3.5-1.1,6.8,0.2,6.8,1.9c0,1.7-0.4,7-1.6,6.8
		c-1.4-0.2-4.1-0.8-2.7,2.1C357.4,536.6,351.6,536.6,350.6,536.4z"/>
	
		<linearGradient id="SVGID_55_" gradientUnits="userSpaceOnUse" x1="9.688" y1="628.1348" x2="9.688" y2="659.8521" gradientTransform="matrix(1 0 0 -1 0 1139.8898)">
		<stop  offset="0" style="stop-color:#FFFFFF"/>
		<stop  offset="1" style="stop-color:#666E83"/>
	</linearGradient>
	<path class="st55" d="M23.3,496.5c0,0,1.6,0.4-1.2,1.5c-2.9,1.1-0.8,0.9-1.6,2.1c-0.6,1.3-2.9,2.1-3.7,1.7
		c-0.8-0.4-1.6,0.9-1.8,2.5c-0.2,1.7-2.3,0.2-4.3,1.1c-2.1,0.9-4.1,0.4-6.4,2.8c-2.3,2.3-3.1,3.4-4.7,3.4c-1.6-0.2-1.8-3-4.3-1.5
		c-2.7,1.5-3.3,1.9-4.7,0.9c-1.4-1.3-6,2.3-1.8-4.5c4.3-6.6,1.8-7.2,7-9.6c5.3-2.3,5.7-3.2,7.6-5.7c1.8-2.5,2.9-4.5,4.3-3.6
		c1.6,0.9,4.5-1.7,6.4-4c1.8-2.3,2.5-4,4.1-3.6c1.6,0.6,4.3,3.8,7.8,2.8c3.5-1.1,6.8,0.2,6.8,1.9c0,1.7-0.4,7-1.6,6.8
		c-1.4-0.2-4.1-0.9-2.7,2.1C29.8,496.5,24.3,496.5,23.3,496.5z"/>
	
		<linearGradient id="SVGID_56_" gradientUnits="userSpaceOnUse" x1="57.731" y1="733.0007" x2="57.73" y2="804.9288" gradientTransform="matrix(1 0 0 -1 0 1139.8898)">
		<stop  offset="0" style="stop-color:#FFFFFF"/>
		<stop  offset="1" style="stop-color:#666E83"/>
	</linearGradient>
	<path class="st56" d="M69.6,385.3c-6.2,8-9.9,11.3-13.7,7.4c-3.7-4-9.3-6.3-12.8-4.6c-3.5,1.9-5.8-2.9-8.1-5
		c-2.3-2.1-8.5,0.4-10.4,2.1c-1.9,1.7-12.2-1.5-14.1-3.1c-1.9-1.7-0.2-6.5-0.8-10.9c-0.4-2.5,7.2-5,9.5-9.7c1.7-3.6-2.5-9.9,1-10.1
		c8.1-0.2,20.9,14.9,23.2,7.8c2.3-7.1-3.1-13.7-1.2-14.1c2.1-0.4,9.5,0.2,10.8,1.7c1.2,1.3,11-1,9.9-6.1c-0.8-4.8,6.2-8,12-4.4
		c5.8,3.6,6.2,21.4,10.6,20.4c4.3-1.1,12,2.9,18.6,7.4c3.9,2.7-0.6,13-2.5,21c-1.2,5.3,0.6,9.2,0.2,9.7c-0.4,0.2-3.1,6.1-6.4,6.9
		c-2.5,0.6-5.2,3.8-7.5,3.2c-3.1-0.6-5.4-5.3-5.4-5.3s-8.9,10.1-11.6,6.1C68.4,401.9,69.6,385.3,69.6,385.3z"/>
	
		<linearGradient id="SVGID_57_" gradientUnits="userSpaceOnUse" x1="561.774" y1="821.6558" x2="561.774" y2="893.5848" gradientTransform="matrix(1 0 0 -1 0 1139.8898)">
		<stop  offset="0" style="stop-color:#FFFFFF"/>
		<stop  offset="1" style="stop-color:#666E83"/>
	</linearGradient>
	<path class="st57" d="M573.3,296.6c-6.1,8-9.8,11.3-13.4,7.4c-3.7-4-9.2-6.3-12.4-4.6c-3.5,1.9-5.7-2.9-7.9-5
		c-2.2-2.1-8.3,0.4-10.2,2.1c-1.8,1.7-12-1.5-13.8-3.2c-1.8-1.7-0.2-6.5-0.8-10.9c-0.4-2.5,7.1-5,9.4-9.7c1.6-3.6-2.4-9.9,1-10.1
		c7.9-0.2,20.6,14.9,22.8,7.8c2.2-7.1-3.1-13.7-1.2-14.1c2-0.4,9.4,0.2,10.6,1.7c1.2,1.3,10.8-1,9.8-5.9c-0.8-4.8,6.1-8,11.8-4.4
		c5.7,3.6,6.1,21.4,10.4,20.4c4.3-1,11.8,2.9,18.3,7.4c3.9,2.7-0.6,13-2.4,21c-1.2,5.3,0.6,9.2,0.2,9.7c-0.4,0.2-3.1,6.1-6.3,6.9
		c-2.4,0.6-5.1,3.8-7.3,3.2c-3.1-0.6-5.3-5.3-5.3-5.3s-8.8,10.1-11.4,6.1C572,313.4,573.3,296.6,573.3,296.6z"/>
	
		<linearGradient id="SVGID_58_" gradientUnits="userSpaceOnUse" x1="1098.3881" y1="724.6848" x2="1098.3881" y2="796.6147" gradientTransform="matrix(1 0 0 -1 0 1139.8898)">
		<stop  offset="0" style="stop-color:#FFFFFF"/>
		<stop  offset="1" style="stop-color:#666E83"/>
	</linearGradient>
	<path class="st58" d="M1110.1,393.7c-6.2,8-9.9,11.3-13.7,7.4c-3.7-4-9.3-6.3-12.6-4.6c-3.5,1.9-5.8-2.9-8.1-5
		c-2.3-2.1-8.5,0.4-10.4,2.1c-1.9,1.7-12.2-1.5-14.1-3.2c-1.9-1.7-0.2-6.5-0.8-10.9c-0.4-2.5,7.2-5,9.5-9.7c1.7-3.6-2.5-9.9,1-10.1
		c8.1-0.2,20.9,14.9,23.2,7.8c2.3-7.1-3.1-13.7-1.2-14.1c2.1-0.4,9.5,0.2,10.8,1.7c1.2,1.3,11-1.1,9.9-6.1c-0.8-4.8,6.2-8,12-4.4
		c5.8,3.6,6.2,21.4,10.6,20.4c4.3-1,12,2.9,18.6,7.4c3.9,2.7-0.6,13-2.5,21c-1.2,5.3,0.6,9.2,0.2,9.7c-0.4,0.2-3.1,6.1-6.4,6.9
		c-2.5,0.6-5.2,3.8-7.7,3.2c-3.1-0.6-5.4-5.3-5.4-5.3s-8.9,10.1-11.6,6.1C1108.8,410.3,1110.1,393.7,1110.1,393.7z"/>
	
		<linearGradient id="SVGID_59_" gradientUnits="userSpaceOnUse" x1="270.245" y1="493.7428" x2="270.245" y2="364.4948" gradientTransform="matrix(1 0 0 -1 0 1139.8898)">
		<stop  offset="0" style="stop-color:#FFFFFF"/>
		<stop  offset="1" style="stop-color:#666E83"/>
	</linearGradient>
	<path class="st59" d="M540.5,785.9c-1-0.8-2-3-3-6.6c-2.5-10-3.8-12.6-8.7-10.7c-4.9,2-5.2,0.8-6.2-7.7c-1-8.4-8.7-20.7-19.2-21.5
		c-10.5-0.8-17.1-10-27.4-18.7c-10.5-8.9-10-21.5-35.1-30.2c-25.1-8.9-10.8,7.7-21.5,21.5c-10.8,13.8-13.6,2.6-15.6-1.5
		c-2.1-4.3-4.6-2-5.2,0c-0.7,2-1,11.5-7.2,3.1c-6.2-8.4-6.2-4.6-6.6-3.1c-0.3,1.5-10.8,5.4-15.6-2.3c-4.9-7.7-9-1.5-27.1,5.4
		c-18,6.9-14.6,10.7-14.6,1.5s-6.6-6.9-16.4-8.9c-9.7-2-18.4,12.9-19.5,5.4c-1-7.7-15.6,0-14.6-2c1-2-2.5-13.8-6.6-19.2
		c-4.1-5.4-3.8-3.1-5.9-1.1c-2.1,2-1,12.3-8,17.5c-6.9,5.4-12.5,2-12.5-0.8c0-2.6-7.7-16.9-14.3-19.8c-6.6-3.1-7.2-13.8-12.8-14.6
		c-5.6-0.8-5.9,11.5-8,14.9c-2.1,3.4-5.2,2-6.2-4.9c-1-6.9-9.3-6.9-15.3-6.9c-5.9,0-8.7-4.6-14.9-12.9c-6.2-8.4-12.5-5.7-27.1,0
		c-14.6,5.7-19.5,5.7-31,4.9c-11.5-0.8-10.8,2.3-15.9,4.3c-5.2,2-4.6-1.1-10.8,0c-6.2,1.1-1.3,15.7-4.6,12.3
		c-3.1-3.4-13.6-6.1-20.8-6.6c-7.2-0.3-15.6,3.4-23.9,4.6c-8.4,1.1-10.5,3.8-16.4,10.3c-5.9,6.6-8,14.1-13.9,21
		c-2.1,2.5-5.1,5.4-8.2,7.9v65.2H540.5z"/>
</g>
<linearGradient id="SVGID_60_" gradientUnits="userSpaceOnUse" x1="528.5936" y1="691.8387" x2="528.5936" y2="187.8268" gradientTransform="matrix(6.123234e-17 -1 -1 -6.123234e-17 639.0947 1249.307)">
	<stop  offset="0" style="stop-color:#FFFFFF"/>
	<stop  offset="1" style="stop-color:#D9D9D9;stop-opacity:0"/>
</linearGradient>
<path class="st60" d="M-52.7,720.7L-52.7,720.7c0-2.9,2.4-5.3,5.3-5.3h493.3c2.9,0,5.3,2.4,5.3,5.3l0,0c0,2.9-2.4,5.3-5.3,5.3H-47.4
	C-50.4,726.1-52.7,723.7-52.7,720.7z"/>
<linearGradient id="SVGID_61_" gradientUnits="userSpaceOnUse" x1="1229.4175" y1="276.8198" x2="1229.4175" y2="-227.1921" gradientTransform="matrix(6.123234e-17 -1 -1 -6.123234e-17 924.8998 2365.1499)">
	<stop  offset="0" style="stop-color:#FFFFFF"/>
	<stop  offset="1" style="stop-color:#D9D9D9;stop-opacity:0"/>
</linearGradient>
<path class="st61" d="M648.1,1135.7L648.1,1135.7c0-2.9,2.4-5.3,5.3-5.3h493.3c2.9,0,5.3,2.4,5.3,5.3l0,0c0,2.9-2.4,5.3-5.3,5.3
	H653.4C650.5,1141.1,648.1,1138.7,648.1,1135.7z"/>
<linearGradient id="SVGID_62_" gradientUnits="userSpaceOnUse" x1="775.2635" y1="950.7767" x2="775.2635" y2="446.7648" gradientTransform="matrix(6.123234e-17 -1 -1 -6.123234e-17 1144.7028 1237.0391)">
	<stop  offset="0" style="stop-color:#FFFFFF"/>
	<stop  offset="1" style="stop-color:#D9D9D9;stop-opacity:0"/>
</linearGradient>
<path class="st62" d="M193.9,461.8L193.9,461.8c0-2.9,2.4-5.3,5.3-5.3h493.3c2.9,0,5.3,2.4,5.3,5.3l0,0c0,2.9-2.4,5.3-5.3,5.3H199.3
	C196.3,467.1,193.9,464.7,193.9,461.8z"/>
<linearGradient id="SVGID_63_" gradientUnits="userSpaceOnUse" x1="903.5605" y1="422.0248" x2="903.5605" y2="-81.9872" gradientTransform="matrix(6.123234e-17 -1 -1 -6.123234e-17 744.2478 1894.088)">
	<stop  offset="0" style="stop-color:#FFFFFF"/>
	<stop  offset="1" style="stop-color:#D9D9D9;stop-opacity:0"/>
</linearGradient>
<path class="st63" d="M322.2,990.5L322.2,990.5c0-2.9,2.4-5.3,5.3-5.3h493.3c2.9,0,5.3,2.4,5.3,5.3l0,0c0,2.9-2.4,5.3-5.3,5.3H327.6
	C324.6,995.9,322.2,993.5,322.2,990.5z"/>
<linearGradient id="SVGID_64_" gradientUnits="userSpaceOnUse" x1="1006.2566" y1="1294.8857" x2="1006.2566" y2="790.8738" gradientTransform="matrix(6.123234e-17 -1 -1 -6.123234e-17 1719.8048 1123.9231)">
	<stop  offset="0" style="stop-color:#FFFFFF"/>
	<stop  offset="1" style="stop-color:#D9D9D9;stop-opacity:0"/>
</linearGradient>
<path class="st64" d="M424.9,117.7L424.9,117.7c0-2.9,2.4-5.3,5.3-5.3h493.3c2.9,0,5.3,2.4,5.3,5.3v0c0,2.9-2.4,5.3-5.3,5.3H430.3
	C427.3,123,424.9,120.6,424.9,117.7z"/>
<linearGradient id="SVGID_65_" gradientUnits="userSpaceOnUse" x1="1165.4581" y1="1102.4597" x2="1165.4581" y2="415.2818" gradientTransform="matrix(6.123234e-17 -1 -1 -6.123234e-17 1686.6698 1475.64)">
	<stop  offset="0" style="stop-color:#FFFFFF"/>
	<stop  offset="1" style="stop-color:#D9D9D9;stop-opacity:0"/>
</linearGradient>
<path class="st65" d="M584.2,310.2L584.2,310.2c0-2.9,2.3-5.2,5.2-5.2h676.7c2.9,0,5.2,2.3,5.2,5.2v0c0,2.9-2.3,5.2-5.2,5.2H589.5
	C586.6,315.4,584.2,313.1,584.2,310.2z"/>
<linearGradient id="SVGID_66_" gradientUnits="userSpaceOnUse" x1="435.187" y1="827.3078" x2="435.187" y2="147.0548" gradientTransform="matrix(6.123234e-17 -1 -1 -6.123234e-17 681.2466 1020.5208)">
	<stop  offset="0" style="stop-color:#FFFFFF"/>
	<stop  offset="1" style="stop-color:#D9D9D9;stop-opacity:0"/>
</linearGradient>
<path class="st66" d="M-146.1,585.3L-146.1,585.3c0-2.9,2.3-5.2,5.2-5.2h669.8c2.9,0,5.2,2.3,5.2,5.2l0,0c0,2.9-2.3,5.2-5.2,5.2
	h-669.8C-143.7,590.6-146.1,588.2-146.1,585.3z"/>
<linearGradient id="SVGID_67_" gradientUnits="userSpaceOnUse" x1="904.5922" y1="581.3948" x2="904.5922" y2="-285.0812" gradientTransform="matrix(6.123234e-17 -1 -1 -6.123234e-17 904.7388 1735.839)">
	<stop  offset="0" style="stop-color:#FFFFFF"/>
	<stop  offset="1" style="stop-color:#D9D9D9;stop-opacity:0"/>
</linearGradient>
<path class="st67" d="M323.3,831.2L323.3,831.2c0-2.9,2.3-5.2,5.2-5.2h856c2.9,0,5.2,2.3,5.2,5.2v0c0,2.9-2.3,5.2-5.2,5.2h-856
	C325.7,836.5,323.3,834.1,323.3,831.2z"/>
<linearGradient id="SVGID_68_" gradientUnits="userSpaceOnUse" x1="1184.6971" y1="808.5648" x2="1184.6971" y2="157.5538" gradientTransform="matrix(6.123234e-17 -1 -1 -6.123234e-17 1412.0138 1788.774)">
	<stop  offset="0" style="stop-color:#FFFFFF"/>
	<stop  offset="1" style="stop-color:#D9D9D9;stop-opacity:0"/>
</linearGradient>
<path class="st68" d="M603.4,604.1L603.4,604.1c0-2.9,2.3-5.2,5.2-5.2h640.5c2.9,0,5.2,2.3,5.2,5.2v0c0,2.9-2.3,5.2-5.2,5.2H608.7
	C605.8,609.3,603.4,607,603.4,604.1z"/>
<linearGradient id="SVGID_69_" gradientUnits="userSpaceOnUse" x1="1532.5765" y1="384.4797" x2="1532.5765" y2="121.9177" gradientTransform="matrix(6.123234e-17 -1 -1 -6.123234e-17 1335.7188 2560.6489)">
	<stop  offset="0" style="stop-color:#FFFFFF"/>
	<stop  offset="1" style="stop-color:#D9D9D9;stop-opacity:0"/>
</linearGradient>
<path class="st69" d="M951.2,1028.1L951.2,1028.1c0-2.9,2.4-5.3,5.3-5.3h251.9c2.9,0,5.3,2.4,5.3,5.3l0,0c0,2.9-2.4,5.3-5.3,5.3
	H956.6C953.6,1033.4,951.2,1031,951.2,1028.1z"/>
<linearGradient id="SVGID_70_" gradientUnits="userSpaceOnUse" x1="709.4476" y1="1365.2147" x2="709.4476" y2="1102.6526" gradientTransform="matrix(6.123234e-17 -1 -1 -6.123234e-17 1493.3247 756.7851)">
	<stop  offset="0" style="stop-color:#FFFFFF"/>
	<stop  offset="1" style="stop-color:#D9D9D9;stop-opacity:0"/>
</linearGradient>
<path class="st70" d="M128.1,47.3L128.1,47.3c0-2.9,2.4-5.3,5.3-5.3h251.9c2.9,0,5.3,2.4,5.3,5.3l0,0c0,2.9-2.4,5.3-5.3,5.3H133.4
	C130.5,52.7,128.1,50.3,128.1,47.3z"/>
<linearGradient id="SVGID_71_" gradientUnits="userSpaceOnUse" x1="609.8671" y1="474.1828" x2="609.8671" y2="-296.8732" gradientTransform="matrix(6.123234e-17 -1 -1 -6.123234e-17 502.8018 1548.326)">
	<stop  offset="0" style="stop-color:#FFFFFF"/>
	<stop  offset="1" style="stop-color:#D9D9D9;stop-opacity:0"/>
</linearGradient>
<path class="st71" d="M28.6,938.5L28.6,938.5c0-2.9,2.3-5.2,5.2-5.2h760.6c2.9,0,5.2,2.3,5.2,5.2l0,0c0,2.9-2.3,5.2-5.2,5.2H33.9
	C31,943.7,28.6,941.4,28.6,938.5z"/>
<linearGradient id="SVGID_72_" gradientUnits="userSpaceOnUse" x1="485.5804" y1="1013.9918" x2="485.5804" y2="333.7388" gradientTransform="matrix(6.123234e-17 -1 -1 -6.123234e-17 917.9492 883.8554)">
	<stop  offset="0" style="stop-color:#FFFFFF"/>
	<stop  offset="1" style="stop-color:#D9D9D9;stop-opacity:0"/>
</linearGradient>
<path class="st72" d="M-96,398.3L-96,398.3c0-3.1,2.5-5.6,5.6-5.6h669c3.1,0,5.6,2.5,5.6,5.6l0,0c0,3.1-2.5,5.6-5.6,5.6h-669
	C-93.5,403.9-96,401.4-96,398.3z"/>
<linearGradient id="SVGID_73_" gradientUnits="userSpaceOnUse" x1="1267.0342" y1="662.3668" x2="1267.0342" y2="158.3337" gradientTransform="matrix(6.123234e-17 -1 -1 -6.123234e-17 1348.1527 2017.309)">
	<stop  offset="0" style="stop-color:#FFFFFF"/>
	<stop  offset="1" style="stop-color:#D9D9D9;stop-opacity:0"/>
</linearGradient>
<path class="st73" d="M685.8,750.3L685.8,750.3c0-2.9,2.3-5.2,5.2-5.2h493.5c2.9,0,5.2,2.3,5.2,5.2v0c0,2.9-2.3,5.2-5.2,5.2H691
	C688.1,755.5,685.8,753.2,685.8,750.3z"/>
<linearGradient id="SVGID_74_" gradientUnits="userSpaceOnUse" x1="650.6522" y1="292.7498" x2="650.6522" y2="-172.0382" gradientTransform="matrix(6.123234e-17 -1 -1 -6.123234e-17 362.1538 1770.5441)">
	<stop  offset="0" style="stop-color:#FFFFFF"/>
	<stop  offset="1" style="stop-color:#D9D9D9;stop-opacity:0"/>
</linearGradient>
<path class="st74" d="M69.4,1119.9L69.4,1119.9c0-2.9,2.3-5.2,5.2-5.2h454.3c2.9,0,5.2,2.3,5.2,5.2l0,0c0,2.9-2.3,5.2-5.2,5.2H74.7
	C71.8,1125.1,69.4,1122.8,69.4,1119.9z"/>
<linearGradient id="SVGID_75_" gradientUnits="userSpaceOnUse" x1="650.6522" y1="1112.9568" x2="650.6522" y2="708.9608" gradientTransform="matrix(6.123234e-17 -1 -1 -6.123234e-17 1182.3607 950.337)">
	<stop  offset="0" style="stop-color:#FFFFFF"/>
	<stop  offset="1" style="stop-color:#D9D9D9;stop-opacity:0"/>
</linearGradient>
<path class="st75" d="M69.4,299.7L69.4,299.7c0-2.9,2.3-5.2,5.2-5.2h393.5c2.9,0,5.2,2.3,5.2,5.2l0,0c0,2.9-2.3,5.2-5.2,5.2H74.7
	C71.8,304.9,69.4,302.6,69.4,299.7z"/>
<linearGradient id="SVGID_76_" gradientUnits="userSpaceOnUse" x1="1380.8156" y1="955.5048" x2="1380.8156" y2="692.9427" gradientTransform="matrix(6.123234e-17 -1 -1 -6.123234e-17 1754.9828 1837.863)">
	<stop  offset="0" style="stop-color:#FFFFFF"/>
	<stop  offset="1" style="stop-color:#D9D9D9;stop-opacity:0"/>
</linearGradient>
<path class="st76" d="M799.5,457L799.5,457c0-2.9,2.4-5.3,5.3-5.3h251.9c2.9,0,5.3,2.4,5.3,5.3v0c0,2.9-2.4,5.3-5.3,5.3H804.8
	C801.9,462.4,799.5,460,799.5,457z"/>
<linearGradient id="SVGID_77_" gradientUnits="userSpaceOnUse" x1="403.6371" y1="1213.4208" x2="403.6371" y2="237.6737" gradientTransform="matrix(6.123234e-17 -1 -1 -6.123234e-17 1035.8098 602.858)">
	<stop  offset="0" style="stop-color:#FFFFFF"/>
	<stop  offset="1" style="stop-color:#D9D9D9;stop-opacity:0"/>
</linearGradient>
<path class="st77" d="M-177.6,199.2L-177.6,199.2c0-2.9,2.3-5.2,5.2-5.2h965.3c2.9,0,5.2,2.3,5.2,5.2l0,0c0,2.9-2.3,5.2-5.2,5.2
	h-965.3C-175.3,204.5-177.6,202.1-177.6,199.2z"/>
</svg>
