<svg width="1449" height="1142" viewBox="0 0 1449 1142" fill="none" xmlns="http://www.w3.org/2000/svg">
<mask id="mask0_0_1" style="mask-type:alpha" maskUnits="userSpaceOnUse" x="175" y="0" width="1063" height="1063">
<rect x="175" width="1062.7" height="1062.7" fill="url(#paint0_linear_0_1)"/>
</mask>
<g mask="url(#mask0_0_1)">
<rect x="164.613" width="1062.7" height="1062.7" fill="url(#paint1_linear_0_1)"/>
<rect x="159.334" y="409.937" width="1121.45" height="3.91659" fill="url(#paint2_linear_0_1)"/>
<rect width="1121.45" height="5.22212" transform="matrix(-1 0 0 1 1249.45 143.608)" fill="url(#paint3_linear_0_1)"/>
<rect width="1121.45" height="3.91659" transform="matrix(-1 0 0 1 1280.79 133.164)" fill="url(#paint4_linear_0_1)"/>
<rect x="36.6133" y="744.153" width="1044.42" height="3.91659" fill="url(#paint5_linear_0_1)"/>
<rect x="1523.61" y="565.295" width="1044.42" height="3.91668" transform="rotate(180 1523.61 565.295)" fill="url(#paint6_linear_0_1)"/>
<rect x="1334.31" y="835.54" width="1174.98" height="3.9167" transform="rotate(180 1334.31 835.54)" fill="url(#paint7_linear_0_1)"/>
<rect x="1370.87" y="592.711" width="1044.42" height="3.91668" transform="rotate(180 1370.87 592.711)" fill="url(#paint8_linear_0_1)"/>
<path d="M1195.44 717.026C1192.49 708.847 1201.19 707.047 1208.24 700.013C1215.13 692.979 1220.38 691.834 1208.24 687.58C1196.1 683.327 1196.1 679.074 1200.69 675.148C1205.29 671.222 1188.55 676.62 1188.55 676.62C1188.55 676.62 1195.44 667.786 1181.01 660.588C1166.41 653.554 1150.82 644.23 1147.38 655.19C1143.93 666.15 1140.98 670.731 1135.24 667.95C1129.49 665.169 1119.49 664.024 1117.19 669.095C1114.89 674.003 1124.08 677.601 1114.24 679.728C1104.39 681.855 1103.24 675.475 1095.04 676.947C1086.84 678.419 1086.84 682.673 1084.54 684.472C1082.25 686.272 1072.4 684.472 1066 687.744C1059.61 691.016 1056.16 689.871 1053.21 685.944C1050.25 682.018 1043.36 679.892 1037.46 679.892C1031.72 679.892 1024.17 673.185 1021.22 671.712C1018.26 670.24 1007.27 667.786 1004.97 674.493C1002.68 681.2 995.623 685.454 992.178 683.327C988.733 681.2 974.788 678.419 967.734 672.694C960.844 666.968 949.688 674.166 945.586 669.913C941.485 665.66 928.689 658.298 921.142 657.48C913.595 656.826 893.909 660.588 892.104 669.913C890.299 679.074 898.994 688.725 882.753 687.253C866.511 685.781 810.076 688.235 805.482 696.414C800.889 704.593 810.076 719.807 820.083 723.079C828.286 725.696 845.184 725.205 845.348 732.403L1177.07 732.403C1177.23 732.403 1177.4 732.403 1177.56 732.24C1189.7 729.459 1198.4 725.205 1195.44 717.026Z" fill="url(#paint9_linear_0_1)"/>
<path d="M492.135 874.714C495.259 872.268 489.998 869.823 492.628 867.703C498.383 862.976 510.714 859.063 510.879 856.454C511.372 848.303 518.771 837.706 514.332 835.587C512.523 834.609 511.043 829.881 504.795 831.348C500.192 832.489 490.984 839.825 486.709 840.315C482.763 840.804 479.475 835.261 477.831 836.565C471.912 840.804 453.825 849.118 448.893 846.021C443.96 842.923 439.85 834.935 429.656 840.152C419.462 845.368 405.651 843.575 397.594 837.543C392.497 833.793 392.168 835.75 382.632 842.434C381.152 843.575 377.864 838.521 374.575 839.825C371.616 840.967 368.821 848.466 367.177 849.77C364.053 852.379 361.258 856.291 357.147 854.498C357.147 854.498 355.996 850.096 358.298 840.967C360.6 832 366.19 822.381 363.724 819.284C361.422 816.349 357.969 823.197 350.57 826.131C347.117 827.435 339.554 823.034 336.759 825.153C332.484 828.413 329.525 837.054 329.525 837.054C329.525 837.054 325.579 829.392 317.851 829.718C311.767 829.881 302.889 837.217 295.983 839.662C286.776 842.923 276.582 855.639 275.266 856.291C273.786 857.107 276.746 864.117 270.827 874.877C269.512 877.322 267.867 879.931 266.388 882.539L478.817 882.539C479.146 881.724 479.639 880.909 480.297 880.257C481.777 878.137 489.998 876.344 492.135 874.714Z" fill="url(#paint10_linear_0_1)"/>
<path d="M896.479 811.378C890.966 813.857 887.958 814.518 887.123 811.378C886.288 808.237 883.949 805.428 881.61 805.428C879.271 805.428 879.271 802.287 878.602 800.469C877.934 798.651 873.924 798.321 872.421 798.651C870.917 798.982 866.239 794.519 865.738 793.032C865.07 791.709 867.576 789.561 868.411 787.082C869.246 784.602 875.094 777.661 879.605 779.809C883.949 781.958 886.622 793.362 889.796 790.222C892.971 787.082 891.801 782.123 892.971 782.619C894.14 782.95 897.983 785.429 898.317 786.42C898.651 787.412 904.498 788.9 905.334 786.09C906.169 783.28 910.847 783.611 913.019 787.082C915.024 790.552 910.346 799.973 913.019 800.634C915.692 801.296 918.7 805.593 921.039 809.725C923.378 813.857 920.036 825.096 911.348 825.096C910.513 825.096 904.833 818.485 899.988 818.485C895.142 818.485 891.968 825.096 891.801 822.286C891.133 819.642 896.479 811.378 896.479 811.378Z" fill="url(#paint11_linear_0_1)"/>
<path d="M769.257 859.511C764.361 865.753 761.423 868.381 758.485 865.261C755.547 862.14 751.14 860.333 748.366 861.647C745.591 863.125 743.796 859.347 742 857.704C740.205 856.062 735.309 858.033 733.84 859.347C732.371 860.661 724.21 858.197 722.741 856.883C721.272 855.569 722.578 851.791 722.088 848.341C721.762 846.37 727.801 844.399 729.596 840.785C730.902 837.993 727.638 833.065 730.412 832.901C736.778 832.737 746.897 844.563 748.692 838.979C750.487 833.394 746.244 828.302 747.713 827.973C749.345 827.644 755.221 828.137 756.2 829.287C757.179 830.273 764.85 828.466 764.034 824.523C763.381 820.745 768.931 818.282 773.501 821.074C778.07 823.866 778.397 837.829 781.824 837.007C785.252 836.186 791.291 839.307 796.514 842.757C799.615 844.892 796.024 852.941 794.555 859.183C793.576 863.289 795.045 866.41 794.718 866.739C794.392 866.903 792.27 871.502 789.659 872.16C787.7 872.652 785.578 875.116 783.783 874.623C781.335 874.131 779.539 870.517 779.539 870.517C779.539 870.517 772.521 878.401 770.399 875.281C768.278 872.488 769.257 859.511 769.257 859.511Z" fill="url(#paint12_linear_0_1)"/>
<path d="M1327.3 1.76501L1353.93 14.1216C1357.43 15.7465 1359.67 19.2558 1359.67 23.116C1359.67 28.5922 1355.23 33.0316 1349.75 33.0316H1023.34C1017.68 33.0316 1013.09 28.4449 1013.09 22.787C1013.09 19.0809 1015.09 15.6637 1018.33 13.8512L1040.83 1.23074C1043.22 -0.109478 1045.92 -0.813316 1048.66 -0.813316H1071.69C1076.03 -0.813316 1080.19 0.949135 1083.2 4.06996L1090.77 11.9028C1093.78 15.0236 1097.94 16.786 1102.28 16.786H1127.66C1129.73 16.786 1131.78 16.3838 1133.7 15.6016L1173.96 -0.813316L1206.95 -12.9339C1211.7 -14.6775 1216.99 -14.0743 1221.23 -11.307L1257.93 12.6865C1261.9 15.2842 1266.82 15.9834 1271.36 14.595L1315.88 0.978165C1319.66 -0.175334 1323.72 0.104877 1327.3 1.76501Z" fill="url(#paint13_linear_0_1)"/>
<path d="M806.194 -36.2835C826.721 -20.6689 858.113 3.22565 871.529 13.4848C875.433 16.4702 877.684 21.0825 877.684 25.9972V33.8373C877.684 42.6739 870.52 49.8373 861.684 49.8373H273.066C264.229 49.8373 257.066 42.6739 257.066 33.8373V25.7181C257.066 20.9627 259.168 16.453 262.857 13.4517C281.179 -1.4569 310.57 -24.0258 316.235 -23.0385C324.124 -21.6635 379.348 18.212 388.552 18.212C397.757 18.212 496.372 -1.03823 512.15 -10.6633C527.929 -20.2885 604.191 -40.9137 612.08 -40.9137C619.969 -40.9137 671.249 -6.5383 683.083 -10.6633C691.923 -13.7448 755.717 -29.8544 792.676 -39.065C797.379 -40.2371 802.336 -39.2181 806.194 -36.2835Z" fill="url(#paint14_linear_0_1)"/>
<path d="M1440.6 -98.0532C1445.66 -96.1528 1450.32 -94.2523 1454.78 -92.3518V81.0126C1452.55 81.2238 1451.94 83.3354 1451.13 88.8256C1449.92 96.4275 1440.8 107.83 1428.25 108.464C1415.69 109.097 1407.79 117.544 1395.44 125.568C1382.88 133.592 1388.75 143.517 1358.78 151.541C1328.81 159.565 1340.55 146.051 1327.59 133.592C1314.63 120.922 1321.31 130.847 1318.88 134.648C1316.45 138.449 1308.55 135.493 1307.74 133.803C1306.93 132.114 1301.67 124.512 1294.17 132.325C1286.68 139.927 1286.68 136.548 1286.28 135.07C1285.87 133.592 1273.31 130.213 1267.64 137.182C1261.77 144.15 1256.91 138.66 1235.24 132.325C1213.57 125.99 1217.82 122.612 1217.82 130.847C1217.82 139.293 1209.92 137.182 1198.38 138.871C1186.84 140.56 1176.3 127.046 1175.09 134.014C1173.87 140.983 1156.46 134.014 1157.67 135.704C1158.89 137.393 1157.27 140.772 1152.2 145.628C1147.14 150.485 1145.12 148.373 1142.69 146.684C1140.25 144.995 1141.47 143.094 1133.17 138.238C1124.86 133.381 1118.18 136.548 1118.18 138.871C1118.18 141.405 1109.07 154.286 1101.17 157.031C1093.27 159.776 1092.46 169.701 1085.78 170.334C1079.09 170.968 1078.69 159.776 1076.26 156.609C1073.83 153.441 1069.98 154.92 1068.76 161.254C1067.55 167.589 1057.62 167.589 1050.54 167.589C1043.45 167.589 1040.21 171.813 1032.71 179.414C1025.22 187.016 1017.73 184.693 1000.31 179.414C982.893 174.135 977.019 174.135 963.248 174.769C949.476 175.402 950.286 172.657 944.21 170.968C937.932 169.279 938.742 172.024 931.248 170.968C923.755 169.912 929.628 156.609 925.78 159.776C922.135 162.944 909.578 165.478 900.87 165.689C892.161 166.111 882.237 162.521 872.111 161.466C862.187 160.41 859.554 157.876 852.669 151.963C845.58 146.051 843.15 139.082 836.061 132.747C828.973 126.413 813.176 116.91 811.556 120.078C809.936 123.245 802.442 124.723 797.379 122.823C792.316 121.134 783.202 121.767 775.709 122.823C768.215 123.879 765.785 122.189 762.747 119.655C759.912 117.121 759.507 117.121 753.633 116.066C747.76 115.01 743.305 116.066 743.71 111.209C744.115 106.352 743.71 102.551 735.811 104.452C727.913 106.563 728.318 106.986 725.482 99.8061C722.647 92.8377 719.609 96.6387 710.495 97.061C701.382 97.4833 700.977 97.6945 700.977 92.4154C700.977 87.1363 695.103 89.248 683.965 89.248C672.826 89.248 671.003 87.5587 670.193 84.3912C669.383 81.2238 651.155 84.8135 650.143 82.2796C649.333 79.7456 641.434 80.5903 633.536 81.6461C625.637 82.7019 633.131 85.4471 633.536 90.0926C633.941 94.7382 632.321 100.228 627.662 97.061C623.004 93.8935 624.827 89.248 616.929 90.3038C609.03 91.3596 600.727 91.7819 599.106 95.3717C597.486 98.9615 588.778 101.073 582.094 102.762C575.411 104.452 580.069 117.755 575.006 125.146C569.943 132.536 560.424 138.871 552.12 137.393C543.817 135.915 545.437 131.48 543.412 133.17C541.386 134.859 538.349 136.337 531.868 133.17C525.184 130.002 521.134 130.002 519.311 131.058C517.691 132.114 510.603 130.636 506.755 126.835C503.109 123.034 497.236 123.034 491.768 121.556C486.3 120.078 473.54 117.755 468.477 126.835C463.414 135.915 460.984 135.281 458.554 135.493C456.123 135.915 449.035 131.269 448.63 136.971C448.225 142.672 437.896 145.628 435.263 140.56C432.833 135.281 419.466 138.449 415.213 142.039C410.96 145.628 393.543 157.031 387.062 151.541C380.379 145.84 379.973 143.517 379.973 143.517C354.658 133.381 374.505 124.934 364.177 117.966C353.848 110.998 348.379 83.7578 345.139 81.6461C341.899 79.5345 337.241 81.6461 334.81 79.5345C332.38 77.4229 327.722 75.7336 328.127 71.5103C328.532 67.2871 319.823 65.1754 317.393 65.5978C314.963 66.0201 304.837 66.0201 303.216 61.7968C301.596 57.7847 294.508 61.3745 292.482 61.5857C290.457 62.008 283.369 61.5857 280.331 59.0517C277.495 56.5178 276.078 52.7169 273.242 52.0834C270.407 51.4499 268.584 50.3941 270.002 47.6489C271.217 45.115 268.787 45.115 266.762 41.1029C264.736 37.302 261.294 37.9355 252.585 37.9355C243.876 37.9355 244.686 45.115 232.535 41.7364C230.307 41.1029 225.446 37.0908 223.826 36.2462C222.206 35.4015 218.358 34.768 217.548 35.8238C216.738 36.8796 211.27 35.8238 211.27 35.8238C211.27 35.8238 208.839 34.1346 208.029 31.3894C207.219 28.6443 203.371 29.7001 203.371 29.7001C203.371 29.7001 199.726 29.7001 197.903 31.1783C196.283 32.6564 194.663 29.7001 192.435 27.1662C190.41 24.6322 183.321 23.7876 179.068 26.5327C159.018 40.0471 150.309 31.6006 142.613 28.0108V-98.0532H1440.6Z" fill="url(#paint15_linear_0_1)"/>
<path d="M329.398 -17.3286C327.989 -5.43533 331.411 8.15699 327.385 12.8293C323.36 17.5017 308.265 57.8538 304.44 53.3938C300.616 48.9339 285.119 11.3427 280.489 17.2893C275.86 23.4483 267.608 36.1911 260.564 31.5187C253.721 26.634 242.248 33.6425 234.399 44.8986C226.549 56.1548 226.147 75.0565 213.668 53.3938C213.668 53.3938 208.435 71.4461 203.001 82.4898C197.566 93.5336 179.653 66.349 179.653 66.349C179.653 66.349 153.689 82.9146 147.45 56.5795V-38.7789C158.117 -47.4865 168.986 -53.4331 175.628 -51.5217C184.484 -48.9731 186.295 -98.0328 197.969 -108.439C209.844 -118.846 224.134 -110.776 222.121 -97.1833C220.109 -83.8034 239.632 -77.6444 242.248 -81.2548C244.865 -85.0777 260.161 -87.4138 264.187 -86.5643C268.212 -85.7148 256.74 -67.6626 260.966 -47.9112C265.193 -28.1599 291.962 -70.8482 308.466 -70.6359C325.171 -70.4235 330.807 -29.2219 329.398 -17.3286Z" fill="url(#paint16_linear_0_1)"/>
<path d="M603.986 41.4712C613.481 53.8777 619.34 59.1347 624.997 52.8263C630.653 46.5179 639.138 42.9431 644.391 45.6768C649.644 48.6207 653.28 41.2609 656.715 37.6861C660.149 34.3216 669.645 38.5273 672.473 41.0506C675.301 43.574 691.059 38.7375 694.09 36.2142C697.12 33.6908 694.292 25.9104 695.1 19.1814C695.706 15.3964 683.988 11.401 680.554 4.04123C677.928 -1.63634 684.19 -11.3092 678.938 -11.5195C666.614 -11.9401 647.219 11.8216 643.785 0.466467C640.351 -10.8887 648.634 -20.7719 645.603 -21.4027C642.573 -22.0336 631.259 -20.9821 629.239 -18.8793C627.421 -16.7765 612.673 -20.5616 613.885 -28.342C615.299 -35.9121 604.39 -40.7485 595.703 -35.0709C587.015 -29.3934 586.409 -1.63633 579.742 -3.1083C573.075 -4.58026 561.358 1.51788 551.257 8.45713C545.196 12.6627 552.065 28.8543 555.095 41.2609C556.913 49.2515 554.085 55.7702 554.893 56.1908C555.701 56.6114 559.742 65.6534 564.792 66.9151C568.631 67.9665 572.671 72.803 576.308 71.9619C580.955 70.9104 584.389 63.9712 584.389 63.9712C584.389 63.9712 598.127 79.7422 601.965 73.6441C606.006 67.546 603.986 41.4712 603.986 41.4712Z" fill="url(#paint17_linear_0_1)"/>
<path d="M1201.35 111.795C1204.18 107.858 1210.86 112.417 1214.91 108.065C1218.96 103.713 1225.03 101.02 1228.87 103.092C1232.51 105.164 1235.35 99.9835 1237.57 97.4969C1240 95.2175 1246.88 98.1185 1248.91 99.9835C1250.93 101.848 1262.26 98.3257 1264.28 96.4608C1266.31 94.5958 1280.07 84.4421 1280.68 79.676C1281.08 76.9822 1257.2 79.0544 1254.57 73.8739C1252.75 69.9367 1257.2 63.0985 1253.36 62.8913C1244.66 62.6841 1230.69 79.2616 1228.26 71.3873C1225.84 63.513 1231.7 56.4675 1229.68 56.053C1227.45 55.6386 1219.36 56.4675 1217.94 57.918C1216.53 59.3686 1206 56.6747 1207.02 51.287C1208.03 45.8993 1200.14 42.5838 1194.06 46.521C1187.79 50.4581 1187.39 70.144 1182.53 68.9007C1177.67 67.8646 1169.38 72.2161 1162.29 76.9822C1157.84 79.8833 1104.62 81.3338 1106.64 90.037C1107.05 92.1092 1112.71 105.371 1120.61 108.272C1125.87 110.344 1132.34 97.7041 1138.62 97.4969C1148.73 97.4969 1158.85 109.101 1164.72 110.344C1165.33 110.552 1168.16 116.975 1171.8 118.012C1174.43 118.633 1177.47 122.156 1180.1 121.534C1183.34 120.705 1185.97 115.939 1185.97 115.939C1185.97 115.939 1195.68 127.129 1198.52 122.778C1201.55 118.426 1201.35 111.795 1201.35 111.795Z" fill="url(#paint18_linear_0_1)"/>
<path d="M1346.85 20.2427C1346.85 20.2427 1356.38 30.3443 1341.37 41.919C1326.36 53.4937 1310.34 68.0147 1304.46 54.5459C1298.58 41.0772 1294.32 35.8159 1288.44 40.4458C1282.35 45.0757 1271.6 48.2325 1267.95 42.1294C1264.51 36.2369 1274.24 30.1338 1262.68 29.0815C1251.12 28.0293 1251.12 36.4473 1241.59 36.0264C1232.26 35.6055 1231.45 30.1338 1228.41 28.4502C1225.57 26.5562 1214.61 30.5547 1206.91 27.6084C1199.2 24.6621 1195.35 26.5562 1192.91 32.0279C1190.28 37.4995 1182.98 41.4981 1176.28 42.3399C1169.79 43.3921 1162.49 53.2833 1159.45 55.5982C1156.41 57.9131 1144.44 62.9639 1140.59 54.7564C1136.73 46.5489 1128.22 42.3399 1124.57 45.7071C1121.12 49.0743 1105.91 54.9669 1099.01 63.5953C1092.12 72.0133 1078.53 64.858 1074.67 70.961C1070.82 77.0641 1057.84 88.8492 1049.53 90.9537C1041.21 93.2687 1018.29 91.5851 1014.64 80.2208C1010.99 68.8565 1019.1 55.1773 1001.05 59.8072C983.005 64.4371 919.322 71.1715 912.427 61.4908C905.734 52.0206 913.441 30.9756 923.987 25.083C934.533 19.4009 959.479 17.2964 947.513 2.56492C935.344 -12.1666 928.246 -25.4249 931.896 -36.5787C935.547 -47.7325 944.065 -54.046 969.011 -56.9923C993.956 -59.9386 1039.18 -52.152 1058.45 -47.7325C1077.72 -43.3131 1078.53 -56.7819 1081.37 -64.1476C1084.41 -71.5133 1116.25 -76.985 1144.44 -80.7731C1172.63 -84.7717 1185.21 -62.2536 1205.49 -59.7282C1225.77 -57.4132 1280.32 -78.2477 1285.8 -76.7746C1291.28 -75.3014 1303.45 -65.1998 1303.45 -56.9923C1303.24 -48.5743 1309.73 -50.0475 1323.93 -48.5743C1338.13 -47.1012 1348.67 -43.1026 1347.05 -32.3697C1345.22 -21.4263 1355.36 -20.795 1364.49 -13.0084C1373.62 -5.22174 1379.7 -4.80084 1366.72 2.77535C1353.74 10.3515 1354.55 15.8232 1360.44 19.8218C1366.93 24.0308 1346.85 20.2427 1346.85 20.2427Z" fill="url(#paint19_linear_0_1)"/>
<path d="M634.61 6.46939C634.61 6.46939 629.974 12.9483 643.077 8.55937C656.18 4.17041 648.52 8.97737 654.567 11.2764C660.413 13.5753 670.896 10.2314 672.508 6.46939C674.121 2.70742 680.975 4.37942 686.216 9.81337C691.457 15.2473 694.683 4.37941 704.359 0.826438C714.035 -2.72653 719.679 -10.4595 733.79 -8.7875C747.901 -7.11551 753.948 -5.65251 759.19 -11.0865C764.431 -16.5204 756.972 -26.5524 770.478 -29.2693C783.984 -31.7773 787.21 -31.9863 789.226 -40.5552C791.242 -49.3332 816.44 -50.7962 783.38 -61.2461C750.32 -71.696 757.174 -80.8919 732.177 -73.577C707.181 -66.2621 703.552 -67.934 689.845 -71.278C676.137 -74.622 668.073 -78.175 664.646 -70.651C661.421 -63.1271 644.488 -62.9181 631.385 -66.053C618.484 -69.188 611.025 -72.532 607.195 -66.053C603.365 -59.5741 602.962 -40.3462 587.843 -33.2403C572.522 -26.1344 564.66 -12.1315 569.7 -5.8615C574.74 0.408447 590.262 17.5463 594.495 12.5303C598.728 7.72336 606.792 -2.93553 609.211 11.9034C611.63 26.7422 631.587 9.81336 634.61 6.46939Z" fill="url(#paint20_linear_0_1)"/>
<path d="M648.228 -6.88563C646.609 4.77966 651.466 17.9031 646.407 22.2776C641.348 26.6521 614.03 34.9844 609.174 30.61C604.317 26.2355 587.724 19.153 582.058 24.7773C576.19 30.61 569.917 43.1085 560.811 38.3174C551.705 33.5263 537.136 39.7756 527.423 50.3993C517.71 61.0231 507.794 52.2741 491.404 31.0266C491.404 31.0266 494.641 75.3964 487.964 86.0201C481.084 96.6439 457.611 69.5637 457.611 69.5637C457.611 69.5637 451.54 81.4373 443.648 83.3121C437.578 84.7703 430.293 76.4379 423.817 74.7714C415.319 72.48 408.236 57.0652 406.82 56.4402C405.403 55.8153 410.26 44.775 407.224 31.0266C404.391 18.7363 398.928 3.94643 397.309 -7.30225H648.228C648.228 -7.30225 648.228 -7.09394 648.228 -6.88563Z" fill="url(#paint21_linear_0_1)"/>
<path d="M1453.17 32.9584C1450.33 35.5028 1446.89 37.6232 1442.84 38.2593C1438.99 38.8954 1434.54 33.5945 1429.88 32.9584C1424.82 32.3223 1417.73 41.2277 1411.66 43.136C1407.61 44.4083 1403.96 37.8352 1401.74 39.5315C1396.27 43.7722 1399.71 48.6489 1396.47 50.5573C1389.79 54.1618 1385.34 47.1647 1375.82 37.1991C1371.57 32.7464 1366.3 41.8638 1361.24 38.8954C1360.03 38.2592 1357.8 29.1418 1355.57 27.8696C1352.94 26.3853 1350.11 32.7464 1348.89 31.0501C1345.45 26.1733 1347.47 21.2965 1345.25 22.7807C1340.79 25.7492 1342.41 18.328 1337.55 13.4512C1334.92 10.9068 1327.02 13.0271 1323.58 9.42256C1317.31 2.84949 1314.07 -6.26799 1306.37 -10.0846C1301.72 -12.417 1295.64 -9.23648 1286.13 -12.205C1261.02 -19.8382 1271.55 -23.8669 1248.87 -51.2193C1225.99 -78.5718 1248.26 -65.8497 1254.54 -72.2108C1260.61 -78.5718 1263.45 -76.8755 1276.2 -71.5746C1288.96 -66.2738 1287.95 -79.2079 1295.24 -80.9042C1302.53 -82.6004 1306.98 -77.9357 1318.12 -68.6062C1329.25 -59.2767 1338.16 -62.6692 1348.28 -60.3368C1358.41 -58.0044 1366.71 -65.6377 1368.33 -58.0044C1369.95 -50.3712 1375.01 -45.0703 1378.45 -47.4027C1381.9 -49.7351 1392.42 -46.7666 1396.27 -41.4657C1400.12 -36.1649 1391.21 -36.1649 1404.57 -32.7723C1417.94 -29.1677 1410.65 -26.4113 1410.65 -26.4113C1415.1 -27.6835 1440.82 -31.076 1435.15 -17.0818C1429.48 -3.08748 1441.83 -7.75223 1447.9 -9.44851C1449.93 -10.0846 1451.55 -7.96427 1453.17 -4.78375V32.9584V32.9584Z" fill="url(#paint22_linear_0_1)"/>
<path d="M528.799 -33.7827C532.239 -37.6036 526.168 -87.7009 521.109 -91.5219C494.396 -113.174 524.347 -127.397 528.799 -135.888C533.049 -144.379 531.835 -137.374 532.644 -131.43C533.454 -125.486 534.87 -123.788 536.084 -133.34C537.299 -142.893 537.906 -145.44 540.132 -143.53C542.358 -141.619 542.56 -142.893 542.965 -150.959C543.37 -159.026 547.012 -170.701 551.869 -171.55C556.726 -172.187 559.762 -181.103 564.618 -189.594C569.475 -198.085 569.273 -210.184 580.808 -218.463C592.343 -226.954 585.867 -211.034 590.724 -197.872C595.783 -184.711 596.997 -195.325 598.009 -199.358C599.021 -203.392 606.306 -200.632 606.913 -199.358C608.735 -195.75 611.973 -194.264 614.199 -201.481C616.425 -208.911 618.448 -202.967 626.746 -196.387C635.043 -189.806 633.424 -186.197 633.424 -194.901C633.424 -203.604 657.303 -198.297 656.696 -199.995C656.291 -201.906 654.47 -203.392 656.494 -208.699C658.518 -213.793 661.351 -210.184 662.363 -208.274C663.374 -206.364 662.97 -207.637 666.208 -202.543C669.445 -197.448 672.076 -200.632 672.076 -203.179C672.076 -205.727 669.243 -220.161 672.279 -222.921C675.314 -225.893 679.564 -228.228 682.195 -229.077C684.825 -229.714 690.897 -219.949 691.301 -226.742C691.706 -233.323 695.551 -233.323 698.384 -233.323C701.217 -233.323 702.432 -237.78 705.265 -245.847C708.098 -253.913 711.133 -251.366 717.812 -245.847C724.49 -240.328 726.918 -240.328 732.18 -241.177C737.441 -241.814 737.239 -239.054 739.667 -237.144C742.096 -235.233 741.691 -238.205 744.727 -237.144C747.56 -236.082 745.334 -222.072 746.75 -225.468C748.167 -228.865 753.024 -231.412 756.464 -231.624C759.904 -232.049 763.749 -228.228 767.594 -227.167C771.439 -226.105 772.451 -223.558 775.082 -217.19C777.915 -211.034 781.355 -204.665 784.189 -198.085C787.022 -191.504 793.093 -188.957 793.7 -192.353C794.307 -195.75 801.997 -185.773 804.83 -186.834C807.663 -187.895 811.104 -180.89 813.33 -179.829C815.556 -178.768 817.377 -179.829 817.175 -174.734C816.972 -169.64 824.865 -165.819 825.472 -162.422C826.888 -155.205 824.46 -158.389 828.103 -158.814C831.745 -159.238 836.197 -152.021 840.447 -152.021C844.697 -152.021 845.506 -150.11 845.709 -146.926C846.113 -143.53 853.196 -147.351 853.399 -144.803C853.803 -142.256 856.839 -142.893 859.875 -144.166C862.91 -145.228 862.708 -143.742 862.505 -148.412C862.303 -153.082 867.565 -148.837 869.184 -145.652C871.005 -142.256 867.362 -139.921 870.398 -140.982C873.433 -142.044 874.243 -140.133 875.052 -143.742C875.659 -147.351 877.076 -143.317 879.707 -145.228C882.337 -147.138 875.457 -149.261 877.278 -157.115C879.302 -164.757 882.945 -171.338 886.182 -169.852C889.42 -168.366 888.813 -163.696 889.623 -165.394C890.432 -167.305 898.325 -161.998 898.932 -163.271C899.539 -164.333 902.372 -162.847 903.789 -158.814C905.205 -154.78 912.895 -143.317 914.919 -141.831C916.943 -140.345 917.954 -142.681 919.978 -152.233C922.002 -161.785 925.24 -162.422 926.251 -162.847C927.263 -163.271 935.965 -167.092 936.977 -161.573C937.989 -156.054 943.048 -159.45 944.667 -163.059C946.286 -166.668 948.917 -164.545 951.345 -158.601C953.976 -152.658 954.178 -150.11 954.178 -150.11C964.095 -139.496 962.071 -151.808 966.118 -144.591C970.166 -137.161 978.463 -143.317 979.879 -141.195C981.093 -139.072 986.76 -139.921 987.772 -137.798C988.783 -135.675 998.902 -130.368 998.7 -125.911C998.497 -121.453 977.653 -112.537 978.665 -112.962C979.677 -113.386 983.522 -113.386 984.129 -109.141C984.736 -104.895 987.569 -108.716 988.379 -108.929C989.188 -109.353 992.021 -108.929 993.033 -106.381C994.247 -103.834 994.652 -99.8007 995.866 -98.9516C997.081 -98.3147 997.688 -97.0411 997.081 -94.2815C996.676 -91.5219 997.485 -91.5219 998.295 -87.4886C999.104 -83.4554 1000.32 -84.0922 1003.76 -84.0922C1007.2 -84.0922 1011.25 -90.0359 1011.45 -88.1254C1011.85 -86.215 1014.28 -83.4554 1014.89 -82.394C1015.5 -81.3326 1016.91 -80.908 1017.32 -81.9694C1017.72 -83.0308 1020.76 -80.0589 1020.96 -77.2993C1021.36 -74.3275 1022.78 -75.3889 1022.78 -75.3889C1022.78 -75.3889 1026.22 -75.3889 1027.03 -72.6293C1027.84 -69.8697 1030.27 -70.9311 1032.09 -71.9924C1034.11 -73.0538 1034.72 -72.417 1038.36 -71.9924C1042.01 -71.5679 1044.84 -66.0487 1044.84 -66.0487C1045.45 -64.9873 1046.66 -63.9259 1047.27 -71.7802C1047.47 -73.6907 1054.96 -76.4502 1060.62 -71.7802C1062.45 -70.2942 1061.84 -66.261 1062.45 -60.5295C1062.85 -56.4962 1067.1 -58.4067 1067.1 -58.4067C1071.35 -60.3172 1074.39 -60.9541 1084.5 -47.5806C1094.62 -33.9949 1097.25 -22.532 1110 -16.8005C1122.14 -11.2813 1094.22 -3.4271 1089.36 27.9898H555.309C550.655 16.7392 547.619 5.06396 535.882 -3.4271C503.503 -26.1407 525.359 -29.9617 528.799 -33.7827Z" fill="url(#paint23_linear_0_1)"/>
<path d="M402.434 5.43094C403.448 -2.00287 400.608 -10.6757 403.448 -13.3601C406.491 -16.251 422.315 -21.6199 425.155 -18.7289C427.995 -15.838 437.529 -11.2951 440.978 -15.012C444.427 -18.7289 448.078 -26.7822 453.353 -23.6848C458.627 -20.5874 467.147 -24.7173 472.828 -31.5316C478.508 -38.5524 484.188 -32.7706 493.723 -18.9354C493.723 -18.9354 491.897 -47.6382 495.751 -54.4525C499.606 -61.2668 513.4 -43.9213 513.4 -43.9213C513.4 -43.9213 516.849 -51.5616 521.515 -52.8005C525.167 -53.6265 529.224 -48.2577 533.078 -47.2252C537.947 -45.7797 542.207 -35.6615 542.816 -35.2485C543.627 -34.8355 540.787 -27.6082 542.613 -18.7289C544.844 -7.99121 549.713 5.43095 548.699 12.8648H408.723C405.071 9.76734 402.028 7.70238 402.434 5.43094Z" fill="url(#paint24_linear_0_1)"/>
<path d="M1057.63 2.40896C1053.99 12.9381 1064.72 15.2545 1073.43 24.3095C1081.94 33.3646 1088.42 34.8386 1073.43 40.3137C1058.44 45.7889 1058.44 51.264 1064.12 56.318C1069.79 61.372 1049.13 54.4227 1049.13 54.4227C1049.13 54.4227 1057.63 65.7942 1039.81 75.0598C1021.78 84.1148 1002.54 96.118 998.281 82.009C994.027 67.9 990.381 62.0037 983.291 65.5836C976.202 69.1635 963.845 70.6376 961.009 64.1095C958.173 57.7921 969.517 53.1593 957.363 50.4217C945.209 47.6841 943.791 55.8968 933.662 54.0016C923.534 52.1063 923.534 46.6312 920.698 44.3148C917.862 41.9984 905.708 44.3148 897.808 40.1032C889.908 35.8915 885.654 37.3656 882.008 42.4196C878.362 47.4735 869.854 50.2111 862.561 50.2111C855.471 50.2111 846.153 58.845 842.507 60.7402C838.861 62.6354 825.289 65.7942 822.453 57.1603C819.617 48.5264 810.907 43.0513 806.653 45.7889C802.399 48.5265 785.181 52.1064 776.47 59.4767C767.962 66.8471 754.188 57.5815 749.124 63.0566C744.059 68.5318 728.259 78.008 718.941 79.0609C709.623 79.9032 685.315 75.0598 683.087 63.0566C680.858 51.264 691.595 38.8397 671.54 40.7349C651.486 42.6301 581.803 39.4714 576.131 28.9423C570.459 18.4132 581.803 -1.17093 594.16 -5.38257C604.288 -8.75188 625.152 -8.12013 625.355 -17.3857H1034.95C1035.15 -17.3857 1035.35 -17.3858 1035.55 -17.1752C1050.54 -13.5953 1061.28 -8.12014 1057.63 2.40896Z" fill="url(#paint25_linear_0_1)"/>
<path d="M1442.83 144.329C1435.75 151.533 1423.81 154.076 1420.97 141.574C1418.14 129.071 1429.47 120.171 1417.53 114.874C1405.39 109.576 1403.97 125.469 1394.25 122.079C1384.33 118.476 1384.33 107.881 1381.5 103.431C1378.66 98.981 1366.72 103.431 1358.83 95.3786C1351.13 87.3262 1346.88 90.0809 1343.24 99.8286C1339.8 109.576 1331.3 114.874 1324.21 114.874C1317.13 114.874 1308.02 131.826 1304.37 135.217C1300.73 138.819 1287.37 144.964 1284.54 128.012C1281.7 111.06 1273.2 100.464 1268.95 105.762C1264.7 111.06 1247.69 118.264 1239.19 132.462C1230.69 146.66 1217.33 128.86 1212.27 139.667C1210.24 144.117 1198.5 146.66 1194.05 152.169C1187.78 159.798 1187.78 169.757 1182.51 170.817C1178.26 171.664 1171.18 147.719 1164.29 143.481C1155.99 138.607 1148.3 152.381 1147.09 139.667C1145.06 116.569 1155.59 92.6238 1135.75 96.2262C1125.83 97.9214 1103.77 116.569 1083.32 112.967C1073.4 111.271 1074.21 101.312 1066.72 93.2595C1062.47 88.5976 1055.59 97.4976 1050.33 93.8952C1045.87 90.9286 1042.23 75.4595 1041.62 73.1285C1039.8 66.5595 1034.34 54.6928 1035.95 41.1309C1036.56 35.1976 1044.86 29.0523 1044.86 22.6952C1044.86 14.8547 1051.95 7.01418 1051.54 0.0213106C1050.53 -14.6001 1041.83 -26.043 1046.28 -29.0097C1058.22 -37.0621 1077.25 -16.2954 1087.78 -29.8573C1096.89 -41.724 1093.65 -55.7097 1088.38 -69.4835H1454.78V159.374C1451.54 144.329 1448.3 138.819 1442.83 144.329Z" fill="url(#paint26_linear_0_1)"/>
<path d="M227.127 5.92485C241.284 4.24249 245.127 -4.58995 253.824 -10.4782C262.52 -16.1562 263.329 -27.5122 269.598 -23.5166C275.868 -19.5209 282.946 -19.5209 283.755 -23.5166C284.564 -27.5122 293.867 -33.4005 300.137 -32.5593C306.407 -31.7181 300.137 -25.1989 311.867 -32.5593C323.597 -39.9196 320.564 -32.5593 320.564 -32.5593C322.99 -36.5549 338.563 -57.7948 344.024 -43.9153C349.484 -30.0357 354.945 -42.2329 358.181 -47.9109C361.214 -53.5889 380.225 -40.5505 386.495 -35.7137C392.764 -30.8769 388.113 -15.315 374.765 -4.80022C368.697 0.0365874 366.27 6.55575 365.057 12.8646H203.87C207.51 7.39693 213.982 7.39692 227.127 5.92485Z" fill="url(#paint27_linear_0_1)"/>
<path d="M419.894 1.29606C423.731 4.50824 417.269 7.72043 420.5 10.5043C427.568 16.7145 442.715 21.8541 442.917 25.2804C443.522 35.9877 452.61 49.9071 447.158 52.691C444.936 53.9759 443.119 60.1861 435.444 58.2588C429.79 56.7598 418.48 47.1232 413.23 46.4808C408.383 45.8384 404.344 53.1193 402.324 51.4062C395.054 45.8384 372.839 34.9169 366.781 38.9857C360.722 43.0545 355.673 53.5476 343.152 46.695C330.631 39.8423 313.667 42.1979 303.771 50.1213C297.511 55.0466 297.107 52.4769 285.394 43.6969C283.576 42.1979 279.537 48.8364 275.498 47.1232C271.863 45.6242 268.43 35.7735 266.41 34.0603C262.573 30.634 259.14 25.4945 254.091 27.8501C254.091 27.8501 252.678 33.6321 255.505 45.6242C258.332 57.4022 265.199 70.0368 262.169 74.1056C259.342 77.9602 255.101 68.9661 246.013 65.1115C241.772 63.3983 232.482 69.1802 229.049 66.3964C223.798 62.1134 220.163 50.7637 220.163 50.7637C220.163 50.7637 215.316 60.8286 205.825 60.4003C198.352 60.1861 187.447 50.5496 178.965 47.3374C167.656 43.0545 155.135 26.3511 153.519 25.4945C151.701 24.4238 155.337 15.2155 148.066 1.08193C146.451 -2.13026 144.431 -5.55658 142.614 -8.98291H403.536C403.94 -7.91218 404.546 -6.84147 405.353 -5.98488C407.171 -3.20099 417.269 -0.845401 419.894 1.29606Z" fill="url(#paint28_linear_0_1)"/>
<path d="M962.588 99.9817C962.588 99.9817 960.963 100.409 963.807 101.479C966.651 102.548 964.619 102.334 965.432 103.617C966.041 104.9 968.276 105.756 969.088 105.542C969.901 105.114 970.713 106.398 970.917 108.108C971.12 109.819 973.151 108.322 975.182 109.178C977.214 110.033 979.245 109.605 981.479 111.958C983.714 114.31 984.526 115.38 986.151 115.38C987.777 115.166 987.98 112.386 990.417 113.883C993.058 115.38 993.667 115.807 995.089 114.738C996.511 113.455 1000.98 117.091 996.917 110.247C992.652 103.617 995.089 102.976 990.011 100.623C984.73 98.2708 984.323 97.4154 982.495 94.8491C980.667 92.2828 979.651 90.358 978.229 91.2135C976.604 92.0689 973.76 89.5026 971.932 87.1501C970.104 84.7976 969.495 83.0867 967.87 83.5145C966.244 84.1561 963.604 87.364 960.15 86.2947C956.697 85.2254 953.447 86.5085 953.447 88.2194C953.447 89.9303 953.853 95.2768 955.072 95.0629C956.494 94.8491 959.135 94.2075 957.713 97.2015C955.885 100.196 961.572 100.196 962.588 99.9817Z" fill="url(#paint29_linear_0_1)"/>
<rect x="-11.3867" y="326.289" width="1302.86" height="5.00802" fill="url(#paint30_linear_0_1)"/>
<path d="M159.879 438.734L132.787 451.094C129.288 452.691 127.042 456.184 127.042 460.03C127.042 465.455 131.439 469.852 136.864 469.852H467.04C472.643 469.852 477.185 465.31 477.185 459.707C477.185 456.011 475.175 452.607 471.938 450.823L449.08 438.222C446.714 436.918 444.057 436.234 441.356 436.234H417.83C413.538 436.234 409.426 437.958 406.417 441.02L398.646 448.929C395.638 451.991 391.526 453.715 387.233 453.715H361.356C359.317 453.715 357.296 453.325 355.402 452.566L314.666 436.234L281.141 424.127C276.455 422.434 271.247 423.022 267.055 425.716L229.697 449.73C225.762 452.259 220.917 452.94 216.438 451.593L171.128 437.968C167.41 436.85 163.412 437.122 159.879 438.734Z" fill="url(#paint31_linear_0_1)"/>
<path d="M686.329 400.911C665.615 416.403 633.846 440.178 620.243 450.405C616.278 453.386 613.984 458.037 613.984 462.998V470.546C613.984 479.382 621.148 486.546 629.984 486.546H1224.98C1233.82 486.546 1240.98 479.382 1240.98 470.546V462.719C1240.98 457.917 1238.84 453.369 1235.09 450.369C1216.58 435.56 1186.93 413.177 1181.21 414.157C1173.24 415.523 1117.44 455.132 1108.15 455.132C1098.85 455.132 999.217 436.01 983.277 426.449C967.336 416.889 890.289 396.401 882.319 396.401C874.349 396.401 822.542 430.547 810.586 426.449C801.641 423.384 736.997 407.335 699.685 398.193C695.043 397.056 690.157 398.048 686.329 400.911Z" fill="url(#paint32_linear_0_1)"/>
<path d="M45.2786 339.644C40.1634 341.531 35.4574 343.419 30.9561 345.307V517.513C33.2067 517.722 33.8206 519.82 34.639 525.273C35.8667 532.824 45.074 544.151 57.7597 544.78C70.4455 545.41 78.4252 553.8 90.9063 561.77C103.592 569.741 97.6584 579.599 127.94 587.569C158.222 595.54 146.355 582.116 159.45 569.741C172.545 557.156 165.793 567.014 168.248 570.789C170.704 574.565 178.683 571.628 179.502 569.95C180.32 568.272 185.64 560.721 193.21 568.482C200.781 576.033 200.781 572.677 201.19 571.209C201.599 569.741 214.285 566.385 220.014 573.306C225.948 580.228 230.858 574.775 252.751 568.482C274.645 562.19 270.348 558.834 270.348 567.014C270.348 575.404 278.327 573.306 289.99 574.984C301.653 576.662 312.292 563.238 313.52 570.16C314.748 577.082 332.344 570.16 331.116 571.838C329.889 573.516 331.526 576.872 336.641 581.696C341.756 586.521 343.802 584.423 346.257 582.745C348.713 581.067 347.485 579.179 355.874 574.355C364.263 569.531 371.015 572.677 371.015 574.984C371.015 577.501 380.222 590.296 388.202 593.023C396.182 595.75 397 605.608 403.752 606.237C410.504 606.867 410.914 595.75 413.369 592.604C415.824 589.457 419.712 590.926 420.939 597.218C422.167 603.511 432.193 603.511 439.354 603.511C446.515 603.511 449.789 607.706 457.36 615.257C464.93 622.808 472.501 620.5 490.097 615.257C507.693 610.013 513.627 610.013 527.54 610.642C541.454 611.271 540.635 608.545 546.774 606.867C553.116 605.189 552.298 607.915 559.868 606.867C567.439 605.818 561.505 592.604 565.393 595.75C569.076 598.896 581.762 601.413 590.56 601.623C599.358 602.042 609.384 598.477 619.614 597.428C629.64 596.379 632.3 593.862 639.256 587.989C646.418 582.116 648.873 575.194 656.034 568.902C663.196 562.609 679.155 553.17 680.792 556.317C682.429 559.463 689.999 560.931 695.115 559.043C700.23 557.365 709.437 557.995 717.008 559.043C724.578 560.092 727.033 558.414 730.103 555.897C732.967 553.38 733.376 553.38 739.31 552.331C745.244 551.283 749.745 552.331 749.336 547.507C748.926 542.683 749.336 538.907 757.315 540.795C765.295 542.892 764.886 543.312 767.75 536.18C770.615 529.259 773.684 533.034 782.891 533.454C792.099 533.873 792.508 534.083 792.508 528.839C792.508 523.595 798.442 525.693 809.695 525.693C820.949 525.693 822.79 524.015 823.608 520.869C824.427 517.722 842.842 521.288 843.865 518.771C844.683 516.254 852.663 517.093 860.643 518.142C868.622 519.191 861.052 521.917 860.643 526.532C860.233 531.146 861.87 536.6 866.576 533.454C871.282 530.307 869.441 525.693 877.421 526.742C885.4 527.79 893.789 528.21 895.426 531.776C897.063 535.341 905.861 537.439 912.613 539.117C919.365 540.795 914.659 554.009 919.774 561.351C924.89 568.692 934.506 574.984 942.895 573.516C951.284 572.048 949.647 567.643 951.693 569.321C953.739 570.999 956.809 572.467 963.356 569.321C970.108 566.175 974.2 566.175 976.042 567.224C977.679 568.272 984.84 566.804 988.727 563.029C992.41 559.253 998.344 559.253 1003.87 557.785C1009.39 556.317 1022.28 554.009 1027.4 563.029C1032.51 572.048 1034.97 571.419 1037.42 571.628C1039.88 572.048 1047.04 567.433 1047.45 573.097C1047.86 578.76 1058.29 581.696 1060.95 576.662C1063.41 571.419 1076.91 574.565 1081.21 578.131C1085.51 581.696 1103.1 593.023 1109.65 587.569C1116.4 581.906 1116.81 579.599 1116.81 579.599C1142.39 569.531 1122.34 561.141 1132.77 554.219C1143.21 547.297 1148.73 520.239 1152 518.142C1155.28 516.044 1159.98 518.142 1162.44 516.044C1164.9 513.947 1169.6 512.269 1169.19 508.074C1168.78 503.879 1177.58 501.781 1180.04 502.201C1182.49 502.62 1192.72 502.62 1194.36 498.425C1196 494.44 1203.16 498.006 1205.2 498.216C1207.25 498.635 1214.41 498.215 1217.48 495.698C1220.34 493.181 1221.78 489.406 1224.64 488.777C1227.51 488.147 1229.35 487.099 1227.91 484.372C1226.69 481.855 1229.14 481.855 1231.19 477.87C1233.23 474.094 1236.71 474.723 1245.51 474.723C1254.31 474.723 1253.49 481.855 1265.77 478.499C1268.02 477.87 1272.93 473.884 1274.57 473.045C1276.2 472.206 1280.09 471.577 1280.91 472.626C1281.73 473.675 1287.25 472.626 1287.25 472.626C1287.25 472.626 1289.71 470.948 1290.52 468.221C1291.34 465.494 1295.23 466.543 1295.23 466.543C1295.23 466.543 1298.91 466.543 1300.75 468.011C1302.39 469.48 1304.03 466.543 1306.28 464.026C1308.33 461.509 1315.49 460.67 1319.78 463.397C1340.04 476.821 1348.84 468.431 1356.61 464.865V339.644H45.2786Z" fill="url(#paint33_linear_0_1)"/>
<path d="M1167.91 419.829C1169.33 431.642 1165.88 445.144 1169.94 449.785C1174.01 454.426 1189.26 494.509 1193.12 490.078C1196.99 485.648 1212.64 448.308 1217.32 454.215C1222 460.333 1230.33 472.991 1237.45 468.35C1244.36 463.497 1255.95 470.459 1263.89 481.64C1271.82 492.821 1272.22 511.596 1284.83 490.078C1284.83 490.078 1290.12 508.01 1295.61 518.98C1301.1 529.95 1319.19 502.947 1319.19 502.947C1319.19 502.947 1345.42 519.402 1351.73 493.243V398.522C1340.95 389.872 1329.97 383.966 1323.26 385.864C1314.31 388.396 1312.48 339.664 1300.69 329.327C1288.69 318.99 1274.26 327.006 1276.29 340.508C1278.32 353.798 1258.6 359.916 1255.95 356.33C1253.31 352.532 1237.86 350.212 1233.79 351.056C1229.72 351.9 1241.31 369.831 1237.04 389.45C1232.77 409.07 1205.73 366.667 1189.06 366.878C1172.18 367.089 1166.49 408.015 1167.91 419.829Z" fill="url(#paint34_linear_0_1)"/>
<path d="M890.497 478.236C880.904 490.559 874.985 495.781 869.27 489.515C863.555 483.249 854.983 479.698 849.676 482.413C844.369 485.337 840.695 478.027 837.225 474.476C833.756 471.134 824.163 475.311 821.305 477.818C818.448 480.324 802.528 475.52 799.466 473.014C796.404 470.507 799.262 462.779 798.445 456.095C797.833 452.335 809.671 448.367 813.141 441.056C815.794 435.416 809.467 425.808 814.774 425.599C827.224 425.181 846.818 448.784 850.288 437.505C853.758 426.226 845.39 416.409 848.451 415.782C851.513 415.155 862.943 416.2 864.984 418.289C866.821 420.377 881.72 416.618 880.496 408.889C879.067 401.37 890.088 396.566 898.865 402.205C907.641 407.845 908.254 435.416 914.989 433.954C921.725 432.492 933.563 438.549 943.768 445.442C949.891 449.62 942.952 465.703 939.89 478.027C938.053 485.964 940.911 492.439 940.094 492.857C939.278 493.275 935.196 502.256 930.093 503.51C926.215 504.554 922.133 509.358 918.459 508.523C913.765 507.478 910.295 500.585 910.295 500.585C910.295 500.585 896.416 516.251 892.538 510.194C888.456 504.136 890.497 478.236 890.497 478.236Z" fill="url(#paint35_linear_0_1)"/>
<path d="M286.99 548.089C284.128 544.178 277.381 548.707 273.292 544.384C269.203 540.062 263.07 537.386 259.185 539.444C255.505 541.503 252.643 536.357 250.394 533.887C247.941 531.622 240.989 534.504 238.945 536.357C236.901 538.209 225.452 534.71 223.407 532.857C221.363 531.005 207.46 520.919 206.847 516.185C206.438 513.509 230.563 515.567 233.22 510.422C235.061 506.511 230.563 499.718 234.447 499.512C243.238 499.307 257.345 515.773 259.799 507.952C262.252 500.13 256.323 493.132 258.367 492.72C260.616 492.308 268.794 493.132 270.225 494.572C271.656 496.013 282.288 493.337 281.265 487.986C280.243 482.634 288.217 479.341 294.35 483.252C300.688 487.162 301.097 506.717 306.003 505.482C310.91 504.452 319.292 508.775 326.448 513.509C330.946 516.391 384.715 517.832 382.671 526.477C382.262 528.535 376.537 541.708 368.564 544.59C363.248 546.648 356.706 534.092 350.368 533.887C340.146 533.887 329.924 545.413 323.995 546.648C323.381 546.854 320.519 553.235 316.839 554.264C314.181 554.882 311.114 558.381 308.457 557.763C305.186 556.94 302.528 552.206 302.528 552.206C302.528 552.206 292.714 563.321 289.852 558.998C286.785 554.676 286.99 548.089 286.99 548.089Z" fill="url(#paint36_linear_0_1)"/>
<path d="M139.997 457.149C139.997 457.149 130.367 467.183 145.529 478.68C160.691 490.178 176.878 504.602 182.82 491.223C188.762 477.844 193.065 472.618 199.007 477.217C205.154 481.816 216.013 484.952 219.701 478.889C223.185 473.036 213.35 466.974 225.029 465.929C236.708 464.883 236.708 473.245 246.338 472.827C255.763 472.409 256.583 466.974 259.656 465.302C262.525 463.42 273.589 467.392 281.375 464.465C289.161 461.539 293.054 463.42 295.513 468.855C298.177 474.29 305.553 478.262 312.314 479.098C318.871 480.144 326.247 489.969 329.321 492.268C332.394 494.568 344.483 499.585 348.376 491.432C352.269 483.279 360.875 479.098 364.563 482.443C368.046 485.788 383.413 491.641 390.38 500.212C397.346 508.573 411.074 501.466 414.967 507.528C418.86 513.59 431.974 525.297 440.374 527.387C448.775 529.687 471.928 528.014 475.617 516.726C479.305 505.438 471.109 491.85 489.345 496.449C507.58 501.048 571.918 507.737 578.884 498.121C585.646 488.714 577.86 467.81 567.205 461.957C556.551 456.313 531.348 454.222 543.437 439.589C555.731 424.956 562.902 411.787 559.214 400.707C555.526 389.628 546.92 383.357 521.718 380.43C496.516 377.504 450.824 385.238 431.359 389.628C411.894 394.018 411.074 380.639 408.206 373.323C405.132 366.006 372.964 360.571 344.483 356.808C316.003 352.836 303.299 375.204 282.809 377.713C262.32 380.012 207.203 359.317 201.671 360.78C196.138 362.243 183.845 372.277 183.845 380.43C184.049 388.792 177.493 387.329 163.15 388.792C148.807 390.255 138.153 394.227 139.792 404.888C141.636 415.758 131.391 416.386 122.171 424.12C112.95 431.855 106.804 432.273 119.917 439.798C133.03 447.324 132.211 452.759 126.269 456.731C119.712 460.912 139.997 457.149 139.997 457.149Z" fill="url(#paint37_linear_0_1)"/>
<path d="M859.557 443.468C859.557 443.468 864.242 449.903 851.004 445.544C837.766 441.184 845.505 445.959 839.395 448.242C833.489 450.526 822.899 447.204 821.27 443.468C819.641 439.731 812.716 441.392 807.421 446.789C802.126 452.187 798.867 441.392 789.092 437.862C779.316 434.333 773.614 426.652 759.358 428.313C745.102 429.974 738.992 431.427 733.697 426.029C728.402 420.631 735.937 410.667 722.292 407.968C708.647 405.477 705.389 405.269 703.352 396.757C701.316 388.038 675.858 386.585 709.258 376.205C742.658 365.825 735.734 356.69 760.987 363.956C786.241 371.222 789.907 369.562 803.755 366.24C817.604 362.918 825.75 359.389 829.212 366.863C832.471 374.336 849.578 374.544 862.816 371.43C875.85 368.316 883.385 364.994 887.255 371.43C891.124 377.866 891.532 396.965 906.806 404.023C922.284 411.082 930.227 424.991 925.135 431.219C920.044 437.447 904.362 454.47 900.085 449.488C895.808 444.713 887.662 434.126 885.218 448.865C882.774 463.605 862.612 446.789 859.557 443.468Z" fill="url(#paint38_linear_0_1)"/>
<path d="M394.287 221.344C382.639 221.135 381.004 223.862 379.983 228.267C379.165 232.672 360.161 227.847 359.343 231.203C358.526 234.56 350.352 233.72 342.178 232.252C334.004 230.784 341.769 226.798 342.178 220.505C342.587 214.212 340.952 206.451 336.048 210.646C331.348 215.051 332.982 221.554 324.809 220.086C316.635 218.617 308.052 217.988 306.213 213.164C304.578 208.339 295.382 205.402 288.435 202.885C281.487 200.368 286.187 181.909 281.078 171.63C275.969 161.352 265.956 152.542 257.374 154.639C248.791 156.527 250.426 163.03 248.382 160.513C246.135 157.995 243.274 156.108 236.326 160.513C229.582 164.708 225.291 164.708 223.452 163.24C221.817 161.771 214.461 163.659 210.578 169.113C206.695 174.567 200.565 174.567 195.048 176.455C189.53 178.343 176.043 181.909 170.934 169.113C165.826 156.527 163.169 157.366 160.513 156.947C157.856 156.527 150.5 162.82 150.091 155.059C149.682 147.297 138.852 142.892 136.195 150.234C133.539 157.576 119.847 153.171 115.556 148.346C111.265 143.522 104.317 146.458 97.3692 154.22C90.4213 161.981 90.0126 165.337 90.0126 165.337C63.6517 179.391 84.4952 191.138 73.6648 200.997C62.8343 210.856 57.317 248.824 53.843 251.76C50.3691 254.697 45.6691 251.76 43.0126 254.697C40.3561 257.634 35.6561 260.151 36.0648 265.814C36.2691 268.961 33.6126 271.268 30.9561 272.737V378.038H506.27L513.013 369.019C510.765 370.487 463.152 221.974 394.287 221.344Z" fill="url(#paint39_linear_0_1)"/>
<path d="M1356.61 341.313C1355.39 340.265 1354.16 337.541 1352.93 332.93C1349.86 320.145 1348.23 316.791 1342.09 319.306C1335.95 321.821 1335.54 320.354 1334.32 309.456C1333.09 298.767 1323.47 283.048 1310.38 282C1297.29 280.952 1289.11 269.215 1276.22 258.107C1263.13 246.789 1263.74 230.651 1232.45 219.543C1201.15 208.225 1218.94 229.393 1205.65 246.999C1192.15 264.604 1188.67 250.352 1186.22 245.112C1183.56 239.663 1180.49 242.597 1179.67 245.112C1178.85 247.628 1178.44 259.784 1170.67 249.095C1162.9 238.406 1162.9 243.226 1162.49 245.112C1162.08 246.999 1148.99 252.029 1143.05 242.178C1136.92 232.328 1131.8 240.292 1109.3 249.095C1086.8 257.897 1091.09 262.718 1091.09 250.981C1091.09 239.244 1082.91 242.178 1070.64 239.663C1058.57 237.148 1047.73 256.221 1046.3 246.58C1045.07 236.729 1026.86 246.58 1028.09 244.065C1029.32 241.549 1025.02 226.459 1019.91 219.543C1014.79 212.626 1015.2 215.561 1012.54 218.076C1009.88 220.591 1011.32 233.795 1002.52 240.502C993.929 247.418 986.974 243.017 986.974 239.454C986.974 236.1 977.36 217.866 969.177 214.094C960.995 210.111 960.177 196.488 953.222 195.44C946.267 194.392 945.858 210.111 943.198 214.513C940.539 218.914 936.652 217.028 935.425 208.225C934.198 199.422 923.765 199.422 916.401 199.422C909.037 199.422 905.559 193.554 897.786 182.865C890.013 172.176 882.24 175.529 864.034 182.865C845.828 190.201 839.691 190.201 825.372 189.153C811.053 188.105 811.871 192.087 805.53 194.602C798.984 197.117 799.802 193.135 792.029 194.602C784.255 196.069 790.392 214.722 786.301 210.321C782.414 205.92 769.323 202.566 760.322 201.937C751.321 201.518 740.889 206.339 730.456 207.806C720.024 209.273 717.364 212.626 710 221.01C702.636 229.393 699.977 239.034 692.613 247.837C689.953 250.981 686.271 254.753 682.385 257.897V341.313H1356.61Z" fill="url(#paint40_linear_0_1)"/>
<path d="M845.8 430.202C847.436 441.789 842.529 454.825 847.64 459.17C852.751 463.515 880.35 471.792 885.256 467.447C890.163 463.102 906.926 456.066 912.65 461.653C918.579 467.447 924.916 479.862 934.116 475.103C943.316 470.344 958.035 476.551 967.848 487.104C977.661 497.657 987.678 488.966 1004.24 467.861C1004.24 467.861 1000.97 511.934 1007.71 522.487C1014.66 533.039 1038.38 506.14 1038.38 506.14C1038.38 506.14 1044.51 517.935 1052.48 519.797C1058.62 521.245 1065.98 512.968 1072.52 511.313C1081.1 509.037 1088.26 493.725 1089.69 493.105C1091.12 492.484 1086.22 481.517 1089.28 467.861C1092.14 455.653 1097.66 440.962 1099.3 429.788H845.8C845.8 429.788 845.8 429.995 845.8 430.202Z" fill="url(#paint41_linear_0_1)"/>
<path d="M32.585 469.78C35.4487 472.307 38.9262 474.413 43.0173 475.045C46.9039 475.677 51.4041 470.411 56.1089 469.78C61.2228 469.148 68.3823 477.994 74.5189 479.889C78.61 481.153 82.2921 474.624 84.5422 476.309C90.0652 480.521 86.5877 485.365 89.8606 487.261C96.611 490.841 101.111 483.891 110.725 473.992C115.021 469.569 120.339 478.626 125.453 475.677C126.681 475.045 128.931 465.989 131.181 464.725C133.84 463.25 136.704 469.569 137.931 467.884C141.409 463.04 139.363 458.196 141.613 459.67C146.114 462.619 144.477 455.247 149.386 450.403C152.046 447.875 160.023 449.982 163.501 446.401C169.842 439.872 173.115 430.815 180.888 427.024C185.593 424.708 191.729 427.867 201.344 424.918C226.709 417.336 216.072 413.334 238.982 386.165C262.097 358.995 239.596 371.632 233.254 365.313C227.118 358.995 224.254 360.68 211.367 365.945C198.48 371.211 199.503 358.363 192.139 356.678C184.775 354.993 180.274 359.627 169.024 368.894C157.773 378.161 148.773 374.791 138.545 377.108C128.317 379.425 119.93 371.843 118.294 379.425C116.657 387.007 111.544 392.272 108.066 389.956C104.589 387.639 93.9517 390.588 90.0652 395.853C86.1786 401.118 95.1791 401.118 81.6784 404.488C68.1777 408.069 75.5417 410.807 75.5417 410.807C71.0415 409.543 45.0629 406.173 50.7904 420.074C56.518 433.975 44.0401 429.341 37.9034 427.656C35.8579 427.024 34.2214 429.13 32.585 432.29V469.78V469.78Z" fill="url(#paint42_linear_0_1)"/>
<path d="M966.456 403.485C962.98 399.689 969.114 349.927 974.225 346.131C1001.21 324.624 970.954 310.497 966.456 302.062C962.162 293.628 963.389 300.586 962.571 306.49C961.753 312.394 960.322 314.081 959.096 304.593C957.869 295.104 957.255 292.574 955.007 294.471C952.758 296.369 952.553 295.104 952.144 287.091C951.735 279.079 948.055 267.482 943.148 266.638C938.242 266.006 935.175 257.15 930.268 248.715C925.361 240.281 925.566 228.262 913.912 220.039C902.258 211.604 908.801 227.419 903.894 240.492C898.783 253.565 897.556 243.022 896.534 239.016C895.512 235.009 888.151 237.751 887.538 239.016C885.698 242.6 882.427 244.076 880.178 236.907C877.929 229.527 875.885 235.431 867.502 241.968C859.12 248.504 860.755 252.089 860.755 243.444C860.755 234.799 836.63 240.07 837.243 238.383C837.652 236.485 839.492 235.009 837.448 229.738C835.403 224.677 832.541 228.262 831.519 230.16C830.497 232.057 830.906 230.792 827.634 235.853C824.363 240.914 821.705 237.751 821.705 235.22C821.705 232.69 824.568 218.352 821.501 215.611C818.434 212.659 814.141 210.339 811.483 209.496C808.825 208.863 802.691 218.563 802.283 211.815C801.874 205.279 797.989 205.279 795.127 205.279C792.264 205.279 791.038 200.851 788.175 192.838C785.313 184.825 782.246 187.356 775.5 192.838C768.753 198.32 766.299 198.32 760.984 197.477C755.668 196.844 755.872 199.585 753.419 201.483C750.966 203.381 751.375 200.429 748.308 201.483C745.445 202.537 747.694 216.454 746.263 213.08C744.832 209.707 739.925 207.176 736.45 206.965C732.974 206.544 729.09 210.339 725.205 211.393C721.32 212.448 720.298 214.978 717.64 221.304C714.778 227.419 711.302 233.744 708.44 240.281C705.578 246.818 699.444 249.348 698.831 245.974C698.218 242.6 690.449 252.511 687.586 251.456C684.724 250.402 681.248 257.36 678.999 258.415C676.75 259.469 674.91 258.415 675.115 263.475C675.319 268.536 667.346 272.331 666.732 275.705C665.301 282.874 667.755 279.711 664.074 279.29C660.394 278.868 655.896 286.037 651.603 286.037C647.31 286.037 646.492 287.935 646.287 291.098C645.878 294.471 638.723 290.676 638.518 293.206C638.109 295.736 635.043 295.104 631.976 293.839C628.909 292.784 629.114 294.26 629.318 289.622C629.522 284.983 624.207 289.2 622.571 292.363C620.731 295.737 624.411 298.056 621.344 297.002C618.278 295.947 617.46 297.845 616.642 294.26C616.029 290.676 614.598 294.682 611.94 292.784C609.282 290.887 616.233 288.778 614.393 280.976C612.349 273.386 608.669 266.849 605.397 268.325C602.126 269.801 602.739 274.44 601.922 272.753C601.104 270.855 593.13 276.127 592.517 274.862C591.904 273.807 589.041 275.283 587.61 279.29C586.179 283.296 578.41 294.682 576.365 296.158C574.321 297.634 573.299 295.315 571.254 285.826C569.21 276.338 565.939 275.705 564.916 275.283C563.894 274.862 555.103 271.066 554.08 276.548C553.058 282.031 547.947 278.657 546.311 275.072C544.676 271.488 542.018 273.596 539.564 279.5C536.907 285.404 536.702 287.935 536.702 287.935C526.684 298.478 528.729 286.248 524.64 293.417C520.551 300.797 512.168 294.682 510.737 296.791C509.51 298.899 503.786 298.056 502.764 300.165C501.741 302.273 491.519 307.545 491.723 311.973C491.928 316.401 512.986 325.257 511.964 324.835C510.942 324.413 507.057 324.413 506.444 328.63C505.83 332.847 502.968 329.052 502.15 328.841C501.332 328.419 498.47 328.841 497.448 331.371C496.221 333.902 495.812 337.908 494.586 338.751C493.359 339.384 492.745 340.649 493.359 343.39C493.768 346.131 492.95 346.131 492.132 350.138C491.314 354.144 490.088 353.512 486.612 353.512C483.136 353.512 479.047 347.607 478.843 349.505C478.434 351.403 475.981 354.144 475.367 355.198C474.754 356.253 473.323 356.674 472.914 355.62C472.505 354.566 469.438 357.518 469.234 360.259C468.825 363.211 467.394 362.157 467.394 362.157C467.394 362.157 463.918 362.157 463.1 364.898C462.282 367.639 459.829 366.585 457.989 365.53C455.944 364.476 455.331 365.109 451.651 365.53C447.971 365.952 445.109 371.434 445.109 371.434C444.495 372.489 443.269 373.543 442.655 365.741C442.451 363.844 434.886 361.102 429.162 365.741C427.322 367.217 427.935 371.224 427.322 376.917C426.913 380.923 422.619 379.025 422.619 379.025C418.326 377.128 415.259 376.495 405.036 389.779C394.814 403.274 392.156 414.66 379.276 420.353C367.009 425.836 395.223 433.637 400.13 464.844H939.673C944.375 453.669 947.442 442.072 959.3 433.637C992.012 411.076 969.931 407.28 966.456 403.485Z" fill="url(#paint43_linear_0_1)"/>
<path d="M1094.12 442.436C1093.1 435.052 1095.97 426.437 1093.1 423.771C1090.02 420.899 1074.04 415.566 1071.17 418.438C1068.3 421.309 1058.66 425.822 1055.18 422.13C1051.7 418.438 1048.01 410.438 1042.68 413.515C1037.35 416.592 1028.74 412.489 1023 405.721C1017.26 398.747 1011.53 404.49 1001.89 418.233C1001.89 418.233 1003.74 389.722 999.843 382.953C995.949 376.184 982.013 393.414 982.013 393.414C982.013 393.414 978.529 385.825 973.815 384.594C970.126 383.773 966.027 389.106 962.133 390.132C957.214 391.568 952.91 401.618 952.295 402.029C951.475 402.439 954.345 409.618 952.5 418.438C950.246 429.104 945.327 442.436 946.352 449.82H1087.77C1091.46 446.744 1094.53 444.692 1094.12 442.436Z" fill="url(#paint44_linear_0_1)"/>
<path d="M432.185 439.434C435.868 449.893 425.022 452.194 416.222 461.189C407.627 470.183 401.078 471.647 416.222 477.086C431.366 482.524 431.366 487.963 425.636 492.983C419.906 498.003 440.78 491.1 440.78 491.1C440.78 491.1 432.185 502.396 450.194 511.6C468.408 520.594 487.85 532.517 492.147 518.502C496.445 504.488 500.129 498.631 507.291 502.187C514.454 505.743 526.938 507.207 529.803 500.723C532.668 494.447 521.208 489.845 533.487 487.126C545.766 484.407 547.198 492.565 557.431 490.682C567.663 488.8 567.663 483.361 570.528 481.06C573.393 478.759 585.672 481.06 593.654 476.877C601.635 472.693 605.933 474.157 609.616 479.178C613.3 484.198 621.895 486.917 629.263 486.917C636.426 486.917 645.84 495.493 649.523 497.376C653.207 499.258 666.919 502.396 669.784 493.82C672.649 485.244 681.449 479.805 685.746 482.524C690.044 485.244 707.439 488.8 716.239 496.121C724.835 503.442 738.751 494.238 743.867 499.677C748.983 505.115 764.946 514.528 774.36 515.574C783.774 516.411 808.332 511.6 810.583 499.677C812.834 487.963 801.988 475.622 822.248 477.504C842.508 479.387 912.908 476.249 918.638 465.79C924.369 455.332 912.908 435.878 900.424 431.695C890.192 428.348 869.113 428.976 868.908 419.772H455.106C454.901 419.772 454.696 419.772 454.492 419.981C439.347 423.537 428.501 428.976 432.185 439.434Z" fill="url(#paint45_linear_0_1)"/>
<path d="M43.0221 580.405C50.1799 587.562 62.246 590.088 65.1091 577.669C67.9722 565.25 56.5197 556.41 68.5857 551.147C80.8563 545.885 82.2878 561.672 92.1043 558.304C102.125 554.726 102.125 544.201 104.988 539.781C107.851 535.361 119.918 539.781 127.893 531.782C135.665 523.784 139.959 526.52 143.641 536.203C147.117 545.885 155.707 551.147 162.864 551.147C170.022 551.147 179.225 567.986 182.906 571.354C186.587 574.933 200.085 581.037 202.948 564.198C205.811 547.359 214.401 536.834 218.695 542.096C222.99 547.359 240.169 554.515 248.758 568.618C257.348 582.721 270.845 565.04 275.958 575.775C278.003 580.195 289.865 582.721 294.364 588.193C300.704 595.771 300.704 605.664 306.021 606.716C310.316 607.558 317.473 583.773 324.427 579.563C332.812 574.722 340.583 588.404 341.81 575.775C343.855 552.831 333.221 529.046 353.262 532.624C363.283 534.308 385.575 552.831 406.23 549.253C416.251 547.569 415.433 537.676 423 529.678C427.295 525.047 434.248 533.887 439.565 530.309C444.064 527.362 447.746 511.996 448.359 509.681C450.2 503.156 455.721 491.369 454.085 477.897C453.472 472.004 445.087 465.899 445.087 459.585C445.087 451.797 437.929 444.009 438.338 437.063C439.361 422.539 448.155 411.172 443.655 408.226C431.589 400.227 412.366 420.855 401.731 407.384C392.528 395.596 395.8 381.704 401.118 368.022H30.9561V595.35C34.2282 580.405 37.5003 574.933 43.0221 580.405Z" fill="url(#paint46_linear_0_1)"/>
<path d="M1271.23 442.927C1256.93 441.256 1253.05 432.482 1244.26 426.633C1235.47 420.993 1234.66 409.713 1228.32 413.682C1221.99 417.651 1214.84 417.651 1214.02 413.682C1213.2 409.713 1203.8 403.864 1197.47 404.7C1191.14 405.535 1197.47 412.011 1185.62 404.7C1173.77 397.389 1176.83 404.7 1176.83 404.7C1174.38 400.731 1158.65 379.633 1153.13 393.42C1147.62 407.207 1142.1 395.091 1138.83 389.451C1135.76 383.811 1116.56 396.762 1110.22 401.567C1103.89 406.371 1108.59 421.829 1122.07 432.273C1128.2 437.078 1130.66 443.553 1131.88 449.82H1294.73C1291.05 444.389 1284.51 444.389 1271.23 442.927Z" fill="url(#paint47_linear_0_1)"/>
<path d="M1076.48 438.329C1072.6 441.52 1079.13 444.71 1075.87 447.476C1068.73 453.644 1053.43 458.75 1053.22 462.153C1052.61 472.789 1043.43 486.615 1048.94 489.38C1051.18 490.657 1053.02 496.825 1060.77 494.911C1066.48 493.422 1077.91 483.85 1083.21 483.212C1088.11 482.574 1092.19 489.806 1094.23 488.104C1101.58 482.574 1124.02 471.725 1130.14 475.767C1136.26 479.808 1141.36 490.231 1154.01 483.424C1166.66 476.618 1183.8 478.957 1193.8 486.828C1200.12 491.72 1200.53 489.168 1212.36 480.446C1214.2 478.957 1218.28 485.552 1222.36 483.85C1226.03 482.361 1229.5 472.576 1231.54 470.874C1235.42 467.471 1238.89 462.366 1243.99 464.706C1243.99 464.706 1245.42 470.449 1242.56 482.361C1239.7 494.06 1232.77 506.61 1235.83 510.652C1238.68 514.481 1242.97 505.547 1252.15 501.718C1256.43 500.016 1265.82 505.759 1269.29 502.994C1274.59 498.74 1278.27 487.466 1278.27 487.466C1278.27 487.466 1283.16 497.464 1292.75 497.038C1300.3 496.825 1311.32 487.253 1319.89 484.063C1331.31 479.808 1343.96 463.217 1345.6 462.366C1347.43 461.302 1343.76 452.155 1351.1 438.116C1352.74 434.926 1354.78 431.522 1356.61 428.119H1093.01C1092.6 429.182 1091.99 430.246 1091.17 431.097C1089.34 433.862 1079.13 436.202 1076.48 438.329Z" fill="url(#paint48_linear_0_1)"/>
<path d="M1029.41 401.063C1022.69 404.142 1019.02 404.963 1018.01 401.063C1016.99 397.162 1014.14 393.672 1011.29 393.672C1008.44 393.672 1008.44 389.771 1007.62 387.513C1006.81 385.255 1001.92 384.844 1000.09 385.255C998.26 385.665 992.561 380.122 991.95 378.274C991.136 376.632 994.189 373.963 995.207 370.884C996.225 367.804 1003.35 359.182 1008.85 361.85C1014.14 364.519 1017.4 378.685 1021.26 374.784C1025.13 370.884 1023.71 364.725 1025.13 365.341C1026.56 365.751 1031.24 368.831 1031.64 370.062C1032.05 371.294 1039.18 373.142 1040.19 369.652C1041.21 366.162 1046.91 366.572 1049.56 370.884C1052 375.195 1046.3 386.897 1049.56 387.718C1052.82 388.539 1056.48 393.877 1059.33 399.01C1062.18 404.142 1058.11 418.103 1047.52 418.103C1046.51 418.103 1039.58 409.891 1033.68 409.891C1027.78 409.891 1023.91 418.103 1023.71 414.613C1022.89 411.328 1029.41 401.063 1029.41 401.063Z" fill="url(#paint49_linear_0_1)"/>
<path d="M886.091 345.473C879.374 348.643 875.71 349.489 874.692 345.473C873.674 341.458 870.824 337.865 867.974 337.865C865.124 337.865 865.124 333.85 864.31 331.525C863.496 329.2 858.61 328.778 856.778 329.2C854.946 329.623 849.246 323.917 848.635 322.015C847.821 320.324 850.875 317.577 851.893 314.407C852.91 311.237 860.035 302.36 865.531 305.108C870.824 307.855 874.081 322.438 877.949 318.422C881.817 314.407 880.392 308.067 881.817 308.701C883.241 309.123 887.923 312.293 888.331 313.561C888.738 314.829 895.862 316.731 896.88 313.139C897.898 309.546 903.598 309.969 906.244 314.407C908.687 318.845 902.987 330.891 906.244 331.736C909.501 332.582 913.165 338.077 916.015 343.36C918.865 348.643 914.794 363.014 904.209 363.014C903.191 363.014 896.27 354.561 890.366 354.561C884.463 354.561 880.595 363.014 880.392 359.422C879.577 356.04 886.091 345.473 886.091 345.473Z" fill="url(#paint50_linear_0_1)"/>
<path d="M529.434 390.546C522.716 393.716 519.052 394.561 518.035 390.546C517.017 386.53 514.167 382.937 511.317 382.937C508.467 382.937 508.467 378.922 507.653 376.597C506.838 374.273 501.953 373.85 500.121 374.273C498.289 374.695 492.589 368.989 491.978 367.087C491.164 365.396 494.217 362.649 495.235 359.479C496.253 356.309 503.378 347.433 508.874 350.18C514.167 352.927 517.424 367.51 521.292 363.494C525.159 359.479 523.734 353.139 525.159 353.773C526.584 354.195 531.266 357.366 531.673 358.634C532.08 359.902 539.205 361.804 540.223 358.211C541.241 354.618 546.941 355.041 549.587 359.479C552.03 363.917 546.33 375.963 549.587 376.809C552.844 377.654 556.508 383.149 559.358 388.432C562.208 393.716 558.137 408.087 547.551 408.087C546.534 408.087 539.612 399.633 533.709 399.633C527.806 399.633 523.938 408.087 523.734 404.494C522.92 401.324 529.434 390.546 529.434 390.546Z" fill="url(#paint51_linear_0_1)"/>
<path d="M724.834 372.878C724.834 372.878 727.08 374.751 721.974 374.335C716.868 373.919 720.136 374.959 718.093 376.415C716.255 377.663 712.17 377.455 711.353 376.415C710.536 375.167 708.085 376.415 706.86 378.912C705.43 381.2 703.387 377.871 699.711 377.455C696.034 377.039 693.175 374.959 688.477 376.831C683.575 378.703 681.532 379.744 679.286 378.495C677.039 377.039 678.673 372.878 673.771 373.294C668.665 373.711 667.643 373.919 666.214 371.006C664.784 368.093 655.592 369.966 666.418 363.309C677.243 356.651 673.975 353.947 683.575 354.363C693.175 354.571 694.196 353.739 698.894 351.242C703.387 348.746 706.043 346.874 707.881 349.162C709.719 351.45 715.642 349.994 720.136 347.706C724.425 345.417 726.672 343.545 728.714 345.417C730.757 347.29 732.391 353.947 738.519 355.195C744.646 356.235 748.527 360.396 747.301 363.101C746.076 365.805 741.991 373.086 740.153 371.838C738.11 370.59 734.434 367.677 734.842 372.878C734.842 377.871 726.263 373.711 724.834 372.878Z" fill="url(#paint52_linear_0_1)"/>
<path d="M528.207 536.355C528.207 536.355 529.849 536.78 526.976 537.842C524.102 538.904 526.155 538.692 525.334 539.966C524.718 541.241 522.461 542.091 521.64 541.878C520.819 541.453 519.998 542.728 519.793 544.427C519.588 546.127 517.535 544.64 515.483 545.489C513.431 546.339 511.379 545.914 509.121 548.251C506.864 550.588 506.043 551.65 504.401 551.65C502.759 551.438 502.554 548.676 500.092 550.163C497.424 551.65 496.808 552.075 495.371 551.013C493.935 549.738 489.42 553.349 493.524 546.552C497.834 539.966 495.371 539.329 500.502 536.992C505.838 534.655 506.248 533.806 508.095 531.257C509.942 528.707 510.968 526.796 512.405 527.645C514.047 528.495 516.92 525.946 518.767 523.609C520.614 521.272 521.229 519.573 522.871 519.998C524.513 520.635 527.181 523.822 530.67 522.759C534.158 521.697 537.442 522.972 537.442 524.671C537.442 526.371 537.031 531.681 535.8 531.469C534.363 531.257 531.696 530.619 533.132 533.593C534.979 536.567 529.233 536.567 528.207 536.355Z" fill="url(#paint53_linear_0_1)"/>
<path d="M200.864 496.503C200.864 496.503 202.506 496.928 199.633 497.99C196.76 499.053 198.812 498.84 197.991 500.115C197.375 501.389 195.118 502.239 194.297 501.814C193.476 501.389 192.655 502.664 192.45 504.363C192.245 506.063 190.193 504.576 188.14 505.425C186.088 506.275 184.036 505.85 181.778 508.187C179.521 510.524 178.7 511.586 177.058 511.586C175.417 511.374 175.211 508.612 172.749 510.099C170.081 511.586 169.465 512.011 168.029 510.949C166.592 509.674 162.077 513.285 166.182 506.488C170.491 499.902 168.029 499.265 173.159 496.928C178.495 494.592 178.905 493.742 180.752 491.193C182.599 488.643 183.625 486.732 185.062 487.581C186.704 488.431 189.577 485.882 191.424 483.545C193.271 481.208 193.887 479.509 195.528 479.934C197.17 480.571 199.838 483.758 203.327 482.695C206.815 481.633 210.099 482.908 210.099 484.607C210.099 486.307 209.689 491.617 208.457 491.405C207.021 491.193 204.353 490.555 205.789 493.529C207.431 496.503 201.89 496.503 200.864 496.503Z" fill="url(#paint54_linear_0_1)"/>
<path d="M247.243 385.319C241.03 393.301 237.302 396.661 233.574 392.67C229.846 388.68 224.254 386.369 220.733 388.05C217.212 389.94 214.934 385.109 212.656 383.009C210.378 380.908 204.165 383.429 202.301 385.109C200.437 386.789 190.081 383.639 188.217 381.959C186.353 380.278 188.01 375.447 187.389 371.037C186.974 368.516 194.637 365.996 196.916 361.375C198.573 357.804 194.43 351.503 197.951 351.293C206.028 351.083 218.869 366.206 221.147 359.065C223.426 351.923 218.041 345.412 219.905 344.992C221.976 344.572 229.432 345.202 230.674 346.672C231.917 347.933 241.651 345.622 240.616 340.581C239.787 335.75 246.829 332.6 252.628 336.171C258.427 339.741 258.841 357.594 263.191 356.544C267.54 355.494 275.203 359.485 281.83 363.895C285.765 366.626 281.209 376.918 279.345 384.899C278.102 390.15 279.966 394.141 279.552 394.561C279.138 394.771 276.445 400.652 273.132 401.492C270.646 402.122 267.954 405.273 265.676 404.643C262.569 404.012 260.291 399.392 260.291 399.392C260.291 399.392 251.385 409.473 248.693 405.483C246 401.912 247.243 385.319 247.243 385.319Z" fill="url(#paint55_linear_0_1)"/>
<path d="M750.881 296.634C744.773 304.616 741.108 307.976 737.443 303.986C733.779 299.995 728.282 297.684 725.024 299.365C721.563 301.255 719.323 296.424 717.084 294.324C714.844 292.223 708.736 294.744 706.904 296.424C705.071 298.104 694.891 294.954 693.059 293.274C691.227 291.593 692.855 286.762 692.245 282.352C691.837 279.831 699.371 277.311 701.61 272.69C703.239 269.119 699.167 262.818 702.628 262.608C710.568 262.398 723.192 277.521 725.431 270.38C727.671 263.238 722.377 256.727 724.21 256.307C726.246 255.887 733.575 256.517 734.797 257.987C736.018 259.248 745.587 256.937 744.569 252.106C743.755 247.276 750.677 244.125 756.378 247.696C762.079 251.266 762.486 269.119 766.762 268.069C771.037 267.019 778.57 271.01 785.086 275.42C788.954 278.151 784.475 288.443 782.642 296.424C781.421 301.675 783.253 305.666 782.846 306.086C782.439 306.296 779.792 312.177 776.534 313.017C774.091 313.647 771.444 316.798 769.205 316.168C766.151 315.538 763.911 310.917 763.911 310.917C763.911 310.917 755.157 320.999 752.51 317.008C749.659 313.437 750.881 296.634 750.881 296.634Z" fill="url(#paint56_linear_0_1)"/>
<path d="M1287.69 393.666C1281.48 401.647 1277.75 405.008 1274.02 401.017C1270.3 397.027 1264.7 394.716 1261.39 396.397C1257.87 398.287 1255.59 393.456 1253.31 391.356C1251.03 389.255 1244.82 391.776 1242.96 393.456C1241.09 395.136 1230.74 391.986 1228.87 390.305C1227.01 388.625 1228.67 383.794 1228.05 379.384C1227.63 376.863 1235.29 374.343 1237.57 369.722C1239.23 366.151 1235.09 359.85 1238.61 359.64C1246.69 359.43 1259.53 374.553 1261.8 367.411C1264.08 360.27 1258.7 353.759 1260.56 353.339C1262.63 352.919 1270.09 353.549 1271.33 355.019C1272.57 356.279 1282.31 353.969 1281.27 348.928C1280.44 344.097 1287.49 340.947 1293.29 344.517C1299.08 348.088 1299.5 365.941 1303.85 364.891C1308.2 363.841 1315.86 367.831 1322.49 372.242C1326.42 374.973 1321.87 385.265 1320 393.246C1318.76 398.497 1320.62 402.488 1320.21 402.908C1319.8 403.118 1317.1 408.999 1313.79 409.839C1311.3 410.469 1308.61 413.62 1306.13 412.989C1303.02 412.359 1300.74 407.739 1300.74 407.739C1300.74 407.739 1291.84 417.82 1289.14 413.83C1286.45 410.259 1287.69 393.666 1287.69 393.666Z" fill="url(#paint57_linear_0_1)"/>
<path d="M718.101 785.93C717.117 785.11 716.133 782.979 715.15 779.373C712.69 769.375 711.378 766.752 706.458 768.719C701.539 770.686 701.211 769.539 700.227 761.015C699.243 752.656 691.536 740.363 681.041 739.543C670.546 738.723 663.987 729.544 653.656 720.857C643.161 712.006 643.653 699.385 618.563 690.698C593.474 681.846 607.74 698.401 597.081 712.17C586.258 725.938 583.471 714.792 581.503 710.695C579.371 706.433 576.911 708.728 576.255 710.695C575.6 712.662 575.272 722.168 569.04 713.809C562.809 705.45 562.809 709.22 562.481 710.695C562.153 712.17 551.658 716.104 546.902 708.4C541.983 700.696 537.883 706.925 519.845 713.809C501.807 720.693 505.251 724.463 505.251 715.284C505.251 706.105 498.691 708.4 488.852 706.433C479.177 704.466 470.486 719.382 469.338 711.842C468.354 704.138 453.76 711.842 454.744 709.875C455.728 707.908 452.284 696.107 448.184 690.698C444.085 685.289 444.413 687.583 442.281 689.55C440.149 691.517 441.297 701.844 434.246 707.089C427.358 712.498 421.783 709.056 421.783 706.269C421.783 703.647 414.076 689.386 407.516 686.436C400.957 683.322 400.301 672.667 394.726 671.848C389.15 671.028 388.822 683.322 386.69 686.764C384.559 690.206 381.443 688.731 380.459 681.846C379.475 674.962 371.112 674.962 365.209 674.962C359.305 674.962 356.517 670.373 350.286 662.013C344.055 653.654 337.823 656.276 323.229 662.013C308.634 667.75 303.715 667.75 292.236 666.931C280.757 666.111 281.413 669.225 276.329 671.192C271.082 673.159 271.738 670.045 265.507 671.192C259.275 672.34 264.195 686.928 260.915 683.486C257.799 680.043 247.304 677.421 240.089 676.929C232.874 676.601 224.511 680.371 216.147 681.519C207.784 682.666 205.653 685.289 199.749 691.845C193.846 698.401 191.714 705.941 185.811 712.826C183.679 715.284 180.727 718.235 177.611 720.693V785.93H718.101Z" fill="url(#paint58_linear_0_1)"/>
</g>
<rect x="124.867" y="726.051" width="10.6751" height="504.012" rx="5.33756" transform="rotate(-90 124.867 726.051)" fill="url(#paint59_linear_0_1)"/>
<rect x="825.691" y="1141.07" width="10.6751" height="504.012" rx="5.33756" transform="rotate(-90 825.691 1141.07)" fill="url(#paint60_linear_0_1)"/>
<rect x="371.537" y="467.113" width="10.6751" height="504.012" rx="5.33756" transform="rotate(-90 371.537 467.113)" fill="url(#paint61_linear_0_1)"/>
<rect x="499.834" y="995.865" width="10.6751" height="504.012" rx="5.33756" transform="rotate(-90 499.834 995.865)" fill="url(#paint62_linear_0_1)"/>
<rect x="602.53" y="123.004" width="10.6751" height="504.012" rx="5.33756" transform="rotate(-90 602.53 123.004)" fill="url(#paint63_linear_0_1)"/>
<rect x="761.821" y="315.43" width="10.4963" height="687.178" rx="5.24815" transform="rotate(-90 761.821 315.43)" fill="url(#paint64_linear_0_1)"/>
<rect x="31.5498" y="590.582" width="10.4963" height="680.253" rx="5.24815" transform="rotate(-90 31.5498 590.582)" fill="url(#paint65_linear_0_1)"/>
<rect x="500.955" y="836.495" width="10.4963" height="866.476" rx="5.24815" transform="rotate(-90 500.955 836.495)" fill="url(#paint66_linear_0_1)"/>
<rect x="781.06" y="609.325" width="10.4963" height="651.011" rx="5.24815" transform="rotate(-90 781.06 609.325)" fill="url(#paint67_linear_0_1)"/>
<rect x="1128.85" y="1033.41" width="10.6751" height="262.562" rx="5.33756" transform="rotate(-90 1128.85 1033.41)" fill="url(#paint68_linear_0_1)"/>
<rect x="305.721" y="52.6751" width="10.6751" height="262.562" rx="5.33756" transform="rotate(-90 305.721 52.6751)" fill="url(#paint69_linear_0_1)"/>
<rect x="206.23" y="943.707" width="10.4963" height="771.056" rx="5.24815" transform="rotate(-90 206.23 943.707)" fill="url(#paint70_linear_0_1)"/>
<rect x="81.5684" y="403.898" width="11.246" height="680.253" rx="5.62302" transform="rotate(-90 81.5684 403.898)" fill="url(#paint71_linear_0_1)"/>
<rect x="863.397" y="755.523" width="10.4963" height="504.033" rx="5.24815" transform="rotate(-90 863.397 755.523)" fill="url(#paint72_linear_0_1)"/>
<rect x="247.015" y="1125.14" width="10.4963" height="464.788" rx="5.24815" transform="rotate(-90 247.015 1125.14)" fill="url(#paint73_linear_0_1)"/>
<rect x="247.015" y="304.933" width="10.4963" height="403.996" rx="5.24815" transform="rotate(-90 247.015 304.933)" fill="url(#paint74_linear_0_1)"/>
<rect x="977.089" y="462.385" width="10.6751" height="262.562" rx="5.33756" transform="rotate(-90 977.089 462.385)" fill="url(#paint75_linear_0_1)"/>
<rect y="204.469" width="10.4963" height="975.747" rx="5.24815" transform="rotate(-90 0 204.469)" fill="url(#paint76_linear_0_1)"/>
<defs>
<linearGradient id="paint0_linear_0_1" x1="706.351" y1="0" x2="706.351" y2="1062.7" gradientUnits="userSpaceOnUse">
<stop stop-color="#626D7C"/>
<stop offset="1" stop-color="#708CA7"/>
</linearGradient>
<linearGradient id="paint1_linear_0_1" x1="695.964" y1="0" x2="695.964" y2="1062.7" gradientUnits="userSpaceOnUse">
<stop stop-color="#626D7C"/>
<stop offset="1" stop-color="#708CA7"/>
</linearGradient>
<linearGradient id="paint2_linear_0_1" x1="1334.46" y1="413.851" x2="133.068" y2="413.855" gradientUnits="userSpaceOnUse">
<stop stop-color="#FEFEFE" stop-opacity="0"/>
<stop offset="1" stop-color="white"/>
</linearGradient>
<linearGradient id="paint3_linear_0_1" x1="1175.13" y1="5.21927" x2="-26.2661" y2="5.2223" gradientUnits="userSpaceOnUse">
<stop stop-color="#FEFEFE" stop-opacity="0"/>
<stop offset="1" stop-color="white"/>
</linearGradient>
<linearGradient id="paint4_linear_0_1" x1="1175.13" y1="3.91445" x2="-26.2661" y2="3.91849" gradientUnits="userSpaceOnUse">
<stop stop-color="#FEFEFE" stop-opacity="0"/>
<stop offset="1" stop-color="white"/>
</linearGradient>
<linearGradient id="paint5_linear_0_1" x1="1131.03" y1="748.067" x2="12.1512" y2="748.071" gradientUnits="userSpaceOnUse">
<stop stop-color="#FEFEFE" stop-opacity="0"/>
<stop offset="1" stop-color="white"/>
</linearGradient>
<linearGradient id="paint6_linear_0_1" x1="2618.03" y1="569.209" x2="1499.15" y2="569.213" gradientUnits="userSpaceOnUse">
<stop stop-color="#FEFEFE" stop-opacity="0"/>
<stop offset="1" stop-color="white"/>
</linearGradient>
<linearGradient id="paint7_linear_0_1" x1="2565.53" y1="839.455" x2="1306.79" y2="839.459" gradientUnits="userSpaceOnUse">
<stop stop-color="#FEFEFE" stop-opacity="0"/>
<stop offset="1" stop-color="white"/>
</linearGradient>
<linearGradient id="paint8_linear_0_1" x1="2465.28" y1="596.625" x2="1346.41" y2="596.629" gradientUnits="userSpaceOnUse">
<stop stop-color="#FEFEFE" stop-opacity="0"/>
<stop offset="1" stop-color="white"/>
</linearGradient>
<linearGradient id="paint9_linear_0_1" x1="1009.97" y1="659.027" x2="1009.97" y2="741.136" gradientUnits="userSpaceOnUse">
<stop stop-color="white"/>
<stop offset="1" stop-color="#666E83"/>
</linearGradient>
<linearGradient id="paint10_linear_0_1" x1="390.811" y1="818.36" x2="390.811" y2="882.331" gradientUnits="userSpaceOnUse">
<stop stop-color="white"/>
<stop offset="1" stop-color="#666E83"/>
</linearGradient>
<linearGradient id="paint11_linear_0_1" x1="893.502" y1="825.265" x2="893.502" y2="779.499" gradientUnits="userSpaceOnUse">
<stop stop-color="white"/>
<stop offset="1" stop-color="#666E83"/>
</linearGradient>
<linearGradient id="paint12_linear_0_1" x1="759.829" y1="876.38" x2="759.829" y2="820.128" gradientUnits="userSpaceOnUse">
<stop stop-color="white"/>
<stop offset="1" stop-color="#666E83"/>
</linearGradient>
<linearGradient id="paint13_linear_0_1" x1="1235.18" y1="-36.972" x2="1051.6" y2="157.565" gradientUnits="userSpaceOnUse">
<stop stop-color="#FEFEFE"/>
<stop offset="1" stop-color="#BFBFBF"/>
</linearGradient>
<linearGradient id="paint14_linear_0_1" x1="654.768" y1="-80.5141" x2="619.613" y2="305.318" gradientUnits="userSpaceOnUse">
<stop stop-color="#FEFEFE"/>
<stop offset="1" stop-color="#BFBFBF"/>
</linearGradient>
<linearGradient id="paint15_linear_0_1" x1="798.601" y1="214.108" x2="798.601" y2="-68.3652" gradientUnits="userSpaceOnUse">
<stop stop-color="white"/>
<stop offset="1" stop-color="#666E83"/>
</linearGradient>
<linearGradient id="paint16_linear_0_1" x1="238.693" y1="85.1992" x2="238.693" y2="-112.983" gradientUnits="userSpaceOnUse">
<stop stop-color="white"/>
<stop offset="1" stop-color="#666E83"/>
</linearGradient>
<linearGradient id="paint17_linear_0_1" x1="622.209" y1="75.0729" x2="622.209" y2="-37.4452" gradientUnits="userSpaceOnUse">
<stop stop-color="white"/>
<stop offset="1" stop-color="#666E83"/>
</linearGradient>
<linearGradient id="paint18_linear_0_1" x1="1193.8" y1="123.806" x2="1193.8" y2="44.7083" gradientUnits="userSpaceOnUse">
<stop stop-color="white"/>
<stop offset="1" stop-color="#666E83"/>
</linearGradient>
<linearGradient id="paint19_linear_0_1" x1="1142.47" y1="92.0227" x2="1142.47" y2="-81.2267" gradientUnits="userSpaceOnUse">
<stop stop-color="white"/>
<stop offset="1" stop-color="#666E83"/>
</linearGradient>
<linearGradient id="paint20_linear_0_1" x1="684.377" y1="18.0165" x2="684.377" y2="-76.2371" gradientUnits="userSpaceOnUse">
<stop stop-color="white"/>
<stop offset="1" stop-color="#666E83"/>
</linearGradient>
<linearGradient id="paint21_linear_0_1" x1="522.695" y1="88.4411" x2="522.695" y2="-7.45264" gradientUnits="userSpaceOnUse">
<stop stop-color="white"/>
<stop offset="1" stop-color="#666E83"/>
</linearGradient>
<linearGradient id="paint22_linear_0_1" x1="1346.06" y1="51.5099" x2="1346.06" y2="-81.6412" gradientUnits="userSpaceOnUse">
<stop stop-color="white"/>
<stop offset="1" stop-color="#666E83"/>
</linearGradient>
<linearGradient id="paint23_linear_0_1" x1="811.559" y1="-251.084" x2="811.559" y2="28.4664" gradientUnits="userSpaceOnUse">
<stop stop-color="white"/>
<stop offset="1" stop-color="#5F5E7C"/>
</linearGradient>
<linearGradient id="paint24_linear_0_1" x1="475.381" y1="-65.9611" x2="475.381" y2="2.91708" gradientUnits="userSpaceOnUse">
<stop stop-color="white"/>
<stop offset="1" stop-color="#5F5E7C"/>
</linearGradient>
<linearGradient id="paint25_linear_0_1" x1="828.625" y1="77.0696" x2="828.625" y2="-28.6266" gradientUnits="userSpaceOnUse">
<stop stop-color="white"/>
<stop offset="1" stop-color="#5F5E7C"/>
</linearGradient>
<linearGradient id="paint26_linear_0_1" x1="1245.04" y1="170.874" x2="1245.04" y2="-69.3324" gradientUnits="userSpaceOnUse">
<stop stop-color="white"/>
<stop offset="1" stop-color="#666E83"/>
</linearGradient>
<linearGradient id="paint27_linear_0_1" x1="296.307" y1="-49.3987" x2="296.307" y2="12.7984" gradientUnits="userSpaceOnUse">
<stop stop-color="white"/>
<stop offset="1" stop-color="#666E83"/>
</linearGradient>
<linearGradient id="paint28_linear_0_1" x1="295.44" y1="75.3185" x2="295.44" y2="-8.70923" gradientUnits="userSpaceOnUse">
<stop stop-color="white"/>
<stop offset="1" stop-color="#666E83"/>
</linearGradient>
<linearGradient id="paint29_linear_0_1" x1="975.91" y1="115.455" x2="975.91" y2="83.5378" gradientUnits="userSpaceOnUse">
<stop stop-color="white"/>
<stop offset="1" stop-color="#666E83"/>
</linearGradient>
<linearGradient id="paint30_linear_0_1" x1="1353.83" y1="331.294" x2="-41.9017" y2="331.299" gradientUnits="userSpaceOnUse">
<stop stop-color="#FEFEFE" stop-opacity="0"/>
<stop offset="1" stop-color="white"/>
</linearGradient>
<linearGradient id="paint31_linear_0_1" x1="252.808" y1="400.317" x2="434.962" y2="596.633" gradientUnits="userSpaceOnUse">
<stop stop-color="#FEFEFE"/>
<stop offset="1" stop-color="#BFBFBF"/>
</linearGradient>
<linearGradient id="paint32_linear_0_1" x1="839.192" y1="357.065" x2="873.535" y2="740.424" gradientUnits="userSpaceOnUse">
<stop stop-color="#FEFEFE"/>
<stop offset="1" stop-color="#BFBFBF"/>
</linearGradient>
<linearGradient id="paint33_linear_0_1" x1="693.88" y1="649.718" x2="693.88" y2="369.133" gradientUnits="userSpaceOnUse">
<stop stop-color="white"/>
<stop offset="1" stop-color="#666E83"/>
</linearGradient>
<linearGradient id="paint34_linear_0_1" x1="1259.55" y1="521.671" x2="1259.55" y2="324.814" gradientUnits="userSpaceOnUse">
<stop stop-color="white"/>
<stop offset="1" stop-color="#666E83"/>
</linearGradient>
<linearGradient id="paint35_linear_0_1" x1="872.086" y1="511.613" x2="872.086" y2="399.847" gradientUnits="userSpaceOnUse">
<stop stop-color="white"/>
<stop offset="1" stop-color="#666E83"/>
</linearGradient>
<linearGradient id="paint36_linear_0_1" x1="294.614" y1="560.019" x2="294.614" y2="481.451" gradientUnits="userSpaceOnUse">
<stop stop-color="white"/>
<stop offset="1" stop-color="#666E83"/>
</linearGradient>
<linearGradient id="paint37_linear_0_1" x1="346.477" y1="528.449" x2="346.477" y2="356.358" gradientUnits="userSpaceOnUse">
<stop stop-color="white"/>
<stop offset="1" stop-color="#666E83"/>
</linearGradient>
<linearGradient id="paint38_linear_0_1" x1="809.279" y1="454.938" x2="809.279" y2="361.314" gradientUnits="userSpaceOnUse">
<stop stop-color="white"/>
<stop offset="1" stop-color="#666E83"/>
</linearGradient>
<linearGradient id="paint39_linear_0_1" x1="272.213" y1="151.698" x2="272.213" y2="383.763" gradientUnits="userSpaceOnUse">
<stop stop-color="white"/>
<stop offset="1" stop-color="#666E83"/>
</linearGradient>
<linearGradient id="paint40_linear_0_1" x1="1019.56" y1="162.577" x2="1019.56" y2="327.966" gradientUnits="userSpaceOnUse">
<stop stop-color="white"/>
<stop offset="1" stop-color="#666E83"/>
</linearGradient>
<linearGradient id="paint41_linear_0_1" x1="972.624" y1="524.891" x2="972.624" y2="429.639" gradientUnits="userSpaceOnUse">
<stop stop-color="white"/>
<stop offset="1" stop-color="#666E83"/>
</linearGradient>
<linearGradient id="paint42_linear_0_1" x1="140.794" y1="488.207" x2="140.794" y2="355.946" gradientUnits="userSpaceOnUse">
<stop stop-color="white"/>
<stop offset="1" stop-color="#666E83"/>
</linearGradient>
<linearGradient id="paint43_linear_0_1" x1="680.788" y1="187.636" x2="680.788" y2="465.318" gradientUnits="userSpaceOnUse">
<stop stop-color="white"/>
<stop offset="1" stop-color="#666E83"/>
</linearGradient>
<linearGradient id="paint44_linear_0_1" x1="1020.42" y1="371.521" x2="1020.42" y2="439.939" gradientUnits="userSpaceOnUse">
<stop stop-color="white"/>
<stop offset="1" stop-color="#666E83"/>
</linearGradient>
<linearGradient id="paint45_linear_0_1" x1="663.548" y1="513.596" x2="663.548" y2="408.606" gradientUnits="userSpaceOnUse">
<stop stop-color="white"/>
<stop offset="1" stop-color="#666E83"/>
</linearGradient>
<linearGradient id="paint46_linear_0_1" x1="242.849" y1="606.774" x2="242.849" y2="368.172" gradientUnits="userSpaceOnUse">
<stop stop-color="white"/>
<stop offset="1" stop-color="#666E83"/>
</linearGradient>
<linearGradient id="paint47_linear_0_1" x1="1201.34" y1="387.973" x2="1201.34" y2="449.754" gradientUnits="userSpaceOnUse">
<stop stop-color="white"/>
<stop offset="1" stop-color="#666E83"/>
</linearGradient>
<linearGradient id="paint48_linear_0_1" x1="1202.22" y1="511.857" x2="1202.22" y2="428.391" gradientUnits="userSpaceOnUse">
<stop stop-color="white"/>
<stop offset="1" stop-color="#666E83"/>
</linearGradient>
<linearGradient id="paint49_linear_0_1" x1="1025.86" y1="418.344" x2="1025.86" y2="361.496" gradientUnits="userSpaceOnUse">
<stop stop-color="white"/>
<stop offset="1" stop-color="#666E83"/>
</linearGradient>
<linearGradient id="paint50_linear_0_1" x1="882.464" y1="363.23" x2="882.464" y2="304.711" gradientUnits="userSpaceOnUse">
<stop stop-color="white"/>
<stop offset="1" stop-color="#666E83"/>
</linearGradient>
<linearGradient id="paint51_linear_0_1" x1="525.902" y1="408.459" x2="525.902" y2="349.94" gradientUnits="userSpaceOnUse">
<stop stop-color="white"/>
<stop offset="1" stop-color="#666E83"/>
</linearGradient>
<linearGradient id="paint52_linear_0_1" x1="704.026" y1="379.503" x2="704.028" y2="344.204" gradientUnits="userSpaceOnUse">
<stop stop-color="white"/>
<stop offset="1" stop-color="#666E83"/>
</linearGradient>
<linearGradient id="paint53_linear_0_1" x1="514.748" y1="551.725" x2="514.748" y2="520.021" gradientUnits="userSpaceOnUse">
<stop stop-color="white"/>
<stop offset="1" stop-color="#666E83"/>
</linearGradient>
<linearGradient id="paint54_linear_0_1" x1="187.342" y1="511.755" x2="187.342" y2="480.052" gradientUnits="userSpaceOnUse">
<stop stop-color="white"/>
<stop offset="1" stop-color="#666E83"/>
</linearGradient>
<linearGradient id="paint55_linear_0_1" x1="235.28" y1="406.889" x2="235.279" y2="334.961" gradientUnits="userSpaceOnUse">
<stop stop-color="white"/>
<stop offset="1" stop-color="#666E83"/>
</linearGradient>
<linearGradient id="paint56_linear_0_1" x1="739.138" y1="318.234" x2="739.138" y2="246.305" gradientUnits="userSpaceOnUse">
<stop stop-color="white"/>
<stop offset="1" stop-color="#666E83"/>
</linearGradient>
<linearGradient id="paint57_linear_0_1" x1="1275.87" y1="415.205" x2="1275.87" y2="343.275" gradientUnits="userSpaceOnUse">
<stop stop-color="white"/>
<stop offset="1" stop-color="#666E83"/>
</linearGradient>
<linearGradient id="paint58_linear_0_1" x1="447.906" y1="646.147" x2="447.906" y2="775.492" gradientUnits="userSpaceOnUse">
<stop stop-color="white"/>
<stop offset="1" stop-color="#666E83"/>
</linearGradient>
<linearGradient id="paint59_linear_0_1" x1="130.205" y1="726.051" x2="130.205" y2="1230.06" gradientUnits="userSpaceOnUse">
<stop stop-color="white"/>
<stop offset="1" stop-color="#D9D9D9" stop-opacity="0"/>
</linearGradient>
<linearGradient id="paint60_linear_0_1" x1="831.029" y1="1141.07" x2="831.029" y2="1645.08" gradientUnits="userSpaceOnUse">
<stop stop-color="white"/>
<stop offset="1" stop-color="#D9D9D9" stop-opacity="0"/>
</linearGradient>
<linearGradient id="paint61_linear_0_1" x1="376.875" y1="467.113" x2="376.875" y2="971.125" gradientUnits="userSpaceOnUse">
<stop stop-color="white"/>
<stop offset="1" stop-color="#D9D9D9" stop-opacity="0"/>
</linearGradient>
<linearGradient id="paint62_linear_0_1" x1="505.172" y1="995.865" x2="505.172" y2="1499.88" gradientUnits="userSpaceOnUse">
<stop stop-color="white"/>
<stop offset="1" stop-color="#D9D9D9" stop-opacity="0"/>
</linearGradient>
<linearGradient id="paint63_linear_0_1" x1="607.868" y1="123.004" x2="607.868" y2="627.016" gradientUnits="userSpaceOnUse">
<stop stop-color="white"/>
<stop offset="1" stop-color="#D9D9D9" stop-opacity="0"/>
</linearGradient>
<linearGradient id="paint64_linear_0_1" x1="767.069" y1="315.43" x2="767.069" y2="1002.61" gradientUnits="userSpaceOnUse">
<stop stop-color="white"/>
<stop offset="1" stop-color="#D9D9D9" stop-opacity="0"/>
</linearGradient>
<linearGradient id="paint65_linear_0_1" x1="36.798" y1="590.582" x2="36.798" y2="1270.83" gradientUnits="userSpaceOnUse">
<stop stop-color="white"/>
<stop offset="1" stop-color="#D9D9D9" stop-opacity="0"/>
</linearGradient>
<linearGradient id="paint66_linear_0_1" x1="506.203" y1="836.495" x2="506.203" y2="1702.97" gradientUnits="userSpaceOnUse">
<stop stop-color="white"/>
<stop offset="1" stop-color="#D9D9D9" stop-opacity="0"/>
</linearGradient>
<linearGradient id="paint67_linear_0_1" x1="786.308" y1="609.325" x2="786.308" y2="1260.34" gradientUnits="userSpaceOnUse">
<stop stop-color="white"/>
<stop offset="1" stop-color="#D9D9D9" stop-opacity="0"/>
</linearGradient>
<linearGradient id="paint68_linear_0_1" x1="1134.19" y1="1033.41" x2="1134.19" y2="1295.97" gradientUnits="userSpaceOnUse">
<stop stop-color="white"/>
<stop offset="1" stop-color="#D9D9D9" stop-opacity="0"/>
</linearGradient>
<linearGradient id="paint69_linear_0_1" x1="311.058" y1="52.6751" x2="311.058" y2="315.237" gradientUnits="userSpaceOnUse">
<stop stop-color="white"/>
<stop offset="1" stop-color="#D9D9D9" stop-opacity="0"/>
</linearGradient>
<linearGradient id="paint70_linear_0_1" x1="211.479" y1="943.707" x2="211.479" y2="1714.76" gradientUnits="userSpaceOnUse">
<stop stop-color="white"/>
<stop offset="1" stop-color="#D9D9D9" stop-opacity="0"/>
</linearGradient>
<linearGradient id="paint71_linear_0_1" x1="87.1914" y1="403.898" x2="87.1914" y2="1084.15" gradientUnits="userSpaceOnUse">
<stop stop-color="white"/>
<stop offset="1" stop-color="#D9D9D9" stop-opacity="0"/>
</linearGradient>
<linearGradient id="paint72_linear_0_1" x1="868.646" y1="755.523" x2="868.646" y2="1259.56" gradientUnits="userSpaceOnUse">
<stop stop-color="white"/>
<stop offset="1" stop-color="#D9D9D9" stop-opacity="0"/>
</linearGradient>
<linearGradient id="paint73_linear_0_1" x1="252.263" y1="1125.14" x2="252.263" y2="1589.93" gradientUnits="userSpaceOnUse">
<stop stop-color="white"/>
<stop offset="1" stop-color="#D9D9D9" stop-opacity="0"/>
</linearGradient>
<linearGradient id="paint74_linear_0_1" x1="252.263" y1="304.933" x2="252.263" y2="708.93" gradientUnits="userSpaceOnUse">
<stop stop-color="white"/>
<stop offset="1" stop-color="#D9D9D9" stop-opacity="0"/>
</linearGradient>
<linearGradient id="paint75_linear_0_1" x1="982.426" y1="462.385" x2="982.426" y2="724.946" gradientUnits="userSpaceOnUse">
<stop stop-color="white"/>
<stop offset="1" stop-color="#D9D9D9" stop-opacity="0"/>
</linearGradient>
<linearGradient id="paint76_linear_0_1" x1="5.24815" y1="204.469" x2="5.24815" y2="1180.22" gradientUnits="userSpaceOnUse">
<stop stop-color="white"/>
<stop offset="1" stop-color="#D9D9D9" stop-opacity="0"/>
</linearGradient>
</defs>
</svg>
