<?xml version="1.0" encoding="utf-8"?>
<!-- Generator: Adobe Illustrator 23.0.5, SVG Export Plug-In . SVG Version: 6.00 Build 0)  -->
<svg version="1.1" id="Слой_1" xmlns="http://www.w3.org/2000/svg" xmlns:xlink="http://www.w3.org/1999/xlink" x="0px" y="0px"
	 width="1063.6px" height="1063px" viewBox="0 0 1063.6 1063" style="enable-background:new 0 0 1063.6 1063;" xml:space="preserve"
	>
<style type="text/css">
	.st0{fill:url(#SVGID_1_);}
	.st1{fill:url(#SVGID_2_);}
	.st2{fill:url(#SVGID_3_);}
	.st3{fill:url(#SVGID_4_);}
	.st4{fill:url(#SVGID_5_);}
	.st5{fill:url(#SVGID_6_);}
	.st6{fill:url(#SVGID_7_);}
	.st7{fill:url(#SVGID_8_);}
	.st8{fill:url(#SVGID_9_);}
	.st9{fill:url(#SVGID_10_);}
	.st10{fill:url(#SVGID_11_);}
	.st11{fill:url(#SVGID_12_);}
	.st12{fill:url(#SVGID_13_);}
	.st13{fill:url(#SVGID_14_);}
	.st14{fill:url(#SVGID_15_);}
	.st15{fill:url(#SVGID_16_);}
	.st16{fill:url(#SVGID_17_);}
	.st17{fill:url(#SVGID_18_);}
	.st18{fill:url(#SVGID_19_);}
	.st19{fill:url(#SVGID_20_);}
	.st20{fill:url(#SVGID_21_);}
	.st21{fill:url(#SVGID_22_);}
	.st22{fill:url(#SVGID_23_);}
	.st23{fill:url(#SVGID_24_);}
	.st24{fill:url(#SVGID_25_);}
	.st25{fill:url(#SVGID_26_);}
	.st26{fill:url(#SVGID_27_);}
	.st27{fill:url(#SVGID_28_);}
	.st28{fill:url(#SVGID_29_);}
	.st29{fill:url(#SVGID_30_);}
	.st30{fill:url(#SVGID_31_);}
	.st31{fill:url(#SVGID_32_);}
	.st32{fill:url(#SVGID_33_);}
	.st33{fill:url(#SVGID_34_);}
	.st34{fill:url(#SVGID_35_);}
	.st35{fill:url(#SVGID_36_);}
	.st36{fill:url(#SVGID_37_);}
	.st37{fill:url(#SVGID_38_);}
	.st38{fill:url(#SVGID_39_);}
	.st39{fill:url(#SVGID_40_);}
	.st40{fill:url(#SVGID_41_);}
	.st41{fill:url(#SVGID_42_);}
	.st42{fill:url(#SVGID_43_);}
	.st43{fill:url(#SVGID_44_);}
	.st44{fill:url(#SVGID_45_);}
	.st45{fill:url(#SVGID_46_);}
	.st46{fill:url(#SVGID_47_);}
</style>
<linearGradient id="SVGID_1_" gradientUnits="userSpaceOnUse" x1="532.3622" y1="1061.8898" x2="532.3622" y2="-1.1102" gradientTransform="matrix(1 0 0 -1 0 1061.8898)">
	<stop  offset="0" style="stop-color:#6CA2F3"/>
	<stop  offset="1" style="stop-color:#F9F3F6"/>
</linearGradient>
<rect x="1.5" y="0" class="st0" width="1061.7" height="1063"/>
<linearGradient id="SVGID_2_" gradientUnits="userSpaceOnUse" x1="1060.9768" y1="654.3273" x2="-56.8383" y2="654.3234" gradientTransform="matrix(1 0 0 -1 0 1061.8898)">
	<stop  offset="0" style="stop-color:#FEFEFE;stop-opacity:0"/>
	<stop  offset="1" style="stop-color:#FFFFFF"/>
</linearGradient>
<rect x="-32.4" y="405.6" class="st1" width="1043.4" height="3.9"/>
<linearGradient id="SVGID_3_" gradientUnits="userSpaceOnUse" x1="1159.877" y1="649.7542" x2="-40.3807" y2="649.7512" gradientTransform="matrix(1 0 0 -1 0 1061.8898)">
	<stop  offset="0" style="stop-color:#FEFEFE;stop-opacity:0"/>
	<stop  offset="1" style="stop-color:#FFFFFF"/>
</linearGradient>
<rect x="-14.1" y="409.5" class="st2" width="1120.4" height="5.2"/>
<linearGradient id="SVGID_4_" gradientUnits="userSpaceOnUse" x1="1927.2668" y1="1059.9663" x2="727.0155" y2="1059.9622" gradientTransform="matrix(-1 0 0 -1 1828.2043 1206.6667)">
	<stop  offset="0" style="stop-color:#FEFEFE;stop-opacity:0"/>
	<stop  offset="1" style="stop-color:#FFFFFF"/>
</linearGradient>
<rect x="-45.4" y="144.8" class="st3" width="1120.4" height="3.9"/>
<linearGradient id="SVGID_5_" gradientUnits="userSpaceOnUse" x1="1927.2668" y1="1059.9663" x2="727.0155" y2="1059.9622" gradientTransform="matrix(-1 0 0 -1 1859.5044 1196.2318)">
	<stop  offset="0" style="stop-color:#FEFEFE;stop-opacity:0"/>
	<stop  offset="1" style="stop-color:#FFFFFF"/>
</linearGradient>
<rect x="-14.1" y="134.3" class="st4" width="1120.4" height="3.9"/>
<linearGradient id="SVGID_6_" gradientUnits="userSpaceOnUse" x1="956.6369" y1="316.5081" x2="-161.1819" y2="316.5051" gradientTransform="matrix(1 0 0 -1 0 1061.8898)">
	<stop  offset="0" style="stop-color:#FEFEFE;stop-opacity:0"/>
	<stop  offset="1" style="stop-color:#FFFFFF"/>
</linearGradient>
<rect x="-136.7" y="743.4" class="st5" width="1043.4" height="3.9"/>
<linearGradient id="SVGID_7_" gradientUnits="userSpaceOnUse" x1="3332.2275" y1="275.214" x2="2214.4077" y2="275.2098" gradientTransform="matrix(-1 0 0 1 3587.6943 287.6302)">
	<stop  offset="0" style="stop-color:#FEFEFE;stop-opacity:0"/>
	<stop  offset="1" style="stop-color:#FFFFFF"/>
</linearGradient>
<rect x="305.4" y="560.8" class="st6" width="1043.4" height="3.9"/>
<linearGradient id="SVGID_8_" gradientUnits="userSpaceOnUse" x1="3279.7776" y1="5.2287" x2="2022.2277" y2="5.2237" gradientTransform="matrix(-1 0 0 1 3209.4543 827.6062)">
	<stop  offset="0" style="stop-color:#FEFEFE;stop-opacity:0"/>
	<stop  offset="1" style="stop-color:#FFFFFF"/>
</linearGradient>
<rect x="-14.1" y="830.8" class="st7" width="1173.9" height="3.9"/>
<linearGradient id="SVGID_9_" gradientUnits="userSpaceOnUse" x1="3179.6177" y1="245.8558" x2="2061.8076" y2="245.8528" gradientTransform="matrix(-1 0 0 1 3282.4944 345.0182)">
	<stop  offset="0" style="stop-color:#FEFEFE;stop-opacity:0"/>
	<stop  offset="1" style="stop-color:#FFFFFF"/>
</linearGradient>
<rect x="152.8" y="588.2" class="st8" width="1043.4" height="5.2"/>
<linearGradient id="SVGID_10_" gradientUnits="userSpaceOnUse" x1="1076.9669" y1="677.9901" x2="-67.7707" y2="677.9871" gradientTransform="matrix(1 0 0 -1 0 1061.8898)">
	<stop  offset="0" style="stop-color:#FEFEFE;stop-opacity:0"/>
	<stop  offset="1" style="stop-color:#FFFFFF"/>
</linearGradient>
<rect x="-42.7" y="381.9" class="st9" width="1068.6" height="4.1"/>
<linearGradient id="SVGID_11_" gradientUnits="userSpaceOnUse" x1="171.3457" y1="616.8966" x2="320.7448" y2="455.8826" gradientTransform="matrix(1 0 0 -1 0 1061.8898)">
	<stop  offset="0" style="stop-color:#FEFEFE"/>
	<stop  offset="1" style="stop-color:#BFBFBF"/>
</linearGradient>
<path class="st10" d="M96.7,474.5l-21.2,9.7c-2.9,1.3-4.7,4.2-4.7,7.3c0,4.4,3.6,8.1,8.1,8.1h270.8c4.6,0,8.3-3.7,8.3-8.3
	c0-3-1.6-5.8-4.3-7.3l-18.1-10c-2.4-1.3-5-2-7.7-2h-17.3c-4.3,0-8.4,1.7-11.4,4.8l-4.7,4.8c-3,3.1-7.1,4.8-11.4,4.8h-19.5
	c-2,0-4.1-0.4-6-1.2L224.7,472l-26.2-9.4c-4.7-1.7-9.9-1.1-14.1,1.6l-28.3,18.2c-3.9,2.5-8.8,3.2-13.3,1.9L108,473.8
	C104.3,472.7,100.3,472.9,96.7,474.5z"/>
<linearGradient id="SVGID_12_" gradientUnits="userSpaceOnUse" x1="718.7983" y1="660.5047" x2="746.9653" y2="346.0837" gradientTransform="matrix(1 0 0 -1 0 1061.8898)">
	<stop  offset="0" style="stop-color:#FEFEFE"/>
	<stop  offset="1" style="stop-color:#BFBFBF"/>
</linearGradient>
<path class="st11" d="M528.4,443.9c-16.4,12.3-40.5,30.3-52,38.9c-4,3-6.3,7.6-6.3,12.6v1.9c0,8.8,7.2,16,16,16h482.2
	c8.8,0,16-7.2,16-16v-2.2c0-4.8-2.2-9.4-5.9-12.4c-15.2-12.1-38.5-29.6-43.1-28.8c-6.5,1.1-52.3,33.6-59.9,33.6
	c-7.6,0-89.3-15.7-102.4-23.5c-13.1-7.8-76.3-24.6-82.8-24.6c-6.5,0-49,28-58.8,24.6c-7.2-2.5-58.9-15.3-89.7-22.9
	C537.1,440,532.2,441,528.4,443.9z"/>
<linearGradient id="SVGID_13_" gradientUnits="userSpaceOnUse" x1="535.6217" y1="414.7527" x2="535.6217" y2="644.7704" gradientTransform="matrix(1 0 0 -1 0 1061.8898)">
	<stop  offset="0" style="stop-color:#FFFFFF"/>
	<stop  offset="1" style="stop-color:#CCEDFF"/>
</linearGradient>
<path class="st12" d="M3.7,392.8c-4.2,1.5-8.1,3.1-11.7,4.6v141.2c1.8,0.2,2.3,1.9,3,6.4c1,6.2,8.6,15.5,19,16
	c10.4,0.5,16.9,7.4,27.2,13.9c10.4,6.5,5.5,14.6,30.4,21.2c24.8,6.5,15.1-4.5,25.8-14.6c10.7-10.3,5.2-2.2,7.2,0.9
	c2,3.1,8.6,0.7,9.2-0.7c0.7-1.4,5-7.6,11.2-1.2c6.2,6.2,6.2,3.4,6.5,2.2c0.3-1.2,10.7-4,15.4,1.7c4.9,5.7,8.9,1.2,26.9-4
	c18-5.2,14.4-7.9,14.4-1.2c0,6.9,6.5,5.2,16.1,6.5c9.6,1.4,18.3-9.6,19.3-4c1,5.7,15.4,0,14.4,1.4c-1,1.4,0.3,4.1,4.5,8.1
	c4.2,4,5.9,2.2,7.9,0.9c2-1.4,1-2.9,7.9-6.9c6.9-4,12.4-1.4,12.4,0.5c0,2.1,7.6,12.6,14.1,14.8c6.5,2.2,7.2,10.3,12.8,10.8
	c5.5,0.5,5.9-8.6,7.9-11.2c2-2.6,5.2-1.4,6.2,3.8c1,5.2,9.2,5.2,15.1,5.2c5.9,0,8.6,3.4,14.8,9.6c6.2,6.2,12.4,4.3,26.9,0
	c14.4-4.3,19.3-4.3,30.7-3.8c11.4,0.5,10.7-1.7,15.8-3.1c5.2-1.4,4.5,0.9,10.7,0c6.2-0.9,1.3-11.7,4.5-9.1c3,2.6,13.4,4.6,20.6,4.8
	c7.2,0.3,15.4-2.6,23.8-3.4c8.2-0.9,10.4-2.9,16.1-7.7c5.9-4.8,7.9-10.5,13.8-15.7c5.9-5.2,19-12.9,20.3-10.3
	c1.3,2.6,7.6,3.8,11.7,2.2c4.2-1.4,11.7-0.9,18,0s8.2-0.5,10.7-2.6c2.3-2.1,2.7-2.1,7.6-2.9s8.6,0,8.2-4c-0.3-4,0-7.1,6.5-5.5
	c6.5,1.7,6.2,2.1,8.6-3.8c2.4-5.7,4.9-2.6,12.4-2.2c7.6,0.3,7.9,0.5,7.9-3.8c0-4.3,4.9-2.6,14.1-2.6c9.2,0,10.7-1.4,11.4-4
	c0.7-2.6,15.8,0.3,16.6-1.7c0.7-2.1,7.2-1.4,13.8-0.5c6.5,0.9,0.3,3.1,0,6.9c-0.3,3.8,1,8.3,4.9,5.7c3.9-2.6,2.3-6.4,8.9-5.5
	c6.5,0.9,13.4,1.2,14.8,4.1c1.3,2.9,8.6,4.6,14.1,6c5.5,1.4,1.7,12.2,5.9,18.2c4.2,6,12.1,11.2,19,10c6.9-1.2,5.5-4.8,7.2-3.4
	c1.7,1.4,4.2,2.6,9.6,0c5.5-2.6,8.9-2.6,10.4-1.7c1.3,0.9,7.2-0.3,10.4-3.4c3-3.1,7.9-3.1,12.4-4.3c4.5-1.2,15.1-3.1,19.3,4.3
	c4.2,7.4,6.2,6.9,8.2,7.1c2,0.3,7.9-3.4,8.2,1.2c0.3,4.6,8.9,7.1,11.1,2.9c2-4.3,13.1-1.7,16.6,1.2c3.5,2.9,18,12.2,23.3,7.7
	c5.5-4.6,5.9-6.5,5.9-6.5c21-8.3,4.5-15.1,13.1-20.8c8.6-5.7,13.1-27.9,15.8-29.6c2.7-1.7,6.5,0,8.6-1.7c2-1.7,5.9-3.1,5.5-6.5
	c-0.3-3.4,6.9-5.2,8.9-4.8c2,0.3,10.4,0.3,11.7-3.1c1.3-3.3,7.2-0.3,8.9-0.2c1.7,0.3,7.6,0,10.1-2.1c2.3-2.1,3.5-5.2,5.9-5.7
	c2.3-0.5,3.9-1.4,2.7-3.6c-1-2.1,1-2.1,2.7-5.3c1.7-3.1,4.5-2.6,11.8-2.6c7.2,0,6.5,5.8,16.6,3.1c1.8-0.5,5.9-3.8,7.2-4.5
	c1.3-0.7,4.5-1.2,5.2-0.3c0.7,0.9,5.2,0,5.2,0s2-1.4,2.7-3.6c0.7-2.2,3.9-1.4,3.9-1.4s3,0,4.5,1.2c1.3,1.2,2.7-1.2,4.5-3.3
	c1.7-2.1,7.6-2.8,11.1-0.5c16.6,11,23.8,4.1,30.2,1.2V392.8H3.7z"/>
<linearGradient id="SVGID_14_" gradientUnits="userSpaceOnUse" x1="999.7809" y1="519.8306" x2="999.7809" y2="681.3906" gradientTransform="matrix(1 0 0 -1 0 1061.8898)">
	<stop  offset="0" style="stop-color:#FFFFFF"/>
	<stop  offset="1" style="stop-color:#CCEDFF"/>
</linearGradient>
<path class="st13" d="M924.5,458.6c1.2,9.7-1.7,20.8,1.7,24.6c3.3,3.8,15.8,36.7,19,33c3.2-3.6,16-34.3,19.8-29.4
	c3.8,5,10.7,15.4,16.5,11.6c5.7-4,15.2,1.7,21.7,10.9c6.5,9.2,6.8,24.6,17.2,6.9c0,0,4.3,14.7,8.8,23.7c4.5,9,19.4-13.2,19.4-13.2
	s21.5,13.5,26.7-8v-77.7c-8.8-7.1-17.8-11.9-23.3-10.4c-7.3,2.1-8.8-37.9-18.5-46.4c-9.8-8.5-21.7-1.9-20,9.2
	c1.7,10.9-14.5,15.9-16.7,13c-2.2-3.1-14.8-5-18.2-4.3c-3.3,0.7,6.2,15.4,2.7,31.5s-25.7-18.7-39.4-18.5
	C928,415.3,923.3,448.9,924.5,458.6z"/>
<linearGradient id="SVGID_15_" gradientUnits="userSpaceOnUse" x1="681.8823" y1="528.0447" x2="681.8823" y2="619.7782" gradientTransform="matrix(1 0 0 -1 0 1061.8898)">
	<stop  offset="0" style="stop-color:#FFFFFF"/>
	<stop  offset="1" style="stop-color:#CCEDFF"/>
</linearGradient>
<path class="st14" d="M697,506.5c-7.9,10.1-12.7,14.4-17.4,9.3c-4.7-5.1-11.7-8.1-16.1-5.8c-4.4,2.4-7.4-3.6-10.2-6.5
	c-2.8-2.7-10.7,0.7-13.1,2.7s-15.4-1.9-17.9-3.9c-2.5-2.1-0.2-8.4-0.8-13.9c-0.5-3.1,9.2-6.3,12.1-12.3c2.2-4.6-3-12.5,1.3-12.7
	c10.2-0.3,26.3,19,29.1,9.8c2.8-9.3-4-17.3-1.5-17.8c2.5-0.5,11.9,0.3,13.6,2.1c1.5,1.7,13.7-1.4,12.7-7.7
	c-1.2-6.2,7.9-10.1,15.1-5.5c7.2,4.6,7.7,27.2,13.2,26c5.5-1.2,15.2,3.8,23.6,9.4c5,3.4-0.7,16.6-3.2,26.7
	c-1.5,6.5,0.8,11.8,0.2,12.2c-0.7,0.3-4,7.7-8.2,8.7c-3.2,0.9-6.5,4.8-9.5,4.1c-3.9-0.9-6.7-6.5-6.7-6.5s-11.4,12.8-14.6,7.9
	C695.3,527.7,697,506.5,697,506.5z"/>
<linearGradient id="SVGID_16_" gradientUnits="userSpaceOnUse" x1="208.3714" y1="488.3401" x2="208.3714" y2="552.7801" gradientTransform="matrix(1 0 0 -1 0 1061.8898)">
	<stop  offset="0" style="stop-color:#FFFFFF"/>
	<stop  offset="1" style="stop-color:#CCEDFF"/>
</linearGradient>
<path class="st15" d="M202,563.8c-2.3-3.2-7.9,0.5-11.2-3c-3.4-3.5-8.4-5.7-11.6-4.1c-3,1.7-5.4-2.5-7.2-4.6c-2-1.9-7.7,0.5-9.4,2
	s-11.1-1.4-12.7-2.9c-1.7-1.5-13.1-9.8-13.6-13.7c-0.3-2.2,19.5-0.5,21.6-4.7c1.5-3.2-2.2-8.8,1-8.9c7.2-0.2,18.8,13.3,20.8,6.9
	c2-6.4-2.9-12.2-1.2-12.5c1.8-0.3,8.6,0.3,9.7,1.5c1.2,1.2,9.9-1,9.1-5.4c-0.8-4.4,5.7-7.1,10.7-3.9c5.2,3.2,5.5,19.2,9.6,18.2
	c4-0.8,10.9,2.7,16.8,6.6c3.7,2.4,47.8,3.5,46.1,10.6c-0.3,1.7-5,12.5-11.6,14.9c-4.4,1.7-9.7-8.6-14.9-8.8
	c-8.4,0-16.8,9.5-21.6,10.5c-0.5,0.2-2.9,5.4-5.9,6.2c-2.2,0.5-4.7,3.4-6.9,2.9c-2.7-0.7-4.9-4.6-4.9-4.6s-8,9.1-10.4,5.6
	C201.8,569.2,202,563.8,202,563.8z"/>
<linearGradient id="SVGID_17_" gradientUnits="userSpaceOnUse" x1="251.1143" y1="514.3533" x2="251.1143" y2="655.3763" gradientTransform="matrix(1 0 0 -1 0 1061.8898)">
	<stop  offset="0" style="stop-color:#FFFFFF"/>
	<stop  offset="1" style="stop-color:#CCEDFF"/>
</linearGradient>
<path class="st16" d="M81.4,489.2c0,0-7.9,8.2,4.5,17.7c12.4,9.4,25.7,21.3,30.6,10.3c4.9-11,8.4-15.3,13.3-11.5
	c5,3.8,13.9,6.3,17,1.4c2.9-4.8-5.2-9.8,4.4-10.6c9.6-0.9,9.6,6,17.5,5.7c7.7-0.3,8.4-4.8,10.9-6.2c2.4-1.5,11.4,1.7,17.8-0.7
	c6.4-2.4,9.6-0.9,11.6,3.6c2.2,4.5,8.2,7.7,13.8,8.4c5.4,0.9,11.4,8.9,13.9,10.8c2.5,1.9,12.4,6,15.6-0.7
	c3.2-6.7,10.3-10.1,13.3-7.4c2.9,2.7,15.5,7.5,21.2,14.6c5.7,6.9,17,1,20.2,6c3.2,5,13.9,14.6,20.8,16.3c6.9,1.9,25.9,0.5,28.9-8.7
	c3-9.3-3.7-20.4,11.3-16.6c15,3.8,67.7,9.3,73.4,1.4c5.5-7.7-0.8-24.9-9.6-29.7c-8.7-4.6-29.4-6.3-19.5-18.3
	c10.1-12,16-22.8,12.9-31.9c-3-9.1-10.1-14.2-30.8-16.6c-20.7-2.4-58.1,3.9-74.1,7.5c-16,3.6-16.6-7.4-19-13.4
	c-2.5-6-28.9-10.5-52.3-13.5c-23.4-3.3-33.8,15.1-50.6,17.1c-16.8,1.9-62-15.1-66.5-13.9c-4.5,1.2-14.6,9.4-14.6,16.1
	c0.2,6.9-5.2,5.7-17,6.9c-11.8,1.2-20.5,4.5-19.2,13.2c1.5,8.9-6.9,9.4-14.5,15.8c-7.6,6.3-12.6,6.7-1.8,12.9s10.1,10.6,5.2,13.9
	C64.8,492.3,81.4,489.2,81.4,489.2z"/>
<linearGradient id="SVGID_18_" gradientUnits="userSpaceOnUse" x1="630.4565" y1="574.5068" x2="630.4575" y2="651.2947" gradientTransform="matrix(1 0 0 -1 0 1061.8898)">
	<stop  offset="0" style="stop-color:#FFFFFF"/>
	<stop  offset="1" style="stop-color:#CCEDFF"/>
</linearGradient>
<path class="st17" d="M671.6,478c0,0,3.8,5.3-7,1.7c-10.9-3.6-4.5,0.3-9.5,2.2c-4.8,1.9-13.5-0.9-14.9-3.9c-1.3-3.1-7-1.7-11.4,2.7
	c-4.3,4.4-7-4.4-15-7.3c-8-2.9-12.7-9.2-24.4-7.8c-11.7,1.4-16.7,2.6-21-1.9s1.8-12.6-9.4-14.8c-11.2-2-13.9-2.2-15.5-9.2
	c-1.7-7.2-22.5-8.3,4.8-16.9c27.4-8.5,21.7-16,42.4-10c20.7,6,23.7,4.6,35.1,1.9c11.4-2.7,18-5.6,20.9,0.5
	c2.7,6.1,16.7,6.3,27.6,3.7c10.7-2.6,16.9-5.3,20,0c3.2,5.3,3.5,20.9,16,26.7c12.7,5.8,19.2,17.2,15,22.3s-17,19.1-20.5,15
	c-3.5-3.9-10.2-12.6-12.2-0.5C690.6,494.5,674.1,480.7,671.6,478z"/>
<linearGradient id="SVGID_19_" gradientUnits="userSpaceOnUse" x1="189.6717" y1="823.2158" x2="189.6717" y2="632.9035" gradientTransform="matrix(1 0 0 -1 0 1061.8898)">
	<stop  offset="0" style="stop-color:#FFFFFF"/>
	<stop  offset="1" style="stop-color:#CCEDFF"/>
</linearGradient>
<path class="st18" d="M290,295.8c-9.6-0.2-10.9,2.1-11.7,5.7c-0.7,3.6-16.3-0.3-16.9,2.4c-0.7,2.8-7.4,2.1-14.1,0.9
	c-6.7-1.2-0.3-4.5,0-9.6c0.3-5.2-1-11.5-5-8.1c-3.9,3.6-2.5,8.9-9.2,7.7c-6.7-1.2-13.7-1.7-15.3-5.7c-1.3-4-8.9-6.4-14.6-8.4
	c-5.7-2.1-1.8-17.2-6-25.6s-12.4-15.7-19.4-13.9c-7,1.5-5.7,6.9-7.4,4.8c-1.8-2.1-4.2-3.6-9.9,0c-5.5,3.4-9.1,3.4-10.6,2.2
	c-1.3-1.2-7.4,0.3-10.6,4.8c-3.2,4.5-8.2,4.5-12.7,6c-4.5,1.5-15.6,4.5-19.8-6c-4.2-10.3-6.4-9.6-8.5-10c-2.2-0.3-8.2,4.8-8.5-1.5
	c-0.3-6.4-9.2-10-11.4-4c-2.2,6-13.4,2.4-16.9-1.5c-3.5-4-9.2-1.5-14.9,4.8c-5.7,6.4-6,9.1-6,9.1C18.8,261.4,35.9,271,27,279.1
	c-8.9,8.1-13.4,39.2-16.3,41.6s-6.7,0-8.9,2.4c-2.2,2.4-6,4.5-5.7,9.1c0.2,2.6-2,4.5-4.2,5.7v86.4h389.8l5.5-7.4
	C385.5,418.1,346.5,296.3,290,295.8z"/>
<linearGradient id="SVGID_20_" gradientUnits="userSpaceOnUse" x1="802.7642" y1="814.2938" x2="802.7642" y2="678.7476" gradientTransform="matrix(1 0 0 -1 0 1061.8898)">
	<stop  offset="0" style="stop-color:#FFFFFF"/>
	<stop  offset="1" style="stop-color:#CCEDFF"/>
</linearGradient>
<path class="st19" d="M1079.3,394.2c-1-0.9-2-3.1-3-6.9c-2.5-10.5-3.9-13.2-8.9-11.2c-5,2.1-5.4,0.9-6.4-8.1
	c-1-8.8-8.9-21.7-19.6-22.5c-10.7-0.9-17.4-10.5-28-19.6c-10.7-9.3-10.2-22.5-35.9-31.6c-25.7-9.3-11.1,8.1-22,22.5
	c-11.1,14.4-13.9,2.8-15.9-1.5c-2.2-4.5-4.7-2.1-5.4,0c-0.7,2.1-1,12-7.4,3.3c-6.4-8.8-6.4-4.8-6.7-3.3c-0.3,1.5-11.1,5.7-15.9-2.4
	c-5-8.1-9.2-1.5-27.7,5.7c-18.5,7.2-14.9,11.2-14.9,1.5c0-9.6-6.7-7.2-16.8-9.3c-9.9-2.1-18.8,13.6-20,5.7c-1-8.1-15.9,0-14.9-2.1
	c1-2.1-2.5-14.4-6.7-20.1c-4.2-5.7-3.9-3.3-6-1.2c-2.2,2.1-1,12.9-8.2,18.4c-7,5.7-12.8,2.1-12.8-0.9c0-2.8-7.9-17.7-14.6-20.8
	c-6.7-3.3-7.4-14.4-13.1-15.3c-5.7-0.9-6,12-8.2,15.6c-2.2,3.6-5.4,2.1-6.4-5.2c-1-7.2-9.6-7.2-15.6-7.2c-6,0-8.9-4.8-15.3-13.6
	s-12.8-6-27.7,0c-14.9,6-20,6-31.7,5.2c-11.7-0.9-11.1,2.4-16.3,4.5c-5.4,2.1-4.7-1.2-11.1,0c-6.4,1.2-1.3,16.5-4.7,12.9
	c-3.2-3.6-13.9-6.4-21.3-6.9c-7.4-0.3-15.9,3.6-24.5,4.8c-8.6,1.2-10.7,4-16.8,10.8s-8.2,14.8-14.3,22c-2.2,2.6-5.2,5.7-8.4,8.3
	v68.4H1079.3z"/>
<linearGradient id="SVGID_21_" gradientUnits="userSpaceOnUse" x1="764.0303" y1="517.0922" x2="764.0303" y2="595.2162" gradientTransform="matrix(1 0 0 -1 0 1061.8898)">
	<stop  offset="0" style="stop-color:#FFFFFF"/>
	<stop  offset="1" style="stop-color:#CCEDFF"/>
</linearGradient>
<path class="st20" d="M660.3,467.1c1.3,9.5-2.7,20.2,1.5,23.8c4.2,3.6,26.8,10.4,30.9,6.8c4-3.6,17.8-9.3,22.5-4.8
	c4.9,4.8,10.1,14.9,17.6,11c7.5-3.9,19.6,1.2,27.7,9.8c8,8.7,16.3,1.5,29.8-15.8c0,0-2.7,36.1,2.9,44.8c5.7,8.7,25.2-13.4,25.2-13.4
	s5,9.7,11.6,11.2c5,1.2,11.1-5.6,16.4-7c7-1.9,12.9-14.4,14.1-14.9c1.2-0.5-2.9-9.5-0.3-20.7c2.3-10,6.9-22.1,8.2-31.2H660.3
	C660.3,466.8,660.3,466.9,660.3,467.1z"/>
<linearGradient id="SVGID_22_" gradientUnits="userSpaceOnUse" x1="12.6897" y1="626.4427" x2="12.6897" y2="577.3738" gradientTransform="matrix(1 0 0 -1 0 1061.8898)">
	<stop  offset="0" style="stop-color:#FFFFFF"/>
	<stop  offset="1" style="stop-color:#CCEDFF"/>
</linearGradient>
<path class="st21" d="M15.8,484.6c5.8-9.8,14-25.2,13.5-31.9c-0.7-10.5-28.4-1-28.4-1s0.3-11.2-4.5-15.9c-0.2-0.2-0.3-0.3-0.5-0.5
	v49.1h19.9V484.6z"/>
<linearGradient id="SVGID_23_" gradientUnits="userSpaceOnUse" x1="82.1463" y1="547.2134" x2="82.1463" y2="655.6904" gradientTransform="matrix(1 0 0 -1 0 1061.8898)">
	<stop  offset="0" style="stop-color:#FFFFFF"/>
	<stop  offset="1" style="stop-color:#CCEDFF"/>
</linearGradient>
<path class="st22" d="M-6.7,499.6c2.3,2.1,5.2,3.8,8.6,4.3c3.2,0.5,6.9-3.8,10.7-4.3c4.2-0.5,10.1,6.7,15.1,8.3
	c3.4,1,6.4-4.3,8.2-2.9c4.5,3.5,1.7,7.4,4.4,9c5.5,2.9,9.2-2.8,17.1-10.9c3.5-3.6,7.9,3.8,12.1,1.4c1-0.5,2.9-7.9,4.7-9
	c2.2-1.2,4.5,4,5.5,2.6c2.9-4,1.2-7.9,3-6.7c3.7,2.4,2.3-3.6,6.4-7.6c2.2-2.1,8.7-0.3,11.6-3.3c5.2-5.4,7.9-12.8,14.3-15.9
	c3.9-1.9,8.9,0.7,16.8-1.7c20.8-6.2,12.1-9.5,30.9-31.8c19-22.3,0.5-11.9-4.7-17.1c-5-5.2-7.4-3.8-18,0.5
	c-10.6,4.3-9.7-6.2-15.8-7.6c-6-1.4-9.7,2.4-19,10c-9.2,7.6-16.6,4.8-25,6.7c-8.4,1.9-15.3-4.3-16.6,1.9c-1.3,6.2-5.5,10.5-8.4,8.6
	c-2.9-1.9-11.6,0.5-14.8,4.8c-3.2,4.3,4.2,4.3-6.9,7.1c-11.1,2.9-5,5.2-5,5.2c-3.7-1-25-3.8-20.3,7.6c4.7,11.4-5.5,7.6-10.6,6.2
	c-1.7-0.5-3,1.2-4.4,3.8V499.6L-6.7,499.6z"/>
<linearGradient id="SVGID_24_" gradientUnits="userSpaceOnUse" x1="524.9357" y1="793.6608" x2="524.9357" y2="565.9127" gradientTransform="matrix(1 0 0 -1 0 1061.8898)">
	<stop  offset="0" style="stop-color:#FFFFFF"/>
	<stop  offset="1" style="stop-color:#CCEDFF"/>
</linearGradient>
<path class="st23" d="M759.3,445.2c-2.9-3.1,2.2-43.9,6.4-47c22.1-17.6-2.7-29.2-6.4-36.1c-3.5-6.9-2.5-1.2-3.2,3.6
	c-0.7,4.8-1.8,6.2-2.9-1.6c-1-7.8-1.5-9.9-3.4-8.3c-1.8,1.6-2,0.5-2.3-6.1c-0.3-6.6-3.4-16.1-7.4-16.8c-4-0.5-6.5-7.8-10.6-14.7
	c-4-6.9-3.9-16.8-13.4-23.5c-9.6-6.9-4.2,6.1-8.2,16.8c-4.2,10.7-5.2,2.1-6-1.2c-0.8-3.3-6.9-1-7.4,0c-1.5,2.9-4.2,4.2-6-1.7
	c-1.8-6.1-3.5-1.2-10.4,4.1c-6.9,5.4-5.5,8.3-5.5,1.2s-19.8-2.8-19.3-4.2c0.3-1.6,1.8-2.8,0.2-7.1c-1.7-4.2-4-1.2-4.9,0.3
	c-0.8,1.6-0.5,0.5-3.2,4.7c-2.7,4.2-4.9,1.6-4.9-0.5c0-2.1,2.3-13.8-0.2-16.1c-2.5-2.4-6-4.3-8.2-5c-2.2-0.5-7.2,7.4-7.5,1.9
	c-0.3-5.4-3.5-5.4-5.9-5.4c-2.3,0-3.4-3.6-5.7-10.2c-2.3-6.6-4.9-4.5-10.4,0c-5.5,4.5-7.5,4.5-11.9,3.8c-4.4-0.5-4.2,1.7-6.2,3.3
	c-2,1.6-1.7-0.9-4.2,0c-2.3,0.9-0.5,12.3-1.7,9.5s-5.2-4.8-8-5c-2.8-0.3-6,2.8-9.2,3.6c-3.2,0.9-4,2.9-6.2,8.1
	c-2.3,5-5.2,10.2-7.5,15.6c-2.3,5.4-7.4,7.4-7.9,4.7s-6.9,5.4-9.2,4.5c-2.3-0.9-5.2,4.8-7,5.7c-1.8,0.9-3.4,0-3.2,4.1
	c0.2,4.2-6.4,7.3-6.9,10c-1.2,5.9,0.8,3.3-2.2,2.9c-3-0.3-6.7,5.5-10.2,5.5c-3.5,0-4.2,1.6-4.4,4.1c-0.3,2.8-6.2-0.3-6.4,1.7
	c-0.3,2.1-2.9,1.6-5.4,0.5c-2.5-0.9-2.3,0.3-2.2-3.5c0.2-3.8-4.2-0.3-5.5,2.2c-1.5,2.8,1.5,4.7-1,3.8c-2.5-0.9-3.2,0.7-3.9-2.2
	c-0.5-2.9-1.7,0.3-3.9-1.2s3.5-3.3,2-9.7c-1.7-6.2-4.7-11.6-7.4-10.4c-2.7,1.2-2.2,5-2.8,3.6c-0.7-1.6-7.2,2.8-7.7,1.7
	c-0.5-0.9-2.9,0.3-4,3.6c-1.2,3.3-7.5,12.6-9.2,13.8s-2.5-0.7-4.2-8.5c-1.7-7.8-4.4-8.3-5.2-8.6c-0.8-0.3-8-3.5-8.9,1
	c-0.8,4.5-5,1.7-6.4-1.2c-1.3-2.9-3.5-1.2-5.5,3.6c-2.2,4.8-2.3,6.9-2.3,6.9c-8.2,8.6-6.5-1.4-9.9,4.5c-3.4,6.1-10.2,1-11.4,2.8
	c-1,1.7-5.7,1-6.5,2.8c-0.8,1.7-9.2,6.1-9.1,9.7c0.2,3.6,17.4,10.9,16.6,10.5c-0.8-0.3-4-0.3-4.5,3.1c-0.5,3.5-2.9,0.3-3.5,0.2
	c-0.7-0.3-3,0-3.9,2.1c-1,2.1-1.3,5.4-2.3,6.1c-1,0.5-1.5,1.6-1,3.8c0.3,2.2-0.3,2.2-1,5.5c-0.7,3.3-1.7,2.8-4.5,2.8
	c-2.9,0-6.2-4.8-6.4-3.3c-0.3,1.6-2.3,3.8-2.9,4.7c-0.5,0.9-1.7,1.2-2,0.3c-0.3-0.9-2.9,1.6-3,3.8c-0.3,2.4-1.5,1.6-1.5,1.6
	s-2.8,0-3.5,2.2c-0.7,2.2-2.7,1.4-4.2,0.5c-1.7-0.9-2.2-0.3-5.2,0c-3,0.3-5.4,4.8-5.4,4.8c-0.5,0.9-1.5,1.7-2-4.7
	c-0.2-1.6-6.4-3.8-11.1,0c-1.5,1.2-1,4.5-1.5,9.2c-0.3,3.3-3.9,1.7-3.9,1.7c-3.5-1.6-6-2.1-14.4,8.8c-8.4,11.1-10.6,20.4-21.1,25.1
	c-10.1,4.5,13.1,10.9,17.1,36.5h442.5c3.9-9.2,6.4-18.7,16.1-25.6C780.2,451.4,762.1,448.3,759.3,445.2z"/>
<linearGradient id="SVGID_25_" gradientUnits="userSpaceOnUse" x1="803.4317" y1="642.9227" x2="803.4317" y2="586.7872" gradientTransform="matrix(1 0 0 -1 0 1061.8898)">
	<stop  offset="0" style="stop-color:#FFFFFF"/>
	<stop  offset="1" style="stop-color:#CCEDFF"/>
</linearGradient>
<path class="st24" d="M864,477.1c-0.8-6.1,1.5-13.1-0.8-15.3c-2.5-2.4-15.6-6.7-18-4.4c-2.4,2.4-10.3,6.1-13.1,3
	c-2.9-3-5.9-9.6-10.3-7.1c-4.4,2.5-11.4-0.8-16.1-6.4c-4.7-5.7-9.4-1-17.3,10.3c0,0,1.5-23.4-1.7-28.9c-3.2-5.6-14.6,8.6-14.6,8.6
	s-2.9-6.2-6.7-7.2c-3-0.7-6.4,3.7-9.6,4.5c-4,1.2-7.6,9.4-8.1,9.8c-0.7,0.3,1.7,6.2,0.2,13.5c-1.8,8.7-5.9,19.7-5,25.7h116
	C861.8,480.7,864.3,479,864,477.1z"/>
<linearGradient id="SVGID_26_" gradientUnits="userSpaceOnUse" x1="510.9104" y1="526.3968" x2="510.9104" y2="612.5068" gradientTransform="matrix(1 0 0 -1 0 1061.8898)">
	<stop  offset="0" style="stop-color:#FFFFFF"/>
	<stop  offset="1" style="stop-color:#CCEDFF"/>
</linearGradient>
<path class="st25" d="M321.1,474.7c3,8.6-5.9,10.5-13.1,17.8c-7,7.4-12.4,8.6,0,13c12.4,4.5,12.4,8.9,7.7,13s12.4-1.5,12.4-1.5
	s-7,9.3,7.7,16.8c14.9,7.4,30.9,17.2,34.4,5.7c3.5-11.5,6.5-16.3,12.4-13.4c5.9,2.9,16.1,4.1,18.5-1.2c2.3-5.1-7-8.9,3-11.2
	c10.1-2.2,11.2,4.5,19.6,2.9c8.4-1.5,8.4-6,10.7-7.9c2.4-1.9,12.4,0,19-3.4c6.5-3.4,10.1-2.2,13.1,1.9s10.1,6.3,16.1,6.3
	c5.9,0,13.6,7,16.6,8.6c3,1.5,14.3,4.1,16.6-2.9c2.3-7,9.6-11.5,13.1-9.3s17.8,5.1,25,11.2c7,6,18.5-1.5,22.7,2.9
	c4.2,4.5,17.3,12.2,25,13c7.7,0.7,27.9-3.3,29.7-13c1.8-9.6-7-19.7,9.6-18.2c16.6,1.5,74.4-1,79.1-9.6c4.7-8.6-4.7-24.5-14.9-28
	c-8.4-2.7-25.7-2.2-25.8-9.8H339.9c-0.2,0-0.3,0-0.5,0.2C326.9,461.6,318,466.1,321.1,474.7z"/>
<linearGradient id="SVGID_27_" gradientUnits="userSpaceOnUse" x1="165.629" y1="450.0039" x2="165.629" y2="645.7928" gradientTransform="matrix(1 0 0 -1 0 1061.8898)">
	<stop  offset="0" style="stop-color:#FFFFFF"/>
	<stop  offset="1" style="stop-color:#CCEDFF"/>
</linearGradient>
<path class="st26" d="M1.9,590.3c5.9,5.9,15.8,7.9,18.1-2.2c2.3-10.2-7-17.4,2.9-21.8c10.1-4.3,11.2,8.6,19.3,5.9
	c8.2-2.9,8.2-11.6,10.6-15.2c2.3-3.6,12.2,0,18.8-6.6c6.4-6.6,9.9-4.3,12.9,3.6c2.9,7.9,9.9,12.3,15.8,12.3
	c5.9,0,13.4,13.8,16.4,16.6c3,2.9,14.1,7.9,16.4-5.9c2.3-13.8,9.4-22.4,12.9-18.1c3.5,4.3,17.6,10.2,24.7,21.8
	c7,11.6,18.1-2.9,22.3,5.9c1.7,3.6,11.4,5.7,15.1,10.2c5.2,6.2,5.2,14.3,9.6,15.2c3.5,0.7,9.4-18.8,15.1-22.3
	c6.9-4,13.3,7.3,14.3-3.1c1.7-18.8-7-38.3,9.4-35.4c8.2,1.4,26.5,16.6,43.4,13.6c8.2-1.4,7.5-9.5,13.8-16.1
	c3.5-3.8,9.2,3.5,13.6,0.5c3.7-2.4,6.7-15,7.2-16.9c1.5-5.4,6-15,4.7-26.1c-0.5-4.8-7.4-9.8-7.4-15c0-6.4-5.9-12.8-5.5-18.5
	c0.8-11.9,8.1-21.2,4.4-23.7c-9.9-6.6-25.7,10.4-34.4-0.7c-7.5-9.7-4.9-21.1-0.5-32.3H-8v186.4C-5.3,590.3-2.6,585.8,1.9,590.3z"/>
<linearGradient id="SVGID_28_" gradientUnits="userSpaceOnUse" x1="951.695" y1="629.4297" x2="951.695" y2="578.7708" gradientTransform="matrix(1 0 0 -1 0 1061.8898)">
	<stop  offset="0" style="stop-color:#FFFFFF"/>
	<stop  offset="1" style="stop-color:#CCEDFF"/>
</linearGradient>
<path class="st27" d="M1009.2,477.5c-11.7-1.4-14.9-8.6-22.1-13.4c-7.2-4.6-7.9-13.9-13.1-10.6c-5.2,3.3-11.1,3.3-11.7,0
	c-0.7-3.3-8.4-8.1-13.6-7.4c-5.2,0.7,0,6-9.7,0c-9.7-6-7.2,0-7.2,0c-2-3.3-14.9-20.6-19.4-9.3c-4.5,11.3-9,1.4-11.7-3.3
	c-2.5-4.6-18.3,6-23.5,9.9c-5.2,3.9-1.3,16.6,9.7,25.2c5,3.9,7,9.3,8,14.4h133.6C1025.5,478.7,1020.1,478.7,1009.2,477.5z"/>
<linearGradient id="SVGID_29_" gradientUnits="userSpaceOnUse" x1="952.3644" y1="527.8228" x2="952.3644" y2="596.28" gradientTransform="matrix(1 0 0 -1 0 1061.8898)">
	<stop  offset="0" style="stop-color:#FFFFFF"/>
	<stop  offset="1" style="stop-color:#CCEDFF"/>
</linearGradient>
<path class="st28" d="M849.5,473.8c-3.2,2.6,2.2,5.2-0.5,7.5c-5.9,5.1-18.4,9.2-18.6,12c-0.5,8.7-8,20.1-3.5,22.3
	c1.8,1,3.3,6.1,9.7,4.5c4.7-1.2,14.1-9.1,18.4-9.6c4-0.5,7.4,5.4,9,4c6-4.5,24.4-13.4,29.5-10.1c5,3.3,9.2,11.9,19.6,6.3
	c10.4-5.6,24.4-3.7,32.6,2.8c5.2,4,5.5,1.9,15.2-5.2c1.5-1.2,4.9,4.2,8.2,2.8c3-1.2,5.9-9.2,7.5-10.6c3.2-2.8,6-7,10.2-5.1
	c0,0,1.2,4.7-1.2,14.5c-2.3,9.6-8,19.9-5.5,23.2c2.3,3.1,5.9-4.2,13.4-7.3c3.5-1.4,11.2,3.3,14.1,1c4.3-3.5,7.4-12.7,7.4-12.7
	s4,8.2,11.9,7.9c6.2-0.2,15.2-8,22.3-10.6c9.4-3.5,19.8-17.1,21.1-17.8c1.5-0.9-1.5-8.4,4.5-19.9c1.3-2.6,3-5.4,4.5-8.2H863.1
	c-0.3,0.9-0.8,1.7-1.5,2.4C860,470.1,851.7,472,849.5,473.8z"/>
<linearGradient id="SVGID_30_" gradientUnits="userSpaceOnUse" x1="808.1071" y1="604.5198" x2="808.1071" y2="651.1448" gradientTransform="matrix(1 0 0 -1 0 1061.8898)">
	<stop  offset="0" style="stop-color:#FFFFFF"/>
	<stop  offset="1" style="stop-color:#CCEDFF"/>
</linearGradient>
<path class="st29" d="M810.9,443.2c-5.5,2.5-8.5,3.2-9.4,0c-0.8-3.2-3.2-6.1-5.5-6.1c-2.3,0-2.3-3.2-3-5.1c-0.7-1.9-4.7-2.2-6.2-1.9
	c-1.5,0.3-6.2-4.2-6.7-5.7c-0.7-1.3,1.8-3.5,2.7-6.1s6.7-9.6,11.2-7.4c4.3,2.2,7,13.8,10.2,10.6c3.2-3.2,2-8.3,3.2-7.7
	c1.2,0.3,5,2.9,5.3,3.9c0.3,1,6.2,2.5,7-0.3c0.8-2.9,5.5-2.5,7.7,1c2,3.5-2.7,13.1,0,13.8c2.7,0.7,5.7,5.1,8,9.3
	c2.3,4.2-1,15.7-9.7,15.7c-0.8,0-6.5-6.7-11.4-6.7s-8,6.7-8.2,3.9C805.5,451.6,810.9,443.2,810.9,443.2z"/>
<linearGradient id="SVGID_31_" gradientUnits="userSpaceOnUse" x1="1043.194" y1="641.7808" x2="1043.194" y2="593.9648" gradientTransform="matrix(1 0 0 -1 0 1061.8898)">
	<stop  offset="0" style="stop-color:#FFFFFF"/>
	<stop  offset="1" style="stop-color:#CCEDFF"/>
</linearGradient>
<path class="st30" d="M1040.5,434.8c5.5-2.6,8.5-3.3,9.4,0c0.8,3.3,3.2,6.2,5.5,6.2c2.3,0,2.3,3.3,2.8,5c0.7,1.9,4.7,2.3,6.2,1.9
	c1.5-0.3,6.2,4.3,6.7,5.9c0.7,1.4-1.7,3.6-2.7,6.2c-0.8,2.6-6.7,9.9-11.2,7.6c-4.3-2.3-7-14.2-10.2-10.9c-3.2,3.3-2,8.3-3.2,8
	c-1.2-0.3-5-2.9-5.3-4c-0.3-1-6.2-2.6-7,0.3c-0.8,2.9-5.5,2.6-7.7-1c-2-3.6,2.7-13.5,0-14.2c-2.7-0.7-5.7-5-7.9-9.5
	c-2.3-4.3,1-16.1,9.7-16.1c0.8,0,6.5,6.9,11.4,6.9s7.9-6.9,8.2-4C1045.8,425.9,1040.5,434.8,1040.5,434.8z"/>
<linearGradient id="SVGID_32_" gradientUnits="userSpaceOnUse" x1="690.564" y1="649.7228" x2="690.564" y2="697.7188" gradientTransform="matrix(1 0 0 -1 0 1061.8898)">
	<stop  offset="0" style="stop-color:#FFFFFF"/>
	<stop  offset="1" style="stop-color:#CCEDFF"/>
</linearGradient>
<path class="st31" d="M693.3,397.6c-5.5,2.6-8.5,3.3-9.3,0c-0.8-3.3-3.2-6.2-5.5-6.2c-2.3,0-2.3-3.3-3-5.2c-0.7-1.9-4.7-2.3-6.2-1.9
	c-1.5,0.3-6.2-4.3-6.7-5.9c-0.7-1.4,1.8-3.6,2.7-6.2c0.8-2.6,6.7-9.9,11.2-7.6c4.3,2.3,7,14.2,10.2,10.9c3.2-3.3,2-8.5,3.2-8
	c1.2,0.3,5,2.9,5.3,4c0.3,1,6.2,2.6,7-0.3c0.8-2.9,5.5-2.6,7.7,1c2,3.6-2.7,13.5,0,14.2c2.7,0.7,5.7,5.2,8,9.5
	c2.3,4.3-1,16.1-9.7,16.1c-0.8,0-6.5-6.9-11.4-6.9c-4.8,0-8,6.9-8.2,4C688,406.3,693.3,397.6,693.3,397.6z"/>
<linearGradient id="SVGID_33_" gradientUnits="userSpaceOnUse" x1="398.043" y1="612.6268" x2="398.043" y2="660.6227" gradientTransform="matrix(1 0 0 -1 0 1061.8898)">
	<stop  offset="0" style="stop-color:#FFFFFF"/>
	<stop  offset="1" style="stop-color:#CCEDFF"/>
</linearGradient>
<path class="st32" d="M400.8,434.6c-5.5,2.6-8.5,3.3-9.3,0c-0.8-3.3-3.2-6.2-5.5-6.2c-2.3,0-2.3-3.3-3-5.2c-0.7-1.9-4.7-2.3-6.2-1.9
	c-1.5,0.3-6.2-4.3-6.7-5.9c-0.7-1.4,1.8-3.6,2.7-6.2c0.8-2.6,6.7-9.9,11.2-7.6c4.3,2.3,7,14.2,10.2,10.9c3.2-3.3,2-8.5,3.2-8
	c1.2,0.3,5,2.9,5.3,4c0.3,1,6.2,2.6,7-0.3c0.8-2.9,5.5-2.6,7.7,1c2,3.6-2.7,13.5,0,14.2c2.7,0.7,5.7,5.2,8,9.5
	c2.3,4.3-1,16.1-9.7,16.1c-0.8,0-6.5-6.9-11.4-6.9c-4.8,0-8,6.9-8.2,4C395.5,443.4,400.8,434.6,400.8,434.6z"/>
<linearGradient id="SVGID_34_" gradientUnits="userSpaceOnUse" x1="544.3029" y1="636.3757" x2="544.3049" y2="665.3278" gradientTransform="matrix(1 0 0 -1 0 1061.8898)">
	<stop  offset="0" style="stop-color:#FFFFFF"/>
	<stop  offset="1" style="stop-color:#CCEDFF"/>
</linearGradient>
<path class="st33" d="M561.1,420.1c0,0,1.8,1.5-2.3,1.2c-4.2-0.3-1.5,0.5-3.2,1.7c-1.5,1-4.9,0.9-5.5,0c-0.7-1-2.7,0-3.7,2
	c-1.2,1.9-2.8-0.9-5.9-1.2c-3-0.3-5.4-2-9.2-0.5c-4,1.5-5.7,2.4-7.5,1.4c-1.8-1.2-0.5-4.6-4.5-4.3c-4.2,0.3-5,0.5-6.2-1.9
	c-1.2-2.4-8.7-0.9,0.2-6.3c8.9-5.5,6.2-7.7,14.1-7.3c7.9,0.2,8.7-0.5,12.6-2.6c3.7-2,5.9-3.6,7.4-1.7c1.5,1.9,6.4,0.7,10.1-1.2
	c3.5-1.9,5.4-3.4,7-1.9c1.7,1.5,3,7,8,8c5,0.9,8.2,4.3,7.2,6.5c-1,2.2-4.4,8.2-5.9,7.2c-1.7-1-4.7-3.4-4.4,0.9
	C569.3,424.2,562.3,420.8,561.1,420.1z"/>
<linearGradient id="SVGID_35_" gradientUnits="userSpaceOnUse" x1="388.6933" y1="495.1248" x2="388.6933" y2="521.1384" gradientTransform="matrix(1 0 0 -1 0 1061.8898)">
	<stop  offset="0" style="stop-color:#FFFFFF"/>
	<stop  offset="1" style="stop-color:#CCEDFF"/>
</linearGradient>
<path class="st34" d="M399.8,554.2c0,0,1.3,0.3-1,1.2c-2.4,0.9-0.7,0.7-1.3,1.7c-0.5,1-2.4,1.7-3,1.6c-0.7-0.3-1.3,0.7-1.5,2.1
	c-0.2,1.4-1.9,0.2-3.5,0.9c-1.7,0.7-3.4,0.3-5.2,2.3c-1.9,1.9-2.5,2.8-3.9,2.8c-1.3-0.2-1.5-2.4-3.5-1.2c-2.2,1.2-2.7,1.6-3.9,0.7
	c-1.2-1-4.9,1.9-1.5-3.7c3.5-5.4,1.5-5.9,5.7-7.8c4.4-1.9,4.7-2.6,6.2-4.7c1.5-2.1,2.4-3.7,3.5-3c1.3,0.7,3.7-1.4,5.2-3.3
	c1.5-1.9,2-3.3,3.4-3c1.3,0.5,3.5,3.1,6.4,2.3c2.9-0.9,5.6,0.2,5.6,1.6c0,1.4-0.3,5.7-1.3,5.6c-1.2-0.2-3.4-0.7-2.2,1.7
	C405.4,554.3,400.7,554.3,399.8,554.2z"/>
<linearGradient id="SVGID_36_" gradientUnits="userSpaceOnUse" x1="120.2143" y1="527.9068" x2="120.2143" y2="553.9212" gradientTransform="matrix(1 0 0 -1 0 1061.8898)">
	<stop  offset="0" style="stop-color:#FFFFFF"/>
	<stop  offset="1" style="stop-color:#CCEDFF"/>
</linearGradient>
<path class="st35" d="M131.3,521.5c0,0,1.3,0.3-1,1.2c-2.4,0.9-0.7,0.7-1.3,1.7c-0.5,1-2.4,1.7-3,1.4c-0.7-0.3-1.3,0.7-1.5,2.1
	c-0.2,1.4-1.9,0.2-3.5,0.9c-1.7,0.7-3.4,0.3-5.2,2.3c-1.9,1.9-2.5,2.8-3.9,2.8c-1.3-0.2-1.5-2.4-3.5-1.2c-2.2,1.2-2.7,1.6-3.9,0.7
	c-1.2-1-4.9,1.9-1.5-3.7c3.5-5.4,1.5-5.9,5.7-7.8c4.4-1.9,4.7-2.6,6.2-4.7c1.5-2.1,2.4-3.7,3.5-3c1.3,0.7,3.7-1.4,5.2-3.3
	c1.5-1.9,2-3.3,3.4-3c1.3,0.5,3.5,3.1,6.4,2.3c2.9-0.9,5.6,0.2,5.6,1.6s-0.3,5.7-1.3,5.6c-1.2-0.2-3.4-0.7-2.2,1.7
	C136.7,521.5,132.2,521.5,131.3,521.5z"/>
<linearGradient id="SVGID_37_" gradientUnits="userSpaceOnUse" x1="18.7001" y1="647.2507" x2="18.7001" y2="673.2645" gradientTransform="matrix(1 0 0 -1 0 1061.8898)">
	<stop  offset="0" style="stop-color:#FFFFFF"/>
	<stop  offset="1" style="stop-color:#CCEDFF"/>
</linearGradient>
<path class="st36" d="M29.7,402.2c0,0,1.3,0.3-1,1.2c-2.3,0.9-0.7,0.7-1.3,1.7c-0.5,1-2.3,1.7-3,1.6c-0.7-0.3-1.3,0.7-1.5,2.1
	c-0.2,1.4-1.8,0.2-3.5,0.9c-1.7,0.7-3.4,0.3-5.2,2.3c-1.8,1.9-2.5,2.8-3.9,2.8c-1.3-0.2-1.5-2.4-3.5-1.2c-2.2,1.2-2.7,1.6-3.9,0.7
	c-1.2-1-4.9,1.9-1.5-3.7c3.5-5.4,1.5-5.9,5.9-7.8c4.4-1.9,4.7-2.6,6.2-4.7c1.5-2.1,2.3-3.7,3.5-3c1.3,0.7,3.7-1.4,5.2-3.3
	c1.5-1.9,2-3.3,3.4-3c1.3,0.5,3.4,3.1,6.4,2.3c2.8-0.9,5.5,0.2,5.5,1.6c0,1.4-0.3,5.7-1.3,5.6c-1.2-0.2-3.4-0.7-2.2,1.7
	C35.2,402.2,30.5,402.2,29.7,402.2z"/>
<linearGradient id="SVGID_38_" gradientUnits="userSpaceOnUse" x1="1013.8066" y1="722.3558" x2="1013.8066" y2="748.3694" gradientTransform="matrix(1 0 0 -1 0 1061.8898)">
	<stop  offset="0" style="stop-color:#FFFFFF"/>
	<stop  offset="1" style="stop-color:#CCEDFF"/>
</linearGradient>
<path class="st37" d="M1024.9,327.1c0,0,1.3,0.3-1,1.2c-2.4,0.9-0.7,0.7-1.4,1.7c-0.5,1-2.4,1.7-3,1.4c-0.7-0.3-1.4,0.7-1.5,2.1
	c-0.2,1.4-1.8,0.2-3.5,0.9c-1.7,0.7-3.4,0.3-5.2,2.3c-1.8,1.9-2.5,2.8-3.9,2.8c-1.3-0.2-1.5-2.4-3.5-1.2c-2.2,1.2-2.7,1.6-3.9,0.7
	c-1.2-1-4.9,1.9-1.5-3.7c3.5-5.4,1.5-5.9,5.7-7.8c4.4-1.9,4.7-2.6,6.2-4.7c1.5-2.1,2.4-3.7,3.5-3c1.4,0.7,3.7-1.4,5.2-3.3
	c1.5-1.9,2-3.3,3.4-3c1.3,0.5,3.5,3.1,6.4,2.3c2.9-0.9,5.6,0.2,5.6,1.6c0,1.4-0.3,5.7-1.3,5.6c-1.2-0.2-3.4-0.7-2.2,1.7
	C1030.3,327.1,1025.8,327.1,1024.9,327.1z"/>
<linearGradient id="SVGID_39_" gradientUnits="userSpaceOnUse" x1="159.6176" y1="613.9147" x2="159.6176" y2="672.9088" gradientTransform="matrix(1 0 0 -1 0 1061.8898)">
	<stop  offset="0" style="stop-color:#FFFFFF"/>
	<stop  offset="1" style="stop-color:#CCEDFF"/>
</linearGradient>
<path class="st38" d="M169.4,430.3c-5.1,6.5-8.2,9.3-11.2,6c-3.1-3.3-7.6-5.2-10.5-3.8c-2.9,1.6-4.8-2.4-6.6-4.1
	c-1.9-1.7-7,0.3-8.5,1.7c-1.5,1.4-10-1.2-11.6-2.6c-1.5-1.4-0.2-5.3-0.7-9c-0.3-2.1,5.9-4.1,7.8-7.9c1.4-2.9-2-8.1,0.8-8.3
	c6.6-0.2,17.2,12.2,19,6.4c1.9-5.9-2.5-11.2-1-11.5c1.7-0.3,7.8,0.2,8.8,1.4c1,1,9-0.9,8.2-5c-0.7-4,5.1-6.5,9.9-3.6
	c4.8,2.9,5.1,17.6,8.7,16.7c3.6-0.9,9.9,2.4,15.3,6c3.2,2.2-0.5,10.7-2,17.2c-1,4.3,0.5,7.6,0.2,7.9c-0.3,0.2-2.5,5-5.3,5.7
	c-2,0.5-4.2,3.1-6.1,2.6c-2.5-0.5-4.4-4.3-4.4-4.3s-7.3,8.3-9.5,5C168.4,443.9,169.4,430.3,169.4,430.3z"/>
<linearGradient id="SVGID_40_" gradientUnits="userSpaceOnUse" x1="573.0214" y1="686.6277" x2="573.0214" y2="745.6218" gradientTransform="matrix(1 0 0 -1 0 1061.8898)">
	<stop  offset="0" style="stop-color:#FFFFFF"/>
	<stop  offset="1" style="stop-color:#CCEDFF"/>
</linearGradient>
<path class="st39" d="M582.5,357.5c-5,6.5-8,9.3-11,6c-3-3.3-7.5-5.2-10.2-3.8c-2.8,1.5-4.7-2.4-6.5-4.1c-1.8-1.7-6.8,0.3-8.3,1.7
	c-1.5,1.4-9.9-1.2-11.4-2.6c-1.5-1.4-0.2-5.3-0.7-9c-0.3-2.1,5.8-4.1,7.7-7.9c1.3-2.9-2-8.1,0.8-8.3c6.5-0.2,16.9,12.2,18.7,6.4
	c1.8-5.9-2.5-11.2-1-11.5c1.7-0.3,7.7,0.2,8.7,1.4c1,1,8.9-0.9,8-4.8c-0.7-4,5-6.5,9.7-3.6c4.7,2.9,5,17.6,8.5,16.7
	c3.5-0.9,9.7,2.4,15,6c3.2,2.2-0.5,10.7-2,17.2c-1,4.3,0.5,7.6,0.2,7.9c-0.3,0.2-2.5,5-5.2,5.7c-2,0.5-4.2,3.1-6,2.6
	c-2.5-0.5-4.3-4.3-4.3-4.3s-7.2,8.3-9.4,5C581.4,371.3,582.5,357.5,582.5,357.5z"/>
<linearGradient id="SVGID_41_" gradientUnits="userSpaceOnUse" x1="1013.1382" y1="607.0947" x2="1013.1382" y2="666.0887" gradientTransform="matrix(1 0 0 -1 0 1061.8898)">
	<stop  offset="0" style="stop-color:#FFFFFF"/>
	<stop  offset="1" style="stop-color:#CCEDFF"/>
</linearGradient>
<path class="st40" d="M1022.7,437.1c-5.1,6.5-8.2,9.3-11.2,6c-3.1-3.3-7.6-5.2-10.4-3.8c-2.9,1.6-4.8-2.4-6.6-4.1
	c-1.9-1.7-7,0.3-8.5,1.7c-1.5,1.4-10-1.2-11.6-2.6c-1.5-1.4-0.2-5.3-0.7-9c-0.3-2.1,5.9-4.1,7.8-7.9c1.3-2.9-2-8.1,0.8-8.3
	c6.6-0.2,17.2,12.2,19,6.4s-2.6-11.2-1-11.5c1.7-0.3,7.8,0.2,8.8,1.4c1,1,9-0.9,8.2-5c-0.7-4,5.1-6.5,9.9-3.6
	c4.8,2.9,5.1,17.6,8.7,16.7c3.6-0.9,9.9,2.4,15.3,6c3.2,2.2-0.5,10.7-2,17.2c-1,4.3,0.5,7.6,0.2,7.9c-0.3,0.2-2.6,5-5.3,5.7
	c-2,0.5-4.3,3.1-6.3,2.6c-2.5-0.5-4.4-4.3-4.4-4.3s-7.3,8.3-9.5,5C1021.7,450.7,1022.7,437.1,1022.7,437.1z"/>
<linearGradient id="SVGID_42_" gradientUnits="userSpaceOnUse" x1="484.7908" y1="438.4112" x2="5.2448" y2="387.6191" gradientTransform="matrix(1 0 0 -1 0 1061.8898)">
	<stop  offset="0" style="stop-color:#416BBD"/>
	<stop  offset="1" style="stop-color:#CADCFF;stop-opacity:0"/>
</linearGradient>
<path class="st41" d="M17.2,649.7c28.5-16.6,59.9-21.8,99.1-20.9c60.1,1.3,61.8,15.3,120,18.3c32.2,1.6,66.1,3.5,105.5-10.2
	c41.1-14.2,45.9-30.6,92.9-45.4c39.7-12.6,71.4-8.9,77.6-10.2c-4,3.8-26.6,7-62.6,25.8c-37.6,19.9-38.4,31.7-72.8,50.5
	c-8.6,4.8-41.1,21.8-85.9,27.9c-43.2,5.6-77.6-1.6-99.1-6.4c-40-8.9-38.9-16.4-75.2-21.5c-18.5-2.7-46.4-6.4-80.3,1.3
	C9.4,665.3-4,674.1-10.7,673.1C-5.4,670.1,2.7,658.3,17.2,649.7z"/>
<linearGradient id="SVGID_43_" gradientUnits="userSpaceOnUse" x1="426.2872" y1="368.7383" x2="21.6252" y2="326.8382" gradientTransform="matrix(1 0 0 -1 0 1061.8898)">
	<stop  offset="0" style="stop-color:#416BBD"/>
	<stop  offset="1" style="stop-color:#CADCFF;stop-opacity:0"/>
</linearGradient>
<path class="st42" d="M9.4,685.7c3.8-1.6,45.4-12.1,97.2-6.4c64.2,7.3,67.9,27.9,130.2,38.7c24.7,4.3,87.8,15,149.8-13.2
	c37.6-17.2,58.8-34.4,63.9-37.9c-2.7,6.2-14.5,33-40.5,54.2c-31.7,25.8-66.9,33.6-85.9,36c-36.8,4.8-65.5-3.5-91-10.7
	c-34.1-9.7-35.2-16.4-80.8-30.9c-6.2-1.9-32-9.9-66.9-17.2C36,688.4,14.5,687,9.4,685.7z"/>
<linearGradient id="SVGID_44_" gradientUnits="userSpaceOnUse" x1="603.2722" y1="590.9268" x2="976.6662" y2="629.6498" gradientTransform="matrix(1 0 0 -1 0 1061.8898)">
	<stop  offset="0" style="stop-color:#416BBD"/>
	<stop  offset="1" style="stop-color:#CADCFF;stop-opacity:0"/>
</linearGradient>
<path class="st43" d="M967.3,451.3c-22.2,12.9-46.6,16.8-77.2,16.1c-46.8-1.1-48-12-93.4-14.4c-25.1-1.3-51.4-2.8-82.2,7.8
	c-32,11-35.8,23.8-72.4,35.2c-31,9.8-55.6,6.8-60.4,7.8c3.1-2.9,20.7-5.4,48.7-20c29.3-15.4,29.9-24.6,56.7-39.2
	c6.7-3.7,32-16.9,66.9-21.6c33.7-4.3,60.4,1.4,77.1,5.2c31.1,7,30.3,12.8,58.5,16.9c14.4,2.1,36.1,5.1,62.5-0.9
	c21.1-5,31.6-11.8,36.8-11C984.9,435.5,978.6,444.7,967.3,451.3z"/>
<linearGradient id="SVGID_45_" gradientUnits="userSpaceOnUse" x1="648.934" y1="645.0652" x2="964.022" y2="676.9932" gradientTransform="matrix(1 0 0 -1 0 1061.8898)">
	<stop  offset="0" style="stop-color:#416BBD"/>
	<stop  offset="1" style="stop-color:#CADCFF;stop-opacity:0"/>
</linearGradient>
<path class="st44" d="M973.5,423.3c-2.9,1.2-35.3,9.3-75.7,4.9c-49.9-5.8-52.8-21.9-101.3-30.3c-19.2-3.4-68.3-11.9-116.7,10
	c-29.3,13.3-45.8,26.7-49.8,29.4c2.1-4.8,11.3-25.7,31.7-42.2c24.7-20,52.1-26,66.9-27.9c28.6-3.7,51,2.8,70.8,8.5
	c26.5,7.6,27.4,12.8,62.9,24.2c4.8,1.5,24.9,7.8,52,13.5C952.8,421.2,969.5,422.3,973.5,423.3z"/>
<linearGradient id="SVGID_46_" gradientUnits="userSpaceOnUse" x1="575.4427" y1="738.9457" x2="38.5358" y2="683.1777" gradientTransform="matrix(1 0 0 -1 0 1061.8898)">
	<stop  offset="0" style="stop-color:#416BBD"/>
	<stop  offset="1" style="stop-color:#CADCFF;stop-opacity:0"/>
</linearGradient>
<path class="st45" d="M20.4,355.6c18.9-6,57.2-34.3,129.9-37.6c63.4-2.7,72.6,15.7,155.7,25.9c52.2,6.2,128.1,14.7,205-16.4
	c60.2-24.4,90.1-51.5,94.8-57.5c-2.7,8-39.8,65.7-112.4,98.3c-65.2,29.4-127.1,23.6-161.5,19.9c-65.9-7-68.7-24.6-138.1-35.1
	C93.3,337.9,37.5,352.1,20.4,355.6z"/>
<linearGradient id="SVGID_47_" gradientUnits="userSpaceOnUse" x1="529.8327" y1="683.7068" x2="107.8477" y2="628.4368" gradientTransform="matrix(1 0 0 -1 0 1061.8898)">
	<stop  offset="0" style="stop-color:#416BBD"/>
	<stop  offset="1" style="stop-color:#CADCFF;stop-opacity:0"/>
</linearGradient>
<path class="st46" d="M94.8,376.7c8-1.7,71.9-2.5,135.3,10.4c78.4,16.2,77.9,29.9,129.1,32.6c65.2,3.5,122.6-15.4,136.1-20.1
	c38.8-13.4,59.2-23.1,62.4-24.6c-4.5,6.2-32.3,45-83.3,64.2c-49.8,18.7-96.5,11.2-133.3,5.2c-40.3-6.5-33.8-11.9-87.8-21.9
	c-42-7.7-61.2-7-98.3-18.4C132.8,397.4,102.5,381.7,94.8,376.7z"/>
</svg>
