<?xml version="1.0" encoding="utf-8"?>
<!-- Generator: Adobe Illustrator 23.0.5, SVG Export Plug-In . SVG Version: 6.00 Build 0)  -->
<svg version="1.1" id="Слой_1" xmlns="http://www.w3.org/2000/svg" xmlns:xlink="http://www.w3.org/1999/xlink" x="0px" y="0px"
	 width="1053px" height="1060.6px" viewBox="0 0 1053 1060.6" style="enable-background:new 0 0 1053 1060.6;" xml:space="preserve"
	>
<style type="text/css">
	.st0{fill:url(#SVGID_1_);filter:url(#Adobe_OpacityMaskFilter);}
	.st1{mask:url(#mask0_0_1_1_);}
	.st2{fill:url(#SVGID_2_);}
	.st3{fill:url(#SVGID_3_);}
	.st4{fill:url(#SVGID_4_);}
	.st5{fill:url(#SVGID_5_);}
	.st6{fill:url(#SVGID_6_);}
	.st7{fill:url(#SVGID_7_);}
	.st8{fill:url(#SVGID_8_);}
	.st9{fill:url(#SVGID_9_);}
	.st10{fill:url(#SVGID_10_);}
	.st11{fill:url(#SVGID_11_);}
	.st12{fill:url(#SVGID_12_);}
	.st13{fill:url(#SVGID_13_);}
	.st14{fill:url(#SVGID_14_);}
	.st15{fill:url(#SVGID_15_);}
	.st16{fill:url(#SVGID_16_);}
	.st17{fill:url(#SVGID_17_);}
	.st18{fill:url(#SVGID_18_);}
	.st19{fill:url(#SVGID_19_);}
	.st20{fill:url(#SVGID_20_);}
	.st21{fill:url(#SVGID_21_);}
	.st22{fill:url(#SVGID_22_);}
	.st23{fill:url(#SVGID_23_);}
	.st24{fill:url(#SVGID_24_);}
	.st25{fill:url(#SVGID_25_);}
	.st26{fill:url(#SVGID_26_);}
	.st27{fill:url(#SVGID_27_);}
	.st28{fill:url(#SVGID_28_);}
	.st29{fill:url(#SVGID_29_);}
	.st30{fill:url(#SVGID_30_);}
	.st31{fill:url(#SVGID_31_);}
	.st32{fill:url(#SVGID_32_);}
	.st33{fill:url(#SVGID_33_);}
	.st34{fill:url(#SVGID_34_);}
	.st35{fill:url(#SVGID_35_);}
	.st36{fill:url(#SVGID_36_);}
	.st37{fill:url(#SVGID_37_);}
	.st38{fill:url(#SVGID_38_);}
	.st39{fill:url(#SVGID_39_);}
	.st40{fill:url(#SVGID_40_);}
	.st41{fill:url(#SVGID_41_);}
	.st42{fill:url(#SVGID_42_);}
	.st43{fill:url(#SVGID_43_);}
	.st44{fill:url(#SVGID_44_);}
	.st45{fill:url(#SVGID_45_);}
	.st46{fill:url(#SVGID_46_);}
	.st47{fill:url(#SVGID_47_);}
	.st48{fill:url(#SVGID_48_);}
	.st49{fill:url(#SVGID_49_);}
	.st50{fill:url(#SVGID_50_);}
	.st51{fill:url(#SVGID_51_);}
	.st52{fill:url(#SVGID_52_);}
	.st53{fill:url(#SVGID_53_);}
	.st54{fill:url(#SVGID_54_);}
	.st55{fill:url(#SVGID_55_);}
	.st56{fill:url(#SVGID_56_);}
	.st57{fill:url(#SVGID_57_);}
	.st58{fill:url(#SVGID_58_);}
	.st59{fill:url(#SVGID_59_);}
	.st60{opacity:0.3;fill:#D9D9D9;enable-background:new    ;}
	.st61{opacity:0.9;}
	.st62{fill:#D9D9D9;}
	.st63{fill:url(#SVGID_60_);}
	.st64{fill:url(#SVGID_61_);}
	.st65{fill:url(#SVGID_62_);}
	.st66{fill:url(#SVGID_63_);}
	.st67{fill:url(#SVGID_64_);}
	.st68{fill:url(#SVGID_65_);}
	.st69{fill:url(#SVGID_66_);}
	.st70{fill:url(#SVGID_67_);}
	.st71{fill:url(#SVGID_68_);}
	.st72{fill:url(#SVGID_69_);}
	.st73{fill:url(#SVGID_70_);}
	.st74{fill:url(#SVGID_71_);}
	.st75{fill:url(#SVGID_72_);}
	.st76{fill:url(#SVGID_73_);}
	.st77{fill:url(#SVGID_74_);}
	.st78{fill:url(#SVGID_75_);}
	.st79{fill:url(#SVGID_76_);}
	.st80{fill:url(#SVGID_77_);}
</style>
<defs>
	<filter id="Adobe_OpacityMaskFilter" filterUnits="userSpaceOnUse" x="-186.4" y="-253.4" width="1535" height="1313.7">
		<feColorMatrix  type="matrix" values="1 0 0 0 0  0 1 0 0 0  0 0 1 0 0  0 0 0 1 0"/>
	</filter>
</defs>
<mask maskUnits="userSpaceOnUse" x="-186.4" y="-253.4" width="1535" height="1313.7" id="mask0_0_1_1_">
	
		<linearGradient id="SVGID_1_" gradientUnits="userSpaceOnUse" x1="531.35" y1="899.5204" x2="531.35" y2="-163.1795" gradientTransform="matrix(1 0 0 -1 0 897.1511)">
		<stop  offset="0" style="stop-color:#626D7C"/>
		<stop  offset="1" style="stop-color:#708CA7"/>
	</linearGradient>
	<rect y="-2.4" class="st0" width="1062.7" height="1062.7"/>
</mask>
<g class="st1">
	
		<linearGradient id="SVGID_2_" gradientUnits="userSpaceOnUse" x1="520.963" y1="899.5204" x2="520.963" y2="-163.1795" gradientTransform="matrix(1 0 0 -1 0 897.1511)">
		<stop  offset="0" style="stop-color:#626D7C"/>
		<stop  offset="1" style="stop-color:#708CA7"/>
	</linearGradient>
	<rect x="-10.4" y="-2.4" class="st2" width="1062.7" height="1062.7"/>
	
		<linearGradient id="SVGID_3_" gradientUnits="userSpaceOnUse" x1="1159.4594" y1="487.6534" x2="-41.9326" y2="487.6496" gradientTransform="matrix(1 0 0 -1 0 897.1511)">
		<stop  offset="0" style="stop-color:#FEFEFE;stop-opacity:0"/>
		<stop  offset="1" style="stop-color:#FFFFFF"/>
	</linearGradient>
	<rect x="-15.7" y="407.6" class="st3" width="1121.4" height="3.9"/>
	
		<linearGradient id="SVGID_4_" gradientUnits="userSpaceOnUse" x1="1809.1295" y1="1055.9321" x2="607.7334" y2="1055.9292" gradientTransform="matrix(-1 0 0 -1 1708.45 1199.759)">
		<stop  offset="0" style="stop-color:#FEFEFE;stop-opacity:0"/>
		<stop  offset="1" style="stop-color:#FFFFFF"/>
	</linearGradient>
	<rect x="-47" y="141.2" class="st4" width="1121.4" height="5.2"/>
	
		<linearGradient id="SVGID_5_" gradientUnits="userSpaceOnUse" x1="1809.1294" y1="1056.595" x2="607.7332" y2="1056.5908" gradientTransform="matrix(-1 0 0 -1 1739.79 1189.3151)">
		<stop  offset="0" style="stop-color:#FEFEFE;stop-opacity:0"/>
		<stop  offset="1" style="stop-color:#FFFFFF"/>
	</linearGradient>
	<rect x="-15.7" y="130.8" class="st5" width="1121.4" height="3.9"/>
	
		<linearGradient id="SVGID_6_" gradientUnits="userSpaceOnUse" x1="956.0294" y1="153.439" x2="-162.8494" y2="153.4352" gradientTransform="matrix(1 0 0 -1 0 897.1511)">
		<stop  offset="0" style="stop-color:#FEFEFE;stop-opacity:0"/>
		<stop  offset="1" style="stop-color:#FFFFFF"/>
	</linearGradient>
	<rect x="-138.4" y="741.8" class="st6" width="1044.4" height="3.9"/>
	
		<linearGradient id="SVGID_7_" gradientUnits="userSpaceOnUse" x1="3297.0308" y1="-45.692" x2="2178.1506" y2="-45.6961" gradientTransform="matrix(-1 0 0 1 3551.22 606.7002)">
		<stop  offset="0" style="stop-color:#FEFEFE;stop-opacity:0"/>
		<stop  offset="1" style="stop-color:#FFFFFF"/>
	</linearGradient>
	<rect x="304.2" y="559" class="st7" width="1044.4" height="3.9"/>
	
		<linearGradient id="SVGID_8_" gradientUnits="userSpaceOnUse" x1="3244.5305" y1="-315.943" x2="1985.7906" y2="-315.947" gradientTransform="matrix(-1 0 0 1 3172.6201 1147.1902)">
		<stop  offset="0" style="stop-color:#FEFEFE;stop-opacity:0"/>
		<stop  offset="1" style="stop-color:#FFFFFF"/>
	</linearGradient>
	<rect x="-15.7" y="829.3" class="st8" width="1175" height="3.9"/>
	
		<linearGradient id="SVGID_9_" gradientUnits="userSpaceOnUse" x1="3144.2808" y1="-73.1085" x2="2025.4108" y2="-73.1127" gradientTransform="matrix(-1 0 0 1 3245.74 661.5322)">
		<stop  offset="0" style="stop-color:#FEFEFE;stop-opacity:0"/>
		<stop  offset="1" style="stop-color:#FFFFFF"/>
	</linearGradient>
	<rect x="151.4" y="586.4" class="st9" width="1044.4" height="3.9"/>
	
		<linearGradient id="SVGID_10_" gradientUnits="userSpaceOnUse" x1="834.8864" y1="240.4934" x2="834.8864" y2="158.3844" gradientTransform="matrix(1 0 0 -1 0 897.1511)">
		<stop  offset="0" style="stop-color:#FFFFFF"/>
		<stop  offset="1" style="stop-color:#666E83"/>
	</linearGradient>
	<path class="st10" d="M1020.4,714.7c-2.9-8.2,5.8-10,12.8-17c6.9-7,12.1-8.2,0-12.4c-12.1-4.3-12.1-8.5-7.6-12.4
		c4.6-3.9-12.1,1.5-12.1,1.5s6.9-8.8-7.5-16c-14.6-7-30.2-16.4-33.6-5.4c-3.4,11-6.4,15.5-12.1,12.8c-5.8-2.8-15.8-3.9-18.1,1.1
		c-2.3,4.9,6.9,8.5-2.9,10.6c-9.8,2.1-11-4.3-19.2-2.8c-8.2,1.5-8.2,5.7-10.5,7.5c-2.3,1.8-12.1,0-18.5,3.3
		c-6.4,3.3-9.8,2.1-12.8-1.8c-3-3.9-9.8-6.1-15.8-6.1c-5.7,0-13.3-6.7-16.2-8.2c-3-1.5-13.9-3.9-16.3,2.8c-2.3,6.7-9.3,11-12.8,8.8
		c-3.5-2.1-17.4-4.9-24.5-10.6c-6.9-5.7-18,1.5-22.1-2.8c-4.1-4.3-16.9-11.6-24.4-12.4c-7.5-0.7-27.2,3.1-29,12.4
		c-1.8,9.2,6.9,18.8-9.4,17.3c-16.2-1.5-72.7,1-77.3,9.2c-4.6,8.2,4.6,23.4,14.6,26.7c8.2,2.6,25.1,2.1,25.3,9.3h331.7
		c0.2,0,0.3,0,0.5-0.2C1014.7,727.1,1023.4,722.8,1020.4,714.7z"/>
	
		<linearGradient id="SVGID_11_" gradientUnits="userSpaceOnUse" x1="216.0661" y1="81.1604" x2="216.0661" y2="17.1884" gradientTransform="matrix(1 0 0 -1 0 897.1511)">
		<stop  offset="0" style="stop-color:#FFFFFF"/>
		<stop  offset="1" style="stop-color:#666E83"/>
	</linearGradient>
	<path class="st11" d="M317.1,872.3c3.1-2.4-2.1-4.9,0.5-7c5.8-4.7,18.1-8.6,18.3-11.2c0.5-8.2,7.9-18.7,3.5-20.9
		c-1.8-1-3.3-5.7-9.5-4.2c-4.6,1.1-13.8,8.5-18.1,9c-3.9,0.5-7.2-5.1-8.9-3.8c-5.9,4.2-24,12.6-28.9,9.5c-4.9-3.1-9-11.1-19.2-5.9
		c-10.2,5.2-24,3.4-32.1-2.6c-5.1-3.8-5.4-1.8-15,4.9c-1.5,1.2-4.8-3.9-8.1-2.6c-3,1.1-5.8,8.6-7.4,9.9c-3.1,2.6-5.9,6.5-10,4.7
		c0,0-1.2-4.4,1.2-13.5c2.3-9,7.9-18.6,5.4-21.7c-2.3-2.9-5.8,3.9-13.2,6.8c-3.5,1.3-11-3.1-13.8-1c-4.3,3.3-7.2,11.9-7.2,11.9
		s-3.9-7.7-11.7-7.3c-6.1,0.2-15,7.5-21.9,9.9c-9.2,3.3-19.4,16-20.7,16.6c-1.5,0.8,1.5,7.8-4.4,18.6c-1.3,2.4-3,5.1-4.4,7.7h212.4
		c0.3-0.8,0.8-1.6,1.5-2.3C306.8,875.8,315,874,317.1,872.3z"/>
	
		<linearGradient id="SVGID_12_" gradientUnits="userSpaceOnUse" x1="718.6951" y1="74.2554" x2="718.6951" y2="120.0214" gradientTransform="matrix(1 0 0 -1 0 897.1511)">
		<stop  offset="0" style="stop-color:#FFFFFF"/>
		<stop  offset="1" style="stop-color:#666E83"/>
	</linearGradient>
	<path class="st12" d="M721.5,809c-5.5,2.5-8.5,3.1-9.4,0c-0.8-3.1-3.2-6-5.5-6s-2.3-3.1-3-5c-0.7-1.8-4.7-2.1-6.2-1.8
		c-1.5,0.3-6.2-4.1-6.7-5.6c-0.7-1.3,1.8-3.5,2.7-6c0.8-2.5,6.7-9.4,11.2-7.3c4.3,2.1,7,13.6,10.2,10.4c3.2-3.1,2-8.1,3.2-7.6
		c1.2,0.3,5,2.8,5.3,3.8c0.3,1,6.2,2.5,7-0.3c0.8-2.8,5.5-2.5,7.7,1c2,3.5-2.7,12.9,0,13.6c2.7,0.7,5.7,5,8,9.1
		c2.3,4.1-1,15.4-9.7,15.4c-0.8,0-6.5-6.6-11.4-6.6c-4.8,0-8,6.6-8.2,3.8C716.1,817.3,721.5,809,721.5,809z"/>
	
		<linearGradient id="SVGID_13_" gradientUnits="userSpaceOnUse" x1="584.8781" y1="23.1404" x2="584.8781" y2="79.3924" gradientTransform="matrix(1 0 0 -1 0 897.1511)">
		<stop  offset="0" style="stop-color:#FFFFFF"/>
		<stop  offset="1" style="stop-color:#666E83"/>
	</linearGradient>
	<path class="st13" d="M594.3,857.1c-4.9,6.2-7.8,8.9-10.8,5.8s-7.3-4.9-10.1-3.6c-2.8,1.5-4.6-2.3-6.4-4c-1.8-1.6-6.7,0.3-8.2,1.6
		c-1.5,1.3-9.6-1.1-11.1-2.5c-1.5-1.3-0.2-5.1-0.7-8.5c-0.3-2,5.7-3.9,7.5-7.6c1.3-2.8-2-7.7,0.8-7.9c6.4-0.2,16.5,11.7,18.3,6.1
		c1.8-5.6-2.4-10.7-1-11c1.6-0.3,7.5,0.2,8.5,1.3c1,1,8.6-0.8,7.8-4.8c-0.7-3.8,4.9-6.2,9.5-3.4c4.6,2.8,4.9,16.8,8.3,15.9
		c3.4-0.8,9.5,2.3,14.7,5.8c3.1,2.1-0.5,10.2-2,16.4c-1,4.1,0.5,7.2,0.2,7.6c-0.3,0.2-2.4,4.8-5.1,5.4c-2,0.5-4.1,3-5.9,2.5
		c-2.4-0.5-4.2-4.1-4.2-4.1s-7,7.9-9.1,4.8C593.3,870.1,594.3,857.1,594.3,857.1z"/>
	
		<linearGradient id="SVGID_14_" gradientUnits="userSpaceOnUse" x1="1064.2461" y1="932.6554" x2="880.666" y2="738.1183" gradientTransform="matrix(1 0 0 -1 0 897.1511)">
		<stop  offset="0" style="stop-color:#FEFEFE"/>
		<stop  offset="1" style="stop-color:#BFBFBF"/>
	</linearGradient>
	<path class="st14" d="M1152.3-0.6l26.6,12.4c3.5,1.6,5.7,5.1,5.7,9c0,5.5-4.4,9.9-9.9,9.9H848.3c-5.7,0-10.3-4.6-10.3-10.2
		c0-3.7,2-7.1,5.2-8.9l22.5-12.6c2.4-1.3,5.1-2,7.8-2h23c4.3,0,8.5,1.8,11.5,4.9l7.6,7.8c3,3.1,7.2,4.9,11.5,4.9h25.4
		c2.1,0,4.1-0.4,6-1.2L999-3.2l33-12.1c4.8-1.7,10-1.1,14.3,1.6l36.7,24c4,2.6,8.9,3.3,13.4,1.9l44.5-13.6
		C1144.7-2.5,1148.7-2.3,1152.3-0.6z"/>
	
		<linearGradient id="SVGID_15_" gradientUnits="userSpaceOnUse" x1="403.0613" y1="987.0236" x2="367.9063" y2="601.1915" gradientTransform="matrix(1 0 0 -1 0 897.1511)">
		<stop  offset="0" style="stop-color:#FEFEFE"/>
		<stop  offset="1" style="stop-color:#BFBFBF"/>
	</linearGradient>
	<path class="st15" d="M631.2-38.7c20.5,15.6,51.9,39.5,65.3,49.8c3.9,3,6.2,7.6,6.2,12.5v7.8c0,8.8-7.2,16-16,16H98.1
		c-8.8,0-16-7.2-16-16v-8.1c0-4.8,2.1-9.3,5.8-12.3c18.3-14.9,47.7-37.5,53.4-36.5c7.9,1.4,63.1,41.3,72.3,41.3
		c9.2,0,107.8-19.3,123.6-28.9c15.8-9.6,92-30.3,99.9-30.3c7.9,0,59.2,34.4,71,30.3c8.8-3.1,72.6-19.2,109.6-28.4
		C622.4-42.6,627.3-41.6,631.2-38.7z"/>
	
		<linearGradient id="SVGID_16_" gradientUnits="userSpaceOnUse" x1="623.6965" y1="685.4124" x2="623.6965" y2="967.7487" gradientTransform="matrix(1 0 0 -1 0 897.1511)">
		<stop  offset="0" style="stop-color:#FFFFFF"/>
		<stop  offset="1" style="stop-color:#666E83"/>
	</linearGradient>
	<path class="st16" d="M1265.6-100.4c5.1,1.9,9.7,3.8,14.2,5.7V78.6c-2.2,0.2-2.8,2.3-3.7,7.8c-1.2,7.6-10.3,19-22.9,19.6
		c-12.6,0.6-20.5,9.1-32.8,17.1c-12.6,8-6.7,17.9-36.7,26c-30,8-18.2-5.5-31.2-17.9c-13-12.7-6.3-2.7-8.7,1.1
		c-2.4,3.8-10.3,0.8-11.1-0.8c-0.8-1.7-6.1-9.3-13.6-1.5c-7.5,7.6-7.5,4.2-7.9,2.7c-0.4-1.5-13-4.9-18.6,2.1
		c-5.9,7-10.7,1.5-32.4-4.9c-21.7-6.3-17.4-9.7-17.4-1.5c0,8.4-7.9,6.3-19.4,8s-22.1-11.8-23.3-4.9c-1.2,7-18.6,0-17.4,1.7
		c1.2,1.7-0.4,5.1-5.5,9.9c-5.1,4.9-7.1,2.7-9.5,1.1c-2.4-1.7-1.2-3.6-9.5-8.4c-8.3-4.9-15-1.7-15,0.6c0,2.5-9.1,15.4-17,18.2
		c-7.9,2.7-8.7,12.7-15.4,13.3c-6.7,0.6-7.1-10.6-9.5-13.7c-2.4-3.2-6.3-1.7-7.5,4.6c-1.2,6.3-11.1,6.3-18.2,6.3
		c-7.1,0-10.3,4.2-17.8,11.8c-7.5,7.6-15,5.3-32.4,0c-17.4-5.3-23.3-5.3-37.1-4.6c-13.8,0.6-13-2.1-19-3.8c-6.3-1.7-5.5,1.1-13,0
		c-7.5-1.1-1.6-14.4-5.5-11.2c-3.6,3.2-16.2,5.7-24.9,5.9c-8.7,0.4-18.6-3.2-28.8-4.2c-9.9-1.1-12.6-3.6-19.4-9.5
		c-7.1-5.9-9.5-12.9-16.6-19.2c-7.1-6.3-22.9-15.8-24.5-12.7c-1.6,3.2-9.1,4.6-14.2,2.7c-5.1-1.7-14.2-1.1-21.7,0
		c-7.5,1.1-9.9-0.6-13-3.2c-2.8-2.5-3.2-2.5-9.1-3.6c-5.9-1.1-10.3,0-9.9-4.9c0.4-4.9,0-8.7-7.9-6.8c-7.9,2.1-7.5,2.5-10.3-4.6
		c-2.8-7-5.9-3.2-15-2.7c-9.1,0.4-9.5,0.6-9.5-4.6c0-5.3-5.9-3.2-17-3.2c-11.1,0-13-1.7-13.8-4.9c-0.8-3.2-19,0.4-20-2.1
		c-0.8-2.5-8.7-1.7-16.6-0.6c-7.9,1.1-0.4,3.8,0,8.4c0.4,4.6-1.2,10.1-5.9,7c-4.7-3.2-2.8-7.8-10.7-6.8c-7.9,1.1-16.2,1.5-17.8,5.1
		c-1.6,3.6-10.3,5.7-17,7.4c-6.7,1.7-2,15-7.1,22.4c-5.1,7.4-14.6,13.7-22.9,12.2c-8.3-1.5-6.7-5.9-8.7-4.2c-2,1.7-5.1,3.2-11.5,0
		c-6.7-3.2-10.7-3.2-12.6-2.1c-1.6,1.1-8.7-0.4-12.6-4.2c-3.6-3.8-9.5-3.8-15-5.3s-18.2-3.8-23.3,5.3c-5.1,9.1-7.5,8.4-9.9,8.7
		c-2.4,0.4-9.5-4.2-9.9,1.5c-0.4,5.7-10.7,8.7-13.4,3.6c-2.4-5.3-15.8-2.1-20,1.5c-4.3,3.6-21.7,15-28.2,9.5c-6.7-5.7-7.1-8-7.1-8
		c-25.3-10.1-5.5-18.6-15.8-25.6c-10.3-7-15.8-34.2-19-36.3c-3.2-2.1-7.9,0-10.3-2.1c-2.4-2.1-7.1-3.8-6.7-8
		c0.4-4.2-8.3-6.3-10.7-5.9c-2.4,0.4-12.6,0.4-14.2-3.8c-1.6-4-8.7-0.4-10.7-0.2c-2,0.4-9.1,0-12.2-2.5c-2.8-2.5-4.3-6.3-7.1-7
		c-2.8-0.6-4.7-1.7-3.2-4.4c1.2-2.5-1.2-2.5-3.2-6.5c-2-3.8-5.5-3.2-14.2-3.2c-8.7,0-7.9,7.2-20,3.8c-2.2-0.6-7.1-4.6-8.7-5.5
		c-1.6-0.8-5.5-1.5-6.3-0.4s-6.3,0-6.3,0S33.8,31.8,33,29c-0.8-2.7-4.7-1.7-4.7-1.7s-3.6,0-5.5,1.5c-1.6,1.5-3.2-1.5-5.5-4
		c-2-2.5-9.1-3.4-13.4-0.6c-20,13.5-28.8,5.1-36.5,1.5v-126.1H1265.6z"/>
	
		<linearGradient id="SVGID_17_" gradientUnits="userSpaceOnUse" x1="63.5277" y1="814.3913" x2="63.5277" y2="1012.6992" gradientTransform="matrix(1 0 0 -1 0 897.1511)">
		<stop  offset="0" style="stop-color:#FFFFFF"/>
		<stop  offset="1" style="stop-color:#666E83"/>
	</linearGradient>
	<path class="st17" d="M154.4-19.7c-1.4,11.9,2,25.5-2,30.2c-4,4.7-19.1,45-22.9,40.6c-3.8-4.5-19.3-42.1-24-36.1
		c-4.6,6.2-12.9,18.9-19.9,14.2c-6.8-4.9-18.3,2.1-26.2,13.4c-7.8,11.3-8.3,30.2-20.7,8.5c0,0-5.2,18.1-10.7,29.1
		C22.6,91.2,4.7,64,4.7,64s-26,16.6-32.2-9.8v-95.4C-16.9-49.9-6-55.8,0.6-53.9c8.9,2.5,10.7-46.5,22.3-56.9
		c11.9-10.4,26.2-2.3,24.2,11.3c-2,13.4,17.5,19.5,20.1,15.9c2.6-3.8,17.9-6.2,21.9-5.3c4,0.8-7.4,18.9-3.2,38.7
		c4.2,19.8,31-22.9,47.5-22.7C150.2-72.8,155.8-31.6,154.4-19.7z"/>
	
		<linearGradient id="SVGID_18_" gradientUnits="userSpaceOnUse" x1="447.1827" y1="824.4745" x2="447.1827" y2="937.0731" gradientTransform="matrix(1 0 0 -1 0 897.1511)">
		<stop  offset="0" style="stop-color:#FFFFFF"/>
		<stop  offset="1" style="stop-color:#666E83"/>
	</linearGradient>
	<path class="st18" d="M429,39.1c9.5,12.4,15.4,17.7,21,11.4c5.7-6.3,14.1-9.9,19.4-7.1c5.3,2.9,8.9-4.4,12.3-8
		c3.4-3.4,12.9,0.8,15.8,3.4c2.8,2.5,18.6-2.3,21.6-4.8c3-2.5,0.2-10.3,1-17C520.7,13,509,9,505.6,1.7c-2.6-5.7,3.6-15.4-1.6-15.6
		c-12.3-0.4-31.7,23.3-35.2,12c-3.4-11.4,4.8-21.2,1.8-21.9c-3-0.6-14.3,0.4-16.4,2.5c-1.8,2.1-16.6-1.7-15.4-9.5
		c1.4-7.6-9.5-12.4-18.2-6.7c-8.7,5.7-9.3,33.4-16,32s-18.4,4.6-28.5,11.6c-6.1,4.2,0.8,20.4,3.8,32.8c1.8,8-1,14.5-0.2,14.9
		c0.8,0.4,4.8,9.5,9.9,10.7c3.8,1.1,7.9,5.9,11.5,5c4.6-1.1,8.1-8,8.1-8s13.7,15.8,17.6,9.7C431,65.2,429,39.1,429,39.1z"/>
	
		<linearGradient id="SVGID_19_" gradientUnits="userSpaceOnUse" x1="1018.6345" y1="775.7383" x2="1018.6345" y2="854.8353" gradientTransform="matrix(1 0 0 -1 0 897.1511)">
		<stop  offset="0" style="stop-color:#FFFFFF"/>
		<stop  offset="1" style="stop-color:#666E83"/>
	</linearGradient>
	<path class="st19" d="M1026.3,109.4c2.8-3.9,9.5,0.6,13.6-3.7c4-4.4,10.1-7,14-5c3.6,2.1,6.5-3.1,8.7-5.6c2.4-2.3,9.3,0.6,11.3,2.5
		c2,1.9,13.3-1.7,15.4-3.5c2-1.9,15.8-12,16.4-16.8c0.4-2.7-23.5-0.6-26.1-5.8c-1.8-3.9,2.6-10.8-1.2-11
		c-8.7-0.2-22.7,16.4-25.1,8.5c-2.4-7.9,3.4-14.9,1.4-15.3c-2.2-0.4-10.3,0.4-11.7,1.9c-1.4,1.4-11.9-1.2-10.9-6.6
		c1-5.4-6.9-8.7-13-4.8c-6.3,3.9-6.7,23.6-11.5,22.4c-4.9-1-13.2,3.3-20.2,8.1c-4.5,2.9-57.7,4.4-55.7,13.1
		c0.4,2.1,6.1,15.3,14,18.2c5.3,2.1,11.7-10.6,18-10.8c10.1,0,20.2,11.6,26.1,12.8c0.6,0.2,3.4,6.6,7.1,7.7c2.6,0.6,5.7,4.1,8.3,3.5
		c3.2-0.8,5.9-5.6,5.9-5.6s9.7,11.2,12.6,6.8C1026.6,116.1,1026.3,109.4,1026.3,109.4z"/>
	
		<linearGradient id="SVGID_20_" gradientUnits="userSpaceOnUse" x1="967.0502" y1="807.6685" x2="967.0502" y2="980.7679" gradientTransform="matrix(1 0 0 -1 0 897.1511)">
		<stop  offset="0" style="stop-color:#FFFFFF"/>
		<stop  offset="1" style="stop-color:#666E83"/>
	</linearGradient>
	<path class="st20" d="M1171.8,17.9c0,0,9.5,10.1-5.5,21.7c-15,11.6-31,26.1-36.9,12.6c-5.9-13.5-10.1-18.7-16-14.1
		c-6.1,4.6-16.8,7.8-20.5,1.7c-3.4-5.9,6.3-12-5.3-13c-11.6-1.1-11.6,7.4-21.1,6.9c-9.3-0.4-10.1-5.9-13.2-7.6
		c-2.8-1.9-13.8,2.1-21.5-0.8c-7.7-2.9-11.6-1.1-14,4.4c-2.6,5.5-9.9,9.5-16.6,10.3c-6.5,1.1-13.8,10.9-16.8,13.3
		c-3,2.3-15,7.4-18.9-0.8c-3.9-8.2-12.4-12.4-16-9c-3.4,3.4-18.7,9.3-25.6,17.9c-6.9,8.4-20.5,1.3-24.3,7.4
		c-3.9,6.1-16.8,17.9-25.1,20c-8.3,2.3-31.2,0.6-34.9-10.7c-3.7-11.4,4.5-25-13.6-20.4c-18.1,4.6-81.7,11.4-88.6,1.7
		c-6.7-9.5,1-30.5,11.6-36.4c10.5-5.7,35.5-7.8,23.5-22.5c-12.2-14.7-19.3-28-15.6-39.1c3.7-11.2,12.2-17.5,37.1-20.4
		c24.9-2.9,70.2,4.8,89.4,9.3c19.3,4.4,20.1-9,22.9-16.4c3-7.4,34.9-12.8,63.1-16.6c28.2-4,40.8,18.5,61.1,21
		c20.3,2.3,74.8-18.5,80.3-17c5.5,1.5,17.6,11.6,17.6,19.8c-0.2,8.4,6.3,6.9,20.5,8.4c14.2,1.5,24.7,5.5,23.1,16.2
		c-1.8,10.9,8.3,11.6,17.4,19.4c9.1,7.8,15.2,8.2,2.2,15.8c-13,7.6-12.2,13-6.3,17C1191.9,21.7,1171.8,17.9,1171.8,17.9z"/>
	
		<linearGradient id="SVGID_21_" gradientUnits="userSpaceOnUse" x1="509.244" y1="881.5034" x2="509.244" y2="975.7575" gradientTransform="matrix(1 0 0 -1 0 897.1511)">
		<stop  offset="0" style="stop-color:#FFFFFF"/>
		<stop  offset="1" style="stop-color:#666E83"/>
	</linearGradient>
	<path class="st21" d="M459.6,4.1c0,0-4.6,6.5,8.5,2.1c13.1-4.4,5.4,0.4,11.5,2.7c5.8,2.3,16.3-1,17.9-4.8c1.6-3.8,8.5-2.1,13.7,3.3
		c5.2,5.4,8.5-5.4,18.1-9c9.7-3.6,15.3-11.3,29.4-9.6c14.1,1.7,20.2,3.1,25.4-2.3c5.2-5.4-2.2-15.5,11.3-18.2
		c13.5-2.5,16.7-2.7,18.7-11.3c2-8.8,27.2-10.2-5.8-20.7c-33.1-10.4-26.2-19.6-51.2-12.3c-25,7.3-28.6,5.6-42.3,2.3
		c-13.7-3.3-21.8-6.9-25.2,0.6c-3.2,7.5-20.2,7.7-33.3,4.6c-12.9-3.1-20.4-6.5-24.2,0c-3.8,6.5-4.2,25.7-19.4,32.8
		c-15.3,7.1-23.2,21.1-18.1,27.4c5,6.3,20.6,23.4,24.8,18.4c4.2-4.8,12.3-15.5,14.7-0.6S456.6,7.4,459.6,4.1z"/>
	
		<linearGradient id="SVGID_22_" gradientUnits="userSpaceOnUse" x1="348.0448" y1="811.0299" x2="348.0448" y2="906.9239" gradientTransform="matrix(1 0 0 -1 0 897.1511)">
		<stop  offset="0" style="stop-color:#FFFFFF"/>
		<stop  offset="1" style="stop-color:#666E83"/>
	</linearGradient>
	<path class="st22" d="M473.2-9.3c-1.6,11.7,3.2,24.8-1.8,29.2c-5.1,4.4-32.4,12.7-37.2,8.3c-4.9-4.4-21.5-11.5-27.1-5.8
		c-5.9,5.8-12.1,18.3-21.2,13.5c-9.1-4.8-23.7,1.5-33.4,12.1c-9.7,10.6-19.6,1.9-36-19.4c0,0,3.2,44.4-3.4,55
		c-6.9,10.6-30.4-16.5-30.4-16.5s-6.1,11.9-14,13.7c-6.1,1.5-13.4-6.9-19.8-8.5c-8.5-2.3-15.6-17.7-17-18.3
		c-1.4-0.6,3.4-11.7,0.4-25.4c-2.8-12.3-8.3-27.1-9.9-38.3h250.9C473.2-9.7,473.2-9.5,473.2-9.3z"/>
	
		<linearGradient id="SVGID_23_" gradientUnits="userSpaceOnUse" x1="1170.9701" y1="848.0026" x2="1170.9701" y2="981.1538" gradientTransform="matrix(1 0 0 -1 0 897.1511)">
		<stop  offset="0" style="stop-color:#FFFFFF"/>
		<stop  offset="1" style="stop-color:#666E83"/>
	</linearGradient>
	<path class="st23" d="M1278.2,30.6c-2.8,2.5-6.3,4.7-10.3,5.3c-3.8,0.6-8.3-4.7-13-5.3c-5.1-0.6-12.2,8.3-18.2,10.2
		c-4.1,1.3-7.7-5.3-9.9-3.6c-5.5,4.2-2,9.1-5.3,11c-6.7,3.6-11.1-3.4-20.7-13.4c-4.3-4.5-9.5,4.7-14.6,1.7c-1.2-0.6-3.4-9.8-5.7-11
		c-2.6-1.5-5.5,4.9-6.7,3.2c-3.4-4.9-1.4-9.8-3.6-8.3c-4.5,3-2.8-4.5-7.7-9.3c-2.6-2.5-10.5-0.4-14-4c-6.3-6.6-9.5-15.7-17.2-19.5
		c-4.7-2.3-10.7,0.8-20.2-2.1c-25.1-7.6-14.6-11.7-37.3-39c-22.9-27.4-0.6-14.6,5.7-21c6.1-6.4,8.9-4.7,21.7,0.6
		c12.8,5.3,11.8-7.6,19-9.3c7.3-1.7,11.7,3,22.9,12.3c11.1,9.3,20,5.9,30.2,8.3c10.1,2.3,18.4-5.3,20,2.3
		c1.6,7.6,6.7,12.9,10.1,10.6c3.5-2.3,14,0.6,17.8,5.9c3.8,5.3-5.1,5.3,8.3,8.7c13.4,3.6,6.1,6.4,6.1,6.4c4.4-1.3,30.2-4.7,24.5,9.3
		c-5.7,14,6.7,9.3,12.8,7.6c2-0.6,3.7,1.5,5.3,4.7V30.6L1278.2,30.6z"/>
	
		<linearGradient id="SVGID_24_" gradientUnits="userSpaceOnUse" x1="636.5896" y1="1150.506" x2="636.5896" y2="870.956" gradientTransform="matrix(1 0 0 -1 0 897.1511)">
		<stop  offset="0" style="stop-color:#FFFFFF"/>
		<stop  offset="1" style="stop-color:#5F5E7C"/>
	</linearGradient>
	<path class="st24" d="M353.8-36.2c3.4-3.8-2.6-53.9-7.7-57.7c-26.7-21.7,3.2-35.9,7.7-44.4c4.3-8.5,3-1.5,3.8,4.5
		c0.8,5.9,2.2,7.6,3.4-1.9c1.2-9.6,1.8-12.1,4-10.2c2.2,1.9,2.4,0.6,2.8-7.4c0.4-8.1,4-19.7,8.9-20.6c4.9-0.6,7.9-9.6,12.7-18
		c4.9-8.5,4.7-20.6,16.2-28.9c11.5-8.5,5.1,7.4,9.9,20.6c5.1,13.2,6.3,2.5,7.3-1.5c1-4,8.3-1.3,8.9,0c1.8,3.6,5.1,5.1,7.3-2.1
		c2.2-7.4,4.2-1.5,12.5,5.1c8.3,6.6,6.7,10.2,6.7,1.5c0-8.7,23.9-3.4,23.3-5.1c-0.4-1.9-2.2-3.4-0.2-8.7c2-5.1,4.9-1.5,5.9,0.4
		c1,1.9,0.6,0.6,3.8,5.7c3.2,5.1,5.9,1.9,5.9-0.6c0-2.5-2.8-17,0.2-19.7c3-3,7.3-5.3,9.9-6.2c2.6-0.6,8.7,9.1,9.1,2.3
		c0.4-6.6,4.3-6.6,7.1-6.6c2.8,0,4-4.5,6.9-12.5s5.9-5.5,12.5,0c6.7,5.5,9.1,5.5,14.4,4.7c5.3-0.6,5.1,2.1,7.5,4
		c2.4,1.9,2-1.1,5.1,0c2.8,1.1,0.6,15.1,2,11.7c1.4-3.4,6.3-5.9,9.7-6.2c3.4-0.4,7.3,3.4,11.1,4.5c3.8,1.1,4.9,3.6,7.5,10
		c2.8,6.2,6.3,12.5,9.1,19.1c2.8,6.6,8.9,9.1,9.5,5.7c0.6-3.4,8.3,6.6,11.1,5.5c2.8-1.1,6.3,5.9,8.5,7s4,0,3.8,5.1
		c-0.2,5.1,7.7,8.9,8.3,12.3c1.4,7.2-1,4,2.6,3.6c3.6-0.4,8.1,6.8,12.3,6.8s5.1,1.9,5.3,5.1c0.4,3.4,7.5-0.4,7.7,2.1
		c0.4,2.5,3.4,1.9,6.5,0.6c3-1.1,2.8,0.4,2.6-4.2c-0.2-4.7,5.1-0.4,6.7,2.8c1.8,3.4-1.8,5.7,1.2,4.7c3-1.1,3.8,0.8,4.7-2.8
		c0.6-3.6,2,0.4,4.7-1.5c2.6-1.9-4.3-4-2.4-11.9c2-7.6,5.7-14.2,8.9-12.7c3.2,1.5,2.6,6.2,3.4,4.5c0.8-1.9,8.7,3.4,9.3,2.1
		c0.6-1.1,3.4,0.4,4.9,4.5c1.4,4,9.1,15.5,11.1,17c2,1.5,3-0.8,5.1-10.4c2-9.6,5.3-10.2,6.3-10.6c1-0.4,9.7-4.2,10.7,1.3
		c1,5.5,6.1,2.1,7.7-1.5s4.3-1.5,6.7,4.5c2.6,5.9,2.8,8.5,2.8,8.5c9.9,10.6,7.9-1.7,11.9,5.5c4,7.4,12.3,1.3,13.8,3.4
		c1.2,2.1,6.9,1.3,7.9,3.4c1,2.1,11.1,7.4,10.9,11.9c-0.2,4.5-21,13.4-20,12.9c1-0.4,4.9-0.4,5.5,3.8c0.6,4.2,3.4,0.4,4.3,0.2
		c0.8-0.4,3.6,0,4.7,2.5c1.2,2.5,1.6,6.6,2.8,7.4c1.2,0.6,1.8,1.9,1.2,4.7c-0.4,2.8,0.4,2.8,1.2,6.8c0.8,4,2,3.4,5.5,3.4
		c3.4,0,7.5-5.9,7.7-4c0.4,1.9,2.8,4.7,3.4,5.7c0.6,1.1,2,1.5,2.4,0.4c0.4-1.1,3.4,1.9,3.6,4.7c0.4,3,1.8,1.9,1.8,1.9s3.4,0,4.3,2.8
		c0.8,2.8,3.2,1.7,5.1,0.6c2-1.1,2.6-0.4,6.3,0c3.7,0.4,6.5,5.9,6.5,5.9c0.6,1.1,1.8,2.1,2.4-5.7c0.2-1.9,7.7-4.7,13.3,0
		c1.8,1.5,1.2,5.5,1.8,11.3c0.4,4,4.7,2.1,4.7,2.1c4.3-1.9,7.3-2.5,17.4,10.8c10.1,13.6,12.8,25,25.5,30.8
		c12.1,5.5-15.8,13.4-20.6,44.8H380.3c-4.7-11.3-7.7-22.9-19.4-31.4C328.5-28.5,350.4-32.3,353.8-36.2z"/>
	
		<linearGradient id="SVGID_25_" gradientUnits="userSpaceOnUse" x1="300.4902" y1="965.4815" x2="300.4902" y2="896.5775" gradientTransform="matrix(1 0 0 -1 0 897.1511)">
		<stop  offset="0" style="stop-color:#FFFFFF"/>
		<stop  offset="1" style="stop-color:#5F5E7C"/>
	</linearGradient>
	<path class="st25" d="M227.4,3.1c1-7.4-1.8-16.1,1-18.8c3-2.9,18.9-8.3,21.7-5.4c2.8,2.9,12.4,7.4,15.8,3.7
		c3.4-3.7,7.1-11.8,12.4-8.7c5.3,3.1,13.8-1,19.5-7.8c5.7-7,11.4-1.2,20.9,12.6c0,0-1.8-28.7,2-35.5c3.9-6.8,17.6,10.5,17.6,10.5
		s3.4-7.6,8.1-8.9c3.7-0.8,7.7,4.5,11.6,5.6c4.9,1.4,9.1,11.6,9.7,12c0.8,0.4-2,7.6-0.2,16.5c2.2,10.7,7.1,24.2,6.1,31.6h-140
		C230.1,7.4,227,5.3,227.4,3.1z"/>
	
		<linearGradient id="SVGID_26_" gradientUnits="userSpaceOnUse" x1="653.5164" y1="822.4504" x2="653.5164" y2="928.1474" gradientTransform="matrix(1 0 0 -1 0 897.1511)">
		<stop  offset="0" style="stop-color:#FFFFFF"/>
		<stop  offset="1" style="stop-color:#5F5E7C"/>
	</linearGradient>
	<path class="st26" d="M882.6,0c-3.6,10.5,7.1,12.8,15.8,21.9c8.5,9.1,15,10.5,0,16c-15,5.5-15,11-9.3,16c5.7,5.1-15-1.9-15-1.9
		s8.5,11.4-9.3,20.6c-18,9.1-37.3,21.1-41.5,6.9c-4.3-14.1-7.9-20-15-16.4c-7.1,3.6-19.5,5.1-22.3-1.5c-2.8-6.3,8.5-11-3.7-13.7
		c-12.2-2.7-13.6,5.5-23.7,3.6c-10.1-1.9-10.1-7.4-13-9.7c-2.8-2.3-15,0-22.9-4.2c-7.9-4.2-12.2-2.7-15.8,2.3s-12.2,7.8-19.4,7.8
		c-7.1,0-16.4,8.6-20.1,10.5c-3.6,1.9-17.2,5.1-20.1-3.6s-11.5-14.1-15.8-11.4c-4.3,2.7-21.5,6.3-30.2,13.7
		c-8.5,7.4-22.3-1.9-27.3,3.6c-5.1,5.5-20.9,15-30.2,16c-9.3,0.8-33.6-4-35.9-16c-2.2-11.8,8.5-24.2-11.5-22.3
		c-20.1,1.9-89.7-1.3-95.4-11.8c-5.7-10.5,5.7-30.1,18-34.3c10.1-3.4,31-2.7,31.2-12h409.6c0.2,0,0.4,0,0.6,0.2
		C875.5-16,886.3-10.5,882.6,0z"/>
	
		<linearGradient id="SVGID_27_" gradientUnits="userSpaceOnUse" x1="1070.2184" y1="728.6815" x2="1070.2184" y2="969.0038" gradientTransform="matrix(1 0 0 -1 0 897.1511)">
		<stop  offset="0" style="stop-color:#FFFFFF"/>
		<stop  offset="1" style="stop-color:#666E83"/>
	</linearGradient>
	<path class="st27" d="M1267.8,142c-7.1,7.2-19,9.7-21.9-2.8c-2.8-12.5,8.5-21.4-3.4-26.7c-12.1-5.3-13.6,10.6-23.3,7.2
		c-9.9-3.6-9.9-14.2-12.8-18.6c-2.8-4.5-14.8,0-22.7-8.1c-7.7-8.1-11.9-5.3-15.6,4.5c-3.4,9.7-11.9,15-19,15
		c-7.1,0-16.2,17-19.8,20.3c-3.6,3.6-17,9.7-19.8-7.2c-2.8-17-11.3-27.5-15.6-22.3s-21.3,12.5-29.8,26.7s-21.9-3.6-26.9,7.2
		c-2,4.5-13.8,7-18.2,12.5c-6.3,7.6-6.3,17.6-11.5,18.6c-4.3,0.8-11.3-23.1-18.2-27.3c-8.3-4.9-16,8.9-17.2-3.8
		c-2-23.1,8.5-47-11.3-43.4c-9.9,1.7-32,20.3-52.4,16.7c-9.9-1.7-9.1-11.7-16.6-19.7c-4.3-4.7-11.1,4.2-16.4,0.6
		c-4.5-3-8.1-18.4-8.7-20.8c-1.8-6.6-7.3-18.4-5.7-32c0.6-5.9,8.9-12.1,8.9-18.4c0-7.8,7.1-15.7,6.7-22.7c-1-14.6-9.7-26.1-5.3-29
		c11.9-8.1,31,12.7,41.5-0.8c9.1-11.9,5.9-25.9,0.6-39.6h366.4V157C1276.5,142,1273.3,136.4,1267.8,142z"/>
	
		<linearGradient id="SVGID_28_" gradientUnits="userSpaceOnUse" x1="121.5596" y1="948.9194" x2="121.5596" y2="886.7376" gradientTransform="matrix(1 0 0 -1 0 897.1511)">
		<stop  offset="0" style="stop-color:#FFFFFF"/>
		<stop  offset="1" style="stop-color:#666E83"/>
	</linearGradient>
	<path class="st28" d="M52.1,3.6C66.3,1.9,70.1-7,78.8-12.8c8.7-5.7,9.5-17,15.8-13c6.3,4,13.3,4,14.2,0c0.8-4,10.1-9.9,16.4-9
		c6.3,0.8,0,7.4,11.7,0c11.7-7.4,8.7,0,8.7,0c2.4-4,18-25.2,23.5-11.4c5.5,13.9,10.9,1.7,14.2-4c3-5.7,22,7.4,28.3,12.2
		c6.3,4.8,1.6,20.4-11.7,30.9c-6.1,4.8-8.5,11.4-9.7,17.7H28.9C32.5,5,39,5,52.1,3.6z"/>
	
		<linearGradient id="SVGID_29_" gradientUnits="userSpaceOnUse" x1="120.7533" y1="824.2014" x2="120.7533" y2="908.2304" gradientTransform="matrix(1 0 0 -1 0 897.1511)">
		<stop  offset="0" style="stop-color:#FFFFFF"/>
		<stop  offset="1" style="stop-color:#666E83"/>
	</linearGradient>
	<path class="st29" d="M244.9-1.1c3.8,3.2-2.6,6.4,0.6,9.2c7.1,6.2,22.2,11.4,22.4,14.8c0.6,10.7,9.7,24.6,4.2,27.4
		c-2.2,1.3-4,7.5-11.7,5.6c-5.7-1.5-17-11.1-22.2-11.8c-4.8-0.6-8.9,6.6-10.9,4.9c-7.3-5.6-29.5-16.5-35.5-12.4
		c-6.1,4.1-11.1,14.6-23.6,7.7c-12.5-6.9-29.5-4.5-39.4,3.4c-6.3,4.9-6.7,2.4-18.4-6.4c-1.8-1.5-5.9,5.1-9.9,3.4
		c-3.6-1.5-7.1-11.3-9.1-13.1c-3.8-3.4-7.3-8.6-12.3-6.2c0,0-1.4,5.8,1.4,17.8c2.8,11.8,9.7,24.4,6.7,28.5c-2.8,3.9-7.1-5.1-16.2-9
		C66.8,61,57.5,66.8,54,64c-5.3-4.3-8.9-15.6-8.9-15.6S40.3,58.5,30.8,58C23.4,57.8,12.4,48.2,4,45c-11.3-4.3-23.8-21-25.4-21.8
		c-1.8-1.1,1.8-10.3-5.5-24.4c-1.6-3.2-3.6-6.6-5.5-10.1h260.9c0.4,1.1,1,2.1,1.8,3C232.2-5.6,242.3-3.2,244.9-1.1z"/>
	
		<linearGradient id="SVGID_30_" gradientUnits="userSpaceOnUse" x1="801.0153" y1="784.0654" x2="801.0153" y2="815.9969" gradientTransform="matrix(1 0 0 -1 0 897.1511)">
		<stop  offset="0" style="stop-color:#FFFFFF"/>
		<stop  offset="1" style="stop-color:#666E83"/>
	</linearGradient>
	<path class="st30" d="M787.6,97.6c0,0-1.6,0.4,1.2,1.5c2.8,1.1,0.8,0.9,1.6,2.1c0.6,1.3,2.9,2.1,3.7,1.9c0.8-0.4,1.6,0.9,1.8,2.6
		c0.2,1.7,2.2,0.2,4.3,1.1c2,0.9,4.1,0.4,6.3,2.8c2.2,2.4,3.1,3.4,4.7,3.4c1.6-0.2,1.8-3,4.3-1.5c2.6,1.5,3.3,1.9,4.7,0.9
		c1.4-1.3,5.9,2.4,1.8-4.5c-4.3-6.6-1.8-7.3-6.9-9.6c-5.3-2.4-5.7-3.2-7.5-5.8c-1.8-2.6-2.8-4.5-4.3-3.6c-1.6,0.9-4.5-1.7-6.3-4.1
		c-1.8-2.4-2.4-4.1-4.1-3.6c-1.6,0.6-4.3,3.8-7.7,2.8c-3.5-1.1-6.7,0.2-6.7,1.9c0,1.7,0.4,7.1,1.6,6.8c1.4-0.2,4.1-0.9,2.6,2.1
		C780.9,97.8,786.6,97.8,787.6,97.6z"/>
	
		<linearGradient id="SVGID_31_" gradientUnits="userSpaceOnUse" x1="1178.8293" y1="570.7581" x2="-216.9023" y2="570.7532" gradientTransform="matrix(1 0 0 -1 0 897.1511)">
		<stop  offset="0" style="stop-color:#FEFEFE;stop-opacity:0"/>
		<stop  offset="1" style="stop-color:#FFFFFF"/>
	</linearGradient>
	<rect x="-186.4" y="323.9" class="st31" width="1302.9" height="5"/>
	
		<linearGradient id="SVGID_32_" gradientUnits="userSpaceOnUse" x1="74.6423" y1="496.266" x2="256.7963" y2="299.95" gradientTransform="matrix(1 0 0 -1 0 897.1511)">
		<stop  offset="0" style="stop-color:#FEFEFE"/>
		<stop  offset="1" style="stop-color:#BFBFBF"/>
	</linearGradient>
	<path class="st32" d="M-15.1,436.4l-27.1,12.4c-3.5,1.6-5.7,5.1-5.7,8.9c0,5.4,4.4,9.8,9.8,9.8H292c5.6,0,10.1-4.5,10.1-10.1
		c0-3.7-2-7.1-5.2-8.9l-22.9-12.6c-2.4-1.3-5-2-7.7-2h-23.5c-4.3,0-8.4,1.7-11.4,4.8l-7.8,7.9c-3,3.1-7.1,4.8-11.4,4.8h-25.9
		c-2,0-4.1-0.4-6-1.1l-40.7-16.3l-33.5-12.1c-4.7-1.7-9.9-1.1-14.1,1.6l-37.4,24c-3.9,2.5-8.8,3.2-13.3,1.9l-45.3-13.6
		C-7.6,434.5-11.6,434.8-15.1,436.4z"/>
	
		<linearGradient id="SVGID_33_" gradientUnits="userSpaceOnUse" x1="742.0414" y1="549.4295" x2="776.3844" y2="166.0705" gradientTransform="matrix(1 0 0 -1 0 897.1511)">
		<stop  offset="0" style="stop-color:#FEFEFE"/>
		<stop  offset="1" style="stop-color:#BFBFBF"/>
	</linearGradient>
	<path class="st33" d="M511.3,398.5c-20.7,15.5-52.5,39.3-66.1,49.5c-4,3-6.3,7.6-6.3,12.6v7.5c0,8.8,7.2,16,16,16h595
		c8.8,0,16-7.2,16-16v-7.8c0-4.8-2.1-9.4-5.9-12.3c-18.5-14.8-48.2-37.2-53.9-36.2c-8,1.4-63.8,41-73.1,41
		c-9.3,0-108.9-19.1-124.9-28.7c-15.9-9.6-93-30-101-30c-8,0-59.8,34.1-71.7,30c-8.9-3.1-73.6-19.1-110.9-28.3
		C520,394.7,515.2,395.7,511.3,398.5z"/>
	
		<linearGradient id="SVGID_34_" gradientUnits="userSpaceOnUse" x1="518.783" y1="249.8024" x2="518.783" y2="530.2513" gradientTransform="matrix(1 0 0 -1 0 897.1511)">
		<stop  offset="0" style="stop-color:#FFFFFF"/>
		<stop  offset="1" style="stop-color:#666E83"/>
	</linearGradient>
	<path class="st34" d="M-129.7,337.3c-5.1,1.9-9.8,3.8-14.3,5.7v172.2c2.3,0.2,2.9,2.3,3.7,7.8c1.2,7.6,10.4,18.9,23.1,19.5
		c12.7,0.6,20.7,9,33.1,17c12.7,8,6.8,17.8,37,25.8c30.3,8,18.4-5.5,31.5-17.8c13.1-12.6,6.3-2.7,8.8,1c2.5,3.8,10.4,0.8,11.3-0.8
		c0.8-1.7,6.1-9.2,13.7-1.5c7.6,7.6,7.6,4.2,8,2.7c0.4-1.5,13.1-4.8,18.8,2.1c5.9,6.9,10.8,1.5,32.7-4.8c21.9-6.3,17.6-9.6,17.6-1.5
		c0,8.4,8,6.3,19.6,8c11.7,1.7,22.3-11.7,23.5-4.8s18.8,0,17.6,1.7c-1.2,1.7,0.4,5,5.5,9.9c5.1,4.8,7.2,2.7,9.6,1
		c2.5-1.7,1.2-3.6,9.6-8.4c8.4-4.8,15.1-1.7,15.1,0.6c0,2.5,9.2,15.3,17.2,18s8.8,12.6,15.6,13.2c6.8,0.6,7.2-10.5,9.6-13.6
		c2.5-3.1,6.3-1.7,7.6,4.6c1.2,6.3,11.3,6.3,18.4,6.3s10.4,4.2,18,11.7c7.6,7.6,15.1,5.2,32.7,0c17.6-5.2,23.5-5.2,37.4-4.6
		c13.9,0.6,13.1-2.1,19.2-3.8c6.3-1.7,5.5,1,13.1,0c7.6-1,1.6-14.3,5.5-11.1c3.7,3.1,16.4,5.7,25.2,5.9c8.8,0.4,18.8-3.1,29.1-4.2
		c10-1,12.7-3.6,19.6-9.4c7.2-5.9,9.6-12.8,16.8-19.1c7.2-6.3,23.1-15.7,24.8-12.6c1.6,3.1,9.2,4.6,14.3,2.7c5.1-1.7,14.3-1,21.9,0
		c7.6,1,10-0.6,13.1-3.1c2.9-2.5,3.3-2.5,9.2-3.6s10.4,0,10-4.8c-0.4-4.8,0-8.6,8-6.7c8,2.1,7.6,2.5,10.4-4.6
		c2.9-6.9,5.9-3.1,15.1-2.7c9.2,0.4,9.6,0.6,9.6-4.6s5.9-3.1,17.2-3.1c11.3,0,13.1-1.7,13.9-4.8c0.8-3.1,19.2,0.4,20.3-2.1
		c0.8-2.5,8.8-1.7,16.8-0.6c8,1,0.4,3.8,0,8.4c-0.4,4.6,1.2,10.1,5.9,6.9c4.7-3.1,2.9-7.8,10.8-6.7c8,1,16.4,1.5,18,5
		c1.6,3.6,10.4,5.7,17.2,7.3c6.8,1.7,2,14.9,7.2,22.2c5.1,7.3,14.7,13.6,23.1,12.2c8.4-1.5,6.8-5.9,8.8-4.2c2,1.7,5.1,3.1,11.7,0
		c6.8-3.1,10.8-3.1,12.7-2.1c1.6,1,8.8-0.4,12.7-4.2c3.7-3.8,9.6-3.8,15.1-5.2c5.5-1.5,18.4-3.8,23.5,5.2c5.1,9,7.6,8.4,10,8.6
		c2.5,0.4,9.6-4.2,10,1.5c0.4,5.7,10.8,8.6,13.5,3.6c2.5-5.2,16-2.1,20.3,1.5c4.3,3.6,21.9,14.9,28.4,9.4c6.8-5.7,7.2-8,7.2-8
		c25.6-10.1,5.5-18.5,16-25.4c10.4-6.9,16-34,19.2-36.1c3.3-2.1,8,0,10.4-2.1c2.5-2.1,7.2-3.8,6.8-8c-0.4-4.2,8.4-6.3,10.9-5.9
		c2.4,0.4,12.7,0.4,14.3-3.8c1.6-4,8.8-0.4,10.8-0.2c2.1,0.4,9.2,0,12.3-2.5c2.9-2.5,4.3-6.3,7.2-6.9c2.9-0.6,4.7-1.7,3.3-4.4
		c-1.2-2.5,1.2-2.5,3.3-6.5c2-3.8,5.5-3.1,14.3-3.1s8,7.1,20.3,3.8c2.3-0.6,7.2-4.6,8.8-5.5c1.6-0.8,5.5-1.5,6.3-0.4
		c0.8,1,6.3,0,6.3,0s2.5-1.7,3.3-4.4c0.8-2.7,4.7-1.7,4.7-1.7s3.7,0,5.5,1.5c1.6,1.5,3.3-1.5,5.5-4c2-2.5,9.2-3.4,13.5-0.6
		c20.3,13.4,29.1,5,36.8,1.5V337.3H-129.7z"/>
	
		<linearGradient id="SVGID_35_" gradientUnits="userSpaceOnUse" x1="1084.7156" y1="377.9186" x2="1084.7156" y2="574.9009" gradientTransform="matrix(1 0 0 -1 0 897.1511)">
		<stop  offset="0" style="stop-color:#FFFFFF"/>
		<stop  offset="1" style="stop-color:#666E83"/>
	</linearGradient>
	<path class="st35" d="M992.9,417.5c1.4,11.8-2,25.3,2,30c4.1,4.6,19.3,44.7,23.2,40.3c3.9-4.4,19.5-41.8,24.2-35.9
		c4.7,6.1,13,18.8,20.1,14.1c6.9-4.9,18.5,2.1,26.4,13.3c7.9,11.2,8.3,30,20.9,8.4c0,0,5.3,17.9,10.8,28.9c5.5,11,23.6-16,23.6-16
		s26.2,16.5,32.5-9.7v-94.7c-10.8-8.6-21.8-14.6-28.5-12.7c-8.9,2.5-10.8-46.2-22.6-56.5c-12-10.3-26.4-2.3-24.4,11.2
		c2,13.3-17.7,19.4-20.3,15.8c-2.6-3.8-18.1-6.1-22.2-5.3c-4.1,0.8,7.5,18.8,3.3,38.4c-4.3,19.6-31.3-22.8-48-22.6
		C997.2,364.7,991.5,405.6,992.9,417.5z"/>
	
		<linearGradient id="SVGID_36_" gradientUnits="userSpaceOnUse" x1="697.1126" y1="387.9341" x2="697.1126" y2="499.78" gradientTransform="matrix(1 0 0 -1 0 897.1511)">
		<stop  offset="0" style="stop-color:#FFFFFF"/>
		<stop  offset="1" style="stop-color:#666E83"/>
	</linearGradient>
	<path class="st36" d="M715.5,475.9c-9.6,12.3-15.5,17.5-21.2,11.3c-5.7-6.3-14.3-9.8-19.6-7.1c-5.3,2.9-9-4.4-12.5-7.9
		c-3.5-3.3-13.1,0.8-15.9,3.3c-2.9,2.5-18.8-2.3-21.8-4.8c-3.1-2.5-0.2-10.2-1-16.9c-0.6-3.8,11.2-7.7,14.7-15
		c2.7-5.6-3.7-15.2,1.6-15.5c12.5-0.4,32,23.2,35.5,11.9c3.5-11.3-4.9-21.1-1.8-21.7c3.1-0.6,14.5,0.4,16.5,2.5
		c1.8,2.1,16.7-1.7,15.5-9.4c-1.4-7.5,9.6-12.3,18.4-6.7c8.8,5.6,9.4,33.2,16.1,31.7c6.7-1.5,18.6,4.6,28.8,11.5
		c6.1,4.2-0.8,20.3-3.9,32.6c-1.8,7.9,1,14.4,0.2,14.8c-0.8,0.4-4.9,9.4-10,10.7c-3.9,1-8,5.8-11.6,5c-4.7-1-8.2-7.9-8.2-7.9
		s-13.9,15.7-17.8,9.6C713.5,501.8,715.5,475.9,715.5,475.9z"/>
	
		<linearGradient id="SVGID_37_" gradientUnits="userSpaceOnUse" x1="119.7848" y1="339.524" x2="119.7848" y2="418.092" gradientTransform="matrix(1 0 0 -1 0 897.1511)">
		<stop  offset="0" style="stop-color:#FFFFFF"/>
		<stop  offset="1" style="stop-color:#666E83"/>
	</linearGradient>
	<path class="st37" d="M112,545.7c-2.9-3.9-9.6,0.6-13.7-3.7c-4.1-4.3-10.2-7-14.1-4.9c-3.7,2.1-6.5-3.1-8.8-5.6
		c-2.5-2.3-9.4,0.6-11.4,2.5c-2,1.9-13.5-1.6-15.5-3.5c-2-1.9-15.9-11.9-16.6-16.7c-0.4-2.7,23.7-0.6,26.4-5.8
		c1.8-3.9-2.7-10.7,1.2-10.9c8.8-0.2,22.9,16.3,25.4,8.4c2.5-7.8-3.5-14.8-1.4-15.2c2.2-0.4,10.4,0.4,11.9,1.9
		c1.4,1.4,12.1-1.2,11-6.6c-1-5.4,7-8.6,13.1-4.7c6.3,3.9,6.7,23.5,11.7,22.2c4.9-1,13.3,3.3,20.4,8c4.5,2.9,58.3,4.3,56.2,13
		c-0.4,2.1-6.1,15.2-14.1,18.1c-5.3,2.1-11.9-10.5-18.2-10.7c-10.2,0-20.4,11.5-26.4,12.8c-0.6,0.2-3.5,6.6-7.2,7.6
		c-2.7,0.6-5.7,4.1-8.4,3.5c-3.3-0.8-5.9-5.6-5.9-5.6s-9.8,11.1-12.7,6.8C111.8,552.3,112,545.7,112,545.7z"/>
	
		<linearGradient id="SVGID_38_" gradientUnits="userSpaceOnUse" x1="171.899" y1="371.2411" x2="171.899" y2="543.1835" gradientTransform="matrix(1 0 0 -1 0 897.1511)">
		<stop  offset="0" style="stop-color:#FFFFFF"/>
		<stop  offset="1" style="stop-color:#666E83"/>
	</linearGradient>
	<path class="st38" d="M-35,454.8c0,0-9.6,10,5.5,21.5c15.2,11.5,31.3,25.9,37.3,12.5c5.9-13.4,10.2-18.6,16.2-14
		c6.1,4.6,17,7.7,20.7,1.7c3.5-5.9-6.4-11.9,5.3-13c11.7-1,11.7,7.3,21.3,6.9c9.4-0.4,10.2-5.9,13.3-7.5c2.9-1.9,13.9,2.1,21.7-0.8
		c7.8-2.9,11.7-1,14.1,4.4c2.7,5.4,10,9.4,16.8,10.2c6.6,1,13.9,10.9,17,13.2c3.1,2.3,15.2,7.3,19.1-0.8s12.5-12.3,16.2-9
		c3.5,3.3,18.9,9.2,25.8,17.8c7,8.4,20.7,1.3,24.6,7.3c3.9,6.1,17,17.8,25.4,19.9c8.4,2.3,31.6,0.6,35.2-10.7
		c3.7-11.3-4.5-24.9,13.7-20.3c18.2,4.6,82.6,11.3,89.5,1.7c6.8-9.4-1-30.3-11.7-36.2c-10.7-5.6-35.9-7.7-23.8-22.4
		c12.3-14.6,19.5-27.8,15.8-38.9c-3.7-11.1-12.3-17.3-37.5-20.3c-25.2-2.9-70.9,4.8-90.4,9.2s-20.3-9-23.2-16.3
		c-3.1-7.3-35.2-12.8-63.7-16.5c-28.5-4-41.2,18.4-61.7,20.9c-20.5,2.3-75.6-18.4-81.1-16.9c-5.5,1.5-17.8,11.5-17.8,19.6
		c0.2,8.4-6.4,6.9-20.7,8.4c-14.3,1.5-25,5.4-23.4,16.1c1.8,10.9-8.4,11.5-17.6,19.2c-9.2,7.7-15.4,8.2-2.3,15.7
		c13.1,7.5,12.3,13,6.4,16.9C-55.3,458.5-35,454.8-35,454.8z"/>
	
		<linearGradient id="SVGID_39_" gradientUnits="userSpaceOnUse" x1="634.4134" y1="444.5824" x2="634.4134" y2="538.2064" gradientTransform="matrix(1 0 0 -1 0 897.1511)">
		<stop  offset="0" style="stop-color:#FFFFFF"/>
		<stop  offset="1" style="stop-color:#666E83"/>
	</linearGradient>
	<path class="st39" d="M684.6,441.1c0,0,4.7,6.4-8.6,2.1c-13.2-4.4-5.5,0.4-11.6,2.7c-5.9,2.3-16.5-1-18.1-4.8
		c-1.6-3.7-8.6-2.1-13.8,3.3c-5.3,5.4-8.6-5.4-18.3-8.9c-9.8-3.5-15.5-11.2-29.7-9.5c-14.3,1.7-20.4,3.1-25.7-2.3
		c-5.3-5.4,2.2-15.4-11.4-18.1c-13.6-2.5-16.9-2.7-18.9-11.2c-2-8.7-27.5-10.2,5.9-20.6s26.5-19.5,51.7-12.2
		c25.3,7.3,28.9,5.6,42.8,2.3c13.8-3.3,22-6.9,25.5,0.6c3.3,7.5,20.4,7.7,33.6,4.6c13-3.1,20.6-6.4,24.4,0
		c3.9,6.4,4.3,25.5,19.6,32.6c15.5,7.1,23.4,21,18.3,27.2c-5.1,6.2-20.8,23.3-25,18.3c-4.3-4.8-12.4-15.4-14.9-0.6
		C707.8,461.2,687.6,444.4,684.6,441.1z"/>
	
		<linearGradient id="SVGID_40_" gradientUnits="userSpaceOnUse" x1="96.9846" y1="747.8224" x2="96.9846" y2="515.7844" gradientTransform="matrix(1 0 0 -1 0 897.1511)">
		<stop  offset="0" style="stop-color:#FFFFFF"/>
		<stop  offset="1" style="stop-color:#666E83"/>
	</linearGradient>
	<path class="st40" d="M219.3,219c-11.6-0.2-13.3,2.5-14.3,6.9c-0.8,4.4-19.8-0.4-20.6,2.9c-0.8,3.4-9,2.5-17.2,1
		c-8.2-1.5-0.4-5.5,0-11.7s-1.2-14.1-6.1-9.9c-4.7,4.4-3.1,10.9-11.2,9.4c-8.2-1.5-16.8-2.1-18.6-6.9c-1.6-4.8-10.8-7.8-17.8-10.3
		c-6.9-2.5-2.2-21-7.4-31.3c-5.1-10.3-15.1-19.1-23.7-17c-8.6,1.9-6.9,8.4-9,5.9c-2.2-2.5-5.1-4.4-12.1,0c-6.7,4.2-11,4.2-12.9,2.7
		c-1.6-1.5-9,0.4-12.9,5.9c-3.9,5.5-10,5.5-15.5,7.3c-5.5,1.9-19,5.5-24.1-7.3c-5.1-12.6-7.8-11.7-10.4-12.2
		c-2.7-0.4-10,5.9-10.4-1.9c-0.4-7.8-11.2-12.2-13.9-4.8c-2.7,7.3-16.3,2.9-20.6-1.9c-4.3-4.8-11.2-1.9-18.2,5.9
		C-84.6,159.6-85,163-85,163c-26.4,14.1-5.5,25.8-16.3,35.7c-10.8,9.9-16.3,47.8-19.8,50.8c-3.5,2.9-8.2,0-10.8,2.9
		c-2.7,2.9-7.4,5.5-6.9,11.1c0.2,3.1-2.5,5.5-5.1,6.9v105.3h475.3l6.7-9C335.8,368.1,288.2,219.6,219.3,219z"/>
	
		<linearGradient id="SVGID_41_" gradientUnits="userSpaceOnUse" x1="844.4975" y1="736.9434" x2="844.4975" y2="571.6785" gradientTransform="matrix(1 0 0 -1 0 897.1511)">
		<stop  offset="0" style="stop-color:#FFFFFF"/>
		<stop  offset="1" style="stop-color:#666E83"/>
	</linearGradient>
	<path class="st41" d="M1181.6,338.9c-1.2-1-2.4-3.8-3.7-8.4c-3.1-12.8-4.7-16.1-10.8-13.6c-6.1,2.5-6.5,1-7.8-9.9
		c-1.2-10.7-10.8-26.4-23.9-27.5s-21.3-12.8-34.2-23.9c-13.1-11.3-12.5-27.5-43.8-38.6c-31.3-11.3-13.5,9.9-26.8,27.5
		c-13.5,17.6-17,3.4-19.4-1.9c-2.7-5.5-5.7-2.5-6.5,0c-0.8,2.5-1.2,14.7-9,4c-7.8-10.7-7.8-5.9-8.2-4c-0.4,1.9-13.5,6.9-19.4-2.9
		c-6.1-9.9-11.3-1.9-33.8,6.9c-22.5,8.8-18.2,13.6-18.2,1.9s-8.2-8.8-20.4-11.3c-12.1-2.5-22.9,16.6-24.3,6.9
		c-1.2-9.9-19.4,0-18.2-2.5c1.2-2.5-3.1-17.6-8.2-24.5c-5.1-6.9-4.7-4-7.4-1.5c-2.7,2.5-1.2,15.7-10,22.4c-8.6,6.9-15.6,2.5-15.6-1
		c0-3.4-9.6-21.6-17.8-25.4c-8.2-4-9-17.6-16-18.7c-7-1-7.4,14.7-10,19.1c-2.7,4.4-6.5,2.5-7.8-6.3s-11.7-8.8-19-8.8
		s-10.8-5.9-18.6-16.6s-15.5-7.3-33.8,0s-24.3,7.3-38.7,6.3c-14.3-1-13.5,2.9-19.8,5.4c-6.5,2.5-5.7-1.5-13.5,0
		c-7.8,1.5-1.6,20.1-5.7,15.7c-3.9-4.4-17-7.8-26-8.4c-9-0.4-19.4,4.4-29.9,5.9c-10.4,1.5-13.1,4.8-20.5,13.2
		c-7.4,8.4-10,18-17.4,26.8c-2.7,3.1-6.3,6.9-10.2,10.1v83.4H1181.6z"/>
	
		<linearGradient id="SVGID_42_" gradientUnits="userSpaceOnUse" x1="797.2711" y1="374.5798" x2="797.2711" y2="469.8318" gradientTransform="matrix(1 0 0 -1 0 897.1511)">
		<stop  offset="0" style="stop-color:#FFFFFF"/>
		<stop  offset="1" style="stop-color:#666E83"/>
	</linearGradient>
	<path class="st42" d="M670.8,427.8c1.6,11.6-3.3,24.6,1.8,29c5.1,4.3,32.7,12.6,37.6,8.3c4.9-4.3,21.7-11.4,27.4-5.8
		c5.9,5.8,12.3,18.2,21.5,13.5c9.2-4.8,23.9,1.4,33.7,12c9.8,10.6,19.8,1.9,36.4-19.2c0,0-3.3,44.1,3.5,54.6
		c7,10.6,30.7-16.3,30.7-16.3s6.1,11.8,14.1,13.7c6.1,1.4,13.5-6.8,20-8.5c8.6-2.3,15.7-17.6,17.2-18.2c1.4-0.6-3.5-11.6-0.4-25.2
		c2.9-12.2,8.4-26.9,10-38.1H670.8C670.8,427.4,670.8,427.6,670.8,427.8z"/>
	
		<linearGradient id="SVGID_43_" gradientUnits="userSpaceOnUse" x1="-34.1149" y1="411.3054" x2="-34.1149" y2="543.5664" gradientTransform="matrix(1 0 0 -1 0 897.1511)">
		<stop  offset="0" style="stop-color:#FFFFFF"/>
		<stop  offset="1" style="stop-color:#666E83"/>
	</linearGradient>
	<path class="st43" d="M-142.4,467.4c2.9,2.5,6.3,4.6,10.4,5.3c3.9,0.6,8.4-4.6,13.1-5.3c5.1-0.6,12.3,8.2,18.4,10.1
		c4.1,1.3,7.8-5.3,10-3.6c5.5,4.2,2,9.1,5.3,11c6.8,3.6,11.3-3.4,20.9-13.3c4.3-4.4,9.6,4.6,14.7,1.7c1.2-0.6,3.5-9.7,5.7-11
		c2.7-1.5,5.5,4.8,6.8,3.2c3.5-4.8,1.4-9.7,3.7-8.2c4.5,2.9,2.9-4.4,7.8-9.3c2.7-2.5,10.6-0.4,14.1-4c6.3-6.5,9.6-15.6,17.4-19.4
		c4.7-2.3,10.8,0.8,20.5-2.1C51.7,415,41.1,411,64,383.8c23.1-27.2,0.6-14.5-5.7-20.9c-6.1-6.3-9-4.6-21.9,0.6
		c-12.9,5.3-11.9-7.6-19.2-9.3c-7.4-1.7-11.9,2.9-23.1,12.2c-11.3,9.3-20.3,5.9-30.5,8.2c-10.2,2.3-18.6-5.3-20.3,2.3
		c-1.6,7.6-6.8,12.8-10.2,10.5c-3.5-2.3-14.1,0.6-18,5.9c-3.9,5.3,5.1,5.3-8.4,8.6c-13.5,3.6-6.1,6.3-6.1,6.3
		c-4.5-1.3-30.5-4.6-24.8,9.3c5.7,13.9-6.8,9.3-12.9,7.6c-2-0.6-3.7,1.5-5.3,4.6V467.4L-142.4,467.4z"/>
	
		<linearGradient id="SVGID_44_" gradientUnits="userSpaceOnUse" x1="505.7542" y1="711.7868" x2="505.7542" y2="434.1048" gradientTransform="matrix(1 0 0 -1 0 897.1511)">
		<stop  offset="0" style="stop-color:#FFFFFF"/>
		<stop  offset="1" style="stop-color:#666E83"/>
	</linearGradient>
	<path class="st44" d="M791.5,401.1c-3.5-3.8,2.6-53.6,7.8-57.4c27-21.5-3.3-35.6-7.8-44.1c-4.3-8.4-3.1-1.5-3.9,4.4
		c-0.8,5.9-2.3,7.6-3.5-1.9c-1.2-9.5-1.8-12-4.1-10.1c-2.3,1.9-2.5,0.6-2.9-7.4c-0.4-8-4.1-19.6-9-20.5c-4.9-0.6-8-9.5-12.9-17.9
		c-4.9-8.4-4.7-20.5-16.4-28.7c-11.7-8.4-5.1,7.4-10,20.5c-5.1,13.1-6.3,2.5-7.4-1.5c-1-4-8.4-1.3-9,0c-1.8,3.6-5.1,5.1-7.4-2.1
		c-2.2-7.4-4.3-1.5-12.7,5.1c-8.4,6.5-6.7,10.1-6.7,1.5s-24.1-3.4-23.5-5.1c0.4-1.9,2.2-3.4,0.2-8.6c-2-5.1-4.9-1.5-5.9,0.4
		c-1,1.9-0.6,0.6-3.9,5.7c-3.3,5.1-5.9,1.9-5.9-0.6c0-2.5,2.9-16.9-0.2-19.6c-3.1-3-7.4-5.3-10-6.1c-2.7-0.6-8.8,9.1-9.2,2.3
		c-0.4-6.5-4.3-6.5-7.2-6.5c-2.9,0-4.1-4.4-7-12.4c-2.9-8-5.9-5.5-12.7,0c-6.7,5.5-9.2,5.5-14.5,4.6c-5.3-0.6-5.1,2.1-7.6,4
		s-2-1.1-5.1,0c-2.9,1.1-0.6,15-2,11.6c-1.4-3.4-6.3-5.9-9.8-6.1c-3.5-0.4-7.4,3.4-11.2,4.4c-3.9,1.1-4.9,3.6-7.6,9.9
		c-2.9,6.1-6.3,12.4-9.2,19c-2.9,6.5-9,9.1-9.6,5.7s-8.4,6.5-11.2,5.5c-2.9-1.1-6.3,5.9-8.6,7c-2.2,1.1-4.1,0-3.9,5.1
		c0.2,5.1-7.8,8.9-8.4,12.2c-1.4,7.2,1,4-2.7,3.6c-3.7-0.4-8.2,6.7-12.5,6.7c-4.3,0-5.1,1.9-5.3,5.1c-0.4,3.4-7.6-0.4-7.8,2.1
		c-0.4,2.5-3.5,1.9-6.5,0.6c-3.1-1.1-2.9,0.4-2.7-4.2c0.2-4.6-5.1-0.4-6.7,2.7c-1.8,3.4,1.8,5.7-1.2,4.6c-3.1-1.1-3.9,0.8-4.7-2.7
		c-0.6-3.6-2,0.4-4.7-1.5c-2.7-1.9,4.3-4,2.5-11.8c-2-7.6-5.7-14.1-9-12.7c-3.3,1.5-2.7,6.1-3.5,4.4c-0.8-1.9-8.8,3.4-9.4,2.1
		c-0.6-1.1-3.5,0.4-4.9,4.4c-1.4,4-9.2,15.4-11.2,16.9c-2,1.5-3.1-0.8-5.1-10.3c-2-9.5-5.3-10.1-6.3-10.5c-1-0.4-9.8-4.2-10.8,1.3
		c-1,5.5-6.1,2.1-7.8-1.5c-1.6-3.6-4.3-1.5-6.7,4.4c-2.7,5.9-2.9,8.4-2.9,8.4c-10,10.5-8-1.7-12.1,5.5c-4.1,7.4-12.5,1.3-13.9,3.4
		c-1.2,2.1-7,1.3-8,3.4c-1,2.1-11.2,7.4-11,11.8c0.2,4.4,21.3,13.3,20.2,12.9c-1-0.4-4.9-0.4-5.5,3.8c-0.6,4.2-3.5,0.4-4.3,0.2
		c-0.8-0.4-3.7,0-4.7,2.5c-1.2,2.5-1.6,6.5-2.9,7.4c-1.2,0.6-1.8,1.9-1.2,4.6c0.4,2.7-0.4,2.7-1.2,6.7c-0.8,4-2,3.4-5.5,3.4
		s-7.6-5.9-7.8-4c-0.4,1.9-2.9,4.6-3.5,5.7c-0.6,1.1-2,1.5-2.5,0.4s-3.5,1.9-3.7,4.6c-0.4,3-1.8,1.9-1.8,1.9s-3.5,0-4.3,2.7
		c-0.8,2.7-3.3,1.7-5.1,0.6c-2-1.1-2.7-0.4-6.3,0c-3.7,0.4-6.5,5.9-6.5,5.9c-0.6,1.1-1.8,2.1-2.5-5.7c-0.2-1.9-7.8-4.6-13.5,0
		c-1.8,1.5-1.2,5.5-1.8,11.2c-0.4,4-4.7,2.1-4.7,2.1c-4.3-1.9-7.4-2.5-17.6,10.8c-10.2,13.5-12.9,24.9-25.8,30.6
		c-12.3,5.5,15.9,13.3,20.9,44.5h539.5c4.7-11.2,7.8-22.8,19.6-31.2C817,408.7,794.9,404.9,791.5,401.1z"/>
	
		<linearGradient id="SVGID_45_" gradientUnits="userSpaceOnUse" x1="845.3152" y1="527.9985" x2="845.3152" y2="459.5557" gradientTransform="matrix(1 0 0 -1 0 897.1511)">
		<stop  offset="0" style="stop-color:#FFFFFF"/>
		<stop  offset="1" style="stop-color:#666E83"/>
	</linearGradient>
	<path class="st45" d="M919.1,440.1c-1-7.4,1.8-16-1-18.7c-3.1-2.9-19.1-8.2-21.9-5.3s-12.5,7.4-16,3.7c-3.5-3.7-7.2-11.7-12.5-8.6
		c-5.3,3.1-13.9-1-19.7-7.8c-5.7-7-11.5-1.2-21.1,12.5c0,0,1.8-28.5-2.1-35.3C820.9,373.8,807,391,807,391s-3.5-7.6-8.2-8.8
		c-3.7-0.8-7.8,4.5-11.7,5.5c-4.9,1.4-9.2,11.5-9.8,11.9c-0.8,0.4,2,7.6,0.2,16.4c-2.3,10.7-7.2,24-6.1,31.4h141.4
		C916.5,444.4,919.5,442.3,919.1,440.1z"/>
	
		<linearGradient id="SVGID_46_" gradientUnits="userSpaceOnUse" x1="488.6563" y1="385.9244" x2="488.6563" y2="490.9144" gradientTransform="matrix(1 0 0 -1 0 897.1511)">
		<stop  offset="0" style="stop-color:#FFFFFF"/>
		<stop  offset="1" style="stop-color:#666E83"/>
	</linearGradient>
	<path class="st46" d="M257.2,437.1c3.7,10.5-7.2,12.8-16,21.8c-8.6,9-15.1,10.5,0,15.9c15.1,5.4,15.1,10.9,9.4,15.9
		c-5.7,5,15.1-1.9,15.1-1.9s-8.6,11.3,9.4,20.5c18.2,9,37.7,20.9,42,6.9c4.3-14,8-19.9,15.1-16.3c7.2,3.6,19.6,5,22.5-1.5
		c2.9-6.3-8.6-10.9,3.7-13.6s13.7,5.4,23.9,3.6c10.2-1.9,10.2-7.3,13.1-9.6s15.1,0,23.1-4.2c8-4.2,12.3-2.7,16,2.3
		c3.7,5,12.3,7.7,19.6,7.7c7.2,0,16.6,8.6,20.3,10.5c3.7,1.9,17.4,5,20.3-3.6s11.7-14,16-11.3c4.3,2.7,21.7,6.3,30.5,13.6
		c8.6,7.3,22.5-1.9,27.6,3.6c5.1,5.4,21.1,14.9,30.5,15.9c9.4,0.8,34-4,36.2-15.9c2.3-11.7-8.6-24.1,11.7-22.2
		c20.3,1.9,90.7-1.3,96.4-11.7c5.7-10.5-5.7-29.9-18.2-34.1c-10.2-3.3-31.3-2.7-31.5-11.9H280.1c-0.2,0-0.4,0-0.6,0.2
		C264.3,421.2,253.5,426.6,257.2,437.1z"/>
	
		<linearGradient id="SVGID_47_" gradientUnits="userSpaceOnUse" x1="67.6702" y1="292.7826" x2="67.6702" y2="531.4985" gradientTransform="matrix(1 0 0 -1 0 897.1511)">
		<stop  offset="0" style="stop-color:#FFFFFF"/>
		<stop  offset="1" style="stop-color:#666E83"/>
	</linearGradient>
	<path class="st47" d="M-132,578c7.2,7.2,19.2,9.7,22.1-2.7s-8.6-21.3,3.5-26.5c12.3-5.3,13.7,10.5,23.5,7.2
		c10-3.6,10-14.1,12.9-18.5c2.9-4.4,14.9,0,22.9-8c7.8-8,12.1-5.3,15.7,4.4c3.5,9.7,12.1,14.9,19.2,14.9c7.2,0,16.4,16.8,20,20.2
		c3.7,3.6,17.2,9.7,20-7.2c2.9-16.8,11.5-27.4,15.7-22.1c4.3,5.3,21.5,12.4,30.1,26.5c8.6,14.1,22.1-3.6,27.2,7.2
		c2,4.4,13.9,6.9,18.4,12.4c6.3,7.6,6.3,17.5,11.7,18.5c4.3,0.8,11.5-22.9,18.4-27.2c8.4-4.8,16.2,8.8,17.4-3.8
		c2-22.9-8.6-46.7,11.5-43.1c10,1.7,32.3,20.2,53,16.6c10-1.7,9.2-11.6,16.8-19.6c4.3-4.6,11.2,4.2,16.6,0.6
		c4.5-2.9,8.2-18.3,8.8-20.6c1.8-6.5,7.4-18.3,5.7-31.8c-0.6-5.9-9-12-9-18.3c0-7.8-7.2-15.6-6.7-22.5c1-14.5,9.8-25.9,5.3-28.8
		c-12.1-8-31.3,12.6-41.9-0.8c-9.2-11.8-5.9-25.7-0.6-39.4H-144V593C-140.8,578-137.5,572.6-132,578z"/>
	
		<linearGradient id="SVGID_48_" gradientUnits="userSpaceOnUse" x1="1026.0848" y1="511.5474" x2="1026.0848" y2="449.782" gradientTransform="matrix(1 0 0 -1 0 897.1511)">
		<stop  offset="0" style="stop-color:#FFFFFF"/>
		<stop  offset="1" style="stop-color:#666E83"/>
	</linearGradient>
	<path class="st48" d="M1096.2,440.6c-14.3-1.7-18.2-10.4-27-16.3c-8.8-5.6-9.6-16.9-15.9-13c-6.3,4-13.5,4-14.3,0
		c-0.8-4-10.2-9.8-16.6-9c-6.3,0.8,0,7.3-11.8,0c-11.8-7.3-8.8,0-8.8,0c-2.4-4-18.2-25.1-23.7-11.3c-5.5,13.8-11,1.7-14.3-4
		c-3.1-5.6-22.3,7.3-28.6,12.1c-6.3,4.8-1.6,20.3,11.8,30.7c6.1,4.8,8.6,11.3,9.8,17.5h162.8C1116.1,442,1109.5,442,1096.2,440.6z"
		/>
	
		<linearGradient id="SVGID_49_" gradientUnits="userSpaceOnUse" x1="1026.8982" y1="387.6634" x2="1026.8982" y2="471.1304" gradientTransform="matrix(1 0 0 -1 0 897.1511)">
		<stop  offset="0" style="stop-color:#FFFFFF"/>
		<stop  offset="1" style="stop-color:#666E83"/>
	</linearGradient>
	<path class="st49" d="M901.5,436c-3.9,3.2,2.7,6.4-0.6,9.1c-7.1,6.2-22.4,11.3-22.7,14.7c-0.6,10.6-9.8,24.5-4.3,27.2
		c2.2,1.3,4.1,7.4,11.8,5.5c5.7-1.5,17.1-11.1,22.4-11.7c4.9-0.6,9,6.6,11,4.9c7.3-5.5,29.8-16.4,35.9-12.3
		c6.1,4,11.2,14.5,23.9,7.7c12.7-6.8,29.8-4.5,39.8,3.4c6.3,4.9,6.7,2.3,18.6-6.4c1.8-1.5,5.9,5.1,10,3.4c3.7-1.5,7.1-11.3,9.2-13
		c3.9-3.4,7.3-8.5,12.4-6.2c0,0,1.4,5.7-1.4,17.7c-2.9,11.7-9.8,24.2-6.7,28.3c2.9,3.8,7.1-5.1,16.3-8.9c4.3-1.7,13.7,4,17.1,1.3
		c5.3-4.3,9-15.5,9-15.5s4.9,10,14.5,9.6c7.6-0.2,18.6-9.8,27.1-13c11.4-4.3,24.1-20.8,25.7-21.7c1.8-1.1-1.8-10.2,5.5-24.3
		c1.6-3.2,3.7-6.6,5.5-10H918c-0.4,1.1-1,2.1-1.8,3C914.3,431.5,904.1,433.8,901.5,436z"/>
	
		<linearGradient id="SVGID_50_" gradientUnits="userSpaceOnUse" x1="851.0143" y1="481.1764" x2="851.0143" y2="538.0245" gradientTransform="matrix(1 0 0 -1 0 897.1511)">
		<stop  offset="0" style="stop-color:#FFFFFF"/>
		<stop  offset="1" style="stop-color:#666E83"/>
	</linearGradient>
	<path class="st50" d="M854.4,398.7c-6.7,3.1-10.4,3.9-11.4,0c-1-3.9-3.9-7.4-6.7-7.4c-2.9,0-2.9-3.9-3.7-6.2
		c-0.8-2.3-5.7-2.7-7.5-2.3c-1.8,0.4-7.5-5.1-8.1-7c-0.8-1.6,2.2-4.3,3.3-7.4c1-3.1,8.1-11.7,13.6-9c5.3,2.7,8.6,16.8,12.4,12.9
		c3.9-3.9,2.4-10.1,3.9-9.4c1.4,0.4,6.1,3.5,6.5,4.7c0.4,1.2,7.5,3.1,8.5-0.4c1-3.5,6.7-3.1,9.4,1.2c2.4,4.3-3.3,16,0,16.8
		c3.3,0.8,6.9,6.2,9.8,11.3c2.9,5.1-1.2,19.1-11.8,19.1c-1,0-7.9-8.2-13.8-8.2c-5.9,0-9.8,8.2-10,4.7
		C847.9,409,854.4,398.7,854.4,398.7z"/>
	
		<linearGradient id="SVGID_51_" gradientUnits="userSpaceOnUse" x1="707.6987" y1="536.2894" x2="707.6987" y2="594.8094" gradientTransform="matrix(1 0 0 -1 0 897.1511)">
		<stop  offset="0" style="stop-color:#FFFFFF"/>
		<stop  offset="1" style="stop-color:#666E83"/>
	</linearGradient>
	<path class="st51" d="M711.1,343.1c-6.7,3.2-10.4,4-11.4,0c-1-4-3.9-7.6-6.7-7.6s-2.8-4-3.7-6.3c-0.8-2.3-5.7-2.7-7.5-2.3
		c-1.8,0.4-7.5-5.3-8.1-7.2c-0.8-1.7,2.2-4.4,3.3-7.6c1-3.2,8.1-12,13.6-9.3c5.3,2.7,8.5,17.3,12.4,13.3c3.9-4,2.4-10.4,3.9-9.7
		c1.4,0.4,6.1,3.6,6.5,4.9c0.4,1.3,7.5,3.2,8.5-0.4c1-3.6,6.7-3.2,9.4,1.3c2.4,4.4-3.3,16.5,0,17.3c3.3,0.8,6.9,6.3,9.8,11.6
		c2.8,5.3-1.2,19.7-11.8,19.7c-1,0-7.9-8.5-13.8-8.5c-5.9,0-9.8,8.5-10,4.9C704.6,353.7,711.1,343.1,711.1,343.1z"/>
	
		<linearGradient id="SVGID_52_" gradientUnits="userSpaceOnUse" x1="351.0417" y1="491.0614" x2="351.0417" y2="549.5804" gradientTransform="matrix(1 0 0 -1 0 897.1511)">
		<stop  offset="0" style="stop-color:#FFFFFF"/>
		<stop  offset="1" style="stop-color:#666E83"/>
	</linearGradient>
	<path class="st52" d="M354.4,388.2c-6.7,3.2-10.4,4-11.4,0c-1-4-3.9-7.6-6.7-7.6c-2.9,0-2.9-4-3.7-6.3c-0.8-2.3-5.7-2.7-7.5-2.3
		c-1.8,0.4-7.5-5.3-8.1-7.2c-0.8-1.7,2.2-4.4,3.3-7.6s8.1-12,13.6-9.3c5.3,2.7,8.5,17.3,12.4,13.3c3.9-4,2.4-10.4,3.9-9.7
		c1.4,0.4,6.1,3.6,6.5,4.9c0.4,1.3,7.5,3.2,8.6-0.4s6.7-3.2,9.4,1.3c2.4,4.4-3.3,16.5,0,17.3c3.3,0.8,6.9,6.3,9.8,11.6
		c2.9,5.3-1.2,19.7-11.8,19.7c-1,0-7.9-8.5-13.8-8.5c-5.9,0-9.8,8.5-10,4.9C347.9,399,354.4,388.2,354.4,388.2z"/>
	
		<linearGradient id="SVGID_53_" gradientUnits="userSpaceOnUse" x1="529.369" y1="520.0174" x2="529.3711" y2="555.3164" gradientTransform="matrix(1 0 0 -1 0 897.1511)">
		<stop  offset="0" style="stop-color:#FFFFFF"/>
		<stop  offset="1" style="stop-color:#666E83"/>
	</linearGradient>
	<path class="st53" d="M549.8,370.5c0,0,2.2,1.9-2.9,1.5c-5.1-0.4-1.8,0.6-3.9,2.1c-1.8,1.2-5.9,1-6.7,0c-0.8-1.2-3.3,0-4.5,2.5
		c-1.4,2.3-3.5-1-7.1-1.5c-3.7-0.4-6.5-2.5-11.2-0.6c-4.9,1.9-6.9,2.9-9.2,1.7c-2.2-1.5-0.6-5.6-5.5-5.2c-5.1,0.4-6.1,0.6-7.6-2.3
		c-1.4-2.9-10.6-1,0.2-7.7c10.8-6.7,7.6-9.4,17.2-8.9c9.6,0.2,10.6-0.6,15.3-3.1c4.5-2.5,7.1-4.4,9-2.1c1.8,2.3,7.8,0.8,12.3-1.5
		c4.3-2.3,6.5-4.2,8.6-2.3c2,1.9,3.7,8.5,9.8,9.8c6.1,1,10,5.2,8.8,7.9c-1.2,2.7-5.3,10-7.1,8.7c-2-1.2-5.7-4.2-5.3,1
		C559.8,375.5,551.3,371.3,549.8,370.5z"/>
	
		<linearGradient id="SVGID_54_" gradientUnits="userSpaceOnUse" x1="339.6418" y1="347.7964" x2="339.6418" y2="379.5138" gradientTransform="matrix(1 0 0 -1 0 897.1511)">
		<stop  offset="0" style="stop-color:#FFFFFF"/>
		<stop  offset="1" style="stop-color:#666E83"/>
	</linearGradient>
	<path class="st54" d="M353.2,534c0,0,1.6,0.4-1.2,1.5c-2.9,1.1-0.8,0.9-1.6,2.1c-0.6,1.3-2.9,2.1-3.7,1.9c-0.8-0.4-1.6,0.9-1.8,2.5
		c-0.2,1.7-2.3,0.2-4.3,1.1c-2.1,0.8-4.1,0.4-6.4,2.8c-2.3,2.3-3.1,3.4-4.7,3.4c-1.6-0.2-1.8-3-4.3-1.5c-2.7,1.5-3.3,1.9-4.7,0.8
		c-1.4-1.3-6,2.3-1.8-4.5c4.3-6.6,1.8-7.2,7-9.6c5.3-2.3,5.7-3.2,7.6-5.7c1.8-2.6,2.9-4.5,4.3-3.6c1.6,0.8,4.5-1.7,6.4-4
		c1.8-2.3,2.5-4,4.1-3.6c1.6,0.6,4.3,3.8,7.8,2.8c3.5-1.1,6.8,0.2,6.8,1.9c0,1.7-0.4,7-1.6,6.8c-1.4-0.2-4.1-0.8-2.7,2.1
		C360,534.2,354.2,534.2,353.2,534z"/>
	
		<linearGradient id="SVGID_55_" gradientUnits="userSpaceOnUse" x1="12.299" y1="387.7654" x2="12.299" y2="419.4828" gradientTransform="matrix(1 0 0 -1 0 897.1511)">
		<stop  offset="0" style="stop-color:#FFFFFF"/>
		<stop  offset="1" style="stop-color:#666E83"/>
	</linearGradient>
	<path class="st55" d="M25.9,494.1c0,0,1.6,0.4-1.2,1.5s-0.8,0.9-1.6,2.1c-0.6,1.3-2.9,2.1-3.7,1.7c-0.8-0.4-1.6,0.8-1.8,2.5
		c-0.2,1.7-2.3,0.2-4.3,1.1c-2.1,0.9-4.1,0.4-6.4,2.8c-2.3,2.3-3.1,3.4-4.7,3.4c-1.6-0.2-1.8-3-4.3-1.5c-2.7,1.5-3.3,1.9-4.7,0.8
		c-1.4-1.3-6,2.3-1.8-4.5c4.3-6.6,1.8-7.2,7-9.6c5.3-2.3,5.7-3.2,7.6-5.7c1.8-2.5,2.9-4.5,4.3-3.6c1.6,0.9,4.5-1.7,6.4-4
		c1.8-2.3,2.5-4,4.1-3.6c1.6,0.6,4.3,3.8,7.8,2.8c3.5-1.1,6.8,0.2,6.8,1.9c0,1.7-0.4,7-1.6,6.8c-1.4-0.2-4.1-0.9-2.7,2.1
		C32.4,494.1,26.9,494.1,25.9,494.1z"/>
	
		<linearGradient id="SVGID_56_" gradientUnits="userSpaceOnUse" x1="60.342" y1="492.6314" x2="60.341" y2="564.5594" gradientTransform="matrix(1 0 0 -1 0 897.1511)">
		<stop  offset="0" style="stop-color:#FFFFFF"/>
		<stop  offset="1" style="stop-color:#666E83"/>
	</linearGradient>
	<path class="st56" d="M72.2,382.9c-6.2,8-9.9,11.3-13.7,7.4c-3.7-4-9.3-6.3-12.8-4.6c-3.5,1.9-5.8-2.9-8.1-5
		c-2.3-2.1-8.5,0.4-10.4,2.1s-12.2-1.5-14.1-3.2c-1.9-1.7-0.2-6.5-0.8-10.9c-0.4-2.5,7.2-5,9.5-9.7c1.7-3.6-2.5-9.9,1-10.1
		c8.1-0.2,20.9,14.9,23.2,7.8c2.3-7.1-3.1-13.7-1.2-14.1c2.1-0.4,9.5,0.2,10.8,1.7c1.2,1.3,11-1,9.9-6.1c-0.8-4.8,6.2-8,12-4.4
		c5.8,3.6,6.2,21.4,10.6,20.4c4.3-1,12,2.9,18.6,7.4c3.9,2.7-0.6,13-2.5,21c-1.2,5.3,0.6,9.2,0.2,9.7c-0.4,0.2-3.1,6.1-6.4,6.9
		c-2.5,0.6-5.2,3.8-7.5,3.2c-3.1-0.6-5.4-5.3-5.4-5.3s-8.9,10.1-11.6,6.1C71,399.5,72.2,382.9,72.2,382.9z"/>
	
		<linearGradient id="SVGID_57_" gradientUnits="userSpaceOnUse" x1="564.385" y1="581.2864" x2="564.385" y2="653.2155" gradientTransform="matrix(1 0 0 -1 0 897.1511)">
		<stop  offset="0" style="stop-color:#FFFFFF"/>
		<stop  offset="1" style="stop-color:#666E83"/>
	</linearGradient>
	<path class="st57" d="M575.9,294.3c-6.1,8-9.8,11.3-13.4,7.4c-3.7-4-9.2-6.3-12.4-4.6c-3.5,1.9-5.7-2.9-7.9-5
		c-2.2-2.1-8.3,0.4-10.2,2.1c-1.8,1.7-12-1.5-13.8-3.2c-1.8-1.7-0.2-6.5-0.8-10.9c-0.4-2.5,7.1-5,9.4-9.7c1.6-3.6-2.4-9.9,1-10.1
		c7.9-0.2,20.6,14.9,22.8,7.8c2.2-7.1-3.1-13.7-1.2-14.1c2-0.4,9.4,0.2,10.6,1.7c1.2,1.3,10.8-1,9.8-5.9c-0.8-4.8,6.1-8,11.8-4.4
		c5.7,3.6,6.1,21.4,10.4,20.4c4.3-1,11.8,2.9,18.3,7.4c3.9,2.7-0.6,13-2.4,21c-1.2,5.3,0.6,9.2,0.2,9.7c-0.4,0.2-3.1,6.1-6.3,6.9
		c-2.4,0.6-5.1,3.8-7.3,3.2c-3.1-0.6-5.3-5.3-5.3-5.3s-8.8,10.1-11.4,6.1C574.7,311.1,575.9,294.3,575.9,294.3z"/>
	
		<linearGradient id="SVGID_58_" gradientUnits="userSpaceOnUse" x1="1100.999" y1="484.3154" x2="1100.999" y2="556.2454" gradientTransform="matrix(1 0 0 -1 0 897.1511)">
		<stop  offset="0" style="stop-color:#FFFFFF"/>
		<stop  offset="1" style="stop-color:#666E83"/>
	</linearGradient>
	<path class="st58" d="M1112.7,391.3c-6.2,8-9.9,11.3-13.7,7.4c-3.7-4-9.3-6.3-12.6-4.6c-3.5,1.9-5.8-2.9-8.1-5
		c-2.3-2.1-8.5,0.4-10.4,2.1c-1.9,1.7-12.2-1.5-14.1-3.2c-1.9-1.7-0.2-6.5-0.8-10.9c-0.4-2.5,7.2-5,9.5-9.7c1.7-3.6-2.5-9.9,1-10.1
		c8.1-0.2,20.9,14.9,23.2,7.8c2.3-7.1-3.1-13.7-1.2-14.1c2.1-0.4,9.5,0.2,10.8,1.7c1.2,1.3,11-1,9.9-6.1c-0.8-4.8,6.2-8,12-4.4
		c5.8,3.6,6.2,21.4,10.6,20.4s12,2.9,18.6,7.4c3.9,2.7-0.6,13-2.5,21c-1.2,5.3,0.6,9.2,0.2,9.7c-0.4,0.2-3.1,6.1-6.4,6.9
		c-2.5,0.6-5.2,3.8-7.7,3.2c-3.1-0.6-5.4-5.3-5.4-5.3s-8.9,10.1-11.6,6.1C1111.4,407.9,1112.7,391.3,1112.7,391.3z"/>
	
		<linearGradient id="SVGID_59_" gradientUnits="userSpaceOnUse" x1="272.856" y1="253.3734" x2="272.856" y2="124.1255" gradientTransform="matrix(1 0 0 -1 0 897.1511)">
		<stop  offset="0" style="stop-color:#FFFFFF"/>
		<stop  offset="1" style="stop-color:#666E83"/>
	</linearGradient>
	<path class="st59" d="M543.1,783.6c-1-0.8-2-3-3-6.6c-2.5-10-3.8-12.6-8.7-10.7c-4.9,2-5.2,0.8-6.2-7.7c-1-8.4-8.7-20.7-19.2-21.5
		c-10.5-0.8-17.1-10-27.4-18.7c-10.5-8.9-10-21.5-35.1-30.2c-25.1-8.9-10.8,7.7-21.5,21.5c-10.8,13.8-13.6,2.6-15.6-1.5
		c-2.1-4.3-4.6-2-5.2,0c-0.7,2-1,11.5-7.2,3.1c-6.2-8.4-6.2-4.6-6.6-3.1c-0.3,1.5-10.8,5.4-15.6-2.3c-4.9-7.7-9-1.5-27.1,5.4
		c-18,6.9-14.6,10.7-14.6,1.5s-6.6-6.9-16.4-8.9c-9.7-2-18.4,12.9-19.5,5.4c-1-7.7-15.6,0-14.6-2c1-2-2.5-13.8-6.6-19.2
		c-4.1-5.4-3.8-3.1-5.9-1.1c-2.1,2-1,12.3-8,17.5c-6.9,5.4-12.5,2-12.5-0.8c0-2.6-7.7-16.9-14.3-19.8c-6.6-3.1-7.2-13.8-12.8-14.6
		c-5.6-0.8-5.9,11.5-8,14.9c-2.1,3.4-5.2,2-6.2-4.9c-1-6.9-9.3-6.9-15.3-6.9c-5.9,0-8.7-4.6-14.9-12.9c-6.2-8.4-12.5-5.7-27.1,0
		c-14.6,5.7-19.5,5.7-31,4.9c-11.5-0.8-10.8,2.3-15.9,4.3c-5.2,2-4.6-1.1-10.8,0c-6.2,1.1-1.3,15.7-4.6,12.3
		c-3.1-3.4-13.6-6.1-20.8-6.6c-7.2-0.3-15.6,3.4-23.9,4.6c-8.4,1.1-10.5,3.8-16.4,10.3c-5.9,6.6-8,14.1-13.9,21
		c-2.1,2.5-5.1,5.4-8.2,7.9v65.2H543.1z"/>
</g>
<rect y="-2.4" class="st60" width="1052" height="1063"/>
<g class="st61">
	<ellipse class="st62" cx="703.5" cy="393.1" rx="328.5" ry="88.5"/>
</g>
<g class="st61">
	<ellipse class="st62" cx="334.5" cy="248.1" rx="328.5" ry="88.5"/>
</g>
<g class="st61">
	<ellipse class="st62" cx="723.5" cy="696.1" rx="328.5" ry="88.5"/>
</g>
<g class="st61">
	<ellipse class="st62" cx="357.5" cy="570.1" rx="328.5" ry="88.5"/>
</g>
<linearGradient id="SVGID_60_" gradientUnits="userSpaceOnUse" x1="526.3454" y1="594.4194" x2="526.3454" y2="90.4074" gradientTransform="matrix(6.123234e-17 -1 -1 -6.123234e-17 499.2864 1061.5986)">
	<stop  offset="0" style="stop-color:#FFFFFF"/>
	<stop  offset="1" style="stop-color:#D9D9D9;stop-opacity:0"/>
</linearGradient>
<path class="st63" d="M-95.1,535.3L-95.1,535.3c0-3,2.5-5.5,5.5-5.5h493.1c3,0,5.5,2.5,5.5,5.5l0,0c0,3-2.5,5.5-5.5,5.5H-89.7
	C-92.7,540.7-95.1,538.3-95.1,535.3z"/>
<linearGradient id="SVGID_61_" gradientUnits="userSpaceOnUse" x1="1227.1694" y1="168.4505" x2="1227.1694" y2="-335.5615" gradientTransform="matrix(6.123234e-17 -1 -1 -6.123234e-17 774.1415 2188.3916)">
	<stop  offset="0" style="stop-color:#FFFFFF"/>
	<stop  offset="1" style="stop-color:#D9D9D9;stop-opacity:0"/>
</linearGradient>
<path class="st64" d="M605.7,961.2L605.7,961.2c0-3,2.5-5.5,5.5-5.5h493.1c3,0,5.5,2.5,5.5,5.5l0,0c0,3-2.5,5.5-5.5,5.5H611.2
	C608.1,966.7,605.7,964.2,605.7,961.2z"/>
<linearGradient id="SVGID_62_" gradientUnits="userSpaceOnUse" x1="773.0154" y1="860.1904" x2="773.0154" y2="356.1784" gradientTransform="matrix(6.123234e-17 -1 -1 -6.123234e-17 1011.7274 1042.4976)">
	<stop  offset="0" style="stop-color:#FFFFFF"/>
	<stop  offset="1" style="stop-color:#D9D9D9;stop-opacity:0"/>
</linearGradient>
<path class="st65" d="M151.5,269.5L151.5,269.5c0-3,2.5-5.5,5.5-5.5h493.1c3,0,5.5,2.5,5.5,5.5l0,0c0,3-2.5,5.5-5.5,5.5H157
	C154,275,151.5,272.5,151.5,269.5z"/>
<linearGradient id="SVGID_63_" gradientUnits="userSpaceOnUse" x1="901.3124" y1="317.4874" x2="901.3124" y2="-186.5246" gradientTransform="matrix(6.123234e-17 -1 -1 -6.123234e-17 597.3214 1713.4977)">
	<stop  offset="0" style="stop-color:#FFFFFF"/>
	<stop  offset="1" style="stop-color:#D9D9D9;stop-opacity:0"/>
</linearGradient>
<path class="st66" d="M279.8,812.2L279.8,812.2c0-3,2.5-5.5,5.5-5.5h493.1c3,0,5.5,2.5,5.5,5.5l0,0c0,3-2.5,5.5-5.5,5.5H285.3
	C282.3,817.7,279.8,815.2,279.8,812.2z"/>
<linearGradient id="SVGID_64_" gradientUnits="userSpaceOnUse" x1="1004.0084" y1="1213.3793" x2="1004.0084" y2="709.3674" gradientTransform="matrix(6.123234e-17 -1 -1 -6.123234e-17 1595.9093 920.3018)">
	<stop  offset="0" style="stop-color:#FFFFFF"/>
	<stop  offset="1" style="stop-color:#D9D9D9;stop-opacity:0"/>
</linearGradient>
<path class="st67" d="M382.5-83.7L382.5-83.7c0-3,2.5-5.5,5.5-5.5h493.1c3,0,5.5,2.5,5.5,5.5l0,0c0,3-2.5,5.5-5.5,5.5H388
	C385-78.2,382.5-80.7,382.5-83.7z"/>
<linearGradient id="SVGID_65_" gradientUnits="userSpaceOnUse" x1="1163.2076" y1="1015.8764" x2="1163.2076" y2="328.6984" gradientTransform="matrix(6.123234e-17 -1 -1 -6.123234e-17 1557.6974 1277.0956)">
	<stop  offset="0" style="stop-color:#FFFFFF"/>
	<stop  offset="1" style="stop-color:#D9D9D9;stop-opacity:0"/>
</linearGradient>
<path class="st68" d="M541.8,113.9L541.8,113.9c0-3,2.4-5.4,5.4-5.4h676.4c3,0,5.4,2.4,5.4,5.4l0,0c0,3-2.4,5.4-5.4,5.4H547.2
	C544.2,119.3,541.8,116.9,541.8,113.9z"/>
<linearGradient id="SVGID_66_" gradientUnits="userSpaceOnUse" x1="432.9365" y1="733.4634" x2="432.9365" y2="53.2104" gradientTransform="matrix(6.123234e-17 -1 -1 -6.123234e-17 545.0132 829.2375)">
	<stop  offset="0" style="stop-color:#FFFFFF"/>
	<stop  offset="1" style="stop-color:#D9D9D9;stop-opacity:0"/>
</linearGradient>
<path class="st69" d="M-188.5,396.3L-188.5,396.3c0-3,2.4-5.4,5.4-5.4h669.5c3,0,5.4,2.4,5.4,5.4v0c0,3-2.4,5.4-5.4,5.4h-669.5
	C-186,401.7-188.5,399.3-188.5,396.3z"/>
<linearGradient id="SVGID_67_" gradientUnits="userSpaceOnUse" x1="902.3416" y1="481.0624" x2="902.3416" y2="-385.4137" gradientTransform="matrix(6.123234e-17 -1 -1 -6.123234e-17 762.0174 1551.0436)">
	<stop  offset="0" style="stop-color:#FFFFFF"/>
	<stop  offset="1" style="stop-color:#D9D9D9;stop-opacity:0"/>
</linearGradient>
<path class="st70" d="M281,648.7L281,648.7c0-3,2.4-5.4,5.4-5.4H1142c3,0,5.4,2.4,5.4,5.4v0c0,3-2.4,5.4-5.4,5.4H286.3
	C283.4,654.1,281,651.7,281,648.7z"/>
<linearGradient id="SVGID_68_" gradientUnits="userSpaceOnUse" x1="1182.4467" y1="714.2255" x2="1182.4467" y2="63.2145" gradientTransform="matrix(6.123234e-17 -1 -1 -6.123234e-17 1275.2854 1597.9856)">
	<stop  offset="0" style="stop-color:#FFFFFF"/>
	<stop  offset="1" style="stop-color:#D9D9D9;stop-opacity:0"/>
</linearGradient>
<path class="st71" d="M561.1,415.5L561.1,415.5c0-3,2.4-5.4,5.4-5.4h640.2c3,0,5.4,2.4,5.4,5.4l0,0c0,3-2.4,5.4-5.4,5.4H566.4
	C563.5,420.9,561.1,418.5,561.1,415.5z"/>
<linearGradient id="SVGID_69_" gradientUnits="userSpaceOnUse" x1="1530.3284" y1="278.9604" x2="1530.3284" y2="16.3983" gradientTransform="matrix(6.123234e-17 -1 -1 -6.123234e-17 1187.8104 2381.0405)">
	<stop  offset="0" style="stop-color:#FFFFFF"/>
	<stop  offset="1" style="stop-color:#D9D9D9;stop-opacity:0"/>
</linearGradient>
<path class="st72" d="M908.8,850.7L908.8,850.7c0-3,2.5-5.5,5.5-5.5h251.6c3,0,5.5,2.5,5.5,5.5l0,0c0,3-2.5,5.5-5.5,5.5H914.3
	C911.3,856.2,908.8,853.7,908.8,850.7z"/>
<linearGradient id="SVGID_70_" gradientUnits="userSpaceOnUse" x1="707.1994" y1="1285.5636" x2="707.1994" y2="1023.0016" gradientTransform="matrix(6.123234e-17 -1 -1 -6.123234e-17 1371.2847 551.3085)">
	<stop  offset="0" style="stop-color:#FFFFFF"/>
	<stop  offset="1" style="stop-color:#D9D9D9;stop-opacity:0"/>
</linearGradient>
<path class="st73" d="M85.7-155.9L85.7-155.9c0-3,2.5-5.5,5.5-5.5h251.6c3,0,5.5,2.5,5.5,5.5l0,0c0,3-2.5,5.5-5.5,5.5H91.2
	C88.2-150.4,85.7-152.9,85.7-155.9z"/>
<linearGradient id="SVGID_71_" gradientUnits="userSpaceOnUse" x1="607.6166" y1="371.0214" x2="607.6166" y2="-400.0346" gradientTransform="matrix(6.123234e-17 -1 -1 -6.123234e-17 357.2514 1366.3596)">
	<stop  offset="0" style="stop-color:#FFFFFF"/>
	<stop  offset="1" style="stop-color:#D9D9D9;stop-opacity:0"/>
</linearGradient>
<path class="st74" d="M-13.8,758.7L-13.8,758.7c0-3,2.4-5.4,5.4-5.4h760.3c3,0,5.4,2.4,5.4,5.4v0c0,3-2.4,5.4-5.4,5.4H-8.4
	C-11.4,764.1-13.8,761.7-13.8,758.7z"/>
<linearGradient id="SVGID_72_" gradientUnits="userSpaceOnUse" x1="483.3398" y1="925.0734" x2="483.3398" y2="244.8205" gradientTransform="matrix(6.123234e-17 -1 -1 -6.123234e-17 786.6418 687.6461)">
	<stop  offset="0" style="stop-color:#FFFFFF"/>
	<stop  offset="1" style="stop-color:#D9D9D9;stop-opacity:0"/>
</linearGradient>
<path class="st75" d="M-138.4,204.3L-138.4,204.3c0-3.2,2.6-5.8,5.8-5.8H536c3.2,0,5.8,2.6,5.8,5.8v0c0,3.2-2.6,5.8-5.8,5.8h-668.7
	C-135.8,210.1-138.4,207.5-138.4,204.3z"/>
<linearGradient id="SVGID_73_" gradientUnits="userSpaceOnUse" x1="1264.7836" y1="564.1705" x2="1264.7836" y2="60.1375" gradientTransform="matrix(6.123234e-17 -1 -1 -6.123234e-17 1207.5674 1830.3776)">
	<stop  offset="0" style="stop-color:#FFFFFF"/>
	<stop  offset="1" style="stop-color:#D9D9D9;stop-opacity:0"/>
</linearGradient>
<path class="st76" d="M643.4,565.6L643.4,565.6c0-3,2.4-5.4,5.4-5.4H1142c3,0,5.4,2.4,5.4,5.4l0,0c0,3-2.4,5.4-5.4,5.4H648.8
	C645.8,571,643.4,568.6,643.4,565.6z"/>
<linearGradient id="SVGID_74_" gradientUnits="userSpaceOnUse" x1="648.4016" y1="184.8004" x2="648.4016" y2="-279.9875" gradientTransform="matrix(6.123234e-17 -1 -1 -6.123234e-17 211.8155 1593.3656)">
	<stop  offset="0" style="stop-color:#FFFFFF"/>
	<stop  offset="1" style="stop-color:#D9D9D9;stop-opacity:0"/>
</linearGradient>
<path class="st77" d="M27,945L27,945c0-3,2.4-5.4,5.4-5.4h454c3,0,5.4,2.4,5.4,5.4l0,0c0,3-2.4,5.4-5.4,5.4h-454
	C29.4,950.4,27,947.9,27,945z"/>
<linearGradient id="SVGID_75_" gradientUnits="userSpaceOnUse" x1="648.4016" y1="1026.6494" x2="648.4016" y2="622.6534" gradientTransform="matrix(6.123234e-17 -1 -1 -6.123234e-17 1053.6644 751.5167)">
	<stop  offset="0" style="stop-color:#FFFFFF"/>
	<stop  offset="1" style="stop-color:#D9D9D9;stop-opacity:0"/>
</linearGradient>
<path class="st78" d="M27,103.1L27,103.1c0-3,2.4-5.4,5.4-5.4h393.2c3,0,5.4,2.4,5.4,5.4v0c0,3-2.4,5.4-5.4,5.4H32.4
	C29.4,108.5,27,106.1,27,103.1z"/>
<linearGradient id="SVGID_76_" gradientUnits="userSpaceOnUse" x1="1378.5674" y1="865.0435" x2="1378.5674" y2="602.4814" gradientTransform="matrix(6.123234e-17 -1 -1 -6.123234e-17 1622.1324 1643.1965)">
	<stop  offset="0" style="stop-color:#FFFFFF"/>
	<stop  offset="1" style="stop-color:#D9D9D9;stop-opacity:0"/>
</linearGradient>
<path class="st79" d="M757.1,264.6L757.1,264.6c0-3,2.5-5.5,5.5-5.5h251.6c3,0,5.5,2.5,5.5,5.5l0,0c0,3-2.5,5.5-5.5,5.5H762.6
	C759.5,270.1,757.1,267.7,757.1,264.6z"/>
<linearGradient id="SVGID_77_" gradientUnits="userSpaceOnUse" x1="401.3867" y1="1129.7644" x2="401.3867" y2="154.0174" gradientTransform="matrix(6.123234e-17 -1 -1 -6.123234e-17 909.7644 401.3867)">
	<stop  offset="0" style="stop-color:#FFFFFF"/>
	<stop  offset="1" style="stop-color:#D9D9D9;stop-opacity:0"/>
</linearGradient>
<path class="st80" d="M-220,0L-220,0c0-3,2.4-5.4,5.4-5.4h965c3,0,5.4,2.4,5.4,5.4v0c0,3-2.4,5.4-5.4,5.4h-965
	C-217.6,5.4-220,3-220,0z"/>
</svg>
