<svg width="1449" height="1222" viewBox="0 0 1449 1222" fill="none" xmlns="http://www.w3.org/2000/svg">
<mask id="mask0_0_1" style="mask-type:alpha" maskUnits="userSpaceOnUse" x="220" y="159" width="1063" height="1063">
<rect x="220" y="159" width="1062.7" height="1062.7" fill="url(#paint0_linear_0_1)"/>
</mask>
<g mask="url(#mask0_0_1)">
<rect x="209.613" y="159" width="1062.7" height="1062.7" fill="url(#paint1_linear_0_1)"/>
<rect x="204.334" y="568.937" width="1121.45" height="3.91659" fill="url(#paint2_linear_0_1)"/>
<rect width="1121.45" height="5.22212" transform="matrix(-1 0 0 1 1294.45 302.608)" fill="url(#paint3_linear_0_1)"/>
<rect width="1121.45" height="3.91659" transform="matrix(-1 0 0 1 1325.79 292.164)" fill="url(#paint4_linear_0_1)"/>
<rect x="81.6133" y="903.153" width="1044.42" height="3.91659" fill="url(#paint5_linear_0_1)"/>
<rect x="1568.61" y="724.295" width="1044.42" height="3.91668" transform="rotate(180 1568.61 724.295)" fill="url(#paint6_linear_0_1)"/>
<rect x="1379.31" y="994.54" width="1174.98" height="3.9167" transform="rotate(180 1379.31 994.54)" fill="url(#paint7_linear_0_1)"/>
<rect x="1415.87" y="751.711" width="1044.42" height="3.91668" transform="rotate(180 1415.87 751.711)" fill="url(#paint8_linear_0_1)"/>
<path d="M1240.44 876.026C1237.49 867.847 1246.19 866.047 1253.24 859.013C1260.13 851.979 1265.38 850.834 1253.24 846.58C1241.1 842.327 1241.1 838.074 1245.69 834.148C1250.29 830.222 1233.55 835.62 1233.55 835.62C1233.55 835.62 1240.44 826.786 1226.01 819.588C1211.41 812.554 1195.82 803.23 1192.38 814.19C1188.93 825.15 1185.98 829.731 1180.24 826.95C1174.49 824.169 1164.49 823.024 1162.19 828.095C1159.89 833.003 1169.08 836.601 1159.24 838.728C1149.39 840.855 1148.24 834.475 1140.04 835.947C1131.84 837.419 1131.84 841.673 1129.54 843.472C1127.25 845.272 1117.4 843.472 1111 846.744C1104.61 850.016 1101.16 848.871 1098.21 844.944C1095.25 841.018 1088.36 838.892 1082.46 838.892C1076.72 838.892 1069.17 832.185 1066.22 830.712C1063.26 829.24 1052.27 826.786 1049.97 833.493C1047.68 840.2 1040.62 844.454 1037.18 842.327C1033.73 840.2 1019.79 837.419 1012.73 831.694C1005.84 825.968 994.688 833.166 990.586 828.913C986.485 824.66 973.689 817.298 966.142 816.48C958.595 815.826 938.909 819.588 937.104 828.913C935.299 838.074 943.994 847.725 927.753 846.253C911.511 844.781 855.076 847.235 850.482 855.414C845.889 863.593 855.076 878.807 865.083 882.079C873.286 884.696 890.184 884.205 890.348 891.403L1222.07 891.403C1222.23 891.403 1222.4 891.403 1222.56 891.24C1234.7 888.459 1243.4 884.205 1240.44 876.026Z" fill="url(#paint9_linear_0_1)"/>
<path d="M537.135 1033.71C540.259 1031.27 534.998 1028.82 537.628 1026.7C543.383 1021.98 555.714 1018.06 555.879 1015.45C556.372 1007.3 563.771 996.706 559.332 994.587C557.523 993.609 556.043 988.881 549.795 990.348C545.192 991.489 535.984 998.825 531.709 999.315C527.763 999.804 524.475 994.261 522.831 995.565C516.912 999.804 498.825 1008.12 493.893 1005.02C488.96 1001.92 484.85 993.935 474.656 999.152C464.462 1004.37 450.651 1002.58 442.594 996.543C437.497 992.793 437.168 994.75 427.632 1001.43C426.152 1002.58 422.864 997.521 419.575 998.825C416.616 999.967 413.821 1007.47 412.177 1008.77C409.053 1011.38 406.258 1015.29 402.147 1013.5C402.147 1013.5 400.996 1009.1 403.298 999.967C405.6 991 411.19 981.381 408.724 978.284C406.422 975.349 402.969 982.197 395.57 985.131C392.117 986.435 384.554 982.034 381.759 984.153C377.484 987.413 374.525 996.054 374.525 996.054C374.525 996.054 370.579 988.392 362.851 988.718C356.767 988.881 347.889 996.217 340.983 998.662C331.776 1001.92 321.582 1014.64 320.266 1015.29C318.786 1016.11 321.746 1023.12 315.827 1033.88C314.512 1036.32 312.867 1038.93 311.388 1041.54L523.817 1041.54C524.146 1040.72 524.639 1039.91 525.297 1039.26C526.777 1037.14 534.998 1035.34 537.135 1033.71Z" fill="url(#paint10_linear_0_1)"/>
<path d="M941.479 970.378C935.966 972.857 932.958 973.518 932.123 970.378C931.288 967.237 928.949 964.428 926.61 964.428C924.271 964.428 924.271 961.287 923.602 959.469C922.934 957.651 918.924 957.321 917.421 957.651C915.917 957.982 911.239 953.519 910.738 952.032C910.07 950.709 912.576 948.561 913.411 946.082C914.246 943.602 920.094 936.661 924.605 938.809C928.949 940.958 931.622 952.362 934.796 949.222C937.971 946.082 936.801 941.123 937.971 941.619C939.14 941.95 942.983 944.429 943.317 945.42C943.651 946.412 949.498 947.9 950.334 945.09C951.169 942.28 955.847 942.611 958.019 946.082C960.024 949.552 955.346 958.973 958.019 959.634C960.692 960.296 963.7 964.593 966.039 968.725C968.378 972.857 965.036 984.096 956.348 984.096C955.513 984.096 949.833 977.485 944.988 977.485C940.142 977.485 936.968 984.096 936.801 981.286C936.133 978.642 941.479 970.378 941.479 970.378Z" fill="url(#paint11_linear_0_1)"/>
<path d="M814.257 1018.51C809.361 1024.75 806.423 1027.38 803.485 1024.26C800.547 1021.14 796.14 1019.33 793.366 1020.65C790.591 1022.13 788.796 1018.35 787 1016.7C785.205 1015.06 780.309 1017.03 778.84 1018.35C777.371 1019.66 769.21 1017.2 767.741 1015.88C766.272 1014.57 767.578 1010.79 767.088 1007.34C766.762 1005.37 772.801 1003.4 774.596 999.785C775.902 996.993 772.638 992.065 775.412 991.901C781.778 991.737 791.897 1003.56 793.692 997.979C795.487 992.394 791.244 987.302 792.713 986.973C794.345 986.644 800.221 987.137 801.2 988.287C802.179 989.273 809.85 987.466 809.034 983.523C808.381 979.745 813.931 977.282 818.501 980.074C823.07 982.866 823.397 996.829 826.824 996.007C830.252 995.186 836.291 998.307 841.514 1001.76C844.615 1003.89 841.024 1011.94 839.555 1018.18C838.576 1022.29 840.045 1025.41 839.718 1025.74C839.392 1025.9 837.27 1030.5 834.659 1031.16C832.7 1031.65 830.578 1034.12 828.783 1033.62C826.335 1033.13 824.539 1029.52 824.539 1029.52C824.539 1029.52 817.521 1037.4 815.399 1034.28C813.278 1031.49 814.257 1018.51 814.257 1018.51Z" fill="url(#paint12_linear_0_1)"/>
<path d="M1372.3 160.765L1398.93 173.122C1402.43 174.746 1404.67 178.256 1404.67 182.116C1404.67 187.592 1400.23 192.032 1394.75 192.032H1068.34C1062.68 192.032 1058.09 187.445 1058.09 181.787C1058.09 178.081 1060.09 174.664 1063.33 172.851L1085.83 160.231C1088.22 158.891 1090.92 158.187 1093.66 158.187H1116.69C1121.03 158.187 1125.19 159.949 1128.2 163.07L1135.77 170.903C1138.78 174.024 1142.94 175.786 1147.28 175.786H1172.66C1174.73 175.786 1176.78 175.384 1178.7 174.602L1218.96 158.187L1251.95 146.066C1256.7 144.322 1261.99 144.926 1266.23 147.693L1302.93 171.687C1306.9 174.284 1311.82 174.983 1316.36 173.595L1360.88 159.978C1364.66 158.825 1368.72 159.105 1372.3 160.765Z" fill="url(#paint13_linear_0_1)"/>
<path d="M851.194 122.717C871.721 138.331 903.113 162.226 916.529 172.485C920.433 175.47 922.684 180.083 922.684 184.997V192.837C922.684 201.674 915.52 208.837 906.684 208.837H318.066C309.229 208.837 302.066 201.674 302.066 192.837V184.718C302.066 179.963 304.168 175.453 307.857 172.452C326.179 157.543 355.57 134.974 361.235 135.962C369.124 137.337 424.348 177.212 433.552 177.212C442.757 177.212 541.372 157.962 557.15 148.337C572.929 138.712 649.191 118.086 657.08 118.086C664.969 118.086 716.249 152.462 728.083 148.337C736.923 145.255 800.717 129.146 837.676 119.935C842.379 118.763 847.336 119.782 851.194 122.717Z" fill="url(#paint14_linear_0_1)"/>
<path d="M1485.6 60.9468C1490.66 62.8472 1495.32 64.7477 1499.78 66.6482V240.013C1497.55 240.224 1496.94 242.335 1496.13 247.826C1494.92 255.428 1485.8 266.83 1473.25 267.464C1460.69 268.097 1452.79 276.544 1440.44 284.568C1427.88 292.592 1433.75 302.517 1403.78 310.541C1373.81 318.565 1385.55 305.051 1372.59 292.592C1359.63 279.922 1366.31 289.847 1363.88 293.648C1361.45 297.449 1353.55 294.493 1352.74 292.803C1351.93 291.114 1346.67 283.512 1339.17 291.325C1331.68 298.927 1331.68 295.548 1331.28 294.07C1330.87 292.592 1318.31 289.213 1312.64 296.182C1306.77 303.15 1301.91 297.66 1280.24 291.325C1258.57 284.99 1262.82 281.612 1262.82 289.847C1262.82 298.293 1254.92 296.182 1243.38 297.871C1231.84 299.56 1221.3 286.046 1220.09 293.014C1218.87 299.983 1201.46 293.014 1202.67 294.704C1203.89 296.393 1202.27 299.772 1197.2 304.628C1192.14 309.485 1190.12 307.373 1187.69 305.684C1185.25 303.995 1186.47 302.094 1178.17 297.238C1169.86 292.381 1163.18 295.548 1163.18 297.871C1163.18 300.405 1154.07 313.286 1146.17 316.031C1138.27 318.776 1137.46 328.701 1130.78 329.334C1124.09 329.968 1123.69 318.776 1121.26 315.609C1118.83 312.441 1114.98 313.92 1113.76 320.254C1112.55 326.589 1102.62 326.589 1095.54 326.589C1088.45 326.589 1085.21 330.813 1077.71 338.414C1070.22 346.016 1062.73 343.693 1045.31 338.414C1027.89 333.135 1022.02 333.135 1008.25 333.769C994.476 334.402 995.286 331.657 989.21 329.968C982.932 328.279 983.742 331.024 976.248 329.968C968.755 328.912 974.628 315.609 970.78 318.776C967.135 321.944 954.578 324.478 945.87 324.689C937.161 325.111 927.237 321.521 917.111 320.466C907.187 319.41 904.554 316.876 897.669 310.963C890.58 305.051 888.15 298.082 881.061 291.747C873.973 285.413 858.176 275.91 856.556 279.078C854.936 282.245 847.442 283.723 842.379 281.823C837.316 280.134 828.202 280.767 820.709 281.823C813.215 282.879 810.785 281.189 807.747 278.655C804.912 276.121 804.507 276.121 798.633 275.066C792.76 274.01 788.305 275.066 788.71 270.209C789.115 265.352 788.71 261.551 780.811 263.452C772.913 265.563 773.318 265.986 770.482 258.806C767.647 251.838 764.609 255.639 755.495 256.061C746.382 256.483 745.977 256.694 745.977 251.415C745.977 246.136 740.103 248.248 728.965 248.248C717.826 248.248 716.003 246.559 715.193 243.391C714.383 240.224 696.155 243.814 695.143 241.28C694.333 238.746 686.434 239.59 678.536 240.646C670.637 241.702 678.131 244.447 678.536 249.093C678.941 253.738 677.321 259.228 672.662 256.061C668.004 252.894 669.827 248.248 661.929 249.304C654.03 250.36 645.727 250.782 644.106 254.372C642.486 257.961 633.778 260.073 627.094 261.762C620.411 263.452 625.069 276.755 620.006 284.146C614.943 291.536 605.424 297.871 597.12 296.393C588.817 294.915 590.437 290.48 588.412 292.17C586.386 293.859 583.349 295.337 576.868 292.17C570.184 289.002 566.134 289.002 564.311 290.058C562.691 291.114 555.603 289.636 551.755 285.835C548.109 282.034 542.236 282.034 536.768 280.556C531.3 279.078 518.54 276.755 513.477 285.835C508.414 294.915 505.984 294.281 503.554 294.493C501.123 294.915 494.035 290.269 493.63 295.971C493.225 301.672 482.896 304.628 480.263 299.56C477.833 294.281 464.466 297.449 460.213 301.039C455.96 304.628 438.543 316.031 432.062 310.541C425.379 304.84 424.973 302.517 424.973 302.517C399.658 292.381 419.505 283.934 409.177 276.966C398.848 269.998 393.379 242.758 390.139 240.646C386.899 238.535 382.241 240.646 379.81 238.535C377.38 236.423 372.722 234.734 373.127 230.51C373.532 226.287 364.823 224.175 362.393 224.598C359.963 225.02 349.837 225.02 348.216 220.797C346.596 216.785 339.508 220.375 337.482 220.586C335.457 221.008 328.369 220.586 325.331 218.052C322.495 215.518 321.078 211.717 318.242 211.083C315.407 210.45 313.584 209.394 315.002 206.649C316.217 204.115 313.787 204.115 311.762 200.103C309.736 196.302 306.294 196.935 297.585 196.935C288.876 196.935 289.686 204.115 277.535 200.736C275.307 200.103 270.446 196.091 268.826 195.246C267.206 194.402 263.358 193.768 262.548 194.824C261.738 195.88 256.27 194.824 256.27 194.824C256.27 194.824 253.839 193.135 253.029 190.389C252.219 187.644 248.371 188.7 248.371 188.7C248.371 188.7 244.726 188.7 242.903 190.178C241.283 191.656 239.663 188.7 237.435 186.166C235.41 183.632 228.321 182.788 224.068 185.533C204.018 199.047 195.309 190.601 187.613 187.011V60.9468H1485.6Z" fill="url(#paint15_linear_0_1)"/>
<path d="M374.398 141.671C372.989 153.565 376.411 167.157 372.385 171.829C368.36 176.502 353.265 216.854 349.44 212.394C345.616 207.934 330.119 170.343 325.489 176.289C320.86 182.448 312.608 195.191 305.564 190.519C298.721 185.634 287.248 192.642 279.399 203.899C271.549 215.155 271.147 234.056 258.668 212.394C258.668 212.394 253.435 230.446 248.001 241.49C242.566 252.533 224.653 225.349 224.653 225.349C224.653 225.349 198.689 241.914 192.45 215.579V120.221C203.117 111.513 213.986 105.567 220.628 107.478C229.484 110.027 231.295 60.967 242.969 50.5604C254.844 40.1538 269.134 48.2243 267.121 61.8166C265.109 75.1965 284.632 81.3555 287.248 77.745C289.865 73.9222 305.161 71.586 309.187 72.4355C313.212 73.2851 301.74 91.3373 305.966 111.089C310.193 130.84 336.962 88.1516 353.466 88.364C370.171 88.5764 375.807 129.778 374.398 141.671Z" fill="url(#paint16_linear_0_1)"/>
<path d="M648.986 200.471C658.481 212.878 664.34 218.135 669.997 211.826C675.653 205.518 684.138 201.943 689.391 204.677C694.644 207.621 698.28 200.261 701.715 196.686C705.149 193.322 714.645 197.527 717.473 200.051C720.301 202.574 736.059 197.738 739.09 195.214C742.12 192.691 739.292 184.91 740.1 178.181C740.706 174.396 728.988 170.401 725.554 163.041C722.928 157.364 729.19 147.691 723.938 147.48C711.614 147.06 692.219 170.822 688.785 159.466C685.351 148.111 693.634 138.228 690.603 137.597C687.573 136.966 676.259 138.018 674.239 140.121C672.421 142.223 657.673 138.438 658.885 130.658C660.299 123.088 649.39 118.251 640.703 123.929C632.015 129.607 631.409 157.364 624.742 155.892C618.075 154.42 606.358 160.518 596.257 167.457C590.196 171.663 597.065 187.854 600.095 200.261C601.913 208.252 599.085 214.77 599.893 215.191C600.701 215.611 604.742 224.653 609.792 225.915C613.631 226.967 617.671 231.803 621.308 230.962C625.955 229.91 629.389 222.971 629.389 222.971C629.389 222.971 643.127 238.742 646.965 232.644C651.006 226.546 648.986 200.471 648.986 200.471Z" fill="url(#paint17_linear_0_1)"/>
<path d="M1246.35 270.795C1249.18 266.858 1255.86 271.417 1259.91 267.065C1263.96 262.713 1270.03 260.019 1273.87 262.092C1277.51 264.164 1280.35 258.983 1282.57 256.497C1285 254.217 1291.88 257.118 1293.91 258.983C1295.93 260.848 1307.26 257.326 1309.28 255.461C1311.31 253.596 1325.07 243.442 1325.68 238.676C1326.08 235.982 1302.2 238.054 1299.57 232.874C1297.75 228.937 1302.2 222.098 1298.36 221.891C1289.66 221.684 1275.69 238.261 1273.26 230.387C1270.84 222.513 1276.7 215.467 1274.68 215.053C1272.45 214.638 1264.36 215.467 1262.94 216.918C1261.53 218.368 1251 215.675 1252.02 210.287C1253.03 204.899 1245.14 201.584 1239.06 205.521C1232.79 209.458 1232.39 229.144 1227.53 227.901C1222.67 226.864 1214.38 231.216 1207.29 235.982C1202.84 238.883 1149.62 240.334 1151.64 249.037C1152.05 251.109 1157.71 264.371 1165.61 267.272C1170.87 269.344 1177.34 256.704 1183.62 256.497C1193.73 256.497 1203.85 268.101 1209.72 269.344C1210.33 269.552 1213.16 275.975 1216.8 277.011C1219.43 277.633 1222.47 281.156 1225.1 280.534C1228.34 279.705 1230.97 274.939 1230.97 274.939C1230.97 274.939 1240.68 286.129 1243.52 281.777C1246.55 277.426 1246.35 270.795 1246.35 270.795Z" fill="url(#paint18_linear_0_1)"/>
<path d="M1391.85 179.243C1391.85 179.243 1401.38 189.344 1386.37 200.919C1371.36 212.494 1355.34 227.015 1349.46 213.546C1343.58 200.077 1339.32 194.816 1333.44 199.446C1327.35 204.076 1316.6 207.232 1312.95 201.129C1309.51 195.237 1319.24 189.134 1307.68 188.082C1296.12 187.029 1296.12 195.447 1286.59 195.026C1277.26 194.605 1276.45 189.134 1273.41 187.45C1270.57 185.556 1259.61 189.555 1251.91 186.608C1244.2 183.662 1240.35 185.556 1237.91 191.028C1235.28 196.5 1227.98 200.498 1221.28 201.34C1214.79 202.392 1207.49 212.283 1204.45 214.598C1201.41 216.913 1189.44 221.964 1185.59 213.756C1181.73 205.549 1173.22 201.34 1169.57 204.707C1166.12 208.074 1150.91 213.967 1144.01 222.595C1137.12 231.013 1123.53 223.858 1119.67 229.961C1115.82 236.064 1102.84 247.849 1094.53 249.954C1086.21 252.269 1063.29 250.585 1059.64 239.221C1055.99 227.857 1064.1 214.177 1046.05 218.807C1028 223.437 964.322 230.171 957.427 220.491C950.734 211.021 958.441 189.976 968.987 184.083C979.533 178.401 1004.48 176.296 992.513 161.565C980.344 146.833 973.246 133.575 976.896 122.421C980.547 111.267 989.065 104.954 1014.01 102.008C1038.96 99.0614 1084.18 106.848 1103.45 111.267C1122.72 115.687 1123.53 102.218 1126.37 94.8524C1129.41 87.4867 1161.25 82.015 1189.44 78.2269C1217.63 74.2283 1230.21 96.7464 1250.49 99.2718C1270.77 101.587 1325.32 80.7523 1330.8 82.2254C1336.28 83.6986 1348.45 93.8002 1348.45 102.008C1348.24 110.426 1354.73 108.953 1368.93 110.426C1383.13 111.899 1393.67 115.897 1392.05 126.63C1390.22 137.574 1400.36 138.205 1409.49 145.992C1418.62 153.778 1424.7 154.199 1411.72 161.775C1398.74 169.352 1399.55 174.823 1405.44 178.822C1411.93 183.031 1391.85 179.243 1391.85 179.243Z" fill="url(#paint19_linear_0_1)"/>
<path d="M679.61 165.469C679.61 165.469 674.974 171.948 688.077 167.559C701.18 163.17 693.52 167.977 699.567 170.276C705.413 172.575 715.896 169.231 717.508 165.469C719.121 161.707 725.975 163.379 731.216 168.813C736.457 174.247 739.683 163.379 749.359 159.826C759.035 156.273 764.679 148.541 778.79 150.212C792.901 151.884 798.948 153.347 804.19 147.914C809.431 142.48 801.972 132.448 815.478 129.731C828.984 127.223 832.21 127.014 834.226 118.445C836.242 109.667 861.44 108.204 828.38 97.7539C795.32 87.304 802.174 78.1081 777.177 85.423C752.181 92.7379 748.552 91.066 734.845 87.722C721.137 84.378 713.073 80.825 709.646 88.349C706.421 95.8729 689.488 96.0819 676.385 92.947C663.484 89.812 656.025 86.468 652.195 92.947C648.365 99.4259 647.962 118.654 632.843 125.76C617.522 132.866 609.66 146.869 614.7 153.138C619.74 159.408 635.262 176.546 639.495 171.53C643.728 166.723 651.792 156.064 654.211 170.903C656.63 185.742 676.587 168.813 679.61 165.469Z" fill="url(#paint20_linear_0_1)"/>
<path d="M693.228 152.114C691.609 163.78 696.466 176.903 691.407 181.278C686.348 185.652 659.03 193.984 654.174 189.61C649.317 185.235 632.724 178.153 627.058 183.777C621.19 189.61 614.917 202.108 605.811 197.317C596.705 192.526 582.136 198.776 572.423 209.399C562.71 220.023 552.794 211.274 536.404 190.027C536.404 190.027 539.641 234.396 532.964 245.02C526.084 255.644 502.611 228.564 502.611 228.564C502.611 228.564 496.54 240.437 488.648 242.312C482.578 243.77 475.293 235.438 468.817 233.771C460.319 231.48 453.236 216.065 451.82 215.44C450.403 214.815 455.26 203.775 452.224 190.027C449.391 177.736 443.928 162.946 442.309 151.698H693.228C693.228 151.698 693.228 151.906 693.228 152.114Z" fill="url(#paint21_linear_0_1)"/>
<path d="M1498.17 191.958C1495.33 194.503 1491.89 196.623 1487.84 197.259C1483.99 197.895 1479.54 192.595 1474.88 191.958C1469.82 191.322 1462.73 200.228 1456.66 202.136C1452.61 203.408 1448.96 196.835 1446.74 198.531C1441.27 202.772 1444.71 207.649 1441.47 209.557C1434.79 213.162 1430.34 206.165 1420.82 196.199C1416.57 191.746 1411.3 200.864 1406.24 197.895C1405.03 197.259 1402.8 188.142 1400.57 186.87C1397.94 185.385 1395.11 191.746 1393.89 190.05C1390.45 185.173 1392.47 180.297 1390.25 181.781C1385.79 184.749 1387.41 177.328 1382.55 172.451C1379.92 169.907 1372.02 172.027 1368.58 168.423C1362.31 161.849 1359.07 152.732 1351.37 148.915C1346.72 146.583 1340.64 149.764 1331.13 146.795C1306.02 139.162 1316.55 135.133 1293.87 107.781C1270.99 80.4282 1293.26 93.1503 1299.54 86.7892C1305.61 80.4282 1308.45 82.1245 1321.2 87.4254C1333.96 92.7262 1332.95 79.7921 1340.24 78.0958C1347.53 76.3996 1351.98 81.0643 1363.12 90.3938C1374.25 99.7233 1383.16 96.3308 1393.28 98.6632C1403.41 100.996 1411.71 93.3623 1413.33 100.996C1414.95 108.629 1420.01 113.93 1423.45 111.597C1426.9 109.265 1437.42 112.233 1441.27 117.534C1445.12 122.835 1436.21 122.835 1449.57 126.228C1462.94 129.832 1455.65 132.589 1455.65 132.589C1460.1 131.317 1485.82 127.924 1480.15 141.918C1474.48 155.913 1486.83 151.248 1492.9 149.551C1494.93 148.915 1496.55 151.036 1498.17 154.216V191.958V191.958Z" fill="url(#paint22_linear_0_1)"/>
<path d="M573.799 125.217C577.239 121.396 571.168 71.2991 566.109 67.4781C539.396 45.8259 569.347 31.6034 573.799 23.1123C578.049 14.6213 576.835 21.6264 577.644 27.5701C578.454 33.5139 579.87 35.2121 581.084 25.6596C582.299 16.1072 582.906 13.5599 585.132 15.4704C587.358 17.3809 587.56 16.1072 587.965 8.04069C588.37 -0.0258237 592.012 -11.701 596.869 -12.5502C601.726 -13.187 604.762 -22.1026 609.618 -30.5937C614.475 -39.0847 614.273 -51.1845 625.808 -59.4633C637.343 -67.9543 630.867 -52.0336 635.724 -38.8724C640.783 -25.7113 641.997 -36.3251 643.009 -40.3584C644.021 -44.3916 651.306 -41.632 651.913 -40.3584C653.735 -36.7497 656.973 -35.2637 659.199 -42.4811C661.425 -49.9108 663.448 -43.9671 671.746 -37.3865C680.043 -30.8059 678.424 -27.1972 678.424 -35.9006C678.424 -44.6039 702.303 -39.297 701.696 -40.9952C701.291 -42.9057 699.47 -44.3916 701.494 -49.6985C703.518 -54.7932 706.351 -51.1845 707.363 -49.274C708.374 -47.3635 707.97 -48.6372 711.208 -43.5425C714.445 -38.4479 717.076 -41.632 717.076 -44.1794C717.076 -46.7267 714.243 -61.1615 717.279 -63.9211C720.314 -66.8929 724.564 -69.228 727.195 -70.0771C729.825 -70.7139 735.897 -60.9492 736.301 -67.742C736.706 -74.3226 740.551 -74.3226 743.384 -74.3226C746.217 -74.3226 747.432 -78.7804 750.265 -86.8469C753.098 -94.9134 756.133 -92.3661 762.812 -86.8469C769.49 -81.3277 771.918 -81.3278 777.18 -82.1769C782.441 -82.8137 782.239 -80.0541 784.667 -78.1436C787.096 -76.2331 786.691 -79.205 789.727 -78.1436C792.56 -77.0822 790.334 -63.072 791.75 -66.4684C793.167 -69.8648 798.024 -72.4121 801.464 -72.6244C804.904 -73.049 808.749 -69.228 812.594 -68.1666C816.439 -67.1052 817.451 -64.5579 820.082 -58.1896C822.915 -52.0336 826.355 -45.6653 829.189 -39.0847C832.022 -32.5041 838.093 -29.9568 838.7 -33.3533C839.307 -36.7497 846.997 -26.7727 849.83 -27.8341C852.663 -28.8954 856.104 -21.8903 858.33 -20.8289C860.556 -19.7675 862.377 -20.8289 862.175 -15.7343C861.972 -10.6397 869.865 -6.81868 870.472 -3.42225C871.888 3.79515 869.46 0.610996 873.103 0.186443C876.745 -0.23811 881.197 6.9793 885.447 6.9793C889.697 6.9793 890.506 8.88978 890.709 12.0739C891.113 15.4704 898.196 11.6494 898.399 14.1967C898.803 16.744 901.839 16.1072 904.875 14.8335C907.91 13.7721 907.708 15.2581 907.505 10.588C907.303 5.91791 912.565 10.1635 914.184 13.3476C916.005 16.744 912.362 19.0791 915.398 18.0177C918.433 16.9563 919.243 18.8668 920.052 15.2581C920.659 11.6494 922.076 15.6826 924.707 13.7721C927.337 11.8617 920.457 9.73889 922.278 1.88466C924.302 -5.75729 927.945 -12.3379 931.182 -10.8519C934.42 -9.366 933.813 -4.69591 934.623 -6.39413C935.432 -8.30462 943.325 -2.9977 943.932 -4.27136C944.539 -5.33274 947.372 -3.84681 948.789 0.186443C950.205 4.2197 957.895 15.6826 959.919 17.1686C961.943 18.6545 962.954 16.3195 964.978 6.76701C967.002 -2.78543 970.24 -3.42225 971.251 -3.84681C972.263 -4.27136 980.965 -8.09234 981.977 -2.57315C982.989 2.94604 988.048 -0.450386 989.667 -4.05909C991.286 -7.66779 993.917 -5.54502 996.345 0.398724C998.976 6.34247 999.178 8.88978 999.178 8.88978C1009.09 19.5036 1007.07 7.19158 1011.12 14.409C1015.17 21.8387 1023.46 15.6826 1024.88 17.8054C1026.09 19.9282 1031.76 19.0791 1032.77 21.2018C1033.78 23.3246 1043.9 28.6315 1043.7 33.0893C1043.5 37.5471 1022.65 46.4627 1023.67 46.0382C1024.68 45.6136 1028.52 45.6136 1029.13 49.8592C1029.74 54.1047 1032.57 50.2837 1033.38 50.0714C1034.19 49.6469 1037.02 50.0715 1038.03 52.6188C1039.25 55.1661 1039.65 59.1993 1040.87 60.0484C1042.08 60.6853 1042.69 61.9589 1042.08 64.7185C1041.68 67.4781 1042.49 67.4781 1043.29 71.5114C1044.1 75.5446 1045.32 74.9078 1048.76 74.9078C1052.2 74.9078 1056.25 68.9641 1056.45 70.8746C1056.85 72.785 1059.28 75.5446 1059.89 76.606C1060.5 77.6674 1061.91 78.092 1062.32 77.0306C1062.72 75.9692 1065.76 78.9411 1065.96 81.7007C1066.36 84.6725 1067.78 83.6111 1067.78 83.6111C1067.78 83.6111 1071.22 83.6111 1072.03 86.3707C1072.84 89.1303 1075.27 88.0689 1077.09 87.0076C1079.11 85.9462 1079.72 86.583 1083.36 87.0076C1087.01 87.4321 1089.84 92.9513 1089.84 92.9513C1090.45 94.0127 1091.66 95.0741 1092.27 87.2198C1092.47 85.3093 1099.96 82.5498 1105.62 87.2198C1107.45 88.7058 1106.84 92.739 1107.45 98.4705C1107.85 102.504 1112.1 100.593 1112.1 100.593C1116.35 98.6828 1119.39 98.0459 1129.5 111.419C1139.62 125.005 1142.25 136.468 1155 142.199C1167.14 147.719 1139.22 155.573 1134.36 186.99H600.309C595.655 175.739 592.619 164.064 580.882 155.573C548.503 132.859 570.359 129.038 573.799 125.217Z" fill="url(#paint23_linear_0_1)"/>
<path d="M447.434 164.431C448.448 156.997 445.608 148.324 448.448 145.64C451.491 142.749 467.315 137.38 470.155 140.271C472.995 143.162 482.529 147.705 485.978 143.988C489.427 140.271 493.078 132.218 498.353 135.315C503.627 138.413 512.147 134.283 517.828 127.468C523.508 120.448 529.188 126.229 538.723 140.065C538.723 140.065 536.897 111.362 540.751 104.547C544.606 97.7332 558.4 115.079 558.4 115.079C558.4 115.079 561.849 107.438 566.515 106.199C570.167 105.373 574.224 110.742 578.078 111.775C582.947 113.22 587.207 123.339 587.816 123.752C588.627 124.164 585.787 131.392 587.613 140.271C589.844 151.009 594.713 164.431 593.699 171.865H453.723C450.071 168.767 447.028 166.702 447.434 164.431Z" fill="url(#paint24_linear_0_1)"/>
<path d="M1102.63 161.409C1098.99 171.938 1109.72 174.254 1118.43 183.31C1126.94 192.365 1133.42 193.839 1118.43 199.314C1103.44 204.789 1103.44 210.264 1109.12 215.318C1114.79 220.372 1094.13 213.423 1094.13 213.423C1094.13 213.423 1102.63 224.794 1084.81 234.06C1066.78 243.115 1047.54 255.118 1043.28 241.009C1039.03 226.9 1035.38 221.004 1028.29 224.584C1021.2 228.163 1008.84 229.638 1006.01 223.11C1003.17 216.792 1014.52 212.159 1002.36 209.422C990.209 206.684 988.791 214.897 978.662 213.002C968.534 211.106 968.534 205.631 965.698 203.315C962.862 200.998 950.708 203.315 942.808 199.103C934.908 194.892 930.654 196.366 927.008 201.42C923.362 206.474 914.854 209.211 907.561 209.211C900.471 209.211 891.153 217.845 887.507 219.74C883.861 221.635 870.289 224.794 867.453 216.16C864.617 207.526 855.907 202.051 851.653 204.789C847.399 207.526 830.181 211.106 821.47 218.477C812.962 225.847 799.188 216.581 794.124 222.057C789.059 227.532 773.259 237.008 763.941 238.061C754.623 238.903 730.315 234.06 728.087 222.057C725.858 210.264 736.595 197.84 716.54 199.735C696.486 201.63 626.803 198.471 621.131 187.942C615.459 177.413 626.803 157.829 639.16 153.617C649.288 150.248 670.152 150.88 670.355 141.614H1079.95C1080.15 141.614 1080.35 141.614 1080.55 141.825C1095.54 145.405 1106.28 150.88 1102.63 161.409Z" fill="url(#paint25_linear_0_1)"/>
<path d="M1487.83 303.329C1480.75 310.534 1468.81 313.076 1465.97 300.574C1463.14 288.072 1474.47 279.172 1462.53 273.874C1450.39 268.576 1448.97 284.469 1439.25 281.079C1429.33 277.476 1429.33 266.881 1426.5 262.431C1423.66 257.981 1411.72 262.431 1403.83 254.379C1396.13 246.326 1391.88 249.081 1388.24 258.829C1384.8 268.576 1376.3 273.874 1369.21 273.874C1362.13 273.874 1353.02 290.826 1349.37 294.217C1345.73 297.819 1332.37 303.964 1329.54 287.012C1326.7 270.06 1318.2 259.464 1313.95 264.762C1309.7 270.06 1292.69 277.264 1284.19 291.462C1275.69 305.66 1262.33 287.86 1257.27 298.667C1255.24 303.117 1243.5 305.66 1239.05 311.169C1232.78 318.798 1232.78 328.757 1227.51 329.817C1223.26 330.664 1216.18 306.719 1209.29 302.481C1200.99 297.607 1193.3 311.381 1192.09 298.667C1190.06 275.569 1200.59 251.624 1180.75 255.226C1170.83 256.922 1148.77 275.569 1128.32 271.967C1118.4 270.272 1119.21 260.312 1111.72 252.26C1107.47 247.598 1100.59 256.498 1095.33 252.895C1090.87 249.929 1087.23 234.46 1086.62 232.129C1084.8 225.56 1079.34 213.693 1080.95 200.131C1081.56 194.198 1089.86 188.052 1089.86 181.695C1089.86 173.855 1096.95 166.014 1096.54 159.021C1095.53 144.4 1086.83 132.957 1091.28 129.99C1103.22 121.938 1122.25 142.705 1132.78 129.143C1141.89 117.276 1138.65 103.29 1133.38 89.5166H1499.78V318.374C1496.54 303.329 1493.3 297.819 1487.83 303.329Z" fill="url(#paint26_linear_0_1)"/>
<path d="M272.127 164.925C286.284 163.242 290.127 154.41 298.824 148.522C307.52 142.844 308.329 131.488 314.598 135.483C320.868 139.479 327.946 139.479 328.755 135.483C329.564 131.488 338.867 125.6 345.137 126.441C351.407 127.282 345.137 133.801 356.867 126.441C368.597 119.08 365.564 126.441 365.564 126.441C367.99 122.445 383.563 101.205 389.024 115.085C394.484 128.964 399.945 116.767 403.181 111.089C406.214 105.411 425.225 118.449 431.495 123.286C437.764 128.123 433.113 143.685 419.765 154.2C413.697 159.037 411.27 165.556 410.057 171.865H248.87C252.51 166.397 258.982 166.397 272.127 164.925Z" fill="url(#paint27_linear_0_1)"/>
<path d="M464.894 160.296C468.731 163.508 462.269 166.72 465.5 169.504C472.568 175.715 487.715 180.854 487.917 184.28C488.522 194.988 497.61 208.907 492.158 211.691C489.936 212.976 488.119 219.186 480.444 217.259C474.79 215.76 463.48 206.123 458.23 205.481C453.383 204.838 449.344 212.119 447.324 210.406C440.054 204.838 417.839 193.917 411.781 197.986C405.722 202.054 400.673 212.548 388.152 205.695C375.631 198.842 358.667 201.198 348.771 209.121C342.511 214.047 342.107 211.477 330.394 202.697C328.576 201.198 324.537 207.836 320.498 206.123C316.863 204.624 313.43 194.774 311.41 193.06C307.573 189.634 304.14 184.495 299.091 186.85C299.091 186.85 297.678 192.632 300.505 204.624C303.332 216.402 310.199 229.037 307.169 233.106C304.342 236.96 300.101 227.966 291.013 224.111C286.772 222.398 277.482 228.18 274.049 225.396C268.798 221.113 265.163 209.764 265.163 209.764C265.163 209.764 260.316 219.829 250.825 219.4C243.352 219.186 232.447 209.55 223.965 206.337C212.656 202.054 200.135 185.351 198.519 184.495C196.701 183.424 200.337 174.216 193.066 160.082C191.451 156.87 189.431 153.443 187.614 150.017H448.536C448.94 151.088 449.546 152.159 450.353 153.015C452.171 155.799 462.269 158.155 464.894 160.296Z" fill="url(#paint28_linear_0_1)"/>
<path d="M1007.59 258.982C1007.59 258.982 1005.96 259.409 1008.81 260.479C1011.65 261.548 1009.62 261.334 1010.43 262.617C1011.04 263.9 1013.28 264.756 1014.09 264.542C1014.9 264.114 1015.71 265.398 1015.92 267.108C1016.12 268.819 1018.15 267.322 1020.18 268.178C1022.21 269.033 1024.24 268.605 1026.48 270.958C1028.71 273.31 1029.53 274.38 1031.15 274.38C1032.78 274.166 1032.98 271.386 1035.42 272.883C1038.06 274.38 1038.67 274.807 1040.09 273.738C1041.51 272.455 1045.98 276.091 1041.92 269.247C1037.65 262.617 1040.09 261.976 1035.01 259.623C1029.73 257.271 1029.32 256.415 1027.5 253.849C1025.67 251.283 1024.65 249.358 1023.23 250.213C1021.6 251.069 1018.76 248.503 1016.93 246.15C1015.1 243.798 1014.49 242.087 1012.87 242.514C1011.24 243.156 1008.6 246.364 1005.15 245.295C1001.7 244.225 998.447 245.509 998.447 247.219C998.447 248.93 998.853 254.277 1000.07 254.063C1001.49 253.849 1004.13 253.207 1002.71 256.202C1000.88 259.196 1006.57 259.196 1007.59 258.982Z" fill="url(#paint29_linear_0_1)"/>
<rect x="33.6133" y="485.289" width="1302.86" height="5.00802" fill="url(#paint30_linear_0_1)"/>
<path d="M204.879 597.734L177.787 610.094C174.288 611.691 172.042 615.184 172.042 619.03C172.042 624.455 176.439 628.852 181.864 628.852H512.04C517.643 628.852 522.185 624.31 522.185 618.707C522.185 615.011 520.175 611.607 516.938 609.823L494.08 597.222C491.714 595.918 489.057 595.234 486.356 595.234H462.83C458.538 595.234 454.426 596.958 451.417 600.02L443.646 607.929C440.638 610.991 436.526 612.715 432.233 612.715H406.356C404.317 612.715 402.296 612.325 400.402 611.566L359.666 595.234L326.141 583.127C321.455 581.434 316.247 582.022 312.055 584.716L274.697 608.73C270.762 611.259 265.917 611.94 261.438 610.593L216.128 596.968C212.41 595.85 208.412 596.122 204.879 597.734Z" fill="url(#paint31_linear_0_1)"/>
<path d="M731.329 559.911C710.615 575.403 678.846 599.178 665.243 609.405C661.278 612.386 658.984 617.037 658.984 621.998V629.546C658.984 638.382 666.148 645.546 674.984 645.546H1269.98C1278.82 645.546 1285.98 638.382 1285.98 629.546V621.719C1285.98 616.917 1283.84 612.368 1280.09 609.369C1261.58 594.56 1231.93 572.177 1226.21 573.157C1218.24 574.523 1162.44 614.132 1153.15 614.132C1143.85 614.132 1044.22 595.01 1028.28 585.449C1012.34 575.888 935.289 555.401 927.319 555.401C919.349 555.401 867.542 589.547 855.586 585.449C846.641 582.383 781.997 566.335 744.685 557.193C740.043 556.056 735.157 557.048 731.329 559.911Z" fill="url(#paint32_linear_0_1)"/>
<path d="M90.2786 498.644C85.1634 500.531 80.4574 502.419 75.9561 504.307V676.512C78.2067 676.722 78.8206 678.82 79.639 684.273C80.8667 691.824 90.074 703.151 102.76 703.78C115.445 704.409 123.425 712.799 135.906 720.77C148.592 728.741 142.658 738.599 172.94 746.569C203.222 754.54 191.355 741.116 204.45 728.741C217.545 716.155 210.793 726.014 213.248 729.789C215.704 733.565 223.683 730.628 224.502 728.95C225.32 727.272 230.64 719.721 238.21 727.482C245.781 735.033 245.781 731.677 246.19 730.209C246.599 728.741 259.285 725.384 265.014 732.306C270.948 739.228 275.858 733.775 297.751 727.482C319.645 721.189 315.348 717.833 315.348 726.014C315.348 734.404 323.327 732.306 334.99 733.984C346.653 735.662 357.292 722.238 358.52 729.16C359.748 736.082 377.344 729.16 376.116 730.838C374.889 732.516 376.526 735.872 381.641 740.696C386.756 745.521 388.802 743.423 391.257 741.745C393.713 740.067 392.485 738.179 400.874 733.355C409.263 728.531 416.015 731.677 416.015 733.984C416.015 736.501 425.222 749.296 433.202 752.023C441.182 754.75 442 764.608 448.752 765.237C455.504 765.866 455.914 754.75 458.369 751.603C460.824 748.457 464.712 749.925 465.939 756.218C467.167 762.51 477.193 762.51 484.354 762.51C491.515 762.51 494.789 766.705 502.36 774.256C509.93 781.808 517.501 779.5 535.097 774.256C552.693 769.013 558.627 769.013 572.54 769.642C586.454 770.271 585.635 767.544 591.774 765.866C598.116 764.188 597.298 766.915 604.868 765.866C612.439 764.818 606.505 751.603 610.393 754.75C614.076 757.896 626.762 760.413 635.56 760.623C644.358 761.042 654.384 757.476 664.614 756.428C674.64 755.379 677.3 752.862 684.256 746.989C691.418 741.116 693.873 734.194 701.034 727.902C708.196 721.609 724.155 712.17 725.792 715.316C727.429 718.463 734.999 719.931 740.115 718.043C745.23 716.365 754.437 716.994 762.008 718.043C769.578 719.092 772.033 717.414 775.103 714.897C777.967 712.38 778.376 712.38 784.31 711.331C790.244 710.282 794.745 711.331 794.336 706.507C793.926 701.683 794.336 697.907 802.315 699.795C810.295 701.892 809.886 702.312 812.75 695.18C815.615 688.259 818.684 692.034 827.891 692.454C837.099 692.873 837.508 693.083 837.508 687.839C837.508 682.595 843.442 684.693 854.695 684.693C865.949 684.693 867.79 683.015 868.608 679.868C869.427 676.722 887.842 680.288 888.865 677.771C889.683 675.254 897.663 676.093 905.643 677.142C913.622 678.191 906.052 680.917 905.643 685.532C905.233 690.146 906.87 695.6 911.576 692.454C916.282 689.307 914.441 684.693 922.421 685.742C930.4 686.79 938.789 687.21 940.426 690.776C942.063 694.341 950.861 696.439 957.613 698.117C964.365 699.795 959.659 713.009 964.774 720.35C969.89 727.692 979.506 733.984 987.895 732.516C996.284 731.048 994.647 726.643 996.693 728.321C998.739 729.999 1001.81 731.467 1008.36 728.321C1015.11 725.175 1019.2 725.175 1021.04 726.224C1022.68 727.272 1029.84 725.804 1033.73 722.028C1037.41 718.253 1043.34 718.253 1048.87 716.785C1054.39 715.316 1067.28 713.009 1072.4 722.028C1077.51 731.048 1079.97 730.419 1082.42 730.628C1084.88 731.048 1092.04 726.433 1092.45 732.097C1092.86 737.76 1103.29 740.696 1105.95 735.662C1108.41 730.419 1121.91 733.565 1126.21 737.131C1130.51 740.696 1148.1 752.023 1154.65 746.569C1161.4 740.906 1161.81 738.599 1161.81 738.599C1187.39 728.531 1167.34 720.141 1177.77 713.219C1188.21 706.297 1193.73 679.239 1197 677.142C1200.28 675.044 1204.98 677.142 1207.44 675.044C1209.9 672.947 1214.6 671.269 1214.19 667.074C1213.78 662.879 1222.58 660.781 1225.04 661.201C1227.49 661.62 1237.72 661.62 1239.36 657.425C1241 653.44 1248.16 657.006 1250.2 657.215C1252.25 657.635 1259.41 657.215 1262.48 654.698C1265.34 652.181 1266.78 648.406 1269.64 647.777C1272.51 647.147 1274.35 646.099 1272.91 643.372C1271.69 640.855 1274.14 640.855 1276.19 636.87C1278.23 633.094 1281.71 633.723 1290.51 633.723C1299.31 633.723 1298.49 640.855 1310.77 637.499C1313.02 636.87 1317.93 632.884 1319.57 632.045C1321.2 631.206 1325.09 630.577 1325.91 631.626C1326.73 632.674 1332.25 631.626 1332.25 631.626C1332.25 631.626 1334.71 629.948 1335.52 627.221C1336.34 624.494 1340.23 625.543 1340.23 625.543C1340.23 625.543 1343.91 625.543 1345.75 627.011C1347.39 628.479 1349.03 625.543 1351.28 623.026C1353.33 620.509 1360.49 619.67 1364.78 622.397C1385.04 635.821 1393.84 627.431 1401.61 623.865V498.644H90.2786Z" fill="url(#paint33_linear_0_1)"/>
<path d="M1212.91 578.829C1214.33 590.642 1210.88 604.144 1214.94 608.785C1219.01 613.426 1234.26 653.509 1238.12 649.078C1241.99 644.648 1257.64 607.308 1262.32 613.215C1267 619.333 1275.33 631.991 1282.45 627.35C1289.36 622.497 1300.95 629.459 1308.89 640.64C1316.82 651.821 1317.22 670.596 1329.83 649.078C1329.83 649.078 1335.12 667.01 1340.61 677.98C1346.1 688.95 1364.19 661.947 1364.19 661.947C1364.19 661.947 1390.42 678.402 1396.73 652.243V557.522C1385.95 548.872 1374.97 542.966 1368.26 544.864C1359.31 547.396 1357.48 498.664 1345.69 488.327C1333.69 477.99 1319.26 486.006 1321.29 499.508C1323.32 512.798 1303.6 518.916 1300.95 515.33C1298.31 511.532 1282.86 509.212 1278.79 510.056C1274.72 510.9 1286.31 528.831 1282.04 548.45C1277.77 568.07 1250.73 525.667 1234.06 525.878C1217.18 526.089 1211.49 567.015 1212.91 578.829Z" fill="url(#paint34_linear_0_1)"/>
<path d="M935.497 637.236C925.904 649.559 919.985 654.781 914.27 648.515C908.555 642.249 899.983 638.698 894.676 641.413C889.369 644.337 885.695 637.027 882.225 633.476C878.756 630.134 869.163 634.311 866.305 636.818C863.448 639.324 847.528 634.52 844.466 632.014C841.404 629.507 844.262 621.779 843.445 615.095C842.833 611.335 854.671 607.367 858.141 600.056C860.794 594.416 854.467 584.808 859.774 584.599C872.224 584.181 891.818 607.784 895.288 596.505C898.758 585.226 890.39 575.409 893.451 574.782C896.513 574.155 907.943 575.2 909.984 577.289C911.821 579.377 926.72 575.618 925.496 567.889C924.067 560.37 935.088 555.566 943.865 561.205C952.641 566.845 953.254 594.416 959.989 592.954C966.725 591.492 978.563 597.549 988.768 604.442C994.891 608.62 987.952 624.703 984.89 637.027C983.053 644.964 985.911 651.439 985.094 651.857C984.278 652.275 980.196 661.256 975.093 662.51C971.215 663.554 967.133 668.358 963.459 667.523C958.765 666.478 955.295 659.585 955.295 659.585C955.295 659.585 941.416 675.251 937.538 669.194C933.456 663.136 935.497 637.236 935.497 637.236Z" fill="url(#paint35_linear_0_1)"/>
<path d="M331.99 707.089C329.128 703.178 322.381 707.707 318.292 703.384C314.203 699.062 308.07 696.386 304.185 698.444C300.505 700.503 297.643 695.357 295.394 692.887C292.941 690.622 285.989 693.504 283.945 695.357C281.901 697.209 270.452 693.71 268.407 691.857C266.363 690.005 252.46 679.919 251.847 675.185C251.438 672.509 275.563 674.567 278.22 669.422C280.061 665.511 275.563 658.718 279.447 658.512C288.238 658.307 302.345 674.773 304.799 666.952C307.252 659.13 301.323 652.132 303.367 651.72C305.616 651.308 313.794 652.132 315.225 653.572C316.656 655.013 327.288 652.337 326.265 646.986C325.243 641.634 333.217 638.341 339.35 642.252C345.688 646.162 346.097 665.717 351.003 664.482C355.91 663.452 364.292 667.775 371.448 672.509C375.946 675.391 429.715 676.832 427.671 685.477C427.262 687.535 421.537 700.708 413.564 703.59C408.248 705.648 401.706 693.092 395.368 692.887C385.146 692.887 374.924 704.413 368.995 705.648C368.381 705.854 365.519 712.235 361.839 713.264C359.181 713.882 356.114 717.381 353.457 716.763C350.186 715.94 347.528 711.206 347.528 711.206C347.528 711.206 337.714 722.321 334.852 717.998C331.785 713.676 331.99 707.089 331.99 707.089Z" fill="url(#paint36_linear_0_1)"/>
<path d="M184.997 616.149C184.997 616.149 175.367 626.183 190.529 637.68C205.691 649.178 221.878 663.602 227.82 650.223C233.762 636.844 238.065 631.618 244.007 636.217C250.154 640.816 261.013 643.952 264.701 637.89C268.185 632.036 258.35 625.974 270.029 624.929C281.708 623.884 281.708 632.245 291.338 631.827C300.763 631.409 301.583 625.974 304.656 624.302C307.525 622.42 318.589 626.392 326.375 623.466C334.161 620.539 338.054 622.42 340.513 627.855C343.177 633.291 350.553 637.262 357.314 638.099C363.871 639.144 371.247 648.969 374.321 651.268C377.394 653.568 389.483 658.585 393.376 650.432C397.269 642.279 405.875 638.099 409.563 641.443C413.046 644.788 428.413 650.641 435.38 659.212C442.346 667.574 456.074 660.466 459.967 666.528C463.86 672.591 476.974 684.297 485.374 686.387C493.775 688.687 516.928 687.015 520.617 675.726C524.305 664.438 516.109 650.85 534.345 655.449C552.58 660.048 616.918 666.737 623.884 657.121C630.646 647.715 622.86 626.81 612.205 620.957C601.551 615.313 576.348 613.222 588.437 598.589C600.731 583.956 607.902 570.787 604.214 559.707C600.526 548.628 591.92 542.357 566.718 539.43C541.516 536.504 495.824 544.238 476.359 548.628C456.894 553.018 456.074 539.639 453.206 532.323C450.132 525.006 417.964 519.571 389.483 515.808C361.003 511.837 348.299 534.204 327.809 536.713C307.32 539.012 252.203 518.317 246.671 519.78C241.138 521.244 228.845 531.278 228.845 539.43C229.049 547.792 222.493 546.329 208.15 547.792C193.807 549.255 183.153 553.227 184.792 563.888C186.636 574.759 176.391 575.386 167.171 583.12C157.95 590.855 151.804 591.273 164.917 598.798C178.03 606.324 177.211 611.759 171.269 615.731C164.712 619.912 184.997 616.149 184.997 616.149Z" fill="url(#paint37_linear_0_1)"/>
<path d="M904.557 602.468C904.557 602.468 909.242 608.903 896.004 604.544C882.766 600.184 890.505 604.959 884.395 607.242C878.489 609.526 867.899 606.204 866.27 602.468C864.641 598.731 857.716 600.392 852.421 605.789C847.126 611.187 843.867 600.392 834.092 596.862C824.316 593.333 818.614 585.652 804.358 587.313C790.102 588.973 783.992 590.427 778.697 585.029C773.402 579.631 780.937 569.667 767.292 566.968C753.647 564.477 750.389 564.269 748.352 555.757C746.316 547.038 720.858 545.585 754.258 535.205C787.658 524.825 780.734 515.69 805.987 522.956C831.241 530.222 834.907 528.561 848.755 525.24C862.604 521.918 870.75 518.389 874.212 525.863C877.471 533.336 894.578 533.544 907.816 530.43C920.85 527.316 928.385 523.994 932.255 530.43C936.124 536.866 936.532 555.965 951.806 563.023C967.284 570.082 975.227 583.991 970.135 590.219C965.044 596.447 949.362 613.47 945.085 608.488C940.808 603.713 932.662 593.126 930.218 607.865C927.774 622.605 907.612 605.789 904.557 602.468Z" fill="url(#paint38_linear_0_1)"/>
<path d="M439.287 380.344C427.639 380.135 426.004 382.862 424.983 387.267C424.165 391.672 405.161 386.847 404.343 390.203C403.526 393.56 395.352 392.72 387.178 391.252C379.004 389.784 386.769 385.798 387.178 379.505C387.587 373.212 385.952 365.451 381.048 369.646C376.348 374.051 377.982 380.554 369.809 379.086C361.635 377.617 353.052 376.988 351.213 372.164C349.578 367.339 340.382 364.402 333.435 361.885C326.487 359.368 331.187 340.909 326.078 330.63C320.969 320.352 310.956 311.542 302.374 313.639C293.791 315.527 295.426 322.03 293.382 319.513C291.135 316.995 288.274 315.108 281.326 319.513C274.582 323.708 270.291 323.708 268.452 322.24C266.817 320.771 259.461 322.659 255.578 328.113C251.695 333.567 245.565 333.567 240.048 335.455C234.53 337.343 221.043 340.909 215.934 328.113C210.826 315.527 208.169 316.366 205.513 315.947C202.856 315.527 195.5 321.82 195.091 314.059C194.682 306.297 183.852 301.892 181.195 309.234C178.539 316.576 164.847 312.171 160.556 307.346C156.265 302.522 149.317 305.458 142.369 313.22C135.421 320.981 135.013 324.337 135.013 324.337C108.652 338.391 129.495 350.138 118.665 359.997C107.834 369.856 102.317 407.824 98.843 410.76C95.3691 413.697 90.6691 410.76 88.0126 413.697C85.3561 416.634 80.6561 419.151 81.0648 424.814C81.2691 427.961 78.6126 430.268 75.9561 431.737V537.038H551.27L558.013 528.019C555.765 529.487 508.152 380.974 439.287 380.344Z" fill="url(#paint39_linear_0_1)"/>
<path d="M1401.61 500.313C1400.39 499.265 1399.16 496.541 1397.93 491.93C1394.86 479.145 1393.23 475.791 1387.09 478.306C1380.95 480.822 1380.54 479.354 1379.32 468.456C1378.09 457.767 1368.47 442.048 1355.38 441C1342.29 439.952 1334.11 428.215 1321.22 417.107C1308.13 405.789 1308.74 389.651 1277.45 378.543C1246.15 367.225 1263.94 388.393 1250.65 405.999C1237.15 423.604 1233.67 409.352 1231.22 404.113C1228.56 398.663 1225.49 401.597 1224.67 404.113C1223.85 406.628 1223.44 418.784 1215.67 408.095C1207.9 397.406 1207.9 402.226 1207.49 404.113C1207.08 405.999 1193.99 411.029 1188.05 401.178C1181.92 391.328 1176.8 399.292 1154.3 408.095C1131.8 416.897 1136.09 421.718 1136.09 409.981C1136.09 398.244 1127.91 401.178 1115.64 398.663C1103.57 396.148 1092.73 415.221 1091.3 405.58C1090.07 395.729 1071.86 405.58 1073.09 403.065C1074.32 400.55 1070.02 385.459 1064.91 378.543C1059.79 371.626 1060.2 374.561 1057.54 377.076C1054.88 379.591 1056.32 392.795 1047.52 399.502C1038.93 406.418 1031.97 402.017 1031.97 398.454C1031.97 395.1 1022.36 376.866 1014.18 373.094C1006 369.111 1005.18 355.488 998.222 354.44C991.267 353.392 990.858 369.111 988.198 373.513C985.539 377.914 981.652 376.028 980.425 367.225C979.198 358.422 968.765 358.422 961.401 358.422C954.037 358.422 950.559 352.554 942.786 341.865C935.013 331.176 927.24 334.529 909.034 341.865C890.828 349.201 884.691 349.201 870.372 348.153C856.053 347.105 856.871 351.087 850.53 353.602C843.984 356.117 844.802 352.135 837.029 353.602C829.255 355.069 835.392 373.722 831.301 369.321C827.414 364.92 814.323 361.566 805.322 360.938C796.321 360.518 785.889 365.339 775.456 366.806C765.024 368.273 762.364 371.626 755 380.01C747.636 388.393 744.977 398.034 737.613 406.837C734.953 409.981 731.271 413.754 727.385 416.897V500.313H1401.61Z" fill="url(#paint40_linear_0_1)"/>
<path d="M890.8 589.202C892.436 600.789 887.529 613.825 892.64 618.17C897.751 622.515 925.35 630.792 930.256 626.447C935.163 622.102 951.926 615.066 957.65 620.653C963.579 626.447 969.916 638.862 979.116 634.103C988.316 629.344 1003.03 635.551 1012.85 646.104C1022.66 656.657 1032.68 647.966 1049.24 626.861C1049.24 626.861 1045.97 670.934 1052.71 681.487C1059.66 692.039 1083.38 665.14 1083.38 665.14C1083.38 665.14 1089.51 676.935 1097.48 678.797C1103.62 680.245 1110.98 671.968 1117.52 670.313C1126.1 668.037 1133.26 652.725 1134.69 652.105C1136.12 651.484 1131.22 640.517 1134.28 626.861C1137.14 614.653 1142.66 599.962 1144.3 588.788H890.8C890.8 588.788 890.8 588.995 890.8 589.202Z" fill="url(#paint41_linear_0_1)"/>
<path d="M77.585 628.78C80.4487 631.307 83.9262 633.413 88.0173 634.045C91.9039 634.677 96.4041 629.412 101.109 628.78C106.223 628.148 113.382 636.994 119.519 638.889C123.61 640.153 127.292 633.624 129.542 635.309C135.065 639.521 131.588 644.365 134.861 646.261C141.611 649.841 146.111 642.891 155.725 632.992C160.021 628.569 165.339 637.626 170.453 634.677C171.681 634.045 173.931 624.989 176.181 623.725C178.84 622.251 181.704 628.569 182.931 626.884C186.409 622.04 184.363 617.196 186.613 618.67C191.114 621.619 189.477 614.247 194.386 609.403C197.046 606.876 205.023 608.982 208.501 605.401C214.842 598.872 218.115 589.816 225.888 586.024C230.593 583.708 236.729 586.867 246.344 583.918C271.709 576.336 261.072 572.334 283.982 545.165C307.097 517.995 284.596 530.632 278.254 524.314C272.118 517.995 269.254 519.68 256.367 524.945C243.48 530.211 244.503 517.363 237.139 515.678C229.775 513.993 225.274 518.627 214.024 527.894C202.773 537.161 193.773 533.791 183.545 536.108C173.317 538.425 164.93 530.843 163.294 538.425C161.657 546.007 156.544 551.273 153.066 548.956C149.589 546.639 138.952 549.588 135.065 554.853C131.179 560.118 140.179 560.118 126.678 563.488C113.178 567.069 120.542 569.807 120.542 569.807C116.041 568.543 90.0629 565.173 95.7904 579.074C101.518 592.975 89.0401 588.341 82.9034 586.656C80.8579 586.024 79.2214 588.131 77.585 591.29V628.78V628.78Z" fill="url(#paint42_linear_0_1)"/>
<path d="M1011.46 562.485C1007.98 558.689 1014.11 508.927 1019.22 505.131C1046.21 483.624 1015.95 469.497 1011.46 461.062C1007.16 452.628 1008.39 459.586 1007.57 465.49C1006.75 471.394 1005.32 473.081 1004.1 463.593C1002.87 454.104 1002.26 451.574 1000.01 453.471C997.758 455.369 997.553 454.104 997.144 446.091C996.735 438.079 993.055 426.482 988.148 425.638C983.242 425.006 980.175 416.15 975.268 407.715C970.361 399.281 970.566 387.262 958.912 379.039C947.258 370.604 953.801 386.419 948.894 399.492C943.783 412.565 942.556 402.022 941.534 398.016C940.512 394.009 933.151 396.751 932.538 398.016C930.698 401.6 927.427 403.076 925.178 395.907C922.929 388.527 920.885 394.431 912.502 400.968C904.12 407.504 905.755 411.089 905.755 402.444C905.755 393.799 881.63 399.07 882.243 397.383C882.652 395.485 884.492 394.009 882.448 388.738C880.403 383.677 877.541 387.262 876.519 389.16C875.497 391.057 875.906 389.792 872.634 394.853C869.363 399.914 866.705 396.751 866.705 394.22C866.705 391.69 869.568 377.352 866.501 374.611C863.434 371.659 859.141 369.339 856.483 368.496C853.825 367.863 847.691 377.563 847.283 370.815C846.874 364.279 842.989 364.279 840.127 364.279C837.264 364.279 836.038 359.851 833.175 351.838C830.313 343.825 827.246 346.356 820.5 351.838C813.753 357.32 811.299 357.32 805.984 356.477C800.668 355.844 800.872 358.585 798.419 360.483C795.966 362.381 796.375 359.429 793.308 360.483C790.445 361.537 792.694 375.454 791.263 372.08C789.832 368.707 784.925 366.176 781.45 365.965C777.974 365.544 774.09 369.339 770.205 370.393C766.32 371.448 765.298 373.978 762.64 380.304C759.778 386.419 756.302 392.744 753.44 399.281C750.578 405.818 744.444 408.348 743.831 404.974C743.218 401.6 735.449 411.511 732.586 410.456C729.724 409.402 726.248 416.36 723.999 417.415C721.75 418.469 719.91 417.415 720.115 422.475C720.319 427.536 712.346 431.331 711.732 434.705C710.301 441.874 712.755 438.711 709.074 438.29C705.394 437.868 700.896 445.037 696.603 445.037C692.31 445.037 691.492 446.935 691.287 450.098C690.878 453.471 683.723 449.676 683.518 452.206C683.109 454.736 680.043 454.104 676.976 452.839C673.909 451.784 674.114 453.26 674.318 448.622C674.522 443.983 669.207 448.2 667.571 451.363C665.731 454.737 669.411 457.056 666.344 456.002C663.278 454.947 662.46 456.845 661.642 453.26C661.029 449.676 659.598 453.682 656.94 451.784C654.282 449.887 661.233 447.778 659.393 439.976C657.349 432.386 653.669 425.849 650.397 427.325C647.126 428.801 647.739 433.44 646.922 431.753C646.104 429.855 638.13 435.127 637.517 433.862C636.904 432.807 634.041 434.283 632.61 438.29C631.179 442.296 623.41 453.682 621.365 455.158C619.321 456.634 618.299 454.315 616.254 444.826C614.21 435.338 610.939 434.705 609.916 434.283C608.894 433.862 600.103 430.066 599.08 435.548C598.058 441.031 592.947 437.657 591.311 434.072C589.676 430.488 587.018 432.596 584.564 438.5C581.907 444.404 581.702 446.935 581.702 446.935C571.684 457.478 573.729 445.248 569.64 452.417C565.551 459.797 557.168 453.682 555.737 455.791C554.51 457.899 548.786 457.056 547.764 459.165C546.741 461.273 536.519 466.545 536.723 470.973C536.928 475.401 557.986 484.257 556.964 483.835C555.942 483.413 552.057 483.413 551.444 487.63C550.83 491.847 547.968 488.052 547.15 487.841C546.332 487.419 543.47 487.841 542.448 490.371C541.221 492.902 540.812 496.908 539.586 497.751C538.359 498.384 537.745 499.649 538.359 502.39C538.768 505.131 537.95 505.131 537.132 509.138C536.314 513.144 535.088 512.512 531.612 512.512C528.136 512.512 524.047 506.607 523.843 508.505C523.434 510.403 520.981 513.144 520.367 514.198C519.754 515.253 518.323 515.674 517.914 514.62C517.505 513.566 514.438 516.518 514.234 519.259C513.825 522.211 512.394 521.157 512.394 521.157C512.394 521.157 508.918 521.157 508.1 523.898C507.282 526.639 504.829 525.585 502.989 524.53C500.944 523.476 500.331 524.109 496.651 524.53C492.971 524.952 490.109 530.434 490.109 530.434C489.495 531.489 488.269 532.543 487.655 524.741C487.451 522.844 479.886 520.102 474.162 524.741C472.322 526.217 472.935 530.224 472.322 535.917C471.913 539.923 467.619 538.025 467.619 538.025C463.326 536.128 460.259 535.495 450.036 548.779C439.814 562.274 437.156 573.66 424.276 579.353C412.009 584.836 440.223 592.637 445.13 623.844H984.673C989.375 612.669 992.442 601.072 1004.3 592.637C1037.01 570.076 1014.93 566.28 1011.46 562.485Z" fill="url(#paint43_linear_0_1)"/>
<path d="M1139.12 601.436C1138.1 594.052 1140.97 585.437 1138.1 582.771C1135.02 579.899 1119.04 574.566 1116.17 577.438C1113.3 580.31 1103.66 584.822 1100.18 581.13C1096.7 577.438 1093.01 569.438 1087.68 572.515C1082.35 575.592 1073.74 571.49 1068 564.721C1062.26 557.747 1056.53 563.49 1046.89 577.233C1046.89 577.233 1048.74 548.722 1044.84 541.953C1040.95 535.184 1027.01 552.414 1027.01 552.414C1027.01 552.414 1023.53 544.825 1018.81 543.594C1015.13 542.774 1011.03 548.107 1007.13 549.132C1002.21 550.568 997.91 560.619 997.295 561.029C996.475 561.439 999.345 568.618 997.5 577.438C995.246 588.104 990.327 601.436 991.352 608.82H1132.77C1136.46 605.744 1139.53 603.693 1139.12 601.436Z" fill="url(#paint44_linear_0_1)"/>
<path d="M477.185 598.434C480.868 608.893 470.022 611.194 461.222 620.189C452.627 629.183 446.078 630.647 461.222 636.086C476.366 641.524 476.366 646.963 470.636 651.983C464.906 657.003 485.78 650.1 485.78 650.1C485.78 650.1 477.185 661.396 495.194 670.6C513.408 679.594 532.85 691.517 537.147 677.502C541.445 663.488 545.129 657.631 552.291 661.187C559.454 664.743 571.938 666.207 574.803 659.723C577.668 653.447 566.208 648.845 578.487 646.126C590.766 643.407 592.198 651.565 602.431 649.682C612.663 647.8 612.663 642.361 615.528 640.06C618.393 637.759 630.672 640.06 638.654 635.877C646.635 631.693 650.933 633.157 654.616 638.178C658.3 643.198 666.895 645.917 674.263 645.917C681.426 645.917 690.84 654.493 694.523 656.376C698.207 658.258 711.919 661.396 714.784 652.82C717.649 644.244 726.449 638.805 730.746 641.524C735.044 644.244 752.439 647.8 761.239 655.121C769.835 662.442 783.751 653.238 788.867 658.677C793.983 664.115 809.946 673.528 819.36 674.574C828.774 675.411 853.332 670.6 855.583 658.677C857.834 646.963 846.988 634.622 867.248 636.504C887.508 638.387 957.908 635.249 963.638 624.79C969.369 614.332 957.908 594.878 945.424 590.695C935.192 587.348 914.113 587.976 913.908 578.772H500.106C499.901 578.772 499.696 578.772 499.492 578.981C484.347 582.537 473.501 587.976 477.185 598.434Z" fill="url(#paint45_linear_0_1)"/>
<path d="M88.0221 739.405C95.1799 746.562 107.246 749.088 110.109 736.669C112.972 724.25 101.52 715.41 113.586 710.147C125.856 704.885 127.288 720.672 137.104 717.304C147.125 713.726 147.125 703.201 149.988 698.781C152.851 694.361 164.918 698.781 172.893 690.782C180.665 682.784 184.959 685.52 188.641 695.203C192.117 704.885 200.707 710.147 207.864 710.147C215.022 710.147 224.225 726.986 227.906 730.354C231.587 733.933 245.085 740.037 247.948 723.198C250.811 706.359 259.401 695.834 263.695 701.096C267.99 706.359 285.169 713.515 293.758 727.618C302.348 741.721 315.845 724.04 320.958 734.774C323.003 739.195 334.865 741.721 339.364 747.193C345.704 754.771 345.704 764.664 351.021 765.716C355.316 766.558 362.473 742.773 369.427 738.563C377.812 733.722 385.583 747.404 386.81 734.774C388.855 711.831 378.221 688.046 398.262 691.624C408.283 693.308 430.575 711.831 451.23 708.253C461.251 706.569 460.433 696.676 468 688.677C472.295 684.047 479.248 692.887 484.565 689.309C489.064 686.362 492.746 670.996 493.359 668.681C495.2 662.156 500.721 650.369 499.085 636.897C498.472 631.004 490.087 624.899 490.087 618.585C490.087 610.797 482.929 603.009 483.338 596.062C484.361 581.539 493.155 570.172 488.655 567.226C476.589 559.227 457.366 579.855 446.731 566.384C437.528 554.596 440.8 540.704 446.118 527.022H75.9561V754.35C79.2282 739.405 82.5003 733.933 88.0221 739.405Z" fill="url(#paint46_linear_0_1)"/>
<path d="M1316.23 601.927C1301.93 600.256 1298.05 591.482 1289.26 585.634C1280.47 579.993 1279.66 568.713 1273.32 572.682C1266.99 576.651 1259.84 576.651 1259.02 572.682C1258.2 568.713 1248.8 562.864 1242.47 563.7C1236.14 564.536 1242.47 571.011 1230.62 563.7C1218.77 556.389 1221.83 563.7 1221.83 563.7C1219.38 559.731 1203.65 538.633 1198.13 552.42C1192.62 566.207 1187.1 554.091 1183.83 548.451C1180.76 542.811 1161.56 555.762 1155.22 560.567C1148.89 565.371 1153.59 580.829 1167.07 591.274C1173.2 596.078 1175.66 602.554 1176.88 608.82H1339.73C1336.05 603.389 1329.51 603.389 1316.23 601.927Z" fill="url(#paint47_linear_0_1)"/>
<path d="M1121.48 597.329C1117.6 600.52 1124.13 603.71 1120.87 606.476C1113.73 612.644 1098.43 617.75 1098.22 621.153C1097.61 631.789 1088.43 645.615 1093.94 648.38C1096.18 649.657 1098.02 655.825 1105.77 653.911C1111.48 652.422 1122.91 642.85 1128.21 642.212C1133.11 641.574 1137.19 648.806 1139.23 647.104C1146.58 641.574 1169.02 630.725 1175.14 634.767C1181.26 638.808 1186.36 649.231 1199.01 642.424C1211.66 635.618 1228.8 637.957 1238.8 645.828C1245.12 650.72 1245.53 648.168 1257.36 639.446C1259.2 637.957 1263.28 644.552 1267.36 642.85C1271.03 641.361 1274.5 631.576 1276.54 629.874C1280.42 626.471 1283.89 621.366 1288.99 623.706C1288.99 623.706 1290.42 629.449 1287.56 641.361C1284.7 653.06 1277.77 665.61 1280.83 669.652C1283.68 673.481 1287.97 664.547 1297.15 660.718C1301.43 659.016 1310.82 664.759 1314.29 661.994C1319.59 657.74 1323.27 646.466 1323.27 646.466C1323.27 646.466 1328.16 656.464 1337.75 656.038C1345.3 655.825 1356.32 646.253 1364.89 643.062C1376.31 638.808 1388.96 622.216 1390.6 621.366C1392.43 620.302 1388.76 611.155 1396.1 597.116C1397.74 593.926 1399.78 590.522 1401.61 587.119H1138.01C1137.6 588.182 1136.99 589.246 1136.17 590.097C1134.34 592.862 1124.13 595.202 1121.48 597.329Z" fill="url(#paint48_linear_0_1)"/>
<path d="M1074.41 560.063C1067.69 563.142 1064.02 563.963 1063.01 560.063C1061.99 556.162 1059.14 552.672 1056.29 552.672C1053.44 552.672 1053.44 548.771 1052.62 546.513C1051.81 544.255 1046.92 543.844 1045.09 544.255C1043.26 544.665 1037.56 539.122 1036.95 537.274C1036.14 535.632 1039.19 532.963 1040.21 529.884C1041.22 526.804 1048.35 518.181 1053.85 520.85C1059.14 523.519 1062.4 537.685 1066.26 533.784C1070.13 529.884 1068.71 523.725 1070.13 524.34C1071.56 524.751 1076.24 527.831 1076.64 529.062C1077.05 530.294 1084.18 532.142 1085.19 528.652C1086.21 525.162 1091.91 525.572 1094.56 529.884C1097 534.195 1091.3 545.897 1094.56 546.718C1097.82 547.539 1101.48 552.877 1104.33 558.01C1107.18 563.142 1103.11 577.103 1092.52 577.103C1091.51 577.103 1084.58 568.891 1078.68 568.891C1072.78 568.891 1068.91 577.103 1068.71 573.613C1067.89 570.328 1074.41 560.063 1074.41 560.063Z" fill="url(#paint49_linear_0_1)"/>
<path d="M931.091 504.474C924.374 507.644 920.71 508.489 919.692 504.474C918.674 500.458 915.824 496.865 912.974 496.865C910.124 496.865 910.124 492.85 909.31 490.525C908.496 488.2 903.61 487.778 901.778 488.2C899.946 488.623 894.246 482.917 893.635 481.015C892.821 479.324 895.875 476.577 896.893 473.407C897.91 470.237 905.035 461.361 910.531 464.108C915.824 466.855 919.081 481.438 922.949 477.422C926.817 473.407 925.392 467.067 926.817 467.701C928.241 468.123 932.923 471.293 933.331 472.561C933.738 473.829 940.862 475.732 941.88 472.139C942.898 468.546 948.598 468.969 951.244 473.407C953.687 477.845 947.987 489.891 951.244 490.737C954.501 491.582 958.165 497.077 961.015 502.36C963.865 507.644 959.794 522.015 949.209 522.015C948.191 522.015 941.27 513.561 935.366 513.561C929.463 513.561 925.595 522.015 925.392 518.422C924.577 515.04 931.091 504.474 931.091 504.474Z" fill="url(#paint50_linear_0_1)"/>
<path d="M574.434 549.546C567.716 552.716 564.052 553.561 563.035 549.546C562.017 545.53 559.167 541.938 556.317 541.938C553.467 541.938 553.467 537.922 552.653 535.597C551.838 533.273 546.953 532.85 545.121 533.273C543.289 533.695 537.589 527.989 536.978 526.087C536.164 524.397 539.217 521.649 540.235 518.479C541.253 515.309 548.378 506.433 553.874 509.18C559.167 511.928 562.424 526.51 566.292 522.494C570.159 518.479 568.734 512.139 570.159 512.773C571.584 513.196 576.266 516.366 576.673 517.634C577.08 518.902 584.205 520.804 585.223 517.211C586.241 513.618 591.941 514.041 594.587 518.479C597.03 522.917 591.33 534.963 594.587 535.809C597.844 536.654 601.508 542.149 604.358 547.432C607.208 552.716 603.137 567.087 592.551 567.087C591.534 567.087 584.612 558.633 578.709 558.633C572.806 558.633 568.938 567.087 568.734 563.494C567.92 560.324 574.434 549.546 574.434 549.546Z" fill="url(#paint51_linear_0_1)"/>
<path d="M769.834 531.878C769.834 531.878 772.08 533.751 766.974 533.335C761.868 532.919 765.136 533.959 763.093 535.415C761.255 536.663 757.17 536.455 756.353 535.415C755.536 534.167 753.085 535.415 751.86 537.912C750.43 540.2 748.387 536.871 744.711 536.455C741.034 536.039 738.175 533.959 733.477 535.831C728.575 537.704 726.532 538.744 724.286 537.496C722.039 536.039 723.673 531.878 718.771 532.295C713.665 532.711 712.643 532.919 711.214 530.006C709.784 527.094 700.592 528.966 711.418 522.309C722.243 515.651 718.975 512.947 728.575 513.363C738.175 513.571 739.196 512.739 743.894 510.242C748.387 507.746 751.043 505.874 752.881 508.162C754.719 510.45 760.642 508.994 765.136 506.706C769.425 504.417 771.672 502.545 773.714 504.417C775.757 506.29 777.391 512.947 783.519 514.195C789.646 515.235 793.527 519.396 792.301 522.101C791.076 524.805 786.991 532.086 785.153 530.838C783.11 529.59 779.434 526.677 779.842 531.878C779.842 536.871 771.263 532.711 769.834 531.878Z" fill="url(#paint52_linear_0_1)"/>
<path d="M573.207 695.355C573.207 695.355 574.849 695.78 571.976 696.842C569.102 697.904 571.155 697.692 570.334 698.966C569.718 700.241 567.461 701.09 566.64 700.878C565.819 700.453 564.998 701.728 564.793 703.427C564.588 705.127 562.535 703.64 560.483 704.489C558.431 705.339 556.379 704.914 554.121 707.251C551.864 709.588 551.043 710.65 549.401 710.65C547.759 710.437 547.554 707.676 545.092 709.163C542.424 710.65 541.808 711.075 540.371 710.013C538.935 708.738 534.42 712.349 538.524 705.552C542.834 698.966 540.371 698.329 545.502 695.992C550.838 693.655 551.248 692.806 553.095 690.257C554.942 687.707 555.968 685.795 557.405 686.645C559.047 687.495 561.92 684.946 563.767 682.609C565.614 680.272 566.229 678.573 567.871 678.998C569.513 679.635 572.181 682.821 575.67 681.759C579.158 680.697 582.442 681.972 582.442 683.671C582.442 685.371 582.031 690.681 580.8 690.469C579.363 690.256 576.696 689.619 578.132 692.593C579.979 695.567 574.233 695.567 573.207 695.355Z" fill="url(#paint53_linear_0_1)"/>
<path d="M245.864 655.503C245.864 655.503 247.506 655.928 244.633 656.99C241.76 658.052 243.812 657.84 242.991 659.115C242.375 660.389 240.118 661.239 239.297 660.814C238.476 660.389 237.655 661.664 237.45 663.363C237.245 665.063 235.193 663.576 233.14 664.425C231.088 665.275 229.036 664.85 226.778 667.187C224.521 669.524 223.7 670.586 222.058 670.586C220.417 670.373 220.211 667.612 217.749 669.099C215.081 670.586 214.465 671.011 213.029 669.949C211.592 668.674 207.077 672.285 211.182 665.488C215.491 658.902 213.029 658.265 218.159 655.928C223.495 653.591 223.905 652.742 225.752 650.193C227.599 647.643 228.625 645.731 230.062 646.581C231.704 647.431 234.577 644.882 236.424 642.545C238.271 640.208 238.887 638.509 240.528 638.934C242.17 639.571 244.838 642.757 248.327 641.695C251.815 640.633 255.099 641.908 255.099 643.607C255.099 645.307 254.689 650.617 253.457 650.405C252.021 650.193 249.353 649.555 250.789 652.529C252.431 655.503 246.89 655.503 245.864 655.503Z" fill="url(#paint54_linear_0_1)"/>
<path d="M292.243 544.319C286.03 552.301 282.302 555.661 278.574 551.67C274.846 547.68 269.254 545.369 265.733 547.05C262.212 548.94 259.934 544.109 257.656 542.009C255.378 539.908 249.165 542.429 247.301 544.109C245.437 545.789 235.081 542.639 233.217 540.959C231.353 539.278 233.01 534.447 232.389 530.037C231.974 527.516 239.637 524.996 241.916 520.375C243.573 516.804 239.43 510.503 242.951 510.293C251.028 510.083 263.869 525.206 266.147 518.064C268.426 510.923 263.041 504.412 264.905 503.992C266.976 503.572 274.432 504.202 275.674 505.672C276.917 506.933 286.651 504.622 285.616 499.581C284.787 494.75 291.829 491.6 297.628 495.17C303.427 498.741 303.841 516.594 308.191 515.544C312.54 514.494 320.203 518.485 326.83 522.895C330.765 525.626 326.209 535.918 324.345 543.899C323.102 549.15 324.966 553.141 324.552 553.561C324.138 553.771 321.445 559.652 318.132 560.492C315.646 561.122 312.954 564.273 310.676 563.643C307.569 563.012 305.291 558.392 305.291 558.392C305.291 558.392 296.385 568.473 293.693 564.483C291 560.912 292.243 544.319 292.243 544.319Z" fill="url(#paint55_linear_0_1)"/>
<path d="M795.881 455.634C789.773 463.616 786.108 466.976 782.443 462.986C778.779 458.995 773.282 456.684 770.024 458.365C766.563 460.255 764.323 455.424 762.084 453.324C759.844 451.223 753.736 453.744 751.904 455.424C750.071 457.104 739.891 453.954 738.059 452.274C736.227 450.593 737.855 445.762 737.245 441.352C736.837 438.831 744.371 436.311 746.61 431.69C748.239 428.119 744.167 421.818 747.628 421.608C755.568 421.398 768.192 436.521 770.431 429.38C772.671 422.238 767.377 415.727 769.21 415.307C771.246 414.887 778.575 415.517 779.797 416.987C781.018 418.248 790.587 415.937 789.569 411.106C788.755 406.276 795.677 403.125 801.378 406.696C807.079 410.266 807.486 428.119 811.762 427.069C816.037 426.019 823.57 430.01 830.086 434.42C833.954 437.151 829.475 447.443 827.642 455.424C826.421 460.675 828.253 464.666 827.846 465.086C827.439 465.296 824.792 471.177 821.534 472.017C819.091 472.647 816.444 475.798 814.205 475.168C811.151 474.538 808.911 469.917 808.911 469.917C808.911 469.917 800.157 479.999 797.51 476.008C794.659 472.437 795.881 455.634 795.881 455.634Z" fill="url(#paint56_linear_0_1)"/>
<path d="M1332.69 552.666C1326.48 560.647 1322.75 564.008 1319.02 560.017C1315.3 556.027 1309.7 553.716 1306.39 555.397C1302.87 557.287 1300.59 552.456 1298.31 550.356C1296.03 548.255 1289.82 550.776 1287.96 552.456C1286.09 554.136 1275.74 550.986 1273.87 549.305C1272.01 547.625 1273.67 542.794 1273.05 538.384C1272.63 535.863 1280.29 533.343 1282.57 528.722C1284.23 525.151 1280.09 518.85 1283.61 518.64C1291.69 518.43 1304.53 533.553 1306.8 526.411C1309.08 519.27 1303.7 512.759 1305.56 512.339C1307.63 511.919 1315.09 512.549 1316.33 514.019C1317.57 515.279 1327.31 512.969 1326.27 507.928C1325.44 503.097 1332.49 499.947 1338.29 503.517C1344.08 507.088 1344.5 524.941 1348.85 523.891C1353.2 522.841 1360.86 526.831 1367.49 531.242C1371.42 533.973 1366.87 544.265 1365 552.246C1363.76 557.497 1365.62 561.488 1365.21 561.908C1364.8 562.118 1362.1 567.999 1358.79 568.839C1356.3 569.469 1353.61 572.62 1351.13 571.989C1348.02 571.359 1345.74 566.739 1345.74 566.739C1345.74 566.739 1336.84 576.82 1334.14 572.83C1331.45 569.259 1332.69 552.666 1332.69 552.666Z" fill="url(#paint57_linear_0_1)"/>
<path d="M763.101 944.93C762.117 944.11 761.133 941.979 760.15 938.373C757.69 928.375 756.378 925.752 751.458 927.719C746.539 929.686 746.211 928.539 745.227 920.015C744.243 911.656 736.536 899.363 726.041 898.543C715.546 897.723 708.987 888.544 698.656 879.857C688.161 871.006 688.653 858.385 663.563 849.698C638.474 840.846 652.74 857.401 642.081 871.17C631.258 884.938 628.471 873.792 626.503 869.695C624.371 865.433 621.911 867.728 621.255 869.695C620.6 871.662 620.272 881.168 614.04 872.809C607.809 864.45 607.809 868.22 607.481 869.695C607.153 871.17 596.658 875.104 591.902 867.4C586.983 859.696 582.883 865.925 564.845 872.809C546.807 879.693 550.251 883.463 550.251 874.284C550.251 865.105 543.691 867.4 533.852 865.433C524.177 863.466 515.486 878.382 514.338 870.842C513.354 863.138 498.76 870.842 499.744 868.875C500.728 866.908 497.284 855.107 493.184 849.698C489.085 844.289 489.413 846.583 487.281 848.55C485.149 850.517 486.297 860.844 479.246 866.089C472.358 871.498 466.783 868.056 466.783 865.269C466.783 862.647 459.076 848.386 452.516 845.436C445.957 842.322 445.301 831.667 439.726 830.848C434.15 830.028 433.822 842.322 431.69 845.764C429.559 849.206 426.443 847.731 425.459 840.846C424.475 833.962 416.112 833.962 410.209 833.962C404.305 833.962 401.517 829.373 395.286 821.013C389.055 812.654 382.823 815.276 368.229 821.013C353.634 826.75 348.715 826.75 337.236 825.931C325.757 825.111 326.413 828.225 321.329 830.192C316.082 832.159 316.738 829.045 310.507 830.192C304.275 831.34 309.195 845.928 305.915 842.486C302.799 839.043 292.304 836.421 285.089 835.929C277.874 835.601 269.511 839.371 261.147 840.519C252.784 841.666 250.653 844.289 244.749 850.845C238.846 857.401 236.714 864.941 230.811 871.826C228.679 874.284 225.727 877.235 222.611 879.693V944.93H763.101Z" fill="url(#paint58_linear_0_1)"/>
</g>
<rect opacity="0.3" x="220" y="159" width="1052" height="1063" fill="#D9D9D9"/>
<g opacity="0.9" filter="url(#filter0_f_0_1)">
<ellipse cx="923.5" cy="554.5" rx="328.5" ry="88.5" fill="#D9D9D9"/>
</g>
<g opacity="0.9" filter="url(#filter1_f_0_1)">
<ellipse cx="554.5" cy="409.5" rx="328.5" ry="88.5" fill="#D9D9D9"/>
</g>
<g opacity="0.9" filter="url(#filter2_f_0_1)">
<ellipse cx="943.5" cy="857.5" rx="328.5" ry="88.5" fill="#D9D9D9"/>
</g>
<g opacity="0.9" filter="url(#filter3_f_0_1)">
<ellipse cx="577.5" cy="731.5" rx="328.5" ry="88.5" fill="#D9D9D9"/>
</g>
<rect x="124.867" y="702.101" width="10.9568" height="504.012" rx="5.4784" transform="rotate(-90 124.867 702.101)" fill="url(#paint59_linear_0_1)"/>
<rect x="825.691" y="1128.07" width="10.9568" height="504.012" rx="5.4784" transform="rotate(-90 825.691 1128.07)" fill="url(#paint60_linear_0_1)"/>
<rect x="371.537" y="436.33" width="10.9568" height="504.012" rx="5.4784" transform="rotate(-90 371.537 436.33)" fill="url(#paint61_linear_0_1)"/>
<rect x="499.834" y="979.033" width="10.9568" height="504.012" rx="5.4784" transform="rotate(-90 499.834 979.033)" fill="url(#paint62_linear_0_1)"/>
<rect x="602.53" y="83.1411" width="10.9568" height="504.012" rx="5.4784" transform="rotate(-90 602.53 83.1411)" fill="url(#paint63_linear_0_1)"/>
<rect x="761.821" y="280.644" width="10.7733" height="687.178" rx="5.38663" transform="rotate(-90 761.821 280.644)" fill="url(#paint64_linear_0_1)"/>
<rect x="31.5498" y="563.057" width="10.7733" height="680.253" rx="5.38663" transform="rotate(-90 31.5498 563.057)" fill="url(#paint65_linear_0_1)"/>
<rect x="500.955" y="815.458" width="10.7733" height="866.476" rx="5.38663" transform="rotate(-90 500.955 815.458)" fill="url(#paint66_linear_0_1)"/>
<rect x="781.06" y="582.295" width="10.7733" height="651.011" rx="5.38663" transform="rotate(-90 781.06 582.295)" fill="url(#paint67_linear_0_1)"/>
<rect x="1128.85" y="1017.56" width="10.9568" height="262.562" rx="5.4784" transform="rotate(-90 1128.85 1017.56)" fill="url(#paint68_linear_0_1)"/>
<rect x="305.721" y="10.9568" width="10.9568" height="262.562" rx="5.4784" transform="rotate(-90 305.721 10.9568)" fill="url(#paint69_linear_0_1)"/>
<rect x="206.23" y="925.499" width="10.7733" height="771.056" rx="5.38663" transform="rotate(-90 206.23 925.499)" fill="url(#paint70_linear_0_1)"/>
<rect x="81.5684" y="371.447" width="11.5428" height="680.253" rx="5.77139" transform="rotate(-90 81.5684 371.447)" fill="url(#paint71_linear_0_1)"/>
<rect x="863.397" y="732.35" width="10.7732" height="504.033" rx="5.38662" transform="rotate(-90 863.397 732.35)" fill="url(#paint72_linear_0_1)"/>
<rect x="247.015" y="1111.72" width="10.7732" height="464.788" rx="5.38662" transform="rotate(-90 247.015 1111.72)" fill="url(#paint73_linear_0_1)"/>
<rect x="247.015" y="269.871" width="10.7732" height="403.996" rx="5.38662" transform="rotate(-90 247.015 269.871)" fill="url(#paint74_linear_0_1)"/>
<rect x="977.089" y="431.477" width="10.9568" height="262.562" rx="5.4784" transform="rotate(-90 977.089 431.477)" fill="url(#paint75_linear_0_1)"/>
<rect y="166.756" width="10.7733" height="975.747" rx="5.38663" transform="rotate(-90 0 166.756)" fill="url(#paint76_linear_0_1)"/>
<defs>
<filter id="filter0_f_0_1" x="445" y="316" width="957" height="477" filterUnits="userSpaceOnUse" color-interpolation-filters="sRGB">
<feFlood flood-opacity="0" result="BackgroundImageFix"/>
<feBlend mode="normal" in="SourceGraphic" in2="BackgroundImageFix" result="shape"/>
<feGaussianBlur stdDeviation="75" result="effect1_foregroundBlur_0_1"/>
</filter>
<filter id="filter1_f_0_1" x="76" y="171" width="957" height="477" filterUnits="userSpaceOnUse" color-interpolation-filters="sRGB">
<feFlood flood-opacity="0" result="BackgroundImageFix"/>
<feBlend mode="normal" in="SourceGraphic" in2="BackgroundImageFix" result="shape"/>
<feGaussianBlur stdDeviation="75" result="effect1_foregroundBlur_0_1"/>
</filter>
<filter id="filter2_f_0_1" x="465" y="619" width="957" height="477" filterUnits="userSpaceOnUse" color-interpolation-filters="sRGB">
<feFlood flood-opacity="0" result="BackgroundImageFix"/>
<feBlend mode="normal" in="SourceGraphic" in2="BackgroundImageFix" result="shape"/>
<feGaussianBlur stdDeviation="75" result="effect1_foregroundBlur_0_1"/>
</filter>
<filter id="filter3_f_0_1" x="99" y="493" width="957" height="477" filterUnits="userSpaceOnUse" color-interpolation-filters="sRGB">
<feFlood flood-opacity="0" result="BackgroundImageFix"/>
<feBlend mode="normal" in="SourceGraphic" in2="BackgroundImageFix" result="shape"/>
<feGaussianBlur stdDeviation="75" result="effect1_foregroundBlur_0_1"/>
</filter>
<linearGradient id="paint0_linear_0_1" x1="751.351" y1="159" x2="751.351" y2="1221.7" gradientUnits="userSpaceOnUse">
<stop stop-color="#626D7C"/>
<stop offset="1" stop-color="#708CA7"/>
</linearGradient>
<linearGradient id="paint1_linear_0_1" x1="740.964" y1="159" x2="740.964" y2="1221.7" gradientUnits="userSpaceOnUse">
<stop stop-color="#626D7C"/>
<stop offset="1" stop-color="#708CA7"/>
</linearGradient>
<linearGradient id="paint2_linear_0_1" x1="1379.46" y1="572.851" x2="178.068" y2="572.855" gradientUnits="userSpaceOnUse">
<stop stop-color="#FEFEFE" stop-opacity="0"/>
<stop offset="1" stop-color="white"/>
</linearGradient>
<linearGradient id="paint3_linear_0_1" x1="1175.13" y1="5.21927" x2="-26.2661" y2="5.2223" gradientUnits="userSpaceOnUse">
<stop stop-color="#FEFEFE" stop-opacity="0"/>
<stop offset="1" stop-color="white"/>
</linearGradient>
<linearGradient id="paint4_linear_0_1" x1="1175.13" y1="3.91445" x2="-26.2661" y2="3.91849" gradientUnits="userSpaceOnUse">
<stop stop-color="#FEFEFE" stop-opacity="0"/>
<stop offset="1" stop-color="white"/>
</linearGradient>
<linearGradient id="paint5_linear_0_1" x1="1176.03" y1="907.067" x2="57.1512" y2="907.071" gradientUnits="userSpaceOnUse">
<stop stop-color="#FEFEFE" stop-opacity="0"/>
<stop offset="1" stop-color="white"/>
</linearGradient>
<linearGradient id="paint6_linear_0_1" x1="2663.03" y1="728.209" x2="1544.15" y2="728.213" gradientUnits="userSpaceOnUse">
<stop stop-color="#FEFEFE" stop-opacity="0"/>
<stop offset="1" stop-color="white"/>
</linearGradient>
<linearGradient id="paint7_linear_0_1" x1="2610.53" y1="998.455" x2="1351.79" y2="998.459" gradientUnits="userSpaceOnUse">
<stop stop-color="#FEFEFE" stop-opacity="0"/>
<stop offset="1" stop-color="white"/>
</linearGradient>
<linearGradient id="paint8_linear_0_1" x1="2510.28" y1="755.625" x2="1391.41" y2="755.629" gradientUnits="userSpaceOnUse">
<stop stop-color="#FEFEFE" stop-opacity="0"/>
<stop offset="1" stop-color="white"/>
</linearGradient>
<linearGradient id="paint9_linear_0_1" x1="1054.97" y1="818.027" x2="1054.97" y2="900.136" gradientUnits="userSpaceOnUse">
<stop stop-color="white"/>
<stop offset="1" stop-color="#666E83"/>
</linearGradient>
<linearGradient id="paint10_linear_0_1" x1="435.811" y1="977.36" x2="435.811" y2="1041.33" gradientUnits="userSpaceOnUse">
<stop stop-color="white"/>
<stop offset="1" stop-color="#666E83"/>
</linearGradient>
<linearGradient id="paint11_linear_0_1" x1="938.502" y1="984.265" x2="938.502" y2="938.499" gradientUnits="userSpaceOnUse">
<stop stop-color="white"/>
<stop offset="1" stop-color="#666E83"/>
</linearGradient>
<linearGradient id="paint12_linear_0_1" x1="804.829" y1="1035.38" x2="804.829" y2="979.128" gradientUnits="userSpaceOnUse">
<stop stop-color="white"/>
<stop offset="1" stop-color="#666E83"/>
</linearGradient>
<linearGradient id="paint13_linear_0_1" x1="1280.18" y1="122.028" x2="1096.6" y2="316.565" gradientUnits="userSpaceOnUse">
<stop stop-color="#FEFEFE"/>
<stop offset="1" stop-color="#BFBFBF"/>
</linearGradient>
<linearGradient id="paint14_linear_0_1" x1="699.768" y1="78.486" x2="664.613" y2="464.318" gradientUnits="userSpaceOnUse">
<stop stop-color="#FEFEFE"/>
<stop offset="1" stop-color="#BFBFBF"/>
</linearGradient>
<linearGradient id="paint15_linear_0_1" x1="843.601" y1="373.108" x2="843.601" y2="90.6348" gradientUnits="userSpaceOnUse">
<stop stop-color="white"/>
<stop offset="1" stop-color="#666E83"/>
</linearGradient>
<linearGradient id="paint16_linear_0_1" x1="283.693" y1="244.199" x2="283.693" y2="46.0168" gradientUnits="userSpaceOnUse">
<stop stop-color="white"/>
<stop offset="1" stop-color="#666E83"/>
</linearGradient>
<linearGradient id="paint17_linear_0_1" x1="667.209" y1="234.073" x2="667.209" y2="121.555" gradientUnits="userSpaceOnUse">
<stop stop-color="white"/>
<stop offset="1" stop-color="#666E83"/>
</linearGradient>
<linearGradient id="paint18_linear_0_1" x1="1238.8" y1="282.805" x2="1238.8" y2="203.708" gradientUnits="userSpaceOnUse">
<stop stop-color="white"/>
<stop offset="1" stop-color="#666E83"/>
</linearGradient>
<linearGradient id="paint19_linear_0_1" x1="1187.47" y1="251.023" x2="1187.47" y2="77.7733" gradientUnits="userSpaceOnUse">
<stop stop-color="white"/>
<stop offset="1" stop-color="#666E83"/>
</linearGradient>
<linearGradient id="paint20_linear_0_1" x1="729.377" y1="177.017" x2="729.377" y2="82.7629" gradientUnits="userSpaceOnUse">
<stop stop-color="white"/>
<stop offset="1" stop-color="#666E83"/>
</linearGradient>
<linearGradient id="paint21_linear_0_1" x1="567.695" y1="247.441" x2="567.695" y2="151.547" gradientUnits="userSpaceOnUse">
<stop stop-color="white"/>
<stop offset="1" stop-color="#666E83"/>
</linearGradient>
<linearGradient id="paint22_linear_0_1" x1="1391.06" y1="210.51" x2="1391.06" y2="77.3588" gradientUnits="userSpaceOnUse">
<stop stop-color="white"/>
<stop offset="1" stop-color="#666E83"/>
</linearGradient>
<linearGradient id="paint23_linear_0_1" x1="856.559" y1="-92.084" x2="856.559" y2="187.466" gradientUnits="userSpaceOnUse">
<stop stop-color="white"/>
<stop offset="1" stop-color="#5F5E7C"/>
</linearGradient>
<linearGradient id="paint24_linear_0_1" x1="520.381" y1="93.0389" x2="520.381" y2="161.917" gradientUnits="userSpaceOnUse">
<stop stop-color="white"/>
<stop offset="1" stop-color="#5F5E7C"/>
</linearGradient>
<linearGradient id="paint25_linear_0_1" x1="873.625" y1="236.07" x2="873.625" y2="130.373" gradientUnits="userSpaceOnUse">
<stop stop-color="white"/>
<stop offset="1" stop-color="#5F5E7C"/>
</linearGradient>
<linearGradient id="paint26_linear_0_1" x1="1290.04" y1="329.875" x2="1290.04" y2="89.6677" gradientUnits="userSpaceOnUse">
<stop stop-color="white"/>
<stop offset="1" stop-color="#666E83"/>
</linearGradient>
<linearGradient id="paint27_linear_0_1" x1="341.307" y1="109.601" x2="341.307" y2="171.798" gradientUnits="userSpaceOnUse">
<stop stop-color="white"/>
<stop offset="1" stop-color="#666E83"/>
</linearGradient>
<linearGradient id="paint28_linear_0_1" x1="340.44" y1="234.319" x2="340.44" y2="150.291" gradientUnits="userSpaceOnUse">
<stop stop-color="white"/>
<stop offset="1" stop-color="#666E83"/>
</linearGradient>
<linearGradient id="paint29_linear_0_1" x1="1020.91" y1="274.455" x2="1020.91" y2="242.538" gradientUnits="userSpaceOnUse">
<stop stop-color="white"/>
<stop offset="1" stop-color="#666E83"/>
</linearGradient>
<linearGradient id="paint30_linear_0_1" x1="1398.83" y1="490.294" x2="3.09833" y2="490.299" gradientUnits="userSpaceOnUse">
<stop stop-color="#FEFEFE" stop-opacity="0"/>
<stop offset="1" stop-color="white"/>
</linearGradient>
<linearGradient id="paint31_linear_0_1" x1="297.808" y1="559.317" x2="479.962" y2="755.633" gradientUnits="userSpaceOnUse">
<stop stop-color="#FEFEFE"/>
<stop offset="1" stop-color="#BFBFBF"/>
</linearGradient>
<linearGradient id="paint32_linear_0_1" x1="884.192" y1="516.065" x2="918.535" y2="899.424" gradientUnits="userSpaceOnUse">
<stop stop-color="#FEFEFE"/>
<stop offset="1" stop-color="#BFBFBF"/>
</linearGradient>
<linearGradient id="paint33_linear_0_1" x1="738.88" y1="808.718" x2="738.88" y2="528.133" gradientUnits="userSpaceOnUse">
<stop stop-color="white"/>
<stop offset="1" stop-color="#666E83"/>
</linearGradient>
<linearGradient id="paint34_linear_0_1" x1="1304.55" y1="680.671" x2="1304.55" y2="483.814" gradientUnits="userSpaceOnUse">
<stop stop-color="white"/>
<stop offset="1" stop-color="#666E83"/>
</linearGradient>
<linearGradient id="paint35_linear_0_1" x1="917.086" y1="670.613" x2="917.086" y2="558.847" gradientUnits="userSpaceOnUse">
<stop stop-color="white"/>
<stop offset="1" stop-color="#666E83"/>
</linearGradient>
<linearGradient id="paint36_linear_0_1" x1="339.614" y1="719.019" x2="339.614" y2="640.451" gradientUnits="userSpaceOnUse">
<stop stop-color="white"/>
<stop offset="1" stop-color="#666E83"/>
</linearGradient>
<linearGradient id="paint37_linear_0_1" x1="391.477" y1="687.449" x2="391.477" y2="515.358" gradientUnits="userSpaceOnUse">
<stop stop-color="white"/>
<stop offset="1" stop-color="#666E83"/>
</linearGradient>
<linearGradient id="paint38_linear_0_1" x1="854.279" y1="613.938" x2="854.279" y2="520.314" gradientUnits="userSpaceOnUse">
<stop stop-color="white"/>
<stop offset="1" stop-color="#666E83"/>
</linearGradient>
<linearGradient id="paint39_linear_0_1" x1="317.213" y1="310.698" x2="317.213" y2="542.763" gradientUnits="userSpaceOnUse">
<stop stop-color="white"/>
<stop offset="1" stop-color="#666E83"/>
</linearGradient>
<linearGradient id="paint40_linear_0_1" x1="1064.56" y1="321.577" x2="1064.56" y2="486.966" gradientUnits="userSpaceOnUse">
<stop stop-color="white"/>
<stop offset="1" stop-color="#666E83"/>
</linearGradient>
<linearGradient id="paint41_linear_0_1" x1="1017.62" y1="683.891" x2="1017.62" y2="588.639" gradientUnits="userSpaceOnUse">
<stop stop-color="white"/>
<stop offset="1" stop-color="#666E83"/>
</linearGradient>
<linearGradient id="paint42_linear_0_1" x1="185.794" y1="647.207" x2="185.794" y2="514.946" gradientUnits="userSpaceOnUse">
<stop stop-color="white"/>
<stop offset="1" stop-color="#666E83"/>
</linearGradient>
<linearGradient id="paint43_linear_0_1" x1="725.788" y1="346.636" x2="725.788" y2="624.318" gradientUnits="userSpaceOnUse">
<stop stop-color="white"/>
<stop offset="1" stop-color="#666E83"/>
</linearGradient>
<linearGradient id="paint44_linear_0_1" x1="1065.42" y1="530.522" x2="1065.42" y2="598.939" gradientUnits="userSpaceOnUse">
<stop stop-color="white"/>
<stop offset="1" stop-color="#666E83"/>
</linearGradient>
<linearGradient id="paint45_linear_0_1" x1="708.548" y1="672.596" x2="708.548" y2="567.606" gradientUnits="userSpaceOnUse">
<stop stop-color="white"/>
<stop offset="1" stop-color="#666E83"/>
</linearGradient>
<linearGradient id="paint46_linear_0_1" x1="287.849" y1="765.774" x2="287.849" y2="527.172" gradientUnits="userSpaceOnUse">
<stop stop-color="white"/>
<stop offset="1" stop-color="#666E83"/>
</linearGradient>
<linearGradient id="paint47_linear_0_1" x1="1246.34" y1="546.973" x2="1246.34" y2="608.755" gradientUnits="userSpaceOnUse">
<stop stop-color="white"/>
<stop offset="1" stop-color="#666E83"/>
</linearGradient>
<linearGradient id="paint48_linear_0_1" x1="1247.22" y1="670.857" x2="1247.22" y2="587.391" gradientUnits="userSpaceOnUse">
<stop stop-color="white"/>
<stop offset="1" stop-color="#666E83"/>
</linearGradient>
<linearGradient id="paint49_linear_0_1" x1="1070.86" y1="577.344" x2="1070.86" y2="520.496" gradientUnits="userSpaceOnUse">
<stop stop-color="white"/>
<stop offset="1" stop-color="#666E83"/>
</linearGradient>
<linearGradient id="paint50_linear_0_1" x1="927.464" y1="522.231" x2="927.464" y2="463.711" gradientUnits="userSpaceOnUse">
<stop stop-color="white"/>
<stop offset="1" stop-color="#666E83"/>
</linearGradient>
<linearGradient id="paint51_linear_0_1" x1="570.902" y1="567.459" x2="570.902" y2="508.94" gradientUnits="userSpaceOnUse">
<stop stop-color="white"/>
<stop offset="1" stop-color="#666E83"/>
</linearGradient>
<linearGradient id="paint52_linear_0_1" x1="749.026" y1="538.503" x2="749.028" y2="503.204" gradientUnits="userSpaceOnUse">
<stop stop-color="white"/>
<stop offset="1" stop-color="#666E83"/>
</linearGradient>
<linearGradient id="paint53_linear_0_1" x1="559.748" y1="710.724" x2="559.748" y2="679.021" gradientUnits="userSpaceOnUse">
<stop stop-color="white"/>
<stop offset="1" stop-color="#666E83"/>
</linearGradient>
<linearGradient id="paint54_linear_0_1" x1="232.342" y1="670.755" x2="232.342" y2="639.052" gradientUnits="userSpaceOnUse">
<stop stop-color="white"/>
<stop offset="1" stop-color="#666E83"/>
</linearGradient>
<linearGradient id="paint55_linear_0_1" x1="280.28" y1="565.889" x2="280.279" y2="493.961" gradientUnits="userSpaceOnUse">
<stop stop-color="white"/>
<stop offset="1" stop-color="#666E83"/>
</linearGradient>
<linearGradient id="paint56_linear_0_1" x1="784.138" y1="477.234" x2="784.138" y2="405.305" gradientUnits="userSpaceOnUse">
<stop stop-color="white"/>
<stop offset="1" stop-color="#666E83"/>
</linearGradient>
<linearGradient id="paint57_linear_0_1" x1="1320.87" y1="574.205" x2="1320.87" y2="502.275" gradientUnits="userSpaceOnUse">
<stop stop-color="white"/>
<stop offset="1" stop-color="#666E83"/>
</linearGradient>
<linearGradient id="paint58_linear_0_1" x1="492.906" y1="805.147" x2="492.906" y2="934.492" gradientUnits="userSpaceOnUse">
<stop stop-color="white"/>
<stop offset="1" stop-color="#666E83"/>
</linearGradient>
<linearGradient id="paint59_linear_0_1" x1="130.346" y1="702.101" x2="130.346" y2="1206.11" gradientUnits="userSpaceOnUse">
<stop stop-color="white"/>
<stop offset="1" stop-color="#D9D9D9" stop-opacity="0"/>
</linearGradient>
<linearGradient id="paint60_linear_0_1" x1="831.17" y1="1128.07" x2="831.17" y2="1632.08" gradientUnits="userSpaceOnUse">
<stop stop-color="white"/>
<stop offset="1" stop-color="#D9D9D9" stop-opacity="0"/>
</linearGradient>
<linearGradient id="paint61_linear_0_1" x1="377.016" y1="436.33" x2="377.016" y2="940.342" gradientUnits="userSpaceOnUse">
<stop stop-color="white"/>
<stop offset="1" stop-color="#D9D9D9" stop-opacity="0"/>
</linearGradient>
<linearGradient id="paint62_linear_0_1" x1="505.312" y1="979.033" x2="505.312" y2="1483.05" gradientUnits="userSpaceOnUse">
<stop stop-color="white"/>
<stop offset="1" stop-color="#D9D9D9" stop-opacity="0"/>
</linearGradient>
<linearGradient id="paint63_linear_0_1" x1="608.009" y1="83.1411" x2="608.009" y2="587.153" gradientUnits="userSpaceOnUse">
<stop stop-color="white"/>
<stop offset="1" stop-color="#D9D9D9" stop-opacity="0"/>
</linearGradient>
<linearGradient id="paint64_linear_0_1" x1="767.208" y1="280.644" x2="767.208" y2="967.823" gradientUnits="userSpaceOnUse">
<stop stop-color="white"/>
<stop offset="1" stop-color="#D9D9D9" stop-opacity="0"/>
</linearGradient>
<linearGradient id="paint65_linear_0_1" x1="36.9364" y1="563.057" x2="36.9364" y2="1243.31" gradientUnits="userSpaceOnUse">
<stop stop-color="white"/>
<stop offset="1" stop-color="#D9D9D9" stop-opacity="0"/>
</linearGradient>
<linearGradient id="paint66_linear_0_1" x1="506.342" y1="815.458" x2="506.342" y2="1681.93" gradientUnits="userSpaceOnUse">
<stop stop-color="white"/>
<stop offset="1" stop-color="#D9D9D9" stop-opacity="0"/>
</linearGradient>
<linearGradient id="paint67_linear_0_1" x1="786.446" y1="582.295" x2="786.446" y2="1233.31" gradientUnits="userSpaceOnUse">
<stop stop-color="white"/>
<stop offset="1" stop-color="#D9D9D9" stop-opacity="0"/>
</linearGradient>
<linearGradient id="paint68_linear_0_1" x1="1134.33" y1="1017.56" x2="1134.33" y2="1280.13" gradientUnits="userSpaceOnUse">
<stop stop-color="white"/>
<stop offset="1" stop-color="#D9D9D9" stop-opacity="0"/>
</linearGradient>
<linearGradient id="paint69_linear_0_1" x1="311.199" y1="10.9568" x2="311.199" y2="273.519" gradientUnits="userSpaceOnUse">
<stop stop-color="white"/>
<stop offset="1" stop-color="#D9D9D9" stop-opacity="0"/>
</linearGradient>
<linearGradient id="paint70_linear_0_1" x1="211.617" y1="925.499" x2="211.617" y2="1696.55" gradientUnits="userSpaceOnUse">
<stop stop-color="white"/>
<stop offset="1" stop-color="#D9D9D9" stop-opacity="0"/>
</linearGradient>
<linearGradient id="paint71_linear_0_1" x1="87.3397" y1="371.447" x2="87.3397" y2="1051.7" gradientUnits="userSpaceOnUse">
<stop stop-color="white"/>
<stop offset="1" stop-color="#D9D9D9" stop-opacity="0"/>
</linearGradient>
<linearGradient id="paint72_linear_0_1" x1="868.784" y1="732.35" x2="868.784" y2="1236.38" gradientUnits="userSpaceOnUse">
<stop stop-color="white"/>
<stop offset="1" stop-color="#D9D9D9" stop-opacity="0"/>
</linearGradient>
<linearGradient id="paint73_linear_0_1" x1="252.401" y1="1111.72" x2="252.401" y2="1576.51" gradientUnits="userSpaceOnUse">
<stop stop-color="white"/>
<stop offset="1" stop-color="#D9D9D9" stop-opacity="0"/>
</linearGradient>
<linearGradient id="paint74_linear_0_1" x1="252.401" y1="269.871" x2="252.401" y2="673.867" gradientUnits="userSpaceOnUse">
<stop stop-color="white"/>
<stop offset="1" stop-color="#D9D9D9" stop-opacity="0"/>
</linearGradient>
<linearGradient id="paint75_linear_0_1" x1="982.567" y1="431.477" x2="982.567" y2="694.039" gradientUnits="userSpaceOnUse">
<stop stop-color="white"/>
<stop offset="1" stop-color="#D9D9D9" stop-opacity="0"/>
</linearGradient>
<linearGradient id="paint76_linear_0_1" x1="5.38663" y1="166.756" x2="5.38663" y2="1142.5" gradientUnits="userSpaceOnUse">
<stop stop-color="white"/>
<stop offset="1" stop-color="#D9D9D9" stop-opacity="0"/>
</linearGradient>
</defs>
</svg>
