<svg width="1346" height="1063" viewBox="0 0 1346 1063" fill="none" xmlns="http://www.w3.org/2000/svg">
<mask id="mask0_0_1" style="mask-type:alpha" maskUnits="userSpaceOnUse" x="144" y="0" width="1063" height="1063">
<rect x="144" width="1062.7" height="1062.7" fill="url(#paint0_linear_0_1)"/>
</mask>
<g mask="url(#mask0_0_1)">
<rect x="133.614" width="1062.7" height="1062.7" fill="url(#paint1_linear_0_1)"/>
<rect x="128.333" y="409.937" width="1121.45" height="3.91659" fill="url(#paint2_linear_0_1)"/>
<rect width="1121.45" height="5.22212" transform="matrix(-1 0 0 1 1218.45 143.608)" fill="url(#paint3_linear_0_1)"/>
<rect width="1121.45" height="3.91659" transform="matrix(-1 0 0 1 1249.78 133.164)" fill="url(#paint4_linear_0_1)"/>
<rect x="5.61377" y="744.153" width="1044.42" height="3.91659" fill="url(#paint5_linear_0_1)"/>
<rect x="1492.61" y="565.295" width="1044.42" height="3.91668" transform="rotate(180 1492.61 565.295)" fill="url(#paint6_linear_0_1)"/>
<rect x="1303.31" y="835.54" width="1174.98" height="3.9167" transform="rotate(180 1303.31 835.54)" fill="url(#paint7_linear_0_1)"/>
<rect x="1339.87" y="592.711" width="1044.42" height="3.91668" transform="rotate(180 1339.87 592.711)" fill="url(#paint8_linear_0_1)"/>
<path d="M1164.44 717.026C1161.49 708.847 1170.19 707.047 1177.24 700.013C1184.13 692.979 1189.38 691.834 1177.24 687.58C1165.1 683.327 1165.1 679.074 1169.69 675.148C1174.29 671.222 1157.55 676.62 1157.55 676.62C1157.55 676.62 1164.44 667.786 1150.01 660.588C1135.41 653.554 1119.82 644.23 1116.38 655.19C1112.93 666.15 1109.98 670.731 1104.24 667.95C1098.49 665.169 1088.49 664.024 1086.19 669.095C1083.89 674.003 1093.08 677.601 1083.24 679.728C1073.39 681.855 1072.24 675.475 1064.04 676.947C1055.84 678.419 1055.84 682.673 1053.54 684.472C1051.25 686.272 1041.4 684.472 1035 687.744C1028.61 691.016 1025.16 689.871 1022.21 685.944C1019.25 682.018 1012.36 679.892 1006.46 679.892C1000.72 679.892 993.17 673.185 990.217 671.712C987.264 670.24 976.272 667.786 973.975 674.493C971.678 681.2 964.624 685.454 961.179 683.327C957.734 681.2 943.789 678.419 936.734 672.694C929.844 666.968 918.688 674.166 914.587 669.913C910.485 665.66 897.689 658.298 890.142 657.48C882.596 656.826 862.909 660.588 861.104 669.913C859.3 679.074 867.995 688.725 851.753 687.253C835.512 685.781 779.076 688.235 774.483 696.414C769.889 704.593 779.076 719.807 789.084 723.079C797.287 725.696 814.184 725.205 814.348 732.403L1146.07 732.403C1146.23 732.403 1146.4 732.403 1146.56 732.24C1158.7 729.459 1167.4 725.205 1164.44 717.026Z" fill="url(#paint9_linear_0_1)"/>
<path d="M461.135 874.714C464.259 872.268 458.997 869.823 461.628 867.703C467.382 862.976 479.714 859.063 479.878 856.454C480.372 848.303 487.77 837.706 483.331 835.587C481.523 834.609 480.043 829.881 473.795 831.348C469.191 832.489 459.984 839.825 455.709 840.315C451.763 840.804 448.474 835.261 446.83 836.565C440.911 840.804 422.825 849.118 417.892 846.021C412.96 842.923 408.849 834.935 398.655 840.152C388.461 845.368 374.65 843.575 366.594 837.543C361.497 833.793 361.168 835.75 351.632 842.434C350.152 843.575 346.863 838.521 343.575 839.825C340.615 840.967 337.82 848.466 336.176 849.77C333.052 852.379 330.257 856.291 326.147 854.498C326.147 854.498 324.996 850.096 327.297 840.967C329.599 832 335.19 822.381 332.723 819.284C330.421 816.349 326.969 823.197 319.57 826.131C316.117 827.435 308.554 823.034 305.759 825.153C301.484 828.413 298.524 837.054 298.524 837.054C298.524 837.054 294.578 829.392 286.85 829.718C280.767 829.881 271.888 837.217 264.983 839.662C255.775 842.923 245.581 855.639 244.266 856.291C242.786 857.107 245.746 864.117 239.827 874.877C238.511 877.322 236.867 879.931 235.387 882.539L447.817 882.539C448.146 881.724 448.639 880.909 449.296 880.257C450.776 878.137 458.997 876.344 461.135 874.714Z" fill="url(#paint10_linear_0_1)"/>
<path d="M865.479 811.378C859.966 813.857 856.958 814.518 856.123 811.378C855.288 808.237 852.949 805.428 850.61 805.428C848.271 805.428 848.271 802.287 847.602 800.469C846.934 798.651 842.924 798.321 841.421 798.651C839.917 798.982 835.239 794.519 834.738 793.032C834.07 791.709 836.576 789.561 837.411 787.082C838.246 784.602 844.094 777.661 848.605 779.809C852.949 781.958 855.622 793.362 858.796 790.222C861.971 787.082 860.801 782.123 861.971 782.619C863.14 782.95 866.983 785.429 867.317 786.42C867.651 787.412 873.498 788.9 874.334 786.09C875.169 783.28 879.847 783.611 882.019 787.082C884.024 790.552 879.346 799.973 882.019 800.634C884.692 801.296 887.7 805.593 890.039 809.725C892.378 813.857 889.036 825.096 880.348 825.096C879.513 825.096 873.833 818.485 868.988 818.485C864.142 818.485 860.968 825.096 860.801 822.286C860.133 819.642 865.479 811.378 865.479 811.378Z" fill="url(#paint11_linear_0_1)"/>
<path d="M738.257 859.511C733.361 865.753 730.423 868.381 727.485 865.261C724.547 862.14 720.14 860.333 717.366 861.647C714.591 863.125 712.796 859.347 711 857.704C709.205 856.062 704.309 858.033 702.84 859.347C701.371 860.661 693.21 858.197 691.741 856.883C690.272 855.569 691.578 851.791 691.088 848.341C690.762 846.37 696.801 844.399 698.596 840.785C699.902 837.993 696.638 833.065 699.412 832.901C705.778 832.737 715.897 844.563 717.692 838.979C719.487 833.394 715.244 828.302 716.713 827.973C718.345 827.644 724.221 828.137 725.2 829.287C726.179 830.273 733.85 828.466 733.034 824.523C732.381 820.745 737.931 818.282 742.501 821.074C747.07 823.866 747.397 837.829 750.824 837.007C754.252 836.186 760.291 839.307 765.514 842.757C768.615 844.892 765.024 852.941 763.555 859.183C762.576 863.289 764.045 866.41 763.718 866.739C763.392 866.903 761.27 871.502 758.659 872.16C756.7 872.652 754.578 875.116 752.783 874.623C750.335 874.131 748.539 870.517 748.539 870.517C748.539 870.517 741.521 878.401 739.399 875.281C737.278 872.488 738.257 859.511 738.257 859.511Z" fill="url(#paint12_linear_0_1)"/>
<path d="M1296.3 1.76501L1322.93 14.1216C1326.43 15.7465 1328.67 19.2558 1328.67 23.116C1328.67 28.5922 1324.23 33.0316 1318.75 33.0316H992.336C986.678 33.0316 982.091 28.4449 982.091 22.787C982.091 19.0809 984.093 15.6637 987.326 13.8512L1009.83 1.23074C1012.22 -0.109478 1014.92 -0.813316 1017.66 -0.813316H1040.69C1045.03 -0.813316 1049.19 0.949135 1052.2 4.06996L1059.77 11.9028C1062.78 15.0236 1066.94 16.786 1071.28 16.786H1096.66C1098.73 16.786 1100.78 16.3838 1102.7 15.6016L1142.96 -0.813316L1175.96 -12.9339C1180.7 -14.6775 1185.99 -14.0743 1190.23 -11.307L1226.93 12.6865C1230.9 15.2842 1235.82 15.9834 1240.36 14.595L1284.89 0.978165C1288.66 -0.175334 1292.72 0.104877 1296.3 1.76501Z" fill="url(#paint13_linear_0_1)"/>
<path d="M775.194 -36.2834C795.721 -20.6688 827.113 3.22577 840.53 13.4849C844.434 16.4703 846.684 21.0826 846.684 25.9973V33.8375C846.684 42.674 839.52 49.8375 830.684 49.8375H242.066C233.229 49.8375 226.066 42.674 226.066 33.8375V25.7182C226.066 20.9628 228.168 16.4531 231.857 13.4518C250.18 -1.45678 279.57 -24.0257 285.235 -23.0384C293.124 -21.6634 348.349 18.2121 357.553 18.2121C366.757 18.2121 465.372 -1.03811 481.15 -10.6632C496.929 -20.2883 573.191 -40.9136 581.08 -40.9136C588.97 -40.9136 640.249 -6.53818 652.083 -10.6632C660.923 -13.7447 724.717 -29.8543 761.676 -39.0649C766.38 -40.237 771.336 -39.2179 775.194 -36.2834Z" fill="url(#paint14_linear_0_1)"/>
<path d="M1409.6 -98.0532C1414.66 -96.1528 1419.32 -94.2523 1423.78 -92.3518V81.0126C1421.55 81.2238 1420.94 83.3354 1420.13 88.8256C1418.92 96.4275 1409.8 107.83 1397.25 108.464C1384.69 109.097 1376.79 117.544 1364.44 125.568C1351.88 133.592 1357.75 143.517 1327.78 151.541C1297.81 159.565 1309.55 146.051 1296.59 133.592C1283.63 120.922 1290.31 130.847 1287.88 134.648C1285.45 138.449 1277.55 135.493 1276.74 133.803C1275.93 132.114 1270.67 124.512 1263.17 132.325C1255.68 139.927 1255.68 136.548 1255.28 135.07C1254.87 133.592 1242.31 130.213 1236.64 137.182C1230.77 144.15 1225.91 138.66 1204.24 132.325C1182.57 125.99 1186.82 122.612 1186.82 130.847C1186.82 139.293 1178.92 137.182 1167.38 138.871C1155.84 140.56 1145.3 127.046 1144.09 134.014C1142.87 140.983 1125.46 134.014 1126.67 135.704C1127.89 137.393 1126.27 140.772 1121.2 145.628C1116.14 150.485 1114.12 148.373 1111.69 146.684C1109.26 144.995 1110.47 143.094 1102.17 138.238C1093.86 133.381 1087.18 136.548 1087.18 138.871C1087.18 141.405 1078.07 154.286 1070.17 157.031C1062.27 159.776 1061.46 169.701 1054.78 170.334C1048.09 170.968 1047.69 159.776 1045.26 156.609C1042.83 153.441 1038.98 154.92 1037.76 161.254C1036.55 167.589 1026.62 167.589 1019.54 167.589C1012.45 167.589 1009.21 171.813 1001.71 179.414C994.221 187.016 986.727 184.693 969.31 179.414C951.893 174.135 946.02 174.135 932.248 174.769C918.476 175.402 919.286 172.657 913.211 170.968C906.932 169.279 907.742 172.024 900.249 170.968C892.755 169.912 898.629 156.609 894.781 159.776C891.135 162.944 878.579 165.478 869.87 165.689C861.161 166.111 851.238 162.521 841.111 161.466C831.188 160.41 828.555 157.876 821.669 151.963C814.581 146.051 812.15 139.082 805.062 132.747C797.973 126.413 782.176 116.91 780.556 120.078C778.936 123.245 771.443 124.723 766.379 122.823C761.316 121.134 752.203 121.767 744.709 122.823C737.216 123.879 734.785 122.189 731.748 119.655C728.912 117.121 728.507 117.121 722.634 116.066C716.761 115.01 712.305 116.066 712.71 111.209C713.115 106.352 712.71 102.551 704.812 104.452C696.913 106.563 697.318 106.986 694.483 99.8061C691.647 92.8377 688.61 96.6387 679.496 97.061C670.382 97.4833 669.977 97.6945 669.977 92.4154C669.977 87.1363 664.104 89.248 652.965 89.248C641.826 89.248 640.003 87.5587 639.193 84.3912C638.383 81.2238 620.156 84.8135 619.143 82.2796C618.333 79.7456 610.435 80.5903 602.536 81.6461C594.638 82.7019 602.131 85.4471 602.536 90.0926C602.941 94.7382 601.321 100.228 596.663 97.061C592.005 93.8935 593.828 89.248 585.929 90.3038C578.031 91.3596 569.727 91.7819 568.107 95.3717C566.487 98.9615 557.778 101.073 551.095 102.762C544.411 104.452 549.069 117.755 544.006 125.146C538.943 132.536 529.424 138.871 521.121 137.393C512.817 135.915 514.437 131.48 512.412 133.17C510.387 134.859 507.349 136.337 500.868 133.17C494.185 130.002 490.134 130.002 488.312 131.058C486.691 132.114 479.603 130.636 475.755 126.835C472.11 123.034 466.236 123.034 460.768 121.556C455.3 120.078 442.541 117.755 437.478 126.835C432.415 135.915 429.984 135.281 427.554 135.493C425.124 135.915 418.035 131.269 417.63 136.971C417.225 142.672 406.896 145.628 404.264 140.56C401.833 135.281 388.467 138.449 384.214 142.039C379.96 145.628 362.543 157.031 356.062 151.541C349.379 145.84 348.974 143.517 348.974 143.517C323.658 133.381 343.506 124.934 333.177 117.966C322.848 110.998 317.38 83.7578 314.14 81.6461C310.899 79.5345 306.241 81.6461 303.811 79.5345C301.38 77.4229 296.722 75.7336 297.127 71.5103C297.533 67.2871 288.824 65.1754 286.394 65.5978C283.963 66.0201 273.837 66.0201 272.217 61.7968C270.597 57.7847 263.508 61.3745 261.483 61.5857C259.458 62.008 252.369 61.5857 249.331 59.0517C246.496 56.5178 245.078 52.7169 242.243 52.0834C239.408 51.4499 237.585 50.3941 239.003 47.6489C240.218 45.115 237.787 45.115 235.762 41.1029C233.737 37.302 230.294 37.9355 221.585 37.9355C212.877 37.9355 213.687 45.115 201.535 41.7364C199.308 41.1029 194.447 37.0908 192.827 36.2462C191.207 35.4015 187.358 34.768 186.548 35.8238C185.738 36.8796 180.27 35.8238 180.27 35.8238C180.27 35.8238 177.84 34.1346 177.03 31.3894C176.22 28.6443 172.372 29.7001 172.372 29.7001C172.372 29.7001 168.726 29.7001 166.903 31.1783C165.283 32.6564 163.663 29.7001 161.435 27.1662C159.41 24.6322 152.322 23.7876 148.068 26.5327C128.018 40.0471 119.31 31.6006 111.614 28.0108V-98.0532H1409.6Z" fill="url(#paint15_linear_0_1)"/>
<path d="M298.398 -17.3287C296.989 -5.43546 300.411 8.15687 296.385 12.8292C292.36 17.5016 277.265 57.8537 273.44 53.3937C269.616 48.9337 254.119 11.3425 249.489 17.2892C244.86 23.4482 236.608 36.191 229.564 31.5186C222.721 26.6339 211.248 33.6424 203.399 44.8985C195.549 56.1546 195.147 75.0564 182.668 53.3937C182.668 53.3937 177.435 71.446 172.001 82.4897C166.566 93.5334 148.653 66.3489 148.653 66.3489C148.653 66.3489 122.689 82.9145 116.45 56.5794V-38.779C127.117 -47.4866 137.986 -53.4332 144.628 -51.5218C153.484 -48.9733 155.295 -98.033 166.969 -108.44C178.844 -118.846 193.134 -110.776 191.121 -97.1834C189.109 -83.8035 208.632 -77.6445 211.248 -81.255C213.865 -85.0778 229.161 -87.414 233.187 -86.5645C237.212 -85.7149 225.74 -67.6627 229.966 -47.9114C234.193 -28.1601 260.962 -70.8484 277.466 -70.636C294.171 -70.4236 299.807 -29.222 298.398 -17.3287Z" fill="url(#paint16_linear_0_1)"/>
<path d="M572.986 41.4712C582.481 53.8777 588.34 59.1347 593.997 52.8263C599.653 46.5179 608.138 42.9431 613.391 45.6768C618.644 48.6207 622.28 41.2609 625.715 37.6861C629.149 34.3216 638.645 38.5273 641.473 41.0506C644.301 43.574 660.059 38.7375 663.09 36.2142C666.12 33.6908 663.292 25.9104 664.1 19.1814C664.706 15.3964 652.988 11.401 649.554 4.04123C646.928 -1.63634 653.19 -11.3092 647.938 -11.5195C635.614 -11.9401 616.219 11.8216 612.785 0.466467C609.351 -10.8887 617.634 -20.7719 614.603 -21.4027C611.573 -22.0336 600.259 -20.9821 598.239 -18.8793C596.421 -16.7765 581.673 -20.5616 582.885 -28.342C584.299 -35.9121 573.39 -40.7485 564.703 -35.0709C556.015 -29.3934 555.409 -1.63633 548.742 -3.1083C542.075 -4.58026 530.358 1.51788 520.257 8.45713C514.196 12.6627 521.065 28.8543 524.095 41.2609C525.913 49.2515 523.085 55.7702 523.893 56.1908C524.701 56.6114 528.742 65.6534 533.792 66.9151C537.631 67.9665 541.671 72.803 545.308 71.9619C549.955 70.9104 553.389 63.9712 553.389 63.9712C553.389 63.9712 567.127 79.7422 570.965 73.6441C575.006 67.546 572.986 41.4712 572.986 41.4712Z" fill="url(#paint17_linear_0_1)"/>
<path d="M1170.35 111.795C1173.18 107.858 1179.86 112.417 1183.91 108.065C1187.96 103.713 1194.03 101.019 1197.87 103.092C1201.51 105.164 1204.35 99.9834 1206.57 97.4967C1209 95.2173 1215.88 98.1184 1217.91 99.9834C1219.93 101.848 1231.26 98.3256 1233.29 96.4606C1235.31 94.5957 1249.07 84.442 1249.68 79.6759C1250.08 76.9821 1226.2 79.0543 1223.57 73.8738C1221.75 69.9366 1226.2 63.0984 1222.36 62.8912C1213.66 62.6839 1199.69 79.2615 1197.26 71.3872C1194.84 63.5128 1200.71 56.4674 1198.68 56.0529C1196.46 55.6385 1188.36 56.4674 1186.94 57.9179C1185.53 59.3684 1175 56.6746 1176.02 51.2869C1177.03 45.8992 1169.14 42.5837 1163.07 46.5209C1156.79 50.458 1156.39 70.1438 1151.53 68.9005C1146.67 67.8644 1138.38 72.216 1131.29 76.9821C1126.84 79.8831 1073.62 81.3337 1075.64 90.0369C1076.05 92.1091 1081.71 105.371 1089.61 108.272C1094.87 110.344 1101.34 97.704 1107.62 97.4967C1117.74 97.4967 1127.85 109.101 1133.72 110.344C1134.33 110.552 1137.16 116.975 1140.81 118.011C1143.44 118.633 1146.47 122.156 1149.1 121.534C1152.34 120.705 1154.97 115.939 1154.97 115.939C1154.97 115.939 1164.68 127.129 1167.52 122.777C1170.55 118.426 1170.35 111.795 1170.35 111.795Z" fill="url(#paint18_linear_0_1)"/>
<path d="M1315.85 20.2427C1315.85 20.2427 1325.38 30.3443 1310.37 41.919C1295.36 53.4937 1279.34 68.0147 1273.46 54.5459C1267.58 41.0772 1263.32 35.8159 1257.44 40.4458C1251.35 45.0757 1240.6 48.2325 1236.95 42.1294C1233.51 36.2369 1243.24 30.1338 1231.68 29.0815C1220.12 28.0293 1220.12 36.4473 1210.59 36.0264C1201.26 35.6055 1200.45 30.1338 1197.41 28.4502C1194.57 26.5562 1183.61 30.5547 1175.91 27.6084C1168.2 24.6621 1164.35 26.5562 1161.91 32.0279C1159.28 37.4995 1151.98 41.4981 1145.28 42.3399C1138.79 43.3921 1131.49 53.2833 1128.45 55.5982C1125.41 57.9131 1113.44 62.9639 1109.59 54.7564C1105.74 46.5489 1097.22 42.3399 1093.57 45.7071C1090.12 49.0743 1074.91 54.9669 1068.01 63.5953C1061.12 72.0133 1047.53 64.858 1043.68 70.961C1039.82 77.0641 1026.84 88.8492 1018.53 90.9537C1010.21 93.2687 987.294 91.5851 983.644 80.2208C979.993 68.8565 988.105 55.1773 970.055 59.8072C952.005 64.4371 888.323 71.1715 881.427 61.4908C874.734 52.0206 882.441 30.9756 892.987 25.083C903.533 19.4009 928.479 17.2964 916.513 2.56492C904.345 -12.1666 897.246 -25.4249 900.897 -36.5787C904.547 -47.7325 913.065 -54.046 938.011 -56.9923C962.957 -59.9386 1008.18 -52.152 1027.45 -47.7325C1046.72 -43.3131 1047.53 -56.7819 1050.37 -64.1476C1053.41 -71.5133 1085.25 -76.985 1113.44 -80.7731C1141.63 -84.7717 1154.21 -62.2536 1174.49 -59.7282C1194.77 -57.4132 1249.33 -78.2477 1254.8 -76.7746C1260.28 -75.3014 1272.45 -65.1998 1272.45 -56.9923C1272.24 -48.5743 1278.73 -50.0475 1292.93 -48.5743C1307.13 -47.1012 1317.67 -43.1026 1316.05 -32.3697C1314.22 -21.4263 1324.37 -20.795 1333.49 -13.0084C1342.62 -5.22174 1348.7 -4.80084 1335.72 2.77535C1322.74 10.3515 1323.55 15.8232 1329.44 19.8218C1335.93 24.0308 1315.85 20.2427 1315.85 20.2427Z" fill="url(#paint19_linear_0_1)"/>
<path d="M603.611 6.46939C603.611 6.46939 598.974 12.9483 612.077 8.55937C625.18 4.17041 617.52 8.97737 623.568 11.2764C629.414 13.5753 639.896 10.2314 641.509 6.46939C643.121 2.70742 649.975 4.37942 655.216 9.81337C660.458 15.2473 663.683 4.37941 673.359 0.826438C683.035 -2.72653 688.679 -10.4595 702.79 -8.7875C716.901 -7.11551 722.949 -5.65251 728.19 -11.0865C733.431 -16.5204 725.973 -26.5524 739.479 -29.2693C752.985 -31.7773 756.21 -31.9863 758.226 -40.5552C760.242 -49.3332 785.44 -50.7962 752.38 -61.2461C719.32 -71.696 726.174 -80.8919 701.178 -73.577C676.181 -66.2621 672.553 -67.934 658.845 -71.278C645.137 -74.622 637.074 -78.175 633.647 -70.651C630.422 -63.1271 613.488 -62.9181 600.385 -66.053C587.484 -69.188 580.025 -72.532 576.195 -66.053C572.365 -59.5741 571.962 -40.3462 556.843 -33.2403C541.523 -26.1344 533.661 -12.1315 538.701 -5.8615C543.74 0.408447 559.262 17.5463 563.496 12.5303C567.729 7.72336 575.792 -2.93553 578.211 11.9034C580.63 26.7422 600.587 9.81336 603.611 6.46939Z" fill="url(#paint20_linear_0_1)"/>
<path d="M617.228 -6.88563C615.609 4.77966 620.466 17.9031 615.407 22.2776C610.348 26.6521 583.03 34.9844 578.174 30.61C573.317 26.2355 556.724 19.153 551.058 24.7773C545.19 30.61 538.917 43.1085 529.811 38.3174C520.705 33.5263 506.136 39.7756 496.423 50.3993C486.71 61.0231 476.795 52.2741 460.404 31.0266C460.404 31.0266 463.642 75.3964 456.964 86.0201C450.084 96.6439 426.611 69.5637 426.611 69.5637C426.611 69.5637 420.54 81.4373 412.648 83.3121C406.578 84.7703 399.293 76.4379 392.818 74.7714C384.319 72.48 377.236 57.0652 375.82 56.4402C374.404 55.8153 379.26 44.775 376.225 31.0266C373.392 18.7363 367.928 3.94643 366.309 -7.30225H617.228C617.228 -7.30225 617.228 -7.09394 617.228 -6.88563Z" fill="url(#paint21_linear_0_1)"/>
<path d="M1422.17 32.9584C1419.33 35.5028 1415.89 37.6232 1411.84 38.2593C1407.99 38.8954 1403.54 33.5945 1398.88 32.9584C1393.82 32.3223 1386.73 41.2277 1380.66 43.136C1376.61 44.4083 1372.96 37.8352 1370.74 39.5315C1365.27 43.7722 1368.71 48.6489 1365.47 50.5573C1358.79 54.1618 1354.34 47.1647 1344.82 37.1991C1340.57 32.7464 1335.3 41.8638 1330.24 38.8954C1329.03 38.2592 1326.8 29.1418 1324.57 27.8696C1321.94 26.3853 1319.11 32.7464 1317.89 31.0501C1314.45 26.1733 1316.47 21.2965 1314.25 22.7807C1309.79 25.7492 1311.41 18.328 1306.55 13.4512C1303.92 10.9068 1296.02 13.0271 1292.58 9.42256C1286.31 2.84949 1283.07 -6.26799 1275.37 -10.0846C1270.72 -12.417 1264.64 -9.23648 1255.13 -12.205C1230.02 -19.8382 1240.55 -23.8669 1217.87 -51.2193C1194.99 -78.5718 1217.26 -65.8497 1223.54 -72.2108C1229.61 -78.5718 1232.45 -76.8755 1245.2 -71.5746C1257.96 -66.2738 1256.95 -79.2079 1264.24 -80.9042C1271.53 -82.6004 1275.98 -77.9357 1287.12 -68.6062C1298.25 -59.2767 1307.16 -62.6692 1317.28 -60.3368C1327.41 -58.0044 1335.71 -65.6377 1337.33 -58.0044C1338.95 -50.3712 1344.01 -45.0703 1347.45 -47.4027C1350.9 -49.7351 1361.42 -46.7666 1365.27 -41.4657C1369.12 -36.1649 1360.21 -36.1649 1373.57 -32.7723C1386.94 -29.1677 1379.65 -26.4113 1379.65 -26.4113C1384.1 -27.6835 1409.82 -31.076 1404.15 -17.0818C1398.48 -3.08748 1410.83 -7.75223 1416.9 -9.44851C1418.93 -10.0846 1420.55 -7.96427 1422.17 -4.78375V32.9584V32.9584Z" fill="url(#paint22_linear_0_1)"/>
<path d="M497.8 -33.7827C501.24 -37.6036 495.169 -87.7009 490.11 -91.5219C463.397 -113.174 493.348 -127.397 497.8 -135.888C502.05 -144.379 500.836 -137.374 501.645 -131.43C502.455 -125.486 503.871 -123.788 505.085 -133.34C506.3 -142.893 506.907 -145.44 509.133 -143.53C511.359 -141.619 511.561 -142.893 511.966 -150.959C512.371 -159.026 516.013 -170.701 520.87 -171.55C525.727 -172.187 528.763 -181.103 533.619 -189.594C538.476 -198.085 538.274 -210.184 549.809 -218.463C561.344 -226.954 554.868 -211.034 559.725 -197.872C564.784 -184.711 565.998 -195.325 567.01 -199.358C568.022 -203.392 575.307 -200.632 575.914 -199.358C577.736 -195.75 580.974 -194.264 583.2 -201.481C585.426 -208.911 587.449 -202.967 595.747 -196.387C604.044 -189.806 602.425 -186.197 602.425 -194.901C602.425 -203.604 626.304 -198.297 625.697 -199.995C625.292 -201.906 623.471 -203.392 625.495 -208.699C627.518 -213.793 630.352 -210.184 631.363 -208.274C632.375 -206.364 631.971 -207.637 635.208 -202.543C638.446 -197.448 641.077 -200.632 641.077 -203.179C641.077 -205.727 638.244 -220.161 641.28 -222.921C644.315 -225.893 648.565 -228.228 651.196 -229.077C653.826 -229.714 659.898 -219.949 660.302 -226.742C660.707 -233.323 664.552 -233.323 667.385 -233.323C670.218 -233.323 671.433 -237.78 674.266 -245.847C677.099 -253.913 680.134 -251.366 686.813 -245.847C693.491 -240.328 695.919 -240.328 701.181 -241.177C706.442 -241.814 706.24 -239.054 708.668 -237.144C711.097 -235.233 710.692 -238.205 713.728 -237.144C716.561 -236.082 714.335 -222.072 715.751 -225.468C717.168 -228.865 722.025 -231.412 725.465 -231.624C728.905 -232.049 732.75 -228.228 736.595 -227.167C740.44 -226.105 741.452 -223.558 744.083 -217.19C746.916 -211.034 750.356 -204.665 753.19 -198.085C756.023 -191.504 762.094 -188.957 762.701 -192.353C763.308 -195.75 770.998 -185.773 773.831 -186.834C776.664 -187.895 780.105 -180.89 782.331 -179.829C784.557 -178.768 786.378 -179.829 786.176 -174.734C785.973 -169.64 793.866 -165.819 794.473 -162.422C795.889 -155.205 793.461 -158.389 797.104 -158.814C800.746 -159.238 805.198 -152.021 809.448 -152.021C813.698 -152.021 814.507 -150.11 814.71 -146.926C815.114 -143.53 822.197 -147.351 822.4 -144.803C822.804 -142.256 825.84 -142.893 828.876 -144.166C831.911 -145.228 831.709 -143.742 831.506 -148.412C831.304 -153.082 836.566 -148.837 838.184 -145.652C840.006 -142.256 836.363 -139.921 839.399 -140.982C842.434 -142.044 843.244 -140.133 844.053 -143.742C844.66 -147.351 846.077 -143.317 848.708 -145.228C851.338 -147.138 844.458 -149.261 846.279 -157.115C848.303 -164.757 851.946 -171.338 855.183 -169.852C858.421 -168.366 857.814 -163.696 858.624 -165.394C859.433 -167.305 867.326 -161.998 867.933 -163.271C868.54 -164.333 871.373 -162.847 872.79 -158.814C874.206 -154.78 881.896 -143.317 883.92 -141.831C885.944 -140.345 886.955 -142.681 888.979 -152.233C891.003 -161.785 894.241 -162.422 895.252 -162.847C896.264 -163.271 904.966 -167.092 905.978 -161.573C906.99 -156.054 912.049 -159.45 913.668 -163.059C915.287 -166.668 917.918 -164.545 920.346 -158.601C922.977 -152.658 923.179 -150.11 923.179 -150.11C933.095 -139.496 931.072 -151.808 935.119 -144.591C939.167 -137.161 947.464 -143.317 948.88 -141.195C950.094 -139.072 955.761 -139.921 956.773 -137.798C957.784 -135.675 967.903 -130.368 967.701 -125.911C967.498 -121.453 946.654 -112.537 947.666 -112.962C948.678 -113.386 952.523 -113.386 953.13 -109.141C953.737 -104.895 956.57 -108.716 957.38 -108.929C958.189 -109.353 961.022 -108.929 962.034 -106.381C963.248 -103.834 963.653 -99.8007 964.867 -98.9516C966.082 -98.3147 966.689 -97.0411 966.082 -94.2815C965.677 -91.5219 966.486 -91.5219 967.296 -87.4886C968.105 -83.4554 969.32 -84.0922 972.76 -84.0922C976.2 -84.0922 980.247 -90.0359 980.45 -88.1254C980.855 -86.215 983.283 -83.4554 983.89 -82.394C984.497 -81.3326 985.914 -80.908 986.318 -81.9694C986.723 -83.0308 989.759 -80.0589 989.961 -77.2993C990.366 -74.3275 991.782 -75.3889 991.782 -75.3889C991.782 -75.3889 995.223 -75.3889 996.032 -72.6293C996.842 -69.8697 999.27 -70.9311 1001.09 -71.9924C1003.12 -73.0538 1003.72 -72.417 1007.36 -71.9924C1011.01 -71.5679 1013.84 -66.0487 1013.84 -66.0487C1014.45 -64.9873 1015.66 -63.9259 1016.27 -71.7802C1016.47 -73.6907 1023.96 -76.4502 1029.63 -71.7802C1031.45 -70.2942 1030.84 -66.261 1031.45 -60.5295C1031.85 -56.4962 1036.1 -58.4067 1036.1 -58.4067C1040.35 -60.3172 1043.39 -60.9541 1053.5 -47.5806C1063.62 -33.9949 1066.25 -22.532 1079 -16.8005C1091.15 -11.2813 1063.22 -3.4271 1058.36 27.9898H524.31C519.656 16.7392 516.62 5.06396 504.883 -3.4271C472.504 -26.1407 494.36 -29.9617 497.8 -33.7827Z" fill="url(#paint23_linear_0_1)"/>
<path d="M371.435 5.43094C372.449 -2.00287 369.609 -10.6757 372.449 -13.3601C375.492 -16.251 391.316 -21.6199 394.156 -18.7289C396.996 -15.838 406.53 -11.2951 409.979 -15.012C413.428 -18.7289 417.079 -26.7822 422.354 -23.6848C427.628 -20.5874 436.148 -24.7173 441.829 -31.5316C447.509 -38.5524 453.189 -32.7706 462.724 -18.9354C462.724 -18.9354 460.898 -47.6382 464.752 -54.4525C468.607 -61.2668 482.401 -43.9213 482.401 -43.9213C482.401 -43.9213 485.85 -51.5616 490.516 -52.8005C494.168 -53.6265 498.225 -48.2577 502.079 -47.2252C506.948 -45.7797 511.208 -35.6615 511.817 -35.2485C512.628 -34.8355 509.788 -27.6082 511.614 -18.7289C513.845 -7.99121 518.714 5.43095 517.7 12.8648H377.724C374.072 9.76734 371.029 7.70238 371.435 5.43094Z" fill="url(#paint24_linear_0_1)"/>
<path d="M1026.63 2.40896C1022.99 12.9381 1033.72 15.2545 1042.43 24.3095C1050.94 33.3646 1057.42 34.8386 1042.43 40.3137C1027.44 45.7889 1027.44 51.264 1033.12 56.318C1038.79 61.372 1018.13 54.4227 1018.13 54.4227C1018.13 54.4227 1026.63 65.7942 1008.81 75.0598C990.779 84.1148 971.535 96.118 967.281 82.009C963.027 67.9 959.381 62.0037 952.291 65.5836C945.202 69.1635 932.845 70.6376 930.009 64.1095C927.173 57.7921 938.517 53.1593 926.363 50.4217C914.209 47.6841 912.791 55.8968 902.662 54.0016C892.534 52.1063 892.534 46.6312 889.698 44.3148C886.862 41.9984 874.708 44.3148 866.808 40.1032C858.908 35.8915 854.654 37.3656 851.008 42.4196C847.362 47.4735 838.854 50.2111 831.561 50.2111C824.471 50.2111 815.153 58.845 811.507 60.7402C807.861 62.6354 794.289 65.7942 791.453 57.1603C788.617 48.5264 779.907 43.0513 775.653 45.7889C771.399 48.5265 754.181 52.1064 745.47 59.4767C736.962 66.8471 723.188 57.5815 718.124 63.0566C713.059 68.5318 697.259 78.008 687.941 79.0609C678.623 79.9032 654.315 75.0598 652.087 63.0566C649.858 51.264 660.595 38.8397 640.54 40.7349C620.486 42.6301 550.803 39.4714 545.131 28.9423C539.459 18.4132 550.803 -1.17093 563.16 -5.38257C573.288 -8.75188 594.152 -8.12013 594.355 -17.3857H1003.95C1004.15 -17.3857 1004.35 -17.3858 1004.55 -17.1752C1019.54 -13.5953 1030.28 -8.12014 1026.63 2.40896Z" fill="url(#paint25_linear_0_1)"/>
<path d="M1411.83 144.329C1404.75 151.534 1392.81 154.076 1389.97 141.574C1387.14 129.072 1398.47 120.172 1386.53 114.874C1374.39 109.576 1372.97 125.469 1363.25 122.079C1353.33 118.476 1353.33 107.881 1350.5 103.431C1347.67 98.9811 1335.72 103.431 1327.83 95.3787C1320.13 87.3263 1315.88 90.0811 1312.24 99.8287C1308.8 109.576 1300.3 114.874 1293.21 114.874C1286.13 114.874 1277.02 131.826 1273.37 135.217C1269.73 138.819 1256.37 144.964 1253.54 128.012C1250.7 111.06 1242.2 100.464 1237.95 105.762C1233.7 111.06 1216.69 118.264 1208.19 132.462C1199.69 146.66 1186.33 128.86 1181.27 139.667C1179.25 144.117 1167.5 146.66 1163.05 152.169C1156.78 159.798 1156.78 169.757 1151.51 170.817C1147.26 171.664 1140.18 147.719 1133.29 143.481C1124.99 138.607 1117.3 152.381 1116.09 139.667C1114.06 116.569 1124.59 92.6239 1104.75 96.2263C1094.83 97.9216 1072.77 116.569 1052.32 112.967C1042.4 111.272 1043.21 101.312 1035.72 93.2596C1031.47 88.5977 1024.59 97.4977 1019.33 93.8954C1014.87 90.9287 1011.23 75.4596 1010.62 73.1287C1008.8 66.5596 1003.34 54.6929 1004.96 41.131C1005.56 35.1977 1013.86 29.0524 1013.86 22.6953C1013.86 14.8548 1020.95 7.0143 1020.54 0.0214327C1019.53 -14.6 1010.83 -26.0429 1015.28 -29.0095C1027.22 -37.0619 1046.25 -16.2952 1056.78 -29.8572C1065.89 -41.7238 1062.65 -55.7096 1057.38 -69.4834H1423.78V159.374C1420.54 144.329 1417.3 138.819 1411.83 144.329Z" fill="url(#paint26_linear_0_1)"/>
<path d="M196.128 5.92485C210.285 4.24249 214.128 -4.58995 222.824 -10.4782C231.52 -16.1562 232.329 -27.5122 238.599 -23.5166C244.868 -19.5209 251.947 -19.5209 252.756 -23.5166C253.565 -27.5122 262.868 -33.4005 269.137 -32.5593C275.407 -31.7181 269.137 -25.1989 280.868 -32.5593C292.598 -39.9196 289.564 -32.5593 289.564 -32.5593C291.991 -36.5549 307.564 -57.7948 313.024 -43.9153C318.485 -30.0357 323.945 -42.2329 327.181 -47.9109C330.215 -53.5889 349.226 -40.5505 355.495 -35.7137C361.765 -30.8769 357.113 -15.315 343.765 -4.80022C337.698 0.0365874 335.271 6.55575 334.057 12.8646H172.87C176.51 7.39693 182.982 7.39692 196.128 5.92485Z" fill="url(#paint27_linear_0_1)"/>
<path d="M388.895 1.29606C392.732 4.50824 386.269 7.72043 389.5 10.5043C396.569 16.7145 411.715 21.8541 411.917 25.2804C412.523 35.9877 421.611 49.9071 416.158 52.691C413.937 53.9759 412.119 60.1861 404.445 58.2588C398.79 56.7598 387.481 47.1232 382.23 46.4808C377.383 45.8384 373.344 53.1193 371.325 51.4062C364.054 45.8384 341.84 34.9169 335.781 38.9857C329.723 43.0545 324.674 53.5476 312.153 46.695C299.632 39.8423 282.668 42.1979 272.772 50.1213C266.511 55.0466 266.108 52.4769 254.394 43.6969C252.577 42.1979 248.538 48.8364 244.499 47.1232C240.864 45.6242 237.43 35.7735 235.411 34.0603C231.574 30.634 228.141 25.4945 223.092 27.8501C223.092 27.8501 221.678 33.6321 224.505 45.6242C227.333 57.4022 234.199 70.0368 231.17 74.1056C228.343 77.9602 224.102 68.9661 215.014 65.1115C210.773 63.3983 201.483 69.1802 198.05 66.3964C192.799 62.1134 189.164 50.7637 189.164 50.7637C189.164 50.7637 184.317 60.8286 174.825 60.4003C167.353 60.1861 156.447 50.5496 147.965 47.3374C136.656 43.0545 124.135 26.3511 122.519 25.4945C120.702 24.4238 124.337 15.2155 117.067 1.08193C115.451 -2.13026 113.432 -5.55658 111.614 -8.98291H372.536C372.94 -7.91218 373.546 -6.84147 374.354 -5.98488C376.172 -3.20099 386.269 -0.845401 388.895 1.29606Z" fill="url(#paint28_linear_0_1)"/>
<path d="M931.589 99.9817C931.589 99.9817 929.964 100.409 932.807 101.479C935.651 102.548 933.62 102.334 934.432 103.617C935.042 104.9 937.276 105.756 938.089 105.542C938.901 105.114 939.714 106.398 939.917 108.108C940.12 109.819 942.151 108.322 944.183 109.178C946.214 110.033 948.245 109.605 950.48 111.958C952.714 114.31 953.527 115.38 955.152 115.38C956.777 115.166 956.98 112.386 959.418 113.883C962.058 115.38 962.668 115.807 964.09 114.738C965.512 113.455 969.981 117.091 965.918 110.247C961.652 103.617 964.09 102.976 959.011 100.623C953.73 98.2708 953.324 97.4154 951.496 94.8491C949.667 92.2828 948.652 90.358 947.23 91.2135C945.605 92.0689 942.761 89.5026 940.933 87.1501C939.104 84.7976 938.495 83.0867 936.87 83.5145C935.245 84.1561 932.604 87.364 929.151 86.2947C925.698 85.2254 922.448 86.5085 922.448 88.2194C922.448 89.9303 922.854 95.2768 924.073 95.0629C925.495 94.8491 928.135 94.2075 926.713 97.2015C924.885 100.196 930.573 100.196 931.589 99.9817Z" fill="url(#paint29_linear_0_1)"/>
<rect x="-42.3862" y="326.289" width="1302.86" height="5.00802" fill="url(#paint30_linear_0_1)"/>
<path d="M128.88 438.734L101.787 451.094C98.2877 452.691 96.0422 456.184 96.0422 460.03C96.0422 465.455 100.44 469.852 105.864 469.852H436.04C441.643 469.852 446.185 465.31 446.185 459.707C446.185 456.011 444.175 452.607 440.938 450.823L418.08 438.222C415.715 436.918 413.057 436.234 410.356 436.234H386.83C382.538 436.234 378.426 437.958 375.418 441.02L367.646 448.929C364.638 451.991 360.526 453.715 356.234 453.715H330.357C328.317 453.715 326.296 453.325 324.402 452.566L283.666 436.234L250.142 424.127C245.455 422.434 240.247 423.022 236.055 425.716L198.697 449.73C194.762 452.259 189.918 452.94 185.438 451.593L140.128 437.968C136.41 436.85 132.412 437.122 128.88 438.734Z" fill="url(#paint31_linear_0_1)"/>
<path d="M655.33 400.911C634.616 416.403 602.847 440.178 589.244 450.405C585.279 453.386 582.985 458.037 582.985 462.998V470.546C582.985 479.382 590.149 486.546 598.985 486.546H1193.99C1202.82 486.546 1209.99 479.382 1209.99 470.546V462.719C1209.99 457.917 1207.84 453.368 1204.09 450.369C1185.58 435.56 1155.93 413.177 1150.21 414.157C1142.24 415.523 1086.44 455.132 1077.15 455.132C1067.85 455.132 968.218 436.01 952.278 426.449C936.337 416.888 859.29 396.401 851.32 396.401C843.35 396.401 791.542 430.547 779.587 426.449C770.642 423.383 705.998 407.335 668.686 398.193C664.044 397.056 659.158 398.048 655.33 400.911Z" fill="url(#paint32_linear_0_1)"/>
<path d="M14.2794 339.644C9.16416 341.531 4.45817 343.419 -0.0432129 345.307V517.512C2.20748 517.722 2.8213 519.82 3.63974 525.273C4.86739 532.824 14.0748 544.151 26.7605 544.78C39.4462 545.409 47.4259 553.799 59.907 561.77C72.5927 569.741 66.6591 579.599 96.9411 587.569C127.223 595.54 115.356 582.116 128.451 569.741C141.546 557.155 134.794 567.014 137.249 570.789C139.704 574.565 147.684 571.628 148.502 569.95C149.321 568.272 154.641 560.721 162.211 568.482C169.782 576.033 169.782 572.677 170.191 571.209C170.6 569.741 183.286 566.384 189.015 573.306C194.948 580.228 199.859 574.775 221.752 568.482C243.645 562.189 239.348 558.833 239.348 567.014C239.348 575.404 247.328 573.306 258.991 574.984C270.654 576.662 281.293 563.238 282.521 570.16C283.748 577.082 301.345 570.16 300.117 571.838C298.889 573.516 300.526 576.872 305.642 581.696C310.757 586.521 312.803 584.423 315.258 582.745C317.713 581.067 316.486 579.179 324.875 574.355C333.264 569.531 340.016 572.677 340.016 574.984C340.016 577.501 349.223 590.296 357.203 593.023C365.183 595.75 366.001 605.608 372.753 606.237C379.505 606.866 379.914 595.75 382.37 592.603C384.825 589.457 388.713 590.925 389.94 597.218C391.168 603.51 401.194 603.51 408.355 603.51C415.516 603.51 418.79 607.705 426.36 615.256C433.931 622.808 441.501 620.5 459.098 615.256C476.694 610.013 482.628 610.013 496.541 610.642C510.454 611.271 509.636 608.544 515.774 606.866C522.117 605.188 521.299 607.915 528.869 606.866C536.44 605.818 530.506 592.603 534.394 595.75C538.077 598.896 550.762 601.413 559.56 601.623C568.359 602.042 578.384 598.476 588.615 597.428C598.641 596.379 601.3 593.862 608.257 587.989C615.418 582.116 617.874 575.194 625.035 568.902C632.196 562.609 648.156 553.17 649.793 556.316C651.43 559.463 659 560.931 664.115 559.043C669.23 557.365 678.438 557.994 686.008 559.043C693.579 560.092 696.034 558.414 699.103 555.897C701.968 553.38 702.377 553.38 708.311 552.331C714.244 551.282 718.746 552.331 718.336 547.507C717.927 542.683 718.336 538.907 726.316 540.795C734.296 542.892 733.887 543.312 736.751 536.18C739.616 529.259 742.685 533.034 751.892 533.454C761.1 533.873 761.509 534.083 761.509 528.839C761.509 523.595 767.442 525.693 778.696 525.693C789.949 525.693 791.791 524.015 792.609 520.868C793.428 517.722 811.842 521.288 812.865 518.771C813.684 516.254 821.664 517.093 829.643 518.142C837.623 519.191 830.053 521.917 829.643 526.532C829.234 531.146 830.871 536.6 835.577 533.454C840.283 530.307 838.442 525.693 846.421 526.742C854.401 527.79 862.79 528.21 864.427 531.776C866.064 535.341 874.862 537.439 881.614 539.117C888.366 540.795 883.66 554.009 888.775 561.35C893.89 568.692 903.507 574.984 911.896 573.516C920.285 572.048 918.648 567.643 920.694 569.321C922.74 570.999 925.809 572.467 932.357 569.321C939.109 566.175 943.201 566.175 945.042 567.224C946.679 568.272 953.841 566.804 957.728 563.028C961.411 559.253 967.345 559.253 972.869 557.785C978.394 556.316 991.284 554.009 996.399 563.028C1001.51 572.048 1003.97 571.419 1006.42 571.628C1008.88 572.048 1016.04 567.433 1016.45 573.097C1016.86 578.76 1027.29 581.696 1029.95 576.662C1032.41 571.419 1045.91 574.565 1050.21 578.131C1054.51 581.696 1072.1 593.023 1078.65 587.569C1085.4 581.906 1085.81 579.599 1085.81 579.599C1111.39 569.531 1091.34 561.141 1101.77 554.219C1112.21 547.297 1117.73 520.239 1121.01 518.142C1124.28 516.044 1128.99 518.142 1131.44 516.044C1133.9 513.947 1138.6 512.269 1138.19 508.074C1137.78 503.879 1146.58 501.781 1149.04 502.201C1151.49 502.62 1161.72 502.62 1163.36 498.425C1165 494.44 1172.16 498.006 1174.2 498.215C1176.25 498.635 1183.41 498.215 1186.48 495.698C1189.34 493.181 1190.78 489.406 1193.64 488.777C1196.51 488.147 1198.35 487.099 1196.92 484.372C1195.69 481.855 1198.14 481.855 1200.19 477.87C1202.23 474.094 1205.71 474.723 1214.51 474.723C1223.31 474.723 1222.49 481.855 1234.77 478.499C1237.02 477.87 1241.93 473.884 1243.57 473.045C1245.2 472.206 1249.09 471.577 1249.91 472.626C1250.73 473.674 1256.25 472.626 1256.25 472.626C1256.25 472.626 1258.71 470.948 1259.53 468.221C1260.34 465.494 1264.23 466.543 1264.23 466.543C1264.23 466.543 1267.91 466.543 1269.76 468.011C1271.39 469.479 1273.03 466.543 1275.28 464.026C1277.33 461.509 1284.49 460.67 1288.78 463.397C1309.04 476.821 1317.84 468.431 1325.61 464.865V339.644H14.2794Z" fill="url(#paint33_linear_0_1)"/>
<path d="M1136.91 419.829C1138.33 431.642 1134.88 445.144 1138.94 449.785C1143.01 454.426 1158.26 494.509 1162.12 490.078C1165.99 485.648 1181.64 448.308 1186.32 454.215C1191 460.333 1199.33 472.991 1206.45 468.35C1213.36 463.497 1224.95 470.459 1232.89 481.64C1240.82 492.821 1241.22 511.596 1253.83 490.078C1253.83 490.078 1259.12 508.01 1264.61 518.98C1270.1 529.95 1288.19 502.947 1288.19 502.947C1288.19 502.947 1314.42 519.402 1320.73 493.243V398.522C1309.95 389.872 1298.97 383.966 1292.26 385.864C1283.31 388.396 1281.48 339.664 1269.69 329.327C1257.69 318.99 1243.26 327.006 1245.29 340.508C1247.32 353.798 1227.6 359.916 1224.95 356.33C1222.31 352.532 1206.86 350.212 1202.79 351.056C1198.72 351.9 1210.31 369.831 1206.04 389.45C1201.77 409.07 1174.73 366.667 1158.06 366.878C1141.18 367.089 1135.49 408.015 1136.91 419.829Z" fill="url(#paint34_linear_0_1)"/>
<path d="M859.498 478.236C849.905 490.559 843.986 495.781 838.271 489.515C832.556 483.249 823.983 479.698 818.677 482.413C813.37 485.337 809.696 478.027 806.226 474.476C802.757 471.134 793.164 475.311 790.306 477.818C787.449 480.324 771.529 475.52 768.467 473.014C765.405 470.507 768.263 462.779 767.446 456.095C766.834 452.335 778.672 448.367 782.142 441.056C784.795 435.416 778.468 425.808 783.775 425.599C796.225 425.181 815.819 448.784 819.289 437.505C822.759 426.226 814.391 416.409 817.452 415.782C820.514 415.155 831.944 416.2 833.985 418.289C835.822 420.377 850.721 416.618 849.497 408.889C848.068 401.37 859.089 396.566 867.866 402.205C876.642 407.845 877.255 435.416 883.99 433.954C890.726 432.492 902.564 438.549 912.769 445.442C918.892 449.62 911.953 465.703 908.891 478.027C907.054 485.964 909.912 492.439 909.095 492.857C908.279 493.275 904.197 502.256 899.094 503.51C895.216 504.554 891.134 509.358 887.46 508.523C882.766 507.478 879.296 500.585 879.296 500.585C879.296 500.585 865.417 516.251 861.539 510.194C857.457 504.136 859.498 478.236 859.498 478.236Z" fill="url(#paint35_linear_0_1)"/>
<path d="M255.99 548.089C253.128 544.178 246.381 548.707 242.292 544.384C238.204 540.062 232.07 537.386 228.186 539.444C224.506 541.503 221.643 536.357 219.394 533.887C216.941 531.622 209.99 534.504 207.945 536.357C205.901 538.209 194.452 534.71 192.408 532.857C190.363 531.005 176.461 520.919 175.847 516.185C175.439 513.509 199.563 515.567 202.221 510.422C204.061 506.511 199.563 499.718 203.448 499.512C212.239 499.307 226.346 515.773 228.799 507.952C231.252 500.13 225.323 493.132 227.368 492.72C229.617 492.308 237.795 493.132 239.226 494.572C240.657 496.013 251.288 493.337 250.266 487.986C249.244 482.634 257.217 479.341 263.35 483.252C269.688 487.162 270.097 506.717 275.004 505.482C279.911 504.452 288.293 508.775 295.448 513.509C299.946 516.391 353.716 517.832 351.671 526.477C351.262 528.535 345.538 541.708 337.564 544.59C332.249 546.648 325.706 534.092 319.369 533.887C309.146 533.887 298.924 545.413 292.995 546.648C292.382 546.854 289.52 553.235 285.839 554.264C283.182 554.882 280.115 558.381 277.457 557.763C274.186 556.94 271.528 552.206 271.528 552.206C271.528 552.206 261.715 563.321 258.853 558.998C255.786 554.676 255.99 548.089 255.99 548.089Z" fill="url(#paint36_linear_0_1)"/>
<path d="M108.997 457.149C108.997 457.149 99.3669 467.183 114.529 478.68C129.692 490.178 145.878 504.602 151.82 491.223C157.762 477.844 162.065 472.618 168.007 477.217C174.154 481.816 185.013 484.952 188.702 478.89C192.185 473.036 182.35 466.974 194.029 465.929C205.708 464.884 205.708 473.245 215.338 472.827C224.763 472.409 225.583 466.974 228.656 465.302C231.525 463.42 242.589 467.392 250.375 464.466C258.161 461.539 262.054 463.42 264.513 468.855C267.177 474.291 274.553 478.262 281.315 479.099C287.871 480.144 295.248 489.969 298.321 492.268C301.394 494.568 313.483 499.585 317.376 491.432C321.269 483.279 329.875 479.099 333.563 482.443C337.046 485.788 352.414 491.641 359.38 500.212C366.347 508.574 380.075 501.466 383.968 507.528C387.861 513.591 400.974 525.297 409.375 527.387C417.775 529.687 440.929 528.015 444.617 516.726C448.305 505.438 440.109 491.85 458.345 496.449C476.581 501.048 540.918 507.737 547.884 498.121C554.646 488.715 546.86 467.81 536.205 461.957C525.551 456.313 500.349 454.222 512.437 439.589C524.731 424.956 531.903 411.787 528.214 400.707C524.526 389.628 515.921 383.357 490.718 380.43C465.516 377.504 419.824 385.238 400.359 389.628C380.894 394.018 380.075 380.639 377.206 373.323C374.133 366.006 341.964 360.571 313.483 356.808C285.003 352.837 272.299 375.204 251.81 377.713C231.32 380.012 176.203 359.317 170.671 360.78C165.139 362.244 152.845 372.278 152.845 380.43C153.05 388.792 146.493 387.329 132.15 388.792C117.808 390.255 107.153 394.227 108.792 404.888C110.636 415.759 100.391 416.386 91.1711 424.12C81.9507 431.855 75.8039 432.273 88.9172 439.798C102.031 447.324 101.211 452.759 95.269 456.731C88.7123 460.912 108.997 457.149 108.997 457.149Z" fill="url(#paint37_linear_0_1)"/>
<path d="M828.558 443.468C828.558 443.468 833.242 449.903 820.004 445.544C806.767 441.184 814.506 445.959 808.396 448.242C802.49 450.526 791.9 447.204 790.27 443.468C788.641 439.731 781.717 441.392 776.422 446.789C771.126 452.187 767.868 441.392 758.092 437.862C748.317 434.333 742.614 426.652 728.358 428.313C714.102 429.973 707.993 431.427 702.698 426.029C697.403 420.631 704.938 410.667 691.293 407.968C677.648 405.477 674.389 405.269 672.353 396.757C670.316 388.038 644.859 386.585 678.259 376.205C711.659 365.825 704.734 356.69 729.988 363.956C755.241 371.222 758.907 369.561 772.756 366.24C786.604 362.918 794.751 359.389 798.213 366.863C801.471 374.336 818.579 374.544 831.816 371.43C844.85 368.316 852.386 364.994 856.255 371.43C860.125 377.866 860.532 396.965 875.806 404.023C891.284 411.082 899.227 424.991 894.136 431.219C889.044 437.447 873.363 454.47 869.086 449.488C864.809 444.713 856.663 434.126 854.219 448.865C851.775 463.605 831.613 446.789 828.558 443.468Z" fill="url(#paint38_linear_0_1)"/>
<path d="M363.288 221.344C351.64 221.135 350.005 223.862 348.983 228.267C348.166 232.672 329.162 227.847 328.344 231.203C327.527 234.56 319.353 233.72 311.179 232.252C303.005 230.784 310.77 226.798 311.179 220.505C311.588 214.212 309.953 206.451 305.048 210.646C300.348 215.051 301.983 221.554 293.809 220.086C285.635 218.617 277.053 217.988 275.214 213.164C273.579 208.339 264.383 205.402 257.435 202.885C250.487 200.368 255.187 181.909 250.079 171.63C244.97 161.352 234.957 152.542 226.374 154.639C217.792 156.527 219.427 163.03 217.383 160.513C215.135 157.995 212.274 156.108 205.327 160.513C198.583 164.708 194.292 164.708 192.453 163.24C190.818 161.771 183.461 163.659 179.579 169.113C175.696 174.567 169.566 174.567 164.048 176.455C158.531 178.343 145.044 181.909 139.935 169.113C134.826 156.527 132.17 157.366 129.513 156.947C126.857 156.527 119.5 162.82 119.092 155.059C118.683 147.297 107.853 142.892 105.196 150.234C102.54 157.576 88.8482 153.171 84.5569 148.346C80.2656 143.522 73.3177 146.458 66.3699 154.22C59.4221 161.981 59.0134 165.337 59.0134 165.337C32.6525 179.391 53.496 191.138 42.6655 200.997C31.8351 210.856 26.3177 248.824 22.8438 251.76C19.3699 254.697 14.6698 251.76 12.0133 254.697C9.3568 257.634 4.65679 260.151 5.06549 265.814C5.26984 268.961 2.61331 271.268 -0.0432129 272.737V378.038H475.27L482.014 369.019C479.766 370.487 432.153 221.974 363.288 221.344Z" fill="url(#paint39_linear_0_1)"/>
<path d="M1325.61 341.313C1324.39 340.265 1323.16 337.541 1321.93 332.93C1318.86 320.145 1317.23 316.791 1311.09 319.306C1304.95 321.822 1304.54 320.354 1303.32 309.456C1302.09 298.767 1292.47 283.048 1279.38 282C1266.29 280.952 1258.11 269.215 1245.22 258.107C1232.13 246.789 1232.74 230.651 1201.45 219.543C1170.15 208.225 1187.94 229.393 1174.65 246.999C1161.15 264.604 1157.67 250.352 1155.22 245.113C1152.56 239.663 1149.49 242.597 1148.67 245.113C1147.85 247.628 1147.44 259.784 1139.67 249.095C1131.9 238.406 1131.9 243.226 1131.49 245.113C1131.08 246.999 1117.99 252.029 1112.05 242.178C1105.92 232.328 1100.8 240.292 1078.3 249.095C1055.8 257.897 1060.1 262.718 1060.1 250.981C1060.1 239.244 1051.91 242.178 1039.64 239.663C1027.57 237.148 1016.73 256.221 1015.3 246.58C1014.07 236.729 995.863 246.58 997.091 244.065C998.318 241.55 994.022 226.459 988.908 219.543C983.794 212.626 984.204 215.561 981.544 218.076C978.885 220.591 980.317 233.795 971.521 240.502C962.929 247.418 955.974 243.017 955.974 239.454C955.974 236.1 946.36 217.866 938.178 214.094C929.995 210.111 929.177 196.488 922.222 195.44C915.267 194.392 914.858 210.111 912.199 214.513C909.539 218.914 905.653 217.028 904.425 208.225C903.198 199.422 892.765 199.422 885.401 199.422C878.037 199.422 874.56 193.554 866.786 182.865C859.013 172.176 851.24 175.529 833.034 182.865C814.828 190.201 808.691 190.201 794.372 189.153C780.053 188.105 780.871 192.087 774.53 194.602C767.984 197.117 768.802 193.135 761.029 194.602C753.256 196.069 759.392 214.722 755.301 210.321C751.415 205.92 738.323 202.566 729.322 201.938C720.322 201.518 709.889 206.339 699.457 207.806C689.024 209.273 686.365 212.626 679.001 221.01C671.636 229.393 668.977 239.034 661.613 247.837C658.954 250.981 655.272 254.754 651.385 257.897V341.313H1325.61Z" fill="url(#paint40_linear_0_1)"/>
<path d="M814.8 430.202C816.436 441.789 811.53 454.825 816.64 459.17C821.751 463.515 849.35 471.792 854.256 467.447C859.163 463.102 875.926 456.066 881.651 461.653C887.579 467.447 893.917 479.862 903.116 475.103C912.316 470.344 927.035 476.551 936.848 487.104C946.661 497.657 956.678 488.966 973.237 467.861C973.237 467.861 969.966 511.934 976.713 522.487C983.664 533.039 1007.38 506.14 1007.38 506.14C1007.38 506.14 1013.51 517.935 1021.48 519.797C1027.62 521.245 1034.98 512.968 1041.52 511.313C1050.1 509.037 1057.26 493.725 1058.69 493.105C1060.12 492.484 1055.22 481.517 1058.28 467.861C1061.14 455.653 1066.66 440.962 1068.3 429.788H814.8C814.8 429.788 814.8 429.995 814.8 430.202Z" fill="url(#paint41_linear_0_1)"/>
<path d="M1.58496 469.78C4.44874 472.307 7.9262 474.413 12.0173 475.045C15.9039 475.677 20.4041 470.412 25.1089 469.78C30.2228 469.148 37.3823 477.994 43.5189 479.889C47.61 481.153 51.2921 474.624 53.5422 476.309C59.0652 480.521 55.5877 485.365 58.8606 487.261C65.611 490.841 70.1112 483.891 79.7253 473.992C84.021 469.569 89.3395 478.626 94.4534 475.677C95.6807 475.045 97.9308 465.989 100.181 464.725C102.84 463.251 105.704 469.569 106.931 467.884C110.409 463.04 108.363 458.196 110.613 459.67C115.114 462.619 113.477 455.247 118.386 450.403C121.046 447.876 129.023 449.982 132.501 446.401C138.842 439.872 142.115 430.816 149.888 427.024C154.593 424.708 160.729 427.867 170.344 424.918C195.709 417.336 185.072 413.334 207.982 386.165C231.097 358.995 208.596 371.632 202.254 365.314C196.118 358.995 193.254 360.68 180.367 365.945C167.48 371.211 168.503 358.363 161.139 356.678C153.775 354.993 149.274 359.627 138.024 368.894C126.773 378.161 117.773 374.791 107.545 377.108C97.3171 379.425 88.9303 371.843 87.2939 379.425C85.6574 387.007 80.5435 392.273 77.0661 389.956C73.5886 387.639 62.9517 390.588 59.0652 395.853C55.1786 401.118 64.1791 401.118 50.6784 404.488C37.1777 408.069 44.5417 410.807 44.5417 410.807C40.0415 409.543 14.0629 406.173 19.7904 420.074C25.518 433.975 13.0401 429.341 6.90342 427.656C4.85786 427.024 3.22141 429.131 1.58496 432.29V469.78V469.78Z" fill="url(#paint42_linear_0_1)"/>
<path d="M935.456 403.485C931.981 399.689 938.114 349.927 943.226 346.131C970.213 324.624 939.954 310.497 935.456 302.062C931.163 293.628 932.39 300.586 931.572 306.49C930.754 312.394 929.323 314.081 928.096 304.593C926.87 295.104 926.256 292.574 924.007 294.471C921.758 296.369 921.554 295.104 921.145 287.091C920.736 279.079 917.056 267.482 912.149 266.638C907.242 266.006 904.176 257.15 899.269 248.715C894.362 240.281 894.566 228.262 882.913 220.039C871.259 211.604 877.802 227.419 872.895 240.492C867.784 253.565 866.557 243.022 865.535 239.016C864.512 235.009 857.152 237.751 856.539 239.016C854.699 242.6 851.428 244.076 849.179 236.907C846.93 229.527 844.885 235.431 836.503 241.968C828.12 248.504 829.756 252.089 829.756 243.444C829.756 234.799 805.631 240.07 806.244 238.383C806.653 236.485 808.493 235.009 806.449 229.738C804.404 224.677 801.542 228.262 800.52 230.16C799.497 232.057 799.906 230.792 796.635 235.853C793.364 240.914 790.706 237.751 790.706 235.22C790.706 232.69 793.568 218.352 790.502 215.611C787.435 212.659 783.141 210.339 780.483 209.496C777.826 208.863 771.692 218.563 771.283 211.815C770.874 205.279 766.99 205.279 764.128 205.279C761.265 205.279 760.039 200.851 757.176 192.838C754.314 184.825 751.247 187.356 744.5 192.838C737.754 198.32 735.3 198.32 729.984 197.477C724.669 196.844 724.873 199.585 722.42 201.483C719.966 203.381 720.375 200.429 717.309 201.483C714.446 202.537 716.695 216.454 715.264 213.08C713.833 209.707 708.926 207.176 705.45 206.965C701.975 206.544 698.09 210.339 694.206 211.393C690.321 212.448 689.299 214.978 686.641 221.304C683.779 227.419 680.303 233.744 677.441 240.281C674.578 246.818 668.445 249.348 667.832 245.974C667.218 242.6 659.449 252.511 656.587 251.456C653.725 250.402 650.249 257.36 648 258.415C645.751 259.469 643.911 258.415 644.115 263.475C644.32 268.536 636.346 272.331 635.733 275.705C634.302 282.874 636.755 279.711 633.075 279.29C629.395 278.868 624.897 286.037 620.604 286.037C616.31 286.037 615.492 287.935 615.288 291.098C614.879 294.471 607.723 290.676 607.519 293.206C607.11 295.736 604.043 295.104 600.977 293.839C597.91 292.784 598.114 294.26 598.319 289.622C598.523 284.983 593.207 289.2 591.572 292.363C589.732 295.737 593.412 298.056 590.345 297.002C587.278 295.947 586.461 297.845 585.643 294.26C585.029 290.676 583.598 294.682 580.94 292.784C578.283 290.887 585.234 288.778 583.394 280.976C581.349 273.386 577.669 266.849 574.398 268.325C571.127 269.801 571.74 274.44 570.922 272.753C570.105 270.855 562.131 276.127 561.518 274.862C560.904 273.807 558.042 275.283 556.611 279.29C555.18 283.296 547.411 294.682 545.366 296.158C543.322 297.634 542.299 295.315 540.255 285.826C538.21 276.338 534.939 275.705 533.917 275.283C532.895 274.862 524.103 271.066 523.081 276.548C522.059 282.031 516.948 278.657 515.312 275.072C513.676 271.488 511.019 273.596 508.565 279.5C505.907 285.404 505.703 287.935 505.703 287.935C495.685 298.478 497.729 286.248 493.64 293.417C489.551 300.797 481.169 294.682 479.738 296.791C478.511 298.899 472.786 298.056 471.764 300.165C470.742 302.273 460.519 307.545 460.724 311.973C460.928 316.401 481.987 325.257 480.965 324.835C479.942 324.413 476.058 324.413 475.444 328.63C474.831 332.847 471.969 329.052 471.151 328.841C470.333 328.419 467.471 328.841 466.449 331.371C465.222 333.902 464.813 337.908 463.586 338.751C462.36 339.384 461.746 340.649 462.36 343.39C462.768 346.131 461.951 346.131 461.133 350.138C460.315 354.144 459.088 353.512 455.613 353.512C452.137 353.512 448.048 347.607 447.844 349.505C447.435 351.403 444.981 354.144 444.368 355.198C443.755 356.253 442.323 356.674 441.915 355.62C441.506 354.566 438.439 357.518 438.234 360.259C437.826 363.211 436.394 362.157 436.394 362.157C436.394 362.157 432.919 362.157 432.101 364.898C431.283 367.639 428.83 366.585 426.99 365.53C424.945 364.476 424.332 365.109 420.652 365.53C416.972 365.952 414.109 371.434 414.109 371.434C413.496 372.489 412.269 373.543 411.656 365.741C411.452 363.844 403.887 361.102 398.162 365.741C396.322 367.217 396.936 371.224 396.322 376.917C395.913 380.923 391.62 379.025 391.62 379.025C387.326 377.128 384.26 376.495 374.037 389.779C363.815 403.274 361.157 414.66 348.277 420.353C336.01 425.836 364.224 433.637 369.13 464.844H908.674C913.376 453.669 916.443 442.072 928.301 433.637C961.013 411.076 938.932 407.28 935.456 403.485Z" fill="url(#paint43_linear_0_1)"/>
<path d="M1063.12 442.436C1062.1 435.052 1064.97 426.437 1062.1 423.771C1059.02 420.899 1043.04 415.566 1040.17 418.438C1037.3 421.31 1027.66 425.822 1024.18 422.13C1020.7 418.438 1017.01 410.438 1011.68 413.515C1006.35 416.592 997.742 412.49 992.004 405.721C986.265 398.747 980.526 404.49 970.894 418.233C970.894 418.233 972.738 389.722 968.844 382.953C964.95 376.184 951.014 393.414 951.014 393.414C951.014 393.414 947.529 385.825 942.816 384.594C939.126 383.774 935.027 389.107 931.133 390.132C926.215 391.568 921.911 401.619 921.296 402.029C920.476 402.439 923.345 409.618 921.501 418.438C919.246 429.104 914.327 442.436 915.352 449.82H1056.77C1060.46 446.744 1063.53 444.693 1063.12 442.436Z" fill="url(#paint44_linear_0_1)"/>
<path d="M401.185 439.434C404.869 449.893 394.022 452.194 385.222 461.189C376.627 470.183 370.078 471.647 385.222 477.086C400.366 482.524 400.366 487.963 394.636 492.983C388.906 498.003 409.78 491.1 409.78 491.1C409.78 491.1 401.185 502.396 419.194 511.6C437.408 520.594 456.85 532.517 461.147 518.502C465.445 504.488 469.129 498.631 476.292 502.187C483.454 505.743 495.938 507.207 498.803 500.723C501.668 494.447 490.208 489.845 502.487 487.126C514.766 484.407 516.198 492.565 526.431 490.682C536.663 488.8 536.663 483.361 539.529 481.06C542.394 478.759 554.673 481.06 562.654 476.877C570.635 472.693 574.933 474.157 578.617 479.178C582.3 484.198 590.896 486.917 598.263 486.917C605.426 486.917 614.84 495.493 618.523 497.376C622.207 499.258 635.919 502.396 638.784 493.82C641.649 485.244 650.449 479.805 654.747 482.524C659.044 485.244 676.44 488.8 685.239 496.121C693.835 503.442 707.751 494.238 712.867 499.677C717.984 505.115 733.946 514.528 743.36 515.574C752.774 516.411 777.332 511.6 779.583 499.677C781.834 487.963 770.988 475.622 791.248 477.504C811.509 479.387 881.908 476.249 887.639 465.79C893.369 455.332 881.908 435.878 869.425 431.695C859.192 428.348 838.113 428.976 837.909 419.772H424.106C423.901 419.772 423.696 419.772 423.492 419.981C408.348 423.537 397.501 428.976 401.185 439.434Z" fill="url(#paint45_linear_0_1)"/>
<path d="M12.0228 580.405C19.1806 587.562 31.2467 590.088 34.1098 577.669C36.9729 565.25 25.5204 556.41 37.5865 551.147C49.857 545.885 51.2886 561.672 61.105 558.304C71.126 554.726 71.126 544.201 73.9891 539.781C76.8522 535.361 88.9183 539.781 96.8941 531.782C104.665 523.784 108.96 526.52 112.641 536.203C116.118 545.885 124.707 551.147 131.865 551.147C139.023 551.147 148.226 567.986 151.907 571.354C155.588 574.933 169.086 581.037 171.949 564.198C174.812 547.359 183.401 536.834 187.696 542.096C191.991 547.359 209.17 554.515 217.759 568.618C226.348 582.721 239.846 565.04 244.959 575.774C247.004 580.195 258.865 582.721 263.365 588.193C269.704 595.771 269.704 605.664 275.022 606.716C279.316 607.558 286.474 583.773 293.427 579.563C301.812 574.722 309.584 588.404 310.811 575.774C312.856 552.831 302.221 529.046 322.263 532.624C332.284 534.308 354.576 552.831 375.231 549.253C385.252 547.569 384.434 537.676 392.001 529.677C396.295 525.047 403.249 533.887 408.566 530.309C413.065 527.362 416.746 511.996 417.36 509.681C419.2 503.156 424.722 491.369 423.086 477.897C422.473 472.004 414.088 465.899 414.088 459.585C414.088 451.797 406.93 444.009 407.339 437.062C408.361 422.539 417.155 411.172 412.656 408.226C400.59 400.227 381.366 420.855 370.732 407.384C361.529 395.596 364.801 381.704 370.118 368.022H-0.0432129V595.35C3.22893 580.405 6.50108 574.933 12.0228 580.405Z" fill="url(#paint46_linear_0_1)"/>
<path d="M1240.23 442.927C1225.93 441.256 1222.05 432.482 1213.26 426.634C1204.47 420.993 1203.66 409.713 1197.32 413.682C1190.99 417.651 1183.84 417.651 1183.02 413.682C1182.2 409.713 1172.8 403.864 1166.47 404.7C1160.14 405.536 1166.47 412.011 1154.62 404.7C1142.77 397.389 1145.83 404.7 1145.83 404.7C1143.38 400.731 1127.65 379.633 1122.13 393.42C1116.62 407.207 1111.1 395.091 1107.83 389.451C1104.76 383.811 1085.56 396.762 1079.22 401.567C1072.89 406.371 1077.59 421.829 1091.08 432.274C1097.2 437.078 1099.66 443.554 1100.88 449.82H1263.73C1260.05 444.389 1253.51 444.389 1240.23 442.927Z" fill="url(#paint47_linear_0_1)"/>
<path d="M1045.48 438.329C1041.61 441.52 1048.13 444.71 1044.87 447.476C1037.73 453.644 1022.43 458.75 1022.22 462.153C1021.61 472.789 1012.43 486.615 1017.94 489.38C1020.18 490.657 1022.02 496.825 1029.77 494.911C1035.48 493.422 1046.91 483.85 1052.21 483.212C1057.11 482.574 1061.19 489.806 1063.23 488.104C1070.58 482.574 1093.02 471.725 1099.14 475.767C1105.26 479.808 1110.36 490.231 1123.01 483.424C1135.66 476.618 1152.8 478.957 1162.8 486.828C1169.12 491.72 1169.53 489.168 1181.37 480.446C1183.2 478.957 1187.28 485.552 1191.36 483.85C1195.04 482.361 1198.5 472.576 1200.54 470.874C1204.42 467.471 1207.89 462.366 1212.99 464.706C1212.99 464.706 1214.42 470.449 1211.56 482.361C1208.71 494.06 1201.77 506.61 1204.83 510.652C1207.68 514.481 1211.97 505.547 1221.15 501.718C1225.44 500.016 1234.82 505.759 1238.29 502.994C1243.59 498.74 1247.27 487.466 1247.27 487.466C1247.27 487.466 1252.16 497.464 1261.75 497.038C1269.3 496.825 1280.32 487.253 1288.89 484.062C1300.31 479.808 1312.96 463.216 1314.6 462.366C1316.43 461.302 1312.76 452.155 1320.1 438.116C1321.74 434.926 1323.78 431.522 1325.61 428.119H1062.01C1061.6 429.182 1060.99 430.246 1060.17 431.097C1058.34 433.862 1048.13 436.202 1045.48 438.329Z" fill="url(#paint48_linear_0_1)"/>
<path d="M998.406 401.063C991.688 404.142 988.024 404.963 987.006 401.063C985.989 397.162 983.139 393.672 980.289 393.672C977.439 393.672 977.439 389.771 976.625 387.513C975.81 385.255 970.925 384.844 969.093 385.255C967.261 385.665 961.561 380.122 960.95 378.274C960.136 376.632 963.189 373.963 964.207 370.884C965.225 367.804 972.35 359.181 977.846 361.85C983.139 364.519 986.396 378.685 990.263 374.784C994.131 370.884 992.706 364.725 994.131 365.34C995.556 365.751 1000.24 368.831 1000.65 370.062C1001.05 371.294 1008.18 373.142 1009.19 369.652C1010.21 366.162 1015.91 366.572 1018.56 370.884C1021 375.195 1015.3 386.897 1018.56 387.718C1021.82 388.539 1025.48 393.877 1028.33 399.01C1031.18 404.142 1027.11 418.103 1016.52 418.103C1015.51 418.103 1008.58 409.891 1002.68 409.891C996.778 409.891 992.91 418.103 992.706 414.613C991.892 411.328 998.406 401.063 998.406 401.063Z" fill="url(#paint49_linear_0_1)"/>
<path d="M855.092 345.474C848.374 348.644 844.71 349.489 843.692 345.474C842.674 341.458 839.824 337.865 836.974 337.865C834.124 337.865 834.124 333.85 833.31 331.525C832.496 329.2 827.61 328.778 825.778 329.2C823.946 329.623 818.246 323.917 817.636 322.015C816.821 320.324 819.875 317.577 820.893 314.407C821.911 311.237 829.035 302.361 834.532 305.108C839.824 307.855 843.081 322.438 846.949 318.422C850.817 314.407 849.392 308.067 850.817 308.701C852.242 309.123 856.924 312.293 857.331 313.561C857.738 314.829 864.863 316.732 865.881 313.139C866.898 309.546 872.598 309.969 875.244 314.407C877.687 318.845 871.987 330.891 875.244 331.737C878.502 332.582 882.166 338.077 885.016 343.36C887.865 348.644 883.794 363.015 873.209 363.015C872.191 363.015 865.27 354.561 859.366 354.561C853.463 354.561 849.595 363.015 849.392 359.422C848.578 356.04 855.092 345.474 855.092 345.474Z" fill="url(#paint50_linear_0_1)"/>
<path d="M498.435 390.546C491.717 393.716 488.053 394.561 487.035 390.546C486.017 386.53 483.168 382.938 480.318 382.938C477.468 382.938 477.468 378.922 476.653 376.597C475.839 374.273 470.954 373.85 469.122 374.273C467.289 374.695 461.59 368.989 460.979 367.087C460.165 365.397 463.218 362.649 464.236 359.479C465.254 356.309 472.379 347.433 477.875 350.18C483.168 352.928 486.425 367.51 490.292 363.494C494.16 359.479 492.735 353.139 494.16 353.773C495.585 354.196 500.267 357.366 500.674 358.634C501.081 359.902 508.206 361.804 509.224 358.211C510.242 354.618 515.941 355.041 518.588 359.479C521.031 363.917 515.331 375.963 518.588 376.809C521.845 377.654 525.509 383.149 528.359 388.432C531.209 393.716 527.137 408.087 516.552 408.087C515.534 408.087 508.613 399.633 502.71 399.633C496.806 399.633 492.939 408.087 492.735 404.494C491.921 401.324 498.435 390.546 498.435 390.546Z" fill="url(#paint51_linear_0_1)"/>
<path d="M693.835 372.878C693.835 372.878 696.081 374.751 690.975 374.335C685.869 373.919 689.137 374.959 687.094 376.415C685.256 377.663 681.171 377.455 680.354 376.415C679.537 375.167 677.086 376.415 675.861 378.912C674.431 381.2 672.388 377.871 668.712 377.455C665.035 377.039 662.176 374.959 657.478 376.831C652.576 378.704 650.533 379.744 648.287 378.496C646.04 377.039 647.674 372.878 642.772 373.295C637.666 373.711 636.644 373.919 635.215 371.006C633.785 368.094 624.593 369.966 635.419 363.309C646.244 356.651 642.976 353.947 652.576 354.363C662.176 354.571 663.197 353.739 667.895 351.242C672.388 348.746 675.044 346.874 676.882 349.162C678.72 351.45 684.643 349.994 689.137 347.706C693.426 345.417 695.673 343.545 697.715 345.417C699.758 347.29 701.392 353.947 707.519 355.195C713.647 356.235 717.528 360.396 716.302 363.101C715.077 365.805 710.992 373.086 709.154 371.838C707.111 370.59 703.434 367.677 703.843 372.878C703.843 377.871 695.264 373.711 693.835 372.878Z" fill="url(#paint52_linear_0_1)"/>
<path d="M497.208 536.355C497.208 536.355 498.849 536.78 495.976 537.842C493.103 538.904 495.155 538.692 494.334 539.966C493.719 541.241 491.461 542.09 490.64 541.878C489.82 541.453 488.999 542.728 488.794 544.427C488.588 546.127 486.536 544.64 484.484 545.489C482.432 546.339 480.379 545.914 478.122 548.251C475.865 550.588 475.044 551.65 473.402 551.65C471.76 551.437 471.555 548.676 469.092 550.163C466.424 551.65 465.809 552.075 464.372 551.013C462.936 549.738 458.421 553.349 462.525 546.552C466.835 539.966 464.372 539.329 469.503 536.992C474.838 534.655 475.249 533.806 477.096 531.257C478.943 528.707 479.969 526.795 481.406 527.645C483.047 528.495 485.92 525.946 487.767 523.609C489.614 521.272 490.23 519.573 491.872 519.998C493.514 520.635 496.181 523.821 499.67 522.759C503.159 521.697 506.443 522.972 506.443 524.671C506.443 526.371 506.032 531.681 504.801 531.469C503.364 531.256 500.696 530.619 502.133 533.593C503.98 536.567 498.234 536.567 497.208 536.355Z" fill="url(#paint53_linear_0_1)"/>
<path d="M169.864 496.503C169.864 496.503 171.506 496.928 168.633 497.99C165.76 499.052 167.812 498.84 166.991 500.115C166.376 501.389 164.118 502.239 163.297 501.814C162.476 501.389 161.655 502.664 161.45 504.363C161.245 506.063 159.193 504.576 157.141 505.425C155.088 506.275 153.036 505.85 150.779 508.187C148.521 510.524 147.7 511.586 146.059 511.586C144.417 511.373 144.212 508.612 141.749 510.099C139.081 511.586 138.465 512.011 137.029 510.949C135.592 509.674 131.077 513.285 135.182 506.488C139.492 499.902 137.029 499.265 142.159 496.928C147.495 494.591 147.906 493.742 149.753 491.193C151.6 488.643 152.626 486.731 154.062 487.581C155.704 488.431 158.577 485.882 160.424 483.545C162.271 481.208 162.887 479.509 164.529 479.934C166.17 480.571 168.838 483.757 172.327 482.695C175.816 481.633 179.099 482.908 179.099 484.607C179.099 486.307 178.689 491.617 177.457 491.405C176.021 491.193 173.353 490.555 174.79 493.529C176.431 496.503 170.89 496.503 169.864 496.503Z" fill="url(#paint54_linear_0_1)"/>
<path d="M216.244 385.319C210.03 393.301 206.302 396.661 202.574 392.67C198.846 388.68 193.255 386.369 189.734 388.05C186.213 389.94 183.935 385.109 181.656 383.009C179.378 380.908 173.165 383.429 171.301 385.109C169.437 386.789 159.082 383.639 157.218 381.959C155.354 380.278 157.01 375.447 156.389 371.037C155.975 368.516 163.638 365.996 165.916 361.375C167.573 357.804 163.431 351.503 166.952 351.293C175.029 351.083 187.87 366.206 190.148 359.064C192.426 351.923 187.041 345.412 188.905 344.992C190.976 344.572 198.432 345.202 199.675 346.672C200.918 347.933 210.652 345.622 209.616 340.581C208.788 335.75 215.829 332.6 221.628 336.17C227.427 339.741 227.842 357.594 232.191 356.544C236.54 355.494 244.203 359.485 250.831 363.895C254.766 366.626 250.209 376.918 248.345 384.899C247.103 390.15 248.967 394.141 248.553 394.561C248.138 394.771 245.446 400.652 242.132 401.492C239.647 402.122 236.955 405.273 234.676 404.643C231.57 404.012 229.291 399.392 229.291 399.392C229.291 399.392 220.386 409.473 217.693 405.483C215.001 401.912 216.244 385.319 216.244 385.319Z" fill="url(#paint55_linear_0_1)"/>
<path d="M719.881 296.634C713.774 304.616 710.109 307.976 706.444 303.986C702.779 299.995 697.282 297.684 694.024 299.365C690.563 301.255 688.324 296.424 686.084 294.324C683.844 292.223 677.737 294.744 675.904 296.424C674.072 298.104 663.892 294.954 662.059 293.274C660.227 291.593 661.856 286.762 661.245 282.352C660.838 279.831 668.371 277.311 670.611 272.69C672.239 269.119 668.167 262.818 671.629 262.608C679.569 262.398 692.192 277.521 694.432 270.38C696.671 263.238 691.378 256.727 693.21 256.307C695.246 255.887 702.576 256.517 703.797 257.987C705.019 259.248 714.588 256.937 713.57 252.106C712.755 247.276 719.678 244.125 725.379 247.696C731.079 251.266 731.487 269.119 735.762 268.069C740.038 267.019 747.571 271.01 754.086 275.42C757.954 278.151 753.475 288.443 751.643 296.424C750.421 301.675 752.254 305.666 751.846 306.086C751.439 306.296 748.792 312.177 745.535 313.017C743.092 313.647 740.445 316.798 738.205 316.168C735.151 315.538 732.912 310.917 732.912 310.917C732.912 310.917 724.157 320.999 721.51 317.008C718.66 313.437 719.881 296.634 719.881 296.634Z" fill="url(#paint56_linear_0_1)"/>
<path d="M1256.69 393.666C1250.48 401.647 1246.75 405.008 1243.02 401.017C1239.3 397.027 1233.7 394.716 1230.39 396.397C1226.87 398.287 1224.59 393.456 1222.31 391.356C1220.04 389.255 1213.82 391.776 1211.96 393.456C1210.09 395.136 1199.74 391.986 1197.87 390.305C1196.01 388.625 1197.67 383.794 1197.05 379.384C1196.63 376.863 1204.3 374.343 1206.57 369.722C1208.23 366.151 1204.09 359.85 1207.61 359.64C1215.69 359.43 1228.53 374.553 1230.81 367.411C1233.08 360.27 1227.7 353.759 1229.56 353.339C1231.63 352.919 1239.09 353.549 1240.33 355.019C1241.57 356.279 1251.31 353.969 1250.27 348.928C1249.44 344.097 1256.49 340.947 1262.29 344.517C1268.08 348.088 1268.5 365.941 1272.85 364.891C1277.2 363.841 1284.86 367.831 1291.49 372.242C1295.42 374.973 1290.87 385.265 1289 393.246C1287.76 398.497 1289.62 402.488 1289.21 402.908C1288.8 403.118 1286.1 408.999 1282.79 409.839C1280.3 410.469 1277.61 413.62 1275.13 412.989C1272.02 412.359 1269.74 407.739 1269.74 407.739C1269.74 407.739 1260.84 417.82 1258.14 413.83C1255.45 410.259 1256.69 393.666 1256.69 393.666Z" fill="url(#paint57_linear_0_1)"/>
<path d="M687.101 785.93C686.117 785.11 685.133 782.979 684.149 779.373C681.689 769.375 680.377 766.752 675.458 768.719C670.538 770.686 670.211 769.539 669.227 761.015C668.243 752.656 660.535 740.363 650.041 739.543C639.546 738.723 632.986 729.544 622.655 720.857C612.16 712.006 612.652 699.385 587.563 690.698C562.473 681.846 576.74 698.401 566.081 712.17C555.258 725.938 552.47 714.792 550.502 710.695C548.371 706.433 545.911 708.728 545.255 710.695C544.599 712.662 544.271 722.168 538.04 713.809C531.808 705.45 531.808 709.22 531.48 710.695C531.152 712.17 520.657 716.104 515.902 708.4C510.982 700.696 506.883 706.925 488.845 713.809C470.806 720.693 474.25 724.463 474.25 715.284C474.25 706.105 467.691 708.4 457.852 706.433C448.177 704.466 439.486 719.382 438.338 711.842C437.354 704.138 422.759 711.842 423.743 709.875C424.727 707.908 421.283 696.107 417.184 690.698C413.084 685.289 413.412 687.583 411.28 689.55C409.149 691.517 410.296 701.844 403.245 707.089C396.358 712.498 390.782 709.056 390.782 706.269C390.782 703.647 383.075 689.386 376.516 686.436C369.957 683.322 369.301 672.667 363.725 671.848C358.15 671.028 357.822 683.322 355.69 686.764C353.558 690.206 350.442 688.731 349.459 681.846C348.475 674.962 340.111 674.962 334.208 674.962C328.305 674.962 325.517 670.373 319.286 662.013C313.054 653.654 306.823 656.276 292.228 662.013C277.634 667.75 272.714 667.75 261.235 666.931C249.757 666.111 250.412 669.225 245.329 671.192C240.082 673.159 240.737 670.045 234.506 671.192C228.275 672.34 233.194 686.928 229.914 683.486C226.799 680.043 216.304 677.421 209.089 676.929C201.873 676.601 193.51 680.371 185.147 681.519C176.784 682.666 174.652 685.289 168.749 691.845C162.845 698.401 160.713 705.941 154.81 712.826C152.678 715.284 149.727 718.235 146.611 720.693V785.93H687.101Z" fill="url(#paint58_linear_0_1)"/>
</g>
<rect opacity="0.3" x="144" width="1052" height="1063" fill="#D9D9D9"/>
<g opacity="0.9" filter="url(#filter0_f_0_1)">
<ellipse cx="847.5" cy="395.5" rx="328.5" ry="88.5" fill="#D9D9D9"/>
</g>
<g opacity="0.9" filter="url(#filter1_f_0_1)">
<ellipse cx="478.5" cy="250.5" rx="328.5" ry="88.5" fill="#D9D9D9"/>
</g>
<g opacity="0.9" filter="url(#filter2_f_0_1)">
<ellipse cx="867.5" cy="698.5" rx="328.5" ry="88.5" fill="#D9D9D9"/>
</g>
<g opacity="0.9" filter="url(#filter3_f_0_1)">
<ellipse cx="501.5" cy="572.5" rx="328.5" ry="88.5" fill="#D9D9D9"/>
</g>
<defs>
<filter id="filter0_f_0_1" x="369" y="157" width="957" height="477" filterUnits="userSpaceOnUse" color-interpolation-filters="sRGB">
<feFlood flood-opacity="0" result="BackgroundImageFix"/>
<feBlend mode="normal" in="SourceGraphic" in2="BackgroundImageFix" result="shape"/>
<feGaussianBlur stdDeviation="75" result="effect1_foregroundBlur_0_1"/>
</filter>
<filter id="filter1_f_0_1" x="0" y="12" width="957" height="477" filterUnits="userSpaceOnUse" color-interpolation-filters="sRGB">
<feFlood flood-opacity="0" result="BackgroundImageFix"/>
<feBlend mode="normal" in="SourceGraphic" in2="BackgroundImageFix" result="shape"/>
<feGaussianBlur stdDeviation="75" result="effect1_foregroundBlur_0_1"/>
</filter>
<filter id="filter2_f_0_1" x="389" y="460" width="957" height="477" filterUnits="userSpaceOnUse" color-interpolation-filters="sRGB">
<feFlood flood-opacity="0" result="BackgroundImageFix"/>
<feBlend mode="normal" in="SourceGraphic" in2="BackgroundImageFix" result="shape"/>
<feGaussianBlur stdDeviation="75" result="effect1_foregroundBlur_0_1"/>
</filter>
<filter id="filter3_f_0_1" x="23" y="334" width="957" height="477" filterUnits="userSpaceOnUse" color-interpolation-filters="sRGB">
<feFlood flood-opacity="0" result="BackgroundImageFix"/>
<feBlend mode="normal" in="SourceGraphic" in2="BackgroundImageFix" result="shape"/>
<feGaussianBlur stdDeviation="75" result="effect1_foregroundBlur_0_1"/>
</filter>
<linearGradient id="paint0_linear_0_1" x1="675.351" y1="0" x2="675.351" y2="1062.7" gradientUnits="userSpaceOnUse">
<stop stop-color="#626D7C"/>
<stop offset="1" stop-color="#708CA7"/>
</linearGradient>
<linearGradient id="paint1_linear_0_1" x1="664.965" y1="0" x2="664.965" y2="1062.7" gradientUnits="userSpaceOnUse">
<stop stop-color="#626D7C"/>
<stop offset="1" stop-color="#708CA7"/>
</linearGradient>
<linearGradient id="paint2_linear_0_1" x1="1303.46" y1="413.851" x2="102.067" y2="413.855" gradientUnits="userSpaceOnUse">
<stop stop-color="#FEFEFE" stop-opacity="0"/>
<stop offset="1" stop-color="white"/>
</linearGradient>
<linearGradient id="paint3_linear_0_1" x1="1175.13" y1="5.21927" x2="-26.2661" y2="5.2223" gradientUnits="userSpaceOnUse">
<stop stop-color="#FEFEFE" stop-opacity="0"/>
<stop offset="1" stop-color="white"/>
</linearGradient>
<linearGradient id="paint4_linear_0_1" x1="1175.13" y1="3.91445" x2="-26.2661" y2="3.91849" gradientUnits="userSpaceOnUse">
<stop stop-color="#FEFEFE" stop-opacity="0"/>
<stop offset="1" stop-color="white"/>
</linearGradient>
<linearGradient id="paint5_linear_0_1" x1="1100.03" y1="748.067" x2="-18.8483" y2="748.071" gradientUnits="userSpaceOnUse">
<stop stop-color="#FEFEFE" stop-opacity="0"/>
<stop offset="1" stop-color="white"/>
</linearGradient>
<linearGradient id="paint6_linear_0_1" x1="2587.03" y1="569.209" x2="1468.15" y2="569.213" gradientUnits="userSpaceOnUse">
<stop stop-color="#FEFEFE" stop-opacity="0"/>
<stop offset="1" stop-color="white"/>
</linearGradient>
<linearGradient id="paint7_linear_0_1" x1="2534.53" y1="839.455" x2="1275.79" y2="839.459" gradientUnits="userSpaceOnUse">
<stop stop-color="#FEFEFE" stop-opacity="0"/>
<stop offset="1" stop-color="white"/>
</linearGradient>
<linearGradient id="paint8_linear_0_1" x1="2434.28" y1="596.625" x2="1315.4" y2="596.629" gradientUnits="userSpaceOnUse">
<stop stop-color="#FEFEFE" stop-opacity="0"/>
<stop offset="1" stop-color="white"/>
</linearGradient>
<linearGradient id="paint9_linear_0_1" x1="978.974" y1="659.027" x2="978.974" y2="741.136" gradientUnits="userSpaceOnUse">
<stop stop-color="white"/>
<stop offset="1" stop-color="#666E83"/>
</linearGradient>
<linearGradient id="paint10_linear_0_1" x1="359.811" y1="818.36" x2="359.811" y2="882.331" gradientUnits="userSpaceOnUse">
<stop stop-color="white"/>
<stop offset="1" stop-color="#666E83"/>
</linearGradient>
<linearGradient id="paint11_linear_0_1" x1="862.502" y1="825.265" x2="862.502" y2="779.499" gradientUnits="userSpaceOnUse">
<stop stop-color="white"/>
<stop offset="1" stop-color="#666E83"/>
</linearGradient>
<linearGradient id="paint12_linear_0_1" x1="728.829" y1="876.38" x2="728.829" y2="820.128" gradientUnits="userSpaceOnUse">
<stop stop-color="white"/>
<stop offset="1" stop-color="#666E83"/>
</linearGradient>
<linearGradient id="paint13_linear_0_1" x1="1204.18" y1="-36.972" x2="1020.6" y2="157.565" gradientUnits="userSpaceOnUse">
<stop stop-color="#FEFEFE"/>
<stop offset="1" stop-color="#BFBFBF"/>
</linearGradient>
<linearGradient id="paint14_linear_0_1" x1="623.768" y1="-80.514" x2="588.614" y2="305.318" gradientUnits="userSpaceOnUse">
<stop stop-color="#FEFEFE"/>
<stop offset="1" stop-color="#BFBFBF"/>
</linearGradient>
<linearGradient id="paint15_linear_0_1" x1="767.601" y1="214.108" x2="767.601" y2="-68.3652" gradientUnits="userSpaceOnUse">
<stop stop-color="white"/>
<stop offset="1" stop-color="#666E83"/>
</linearGradient>
<linearGradient id="paint16_linear_0_1" x1="207.693" y1="85.1991" x2="207.693" y2="-112.983" gradientUnits="userSpaceOnUse">
<stop stop-color="white"/>
<stop offset="1" stop-color="#666E83"/>
</linearGradient>
<linearGradient id="paint17_linear_0_1" x1="591.209" y1="75.0729" x2="591.209" y2="-37.4452" gradientUnits="userSpaceOnUse">
<stop stop-color="white"/>
<stop offset="1" stop-color="#666E83"/>
</linearGradient>
<linearGradient id="paint18_linear_0_1" x1="1162.8" y1="123.805" x2="1162.8" y2="44.7082" gradientUnits="userSpaceOnUse">
<stop stop-color="white"/>
<stop offset="1" stop-color="#666E83"/>
</linearGradient>
<linearGradient id="paint19_linear_0_1" x1="1111.47" y1="92.0227" x2="1111.47" y2="-81.2267" gradientUnits="userSpaceOnUse">
<stop stop-color="white"/>
<stop offset="1" stop-color="#666E83"/>
</linearGradient>
<linearGradient id="paint20_linear_0_1" x1="653.378" y1="18.0165" x2="653.377" y2="-76.2371" gradientUnits="userSpaceOnUse">
<stop stop-color="white"/>
<stop offset="1" stop-color="#666E83"/>
</linearGradient>
<linearGradient id="paint21_linear_0_1" x1="491.696" y1="88.4411" x2="491.696" y2="-7.45264" gradientUnits="userSpaceOnUse">
<stop stop-color="white"/>
<stop offset="1" stop-color="#666E83"/>
</linearGradient>
<linearGradient id="paint22_linear_0_1" x1="1315.06" y1="51.5099" x2="1315.06" y2="-81.6412" gradientUnits="userSpaceOnUse">
<stop stop-color="white"/>
<stop offset="1" stop-color="#666E83"/>
</linearGradient>
<linearGradient id="paint23_linear_0_1" x1="780.56" y1="-251.084" x2="780.56" y2="28.4664" gradientUnits="userSpaceOnUse">
<stop stop-color="white"/>
<stop offset="1" stop-color="#5F5E7C"/>
</linearGradient>
<linearGradient id="paint24_linear_0_1" x1="444.382" y1="-65.9611" x2="444.382" y2="2.91708" gradientUnits="userSpaceOnUse">
<stop stop-color="white"/>
<stop offset="1" stop-color="#5F5E7C"/>
</linearGradient>
<linearGradient id="paint25_linear_0_1" x1="797.625" y1="77.0696" x2="797.625" y2="-28.6266" gradientUnits="userSpaceOnUse">
<stop stop-color="white"/>
<stop offset="1" stop-color="#5F5E7C"/>
</linearGradient>
<linearGradient id="paint26_linear_0_1" x1="1214.04" y1="170.875" x2="1214.04" y2="-69.3323" gradientUnits="userSpaceOnUse">
<stop stop-color="white"/>
<stop offset="1" stop-color="#666E83"/>
</linearGradient>
<linearGradient id="paint27_linear_0_1" x1="265.308" y1="-49.3987" x2="265.308" y2="12.7984" gradientUnits="userSpaceOnUse">
<stop stop-color="white"/>
<stop offset="1" stop-color="#666E83"/>
</linearGradient>
<linearGradient id="paint28_linear_0_1" x1="264.44" y1="75.3185" x2="264.44" y2="-8.70923" gradientUnits="userSpaceOnUse">
<stop stop-color="white"/>
<stop offset="1" stop-color="#666E83"/>
</linearGradient>
<linearGradient id="paint29_linear_0_1" x1="944.91" y1="115.455" x2="944.91" y2="83.5378" gradientUnits="userSpaceOnUse">
<stop stop-color="white"/>
<stop offset="1" stop-color="#666E83"/>
</linearGradient>
<linearGradient id="paint30_linear_0_1" x1="1322.83" y1="331.294" x2="-72.9012" y2="331.299" gradientUnits="userSpaceOnUse">
<stop stop-color="#FEFEFE" stop-opacity="0"/>
<stop offset="1" stop-color="white"/>
</linearGradient>
<linearGradient id="paint31_linear_0_1" x1="221.808" y1="400.317" x2="403.962" y2="596.633" gradientUnits="userSpaceOnUse">
<stop stop-color="#FEFEFE"/>
<stop offset="1" stop-color="#BFBFBF"/>
</linearGradient>
<linearGradient id="paint32_linear_0_1" x1="808.193" y1="357.065" x2="842.536" y2="740.424" gradientUnits="userSpaceOnUse">
<stop stop-color="#FEFEFE"/>
<stop offset="1" stop-color="#BFBFBF"/>
</linearGradient>
<linearGradient id="paint33_linear_0_1" x1="662.881" y1="649.718" x2="662.881" y2="369.133" gradientUnits="userSpaceOnUse">
<stop stop-color="white"/>
<stop offset="1" stop-color="#666E83"/>
</linearGradient>
<linearGradient id="paint34_linear_0_1" x1="1228.55" y1="521.671" x2="1228.55" y2="324.814" gradientUnits="userSpaceOnUse">
<stop stop-color="white"/>
<stop offset="1" stop-color="#666E83"/>
</linearGradient>
<linearGradient id="paint35_linear_0_1" x1="841.087" y1="511.613" x2="841.087" y2="399.847" gradientUnits="userSpaceOnUse">
<stop stop-color="white"/>
<stop offset="1" stop-color="#666E83"/>
</linearGradient>
<linearGradient id="paint36_linear_0_1" x1="263.614" y1="560.019" x2="263.614" y2="481.451" gradientUnits="userSpaceOnUse">
<stop stop-color="white"/>
<stop offset="1" stop-color="#666E83"/>
</linearGradient>
<linearGradient id="paint37_linear_0_1" x1="315.477" y1="528.449" x2="315.477" y2="356.358" gradientUnits="userSpaceOnUse">
<stop stop-color="white"/>
<stop offset="1" stop-color="#666E83"/>
</linearGradient>
<linearGradient id="paint38_linear_0_1" x1="778.279" y1="454.938" x2="778.279" y2="361.314" gradientUnits="userSpaceOnUse">
<stop stop-color="white"/>
<stop offset="1" stop-color="#666E83"/>
</linearGradient>
<linearGradient id="paint39_linear_0_1" x1="241.213" y1="151.698" x2="241.213" y2="383.763" gradientUnits="userSpaceOnUse">
<stop stop-color="white"/>
<stop offset="1" stop-color="#666E83"/>
</linearGradient>
<linearGradient id="paint40_linear_0_1" x1="988.561" y1="162.577" x2="988.561" y2="327.966" gradientUnits="userSpaceOnUse">
<stop stop-color="white"/>
<stop offset="1" stop-color="#666E83"/>
</linearGradient>
<linearGradient id="paint41_linear_0_1" x1="941.624" y1="524.891" x2="941.624" y2="429.639" gradientUnits="userSpaceOnUse">
<stop stop-color="white"/>
<stop offset="1" stop-color="#666E83"/>
</linearGradient>
<linearGradient id="paint42_linear_0_1" x1="109.794" y1="488.207" x2="109.794" y2="355.946" gradientUnits="userSpaceOnUse">
<stop stop-color="white"/>
<stop offset="1" stop-color="#666E83"/>
</linearGradient>
<linearGradient id="paint43_linear_0_1" x1="649.789" y1="187.636" x2="649.789" y2="465.318" gradientUnits="userSpaceOnUse">
<stop stop-color="white"/>
<stop offset="1" stop-color="#666E83"/>
</linearGradient>
<linearGradient id="paint44_linear_0_1" x1="989.424" y1="371.522" x2="989.424" y2="439.939" gradientUnits="userSpaceOnUse">
<stop stop-color="white"/>
<stop offset="1" stop-color="#666E83"/>
</linearGradient>
<linearGradient id="paint45_linear_0_1" x1="632.548" y1="513.596" x2="632.548" y2="408.606" gradientUnits="userSpaceOnUse">
<stop stop-color="white"/>
<stop offset="1" stop-color="#666E83"/>
</linearGradient>
<linearGradient id="paint46_linear_0_1" x1="211.849" y1="606.774" x2="211.849" y2="368.172" gradientUnits="userSpaceOnUse">
<stop stop-color="white"/>
<stop offset="1" stop-color="#666E83"/>
</linearGradient>
<linearGradient id="paint47_linear_0_1" x1="1170.34" y1="387.973" x2="1170.34" y2="449.755" gradientUnits="userSpaceOnUse">
<stop stop-color="white"/>
<stop offset="1" stop-color="#666E83"/>
</linearGradient>
<linearGradient id="paint48_linear_0_1" x1="1171.22" y1="511.857" x2="1171.22" y2="428.391" gradientUnits="userSpaceOnUse">
<stop stop-color="white"/>
<stop offset="1" stop-color="#666E83"/>
</linearGradient>
<linearGradient id="paint49_linear_0_1" x1="994.863" y1="418.344" x2="994.863" y2="361.496" gradientUnits="userSpaceOnUse">
<stop stop-color="white"/>
<stop offset="1" stop-color="#666E83"/>
</linearGradient>
<linearGradient id="paint50_linear_0_1" x1="851.464" y1="363.231" x2="851.464" y2="304.711" gradientUnits="userSpaceOnUse">
<stop stop-color="white"/>
<stop offset="1" stop-color="#666E83"/>
</linearGradient>
<linearGradient id="paint51_linear_0_1" x1="494.903" y1="408.459" x2="494.903" y2="349.94" gradientUnits="userSpaceOnUse">
<stop stop-color="white"/>
<stop offset="1" stop-color="#666E83"/>
</linearGradient>
<linearGradient id="paint52_linear_0_1" x1="673.027" y1="379.503" x2="673.029" y2="344.204" gradientUnits="userSpaceOnUse">
<stop stop-color="white"/>
<stop offset="1" stop-color="#666E83"/>
</linearGradient>
<linearGradient id="paint53_linear_0_1" x1="483.749" y1="551.724" x2="483.749" y2="520.021" gradientUnits="userSpaceOnUse">
<stop stop-color="white"/>
<stop offset="1" stop-color="#666E83"/>
</linearGradient>
<linearGradient id="paint54_linear_0_1" x1="156.343" y1="511.755" x2="156.343" y2="480.052" gradientUnits="userSpaceOnUse">
<stop stop-color="white"/>
<stop offset="1" stop-color="#666E83"/>
</linearGradient>
<linearGradient id="paint55_linear_0_1" x1="204.28" y1="406.889" x2="204.28" y2="334.961" gradientUnits="userSpaceOnUse">
<stop stop-color="white"/>
<stop offset="1" stop-color="#666E83"/>
</linearGradient>
<linearGradient id="paint56_linear_0_1" x1="708.139" y1="318.234" x2="708.139" y2="246.305" gradientUnits="userSpaceOnUse">
<stop stop-color="white"/>
<stop offset="1" stop-color="#666E83"/>
</linearGradient>
<linearGradient id="paint57_linear_0_1" x1="1244.87" y1="415.205" x2="1244.87" y2="343.275" gradientUnits="userSpaceOnUse">
<stop stop-color="white"/>
<stop offset="1" stop-color="#666E83"/>
</linearGradient>
<linearGradient id="paint58_linear_0_1" x1="416.905" y1="646.147" x2="416.905" y2="775.492" gradientUnits="userSpaceOnUse">
<stop stop-color="white"/>
<stop offset="1" stop-color="#666E83"/>
</linearGradient>
</defs>
</svg>
