<svg width="1581" height="1063" viewBox="0 0 1581 1063" fill="none" xmlns="http://www.w3.org/2000/svg">
<rect x="233.255" width="1061.7" height="1063" fill="url(#paint0_linear_0_1)"/>
<rect x="199.344" y="405.635" width="1043.44" height="3.91288" fill="url(#paint1_linear_0_1)"/>
<rect x="217.604" y="409.548" width="1120.39" height="5.21718" fill="url(#paint2_linear_0_1)"/>
<rect width="1120.39" height="3.91288" transform="matrix(-1 0 0 1 1306.69 144.777)" fill="url(#paint3_linear_0_1)"/>
<rect width="1120.39" height="3.91288" transform="matrix(-1 0 0 1 1337.99 134.342)" fill="url(#paint4_linear_0_1)"/>
<rect x="95" y="743.448" width="1043.44" height="3.91288" fill="url(#paint5_linear_0_1)"/>
<rect x="1580.59" y="564.76" width="1043.44" height="3.91297" transform="rotate(180 1580.59 564.76)" fill="url(#paint6_linear_0_1)"/>
<rect x="1391.47" y="834.749" width="1173.86" height="3.91299" transform="rotate(180 1391.47 834.749)" fill="url(#paint7_linear_0_1)"/>
<rect x="1427.99" y="593.454" width="1043.44" height="5.21727" transform="rotate(180 1427.99 593.454)" fill="url(#paint8_linear_0_1)"/>
<rect x="124.867" y="632.813" width="9.54778" height="504.012" rx="4.77389" transform="rotate(-90 124.867 632.813)" fill="url(#paint9_linear_0_1)"/>
<rect x="825.691" y="1004" width="9.54778" height="504.012" rx="4.77389" transform="rotate(-90 825.691 1004)" fill="url(#paint10_linear_0_1)"/>
<rect x="371.537" y="401.219" width="9.54778" height="504.012" rx="4.77389" transform="rotate(-90 371.537 401.219)" fill="url(#paint11_linear_0_1)"/>
<rect x="499.834" y="874.133" width="9.54778" height="504.012" rx="4.77389" transform="rotate(-90 499.834 874.133)" fill="url(#paint12_linear_0_1)"/>
<rect x="602.53" y="93.4492" width="9.54778" height="504.012" rx="4.77389" transform="rotate(-90 602.53 93.4492)" fill="url(#paint13_linear_0_1)"/>
<rect x="761.821" y="265.554" width="9.38785" height="687.178" rx="4.69392" transform="rotate(-90 761.821 265.554)" fill="url(#paint14_linear_0_1)"/>
<rect x="31.5498" y="511.649" width="9.38785" height="680.253" rx="4.69392" transform="rotate(-90 31.5498 511.649)" fill="url(#paint15_linear_0_1)"/>
<rect x="500.955" y="731.593" width="9.38785" height="866.476" rx="4.69393" transform="rotate(-90 500.955 731.593)" fill="url(#paint16_linear_0_1)"/>
<rect x="781.06" y="528.413" width="9.38785" height="651.011" rx="4.69392" transform="rotate(-90 781.06 528.413)" fill="url(#paint17_linear_0_1)"/>
<rect x="1128.85" y="907.709" width="9.54778" height="262.562" rx="4.77389" transform="rotate(-90 1128.85 907.709)" fill="url(#paint18_linear_0_1)"/>
<rect x="305.721" y="30.5479" width="9.54778" height="262.562" rx="4.77389" transform="rotate(-90 305.721 30.5479)" fill="url(#paint19_linear_0_1)"/>
<rect x="206.23" y="827.483" width="9.38785" height="771.056" rx="4.69393" transform="rotate(-90 206.23 827.483)" fill="url(#paint20_linear_0_1)"/>
<rect x="81.5684" y="344.68" width="10.0584" height="680.253" rx="5.0292" transform="rotate(-90 81.5684 344.68)" fill="url(#paint21_linear_0_1)"/>
<rect x="863.397" y="659.172" width="9.38784" height="504.033" rx="4.69392" transform="rotate(-90 863.397 659.172)" fill="url(#paint22_linear_0_1)"/>
<rect x="247.015" y="989.758" width="9.38784" height="464.788" rx="4.69392" transform="rotate(-90 247.015 989.758)" fill="url(#paint23_linear_0_1)"/>
<rect x="247.015" y="256.167" width="9.38784" height="403.996" rx="4.69392" transform="rotate(-90 247.015 256.167)" fill="url(#paint24_linear_0_1)"/>
<rect x="977.089" y="396.99" width="9.54778" height="262.562" rx="4.77389" transform="rotate(-90 977.089 396.99)" fill="url(#paint25_linear_0_1)"/>
<rect y="166.312" width="9.38786" height="975.747" rx="4.69393" transform="rotate(-90 0 166.312)" fill="url(#paint26_linear_0_1)"/>
<defs>
<linearGradient id="paint0_linear_0_1" x1="764.103" y1="0" x2="764.103" y2="1063" gradientUnits="userSpaceOnUse">
<stop stop-color="#6CA2F3"/>
<stop offset="1" stop-color="#F9F3F6"/>
</linearGradient>
<linearGradient id="paint1_linear_0_1" x1="1292.72" y1="409.546" x2="174.905" y2="409.55" gradientUnits="userSpaceOnUse">
<stop stop-color="#FEFEFE" stop-opacity="0"/>
<stop offset="1" stop-color="white"/>
</linearGradient>
<linearGradient id="paint2_linear_0_1" x1="1391.62" y1="414.763" x2="191.362" y2="414.766" gradientUnits="userSpaceOnUse">
<stop stop-color="#FEFEFE" stop-opacity="0"/>
<stop offset="1" stop-color="white"/>
</linearGradient>
<linearGradient id="paint3_linear_0_1" x1="1174.01" y1="3.91074" x2="-26.2413" y2="3.91478" gradientUnits="userSpaceOnUse">
<stop stop-color="#FEFEFE" stop-opacity="0"/>
<stop offset="1" stop-color="white"/>
</linearGradient>
<linearGradient id="paint4_linear_0_1" x1="1174.01" y1="3.91074" x2="-26.2413" y2="3.91478" gradientUnits="userSpaceOnUse">
<stop stop-color="#FEFEFE" stop-opacity="0"/>
<stop offset="1" stop-color="white"/>
</linearGradient>
<linearGradient id="paint5_linear_0_1" x1="1188.38" y1="747.358" x2="70.5611" y2="747.362" gradientUnits="userSpaceOnUse">
<stop stop-color="#FEFEFE" stop-opacity="0"/>
<stop offset="1" stop-color="white"/>
</linearGradient>
<linearGradient id="paint6_linear_0_1" x1="2673.97" y1="568.67" x2="1556.15" y2="568.674" gradientUnits="userSpaceOnUse">
<stop stop-color="#FEFEFE" stop-opacity="0"/>
<stop offset="1" stop-color="white"/>
</linearGradient>
<linearGradient id="paint7_linear_0_1" x1="2621.52" y1="838.659" x2="1363.97" y2="838.664" gradientUnits="userSpaceOnUse">
<stop stop-color="#FEFEFE" stop-opacity="0"/>
<stop offset="1" stop-color="white"/>
</linearGradient>
<linearGradient id="paint8_linear_0_1" x1="2521.37" y1="598.669" x2="1403.55" y2="598.671" gradientUnits="userSpaceOnUse">
<stop stop-color="#FEFEFE" stop-opacity="0"/>
<stop offset="1" stop-color="white"/>
</linearGradient>
<linearGradient id="paint9_linear_0_1" x1="129.641" y1="632.813" x2="129.641" y2="1136.83" gradientUnits="userSpaceOnUse">
<stop stop-color="white"/>
<stop offset="1" stop-color="#D9D9D9" stop-opacity="0"/>
</linearGradient>
<linearGradient id="paint10_linear_0_1" x1="830.465" y1="1004" x2="830.465" y2="1508.01" gradientUnits="userSpaceOnUse">
<stop stop-color="white"/>
<stop offset="1" stop-color="#D9D9D9" stop-opacity="0"/>
</linearGradient>
<linearGradient id="paint11_linear_0_1" x1="376.311" y1="401.219" x2="376.311" y2="905.232" gradientUnits="userSpaceOnUse">
<stop stop-color="white"/>
<stop offset="1" stop-color="#D9D9D9" stop-opacity="0"/>
</linearGradient>
<linearGradient id="paint12_linear_0_1" x1="504.608" y1="874.133" x2="504.608" y2="1378.15" gradientUnits="userSpaceOnUse">
<stop stop-color="white"/>
<stop offset="1" stop-color="#D9D9D9" stop-opacity="0"/>
</linearGradient>
<linearGradient id="paint13_linear_0_1" x1="607.304" y1="93.4492" x2="607.304" y2="597.462" gradientUnits="userSpaceOnUse">
<stop stop-color="white"/>
<stop offset="1" stop-color="#D9D9D9" stop-opacity="0"/>
</linearGradient>
<linearGradient id="paint14_linear_0_1" x1="766.515" y1="265.554" x2="766.515" y2="952.733" gradientUnits="userSpaceOnUse">
<stop stop-color="white"/>
<stop offset="1" stop-color="#D9D9D9" stop-opacity="0"/>
</linearGradient>
<linearGradient id="paint15_linear_0_1" x1="36.2437" y1="511.649" x2="36.2437" y2="1191.9" gradientUnits="userSpaceOnUse">
<stop stop-color="white"/>
<stop offset="1" stop-color="#D9D9D9" stop-opacity="0"/>
</linearGradient>
<linearGradient id="paint16_linear_0_1" x1="505.649" y1="731.593" x2="505.649" y2="1598.07" gradientUnits="userSpaceOnUse">
<stop stop-color="white"/>
<stop offset="1" stop-color="#D9D9D9" stop-opacity="0"/>
</linearGradient>
<linearGradient id="paint17_linear_0_1" x1="785.753" y1="528.413" x2="785.753" y2="1179.42" gradientUnits="userSpaceOnUse">
<stop stop-color="white"/>
<stop offset="1" stop-color="#D9D9D9" stop-opacity="0"/>
</linearGradient>
<linearGradient id="paint18_linear_0_1" x1="1133.63" y1="907.709" x2="1133.63" y2="1170.27" gradientUnits="userSpaceOnUse">
<stop stop-color="white"/>
<stop offset="1" stop-color="#D9D9D9" stop-opacity="0"/>
</linearGradient>
<linearGradient id="paint19_linear_0_1" x1="310.495" y1="30.5479" x2="310.495" y2="293.11" gradientUnits="userSpaceOnUse">
<stop stop-color="white"/>
<stop offset="1" stop-color="#D9D9D9" stop-opacity="0"/>
</linearGradient>
<linearGradient id="paint20_linear_0_1" x1="210.924" y1="827.483" x2="210.924" y2="1598.54" gradientUnits="userSpaceOnUse">
<stop stop-color="white"/>
<stop offset="1" stop-color="#D9D9D9" stop-opacity="0"/>
</linearGradient>
<linearGradient id="paint21_linear_0_1" x1="86.5976" y1="344.68" x2="86.5976" y2="1024.93" gradientUnits="userSpaceOnUse">
<stop stop-color="white"/>
<stop offset="1" stop-color="#D9D9D9" stop-opacity="0"/>
</linearGradient>
<linearGradient id="paint22_linear_0_1" x1="868.091" y1="659.172" x2="868.091" y2="1163.21" gradientUnits="userSpaceOnUse">
<stop stop-color="white"/>
<stop offset="1" stop-color="#D9D9D9" stop-opacity="0"/>
</linearGradient>
<linearGradient id="paint23_linear_0_1" x1="251.709" y1="989.758" x2="251.709" y2="1454.55" gradientUnits="userSpaceOnUse">
<stop stop-color="white"/>
<stop offset="1" stop-color="#D9D9D9" stop-opacity="0"/>
</linearGradient>
<linearGradient id="paint24_linear_0_1" x1="251.709" y1="256.167" x2="251.709" y2="660.163" gradientUnits="userSpaceOnUse">
<stop stop-color="white"/>
<stop offset="1" stop-color="#D9D9D9" stop-opacity="0"/>
</linearGradient>
<linearGradient id="paint25_linear_0_1" x1="981.863" y1="396.99" x2="981.863" y2="659.552" gradientUnits="userSpaceOnUse">
<stop stop-color="white"/>
<stop offset="1" stop-color="#D9D9D9" stop-opacity="0"/>
</linearGradient>
<linearGradient id="paint26_linear_0_1" x1="4.69393" y1="166.312" x2="4.69393" y2="1142.06" gradientUnits="userSpaceOnUse">
<stop stop-color="white"/>
<stop offset="1" stop-color="#D9D9D9" stop-opacity="0"/>
</linearGradient>
</defs>
</svg>
