<?xml version="1.0" encoding="utf-8"?>
<!-- Generator: Adobe Illustrator 23.0.5, SVG Export Plug-In . SVG Version: 6.00 Build 0)  -->
<svg version="1.1" id="Слой_1" xmlns="http://www.w3.org/2000/svg" xmlns:xlink="http://www.w3.org/1999/xlink" x="0px" y="0px"
	 width="1062.1px" height="1063px" viewBox="0 0 1062.1 1063" style="enable-background:new 0 0 1062.1 1063;" xml:space="preserve"
	>
<style type="text/css">
	.st0{fill:url(#SVGID_1_);}
	.st1{fill:url(#SVGID_2_);}
	.st2{fill:url(#SVGID_3_);}
	.st3{fill:url(#SVGID_4_);}
	.st4{fill:url(#SVGID_5_);}
	.st5{fill:url(#SVGID_6_);}
	.st6{fill:url(#SVGID_7_);}
	.st7{fill:url(#SVGID_8_);}
	.st8{fill:url(#SVGID_9_);}
	.st9{fill:url(#SVGID_10_);}
	.st10{fill:url(#SVGID_11_);}
	.st11{fill:url(#SVGID_12_);}
	.st12{fill:url(#SVGID_13_);}
	.st13{fill:url(#SVGID_14_);}
	.st14{fill:url(#SVGID_15_);}
	.st15{fill:url(#SVGID_16_);}
	.st16{fill:url(#SVGID_17_);}
	.st17{fill:url(#SVGID_18_);}
	.st18{fill:url(#SVGID_19_);}
	.st19{fill:url(#SVGID_20_);}
	.st20{fill:url(#SVGID_21_);}
	.st21{fill:url(#SVGID_22_);}
	.st22{fill:url(#SVGID_23_);}
	.st23{fill:url(#SVGID_24_);}
	.st24{fill:url(#SVGID_25_);}
	.st25{fill:url(#SVGID_26_);}
	.st26{fill:url(#SVGID_27_);}
</style>
<linearGradient id="SVGID_1_" gradientUnits="userSpaceOnUse" x1="530.85" y1="1061.8898" x2="530.85" y2="-1.1102" gradientTransform="matrix(1 0 0 -1 0 1061.8898)">
	<stop  offset="0" style="stop-color:#6CA2F3"/>
	<stop  offset="1" style="stop-color:#F9F3F6"/>
</linearGradient>
<rect y="0" class="st0" width="1061.7" height="1063"/>
<linearGradient id="SVGID_2_" gradientUnits="userSpaceOnUse" x1="1059.4646" y1="654.3284" x2="-58.3504" y2="654.3245" gradientTransform="matrix(1 0 0 -1 0 1061.8898)">
	<stop  offset="0" style="stop-color:#FEFEFE;stop-opacity:0"/>
	<stop  offset="1" style="stop-color:#FFFFFF"/>
</linearGradient>
<rect x="-33.9" y="405.6" class="st1" width="1043.4" height="3.9"/>
<linearGradient id="SVGID_3_" gradientUnits="userSpaceOnUse" x1="1158.3647" y1="649.7542" x2="-41.8933" y2="649.7513" gradientTransform="matrix(1 0 0 -1 0 1061.8898)">
	<stop  offset="0" style="stop-color:#FEFEFE;stop-opacity:0"/>
	<stop  offset="1" style="stop-color:#FFFFFF"/>
</linearGradient>
<rect x="-15.7" y="409.5" class="st2" width="1120.4" height="5.2"/>
<linearGradient id="SVGID_4_" gradientUnits="userSpaceOnUse" x1="1926.7546" y1="1059.9664" x2="726.5033" y2="1059.9623" gradientTransform="matrix(-1 0 0 -1 1826.1799 1206.6667)">
	<stop  offset="0" style="stop-color:#FEFEFE;stop-opacity:0"/>
	<stop  offset="1" style="stop-color:#FFFFFF"/>
</linearGradient>
<rect x="-47" y="144.8" class="st3" width="1120.4" height="3.9"/>
<linearGradient id="SVGID_5_" gradientUnits="userSpaceOnUse" x1="1926.7546" y1="1059.9664" x2="726.5033" y2="1059.9623" gradientTransform="matrix(-1 0 0 -1 1857.48 1196.2318)">
	<stop  offset="0" style="stop-color:#FEFEFE;stop-opacity:0"/>
	<stop  offset="1" style="stop-color:#FFFFFF"/>
</linearGradient>
<rect x="-15.7" y="134.3" class="st4" width="1120.4" height="3.9"/>
<linearGradient id="SVGID_6_" gradientUnits="userSpaceOnUse" x1="955.1246" y1="316.5173" x2="-162.6943" y2="316.5132" gradientTransform="matrix(1 0 0 -1 0 1061.8898)">
	<stop  offset="0" style="stop-color:#FEFEFE;stop-opacity:0"/>
	<stop  offset="1" style="stop-color:#FFFFFF"/>
</linearGradient>
<rect x="-138.3" y="743.4" class="st5" width="1043.4" height="3.9"/>
<linearGradient id="SVGID_7_" gradientUnits="userSpaceOnUse" x1="3426.7153" y1="275.2145" x2="2308.8955" y2="275.2104" gradientTransform="matrix(-1 0 0 1 3680.6699 287.6302)">
	<stop  offset="0" style="stop-color:#FEFEFE;stop-opacity:0"/>
	<stop  offset="1" style="stop-color:#FFFFFF"/>
</linearGradient>
<rect x="303.9" y="560.8" class="st6" width="1043.4" height="3.9"/>
<linearGradient id="SVGID_8_" gradientUnits="userSpaceOnUse" x1="3374.2654" y1="5.2282" x2="2116.7153" y2="5.2232" gradientTransform="matrix(-1 0 0 1 3302.4299 827.6083)">
	<stop  offset="0" style="stop-color:#FEFEFE;stop-opacity:0"/>
	<stop  offset="1" style="stop-color:#FFFFFF"/>
</linearGradient>
<rect x="-15.6" y="830.8" class="st7" width="1173.9" height="3.9"/>
<linearGradient id="SVGID_9_" gradientUnits="userSpaceOnUse" x1="3274.1152" y1="245.8475" x2="2156.2952" y2="245.8454" gradientTransform="matrix(-1 0 0 1 3375.47 345.0182)">
	<stop  offset="0" style="stop-color:#FEFEFE;stop-opacity:0"/>
	<stop  offset="1" style="stop-color:#FFFFFF"/>
</linearGradient>
<rect x="151.3" y="588.2" class="st8" width="1043.4" height="5.2"/>
<linearGradient id="SVGID_10_" gradientUnits="userSpaceOnUse" x1="499.3859" y1="812.0768" x2="499.3859" y2="308.0648" gradientTransform="matrix(6.123234e-17 -1 -1 -6.123234e-17 703.6888 1127.4249)">
	<stop  offset="0" style="stop-color:#FFFFFF"/>
	<stop  offset="1" style="stop-color:#D9D9D9;stop-opacity:0"/>
</linearGradient>
<path class="st9" d="M-108.4,628L-108.4,628c0-2.6,2.1-4.8,4.8-4.8h494.5c2.6,0,4.8,2.1,4.8,4.8l0,0c0,2.6-2.1,4.8-4.8,4.8h-494.5
	C-106.3,632.8-108.4,630.7-108.4,628z"/>
<linearGradient id="SVGID_11_" gradientUnits="userSpaceOnUse" x1="1200.2098" y1="440.8898" x2="1200.2098" y2="-63.1222" gradientTransform="matrix(6.123234e-17 -1 -1 -6.123234e-17 1033.3257 2199.4358)">
	<stop  offset="0" style="stop-color:#FFFFFF"/>
	<stop  offset="1" style="stop-color:#D9D9D9;stop-opacity:0"/>
</linearGradient>
<path class="st10" d="M592.4,999.2L592.4,999.2c0-2.6,2.1-4.8,4.8-4.8h494.5c2.6,0,4.8,2.1,4.8,4.8v0c0,2.6-2.1,4.8-4.8,4.8H597.2
	C594.6,1004,592.4,1001.9,592.4,999.2z"/>
<linearGradient id="SVGID_12_" gradientUnits="userSpaceOnUse" x1="746.0559" y1="1043.6708" x2="746.0559" y2="539.6588" gradientTransform="matrix(6.123234e-17 -1 -1 -6.123234e-17 1181.9528 1142.501)">
	<stop  offset="0" style="stop-color:#FFFFFF"/>
	<stop  offset="1" style="stop-color:#D9D9D9;stop-opacity:0"/>
</linearGradient>
<path class="st11" d="M138.3,396.4L138.3,396.4c0-2.6,2.1-4.8,4.8-4.8h494.5c2.6,0,4.8,2.1,4.8,4.8l0,0c0,2.6-2.1,4.8-4.8,4.8H143.1
	C140.4,401.2,138.3,399.1,138.3,396.4z"/>
<linearGradient id="SVGID_13_" gradientUnits="userSpaceOnUse" x1="874.3529" y1="570.7568" x2="874.3529" y2="66.7447" gradientTransform="matrix(6.123234e-17 -1 -1 -6.123234e-17 837.3358 1743.712)">
	<stop  offset="0" style="stop-color:#FFFFFF"/>
	<stop  offset="1" style="stop-color:#D9D9D9;stop-opacity:0"/>
</linearGradient>
<path class="st12" d="M266.6,869.4L266.6,869.4c0-2.6,2.1-4.8,4.8-4.8h494.5c2.6,0,4.8,2.1,4.8,4.8l0,0c0,2.6-2.1,4.8-4.8,4.8H271.4
	C268.7,874.1,266.6,872,266.6,869.4z"/>
<linearGradient id="SVGID_14_" gradientUnits="userSpaceOnUse" x1="977.049" y1="1351.4406" x2="977.049" y2="847.4286" gradientTransform="matrix(6.123234e-17 -1 -1 -6.123234e-17 1720.7156 1065.7242)">
	<stop  offset="0" style="stop-color:#FFFFFF"/>
	<stop  offset="1" style="stop-color:#D9D9D9;stop-opacity:0"/>
</linearGradient>
<path class="st13" d="M369.3,88.7L369.3,88.7c0-2.6,2.1-4.8,4.8-4.8h494.5c2.6,0,4.8,2.1,4.8,4.8v0c0,2.6-2.1,4.8-4.8,4.8H374
	C371.4,93.4,369.3,91.3,369.3,88.7z"/>
<linearGradient id="SVGID_15_" gradientUnits="userSpaceOnUse" x1="1136.2599" y1="1179.3358" x2="1136.2599" y2="492.1578" gradientTransform="matrix(6.123234e-17 -1 -1 -6.123234e-17 1707.9017 1397.12)">
	<stop  offset="0" style="stop-color:#FFFFFF"/>
	<stop  offset="1" style="stop-color:#D9D9D9;stop-opacity:0"/>
</linearGradient>
<path class="st14" d="M528.6,260.9L528.6,260.9c0-2.6,2.1-4.7,4.7-4.7h677.8c2.6,0,4.7,2.1,4.7,4.7v0c0,2.6-2.1,4.7-4.7,4.7H533.3
	C530.7,265.6,528.6,263.5,528.6,260.9z"/>
<linearGradient id="SVGID_16_" gradientUnits="userSpaceOnUse" x1="405.9887" y1="933.2408" x2="405.9887" y2="252.9878" gradientTransform="matrix(6.123234e-17 -1 -1 -6.123234e-17 731.5356 912.9438)">
	<stop  offset="0" style="stop-color:#FFFFFF"/>
	<stop  offset="1" style="stop-color:#D9D9D9;stop-opacity:0"/>
</linearGradient>
<path class="st15" d="M-201.7,507L-201.7,507c0-2.6,2.1-4.7,4.7-4.7h670.9c2.6,0,4.7,2.1,4.7,4.7v0c0,2.6-2.1,4.7-4.7,4.7H-197
	C-199.6,511.6-201.7,509.5-201.7,507z"/>
<linearGradient id="SVGID_17_" gradientUnits="userSpaceOnUse" x1="875.3939" y1="713.2968" x2="875.3939" y2="-153.1793" gradientTransform="matrix(6.123234e-17 -1 -1 -6.123234e-17 980.9967 1602.293)">
	<stop  offset="0" style="stop-color:#FFFFFF"/>
	<stop  offset="1" style="stop-color:#D9D9D9;stop-opacity:0"/>
</linearGradient>
<path class="st16" d="M267.7,726.9L267.7,726.9c0-2.6,2.1-4.7,4.7-4.7h857.1c2.6,0,4.7,2.1,4.7,4.7l0,0c0,2.6-2.1,4.7-4.7,4.7H272.4
	C269.8,731.6,267.7,729.5,267.7,726.9z"/>
<linearGradient id="SVGID_18_" gradientUnits="userSpaceOnUse" x1="1155.4989" y1="916.4767" x2="1155.4989" y2="265.4657" gradientTransform="matrix(6.123234e-17 -1 -1 -6.123234e-17 1464.2817 1679.218)">
	<stop  offset="0" style="stop-color:#FFFFFF"/>
	<stop  offset="1" style="stop-color:#D9D9D9;stop-opacity:0"/>
</linearGradient>
<path class="st17" d="M547.8,523.7L547.8,523.7c0-2.6,2.1-4.7,4.7-4.7h641.6c2.6,0,4.7,2.1,4.7,4.7v0c0,2.6-2.1,4.7-4.7,4.7H552.5
	C549.9,528.4,547.8,526.3,547.8,523.7z"/>
<linearGradient id="SVGID_19_" gradientUnits="userSpaceOnUse" x1="1503.3689" y1="537.1808" x2="1503.3689" y2="274.6188" gradientTransform="matrix(6.123234e-17 -1 -1 -6.123234e-17 1432.7758 2406.304)">
	<stop  offset="0" style="stop-color:#FFFFFF"/>
	<stop  offset="1" style="stop-color:#D9D9D9;stop-opacity:0"/>
</linearGradient>
<path class="st18" d="M895.6,902.9L895.6,902.9c0-2.6,2.1-4.8,4.8-4.8h253c2.6,0,4.8,2.1,4.8,4.8v0c0,2.6-2.1,4.8-4.8,4.8h-253
	C897.7,907.7,895.6,905.6,895.6,902.9z"/>
<linearGradient id="SVGID_20_" gradientUnits="userSpaceOnUse" x1="680.2399" y1="1414.3419" x2="680.2399" y2="1151.7798" gradientTransform="matrix(6.123234e-17 -1 -1 -6.123234e-17 1486.8079 706.0139)">
	<stop  offset="0" style="stop-color:#FFFFFF"/>
	<stop  offset="1" style="stop-color:#D9D9D9;stop-opacity:0"/>
</linearGradient>
<path class="st19" d="M72.5,25.8L72.5,25.8c0-2.6,2.1-4.8,4.8-4.8h253c2.6,0,4.8,2.1,4.8,4.8l0,0c0,2.6-2.1,4.8-4.8,4.8h-253
	C74.6,30.5,72.5,28.4,72.5,25.8z"/>
<linearGradient id="SVGID_21_" gradientUnits="userSpaceOnUse" x1="580.6689" y1="617.4068" x2="580.6689" y2="-153.6493" gradientTransform="matrix(6.123234e-17 -1 -1 -6.123234e-17 590.3818 1403.458)">
	<stop  offset="0" style="stop-color:#FFFFFF"/>
	<stop  offset="1" style="stop-color:#D9D9D9;stop-opacity:0"/>
</linearGradient>
<path class="st20" d="M-27,822.8L-27,822.8c0-2.6,2.1-4.7,4.7-4.7h761.7c2.6,0,4.7,2.1,4.7,4.7l0,0c0,2.6-2.1,4.7-4.7,4.7H-22.3
	C-24.9,827.5-27,825.4-27,822.8z"/>
<linearGradient id="SVGID_22_" gradientUnits="userSpaceOnUse" x1="456.3426" y1="1100.2097" x2="456.3426" y2="419.9568" gradientTransform="matrix(6.123234e-17 -1 -1 -6.123234e-17 948.5231 795.9933)">
	<stop  offset="0" style="stop-color:#FFFFFF"/>
	<stop  offset="1" style="stop-color:#D9D9D9;stop-opacity:0"/>
</linearGradient>
<path class="st21" d="M-151.7,339.7L-151.7,339.7c0-2.8,2.3-5,5-5h670.2c2.8,0,5,2.3,5,5l0,0c0,2.8-2.3,5-5,5h-670.2
	C-149.4,344.7-151.7,342.4-151.7,339.7z"/>
<linearGradient id="SVGID_23_" gradientUnits="userSpaceOnUse" x1="1237.8359" y1="785.7178" x2="1237.8359" y2="281.6848" gradientTransform="matrix(6.123234e-17 -1 -1 -6.123234e-17 1415.8597 1892.314)">
	<stop  offset="0" style="stop-color:#FFFFFF"/>
	<stop  offset="1" style="stop-color:#D9D9D9;stop-opacity:0"/>
</linearGradient>
<path class="st22" d="M630.1,654.5L630.1,654.5c0-2.6,2.1-4.7,4.7-4.7h494.6c2.6,0,4.7,2.1,4.7,4.7l0,0c0,2.6-2.1,4.7-4.7,4.7H634.8
	C632.2,659.2,630.1,657.1,630.1,654.5z"/>
<linearGradient id="SVGID_24_" gradientUnits="userSpaceOnUse" x1="621.4539" y1="455.1318" x2="621.4539" y2="-9.6563" gradientTransform="matrix(6.123234e-17 -1 -1 -6.123234e-17 468.8918 1606.5179)">
	<stop  offset="0" style="stop-color:#FFFFFF"/>
	<stop  offset="1" style="stop-color:#D9D9D9;stop-opacity:0"/>
</linearGradient>
<path class="st23" d="M13.8,985.1L13.8,985.1c0-2.6,2.1-4.7,4.7-4.7h455.4c2.6,0,4.7,2.1,4.7,4.7l0,0c0,2.6-2.1,4.7-4.7,4.7H18.5
	C15.9,989.8,13.8,987.7,13.8,985.1z"/>
<linearGradient id="SVGID_25_" gradientUnits="userSpaceOnUse" x1="621.4539" y1="1188.7228" x2="621.4539" y2="784.7268" gradientTransform="matrix(6.123234e-17 -1 -1 -6.123234e-17 1202.4828 872.927)">
	<stop  offset="0" style="stop-color:#FFFFFF"/>
	<stop  offset="1" style="stop-color:#D9D9D9;stop-opacity:0"/>
</linearGradient>
<path class="st24" d="M13.8,251.5L13.8,251.5c0-2.6,2.1-4.7,4.7-4.7h394.6c2.6,0,4.7,2.1,4.7,4.7v0c0,2.6-2.1,4.7-4.7,4.7H18.5
	C15.9,256.2,13.8,254.1,13.8,251.5z"/>
<linearGradient id="SVGID_26_" gradientUnits="userSpaceOnUse" x1="1351.6079" y1="1047.8998" x2="1351.6079" y2="785.3378" gradientTransform="matrix(6.123234e-17 -1 -1 -6.123234e-17 1791.7338 1743.824)">
	<stop  offset="0" style="stop-color:#FFFFFF"/>
	<stop  offset="1" style="stop-color:#D9D9D9;stop-opacity:0"/>
</linearGradient>
<path class="st25" d="M743.8,392.2L743.8,392.2c0-2.6,2.1-4.8,4.8-4.8h253c2.6,0,4.8,2.1,4.8,4.8v0c0,2.6-2.1,4.8-4.8,4.8h-253
	C746,397,743.8,394.9,743.8,392.2z"/>
<linearGradient id="SVGID_27_" gradientUnits="userSpaceOnUse" x1="374.4389" y1="1278.5778" x2="374.4389" y2="302.8308" gradientTransform="matrix(6.123234e-17 -1 -1 -6.123234e-17 1045.3228 536.057)">
	<stop  offset="0" style="stop-color:#FFFFFF"/>
	<stop  offset="1" style="stop-color:#D9D9D9;stop-opacity:0"/>
</linearGradient>
<path class="st26" d="M-233.3,161.6L-233.3,161.6c0-2.6,2.1-4.7,4.7-4.7h966.4c2.6,0,4.7,2.1,4.7,4.7l0,0c0,2.6-2.1,4.7-4.7,4.7
	h-966.4C-231.2,166.3-233.3,164.2-233.3,161.6z"/>
</svg>
