<svg width="1046" height="1063" viewBox="0 0 1046 1063" fill="none" xmlns="http://www.w3.org/2000/svg">
<mask id="mask0_122_3644" style="mask-type:alpha" maskUnits="userSpaceOnUse" x="0" y="0" width="1046" height="1063">
<rect width="1046" height="1063" fill="url(#paint0_linear_122_3644)"/>
</mask>
<g mask="url(#mask0_122_3644)">
<rect x="-10.3862" width="1062.7" height="1062.7" fill="url(#paint1_linear_122_3644)"/>
<rect x="14" y="410" width="1030" height="4" fill="url(#paint2_linear_122_3644)"/>
<rect width="1050" height="5" transform="matrix(-1 0 0 1 1050 144)" fill="url(#paint3_linear_122_3644)"/>
<rect width="1048" height="4" transform="matrix(-1 0 0 1 1048 133)" fill="url(#paint4_linear_122_3644)"/>
<rect y="744" width="906" height="4" fill="url(#paint5_linear_122_3644)"/>
<rect x="1044" y="565" width="740" height="4.00006" transform="rotate(180 1044 565)" fill="url(#paint6_linear_122_3644)"/>
<rect x="1042" y="836" width="1032" height="4.00009" transform="rotate(180 1042 836)" fill="url(#paint7_linear_122_3644)"/>
<rect x="1042" y="593" width="891" height="4.00008" transform="rotate(180 1042 593)" fill="url(#paint8_linear_122_3644)"/>
<path d="M1020.44 717.026C1017.49 708.847 1026.19 707.047 1033.24 700.013C1040.13 692.979 1045.38 691.834 1033.24 687.58C1021.1 683.327 1021.1 679.074 1025.69 675.148C1030.29 671.222 1013.55 676.62 1013.55 676.62C1013.55 676.62 1020.44 667.786 1006.01 660.588C991.407 653.554 975.821 644.23 972.376 655.19C968.931 666.15 965.978 670.731 960.236 667.95C954.494 665.169 944.486 664.024 942.19 669.095C939.893 674.003 949.08 677.601 939.237 679.728C929.393 681.855 928.245 675.475 920.042 676.947C911.839 678.419 911.839 682.673 909.542 684.472C907.246 686.272 897.402 684.472 891.004 687.744C884.606 691.016 881.161 689.871 878.208 685.944C875.255 682.018 868.364 679.892 862.458 679.892C856.716 679.892 849.17 673.185 846.217 671.712C843.264 670.24 832.272 667.786 829.975 674.493C827.678 681.2 820.624 685.454 817.179 683.327C813.734 681.2 799.789 678.419 792.734 672.694C785.844 666.968 774.688 674.166 770.587 669.913C766.485 665.66 753.689 658.298 746.142 657.48C738.596 656.826 718.909 660.588 717.104 669.913C715.3 679.074 723.995 688.725 707.753 687.253C691.512 685.781 635.076 688.235 630.483 696.414C625.889 704.593 635.076 719.807 645.084 723.079C653.287 725.696 670.184 725.205 670.348 732.403L1002.07 732.403C1002.23 732.403 1002.4 732.403 1002.56 732.24C1014.7 729.459 1023.4 725.205 1020.44 717.026Z" fill="url(#paint9_linear_122_3644)"/>
<path d="M317.135 874.714C320.259 872.268 314.997 869.823 317.628 867.703C323.382 862.976 335.714 859.063 335.878 856.454C336.372 848.303 343.77 837.706 339.331 835.587C337.523 834.609 336.043 829.881 329.795 831.348C325.191 832.489 315.984 839.825 311.709 840.315C307.763 840.804 304.474 835.261 302.83 836.565C296.911 840.804 278.825 849.118 273.892 846.021C268.96 842.923 264.849 834.935 254.655 840.152C244.461 845.368 230.65 843.575 222.594 837.543C217.497 833.793 217.168 835.75 207.632 842.434C206.152 843.575 202.863 838.521 199.575 839.825C196.615 840.967 193.82 848.466 192.176 849.77C189.052 852.379 186.257 856.291 182.147 854.498C182.147 854.498 180.996 850.096 183.297 840.967C185.599 832 191.19 822.381 188.723 819.284C186.421 816.349 182.969 823.197 175.57 826.131C172.117 827.435 164.554 823.034 161.759 825.153C157.484 828.413 154.524 837.054 154.524 837.054C154.524 837.054 150.578 829.392 142.85 829.718C136.767 829.881 127.888 837.217 120.983 839.662C111.775 842.923 101.581 855.639 100.266 856.291C98.786 857.107 101.746 864.117 95.8265 874.877C94.5112 877.322 92.867 879.931 91.3872 882.539L303.817 882.539C304.146 881.724 304.639 880.909 305.296 880.257C306.776 878.137 314.997 876.344 317.135 874.714Z" fill="url(#paint10_linear_122_3644)"/>
<path d="M721.479 811.378C715.966 813.857 712.958 814.518 712.123 811.378C711.288 808.237 708.949 805.428 706.61 805.428C704.271 805.428 704.271 802.287 703.602 800.469C702.934 798.651 698.924 798.321 697.421 798.651C695.917 798.982 691.239 794.519 690.738 793.032C690.07 791.709 692.576 789.561 693.411 787.082C694.246 784.602 700.094 777.661 704.605 779.809C708.949 781.958 711.622 793.362 714.796 790.222C717.971 787.082 716.801 782.123 717.971 782.619C719.14 782.95 722.983 785.429 723.317 786.42C723.651 787.412 729.498 788.9 730.334 786.09C731.169 783.28 735.847 783.611 738.019 787.082C740.024 790.552 735.346 799.973 738.019 800.634C740.692 801.296 743.7 805.593 746.039 809.725C748.378 813.857 745.036 825.096 736.348 825.096C735.513 825.096 729.833 818.485 724.988 818.485C720.142 818.485 716.968 825.096 716.801 822.286C716.133 819.642 721.479 811.378 721.479 811.378Z" fill="url(#paint11_linear_122_3644)"/>
<path d="M594.257 859.511C589.361 865.753 586.423 868.381 583.485 865.261C580.547 862.14 576.14 860.333 573.366 861.647C570.591 863.125 568.796 859.347 567 857.704C565.205 856.062 560.309 858.033 558.84 859.347C557.371 860.661 549.21 858.197 547.741 856.883C546.272 855.569 547.578 851.791 547.088 848.341C546.762 846.37 552.801 844.399 554.596 840.785C555.902 837.993 552.638 833.065 555.412 832.901C561.778 832.737 571.897 844.563 573.692 838.979C575.487 833.394 571.244 828.302 572.713 827.973C574.345 827.644 580.221 828.137 581.2 829.287C582.179 830.273 589.85 828.466 589.034 824.523C588.381 820.745 593.931 818.282 598.501 821.074C603.07 823.866 603.397 837.829 606.824 837.007C610.252 836.186 616.291 839.307 621.514 842.757C624.615 844.892 621.024 852.941 619.555 859.183C618.576 863.289 620.045 866.41 619.718 866.739C619.392 866.903 617.27 871.502 614.659 872.16C612.7 872.652 610.578 875.116 608.783 874.623C606.335 874.131 604.539 870.517 604.539 870.517C604.539 870.517 597.521 878.401 595.399 875.281C593.278 872.488 594.257 859.511 594.257 859.511Z" fill="url(#paint12_linear_122_3644)"/>
<path d="M1039.64 0C1043.7 1.23854 1047.43 2.47708 1051 3.71562V116.698C1049.22 116.836 1048.73 118.212 1048.08 121.79C1047.11 126.744 1039.81 134.175 1029.75 134.588C1019.69 135.001 1013.37 140.505 1003.47 145.735C993.413 150.964 998.117 157.432 974.109 162.662C950.101 167.891 959.51 159.084 949.128 150.964C938.746 142.707 944.099 149.175 942.153 151.652C940.206 154.129 933.88 152.203 933.231 151.102C932.582 150.001 928.364 145.047 922.362 150.139C916.36 155.093 916.36 152.891 916.036 151.928C915.712 150.964 905.654 148.762 901.112 153.304C896.408 157.845 892.515 154.267 875.157 150.139C857.8 146.01 861.207 143.808 861.207 149.175C861.207 154.68 854.88 153.304 845.634 154.405C836.388 155.506 827.952 146.698 826.979 151.24C826.006 155.781 812.055 151.24 813.029 152.34C814.002 153.441 812.704 155.643 808.649 158.808C804.593 161.974 802.971 160.597 801.025 159.496C799.078 158.396 800.051 157.157 793.4 153.992C786.749 150.827 781.396 152.891 781.396 154.405C781.396 156.056 774.097 164.451 767.77 166.24C761.444 168.029 760.795 174.497 755.442 174.909C750.089 175.322 749.764 168.029 747.818 165.964C745.871 163.9 742.789 164.863 741.816 168.992C740.842 173.12 732.894 173.12 727.216 173.12C721.539 173.12 718.943 175.873 712.941 180.827C706.939 185.781 700.937 184.267 686.986 180.827C673.036 177.386 668.332 177.386 657.301 177.799C646.27 178.212 646.919 176.423 642.052 175.322C637.024 174.221 637.673 176.01 631.671 175.322C625.669 174.634 630.373 165.964 627.291 168.029C624.371 170.093 614.313 171.744 607.338 171.882C600.363 172.157 592.414 169.818 584.303 169.13C576.355 168.441 574.246 166.79 568.731 162.937C563.053 159.084 561.107 154.542 555.429 150.414C549.751 146.285 537.098 140.093 535.801 142.157C534.503 144.221 528.501 145.184 524.446 143.946C520.39 142.845 513.09 143.258 507.088 143.946C501.086 144.634 499.14 143.533 496.707 141.882C494.436 140.23 494.111 140.23 489.407 139.542C484.703 138.854 481.134 139.542 481.458 136.377C481.783 133.212 481.458 130.735 475.132 131.973C468.805 133.349 469.13 133.625 466.859 128.946C464.588 124.404 462.155 126.882 454.855 127.157C447.555 127.432 447.231 127.57 447.231 124.129C447.231 120.689 442.526 122.065 433.604 122.065C424.683 122.065 423.223 120.964 422.574 118.9C421.925 116.836 407.325 119.175 406.514 117.524C405.865 115.872 399.539 116.423 393.213 117.111C386.886 117.799 392.888 119.588 393.213 122.615C393.537 125.643 392.239 129.221 388.508 127.157C384.777 125.093 386.237 122.065 379.911 122.753C373.584 123.441 366.933 123.716 365.636 126.056C364.338 128.395 357.363 129.771 352.01 130.872C346.656 131.973 350.387 140.643 346.332 145.46C342.277 150.276 334.652 154.405 328.002 153.441C321.351 152.478 322.648 149.588 321.026 150.689C319.404 151.79 316.971 152.753 311.78 150.689C306.427 148.625 303.182 148.625 301.723 149.313C300.425 150.001 294.747 149.038 291.665 146.561C288.745 144.084 284.041 144.084 279.661 143.12C275.281 142.157 265.062 140.643 261.006 146.561C256.951 152.478 255.004 152.065 253.058 152.203C251.111 152.478 245.433 149.451 245.109 153.166C244.785 156.882 236.512 158.808 234.403 155.506C232.456 152.065 221.75 154.129 218.343 156.469C214.937 158.808 200.986 166.24 195.795 162.662C190.442 158.946 190.118 157.432 190.118 157.432C169.841 150.827 185.738 145.322 177.465 140.781C169.192 136.239 164.812 118.487 162.216 117.111C159.621 115.735 155.89 117.111 153.943 115.735C151.997 114.359 148.266 113.258 148.59 110.505C148.915 107.753 141.939 106.377 139.993 106.652C138.046 106.927 129.935 106.927 128.638 104.175C127.34 101.56 121.662 103.9 120.04 104.037C118.418 104.313 112.74 104.037 110.307 102.386C108.036 100.735 106.901 98.2575 104.63 97.8447C102.359 97.4318 100.899 96.7437 102.034 94.9547C103.007 93.3034 101.061 93.3034 99.4387 90.6887C97.8165 88.2116 95.0589 88.6244 88.0836 88.6244C81.1082 88.6244 81.7571 93.3034 72.0241 91.1015C70.2397 90.6887 66.3465 88.074 65.0488 87.5235C63.7511 86.9731 60.6689 86.5602 60.02 87.2483C59.3712 87.9363 54.9914 87.2483 54.9914 87.2483C54.9914 87.2483 53.0448 86.1474 52.3959 84.3584C51.7471 82.5693 48.6649 83.2574 48.6649 83.2574C48.6649 83.2574 45.7451 83.2574 44.2851 84.2207C42.9874 85.184 41.6896 83.2574 39.9053 81.606C38.2831 79.9547 32.6055 79.4042 29.1989 81.1932C13.1395 90.0006 6.1642 84.496 -2.50958e-05 82.1565V0H1039.64Z" fill="url(#paint13_linear_122_3644)"/>
<path d="M429.265 52.6363C438.78 60.9001 444.651 64.4017 450.32 60.1998C455.989 55.9979 464.491 53.6168 469.755 55.4376C475.019 57.3985 478.663 52.4963 482.105 50.1152C485.547 47.8742 495.062 50.6755 497.896 52.3562C500.73 54.037 516.522 50.8155 519.558 49.1347C522.595 47.454 519.761 42.2716 520.571 37.7895C521.178 35.2684 509.436 32.6071 505.994 27.7049C503.362 23.9231 509.638 17.4802 504.375 17.3401C492.025 17.06 472.59 32.8873 469.148 25.3238C465.706 17.7603 474.007 11.1773 470.97 10.7571C467.933 10.3369 456.596 11.0372 454.571 12.4379C452.749 13.8385 437.97 11.3174 439.185 6.13497C440.602 1.09265 429.67 -2.12882 420.964 1.65291C412.259 5.43465 411.651 23.9232 404.971 22.9427C398.29 21.9623 386.547 26.0241 376.425 30.6462C370.351 33.4475 377.235 44.2325 380.271 52.4963C382.094 57.8187 379.259 62.1607 380.069 62.4409C380.879 62.721 384.928 68.7437 389.989 69.5841C393.836 70.2844 397.885 73.5059 401.529 72.9457C406.185 72.2454 409.627 67.6232 409.627 67.6232C409.627 67.6232 423.394 78.1281 427.24 74.0662C431.289 70.0043 429.265 52.6363 429.265 52.6363Z" fill="url(#paint14_linear_122_3644)"/>
<path d="M995.141 112.01C997.029 108.073 1001.48 112.632 1004.17 108.28C1006.87 103.928 1010.92 101.233 1013.48 103.306C1015.91 105.378 1017.79 100.197 1019.28 97.71C1020.89 95.4302 1025.48 98.3318 1026.83 100.197C1028.18 102.062 1035.73 98.539 1037.07 96.6737C1038.42 94.8084 1047.59 84.6531 1048 79.8862C1048.27 77.1919 1032.36 79.2645 1030.6 74.0831C1029.39 70.1453 1032.36 63.306 1029.79 63.0987C1024 62.8915 1014.69 79.4717 1013.07 71.5961C1011.46 63.7205 1015.37 56.6739 1014.02 56.2594C1012.53 55.8449 1007.14 56.6739 1006.2 58.1247C1005.25 59.5754 998.242 56.8811 998.916 51.4926C999.59 46.104 994.332 42.7879 990.287 46.7257C986.107 50.6635 985.837 70.3526 982.601 69.1091C979.365 68.0728 973.837 72.4251 969.117 77.1919C966.151 80.0935 930.689 81.5443 932.037 90.2489C932.307 92.3214 936.083 105.586 941.341 108.487C944.847 110.56 949.162 97.9172 953.342 97.71C960.083 97.71 966.825 109.316 970.735 110.56C971.14 110.767 973.028 117.192 975.455 118.228C977.208 118.85 979.23 122.373 980.983 121.751C983.14 120.922 984.893 116.156 984.893 116.156C984.893 116.156 991.365 127.347 993.253 122.995C995.276 118.643 995.141 112.01 995.141 112.01Z" fill="url(#paint15_linear_122_3644)"/>
<path d="M473.446 0.38272C471.824 11.099 476.691 23.1549 471.621 27.1735C466.552 31.1921 439.177 38.8467 434.31 34.828C429.443 30.8094 412.815 24.3031 407.138 29.4699C401.257 34.828 394.971 46.3098 385.846 41.9085C376.721 37.5071 362.121 43.248 352.387 53.0075C342.654 62.767 332.718 54.7298 316.292 35.2108C316.292 35.2108 319.537 75.9711 312.845 85.7306C305.951 95.4901 282.428 70.6129 282.428 70.6129C282.428 70.6129 276.345 81.5206 268.436 83.2428C262.353 84.5824 255.053 76.9279 248.564 75.397C240.047 73.292 232.95 59.1311 231.531 58.557C230.111 57.9829 234.978 47.8407 231.936 35.2108C229.097 23.9203 223.622 10.3336 222 0H473.446C473.446 0 473.446 0.191357 473.446 0.38272Z" fill="url(#paint16_linear_122_3644)"/>
<path d="M882.264 16.4526C878.624 25.2039 889.343 27.1292 898.04 34.6554C906.535 42.1816 913.007 43.4068 898.04 47.9575C883.073 52.5082 883.073 57.0589 888.737 61.2595C894.4 65.4602 873.77 59.6843 873.77 59.6843C873.77 59.6843 882.264 69.1358 864.466 76.837C846.465 84.3631 827.251 94.3397 823.003 82.6129C818.756 70.886 815.115 65.9853 808.036 68.9607C800.957 71.9362 788.619 73.1614 785.788 67.7355C782.956 62.4847 794.283 58.6341 782.147 56.3588C770.012 54.0834 768.596 60.9095 758.483 59.3342C748.37 57.759 748.37 53.2083 745.539 51.283C742.707 49.3577 730.572 51.283 722.684 47.7824C714.796 44.2819 710.548 45.5071 706.908 49.7077C703.267 53.9084 694.772 56.1837 687.491 56.1837C680.412 56.1837 671.108 63.3599 667.468 64.9351C663.827 66.5103 650.276 69.1358 647.444 61.9596C644.613 54.7835 635.916 50.2328 631.668 52.5082C627.421 54.7835 610.229 57.759 601.532 63.885C593.037 70.0109 579.284 62.3097 574.227 66.8604C569.171 71.4111 553.395 79.2874 544.091 80.1625C534.787 80.8626 510.516 76.837 508.292 66.8604C506.067 57.0589 516.786 46.7323 496.763 48.3075C476.74 49.8828 407.163 47.2574 401.5 38.506C395.837 29.7546 407.163 13.4771 419.501 9.97655C429.614 7.17611 450.446 7.7012 450.648 0H859.612C859.814 0 860.016 -1.60268e-05 860.218 0.175011C875.185 3.15047 885.905 7.70119 882.264 16.4526Z" fill="url(#paint17_linear_122_3644)"/>
<path d="M248.72 10.1531C252.065 13.326 246.432 16.4988 249.249 19.2487C255.41 25.3829 268.614 30.4594 268.79 33.8438C269.319 44.42 277.241 58.1691 272.488 60.9189C270.551 62.188 268.967 68.3222 262.277 66.4185C257.347 64.9378 247.488 55.4193 242.911 54.7847C238.685 54.1501 235.164 61.3419 233.404 59.6497C227.066 54.1501 207.7 43.3624 202.419 47.3813C197.137 51.4003 192.736 61.765 181.82 54.9962C170.905 48.2275 156.117 50.5542 147.49 58.3806C142.032 63.2456 141.68 60.7074 131.469 52.0349C129.885 50.5542 126.364 57.1115 122.843 55.4193C119.674 53.9386 116.681 44.2085 114.92 42.5163C111.575 39.1319 108.582 34.0553 104.181 36.3821C104.181 36.3821 102.949 42.0933 105.413 53.9386C107.878 65.5724 113.864 78.0523 111.223 82.0713C108.759 85.8787 105.061 76.9947 97.139 73.1873C93.4419 71.4951 85.3435 77.2062 82.3506 74.4564C77.7732 70.2259 74.6042 59.0152 74.6042 59.0152C74.6042 59.0152 70.379 68.9568 62.1045 68.5337C55.5905 68.3222 46.0837 58.8036 38.6895 55.6308C28.8306 51.4003 17.9152 34.9014 16.5068 34.0553C14.9223 32.9977 18.0914 23.9022 11.7535 9.94162C10.345 6.76876 8.58448 3.38438 7.00001 0H234.46C234.812 1.05762 235.34 2.11523 236.045 2.96132C237.629 5.71113 246.432 8.03788 248.72 10.1531Z" fill="url(#paint18_linear_122_3644)"/>
<path d="M787.589 99.9817C787.589 99.9817 785.964 100.409 788.807 101.479C791.651 102.548 789.62 102.334 790.432 103.617C791.042 104.9 793.276 105.756 794.089 105.542C794.901 105.114 795.714 106.398 795.917 108.108C796.12 109.819 798.151 108.322 800.183 109.178C802.214 110.033 804.245 109.605 806.48 111.958C808.714 114.31 809.527 115.38 811.152 115.38C812.777 115.166 812.98 112.386 815.418 113.883C818.058 115.38 818.668 115.807 820.09 114.738C821.512 113.455 825.981 117.091 821.918 110.247C817.652 103.617 820.09 102.976 815.011 100.623C809.73 98.2708 809.324 97.4154 807.496 94.8491C805.667 92.2828 804.652 90.358 803.23 91.2135C801.605 92.0689 798.761 89.5026 796.933 87.1501C795.104 84.7976 794.495 83.0867 792.87 83.5145C791.245 84.1561 788.604 87.364 785.151 86.2947C781.698 85.2254 778.448 86.5085 778.448 88.2194C778.448 89.9303 778.854 95.2768 780.073 95.0629C781.495 94.8491 784.135 94.2075 782.713 97.2015C780.885 100.196 786.573 100.196 787.589 99.9817Z" fill="url(#paint19_linear_122_3644)"/>
<rect x="10" y="326" width="1040" height="5" fill="url(#paint20_linear_122_3644)"/>
<path d="M27.3312 437.193L5.10297 447.88C1.9837 449.38 0 452.534 0 455.995C0 460.969 4.03149 465 9.00459 465H292.691C297.832 465 302 460.832 302 455.691C302 452.374 300.235 449.308 297.367 447.642L278.376 436.61C275.935 435.191 273.162 434.444 270.339 434.444H251.976C247.539 434.444 243.3 436.287 240.274 439.533L234.949 445.245C231.922 448.49 227.684 450.333 223.246 450.333H202.675C200.536 450.333 198.419 449.904 196.448 449.072L161.826 434.444L134.274 423.959C129.4 422.104 123.928 422.741 119.61 425.666L89.6097 445.987C85.5568 448.732 80.4702 449.471 75.8037 447.992L39.097 436.361C35.2122 435.13 31.004 435.428 27.3312 437.193Z" fill="url(#paint21_linear_122_3644)"/>
<path d="M509.263 400.683C489.079 416.15 458.323 439.731 445.111 449.908C441.234 452.895 439 457.492 439 462.386V470C439 478.837 446.163 486 455 486H1034C1042.84 486 1050 478.837 1050 470V462.107C1050 457.372 1047.92 452.88 1044.25 449.878C1026.21 435.093 997.32 412.749 991.748 413.727C983.981 415.091 929.612 454.636 920.551 454.636C911.489 454.636 814.403 435.545 798.869 426C783.335 416.455 708.254 396 700.487 396C692.72 396 642.235 430.091 630.585 426C621.894 422.948 559.26 407.014 522.85 397.873C518.12 396.686 513.133 397.717 509.263 400.683Z" fill="url(#paint22_linear_122_3644)"/>
<path d="M11.3443 340C7.29279 341.77 3.56536 343.541 0 345.311V506.802C1.78268 506.999 2.26887 508.966 2.91712 514.08C3.88949 521.161 11.1823 531.783 21.2301 532.373C31.278 532.963 37.5984 540.831 47.4842 548.306C57.532 555.78 52.8322 565.025 76.8174 572.5C100.803 579.975 91.403 567.386 101.775 555.78C112.147 543.978 106.799 553.223 108.744 556.764C110.688 560.305 117.009 557.551 117.657 555.977C118.305 554.404 122.519 547.322 128.515 554.6C134.511 561.682 134.511 558.534 134.836 557.157C135.16 555.78 145.208 552.633 149.745 559.124C154.445 565.615 158.335 560.501 175.675 554.6C193.016 548.699 189.613 545.552 189.613 553.223C189.613 561.091 195.933 559.124 205.171 560.698C214.408 562.272 222.835 549.683 223.808 556.174C224.78 562.665 238.717 556.174 237.745 557.747C236.773 559.321 238.069 562.468 242.121 566.992C246.172 571.517 247.793 569.55 249.738 567.976C251.682 566.402 250.71 564.632 257.355 560.108C263.999 555.584 269.347 558.534 269.347 560.698C269.347 563.058 276.64 575.057 282.96 577.614C289.281 580.171 289.929 589.416 295.277 590.006C300.625 590.596 300.949 580.171 302.894 577.221C304.839 574.27 307.918 575.647 308.89 581.548C309.863 587.449 317.804 587.449 323.476 587.449C329.148 587.449 331.741 591.383 337.737 598.464C343.734 605.546 349.73 603.382 363.667 598.464C377.605 593.547 382.304 593.547 393.325 594.137C404.345 594.727 403.697 592.17 408.558 590.596C413.582 589.023 412.934 591.58 418.93 590.596C424.927 589.613 420.227 577.221 423.306 580.171C426.223 583.122 436.271 585.482 443.24 585.679C450.208 586.072 458.149 582.728 466.253 581.745C474.194 580.761 476.3 578.401 481.81 572.893C487.483 567.386 489.427 560.895 495.1 554.994C500.772 549.093 513.413 540.241 514.709 543.192C516.006 546.142 522.002 547.519 526.053 545.749C530.105 544.175 537.398 544.765 543.394 545.749C549.39 546.732 551.335 545.159 553.766 542.798C556.035 540.438 556.359 540.438 561.059 539.454C565.759 538.471 569.324 539.454 569 534.93C568.676 530.406 569 526.865 575.32 528.636C581.641 530.603 581.317 530.996 583.585 524.308C585.854 517.817 588.285 521.358 595.578 521.751C602.871 522.145 603.195 522.341 603.195 517.424C603.195 512.506 607.895 514.473 616.808 514.473C625.722 514.473 627.18 512.9 627.828 509.949C628.477 506.999 643.062 510.343 643.872 507.982C644.521 505.622 650.841 506.409 657.162 507.392C663.482 508.376 657.486 510.933 657.162 515.26C656.837 519.588 658.134 524.702 661.861 521.751C665.589 518.801 664.13 514.473 670.451 515.457C676.771 516.44 683.416 516.834 684.712 520.178C686.009 523.522 692.977 525.489 698.325 527.062C703.673 528.636 699.946 541.028 703.997 547.912C708.049 554.797 715.666 560.698 722.311 559.321C728.955 557.944 727.659 553.813 729.279 555.387C730.9 556.961 733.331 558.338 738.517 555.387C743.865 552.437 747.106 552.437 748.565 553.42C749.861 554.404 755.533 553.027 758.612 549.486C761.53 545.945 766.229 545.945 770.605 544.569C774.981 543.192 785.191 541.028 789.242 549.486C793.294 557.944 795.238 557.354 797.183 557.551C799.128 557.944 804.8 553.617 805.124 558.928C805.448 564.239 813.713 566.992 815.82 562.272C817.765 557.354 828.461 560.305 831.864 563.648C835.268 566.992 849.205 577.614 854.391 572.5C859.739 567.189 860.063 565.025 860.063 565.025C880.321 555.584 864.439 547.716 872.704 541.225C880.969 534.734 885.345 509.359 887.938 507.392C890.531 505.425 894.258 507.392 896.203 505.425C898.148 503.458 901.875 501.885 901.551 497.951C901.227 494.017 908.196 492.05 910.14 492.443C912.085 492.836 920.188 492.836 921.485 488.902C922.781 485.165 928.453 488.509 930.074 488.706C931.695 489.099 937.367 488.706 939.798 486.345C942.067 483.985 943.201 480.444 945.47 479.854C947.739 479.264 949.197 478.28 948.063 475.723C947.091 473.363 949.035 473.363 950.656 469.626C952.276 466.085 955.032 466.675 962 466.675C968.969 466.675 968.321 473.363 978.044 470.216C979.827 469.626 983.717 465.888 985.013 465.102C986.31 464.315 989.389 463.725 990.037 464.708C990.685 465.692 995.061 464.708 995.061 464.708C995.061 464.708 997.006 463.135 997.654 460.577C998.302 458.02 1001.38 459.004 1001.38 459.004C1001.38 459.004 1004.3 459.004 1005.76 460.381C1007.05 461.758 1008.35 459.004 1010.13 456.643C1011.75 454.283 1017.43 453.496 1020.83 456.053C1036.87 468.642 1043.84 460.774 1050 457.43V340H11.3443Z" fill="url(#paint23_linear_122_3644)"/>
<path d="M715.498 478.236C705.905 490.559 699.986 495.781 694.271 489.515C688.556 483.249 679.983 479.698 674.677 482.413C669.37 485.337 665.696 478.027 662.226 474.476C658.757 471.134 649.164 475.311 646.306 477.818C643.449 480.324 627.528 475.52 624.467 473.014C621.405 470.507 624.263 462.779 623.446 456.095C622.834 452.335 634.672 448.367 638.142 441.056C640.795 435.416 634.468 425.808 639.775 425.599C652.225 425.181 671.819 448.784 675.289 437.505C678.759 426.226 670.39 416.409 673.452 415.782C676.514 415.155 687.944 416.2 689.985 418.289C691.822 420.377 706.721 416.618 705.496 408.889C704.068 401.37 715.089 396.566 723.866 402.205C732.642 407.845 733.255 435.416 739.99 433.954C746.726 432.492 758.564 438.549 768.769 445.442C774.892 449.62 767.953 465.703 764.891 478.027C763.054 485.964 765.911 492.439 765.095 492.857C764.279 493.275 760.197 502.256 755.094 503.51C751.216 504.554 747.134 509.358 743.46 508.523C738.766 507.478 735.296 500.585 735.296 500.585C735.296 500.585 721.417 516.251 717.539 510.194C713.457 504.136 715.498 478.236 715.498 478.236Z" fill="url(#paint24_linear_122_3644)"/>
<path d="M111.99 548.089C109.128 544.178 102.381 548.707 98.2924 544.384C94.2035 540.062 88.0701 537.386 84.1856 539.444C80.5056 541.503 77.6433 536.357 75.3944 533.887C72.9411 531.622 65.9899 534.504 63.9455 536.357C61.901 538.209 50.452 534.71 48.4075 532.857C46.3631 531.005 32.4607 520.919 31.8474 516.185C31.4385 513.509 55.5632 515.567 58.221 510.422C60.061 506.511 55.5632 499.718 59.4476 499.512C68.2388 499.307 82.3456 515.773 84.799 507.952C87.2523 500.13 81.3234 493.132 83.3678 492.72C85.6168 492.308 93.7946 493.132 95.2257 494.572C96.6568 496.013 107.288 493.337 106.266 487.986C105.244 482.634 113.217 479.341 119.35 483.252C125.688 487.162 126.097 506.717 131.004 505.482C135.911 504.452 144.293 508.775 151.448 513.509C155.946 516.391 209.716 517.832 207.671 526.477C207.262 528.535 201.538 541.708 193.564 544.59C188.249 546.648 181.706 534.092 175.369 533.887C165.146 533.887 154.924 545.413 148.995 546.648C148.382 546.854 145.519 553.235 141.839 554.264C139.182 554.882 136.115 558.381 133.457 557.763C130.186 556.94 127.528 552.206 127.528 552.206C127.528 552.206 117.715 563.321 114.853 558.998C111.786 554.676 111.99 548.089 111.99 548.089Z" fill="url(#paint25_linear_122_3644)"/>
<path d="M23.9015 450.396C23.9015 450.396 15.5655 459.792 28.6903 470.557C41.815 481.323 55.8266 494.829 60.9701 482.302C66.1136 469.775 69.8382 464.881 74.9817 469.187C80.3026 473.494 89.7028 476.43 92.8953 470.753C95.9105 465.273 87.3971 459.596 97.5067 458.617C107.616 457.639 107.616 465.468 115.952 465.077C124.111 464.685 124.82 459.596 127.481 458.03C129.964 456.269 139.541 459.988 146.281 457.247C153.021 454.507 156.391 456.269 158.519 461.358C160.825 466.447 167.21 470.166 173.063 470.949C178.738 471.928 185.124 481.127 187.784 483.281C190.444 485.434 200.909 490.131 204.279 482.498C207.649 474.864 215.098 470.949 218.29 474.081C221.305 477.213 234.608 482.693 240.638 490.719C246.668 498.548 258.551 491.893 261.921 497.57C265.291 503.246 276.642 514.207 283.914 516.165C291.186 518.318 311.228 516.752 314.42 506.182C317.613 495.612 310.518 482.889 326.304 487.195C342.089 491.502 397.781 497.765 403.811 488.761C409.664 479.953 402.924 460.379 393.701 454.898C384.478 449.613 362.663 447.656 373.127 433.954C383.769 420.252 389.977 407.921 386.784 397.547C383.592 387.172 376.142 381.3 354.327 378.56C332.511 375.82 292.96 383.062 276.11 387.172C259.261 391.283 258.551 378.756 256.068 371.905C253.408 365.054 225.562 359.965 200.909 356.441C176.255 352.722 165.259 373.666 147.523 376.015C129.787 378.168 82.0762 358.79 77.2874 360.16C72.4987 361.531 61.857 370.926 61.857 378.56C62.0343 386.389 56.3587 385.019 43.9434 386.389C31.5281 387.76 22.3052 391.479 23.7241 401.461C25.3204 411.64 16.4523 412.227 8.471 419.469C0.489707 426.712 -4.83116 427.103 6.52001 434.15C17.8712 441.197 17.1617 446.286 12.0182 450.005C6.34265 453.92 23.9015 450.396 23.9015 450.396Z" fill="url(#paint26_linear_122_3644)"/>
<path d="M684.558 443.468C684.558 443.468 689.242 449.903 676.004 445.544C662.766 441.184 670.505 445.959 664.396 448.243C658.49 450.526 647.899 447.204 646.27 443.468C644.641 439.731 637.717 441.392 632.421 446.789C627.126 452.187 623.868 441.392 614.092 437.862C604.317 434.333 598.614 426.652 584.358 428.313C570.102 429.974 563.993 431.427 558.697 426.029C553.402 420.632 560.938 410.667 547.293 407.968C533.648 405.477 530.389 405.269 528.353 396.757C526.316 388.038 500.859 386.585 534.259 376.205C567.658 365.825 560.734 356.69 585.988 363.956C611.241 371.222 614.907 369.562 628.756 366.24C642.604 362.918 650.751 359.389 654.213 366.863C657.471 374.336 674.579 374.544 687.816 371.43C700.85 368.316 708.386 364.994 712.255 371.43C716.125 377.866 716.532 396.965 731.806 404.023C747.284 411.082 755.227 424.991 750.135 431.219C745.044 437.447 729.362 454.471 725.086 449.488C720.809 444.713 712.663 434.126 710.219 448.865C707.775 463.605 687.613 446.789 684.558 443.468Z" fill="url(#paint27_linear_122_3644)"/>
<path d="M254.754 258.473C246.587 258.313 245.44 260.393 244.724 263.753C244.151 267.114 230.826 263.433 230.253 265.993C229.68 268.554 223.948 267.914 218.217 266.794C212.486 265.673 217.93 262.633 218.217 257.833C218.504 253.033 217.357 247.112 213.919 250.313C210.623 253.673 211.769 258.633 206.038 257.513C200.307 256.393 194.289 255.913 193 252.233C191.853 248.552 185.406 246.312 180.534 244.392C175.663 242.472 178.958 228.391 175.376 220.551C171.794 212.71 164.773 205.99 158.755 207.59C152.738 209.03 153.884 213.99 152.451 212.07C150.875 210.15 148.869 208.71 143.997 212.07C139.269 215.271 136.26 215.271 134.971 214.15C133.824 213.03 128.666 214.47 125.944 218.631C123.222 222.791 118.923 222.791 115.055 224.231C111.186 225.671 101.73 228.391 98.1475 218.631C94.5655 209.03 92.7028 209.67 90.8402 209.35C88.9775 209.03 83.8194 213.83 83.5328 207.91C83.2463 201.99 75.6524 198.63 73.7897 204.23C71.9271 209.83 62.3273 206.47 59.3183 202.79C56.3094 199.11 51.4379 201.35 46.5663 207.27C41.6948 213.19 41.4082 215.751 41.4082 215.751C22.925 226.471 37.5396 235.432 29.9457 242.952C22.3518 250.473 18.4833 279.434 16.0475 281.674C13.6117 283.915 10.3162 281.674 8.45358 283.915C6.59093 286.155 3.29546 288.075 3.58203 292.395C3.72531 294.795 1.86265 296.555 0 297.675V378H333.272L338 371.12C336.424 372.24 303.039 258.953 254.754 258.473Z" fill="url(#paint28_linear_122_3644)"/>
<path d="M1051 334C1050.01 332.998 1049.02 330.393 1048.03 325.985C1045.55 313.762 1044.23 310.556 1039.28 312.961C1034.33 315.365 1034 313.963 1033.01 303.543C1032.02 293.324 1024.26 278.296 1013.7 277.294C1003.14 276.292 996.534 265.071 986.136 254.451C975.573 243.631 976.068 228.202 950.816 217.583C925.563 206.762 939.922 227 929.194 243.832C918.301 260.663 915.495 247.038 913.515 242.028C911.369 236.818 908.893 239.624 908.233 242.028C907.573 244.433 907.243 256.054 900.971 245.835C894.699 235.616 894.699 240.225 894.369 242.028C894.039 243.832 883.476 248.641 878.689 239.223C873.738 229.805 869.612 237.42 851.456 245.835C833.301 254.251 836.767 258.86 836.767 247.639C836.767 236.418 830.165 239.223 820.262 236.818C810.524 234.414 801.777 252.648 800.621 243.431C799.631 234.013 784.942 243.431 785.932 241.026C786.922 238.622 783.456 224.195 779.33 217.583C775.204 210.97 775.534 213.775 773.388 216.18C771.243 218.584 772.398 231.208 765.301 237.62C758.369 244.232 752.757 240.024 752.757 236.618C752.757 233.412 745 215.98 738.398 212.373C731.796 208.566 731.136 195.541 725.524 194.54C719.913 193.538 719.583 208.566 717.437 212.774C715.291 216.981 712.155 215.178 711.165 206.762C710.175 198.347 701.757 198.347 695.816 198.347C689.874 198.347 687.068 192.736 680.796 182.517C674.524 172.298 668.252 175.504 653.563 182.517C638.874 189.53 633.922 189.53 622.369 188.528C610.816 187.526 611.476 191.334 606.359 193.738C601.078 196.143 601.738 192.335 595.466 193.738C589.194 195.141 594.146 212.974 590.845 208.766C587.709 204.558 577.146 201.352 569.884 200.751C562.621 200.35 554.204 204.959 545.786 206.362C537.369 207.764 535.223 210.97 529.282 218.985C523.34 227 521.194 236.217 515.252 244.633C513.107 247.639 510.136 251.245 507 254.251V334H1051Z" fill="url(#paint29_linear_122_3644)"/>
<path d="M670.8 430.202C672.436 441.789 667.53 454.825 672.64 459.17C677.751 463.515 705.35 471.792 710.256 467.447C715.163 463.102 731.926 456.066 737.651 461.653C743.579 467.447 749.917 479.862 759.116 475.103C768.316 470.344 783.035 476.551 792.848 487.104C802.661 497.657 812.678 488.966 829.237 467.861C829.237 467.861 825.966 511.934 832.713 522.487C839.664 533.039 863.378 506.14 863.378 506.14C863.378 506.14 869.511 517.935 877.484 519.797C883.617 521.245 890.977 512.968 897.519 511.313C906.105 509.037 913.26 493.725 914.691 493.105C916.122 492.484 911.216 481.517 914.282 467.861C917.144 455.653 922.664 440.962 924.3 429.788H670.8C670.8 429.788 670.8 429.995 670.8 430.202Z" fill="url(#paint30_linear_122_3644)"/>
<path d="M791.456 403.485C787.981 399.689 794.114 349.927 799.226 346.131C826.213 324.624 795.954 310.497 791.456 302.062C787.163 293.628 788.39 300.586 787.572 306.49C786.754 312.394 785.323 314.081 784.096 304.593C782.87 295.104 782.256 292.574 780.007 294.471C777.758 296.369 777.554 295.104 777.145 287.091C776.736 279.079 773.056 267.482 768.149 266.638C763.242 266.006 760.176 257.15 755.269 248.715C750.362 240.281 750.566 228.262 738.913 220.039C727.259 211.604 733.802 227.419 728.895 240.492C723.784 253.565 722.557 243.022 721.535 239.016C720.512 235.009 713.152 237.751 712.539 239.016C710.699 242.6 707.428 244.076 705.179 236.907C702.93 229.527 700.885 235.431 692.503 241.968C684.12 248.504 685.756 252.089 685.756 243.444C685.756 234.799 661.631 240.07 662.244 238.383C662.653 236.485 664.493 235.009 662.449 229.738C660.404 224.677 657.542 228.262 656.52 230.16C655.497 232.057 655.906 230.792 652.635 235.853C649.364 240.914 646.706 237.751 646.706 235.22C646.706 232.69 649.568 218.352 646.502 215.611C643.435 212.659 639.141 210.339 636.483 209.496C633.826 208.863 627.692 218.563 627.283 211.815C626.874 205.279 622.99 205.279 620.128 205.279C617.265 205.279 616.039 200.851 613.176 192.838C610.314 184.825 607.247 187.356 600.5 192.838C593.754 198.32 591.3 198.32 585.984 197.477C580.669 196.844 580.873 199.585 578.42 201.483C575.966 203.381 576.375 200.429 573.309 201.483C570.446 202.537 572.695 216.454 571.264 213.08C569.833 209.707 564.926 207.176 561.45 206.965C557.975 206.544 554.09 210.339 550.206 211.393C546.321 212.448 545.299 214.978 542.641 221.304C539.779 227.419 536.303 233.744 533.441 240.281C530.578 246.818 524.445 249.348 523.832 245.974C523.218 242.6 515.449 252.511 512.587 251.456C509.725 250.402 506.249 257.36 504 258.415C501.751 259.469 499.911 258.415 500.115 263.475C500.32 268.536 492.346 272.331 491.733 275.705C490.302 282.874 492.755 279.711 489.075 279.29C485.395 278.868 480.897 286.037 476.604 286.037C472.31 286.037 471.492 287.935 471.288 291.098C470.879 294.471 463.723 290.676 463.519 293.206C463.11 295.736 460.043 295.104 456.977 293.839C453.91 292.784 454.114 294.26 454.319 289.622C454.523 284.983 449.207 289.2 447.572 292.363C445.732 295.737 449.412 298.056 446.345 297.002C443.278 295.947 442.461 297.845 441.643 294.26C441.029 290.676 439.598 294.682 436.94 292.784C434.283 290.887 441.234 288.778 439.394 280.976C437.349 273.386 433.669 266.849 430.398 268.325C427.127 269.801 427.74 274.44 426.922 272.753C426.105 270.855 418.131 276.127 417.518 274.862C416.904 273.807 414.042 275.283 412.611 279.29C411.18 283.296 403.411 294.682 401.366 296.158C399.322 297.634 398.299 295.315 396.255 285.826C394.21 276.338 390.939 275.705 389.917 275.283C388.895 274.862 380.103 271.066 379.081 276.548C378.059 282.031 372.948 278.657 371.312 275.072C369.676 271.488 367.019 273.596 364.565 279.5C361.907 285.404 361.703 287.935 361.703 287.935C351.685 298.478 353.729 286.248 349.64 293.417C345.551 300.797 337.169 294.682 335.738 296.791C334.511 298.899 328.786 298.056 327.764 300.165C326.742 302.273 316.519 307.545 316.724 311.973C316.928 316.401 337.987 325.257 336.965 324.835C335.942 324.413 332.058 324.413 331.444 328.63C330.831 332.847 327.969 329.052 327.151 328.841C326.333 328.419 323.471 328.841 322.449 331.371C321.222 333.902 320.813 337.908 319.586 338.751C318.36 339.384 317.746 340.649 318.36 343.39C318.768 346.131 317.951 346.131 317.133 350.138C316.315 354.144 315.088 353.512 311.613 353.512C308.137 353.512 304.048 347.607 303.844 349.505C303.435 351.403 300.981 354.144 300.368 355.198C299.755 356.253 298.323 356.674 297.915 355.62C297.506 354.566 294.439 357.518 294.234 360.259C293.826 363.211 292.394 362.157 292.394 362.157C292.394 362.157 288.919 362.157 288.101 364.898C287.283 367.639 284.83 366.585 282.99 365.53C280.945 364.476 280.332 365.109 276.652 365.53C272.972 365.952 270.109 371.434 270.109 371.434C269.496 372.489 268.269 373.543 267.656 365.741C267.452 363.844 259.887 361.102 254.162 365.741C252.322 367.217 252.936 371.224 252.322 376.917C251.913 380.923 247.62 379.025 247.62 379.025C243.326 377.128 240.26 376.495 230.037 389.779C219.815 403.274 217.157 414.66 204.277 420.353C192.01 425.836 220.224 433.637 225.13 464.844H764.674C769.376 453.669 772.443 442.072 784.301 433.637C817.013 411.076 794.932 407.28 791.456 403.485Z" fill="url(#paint31_linear_122_3644)"/>
<path d="M919.121 442.436C918.096 435.052 920.966 426.437 918.096 423.771C915.022 420.899 899.036 415.566 896.167 418.438C893.297 421.309 883.665 425.822 880.181 422.13C876.697 418.438 873.007 410.438 867.679 413.515C862.35 416.592 853.742 412.489 848.004 405.721C842.265 398.747 836.526 404.49 826.894 418.233C826.894 418.233 828.738 389.722 824.844 382.953C820.95 376.184 807.014 393.414 807.014 393.414C807.014 393.414 803.529 385.825 798.816 384.594C795.126 383.773 791.027 389.106 787.133 390.132C782.215 391.568 777.911 401.618 777.296 402.029C776.476 402.439 779.345 409.618 777.501 418.438C775.246 429.104 770.327 442.436 771.352 449.82H912.768C916.457 446.744 919.531 444.692 919.121 442.436Z" fill="url(#paint32_linear_122_3644)"/>
<path d="M257.185 439.434C260.869 449.893 250.022 452.194 241.222 461.189C232.627 470.183 226.078 471.647 241.222 477.086C256.366 482.524 256.366 487.963 250.636 492.983C244.906 498.003 265.78 491.1 265.78 491.1C265.78 491.1 257.185 502.396 275.194 511.6C293.408 520.594 312.85 532.517 317.147 518.502C321.445 504.488 325.129 498.631 332.292 502.187C339.454 505.743 351.938 507.207 354.803 500.723C357.668 494.447 346.208 489.845 358.487 487.126C370.766 484.407 372.198 492.565 382.431 490.682C392.663 488.8 392.663 483.361 395.529 481.06C398.394 478.759 410.673 481.06 418.654 476.877C426.635 472.693 430.933 474.157 434.617 479.178C438.3 484.198 446.896 486.917 454.263 486.917C461.426 486.917 470.84 495.493 474.523 497.376C478.207 499.258 491.919 502.396 494.784 493.82C497.649 485.244 506.449 479.805 510.747 482.524C515.044 485.244 532.44 488.8 541.239 496.121C549.835 503.442 563.751 494.238 568.867 499.677C573.984 505.115 589.946 514.528 599.36 515.574C608.774 516.411 633.332 511.6 635.583 499.677C637.834 487.963 626.988 475.622 647.248 477.504C667.509 479.387 737.908 476.249 743.639 465.79C749.369 455.332 737.908 435.878 725.425 431.695C715.192 428.348 694.113 428.976 693.909 419.772H280.106C279.901 419.772 279.696 419.772 279.492 419.981C264.348 423.537 253.501 428.976 257.185 439.434Z" fill="url(#paint33_linear_122_3644)"/>
<path d="M9.91662 547.607C15.7994 553.693 25.716 555.841 28.0691 545.28C30.4222 534.719 21.0098 527.201 30.9264 522.727C41.0111 518.252 42.1877 531.676 50.2554 528.812C58.4913 525.769 58.4913 516.82 60.8444 513.061C63.1975 509.302 73.1141 513.061 79.6691 506.259C86.0561 499.457 89.5858 501.784 92.6112 510.018C95.4685 518.252 102.528 522.727 108.411 522.727C114.293 522.727 121.857 537.046 124.882 539.91C127.908 542.953 139.001 548.144 141.354 533.824C143.707 519.505 150.766 510.555 154.296 515.03C157.826 519.505 171.944 525.59 179.003 537.583C186.063 549.576 197.156 534.54 201.358 543.669C203.039 547.428 212.787 549.576 216.485 554.23C221.695 560.674 221.695 569.086 226.065 569.981C229.595 570.697 235.478 550.471 241.192 546.891C248.084 542.774 254.471 554.409 255.479 543.669C257.16 524.158 248.42 503.932 264.891 506.975C273.127 508.407 291.448 524.158 308.424 521.116C316.66 519.684 315.987 511.271 322.206 504.469C325.736 500.531 331.451 508.049 335.821 505.006C339.518 502.5 342.544 489.433 343.048 487.464C344.561 481.915 349.099 471.892 347.754 460.436C347.25 455.424 340.359 450.233 340.359 444.863C340.359 438.24 334.476 431.618 334.812 425.711C335.652 413.36 342.88 403.694 339.182 401.188C329.265 394.386 313.466 411.928 304.726 400.472C297.163 390.448 299.852 378.635 304.222 367H0V560.316C2.68925 547.607 5.37851 542.953 9.91662 547.607Z" fill="url(#paint34_linear_122_3644)"/>
<path d="M1033.45 439.527C1024.59 437.958 1022.18 429.719 1016.74 424.227C1011.3 418.931 1010.79 408.338 1006.87 412.065C1002.95 415.792 998.518 415.792 998.012 412.065C997.506 408.338 991.684 402.846 987.761 403.631C983.838 404.415 987.761 410.496 980.421 403.631C973.081 396.765 974.979 403.631 974.979 403.631C973.461 399.904 963.716 380.092 960.299 393.038C956.883 405.984 953.466 394.607 951.441 389.311C949.543 384.015 937.647 396.177 933.724 400.688C929.8 405.2 932.711 419.715 941.064 429.523C944.86 434.035 946.379 440.115 947.138 446H1048C1045.72 440.9 1041.67 440.9 1033.45 439.527Z" fill="url(#paint35_linear_122_3644)"/>
<path d="M809.185 430.376C805.852 433.932 811.465 437.487 808.659 440.568C802.52 447.441 789.365 453.129 789.19 456.921C788.664 468.772 780.771 484.177 785.507 487.258C787.436 488.681 789.015 495.554 795.68 493.421C800.591 491.762 810.413 481.096 814.973 480.385C819.182 479.674 822.69 487.733 824.444 485.836C830.758 479.674 850.052 467.587 855.313 472.09C860.575 476.593 864.96 488.207 875.834 480.622C886.709 473.038 901.442 475.645 910.036 484.414C915.473 489.866 915.824 487.021 925.997 477.304C927.575 475.645 931.083 482.992 934.591 481.096C937.748 479.437 940.73 468.535 942.484 466.639C945.816 462.847 948.798 457.158 953.183 459.765C953.183 459.765 954.411 466.165 951.955 479.437C949.5 492.473 943.536 506.456 946.167 510.959C948.623 515.226 952.306 505.271 960.199 501.005C963.882 499.109 971.95 505.508 974.932 502.427C979.492 497.687 982.649 485.125 982.649 485.125C982.649 485.125 986.858 496.265 995.102 495.791C1001.59 495.554 1011.06 484.888 1018.43 481.333C1028.25 476.593 1039.13 458.106 1040.53 457.158C1042.11 455.973 1038.95 445.782 1045.26 430.139C1046.67 426.584 1048.42 422.792 1050 419H823.392C823.041 420.185 822.515 421.37 821.813 422.318C820.235 425.399 811.465 428.006 809.185 430.376Z" fill="url(#paint36_linear_122_3644)"/>
<path d="M854.406 401.063C847.688 404.142 844.024 404.964 843.006 401.063C841.989 397.162 839.139 393.672 836.289 393.672C833.439 393.672 833.439 389.771 832.625 387.513C831.81 385.255 826.925 384.844 825.093 385.255C823.261 385.665 817.561 380.122 816.95 378.275C816.136 376.632 819.189 373.963 820.207 370.884C821.225 367.804 828.35 359.182 833.846 361.85C839.139 364.519 842.396 378.685 846.263 374.784C850.131 370.884 848.706 364.725 850.131 365.341C851.556 365.751 856.238 368.831 856.645 370.062C857.052 371.294 864.177 373.142 865.195 369.652C866.213 366.162 871.913 366.572 874.559 370.884C877.002 375.195 871.302 386.897 874.559 387.718C877.816 388.54 881.48 393.877 884.33 399.01C887.18 404.142 883.109 418.103 872.523 418.103C871.505 418.103 864.584 409.891 858.681 409.891C852.778 409.891 848.91 418.103 848.706 414.613C847.892 411.328 854.406 401.063 854.406 401.063Z" fill="url(#paint37_linear_122_3644)"/>
<path d="M711.092 345.473C704.374 348.643 700.71 349.489 699.692 345.473C698.674 341.458 695.824 337.865 692.974 337.865C690.124 337.865 690.124 333.85 689.31 331.525C688.496 329.2 683.61 328.778 681.778 329.2C679.946 329.623 674.246 323.917 673.636 322.015C672.821 320.324 675.875 317.577 676.893 314.407C677.911 311.237 685.035 302.36 690.532 305.108C695.824 307.855 699.081 322.438 702.949 318.422C706.817 314.407 705.392 308.067 706.817 308.701C708.242 309.123 712.924 312.293 713.331 313.561C713.738 314.829 720.863 316.731 721.881 313.139C722.898 309.546 728.598 309.969 731.244 314.407C733.687 318.845 727.987 330.891 731.244 331.736C734.502 332.582 738.166 338.077 741.016 343.36C743.865 348.643 739.794 363.014 729.209 363.014C728.191 363.014 721.27 354.561 715.366 354.561C709.463 354.561 705.595 363.014 705.392 359.422C704.578 356.04 711.092 345.473 711.092 345.473Z" fill="url(#paint38_linear_122_3644)"/>
<path d="M354.435 390.546C347.717 393.716 344.053 394.561 343.035 390.546C342.017 386.53 339.168 382.937 336.318 382.937C333.468 382.937 333.468 378.922 332.653 376.597C331.839 374.273 326.954 373.85 325.122 374.273C323.29 374.695 317.59 368.989 316.979 367.087C316.165 365.396 319.218 362.649 320.236 359.479C321.254 356.309 328.379 347.433 333.875 350.18C339.168 352.927 342.425 367.51 346.292 363.494C350.16 359.479 348.735 353.139 350.16 353.773C351.585 354.195 356.267 357.366 356.674 358.634C357.081 359.902 364.206 361.804 365.224 358.211C366.242 354.618 371.941 355.041 374.588 359.479C377.031 363.917 371.331 375.963 374.588 376.809C377.845 377.654 381.509 383.149 384.359 388.432C387.209 393.716 383.138 408.087 372.552 408.087C371.534 408.087 364.613 399.633 358.71 399.633C352.806 399.633 348.939 408.087 348.735 404.494C347.921 401.324 354.435 390.546 354.435 390.546Z" fill="url(#paint39_linear_122_3644)"/>
<path d="M549.835 372.878C549.835 372.878 552.081 374.751 546.975 374.335C541.869 373.919 545.137 374.959 543.094 376.415C541.256 377.663 537.171 377.455 536.354 376.415C535.537 375.167 533.086 376.415 531.86 378.912C530.431 381.2 528.388 377.871 524.712 377.455C521.035 377.039 518.176 374.959 513.478 376.831C508.576 378.704 506.533 379.744 504.286 378.496C502.04 377.039 503.674 372.878 498.772 373.295C493.665 373.711 492.644 373.919 491.214 371.006C489.785 368.094 480.593 369.966 491.419 363.309C502.244 356.651 498.976 353.947 508.576 354.363C518.176 354.571 519.197 353.739 523.895 351.242C528.388 348.746 531.043 346.874 532.882 349.162C534.72 351.45 540.643 349.994 545.137 347.706C549.426 345.417 551.673 343.545 553.715 345.417C555.758 347.29 557.392 353.947 563.519 355.195C569.647 356.235 573.528 360.396 572.302 363.101C571.077 365.805 566.992 373.086 565.153 371.838C563.111 370.59 559.434 367.677 559.843 372.878C559.843 377.871 551.264 373.711 549.835 372.878Z" fill="url(#paint40_linear_122_3644)"/>
<path d="M353.208 536.355C353.208 536.355 354.849 536.78 351.976 537.842C349.103 538.904 351.155 538.692 350.335 539.966C349.719 541.241 347.461 542.091 346.641 541.878C345.82 541.453 344.999 542.728 344.794 544.427C344.588 546.127 342.536 544.64 340.484 545.489C338.432 546.339 336.38 545.914 334.122 548.251C331.865 550.588 331.044 551.65 329.402 551.65C327.76 551.438 327.555 548.676 325.092 550.163C322.424 551.65 321.809 552.075 320.372 551.013C318.936 549.738 314.421 553.349 318.525 546.552C322.835 539.966 320.372 539.329 325.503 536.992C330.839 534.655 331.249 533.806 333.096 531.257C334.943 528.707 335.969 526.796 337.406 527.645C339.047 528.495 341.92 525.946 343.767 523.609C345.614 521.272 346.23 519.573 347.872 519.998C349.514 520.635 352.182 523.822 355.67 522.759C359.159 521.697 362.443 522.972 362.443 524.671C362.443 526.371 362.032 531.681 360.801 531.469C359.364 531.257 356.696 530.619 358.133 533.593C359.98 536.567 354.234 536.567 353.208 536.355Z" fill="url(#paint41_linear_122_3644)"/>
<path d="M27.9118 496.783C27.9118 496.783 29.1719 497.212 26.9667 498.283C24.7614 499.355 26.3366 499.141 25.7065 500.427C25.234 501.713 23.5013 502.57 22.8712 502.141C22.2412 501.713 21.6111 502.998 21.4536 504.713C21.2961 506.428 19.7209 504.927 18.1458 505.785C16.5706 506.642 14.9954 506.213 13.2628 508.571C11.5301 510.928 10.9 512 9.63987 512C8.37974 511.786 8.22223 508.999 6.33203 510.5C4.28432 512 3.81176 512.429 2.70915 511.357C1.60653 510.071 -1.85883 513.715 1.2915 506.856C4.59934 500.212 2.70915 499.569 6.64706 497.212C10.7425 494.854 11.0575 493.997 12.4752 491.425C13.8928 488.853 14.6804 486.924 15.783 487.781C17.0431 488.639 19.2484 486.067 20.666 483.709C22.0837 481.352 22.5562 479.637 23.8163 480.066C25.0765 480.709 27.1242 483.924 29.802 482.852C32.4797 481.78 35 483.066 35 484.781C35 486.496 34.685 491.854 33.7399 491.639C32.6373 491.425 30.5895 490.782 31.6922 493.783C32.9523 496.783 28.6993 496.783 27.9118 496.783Z" fill="url(#paint42_linear_122_3644)"/>
<path d="M72.2437 385.319C66.0305 393.301 62.3025 396.661 58.5746 392.67C54.8466 388.68 49.2547 386.369 45.7338 388.05C42.213 389.94 39.9348 385.109 37.6566 383.009C35.3784 380.908 29.1651 383.429 27.3011 385.109C25.4372 386.789 15.0817 383.639 13.2177 381.959C11.3537 380.278 13.0106 375.447 12.3893 371.037C11.9751 368.516 19.6381 365.996 21.9163 361.375C23.5732 357.804 19.431 351.503 22.9518 351.293C31.0291 351.083 43.8698 366.206 46.148 359.065C48.4262 351.923 43.0414 345.412 44.9054 344.992C46.9765 344.572 54.4324 345.202 55.675 346.672C56.9177 347.933 66.6518 345.622 65.6163 340.581C64.7878 335.75 71.8295 332.6 77.6286 336.171C83.4276 339.741 83.8418 357.594 88.1911 356.544C92.5404 355.494 100.203 359.485 106.831 363.895C110.766 366.626 106.21 376.918 104.346 384.899C103.103 390.15 104.967 394.141 104.553 394.561C104.138 394.771 101.446 400.652 98.1323 401.492C95.647 402.122 92.9546 405.273 90.6764 404.643C87.5698 404.012 85.2916 399.392 85.2916 399.392C85.2916 399.392 76.3859 409.473 73.6935 405.483C71.0011 401.912 72.2437 385.319 72.2437 385.319Z" fill="url(#paint43_linear_122_3644)"/>
<path d="M575.881 296.634C569.773 304.616 566.109 307.976 562.444 303.986C558.779 299.995 553.282 297.684 550.024 299.365C546.563 301.255 544.324 296.424 542.084 294.324C539.844 292.223 533.736 294.744 531.904 296.424C530.072 298.104 519.892 294.954 518.059 293.274C516.227 291.593 517.856 286.762 517.245 282.352C516.838 279.831 524.371 277.311 526.61 272.69C528.239 269.119 524.167 262.818 527.628 262.608C535.569 262.398 548.192 277.521 550.432 270.38C552.671 263.238 547.378 256.727 549.21 256.307C551.246 255.887 558.575 256.517 559.797 257.987C561.019 259.248 570.588 256.937 569.57 252.106C568.755 247.276 575.678 244.125 581.378 247.696C587.079 251.266 587.486 269.119 591.762 268.069C596.038 267.019 603.571 271.01 610.086 275.42C613.954 278.151 609.475 288.443 607.643 296.424C606.421 301.675 608.253 305.666 607.846 306.086C607.439 306.296 604.792 312.177 601.535 313.017C599.092 313.647 596.445 316.798 594.205 316.168C591.151 315.538 588.912 310.917 588.912 310.917C588.912 310.917 580.157 320.999 577.51 317.008C574.66 313.437 575.881 296.634 575.881 296.634Z" fill="url(#paint44_linear_122_3644)"/>
<path d="M543.101 785.93C542.117 785.11 541.133 782.979 540.149 779.373C537.689 769.375 536.377 766.752 531.458 768.719C526.538 770.686 526.211 769.539 525.227 761.015C524.243 752.656 516.535 740.363 506.041 739.543C495.546 738.723 488.986 729.544 478.655 720.857C468.16 712.006 468.652 699.385 443.563 690.698C418.473 681.846 432.74 698.401 422.081 712.17C411.258 725.938 408.47 714.792 406.502 710.695C404.371 706.433 401.911 708.728 401.255 710.695C400.599 712.662 400.271 722.168 394.04 713.809C387.808 705.45 387.808 709.22 387.48 710.695C387.152 712.17 376.657 716.104 371.902 708.4C366.982 700.696 362.883 706.925 344.845 713.809C326.806 720.693 330.25 724.463 330.25 715.284C330.25 706.105 323.691 708.4 313.852 706.433C304.177 704.466 295.486 719.382 294.338 711.842C293.354 704.138 278.759 711.842 279.743 709.875C280.727 707.908 277.283 696.107 273.184 690.698C269.084 685.289 269.412 687.583 267.28 689.55C265.149 691.517 266.296 701.844 259.245 707.089C252.358 712.498 246.782 709.056 246.782 706.269C246.782 703.647 239.075 689.386 232.516 686.436C225.957 683.322 225.301 672.667 219.725 671.848C214.15 671.028 213.822 683.322 211.69 686.764C209.558 690.206 206.442 688.731 205.459 681.846C204.475 674.962 196.111 674.962 190.208 674.962C184.305 674.962 181.517 670.373 175.286 662.013C169.054 653.654 162.823 656.276 148.228 662.013C133.634 667.75 128.714 667.75 117.235 666.931C105.757 666.111 106.412 669.225 101.329 671.192C96.0815 673.159 96.7374 670.045 90.5061 671.192C84.2747 672.34 89.1942 686.928 85.9145 683.486C82.7988 680.043 72.3039 677.421 65.0886 676.929C57.8733 676.601 49.5102 680.371 41.147 681.519C32.7838 682.666 30.652 685.289 24.7486 691.845C18.8452 698.401 16.7134 705.941 10.81 712.826C8.67823 715.284 5.72653 718.235 2.61084 720.693V785.93H543.101Z" fill="url(#paint45_linear_122_3644)"/>
</g>
<defs>
<linearGradient id="paint0_linear_122_3644" x1="523" y1="0" x2="523" y2="1063" gradientUnits="userSpaceOnUse">
<stop stop-color="#626D7C"/>
<stop offset="1" stop-color="#708CA7"/>
</linearGradient>
<linearGradient id="paint1_linear_122_3644" x1="520.965" y1="0" x2="520.965" y2="1062.7" gradientUnits="userSpaceOnUse">
<stop stop-color="#626D7C"/>
<stop offset="1" stop-color="#708CA7"/>
</linearGradient>
<linearGradient id="paint2_linear_122_3644" x1="1093.3" y1="413.998" x2="-10.1242" y2="414.001" gradientUnits="userSpaceOnUse">
<stop stop-color="#FEFEFE" stop-opacity="0"/>
<stop offset="1" stop-color="white"/>
</linearGradient>
<linearGradient id="paint3_linear_122_3644" x1="1100.25" y1="4.99726" x2="-24.5926" y2="5.00004" gradientUnits="userSpaceOnUse">
<stop stop-color="#FEFEFE" stop-opacity="0"/>
<stop offset="1" stop-color="white"/>
</linearGradient>
<linearGradient id="paint4_linear_122_3644" x1="1098.16" y1="3.99781" x2="-24.5458" y2="4.00127" gradientUnits="userSpaceOnUse">
<stop stop-color="#FEFEFE" stop-opacity="0"/>
<stop offset="1" stop-color="white"/>
</linearGradient>
<linearGradient id="paint5_linear_122_3644" x1="949.363" y1="747.998" x2="-21.2199" y2="748" gradientUnits="userSpaceOnUse">
<stop stop-color="#FEFEFE" stop-opacity="0"/>
<stop offset="1" stop-color="white"/>
</linearGradient>
<linearGradient id="paint6_linear_122_3644" x1="1819.42" y1="568.998" x2="1026.67" y2="569" gradientUnits="userSpaceOnUse">
<stop stop-color="#FEFEFE" stop-opacity="0"/>
<stop offset="1" stop-color="white"/>
</linearGradient>
<linearGradient id="paint7_linear_122_3644" x1="2123.39" y1="839.998" x2="1017.83" y2="840.001" gradientUnits="userSpaceOnUse">
<stop stop-color="#FEFEFE" stop-opacity="0"/>
<stop offset="1" stop-color="white"/>
</linearGradient>
<linearGradient id="paint8_linear_122_3644" x1="1975.64" y1="596.998" x2="1021.13" y2="597" gradientUnits="userSpaceOnUse">
<stop stop-color="#FEFEFE" stop-opacity="0"/>
<stop offset="1" stop-color="white"/>
</linearGradient>
<linearGradient id="paint9_linear_122_3644" x1="834.974" y1="659.027" x2="834.974" y2="741.136" gradientUnits="userSpaceOnUse">
<stop stop-color="white"/>
<stop offset="1" stop-color="#666E83"/>
</linearGradient>
<linearGradient id="paint10_linear_122_3644" x1="215.811" y1="818.36" x2="215.811" y2="882.331" gradientUnits="userSpaceOnUse">
<stop stop-color="white"/>
<stop offset="1" stop-color="#666E83"/>
</linearGradient>
<linearGradient id="paint11_linear_122_3644" x1="718.502" y1="825.265" x2="718.502" y2="779.499" gradientUnits="userSpaceOnUse">
<stop stop-color="white"/>
<stop offset="1" stop-color="#666E83"/>
</linearGradient>
<linearGradient id="paint12_linear_122_3644" x1="584.829" y1="876.38" x2="584.829" y2="820.128" gradientUnits="userSpaceOnUse">
<stop stop-color="white"/>
<stop offset="1" stop-color="#666E83"/>
</linearGradient>
<linearGradient id="paint13_linear_122_3644" x1="525.424" y1="203.437" x2="525.424" y2="19.3478" gradientUnits="userSpaceOnUse">
<stop stop-color="white"/>
<stop offset="1" stop-color="#666E83"/>
</linearGradient>
<linearGradient id="paint14_linear_122_3644" x1="447.526" y1="75.0179" x2="447.526" y2="0.071447" gradientUnits="userSpaceOnUse">
<stop stop-color="white"/>
<stop offset="1" stop-color="#666E83"/>
</linearGradient>
<linearGradient id="paint15_linear_122_3644" x1="990.113" y1="124.023" x2="990.113" y2="44.9128" gradientUnits="userSpaceOnUse">
<stop stop-color="white"/>
<stop offset="1" stop-color="#666E83"/>
</linearGradient>
<linearGradient id="paint16_linear_122_3644" x1="347.65" y1="87.9546" x2="347.65" y2="-0.138163" gradientUnits="userSpaceOnUse">
<stop stop-color="white"/>
<stop offset="1" stop-color="#666E83"/>
</linearGradient>
<linearGradient id="paint17_linear_122_3644" x1="653.607" y1="78.5074" x2="653.607" y2="-9.34296" gradientUnits="userSpaceOnUse">
<stop stop-color="white"/>
<stop offset="1" stop-color="#5F5E7C"/>
</linearGradient>
<linearGradient id="paint18_linear_122_3644" x1="140.227" y1="83.2693" x2="140.227" y2="0.270331" gradientUnits="userSpaceOnUse">
<stop stop-color="white"/>
<stop offset="1" stop-color="#666E83"/>
</linearGradient>
<linearGradient id="paint19_linear_122_3644" x1="800.91" y1="115.455" x2="800.91" y2="83.5378" gradientUnits="userSpaceOnUse">
<stop stop-color="white"/>
<stop offset="1" stop-color="#666E83"/>
</linearGradient>
<linearGradient id="paint20_linear_122_3644" x1="1099.78" y1="330.997" x2="-14.3584" y2="331" gradientUnits="userSpaceOnUse">
<stop stop-color="#FEFEFE" stop-opacity="0"/>
<stop offset="1" stop-color="white"/>
</linearGradient>
<linearGradient id="paint21_linear_122_3644" x1="108.473" y1="401.8" x2="274.453" y2="571.556" gradientUnits="userSpaceOnUse">
<stop stop-color="#FEFEFE"/>
<stop offset="1" stop-color="#BFBFBF"/>
</linearGradient>
<linearGradient id="paint22_linear_122_3644" x1="658.461" y1="356.727" x2="693.576" y2="739.32" gradientUnits="userSpaceOnUse">
<stop stop-color="#FEFEFE"/>
<stop offset="1" stop-color="#BFBFBF"/>
</linearGradient>
<linearGradient id="paint23_linear_122_3644" x1="525.076" y1="630.782" x2="525.076" y2="367.655" gradientUnits="userSpaceOnUse">
<stop stop-color="white"/>
<stop offset="1" stop-color="#666E83"/>
</linearGradient>
<linearGradient id="paint24_linear_122_3644" x1="697.087" y1="511.613" x2="697.087" y2="399.847" gradientUnits="userSpaceOnUse">
<stop stop-color="white"/>
<stop offset="1" stop-color="#666E83"/>
</linearGradient>
<linearGradient id="paint25_linear_122_3644" x1="119.614" y1="560.019" x2="119.614" y2="481.451" gradientUnits="userSpaceOnUse">
<stop stop-color="white"/>
<stop offset="1" stop-color="#666E83"/>
</linearGradient>
<linearGradient id="paint26_linear_122_3644" x1="202.634" y1="517.159" x2="202.634" y2="356.019" gradientUnits="userSpaceOnUse">
<stop stop-color="white"/>
<stop offset="1" stop-color="#666E83"/>
</linearGradient>
<linearGradient id="paint27_linear_122_3644" x1="634.279" y1="454.938" x2="634.279" y2="361.314" gradientUnits="userSpaceOnUse">
<stop stop-color="white"/>
<stop offset="1" stop-color="#666E83"/>
</linearGradient>
<linearGradient id="paint28_linear_122_3644" x1="169.16" y1="205.347" x2="169.16" y2="382.367" gradientUnits="userSpaceOnUse">
<stop stop-color="white"/>
<stop offset="1" stop-color="#666E83"/>
</linearGradient>
<linearGradient id="paint29_linear_122_3644" x1="779.05" y1="163.121" x2="779.05" y2="321.24" gradientUnits="userSpaceOnUse">
<stop stop-color="white"/>
<stop offset="1" stop-color="#666E83"/>
</linearGradient>
<linearGradient id="paint30_linear_122_3644" x1="797.624" y1="524.891" x2="797.624" y2="429.639" gradientUnits="userSpaceOnUse">
<stop stop-color="white"/>
<stop offset="1" stop-color="#666E83"/>
</linearGradient>
<linearGradient id="paint31_linear_122_3644" x1="505.789" y1="187.636" x2="505.789" y2="465.318" gradientUnits="userSpaceOnUse">
<stop stop-color="white"/>
<stop offset="1" stop-color="#666E83"/>
</linearGradient>
<linearGradient id="paint32_linear_122_3644" x1="845.424" y1="371.521" x2="845.424" y2="439.939" gradientUnits="userSpaceOnUse">
<stop stop-color="white"/>
<stop offset="1" stop-color="#666E83"/>
</linearGradient>
<linearGradient id="paint33_linear_122_3644" x1="488.548" y1="513.596" x2="488.548" y2="408.606" gradientUnits="userSpaceOnUse">
<stop stop-color="white"/>
<stop offset="1" stop-color="#666E83"/>
</linearGradient>
<linearGradient id="paint34_linear_122_3644" x1="174.147" y1="570.03" x2="174.147" y2="367.128" gradientUnits="userSpaceOnUse">
<stop stop-color="white"/>
<stop offset="1" stop-color="#666E83"/>
</linearGradient>
<linearGradient id="paint35_linear_122_3644" x1="990.158" y1="387.923" x2="990.158" y2="445.938" gradientUnits="userSpaceOnUse">
<stop stop-color="white"/>
<stop offset="1" stop-color="#666E83"/>
</linearGradient>
<linearGradient id="paint36_linear_122_3644" x1="917.272" y1="512.302" x2="917.272" y2="419.303" gradientUnits="userSpaceOnUse">
<stop stop-color="white"/>
<stop offset="1" stop-color="#666E83"/>
</linearGradient>
<linearGradient id="paint37_linear_122_3644" x1="850.863" y1="418.345" x2="850.863" y2="361.496" gradientUnits="userSpaceOnUse">
<stop stop-color="white"/>
<stop offset="1" stop-color="#666E83"/>
</linearGradient>
<linearGradient id="paint38_linear_122_3644" x1="707.464" y1="363.23" x2="707.464" y2="304.711" gradientUnits="userSpaceOnUse">
<stop stop-color="white"/>
<stop offset="1" stop-color="#666E83"/>
</linearGradient>
<linearGradient id="paint39_linear_122_3644" x1="350.903" y1="408.459" x2="350.903" y2="349.94" gradientUnits="userSpaceOnUse">
<stop stop-color="white"/>
<stop offset="1" stop-color="#666E83"/>
</linearGradient>
<linearGradient id="paint40_linear_122_3644" x1="529.027" y1="379.503" x2="529.029" y2="344.204" gradientUnits="userSpaceOnUse">
<stop stop-color="white"/>
<stop offset="1" stop-color="#666E83"/>
</linearGradient>
<linearGradient id="paint41_linear_122_3644" x1="339.749" y1="551.725" x2="339.749" y2="520.021" gradientUnits="userSpaceOnUse">
<stop stop-color="white"/>
<stop offset="1" stop-color="#666E83"/>
</linearGradient>
<linearGradient id="paint42_linear_122_3644" x1="17.5333" y1="512.17" x2="17.5333" y2="480.185" gradientUnits="userSpaceOnUse">
<stop stop-color="white"/>
<stop offset="1" stop-color="#666E83"/>
</linearGradient>
<linearGradient id="paint43_linear_122_3644" x1="60.2802" y1="406.889" x2="60.2801" y2="334.961" gradientUnits="userSpaceOnUse">
<stop stop-color="white"/>
<stop offset="1" stop-color="#666E83"/>
</linearGradient>
<linearGradient id="paint44_linear_122_3644" x1="564.139" y1="318.234" x2="564.138" y2="246.305" gradientUnits="userSpaceOnUse">
<stop stop-color="white"/>
<stop offset="1" stop-color="#666E83"/>
</linearGradient>
<linearGradient id="paint45_linear_122_3644" x1="272.905" y1="646.147" x2="272.905" y2="775.492" gradientUnits="userSpaceOnUse">
<stop stop-color="white"/>
<stop offset="1" stop-color="#666E83"/>
</linearGradient>
</defs>
</svg>
