<svg width="1487" height="1063" viewBox="0 0 1487 1063" fill="none" xmlns="http://www.w3.org/2000/svg">
<rect x="138.386" width="1062.7" height="1062.7" fill="url(#paint0_linear_0_1)"/>
<rect x="122.72" y="409.937" width="1121.45" height="3.91659" fill="url(#paint1_linear_0_1)"/>
<rect width="1121.45" height="5.22212" transform="matrix(-1 0 0 1 1212.84 143.608)" fill="url(#paint2_linear_0_1)"/>
<rect width="1121.45" height="3.91659" transform="matrix(-1 0 0 1 1244.17 133.164)" fill="url(#paint3_linear_0_1)"/>
<rect y="744.152" width="1044.42" height="3.91659" fill="url(#paint4_linear_0_1)"/>
<rect x="1487" y="565.295" width="1044.42" height="3.91668" transform="rotate(180 1487 565.295)" fill="url(#paint5_linear_0_1)"/>
<rect x="1297.7" y="835.54" width="1174.98" height="3.9167" transform="rotate(180 1297.7 835.54)" fill="url(#paint6_linear_0_1)"/>
<rect x="1334.25" y="592.711" width="1044.42" height="3.91668" transform="rotate(180 1334.25 592.711)" fill="url(#paint7_linear_0_1)"/>
<path d="M681.487 785.929C680.503 785.11 679.52 782.979 678.536 779.373C676.076 769.374 674.764 766.752 669.845 768.719C664.925 770.686 664.597 769.538 663.613 761.015C662.629 752.655 654.922 740.362 644.427 739.542C633.932 738.723 627.373 729.544 617.042 720.857C606.547 712.005 607.039 699.384 581.949 690.697C556.86 681.846 571.126 698.401 560.467 712.169C549.645 725.938 546.857 714.792 544.889 710.694C542.757 706.433 540.297 708.727 539.641 710.694C538.986 712.661 538.658 722.168 532.426 713.809C526.195 705.449 526.195 709.219 525.867 710.694C525.539 712.169 515.044 716.103 510.288 708.399C505.369 700.696 501.269 706.924 483.231 713.809C465.193 720.693 468.637 724.463 468.637 715.284C468.637 706.105 462.077 708.399 452.238 706.433C442.563 704.466 433.872 719.381 432.724 711.842C431.74 704.138 417.146 711.842 418.13 709.875C419.114 707.908 415.67 696.106 411.57 690.697C407.471 685.288 407.799 687.583 405.667 689.55C403.535 691.517 404.683 701.843 397.632 707.088C390.744 712.497 385.169 709.055 385.169 706.269C385.169 703.646 377.462 689.386 370.902 686.435C364.343 683.321 363.687 672.667 358.112 671.847C352.536 671.028 352.208 683.321 350.076 686.763C347.945 690.205 344.829 688.73 343.845 681.846C342.861 674.962 334.498 674.962 328.595 674.962C322.691 674.962 319.903 670.372 313.672 662.013C307.441 653.653 301.209 656.276 286.615 662.013C272.02 667.75 267.101 667.75 255.622 666.93C244.143 666.111 244.799 669.225 239.716 671.192C234.468 673.159 235.124 670.044 228.893 671.192C222.661 672.339 227.581 686.927 224.301 683.485C221.185 680.043 210.69 677.42 203.475 676.929C196.26 676.601 187.897 680.371 179.534 681.518C171.17 682.665 169.039 685.288 163.135 691.844C157.232 698.401 155.1 705.941 149.197 712.825C147.065 715.284 144.113 718.234 140.997 720.693V785.929H681.487Z" fill="url(#paint8_linear_0_1)"/>
<path d="M1158.83 717.026C1155.88 708.847 1164.57 707.047 1171.63 700.013C1178.52 692.979 1183.77 691.834 1171.63 687.58C1159.49 683.327 1159.49 679.074 1164.08 675.148C1168.67 671.222 1151.94 676.62 1151.94 676.62C1151.94 676.62 1158.83 667.786 1144.39 660.588C1129.79 653.554 1114.21 644.23 1110.76 655.19C1107.32 666.15 1104.36 670.731 1098.62 667.95C1092.88 665.169 1082.87 664.024 1080.58 669.095C1078.28 674.003 1087.47 677.601 1077.62 679.728C1067.78 681.855 1066.63 675.475 1058.43 676.947C1050.23 678.419 1050.23 682.673 1047.93 684.472C1045.63 686.272 1035.79 684.472 1029.39 687.744C1022.99 691.016 1019.55 689.871 1016.59 685.944C1013.64 682.018 1006.75 679.892 1000.84 679.892C995.103 679.892 987.556 673.185 984.603 671.712C981.65 670.24 970.658 667.786 968.361 674.493C966.065 681.2 959.01 685.454 955.565 683.327C952.12 681.2 938.175 678.419 931.121 672.694C924.23 666.968 913.074 674.166 908.973 669.913C904.872 665.66 892.075 658.298 884.529 657.48C876.982 656.826 857.295 660.588 855.491 669.913C853.686 679.074 862.381 688.725 846.139 687.253C829.898 685.781 773.463 688.235 768.869 696.414C764.275 704.593 773.463 719.807 783.47 723.079C791.673 725.696 808.571 725.205 808.735 732.403L1140.46 732.403C1140.62 732.403 1140.78 732.403 1140.95 732.24C1153.09 729.459 1161.78 725.205 1158.83 717.026Z" fill="url(#paint9_linear_0_1)"/>
<path d="M455.521 874.714C458.645 872.268 453.383 869.823 456.014 867.703C461.769 862.976 474.1 859.063 474.265 856.454C474.758 848.303 482.157 837.706 477.717 835.587C475.909 834.609 474.429 829.881 468.181 831.348C463.577 832.489 454.37 839.825 450.095 840.315C446.149 840.804 442.861 835.261 441.216 836.565C435.297 840.804 417.211 849.118 412.279 846.021C407.346 842.923 403.236 834.935 393.042 840.152C382.848 845.368 369.036 843.575 360.98 837.543C355.883 833.793 355.554 835.75 346.018 842.434C344.538 843.575 341.25 838.521 337.961 839.825C335.002 840.967 332.206 848.466 330.562 849.77C327.438 852.379 324.643 856.291 320.533 854.498C320.533 854.498 319.382 850.096 321.684 840.967C323.985 832 329.576 822.381 327.11 819.284C324.808 816.349 321.355 823.197 313.956 826.131C310.503 827.435 302.94 823.034 300.145 825.153C295.87 828.413 292.91 837.054 292.91 837.054C292.91 837.054 288.964 829.392 281.237 829.718C275.153 829.881 266.274 837.217 259.369 839.662C250.161 842.923 239.967 855.639 238.652 856.291C237.172 857.107 240.132 864.117 234.213 874.877C232.897 877.322 231.253 879.931 229.773 882.539L442.203 882.539C442.532 881.724 443.025 880.909 443.683 880.257C445.162 878.137 453.383 876.344 455.521 874.714Z" fill="url(#paint10_linear_0_1)"/>
<path d="M859.865 811.378C854.352 813.857 851.345 814.518 850.509 811.378C849.674 808.237 847.335 805.428 844.996 805.428C842.657 805.428 842.657 802.287 841.989 800.469C841.32 798.651 837.311 798.321 835.807 798.651C834.303 798.982 829.625 794.519 829.124 793.032C828.456 791.709 830.962 789.561 831.797 787.082C832.633 784.602 838.48 777.661 842.991 779.809C847.335 781.958 850.008 793.362 853.182 790.222C856.357 787.082 855.187 782.123 856.357 782.619C857.526 782.95 861.369 785.429 861.703 786.42C862.037 787.412 867.885 788.9 868.72 786.09C869.555 783.28 874.233 783.611 876.405 787.082C878.41 790.552 873.732 799.973 876.405 800.634C879.079 801.296 882.086 805.593 884.425 809.725C886.764 813.857 883.422 825.096 874.735 825.096C873.899 825.096 868.219 818.485 863.374 818.485C858.529 818.485 855.354 825.096 855.187 822.286C854.519 819.642 859.865 811.378 859.865 811.378Z" fill="url(#paint11_linear_0_1)"/>
<path d="M732.643 859.511C727.747 865.753 724.809 868.381 721.871 865.26C718.933 862.139 714.527 860.332 711.752 861.646C708.977 863.125 707.182 859.347 705.387 857.704C703.591 856.061 698.695 858.032 697.226 859.347C695.757 860.661 687.596 858.197 686.127 856.883C684.659 855.569 685.964 851.791 685.475 848.341C685.148 846.37 691.187 844.399 692.982 840.785C694.288 837.992 691.024 833.065 693.798 832.9C700.164 832.736 710.283 844.563 712.078 838.978C713.874 833.393 709.63 828.301 711.099 827.972C712.731 827.644 718.607 828.137 719.586 829.287C720.565 830.272 728.236 828.465 727.42 824.523C726.768 820.745 732.317 818.281 736.887 821.073C741.457 823.866 741.783 837.828 745.211 837.007C748.638 836.186 754.677 839.307 759.9 842.756C763.001 844.892 759.41 852.94 757.941 859.182C756.962 863.289 758.431 866.41 758.104 866.738C757.778 866.903 755.656 871.502 753.045 872.159C751.086 872.652 748.965 875.116 747.169 874.623C744.721 874.13 742.926 870.516 742.926 870.516C742.926 870.516 735.907 878.401 733.786 875.28C731.664 872.488 732.643 859.511 732.643 859.511Z" fill="url(#paint12_linear_0_1)"/>
<rect x="91" y="396.869" width="1068.57" height="4.10746" fill="url(#paint13_linear_0_1)"/>
<path d="M230.483 489.543L209.248 499.231C206.377 500.54 204.536 503.405 204.536 506.56C204.536 511.009 208.142 514.616 212.592 514.616H483.393C487.989 514.616 491.714 510.89 491.714 506.295C491.714 503.263 490.065 500.472 487.411 499.008L469.312 489.031C466.946 487.726 464.289 487.042 461.588 487.042H444.24C439.947 487.042 435.835 488.767 432.827 491.829L428.144 496.594C425.136 499.656 421.024 501.38 416.732 501.38H397.27C395.23 501.38 393.209 500.99 391.316 500.231L358.42 487.042L332.261 477.595C327.575 475.903 322.367 476.491 318.175 479.185L289.846 497.395C285.911 499.924 281.066 500.605 276.587 499.258L241.731 488.777C238.013 487.659 234.015 487.931 230.483 489.543Z" fill="url(#paint14_linear_0_1)"/>
<path d="M662.153 458.892C645.719 471.184 621.622 489.218 610.175 497.818C606.209 500.798 603.914 505.448 603.914 510.409V512.307C603.914 521.144 611.078 528.307 619.914 528.307H1102.16C1111 528.307 1118.16 521.144 1118.16 512.307V510.13C1118.16 505.328 1116.01 500.772 1112.26 497.78C1097.03 485.648 1073.72 468.151 1069.14 468.936C1062.6 470.056 1016.84 502.542 1009.21 502.542C1001.59 502.542 919.873 486.859 906.799 479.018C893.725 471.176 830.533 454.373 823.996 454.373C817.459 454.373 774.968 482.378 765.162 479.018C757.929 476.539 706.289 463.709 675.509 456.163C670.867 455.025 665.98 456.03 662.153 458.892Z" fill="url(#paint15_linear_0_1)"/>
<path d="M137.476 407.822C133.28 409.37 129.42 410.918 125.729 412.467V553.706C127.575 553.878 128.078 555.598 128.749 560.071C129.756 566.264 137.308 575.554 147.712 576.07C158.117 576.586 164.662 583.467 174.898 590.004C185.303 596.542 180.436 604.627 205.273 611.164C230.109 617.702 220.376 606.692 231.116 596.542C241.856 586.22 236.318 594.305 238.332 597.402C240.346 600.498 246.891 598.09 247.562 596.714C248.233 595.337 252.596 589.144 258.806 595.509C265.015 601.703 265.015 598.95 265.35 597.746C265.686 596.542 276.091 593.789 280.789 599.466C285.656 605.143 289.684 600.67 307.64 595.509C325.596 590.348 322.072 587.596 322.072 594.305C322.072 601.187 328.617 599.466 338.182 600.842C347.747 602.219 356.474 591.209 357.481 596.886C358.488 602.563 372.92 596.886 371.913 598.262C370.906 599.638 372.248 602.391 376.444 606.348C380.639 610.304 382.317 608.584 384.331 607.208C386.345 605.831 385.338 604.283 392.218 600.326C399.099 596.37 404.637 598.95 404.637 600.842C404.637 602.907 412.188 613.401 418.733 615.637C425.278 617.874 425.949 625.959 431.487 626.475C437.025 626.991 437.36 617.874 439.374 615.293C441.388 612.713 444.576 613.917 445.583 619.078C446.59 624.239 454.813 624.239 460.687 624.239C466.56 624.239 469.245 627.68 475.454 633.873C481.664 640.066 487.873 638.174 502.305 633.873C516.737 629.572 521.603 629.572 533.015 630.088C544.426 630.604 543.755 628.368 548.789 626.991C553.992 625.615 553.32 627.852 559.53 626.991C565.739 626.131 560.872 615.293 564.061 617.874C567.081 620.454 577.486 622.519 584.702 622.691C591.918 623.035 600.141 620.11 608.531 619.25C616.754 618.39 618.936 616.325 624.642 611.508C630.515 606.692 632.529 601.015 638.402 595.854C644.276 590.693 657.366 582.951 658.708 585.532C660.051 588.112 666.26 589.316 670.455 587.768C674.65 586.392 682.202 586.908 688.411 587.768C694.62 588.628 696.634 587.252 699.151 585.188C701.501 583.123 701.836 583.123 706.703 582.263C711.57 581.403 715.262 582.263 714.926 578.306C714.59 574.349 714.926 571.253 721.471 572.801C728.015 574.521 727.68 574.866 730.029 569.016C732.379 563.339 734.896 566.436 742.448 566.78C749.999 567.124 750.335 567.296 750.335 562.995C750.335 558.694 755.201 560.415 764.431 560.415C773.661 560.415 775.171 559.039 775.843 556.458C776.514 553.878 791.617 556.802 792.456 554.738C793.128 552.673 799.672 553.361 806.217 554.222C812.762 555.082 806.553 557.318 806.217 561.103C805.881 564.888 807.224 569.36 811.084 566.78C814.943 564.199 813.433 560.415 819.978 561.275C826.523 562.135 833.403 562.479 834.746 565.404C836.088 568.328 843.304 570.049 848.842 571.425C854.38 572.801 850.52 583.639 854.716 589.66C858.911 595.681 866.798 600.842 873.679 599.638C880.559 598.434 879.217 594.821 880.895 596.198C882.573 597.574 885.09 598.778 890.46 596.198C895.998 593.617 899.354 593.617 900.865 594.477C902.207 595.337 908.081 594.133 911.269 591.037C914.29 587.94 919.156 587.94 923.687 586.736C928.218 585.532 938.791 583.639 942.986 591.037C947.181 598.434 949.195 597.918 951.209 598.09C953.223 598.434 959.096 594.649 959.432 599.294C959.768 603.939 968.326 606.348 970.508 602.219C972.521 597.918 983.597 600.498 987.121 603.423C990.645 606.348 1005.08 615.637 1010.45 611.164C1015.99 606.52 1016.32 604.627 1016.32 604.627C1037.3 596.37 1020.85 589.488 1029.41 583.811C1037.97 578.134 1042.5 555.942 1045.19 554.222C1047.87 552.501 1051.73 554.222 1053.74 552.501C1055.76 550.781 1059.62 549.405 1059.28 545.964C1058.95 542.523 1066.16 540.803 1068.18 541.147C1070.19 541.491 1078.58 541.491 1079.92 538.051C1081.27 534.782 1087.14 537.706 1088.82 537.879C1090.5 538.223 1096.37 537.878 1098.89 535.814C1101.24 533.75 1102.41 530.653 1104.76 530.137C1107.11 529.621 1108.62 528.761 1107.44 526.524C1106.44 524.46 1108.45 524.46 1110.13 521.191C1111.81 518.095 1114.66 518.611 1121.88 518.611C1129.09 518.611 1128.42 524.46 1138.49 521.707C1140.34 521.191 1144.36 517.923 1145.71 517.235C1147.05 516.546 1150.24 516.03 1150.91 516.89C1151.58 517.751 1156.11 516.89 1156.11 516.89C1156.11 516.89 1158.12 515.514 1158.8 513.278C1159.47 511.041 1162.66 511.902 1162.66 511.902C1162.66 511.902 1165.68 511.902 1167.19 513.106C1168.53 514.31 1169.87 511.902 1171.72 509.837C1173.4 507.773 1179.27 507.085 1182.79 509.321C1199.41 520.331 1206.62 513.45 1213 510.525V407.822H137.476Z" fill="url(#paint16_linear_0_1)"/>
<path d="M1058.23 473.588C1059.4 483.277 1056.56 494.351 1059.9 498.157C1063.23 501.964 1075.74 534.838 1078.91 531.205C1082.08 527.571 1094.92 496.946 1098.75 501.791C1102.59 506.808 1109.43 517.19 1115.27 513.383C1120.94 509.404 1130.44 515.113 1136.95 524.284C1143.45 533.454 1143.78 548.853 1154.12 531.205C1154.12 531.205 1158.46 545.912 1162.96 554.909C1167.47 563.906 1182.31 541.759 1182.31 541.759C1182.31 541.759 1203.82 555.255 1208.99 533.8V456.112C1200.15 449.018 1191.15 444.174 1185.64 445.731C1178.31 447.807 1176.81 407.838 1167.13 399.36C1157.29 390.882 1145.45 397.457 1147.12 408.531C1148.79 419.431 1132.61 424.449 1130.44 421.507C1128.27 418.393 1115.6 416.49 1112.26 417.182C1108.93 417.874 1118.43 432.581 1114.93 448.672C1111.43 464.763 1089.25 429.986 1075.57 430.159C1061.73 430.332 1057.06 463.898 1058.23 473.588Z" fill="url(#paint17_linear_0_1)"/>
<path d="M830.703 521.491C822.835 531.599 817.98 535.882 813.293 530.742C808.606 525.603 801.575 522.691 797.223 524.918C792.87 527.316 789.857 521.32 787.011 518.408C784.165 515.667 776.297 519.093 773.954 521.149C771.61 523.205 758.553 519.264 756.042 517.209C753.531 515.153 755.874 508.814 755.205 503.332C754.703 500.248 764.412 496.993 767.258 490.997C769.434 486.372 764.245 478.492 768.597 478.32C778.809 477.978 794.879 497.336 797.725 488.085C800.571 478.834 793.707 470.782 796.218 470.268C798.729 469.754 808.104 470.611 809.778 472.324C811.284 474.037 823.505 470.954 822.5 464.615C821.329 458.448 830.368 454.508 837.566 459.133C844.765 463.759 845.267 486.372 850.791 485.173C856.316 483.974 866.025 488.942 874.395 494.595C879.417 498.021 873.725 511.213 871.214 521.32C869.708 527.83 872.051 533.141 871.382 533.483C870.712 533.826 867.364 541.192 863.179 542.22C859.998 543.077 856.65 547.017 853.637 546.332C849.787 545.475 846.941 539.822 846.941 539.822C846.941 539.822 835.558 552.671 832.377 547.702C829.029 542.734 830.703 521.491 830.703 521.491Z" fill="url(#paint18_linear_0_1)"/>
<path d="M335.721 578.784C333.374 575.576 327.84 579.29 324.486 575.745C321.133 572.2 316.102 570.005 312.916 571.693C309.898 573.381 307.551 569.161 305.706 567.135C303.694 565.278 297.993 567.642 296.316 569.161C294.639 570.68 285.249 567.81 283.572 566.291C281.895 564.772 270.493 556.499 269.99 552.617C269.655 550.422 289.441 552.11 291.621 547.89C293.13 544.682 289.441 539.111 292.627 538.942C299.837 538.773 311.407 552.279 313.419 545.864C315.432 539.449 310.569 533.709 312.246 533.371C314.09 533.033 320.797 533.709 321.971 534.891C323.145 536.072 331.864 533.878 331.026 529.488C330.188 525.099 336.727 522.398 341.758 525.605C346.956 528.813 347.291 544.851 351.316 543.838C355.34 542.994 362.215 546.539 368.084 550.422C371.773 552.785 415.873 553.967 414.196 561.058C413.861 562.746 409.166 573.55 402.626 575.914C398.266 577.602 392.901 567.304 387.702 567.135C379.318 567.135 370.934 576.589 366.072 577.602C365.569 577.771 363.221 583.004 360.203 583.848C358.023 584.355 355.508 587.225 353.328 586.718C350.645 586.043 348.465 582.16 348.465 582.16C348.465 582.16 340.416 591.276 338.069 587.731C335.553 584.186 335.721 578.784 335.721 578.784Z" fill="url(#paint19_linear_0_1)"/>
<path d="M215.161 504.197C215.161 504.197 207.263 512.426 219.698 521.856C232.134 531.286 245.41 543.116 250.284 532.143C255.157 521.17 258.686 516.884 263.56 520.656C268.601 524.428 277.508 527 280.533 522.028C283.39 517.227 275.323 512.255 284.902 511.398C294.481 510.54 294.481 517.398 302.379 517.055C310.11 516.713 310.782 512.255 313.303 510.883C315.655 509.34 324.73 512.598 331.116 510.197C337.502 507.797 340.695 509.34 342.711 513.798C344.896 518.256 350.946 521.513 356.492 522.199C361.869 523.056 367.919 531.115 370.44 533.001C372.961 534.886 382.876 539.001 386.069 532.315C389.262 525.628 396.32 522.199 399.345 524.942C402.201 527.686 414.805 532.486 420.519 539.516C426.233 546.374 437.492 540.544 440.685 545.516C443.878 550.489 454.633 560.09 461.523 561.804C468.413 563.69 487.403 562.319 490.428 553.06C493.453 543.802 486.731 532.658 501.688 536.43C516.644 540.201 569.412 545.688 575.126 537.801C580.671 530.086 574.285 512.941 565.547 508.14C556.808 503.511 536.138 501.796 546.053 489.795C556.136 477.793 562.018 466.992 558.993 457.905C555.968 448.818 548.91 443.674 528.24 441.274C507.569 438.873 470.094 445.217 454.129 448.818C438.164 452.418 437.492 441.445 435.139 435.444C432.619 429.444 406.235 424.986 382.876 421.9C359.517 418.642 349.097 436.987 332.292 439.045C315.487 440.931 270.282 423.957 265.744 425.157C261.207 426.357 251.124 434.587 251.124 441.274C251.292 448.132 245.914 446.932 234.151 448.132C222.387 449.332 213.648 452.59 214.993 461.334C216.505 470.249 208.103 470.763 200.541 477.107C192.978 483.451 187.937 483.794 198.692 489.966C209.447 496.138 208.775 500.596 203.902 503.854C198.524 507.283 215.161 504.197 215.161 504.197Z" fill="url(#paint20_linear_0_1)"/>
<path d="M805.327 492.976C805.327 492.976 809.169 498.254 798.311 494.678C787.454 491.103 793.801 495.019 788.79 496.892C783.946 498.765 775.261 496.041 773.924 492.976C772.588 489.911 766.909 491.273 762.566 495.7C758.223 500.127 755.55 491.273 747.533 488.379C739.515 485.484 734.838 479.184 723.146 480.546C711.453 481.908 706.442 483.1 702.099 478.673C697.756 474.246 703.937 466.073 692.745 463.86C681.554 461.816 678.881 461.646 677.211 454.665C675.541 447.514 654.661 446.322 682.055 437.808C709.449 429.295 703.77 421.803 724.482 427.763C745.194 433.722 748.201 432.36 759.559 429.636C770.918 426.911 777.599 424.017 780.439 430.146C783.111 436.276 797.142 436.446 807.999 433.892C818.69 431.338 824.87 428.614 828.044 433.892C831.217 439.171 831.551 454.835 844.079 460.625C856.774 466.414 863.288 477.822 859.112 482.93C854.936 488.038 842.074 502 838.567 497.914C835.059 493.997 828.378 485.314 826.373 497.403C824.369 509.492 807.832 495.7 805.327 492.976Z" fill="url(#paint21_linear_0_1)"/>
<path d="M423.724 310.796C414.17 310.624 412.83 312.86 411.992 316.473C411.321 320.086 395.734 316.129 395.064 318.882C394.393 321.634 387.689 320.946 380.985 319.742C374.281 318.538 380.65 315.269 380.985 310.107C381.32 304.946 379.98 298.581 375.957 302.021C372.102 305.634 373.443 310.968 366.739 309.763C360.035 308.559 352.996 308.043 351.487 304.086C350.147 300.129 342.605 297.72 336.906 295.656C331.208 293.591 335.063 278.451 330.873 270.021C326.682 261.591 318.47 254.365 311.431 256.086C304.392 257.634 305.732 262.967 304.056 260.903C302.213 258.838 299.866 257.29 294.168 260.903C288.637 264.344 285.117 264.344 283.609 263.139C282.268 261.935 276.235 263.484 273.05 267.957C269.866 272.43 264.838 272.43 260.312 273.978C255.787 275.527 244.725 278.451 240.535 267.957C236.345 257.634 234.167 258.322 231.988 257.978C229.809 257.634 223.775 262.795 223.44 256.43C223.105 250.064 214.222 246.451 212.043 252.473C209.864 258.494 198.635 254.881 195.115 250.924C191.596 246.967 185.897 249.376 180.199 255.742C174.501 262.107 174.165 264.86 174.165 264.86C152.545 276.387 169.64 286.021 160.757 294.107C151.874 302.193 147.349 333.333 144.5 335.742C141.651 338.151 137.796 335.742 135.617 338.151C133.438 340.559 129.583 342.624 129.919 347.269C130.086 349.85 127.907 351.742 125.729 352.946V439.312H515.569L521.1 431.914C519.256 433.119 480.205 311.312 423.724 310.796Z" fill="url(#paint22_linear_0_1)"/>
<path d="M1213 409.191C1211.99 408.332 1210.99 406.097 1209.98 402.315C1207.46 391.829 1206.12 389.079 1201.09 391.142C1196.05 393.205 1195.72 392.001 1194.71 383.063C1193.71 374.296 1185.82 361.403 1175.08 360.544C1164.35 359.684 1157.63 350.058 1147.06 340.947C1136.33 331.665 1136.83 318.429 1111.16 309.318C1085.49 300.036 1100.09 317.397 1089.18 331.837C1078.11 346.276 1075.26 334.587 1073.24 330.29C1071.06 325.82 1068.55 328.227 1067.87 330.29C1067.2 332.353 1066.87 342.323 1060.49 333.556C1054.12 324.789 1054.12 328.743 1053.78 330.29C1053.45 331.837 1042.71 335.962 1037.84 327.883C1032.81 319.804 1028.62 326.336 1010.16 333.556C991.705 340.776 995.228 344.729 995.228 335.103C995.228 325.477 988.517 327.883 978.451 325.82C968.552 323.758 959.66 339.4 958.486 331.493C957.479 323.414 942.547 331.493 943.554 329.43C944.56 327.367 941.037 314.991 936.843 309.318C932.648 303.646 932.984 306.052 930.803 308.115C928.622 310.178 929.796 321.007 922.582 326.508C915.535 332.181 909.831 328.571 909.831 325.649C909.831 322.898 901.946 307.943 895.235 304.849C888.524 301.583 887.852 290.409 882.148 289.55C876.444 288.69 876.108 301.583 873.927 305.193C871.746 308.802 868.558 307.255 867.552 300.036C866.545 292.816 857.988 292.816 851.949 292.816C845.909 292.816 843.057 288.003 836.681 279.236C830.306 270.469 823.93 273.219 808.998 279.236C794.066 285.252 789.033 285.252 777.289 284.393C765.545 283.533 766.216 286.799 761.015 288.862C755.646 290.925 756.317 287.659 749.942 288.862C743.566 290.066 748.599 305.364 745.244 301.755C742.056 298.145 731.319 295.394 723.936 294.879C716.554 294.535 707.998 298.489 699.441 299.692C690.885 300.895 688.704 303.646 682.664 310.521C676.624 317.397 674.443 325.305 668.403 332.524C666.222 335.103 663.202 338.197 660.014 340.776V409.191H1213Z" fill="url(#paint23_linear_0_1)"/>
<path d="M794.043 482.096C795.385 491.599 791.361 502.291 795.552 505.855C799.744 509.418 822.38 516.207 826.404 512.643C830.428 509.079 844.177 503.309 848.872 507.891C853.735 512.643 858.933 522.825 866.478 518.922C874.023 515.019 886.096 520.11 894.144 528.765C902.192 537.42 910.408 530.293 923.989 512.982C923.989 512.982 921.307 549.13 926.84 557.785C932.541 566.44 951.991 544.378 951.991 544.378C951.991 544.378 957.021 554.052 963.56 555.579C968.59 556.767 974.627 549.979 979.992 548.621C987.034 546.754 992.903 534.196 994.076 533.687C995.25 533.178 991.226 524.183 993.741 512.982C996.089 502.97 1000.62 490.92 1001.96 481.756H794.043C794.043 481.756 794.043 481.926 794.043 482.096Z" fill="url(#paint24_linear_0_1)"/>
<path d="M149.591 499.555C155.431 489.732 163.607 474.393 163.107 467.672C162.439 457.159 134.741 466.638 134.741 466.638C134.741 466.638 135.075 455.436 130.236 450.783C130.069 450.61 129.903 450.438 129.736 450.266V499.383H149.591V499.555Z" fill="url(#paint25_linear_0_1)"/>
<path d="M127.064 514.556C129.413 516.629 132.265 518.356 135.621 518.875C138.808 519.393 142.499 515.074 146.358 514.556C150.552 514.038 156.424 521.293 161.457 522.848C164.813 523.884 167.833 518.529 169.678 519.911C174.208 523.366 171.356 527.339 174.04 528.894C179.577 531.83 183.268 526.13 191.153 518.011C194.676 514.383 199.038 521.811 203.233 519.393C204.239 518.875 206.085 511.447 207.93 510.41C210.111 509.201 212.46 514.383 213.467 513.001C216.319 509.028 214.641 505.055 216.487 506.264C220.178 508.683 218.835 502.637 222.862 498.664C225.043 496.591 231.586 498.318 234.438 495.382C239.639 490.026 242.323 482.599 248.699 479.489C252.558 477.589 257.591 480.18 265.476 477.762C286.28 471.543 277.556 468.261 296.346 445.977C315.304 423.693 296.849 434.058 291.648 428.875C286.615 423.693 284.266 425.075 273.697 429.394C263.127 433.712 263.966 423.175 257.926 421.793C251.886 420.411 248.195 424.211 238.968 431.812C229.741 439.413 222.359 436.649 213.97 438.549C205.581 440.449 198.703 434.23 197.361 440.449C196.018 446.668 191.824 450.987 188.972 449.086C186.12 447.186 177.396 449.605 174.208 453.923C171.02 458.242 178.402 458.242 167.329 461.006C156.257 463.942 162.296 466.188 162.296 466.188C158.605 465.151 137.298 462.388 141.996 473.789C146.694 485.19 136.459 481.389 131.426 480.007C129.749 479.489 128.406 481.217 127.064 483.808V514.556V514.556Z" fill="url(#paint26_linear_0_1)"/>
<path d="M893.003 460.183C890.152 457.07 895.183 416.256 899.375 413.143C921.509 395.503 896.692 383.916 893.003 376.998C889.481 370.081 890.487 375.788 889.817 380.63C889.146 385.472 887.972 386.856 886.966 379.074C885.96 371.291 885.457 369.216 883.612 370.772C881.768 372.329 881.6 371.291 881.265 364.719C880.929 358.148 877.911 348.636 873.887 347.944C869.862 347.425 867.347 340.162 863.322 333.244C859.298 326.327 859.466 316.469 849.908 309.724C840.35 302.807 845.716 315.777 841.691 326.5C837.499 337.222 836.493 328.575 835.654 325.289C834.816 322.003 828.779 324.251 828.276 325.289C826.767 328.229 824.084 329.44 822.24 323.56C820.395 317.507 818.718 322.349 811.843 327.71C804.968 333.071 806.31 336.011 806.31 328.921C806.31 321.83 786.523 326.154 787.026 324.77C787.361 323.214 788.87 322.003 787.194 317.68C785.517 313.529 783.169 316.469 782.331 318.026C781.492 319.582 781.828 318.544 779.145 322.695C776.462 326.846 774.282 324.251 774.282 322.176C774.282 320.101 776.629 308.341 774.114 306.093C771.599 303.672 768.078 301.769 765.898 301.077C763.718 300.559 758.687 308.514 758.352 302.98C758.016 297.619 754.83 297.619 752.483 297.619C750.135 297.619 749.129 293.987 746.782 287.415C744.434 280.843 741.919 282.919 736.385 287.415C730.852 291.912 728.839 291.912 724.48 291.22C720.12 290.701 720.287 292.949 718.275 294.506C716.263 296.062 716.598 293.641 714.083 294.506C711.735 295.37 713.58 306.785 712.406 304.017C711.232 301.25 707.208 299.175 704.357 299.002C701.507 298.656 698.321 301.769 695.135 302.634C691.949 303.499 691.11 305.574 688.93 310.762C686.583 315.777 683.732 320.966 681.385 326.327C679.037 331.688 674.006 333.763 673.503 330.996C673 328.229 666.628 336.357 664.281 335.493C661.933 334.628 659.082 340.335 657.238 341.2C655.393 342.064 653.884 341.2 654.052 345.35C654.22 349.501 647.68 352.614 647.177 355.381C646.003 361.261 648.015 358.667 644.997 358.321C641.979 357.975 638.29 363.855 634.768 363.855C631.247 363.855 630.576 365.411 630.408 368.005C630.073 370.772 624.204 367.659 624.036 369.735C623.701 371.81 621.186 371.291 618.67 370.254C616.155 369.389 616.323 370.599 616.491 366.795C616.658 362.99 612.298 366.449 610.957 369.043C609.448 371.81 612.466 373.712 609.951 372.848C607.436 371.983 606.765 373.539 606.094 370.599C605.591 367.659 604.417 370.945 602.237 369.389C600.057 367.832 605.759 366.103 604.25 359.704C602.573 353.478 599.554 348.117 596.871 349.328C594.188 350.538 594.692 354.343 594.021 352.96C593.35 351.403 586.81 355.727 586.307 354.689C585.804 353.824 583.457 355.035 582.283 358.321C581.109 361.607 574.737 370.945 573.06 372.156C571.383 373.367 570.545 371.464 568.868 363.682C567.191 355.9 564.508 355.381 563.67 355.035C562.831 354.689 555.621 351.576 554.783 356.072C553.944 360.569 549.752 357.802 548.411 354.862C547.069 351.922 544.889 353.651 542.877 358.494C540.697 363.336 540.529 365.411 540.529 365.411C532.313 374.058 533.99 364.028 530.636 369.908C527.282 375.961 520.407 370.945 519.233 372.675C518.227 374.404 513.532 373.712 512.694 375.442C511.855 377.171 503.471 381.495 503.639 385.126C503.806 388.758 521.078 396.022 520.24 395.676C519.401 395.33 516.215 395.33 515.712 398.789C515.209 402.248 512.861 399.135 512.191 398.962C511.52 398.616 509.172 398.962 508.334 401.037C507.328 403.112 506.992 406.398 505.986 407.09C504.98 407.609 504.477 408.646 504.98 410.895C505.316 413.143 504.645 413.143 503.974 416.429C503.303 419.715 502.297 419.196 499.447 419.196C496.596 419.196 493.242 414.353 493.075 415.91C492.739 417.466 490.727 419.715 490.224 420.579C489.721 421.444 488.547 421.79 488.212 420.925C487.876 420.06 485.361 422.482 485.193 424.73C484.858 427.151 483.684 426.286 483.684 426.286C483.684 426.286 480.834 426.286 480.163 428.534C479.492 430.783 477.48 429.918 475.971 429.053C474.294 428.189 473.791 428.707 470.772 429.053C467.754 429.399 465.407 433.896 465.407 433.896C464.904 434.76 463.897 435.625 463.394 429.226C463.227 427.67 457.022 425.422 452.327 429.226C450.818 430.437 451.321 433.723 450.818 438.392C450.483 441.678 446.961 440.121 446.961 440.121C443.44 438.565 440.925 438.046 432.54 448.941C424.156 460.01 421.976 469.348 411.412 474.018C401.351 478.514 424.492 484.913 428.516 510.508H871.036C874.893 501.342 877.408 491.831 887.134 484.913C913.963 466.408 895.853 463.295 893.003 460.183Z" fill="url(#paint27_linear_0_1)"/>
<path d="M997.71 492.13C996.87 486.074 999.223 479.008 996.87 476.821C994.348 474.466 981.237 470.092 978.883 472.447C976.53 474.802 968.63 478.503 965.772 475.475C962.914 472.447 959.889 465.886 955.518 468.409C951.148 470.933 944.088 467.568 939.381 462.017C934.674 456.297 929.968 461.007 922.067 472.279C922.067 472.279 923.58 448.895 920.386 443.343C917.193 437.792 905.762 451.923 905.762 451.923C905.762 451.923 902.904 445.698 899.038 444.689C896.013 444.016 892.651 448.39 889.457 449.231C885.423 450.409 881.893 458.652 881.388 458.989C880.716 459.325 883.069 465.213 881.556 472.447C879.707 481.195 875.673 492.13 876.514 498.186H992.499C995.525 495.663 998.046 493.98 997.71 492.13Z" fill="url(#paint28_linear_0_1)"/>
<path d="M454.806 489.668C457.828 498.246 448.932 500.133 441.714 507.51C434.664 514.887 429.293 516.088 441.714 520.548C454.135 525.009 454.135 529.47 449.435 533.587C444.735 537.704 461.856 532.043 461.856 532.043C461.856 532.043 454.806 541.307 469.577 548.856C484.516 556.233 500.461 566.012 503.986 554.517C507.511 543.023 510.532 538.219 516.407 541.136C522.282 544.052 532.52 545.253 534.87 539.935C537.22 534.788 527.821 531.014 537.892 528.783C547.963 526.553 549.137 533.244 557.53 531.7C565.922 530.156 565.922 525.695 568.272 523.808C570.622 521.921 580.693 523.808 587.239 520.377C593.785 516.946 597.31 518.147 600.331 522.264C603.353 526.381 610.402 528.612 616.445 528.612C622.32 528.612 630.041 535.646 633.062 537.19C636.083 538.734 647.329 541.307 649.679 534.273C652.029 527.239 659.246 522.779 662.771 525.009C666.296 527.239 680.563 530.156 687.781 536.16C694.831 542.165 706.244 534.616 710.44 539.077C714.637 543.537 727.729 551.258 735.45 552.115C743.171 552.802 763.313 548.856 765.159 539.077C767.006 529.47 758.11 519.347 774.727 520.892C791.344 522.436 849.084 519.862 853.784 511.284C858.483 502.706 849.084 486.751 838.845 483.32C830.453 480.575 813.164 481.09 812.996 473.541H473.605C473.438 473.541 473.27 473.541 473.102 473.713C460.681 476.629 451.785 481.09 454.806 489.668Z" fill="url(#paint29_linear_0_1)"/>
<path d="M135.625 605.289C141.496 611.158 151.392 613.23 153.74 603.044C156.088 592.859 146.695 585.608 156.592 581.292C166.656 576.976 167.83 589.924 175.881 587.162C184.1 584.227 184.1 575.595 186.448 571.97C188.796 568.344 198.693 571.97 205.234 565.409C211.608 558.849 215.13 561.094 218.15 569.035C221.001 576.976 228.046 581.292 233.917 581.292C239.787 581.292 247.335 595.103 250.354 597.865C253.374 600.8 264.444 605.807 266.792 591.996C269.141 578.185 276.185 569.553 279.708 573.869C283.23 578.185 297.32 584.054 304.365 595.621C311.409 607.188 322.48 592.686 326.673 601.491C328.35 605.116 338.079 607.188 341.769 611.676C346.969 617.891 346.969 626.005 351.33 626.868C354.852 627.559 360.723 608.051 366.426 604.598C373.303 600.628 379.677 611.849 380.683 601.491C382.361 582.673 373.638 563.165 390.076 566.1C398.295 567.481 416.578 582.673 433.519 579.738C441.738 578.357 441.067 570.243 447.273 563.683C450.796 559.885 456.499 567.136 460.86 564.201C464.55 561.784 467.569 549.182 468.072 547.282C469.582 541.931 474.111 532.263 472.769 521.214C472.266 516.38 465.389 511.374 465.389 506.195C465.389 499.807 459.518 493.42 459.853 487.723C460.692 475.811 467.905 466.488 464.214 464.071C454.318 457.511 438.551 474.429 429.829 463.381C422.281 453.713 424.965 442.319 429.326 431.097H125.729V617.546C128.412 605.289 131.096 600.8 135.625 605.289Z" fill="url(#paint30_linear_0_1)"/>
<path d="M1142.97 492.532C1131.24 491.162 1128.06 483.966 1120.85 479.169C1113.64 474.543 1112.97 465.291 1107.78 468.546C1102.58 471.802 1096.72 471.802 1096.05 468.546C1095.38 465.291 1087.67 460.494 1082.47 461.179C1077.28 461.865 1082.47 467.176 1072.75 461.179C1063.04 455.183 1065.55 461.179 1065.55 461.179C1063.54 457.924 1050.63 440.62 1046.11 451.928C1041.59 463.235 1037.06 453.298 1034.38 448.673C1031.87 444.047 1016.11 454.669 1010.92 458.61C1005.72 462.55 1009.58 475.228 1020.64 483.795C1025.66 487.735 1027.68 493.046 1028.68 498.186H1162.24C1159.23 493.732 1153.86 493.732 1142.97 492.532Z" fill="url(#paint31_linear_0_1)"/>
<path d="M983.243 488.761C980.063 491.378 985.418 493.995 982.741 496.263C976.884 501.322 964.333 505.509 964.166 508.301C963.664 517.024 956.134 528.364 960.652 530.632C962.493 531.679 963.999 536.738 970.357 535.168C975.043 533.947 984.414 526.096 988.765 525.573C992.781 525.049 996.128 530.981 997.801 529.585C1003.83 525.049 1022.23 516.152 1027.25 519.466C1032.27 522.781 1036.46 531.33 1046.83 525.747C1057.21 520.164 1071.26 522.083 1079.46 528.539C1084.65 532.551 1084.99 530.458 1094.69 523.305C1096.2 522.083 1099.54 527.492 1102.89 526.096C1105.9 524.875 1108.75 516.849 1110.42 515.454C1113.6 512.662 1116.44 508.475 1120.63 510.394C1120.63 510.394 1121.8 515.105 1119.46 524.875C1117.11 534.47 1111.42 544.764 1113.93 548.078C1116.28 551.219 1119.79 543.891 1127.32 540.751C1130.84 539.355 1138.53 544.066 1141.38 541.798C1145.73 538.308 1148.74 529.062 1148.74 529.062C1148.74 529.062 1152.76 537.262 1160.62 536.913C1166.81 536.738 1175.85 528.887 1182.88 526.27C1192.25 522.781 1202.62 509.173 1203.96 508.475C1205.47 507.603 1202.46 500.101 1208.48 488.586C1209.82 485.97 1211.49 483.178 1213 480.387H996.797C996.462 481.259 995.96 482.131 995.291 482.829C993.785 485.097 985.418 487.016 983.243 488.761Z" fill="url(#paint32_linear_0_1)"/>
<path d="M944.632 458.196C939.123 460.722 936.117 461.396 935.283 458.196C934.448 454.997 932.11 452.135 929.773 452.135C927.436 452.135 927.436 448.935 926.768 447.083C926.1 445.231 922.093 444.894 920.59 445.231C919.088 445.568 914.413 441.021 913.912 439.506C913.244 438.159 915.749 435.97 916.583 433.444C917.418 430.918 923.262 423.846 927.769 426.035C932.11 428.224 934.782 439.843 937.954 436.643C941.126 433.444 939.957 428.393 941.126 428.898C942.295 429.235 946.135 431.76 946.469 432.771C946.803 433.781 952.646 435.296 953.481 432.434C954.316 429.571 958.991 429.908 961.161 433.444C963.165 436.98 958.49 446.578 961.161 447.252C963.833 447.925 966.838 452.303 969.175 456.513C971.513 460.722 968.173 472.172 959.492 472.172C958.657 472.172 952.98 465.437 948.138 465.437C943.297 465.437 940.124 472.172 939.958 469.31C939.29 466.615 944.632 458.196 944.632 458.196Z" fill="url(#paint33_linear_0_1)"/>
<path d="M1174.23 449.765C1179.75 447.165 1182.77 446.472 1183.6 449.765C1184.44 453.058 1186.78 456.005 1189.13 456.005C1191.47 456.005 1191.47 459.298 1191.97 461.032C1192.64 462.938 1196.66 463.285 1198.17 462.938C1199.68 462.592 1204.36 467.272 1204.87 468.832C1205.54 470.218 1203.19 472.472 1202.19 475.072C1201.35 477.672 1195.49 484.952 1190.97 482.698C1186.62 480.445 1183.94 468.485 1180.76 471.778C1177.57 475.072 1178.75 480.098 1177.57 479.752C1176.4 479.405 1172.55 476.805 1172.22 475.765C1171.88 474.725 1166.02 473.165 1165.18 476.112C1164.35 479.058 1159.66 478.712 1157.48 475.072C1155.47 471.432 1160.16 461.552 1157.48 460.858C1154.8 460.165 1151.79 455.832 1149.61 451.325C1147.27 446.992 1150.62 435.205 1159.32 435.205C1160.16 435.205 1165.85 442.138 1170.71 442.138C1175.57 442.138 1178.58 435.205 1178.91 438.152C1179.58 440.925 1174.23 449.765 1174.23 449.765Z" fill="url(#paint34_linear_0_1)"/>
<path d="M827.089 412.603C821.58 415.203 818.575 415.897 817.74 412.603C816.905 409.31 814.567 406.363 812.23 406.363C809.893 406.363 809.893 403.07 809.225 401.163C808.557 399.256 804.55 398.91 803.047 399.256C801.545 399.603 796.87 394.923 796.369 393.363C795.701 391.976 798.206 389.723 799.04 387.123C799.875 384.523 805.719 377.243 810.227 379.496C814.568 381.75 817.239 393.71 820.411 390.416C823.583 387.123 822.415 381.923 823.583 382.443C824.752 382.79 828.592 385.39 828.926 386.43C829.26 387.47 835.103 389.03 835.938 386.083C836.773 383.136 841.448 383.483 843.618 387.123C845.622 390.763 840.947 400.643 843.618 401.336C846.29 402.03 849.295 406.536 851.632 410.87C853.97 415.203 850.631 426.99 841.949 426.99C841.114 426.99 835.437 420.057 830.595 420.057C825.754 420.057 822.581 426.99 822.415 424.043C821.747 421.27 827.089 412.603 827.089 412.603Z" fill="url(#paint35_linear_0_1)"/>
<path d="M534.568 449.57C529.058 452.17 526.053 452.864 525.218 449.57C524.384 446.277 522.046 443.33 519.709 443.33C517.371 443.33 517.371 440.037 516.703 438.13C516.036 436.223 512.029 435.877 510.526 436.223C509.023 436.57 504.349 431.89 503.848 430.33C503.18 428.943 505.684 426.69 506.519 424.09C507.354 421.49 513.197 414.21 517.705 416.463C522.046 418.717 524.717 430.677 527.89 427.383C531.062 424.09 529.893 418.89 531.062 419.41C532.231 419.757 536.071 422.357 536.405 423.397C536.738 424.437 542.582 425.997 543.417 423.05C544.252 420.103 548.926 420.45 551.097 424.09C553.1 427.73 548.426 437.61 551.097 438.303C553.768 438.997 556.773 443.504 559.111 447.837C561.448 452.17 558.109 463.957 549.427 463.957C548.593 463.957 542.916 457.024 538.074 457.024C533.232 457.024 530.06 463.957 529.893 461.01C529.225 458.41 534.568 449.57 534.568 449.57Z" fill="url(#paint36_linear_0_1)"/>
<path d="M694.83 435.08C694.83 435.08 696.673 436.616 692.485 436.274C688.297 435.933 690.977 436.786 689.302 437.981C687.794 439.004 684.444 438.834 683.774 437.981C683.104 436.957 681.093 437.981 680.088 440.028C678.916 441.905 677.24 439.175 674.225 438.834C671.21 438.493 668.864 436.786 665.011 438.322C660.991 439.858 659.316 440.711 657.473 439.687C655.63 438.493 656.97 435.08 652.95 435.421C648.762 435.762 647.924 435.933 646.751 433.544C645.579 431.156 638.04 432.691 646.919 427.231C655.798 421.771 653.117 419.553 660.991 419.894C668.864 420.065 669.702 419.382 673.555 417.335C677.24 415.287 679.418 413.751 680.926 415.628C682.434 417.505 687.292 416.311 690.977 414.434C694.495 412.557 696.338 411.021 698.013 412.557C699.688 414.093 701.029 419.553 706.054 420.577C711.08 421.43 714.263 424.842 713.258 427.06C712.253 429.279 708.902 435.251 707.394 434.227C705.719 433.203 702.704 430.814 703.039 435.08C703.039 439.175 696.003 435.762 694.83 435.08Z" fill="url(#paint37_linear_0_1)"/>
<path d="M533.561 569.159C533.561 569.159 534.908 569.508 532.552 570.379C530.195 571.25 531.878 571.076 531.205 572.121C530.7 573.167 528.849 573.864 528.175 573.69C527.502 573.341 526.829 574.386 526.66 575.78C526.492 577.174 524.809 575.954 523.126 576.651C521.443 577.348 519.759 577 517.908 578.916C516.056 580.833 515.383 581.704 514.037 581.704C512.69 581.53 512.522 579.265 510.502 580.484C508.314 581.704 507.809 582.053 506.631 581.181C505.452 580.136 501.749 583.098 505.116 577.523C508.65 572.121 506.631 571.599 510.839 569.682C515.215 567.766 515.551 567.069 517.066 564.978C518.581 562.887 519.423 561.319 520.601 562.016C521.948 562.713 524.304 560.622 525.819 558.706C527.334 556.789 527.839 555.395 529.185 555.744C530.532 556.266 532.72 558.88 535.581 558.009C538.443 557.138 541.136 558.183 541.136 559.577C541.136 560.971 540.799 565.326 539.789 565.152C538.611 564.978 536.423 564.455 537.601 566.894C539.116 569.334 534.403 569.334 533.561 569.159Z" fill="url(#paint38_linear_0_1)"/>
<path d="M265.083 536.474C265.083 536.474 266.429 536.823 264.073 537.694C261.717 538.565 263.4 538.391 262.726 539.436C262.221 540.481 260.37 541.178 259.697 540.83C259.023 540.481 258.35 541.527 258.182 542.921C258.014 544.314 256.33 543.095 254.647 543.792C252.964 544.489 251.281 544.14 249.429 546.057C247.578 547.973 246.905 548.844 245.558 548.844C244.211 548.67 244.043 546.405 242.023 547.625C239.835 548.844 239.33 549.193 238.152 548.322C236.974 547.276 233.271 550.238 236.637 544.663C240.172 539.262 238.152 538.739 242.36 536.823C246.736 534.906 247.073 534.209 248.588 532.118C250.103 530.028 250.944 528.459 252.122 529.156C253.469 529.853 255.825 527.763 257.34 525.846C258.855 523.93 259.36 522.536 260.707 522.884C262.053 523.407 264.241 526.02 267.103 525.149C269.964 524.278 272.657 525.323 272.657 526.717C272.657 528.111 272.321 532.467 271.311 532.293C270.132 532.118 267.944 531.596 269.122 534.035C270.469 536.474 265.924 536.474 265.083 536.474Z" fill="url(#paint39_linear_0_1)"/>
<path d="M163.435 417.183C163.435 417.183 164.775 417.532 162.43 418.403C160.084 419.274 161.759 419.1 161.089 420.145C160.586 421.191 158.743 421.888 158.073 421.713C157.403 421.365 156.732 422.41 156.565 423.804C156.397 425.198 154.722 423.978 153.046 424.675C151.37 425.372 149.695 425.024 147.852 426.94C146.008 428.857 145.338 429.728 143.998 429.728C142.657 429.554 142.49 427.289 140.479 428.508C138.3 429.728 137.798 430.076 136.625 429.205C135.452 428.16 131.765 431.122 135.117 425.546C138.636 420.145 136.625 419.623 140.981 417.706C145.338 415.79 145.673 415.093 147.181 413.002C148.689 410.911 149.527 409.343 150.7 410.04C152.041 410.737 154.387 408.646 155.895 406.73C157.403 404.813 157.905 403.419 159.246 403.768C160.586 404.29 162.597 406.904 165.613 406.033C168.462 405.162 171.143 406.207 171.143 407.601C171.143 408.995 170.808 413.35 169.802 413.176C168.629 413.002 166.451 412.479 167.624 414.918C168.965 417.183 164.273 417.183 163.435 417.183Z" fill="url(#paint40_linear_0_1)"/>
<path d="M1158.68 342.054C1158.68 342.054 1160.02 342.403 1157.67 343.274C1155.31 344.145 1156.99 343.971 1156.32 345.016C1155.81 346.062 1153.96 346.759 1153.29 346.41C1152.62 346.062 1151.94 347.107 1151.77 348.501C1151.61 349.895 1149.92 348.675 1148.24 349.372C1146.56 350.069 1144.87 349.721 1143.02 351.637C1141.17 353.554 1140.5 354.425 1139.15 354.425C1137.8 354.251 1137.64 351.986 1135.62 353.205C1133.43 354.425 1132.92 354.773 1131.74 353.902C1130.57 352.857 1126.86 355.819 1130.23 350.243C1133.76 344.842 1131.74 344.319 1135.95 342.403C1140.33 340.486 1140.67 339.789 1142.18 337.699C1143.7 335.608 1144.54 334.04 1145.72 334.737C1147.06 335.434 1149.42 333.343 1150.93 331.426C1152.45 329.51 1152.95 328.116 1154.3 328.464C1155.65 328.987 1157.83 331.601 1160.7 330.729C1163.56 329.858 1166.25 330.904 1166.25 332.298C1166.25 333.691 1165.91 338.047 1164.9 337.873C1163.73 337.699 1161.54 337.176 1162.72 339.615C1164.06 342.054 1159.52 342.054 1158.68 342.054Z" fill="url(#paint41_linear_0_1)"/>
<path d="M303.122 445.284C298.026 451.83 294.968 454.586 291.911 451.313C288.853 448.04 284.267 446.145 281.379 447.523C278.491 449.073 276.623 445.111 274.754 443.389C272.886 441.666 267.79 443.733 266.261 445.111C264.732 446.489 256.239 443.905 254.71 442.527C253.181 441.149 254.54 437.187 254.031 433.569C253.691 431.502 259.976 429.435 261.845 425.645C263.204 422.717 259.806 417.549 262.694 417.376C269.319 417.204 279.85 429.607 281.719 423.75C283.587 417.893 279.171 412.553 280.7 412.208C282.398 411.864 288.514 412.381 289.533 413.586C290.552 414.62 298.536 412.725 297.686 408.591C297.007 404.629 302.782 402.045 307.538 404.973C312.295 407.902 312.634 422.544 316.202 421.683C319.769 420.822 326.054 424.095 331.49 427.712C334.717 429.952 330.98 438.393 329.451 444.939C328.432 449.246 329.961 452.519 329.621 452.863C329.281 453.036 327.073 457.859 324.355 458.548C322.317 459.065 320.109 461.649 318.24 461.132C315.692 460.615 313.824 456.825 313.824 456.825C313.824 456.825 306.519 465.094 304.311 461.821C302.103 458.893 303.122 445.284 303.122 445.284Z" fill="url(#paint42_linear_0_1)"/>
<path d="M716.193 372.547C711.183 379.093 708.178 381.849 705.172 378.576C702.166 375.303 697.658 373.408 694.986 374.786C692.147 376.336 690.31 372.374 688.473 370.652C686.636 368.929 681.627 370.996 680.124 372.374C678.621 373.752 670.272 371.168 668.769 369.79C667.266 368.412 668.602 364.45 668.101 360.832C667.767 358.765 673.945 356.698 675.782 352.908C677.118 349.98 673.778 344.812 676.617 344.639C683.13 344.467 693.483 356.87 695.32 351.013C697.157 345.156 692.815 339.816 694.318 339.471C695.988 339.127 701.999 339.644 703.001 340.849C704.003 341.883 711.851 339.988 711.016 336.026C710.349 332.064 716.026 329.48 720.702 332.408C725.377 335.337 725.711 349.98 729.218 349.118C732.725 348.257 738.903 351.53 744.247 355.148C747.42 357.387 743.746 365.828 742.243 372.374C741.241 376.681 742.744 379.954 742.41 380.299C742.076 380.471 739.905 385.294 737.233 385.983C735.23 386.5 733.059 389.084 731.222 388.567C728.717 388.051 726.88 384.261 726.88 384.261C726.88 384.261 719.7 392.53 717.529 389.257C715.191 386.328 716.193 372.547 716.193 372.547Z" fill="url(#paint43_linear_0_1)"/>
<path d="M1156.47 452.13C1151.38 458.676 1148.32 461.432 1145.26 458.159C1142.2 454.886 1137.62 452.991 1134.9 454.369C1132.01 455.919 1130.14 451.957 1128.28 450.235C1126.41 448.512 1121.31 450.579 1119.78 451.957C1118.25 453.335 1109.76 450.751 1108.23 449.373C1106.7 447.995 1108.06 444.033 1107.55 440.415C1107.21 438.348 1113.5 436.281 1115.37 432.491C1116.72 429.563 1113.33 424.395 1116.22 424.222C1122.84 424.05 1133.37 436.453 1135.24 430.596C1137.11 424.739 1132.69 419.399 1134.22 419.054C1135.92 418.71 1142.03 419.226 1143.05 420.432C1144.07 421.466 1152.06 419.571 1151.21 415.437C1150.53 411.474 1156.3 408.89 1161.06 411.819C1165.82 414.748 1166.16 429.39 1169.72 428.529C1173.29 427.668 1179.58 430.941 1185.01 434.558C1188.24 436.798 1184.5 445.239 1182.97 451.785C1181.95 456.092 1183.48 459.365 1183.14 459.709C1182.8 459.882 1180.59 464.705 1177.88 465.394C1175.84 465.911 1173.63 468.495 1171.59 467.978C1169.04 467.461 1167.18 463.671 1167.18 463.671C1167.18 463.671 1159.87 471.94 1157.66 468.667C1155.45 465.739 1156.47 452.13 1156.47 452.13Z" fill="url(#paint44_linear_0_1)"/>
<defs>
<linearGradient id="paint0_linear_0_1" x1="669.737" y1="0" x2="669.737" y2="1062.7" gradientUnits="userSpaceOnUse">
<stop stop-color="#6CA2F3"/>
<stop offset="1" stop-color="#F9F3F6"/>
</linearGradient>
<linearGradient id="paint1_linear_0_1" x1="1297.85" y1="413.851" x2="96.4538" y2="413.855" gradientUnits="userSpaceOnUse">
<stop stop-color="#FEFEFE" stop-opacity="0"/>
<stop offset="1" stop-color="white"/>
</linearGradient>
<linearGradient id="paint2_linear_0_1" x1="1175.13" y1="5.21927" x2="-26.2661" y2="5.2223" gradientUnits="userSpaceOnUse">
<stop stop-color="#FEFEFE" stop-opacity="0"/>
<stop offset="1" stop-color="white"/>
</linearGradient>
<linearGradient id="paint3_linear_0_1" x1="1175.13" y1="3.91445" x2="-26.2661" y2="3.91849" gradientUnits="userSpaceOnUse">
<stop stop-color="#FEFEFE" stop-opacity="0"/>
<stop offset="1" stop-color="white"/>
</linearGradient>
<linearGradient id="paint4_linear_0_1" x1="1094.41" y1="748.067" x2="-24.4621" y2="748.07" gradientUnits="userSpaceOnUse">
<stop stop-color="#FEFEFE" stop-opacity="0"/>
<stop offset="1" stop-color="white"/>
</linearGradient>
<linearGradient id="paint5_linear_0_1" x1="2581.41" y1="569.209" x2="1462.54" y2="569.213" gradientUnits="userSpaceOnUse">
<stop stop-color="#FEFEFE" stop-opacity="0"/>
<stop offset="1" stop-color="white"/>
</linearGradient>
<linearGradient id="paint6_linear_0_1" x1="2528.91" y1="839.455" x2="1270.18" y2="839.459" gradientUnits="userSpaceOnUse">
<stop stop-color="#FEFEFE" stop-opacity="0"/>
<stop offset="1" stop-color="white"/>
</linearGradient>
<linearGradient id="paint7_linear_0_1" x1="2428.67" y1="596.625" x2="1309.79" y2="596.629" gradientUnits="userSpaceOnUse">
<stop stop-color="#FEFEFE" stop-opacity="0"/>
<stop offset="1" stop-color="white"/>
</linearGradient>
<linearGradient id="paint8_linear_0_1" x1="411.292" y1="646.146" x2="411.292" y2="775.491" gradientUnits="userSpaceOnUse">
<stop stop-color="white"/>
<stop offset="1" stop-color="#CCEDFF"/>
</linearGradient>
<linearGradient id="paint9_linear_0_1" x1="973.36" y1="659.027" x2="973.36" y2="741.136" gradientUnits="userSpaceOnUse">
<stop stop-color="white"/>
<stop offset="1" stop-color="#CCEDFF"/>
</linearGradient>
<linearGradient id="paint10_linear_0_1" x1="354.197" y1="818.36" x2="354.197" y2="882.331" gradientUnits="userSpaceOnUse">
<stop stop-color="white"/>
<stop offset="1" stop-color="#CCEDFF"/>
</linearGradient>
<linearGradient id="paint11_linear_0_1" x1="856.888" y1="825.265" x2="856.888" y2="779.499" gradientUnits="userSpaceOnUse">
<stop stop-color="white"/>
<stop offset="1" stop-color="#CCEDFF"/>
</linearGradient>
<linearGradient id="paint12_linear_0_1" x1="723.215" y1="876.38" x2="723.215" y2="820.128" gradientUnits="userSpaceOnUse">
<stop stop-color="white"/>
<stop offset="1" stop-color="#CCEDFF"/>
</linearGradient>
<linearGradient id="paint13_linear_0_1" x1="1210.71" y1="400.974" x2="65.9724" y2="400.977" gradientUnits="userSpaceOnUse">
<stop stop-color="#FEFEFE" stop-opacity="0"/>
<stop offset="1" stop-color="white"/>
</linearGradient>
<linearGradient id="paint14_linear_0_1" x1="307.686" y1="457.584" x2="457.084" y2="618.598" gradientUnits="userSpaceOnUse">
<stop stop-color="#FEFEFE"/>
<stop offset="1" stop-color="#BFBFBF"/>
</linearGradient>
<linearGradient id="paint15_linear_0_1" x1="788.624" y1="422.111" x2="816.791" y2="736.532" gradientUnits="userSpaceOnUse">
<stop stop-color="#FEFEFE"/>
<stop offset="1" stop-color="#BFBFBF"/>
</linearGradient>
<linearGradient id="paint16_linear_0_1" x1="669.443" y1="662.137" x2="669.443" y2="432.008" gradientUnits="userSpaceOnUse">
<stop stop-color="white"/>
<stop offset="1" stop-color="#CCEDFF"/>
</linearGradient>
<linearGradient id="paint17_linear_0_1" x1="1133.39" y1="557.116" x2="1133.39" y2="395.659" gradientUnits="userSpaceOnUse">
<stop stop-color="white"/>
<stop offset="1" stop-color="#CCEDFF"/>
</linearGradient>
<linearGradient id="paint18_linear_0_1" x1="815.603" y1="548.866" x2="815.603" y2="457.199" gradientUnits="userSpaceOnUse">
<stop stop-color="white"/>
<stop offset="1" stop-color="#CCEDFF"/>
</linearGradient>
<linearGradient id="paint19_linear_0_1" x1="341.974" y1="588.569" x2="341.974" y2="524.129" gradientUnits="userSpaceOnUse">
<stop stop-color="white"/>
<stop offset="1" stop-color="#CCEDFF"/>
</linearGradient>
<linearGradient id="paint20_linear_0_1" x1="384.511" y1="562.675" x2="384.511" y2="421.53" gradientUnits="userSpaceOnUse">
<stop stop-color="white"/>
<stop offset="1" stop-color="#CCEDFF"/>
</linearGradient>
<linearGradient id="paint21_linear_0_1" x1="764.09" y1="502.383" x2="764.09" y2="425.595" gradientUnits="userSpaceOnUse">
<stop stop-color="white"/>
<stop offset="1" stop-color="#CCEDFF"/>
</linearGradient>
<linearGradient id="paint22_linear_0_1" x1="323.601" y1="253.674" x2="323.601" y2="444.008" gradientUnits="userSpaceOnUse">
<stop stop-color="white"/>
<stop offset="1" stop-color="#CCEDFF"/>
</linearGradient>
<linearGradient id="paint23_linear_0_1" x1="936.557" y1="262.596" x2="936.557" y2="398.245" gradientUnits="userSpaceOnUse">
<stop stop-color="white"/>
<stop offset="1" stop-color="#CCEDFF"/>
</linearGradient>
<linearGradient id="paint24_linear_0_1" x1="898.061" y1="559.758" x2="898.061" y2="481.634" gradientUnits="userSpaceOnUse">
<stop stop-color="white"/>
<stop offset="1" stop-color="#CCEDFF"/>
</linearGradient>
<linearGradient id="paint25_linear_0_1" x1="146.442" y1="450.447" x2="146.442" y2="499.516" gradientUnits="userSpaceOnUse">
<stop stop-color="white"/>
<stop offset="1" stop-color="#CCEDFF"/>
</linearGradient>
<linearGradient id="paint26_linear_0_1" x1="215.815" y1="529.67" x2="215.815" y2="421.192" gradientUnits="userSpaceOnUse">
<stop stop-color="white"/>
<stop offset="1" stop-color="#CCEDFF"/>
</linearGradient>
<linearGradient id="paint27_linear_0_1" x1="658.705" y1="283.149" x2="658.705" y2="510.896" gradientUnits="userSpaceOnUse">
<stop stop-color="white"/>
<stop offset="1" stop-color="#CCEDFF"/>
</linearGradient>
<linearGradient id="paint28_linear_0_1" x1="937.266" y1="433.967" x2="937.266" y2="490.082" gradientUnits="userSpaceOnUse">
<stop stop-color="white"/>
<stop offset="1" stop-color="#CCEDFF"/>
</linearGradient>
<linearGradient id="paint29_linear_0_1" x1="644.565" y1="550.493" x2="644.565" y2="464.383" gradientUnits="userSpaceOnUse">
<stop stop-color="white"/>
<stop offset="1" stop-color="#CCEDFF"/>
</linearGradient>
<linearGradient id="paint30_linear_0_1" x1="299.518" y1="626.915" x2="299.518" y2="431.22" gradientUnits="userSpaceOnUse">
<stop stop-color="white"/>
<stop offset="1" stop-color="#CCEDFF"/>
</linearGradient>
<linearGradient id="paint31_linear_0_1" x1="1085.65" y1="447.46" x2="1085.65" y2="498.132" gradientUnits="userSpaceOnUse">
<stop stop-color="white"/>
<stop offset="1" stop-color="#CCEDFF"/>
</linearGradient>
<linearGradient id="paint32_linear_0_1" x1="1086.37" y1="549.067" x2="1086.37" y2="480.61" gradientUnits="userSpaceOnUse">
<stop stop-color="white"/>
<stop offset="1" stop-color="#CCEDFF"/>
</linearGradient>
<linearGradient id="paint33_linear_0_1" x1="941.726" y1="472.37" x2="941.726" y2="425.745" gradientUnits="userSpaceOnUse">
<stop stop-color="white"/>
<stop offset="1" stop-color="#CCEDFF"/>
</linearGradient>
<linearGradient id="paint34_linear_0_1" x1="1177.14" y1="435.109" x2="1177.14" y2="482.925" gradientUnits="userSpaceOnUse">
<stop stop-color="white"/>
<stop offset="1" stop-color="#CCEDFF"/>
</linearGradient>
<linearGradient id="paint35_linear_0_1" x1="824.114" y1="427.167" x2="824.114" y2="379.171" gradientUnits="userSpaceOnUse">
<stop stop-color="white"/>
<stop offset="1" stop-color="#CCEDFF"/>
</linearGradient>
<linearGradient id="paint36_linear_0_1" x1="531.671" y1="464.262" x2="531.671" y2="416.266" gradientUnits="userSpaceOnUse">
<stop stop-color="white"/>
<stop offset="1" stop-color="#CCEDFF"/>
</linearGradient>
<linearGradient id="paint37_linear_0_1" x1="677.765" y1="440.513" x2="677.766" y2="411.562" gradientUnits="userSpaceOnUse">
<stop stop-color="white"/>
<stop offset="1" stop-color="#CCEDFF"/>
</linearGradient>
<linearGradient id="paint38_linear_0_1" x1="522.523" y1="581.765" x2="522.523" y2="555.763" gradientUnits="userSpaceOnUse">
<stop stop-color="white"/>
<stop offset="1" stop-color="#CCEDFF"/>
</linearGradient>
<linearGradient id="paint39_linear_0_1" x1="253.993" y1="548.983" x2="253.993" y2="522.981" gradientUnits="userSpaceOnUse">
<stop stop-color="white"/>
<stop offset="1" stop-color="#CCEDFF"/>
</linearGradient>
<linearGradient id="paint40_linear_0_1" x1="152.436" y1="429.638" x2="152.436" y2="403.635" gradientUnits="userSpaceOnUse">
<stop stop-color="white"/>
<stop offset="1" stop-color="#CCEDFF"/>
</linearGradient>
<linearGradient id="paint41_linear_0_1" x1="1147.55" y1="354.534" x2="1147.55" y2="328.532" gradientUnits="userSpaceOnUse">
<stop stop-color="white"/>
<stop offset="1" stop-color="#CCEDFF"/>
</linearGradient>
<linearGradient id="paint42_linear_0_1" x1="293.31" y1="462.975" x2="293.31" y2="403.981" gradientUnits="userSpaceOnUse">
<stop stop-color="white"/>
<stop offset="1" stop-color="#CCEDFF"/>
</linearGradient>
<linearGradient id="paint43_linear_0_1" x1="706.562" y1="390.262" x2="706.562" y2="331.268" gradientUnits="userSpaceOnUse">
<stop stop-color="white"/>
<stop offset="1" stop-color="#CCEDFF"/>
</linearGradient>
<linearGradient id="paint44_linear_0_1" x1="1146.78" y1="469.795" x2="1146.78" y2="410.8" gradientUnits="userSpaceOnUse">
<stop stop-color="white"/>
<stop offset="1" stop-color="#CCEDFF"/>
</linearGradient>
</defs>
</svg>
