<svg width="1526" height="1174" viewBox="0 0 1526 1174" fill="none" xmlns="http://www.w3.org/2000/svg">
<rect x="177.387" width="1062.7" height="1062.7" fill="url(#paint0_linear_0_1)"/>
<rect x="161.72" y="409.937" width="1121.45" height="3.91659" fill="url(#paint1_linear_0_1)"/>
<rect width="1121.45" height="5.22212" transform="matrix(-1 0 0 1 1251.84 143.608)" fill="url(#paint2_linear_0_1)"/>
<rect width="1121.45" height="3.91659" transform="matrix(-1 0 0 1 1283.17 133.164)" fill="url(#paint3_linear_0_1)"/>
<rect x="39" y="744.152" width="1044.42" height="3.91659" fill="url(#paint4_linear_0_1)"/>
<rect x="1526" y="565.295" width="1044.42" height="3.91668" transform="rotate(180 1526 565.295)" fill="url(#paint5_linear_0_1)"/>
<rect x="1336.7" y="835.54" width="1174.98" height="3.9167" transform="rotate(180 1336.7 835.54)" fill="url(#paint6_linear_0_1)"/>
<rect x="1373.25" y="592.711" width="1044.42" height="3.91668" transform="rotate(180 1373.25 592.711)" fill="url(#paint7_linear_0_1)"/>
<path d="M720.487 785.929C719.503 785.11 718.519 782.979 717.535 779.373C715.076 769.374 713.764 766.752 708.844 768.719C703.925 770.686 703.597 769.538 702.613 761.015C701.629 752.655 693.922 740.362 683.427 739.542C672.932 738.723 666.372 729.544 656.041 720.857C645.547 712.005 646.039 699.384 620.949 690.697C595.86 681.846 610.126 698.401 599.467 712.169C588.644 725.938 585.856 714.792 583.889 710.694C581.757 706.433 579.297 708.727 578.641 710.694C577.985 712.661 577.657 722.168 571.426 713.809C565.195 705.449 565.195 709.219 564.867 710.694C564.539 712.169 554.044 716.103 549.288 708.399C544.369 700.696 540.269 706.924 522.231 713.809C504.193 720.693 507.636 724.463 507.636 715.284C507.636 706.105 501.077 708.399 491.238 706.433C481.563 704.466 472.872 719.381 471.724 711.842C470.74 704.138 456.145 711.842 457.129 709.875C458.113 707.908 454.67 696.106 450.57 690.697C446.47 685.288 446.798 687.583 444.667 689.55C442.535 691.517 443.683 701.843 436.631 707.088C429.744 712.497 424.169 709.055 424.169 706.269C424.169 703.646 416.461 689.386 409.902 686.435C403.343 683.321 402.687 672.667 397.111 671.847C391.536 671.028 391.208 683.321 389.076 686.763C386.944 690.205 383.829 688.73 382.845 681.846C381.861 674.962 373.498 674.962 367.594 674.962C361.691 674.962 358.903 670.372 352.672 662.013C346.44 653.653 340.209 656.276 325.614 662.013C311.02 667.75 306.1 667.75 294.622 666.93C283.143 666.111 283.799 669.225 278.715 671.192C273.468 673.159 274.124 670.044 267.892 671.192C261.661 672.339 266.58 686.927 263.301 683.485C260.185 680.043 249.69 677.42 242.475 676.929C235.26 676.601 226.896 680.371 218.533 681.518C210.17 682.665 208.038 685.288 202.135 691.844C196.231 698.401 194.1 705.941 188.196 712.825C186.064 715.284 183.113 718.234 179.997 720.693V785.929H720.487Z" fill="url(#paint8_linear_0_1)"/>
<path d="M1197.83 717.026C1194.88 708.847 1203.57 707.047 1210.63 700.013C1217.52 692.979 1222.77 691.834 1210.63 687.58C1198.49 683.327 1198.49 679.074 1203.08 675.148C1207.67 671.222 1190.94 676.62 1190.94 676.62C1190.94 676.62 1197.83 667.786 1183.39 660.588C1168.79 653.554 1153.21 644.23 1149.76 655.19C1146.32 666.15 1143.36 670.731 1137.62 667.95C1131.88 665.169 1121.87 664.024 1119.58 669.095C1117.28 674.003 1126.47 677.601 1116.62 679.728C1106.78 681.855 1105.63 675.475 1097.43 676.947C1089.23 678.419 1089.23 682.673 1086.93 684.472C1084.63 686.272 1074.79 684.472 1068.39 687.744C1061.99 691.016 1058.55 689.871 1055.59 685.944C1052.64 682.018 1045.75 679.892 1039.84 679.892C1034.1 679.892 1026.56 673.185 1023.6 671.712C1020.65 670.24 1009.66 667.786 1007.36 674.493C1005.06 681.2 998.01 685.454 994.565 683.327C991.12 681.2 977.175 678.419 970.121 672.694C963.23 666.968 952.074 674.166 947.973 669.913C943.872 665.66 931.075 658.298 923.529 657.48C915.982 656.826 896.295 660.588 894.491 669.913C892.686 679.074 901.381 688.725 885.139 687.253C868.898 685.781 812.463 688.235 807.869 696.414C803.275 704.593 812.463 719.807 822.47 723.079C830.673 725.696 847.571 725.205 847.735 732.403L1179.46 732.403C1179.62 732.403 1179.78 732.403 1179.95 732.24C1192.09 729.459 1200.78 725.205 1197.83 717.026Z" fill="url(#paint9_linear_0_1)"/>
<path d="M494.521 874.714C497.645 872.268 492.383 869.823 495.014 867.703C500.769 862.976 513.1 859.063 513.265 856.454C513.758 848.303 521.157 837.706 516.717 835.587C514.909 834.609 513.429 829.881 507.181 831.348C502.577 832.489 493.37 839.825 489.095 840.315C485.149 840.804 481.861 835.261 480.216 836.565C474.297 840.804 456.211 849.118 451.279 846.021C446.346 842.923 442.236 834.935 432.042 840.152C421.848 845.368 408.036 843.575 399.98 837.543C394.883 833.793 394.554 835.75 385.018 842.434C383.538 843.575 380.25 838.521 376.961 839.825C374.002 840.967 371.206 848.466 369.562 849.77C366.438 852.379 363.643 856.291 359.533 854.498C359.533 854.498 358.382 850.096 360.684 840.967C362.985 832 368.576 822.381 366.11 819.284C363.808 816.349 360.355 823.197 352.956 826.131C349.503 827.435 341.94 823.034 339.145 825.153C334.87 828.413 331.91 837.054 331.91 837.054C331.91 837.054 327.964 829.392 320.237 829.718C314.153 829.881 305.274 837.217 298.369 839.662C289.161 842.923 278.967 855.639 277.652 856.291C276.172 857.107 279.132 864.117 273.213 874.877C271.897 877.322 270.253 879.931 268.773 882.539L481.203 882.539C481.532 881.724 482.025 880.909 482.683 880.257C484.162 878.137 492.383 876.344 494.521 874.714Z" fill="url(#paint10_linear_0_1)"/>
<path d="M898.865 811.378C893.351 813.857 890.344 814.518 889.509 811.378C888.673 808.237 886.334 805.428 883.995 805.428C881.656 805.428 881.656 802.287 880.988 800.469C880.32 798.651 876.31 798.321 874.807 798.651C873.303 798.982 868.625 794.519 868.124 793.032C867.455 791.709 869.961 789.561 870.797 787.082C871.632 784.602 877.48 777.661 881.991 779.809C886.334 781.958 889.008 793.362 892.182 790.222C895.356 787.082 894.187 782.123 895.356 782.619C896.526 782.95 900.368 785.429 900.703 786.42C901.037 787.412 906.884 788.9 907.72 786.09C908.555 783.28 913.233 783.611 915.405 787.082C917.41 790.552 912.732 799.973 915.405 800.634C918.078 801.296 921.085 805.593 923.424 809.725C925.763 813.857 922.422 825.096 913.734 825.096C912.899 825.096 907.218 818.485 902.373 818.485C897.528 818.485 894.354 825.096 894.187 822.286C893.519 819.642 898.865 811.378 898.865 811.378Z" fill="url(#paint11_linear_0_1)"/>
<path d="M771.644 859.511C766.747 865.753 763.809 868.381 760.872 865.26C757.934 862.139 753.527 860.332 750.752 861.646C747.978 863.125 746.182 859.347 744.387 857.704C742.592 856.061 737.695 858.032 736.226 859.347C734.758 860.661 726.597 858.197 725.128 856.883C723.659 855.569 724.965 851.791 724.475 848.341C724.149 846.37 730.188 844.399 731.983 840.785C733.289 837.992 730.024 833.065 732.799 832.9C739.164 832.736 749.284 844.563 751.079 838.978C752.874 833.393 748.631 828.301 750.1 827.972C751.732 827.644 757.607 828.137 758.587 829.287C759.566 830.272 767.237 828.465 766.421 824.523C765.768 820.745 771.317 818.281 775.887 821.073C780.457 823.866 780.784 837.828 784.211 837.007C787.639 836.186 793.677 839.307 798.9 842.756C802.001 844.892 798.411 852.94 796.942 859.182C795.962 863.289 797.431 866.41 797.105 866.738C796.779 866.903 794.657 871.502 792.045 872.159C790.087 872.652 787.965 875.116 786.17 874.623C783.721 874.13 781.926 870.516 781.926 870.516C781.926 870.516 774.908 878.401 772.786 875.28C770.664 872.488 771.644 859.511 771.644 859.511Z" fill="url(#paint12_linear_0_1)"/>
<rect x="130" y="396.869" width="1068.57" height="4.10746" fill="url(#paint13_linear_0_1)"/>
<path d="M269.483 489.543L248.248 499.231C245.378 500.54 243.536 503.405 243.536 506.56C243.536 511.009 247.143 514.616 251.592 514.616H522.394C526.989 514.616 530.715 510.89 530.715 506.295C530.715 503.263 529.066 500.472 526.411 499.008L508.312 489.031C505.947 487.726 503.289 487.042 500.588 487.042H483.24C478.948 487.042 474.836 488.767 471.827 491.829L467.145 496.594C464.137 499.656 460.024 501.38 455.732 501.38H436.27C434.23 501.38 432.209 500.99 430.316 500.231L397.42 487.042L371.262 477.595C366.575 475.903 361.367 476.491 357.176 479.185L328.846 497.395C324.911 499.924 320.067 500.605 315.587 499.258L280.732 488.777C277.013 487.659 273.015 487.931 269.483 489.543Z" fill="url(#paint14_linear_0_1)"/>
<path d="M701.152 458.892C684.719 471.184 660.622 489.218 649.175 497.818C645.209 500.798 642.914 505.448 642.914 510.409V512.307C642.914 521.144 650.078 528.307 658.914 528.307H1141.16C1150 528.307 1157.16 521.144 1157.16 512.307V510.13C1157.16 505.328 1155.01 500.772 1151.26 497.78C1136.03 485.648 1112.72 468.151 1108.14 468.936C1101.6 470.056 1055.84 502.542 1048.21 502.542C1040.59 502.542 958.873 486.859 945.799 479.018C932.724 471.176 869.533 454.373 862.996 454.373C856.459 454.373 813.968 482.378 804.162 479.018C796.928 476.539 745.289 463.709 714.509 456.163C709.867 455.025 704.98 456.03 701.152 458.892Z" fill="url(#paint15_linear_0_1)"/>
<path d="M176.476 407.822C172.28 409.37 168.42 410.918 164.729 412.467V553.706C166.574 553.878 167.078 555.598 167.749 560.071C168.756 566.264 176.308 575.554 186.712 576.07C197.117 576.586 203.662 583.467 213.898 590.004C224.303 596.542 219.436 604.627 244.273 611.164C269.109 617.702 259.376 606.692 270.116 596.542C280.856 586.22 275.318 594.305 277.332 597.402C279.346 600.498 285.891 598.09 286.562 596.714C287.233 595.337 291.596 589.144 297.806 595.509C304.015 601.703 304.015 598.95 304.35 597.746C304.686 596.542 315.09 593.789 319.789 599.466C324.656 605.143 328.683 600.67 346.64 595.509C364.596 590.348 361.072 587.596 361.072 594.305C361.072 601.187 367.616 599.466 377.182 600.842C386.747 602.219 395.474 591.209 396.481 596.886C397.487 602.563 411.92 596.886 410.913 598.262C409.906 599.638 411.248 602.391 415.444 606.348C419.639 610.304 421.317 608.584 423.331 607.208C425.345 605.831 424.338 604.283 431.218 600.326C438.099 596.37 443.637 598.95 443.637 600.842C443.637 602.907 451.188 613.401 457.733 615.637C464.278 617.874 464.949 625.959 470.487 626.475C476.025 626.991 476.36 617.874 478.374 615.293C480.388 612.713 483.576 613.917 484.583 619.078C485.59 624.239 493.813 624.239 499.687 624.239C505.56 624.239 508.245 627.68 514.454 633.873C520.663 640.066 526.873 638.174 541.305 633.873C555.737 629.572 560.603 629.572 572.015 630.088C583.426 630.604 582.755 628.368 587.789 626.991C592.992 625.615 592.32 627.852 598.529 626.991C604.739 626.131 599.872 615.293 603.06 617.874C606.081 620.454 616.486 622.519 623.702 622.691C630.918 623.035 639.141 620.11 647.531 619.25C655.754 618.39 657.936 616.325 663.642 611.508C669.515 606.692 671.529 601.015 677.402 595.854C683.276 590.693 696.365 582.951 697.708 585.532C699.05 588.112 705.26 589.316 709.455 587.768C713.65 586.392 721.202 586.908 727.411 587.768C733.62 588.628 735.634 587.252 738.151 585.188C740.501 583.123 740.836 583.123 745.703 582.263C750.57 581.403 754.262 582.263 753.926 578.306C753.59 574.349 753.926 571.253 760.471 572.801C767.015 574.521 766.68 574.866 769.029 569.016C771.379 563.339 773.896 566.436 781.447 566.78C788.999 567.124 789.335 567.296 789.335 562.995C789.335 558.694 794.201 560.415 803.431 560.415C812.661 560.415 814.171 559.039 814.843 556.458C815.514 553.878 830.617 556.802 831.456 554.738C832.128 552.673 838.672 553.361 845.217 554.222C851.762 555.082 845.553 557.318 845.217 561.103C844.881 564.888 846.224 569.36 850.084 566.78C853.943 564.199 852.433 560.415 858.978 561.275C865.523 562.135 872.403 562.479 873.746 565.404C875.088 568.328 882.304 570.049 887.842 571.425C893.38 572.801 889.52 583.639 893.716 589.66C897.911 595.681 905.798 600.842 912.679 599.638C919.559 598.434 918.216 594.821 919.895 596.198C921.573 597.574 924.09 598.778 929.46 596.198C934.998 593.617 938.354 593.617 939.865 594.477C941.207 595.337 947.081 594.133 950.269 591.037C953.29 587.94 958.156 587.94 962.687 586.736C967.218 585.532 977.791 583.639 981.986 591.037C986.181 598.434 988.195 597.918 990.209 598.09C992.223 598.434 998.096 594.649 998.432 599.294C998.767 603.939 1007.33 606.348 1009.51 602.219C1011.52 597.918 1022.6 600.498 1026.12 603.423C1029.65 606.348 1044.08 615.637 1049.45 611.164C1054.99 606.52 1055.32 604.627 1055.32 604.627C1076.3 596.37 1059.85 589.488 1068.41 583.811C1076.97 578.134 1081.5 555.942 1084.19 554.222C1086.87 552.501 1090.73 554.222 1092.74 552.501C1094.76 550.781 1098.62 549.405 1098.28 545.964C1097.95 542.523 1105.16 540.803 1107.18 541.147C1109.19 541.491 1117.58 541.491 1118.92 538.051C1120.27 534.782 1126.14 537.706 1127.82 537.879C1129.5 538.223 1135.37 537.878 1137.89 535.814C1140.24 533.75 1141.41 530.653 1143.76 530.137C1146.11 529.621 1147.62 528.761 1146.44 526.524C1145.44 524.46 1147.45 524.46 1149.13 521.191C1150.81 518.095 1153.66 518.611 1160.88 518.611C1168.09 518.611 1167.42 524.46 1177.49 521.707C1179.34 521.191 1183.36 517.923 1184.71 517.235C1186.05 516.546 1189.24 516.03 1189.91 516.891C1190.58 517.751 1195.11 516.891 1195.11 516.891C1195.11 516.891 1197.12 515.514 1197.8 513.278C1198.47 511.041 1201.66 511.902 1201.66 511.902C1201.66 511.902 1204.68 511.902 1206.19 513.106C1207.53 514.31 1208.87 511.902 1210.72 509.837C1212.4 507.773 1218.27 507.085 1221.79 509.321C1238.41 520.331 1245.62 513.45 1252 510.525V407.822H176.476Z" fill="url(#paint16_linear_0_1)"/>
<path d="M1097.23 473.588C1098.4 483.277 1095.56 494.351 1098.9 498.157C1102.23 501.964 1114.74 534.838 1117.91 531.205C1121.08 527.571 1133.92 496.946 1137.75 501.791C1141.59 506.808 1148.43 517.19 1154.27 513.383C1159.94 509.404 1169.44 515.113 1175.95 524.284C1182.45 533.454 1182.78 548.853 1193.12 531.205C1193.12 531.205 1197.46 545.912 1201.96 554.909C1206.47 563.906 1221.31 541.759 1221.31 541.759C1221.31 541.759 1242.82 555.255 1247.99 533.8V456.112C1239.15 449.018 1230.15 444.174 1224.64 445.731C1217.31 447.807 1215.8 407.838 1206.13 399.36C1196.29 390.882 1184.45 397.457 1186.12 408.531C1187.79 419.431 1171.61 424.449 1169.44 421.507C1167.27 418.393 1154.6 416.49 1151.26 417.182C1147.93 417.874 1157.43 432.581 1153.93 448.672C1150.43 464.763 1128.25 429.986 1114.57 430.159C1100.73 430.332 1096.06 463.898 1097.23 473.588Z" fill="url(#paint17_linear_0_1)"/>
<path d="M869.703 521.491C861.835 531.599 856.98 535.882 852.293 530.742C847.606 525.603 840.575 522.691 836.222 524.918C831.87 527.316 828.857 521.32 826.011 518.408C823.165 515.667 815.297 519.093 812.954 521.149C810.61 523.205 797.553 519.264 795.042 517.209C792.531 515.153 794.874 508.814 794.205 503.332C793.702 500.248 803.412 496.993 806.257 490.997C808.434 486.372 803.244 478.492 807.597 478.32C817.808 477.978 833.879 497.336 836.725 488.085C839.57 478.834 832.707 470.782 835.218 470.268C837.729 469.754 847.104 470.611 848.778 472.324C850.284 474.037 862.504 470.954 861.5 464.615C860.328 458.448 869.368 454.508 876.566 459.133C883.764 463.759 884.267 486.372 889.791 485.173C895.315 483.974 905.024 488.942 913.395 494.595C918.417 498.021 912.725 511.213 910.214 521.32C908.707 527.83 911.051 533.141 910.381 533.483C909.712 533.826 906.364 541.192 902.179 542.22C898.998 543.077 895.65 547.017 892.637 546.332C888.787 545.475 885.941 539.822 885.941 539.822C885.941 539.822 874.557 552.671 871.377 547.702C868.029 542.734 869.703 521.491 869.703 521.491Z" fill="url(#paint18_linear_0_1)"/>
<path d="M374.721 578.784C372.373 575.576 366.84 579.29 363.486 575.745C360.132 572.2 355.102 570.005 351.916 571.693C348.898 573.381 346.55 569.161 344.706 567.135C342.694 565.278 336.992 567.642 335.316 569.161C333.639 570.68 324.249 567.81 322.572 566.291C320.895 564.772 309.493 556.499 308.99 552.617C308.654 550.422 328.441 552.11 330.621 547.89C332.13 544.682 328.441 539.111 331.627 538.942C338.837 538.773 350.407 552.279 352.419 545.864C354.431 539.449 349.569 533.709 351.245 533.371C353.09 533.033 359.797 533.709 360.971 534.891C362.145 536.072 370.864 533.878 370.026 529.488C369.187 525.099 375.727 522.398 380.757 525.605C385.955 528.813 386.291 544.851 390.315 543.838C394.34 542.994 401.215 546.539 407.083 550.422C410.772 552.785 454.873 553.967 453.196 561.058C452.86 562.746 448.165 573.55 441.626 575.914C437.266 577.602 431.9 567.304 426.702 567.135C418.318 567.135 409.934 576.589 405.071 577.602C404.568 577.771 402.221 583.004 399.202 583.848C397.022 584.355 394.507 587.225 392.327 586.718C389.644 586.043 387.465 582.16 387.465 582.16C387.465 582.16 379.416 591.276 377.068 587.731C374.553 584.186 374.721 578.784 374.721 578.784Z" fill="url(#paint19_linear_0_1)"/>
<path d="M254.161 504.197C254.161 504.197 246.263 512.426 258.699 521.856C271.134 531.286 284.41 543.116 289.284 532.143C294.157 521.17 297.687 516.884 302.56 520.656C307.601 524.428 316.508 527 319.533 522.028C322.39 517.227 314.324 512.255 323.902 511.398C333.481 510.54 333.481 517.398 341.38 517.055C349.11 516.713 349.782 512.255 352.303 510.883C354.656 509.34 363.73 512.598 370.116 510.197C376.502 507.797 379.695 509.34 381.712 513.798C383.897 518.256 389.946 521.513 395.492 522.199C400.87 523.056 406.919 531.115 409.44 533.001C411.961 534.886 421.876 539.001 425.069 532.315C428.262 525.628 435.32 522.199 438.345 524.942C441.202 527.686 453.806 532.486 459.519 539.516C465.233 546.374 476.493 540.544 479.685 545.516C482.878 550.489 493.634 560.09 500.524 561.804C507.414 563.69 526.404 562.319 529.428 553.06C532.453 543.802 525.731 532.658 540.688 536.43C555.644 540.201 608.412 545.688 614.126 537.801C619.672 530.086 613.286 512.941 604.547 508.14C595.809 503.511 575.138 501.796 585.053 489.795C595.136 477.793 601.018 466.992 597.993 457.905C594.968 448.818 587.91 443.674 567.24 441.274C546.57 438.873 509.094 445.217 493.13 448.818C477.165 452.418 476.492 441.445 474.14 435.444C471.619 429.444 445.235 424.986 421.876 421.9C398.517 418.642 388.098 436.987 371.293 439.045C354.488 440.931 309.282 423.957 304.745 425.157C300.207 426.357 290.124 434.587 290.124 441.274C290.292 448.132 284.915 446.932 273.151 448.132C261.388 449.332 252.649 452.59 253.993 461.334C255.506 470.249 247.103 470.763 239.541 477.107C231.979 483.451 226.937 483.794 237.692 489.966C248.448 496.138 247.775 500.596 242.902 503.854C237.524 507.283 254.161 504.197 254.161 504.197Z" fill="url(#paint20_linear_0_1)"/>
<path d="M844.327 492.976C844.327 492.976 848.168 498.254 837.311 494.678C826.454 491.103 832.801 495.019 827.79 496.892C822.946 498.765 814.26 496.041 812.924 492.976C811.588 489.911 805.909 491.273 801.566 495.7C797.223 500.127 794.55 491.273 786.533 488.379C778.515 485.484 773.838 479.184 762.146 480.546C750.453 481.908 745.442 483.1 741.099 478.673C736.756 474.246 742.936 466.073 731.745 463.86C720.554 461.816 717.881 461.646 716.211 454.665C714.541 447.514 693.661 446.322 721.055 437.808C748.449 429.295 742.769 421.803 763.482 427.763C784.194 433.722 787.201 432.36 798.559 429.636C809.917 426.911 816.599 424.017 819.438 430.146C822.111 436.276 836.142 436.446 846.999 433.892C857.689 431.338 863.87 428.614 867.043 433.892C870.217 439.171 870.551 454.835 883.079 460.625C895.773 466.414 902.288 477.822 898.112 482.93C893.936 488.038 881.074 502 877.567 497.914C874.059 493.997 867.377 485.314 865.373 497.403C863.369 509.492 846.832 495.7 844.327 492.976Z" fill="url(#paint21_linear_0_1)"/>
<path d="M462.724 310.796C453.17 310.624 451.829 312.86 450.991 316.473C450.321 320.086 434.734 316.129 434.064 318.882C433.393 321.634 426.689 320.946 419.985 319.742C413.281 318.538 419.65 315.269 419.985 310.107C420.32 304.946 418.98 298.581 414.957 302.021C411.102 305.634 412.443 310.968 405.739 309.763C399.035 308.559 391.996 308.043 390.487 304.086C389.147 300.129 381.605 297.72 375.906 295.656C370.208 293.591 374.062 278.451 369.872 270.021C365.682 261.591 357.47 254.365 350.431 256.086C343.391 257.634 344.732 262.967 343.056 260.903C341.213 258.838 338.866 257.29 333.168 260.903C327.637 264.344 324.117 264.344 322.609 263.139C321.268 261.935 315.234 263.484 312.05 267.957C308.866 272.43 303.838 272.43 299.312 273.978C294.787 275.527 283.725 278.451 279.535 267.957C275.345 257.634 273.167 258.322 270.988 257.978C268.809 257.634 262.775 262.795 262.44 256.43C262.105 250.064 253.222 246.451 251.043 252.473C248.864 258.494 237.635 254.881 234.115 250.924C230.596 246.967 224.897 249.376 219.199 255.742C213.5 262.107 213.165 264.86 213.165 264.86C191.545 276.387 208.64 286.021 199.757 294.107C190.874 302.193 186.349 333.333 183.5 335.742C180.651 338.151 176.796 335.742 174.617 338.151C172.438 340.559 168.583 342.624 168.919 347.269C169.086 349.85 166.907 351.742 164.729 352.946V439.312H554.569L560.1 431.914C558.256 433.119 519.205 311.312 462.724 310.796Z" fill="url(#paint22_linear_0_1)"/>
<path d="M1252 409.191C1250.99 408.332 1249.99 406.097 1248.98 402.315C1246.46 391.829 1245.12 389.079 1240.09 391.142C1235.06 393.205 1234.72 392.001 1233.71 383.063C1232.71 374.296 1224.82 361.403 1214.08 360.544C1203.35 359.684 1196.63 350.058 1186.06 340.947C1175.33 331.665 1175.83 318.429 1150.16 309.318C1124.49 300.036 1139.09 317.397 1128.18 331.837C1117.11 346.276 1114.26 334.587 1112.24 330.29C1110.06 325.82 1107.55 328.227 1106.88 330.29C1106.2 332.353 1105.87 342.323 1099.49 333.556C1093.12 324.789 1093.12 328.743 1092.78 330.29C1092.45 331.837 1081.71 335.962 1076.84 327.883C1071.81 319.804 1067.62 326.336 1049.16 333.556C1030.71 340.776 1034.23 344.729 1034.23 335.103C1034.23 325.477 1027.52 327.883 1017.45 325.82C1007.55 323.758 998.66 339.4 997.486 331.493C996.479 323.414 981.547 331.493 982.554 329.43C983.561 327.367 980.037 314.991 975.843 309.318C971.649 303.646 971.984 306.052 969.803 308.115C967.622 310.178 968.797 321.007 961.582 326.508C954.536 332.181 948.831 328.571 948.831 325.649C948.831 322.898 940.946 307.943 934.235 304.849C927.524 301.583 926.853 290.409 921.148 289.55C915.444 288.69 915.109 301.583 912.928 305.193C910.746 308.802 907.559 307.255 906.552 300.036C905.545 292.816 896.989 292.816 890.949 292.816C884.909 292.816 882.057 288.003 875.682 279.236C869.306 270.469 862.931 273.219 847.999 279.236C833.067 285.252 828.033 285.252 816.289 284.393C804.545 283.533 805.216 286.799 800.015 288.862C794.646 290.925 795.317 287.659 788.942 288.862C782.567 290.066 787.6 305.364 784.244 301.755C781.057 298.145 770.319 295.394 762.937 294.879C755.555 294.535 746.998 298.489 738.442 299.692C729.885 300.895 727.704 303.646 721.664 310.521C715.624 317.397 713.443 325.305 707.403 332.524C705.222 335.103 702.202 338.197 699.015 340.776V409.191H1252Z" fill="url(#paint23_linear_0_1)"/>
<path d="M833.044 482.096C834.385 491.599 830.361 502.291 834.553 505.855C838.745 509.418 861.38 516.207 865.404 512.643C869.429 509.079 883.178 503.309 887.872 507.891C892.735 512.643 897.933 522.825 905.478 518.922C913.023 515.019 925.096 520.11 933.144 528.765C941.192 537.42 949.408 530.293 962.99 512.982C962.99 512.982 960.307 549.13 965.84 557.785C971.541 566.44 990.991 544.378 990.991 544.378C990.991 544.378 996.021 554.052 1002.56 555.579C1007.59 556.767 1013.63 549.979 1018.99 548.621C1026.03 546.754 1031.9 534.196 1033.08 533.687C1034.25 533.178 1030.23 524.183 1032.74 512.982C1035.09 502.97 1039.62 490.92 1040.96 481.756H833.044C833.044 481.756 833.044 481.926 833.044 482.096Z" fill="url(#paint24_linear_0_1)"/>
<path d="M188.591 499.555C194.431 489.732 202.607 474.393 202.106 467.672C201.439 457.159 173.741 466.638 173.741 466.638C173.741 466.638 174.075 455.436 169.236 450.783C169.069 450.61 168.902 450.438 168.735 450.266V499.383H188.591V499.555Z" fill="url(#paint25_linear_0_1)"/>
<path d="M166.064 514.556C168.413 516.629 171.265 518.356 174.621 518.875C177.808 519.393 181.499 515.074 185.358 514.556C189.552 514.038 195.425 521.293 200.458 522.848C203.813 523.884 206.833 518.529 208.678 519.911C213.208 523.366 210.356 527.339 213.041 528.894C218.577 531.83 222.268 526.13 230.153 518.011C233.676 514.383 238.039 521.811 242.233 519.393C243.239 518.875 245.085 511.447 246.93 510.41C249.111 509.201 251.46 514.383 252.467 513.001C255.319 509.028 253.641 505.055 255.487 506.264C259.178 508.683 257.836 502.637 261.862 498.664C264.043 496.591 270.586 498.318 273.438 495.382C278.639 490.026 281.324 482.599 287.699 479.489C291.558 477.589 296.591 480.18 304.476 477.762C325.28 471.543 316.556 468.261 335.346 445.977C354.304 423.693 335.849 434.058 330.649 428.875C325.615 423.693 323.267 425.075 312.697 429.394C302.127 433.712 302.966 423.175 296.926 421.793C290.887 420.411 287.196 424.211 277.968 431.812C268.741 439.413 261.359 436.649 252.97 438.549C244.582 440.449 237.703 434.23 236.361 440.449C235.019 446.668 230.824 450.987 227.972 449.086C225.12 447.186 216.396 449.605 213.208 453.923C210.021 458.242 217.403 458.242 206.33 461.006C195.257 463.942 201.297 466.188 201.297 466.188C197.606 465.151 176.299 462.388 180.996 473.789C185.694 485.19 175.46 481.389 170.427 480.007C168.749 479.489 167.407 481.217 166.064 483.808V514.556Z" fill="url(#paint26_linear_0_1)"/>
<path d="M932.003 460.183C929.152 457.07 934.183 416.256 938.375 413.143C960.509 395.503 935.692 383.916 932.003 376.998C928.482 370.081 929.488 375.788 928.817 380.63C928.146 385.472 926.973 386.856 925.966 379.074C924.96 371.291 924.457 369.216 922.613 370.772C920.768 372.329 920.601 371.291 920.265 364.719C919.93 358.148 916.911 348.636 912.887 347.944C908.863 347.425 906.347 340.162 902.323 333.244C898.298 326.327 898.466 316.469 888.908 309.724C879.35 302.807 884.716 315.777 880.692 326.5C876.499 337.222 875.493 328.575 874.655 325.289C873.816 322.003 867.78 324.251 867.277 325.289C865.768 328.229 863.085 329.44 861.24 323.56C859.396 317.507 857.719 322.349 850.844 327.71C843.969 333.071 845.31 336.011 845.31 328.921C845.31 321.83 825.523 326.154 826.026 324.77C826.362 323.214 827.871 322.003 826.194 317.68C824.517 313.529 822.17 316.469 821.331 318.026C820.493 319.582 820.828 318.544 818.145 322.695C815.462 326.846 813.282 324.251 813.282 322.176C813.282 320.101 815.63 308.341 813.115 306.093C810.599 303.672 807.078 301.769 804.898 301.077C802.718 300.559 797.688 308.514 797.352 302.98C797.017 297.619 793.831 297.619 791.483 297.619C789.136 297.619 788.13 293.987 785.782 287.415C783.434 280.843 780.919 282.919 775.386 287.415C769.852 291.912 767.84 291.912 763.48 291.22C759.12 290.701 759.288 292.949 757.276 294.506C755.263 296.062 755.599 293.641 753.083 294.506C750.736 295.37 752.58 306.785 751.407 304.017C750.233 301.25 746.208 299.175 743.358 299.002C740.507 298.656 737.321 301.769 734.135 302.634C730.949 303.499 730.111 305.574 727.931 310.762C725.583 315.777 722.733 320.966 720.385 326.327C718.037 331.688 713.007 333.763 712.504 330.996C712.001 328.229 705.629 336.357 703.281 335.493C700.934 334.628 698.083 340.335 696.238 341.2C694.394 342.064 692.885 341.2 693.052 345.35C693.22 349.501 686.68 352.614 686.177 355.381C685.003 361.261 687.016 358.667 683.997 358.321C680.979 357.975 677.29 363.855 673.769 363.855C670.247 363.855 669.576 365.411 669.409 368.005C669.073 370.772 663.204 367.659 663.037 369.735C662.701 371.81 660.186 371.291 657.671 370.254C655.156 369.389 655.323 370.599 655.491 366.795C655.659 362.99 651.299 366.449 649.957 369.043C648.448 371.81 651.467 373.712 648.951 372.848C646.436 371.983 645.765 373.539 645.095 370.599C644.591 367.659 643.418 370.945 641.238 369.389C639.058 367.832 644.759 366.103 643.25 359.704C641.573 353.478 638.555 348.117 635.872 349.328C633.189 350.538 633.692 354.343 633.021 352.96C632.35 351.403 625.811 355.727 625.308 354.689C624.805 353.824 622.457 355.035 621.283 358.321C620.109 361.607 613.737 370.945 612.061 372.156C610.384 373.367 609.545 371.464 607.868 363.682C606.192 355.9 603.509 355.381 602.67 355.035C601.832 354.689 594.621 351.576 593.783 356.072C592.945 360.569 588.752 357.802 587.411 354.862C586.069 351.922 583.89 353.651 581.877 358.494C579.697 363.336 579.53 365.411 579.53 365.411C571.313 374.058 572.99 364.028 569.636 369.908C566.283 375.961 559.408 370.945 558.234 372.675C557.228 374.404 552.533 373.712 551.694 375.442C550.856 377.171 542.471 381.495 542.639 385.126C542.807 388.758 560.078 396.022 559.24 395.676C558.402 395.33 555.215 395.33 554.712 398.789C554.209 402.248 551.862 399.135 551.191 398.962C550.52 398.616 548.173 398.962 547.334 401.037C546.328 403.112 545.993 406.398 544.987 407.09C543.981 407.609 543.478 408.646 543.981 410.895C544.316 413.143 543.645 413.143 542.975 416.429C542.304 419.715 541.298 419.196 538.447 419.196C535.596 419.196 532.243 414.353 532.075 415.91C531.74 417.466 529.727 419.715 529.224 420.579C528.721 421.444 527.547 421.79 527.212 420.925C526.877 420.06 524.361 422.482 524.194 424.73C523.858 427.151 522.685 426.286 522.685 426.286C522.685 426.286 519.834 426.286 519.163 428.534C518.493 430.783 516.48 429.918 514.971 429.053C513.294 428.189 512.791 428.707 509.773 429.053C506.755 429.399 504.407 433.896 504.407 433.896C503.904 434.76 502.898 435.625 502.395 429.226C502.227 427.67 496.023 425.422 491.328 429.226C489.818 430.437 490.321 433.723 489.818 438.392C489.483 441.678 485.962 440.121 485.962 440.121C482.44 438.565 479.925 438.046 471.541 448.941C463.157 460.01 460.977 469.348 450.413 474.018C440.351 478.514 463.492 484.913 467.516 510.508H910.036C913.893 501.342 916.408 491.831 926.134 484.913C952.964 466.408 934.854 463.295 932.003 460.183Z" fill="url(#paint27_linear_0_1)"/>
<path d="M1036.71 492.13C1035.87 486.074 1038.22 479.008 1035.87 476.821C1033.35 474.466 1020.24 470.092 1017.88 472.447C1015.53 474.802 1007.63 478.503 1004.77 475.475C1001.91 472.447 998.889 465.886 994.519 468.409C990.148 470.933 983.088 467.568 978.382 462.017C973.675 456.297 968.968 461.007 961.068 472.279C961.068 472.279 962.581 448.895 959.387 443.343C956.193 437.792 944.763 451.923 944.763 451.923C944.763 451.923 941.905 445.698 938.039 444.689C935.013 444.016 931.651 448.39 928.457 449.231C924.423 450.409 920.893 458.652 920.389 458.989C919.716 459.325 922.07 465.213 920.557 472.447C918.708 481.195 914.674 492.13 915.514 498.186H1031.5C1034.53 495.663 1037.05 493.98 1036.71 492.13Z" fill="url(#paint28_linear_0_1)"/>
<path d="M493.806 489.668C496.827 498.246 487.931 500.133 480.714 507.51C473.664 514.887 468.293 516.088 480.714 520.548C493.135 525.009 493.135 529.47 488.435 533.587C483.735 537.704 500.856 532.043 500.856 532.043C500.856 532.043 493.806 541.307 508.577 548.856C523.515 556.233 539.461 566.012 542.986 554.517C546.511 543.023 549.532 538.219 555.407 541.136C561.281 544.052 571.52 545.253 573.87 539.935C576.22 534.788 566.82 531.014 576.891 528.783C586.962 526.553 588.137 533.244 596.53 531.7C604.922 530.156 604.922 525.695 607.272 523.808C609.622 521.921 619.693 523.808 626.239 520.377C632.785 516.946 636.31 518.147 639.331 522.264C642.352 526.381 649.402 528.612 655.445 528.612C661.319 528.612 669.04 535.646 672.062 537.19C675.083 538.734 686.329 541.307 688.679 534.273C691.029 527.239 698.246 522.779 701.771 525.009C705.296 527.239 719.563 530.156 726.781 536.16C733.83 542.165 745.244 534.616 749.44 539.077C753.636 543.537 766.729 551.258 774.45 552.115C782.171 552.802 802.313 548.856 804.159 539.077C806.005 529.47 797.109 519.347 813.726 520.892C830.344 522.436 888.084 519.862 892.783 511.284C897.483 502.706 888.084 486.751 877.845 483.32C869.452 480.575 852.164 481.09 851.996 473.541H512.605C512.437 473.541 512.269 473.541 512.102 473.713C499.681 476.629 490.785 481.09 493.806 489.668Z" fill="url(#paint29_linear_0_1)"/>
<path d="M174.625 605.289C180.495 611.158 190.392 613.23 192.74 603.044C195.088 592.859 185.695 585.608 195.591 581.292C205.655 576.976 206.83 589.924 214.881 587.162C223.1 584.227 223.1 575.595 225.448 571.97C227.796 568.344 237.693 571.97 244.234 565.409C250.608 558.849 254.13 561.094 257.15 569.035C260.001 576.976 267.046 581.292 272.917 581.292C278.787 581.292 286.335 595.103 289.354 597.865C292.374 600.8 303.444 605.807 305.792 591.996C308.141 578.185 315.185 569.553 318.708 573.869C322.23 578.185 336.32 584.054 343.365 595.621C350.409 607.188 361.48 592.686 365.673 601.491C367.35 605.116 377.079 607.188 380.769 611.676C385.969 617.891 385.969 626.005 390.33 626.868C393.852 627.559 399.723 608.051 405.426 604.598C412.303 600.628 418.677 611.849 419.683 601.491C421.361 582.673 412.638 563.165 429.076 566.1C437.295 567.481 455.578 582.673 472.519 579.738C480.738 578.357 480.067 570.243 486.273 563.683C489.796 559.885 495.499 567.136 499.86 564.201C503.55 561.784 506.569 549.182 507.072 547.282C508.582 541.931 513.111 532.263 511.769 521.214C511.266 516.38 504.389 511.374 504.389 506.195C504.389 499.807 498.518 493.42 498.853 487.723C499.692 475.811 506.905 466.488 503.214 464.071C493.318 457.511 477.551 474.429 468.829 463.381C461.281 453.713 463.965 442.319 468.326 431.097H164.729V617.546C167.412 605.289 170.096 600.8 174.625 605.289Z" fill="url(#paint30_linear_0_1)"/>
<path d="M1181.97 492.532C1170.24 491.162 1167.06 483.966 1159.85 479.169C1152.64 474.543 1151.97 465.291 1146.78 468.546C1141.58 471.802 1135.72 471.802 1135.05 468.546C1134.38 465.291 1126.67 460.494 1121.47 461.179C1116.28 461.865 1121.47 467.176 1111.76 461.179C1102.04 455.183 1104.55 461.179 1104.55 461.179C1102.54 457.924 1089.63 440.62 1085.11 451.928C1080.59 463.235 1076.06 453.298 1073.38 448.673C1070.87 444.047 1055.11 454.669 1049.92 458.61C1044.72 462.55 1048.58 475.228 1059.64 483.795C1064.67 487.735 1066.68 493.046 1067.68 498.186H1201.24C1198.23 493.732 1192.86 493.732 1181.97 492.532Z" fill="url(#paint31_linear_0_1)"/>
<path d="M1022.24 488.761C1019.06 491.378 1024.42 493.995 1021.74 496.263C1015.88 501.322 1003.33 505.509 1003.17 508.301C1002.66 517.024 995.133 528.364 999.651 530.632C1001.49 531.679 1003 536.738 1009.36 535.168C1014.04 533.947 1023.41 526.096 1027.76 525.573C1031.78 525.049 1035.13 530.981 1036.8 529.585C1042.83 525.049 1061.23 516.152 1066.25 519.466C1071.27 522.781 1075.46 531.33 1085.83 525.747C1096.21 520.164 1110.26 522.083 1118.46 528.539C1123.65 532.551 1123.98 530.458 1133.69 523.305C1135.2 522.083 1138.54 527.492 1141.89 526.096C1144.9 524.875 1147.75 516.849 1149.42 515.454C1152.6 512.662 1155.44 508.475 1159.63 510.394C1159.63 510.394 1160.8 515.105 1158.46 524.875C1156.11 534.47 1150.42 544.764 1152.93 548.078C1155.28 551.219 1158.79 543.891 1166.32 540.751C1169.84 539.355 1177.53 544.066 1180.38 541.798C1184.73 538.308 1187.74 529.062 1187.74 529.062C1187.74 529.062 1191.76 537.262 1199.62 536.913C1205.81 536.738 1214.85 528.887 1221.88 526.27C1231.25 522.781 1241.62 509.173 1242.96 508.475C1244.47 507.603 1241.46 500.101 1247.48 488.586C1248.82 485.97 1250.49 483.178 1252 480.387H1035.8C1035.46 481.259 1034.96 482.131 1034.29 482.829C1032.78 485.097 1024.42 487.016 1022.24 488.761Z" fill="url(#paint32_linear_0_1)"/>
<path d="M983.632 458.196C978.122 460.722 975.117 461.396 974.282 458.196C973.448 454.997 971.11 452.135 968.773 452.135C966.435 452.135 966.435 448.935 965.768 447.083C965.1 445.231 961.093 444.894 959.59 445.231C958.087 445.568 953.413 441.021 952.912 439.506C952.244 438.159 954.748 435.97 955.583 433.444C956.418 430.918 962.261 423.846 966.769 426.035C971.11 428.224 973.782 439.843 976.954 436.643C980.126 433.444 978.957 428.393 980.126 428.898C981.295 429.235 985.135 431.76 985.469 432.771C985.803 433.781 991.646 435.296 992.481 432.434C993.316 429.571 997.991 429.908 1000.16 433.444C1002.16 436.98 997.49 446.578 1000.16 447.252C1002.83 447.925 1005.84 452.303 1008.18 456.513C1010.51 460.722 1007.17 472.172 998.491 472.172C997.657 472.172 991.98 465.437 987.138 465.437C982.296 465.437 979.124 472.172 978.957 469.31C978.289 466.615 983.632 458.196 983.632 458.196Z" fill="url(#paint33_linear_0_1)"/>
<path d="M1213.23 449.765C1218.75 447.165 1221.77 446.472 1222.6 449.765C1223.44 453.058 1225.78 456.005 1228.13 456.005C1230.47 456.005 1230.47 459.298 1230.97 461.032C1231.64 462.938 1235.66 463.285 1237.17 462.938C1238.68 462.592 1243.36 467.272 1243.87 468.832C1244.54 470.218 1242.19 472.472 1241.19 475.072C1240.35 477.672 1234.49 484.952 1229.97 482.698C1225.62 480.445 1222.94 468.485 1219.76 471.778C1216.57 475.072 1217.75 480.098 1216.57 479.752C1215.4 479.405 1211.55 476.805 1211.22 475.765C1210.88 474.725 1205.02 473.165 1204.18 476.112C1203.35 479.058 1198.66 478.712 1196.48 475.072C1194.47 471.432 1199.16 461.552 1196.48 460.858C1193.8 460.165 1190.79 455.832 1188.61 451.325C1186.27 446.992 1189.62 435.205 1198.32 435.205C1199.16 435.205 1204.85 442.138 1209.71 442.138C1214.57 442.138 1217.58 435.205 1217.91 438.152C1218.58 440.925 1213.23 449.765 1213.23 449.765Z" fill="url(#paint34_linear_0_1)"/>
<path d="M866.089 412.603C860.58 415.203 857.574 415.897 856.739 412.603C855.905 409.31 853.567 406.363 851.23 406.363C848.892 406.363 848.892 403.07 848.225 401.163C847.557 399.256 843.55 398.91 842.047 399.256C840.544 399.603 835.87 394.923 835.369 393.363C834.701 391.976 837.205 389.723 838.04 387.123C838.875 384.523 844.718 377.243 849.226 379.496C853.567 381.75 856.239 393.71 859.411 390.416C862.583 387.123 861.414 381.923 862.583 382.443C863.752 382.79 867.592 385.39 867.926 386.43C868.26 387.47 874.103 389.03 874.938 386.083C875.773 383.136 880.448 383.483 882.618 387.123C884.622 390.763 879.947 400.643 882.618 401.336C885.289 402.03 888.295 406.536 890.632 410.87C892.969 415.203 889.63 426.99 880.948 426.99C880.114 426.99 874.437 420.057 869.595 420.057C864.753 420.057 861.581 426.99 861.414 424.043C860.746 421.27 866.089 412.603 866.089 412.603Z" fill="url(#paint35_linear_0_1)"/>
<path d="M573.568 449.57C568.058 452.17 565.053 452.864 564.218 449.57C563.383 446.277 561.046 443.33 558.708 443.33C556.371 443.33 556.371 440.037 555.703 438.13C555.035 436.223 551.028 435.877 549.526 436.223C548.023 436.57 543.348 431.89 542.847 430.33C542.179 428.943 544.684 426.69 545.519 424.09C546.353 421.49 552.197 414.21 556.705 416.463C561.046 418.717 563.717 430.677 566.889 427.383C570.062 424.09 568.893 418.89 570.062 419.41C571.23 419.757 575.07 422.357 575.404 423.397C575.738 424.437 581.582 425.997 582.416 423.05C583.251 420.103 587.926 420.45 590.097 424.09C592.1 427.73 587.425 437.61 590.097 438.303C592.768 438.997 595.773 443.504 598.111 447.837C600.448 452.17 597.109 463.957 588.427 463.957C587.592 463.957 581.916 457.024 577.074 457.024C572.232 457.024 569.06 463.957 568.893 461.01C568.225 458.41 573.568 449.57 573.568 449.57Z" fill="url(#paint36_linear_0_1)"/>
<path d="M733.831 435.08C733.831 435.08 735.673 436.616 731.485 436.274C727.297 435.933 729.978 436.786 728.302 437.981C726.795 439.004 723.444 438.834 722.774 437.981C722.104 436.957 720.094 437.981 719.089 440.028C717.916 441.905 716.241 439.175 713.225 438.834C710.21 438.493 707.865 436.786 704.012 438.322C699.991 439.858 698.316 440.711 696.473 439.687C694.63 438.493 695.971 435.08 691.95 435.421C687.762 435.762 686.924 435.933 685.752 433.544C684.579 431.156 677.041 432.691 685.919 427.231C694.798 421.771 692.118 419.553 699.991 419.894C707.865 420.065 708.702 419.382 712.555 417.335C716.241 415.287 718.419 413.751 719.926 415.628C721.434 417.505 726.292 416.311 729.978 414.434C733.496 412.557 735.338 411.021 737.014 412.557C738.689 414.093 740.029 419.553 745.055 420.577C750.08 421.43 753.263 424.842 752.258 427.06C751.253 429.279 747.902 435.251 746.395 434.227C744.72 433.203 741.704 430.814 742.039 435.08C742.039 439.175 735.003 435.762 733.831 435.08Z" fill="url(#paint37_linear_0_1)"/>
<path d="M572.561 569.159C572.561 569.159 573.908 569.508 571.551 570.379C569.195 571.25 570.878 571.076 570.205 572.121C569.7 573.167 567.848 573.864 567.175 573.69C566.502 573.341 565.828 574.386 565.66 575.78C565.492 577.174 563.809 575.954 562.125 576.651C560.442 577.348 558.759 577 556.908 578.916C555.056 580.833 554.383 581.704 553.036 581.704C551.69 581.53 551.521 579.265 549.502 580.484C547.313 581.704 546.808 582.053 545.63 581.181C544.452 580.136 540.749 583.098 544.115 577.523C547.65 572.121 545.63 571.599 549.838 569.682C554.214 567.766 554.551 567.069 556.066 564.978C557.581 562.887 558.422 561.319 559.601 562.016C560.947 562.713 563.304 560.622 564.818 558.706C566.333 556.789 566.838 555.395 568.185 555.744C569.531 556.266 571.719 558.88 574.581 558.009C577.442 557.138 580.135 558.183 580.135 559.577C580.135 560.971 579.799 565.326 578.789 565.152C577.611 564.978 575.422 564.455 576.601 566.894C578.116 569.334 573.403 569.334 572.561 569.159Z" fill="url(#paint38_linear_0_1)"/>
<path d="M304.083 536.474C304.083 536.474 305.429 536.823 303.073 537.694C300.716 538.565 302.399 538.391 301.726 539.436C301.221 540.481 299.37 541.178 298.696 540.83C298.023 540.481 297.35 541.527 297.182 542.921C297.013 544.314 295.33 543.095 293.647 543.792C291.964 544.489 290.281 544.14 288.429 546.057C286.578 547.973 285.904 548.844 284.558 548.844C283.211 548.67 283.043 546.405 281.023 547.625C278.835 548.844 278.33 549.193 277.152 548.322C275.974 547.276 272.271 550.238 275.637 544.663C279.172 539.262 277.152 538.739 281.36 536.823C285.736 534.906 286.073 534.209 287.587 532.118C289.102 530.028 289.944 528.459 291.122 529.156C292.469 529.853 294.825 527.763 296.34 525.846C297.855 523.93 298.36 522.536 299.706 522.884C301.053 523.407 303.241 526.02 306.102 525.149C308.964 524.278 311.657 525.323 311.657 526.717C311.657 528.111 311.32 532.467 310.31 532.293C309.132 532.118 306.944 531.596 308.122 534.035C309.469 536.474 304.924 536.474 304.083 536.474Z" fill="url(#paint39_linear_0_1)"/>
<path d="M202.435 417.183C202.435 417.183 203.776 417.532 201.43 418.403C199.084 419.274 200.76 419.1 200.089 420.145C199.587 421.191 197.743 421.888 197.073 421.713C196.403 421.365 195.733 422.41 195.565 423.804C195.398 425.198 193.722 423.978 192.046 424.675C190.371 425.372 188.695 425.024 186.852 426.94C185.009 428.857 184.338 429.728 182.998 429.728C181.657 429.554 181.49 427.289 179.479 428.508C177.301 429.728 176.798 430.076 175.625 429.205C174.452 428.16 170.766 431.122 174.117 425.546C177.636 420.145 175.625 419.623 179.982 417.706C184.338 415.79 184.674 415.093 186.182 413.002C187.69 410.911 188.527 409.343 189.7 410.04C191.041 410.737 193.387 408.646 194.895 406.73C196.403 404.813 196.906 403.419 198.246 403.768C199.587 404.29 201.597 406.904 204.614 406.033C207.462 405.162 210.143 406.207 210.143 407.601C210.143 408.995 209.808 413.35 208.803 413.176C207.63 413.002 205.451 412.479 206.624 414.918C207.965 417.183 203.273 417.183 202.435 417.183Z" fill="url(#paint40_linear_0_1)"/>
<path d="M1197.68 342.054C1197.68 342.054 1199.02 342.403 1196.67 343.274C1194.31 344.145 1195.99 343.971 1195.32 345.016C1194.81 346.062 1192.96 346.759 1192.29 346.41C1191.62 346.062 1190.94 347.107 1190.77 348.501C1190.61 349.895 1188.92 348.675 1187.24 349.372C1185.56 350.069 1183.87 349.721 1182.02 351.637C1180.17 353.554 1179.5 354.425 1178.15 354.425C1176.8 354.251 1176.64 351.986 1174.62 353.205C1172.43 354.425 1171.92 354.773 1170.74 353.902C1169.57 352.857 1165.86 355.819 1169.23 350.243C1172.76 344.842 1170.74 344.319 1174.95 342.403C1179.33 340.486 1179.67 339.789 1181.18 337.699C1182.7 335.608 1183.54 334.04 1184.71 334.737C1186.06 335.434 1188.42 333.343 1189.93 331.426C1191.45 329.51 1191.95 328.116 1193.3 328.464C1194.65 328.987 1196.83 331.601 1199.7 330.729C1202.56 329.858 1205.25 330.904 1205.25 332.298C1205.25 333.691 1204.91 338.047 1203.9 337.873C1202.72 337.699 1200.54 337.176 1201.71 339.615C1203.06 342.054 1198.52 342.054 1197.68 342.054Z" fill="url(#paint41_linear_0_1)"/>
<path d="M342.122 445.284C337.026 451.83 333.968 454.586 330.911 451.313C327.853 448.04 323.267 446.145 320.379 447.523C317.491 449.073 315.623 445.111 313.754 443.389C311.886 441.666 306.79 443.733 305.261 445.111C303.732 446.489 295.239 443.905 293.71 442.527C292.181 441.149 293.54 437.187 293.031 433.569C292.691 431.502 298.976 429.435 300.845 425.645C302.203 422.717 298.806 417.549 301.694 417.376C308.319 417.204 318.85 429.607 320.719 423.75C322.587 417.893 318.171 412.553 319.7 412.208C321.398 411.864 327.513 412.381 328.533 413.586C329.552 414.62 337.536 412.725 336.686 408.591C336.007 404.629 341.782 402.045 346.538 404.973C351.295 407.902 351.634 422.544 355.202 421.683C358.769 420.822 365.054 424.095 370.489 427.712C373.717 429.952 369.98 438.393 368.451 444.939C367.432 449.246 368.961 452.519 368.621 452.863C368.281 453.036 366.073 457.859 363.355 458.548C361.317 459.065 359.108 461.649 357.24 461.132C354.692 460.615 352.823 456.825 352.823 456.825C352.823 456.825 345.519 465.094 343.311 461.821C341.103 458.893 342.122 445.284 342.122 445.284Z" fill="url(#paint42_linear_0_1)"/>
<path d="M755.193 372.547C750.183 379.093 747.178 381.849 744.172 378.576C741.166 375.303 736.657 373.408 733.986 374.786C731.147 376.336 729.31 372.374 727.473 370.652C725.636 368.929 720.627 370.996 719.124 372.374C717.621 373.752 709.272 371.168 707.769 369.79C706.266 368.412 707.602 364.45 707.101 360.832C706.767 358.765 712.945 356.698 714.782 352.908C716.118 349.98 712.778 344.812 715.617 344.639C722.13 344.467 732.483 356.87 734.32 351.013C736.156 345.156 731.815 339.816 733.318 339.471C734.988 339.127 740.999 339.644 742.001 340.849C743.003 341.883 750.851 339.988 750.016 336.026C749.348 332.064 755.026 329.48 759.701 332.408C764.377 335.337 764.711 349.98 768.218 349.118C771.725 348.257 777.903 351.53 783.247 355.148C786.419 357.387 782.746 365.828 781.243 372.374C780.241 376.681 781.744 379.954 781.41 380.299C781.076 380.471 778.905 385.294 776.233 385.983C774.229 386.5 772.059 389.084 770.222 388.567C767.717 388.051 765.88 384.261 765.88 384.261C765.88 384.261 758.7 392.53 756.529 389.257C754.191 386.328 755.193 372.547 755.193 372.547Z" fill="url(#paint43_linear_0_1)"/>
<path d="M1195.47 452.13C1190.38 458.676 1187.32 461.432 1184.26 458.159C1181.2 454.886 1176.62 452.991 1173.9 454.369C1171.01 455.919 1169.14 451.957 1167.28 450.235C1165.41 448.512 1160.31 450.579 1158.78 451.957C1157.25 453.335 1148.76 450.751 1147.23 449.373C1145.7 447.995 1147.06 444.033 1146.55 440.415C1146.21 438.348 1152.5 436.281 1154.37 432.491C1155.72 429.563 1152.33 424.395 1155.22 424.222C1161.84 424.05 1172.37 436.453 1174.24 430.596C1176.11 424.739 1171.69 419.399 1173.22 419.054C1174.92 418.71 1181.03 419.226 1182.05 420.432C1183.07 421.466 1191.06 419.571 1190.21 415.437C1189.53 411.474 1195.3 408.89 1200.06 411.819C1204.82 414.748 1205.16 429.39 1208.72 428.529C1212.29 427.668 1218.58 430.941 1224.01 434.558C1227.24 436.798 1223.5 445.239 1221.97 451.785C1220.95 456.092 1222.48 459.365 1222.14 459.709C1221.8 459.882 1219.59 464.705 1216.88 465.394C1214.84 465.911 1212.63 468.495 1210.59 467.978C1208.04 467.461 1206.18 463.671 1206.18 463.671C1206.18 463.671 1198.87 471.94 1196.66 468.667C1194.45 465.739 1195.47 452.13 1195.47 452.13Z" fill="url(#paint44_linear_0_1)"/>
<rect x="124.867" y="747.101" width="10.9568" height="504.012" rx="5.4784" transform="rotate(-90 124.867 747.101)" fill="url(#paint45_linear_0_1)"/>
<rect x="825.691" y="1173.07" width="10.9568" height="504.012" rx="5.4784" transform="rotate(-90 825.691 1173.07)" fill="url(#paint46_linear_0_1)"/>
<rect x="371.537" y="481.33" width="10.9568" height="504.012" rx="5.4784" transform="rotate(-90 371.537 481.33)" fill="url(#paint47_linear_0_1)"/>
<rect x="499.834" y="1024.03" width="10.9568" height="504.012" rx="5.4784" transform="rotate(-90 499.834 1024.03)" fill="url(#paint48_linear_0_1)"/>
<rect x="602.53" y="128.141" width="10.9568" height="504.012" rx="5.4784" transform="rotate(-90 602.53 128.141)" fill="url(#paint49_linear_0_1)"/>
<rect x="761.821" y="325.644" width="10.7733" height="687.178" rx="5.38663" transform="rotate(-90 761.821 325.644)" fill="url(#paint50_linear_0_1)"/>
<rect x="31.5498" y="608.057" width="10.7733" height="680.253" rx="5.38663" transform="rotate(-90 31.5498 608.057)" fill="url(#paint51_linear_0_1)"/>
<rect x="500.955" y="860.458" width="10.7733" height="866.476" rx="5.38663" transform="rotate(-90 500.955 860.458)" fill="url(#paint52_linear_0_1)"/>
<rect x="781.06" y="627.295" width="10.7733" height="651.011" rx="5.38663" transform="rotate(-90 781.06 627.295)" fill="url(#paint53_linear_0_1)"/>
<rect x="1128.85" y="1062.56" width="10.9568" height="262.562" rx="5.4784" transform="rotate(-90 1128.85 1062.56)" fill="url(#paint54_linear_0_1)"/>
<rect x="305.721" y="55.9568" width="10.9568" height="262.562" rx="5.4784" transform="rotate(-90 305.721 55.9568)" fill="url(#paint55_linear_0_1)"/>
<rect x="206.23" y="970.499" width="10.7733" height="771.056" rx="5.38663" transform="rotate(-90 206.23 970.499)" fill="url(#paint56_linear_0_1)"/>
<rect x="81.5684" y="416.447" width="11.5428" height="680.253" rx="5.77139" transform="rotate(-90 81.5684 416.447)" fill="url(#paint57_linear_0_1)"/>
<rect x="863.397" y="777.35" width="10.7732" height="504.033" rx="5.38662" transform="rotate(-90 863.397 777.35)" fill="url(#paint58_linear_0_1)"/>
<rect x="247.015" y="1156.72" width="10.7732" height="464.788" rx="5.38662" transform="rotate(-90 247.015 1156.72)" fill="url(#paint59_linear_0_1)"/>
<rect x="247.015" y="314.871" width="10.7732" height="403.996" rx="5.38662" transform="rotate(-90 247.015 314.871)" fill="url(#paint60_linear_0_1)"/>
<rect x="977.089" y="476.477" width="10.9568" height="262.562" rx="5.4784" transform="rotate(-90 977.089 476.477)" fill="url(#paint61_linear_0_1)"/>
<rect y="211.756" width="10.7733" height="975.747" rx="5.38663" transform="rotate(-90 0 211.756)" fill="url(#paint62_linear_0_1)"/>
<defs>
<linearGradient id="paint0_linear_0_1" x1="708.738" y1="0" x2="708.738" y2="1062.7" gradientUnits="userSpaceOnUse">
<stop stop-color="#6CA2F3"/>
<stop offset="1" stop-color="#F9F3F6"/>
</linearGradient>
<linearGradient id="paint1_linear_0_1" x1="1336.85" y1="413.851" x2="135.454" y2="413.855" gradientUnits="userSpaceOnUse">
<stop stop-color="#FEFEFE" stop-opacity="0"/>
<stop offset="1" stop-color="white"/>
</linearGradient>
<linearGradient id="paint2_linear_0_1" x1="1175.13" y1="5.21927" x2="-26.2661" y2="5.2223" gradientUnits="userSpaceOnUse">
<stop stop-color="#FEFEFE" stop-opacity="0"/>
<stop offset="1" stop-color="white"/>
</linearGradient>
<linearGradient id="paint3_linear_0_1" x1="1175.13" y1="3.91445" x2="-26.2661" y2="3.91849" gradientUnits="userSpaceOnUse">
<stop stop-color="#FEFEFE" stop-opacity="0"/>
<stop offset="1" stop-color="white"/>
</linearGradient>
<linearGradient id="paint4_linear_0_1" x1="1133.41" y1="748.067" x2="14.5379" y2="748.07" gradientUnits="userSpaceOnUse">
<stop stop-color="#FEFEFE" stop-opacity="0"/>
<stop offset="1" stop-color="white"/>
</linearGradient>
<linearGradient id="paint5_linear_0_1" x1="2620.41" y1="569.209" x2="1501.54" y2="569.213" gradientUnits="userSpaceOnUse">
<stop stop-color="#FEFEFE" stop-opacity="0"/>
<stop offset="1" stop-color="white"/>
</linearGradient>
<linearGradient id="paint6_linear_0_1" x1="2567.91" y1="839.455" x2="1309.18" y2="839.459" gradientUnits="userSpaceOnUse">
<stop stop-color="#FEFEFE" stop-opacity="0"/>
<stop offset="1" stop-color="white"/>
</linearGradient>
<linearGradient id="paint7_linear_0_1" x1="2467.67" y1="596.625" x2="1348.79" y2="596.629" gradientUnits="userSpaceOnUse">
<stop stop-color="#FEFEFE" stop-opacity="0"/>
<stop offset="1" stop-color="white"/>
</linearGradient>
<linearGradient id="paint8_linear_0_1" x1="450.291" y1="646.146" x2="450.291" y2="775.491" gradientUnits="userSpaceOnUse">
<stop stop-color="white"/>
<stop offset="1" stop-color="#CCEDFF"/>
</linearGradient>
<linearGradient id="paint9_linear_0_1" x1="1012.36" y1="659.027" x2="1012.36" y2="741.136" gradientUnits="userSpaceOnUse">
<stop stop-color="white"/>
<stop offset="1" stop-color="#CCEDFF"/>
</linearGradient>
<linearGradient id="paint10_linear_0_1" x1="393.197" y1="818.36" x2="393.197" y2="882.331" gradientUnits="userSpaceOnUse">
<stop stop-color="white"/>
<stop offset="1" stop-color="#CCEDFF"/>
</linearGradient>
<linearGradient id="paint11_linear_0_1" x1="895.888" y1="825.265" x2="895.888" y2="779.499" gradientUnits="userSpaceOnUse">
<stop stop-color="white"/>
<stop offset="1" stop-color="#CCEDFF"/>
</linearGradient>
<linearGradient id="paint12_linear_0_1" x1="762.216" y1="876.38" x2="762.216" y2="820.128" gradientUnits="userSpaceOnUse">
<stop stop-color="white"/>
<stop offset="1" stop-color="#CCEDFF"/>
</linearGradient>
<linearGradient id="paint13_linear_0_1" x1="1249.71" y1="400.974" x2="104.972" y2="400.977" gradientUnits="userSpaceOnUse">
<stop stop-color="#FEFEFE" stop-opacity="0"/>
<stop offset="1" stop-color="white"/>
</linearGradient>
<linearGradient id="paint14_linear_0_1" x1="346.686" y1="457.584" x2="496.084" y2="618.598" gradientUnits="userSpaceOnUse">
<stop stop-color="#FEFEFE"/>
<stop offset="1" stop-color="#BFBFBF"/>
</linearGradient>
<linearGradient id="paint15_linear_0_1" x1="827.624" y1="422.111" x2="855.791" y2="736.532" gradientUnits="userSpaceOnUse">
<stop stop-color="#FEFEFE"/>
<stop offset="1" stop-color="#BFBFBF"/>
</linearGradient>
<linearGradient id="paint16_linear_0_1" x1="708.443" y1="662.137" x2="708.443" y2="432.008" gradientUnits="userSpaceOnUse">
<stop stop-color="white"/>
<stop offset="1" stop-color="#CCEDFF"/>
</linearGradient>
<linearGradient id="paint17_linear_0_1" x1="1172.39" y1="557.116" x2="1172.39" y2="395.659" gradientUnits="userSpaceOnUse">
<stop stop-color="white"/>
<stop offset="1" stop-color="#CCEDFF"/>
</linearGradient>
<linearGradient id="paint18_linear_0_1" x1="854.603" y1="548.866" x2="854.603" y2="457.199" gradientUnits="userSpaceOnUse">
<stop stop-color="white"/>
<stop offset="1" stop-color="#CCEDFF"/>
</linearGradient>
<linearGradient id="paint19_linear_0_1" x1="380.974" y1="588.569" x2="380.974" y2="524.129" gradientUnits="userSpaceOnUse">
<stop stop-color="white"/>
<stop offset="1" stop-color="#CCEDFF"/>
</linearGradient>
<linearGradient id="paint20_linear_0_1" x1="423.511" y1="562.675" x2="423.511" y2="421.53" gradientUnits="userSpaceOnUse">
<stop stop-color="white"/>
<stop offset="1" stop-color="#CCEDFF"/>
</linearGradient>
<linearGradient id="paint21_linear_0_1" x1="803.089" y1="502.383" x2="803.09" y2="425.595" gradientUnits="userSpaceOnUse">
<stop stop-color="white"/>
<stop offset="1" stop-color="#CCEDFF"/>
</linearGradient>
<linearGradient id="paint22_linear_0_1" x1="362.601" y1="253.674" x2="362.601" y2="444.008" gradientUnits="userSpaceOnUse">
<stop stop-color="white"/>
<stop offset="1" stop-color="#CCEDFF"/>
</linearGradient>
<linearGradient id="paint23_linear_0_1" x1="975.558" y1="262.596" x2="975.558" y2="398.245" gradientUnits="userSpaceOnUse">
<stop stop-color="white"/>
<stop offset="1" stop-color="#CCEDFF"/>
</linearGradient>
<linearGradient id="paint24_linear_0_1" x1="937.061" y1="559.758" x2="937.061" y2="481.634" gradientUnits="userSpaceOnUse">
<stop stop-color="white"/>
<stop offset="1" stop-color="#CCEDFF"/>
</linearGradient>
<linearGradient id="paint25_linear_0_1" x1="185.442" y1="450.447" x2="185.442" y2="499.516" gradientUnits="userSpaceOnUse">
<stop stop-color="white"/>
<stop offset="1" stop-color="#CCEDFF"/>
</linearGradient>
<linearGradient id="paint26_linear_0_1" x1="254.815" y1="529.67" x2="254.815" y2="421.192" gradientUnits="userSpaceOnUse">
<stop stop-color="white"/>
<stop offset="1" stop-color="#CCEDFF"/>
</linearGradient>
<linearGradient id="paint27_linear_0_1" x1="697.706" y1="283.149" x2="697.706" y2="510.896" gradientUnits="userSpaceOnUse">
<stop stop-color="white"/>
<stop offset="1" stop-color="#CCEDFF"/>
</linearGradient>
<linearGradient id="paint28_linear_0_1" x1="976.266" y1="433.967" x2="976.266" y2="490.082" gradientUnits="userSpaceOnUse">
<stop stop-color="white"/>
<stop offset="1" stop-color="#CCEDFF"/>
</linearGradient>
<linearGradient id="paint29_linear_0_1" x1="683.565" y1="550.493" x2="683.565" y2="464.383" gradientUnits="userSpaceOnUse">
<stop stop-color="white"/>
<stop offset="1" stop-color="#CCEDFF"/>
</linearGradient>
<linearGradient id="paint30_linear_0_1" x1="338.518" y1="626.915" x2="338.518" y2="431.22" gradientUnits="userSpaceOnUse">
<stop stop-color="white"/>
<stop offset="1" stop-color="#CCEDFF"/>
</linearGradient>
<linearGradient id="paint31_linear_0_1" x1="1124.65" y1="447.46" x2="1124.65" y2="498.132" gradientUnits="userSpaceOnUse">
<stop stop-color="white"/>
<stop offset="1" stop-color="#CCEDFF"/>
</linearGradient>
<linearGradient id="paint32_linear_0_1" x1="1125.37" y1="549.067" x2="1125.37" y2="480.61" gradientUnits="userSpaceOnUse">
<stop stop-color="white"/>
<stop offset="1" stop-color="#CCEDFF"/>
</linearGradient>
<linearGradient id="paint33_linear_0_1" x1="980.726" y1="472.37" x2="980.726" y2="425.745" gradientUnits="userSpaceOnUse">
<stop stop-color="white"/>
<stop offset="1" stop-color="#CCEDFF"/>
</linearGradient>
<linearGradient id="paint34_linear_0_1" x1="1216.14" y1="435.109" x2="1216.14" y2="482.925" gradientUnits="userSpaceOnUse">
<stop stop-color="white"/>
<stop offset="1" stop-color="#CCEDFF"/>
</linearGradient>
<linearGradient id="paint35_linear_0_1" x1="863.114" y1="427.167" x2="863.114" y2="379.171" gradientUnits="userSpaceOnUse">
<stop stop-color="white"/>
<stop offset="1" stop-color="#CCEDFF"/>
</linearGradient>
<linearGradient id="paint36_linear_0_1" x1="570.671" y1="464.262" x2="570.671" y2="416.266" gradientUnits="userSpaceOnUse">
<stop stop-color="white"/>
<stop offset="1" stop-color="#CCEDFF"/>
</linearGradient>
<linearGradient id="paint37_linear_0_1" x1="716.765" y1="440.513" x2="716.766" y2="411.562" gradientUnits="userSpaceOnUse">
<stop stop-color="white"/>
<stop offset="1" stop-color="#CCEDFF"/>
</linearGradient>
<linearGradient id="paint38_linear_0_1" x1="561.522" y1="581.765" x2="561.522" y2="555.763" gradientUnits="userSpaceOnUse">
<stop stop-color="white"/>
<stop offset="1" stop-color="#CCEDFF"/>
</linearGradient>
<linearGradient id="paint39_linear_0_1" x1="292.992" y1="548.983" x2="292.992" y2="522.981" gradientUnits="userSpaceOnUse">
<stop stop-color="white"/>
<stop offset="1" stop-color="#CCEDFF"/>
</linearGradient>
<linearGradient id="paint40_linear_0_1" x1="191.437" y1="429.638" x2="191.437" y2="403.635" gradientUnits="userSpaceOnUse">
<stop stop-color="white"/>
<stop offset="1" stop-color="#CCEDFF"/>
</linearGradient>
<linearGradient id="paint41_linear_0_1" x1="1186.55" y1="354.534" x2="1186.55" y2="328.532" gradientUnits="userSpaceOnUse">
<stop stop-color="white"/>
<stop offset="1" stop-color="#CCEDFF"/>
</linearGradient>
<linearGradient id="paint42_linear_0_1" x1="332.31" y1="462.975" x2="332.31" y2="403.981" gradientUnits="userSpaceOnUse">
<stop stop-color="white"/>
<stop offset="1" stop-color="#CCEDFF"/>
</linearGradient>
<linearGradient id="paint43_linear_0_1" x1="745.562" y1="390.262" x2="745.562" y2="331.268" gradientUnits="userSpaceOnUse">
<stop stop-color="white"/>
<stop offset="1" stop-color="#CCEDFF"/>
</linearGradient>
<linearGradient id="paint44_linear_0_1" x1="1185.78" y1="469.795" x2="1185.78" y2="410.8" gradientUnits="userSpaceOnUse">
<stop stop-color="white"/>
<stop offset="1" stop-color="#CCEDFF"/>
</linearGradient>
<linearGradient id="paint45_linear_0_1" x1="130.346" y1="747.101" x2="130.346" y2="1251.11" gradientUnits="userSpaceOnUse">
<stop stop-color="white"/>
<stop offset="1" stop-color="#D9D9D9" stop-opacity="0"/>
</linearGradient>
<linearGradient id="paint46_linear_0_1" x1="831.17" y1="1173.07" x2="831.17" y2="1677.08" gradientUnits="userSpaceOnUse">
<stop stop-color="white"/>
<stop offset="1" stop-color="#D9D9D9" stop-opacity="0"/>
</linearGradient>
<linearGradient id="paint47_linear_0_1" x1="377.016" y1="481.33" x2="377.016" y2="985.342" gradientUnits="userSpaceOnUse">
<stop stop-color="white"/>
<stop offset="1" stop-color="#D9D9D9" stop-opacity="0"/>
</linearGradient>
<linearGradient id="paint48_linear_0_1" x1="505.312" y1="1024.03" x2="505.312" y2="1528.05" gradientUnits="userSpaceOnUse">
<stop stop-color="white"/>
<stop offset="1" stop-color="#D9D9D9" stop-opacity="0"/>
</linearGradient>
<linearGradient id="paint49_linear_0_1" x1="608.009" y1="128.141" x2="608.009" y2="632.153" gradientUnits="userSpaceOnUse">
<stop stop-color="white"/>
<stop offset="1" stop-color="#D9D9D9" stop-opacity="0"/>
</linearGradient>
<linearGradient id="paint50_linear_0_1" x1="767.208" y1="325.644" x2="767.208" y2="1012.82" gradientUnits="userSpaceOnUse">
<stop stop-color="white"/>
<stop offset="1" stop-color="#D9D9D9" stop-opacity="0"/>
</linearGradient>
<linearGradient id="paint51_linear_0_1" x1="36.9364" y1="608.057" x2="36.9364" y2="1288.31" gradientUnits="userSpaceOnUse">
<stop stop-color="white"/>
<stop offset="1" stop-color="#D9D9D9" stop-opacity="0"/>
</linearGradient>
<linearGradient id="paint52_linear_0_1" x1="506.342" y1="860.458" x2="506.342" y2="1726.93" gradientUnits="userSpaceOnUse">
<stop stop-color="white"/>
<stop offset="1" stop-color="#D9D9D9" stop-opacity="0"/>
</linearGradient>
<linearGradient id="paint53_linear_0_1" x1="786.446" y1="627.295" x2="786.446" y2="1278.31" gradientUnits="userSpaceOnUse">
<stop stop-color="white"/>
<stop offset="1" stop-color="#D9D9D9" stop-opacity="0"/>
</linearGradient>
<linearGradient id="paint54_linear_0_1" x1="1134.33" y1="1062.56" x2="1134.33" y2="1325.13" gradientUnits="userSpaceOnUse">
<stop stop-color="white"/>
<stop offset="1" stop-color="#D9D9D9" stop-opacity="0"/>
</linearGradient>
<linearGradient id="paint55_linear_0_1" x1="311.199" y1="55.9568" x2="311.199" y2="318.519" gradientUnits="userSpaceOnUse">
<stop stop-color="white"/>
<stop offset="1" stop-color="#D9D9D9" stop-opacity="0"/>
</linearGradient>
<linearGradient id="paint56_linear_0_1" x1="211.617" y1="970.499" x2="211.617" y2="1741.55" gradientUnits="userSpaceOnUse">
<stop stop-color="white"/>
<stop offset="1" stop-color="#D9D9D9" stop-opacity="0"/>
</linearGradient>
<linearGradient id="paint57_linear_0_1" x1="87.3397" y1="416.447" x2="87.3397" y2="1096.7" gradientUnits="userSpaceOnUse">
<stop stop-color="white"/>
<stop offset="1" stop-color="#D9D9D9" stop-opacity="0"/>
</linearGradient>
<linearGradient id="paint58_linear_0_1" x1="868.784" y1="777.35" x2="868.784" y2="1281.38" gradientUnits="userSpaceOnUse">
<stop stop-color="white"/>
<stop offset="1" stop-color="#D9D9D9" stop-opacity="0"/>
</linearGradient>
<linearGradient id="paint59_linear_0_1" x1="252.401" y1="1156.72" x2="252.401" y2="1621.51" gradientUnits="userSpaceOnUse">
<stop stop-color="white"/>
<stop offset="1" stop-color="#D9D9D9" stop-opacity="0"/>
</linearGradient>
<linearGradient id="paint60_linear_0_1" x1="252.401" y1="314.871" x2="252.401" y2="718.867" gradientUnits="userSpaceOnUse">
<stop stop-color="white"/>
<stop offset="1" stop-color="#D9D9D9" stop-opacity="0"/>
</linearGradient>
<linearGradient id="paint61_linear_0_1" x1="982.567" y1="476.477" x2="982.567" y2="739.039" gradientUnits="userSpaceOnUse">
<stop stop-color="white"/>
<stop offset="1" stop-color="#D9D9D9" stop-opacity="0"/>
</linearGradient>
<linearGradient id="paint62_linear_0_1" x1="5.38663" y1="211.756" x2="5.38663" y2="1187.5" gradientUnits="userSpaceOnUse">
<stop stop-color="white"/>
<stop offset="1" stop-color="#D9D9D9" stop-opacity="0"/>
</linearGradient>
</defs>
</svg>
