<?xml version="1.0" encoding="utf-8"?>
<!-- Generator: Adobe Illustrator 23.0.5, SVG Export Plug-In . SVG Version: 6.00 Build 0)  -->
<svg version="1.1" id="Слой_1" xmlns="http://www.w3.org/2000/svg" xmlns:xlink="http://www.w3.org/1999/xlink" x="0px" y="0px"
	 width="1062.3px" height="1062.7px" viewBox="0 0 1062.3 1062.7" style="enable-background:new 0 0 1062.3 1062.7;"
	 xml:space="preserve">
<style type="text/css">
	.st0{fill:url(#SVGID_1_);}
	.st1{fill:url(#SVGID_2_);}
	.st2{fill:url(#SVGID_3_);}
	.st3{fill:url(#SVGID_4_);}
	.st4{fill:url(#SVGID_5_);}
	.st5{fill:url(#SVGID_6_);}
	.st6{fill:url(#SVGID_7_);}
	.st7{fill:url(#SVGID_8_);}
	.st8{fill:url(#SVGID_9_);}
	.st9{fill:url(#SVGID_10_);}
	.st10{fill:url(#SVGID_11_);}
	.st11{fill:url(#SVGID_12_);}
	.st12{fill:url(#SVGID_13_);}
	.st13{fill:url(#SVGID_14_);}
	.st14{fill:url(#SVGID_15_);}
	.st15{fill:url(#SVGID_16_);}
	.st16{fill:url(#SVGID_17_);}
	.st17{fill:url(#SVGID_18_);}
	.st18{fill:url(#SVGID_19_);}
	.st19{fill:url(#SVGID_20_);}
	.st20{fill:url(#SVGID_21_);}
	.st21{fill:url(#SVGID_22_);}
	.st22{fill:url(#SVGID_23_);}
	.st23{fill:url(#SVGID_24_);}
	.st24{fill:url(#SVGID_25_);}
	.st25{fill:url(#SVGID_26_);}
	.st26{fill:url(#SVGID_27_);}
	.st27{fill:url(#SVGID_28_);}
	.st28{fill:url(#SVGID_29_);}
	.st29{fill:url(#SVGID_30_);}
	.st30{fill:url(#SVGID_31_);}
	.st31{fill:url(#SVGID_32_);}
	.st32{fill:url(#SVGID_33_);}
	.st33{fill:url(#SVGID_34_);}
	.st34{fill:url(#SVGID_35_);}
	.st35{fill:url(#SVGID_36_);}
	.st36{fill:url(#SVGID_37_);}
	.st37{fill:url(#SVGID_38_);}
	.st38{fill:url(#SVGID_39_);}
	.st39{fill:url(#SVGID_40_);}
	.st40{fill:url(#SVGID_41_);}
	.st41{fill:url(#SVGID_42_);}
	.st42{fill:url(#SVGID_43_);}
	.st43{fill:url(#SVGID_44_);}
	.st44{fill:url(#SVGID_45_);}
	.st45{fill:url(#SVGID_46_);}
	.st46{fill:url(#SVGID_47_);}
	.st47{fill:url(#SVGID_48_);}
	.st48{fill:url(#SVGID_49_);}
	.st49{fill:url(#SVGID_50_);}
	.st50{fill:url(#SVGID_51_);}
	.st51{fill:url(#SVGID_52_);}
	.st52{fill:url(#SVGID_53_);}
	.st53{fill:url(#SVGID_54_);}
	.st54{fill:url(#SVGID_55_);}
	.st55{fill:url(#SVGID_56_);}
	.st56{fill:url(#SVGID_57_);}
	.st57{fill:url(#SVGID_58_);}
	.st58{fill:url(#SVGID_59_);}
	.st59{fill:url(#SVGID_60_);}
	.st60{fill:url(#SVGID_61_);}
	.st61{fill:url(#SVGID_62_);}
	.st62{fill:url(#SVGID_63_);}
</style>
<linearGradient id="SVGID_1_" gradientUnits="userSpaceOnUse" x1="531.35" y1="1171.8898" x2="531.35" y2="109.1898" gradientTransform="matrix(1 0 0 -1 0 1171.8898)">
	<stop  offset="0" style="stop-color:#6CA2F3"/>
	<stop  offset="1" style="stop-color:#F9F3F6"/>
</linearGradient>
<rect y="0" class="st0" width="1062.7" height="1062.7"/>
<linearGradient id="SVGID_2_" gradientUnits="userSpaceOnUse" x1="1159.4624" y1="760.0225" x2="-41.9335" y2="760.0186" gradientTransform="matrix(1 0 0 -1 0 1171.8898)">
	<stop  offset="0" style="stop-color:#FEFEFE;stop-opacity:0"/>
	<stop  offset="1" style="stop-color:#FFFFFF"/>
</linearGradient>
<rect x="-15.7" y="409.9" class="st1" width="1121.4" height="3.9"/>
<linearGradient id="SVGID_3_" gradientUnits="userSpaceOnUse" x1="1927.7426" y1="1169.3015" x2="726.3465" y2="1169.2987" gradientTransform="matrix(-1 0 0 -1 1827.0659 1315.4978)">
	<stop  offset="0" style="stop-color:#FEFEFE;stop-opacity:0"/>
	<stop  offset="1" style="stop-color:#FFFFFF"/>
</linearGradient>
<rect x="-47" y="143.6" class="st2" width="1121.4" height="5.2"/>
<linearGradient id="SVGID_4_" gradientUnits="userSpaceOnUse" x1="1927.7424" y1="1169.9645" x2="726.3463" y2="1169.9603" gradientTransform="matrix(-1 0 0 -1 1858.396 1305.0537)">
	<stop  offset="0" style="stop-color:#FEFEFE;stop-opacity:0"/>
	<stop  offset="1" style="stop-color:#FFFFFF"/>
</linearGradient>
<rect x="-15.7" y="133.2" class="st3" width="1121.4" height="3.9"/>
<linearGradient id="SVGID_5_" gradientUnits="userSpaceOnUse" x1="956.0226" y1="425.8023" x2="-162.8496" y2="425.7993" gradientTransform="matrix(1 0 0 -1 0 1171.8898)">
	<stop  offset="0" style="stop-color:#FEFEFE;stop-opacity:0"/>
	<stop  offset="1" style="stop-color:#FFFFFF"/>
</linearGradient>
<rect x="-138.4" y="744.2" class="st4" width="1044.4" height="3.9"/>
<linearGradient id="SVGID_6_" gradientUnits="userSpaceOnUse" x1="3373.0234" y1="274.6774" x2="2254.1536" y2="274.6732" gradientTransform="matrix(-1 0 0 1 3627.2261 288.7002)">
	<stop  offset="0" style="stop-color:#FEFEFE;stop-opacity:0"/>
	<stop  offset="1" style="stop-color:#FFFFFF"/>
</linearGradient>
<rect x="304.2" y="561.4" class="st5" width="1044.4" height="3.9"/>
<linearGradient id="SVGID_7_" gradientUnits="userSpaceOnUse" x1="3320.5234" y1="4.4264" x2="2061.7937" y2="4.4223" gradientTransform="matrix(-1 0 0 1 3248.626 829.1902)">
	<stop  offset="0" style="stop-color:#FEFEFE;stop-opacity:0"/>
	<stop  offset="1" style="stop-color:#FFFFFF"/>
</linearGradient>
<rect x="-15.7" y="831.6" class="st6" width="1175" height="3.9"/>
<linearGradient id="SVGID_8_" gradientUnits="userSpaceOnUse" x1="3220.2834" y1="247.2608" x2="2101.4036" y2="247.2566" gradientTransform="matrix(-1 0 0 1 3321.7261 343.5322)">
	<stop  offset="0" style="stop-color:#FEFEFE;stop-opacity:0"/>
	<stop  offset="1" style="stop-color:#FFFFFF"/>
</linearGradient>
<rect x="151.4" y="588.8" class="st7" width="1044.4" height="3.9"/>
<linearGradient id="SVGID_9_" gradientUnits="userSpaceOnUse" x1="272.855" y1="525.7438" x2="272.855" y2="396.4964" gradientTransform="matrix(1 0 0 -1 0 1171.8898)">
	<stop  offset="0" style="stop-color:#FFFFFF"/>
	<stop  offset="1" style="stop-color:#CCEDFF"/>
</linearGradient>
<path class="st8" d="M543.1,785.9c-1-0.8-2-3-3-6.6c-2.5-10-3.8-12.6-8.7-10.7c-4.9,2-5.2,0.8-6.2-7.7c-1-8.4-8.7-20.7-19.2-21.5
	c-10.5-0.8-17.1-10-27.4-18.7c-10.5-8.9-10-21.5-35.1-30.2c-25.1-8.9-10.8,7.7-21.5,21.5c-10.8,13.8-13.6,2.6-15.6-1.5
	c-2.1-4.3-4.6-2-5.2,0c-0.7,2-1,11.5-7.2,3.1c-6.2-8.4-6.2-4.6-6.6-3.1c-0.3,1.5-10.8,5.4-15.6-2.3c-4.9-7.7-9-1.5-27.1,5.4
	c-18,6.9-14.6,10.7-14.6,1.5s-6.6-6.9-16.4-8.9c-9.7-2-18.4,12.9-19.5,5.4c-1-7.7-15.6,0-14.6-2s-2.5-13.8-6.6-19.2
	s-3.8-3.1-5.9-1.1c-2.1,2-1,12.3-8,17.5c-6.9,5.4-12.5,2-12.5-0.8c0-2.6-7.7-16.9-14.3-19.8c-6.6-3.1-7.2-13.8-12.8-14.6
	c-5.6-0.8-5.9,11.5-8,14.9c-2.1,3.4-5.2,2-6.2-4.9c-1-6.9-9.3-6.9-15.3-6.9c-5.9,0-8.7-4.6-14.9-12.9c-6.2-8.4-12.5-5.7-27.1,0
	c-14.6,5.7-19.5,5.7-31,4.9c-11.5-0.8-10.8,2.3-15.9,4.3c-5.2,2-4.6-1.1-10.8,0c-6.2,1.1-1.3,15.7-4.6,12.3
	c-3.1-3.4-13.6-6.1-20.8-6.6c-7.2-0.3-15.6,3.4-23.9,4.6c-8.4,1.1-10.5,3.8-16.4,10.3c-5.9,6.6-8,14.1-13.9,21
	c-2.1,2.5-5.1,5.4-8.2,7.9v65.2H543.1z"/>
<linearGradient id="SVGID_10_" gradientUnits="userSpaceOnUse" x1="834.8877" y1="512.8628" x2="834.8877" y2="430.7538" gradientTransform="matrix(1 0 0 -1 0 1171.8898)">
	<stop  offset="0" style="stop-color:#FFFFFF"/>
	<stop  offset="1" style="stop-color:#CCEDFF"/>
</linearGradient>
<path class="st9" d="M1020.4,717c-2.9-8.2,5.7-10,12.8-17c6.9-7,12.1-8.2,0-12.4c-12.1-4.3-12.1-8.5-7.6-12.4
	c4.6-3.9-12.1,1.5-12.1,1.5s6.9-8.8-7.5-16c-14.6-7-30.2-16.4-33.6-5.4c-3.4,11-6.4,15.5-12.1,12.8s-15.8-3.9-18,1.1
	c-2.3,4.9,6.9,8.5-3,10.6c-9.8,2.1-11-4.3-19.2-2.8c-8.2,1.5-8.2,5.7-10.5,7.5c-2.3,1.8-12.1,0-18.5,3.3c-6.4,3.3-9.8,2.1-12.8-1.8
	c-2.9-3.9-9.8-6.1-15.8-6.1c-5.7,0-13.3-6.7-16.2-8.2c-2.9-1.5-13.9-3.9-16.2,2.8c-2.3,6.7-9.3,11-12.8,8.8
	c-3.4-2.1-17.4-4.9-24.4-10.6c-6.9-5.7-18,1.5-22.1-2.8c-4.1-4.3-16.9-11.6-24.4-12.4c-7.5-0.7-27.2,3.1-29,12.4
	c-1.8,9.2,6.9,18.8-9.4,17.3c-16.2-1.5-72.7,1-77.3,9.2s4.6,23.4,14.6,26.7c8.2,2.6,25.1,2.1,25.3,9.3h331.7c0.2,0,0.3,0,0.5-0.2
	C1014.7,729.5,1023.4,725.2,1020.4,717z"/>
<linearGradient id="SVGID_11_" gradientUnits="userSpaceOnUse" x1="216.0644" y1="353.5298" x2="216.0644" y2="289.5588" gradientTransform="matrix(1 0 0 -1 0 1171.8898)">
	<stop  offset="0" style="stop-color:#FFFFFF"/>
	<stop  offset="1" style="stop-color:#CCEDFF"/>
</linearGradient>
<path class="st10" d="M317.1,874.7c3.1-2.4-2.1-4.9,0.5-7c5.8-4.7,18.1-8.6,18.3-11.2c0.5-8.2,7.9-18.7,3.5-20.9
	c-1.8-1-3.3-5.7-9.5-4.2c-4.6,1.1-13.8,8.5-18.1,9c-3.9,0.5-7.2-5.1-8.9-3.8c-5.9,4.2-24,12.6-28.9,9.5c-4.9-3.1-9-11.1-19.2-5.9
	c-10.2,5.2-24,3.4-32.1-2.6c-5.1-3.8-5.4-1.8-15,4.9c-1.5,1.1-4.8-3.9-8.1-2.6c-3,1.1-5.8,8.6-7.4,9.9c-3.1,2.6-5.9,6.5-10,4.7
	c0,0-1.2-4.4,1.2-13.5c2.3-9,7.9-18.6,5.4-21.7c-2.3-2.9-5.8,3.9-13.2,6.8c-3.5,1.3-11-3.1-13.8-1c-4.3,3.3-7.2,11.9-7.2,11.9
	s-3.9-7.7-11.7-7.3c-6.1,0.2-15,7.5-21.9,9.9c-9.2,3.3-19.4,16-20.7,16.6c-1.5,0.8,1.5,7.8-4.4,18.6c-1.3,2.4-3,5.1-4.4,7.7h212.4
	c0.3-0.8,0.8-1.6,1.5-2.3C306.8,878.1,315,876.3,317.1,874.7z"/>
<linearGradient id="SVGID_12_" gradientUnits="userSpaceOnUse" x1="718.6936" y1="346.6248" x2="718.6936" y2="392.3907" gradientTransform="matrix(1 0 0 -1 0 1171.8898)">
	<stop  offset="0" style="stop-color:#FFFFFF"/>
	<stop  offset="1" style="stop-color:#CCEDFF"/>
</linearGradient>
<path class="st11" d="M721.5,811.4c-5.5,2.5-8.5,3.1-9.4,0c-0.8-3.1-3.2-6-5.5-6s-2.3-3.1-3-5c-0.7-1.8-4.7-2.1-6.2-1.8
	c-1.5,0.3-6.2-4.1-6.7-5.6c-0.7-1.3,1.8-3.5,2.7-6c0.8-2.5,6.7-9.4,11.2-7.3c4.3,2.1,7,13.6,10.2,10.4c3.2-3.1,2-8.1,3.2-7.6
	c1.2,0.3,5,2.8,5.3,3.8c0.3,1,6.2,2.5,7-0.3c0.8-2.8,5.5-2.5,7.7,1c2,3.5-2.7,12.9,0,13.6c2.7,0.7,5.7,5,8,9.1
	c2.3,4.1-1,15.4-9.7,15.4c-0.8,0-6.5-6.6-11.4-6.6c-4.8,0-8,6.6-8.2,3.8C716.1,819.6,721.5,811.4,721.5,811.4z"/>
<linearGradient id="SVGID_13_" gradientUnits="userSpaceOnUse" x1="584.8776" y1="295.5098" x2="584.8776" y2="351.7618" gradientTransform="matrix(1 0 0 -1 0 1171.8898)">
	<stop  offset="0" style="stop-color:#FFFFFF"/>
	<stop  offset="1" style="stop-color:#CCEDFF"/>
</linearGradient>
<path class="st12" d="M594.3,859.5c-4.9,6.2-7.8,8.9-10.8,5.7c-2.9-3.1-7.3-4.9-10.1-3.6c-2.8,1.5-4.6-2.3-6.4-3.9s-6.7,0.3-8.2,1.6
	c-1.5,1.3-9.6-1.1-11.1-2.5s-0.2-5.1-0.7-8.5c-0.3-2,5.7-3.9,7.5-7.6c1.3-2.8-2-7.7,0.8-7.9c6.4-0.2,16.5,11.7,18.3,6.1
	c1.8-5.6-2.4-10.7-1-11c1.6-0.3,7.5,0.2,8.5,1.3c1,1,8.7-0.8,7.8-4.8c-0.7-3.8,4.9-6.2,9.5-3.5c4.6,2.8,4.9,16.8,8.3,15.9
	c3.4-0.8,9.5,2.3,14.7,5.7c3.1,2.1-0.5,10.2-2,16.4c-1,4.1,0.5,7.2,0.2,7.6c-0.3,0.2-2.4,4.8-5.1,5.4c-2,0.5-4.1,3-5.9,2.5
	c-2.4-0.5-4.2-4.1-4.2-4.1s-7,7.9-9.1,4.8C593.3,872.5,594.3,859.5,594.3,859.5z"/>
<linearGradient id="SVGID_14_" gradientUnits="userSpaceOnUse" x1="1072.3225" y1="772.9902" x2="-72.4154" y2="772.9871" gradientTransform="matrix(1 0 0 -1 0 1171.8898)">
	<stop  offset="0" style="stop-color:#FEFEFE;stop-opacity:0"/>
	<stop  offset="1" style="stop-color:#FFFFFF"/>
</linearGradient>
<rect x="-47.4" y="396.9" class="st13" width="1068.6" height="4.1"/>
<linearGradient id="SVGID_15_" gradientUnits="userSpaceOnUse" x1="166.7024" y1="711.8965" x2="316.1005" y2="550.8825" gradientTransform="matrix(1 0 0 -1 0 1171.8898)">
	<stop  offset="0" style="stop-color:#FEFEFE"/>
	<stop  offset="1" style="stop-color:#BFBFBF"/>
</linearGradient>
<path class="st14" d="M92.1,489.5l-21.2,9.7c-2.9,1.3-4.7,4.2-4.7,7.3c0,4.4,3.6,8.1,8.1,8.1H345c4.6,0,8.3-3.7,8.3-8.3
	c0-3-1.6-5.8-4.3-7.3l-18.1-10c-2.4-1.3-5-2-7.7-2h-17.3c-4.3,0-8.4,1.7-11.4,4.8l-4.7,4.8c-3,3.1-7.1,4.8-11.4,4.8h-19.5
	c-2,0-4.1-0.4-6-1.1L220,487l-26.2-9.4c-4.7-1.7-9.9-1.1-14.1,1.6l-28.3,18.2c-3.9,2.5-8.8,3.2-13.3,1.9l-34.9-10.5
	C99.6,487.7,95.6,487.9,92.1,489.5z"/>
<linearGradient id="SVGID_16_" gradientUnits="userSpaceOnUse" x1="714.1541" y1="755.5047" x2="742.3211" y2="441.0837" gradientTransform="matrix(1 0 0 -1 0 1171.8898)">
	<stop  offset="0" style="stop-color:#FEFEFE"/>
	<stop  offset="1" style="stop-color:#BFBFBF"/>
</linearGradient>
<path class="st15" d="M523.8,458.9c-16.4,12.3-40.5,30.3-52,38.9c-4,3-6.3,7.6-6.3,12.6v1.9c0,8.8,7.2,16,16,16h482.2
	c8.8,0,16-7.2,16-16v-2.2c0-4.8-2.2-9.4-5.9-12.4c-15.2-12.1-38.5-29.6-43.1-28.8c-6.5,1.1-52.3,33.6-59.9,33.6
	c-7.6,0-89.3-15.7-102.4-23.5c-13.1-7.8-76.3-24.6-82.8-24.6s-49,28-58.8,24.6c-7.2-2.5-58.9-15.3-89.7-22.9
	C532.5,455,527.6,456,523.8,458.9z"/>
<linearGradient id="SVGID_17_" gradientUnits="userSpaceOnUse" x1="530.9775" y1="509.7527" x2="530.9775" y2="739.7704" gradientTransform="matrix(1 0 0 -1 0 1171.8898)">
	<stop  offset="0" style="stop-color:#FFFFFF"/>
	<stop  offset="1" style="stop-color:#CCEDFF"/>
</linearGradient>
<path class="st16" d="M-0.9,407.8c-4.2,1.5-8.1,3.1-11.7,4.6v141.2c1.8,0.2,2.3,1.9,3,6.4c1,6.2,8.6,15.5,19,16
	c10.4,0.5,16.9,7.4,27.2,13.9c10.4,6.5,5.5,14.6,30.4,21.2c24.8,6.5,15.1-4.5,25.8-14.6c10.7-10.3,5.2-2.2,7.2,0.9
	c2,3.1,8.6,0.7,9.2-0.7c0.7-1.4,5-7.6,11.2-1.2c6.2,6.2,6.2,3.4,6.5,2.2c0.3-1.2,10.7-4,15.4,1.7c4.9,5.7,8.9,1.2,26.9-4
	c18-5.2,14.4-7.9,14.4-1.2c0,6.9,6.5,5.2,16.1,6.5c9.6,1.4,18.3-9.6,19.3-4c1,5.7,15.4,0,14.4,1.4c-1,1.4,0.3,4.1,4.5,8.1
	c4.2,4,5.9,2.2,7.9,0.9c2-1.4,1-2.9,7.9-6.9c6.9-4,12.4-1.4,12.4,0.5c0,2.1,7.6,12.6,14.1,14.8c6.5,2.2,7.2,10.3,12.8,10.8
	c5.5,0.5,5.9-8.6,7.9-11.2c2-2.6,5.2-1.4,6.2,3.8c1,5.2,9.2,5.2,15.1,5.2c5.9,0,8.6,3.4,14.8,9.6c6.2,6.2,12.4,4.3,26.9,0
	c14.4-4.3,19.3-4.3,30.7-3.8c11.4,0.5,10.7-1.7,15.8-3.1c5.2-1.4,4.5,0.9,10.7,0c6.2-0.9,1.3-11.7,4.5-9.1c3,2.6,13.4,4.6,20.6,4.8
	c7.2,0.3,15.4-2.6,23.8-3.4c8.2-0.9,10.4-2.9,16.1-7.7c5.9-4.8,7.9-10.5,13.8-15.7c5.9-5.2,19-12.9,20.3-10.3
	c1.3,2.6,7.6,3.8,11.7,2.2c4.2-1.4,11.7-0.9,18,0s8.2-0.5,10.7-2.6c2.3-2.1,2.7-2.1,7.6-2.9c4.9-0.9,8.6,0,8.2-4
	c-0.3-4,0-7.1,6.5-5.5c6.5,1.7,6.2,2.1,8.6-3.8c2.4-5.7,4.9-2.6,12.4-2.2c7.6,0.3,7.9,0.5,7.9-3.8s4.9-2.6,14.1-2.6
	c9.2,0,10.7-1.4,11.4-4c0.7-2.6,15.8,0.3,16.6-1.7c0.7-2.1,7.2-1.4,13.8-0.5c6.5,0.9,0.3,3.1,0,6.9c-0.3,3.8,1,8.3,4.9,5.7
	c3.9-2.6,2.3-6.4,8.9-5.5c6.5,0.9,13.4,1.2,14.8,4.1c1.3,2.9,8.6,4.6,14.1,6c5.5,1.4,1.7,12.2,5.9,18.2c4.2,6,12.1,11.2,19,10
	c6.9-1.2,5.5-4.8,7.2-3.4c1.7,1.4,4.2,2.6,9.6,0c5.5-2.6,8.9-2.6,10.4-1.7c1.3,0.9,7.2-0.3,10.4-3.4c3-3.1,7.9-3.1,12.4-4.3
	c4.5-1.2,15.1-3.1,19.3,4.3c4.2,7.4,6.2,6.9,8.2,7.1c2,0.3,7.9-3.4,8.2,1.2c0.3,4.6,8.9,7.1,11.1,2.9c2-4.3,13.1-1.7,16.6,1.2
	c3.5,2.9,18,12.2,23.3,7.7c5.5-4.6,5.9-6.5,5.9-6.5c21-8.3,4.5-15.1,13.1-20.8c8.6-5.7,13.1-27.9,15.8-29.6c2.7-1.7,6.5,0,8.6-1.7
	c2-1.7,5.9-3.1,5.5-6.5c-0.3-3.4,6.9-5.2,8.9-4.8c2,0.3,10.4,0.3,11.7-3.1c1.3-3.3,7.2-0.3,8.9-0.2c1.7,0.3,7.6,0,10.1-2.1
	c2.3-2.1,3.5-5.2,5.9-5.7c2.3-0.5,3.9-1.4,2.7-3.6c-1-2.1,1-2.1,2.7-5.3c1.7-3.1,4.5-2.6,11.8-2.6c7.2,0,6.5,5.8,16.6,3.1
	c1.8-0.5,5.9-3.8,7.2-4.5c1.3-0.7,4.5-1.2,5.2-0.3c0.7,0.9,5.2,0,5.2,0s2-1.4,2.7-3.6c0.7-2.2,3.9-1.4,3.9-1.4s3,0,4.5,1.2
	c1.3,1.2,2.7-1.2,4.5-3.3c1.7-2.1,7.6-2.8,11.1-0.5c16.6,11,23.8,4.1,30.2,1.2V407.8H-0.9z"/>
<linearGradient id="SVGID_18_" gradientUnits="userSpaceOnUse" x1="995.1367" y1="614.8306" x2="995.1367" y2="776.3906" gradientTransform="matrix(1 0 0 -1 0 1171.8898)">
	<stop  offset="0" style="stop-color:#FFFFFF"/>
	<stop  offset="1" style="stop-color:#CCEDFF"/>
</linearGradient>
<path class="st17" d="M919.8,473.6c1.2,9.7-1.7,20.8,1.7,24.6c3.3,3.8,15.8,36.7,19,33c3.2-3.6,16-34.3,19.8-29.4
	c3.8,5,10.7,15.4,16.5,11.6c5.7-4,15.2,1.7,21.7,10.9c6.5,9.2,6.8,24.6,17.2,6.9c0,0,4.3,14.7,8.8,23.7c4.5,9,19.4-13.2,19.4-13.2
	s21.5,13.5,26.7-8v-77.7c-8.8-7.1-17.8-11.9-23.3-10.4c-7.3,2.1-8.8-37.9-18.5-46.4c-9.8-8.5-21.7-1.9-20,9.2
	c1.7,10.9-14.5,15.9-16.7,13c-2.2-3.1-14.8-5-18.2-4.3c-3.3,0.7,6.2,15.4,2.7,31.5s-25.7-18.7-39.4-18.5
	C923.3,430.3,918.7,463.9,919.8,473.6z"/>
<linearGradient id="SVGID_19_" gradientUnits="userSpaceOnUse" x1="677.2379" y1="623.0453" x2="677.2379" y2="714.7782" gradientTransform="matrix(1 0 0 -1 0 1171.8898)">
	<stop  offset="0" style="stop-color:#FFFFFF"/>
	<stop  offset="1" style="stop-color:#CCEDFF"/>
</linearGradient>
<path class="st18" d="M692.3,521.5c-7.9,10.1-12.7,14.4-17.4,9.3c-4.7-5.1-11.7-8.1-16.1-5.8c-4.4,2.4-7.4-3.6-10.2-6.5
	c-2.8-2.7-10.7,0.7-13.1,2.7c-2.3,2.1-15.4-1.9-17.9-3.9c-2.5-2.1-0.2-8.4-0.8-13.9c-0.5-3.1,9.2-6.3,12.1-12.3
	c2.2-4.6-3-12.5,1.3-12.7c10.2-0.3,26.3,19,29.1,9.8c2.8-9.3-4-17.3-1.5-17.8c2.5-0.5,11.9,0.3,13.6,2.1c1.5,1.7,13.7-1.4,12.7-7.7
	c-1.2-6.2,7.9-10.1,15.1-5.5c7.2,4.6,7.7,27.2,13.2,26c5.5-1.2,15.2,3.8,23.6,9.4c5,3.4-0.7,16.6-3.2,26.7
	c-1.5,6.5,0.8,11.8,0.2,12.2c-0.7,0.3-4,7.7-8.2,8.7c-3.2,0.9-6.5,4.8-9.5,4.1c-3.8-0.9-6.7-6.5-6.7-6.5s-11.4,12.8-14.6,7.9
	C690.6,542.7,692.3,521.5,692.3,521.5z"/>
<linearGradient id="SVGID_20_" gradientUnits="userSpaceOnUse" x1="203.7272" y1="583.3401" x2="203.7272" y2="647.78" gradientTransform="matrix(1 0 0 -1 0 1171.8898)">
	<stop  offset="0" style="stop-color:#FFFFFF"/>
	<stop  offset="1" style="stop-color:#CCEDFF"/>
</linearGradient>
<path class="st19" d="M197.3,578.8c-2.3-3.2-7.9,0.5-11.2-3s-8.4-5.7-11.6-4.1c-3,1.7-5.4-2.5-7.2-4.6c-2-1.9-7.7,0.5-9.4,2
	c-1.7,1.5-11.1-1.4-12.7-2.9c-1.7-1.5-13.1-9.8-13.6-13.7c-0.3-2.2,19.5-0.5,21.6-4.7c1.5-3.2-2.2-8.8,1-8.9
	c7.2-0.2,18.8,13.3,20.8,6.9c2-6.4-2.9-12.2-1.2-12.5c1.8-0.3,8.6,0.3,9.7,1.5c1.2,1.2,9.9-1,9.1-5.4c-0.8-4.4,5.7-7.1,10.7-3.9
	c5.2,3.2,5.5,19.2,9.6,18.2c4-0.8,10.9,2.7,16.8,6.6c3.7,2.4,47.8,3.5,46.1,10.6c-0.3,1.7-5,12.5-11.6,14.9
	c-4.4,1.7-9.7-8.6-14.9-8.8c-8.4,0-16.8,9.5-21.6,10.5c-0.5,0.2-2.9,5.4-5.9,6.2c-2.2,0.5-4.7,3.4-6.9,2.9c-2.7-0.7-4.9-4.6-4.9-4.6
	s-8,9.1-10.4,5.6C197.2,584.2,197.3,578.8,197.3,578.8z"/>
<linearGradient id="SVGID_21_" gradientUnits="userSpaceOnUse" x1="246.4705" y1="609.3541" x2="246.4705" y2="750.3764" gradientTransform="matrix(1 0 0 -1 0 1171.8898)">
	<stop  offset="0" style="stop-color:#FFFFFF"/>
	<stop  offset="1" style="stop-color:#CCEDFF"/>
</linearGradient>
<path class="st20" d="M76.8,504.2c0,0-7.9,8.2,4.5,17.7c12.4,9.4,25.7,21.3,30.6,10.3c4.9-11,8.4-15.3,13.3-11.5
	c5,3.8,13.9,6.3,17,1.4c2.9-4.8-5.2-9.8,4.4-10.6c9.6-0.9,9.6,6,17.5,5.7c7.7-0.3,8.4-4.8,10.9-6.2c2.4-1.5,11.4,1.7,17.8-0.7
	c6.4-2.4,9.6-0.9,11.6,3.6c2.2,4.5,8.2,7.7,13.8,8.4c5.4,0.9,11.4,8.9,13.9,10.8c2.5,1.9,12.4,6,15.6-0.7
	c3.2-6.7,10.3-10.1,13.3-7.4c2.9,2.7,15.5,7.5,21.2,14.6c5.7,6.9,17,1,20.2,6c3.2,5,13.9,14.6,20.8,16.3c6.9,1.9,25.9,0.5,28.9-8.7
	c3-9.3-3.7-20.4,11.3-16.6c15,3.8,67.7,9.3,73.4,1.4c5.5-7.7-0.8-24.9-9.6-29.7c-8.7-4.6-29.4-6.3-19.5-18.3
	c10.1-12,16-22.8,12.9-31.9c-3-9.1-10.1-14.2-30.8-16.6c-20.7-2.4-58.1,3.9-74.1,7.5c-16,3.6-16.6-7.4-19-13.4
	c-2.5-6-28.9-10.5-52.3-13.5c-23.4-3.3-33.8,15.1-50.6,17.1c-16.8,1.9-62-15.1-66.5-13.9c-4.5,1.2-14.6,9.4-14.6,16.1
	c0.2,6.9-5.2,5.7-17,6.9c-11.8,1.2-20.5,4.5-19.2,13.2c1.5,8.9-6.9,9.4-14.5,15.8s-12.6,6.7-1.8,12.9c10.8,6.2,10.1,10.6,5.2,13.9
	C60.1,507.3,76.8,504.2,76.8,504.2z"/>
<linearGradient id="SVGID_22_" gradientUnits="userSpaceOnUse" x1="625.8123" y1="669.5068" x2="625.8133" y2="746.2947" gradientTransform="matrix(1 0 0 -1 0 1171.8898)">
	<stop  offset="0" style="stop-color:#FFFFFF"/>
	<stop  offset="1" style="stop-color:#CCEDFF"/>
</linearGradient>
<path class="st21" d="M666.9,493c0,0,3.8,5.3-7,1.7c-10.9-3.6-4.5,0.3-9.5,2.2c-4.8,1.9-13.5-0.9-14.9-3.9c-1.3-3.1-7-1.7-11.4,2.7
	c-4.3,4.4-7-4.4-15-7.3c-8-2.9-12.7-9.2-24.4-7.8c-11.7,1.4-16.7,2.6-21-1.9s1.8-12.6-9.4-14.8c-11.2-2-13.9-2.2-15.5-9.2
	c-1.7-7.2-22.5-8.3,4.8-16.9c27.4-8.5,21.7-16,42.4-10c20.7,6,23.7,4.6,35.1,1.9c11.4-2.7,18-5.6,20.9,0.5
	c2.7,6.1,16.7,6.3,27.6,3.7c10.7-2.6,16.9-5.3,20,0c3.2,5.3,3.5,20.9,16,26.7c12.7,5.8,19.2,17.2,15,22.3s-17,19.1-20.5,15
	c-3.5-3.9-10.2-12.6-12.2-0.5C686,509.5,669.4,495.7,666.9,493z"/>
<linearGradient id="SVGID_23_" gradientUnits="userSpaceOnUse" x1="185.0275" y1="918.2158" x2="185.0275" y2="727.9035" gradientTransform="matrix(1 0 0 -1 0 1171.8898)">
	<stop  offset="0" style="stop-color:#FFFFFF"/>
	<stop  offset="1" style="stop-color:#CCEDFF"/>
</linearGradient>
<path class="st22" d="M285.3,310.8c-9.6-0.2-10.9,2.1-11.7,5.7c-0.7,3.6-16.3-0.3-16.9,2.4c-0.7,2.8-7.4,2.1-14.1,0.9
	c-6.7-1.2-0.3-4.5,0-9.6c0.3-5.2-1-11.5-5-8.1c-3.9,3.6-2.5,8.9-9.2,7.7c-6.7-1.2-13.7-1.7-15.3-5.7c-1.3-4-8.9-6.4-14.6-8.4
	c-5.7-2.1-1.8-17.2-6-25.6s-12.4-15.7-19.4-13.9c-7,1.5-5.7,6.9-7.4,4.8c-1.8-2.1-4.2-3.6-9.9,0c-5.5,3.4-9.1,3.4-10.6,2.2
	c-1.3-1.2-7.4,0.3-10.6,4.8c-3.2,4.5-8.2,4.5-12.7,6c-4.5,1.5-15.6,4.5-19.8-6c-4.2-10.3-6.4-9.6-8.5-10c-2.2-0.3-8.2,4.8-8.5-1.5
	c-0.3-6.4-9.2-10-11.4-4c-2.2,6-13.4,2.4-16.9-1.5c-3.5-4-9.2-1.5-14.9,4.8c-5.7,6.4-6,9.1-6,9.1c-21.6,11.5-4.5,21.2-13.4,29.2
	c-8.9,8.1-13.4,39.2-16.3,41.6s-6.7,0-8.9,2.4c-2.2,2.4-6,4.5-5.7,9.1c0.2,2.6-2,4.5-4.2,5.7v86.4h389.8l5.5-7.4
	C380.9,433.1,341.8,311.3,285.3,310.8z"/>
<linearGradient id="SVGID_24_" gradientUnits="userSpaceOnUse" x1="798.1205" y1="909.2938" x2="798.1205" y2="773.7476" gradientTransform="matrix(1 0 0 -1 0 1171.8898)">
	<stop  offset="0" style="stop-color:#FFFFFF"/>
	<stop  offset="1" style="stop-color:#CCEDFF"/>
</linearGradient>
<path class="st23" d="M1074.6,409.2c-1-0.9-2-3.1-3-6.9c-2.5-10.5-3.9-13.2-8.9-11.2c-5,2.1-5.4,0.9-6.4-8.1
	c-1-8.8-8.9-21.7-19.6-22.5c-10.7-0.9-17.4-10.5-28-19.6c-10.7-9.3-10.2-22.5-35.9-31.6c-25.7-9.3-11.1,8.1-22,22.5
	c-11.1,14.4-13.9,2.8-15.9-1.5c-2.2-4.5-4.7-2.1-5.4,0c-0.7,2.1-1,12-7.4,3.3c-6.4-8.8-6.4-4.8-6.7-3.3c-0.3,1.5-11.1,5.7-15.9-2.4
	c-5-8.1-9.2-1.5-27.7,5.7c-18.5,7.2-14.9,11.2-14.9,1.5s-6.7-7.2-16.8-9.3c-9.9-2.1-18.8,13.6-20,5.7c-1-8.1-15.9,0-14.9-2.1
	c1-2.1-2.5-14.4-6.7-20.1c-4.2-5.7-3.9-3.3-6-1.2c-2.2,2.1-1,12.9-8.2,18.4c-7,5.7-12.8,2.1-12.8-0.9c0-2.8-7.9-17.7-14.6-20.8
	c-6.7-3.3-7.4-14.4-13.1-15.3c-5.7-0.9-6,12-8.2,15.6c-2.2,3.6-5.4,2.1-6.4-5.2c-1-7.2-9.6-7.2-15.6-7.2s-8.9-4.8-15.3-13.6
	c-6.4-8.8-12.8-6-27.7,0c-14.9,6-20,6-31.7,5.2c-11.7-0.9-11.1,2.4-16.3,4.5c-5.4,2.1-4.7-1.2-11.1,0c-6.4,1.2-1.3,16.5-4.7,12.9
	c-3.2-3.6-13.9-6.4-21.3-6.9c-7.4-0.3-15.9,3.6-24.5,4.8c-8.6,1.2-10.7,4-16.8,10.8c-6,6.9-8.2,14.8-14.3,22
	c-2.2,2.6-5.2,5.7-8.4,8.3v68.4H1074.6z"/>
<linearGradient id="SVGID_25_" gradientUnits="userSpaceOnUse" x1="759.386" y1="612.0922" x2="759.386" y2="690.2162" gradientTransform="matrix(1 0 0 -1 0 1171.8898)">
	<stop  offset="0" style="stop-color:#FFFFFF"/>
	<stop  offset="1" style="stop-color:#CCEDFF"/>
</linearGradient>
<path class="st24" d="M655.7,482.1c1.3,9.5-2.7,20.2,1.5,23.8c4.2,3.6,26.8,10.4,30.9,6.8c4-3.6,17.8-9.3,22.5-4.8
	c4.9,4.8,10.1,14.9,17.6,11c7.5-3.9,19.6,1.2,27.7,9.8c8,8.7,16.3,1.5,29.8-15.8c0,0-2.7,36.1,2.8,44.8c5.7,8.7,25.2-13.4,25.2-13.4
	s5,9.7,11.6,11.2c5,1.2,11.1-5.6,16.4-7c7-1.9,12.9-14.4,14.1-14.9c1.2-0.5-2.8-9.5-0.3-20.7c2.3-10,6.9-22.1,8.2-31.2H655.7
	C655.7,481.8,655.7,481.9,655.7,482.1z"/>
<linearGradient id="SVGID_26_" gradientUnits="userSpaceOnUse" x1="8.0445" y1="721.4427" x2="8.0445" y2="672.3738" gradientTransform="matrix(1 0 0 -1 0 1171.8898)">
	<stop  offset="0" style="stop-color:#FFFFFF"/>
	<stop  offset="1" style="stop-color:#CCEDFF"/>
</linearGradient>
<path class="st25" d="M11.2,499.6c5.8-9.8,14-25.2,13.5-31.9c-0.7-10.5-28.4-1-28.4-1s0.3-11.2-4.5-15.9c-0.2-0.2-0.3-0.3-0.5-0.5
	v49.1h19.9V499.6z"/>
<linearGradient id="SVGID_27_" gradientUnits="userSpaceOnUse" x1="77.5021" y1="642.2134" x2="77.5021" y2="750.6914" gradientTransform="matrix(1 0 0 -1 0 1171.8898)">
	<stop  offset="0" style="stop-color:#FFFFFF"/>
	<stop  offset="1" style="stop-color:#CCEDFF"/>
</linearGradient>
<path class="st26" d="M-11.3,514.6c2.3,2.1,5.2,3.8,8.6,4.3c3.2,0.5,6.9-3.8,10.7-4.3c4.2-0.5,10.1,6.7,15.1,8.3
	c3.4,1,6.4-4.3,8.2-2.9c4.5,3.5,1.7,7.4,4.4,9c5.5,2.9,9.2-2.8,17.1-10.9c3.5-3.6,7.9,3.8,12.1,1.4c1-0.5,2.9-7.9,4.7-9
	c2.2-1.2,4.5,4,5.5,2.6c2.9-4,1.2-7.9,3-6.7c3.7,2.4,2.3-3.6,6.4-7.6c2.2-2.1,8.7-0.3,11.6-3.3c5.2-5.4,7.9-12.8,14.3-15.9
	c3.9-1.9,8.9,0.7,16.8-1.7c20.8-6.2,12.1-9.5,30.9-31.8c19-22.3,0.5-11.9-4.7-17.1c-5-5.2-7.4-3.8-18,0.5
	c-10.6,4.3-9.7-6.2-15.8-7.6c-6-1.4-9.7,2.4-19,10c-9.2,7.6-16.6,4.8-25,6.7c-8.4,1.9-15.3-4.3-16.6,1.9c-1.3,6.2-5.5,10.5-8.4,8.6
	c-2.9-1.9-11.6,0.5-14.8,4.8c-3.2,4.3,4.2,4.3-6.9,7.1c-11.1,2.9-5,5.2-5,5.2c-3.7-1-25-3.8-20.3,7.6c4.7,11.4-5.5,7.6-10.6,6.2
	c-1.7-0.5-3,1.2-4.4,3.8V514.6z"/>
<linearGradient id="SVGID_28_" gradientUnits="userSpaceOnUse" x1="520.2919" y1="888.6611" x2="520.2919" y2="660.9141" gradientTransform="matrix(1 0 0 -1 0 1171.8898)">
	<stop  offset="0" style="stop-color:#FFFFFF"/>
	<stop  offset="1" style="stop-color:#CCEDFF"/>
</linearGradient>
<path class="st27" d="M754.6,460.2c-2.9-3.1,2.2-43.9,6.4-47c22.1-17.6-2.7-29.2-6.4-36.1c-3.5-6.9-2.5-1.2-3.2,3.6
	c-0.7,4.8-1.8,6.2-2.9-1.6c-1-7.8-1.5-9.9-3.4-8.3c-1.8,1.6-2,0.5-2.3-6.1c-0.3-6.6-3.4-16.1-7.4-16.8c-4-0.5-6.5-7.8-10.6-14.7
	c-4-6.9-3.9-16.8-13.4-23.5c-9.6-6.9-4.2,6.1-8.2,16.8c-4.2,10.7-5.2,2.1-6-1.2c-0.8-3.3-6.9-1-7.4,0c-1.5,2.9-4.2,4.2-6-1.7
	c-1.8-6.1-3.5-1.2-10.4,4.1c-6.9,5.4-5.5,8.3-5.5,1.2c0-7.1-19.8-2.8-19.3-4.2c0.3-1.6,1.8-2.8,0.2-7.1c-1.7-4.2-4-1.2-4.9,0.3
	c-0.8,1.6-0.5,0.5-3.2,4.7c-2.7,4.2-4.9,1.6-4.9-0.5c0-2.1,2.3-13.8-0.2-16.1c-2.5-2.4-6-4.3-8.2-5c-2.2-0.5-7.2,7.4-7.5,1.9
	c-0.3-5.4-3.5-5.4-5.9-5.4c-2.3,0-3.4-3.6-5.7-10.2c-2.3-6.6-4.9-4.5-10.4,0c-5.5,4.5-7.5,4.5-11.9,3.8c-4.4-0.5-4.2,1.7-6.2,3.3
	c-2,1.6-1.7-0.9-4.2,0c-2.3,0.9-0.5,12.3-1.7,9.5c-1.2-2.8-5.2-4.8-8-5c-2.9-0.3-6,2.8-9.2,3.6c-3.2,0.9-4,2.9-6.2,8.1
	c-2.3,5-5.2,10.2-7.5,15.6c-2.3,5.4-7.4,7.4-7.9,4.7c-0.5-2.8-6.9,5.4-9.2,4.5c-2.3-0.9-5.2,4.8-7,5.7c-1.8,0.9-3.4,0-3.2,4.1
	c0.2,4.2-6.4,7.3-6.9,10c-1.2,5.9,0.8,3.3-2.2,2.9c-3-0.3-6.7,5.5-10.2,5.5c-3.5,0-4.2,1.6-4.4,4.1c-0.3,2.8-6.2-0.3-6.4,1.7
	c-0.3,2.1-2.9,1.6-5.4,0.5c-2.5-0.9-2.3,0.3-2.2-3.5c0.2-3.8-4.2-0.3-5.5,2.2c-1.5,2.8,1.5,4.7-1,3.8c-2.5-0.9-3.2,0.7-3.9-2.2
	c-0.5-2.9-1.7,0.3-3.9-1.2c-2.2-1.6,3.5-3.3,2-9.7c-1.7-6.2-4.7-11.6-7.4-10.4c-2.7,1.2-2.2,5-2.9,3.6c-0.7-1.6-7.2,2.8-7.7,1.7
	c-0.5-0.9-2.9,0.3-4,3.6c-1.2,3.3-7.5,12.6-9.2,13.8c-1.7,1.2-2.5-0.7-4.2-8.5c-1.7-7.8-4.4-8.3-5.2-8.6c-0.8-0.3-8-3.5-8.9,1
	c-0.8,4.5-5,1.7-6.4-1.2c-1.3-2.9-3.5-1.2-5.5,3.6c-2.2,4.8-2.3,6.9-2.3,6.9c-8.2,8.6-6.5-1.4-9.9,4.5c-3.4,6.1-10.2,1-11.4,2.8
	c-1,1.7-5.7,1-6.5,2.8c-0.8,1.7-9.2,6.1-9.1,9.7c0.2,3.6,17.4,10.9,16.6,10.5s-4-0.3-4.5,3.1c-0.5,3.5-2.8,0.3-3.5,0.2
	c-0.7-0.3-3,0-3.9,2.1c-1,2.1-1.3,5.4-2.3,6.1c-1,0.5-1.5,1.6-1,3.8c0.3,2.2-0.3,2.2-1,5.5c-0.7,3.3-1.7,2.8-4.5,2.8
	c-2.9,0-6.2-4.8-6.4-3.3c-0.3,1.6-2.3,3.8-2.9,4.7c-0.5,0.9-1.7,1.2-2,0.3c-0.3-0.9-2.9,1.6-3,3.8c-0.3,2.4-1.5,1.6-1.5,1.6
	s-2.9,0-3.5,2.2c-0.7,2.2-2.7,1.4-4.2,0.5c-1.7-0.9-2.2-0.3-5.2,0c-3,0.3-5.4,4.8-5.4,4.8c-0.5,0.9-1.5,1.7-2-4.7
	c-0.2-1.6-6.4-3.8-11.1,0c-1.5,1.2-1,4.5-1.5,9.2c-0.3,3.3-3.9,1.7-3.9,1.7c-3.5-1.6-6-2.1-14.4,8.8c-8.4,11.1-10.6,20.4-21.1,25.1
	c-10.1,4.5,13.1,10.9,17.1,36.5h442.5c3.9-9.2,6.4-18.7,16.1-25.6C775.6,466.4,757.5,463.3,754.6,460.2z"/>
<linearGradient id="SVGID_29_" gradientUnits="userSpaceOnUse" x1="798.7876" y1="737.9227" x2="798.7876" y2="681.7876" gradientTransform="matrix(1 0 0 -1 0 1171.8898)">
	<stop  offset="0" style="stop-color:#FFFFFF"/>
	<stop  offset="1" style="stop-color:#CCEDFF"/>
</linearGradient>
<path class="st28" d="M859.3,492.1c-0.8-6.1,1.5-13.1-0.8-15.3c-2.5-2.4-15.6-6.7-18-4.4c-2.3,2.4-10.3,6.1-13.1,3
	c-2.9-3-5.9-9.6-10.3-7.1c-4.4,2.5-11.4-0.8-16.1-6.4c-4.7-5.7-9.4-1-17.3,10.3c0,0,1.5-23.4-1.7-28.9c-3.2-5.6-14.6,8.6-14.6,8.6
	s-2.9-6.2-6.7-7.2c-3-0.7-6.4,3.7-9.6,4.5c-4,1.2-7.6,9.4-8.1,9.8c-0.7,0.3,1.7,6.2,0.2,13.5c-1.8,8.7-5.9,19.7-5,25.7h116
	C857.1,495.7,859.7,494,859.3,492.1z"/>
<linearGradient id="SVGID_30_" gradientUnits="userSpaceOnUse" x1="506.2662" y1="621.3968" x2="506.2662" y2="707.5068" gradientTransform="matrix(1 0 0 -1 0 1171.8898)">
	<stop  offset="0" style="stop-color:#FFFFFF"/>
	<stop  offset="1" style="stop-color:#CCEDFF"/>
</linearGradient>
<path class="st29" d="M316.4,489.7c3,8.6-5.9,10.5-13.1,17.8c-7,7.4-12.4,8.6,0,13c12.4,4.5,12.4,8.9,7.7,13s12.4-1.5,12.4-1.5
	s-7,9.3,7.7,16.8c14.9,7.4,30.9,17.2,34.4,5.7c3.5-11.5,6.5-16.3,12.4-13.4c5.9,2.9,16.1,4.1,18.5-1.2c2.3-5.1-7-8.9,3-11.2
	c10.1-2.2,11.2,4.5,19.6,2.9c8.4-1.5,8.4-6,10.7-7.9c2.4-1.9,12.4,0,19-3.4c6.5-3.4,10.1-2.2,13.1,1.9s10.1,6.3,16.1,6.3
	c5.9,0,13.6,7,16.6,8.6c3,1.5,14.3,4.1,16.6-2.9c2.3-7,9.6-11.5,13.1-9.3c3.5,2.2,17.8,5.1,25,11.2c7,6,18.5-1.5,22.7,2.9
	c4.2,4.5,17.3,12.2,25,13c7.7,0.7,27.9-3.3,29.7-13c1.8-9.6-7-19.7,9.6-18.2c16.6,1.5,74.4-1,79.1-9.6c4.7-8.6-4.7-24.5-14.9-28
	c-8.4-2.7-25.7-2.2-25.8-9.8H335.2c-0.2,0-0.3,0-0.5,0.2C322.3,476.6,313.4,481.1,316.4,489.7z"/>
<linearGradient id="SVGID_31_" gradientUnits="userSpaceOnUse" x1="160.9847" y1="545.0038" x2="160.9847" y2="740.7928" gradientTransform="matrix(1 0 0 -1 0 1171.8898)">
	<stop  offset="0" style="stop-color:#FFFFFF"/>
	<stop  offset="1" style="stop-color:#CCEDFF"/>
</linearGradient>
<path class="st30" d="M-2.8,605.3c5.9,5.9,15.8,7.9,18.1-2.2c2.3-10.2-7-17.4,2.9-21.8c10.1-4.3,11.2,8.6,19.3,5.9
	c8.2-2.9,8.2-11.6,10.6-15.2c2.3-3.6,12.2,0,18.8-6.6c6.4-6.6,9.9-4.3,12.9,3.6c2.9,7.9,9.9,12.3,15.8,12.3
	c5.9,0,13.4,13.8,16.4,16.6c3,2.9,14.1,7.9,16.4-5.9c2.3-13.8,9.4-22.4,12.9-18.1c3.5,4.3,17.6,10.2,24.7,21.8
	c7,11.6,18.1-2.9,22.3,5.9c1.7,3.6,11.4,5.7,15.1,10.2c5.2,6.2,5.2,14.3,9.6,15.2c3.5,0.7,9.4-18.8,15.1-22.3
	c6.9-4,13.3,7.3,14.3-3.1c1.7-18.8-7-38.3,9.4-35.4c8.2,1.4,26.5,16.6,43.4,13.6c8.2-1.4,7.5-9.5,13.8-16.1
	c3.5-3.8,9.2,3.5,13.6,0.5c3.7-2.4,6.7-15,7.2-16.9c1.5-5.4,6-15,4.7-26.1c-0.5-4.8-7.4-9.8-7.4-15c0-6.4-5.9-12.8-5.5-18.5
	c0.8-11.9,8.1-21.2,4.4-23.7c-9.9-6.6-25.7,10.4-34.4-0.7c-7.5-9.7-4.9-21.1-0.5-32.3H-12.7v186.4C-10,605.3-7.3,600.8-2.8,605.3z"
	/>
<linearGradient id="SVGID_32_" gradientUnits="userSpaceOnUse" x1="947.0508" y1="724.4297" x2="947.0508" y2="673.7714" gradientTransform="matrix(1 0 0 -1 0 1171.8898)">
	<stop  offset="0" style="stop-color:#FFFFFF"/>
	<stop  offset="1" style="stop-color:#CCEDFF"/>
</linearGradient>
<path class="st31" d="M1004.6,492.5c-11.7-1.4-14.9-8.6-22.1-13.4c-7.2-4.6-7.9-13.9-13.1-10.6c-5.2,3.3-11.1,3.3-11.7,0
	c-0.7-3.3-8.4-8.1-13.6-7.4c-5.2,0.7,0,6-9.7,0c-9.7-6-7.2,0-7.2,0c-2-3.3-14.9-20.6-19.4-9.3c-4.5,11.3-9,1.4-11.7-3.3
	c-2.5-4.6-18.3,6-23.5,9.9c-5.2,3.9-1.3,16.6,9.7,25.2c5,3.9,7,9.3,8,14.4h133.6C1020.8,493.7,1015.5,493.7,1004.6,492.5z"/>
<linearGradient id="SVGID_33_" gradientUnits="userSpaceOnUse" x1="947.7196" y1="622.8228" x2="947.7196" y2="691.28" gradientTransform="matrix(1 0 0 -1 0 1171.8898)">
	<stop  offset="0" style="stop-color:#FFFFFF"/>
	<stop  offset="1" style="stop-color:#CCEDFF"/>
</linearGradient>
<path class="st32" d="M844.9,488.8c-3.2,2.6,2.2,5.2-0.5,7.5c-5.9,5.1-18.4,9.2-18.6,12c-0.5,8.7-8,20.1-3.5,22.3
	c1.8,1,3.3,6.1,9.7,4.5c4.7-1.2,14-9.1,18.4-9.6c4-0.5,7.4,5.4,9,4c6-4.5,24.4-13.4,29.4-10.1c5,3.3,9.2,11.9,19.6,6.3
	c10.4-5.6,24.4-3.7,32.6,2.8c5.2,4,5.5,1.9,15.2-5.2c1.5-1.2,4.9,4.2,8.2,2.8c3-1.2,5.9-9.2,7.5-10.6c3.2-2.8,6-7,10.2-5.1
	c0,0,1.2,4.7-1.2,14.5c-2.3,9.6-8,19.9-5.5,23.2c2.3,3.1,5.9-4.2,13.4-7.3c3.5-1.4,11.2,3.3,14.1,1c4.3-3.5,7.4-12.7,7.4-12.7
	s4,8.2,11.9,7.9c6.2-0.2,15.2-8,22.3-10.6c9.4-3.5,19.7-17.1,21.1-17.8c1.5-0.9-1.5-8.4,4.5-19.9c1.3-2.6,3-5.4,4.5-8.2H858.4
	c-0.3,0.9-0.8,1.7-1.5,2.4C855.4,485.1,847,487,844.9,488.8z"/>
<linearGradient id="SVGID_34_" gradientUnits="userSpaceOnUse" x1="803.4635" y1="699.5198" x2="803.4635" y2="746.1448" gradientTransform="matrix(1 0 0 -1 0 1171.8898)">
	<stop  offset="0" style="stop-color:#FFFFFF"/>
	<stop  offset="1" style="stop-color:#CCEDFF"/>
</linearGradient>
<path class="st33" d="M806.2,458.2c-5.5,2.5-8.5,3.2-9.3,0c-0.8-3.2-3.2-6.1-5.5-6.1c-2.3,0-2.3-3.2-3-5.1c-0.7-1.9-4.7-2.2-6.2-1.9
	c-1.5,0.3-6.2-4.2-6.7-5.7c-0.7-1.3,1.8-3.5,2.7-6.1c0.8-2.5,6.7-9.6,11.2-7.4c4.3,2.2,7,13.8,10.2,10.6c3.2-3.2,2-8.3,3.2-7.7
	c1.2,0.3,5,2.9,5.3,3.9c0.3,1,6.2,2.5,7-0.3c0.8-2.9,5.5-2.5,7.7,1c2,3.5-2.7,13.1,0,13.8c2.7,0.7,5.7,5.1,8,9.3
	c2.3,4.2-1,15.7-9.7,15.7c-0.8,0-6.5-6.7-11.4-6.7c-4.8,0-8,6.7-8.2,3.9C800.9,466.6,806.2,458.2,806.2,458.2z"/>
<linearGradient id="SVGID_35_" gradientUnits="userSpaceOnUse" x1="1038.5498" y1="736.7808" x2="1038.5498" y2="688.9648" gradientTransform="matrix(1 0 0 -1 0 1171.8898)">
	<stop  offset="0" style="stop-color:#FFFFFF"/>
	<stop  offset="1" style="stop-color:#CCEDFF"/>
</linearGradient>
<path class="st34" d="M1035.8,449.8c5.5-2.6,8.5-3.3,9.4,0c0.8,3.3,3.2,6.2,5.5,6.2c2.3,0,2.3,3.3,2.8,5c0.7,1.9,4.7,2.3,6.2,1.9
	c1.5-0.3,6.2,4.3,6.7,5.9c0.7,1.4-1.7,3.6-2.7,6.2c-0.8,2.6-6.7,9.9-11.2,7.6c-4.3-2.3-7-14.2-10.2-10.9c-3.2,3.3-2,8.3-3.2,8
	c-1.2-0.3-5-2.9-5.3-4c-0.3-1-6.2-2.6-7,0.3c-0.8,2.9-5.5,2.6-7.7-1c-2-3.6,2.7-13.5,0-14.2c-2.7-0.7-5.7-5-7.9-9.5
	c-2.3-4.3,1-16.1,9.7-16.1c0.8,0,6.5,6.9,11.4,6.9s7.9-6.9,8.2-4C1041.2,440.9,1035.8,449.8,1035.8,449.8z"/>
<linearGradient id="SVGID_36_" gradientUnits="userSpaceOnUse" x1="685.9198" y1="744.7228" x2="685.9198" y2="792.7188" gradientTransform="matrix(1 0 0 -1 0 1171.8898)">
	<stop  offset="0" style="stop-color:#FFFFFF"/>
	<stop  offset="1" style="stop-color:#CCEDFF"/>
</linearGradient>
<path class="st35" d="M688.7,412.6c-5.5,2.6-8.5,3.3-9.3,0c-0.8-3.3-3.2-6.2-5.5-6.2c-2.3,0-2.3-3.3-3-5.2c-0.7-1.9-4.7-2.3-6.2-1.9
	c-1.5,0.3-6.2-4.3-6.7-5.9c-0.7-1.4,1.8-3.6,2.7-6.2c0.8-2.6,6.7-9.9,11.2-7.6c4.3,2.3,7,14.2,10.2,10.9c3.2-3.3,2-8.5,3.2-8
	c1.2,0.3,5,2.9,5.3,4c0.3,1,6.2,2.6,7-0.3c0.8-2.9,5.5-2.6,7.7,1c2,3.6-2.7,13.5,0,14.2c2.7,0.7,5.7,5.2,8,9.5
	c2.3,4.3-1,16.1-9.7,16.1c-0.8,0-6.5-6.9-11.4-6.9s-8,6.9-8.2,4C683.4,421.3,688.7,412.6,688.7,412.6z"/>
<linearGradient id="SVGID_37_" gradientUnits="userSpaceOnUse" x1="393.3983" y1="707.6277" x2="393.3983" y2="755.6238" gradientTransform="matrix(1 0 0 -1 0 1171.8898)">
	<stop  offset="0" style="stop-color:#FFFFFF"/>
	<stop  offset="1" style="stop-color:#CCEDFF"/>
</linearGradient>
<path class="st36" d="M396.2,449.6c-5.5,2.6-8.5,3.3-9.3,0c-0.8-3.3-3.2-6.2-5.5-6.2c-2.3,0-2.3-3.3-3-5.2c-0.7-1.9-4.7-2.3-6.2-1.9
	c-1.5,0.3-6.2-4.3-6.7-5.9c-0.7-1.4,1.8-3.6,2.7-6.2c0.8-2.6,6.7-9.9,11.2-7.6c4.3,2.3,7,14.2,10.2,10.9c3.2-3.3,2-8.5,3.2-8
	c1.2,0.3,5,2.9,5.3,4s6.2,2.6,7-0.3c0.8-2.9,5.5-2.6,7.7,1c2,3.6-2.7,13.5,0,14.2c2.7,0.7,5.7,5.2,8,9.5c2.3,4.3-1,16.1-9.7,16.1
	c-0.8,0-6.5-6.9-11.4-6.9c-4.8,0-8,6.9-8.2,4C390.8,458.4,396.2,449.6,396.2,449.6z"/>
<linearGradient id="SVGID_38_" gradientUnits="userSpaceOnUse" x1="539.6594" y1="731.3768" x2="539.6603" y2="760.3278" gradientTransform="matrix(1 0 0 -1 0 1171.8898)">
	<stop  offset="0" style="stop-color:#FFFFFF"/>
	<stop  offset="1" style="stop-color:#CCEDFF"/>
</linearGradient>
<path class="st37" d="M556.4,435.1c0,0,1.8,1.5-2.3,1.2c-4.2-0.3-1.5,0.5-3.2,1.7c-1.5,1-4.9,0.9-5.5,0c-0.7-1-2.7,0-3.7,2
	c-1.2,1.9-2.8-0.9-5.9-1.2c-3-0.3-5.4-2-9.2-0.5c-4,1.5-5.7,2.4-7.5,1.4c-1.8-1.2-0.5-4.6-4.5-4.3c-4.2,0.3-5,0.5-6.2-1.9
	c-1.2-2.4-8.7-0.9,0.2-6.3c8.9-5.5,6.2-7.7,14.1-7.3c7.9,0.2,8.7-0.5,12.6-2.6c3.7-2,5.9-3.6,7.4-1.7c1.5,1.9,6.4,0.7,10.1-1.2
	c3.5-1.9,5.4-3.4,7-1.9c1.7,1.5,3,7,8,8c5,0.9,8.2,4.3,7.2,6.5c-1,2.2-4.4,8.2-5.9,7.2c-1.7-1-4.7-3.4-4.4,0.9
	C564.7,439.2,557.6,435.8,556.4,435.1z"/>
<linearGradient id="SVGID_39_" gradientUnits="userSpaceOnUse" x1="384.0481" y1="590.1248" x2="384.0481" y2="616.1384" gradientTransform="matrix(1 0 0 -1 0 1171.8898)">
	<stop  offset="0" style="stop-color:#FFFFFF"/>
	<stop  offset="1" style="stop-color:#CCEDFF"/>
</linearGradient>
<path class="st38" d="M395.2,569.2c0,0,1.3,0.3-1,1.2c-2.4,0.9-0.7,0.7-1.3,1.7c-0.5,1-2.4,1.7-3,1.6c-0.7-0.3-1.3,0.7-1.5,2.1
	c-0.2,1.4-1.9,0.2-3.5,0.9c-1.7,0.7-3.4,0.3-5.2,2.3c-1.9,1.9-2.5,2.8-3.9,2.8c-1.3-0.2-1.5-2.4-3.5-1.2c-2.2,1.2-2.7,1.6-3.9,0.7
	c-1.2-1-4.9,1.9-1.5-3.7c3.5-5.4,1.5-5.9,5.7-7.8c4.4-1.9,4.7-2.6,6.2-4.7c1.5-2.1,2.4-3.7,3.5-3c1.3,0.7,3.7-1.4,5.2-3.3
	c1.5-1.9,2-3.3,3.4-3c1.3,0.5,3.5,3.1,6.4,2.3c2.9-0.9,5.6,0.2,5.6,1.6c0,1.4-0.3,5.7-1.3,5.6c-1.2-0.2-3.4-0.7-2.2,1.7
	C400.7,569.3,396,569.3,395.2,569.2z"/>
<linearGradient id="SVGID_40_" gradientUnits="userSpaceOnUse" x1="115.5701" y1="622.9068" x2="115.5701" y2="648.9202" gradientTransform="matrix(1 0 0 -1 0 1171.8898)">
	<stop  offset="0" style="stop-color:#FFFFFF"/>
	<stop  offset="1" style="stop-color:#CCEDFF"/>
</linearGradient>
<path class="st39" d="M126.7,536.5c0,0,1.3,0.3-1,1.2c-2.4,0.9-0.7,0.7-1.3,1.7c-0.5,1-2.4,1.7-3,1.4c-0.7-0.3-1.3,0.7-1.5,2.1
	c-0.2,1.4-1.9,0.2-3.5,0.9c-1.7,0.7-3.4,0.3-5.2,2.3c-1.9,1.9-2.5,2.8-3.9,2.8c-1.3-0.2-1.5-2.4-3.5-1.2c-2.2,1.2-2.7,1.6-3.9,0.7
	c-1.2-1-4.9,1.9-1.5-3.7c3.5-5.4,1.5-5.9,5.7-7.8c4.4-1.9,4.7-2.6,6.2-4.7c1.5-2.1,2.4-3.7,3.5-3c1.3,0.7,3.7-1.4,5.2-3.3
	c1.5-1.9,2-3.3,3.4-3c1.3,0.5,3.5,3.1,6.4,2.3c2.9-0.9,5.6,0.2,5.6,1.6c0,1.4-0.3,5.8-1.3,5.6c-1.2-0.2-3.4-0.7-2.2,1.7
	C132.1,536.5,127.5,536.5,126.7,536.5z"/>
<linearGradient id="SVGID_41_" gradientUnits="userSpaceOnUse" x1="14.0561" y1="742.2518" x2="14.0561" y2="768.2654" gradientTransform="matrix(1 0 0 -1 0 1171.8898)">
	<stop  offset="0" style="stop-color:#FFFFFF"/>
	<stop  offset="1" style="stop-color:#CCEDFF"/>
</linearGradient>
<path class="st40" d="M25,417.2c0,0,1.3,0.3-1,1.2c-2.3,0.9-0.7,0.7-1.3,1.7c-0.5,1-2.3,1.7-3,1.6c-0.7-0.3-1.3,0.7-1.5,2.1
	c-0.2,1.4-1.8,0.2-3.5,0.9c-1.7,0.7-3.4,0.3-5.2,2.3c-1.8,1.9-2.5,2.8-3.9,2.8c-1.3-0.2-1.5-2.4-3.5-1.2c-2.2,1.2-2.7,1.6-3.9,0.7
	c-1.2-1-4.9,1.9-1.5-3.7c3.5-5.4,1.5-5.9,5.9-7.8c4.4-1.9,4.7-2.6,6.2-4.7c1.5-2.1,2.3-3.7,3.5-3c1.3,0.7,3.7-1.4,5.2-3.3
	c1.5-1.9,2-3.3,3.4-3c1.3,0.5,3.4,3.1,6.4,2.3c2.8-0.9,5.5,0.2,5.5,1.6c0,1.4-0.3,5.7-1.3,5.6c-1.2-0.2-3.4-0.7-2.2,1.7
	C30.6,417.2,25.9,417.2,25,417.2z"/>
<linearGradient id="SVGID_42_" gradientUnits="userSpaceOnUse" x1="1009.1624" y1="817.3558" x2="1009.1624" y2="843.3702" gradientTransform="matrix(1 0 0 -1 0 1171.8898)">
	<stop  offset="0" style="stop-color:#FFFFFF"/>
	<stop  offset="1" style="stop-color:#CCEDFF"/>
</linearGradient>
<path class="st41" d="M1020.3,342.1c0,0,1.3,0.3-1,1.2c-2.4,0.9-0.7,0.7-1.4,1.7c-0.5,1-2.4,1.7-3,1.4c-0.7-0.3-1.4,0.7-1.5,2.1
	c-0.2,1.4-1.8,0.2-3.5,0.9c-1.7,0.7-3.4,0.3-5.2,2.3c-1.8,1.9-2.5,2.8-3.9,2.8c-1.3-0.2-1.5-2.4-3.5-1.2c-2.2,1.2-2.7,1.6-3.9,0.7
	c-1.2-1-4.9,1.9-1.5-3.7c3.5-5.4,1.5-5.9,5.7-7.8c4.4-1.9,4.7-2.6,6.2-4.7c1.5-2.1,2.4-3.7,3.5-3c1.4,0.7,3.7-1.4,5.2-3.3
	c1.5-1.9,2-3.3,3.4-3c1.3,0.5,3.5,3.1,6.4,2.3c2.9-0.9,5.6,0.2,5.6,1.6c0,1.4-0.3,5.7-1.3,5.6c-1.2-0.2-3.4-0.7-2.2,1.7
	C1025.7,342.1,1021.1,342.1,1020.3,342.1z"/>
<linearGradient id="SVGID_43_" gradientUnits="userSpaceOnUse" x1="154.9734" y1="708.9147" x2="154.9734" y2="767.9088" gradientTransform="matrix(1 0 0 -1 0 1171.8898)">
	<stop  offset="0" style="stop-color:#FFFFFF"/>
	<stop  offset="1" style="stop-color:#CCEDFF"/>
</linearGradient>
<path class="st42" d="M164.7,445.3c-5.1,6.5-8.2,9.3-11.2,6c-3.1-3.3-7.6-5.2-10.5-3.8c-2.9,1.5-4.8-2.4-6.6-4.1
	c-1.9-1.7-7,0.3-8.5,1.7c-1.5,1.4-10-1.2-11.6-2.6c-1.5-1.4-0.2-5.3-0.7-9c-0.3-2.1,5.9-4.1,7.8-7.9c1.4-2.9-2-8.1,0.8-8.3
	c6.6-0.2,17.2,12.2,19,6.4c1.9-5.9-2.5-11.2-1-11.5c1.7-0.3,7.8,0.2,8.8,1.4c1,1,9-0.9,8.2-5c-0.7-4,5.1-6.5,9.9-3.6
	c4.8,2.9,5.1,17.6,8.7,16.7c3.6-0.9,9.9,2.4,15.3,6c3.2,2.2-0.5,10.7-2,17.2c-1,4.3,0.5,7.6,0.2,7.9c-0.3,0.2-2.5,5-5.3,5.7
	c-2,0.5-4.2,3.1-6.1,2.6c-2.5-0.5-4.4-4.3-4.4-4.3s-7.3,8.3-9.5,5C163.7,458.9,164.7,445.3,164.7,445.3z"/>
<linearGradient id="SVGID_44_" gradientUnits="userSpaceOnUse" x1="568.3772" y1="781.6277" x2="568.3772" y2="840.6218" gradientTransform="matrix(1 0 0 -1 0 1171.8898)">
	<stop  offset="0" style="stop-color:#FFFFFF"/>
	<stop  offset="1" style="stop-color:#CCEDFF"/>
</linearGradient>
<path class="st43" d="M577.8,372.5c-5,6.5-8,9.3-11,6c-3-3.3-7.5-5.2-10.2-3.8c-2.8,1.5-4.7-2.4-6.5-4.1c-1.8-1.7-6.8,0.3-8.3,1.7
	c-1.5,1.4-9.9-1.2-11.4-2.6c-1.5-1.4-0.2-5.3-0.7-9c-0.3-2.1,5.8-4.1,7.7-7.9c1.3-2.9-2-8.1,0.8-8.3c6.5-0.2,16.9,12.2,18.7,6.4
	c1.8-5.9-2.5-11.2-1-11.5c1.7-0.3,7.7,0.2,8.7,1.4c1,1,8.8-0.9,8-4.8c-0.7-4,5-6.5,9.7-3.6c4.7,2.9,5,17.6,8.5,16.7
	c3.5-0.9,9.7,2.4,15,6c3.2,2.2-0.5,10.7-2,17.2c-1,4.3,0.5,7.6,0.2,7.9c-0.3,0.2-2.5,5-5.2,5.7c-2,0.5-4.2,3.1-6,2.6
	c-2.5-0.5-4.3-4.3-4.3-4.3s-7.2,8.3-9.4,5C576.8,386.3,577.8,372.5,577.8,372.5z"/>
<linearGradient id="SVGID_45_" gradientUnits="userSpaceOnUse" x1="1008.494" y1="702.0947" x2="1008.494" y2="761.0898" gradientTransform="matrix(1 0 0 -1 0 1171.8898)">
	<stop  offset="0" style="stop-color:#FFFFFF"/>
	<stop  offset="1" style="stop-color:#CCEDFF"/>
</linearGradient>
<path class="st44" d="M1018.1,452.1c-5.1,6.5-8.2,9.3-11.2,6c-3.1-3.3-7.6-5.2-10.4-3.8c-2.9,1.6-4.8-2.4-6.6-4.1
	c-1.9-1.7-7,0.3-8.5,1.7s-10-1.2-11.6-2.6c-1.5-1.4-0.2-5.3-0.7-9c-0.3-2.1,5.9-4.1,7.8-7.9c1.3-2.9-2-8.1,0.8-8.3
	c6.6-0.2,17.2,12.2,19,6.4s-2.6-11.2-1-11.5c1.7-0.3,7.8,0.2,8.8,1.4c1,1,9-0.9,8.2-5c-0.7-4,5.1-6.5,9.9-3.6
	c4.8,2.9,5.1,17.6,8.7,16.7c3.6-0.9,9.9,2.4,15.3,6c3.2,2.2-0.5,10.7-2,17.2c-1,4.3,0.5,7.6,0.2,7.9c-0.3,0.2-2.6,5-5.3,5.7
	c-2,0.5-4.3,3.1-6.3,2.6c-2.5-0.5-4.4-4.3-4.4-4.3s-7.3,8.3-9.5,5C1017.1,465.7,1018.1,452.1,1018.1,452.1z"/>
<linearGradient id="SVGID_46_" gradientUnits="userSpaceOnUse" x1="582.9584" y1="724.7888" x2="582.9584" y2="220.7767" gradientTransform="matrix(6.123234e-17 -1 -1 -6.123234e-17 672.2687 1324.5811)">
	<stop  offset="0" style="stop-color:#FFFFFF"/>
	<stop  offset="1" style="stop-color:#D9D9D9;stop-opacity:0"/>
</linearGradient>
<path class="st45" d="M-52.5,741.6L-52.5,741.6c0-3,2.5-5.5,5.5-5.5H446c3,0,5.5,2.5,5.5,5.5l0,0c0,3-2.5,5.5-5.5,5.5H-47
	C-50.1,747.1-52.5,744.6-52.5,741.6z"/>
<linearGradient id="SVGID_47_" gradientUnits="userSpaceOnUse" x1="1283.7823" y1="298.8198" x2="1283.7823" y2="-205.1921" gradientTransform="matrix(6.123234e-17 -1 -1 -6.123234e-17 947.1238 2451.374)">
	<stop  offset="0" style="stop-color:#FFFFFF"/>
	<stop  offset="1" style="stop-color:#D9D9D9;stop-opacity:0"/>
</linearGradient>
<path class="st46" d="M648.3,1167.6L648.3,1167.6c0-3,2.5-5.5,5.5-5.5h493.1c3,0,5.5,2.5,5.5,5.5l0,0c0,3-2.5,5.5-5.5,5.5H653.8
	C650.8,1173.1,648.3,1170.6,648.3,1167.6z"/>
<linearGradient id="SVGID_48_" gradientUnits="userSpaceOnUse" x1="829.6284" y1="990.5598" x2="829.6284" y2="486.5478" gradientTransform="matrix(6.123234e-17 -1 -1 -6.123234e-17 1184.7097 1305.48)">
	<stop  offset="0" style="stop-color:#FFFFFF"/>
	<stop  offset="1" style="stop-color:#D9D9D9;stop-opacity:0"/>
</linearGradient>
<path class="st47" d="M194.1,475.9L194.1,475.9c0-3,2.5-5.5,5.5-5.5h493.1c3,0,5.5,2.5,5.5,5.5l0,0c0,3-2.5,5.5-5.5,5.5H199.6
	C196.6,481.3,194.1,478.9,194.1,475.9z"/>
<linearGradient id="SVGID_49_" gradientUnits="userSpaceOnUse" x1="957.9254" y1="447.8597" x2="957.9254" y2="-56.1522" gradientTransform="matrix(6.123234e-17 -1 -1 -6.123234e-17 770.3067 1976.4771)">
	<stop  offset="0" style="stop-color:#FFFFFF"/>
	<stop  offset="1" style="stop-color:#D9D9D9;stop-opacity:0"/>
</linearGradient>
<path class="st48" d="M322.4,1018.6L322.4,1018.6c0-3,2.5-5.5,5.5-5.5H821c3,0,5.5,2.5,5.5,5.5l0,0c0,3-2.5,5.5-5.5,5.5H327.9
	C324.9,1024,322.4,1021.6,322.4,1018.6z"/>
<linearGradient id="SVGID_50_" gradientUnits="userSpaceOnUse" x1="1060.6215" y1="1343.7488" x2="1060.6215" y2="839.7368" gradientTransform="matrix(6.123234e-17 -1 -1 -6.123234e-17 1768.8918 1183.2841)">
	<stop  offset="0" style="stop-color:#FFFFFF"/>
	<stop  offset="1" style="stop-color:#D9D9D9;stop-opacity:0"/>
</linearGradient>
<path class="st49" d="M425.1,122.7L425.1,122.7c0-3,2.5-5.5,5.5-5.5h493.1c3,0,5.5,2.5,5.5,5.5l0,0c0,3-2.5,5.5-5.5,5.5H430.6
	C427.6,128.1,425.1,125.7,425.1,122.7z"/>
<linearGradient id="SVGID_51_" gradientUnits="userSpaceOnUse" x1="1219.8207" y1="1146.2457" x2="1219.8207" y2="459.0677" gradientTransform="matrix(6.123234e-17 -1 -1 -6.123234e-17 1730.6797 1540.078)">
	<stop  offset="0" style="stop-color:#FFFFFF"/>
	<stop  offset="1" style="stop-color:#D9D9D9;stop-opacity:0"/>
</linearGradient>
<path class="st50" d="M584.4,320.3L584.4,320.3c0-3,2.4-5.4,5.4-5.4h676.4c3,0,5.4,2.4,5.4,5.4l0,0c0,3-2.4,5.4-5.4,5.4H589.8
	C586.8,325.6,584.4,323.2,584.4,320.3z"/>
<linearGradient id="SVGID_52_" gradientUnits="userSpaceOnUse" x1="489.5495" y1="863.8328" x2="489.5495" y2="183.5797" gradientTransform="matrix(6.123234e-17 -1 -1 -6.123234e-17 717.9955 1092.2198)">
	<stop  offset="0" style="stop-color:#FFFFFF"/>
	<stop  offset="1" style="stop-color:#D9D9D9;stop-opacity:0"/>
</linearGradient>
<path class="st51" d="M-145.8,602.7L-145.8,602.7c0-3,2.4-5.4,5.4-5.4H529c3,0,5.4,2.4,5.4,5.4l0,0c0,3-2.4,5.4-5.4,5.4h-669.5
	C-143.4,608.1-145.8,605.6-145.8,602.7z"/>
<linearGradient id="SVGID_53_" gradientUnits="userSpaceOnUse" x1="958.9547" y1="611.4318" x2="958.9547" y2="-255.0443" gradientTransform="matrix(6.123234e-17 -1 -1 -6.123234e-17 934.9998 1814.026)">
	<stop  offset="0" style="stop-color:#FFFFFF"/>
	<stop  offset="1" style="stop-color:#D9D9D9;stop-opacity:0"/>
</linearGradient>
<path class="st52" d="M323.6,855.1L323.6,855.1c0-3,2.4-5.4,5.4-5.4h855.7c3,0,5.4,2.4,5.4,5.4v0c0,3-2.4,5.4-5.4,5.4H329
	C326,860.5,323.6,858,323.6,855.1z"/>
<linearGradient id="SVGID_54_" gradientUnits="userSpaceOnUse" x1="1239.0597" y1="844.5948" x2="1239.0597" y2="193.5839" gradientTransform="matrix(6.123234e-17 -1 -1 -6.123234e-17 1448.2678 1860.968)">
	<stop  offset="0" style="stop-color:#FFFFFF"/>
	<stop  offset="1" style="stop-color:#D9D9D9;stop-opacity:0"/>
</linearGradient>
<path class="st53" d="M603.7,621.9L603.7,621.9c0-3,2.4-5.4,5.4-5.4h640.2c3,0,5.4,2.4,5.4,5.4l0,0c0,3-2.4,5.4-5.4,5.4H609.1
	C606.1,627.3,603.7,624.9,603.7,621.9z"/>
<linearGradient id="SVGID_55_" gradientUnits="userSpaceOnUse" x1="1586.9414" y1="409.3297" x2="1586.9414" y2="146.7677" gradientTransform="matrix(6.123234e-17 -1 -1 -6.123234e-17 1360.7927 2644.0232)">
	<stop  offset="0" style="stop-color:#FFFFFF"/>
	<stop  offset="1" style="stop-color:#D9D9D9;stop-opacity:0"/>
</linearGradient>
<path class="st54" d="M951.5,1057.1L951.5,1057.1c0-3,2.5-5.5,5.5-5.5h251.6c3,0,5.5,2.5,5.5,5.5l0,0c0,3-2.5,5.5-5.5,5.5H956.9
	C953.9,1062.6,951.5,1060.1,951.5,1057.1z"/>
<linearGradient id="SVGID_56_" gradientUnits="userSpaceOnUse" x1="763.8124" y1="1415.933" x2="763.8124" y2="1153.371" gradientTransform="matrix(6.123234e-17 -1 -1 -6.123234e-17 1544.267 814.2908)">
	<stop  offset="0" style="stop-color:#FFFFFF"/>
	<stop  offset="1" style="stop-color:#D9D9D9;stop-opacity:0"/>
</linearGradient>
<path class="st55" d="M128.3,50.5L128.3,50.5c0-3,2.5-5.5,5.5-5.5h251.6c3,0,5.5,2.5,5.5,5.5l0,0c0,3-2.5,5.5-5.5,5.5H133.8
	C130.8,56,128.3,53.5,128.3,50.5z"/>
<linearGradient id="SVGID_57_" gradientUnits="userSpaceOnUse" x1="664.2297" y1="501.3907" x2="664.2297" y2="-269.6653" gradientTransform="matrix(6.123234e-17 -1 -1 -6.123234e-17 530.2337 1629.342)">
	<stop  offset="0" style="stop-color:#FFFFFF"/>
	<stop  offset="1" style="stop-color:#D9D9D9;stop-opacity:0"/>
</linearGradient>
<path class="st56" d="M28.8,965.1L28.8,965.1c0-3,2.4-5.4,5.4-5.4h760.3c3,0,5.4,2.4,5.4,5.4v0c0,3-2.4,5.4-5.4,5.4H34.2
	C31.3,970.5,28.8,968.1,28.8,965.1z"/>
<linearGradient id="SVGID_58_" gradientUnits="userSpaceOnUse" x1="539.9528" y1="1055.4427" x2="539.9528" y2="375.1898" gradientTransform="matrix(6.123234e-17 -1 -1 -6.123234e-17 959.6241 950.6284)">
	<stop  offset="0" style="stop-color:#FFFFFF"/>
	<stop  offset="1" style="stop-color:#D9D9D9;stop-opacity:0"/>
</linearGradient>
<path class="st57" d="M-95.8,410.7L-95.8,410.7c0-3.2,2.6-5.8,5.8-5.8h668.7c3.2,0,5.8,2.6,5.8,5.8v0c0,3.2-2.6,5.8-5.8,5.8H-90
	C-93.2,416.4-95.8,413.9-95.8,410.7z"/>
<linearGradient id="SVGID_59_" gradientUnits="userSpaceOnUse" x1="1321.3966" y1="694.5398" x2="1321.3966" y2="190.5068" gradientTransform="matrix(6.123234e-17 -1 -1 -6.123234e-17 1380.5498 2093.3599)">
	<stop  offset="0" style="stop-color:#FFFFFF"/>
	<stop  offset="1" style="stop-color:#D9D9D9;stop-opacity:0"/>
</linearGradient>
<path class="st58" d="M686,772L686,772c0-3,2.4-5.4,5.4-5.4h493.3c3,0,5.4,2.4,5.4,5.4l0,0c0,3-2.4,5.4-5.4,5.4H691.4
	C688.4,777.3,686,774.9,686,772z"/>
<linearGradient id="SVGID_60_" gradientUnits="userSpaceOnUse" x1="705.0146" y1="315.1698" x2="705.0146" y2="-149.6182" gradientTransform="matrix(6.123234e-17 -1 -1 -6.123234e-17 384.7978 1856.348)">
	<stop  offset="0" style="stop-color:#FFFFFF"/>
	<stop  offset="1" style="stop-color:#D9D9D9;stop-opacity:0"/>
</linearGradient>
<path class="st59" d="M69.6,1151.3L69.6,1151.3c0-3,2.4-5.4,5.4-5.4h454c3,0,5.4,2.4,5.4,5.4l0,0c0,3-2.4,5.4-5.4,5.4H75
	C72,1156.7,69.6,1154.3,69.6,1151.3z"/>
<linearGradient id="SVGID_61_" gradientUnits="userSpaceOnUse" x1="705.0146" y1="1157.0188" x2="705.0146" y2="753.0228" gradientTransform="matrix(6.123234e-17 -1 -1 -6.123234e-17 1226.6467 1014.499)">
	<stop  offset="0" style="stop-color:#FFFFFF"/>
	<stop  offset="1" style="stop-color:#D9D9D9;stop-opacity:0"/>
</linearGradient>
<path class="st60" d="M69.6,309.5L69.6,309.5c0-3,2.4-5.4,5.4-5.4h393.2c3,0,5.4,2.4,5.4,5.4l0,0c0,3-2.4,5.4-5.4,5.4H75
	C72,314.9,69.6,312.5,69.6,309.5z"/>
<linearGradient id="SVGID_62_" gradientUnits="userSpaceOnUse" x1="1435.1804" y1="995.4128" x2="1435.1804" y2="732.8508" gradientTransform="matrix(6.123234e-17 -1 -1 -6.123234e-17 1795.1147 1906.179)">
	<stop  offset="0" style="stop-color:#FFFFFF"/>
	<stop  offset="1" style="stop-color:#D9D9D9;stop-opacity:0"/>
</linearGradient>
<path class="st61" d="M799.7,471L799.7,471c0-3,2.5-5.5,5.5-5.5h251.6c3,0,5.5,2.5,5.5,5.5l0,0c0,3-2.5,5.5-5.5,5.5H805.2
	C802.2,476.5,799.7,474,799.7,471z"/>
<linearGradient id="SVGID_63_" gradientUnits="userSpaceOnUse" x1="457.9997" y1="1260.1338" x2="457.9997" y2="284.3867" gradientTransform="matrix(6.123234e-17 -1 -1 -6.123234e-17 1082.7468 664.369)">
	<stop  offset="0" style="stop-color:#FFFFFF"/>
	<stop  offset="1" style="stop-color:#D9D9D9;stop-opacity:0"/>
</linearGradient>
<path class="st62" d="M-177.4,206.4L-177.4,206.4c0-3,2.4-5.4,5.4-5.4h965c3,0,5.4,2.4,5.4,5.4v0c0,3-2.4,5.4-5.4,5.4h-965
	C-175,211.8-177.4,209.3-177.4,206.4z"/>
</svg>
