<svg width="1486" height="1063" viewBox="0 0 1486 1063" fill="none" xmlns="http://www.w3.org/2000/svg">
<rect x="138.255" width="1061.7" height="1063" fill="url(#paint0_linear_0_1)"/>
<rect x="104.344" y="405.636" width="1043.44" height="3.91288" fill="url(#paint1_linear_0_1)"/>
<rect x="122.604" y="409.548" width="1120.39" height="5.21718" fill="url(#paint2_linear_0_1)"/>
<rect width="1120.39" height="3.91288" transform="matrix(-1 0 0 1 1211.69 144.777)" fill="url(#paint3_linear_0_1)"/>
<rect width="1120.39" height="3.91288" transform="matrix(-1 0 0 1 1242.99 134.342)" fill="url(#paint4_linear_0_1)"/>
<rect y="743.448" width="1043.44" height="3.91288" fill="url(#paint5_linear_0_1)"/>
<rect x="1485.59" y="564.76" width="1043.44" height="3.91297" transform="rotate(180 1485.59 564.76)" fill="url(#paint6_linear_0_1)"/>
<rect x="1296.47" y="834.749" width="1173.86" height="3.91299" transform="rotate(180 1296.47 834.749)" fill="url(#paint7_linear_0_1)"/>
<rect x="1332.99" y="593.454" width="1043.44" height="5.21727" transform="rotate(180 1332.99 593.454)" fill="url(#paint8_linear_0_1)"/>
<rect x="94" y="381.869" width="1068.57" height="4.10746" fill="url(#paint9_linear_0_1)"/>
<path d="M233.483 474.543L212.248 484.231C209.377 485.54 207.536 488.405 207.536 491.56C207.536 496.009 211.142 499.616 215.591 499.616H486.393C490.989 499.616 494.714 495.89 494.714 491.295C494.714 488.263 493.065 485.472 490.411 484.008L472.312 474.031C469.946 472.726 467.289 472.042 464.587 472.042H447.24C442.947 472.042 438.835 473.767 435.827 476.829L431.144 481.594C428.136 484.656 424.024 486.381 419.732 486.381H400.27C398.23 486.381 396.209 485.991 394.316 485.231L361.42 472.042L335.261 462.596C330.575 460.903 325.367 461.491 321.175 464.185L292.846 482.395C288.911 484.924 284.066 485.605 279.587 484.258L244.731 473.777C241.013 472.659 237.015 472.931 233.483 474.543Z" fill="url(#paint10_linear_0_1)"/>
<path d="M665.152 443.892C648.719 456.184 624.622 474.218 613.175 482.818C609.209 485.798 606.914 490.448 606.914 495.409V497.307C606.914 506.144 614.078 513.307 622.914 513.307H1105.16C1114 513.307 1121.16 506.144 1121.16 497.307V495.13C1121.16 490.328 1119.01 485.772 1115.26 482.78C1100.03 470.648 1076.72 453.151 1072.14 453.936C1065.6 455.056 1019.84 487.542 1012.21 487.542C1004.59 487.542 922.873 471.859 909.799 464.018C896.724 456.176 833.533 439.373 826.996 439.373C820.459 439.373 777.968 467.378 768.162 464.018C760.928 461.539 709.289 448.709 678.509 441.163C673.867 440.025 668.98 441.03 665.152 443.892Z" fill="url(#paint11_linear_0_1)"/>
<path d="M140.476 392.822C136.28 394.37 132.42 395.918 128.729 397.467V538.706C130.574 538.878 131.078 540.598 131.749 545.071C132.756 551.264 140.308 560.554 150.712 561.07C161.117 561.586 167.662 568.467 177.898 575.004C188.303 581.542 183.436 589.627 208.273 596.164C233.109 602.702 223.376 591.692 234.116 581.542C244.856 571.22 239.318 579.305 241.332 582.402C243.346 585.498 249.891 583.09 250.562 581.714C251.233 580.337 255.596 574.144 261.806 580.51C268.015 586.703 268.015 583.95 268.35 582.746C268.686 581.542 279.09 578.789 283.789 584.466C288.656 590.143 292.683 585.671 310.64 580.51C328.596 575.349 325.072 572.596 325.072 579.305C325.072 586.187 331.616 584.466 341.182 585.843C350.747 587.219 359.474 576.209 360.481 581.886C361.487 587.563 375.92 581.886 374.913 583.262C373.906 584.638 375.248 587.391 379.444 591.348C383.639 595.304 385.317 593.584 387.331 592.208C389.345 590.831 388.338 589.283 395.218 585.326C402.099 581.37 407.637 583.95 407.637 585.843C407.637 587.907 415.188 598.401 421.733 600.637C428.278 602.874 428.949 610.959 434.487 611.475C440.025 611.992 440.36 602.874 442.374 600.293C444.388 597.713 447.576 598.917 448.583 604.078C449.59 609.239 457.813 609.239 463.687 609.239C469.56 609.239 472.245 612.68 478.454 618.873C484.663 625.066 490.873 623.174 505.305 618.873C519.737 614.572 524.603 614.572 536.015 615.088C547.426 615.604 546.755 613.368 551.789 611.991C556.992 610.615 556.32 612.852 562.529 611.991C568.739 611.131 563.872 600.293 567.06 602.874C570.081 605.454 580.486 607.519 587.702 607.691C594.918 608.035 603.141 605.11 611.531 604.25C619.754 603.39 621.936 601.325 627.642 596.509C633.515 591.692 635.529 586.015 641.402 580.854C647.276 575.693 660.365 567.951 661.708 570.532C663.05 573.112 669.26 574.316 673.455 572.768C677.65 571.392 685.202 571.908 691.411 572.768C697.62 573.628 699.634 572.252 702.151 570.188C704.501 568.123 704.836 568.123 709.703 567.263C714.57 566.403 718.262 567.263 717.926 563.306C717.59 559.35 717.926 556.253 724.471 557.801C731.015 559.522 730.68 559.866 733.029 554.016C735.379 548.339 737.896 551.436 745.447 551.78C752.999 552.124 753.335 552.296 753.335 547.995C753.335 543.695 758.201 545.415 767.431 545.415C776.661 545.415 778.171 544.039 778.843 541.458C779.514 538.878 794.617 541.802 795.456 539.738C796.128 537.673 802.672 538.362 809.217 539.222C815.762 540.082 809.553 542.318 809.217 546.103C808.881 549.888 810.224 554.361 814.084 551.78C817.943 549.2 816.433 545.415 822.978 546.275C829.523 547.135 836.403 547.479 837.746 550.404C839.088 553.328 846.304 555.049 851.842 556.425C857.38 557.801 853.52 568.639 857.716 574.66C861.911 580.682 869.798 585.843 876.679 584.638C883.559 583.434 882.216 579.821 883.895 581.198C885.573 582.574 888.09 583.778 893.46 581.198C898.998 578.617 902.354 578.617 903.865 579.477C905.207 580.337 911.081 579.133 914.269 576.037C917.29 572.94 922.156 572.94 926.687 571.736C931.218 570.532 941.791 568.639 945.986 576.037C950.181 583.434 952.195 582.918 954.209 583.09C956.223 583.434 962.096 579.649 962.432 584.294C962.767 588.939 971.326 591.348 973.508 587.219C975.521 582.918 986.597 585.498 990.121 588.423C993.645 591.348 1008.08 600.637 1013.45 596.164C1018.99 591.52 1019.32 589.627 1019.32 589.627C1040.3 581.37 1023.85 574.488 1032.41 568.811C1040.97 563.134 1045.5 540.942 1048.19 539.222C1050.87 537.501 1054.73 539.222 1056.74 537.501C1058.76 535.781 1062.62 534.405 1062.28 530.964C1061.95 527.523 1069.16 525.803 1071.18 526.147C1073.19 526.491 1081.58 526.491 1082.92 523.051C1084.27 519.782 1090.14 522.707 1091.82 522.879C1093.5 523.223 1099.37 522.879 1101.89 520.814C1104.24 518.75 1105.41 515.653 1107.76 515.137C1110.11 514.621 1111.62 513.761 1110.44 511.524C1109.44 509.46 1111.45 509.46 1113.13 506.191C1114.81 503.095 1117.66 503.611 1124.88 503.611C1132.09 503.611 1131.42 509.46 1141.49 506.707C1143.34 506.191 1147.36 502.923 1148.71 502.235C1150.05 501.547 1153.24 501.03 1153.91 501.891C1154.58 502.751 1159.11 501.891 1159.11 501.891C1159.11 501.891 1161.12 500.514 1161.8 498.278C1162.47 496.041 1165.66 496.902 1165.66 496.902C1165.66 496.902 1168.68 496.902 1170.19 498.106C1171.53 499.31 1172.87 496.902 1174.72 494.837C1176.4 492.773 1182.27 492.085 1185.79 494.321C1202.41 505.331 1209.62 498.45 1216 495.525V392.822H140.476Z" fill="url(#paint12_linear_0_1)"/>
<path d="M1061.23 458.588C1062.4 468.277 1059.56 479.351 1062.9 483.157C1066.23 486.964 1078.74 519.838 1081.91 516.205C1085.08 512.571 1097.92 481.946 1101.76 486.791C1105.59 491.808 1112.43 502.19 1118.27 498.383C1123.94 494.404 1133.44 500.114 1139.95 509.284C1146.45 518.454 1146.78 533.853 1157.12 516.205C1157.12 516.205 1161.46 530.912 1165.96 539.909C1170.47 548.906 1185.31 526.759 1185.31 526.759C1185.31 526.759 1206.82 540.255 1211.99 518.8V441.112C1203.15 434.018 1194.15 429.174 1188.64 430.731C1181.31 432.807 1179.81 392.838 1170.13 384.36C1160.29 375.882 1148.45 382.457 1150.12 393.531C1151.79 404.431 1135.61 409.449 1133.44 406.507C1131.27 403.393 1118.6 401.49 1115.26 402.182C1111.93 402.874 1121.43 417.581 1117.93 433.672C1114.43 449.763 1092.25 414.986 1078.57 415.159C1064.73 415.332 1060.06 448.898 1061.23 458.588Z" fill="url(#paint13_linear_0_1)"/>
<path d="M833.703 506.492C825.835 516.599 820.981 520.882 816.293 515.742C811.606 510.603 804.575 507.691 800.223 509.918C795.87 512.316 792.857 506.32 790.011 503.408C787.166 500.667 779.298 504.093 776.954 506.149C774.61 508.205 761.553 504.264 759.042 502.209C756.531 500.153 758.875 493.814 758.205 488.332C757.703 485.249 767.412 481.994 770.258 475.998C772.434 471.372 767.245 463.492 771.597 463.32C781.809 462.978 797.879 482.336 800.725 473.085C803.571 463.834 796.707 455.782 799.218 455.269C801.73 454.755 811.104 455.611 812.778 457.324C814.285 459.037 826.505 455.954 825.501 449.615C824.329 443.448 833.368 439.508 840.567 444.133C847.765 448.759 848.267 471.372 853.791 470.173C859.316 468.974 869.025 473.942 877.395 479.595C882.417 483.021 876.725 496.213 874.214 506.32C872.708 512.83 875.051 518.141 874.382 518.483C873.712 518.826 870.364 526.193 866.179 527.22C862.999 528.077 859.65 532.017 856.637 531.332C852.787 530.475 849.941 524.822 849.941 524.822C849.941 524.822 838.558 537.671 835.377 532.703C832.029 527.734 833.703 506.492 833.703 506.492Z" fill="url(#paint14_linear_0_1)"/>
<path d="M338.721 563.784C336.374 560.576 330.84 564.29 327.487 560.745C324.133 557.2 319.103 555.005 315.917 556.693C312.898 558.381 310.551 554.161 308.706 552.135C306.694 550.278 300.993 552.642 299.316 554.161C297.639 555.68 288.249 552.81 286.572 551.291C284.895 549.772 273.493 541.499 272.99 537.617C272.655 535.422 292.441 537.11 294.621 532.89C296.13 529.682 292.441 524.111 295.627 523.942C302.837 523.773 314.407 537.279 316.42 530.864C318.432 524.449 313.569 518.709 315.246 518.371C317.09 518.033 323.798 518.709 324.971 519.891C326.145 521.072 334.865 518.878 334.026 514.488C333.188 510.099 339.727 507.398 344.758 510.605C349.956 513.813 350.291 529.851 354.316 528.838C358.34 527.994 365.215 531.539 371.084 535.422C374.773 537.785 418.873 538.967 417.196 546.058C416.861 547.746 412.166 558.55 405.626 560.914C401.267 562.602 395.901 552.304 390.703 552.135C382.319 552.135 373.934 561.589 369.072 562.602C368.569 562.771 366.221 568.004 363.203 568.848C361.023 569.355 358.508 572.225 356.328 571.718C353.645 571.043 351.465 567.16 351.465 567.16C351.465 567.16 343.416 576.276 341.069 572.731C338.554 569.186 338.721 563.784 338.721 563.784Z" fill="url(#paint15_linear_0_1)"/>
<path d="M218.161 489.197C218.161 489.197 210.262 497.426 222.698 506.856C235.134 516.286 248.41 528.116 253.283 517.143C258.157 506.17 261.686 501.884 266.559 505.656C271.601 509.428 280.508 512 283.533 507.028C286.389 502.227 278.323 497.255 287.902 496.398C297.481 495.54 297.481 502.399 305.379 502.056C313.11 501.713 313.782 497.255 316.303 495.883C318.655 494.34 327.73 497.598 334.116 495.198C340.502 492.797 343.695 494.34 345.711 498.798C347.896 503.256 353.946 506.513 359.492 507.199C364.869 508.056 370.919 516.115 373.44 518.001C375.961 519.887 385.876 524.001 389.068 517.315C392.261 510.628 399.32 507.199 402.344 509.942C405.201 512.686 417.805 517.486 423.519 524.516C429.233 531.374 440.492 525.545 443.685 530.517C446.878 535.489 457.633 545.09 464.523 546.805C471.413 548.691 490.403 547.319 493.428 538.06C496.453 528.802 489.731 517.658 504.687 521.43C519.644 525.202 572.412 530.688 578.126 522.801C583.671 515.086 577.285 497.941 568.547 493.14C559.808 488.511 539.138 486.796 549.053 474.795C559.136 462.793 565.018 451.992 561.993 442.905C558.968 433.818 551.91 428.674 531.239 426.274C510.569 423.874 473.094 430.217 457.129 433.818C441.164 437.418 440.492 426.445 438.139 420.445C435.619 414.444 409.235 409.986 385.876 406.9C362.516 403.642 352.097 421.988 335.292 424.045C318.487 425.931 273.282 408.957 268.744 410.157C264.207 411.358 254.124 419.587 254.124 426.274C254.292 433.132 248.914 431.932 237.151 433.132C225.387 434.332 216.648 437.59 217.993 446.334C219.505 455.249 211.103 455.764 203.54 462.107C195.978 468.451 190.937 468.794 201.692 474.966C212.447 481.138 211.775 485.596 206.901 488.854C201.524 492.283 218.161 489.197 218.161 489.197Z" fill="url(#paint16_linear_0_1)"/>
<path d="M808.327 477.976C808.327 477.976 812.168 483.254 801.311 479.678C790.454 476.103 796.801 480.019 791.79 481.892C786.946 483.765 778.26 481.041 776.924 477.976C775.588 474.911 769.909 476.273 765.566 480.7C761.223 485.127 758.55 476.273 750.533 473.378C742.515 470.484 737.838 464.184 726.146 465.546C714.453 466.908 709.442 468.1 705.099 463.673C700.756 459.246 706.936 451.073 695.745 448.86C684.554 446.816 681.881 446.646 680.211 439.665C678.541 432.514 657.661 431.322 685.055 422.808C712.449 414.295 706.769 406.803 727.482 412.762C748.194 418.722 751.201 417.36 762.559 414.635C773.917 411.911 780.599 409.017 783.438 415.146C786.111 421.276 800.142 421.446 810.999 418.892C821.689 416.338 827.87 413.614 831.043 418.892C834.217 424.171 834.551 439.835 847.079 445.624C859.773 451.414 866.288 462.822 862.112 467.93C857.936 473.038 845.074 487 841.567 482.914C838.059 478.997 831.377 470.314 829.373 482.403C827.369 494.492 810.832 480.7 808.327 477.976Z" fill="url(#paint17_linear_0_1)"/>
<path d="M426.724 295.796C417.17 295.624 415.829 297.86 414.991 301.473C414.321 305.086 398.734 301.129 398.064 303.882C397.393 306.634 390.689 305.946 383.985 304.742C377.281 303.538 383.65 300.269 383.985 295.107C384.32 289.946 382.98 283.581 378.957 287.021C375.102 290.634 376.443 295.968 369.739 294.763C363.035 293.559 355.996 293.043 354.487 289.086C353.147 285.129 345.605 282.72 339.906 280.656C334.208 278.591 338.062 263.451 333.872 255.021C329.682 246.591 321.47 239.365 314.431 241.086C307.391 242.634 308.732 247.967 307.056 245.903C305.213 243.838 302.866 242.29 297.168 245.903C291.637 249.344 288.117 249.344 286.609 248.139C285.268 246.935 279.234 248.484 276.05 252.957C272.866 257.43 267.838 257.43 263.312 258.978C258.787 260.527 247.725 263.451 243.535 252.957C239.345 242.634 237.167 243.322 234.988 242.978C232.809 242.634 226.775 247.795 226.44 241.43C226.105 235.064 217.222 231.451 215.043 237.473C212.864 243.494 201.635 239.881 198.115 235.924C194.596 231.967 188.897 234.376 183.199 240.742C177.5 247.107 177.165 249.86 177.165 249.86C155.545 261.387 172.64 271.021 163.757 279.107C154.874 287.193 150.349 318.333 147.5 320.742C144.651 323.151 140.796 320.742 138.617 323.151C136.438 325.559 132.583 327.624 132.919 332.269C133.086 334.85 130.907 336.742 128.729 337.946V424.312H518.569L524.1 416.914C522.256 418.119 483.205 296.312 426.724 295.796Z" fill="url(#paint18_linear_0_1)"/>
<path d="M1216 394.191C1214.99 393.332 1213.99 391.097 1212.98 387.315C1210.46 376.829 1209.12 374.079 1204.09 376.142C1199.05 378.204 1198.72 377.001 1197.71 368.062C1196.71 359.296 1188.82 346.403 1178.08 345.544C1167.35 344.684 1160.63 335.058 1150.06 325.947C1139.33 316.665 1139.83 303.429 1114.16 294.318C1088.49 285.036 1103.09 302.397 1092.18 316.837C1081.11 331.276 1078.26 319.587 1076.24 315.29C1074.06 310.82 1071.55 313.227 1070.87 315.29C1070.2 317.352 1069.87 327.323 1063.49 318.556C1057.12 309.789 1057.12 313.743 1056.78 315.29C1056.45 316.837 1045.71 320.962 1040.84 312.883C1035.81 304.804 1031.62 311.336 1013.16 318.556C994.705 325.775 998.228 329.729 998.228 320.103C998.228 310.476 991.517 312.883 981.451 310.82C971.552 308.757 962.66 324.4 961.486 316.493C960.479 308.414 945.547 316.493 946.554 314.43C947.56 312.367 944.037 299.991 939.843 294.318C935.648 288.645 935.984 291.052 933.803 293.115C931.622 295.178 932.796 306.007 925.582 311.508C918.535 317.181 912.831 313.571 912.831 310.648C912.831 307.898 904.945 292.943 898.234 289.849C891.523 286.583 890.852 275.409 885.148 274.55C879.444 273.69 879.108 286.583 876.927 290.192C874.746 293.802 871.558 292.255 870.552 285.036C869.545 277.816 860.988 277.816 854.949 277.816C848.909 277.816 846.056 273.003 839.681 264.236C833.306 255.469 826.93 258.219 811.998 264.236C797.066 270.252 792.033 270.252 780.289 269.393C768.545 268.533 769.216 271.799 764.015 273.862C758.646 275.925 759.317 272.659 752.941 273.862C746.566 275.065 751.599 290.364 748.244 286.754C745.056 283.145 734.318 280.394 726.936 279.879C719.554 279.535 710.998 283.488 702.441 284.692C693.885 285.895 691.704 288.645 685.664 295.521C679.624 302.397 677.443 310.305 671.403 317.524C669.222 320.103 666.202 323.197 663.014 325.775V394.191H1216Z" fill="url(#paint19_linear_0_1)"/>
<path d="M797.044 467.095C798.385 476.599 794.361 487.291 798.553 490.854C802.745 494.418 825.38 501.207 829.404 497.643C833.429 494.079 847.178 488.309 851.872 492.891C856.735 497.643 861.933 507.825 869.478 503.922C877.023 500.019 889.096 505.11 897.144 513.765C905.192 522.42 913.408 515.292 926.99 497.982C926.99 497.982 924.307 534.13 929.84 542.785C935.541 551.44 954.991 529.378 954.991 529.378C954.991 529.378 960.021 539.052 966.56 540.579C971.591 541.767 977.627 534.979 982.992 533.621C990.035 531.754 995.903 519.196 997.077 518.687C998.25 518.177 994.226 509.183 996.741 497.982C999.089 487.969 1003.62 475.92 1004.96 466.756H797.044C797.044 466.756 797.044 466.926 797.044 467.095Z" fill="url(#paint20_linear_0_1)"/>
<path d="M152.592 484.555C158.431 474.732 166.607 459.393 166.107 452.672C165.439 442.159 137.741 451.638 137.741 451.638C137.741 451.638 138.075 440.436 133.236 435.783C133.07 435.61 132.903 435.438 132.736 435.266V484.383H152.592V484.555Z" fill="url(#paint21_linear_0_1)"/>
<path d="M130.064 499.556C132.413 501.629 135.265 503.356 138.621 503.875C141.808 504.393 145.499 500.074 149.358 499.556C153.552 499.038 159.425 506.293 164.458 507.848C167.813 508.884 170.833 503.529 172.678 504.911C177.208 508.366 174.356 512.339 177.041 513.894C182.577 516.83 186.268 511.13 194.153 503.011C197.676 499.383 202.039 506.811 206.233 504.393C207.239 503.875 209.085 496.447 210.93 495.41C213.111 494.201 215.46 499.383 216.467 498.001C219.319 494.028 217.641 490.055 219.487 491.264C223.178 493.683 221.836 487.637 225.862 483.664C228.043 481.591 234.586 483.318 237.438 480.382C242.639 475.027 245.324 467.599 251.699 464.489C255.558 462.589 260.591 465.18 268.476 462.762C289.28 456.543 280.556 453.261 299.346 430.977C318.304 408.693 299.849 419.058 294.649 413.876C289.615 408.693 287.267 410.075 276.697 414.394C266.127 418.712 266.966 408.175 260.926 406.793C254.887 405.411 251.196 409.211 241.968 416.812C232.741 424.413 225.359 421.649 216.97 423.549C208.582 425.449 201.703 419.231 200.361 425.449C199.019 431.668 194.824 435.987 191.972 434.086C189.12 432.186 180.396 434.605 177.208 438.923C174.021 443.242 181.403 443.242 170.33 446.006C159.257 448.942 165.297 451.188 165.297 451.188C161.606 450.152 140.299 447.388 144.996 458.789C149.694 470.19 139.46 466.389 134.427 465.008C132.749 464.489 131.407 466.217 130.064 468.808V499.556Z" fill="url(#paint22_linear_0_1)"/>
<path d="M896.003 445.183C893.152 442.07 898.182 401.256 902.375 398.143C924.509 380.503 899.692 368.916 896.003 361.998C892.481 355.081 893.487 360.788 892.817 365.63C892.146 370.472 890.972 371.856 889.966 364.074C888.96 356.291 888.457 354.216 886.612 355.773C884.768 357.329 884.6 356.291 884.265 349.72C883.929 343.148 880.911 333.636 876.887 332.944C872.862 332.426 870.347 325.162 866.322 318.244C862.298 311.327 862.466 301.469 852.908 294.725C843.35 287.807 848.716 300.778 844.691 311.5C840.499 322.222 839.493 313.575 838.654 310.289C837.816 307.003 831.779 309.252 831.276 310.289C829.767 313.229 827.084 314.44 825.24 308.56C823.395 302.507 821.718 307.349 814.843 312.71C807.968 318.072 809.31 321.012 809.31 313.921C809.31 306.83 789.523 311.154 790.026 309.77C790.361 308.214 791.87 307.003 790.194 302.68C788.517 298.529 786.169 301.469 785.331 303.026C784.492 304.582 784.828 303.545 782.145 307.695C779.462 311.846 777.282 309.252 777.282 307.176C777.282 305.101 779.629 293.341 777.114 291.093C774.599 288.672 771.077 286.769 768.898 286.078C766.718 285.559 761.687 293.514 761.352 287.98C761.016 282.619 757.83 282.619 755.483 282.619C753.135 282.619 752.129 278.987 749.782 272.415C747.434 265.844 744.919 267.919 739.385 272.415C733.852 276.912 731.839 276.912 727.479 276.22C723.12 275.701 723.287 277.949 721.275 279.506C719.263 281.062 719.598 278.641 717.083 279.506C714.735 280.371 716.58 291.785 715.406 289.018C714.232 286.251 710.208 284.175 707.357 284.002C704.507 283.656 701.321 286.769 698.135 287.634C694.949 288.499 694.11 290.574 691.93 295.762C689.583 300.778 686.732 305.966 684.384 311.327C682.037 316.688 677.006 318.763 676.503 315.996C676 313.229 669.628 321.357 667.281 320.493C664.933 319.628 662.082 325.335 660.238 326.2C658.393 327.064 656.884 326.2 657.052 330.35C657.22 334.501 650.68 337.614 650.177 340.381C649.003 346.261 651.015 343.667 647.997 343.321C644.979 342.975 641.29 348.855 637.768 348.855C634.247 348.855 633.576 350.411 633.408 353.005C633.073 355.773 627.204 352.66 627.036 354.735C626.701 356.81 624.186 356.291 621.67 355.254C619.155 354.389 619.323 355.6 619.49 351.795C619.658 347.99 615.298 351.449 613.957 354.043C612.448 356.81 615.466 358.713 612.951 357.848C610.435 356.983 609.765 358.54 609.094 355.6C608.591 352.66 607.417 355.945 605.237 354.389C603.057 352.833 608.759 351.103 607.249 344.704C605.573 338.479 602.554 333.117 599.871 334.328C597.188 335.539 597.691 339.343 597.021 337.96C596.35 336.403 589.81 340.727 589.307 339.689C588.804 338.824 586.457 340.035 585.283 343.321C584.109 346.607 577.737 355.945 576.06 357.156C574.383 358.367 573.545 356.464 571.868 348.682C570.191 340.9 567.508 340.381 566.67 340.035C565.831 339.689 558.621 336.576 557.782 341.073C556.944 345.569 552.752 342.802 551.41 339.862C550.069 336.922 547.889 338.651 545.877 343.494C543.697 348.336 543.529 350.411 543.529 350.411C535.313 359.058 536.99 349.028 533.636 354.908C530.282 360.961 523.407 355.945 522.233 357.675C521.227 359.404 516.532 358.713 515.694 360.442C514.855 362.171 506.471 366.495 506.639 370.127C506.806 373.758 524.078 381.022 523.239 380.676C522.401 380.33 519.215 380.33 518.712 383.789C518.209 387.248 515.861 384.135 515.191 383.962C514.52 383.616 512.172 383.962 511.334 386.037C510.328 388.112 509.992 391.398 508.986 392.09C507.98 392.609 507.477 393.646 507.98 395.895C508.315 398.143 507.645 398.143 506.974 401.429C506.303 404.715 505.297 404.196 502.447 404.196C499.596 404.196 496.242 399.353 496.075 400.91C495.739 402.466 493.727 404.715 493.224 405.579C492.721 406.444 491.547 406.79 491.212 405.925C490.876 405.061 488.361 407.482 488.193 409.73C487.858 412.151 486.684 411.286 486.684 411.286C486.684 411.286 483.834 411.286 483.163 413.535C482.492 415.783 480.48 414.918 478.971 414.053C477.294 413.189 476.791 413.708 473.772 414.053C470.754 414.399 468.407 418.896 468.407 418.896C467.903 419.76 466.897 420.625 466.394 414.226C466.227 412.67 460.022 410.422 455.327 414.226C453.818 415.437 454.321 418.723 453.818 423.392C453.483 426.678 449.961 425.122 449.961 425.122C446.44 423.565 443.925 423.046 435.54 433.942C427.156 445.01 424.976 454.348 414.412 459.018C404.351 463.514 427.491 469.913 431.516 495.508H874.036C877.893 486.342 880.408 476.831 890.134 469.913C916.963 451.409 898.853 448.296 896.003 445.183Z" fill="url(#paint23_linear_0_1)"/>
<path d="M1000.71 477.13C999.87 471.073 1002.22 464.008 999.87 461.821C997.348 459.466 984.237 455.092 981.883 457.447C979.53 459.802 971.63 463.503 968.772 460.475C965.914 457.447 962.889 450.886 958.518 453.409C954.148 455.933 947.088 452.568 942.381 447.017C937.674 441.297 932.968 446.007 925.067 457.279C925.067 457.279 926.58 433.895 923.386 428.343C920.193 422.791 908.762 436.923 908.762 436.923C908.762 436.923 905.904 430.698 902.038 429.689C899.013 429.016 895.651 433.39 892.457 434.231C888.423 435.409 884.893 443.652 884.388 443.988C883.716 444.325 886.069 450.213 884.556 457.447C882.707 466.195 878.673 477.13 879.514 483.186H995.499C998.525 480.662 1001.05 478.98 1000.71 477.13Z" fill="url(#paint24_linear_0_1)"/>
<path d="M457.806 474.668C460.827 483.246 451.931 485.133 444.714 492.51C437.664 499.887 432.293 501.088 444.714 505.548C457.135 510.009 457.135 514.47 452.435 518.587C447.735 522.704 464.856 517.043 464.856 517.043C464.856 517.043 457.806 526.307 472.577 533.856C487.515 541.233 503.461 551.012 506.986 539.517C510.511 528.023 513.532 523.219 519.407 526.136C525.281 529.052 535.52 530.253 537.87 524.935C540.22 519.788 530.82 516.014 540.891 513.783C550.962 511.553 552.137 518.244 560.53 516.7C568.922 515.156 568.922 510.695 571.272 508.808C573.622 506.921 583.693 508.808 590.239 505.377C596.785 501.946 600.31 503.147 603.331 507.264C606.352 511.381 613.402 513.612 619.445 513.612C625.319 513.612 633.04 520.646 636.062 522.19C639.083 523.734 650.329 526.307 652.679 519.273C655.029 512.239 662.246 507.779 665.771 510.009C669.296 512.239 683.563 515.156 690.781 521.16C697.83 527.165 709.244 519.616 713.44 524.077C717.636 528.537 730.729 536.258 738.45 537.115C746.171 537.802 766.313 533.856 768.159 524.077C770.005 514.47 761.109 504.347 777.726 505.892C794.344 507.436 852.084 504.862 856.783 496.284C861.483 487.706 852.084 471.751 841.845 468.32C833.452 465.575 816.164 466.09 815.996 458.541H476.605C476.437 458.541 476.269 458.541 476.102 458.713C463.681 461.629 454.785 466.09 457.806 474.668Z" fill="url(#paint25_linear_0_1)"/>
<path d="M138.625 590.289C144.495 596.158 154.392 598.23 156.74 588.044C159.088 577.859 149.695 570.608 159.591 566.292C169.655 561.976 170.83 574.924 178.881 572.162C187.1 569.227 187.1 560.595 189.448 556.97C191.796 553.344 201.693 556.97 208.234 550.409C214.608 543.849 218.13 546.093 221.15 554.035C224.001 561.976 231.046 566.292 236.917 566.292C242.787 566.292 250.335 580.103 253.354 582.865C256.374 585.8 267.444 590.807 269.792 576.996C272.141 563.185 279.185 554.553 282.708 558.869C286.23 563.185 300.32 569.054 307.365 580.621C314.409 592.188 325.48 577.686 329.673 586.491C331.35 590.116 341.079 592.188 344.769 596.676C349.969 602.891 349.969 611.005 354.33 611.868C357.852 612.559 363.723 593.051 369.426 589.598C376.303 585.627 382.677 596.849 383.683 586.491C385.361 567.673 376.638 548.165 393.076 551.1C401.295 552.481 419.578 567.673 436.519 564.738C444.738 563.357 444.067 555.243 450.273 548.683C453.796 544.885 459.499 552.136 463.86 549.201C467.55 546.784 470.569 534.181 471.072 532.282C472.582 526.931 477.111 517.263 475.769 506.214C475.266 501.38 468.389 496.374 468.389 491.195C468.389 484.807 462.518 478.42 462.853 472.722C463.692 460.81 470.905 451.488 467.214 449.071C457.318 442.511 441.551 459.429 432.829 448.381C425.281 438.713 427.965 427.319 432.326 416.097H128.729V602.546C131.412 590.289 134.096 585.8 138.625 590.289Z" fill="url(#paint26_linear_0_1)"/>
<path d="M1145.97 477.532C1134.24 476.161 1131.06 468.966 1123.85 464.169C1116.64 459.543 1115.97 450.291 1110.78 453.546C1105.58 456.802 1099.72 456.802 1099.05 453.546C1098.38 450.291 1090.67 445.494 1085.47 446.179C1080.28 446.865 1085.47 452.176 1075.76 446.179C1066.04 440.183 1068.55 446.179 1068.55 446.179C1066.54 442.924 1053.63 425.62 1049.11 436.928C1044.59 448.235 1040.06 438.298 1037.38 433.672C1034.87 429.047 1019.11 439.669 1013.92 443.609C1008.72 447.55 1012.58 460.228 1023.64 468.794C1028.67 472.735 1030.68 478.046 1031.68 483.186H1165.24C1162.23 478.731 1156.86 478.731 1145.97 477.532Z" fill="url(#paint27_linear_0_1)"/>
<path d="M986.243 473.761C983.063 476.378 988.418 478.995 985.741 481.263C979.884 486.322 967.333 490.51 967.166 493.301C966.664 502.024 959.134 513.364 963.652 515.632C965.493 516.679 966.999 521.738 973.358 520.168C978.043 518.947 987.414 511.096 991.765 510.573C995.781 510.049 999.128 515.981 1000.8 514.585C1006.83 510.049 1025.23 501.152 1030.25 504.467C1035.27 507.781 1039.46 516.33 1049.83 510.747C1060.21 505.164 1074.26 507.083 1082.46 513.539C1087.65 517.551 1087.99 515.458 1097.69 508.305C1099.2 507.083 1102.54 512.492 1105.89 511.096C1108.9 509.875 1111.75 501.85 1113.42 500.454C1116.6 497.662 1119.45 493.475 1123.63 495.394C1123.63 495.394 1124.8 500.105 1122.46 509.875C1120.11 519.47 1114.42 529.764 1116.93 533.078C1119.28 536.219 1122.79 528.891 1130.32 525.751C1133.84 524.355 1141.53 529.066 1144.38 526.798C1148.73 523.309 1151.74 514.062 1151.74 514.062C1151.74 514.062 1155.76 522.262 1163.62 521.913C1169.81 521.738 1178.85 513.888 1185.88 511.271C1195.25 507.781 1205.63 494.173 1206.96 493.475C1208.47 492.603 1205.46 485.101 1211.48 473.587C1212.82 470.97 1214.49 468.178 1216 465.387H999.797C999.463 466.259 998.961 467.131 998.291 467.829C996.785 470.097 988.418 472.016 986.243 473.761Z" fill="url(#paint28_linear_0_1)"/>
<path d="M947.632 443.196C942.122 445.722 939.117 446.396 938.282 443.196C937.448 439.997 935.11 437.135 932.773 437.135C930.435 437.135 930.435 433.935 929.768 432.083C929.1 430.231 925.093 429.894 923.59 430.231C922.087 430.568 917.413 426.021 916.912 424.506C916.244 423.159 918.748 420.97 919.583 418.444C920.418 415.918 926.261 408.846 930.769 411.035C935.11 413.224 937.782 424.843 940.954 421.643C944.126 418.444 942.957 413.393 944.126 413.898C945.295 414.235 949.135 416.76 949.469 417.771C949.803 418.781 955.646 420.296 956.481 417.434C957.316 414.571 961.991 414.908 964.161 418.444C966.164 421.98 961.49 431.578 964.161 432.251C966.832 432.925 969.838 437.303 972.175 441.512C974.512 445.722 971.173 457.172 962.491 457.172C961.657 457.172 955.98 450.437 951.138 450.437C946.296 450.437 943.124 457.172 942.957 454.31C942.289 451.615 947.632 443.196 947.632 443.196Z" fill="url(#paint29_linear_0_1)"/>
<path d="M1177.23 434.765C1182.75 432.165 1185.77 431.472 1186.6 434.765C1187.44 438.058 1189.78 441.005 1192.13 441.005C1194.47 441.005 1194.47 444.298 1194.97 446.032C1195.64 447.938 1199.66 448.285 1201.17 447.938C1202.68 447.592 1207.36 452.272 1207.87 453.832C1208.54 455.218 1206.19 457.472 1205.19 460.072C1204.35 462.672 1198.49 469.952 1193.97 467.698C1189.62 465.445 1186.94 453.485 1183.76 456.778C1180.57 460.072 1181.75 465.098 1180.57 464.752C1179.4 464.405 1175.55 461.805 1175.22 460.765C1174.88 459.725 1169.02 458.165 1168.18 461.112C1167.35 464.058 1162.66 463.712 1160.48 460.072C1158.47 456.432 1163.16 446.552 1160.48 445.858C1157.8 445.165 1154.79 440.832 1152.61 436.325C1150.27 431.992 1153.62 420.205 1162.32 420.205C1163.16 420.205 1168.85 427.138 1173.71 427.138C1178.57 427.138 1181.58 420.205 1181.91 423.152C1182.58 425.925 1177.23 434.765 1177.23 434.765Z" fill="url(#paint30_linear_0_1)"/>
<path d="M830.089 397.603C824.58 400.203 821.574 400.897 820.739 397.603C819.905 394.31 817.567 391.363 815.23 391.363C812.892 391.363 812.892 388.07 812.225 386.163C811.557 384.256 807.55 383.91 806.047 384.256C804.544 384.603 799.87 379.923 799.369 378.363C798.701 376.976 801.205 374.723 802.04 372.123C802.875 369.523 808.718 362.243 813.226 364.496C817.567 366.75 820.239 378.71 823.411 375.416C826.583 372.123 825.414 366.923 826.583 367.443C827.752 367.79 831.592 370.39 831.926 371.43C832.26 372.47 838.103 374.03 838.938 371.083C839.773 368.136 844.448 368.483 846.618 372.123C848.622 375.763 843.947 385.643 846.618 386.336C849.289 387.03 852.295 391.537 854.632 395.87C856.969 400.203 853.63 411.99 844.948 411.99C844.114 411.99 838.437 405.057 833.595 405.057C828.753 405.057 825.581 411.99 825.414 409.043C824.746 406.27 830.089 397.603 830.089 397.603Z" fill="url(#paint31_linear_0_1)"/>
<path d="M537.568 434.57C532.058 437.17 529.053 437.864 528.218 434.57C527.384 431.277 525.046 428.33 522.709 428.33C520.371 428.33 520.371 425.037 519.704 423.13C519.036 421.224 515.029 420.877 513.526 421.224C512.023 421.57 507.349 416.89 506.848 415.33C506.18 413.944 508.684 411.69 509.519 409.09C510.354 406.49 516.197 399.21 520.705 401.463C525.046 403.717 527.718 415.677 530.89 412.384C534.062 409.09 532.893 403.89 534.062 404.41C535.231 404.757 539.071 407.357 539.405 408.397C539.739 409.437 545.582 410.997 546.417 408.05C547.252 405.103 551.927 405.45 554.097 409.09C556.101 412.73 551.426 422.61 554.097 423.304C556.768 423.997 559.774 428.504 562.111 432.837C564.448 437.17 561.109 448.957 552.427 448.957C551.593 448.957 545.916 442.024 541.074 442.024C536.232 442.024 533.06 448.957 532.893 446.01C532.225 443.41 537.568 434.57 537.568 434.57Z" fill="url(#paint32_linear_0_1)"/>
<path d="M697.83 420.08C697.83 420.08 699.673 421.616 695.485 421.274C691.297 420.933 693.977 421.786 692.302 422.981C690.794 424.005 687.444 423.834 686.774 422.981C686.104 421.957 684.093 422.981 683.088 425.028C681.916 426.905 680.24 424.175 677.225 423.834C674.21 423.493 671.864 421.786 668.011 423.322C663.991 424.858 662.315 425.711 660.473 424.687C658.63 423.493 659.97 420.08 655.95 420.421C651.762 420.763 650.924 420.933 649.751 418.544C648.579 416.156 641.04 417.691 649.919 412.231C658.798 406.771 656.117 404.553 663.991 404.894C671.864 405.065 672.702 404.382 676.555 402.335C680.24 400.287 682.418 398.752 683.926 400.628C685.433 402.505 690.292 401.311 693.977 399.434C697.495 397.557 699.338 396.021 701.013 397.557C702.688 399.093 704.028 404.553 709.054 405.577C714.08 406.43 717.263 409.842 716.258 412.061C715.252 414.279 711.902 420.251 710.394 419.227C708.719 418.203 705.704 415.814 706.039 420.08C706.039 424.175 699.003 420.763 697.83 420.08Z" fill="url(#paint33_linear_0_1)"/>
<path d="M536.562 554.159C536.562 554.159 537.908 554.508 535.552 555.379C533.195 556.25 534.878 556.076 534.205 557.121C533.7 558.167 531.849 558.864 531.175 558.69C530.502 558.341 529.829 559.386 529.661 560.78C529.492 562.174 527.809 560.954 526.126 561.651C524.443 562.348 522.76 562 520.908 563.916C519.057 565.833 518.383 566.704 517.037 566.704C515.69 566.53 515.522 564.265 513.502 565.484C511.314 566.704 510.809 567.053 509.631 566.181C508.453 565.136 504.75 568.098 508.116 562.523C511.651 557.121 509.631 556.599 513.839 554.682C518.215 552.766 518.552 552.069 520.066 549.978C521.581 547.887 522.423 546.319 523.601 547.016C524.948 547.713 527.304 545.622 528.819 543.706C530.334 541.789 530.839 540.395 532.185 540.744C533.532 541.266 535.72 543.88 538.581 543.009C541.443 542.138 544.136 543.183 544.136 544.577C544.136 545.971 543.799 550.326 542.789 550.152C541.611 549.978 539.423 549.455 540.601 551.894C542.116 554.334 537.403 554.334 536.562 554.159Z" fill="url(#paint34_linear_0_1)"/>
<path d="M268.083 521.474C268.083 521.474 269.43 521.823 267.073 522.694C264.717 523.565 266.4 523.391 265.727 524.436C265.222 525.482 263.37 526.178 262.697 525.83C262.024 525.482 261.35 526.527 261.182 527.921C261.014 529.315 259.331 528.095 257.647 528.792C255.964 529.489 254.281 529.14 252.43 531.057C250.578 532.973 249.905 533.845 248.558 533.845C247.212 533.67 247.043 531.405 245.024 532.625C242.835 533.845 242.33 534.193 241.152 533.322C239.974 532.277 236.271 535.238 239.637 529.663C243.172 524.262 241.152 523.739 245.36 521.823C249.736 519.906 250.073 519.209 251.588 517.118C253.103 515.028 253.944 513.46 255.123 514.157C256.469 514.853 258.826 512.763 260.34 510.846C261.855 508.93 262.36 507.536 263.707 507.884C265.053 508.407 267.241 511.02 270.103 510.149C272.964 509.278 275.657 510.323 275.657 511.717C275.657 513.111 275.321 517.467 274.311 517.293C273.133 517.118 270.944 516.596 272.123 519.035C273.469 521.474 268.925 521.474 268.083 521.474Z" fill="url(#paint35_linear_0_1)"/>
<path d="M166.435 402.184C166.435 402.184 167.775 402.532 165.429 403.403C163.083 404.274 164.759 404.1 164.089 405.145C163.586 406.191 161.743 406.888 161.073 406.714C160.402 406.365 159.732 407.41 159.565 408.804C159.397 410.198 157.721 408.979 156.046 409.675C154.37 410.372 152.695 410.024 150.851 411.94C149.008 413.857 148.338 414.728 146.997 414.728C145.657 414.554 145.489 412.289 143.479 413.509C141.3 414.728 140.798 415.077 139.625 414.205C138.452 413.16 134.765 416.122 138.117 410.547C141.635 405.145 139.625 404.623 143.981 402.706C148.338 400.79 148.673 400.093 150.181 398.002C151.689 395.911 152.527 394.343 153.7 395.04C155.04 395.737 157.386 393.646 158.894 391.73C160.402 389.813 160.905 388.419 162.246 388.768C163.586 389.29 165.597 391.904 168.613 391.033C171.462 390.162 174.143 391.207 174.143 392.601C174.143 393.995 173.808 398.35 172.802 398.176C171.629 398.002 169.451 397.479 170.624 399.919C171.964 402.184 167.273 402.184 166.435 402.184Z" fill="url(#paint36_linear_0_1)"/>
<path d="M1161.68 327.054C1161.68 327.054 1163.02 327.403 1160.67 328.274C1158.31 329.145 1159.99 328.971 1159.32 330.016C1158.81 331.062 1156.96 331.759 1156.29 331.41C1155.62 331.062 1154.94 332.107 1154.77 333.501C1154.61 334.895 1152.92 333.675 1151.24 334.372C1149.56 335.069 1147.87 334.721 1146.02 336.637C1144.17 338.554 1143.5 339.425 1142.15 339.425C1140.8 339.251 1140.64 336.986 1138.62 338.205C1136.43 339.425 1135.92 339.773 1134.74 338.902C1133.57 337.857 1129.86 340.819 1133.23 335.243C1136.76 329.842 1134.74 329.319 1138.95 327.403C1143.33 325.486 1143.67 324.789 1145.18 322.699C1146.7 320.608 1147.54 319.04 1148.71 319.737C1150.06 320.434 1152.42 318.343 1153.93 316.426C1155.45 314.51 1155.95 313.116 1157.3 313.465C1158.65 313.987 1160.83 316.601 1163.7 315.73C1166.56 314.858 1169.25 315.904 1169.25 317.298C1169.25 318.691 1168.91 323.047 1167.9 322.873C1166.72 322.699 1164.54 322.176 1165.71 324.615C1167.06 327.054 1162.52 327.054 1161.68 327.054Z" fill="url(#paint37_linear_0_1)"/>
<path d="M306.122 430.284C301.026 436.83 297.968 439.586 294.911 436.313C291.853 433.04 287.267 431.145 284.379 432.523C281.491 434.074 279.623 430.111 277.754 428.389C275.886 426.666 270.79 428.733 269.261 430.111C267.732 431.49 259.239 428.906 257.71 427.527C256.181 426.149 257.54 422.187 257.031 418.57C256.691 416.502 262.976 414.435 264.845 410.645C266.203 407.717 262.806 402.549 265.694 402.376C272.319 402.204 282.85 414.607 284.719 408.75C286.587 402.893 282.171 397.553 283.7 397.208C285.398 396.864 291.513 397.381 292.533 398.587C293.552 399.62 301.536 397.725 300.686 393.591C300.007 389.629 305.782 387.045 310.538 389.973C315.295 392.902 315.634 407.544 319.202 406.683C322.769 405.822 329.054 409.095 334.489 412.712C337.717 414.952 333.98 423.393 332.451 429.939C331.432 434.246 332.961 437.519 332.621 437.863C332.281 438.036 330.073 442.859 327.355 443.548C325.317 444.065 323.108 446.649 321.24 446.132C318.692 445.615 316.823 441.826 316.823 441.826C316.823 441.826 309.519 450.094 307.311 446.821C305.103 443.893 306.122 430.284 306.122 430.284Z" fill="url(#paint38_linear_0_1)"/>
<path d="M719.193 357.546C714.183 364.093 711.178 366.849 708.172 363.576C705.166 360.303 700.657 358.408 697.986 359.786C695.147 361.336 693.31 357.374 691.473 355.652C689.636 353.929 684.627 355.996 683.124 357.374C681.621 358.752 673.272 356.168 671.769 354.79C670.266 353.412 671.602 349.45 671.101 345.832C670.767 343.765 676.945 341.698 678.782 337.908C680.118 334.979 676.778 329.811 679.617 329.639C686.13 329.467 696.483 341.87 698.32 336.013C700.156 330.156 695.815 324.816 697.318 324.471C698.988 324.127 704.999 324.643 706.001 325.849C707.003 326.883 714.851 324.988 714.016 321.026C713.348 317.064 719.026 314.48 723.701 317.408C728.377 320.337 728.711 334.979 732.218 334.118C735.725 333.257 741.903 336.53 747.247 340.147C750.419 342.387 746.746 350.828 745.243 357.374C744.241 361.681 745.744 364.954 745.41 365.299C745.076 365.471 742.905 370.294 740.233 370.983C738.229 371.5 736.059 374.084 734.222 373.567C731.717 373.051 729.88 369.261 729.88 369.261C729.88 369.261 722.7 377.529 720.529 374.256C718.191 371.328 719.193 357.546 719.193 357.546Z" fill="url(#paint39_linear_0_1)"/>
<path d="M1159.47 437.13C1154.38 443.676 1151.32 446.432 1148.26 443.159C1145.2 439.886 1140.62 437.991 1137.9 439.369C1135.01 440.92 1133.14 436.957 1131.28 435.235C1129.41 433.512 1124.31 435.579 1122.78 436.957C1121.25 438.336 1112.76 435.751 1111.23 434.373C1109.7 432.995 1111.06 429.033 1110.55 425.415C1110.21 423.348 1116.5 421.281 1118.37 417.491C1119.72 414.563 1116.33 409.395 1119.22 409.222C1125.84 409.05 1136.37 421.453 1138.24 415.596C1140.11 409.739 1135.69 404.399 1137.22 404.054C1138.92 403.71 1145.03 404.227 1146.05 405.432C1147.07 406.466 1155.06 404.571 1154.21 400.437C1153.53 396.475 1159.3 393.891 1164.06 396.819C1168.82 399.748 1169.16 414.39 1172.72 413.529C1176.29 412.668 1182.58 415.941 1188.01 419.558C1191.24 421.798 1187.5 430.239 1185.97 436.785C1184.95 441.092 1186.48 444.365 1186.14 444.709C1185.8 444.882 1183.59 449.705 1180.88 450.394C1178.84 450.911 1176.63 453.495 1174.59 452.978C1172.04 452.461 1170.18 448.672 1170.18 448.672C1170.18 448.672 1162.87 456.94 1160.66 453.667C1158.45 450.739 1159.47 437.13 1159.47 437.13Z" fill="url(#paint40_linear_0_1)"/>
<path d="M223.565 505.841C224.264 505.143 227.757 503.745 234.394 501.649C241.73 498.855 245.573 497.458 245.573 497.458C284.347 484.183 326.615 479.991 326.615 479.991C369.233 475.8 377.617 483.135 439.447 483.135C483.811 483.135 510.709 483.135 547.388 475.8C569.046 471.258 602.231 464.621 640.308 445.059C674.541 427.593 679.082 416.764 709.823 407.332C718.905 404.538 744.755 396.853 778.29 399.298C810.079 401.394 813.222 410.476 841.867 410.476C855.141 410.476 879.245 410.476 903.348 395.805C938.28 374.496 947.712 338.516 949.109 332.926C951.554 323.145 955.746 305.679 948.411 285.419C939.328 259.918 918.718 248.041 914.526 245.945C906.492 241.404 887.279 231.273 866.32 239.308C850.251 245.596 842.216 258.87 839.771 264.11C836.627 270.398 828.942 285.768 836.627 297.994C841.168 305.33 850.251 309.871 858.984 309.871C860.381 309.871 868.765 309.522 874.354 303.234C877.149 300.09 879.594 294.85 878.197 293.453C876.45 291.357 869.463 296.248 868.415 294.85C867.367 293.453 871.559 285.069 877.498 285.069C883.087 285.069 887.279 291.357 887.978 296.946C889.026 304.981 882.388 310.919 879.943 313.015C869.114 322.796 854.093 320.7 851.648 320.351C836.627 318.255 827.545 307.775 825.798 305.679C814.27 291.357 816.716 274.59 817.065 271.096C819.86 250.486 835.579 238.609 841.867 234.068C861.429 219.396 883.087 219.396 893.567 219.396C901.601 219.396 928.499 219.746 953.301 238.609C973.212 253.63 981.247 271.795 985.439 281.227C989.281 289.96 998.014 311.268 994.172 338.516C990.679 361.222 980.199 376.592 971.466 389.167C966.226 396.503 952.253 415.017 928.15 430.388C906.841 444.011 888.676 448.902 869.463 453.792C849.552 459.032 836.976 462.176 820.209 460.429C803.092 458.683 801.695 454.142 777.591 449.95C768.16 448.203 752.44 445.408 732.529 446.806C707.028 448.552 688.165 456.237 676.986 461.128C653.582 470.909 654.979 475.45 628.431 488.375C600.834 501.649 577.779 507.239 571.84 508.636C549.134 512.478 531.668 513.177 507.215 513.876C483.112 514.574 465.646 513.876 444.337 512.478C388.795 509.335 382.158 505.143 353.164 508.287C340.938 509.684 330.109 511.431 308.8 515.622C308.8 515.622 283.649 520.513 254.655 527.499C245.573 529.595 240.682 530.993 239.285 531.342C229.853 534.137 228.106 535.883 225.661 534.835C218.325 531.691 216.229 512.478 223.565 505.841Z" fill="url(#paint41_linear_0_1)"/>
<path d="M228.107 578.152C229.504 575.008 232.997 574.309 259.895 568.021C280.156 563.131 275.964 563.829 280.855 562.781C280.855 562.781 310.547 556.494 338.842 553.35C384.603 548.808 455.167 561.733 538.655 566.973C591.053 570.117 617.951 571.514 652.185 564.528C680.829 558.59 685.72 553 752.091 526.452C816.716 500.602 849.902 487.328 894.964 478.245C965.528 464.272 995.22 474.053 1008.49 479.643C1022.47 485.581 1058.8 500.253 1062.64 530.294C1068.23 571.864 1007.1 605.049 1003.6 601.906C1000.81 599.111 1035.39 573.261 1029.45 543.918C1024.91 522.26 1000.11 508.287 982.644 503.396C964.829 498.157 949.808 500.602 921.164 508.287C868.765 521.911 842.217 528.897 800.298 548.808C751.043 572.213 756.632 577.453 720.303 592.125C710.173 595.967 670.35 611.337 615.506 615.529C580.224 618.324 554.374 614.831 501.976 608.193C443.988 600.508 405.213 591.077 363.993 592.125C350.37 592.474 327.314 594.22 305.307 598.412C295.526 600.159 289.937 601.207 281.902 603.652C266.183 608.193 264.087 610.988 258.149 610.639C240.682 609.241 223.915 587.583 228.107 578.152Z" fill="url(#paint42_linear_0_1)"/>
<path d="M252.909 425.497C278.06 409.777 306.356 404.538 341.987 404.188C396.132 404.188 398.228 416.415 450.626 417.812C479.969 418.51 510.36 419.558 545.642 406.284C582.321 392.311 586.163 377.64 628.431 362.968C664.062 350.742 692.707 353.187 698.296 352.139C694.803 355.632 674.542 359.126 642.404 376.941C608.869 395.804 608.52 406.633 578.129 424.449C570.444 428.99 541.799 445.059 501.278 451.696C462.503 457.984 431.064 452.045 411.502 448.203C375.172 441.216 375.871 434.23 343.034 430.737C326.616 428.292 301.116 425.846 270.725 433.531C246.272 439.819 234.395 447.854 228.457 447.155C232.998 444.36 239.984 433.182 252.909 425.497Z" fill="url(#paint43_linear_0_1)"/>
<path d="M299.718 620.769C303.56 619.022 345.13 608.542 397.179 614.481C461.454 621.467 465.297 642.427 527.826 653.256C552.628 657.448 615.855 668.277 678.035 639.981C715.762 622.865 737.07 605.399 741.961 601.905C739.166 608.193 727.639 635.091 701.439 656.4C669.651 682.25 634.369 689.935 615.156 692.38C578.128 697.27 549.484 688.887 523.983 681.551C489.75 671.77 488.702 665.133 442.94 650.461C436.652 648.365 410.803 640.331 375.87 633.344C326.266 623.563 304.958 622.166 299.718 620.769Z" fill="url(#paint44_linear_0_1)"/>
<path d="M351 339C375.491 327.223 392.666 307.487 455.961 292.845C511.622 280.113 540.565 296.028 569.827 270.245C589.547 253.056 593.364 231.73 594 226C591.137 230.138 573.644 257.194 535.794 272.473C512.894 281.704 509.395 273.428 457.869 280.431C405.071 287.434 386.941 298.893 378.035 305.896C362.45 317.355 360.542 328.814 351 339Z" fill="url(#paint45_linear_0_1)"/>
<path d="M505 759C556.261 732.83 597.758 727.596 627.398 727.945C659.828 728.294 675.52 735.272 719.458 731.085C772.811 726.2 793.734 711.545 802.103 704.915C819.539 690.957 827.21 683.979 830 677C830.697 681.885 827.908 709.102 807.682 729.689C783.273 754.464 747.704 755.86 728.176 756.906C689.818 758.651 684.936 746.438 643.788 748.532C619.029 749.928 610.311 747.136 580.671 750.974C546.845 755.162 524.528 759 505 759Z" fill="url(#paint46_linear_0_1)"/>
<defs>
<linearGradient id="paint0_linear_0_1" x1="669.103" y1="0" x2="669.103" y2="1063" gradientUnits="userSpaceOnUse">
<stop stop-color="#6CA2F3"/>
<stop offset="1" stop-color="#F9F3F6"/>
</linearGradient>
<linearGradient id="paint1_linear_0_1" x1="1197.72" y1="409.546" x2="79.9049" y2="409.55" gradientUnits="userSpaceOnUse">
<stop stop-color="#FEFEFE" stop-opacity="0"/>
<stop offset="1" stop-color="white"/>
</linearGradient>
<linearGradient id="paint2_linear_0_1" x1="1296.62" y1="414.763" x2="96.3623" y2="414.766" gradientUnits="userSpaceOnUse">
<stop stop-color="#FEFEFE" stop-opacity="0"/>
<stop offset="1" stop-color="white"/>
</linearGradient>
<linearGradient id="paint3_linear_0_1" x1="1174.01" y1="3.91074" x2="-26.2413" y2="3.91478" gradientUnits="userSpaceOnUse">
<stop stop-color="#FEFEFE" stop-opacity="0"/>
<stop offset="1" stop-color="white"/>
</linearGradient>
<linearGradient id="paint4_linear_0_1" x1="1174.01" y1="3.91074" x2="-26.2413" y2="3.91478" gradientUnits="userSpaceOnUse">
<stop stop-color="#FEFEFE" stop-opacity="0"/>
<stop offset="1" stop-color="white"/>
</linearGradient>
<linearGradient id="paint5_linear_0_1" x1="1093.38" y1="747.359" x2="-24.4389" y2="747.362" gradientUnits="userSpaceOnUse">
<stop stop-color="#FEFEFE" stop-opacity="0"/>
<stop offset="1" stop-color="white"/>
</linearGradient>
<linearGradient id="paint6_linear_0_1" x1="2578.97" y1="568.67" x2="1461.15" y2="568.674" gradientUnits="userSpaceOnUse">
<stop stop-color="#FEFEFE" stop-opacity="0"/>
<stop offset="1" stop-color="white"/>
</linearGradient>
<linearGradient id="paint7_linear_0_1" x1="2526.52" y1="838.659" x2="1268.97" y2="838.664" gradientUnits="userSpaceOnUse">
<stop stop-color="#FEFEFE" stop-opacity="0"/>
<stop offset="1" stop-color="white"/>
</linearGradient>
<linearGradient id="paint8_linear_0_1" x1="2426.36" y1="598.668" x2="1308.55" y2="598.671" gradientUnits="userSpaceOnUse">
<stop stop-color="#FEFEFE" stop-opacity="0"/>
<stop offset="1" stop-color="white"/>
</linearGradient>
<linearGradient id="paint9_linear_0_1" x1="1213.71" y1="385.974" x2="68.9724" y2="385.977" gradientUnits="userSpaceOnUse">
<stop stop-color="#FEFEFE" stop-opacity="0"/>
<stop offset="1" stop-color="white"/>
</linearGradient>
<linearGradient id="paint10_linear_0_1" x1="310.685" y1="442.584" x2="460.084" y2="603.598" gradientUnits="userSpaceOnUse">
<stop stop-color="#FEFEFE"/>
<stop offset="1" stop-color="#BFBFBF"/>
</linearGradient>
<linearGradient id="paint11_linear_0_1" x1="791.624" y1="407.111" x2="819.791" y2="721.532" gradientUnits="userSpaceOnUse">
<stop stop-color="#FEFEFE"/>
<stop offset="1" stop-color="#BFBFBF"/>
</linearGradient>
<linearGradient id="paint12_linear_0_1" x1="672.443" y1="647.137" x2="672.443" y2="417.008" gradientUnits="userSpaceOnUse">
<stop stop-color="white"/>
<stop offset="1" stop-color="#CCEDFF"/>
</linearGradient>
<linearGradient id="paint13_linear_0_1" x1="1136.39" y1="542.116" x2="1136.39" y2="380.659" gradientUnits="userSpaceOnUse">
<stop stop-color="white"/>
<stop offset="1" stop-color="#CCEDFF"/>
</linearGradient>
<linearGradient id="paint14_linear_0_1" x1="818.604" y1="533.867" x2="818.604" y2="442.199" gradientUnits="userSpaceOnUse">
<stop stop-color="white"/>
<stop offset="1" stop-color="#CCEDFF"/>
</linearGradient>
<linearGradient id="paint15_linear_0_1" x1="344.974" y1="573.569" x2="344.974" y2="509.129" gradientUnits="userSpaceOnUse">
<stop stop-color="white"/>
<stop offset="1" stop-color="#CCEDFF"/>
</linearGradient>
<linearGradient id="paint16_linear_0_1" x1="387.511" y1="547.675" x2="387.511" y2="406.53" gradientUnits="userSpaceOnUse">
<stop stop-color="white"/>
<stop offset="1" stop-color="#CCEDFF"/>
</linearGradient>
<linearGradient id="paint17_linear_0_1" x1="767.089" y1="487.383" x2="767.09" y2="410.595" gradientUnits="userSpaceOnUse">
<stop stop-color="white"/>
<stop offset="1" stop-color="#CCEDFF"/>
</linearGradient>
<linearGradient id="paint18_linear_0_1" x1="326.601" y1="238.674" x2="326.601" y2="429.008" gradientUnits="userSpaceOnUse">
<stop stop-color="white"/>
<stop offset="1" stop-color="#CCEDFF"/>
</linearGradient>
<linearGradient id="paint19_linear_0_1" x1="939.557" y1="247.596" x2="939.557" y2="383.244" gradientUnits="userSpaceOnUse">
<stop stop-color="white"/>
<stop offset="1" stop-color="#CCEDFF"/>
</linearGradient>
<linearGradient id="paint20_linear_0_1" x1="901.061" y1="544.757" x2="901.061" y2="466.633" gradientUnits="userSpaceOnUse">
<stop stop-color="white"/>
<stop offset="1" stop-color="#CCEDFF"/>
</linearGradient>
<linearGradient id="paint21_linear_0_1" x1="149.442" y1="435.447" x2="149.442" y2="484.516" gradientUnits="userSpaceOnUse">
<stop stop-color="white"/>
<stop offset="1" stop-color="#CCEDFF"/>
</linearGradient>
<linearGradient id="paint22_linear_0_1" x1="218.815" y1="514.67" x2="218.815" y2="406.193" gradientUnits="userSpaceOnUse">
<stop stop-color="white"/>
<stop offset="1" stop-color="#CCEDFF"/>
</linearGradient>
<linearGradient id="paint23_linear_0_1" x1="661.705" y1="268.149" x2="661.705" y2="495.897" gradientUnits="userSpaceOnUse">
<stop stop-color="white"/>
<stop offset="1" stop-color="#CCEDFF"/>
</linearGradient>
<linearGradient id="paint24_linear_0_1" x1="940.266" y1="418.967" x2="940.266" y2="475.082" gradientUnits="userSpaceOnUse">
<stop stop-color="white"/>
<stop offset="1" stop-color="#CCEDFF"/>
</linearGradient>
<linearGradient id="paint25_linear_0_1" x1="647.565" y1="535.493" x2="647.565" y2="449.383" gradientUnits="userSpaceOnUse">
<stop stop-color="white"/>
<stop offset="1" stop-color="#CCEDFF"/>
</linearGradient>
<linearGradient id="paint26_linear_0_1" x1="302.518" y1="611.915" x2="302.518" y2="416.22" gradientUnits="userSpaceOnUse">
<stop stop-color="white"/>
<stop offset="1" stop-color="#CCEDFF"/>
</linearGradient>
<linearGradient id="paint27_linear_0_1" x1="1088.65" y1="432.46" x2="1088.65" y2="483.132" gradientUnits="userSpaceOnUse">
<stop stop-color="white"/>
<stop offset="1" stop-color="#CCEDFF"/>
</linearGradient>
<linearGradient id="paint28_linear_0_1" x1="1089.37" y1="534.067" x2="1089.37" y2="465.61" gradientUnits="userSpaceOnUse">
<stop stop-color="white"/>
<stop offset="1" stop-color="#CCEDFF"/>
</linearGradient>
<linearGradient id="paint29_linear_0_1" x1="944.726" y1="457.37" x2="944.726" y2="410.745" gradientUnits="userSpaceOnUse">
<stop stop-color="white"/>
<stop offset="1" stop-color="#CCEDFF"/>
</linearGradient>
<linearGradient id="paint30_linear_0_1" x1="1180.14" y1="420.109" x2="1180.14" y2="467.925" gradientUnits="userSpaceOnUse">
<stop stop-color="white"/>
<stop offset="1" stop-color="#CCEDFF"/>
</linearGradient>
<linearGradient id="paint31_linear_0_1" x1="827.114" y1="412.167" x2="827.114" y2="364.171" gradientUnits="userSpaceOnUse">
<stop stop-color="white"/>
<stop offset="1" stop-color="#CCEDFF"/>
</linearGradient>
<linearGradient id="paint32_linear_0_1" x1="534.671" y1="449.263" x2="534.671" y2="401.267" gradientUnits="userSpaceOnUse">
<stop stop-color="white"/>
<stop offset="1" stop-color="#CCEDFF"/>
</linearGradient>
<linearGradient id="paint33_linear_0_1" x1="680.764" y1="425.514" x2="680.766" y2="396.562" gradientUnits="userSpaceOnUse">
<stop stop-color="white"/>
<stop offset="1" stop-color="#CCEDFF"/>
</linearGradient>
<linearGradient id="paint34_linear_0_1" x1="525.523" y1="566.765" x2="525.523" y2="540.763" gradientUnits="userSpaceOnUse">
<stop stop-color="white"/>
<stop offset="1" stop-color="#CCEDFF"/>
</linearGradient>
<linearGradient id="paint35_linear_0_1" x1="256.993" y1="533.983" x2="256.993" y2="507.981" gradientUnits="userSpaceOnUse">
<stop stop-color="white"/>
<stop offset="1" stop-color="#CCEDFF"/>
</linearGradient>
<linearGradient id="paint36_linear_0_1" x1="155.436" y1="414.639" x2="155.436" y2="388.635" gradientUnits="userSpaceOnUse">
<stop stop-color="white"/>
<stop offset="1" stop-color="#CCEDFF"/>
</linearGradient>
<linearGradient id="paint37_linear_0_1" x1="1150.55" y1="339.534" x2="1150.55" y2="313.532" gradientUnits="userSpaceOnUse">
<stop stop-color="white"/>
<stop offset="1" stop-color="#CCEDFF"/>
</linearGradient>
<linearGradient id="paint38_linear_0_1" x1="296.31" y1="447.975" x2="296.31" y2="388.981" gradientUnits="userSpaceOnUse">
<stop stop-color="white"/>
<stop offset="1" stop-color="#CCEDFF"/>
</linearGradient>
<linearGradient id="paint39_linear_0_1" x1="709.562" y1="375.262" x2="709.562" y2="316.268" gradientUnits="userSpaceOnUse">
<stop stop-color="white"/>
<stop offset="1" stop-color="#CCEDFF"/>
</linearGradient>
<linearGradient id="paint40_linear_0_1" x1="1149.78" y1="454.795" x2="1149.78" y2="395.801" gradientUnits="userSpaceOnUse">
<stop stop-color="white"/>
<stop offset="1" stop-color="#CCEDFF"/>
</linearGradient>
<linearGradient id="paint41_linear_0_1" x1="954.294" y1="344.546" x2="236.726" y2="382.495" gradientUnits="userSpaceOnUse">
<stop stop-color="#416BBD"/>
<stop offset="1" stop-color="#CADCFF" stop-opacity="0"/>
</linearGradient>
<linearGradient id="paint42_linear_0_1" x1="1019.04" y1="528.714" x2="256.037" y2="623.033" gradientUnits="userSpaceOnUse">
<stop stop-color="#416BBD"/>
<stop offset="1" stop-color="#CADCFF" stop-opacity="0"/>
</linearGradient>
<linearGradient id="paint43_linear_0_1" x1="673.577" y1="392.69" x2="242.184" y2="435.314" gradientUnits="userSpaceOnUse">
<stop stop-color="#416BBD"/>
<stop offset="1" stop-color="#CADCFF" stop-opacity="0"/>
</linearGradient>
<linearGradient id="paint44_linear_0_1" x1="718.694" y1="638.344" x2="313.02" y2="680.331" gradientUnits="userSpaceOnUse">
<stop stop-color="#416BBD"/>
<stop offset="1" stop-color="#CADCFF" stop-opacity="0"/>
</linearGradient>
<linearGradient id="paint45_linear_0_1" x1="581.215" y1="270.789" x2="356.403" y2="281.19" gradientUnits="userSpaceOnUse">
<stop stop-color="#416BBD"/>
<stop offset="1" stop-color="#CADCFF" stop-opacity="0"/>
</linearGradient>
<linearGradient id="paint46_linear_0_1" x1="812.99" y1="709.502" x2="513.761" y2="735.025" gradientUnits="userSpaceOnUse">
<stop stop-color="#416BBD"/>
<stop offset="1" stop-color="#CADCFF" stop-opacity="0"/>
</linearGradient>
</defs>
</svg>
