<svg width="1486" height="1063" viewBox="0 0 1486 1063" fill="none" xmlns="http://www.w3.org/2000/svg">
<rect x="138.255" width="1061.7" height="1063" fill="url(#paint0_linear_122_45)"/>
<rect x="104.344" y="405.635" width="1043.44" height="3.91288" fill="url(#paint1_linear_122_45)"/>
<rect x="122.604" y="409.548" width="1120.39" height="5.21718" fill="url(#paint2_linear_122_45)"/>
<rect width="1120.39" height="3.91288" transform="matrix(-1 0 0 1 1211.69 144.777)" fill="url(#paint3_linear_122_45)"/>
<rect width="1120.39" height="3.91288" transform="matrix(-1 0 0 1 1242.99 134.342)" fill="url(#paint4_linear_122_45)"/>
<rect y="743.448" width="1043.44" height="3.91288" fill="url(#paint5_linear_122_45)"/>
<rect x="1485.59" y="564.76" width="1043.44" height="3.91297" transform="rotate(180 1485.59 564.76)" fill="url(#paint6_linear_122_45)"/>
<rect x="1296.47" y="834.749" width="1173.86" height="3.91299" transform="rotate(180 1296.47 834.749)" fill="url(#paint7_linear_122_45)"/>
<rect x="1332.99" y="593.454" width="1043.44" height="5.21727" transform="rotate(180 1332.99 593.454)" fill="url(#paint8_linear_122_45)"/>
<defs>
<linearGradient id="paint0_linear_122_45" x1="669.103" y1="0" x2="669.103" y2="1063" gradientUnits="userSpaceOnUse">
<stop stop-color="#6CA2F3"/>
<stop offset="1" stop-color="#F9F3F6"/>
</linearGradient>
<linearGradient id="paint1_linear_122_45" x1="1197.72" y1="409.546" x2="79.9047" y2="409.55" gradientUnits="userSpaceOnUse">
<stop stop-color="#FEFEFE" stop-opacity="0"/>
<stop offset="1" stop-color="white"/>
</linearGradient>
<linearGradient id="paint2_linear_122_45" x1="1296.62" y1="414.763" x2="96.3624" y2="414.766" gradientUnits="userSpaceOnUse">
<stop stop-color="#FEFEFE" stop-opacity="0"/>
<stop offset="1" stop-color="white"/>
</linearGradient>
<linearGradient id="paint3_linear_122_45" x1="1174.01" y1="3.91074" x2="-26.2413" y2="3.91478" gradientUnits="userSpaceOnUse">
<stop stop-color="#FEFEFE" stop-opacity="0"/>
<stop offset="1" stop-color="white"/>
</linearGradient>
<linearGradient id="paint4_linear_122_45" x1="1174.01" y1="3.91074" x2="-26.2413" y2="3.91478" gradientUnits="userSpaceOnUse">
<stop stop-color="#FEFEFE" stop-opacity="0"/>
<stop offset="1" stop-color="white"/>
</linearGradient>
<linearGradient id="paint5_linear_122_45" x1="1093.38" y1="747.358" x2="-24.4389" y2="747.362" gradientUnits="userSpaceOnUse">
<stop stop-color="#FEFEFE" stop-opacity="0"/>
<stop offset="1" stop-color="white"/>
</linearGradient>
<linearGradient id="paint6_linear_122_45" x1="2578.97" y1="568.67" x2="1461.15" y2="568.674" gradientUnits="userSpaceOnUse">
<stop stop-color="#FEFEFE" stop-opacity="0"/>
<stop offset="1" stop-color="white"/>
</linearGradient>
<linearGradient id="paint7_linear_122_45" x1="2526.52" y1="838.659" x2="1268.97" y2="838.664" gradientUnits="userSpaceOnUse">
<stop stop-color="#FEFEFE" stop-opacity="0"/>
<stop offset="1" stop-color="white"/>
</linearGradient>
<linearGradient id="paint8_linear_122_45" x1="2426.36" y1="598.669" x2="1308.55" y2="598.671" gradientUnits="userSpaceOnUse">
<stop stop-color="#FEFEFE" stop-opacity="0"/>
<stop offset="1" stop-color="white"/>
</linearGradient>
</defs>
</svg>
