<?xml version="1.0" encoding="utf-8"?>
<!-- Generator: Adobe Illustrator 23.0.5, SVG Export Plug-In . SVG Version: 6.00 Build 0)  -->
<svg version="1.1" id="Слой_1" xmlns="http://www.w3.org/2000/svg" xmlns:xlink="http://www.w3.org/1999/xlink" x="0px" y="0px"
	 width="1052.2px" height="1058.5px" viewBox="0 0 1052.2 1058.5" style="enable-background:new 0 0 1052.2 1058.5;"
	 xml:space="preserve">
<style type="text/css">
	.st0{fill:url(#SVGID_1_);filter:url(#Adobe_OpacityMaskFilter);}
	.st1{mask:url(#mask0_0_1_1_);}
	.st2{fill:url(#SVGID_2_);}
	.st3{fill:url(#SVGID_3_);}
	.st4{fill:url(#SVGID_4_);}
	.st5{fill:url(#SVGID_5_);}
	.st6{fill:url(#SVGID_6_);}
	.st7{fill:url(#SVGID_7_);}
	.st8{fill:url(#SVGID_8_);}
	.st9{fill:url(#SVGID_9_);}
	.st10{fill:url(#SVGID_10_);}
	.st11{fill:url(#SVGID_11_);}
	.st12{fill:url(#SVGID_12_);}
	.st13{fill:url(#SVGID_13_);}
	.st14{fill:url(#SVGID_14_);}
	.st15{fill:url(#SVGID_15_);}
	.st16{fill:url(#SVGID_16_);}
	.st17{fill:url(#SVGID_17_);}
	.st18{fill:url(#SVGID_18_);}
	.st19{fill:url(#SVGID_19_);}
	.st20{fill:url(#SVGID_20_);}
	.st21{fill:url(#SVGID_21_);}
	.st22{fill:url(#SVGID_22_);}
	.st23{fill:url(#SVGID_23_);}
	.st24{fill:url(#SVGID_24_);}
	.st25{fill:url(#SVGID_25_);}
	.st26{fill:url(#SVGID_26_);}
	.st27{fill:url(#SVGID_27_);}
	.st28{fill:url(#SVGID_28_);}
	.st29{fill:url(#SVGID_29_);}
	.st30{fill:url(#SVGID_30_);}
	.st31{fill:url(#SVGID_31_);}
	.st32{fill:url(#SVGID_32_);}
	.st33{fill:url(#SVGID_33_);}
	.st34{fill:url(#SVGID_34_);}
	.st35{fill:url(#SVGID_35_);}
	.st36{fill:url(#SVGID_36_);}
	.st37{fill:url(#SVGID_37_);}
	.st38{fill:url(#SVGID_38_);}
	.st39{fill:url(#SVGID_39_);}
	.st40{fill:url(#SVGID_40_);}
	.st41{fill:url(#SVGID_41_);}
	.st42{fill:url(#SVGID_42_);}
	.st43{fill:url(#SVGID_43_);}
	.st44{fill:url(#SVGID_44_);}
	.st45{fill:url(#SVGID_45_);}
	.st46{fill:url(#SVGID_46_);}
	.st47{fill:url(#SVGID_47_);}
	.st48{fill:url(#SVGID_48_);}
	.st49{fill:url(#SVGID_49_);}
	.st50{fill:url(#SVGID_50_);}
	.st51{fill:url(#SVGID_51_);}
	.st52{fill:url(#SVGID_52_);}
	.st53{fill:url(#SVGID_53_);}
	.st54{fill:url(#SVGID_54_);}
	.st55{fill:url(#SVGID_55_);}
	.st56{fill:url(#SVGID_56_);}
	.st57{fill:url(#SVGID_57_);}
	.st58{fill:url(#SVGID_58_);}
	.st59{fill:url(#SVGID_59_);}
	.st60{fill:url(#SVGID_60_);}
	.st61{fill:url(#SVGID_61_);}
	.st62{fill:url(#SVGID_62_);}
	.st63{fill:url(#SVGID_63_);}
	.st64{fill:url(#SVGID_64_);}
	.st65{fill:url(#SVGID_65_);}
	.st66{fill:url(#SVGID_66_);}
	.st67{fill:url(#SVGID_67_);}
	.st68{fill:url(#SVGID_68_);}
	.st69{fill:url(#SVGID_69_);}
	.st70{fill:url(#SVGID_70_);}
	.st71{fill:url(#SVGID_71_);}
	.st72{fill:url(#SVGID_72_);}
	.st73{fill:url(#SVGID_73_);}
	.st74{fill:url(#SVGID_74_);}
	.st75{fill:url(#SVGID_75_);}
	.st76{fill:url(#SVGID_76_);}
	.st77{fill:url(#SVGID_77_);}
	.st78{fill:url(#SVGID_78_);}
	.st79{fill:url(#SVGID_79_);}
	.st80{fill:url(#SVGID_80_);}
	.st81{fill:url(#SVGID_81_);}
	.st82{fill:url(#SVGID_82_);}
	.st83{fill:url(#SVGID_83_);}
	.st84{fill:url(#SVGID_84_);}
	.st85{fill:url(#SVGID_85_);}
	.st86{fill:url(#SVGID_86_);}
	.st87{fill:url(#SVGID_87_);}
	.st88{fill:url(#SVGID_88_);}
	.st89{fill:url(#SVGID_89_);}
	.st90{fill:url(#SVGID_90_);}
	.st91{fill:url(#SVGID_91_);}
	.st92{fill:url(#SVGID_92_);}
	.st93{fill:url(#SVGID_93_);}
	.st94{fill:url(#SVGID_94_);}
	.st95{fill:url(#SVGID_95_);}
	.st96{fill:url(#SVGID_96_);}
	.st97{fill:url(#SVGID_97_);}
	.st98{fill:url(#SVGID_98_);}
	.st99{fill:url(#SVGID_99_);}
	.st100{fill:url(#SVGID_100_);}
	.st101{fill:url(#SVGID_101_);}
	.st102{fill:url(#SVGID_102_);}
	.st103{fill:url(#SVGID_103_);}
	.st104{fill:url(#SVGID_104_);}
	.st105{fill:url(#SVGID_105_);}
	.st106{fill:url(#SVGID_106_);}
	.st107{fill:url(#SVGID_107_);}
	.st108{fill:url(#SVGID_108_);}
	.st109{fill:url(#SVGID_109_);}
	.st110{fill:url(#SVGID_110_);}
	.st111{fill:url(#SVGID_111_);}
	.st112{fill:url(#SVGID_112_);}
	.st113{fill:url(#SVGID_113_);}
	.st114{fill:url(#SVGID_114_);}
	.st115{fill:url(#SVGID_115_);}
	.st116{fill:url(#SVGID_116_);}
	.st117{fill:url(#SVGID_117_);}
	.st118{fill:url(#SVGID_118_);}
	.st119{fill:url(#SVGID_119_);}
	.st120{fill:url(#SVGID_120_);}
	.st121{fill:url(#SVGID_121_);}
	.st122{fill:url(#SVGID_122_);}
</style>
<defs>
	<filter id="Adobe_OpacityMaskFilter" filterUnits="userSpaceOnUse" x="-186.5" y="-255.4" width="1535" height="1356.5">
		<feColorMatrix  type="matrix" values="1 0 0 0 0  0 1 0 0 0  0 0 1 0 0  0 0 0 1 0"/>
	</filter>
</defs>
<mask maskUnits="userSpaceOnUse" x="-186.5" y="-255.4" width="1535" height="1356.5" id="mask0_0_1_1_">
	
		<linearGradient id="SVGID_1_" gradientUnits="userSpaceOnUse" x1="531.2023" y1="969.4281" x2="531.2023" y2="-93.2718" gradientTransform="matrix(1 0 0 -1 0 964.9664)">
		<stop  offset="0" style="stop-color:#626D7C"/>
		<stop  offset="1" style="stop-color:#708CA7"/>
	</linearGradient>
	<rect x="-0.1" y="-4.5" class="st0" width="1062.7" height="1062.7"/>
</mask>
<g class="st1">
	
		<linearGradient id="SVGID_2_" gradientUnits="userSpaceOnUse" x1="520.8153" y1="969.4281" x2="520.8153" y2="-93.2718" gradientTransform="matrix(1 0 0 -1 0 964.9664)">
		<stop  offset="0" style="stop-color:#626D7C"/>
		<stop  offset="1" style="stop-color:#708CA7"/>
	</linearGradient>
	<rect x="-10.5" y="-4.5" class="st2" width="1062.7" height="1062.7"/>
	
		<linearGradient id="SVGID_3_" gradientUnits="userSpaceOnUse" x1="1159.3118" y1="557.5609" x2="-42.0802" y2="557.5571" gradientTransform="matrix(1 0 0 -1 0 964.9664)">
		<stop  offset="0" style="stop-color:#FEFEFE;stop-opacity:0"/>
		<stop  offset="1" style="stop-color:#FFFFFF"/>
	</linearGradient>
	<rect x="-15.8" y="405.5" class="st3" width="1121.4" height="3.9"/>
	
		<linearGradient id="SVGID_4_" gradientUnits="userSpaceOnUse" x1="1850.9819" y1="1054.8398" x2="649.5858" y2="1054.8369" gradientTransform="matrix(-1 0 0 -1 1750.1545 1196.5745)">
		<stop  offset="0" style="stop-color:#FEFEFE;stop-opacity:0"/>
		<stop  offset="1" style="stop-color:#FFFFFF"/>
	</linearGradient>
	<rect x="-47.1" y="139.1" class="st4" width="1121.4" height="5.2"/>
	
		<linearGradient id="SVGID_5_" gradientUnits="userSpaceOnUse" x1="1850.9818" y1="1055.5027" x2="649.5856" y2="1055.4985" gradientTransform="matrix(-1 0 0 -1 1781.4946 1186.1305)">
		<stop  offset="0" style="stop-color:#FEFEFE;stop-opacity:0"/>
		<stop  offset="1" style="stop-color:#FFFFFF"/>
	</linearGradient>
	<rect x="-15.8" y="128.7" class="st5" width="1121.4" height="3.9"/>
	
		<linearGradient id="SVGID_6_" gradientUnits="userSpaceOnUse" x1="955.8818" y1="223.3466" x2="-162.997" y2="223.3427" gradientTransform="matrix(1 0 0 -1 0 964.9664)">
		<stop  offset="0" style="stop-color:#FEFEFE;stop-opacity:0"/>
		<stop  offset="1" style="stop-color:#FFFFFF"/>
	</linearGradient>
	<rect x="-138.5" y="739.7" class="st6" width="1044.4" height="3.9"/>
	
		<linearGradient id="SVGID_7_" gradientUnits="userSpaceOnUse" x1="3296.8828" y1="94.2156" x2="2178.0029" y2="94.2114" gradientTransform="matrix(-1 0 0 1 3550.9246 464.7002)">
		<stop  offset="0" style="stop-color:#FEFEFE;stop-opacity:0"/>
		<stop  offset="1" style="stop-color:#FFFFFF"/>
	</linearGradient>
	<rect x="304" y="556.9" class="st7" width="1044.4" height="3.9"/>
	
		<linearGradient id="SVGID_8_" gradientUnits="userSpaceOnUse" x1="3244.3828" y1="-176.0354" x2="1985.6428" y2="-176.0394" gradientTransform="matrix(-1 0 0 1 3172.3247 1005.1902)">
		<stop  offset="0" style="stop-color:#FEFEFE;stop-opacity:0"/>
		<stop  offset="1" style="stop-color:#FFFFFF"/>
	</linearGradient>
	<rect x="-15.8" y="827.2" class="st8" width="1175" height="3.9"/>
	
		<linearGradient id="SVGID_9_" gradientUnits="userSpaceOnUse" x1="3144.1328" y1="66.799" x2="2025.2629" y2="66.7948" gradientTransform="matrix(-1 0 0 1 3245.4446 519.5322)">
		<stop  offset="0" style="stop-color:#FEFEFE;stop-opacity:0"/>
		<stop  offset="1" style="stop-color:#FFFFFF"/>
	</linearGradient>
	<rect x="151.3" y="584.3" class="st9" width="1044.4" height="3.9"/>
	
		<linearGradient id="SVGID_10_" gradientUnits="userSpaceOnUse" x1="834.7386" y1="310.4011" x2="834.7386" y2="228.2921" gradientTransform="matrix(1 0 0 -1 0 964.9664)">
		<stop  offset="0" style="stop-color:#FFFFFF"/>
		<stop  offset="1" style="stop-color:#666E83"/>
	</linearGradient>
	<path class="st10" d="M1020.3,712.6c-2.9-8.2,5.8-10,12.8-17c6.9-7,12.1-8.2,0-12.4c-12.1-4.3-12.1-8.5-7.6-12.4
		c4.6-3.9-12.1,1.5-12.1,1.5s6.9-8.8-7.5-16c-14.6-7-30.2-16.4-33.6-5.4c-3.4,11-6.4,15.5-12.1,12.8c-5.8-2.8-15.8-3.9-18.1,1.1
		c-2.3,4.9,6.9,8.5-2.9,10.6c-9.8,2.1-11-4.3-19.2-2.8c-8.2,1.5-8.2,5.7-10.5,7.5c-2.3,1.8-12.1,0-18.5,3.3
		c-6.4,3.3-9.8,2.1-12.8-1.8c-3-3.9-9.8-6.1-15.8-6.1c-5.7,0-13.3-6.7-16.2-8.2c-3-1.5-13.9-3.9-16.3,2.8c-2.3,6.7-9.3,11-12.8,8.8
		c-3.4-2.1-17.4-4.9-24.4-10.6c-6.9-5.7-18,1.5-22.1-2.8c-4.1-4.3-16.9-11.6-24.4-12.4c-7.5-0.7-27.2,3.1-29,12.4
		c-1.8,9.2,6.9,18.8-9.4,17.3c-16.2-1.5-72.7,1-77.3,9.2c-4.6,8.2,4.6,23.4,14.6,26.7c8.2,2.6,25.1,2.1,25.3,9.3h331.7
		c0.2,0,0.3,0,0.5-0.2C1014.6,725,1023.3,720.7,1020.3,712.6z"/>
	
		<linearGradient id="SVGID_11_" gradientUnits="userSpaceOnUse" x1="215.9185" y1="151.0681" x2="215.9185" y2="87.0972" gradientTransform="matrix(1 0 0 -1 0 964.9664)">
		<stop  offset="0" style="stop-color:#FFFFFF"/>
		<stop  offset="1" style="stop-color:#666E83"/>
	</linearGradient>
	<path class="st11" d="M317,870.3c3.1-2.4-2.1-4.9,0.5-7c5.8-4.7,18.1-8.6,18.3-11.2c0.5-8.2,7.9-18.7,3.5-20.9
		c-1.8-1-3.3-5.7-9.5-4.2c-4.6,1.1-13.8,8.5-18.1,9c-3.9,0.5-7.2-5.1-8.9-3.8c-5.9,4.2-24,12.6-28.9,9.5c-4.9-3.1-9-11.1-19.2-5.9
		c-10.2,5.2-24,3.4-32.1-2.6c-5.1-3.8-5.4-1.8-15,4.9c-1.5,1.1-4.8-3.9-8.1-2.6c-3,1.1-5.8,8.6-7.4,9.9c-3.1,2.6-5.9,6.5-10,4.7
		c0,0-1.2-4.4,1.2-13.5c2.3-9,7.9-18.6,5.4-21.7c-2.3-2.9-5.8,3.9-13.2,6.8c-3.5,1.3-11-3.1-13.8-1c-4.3,3.3-7.2,11.9-7.2,11.9
		s-3.9-7.7-11.7-7.3c-6.1,0.2-15,7.5-21.9,9.9c-9.2,3.3-19.4,16-20.7,16.6c-1.5,0.8,1.5,7.8-4.4,18.6c-1.3,2.4-3,5.1-4.4,7.7h212.4
		c0.3-0.8,0.8-1.6,1.5-2.3C306.6,873.7,314.9,871.9,317,870.3z"/>
	
		<linearGradient id="SVGID_12_" gradientUnits="userSpaceOnUse" x1="718.5475" y1="144.1631" x2="718.5475" y2="189.9291" gradientTransform="matrix(1 0 0 -1 0 964.9664)">
		<stop  offset="0" style="stop-color:#FFFFFF"/>
		<stop  offset="1" style="stop-color:#666E83"/>
	</linearGradient>
	<path class="st12" d="M721.3,806.9c-5.5,2.5-8.5,3.1-9.4,0c-0.8-3.1-3.2-6-5.5-6s-2.3-3.1-3-5c-0.7-1.8-4.7-2.1-6.2-1.8
		c-1.5,0.3-6.2-4.1-6.7-5.6c-0.7-1.3,1.8-3.5,2.7-6c0.8-2.5,6.7-9.4,11.2-7.3c4.3,2.1,7,13.6,10.2,10.4c3.2-3.1,2-8.1,3.2-7.6
		c1.2,0.3,5,2.8,5.3,3.8c0.3,1,6.2,2.5,7-0.3c0.8-2.8,5.5-2.5,7.7,1c2,3.5-2.7,12.9,0,13.6c2.7,0.7,5.7,5,8,9.1
		c2.3,4.1-1,15.4-9.7,15.4c-0.8,0-6.5-6.6-11.4-6.6c-4.8,0-8,6.6-8.2,3.8C716,815.2,721.3,806.9,721.3,806.9z"/>
	
		<linearGradient id="SVGID_13_" gradientUnits="userSpaceOnUse" x1="584.7303" y1="93.0481" x2="584.7303" y2="149.3001" gradientTransform="matrix(1 0 0 -1 0 964.9664)">
		<stop  offset="0" style="stop-color:#FFFFFF"/>
		<stop  offset="1" style="stop-color:#666E83"/>
	</linearGradient>
	<path class="st13" d="M594.1,855c-4.9,6.2-7.8,8.9-10.8,5.8c-2.9-3.1-7.3-4.9-10.1-3.6c-2.8,1.5-4.6-2.3-6.4-3.9
		c-1.8-1.6-6.7,0.3-8.2,1.6c-1.5,1.3-9.6-1.1-11.1-2.5c-1.5-1.3-0.2-5.1-0.7-8.5c-0.3-2,5.7-3.9,7.5-7.6c1.3-2.8-2-7.7,0.8-7.9
		c6.4-0.2,16.5,11.7,18.3,6.1c1.8-5.6-2.4-10.7-1-11c1.6-0.3,7.5,0.2,8.5,1.3c1,1,8.6-0.8,7.8-4.8c-0.7-3.8,4.9-6.2,9.5-3.4
		c4.6,2.8,4.9,16.8,8.3,15.9c3.4-0.8,9.5,2.3,14.7,5.8c3.1,2.1-0.5,10.2-2,16.4c-1,4.1,0.5,7.2,0.2,7.6c-0.3,0.2-2.4,4.8-5.1,5.4
		c-2,0.5-4.1,3-5.9,2.5c-2.4-0.5-4.2-4.1-4.2-4.1s-7,7.9-9.1,4.8C593.1,868,594.1,855,594.1,855z"/>
	
		<linearGradient id="SVGID_14_" gradientUnits="userSpaceOnUse" x1="1064.0984" y1="1002.563" x2="880.5184" y2="808.0261" gradientTransform="matrix(1 0 0 -1 0 964.9664)">
		<stop  offset="0" style="stop-color:#FEFEFE"/>
		<stop  offset="1" style="stop-color:#BFBFBF"/>
	</linearGradient>
	<path class="st14" d="M1152.2-2.7l26.6,12.4c3.5,1.6,5.7,5.1,5.7,9c0,5.5-4.4,9.9-9.9,9.9H848.2c-5.7,0-10.2-4.6-10.2-10.2
		c0-3.7,2-7.1,5.2-8.9l22.5-12.6c2.4-1.3,5.1-2,7.8-2h23c4.3,0,8.5,1.8,11.5,4.9l7.6,7.8c3,3.1,7.2,4.9,11.5,4.9h25.4
		c2.1,0,4.1-0.4,6-1.2l40.3-16.4l33-12.1c4.8-1.7,10-1.1,14.3,1.6l36.7,24c4,2.6,8.9,3.3,13.4,1.9l44.5-13.6
		C1144.5-4.6,1148.6-4.4,1152.2-2.7z"/>
	
		<linearGradient id="SVGID_15_" gradientUnits="userSpaceOnUse" x1="402.9137" y1="1056.9314" x2="367.7586" y2="671.0992" gradientTransform="matrix(1 0 0 -1 0 964.9664)">
		<stop  offset="0" style="stop-color:#FEFEFE"/>
		<stop  offset="1" style="stop-color:#BFBFBF"/>
	</linearGradient>
	<path class="st15" d="M631-40.7C651.6-25.1,683-1.2,696.4,9c3.9,3,6.2,7.6,6.2,12.5v7.8c0,8.8-7.2,16-16,16H97.9
		c-8.8,0-16-7.2-16-16v-8.1c0-4.8,2.1-9.3,5.8-12.3c18.3-14.9,47.7-37.5,53.4-36.5c7.9,1.4,63.1,41.3,72.3,41.3
		c9.2,0,107.8-19.3,123.6-28.9c15.8-9.6,92-30.3,99.9-30.3c7.9,0,59.2,34.4,71,30.3c8.8-3.1,72.6-19.2,109.6-28.4
		C622.2-44.7,627.2-43.7,631-40.7z"/>
	
		<linearGradient id="SVGID_16_" gradientUnits="userSpaceOnUse" x1="623.5488" y1="755.3201" x2="623.5488" y2="1037.6564" gradientTransform="matrix(1 0 0 -1 0 964.9664)">
		<stop  offset="0" style="stop-color:#FFFFFF"/>
		<stop  offset="1" style="stop-color:#666E83"/>
	</linearGradient>
	<path class="st16" d="M1265.5-102.5c5.1,1.9,9.7,3.8,14.2,5.7V76.6c-2.2,0.2-2.8,2.3-3.7,7.8c-1.2,7.6-10.3,19-22.9,19.6
		c-12.6,0.6-20.5,9.1-32.8,17.1c-12.6,8-6.7,17.9-36.7,26s-18.2-5.5-31.2-17.9c-13-12.7-6.3-2.7-8.7,1.1c-2.4,3.8-10.3,0.8-11.1-0.8
		c-0.8-1.7-6.1-9.3-13.6-1.5c-7.5,7.6-7.5,4.2-7.9,2.7c-0.4-1.5-13-4.9-18.6,2.1c-5.9,7-10.7,1.5-32.4-4.9
		c-21.7-6.3-17.4-9.7-17.4-1.5c0,8.4-7.9,6.3-19.4,8s-22.1-11.8-23.3-4.9c-1.2,7-18.6,0-17.4,1.7c1.2,1.7-0.4,5.1-5.5,9.9
		c-5.1,4.9-7.1,2.7-9.5,1.1c-2.4-1.7-1.2-3.6-9.5-8.4c-8.3-4.9-15-1.7-15,0.6c0,2.5-9.1,15.4-17,18.2c-7.9,2.7-8.7,12.7-15.4,13.3
		c-6.7,0.6-7.1-10.6-9.5-13.7c-2.4-3.2-6.3-1.7-7.5,4.6c-1.2,6.3-11.1,6.3-18.2,6.3c-7.1,0-10.3,4.2-17.8,11.8
		c-7.5,7.6-15,5.3-32.4,0c-17.4-5.3-23.3-5.3-37.1-4.6c-13.8,0.6-13-2.1-19-3.8c-6.3-1.7-5.5,1.1-13,0c-7.5-1.1-1.6-14.4-5.5-11.2
		c-3.6,3.2-16.2,5.7-24.9,5.9c-8.7,0.4-18.6-3.2-28.8-4.2c-9.9-1.1-12.6-3.6-19.4-9.5c-7.1-5.9-9.5-12.9-16.6-19.2
		c-7.1-6.3-22.9-15.8-24.5-12.7c-1.6,3.2-9.1,4.6-14.2,2.7c-5.1-1.7-14.2-1.1-21.7,0c-7.5,1.1-9.9-0.6-13-3.2
		c-2.8-2.5-3.2-2.5-9.1-3.6c-5.9-1.1-10.3,0-9.9-4.9c0.4-4.9,0-8.7-7.9-6.8c-7.9,2.1-7.5,2.5-10.3-4.6c-2.8-7-5.9-3.2-15-2.7
		c-9.1,0.4-9.5,0.6-9.5-4.6c0-5.3-5.9-3.2-17-3.2c-11.1,0-13-1.7-13.8-4.9c-0.8-3.2-19,0.4-20-2.1c-0.8-2.5-8.7-1.7-16.6-0.6
		c-7.9,1.1-0.4,3.8,0,8.4c0.4,4.6-1.2,10.1-5.9,7c-4.7-3.2-2.8-7.8-10.7-6.8c-7.9,1.1-16.2,1.5-17.8,5.1c-1.6,3.6-10.3,5.7-17,7.4
		c-6.7,1.7-2,15-7.1,22.4c-5.1,7.4-14.6,13.7-22.9,12.2c-8.3-1.5-6.7-5.9-8.7-4.2c-2,1.7-5.1,3.2-11.5,0c-6.7-3.2-10.7-3.2-12.6-2.1
		c-1.6,1.1-8.7-0.4-12.6-4.2c-3.6-3.8-9.5-3.8-15-5.3c-5.5-1.5-18.2-3.8-23.3,5.3c-5.1,9.1-7.5,8.4-9.9,8.7
		c-2.4,0.4-9.5-4.2-9.9,1.5c-0.4,5.7-10.7,8.7-13.4,3.6c-2.4-5.3-15.8-2.1-20,1.5c-4.3,3.6-21.7,15-28.2,9.5c-6.7-5.7-7.1-8-7.1-8
		c-25.3-10.1-5.5-18.6-15.8-25.6c-10.3-7-15.8-34.2-19-36.3c-3.2-2.1-7.9,0-10.3-2.1c-2.4-2.1-7.1-3.8-6.7-8
		c0.4-4.2-8.3-6.3-10.7-5.9c-2.4,0.4-12.6,0.4-14.2-3.8c-1.6-4-8.7-0.4-10.7-0.2c-2,0.4-9.1,0-12.2-2.5c-2.8-2.5-4.3-6.3-7.1-7
		c-2.8-0.6-4.7-1.7-3.2-4.4c1.2-2.5-1.2-2.5-3.2-6.5c-2-3.8-5.5-3.2-14.2-3.2s-7.9,7.2-20.1,3.8c-2.2-0.6-7.1-4.6-8.7-5.5
		c-1.6-0.8-5.5-1.5-6.3-0.4c-0.8,1.1-6.3,0-6.3,0s-2.4-1.7-3.2-4.4c-0.8-2.7-4.7-1.7-4.7-1.7s-3.6,0-5.5,1.5c-1.6,1.5-3.2-1.5-5.5-4
		c-2-2.5-9.1-3.4-13.4-0.6c-20,13.5-28.8,5.1-36.5,1.5v-126.1H1265.5z"/>
	
		<linearGradient id="SVGID_17_" gradientUnits="userSpaceOnUse" x1="63.3801" y1="884.2986" x2="63.3801" y2="1082.6067" gradientTransform="matrix(1 0 0 -1 0 964.9664)">
		<stop  offset="0" style="stop-color:#FFFFFF"/>
		<stop  offset="1" style="stop-color:#666E83"/>
	</linearGradient>
	<path class="st17" d="M154.3-21.8c-1.4,11.9,2,25.5-2,30.2c-4,4.7-19.1,45-22.9,40.6c-3.8-4.5-19.3-42.1-24-36.1
		c-4.6,6.2-12.9,18.9-19.9,14.2c-6.8-4.9-18.3,2.1-26.2,13.4c-7.9,11.3-8.3,30.2-20.7,8.5c0,0-5.2,18.1-10.7,29.1
		c-5.4,11-23.3-16.1-23.3-16.1s-26,16.6-32.2-9.8v-95.4C-17-51.9-6.2-57.9,0.5-56c8.9,2.5,10.7-46.5,22.3-56.9
		c11.9-10.4,26.2-2.3,24.2,11.3c-2,13.4,17.5,19.5,20.1,15.9C69.7-89.5,85-91.9,89-91c4,0.8-7.4,18.9-3.2,38.7
		c4.2,19.8,31-22.9,47.5-22.7C150-74.9,155.7-33.7,154.3-21.8z"/>
	
		<linearGradient id="SVGID_18_" gradientUnits="userSpaceOnUse" x1="447.035" y1="894.3823" x2="447.035" y2="1006.9806" gradientTransform="matrix(1 0 0 -1 0 964.9664)">
		<stop  offset="0" style="stop-color:#FFFFFF"/>
		<stop  offset="1" style="stop-color:#666E83"/>
	</linearGradient>
	<path class="st18" d="M428.8,37c9.5,12.4,15.4,17.7,21,11.4c5.7-6.3,14.1-9.9,19.4-7.1c5.3,2.9,8.9-4.4,12.3-8
		c3.4-3.4,12.9,0.8,15.8,3.4c2.8,2.5,18.6-2.3,21.6-4.8c3-2.5,0.2-10.3,1-17c0.6-3.8-11.1-7.8-14.5-15.1c-2.6-5.7,3.6-15.4-1.6-15.6
		c-12.3-0.4-31.7,23.3-35.2,12c-3.4-11.4,4.8-21.2,1.8-21.9c-3-0.6-14.3,0.4-16.4,2.5c-1.8,2.1-16.6-1.7-15.4-9.5
		c1.4-7.6-9.5-12.4-18.2-6.7c-8.7,5.7-9.3,33.4-16,32S386.2-2.9,376.1,4c-6.1,4.2,0.8,20.4,3.8,32.8c1.8,8-1,14.5-0.2,14.9
		c0.8,0.4,4.8,9.5,9.9,10.7c3.8,1.1,7.9,5.9,11.5,5c4.6-1.1,8.1-8,8.1-8s13.7,15.8,17.6,9.7C430.9,63.1,428.8,37,428.8,37z"/>
	
		<linearGradient id="SVGID_19_" gradientUnits="userSpaceOnUse" x1="1018.4868" y1="845.6454" x2="1018.4868" y2="924.7435" gradientTransform="matrix(1 0 0 -1 0 964.9664)">
		<stop  offset="0" style="stop-color:#FFFFFF"/>
		<stop  offset="1" style="stop-color:#666E83"/>
	</linearGradient>
	<path class="st19" d="M1026.2,107.3c2.8-3.9,9.5,0.6,13.6-3.7c4-4.4,10.1-7,14-5c3.6,2.1,6.5-3.1,8.7-5.6c2.4-2.3,9.3,0.6,11.3,2.5
		c2,1.9,13.3-1.7,15.4-3.5c2-1.9,15.8-12,16.4-16.8c0.4-2.7-23.5-0.6-26.1-5.8c-1.8-3.9,2.6-10.8-1.2-11
		c-8.7-0.2-22.7,16.4-25.1,8.5c-2.4-7.9,3.4-14.9,1.4-15.3c-2.2-0.4-10.3,0.4-11.7,1.9c-1.4,1.5-11.9-1.2-10.9-6.6
		c1-5.4-6.9-8.7-13-4.8c-6.3,3.9-6.7,23.6-11.5,22.4c-4.9-1-13.2,3.3-20.2,8.1c-4.5,2.9-57.7,4.4-55.7,13.1
		c0.4,2.1,6.1,15.3,14,18.2c5.3,2.1,11.7-10.6,18-10.8c10.1,0,20.2,11.6,26.1,12.8c0.6,0.2,3.4,6.6,7.1,7.7c2.6,0.6,5.7,4.1,8.3,3.5
		c3.2-0.8,5.9-5.6,5.9-5.6s9.7,11.2,12.6,6.8C1026.4,114,1026.2,107.3,1026.2,107.3z"/>
	
		<linearGradient id="SVGID_20_" gradientUnits="userSpaceOnUse" x1="966.9026" y1="877.5762" x2="966.9026" y2="1050.6757" gradientTransform="matrix(1 0 0 -1 0 964.9664)">
		<stop  offset="0" style="stop-color:#FFFFFF"/>
		<stop  offset="1" style="stop-color:#666E83"/>
	</linearGradient>
	<path class="st20" d="M1171.7,15.8c0,0,9.5,10.1-5.5,21.7s-31,26.1-36.9,12.6c-5.9-13.5-10.1-18.7-16-14.1
		c-6.1,4.6-16.8,7.8-20.5,1.7c-3.4-5.9,6.3-12-5.3-13c-11.6-1.1-11.6,7.4-21.1,6.9c-9.3-0.4-10.1-5.9-13.2-7.6
		c-2.8-1.9-13.8,2.1-21.5-0.8c-7.7-2.9-11.6-1.1-14,4.4c-2.6,5.5-9.9,9.5-16.6,10.3c-6.5,1.1-13.8,10.9-16.8,13.3
		c-3,2.3-15,7.4-18.9-0.8c-3.9-8.2-12.4-12.4-16-9c-3.4,3.4-18.7,9.3-25.6,17.9c-6.9,8.4-20.5,1.3-24.3,7.4
		c-3.9,6.1-16.8,17.9-25.1,20c-8.3,2.3-31.2,0.6-34.9-10.7c-3.7-11.4,4.5-25-13.6-20.4c-18,4.6-81.7,11.4-88.6,1.7
		c-6.7-9.5,1-30.5,11.6-36.4c10.5-5.7,35.5-7.8,23.5-22.5c-12.2-14.7-19.3-28-15.6-39.1c3.7-11.2,12.2-17.5,37.1-20.4
		c24.9-2.9,70.2,4.8,89.4,9.3c19.3,4.4,20.1-9,22.9-16.4c3-7.4,34.9-12.8,63.1-16.6c28.2-4,40.8,18.5,61.1,21
		c20.3,2.3,74.8-18.5,80.3-17c5.5,1.5,17.6,11.6,17.6,19.8c-0.2,8.4,6.3,6.9,20.5,8.4c14.2,1.5,24.7,5.5,23.1,16.2
		c-1.8,10.9,8.3,11.6,17.4,19.4c9.1,7.8,15.2,8.2,2.2,15.8c-13,7.6-12.2,13-6.3,17C1191.8,19.6,1171.7,15.8,1171.7,15.8z"/>
	
		<linearGradient id="SVGID_21_" gradientUnits="userSpaceOnUse" x1="509.0964" y1="951.4111" x2="509.0964" y2="1045.6652" gradientTransform="matrix(1 0 0 -1 0 964.9664)">
		<stop  offset="0" style="stop-color:#FFFFFF"/>
		<stop  offset="1" style="stop-color:#666E83"/>
	</linearGradient>
	<path class="st21" d="M459.5,2c0,0-4.6,6.5,8.5,2.1c13.1-4.4,5.4,0.4,11.5,2.7c5.8,2.3,16.3-1,17.9-4.8c1.6-3.8,8.5-2.1,13.7,3.3
		c5.2,5.4,8.5-5.4,18.1-9c9.7-3.6,15.3-11.3,29.4-9.6c14.1,1.7,20.2,3.1,25.4-2.3c5.2-5.4-2.2-15.5,11.3-18.2
		c13.5-2.5,16.7-2.7,18.7-11.3c2-8.8,27.2-10.2-5.8-20.7S582-85.4,557-78c-25,7.3-28.6,5.6-42.3,2.3c-13.7-3.3-21.8-6.9-25.2,0.6
		c-3.2,7.5-20.2,7.7-33.3,4.6c-12.9-3.1-20.4-6.5-24.2,0c-3.8,6.5-4.2,25.7-19.4,32.8c-15.3,7.1-23.2,21.1-18.1,27.4
		c5,6.3,20.6,23.4,24.8,18.4c4.2-4.8,12.3-15.5,14.7-0.6C436.5,22.3,456.4,5.4,459.5,2z"/>
	
		<linearGradient id="SVGID_22_" gradientUnits="userSpaceOnUse" x1="347.8971" y1="880.9376" x2="347.8971" y2="976.8312" gradientTransform="matrix(1 0 0 -1 0 964.9664)">
		<stop  offset="0" style="stop-color:#FFFFFF"/>
		<stop  offset="1" style="stop-color:#666E83"/>
	</linearGradient>
	<path class="st22" d="M473.1-11.3c-1.6,11.7,3.2,24.8-1.8,29.2c-5.1,4.4-32.4,12.7-37.2,8.3c-4.9-4.4-21.5-11.5-27.1-5.8
		c-5.9,5.8-12.1,18.3-21.2,13.5c-9.1-4.8-23.7,1.5-33.4,12.1c-9.7,10.6-19.6,1.9-36-19.4c0,0,3.2,44.4-3.4,55
		c-6.9,10.6-30.4-16.5-30.4-16.5s-6.1,11.9-14,13.7c-6.1,1.5-13.4-6.9-19.8-8.5c-8.5-2.3-15.6-17.7-17-18.3
		c-1.4-0.6,3.4-11.7,0.4-25.4c-2.8-12.3-8.3-27.1-9.9-38.3h250.9C473.1-11.8,473.1-11.6,473.1-11.3z"/>
	
		<linearGradient id="SVGID_23_" gradientUnits="userSpaceOnUse" x1="1170.8224" y1="917.9103" x2="1170.8224" y2="1051.0615" gradientTransform="matrix(1 0 0 -1 0 964.9664)">
		<stop  offset="0" style="stop-color:#FFFFFF"/>
		<stop  offset="1" style="stop-color:#666E83"/>
	</linearGradient>
	<path class="st23" d="M1278,28.5c-2.8,2.5-6.3,4.7-10.3,5.3c-3.8,0.6-8.3-4.7-13-5.3c-5.1-0.6-12.2,8.3-18.2,10.2
		c-4.1,1.3-7.7-5.3-9.9-3.6c-5.5,4.2-2,9.1-5.3,11c-6.7,3.6-11.1-3.4-20.7-13.4c-4.3-4.5-9.5,4.7-14.6,1.7c-1.2-0.6-3.4-9.8-5.7-11
		c-2.6-1.5-5.5,4.9-6.7,3.2c-3.4-4.9-1.4-9.8-3.6-8.3c-4.5,3-2.8-4.5-7.7-9.3c-2.6-2.5-10.5-0.4-14-4c-6.3-6.6-9.5-15.7-17.2-19.5
		c-4.7-2.3-10.7,0.8-20.2-2.1c-25.1-7.6-14.6-11.7-37.3-39c-22.9-27.4-0.6-14.6,5.7-21c6.1-6.4,8.9-4.7,21.7,0.6
		c12.8,5.3,11.8-7.6,19-9.3s11.7,3,22.9,12.3c11.1,9.3,20,5.9,30.2,8.3c10.1,2.3,18.4-5.3,20,2.3c1.6,7.6,6.7,12.9,10.1,10.6
		c3.5-2.3,14,0.6,17.8,5.9c3.8,5.3-5.1,5.3,8.3,8.7c13.4,3.6,6.1,6.4,6.1,6.4c4.4-1.3,30.2-4.7,24.5,9.3c-5.7,14,6.7,9.3,12.8,7.6
		c2-0.6,3.7,1.5,5.3,4.7V28.5L1278,28.5z"/>
	
		<linearGradient id="SVGID_24_" gradientUnits="userSpaceOnUse" x1="636.442" y1="1220.4135" x2="636.442" y2="940.8635" gradientTransform="matrix(1 0 0 -1 0 964.9664)">
		<stop  offset="0" style="stop-color:#FFFFFF"/>
		<stop  offset="1" style="stop-color:#5F5E7C"/>
	</linearGradient>
	<path class="st24" d="M353.7-38.2c3.4-3.8-2.6-53.9-7.7-57.7c-26.7-21.7,3.2-35.9,7.7-44.4c4.3-8.5,3-1.5,3.8,4.5
		c0.8,5.9,2.2,7.6,3.4-1.9c1.2-9.6,1.8-12.1,4-10.2c2.2,1.9,2.4,0.6,2.8-7.4c0.4-8.1,4-19.7,8.9-20.6c4.9-0.6,7.9-9.6,12.7-18
		c4.9-8.5,4.7-20.6,16.2-28.9c11.5-8.5,5.1,7.4,9.9,20.6c5.1,13.2,6.3,2.5,7.3-1.5c1-4,8.3-1.3,8.9,0c1.8,3.6,5.1,5.1,7.3-2.1
		c2.2-7.4,4.2-1.5,12.5,5.1c8.3,6.6,6.7,10.2,6.7,1.5c0-8.7,23.9-3.4,23.3-5.1c-0.4-1.9-2.2-3.4-0.2-8.7c2-5.1,4.9-1.5,5.9,0.4
		c1,1.9,0.6,0.6,3.8,5.7c3.2,5.1,5.9,1.9,5.9-0.6c0-2.5-2.8-17,0.2-19.7c3-3,7.3-5.3,9.9-6.2c2.6-0.6,8.7,9.1,9.1,2.3
		c0.4-6.6,4.3-6.6,7.1-6.6c2.8,0,4-4.5,6.9-12.5c2.8-8.1,5.9-5.5,12.5,0c6.7,5.5,9.1,5.5,14.4,4.7c5.3-0.6,5.1,2.1,7.5,4
		c2.4,1.9,2-1.1,5.1,0c2.8,1.1,0.6,15.1,2,11.7c1.4-3.4,6.3-5.9,9.7-6.2c3.4-0.4,7.3,3.4,11.1,4.5c3.8,1.1,4.9,3.6,7.5,10
		c2.8,6.2,6.3,12.5,9.1,19.1c2.8,6.6,8.9,9.1,9.5,5.7c0.6-3.4,8.3,6.6,11.1,5.5c2.8-1.1,6.3,5.9,8.5,7s4,0,3.8,5.1
		c-0.2,5.1,7.7,8.9,8.3,12.3c1.4,7.2-1,4,2.6,3.6c3.6-0.4,8.1,6.8,12.3,6.8s5.1,1.9,5.3,5.1c0.4,3.4,7.5-0.4,7.7,2.1
		c0.4,2.5,3.4,1.9,6.5,0.6c3-1.1,2.8,0.4,2.6-4.2c-0.2-4.7,5.1-0.4,6.7,2.8c1.8,3.4-1.8,5.7,1.2,4.7c3-1.1,3.8,0.8,4.7-2.8
		c0.6-3.6,2,0.4,4.7-1.5c2.6-1.9-4.3-4-2.4-11.9c2-7.6,5.7-14.2,8.9-12.7c3.2,1.5,2.6,6.2,3.4,4.5c0.8-1.9,8.7,3.4,9.3,2.1
		c0.6-1.1,3.4,0.4,4.9,4.5c1.4,4,9.1,15.5,11.1,17c2,1.5,3-0.8,5.1-10.4c2-9.6,5.3-10.2,6.3-10.6c1-0.4,9.7-4.2,10.7,1.3
		c1,5.5,6.1,2.1,7.7-1.5c1.6-3.6,4.3-1.5,6.7,4.5c2.6,5.9,2.8,8.5,2.8,8.5c9.9,10.6,7.9-1.7,11.9,5.5c4,7.4,12.3,1.3,13.8,3.4
		c1.2,2.1,6.9,1.3,7.9,3.4c1,2.1,11.1,7.4,10.9,11.9c-0.2,4.5-21,13.4-20,12.9c1-0.4,4.9-0.4,5.5,3.8c0.6,4.2,3.4,0.4,4.3,0.2
		c0.8-0.4,3.6,0,4.7,2.5c1.2,2.5,1.6,6.6,2.8,7.4c1.2,0.6,1.8,1.9,1.2,4.7c-0.4,2.8,0.4,2.8,1.2,6.8c0.8,4,2,3.4,5.5,3.4
		s7.5-5.9,7.7-4c0.4,1.9,2.8,4.7,3.4,5.7s2,1.5,2.4,0.4c0.4-1.1,3.4,1.9,3.6,4.7c0.4,3,1.8,1.9,1.8,1.9s3.4,0,4.3,2.8
		c0.8,2.8,3.2,1.7,5.1,0.6c2-1.1,2.6-0.4,6.3,0c3.7,0.4,6.5,5.9,6.5,5.9c0.6,1.1,1.8,2.1,2.4-5.7c0.2-1.9,7.7-4.7,13.3,0
		c1.8,1.5,1.2,5.5,1.8,11.3c0.4,4,4.7,2.1,4.7,2.1c4.3-1.9,7.3-2.5,17.4,10.8c10.1,13.6,12.8,25,25.5,30.8
		c12.1,5.5-15.8,13.4-20.6,44.8H380.2c-4.7-11.3-7.7-22.9-19.4-31.4C328.4-30.6,350.2-34.4,353.7-38.2z"/>
	
		<linearGradient id="SVGID_25_" gradientUnits="userSpaceOnUse" x1="300.3425" y1="1035.3892" x2="300.3425" y2="966.4854" gradientTransform="matrix(1 0 0 -1 0 964.9664)">
		<stop  offset="0" style="stop-color:#FFFFFF"/>
		<stop  offset="1" style="stop-color:#5F5E7C"/>
	</linearGradient>
	<path class="st25" d="M227.3,1c1-7.4-1.8-16.1,1-18.8c3-2.9,18.9-8.3,21.7-5.4c2.8,2.9,12.4,7.4,15.8,3.7
		c3.4-3.7,7.1-11.8,12.4-8.7c5.3,3.1,13.8-1,19.5-7.8c5.7-7,11.4-1.2,20.9,12.6c0,0-1.8-28.7,2-35.5c3.9-6.8,17.6,10.5,17.6,10.5
		s3.4-7.6,8.1-8.9c3.7-0.8,7.7,4.5,11.6,5.6c4.9,1.4,9.1,11.6,9.7,12c0.8,0.4-2,7.6-0.2,16.5c2.2,10.7,7.1,24.2,6.1,31.6h-140
		C229.9,5.3,226.9,3.2,227.3,1z"/>
	
		<linearGradient id="SVGID_26_" gradientUnits="userSpaceOnUse" x1="653.3687" y1="892.3581" x2="653.3687" y2="998.0547" gradientTransform="matrix(1 0 0 -1 0 964.9664)">
		<stop  offset="0" style="stop-color:#FFFFFF"/>
		<stop  offset="1" style="stop-color:#5F5E7C"/>
	</linearGradient>
	<path class="st26" d="M882.5-2.1c-3.6,10.5,7.1,12.8,15.8,21.9c8.5,9.1,15,10.5,0,16c-15,5.5-15,11-9.3,16c5.7,5.1-15-1.9-15-1.9
		s8.5,11.4-9.3,20.6c-18,9.1-37.3,21.1-41.5,6.9c-4.3-14.1-7.9-20-15-16.4c-7.1,3.6-19.4,5.1-22.3-1.5c-2.8-6.3,8.5-11-3.6-13.7
		c-12.2-2.7-13.6,5.5-23.7,3.6c-10.1-1.9-10.1-7.4-13-9.7c-2.8-2.3-15,0-22.9-4.2c-7.9-4.2-12.2-2.7-15.8,2.3s-12.2,7.8-19.4,7.8
		c-7.1,0-16.4,8.6-20.1,10.5c-3.6,1.9-17.2,5.1-20.1-3.6s-11.5-14.1-15.8-11.4c-4.3,2.7-21.5,6.3-30.2,13.7
		c-8.5,7.4-22.3-1.9-27.3,3.6c-5.1,5.5-20.9,15-30.2,16c-9.3,0.8-33.6-4-35.9-16c-2.2-11.8,8.5-24.2-11.5-22.3
		c-20.1,1.9-89.7-1.3-95.4-11.8s5.7-30.1,18-34.3c10.1-3.4,31-2.7,31.2-12h409.6c0.2,0,0.4,0,0.6,0.2
		C875.4-18.1,886.1-12.6,882.5-2.1z"/>
	
		<linearGradient id="SVGID_27_" gradientUnits="userSpaceOnUse" x1="1070.0707" y1="798.5892" x2="1070.0707" y2="1038.9116" gradientTransform="matrix(1 0 0 -1 0 964.9664)">
		<stop  offset="0" style="stop-color:#FFFFFF"/>
		<stop  offset="1" style="stop-color:#666E83"/>
	</linearGradient>
	<path class="st27" d="M1267.7,139.9c-7.1,7.2-19,9.7-21.9-2.8c-2.8-12.5,8.5-21.4-3.4-26.7c-12.1-5.3-13.6,10.6-23.3,7.2
		c-9.9-3.6-9.9-14.2-12.8-18.6c-2.8-4.4-14.8,0-22.7-8.1c-7.7-8.1-11.9-5.3-15.6,4.4c-3.4,9.7-11.9,15-19,15
		c-7.1,0-16.2,17-19.8,20.3c-3.6,3.6-17,9.7-19.8-7.2c-2.8-17-11.3-27.5-15.6-22.3c-4.3,5.3-21.3,12.5-29.8,26.7s-21.9-3.6-26.9,7.2
		c-2,4.4-13.8,7-18.2,12.5c-6.3,7.6-6.3,17.6-11.5,18.6c-4.3,0.8-11.3-23.1-18.2-27.3c-8.3-4.9-16,8.9-17.2-3.8
		c-2-23.1,8.5-47-11.3-43.4c-9.9,1.7-32,20.3-52.4,16.7c-9.9-1.7-9.1-11.7-16.6-19.7c-4.3-4.7-11.1,4.2-16.4,0.6
		c-4.5-3-8.1-18.4-8.7-20.8c-1.8-6.6-7.3-18.4-5.7-32c0.6-5.9,8.9-12.1,8.9-18.4c0-7.8,7.1-15.7,6.7-22.7c-1-14.6-9.7-26.1-5.3-29
		c11.9-8.1,31,12.7,41.5-0.8c9.1-11.9,5.9-25.9,0.6-39.6h366.4v228.9C1276.4,139.9,1273.2,134.4,1267.7,139.9z"/>
	
		<linearGradient id="SVGID_28_" gradientUnits="userSpaceOnUse" x1="121.4119" y1="1018.8268" x2="121.4119" y2="956.6451" gradientTransform="matrix(1 0 0 -1 0 964.9664)">
		<stop  offset="0" style="stop-color:#FFFFFF"/>
		<stop  offset="1" style="stop-color:#666E83"/>
	</linearGradient>
	<path class="st28" d="M52,1.5C66.1-0.2,70-9.1,78.7-14.9c8.7-5.7,9.5-17,15.8-13c6.3,4,13.3,4,14.2,0c0.8-4,10.1-9.9,16.4-9
		c6.3,0.8,0,7.4,11.7,0c11.7-7.4,8.7,0,8.7,0c2.4-4,18-25.2,23.5-11.4c5.5,13.9,10.9,1.7,14.2-4c3-5.7,22,7.4,28.3,12.2
		c6.3,4.8,1.6,20.4-11.7,30.9c-6.1,4.8-8.5,11.4-9.7,17.7H28.7C32.4,2.9,38.8,2.9,52,1.5z"/>
	
		<linearGradient id="SVGID_29_" gradientUnits="userSpaceOnUse" x1="120.6056" y1="894.1091" x2="120.6056" y2="978.138" gradientTransform="matrix(1 0 0 -1 0 964.9664)">
		<stop  offset="0" style="stop-color:#FFFFFF"/>
		<stop  offset="1" style="stop-color:#666E83"/>
	</linearGradient>
	<path class="st29" d="M244.7-3.2c3.8,3.2-2.6,6.4,0.6,9.2c7.1,6.2,22.2,11.3,22.4,14.8c0.6,10.7,9.7,24.6,4.2,27.4
		c-2.2,1.3-4,7.5-11.7,5.6c-5.7-1.5-17-11.1-22.2-11.8c-4.8-0.6-8.9,6.6-10.9,4.9c-7.3-5.6-29.5-16.5-35.5-12.4
		c-6.1,4.1-11.1,14.6-23.6,7.7c-12.5-6.9-29.5-4.5-39.4,3.4c-6.3,4.9-6.7,2.4-18.4-6.4c-1.8-1.5-5.9,5.1-9.9,3.4
		c-3.6-1.5-7.1-11.3-9.1-13.1c-3.8-3.4-7.3-8.6-12.3-6.2c0,0-1.4,5.8,1.4,17.8c2.8,11.8,9.7,24.4,6.7,28.5c-2.8,3.9-7.1-5.1-16.2-9
		c-4.2-1.7-13.5,4.1-17,1.3C48.7,57.7,45,46.3,45,46.3s-4.8,10.1-14.3,9.6c-7.5-0.2-18.4-9.8-26.9-13.1C-7.5,38.6-20,21.9-21.6,21
		c-1.8-1.1,1.8-10.3-5.5-24.4c-1.6-3.2-3.6-6.6-5.5-10.1h260.9c0.4,1.1,1,2.1,1.8,3C232-7.7,242.1-5.3,244.7-3.2z"/>
	
		<linearGradient id="SVGID_30_" gradientUnits="userSpaceOnUse" x1="800.8672" y1="853.9731" x2="800.8672" y2="885.9047" gradientTransform="matrix(1 0 0 -1 0 964.9664)">
		<stop  offset="0" style="stop-color:#FFFFFF"/>
		<stop  offset="1" style="stop-color:#666E83"/>
	</linearGradient>
	<path class="st30" d="M787.4,95.5c0,0-1.6,0.4,1.2,1.5c2.8,1.1,0.8,0.9,1.6,2.1c0.6,1.3,2.8,2.1,3.7,1.9c0.8-0.4,1.6,0.9,1.8,2.6
		c0.2,1.7,2.2,0.2,4.3,1.1c2,0.9,4.1,0.4,6.3,2.8c2.2,2.4,3,3.4,4.7,3.4c1.6-0.2,1.8-3,4.3-1.5c2.6,1.5,3.3,1.9,4.7,0.9
		c1.4-1.3,5.9,2.4,1.8-4.5c-4.3-6.6-1.8-7.3-6.9-9.6c-5.3-2.4-5.7-3.2-7.5-5.8s-2.8-4.5-4.3-3.6c-1.6,0.9-4.5-1.7-6.3-4.1
		c-1.8-2.4-2.4-4.1-4.1-3.6c-1.6,0.6-4.3,3.8-7.7,2.8c-3.5-1.1-6.7,0.2-6.7,1.9c0,1.7,0.4,7.1,1.6,6.8c1.4-0.2,4.1-0.9,2.6,2.1
		C780.7,95.7,786.4,95.7,787.4,95.5z"/>
	
		<linearGradient id="SVGID_31_" gradientUnits="userSpaceOnUse" x1="1178.6818" y1="640.6656" x2="-217.05" y2="640.6608" gradientTransform="matrix(1 0 0 -1 0 964.9664)">
		<stop  offset="0" style="stop-color:#FEFEFE;stop-opacity:0"/>
		<stop  offset="1" style="stop-color:#FFFFFF"/>
	</linearGradient>
	<rect x="-186.5" y="321.8" class="st31" width="1302.9" height="5"/>
	
		<linearGradient id="SVGID_32_" gradientUnits="userSpaceOnUse" x1="74.4945" y1="566.1737" x2="256.6486" y2="369.8577" gradientTransform="matrix(1 0 0 -1 0 964.9664)">
		<stop  offset="0" style="stop-color:#FEFEFE"/>
		<stop  offset="1" style="stop-color:#BFBFBF"/>
	</linearGradient>
	<path class="st32" d="M-15.3,434.3l-27.1,12.4c-3.5,1.6-5.7,5.1-5.7,8.9c0,5.4,4.4,9.8,9.8,9.8h330.2c5.6,0,10.1-4.5,10.1-10.1
		c0-3.7-2-7.1-5.2-8.9l-22.9-12.6c-2.4-1.3-5-2-7.7-2h-23.5c-4.3,0-8.4,1.7-11.4,4.8l-7.8,7.9c-3,3.1-7.1,4.8-11.4,4.8h-25.9
		c-2,0-4.1-0.4-6-1.1l-40.7-16.3L106,419.7c-4.7-1.7-9.9-1.1-14.1,1.6l-37.4,24c-3.9,2.5-8.8,3.2-13.3,1.9L-4,433.5
		C-7.7,432.4-11.7,432.7-15.3,434.3z"/>
	
		<linearGradient id="SVGID_33_" gradientUnits="userSpaceOnUse" x1="741.8937" y1="619.3372" x2="776.2368" y2="235.9782" gradientTransform="matrix(1 0 0 -1 0 964.9664)">
		<stop  offset="0" style="stop-color:#FEFEFE"/>
		<stop  offset="1" style="stop-color:#BFBFBF"/>
	</linearGradient>
	<path class="st33" d="M511.2,396.4c-20.7,15.5-52.5,39.3-66.1,49.5c-4,3-6.3,7.6-6.3,12.6v7.5c0,8.8,7.2,16,16,16h595
		c8.8,0,16-7.2,16-16v-7.8c0-4.8-2.1-9.3-5.9-12.3c-18.5-14.8-48.2-37.2-53.9-36.2c-8,1.4-63.8,41-73.1,41
		c-9.3,0-108.9-19.1-124.9-28.7c-15.9-9.6-93-30-101-30c-8,0-59.8,34.1-71.7,30c-8.9-3.1-73.6-19.1-110.9-28.3
		C519.9,392.6,515,393.6,511.2,396.4z"/>
	
		<linearGradient id="SVGID_34_" gradientUnits="userSpaceOnUse" x1="518.6354" y1="319.7101" x2="518.6354" y2="600.1592" gradientTransform="matrix(1 0 0 -1 0 964.9664)">
		<stop  offset="0" style="stop-color:#FFFFFF"/>
		<stop  offset="1" style="stop-color:#666E83"/>
	</linearGradient>
	<path class="st34" d="M-129.9,335.2c-5.1,1.9-9.8,3.8-14.3,5.7v172.2c2.3,0.2,2.9,2.3,3.7,7.8c1.2,7.6,10.4,18.9,23.1,19.5
		c12.7,0.6,20.7,9,33.1,17c12.7,8,6.8,17.8,37,25.8c30.3,8,18.4-5.5,31.5-17.8c13.1-12.6,6.3-2.7,8.8,1c2.5,3.8,10.4,0.8,11.3-0.8
		c0.8-1.7,6.1-9.2,13.7-1.5c7.6,7.6,7.6,4.2,8,2.7c0.4-1.5,13.1-4.8,18.8,2.1c5.9,6.9,10.8,1.5,32.7-4.8c21.9-6.3,17.6-9.6,17.6-1.5
		c0,8.4,8,6.3,19.6,8c11.7,1.7,22.3-11.7,23.5-4.8s18.8,0,17.6,1.7c-1.2,1.7,0.4,5,5.5,9.9c5.1,4.8,7.2,2.7,9.6,1
		c2.5-1.7,1.2-3.6,9.6-8.4c8.4-4.8,15.1-1.7,15.1,0.6c0,2.5,9.2,15.3,17.2,18s8.8,12.6,15.6,13.2c6.8,0.6,7.2-10.5,9.6-13.6
		c2.5-3.1,6.3-1.7,7.6,4.6c1.2,6.3,11.3,6.3,18.4,6.3s10.4,4.2,18,11.7c7.6,7.6,15.1,5.2,32.7,0c17.6-5.2,23.5-5.2,37.4-4.6
		c13.9,0.6,13.1-2.1,19.2-3.8c6.3-1.7,5.5,1,13.1,0c7.6-1,1.6-14.3,5.5-11.1c3.7,3.1,16.4,5.7,25.2,5.9c8.8,0.4,18.8-3.1,29.1-4.2
		c10-1,12.7-3.6,19.6-9.4c7.2-5.9,9.6-12.8,16.8-19.1c7.2-6.3,23.1-15.7,24.8-12.6c1.6,3.1,9.2,4.6,14.3,2.7c5.1-1.7,14.3-1,21.9,0
		c7.6,1,10-0.6,13.1-3.1c2.9-2.5,3.3-2.5,9.2-3.6c5.9-1,10.4,0,10-4.8c-0.4-4.8,0-8.6,8-6.7c8,2.1,7.6,2.5,10.4-4.6
		c2.9-6.9,5.9-3.1,15.1-2.7c9.2,0.4,9.6,0.6,9.6-4.6s5.9-3.1,17.2-3.1c11.3,0,13.1-1.7,13.9-4.8c0.8-3.1,19.2,0.4,20.3-2.1
		c0.8-2.5,8.8-1.7,16.8-0.6c8,1,0.4,3.8,0,8.4c-0.4,4.6,1.2,10.1,5.9,6.9c4.7-3.1,2.9-7.8,10.8-6.7c8,1,16.4,1.5,18,5
		c1.6,3.6,10.4,5.7,17.2,7.3c6.8,1.7,2,14.9,7.2,22.2c5.1,7.3,14.7,13.6,23.1,12.2c8.4-1.5,6.8-5.9,8.8-4.2c2,1.7,5.1,3.1,11.7,0
		c6.8-3.1,10.8-3.1,12.7-2.1c1.6,1,8.8-0.4,12.7-4.2c3.7-3.8,9.6-3.8,15.1-5.2c5.5-1.5,18.4-3.8,23.5,5.2c5.1,9,7.6,8.4,10,8.6
		c2.5,0.4,9.6-4.2,10,1.5c0.4,5.7,10.8,8.6,13.5,3.6c2.5-5.2,16-2.1,20.3,1.5c4.3,3.6,21.9,14.9,28.4,9.4c6.8-5.7,7.2-8,7.2-8
		c25.6-10.1,5.5-18.5,16-25.4c10.4-6.9,16-34,19.2-36.1c3.3-2.1,8,0,10.4-2.1c2.5-2.1,7.2-3.8,6.8-8c-0.4-4.2,8.4-6.3,10.9-5.9
		c2.4,0.4,12.7,0.4,14.3-3.8c1.6-4,8.8-0.4,10.8-0.2c2.1,0.4,9.2,0,12.3-2.5c2.9-2.5,4.3-6.3,7.2-6.9c2.9-0.6,4.7-1.7,3.3-4.4
		c-1.2-2.5,1.2-2.5,3.3-6.5c2-3.8,5.5-3.1,14.3-3.1s8,7.1,20.3,3.8c2.3-0.6,7.2-4.6,8.8-5.5c1.6-0.8,5.5-1.5,6.3-0.4
		c0.8,1,6.3,0,6.3,0s2.5-1.7,3.3-4.4c0.8-2.7,4.7-1.7,4.7-1.7s3.7,0,5.5,1.5c1.6,1.5,3.3-1.5,5.5-4c2-2.5,9.2-3.4,13.5-0.6
		c20.3,13.4,29.1,5,36.8,1.5V335.2H-129.9z"/>
	
		<linearGradient id="SVGID_35_" gradientUnits="userSpaceOnUse" x1="1084.5679" y1="447.8263" x2="1084.5679" y2="644.8087" gradientTransform="matrix(1 0 0 -1 0 964.9664)">
		<stop  offset="0" style="stop-color:#FFFFFF"/>
		<stop  offset="1" style="stop-color:#666E83"/>
	</linearGradient>
	<path class="st35" d="M992.8,415.4c1.4,11.8-2,25.3,2,30c4.1,4.6,19.3,44.7,23.2,40.3c3.9-4.4,19.5-41.8,24.2-35.9
		c4.7,6.1,13,18.8,20.1,14.1c6.9-4.9,18.5,2.1,26.4,13.3c7.9,11.2,8.3,30,20.9,8.4c0,0,5.3,17.9,10.8,28.9c5.5,11,23.6-16,23.6-16
		s26.2,16.5,32.5-9.7v-94.7c-10.8-8.6-21.8-14.6-28.5-12.7c-8.9,2.5-10.8-46.2-22.6-56.5c-12-10.3-26.4-2.3-24.4,11.2
		c2,13.3-17.7,19.4-20.3,15.8c-2.6-3.8-18.1-6.1-22.2-5.3c-4.1,0.8,7.5,18.8,3.3,38.4c-4.3,19.6-31.3-22.8-48-22.6
		C997,362.6,991.3,403.6,992.8,415.4z"/>
	
		<linearGradient id="SVGID_36_" gradientUnits="userSpaceOnUse" x1="696.9649" y1="457.8418" x2="696.9649" y2="569.6877" gradientTransform="matrix(1 0 0 -1 0 964.9664)">
		<stop  offset="0" style="stop-color:#FFFFFF"/>
		<stop  offset="1" style="stop-color:#666E83"/>
	</linearGradient>
	<path class="st36" d="M715.3,473.8c-9.6,12.3-15.5,17.5-21.2,11.3c-5.7-6.3-14.3-9.8-19.6-7.1c-5.3,2.9-9-4.4-12.5-7.9
		c-3.5-3.3-13.1,0.8-15.9,3.3c-2.9,2.5-18.8-2.3-21.8-4.8c-3.1-2.5-0.2-10.2-1-16.9c-0.6-3.8,11.2-7.7,14.7-15
		c2.7-5.6-3.7-15.2,1.6-15.5c12.5-0.4,32,23.2,35.5,11.9c3.5-11.3-4.9-21.1-1.8-21.7c3.1-0.6,14.5,0.4,16.5,2.5
		c1.8,2.1,16.7-1.7,15.5-9.4c-1.4-7.5,9.6-12.3,18.4-6.7c8.8,5.6,9.4,33.2,16.1,31.7c6.7-1.5,18.6,4.6,28.8,11.5
		c6.1,4.2-0.8,20.3-3.9,32.6c-1.8,7.9,1,14.4,0.2,14.8c-0.8,0.4-4.9,9.4-10,10.7c-3.9,1-8,5.8-11.6,5c-4.7-1-8.2-7.9-8.2-7.9
		s-13.9,15.7-17.8,9.6C713.3,499.7,715.3,473.8,715.3,473.8z"/>
	
		<linearGradient id="SVGID_37_" gradientUnits="userSpaceOnUse" x1="119.6371" y1="409.4317" x2="119.6371" y2="487.9997" gradientTransform="matrix(1 0 0 -1 0 964.9664)">
		<stop  offset="0" style="stop-color:#FFFFFF"/>
		<stop  offset="1" style="stop-color:#666E83"/>
	</linearGradient>
	<path class="st37" d="M111.8,543.6c-2.9-3.9-9.6,0.6-13.7-3.7c-4.1-4.3-10.2-7-14.1-4.9c-3.7,2.1-6.5-3.1-8.8-5.6
		c-2.5-2.3-9.4,0.6-11.4,2.5c-2,1.9-13.5-1.6-15.5-3.5c-2-1.9-15.9-11.9-16.6-16.7c-0.4-2.7,23.7-0.6,26.4-5.8
		c1.8-3.9-2.7-10.7,1.2-10.9c8.8-0.2,22.9,16.3,25.4,8.4c2.5-7.8-3.5-14.8-1.4-15.2c2.2-0.4,10.4,0.4,11.9,1.9
		c1.4,1.4,12.1-1.2,11-6.6c-1-5.4,7-8.6,13.1-4.7c6.3,3.9,6.7,23.5,11.7,22.2c4.9-1,13.3,3.3,20.4,8c4.5,2.9,58.3,4.3,56.2,13
		c-0.4,2.1-6.1,15.2-14.1,18.1c-5.3,2.1-11.9-10.5-18.2-10.7c-10.2,0-20.4,11.5-26.4,12.8c-0.6,0.2-3.5,6.6-7.2,7.6
		c-2.7,0.6-5.7,4.1-8.4,3.5c-3.3-0.8-5.9-5.6-5.9-5.6s-9.8,11.1-12.7,6.8C111.6,550.2,111.8,543.6,111.8,543.6z"/>
	
		<linearGradient id="SVGID_38_" gradientUnits="userSpaceOnUse" x1="171.7514" y1="441.149" x2="171.7514" y2="613.0914" gradientTransform="matrix(1 0 0 -1 0 964.9664)">
		<stop  offset="0" style="stop-color:#FFFFFF"/>
		<stop  offset="1" style="stop-color:#666E83"/>
	</linearGradient>
	<path class="st38" d="M-35.2,452.7c0,0-9.6,10,5.5,21.5c15.2,11.5,31.3,25.9,37.3,12.5c5.9-13.4,10.2-18.6,16.2-14
		c6.1,4.6,17,7.7,20.7,1.7c3.5-5.9-6.4-11.9,5.3-13c11.7-1,11.7,7.3,21.3,6.9c9.4-0.4,10.2-5.9,13.3-7.5c2.9-1.9,13.9,2.1,21.7-0.8
		c7.8-2.9,11.7-1,14.1,4.4c2.7,5.4,10,9.4,16.8,10.2c6.6,1,13.9,10.9,17,13.2c3.1,2.3,15.2,7.3,19.1-0.8s12.5-12.3,16.2-9
		c3.5,3.3,18.9,9.2,25.8,17.8c7,8.4,20.7,1.3,24.6,7.3c3.9,6.1,17,17.8,25.4,19.9c8.4,2.3,31.6,0.6,35.2-10.7
		c3.7-11.3-4.5-24.9,13.7-20.3c18.2,4.6,82.6,11.3,89.5,1.7c6.8-9.4-1-30.3-11.7-36.2c-10.7-5.6-35.9-7.7-23.8-22.4
		c12.3-14.6,19.5-27.8,15.8-38.9c-3.7-11.1-12.3-17.4-37.5-20.3c-25.2-2.9-70.9,4.8-90.4,9.2c-19.5,4.4-20.3-9-23.2-16.3
		c-3.1-7.3-35.2-12.8-63.7-16.5c-28.5-4-41.2,18.4-61.7,20.9c-20.5,2.3-75.6-18.4-81.1-16.9C21,357.8,8.7,367.8,8.7,376
		c0.2,8.4-6.4,6.9-20.7,8.4c-14.3,1.5-25,5.4-23.4,16.1c1.8,10.9-8.4,11.5-17.6,19.2c-9.2,7.7-15.4,8.2-2.3,15.7
		c13.1,7.5,12.3,13,6.4,16.9C-55.4,456.5-35.2,452.7-35.2,452.7z"/>
	
		<linearGradient id="SVGID_39_" gradientUnits="userSpaceOnUse" x1="634.2657" y1="514.4901" x2="634.2657" y2="608.1141" gradientTransform="matrix(1 0 0 -1 0 964.9664)">
		<stop  offset="0" style="stop-color:#FFFFFF"/>
		<stop  offset="1" style="stop-color:#666E83"/>
	</linearGradient>
	<path class="st39" d="M684.4,439c0,0,4.7,6.4-8.6,2.1c-13.2-4.4-5.5,0.4-11.6,2.7c-5.9,2.3-16.5-1-18.1-4.8
		c-1.6-3.7-8.6-2.1-13.8,3.3c-5.3,5.4-8.6-5.4-18.3-8.9c-9.8-3.5-15.5-11.2-29.7-9.5c-14.3,1.7-20.4,3.1-25.7-2.3
		c-5.3-5.4,2.2-15.4-11.4-18.1c-13.6-2.5-16.9-2.7-18.9-11.2c-2-8.7-27.5-10.2,5.9-20.6c33.4-10.4,26.5-19.5,51.7-12.2
		c25.3,7.3,28.9,5.6,42.8,2.3c13.8-3.3,22-6.9,25.5,0.6c3.3,7.5,20.4,7.7,33.6,4.6c13-3.1,20.6-6.4,24.4,0
		c3.9,6.4,4.3,25.5,19.6,32.6c15.5,7.1,23.4,21,18.3,27.2c-5.1,6.2-20.8,23.3-25,18.3c-4.3-4.8-12.4-15.4-14.9-0.6
		C707.6,459.1,687.5,442.3,684.4,439z"/>
	
		<linearGradient id="SVGID_40_" gradientUnits="userSpaceOnUse" x1="96.8369" y1="817.7301" x2="96.8369" y2="585.6921" gradientTransform="matrix(1 0 0 -1 0 964.9664)">
		<stop  offset="0" style="stop-color:#FFFFFF"/>
		<stop  offset="1" style="stop-color:#666E83"/>
	</linearGradient>
	<path class="st40" d="M219.1,216.9c-11.6-0.2-13.3,2.5-14.3,6.9c-0.8,4.4-19.8-0.4-20.6,2.9c-0.8,3.4-9,2.5-17.2,1
		c-8.2-1.5-0.4-5.5,0-11.7s-1.2-14.1-6.1-9.9c-4.7,4.4-3.1,10.9-11.2,9.4c-8.2-1.5-16.8-2.1-18.6-6.9c-1.6-4.8-10.8-7.8-17.8-10.3
		c-6.9-2.5-2.2-21-7.4-31.3c-5.1-10.3-15.1-19.1-23.7-17c-8.6,1.9-6.9,8.4-9,5.9c-2.2-2.5-5.1-4.4-12.1,0c-6.7,4.2-11,4.2-12.9,2.7
		c-1.6-1.5-9,0.4-12.9,5.9c-3.9,5.5-10,5.5-15.5,7.3c-5.5,1.9-19,5.5-24.1-7.3c-5.1-12.6-7.8-11.7-10.4-12.2
		c-2.7-0.4-10,5.9-10.4-1.9c-0.4-7.8-11.2-12.2-13.9-4.8c-2.7,7.3-16.3,2.9-20.6-1.9c-4.3-4.8-11.2-1.9-18.2,5.9
		c-6.9,7.8-7.4,11.1-7.4,11.1c-26.4,14.1-5.5,25.8-16.3,35.7c-10.8,9.9-16.3,47.8-19.8,50.8c-3.5,2.9-8.2,0-10.8,2.9
		c-2.7,2.9-7.4,5.5-6.9,11.1c0.2,3.1-2.5,5.5-5.1,6.9v105.3h475.3l6.7-9C335.6,366,288,217.5,219.1,216.9z"/>
	
		<linearGradient id="SVGID_41_" gradientUnits="userSpaceOnUse" x1="844.3498" y1="806.8511" x2="844.3498" y2="641.5862" gradientTransform="matrix(1 0 0 -1 0 964.9664)">
		<stop  offset="0" style="stop-color:#FFFFFF"/>
		<stop  offset="1" style="stop-color:#666E83"/>
	</linearGradient>
	<path class="st41" d="M1181.5,336.9c-1.2-1-2.4-3.8-3.7-8.4c-3.1-12.8-4.7-16.1-10.8-13.6s-6.5,1-7.8-9.9
		c-1.2-10.7-10.8-26.4-23.9-27.5s-21.3-12.8-34.2-23.9c-13.1-11.3-12.5-27.5-43.8-38.6c-31.3-11.3-13.5,9.9-26.8,27.5
		c-13.5,17.6-17,3.4-19.4-1.9c-2.7-5.4-5.7-2.5-6.5,0c-0.8,2.5-1.2,14.7-9,4c-7.8-10.7-7.8-5.9-8.2-4c-0.4,1.9-13.5,6.9-19.4-2.9
		c-6.1-9.9-11.3-1.9-33.8,6.9c-22.5,8.8-18.2,13.6-18.2,1.9c0-11.7-8.2-8.8-20.4-11.3c-12.1-2.5-22.9,16.6-24.3,6.9
		c-1.2-9.9-19.4,0-18.2-2.5c1.2-2.5-3.1-17.6-8.2-24.5c-5.1-6.9-4.7-4-7.4-1.5c-2.7,2.5-1.2,15.7-10,22.4c-8.6,6.9-15.5,2.5-15.5-1
		c0-3.4-9.6-21.6-17.8-25.4c-8.2-4-9-17.6-16-18.7c-7-1-7.4,14.7-10,19.1c-2.7,4.4-6.5,2.5-7.8-6.3s-11.7-8.8-19-8.8
		s-10.8-5.9-18.6-16.6s-15.5-7.3-33.8,0s-24.3,7.3-38.7,6.3c-14.3-1-13.5,2.9-19.8,5.4c-6.5,2.5-5.7-1.5-13.5,0
		c-7.8,1.5-1.6,20.1-5.7,15.7c-3.9-4.4-17-7.8-26-8.4c-9-0.4-19.4,4.4-29.9,5.9c-10.4,1.5-13.1,4.8-20.5,13.2
		c-7.4,8.4-10,18-17.4,26.8c-2.7,3.1-6.3,6.9-10.2,10.1v83.4H1181.5z"/>
	
		<linearGradient id="SVGID_42_" gradientUnits="userSpaceOnUse" x1="797.1234" y1="444.4875" x2="797.1234" y2="539.7396" gradientTransform="matrix(1 0 0 -1 0 964.9664)">
		<stop  offset="0" style="stop-color:#FFFFFF"/>
		<stop  offset="1" style="stop-color:#666E83"/>
	</linearGradient>
	<path class="st42" d="M670.7,425.7c1.6,11.6-3.3,24.6,1.8,29c5.1,4.3,32.7,12.6,37.6,8.3c4.9-4.3,21.7-11.4,27.4-5.8
		c5.9,5.8,12.3,18.2,21.5,13.5c9.2-4.8,23.9,1.4,33.7,12c9.8,10.6,19.8,1.9,36.4-19.2c0,0-3.3,44.1,3.5,54.6
		c6.9,10.6,30.7-16.3,30.7-16.3s6.1,11.8,14.1,13.7c6.1,1.4,13.5-6.8,20-8.5c8.6-2.3,15.7-17.6,17.2-18.2c1.4-0.6-3.5-11.6-0.4-25.2
		c2.9-12.2,8.4-26.9,10-38.1H670.7C670.7,425.3,670.7,425.5,670.7,425.7z"/>
	
		<linearGradient id="SVGID_43_" gradientUnits="userSpaceOnUse" x1="-34.2626" y1="481.2131" x2="-34.2626" y2="613.4741" gradientTransform="matrix(1 0 0 -1 0 964.9664)">
		<stop  offset="0" style="stop-color:#FFFFFF"/>
		<stop  offset="1" style="stop-color:#666E83"/>
	</linearGradient>
	<path class="st43" d="M-142.6,465.3c2.9,2.5,6.3,4.6,10.4,5.3c3.9,0.6,8.4-4.6,13.1-5.3c5.1-0.6,12.3,8.2,18.4,10.1
		c4.1,1.3,7.8-5.3,10-3.6c5.5,4.2,2,9.1,5.3,11c6.8,3.6,11.3-3.4,20.9-13.3c4.3-4.4,9.6,4.6,14.7,1.7c1.2-0.6,3.5-9.7,5.7-11
		c2.7-1.5,5.5,4.8,6.8,3.2c3.5-4.8,1.4-9.7,3.7-8.2c4.5,2.9,2.9-4.4,7.8-9.3c2.7-2.5,10.6-0.4,14.1-4c6.3-6.5,9.6-15.6,17.4-19.4
		c4.7-2.3,10.8,0.8,20.5-2.1c25.4-7.6,14.7-11.6,37.6-38.8c23.1-27.2,0.6-14.5-5.7-20.9c-6.1-6.3-9-4.6-21.9,0.6
		c-12.9,5.3-11.9-7.6-19.2-9.3c-7.4-1.7-11.9,2.9-23.1,12.2c-11.3,9.3-20.3,5.9-30.5,8.2c-10.2,2.3-18.6-5.3-20.3,2.3
		c-1.6,7.6-6.8,12.8-10.2,10.5c-3.5-2.3-14.1,0.6-18,5.9c-3.9,5.3,5.1,5.3-8.4,8.6c-13.5,3.6-6.1,6.3-6.1,6.3
		c-4.5-1.3-30.5-4.6-24.8,9.3c5.7,13.9-6.8,9.3-12.9,7.6c-2-0.6-3.7,1.5-5.3,4.6V465.3L-142.6,465.3z"/>
	
		<linearGradient id="SVGID_44_" gradientUnits="userSpaceOnUse" x1="505.6077" y1="781.6945" x2="505.6077" y2="504.0125" gradientTransform="matrix(1 0 0 -1 0 964.9664)">
		<stop  offset="0" style="stop-color:#FFFFFF"/>
		<stop  offset="1" style="stop-color:#666E83"/>
	</linearGradient>
	<path class="st44" d="M791.3,399c-3.5-3.8,2.7-53.6,7.8-57.4c27-21.5-3.3-35.6-7.8-44.1c-4.3-8.4-3.1-1.5-3.9,4.4
		c-0.8,5.9-2.2,7.6-3.5-1.9c-1.2-9.5-1.8-12-4.1-10.1c-2.2,1.9-2.5,0.6-2.9-7.4c-0.4-8-4.1-19.6-9-20.5c-4.9-0.6-8-9.5-12.9-17.9
		c-4.9-8.4-4.7-20.5-16.4-28.7c-11.7-8.4-5.1,7.4-10,20.5c-5.1,13.1-6.3,2.5-7.4-1.5c-1-4-8.4-1.3-9,0c-1.8,3.6-5.1,5.1-7.4-2.1
		c-2.2-7.4-4.3-1.5-12.7,5.1c-8.4,6.5-6.7,10.1-6.7,1.5s-24.1-3.4-23.5-5.1c0.4-1.9,2.2-3.4,0.2-8.6c-2-5.1-4.9-1.5-5.9,0.4
		c-1,1.9-0.6,0.6-3.9,5.7c-3.3,5.1-5.9,1.9-5.9-0.6c0-2.5,2.9-16.9-0.2-19.6c-3.1-3-7.4-5.3-10-6.1c-2.7-0.6-8.8,9.1-9.2,2.3
		c-0.4-6.5-4.3-6.5-7.2-6.5c-2.9,0-4.1-4.4-7-12.4c-2.9-8-5.9-5.5-12.7,0c-6.7,5.5-9.2,5.5-14.5,4.6c-5.3-0.6-5.1,2.1-7.6,4
		s-2-1.1-5.1,0c-2.9,1.1-0.6,15-2,11.6c-1.4-3.4-6.3-5.9-9.8-6.1c-3.5-0.4-7.4,3.4-11.2,4.4c-3.9,1.1-4.9,3.6-7.6,9.9
		c-2.9,6.1-6.3,12.4-9.2,19c-2.9,6.5-9,9.1-9.6,5.7s-8.4,6.5-11.2,5.5c-2.9-1.1-6.3,5.9-8.6,7c-2.2,1.1-4.1,0-3.9,5.1
		c0.2,5.1-7.8,8.9-8.4,12.2c-1.4,7.2,1,4-2.7,3.6c-3.7-0.4-8.2,6.7-12.5,6.7c-4.3,0-5.1,1.9-5.3,5.1c-0.4,3.4-7.6-0.4-7.8,2.1
		c-0.4,2.5-3.5,1.9-6.5,0.6c-3.1-1.1-2.9,0.4-2.7-4.2c0.2-4.6-5.1-0.4-6.7,2.7c-1.8,3.4,1.8,5.7-1.2,4.6c-3.1-1.1-3.9,0.8-4.7-2.7
		c-0.6-3.6-2,0.4-4.7-1.5c-2.7-1.9,4.3-4,2.5-11.8c-2-7.6-5.7-14.1-9-12.7c-3.3,1.5-2.7,6.1-3.5,4.4c-0.8-1.9-8.8,3.4-9.4,2.1
		c-0.6-1.1-3.5,0.4-4.9,4.4c-1.4,4-9.2,15.4-11.2,16.9c-2,1.5-3.1-0.8-5.1-10.3c-2-9.5-5.3-10.1-6.3-10.5c-1-0.4-9.8-4.2-10.8,1.3
		c-1,5.5-6.1,2.1-7.8-1.5c-1.6-3.6-4.3-1.5-6.7,4.4c-2.7,5.9-2.9,8.4-2.9,8.4c-10,10.5-8-1.7-12.1,5.5c-4.1,7.4-12.5,1.3-13.9,3.4
		c-1.2,2.1-7,1.3-8,3.4c-1,2.1-11.2,7.4-11,11.8c0.2,4.4,21.3,13.3,20.2,12.9c-1-0.4-4.9-0.4-5.5,3.8c-0.6,4.2-3.5,0.4-4.3,0.2
		c-0.8-0.4-3.7,0-4.7,2.5c-1.2,2.5-1.6,6.5-2.9,7.4c-1.2,0.6-1.8,1.9-1.2,4.6c0.4,2.7-0.4,2.7-1.2,6.7c-0.8,4-2,3.4-5.5,3.4
		s-7.6-5.9-7.8-4c-0.4,1.9-2.9,4.6-3.5,5.7c-0.6,1.1-2,1.5-2.5,0.4c-0.4-1.1-3.5,1.9-3.7,4.6c-0.4,3-1.8,1.9-1.8,1.9s-3.5,0-4.3,2.7
		s-3.3,1.7-5.1,0.6c-2-1.1-2.7-0.4-6.3,0c-3.7,0.4-6.5,5.9-6.5,5.9c-0.6,1.1-1.8,2.1-2.5-5.7c-0.2-1.9-7.8-4.6-13.5,0
		c-1.8,1.5-1.2,5.5-1.8,11.2c-0.4,4-4.7,2.1-4.7,2.1c-4.3-1.9-7.4-2.5-17.6,10.8c-10.2,13.5-12.9,24.9-25.8,30.6
		c-12.3,5.5,15.9,13.3,20.9,44.5h539.5c4.7-11.2,7.8-22.8,19.6-31.2C816.9,406.6,794.8,402.8,791.3,399z"/>
	
		<linearGradient id="SVGID_45_" gradientUnits="userSpaceOnUse" x1="845.1676" y1="597.9071" x2="845.1676" y2="529.4644" gradientTransform="matrix(1 0 0 -1 0 964.9664)">
		<stop  offset="0" style="stop-color:#FFFFFF"/>
		<stop  offset="1" style="stop-color:#666E83"/>
	</linearGradient>
	<path class="st45" d="M919,438c-1-7.4,1.8-16-1-18.7c-3.1-2.9-19.1-8.2-21.9-5.3c-2.9,2.9-12.5,7.4-16,3.7
		c-3.5-3.7-7.2-11.7-12.5-8.6c-5.3,3.1-13.9-1-19.7-7.8c-5.7-7-11.5-1.2-21.1,12.5c0,0,1.8-28.5-2-35.3
		c-3.9-6.8-17.8,10.5-17.8,10.5s-3.5-7.6-8.2-8.8c-3.7-0.8-7.8,4.5-11.7,5.5c-4.9,1.4-9.2,11.5-9.8,11.9c-0.8,0.4,2,7.6,0.2,16.4
		c-2.3,10.7-7.2,24-6.1,31.4h141.4C916.3,442.3,919.4,440.2,919,438z"/>
	
		<linearGradient id="SVGID_46_" gradientUnits="userSpaceOnUse" x1="488.5086" y1="455.8321" x2="488.5086" y2="560.8221" gradientTransform="matrix(1 0 0 -1 0 964.9664)">
		<stop  offset="0" style="stop-color:#FFFFFF"/>
		<stop  offset="1" style="stop-color:#666E83"/>
	</linearGradient>
	<path class="st46" d="M257,435c3.7,10.5-7.2,12.8-16,21.8c-8.6,9-15.1,10.5,0,15.9c15.1,5.4,15.1,10.9,9.4,15.9
		c-5.7,5,15.1-1.9,15.1-1.9s-8.6,11.3,9.4,20.5c18.2,9,37.7,20.9,42,6.9c4.3-14,8-19.9,15.1-16.3c7.2,3.6,19.6,5,22.5-1.5
		c2.9-6.3-8.6-10.9,3.7-13.6s13.7,5.4,23.9,3.6c10.2-1.9,10.2-7.3,13.1-9.6s15.1,0,23.1-4.2c8-4.2,12.3-2.7,16,2.3
		c3.7,5,12.3,7.7,19.6,7.7c7.2,0,16.6,8.6,20.3,10.5c3.7,1.9,17.4,5,20.3-3.6s11.7-14,16-11.3c4.3,2.7,21.7,6.3,30.5,13.6
		c8.6,7.3,22.5-1.9,27.6,3.6c5.1,5.4,21.1,14.9,30.5,15.9c9.4,0.8,34-4,36.2-15.9c2.3-11.7-8.6-24.1,11.7-22.2
		c20.3,1.9,90.7-1.3,96.4-11.7c5.7-10.5-5.7-29.9-18.2-34.1c-10.2-3.3-31.3-2.7-31.5-11.9H280c-0.2,0-0.4,0-0.6,0.2
		C264.2,419.1,253.4,424.5,257,435z"/>
	
		<linearGradient id="SVGID_47_" gradientUnits="userSpaceOnUse" x1="67.5225" y1="362.6903" x2="67.5225" y2="601.4061" gradientTransform="matrix(1 0 0 -1 0 964.9664)">
		<stop  offset="0" style="stop-color:#FFFFFF"/>
		<stop  offset="1" style="stop-color:#666E83"/>
	</linearGradient>
	<path class="st47" d="M-132.1,575.9c7.2,7.2,19.2,9.7,22.1-2.7s-8.6-21.3,3.5-26.5c12.3-5.3,13.7,10.5,23.5,7.2
		c10-3.6,10-14.1,12.9-18.5s14.9,0,22.9-8c7.8-8,12.1-5.3,15.7,4.4c3.5,9.7,12.1,14.9,19.2,14.9c7.2,0,16.4,16.8,20,20.2
		c3.7,3.6,17.2,9.7,20-7.2c2.9-16.8,11.5-27.4,15.7-22.1c4.3,5.3,21.5,12.4,30.1,26.5c8.6,14.1,22.1-3.6,27.2,7.2
		c2,4.4,13.9,6.9,18.4,12.4c6.3,7.6,6.3,17.5,11.7,18.5c4.3,0.8,11.5-22.9,18.4-27.2c8.4-4.8,16.2,8.8,17.4-3.8
		c2-22.9-8.6-46.7,11.5-43.2c10,1.7,32.3,20.2,53,16.6c10-1.7,9.2-11.6,16.8-19.6c4.3-4.6,11.2,4.2,16.6,0.6
		c4.5-2.9,8.2-18.3,8.8-20.6c1.8-6.5,7.4-18.3,5.7-31.8c-0.6-5.9-9-12-9-18.3c0-7.8-7.2-15.6-6.7-22.5c1-14.5,9.8-25.9,5.3-28.8
		c-12.1-8-31.3,12.6-41.9-0.8c-9.2-11.8-5.9-25.7-0.6-39.4h-370.2v227.3C-140.9,575.9-137.6,570.5-132.1,575.9z"/>
	
		<linearGradient id="SVGID_48_" gradientUnits="userSpaceOnUse" x1="1025.9373" y1="581.4551" x2="1025.9373" y2="519.6898" gradientTransform="matrix(1 0 0 -1 0 964.9664)">
		<stop  offset="0" style="stop-color:#FFFFFF"/>
		<stop  offset="1" style="stop-color:#666E83"/>
	</linearGradient>
	<path class="st48" d="M1096.1,438.5c-14.3-1.7-18.2-10.4-27-16.3c-8.8-5.6-9.6-16.9-15.9-13c-6.3,4-13.5,4-14.3,0
		c-0.8-4-10.2-9.8-16.6-9c-6.3,0.8,0,7.3-11.8,0c-11.8-7.3-8.8,0-8.8,0c-2.4-4-18.2-25.1-23.7-11.3c-5.5,13.8-11,1.7-14.3-4
		c-3.1-5.6-22.3,7.3-28.6,12.1c-6.3,4.8-1.6,20.3,11.8,30.7c6.1,4.8,8.6,11.3,9.8,17.5h162.8
		C1115.9,439.9,1109.4,439.9,1096.1,438.5z"/>
	
		<linearGradient id="SVGID_49_" gradientUnits="userSpaceOnUse" x1="1026.7505" y1="457.5711" x2="1026.7505" y2="541.0381" gradientTransform="matrix(1 0 0 -1 0 964.9664)">
		<stop  offset="0" style="stop-color:#FFFFFF"/>
		<stop  offset="1" style="stop-color:#666E83"/>
	</linearGradient>
	<path class="st49" d="M901.3,433.9c-3.9,3.2,2.7,6.4-0.6,9.1c-7.1,6.2-22.4,11.3-22.7,14.7c-0.6,10.6-9.8,24.5-4.3,27.2
		c2.2,1.3,4.1,7.4,11.8,5.5c5.7-1.5,17.1-11.1,22.4-11.7c4.9-0.6,9,6.6,11,4.9c7.3-5.5,29.8-16.4,35.9-12.3
		c6.1,4,11.2,14.5,23.9,7.7c12.7-6.8,29.8-4.5,39.8,3.4c6.3,4.9,6.7,2.3,18.6-6.4c1.8-1.5,5.9,5.1,10,3.4c3.7-1.5,7.1-11.3,9.2-13
		c3.9-3.4,7.3-8.5,12.4-6.2c0,0,1.4,5.7-1.4,17.7c-2.9,11.7-9.8,24.2-6.7,28.3c2.9,3.8,7.1-5.1,16.3-8.9c4.3-1.7,13.7,4,17.1,1.3
		c5.3-4.3,9-15.5,9-15.5s4.9,10,14.5,9.6c7.6-0.2,18.6-9.8,27.1-13c11.4-4.3,24.1-20.8,25.7-21.7c1.8-1.1-1.8-10.2,5.5-24.3
		c1.6-3.2,3.7-6.6,5.5-10H917.9c-0.4,1.1-1,2.1-1.8,3C914.2,429.4,904,431.7,901.3,433.9z"/>
	
		<linearGradient id="SVGID_50_" gradientUnits="userSpaceOnUse" x1="850.866" y1="551.0841" x2="850.866" y2="607.9321" gradientTransform="matrix(1 0 0 -1 0 964.9664)">
		<stop  offset="0" style="stop-color:#FFFFFF"/>
		<stop  offset="1" style="stop-color:#666E83"/>
	</linearGradient>
	<path class="st50" d="M854.3,396.6c-6.7,3.1-10.4,3.9-11.4,0c-1-3.9-3.9-7.4-6.7-7.4c-2.8,0-2.8-3.9-3.7-6.2
		c-0.8-2.3-5.7-2.7-7.5-2.3c-1.8,0.4-7.5-5.1-8.1-7c-0.8-1.6,2.2-4.3,3.3-7.4c1-3.1,8.1-11.7,13.6-9c5.3,2.7,8.6,16.8,12.4,12.9
		c3.9-3.9,2.4-10.1,3.9-9.4c1.4,0.4,6.1,3.5,6.5,4.7c0.4,1.2,7.5,3.1,8.5-0.4c1-3.5,6.7-3.1,9.4,1.2c2.4,4.3-3.3,16,0,16.8
		c3.3,0.8,6.9,6.2,9.8,11.3c2.9,5.1-1.2,19.1-11.8,19.1c-1,0-7.9-8.2-13.8-8.2c-5.9,0-9.8,8.2-10,4.7
		C847.7,406.9,854.3,396.6,854.3,396.6z"/>
	
		<linearGradient id="SVGID_51_" gradientUnits="userSpaceOnUse" x1="707.551" y1="606.1981" x2="707.551" y2="664.7171" gradientTransform="matrix(1 0 0 -1 0 964.9664)">
		<stop  offset="0" style="stop-color:#FFFFFF"/>
		<stop  offset="1" style="stop-color:#666E83"/>
	</linearGradient>
	<path class="st51" d="M710.9,341c-6.7,3.2-10.4,4-11.4,0c-1-4-3.9-7.6-6.7-7.6s-2.8-4-3.7-6.3c-0.8-2.3-5.7-2.7-7.5-2.3
		c-1.8,0.4-7.5-5.3-8.1-7.2c-0.8-1.7,2.2-4.4,3.3-7.6c1-3.2,8.1-12,13.6-9.3c5.3,2.7,8.5,17.3,12.4,13.3c3.9-4,2.4-10.4,3.9-9.7
		c1.4,0.4,6.1,3.6,6.5,4.9c0.4,1.3,7.5,3.2,8.5-0.4c1-3.6,6.7-3.2,9.4,1.3c2.4,4.4-3.3,16.5,0,17.3c3.3,0.8,6.9,6.3,9.8,11.6
		c2.8,5.3-1.2,19.7-11.8,19.7c-1,0-7.9-8.5-13.8-8.5c-5.9,0-9.8,8.5-10,4.9C704.4,351.6,710.9,341,710.9,341z"/>
	
		<linearGradient id="SVGID_52_" gradientUnits="userSpaceOnUse" x1="350.894" y1="560.9691" x2="350.894" y2="619.4881" gradientTransform="matrix(1 0 0 -1 0 964.9664)">
		<stop  offset="0" style="stop-color:#FFFFFF"/>
		<stop  offset="1" style="stop-color:#666E83"/>
	</linearGradient>
	<path class="st52" d="M354.3,386.1c-6.7,3.2-10.4,4-11.4,0c-1-4-3.9-7.6-6.7-7.6c-2.9,0-2.9-4-3.7-6.3c-0.8-2.3-5.7-2.7-7.5-2.3
		c-1.8,0.4-7.5-5.3-8.1-7.2c-0.8-1.7,2.2-4.4,3.3-7.6c1-3.2,8.1-12,13.6-9.3c5.3,2.7,8.6,17.3,12.4,13.3c3.9-4,2.4-10.4,3.9-9.7
		c1.4,0.4,6.1,3.6,6.5,4.9c0.4,1.3,7.5,3.2,8.6-0.4s6.7-3.2,9.4,1.3c2.4,4.4-3.3,16.5,0,17.3c3.3,0.8,6.9,6.3,9.8,11.6
		c2.9,5.3-1.2,19.7-11.8,19.7c-1,0-7.9-8.5-13.8-8.5c-5.9,0-9.8,8.5-10,4.9C347.8,396.9,354.3,386.1,354.3,386.1z"/>
	
		<linearGradient id="SVGID_53_" gradientUnits="userSpaceOnUse" x1="529.2214" y1="589.9251" x2="529.2234" y2="625.2241" gradientTransform="matrix(1 0 0 -1 0 964.9664)">
		<stop  offset="0" style="stop-color:#FFFFFF"/>
		<stop  offset="1" style="stop-color:#666E83"/>
	</linearGradient>
	<path class="st53" d="M549.7,368.4c0,0,2.2,1.9-2.9,1.5c-5.1-0.4-1.8,0.6-3.9,2.1c-1.8,1.2-5.9,1-6.7,0c-0.8-1.2-3.3,0-4.5,2.5
		c-1.4,2.3-3.5-1-7.1-1.5c-3.7-0.4-6.5-2.5-11.2-0.6c-4.9,1.9-6.9,2.9-9.2,1.7c-2.2-1.5-0.6-5.6-5.5-5.2c-5.1,0.4-6.1,0.6-7.6-2.3
		c-1.4-2.9-10.6-1,0.2-7.7c10.8-6.7,7.6-9.4,17.2-8.9c9.6,0.2,10.6-0.6,15.3-3.1c4.5-2.5,7.1-4.4,9-2.1c1.8,2.3,7.8,0.8,12.3-1.5
		c4.3-2.3,6.5-4.2,8.6-2.3c2,1.9,3.7,8.5,9.8,9.8c6.1,1,10,5.2,8.8,7.9c-1.2,2.7-5.3,10-7.1,8.7c-2-1.2-5.7-4.2-5.3,1
		C559.7,373.4,551.1,369.2,549.7,368.4z"/>
	
		<linearGradient id="SVGID_54_" gradientUnits="userSpaceOnUse" x1="339.4941" y1="417.7031" x2="339.4941" y2="449.4205" gradientTransform="matrix(1 0 0 -1 0 964.9664)">
		<stop  offset="0" style="stop-color:#FFFFFF"/>
		<stop  offset="1" style="stop-color:#666E83"/>
	</linearGradient>
	<path class="st54" d="M353.1,531.9c0,0,1.6,0.4-1.2,1.5c-2.9,1.1-0.8,0.9-1.6,2.1c-0.6,1.3-2.9,2.1-3.7,1.9
		c-0.8-0.4-1.6,0.9-1.8,2.5c-0.2,1.7-2.3,0.2-4.3,1.1c-2.1,0.8-4.1,0.4-6.4,2.8c-2.3,2.3-3.1,3.4-4.7,3.4c-1.6-0.2-1.8-3-4.3-1.5
		c-2.7,1.5-3.3,1.9-4.7,0.8c-1.4-1.3-6,2.3-1.8-4.5c4.3-6.6,1.8-7.2,7-9.6c5.3-2.3,5.7-3.2,7.6-5.7c1.8-2.6,2.9-4.5,4.3-3.6
		c1.6,0.8,4.5-1.7,6.4-4c1.8-2.3,2.5-4,4.1-3.6c1.6,0.6,4.3,3.8,7.8,2.8c3.5-1.1,6.8,0.2,6.8,1.9c0,1.7-0.4,7-1.6,6.8
		c-1.4-0.2-4.1-0.8-2.7,2.1C359.8,532.1,354.1,532.1,353.1,531.9z"/>
	
		<linearGradient id="SVGID_55_" gradientUnits="userSpaceOnUse" x1="12.1513" y1="457.6731" x2="12.1513" y2="489.3904" gradientTransform="matrix(1 0 0 -1 0 964.9664)">
		<stop  offset="0" style="stop-color:#FFFFFF"/>
		<stop  offset="1" style="stop-color:#666E83"/>
	</linearGradient>
	<path class="st55" d="M25.7,492c0,0,1.6,0.4-1.2,1.5s-0.8,0.9-1.6,2.1c-0.6,1.3-2.9,2.1-3.7,1.7c-0.8-0.4-1.6,0.8-1.8,2.5
		c-0.2,1.7-2.3,0.2-4.3,1.1c-2.1,0.9-4.1,0.4-6.4,2.8c-2.3,2.3-3.1,3.4-4.7,3.4c-1.6-0.2-1.8-3-4.3-1.5c-2.7,1.5-3.3,1.9-4.7,0.8
		c-1.4-1.3-6,2.3-1.8-4.5c4.3-6.6,1.8-7.2,7-9.6c5.3-2.3,5.7-3.2,7.6-5.7c1.8-2.5,2.9-4.5,4.3-3.6c1.6,0.9,4.5-1.7,6.4-4
		c1.8-2.3,2.5-4,4.1-3.6c1.6,0.6,4.3,3.8,7.8,2.8c3.5-1.1,6.8,0.2,6.8,1.9c0,1.7-0.4,7-1.6,6.8c-1.4-0.2-4.1-0.9-2.7,2.1
		C32.3,492,26.7,492,25.7,492z"/>
	
		<linearGradient id="SVGID_56_" gradientUnits="userSpaceOnUse" x1="60.1943" y1="562.5391" x2="60.1933" y2="634.4671" gradientTransform="matrix(1 0 0 -1 0 964.9664)">
		<stop  offset="0" style="stop-color:#FFFFFF"/>
		<stop  offset="1" style="stop-color:#666E83"/>
	</linearGradient>
	<path class="st56" d="M72.1,380.9c-6.2,8-9.9,11.3-13.7,7.4c-3.7-4-9.3-6.3-12.8-4.6c-3.5,1.9-5.8-2.9-8.1-5
		c-2.3-2.1-8.5,0.4-10.4,2.1c-1.9,1.7-12.2-1.5-14.1-3.1c-1.9-1.7-0.2-6.5-0.8-10.9c-0.4-2.5,7.2-5,9.5-9.7c1.7-3.6-2.5-9.9,1-10.1
		c8.1-0.2,20.9,14.9,23.2,7.8c2.3-7.1-3.1-13.7-1.2-14.1c2.1-0.4,9.5,0.2,10.8,1.7c1.2,1.3,11-1,9.9-6.1c-0.8-4.8,6.2-8,12-4.4
		c5.8,3.6,6.2,21.4,10.6,20.4c4.3-1.1,12,2.9,18.6,7.4c3.9,2.7-0.6,13-2.5,21c-1.2,5.3,0.6,9.2,0.2,9.7c-0.4,0.2-3.1,6.1-6.4,6.9
		c-2.5,0.6-5.2,3.8-7.5,3.2c-3.1-0.6-5.4-5.3-5.4-5.3S76.2,405,73.5,401C70.9,397.5,72.1,380.9,72.1,380.9z"/>
	
		<linearGradient id="SVGID_57_" gradientUnits="userSpaceOnUse" x1="564.2373" y1="651.1941" x2="564.2373" y2="723.1231" gradientTransform="matrix(1 0 0 -1 0 964.9664)">
		<stop  offset="0" style="stop-color:#FFFFFF"/>
		<stop  offset="1" style="stop-color:#666E83"/>
	</linearGradient>
	<path class="st57" d="M575.7,292.2c-6.1,8-9.8,11.3-13.4,7.4c-3.7-4-9.2-6.3-12.4-4.6c-3.5,1.9-5.7-2.9-7.9-5
		c-2.2-2.1-8.3,0.4-10.2,2.1c-1.8,1.7-12-1.5-13.8-3.2c-1.8-1.7-0.2-6.5-0.8-10.9c-0.4-2.5,7.1-5,9.4-9.7c1.6-3.6-2.4-9.9,1-10.1
		c7.9-0.2,20.6,14.9,22.8,7.8c2.2-7.1-3.1-13.7-1.2-14.1c2-0.4,9.4,0.2,10.6,1.7c1.2,1.3,10.8-1,9.8-5.9c-0.8-4.8,6.1-8,11.8-4.4
		c5.7,3.6,6.1,21.4,10.4,20.4c4.3-1,11.8,2.9,18.3,7.4c3.9,2.7-0.6,13-2.4,21c-1.2,5.3,0.6,9.2,0.2,9.7c-0.4,0.2-3.1,6.1-6.3,6.9
		c-2.4,0.6-5.1,3.8-7.3,3.2c-3.1-0.6-5.3-5.3-5.3-5.3s-8.8,10.1-11.4,6.1C574.5,309,575.7,292.2,575.7,292.2z"/>
	
		<linearGradient id="SVGID_58_" gradientUnits="userSpaceOnUse" x1="1100.8513" y1="554.2231" x2="1100.8513" y2="626.1531" gradientTransform="matrix(1 0 0 -1 0 964.9664)">
		<stop  offset="0" style="stop-color:#FFFFFF"/>
		<stop  offset="1" style="stop-color:#666E83"/>
	</linearGradient>
	<path class="st58" d="M1112.5,389.2c-6.2,8-9.9,11.3-13.7,7.4c-3.7-4-9.3-6.3-12.6-4.6c-3.5,1.9-5.8-2.9-8.1-5
		c-2.3-2.1-8.5,0.4-10.4,2.1c-1.9,1.7-12.2-1.5-14.1-3.2c-1.9-1.7-0.2-6.5-0.8-10.9c-0.4-2.5,7.2-5,9.5-9.7c1.7-3.6-2.5-9.9,1-10.1
		c8.1-0.2,20.9,14.9,23.2,7.8c2.3-7.1-3.1-13.7-1.2-14.1c2.1-0.4,9.5,0.2,10.8,1.7c1.2,1.3,11-1.1,9.9-6.1c-0.8-4.8,6.2-8,12-4.4
		c5.8,3.6,6.2,21.4,10.6,20.4c4.3-1,12,2.9,18.6,7.4c3.9,2.7-0.6,13-2.5,21c-1.2,5.3,0.6,9.2,0.2,9.7c-0.4,0.2-3.1,6.1-6.4,6.9
		c-2.5,0.6-5.2,3.8-7.7,3.2c-3.1-0.6-5.4-5.3-5.4-5.3s-8.9,10.1-11.6,6.1C1111.3,405.8,1112.5,389.2,1112.5,389.2z"/>
	
		<linearGradient id="SVGID_59_" gradientUnits="userSpaceOnUse" x1="272.7083" y1="323.2811" x2="272.7083" y2="194.0332" gradientTransform="matrix(1 0 0 -1 0 964.9664)">
		<stop  offset="0" style="stop-color:#FFFFFF"/>
		<stop  offset="1" style="stop-color:#666E83"/>
	</linearGradient>
	<path class="st59" d="M543,781.5c-1-0.8-2-3-3-6.6c-2.5-10-3.8-12.6-8.7-10.7c-4.9,2-5.2,0.8-6.2-7.7c-1-8.4-8.7-20.7-19.2-21.5
		c-10.5-0.8-17.1-10-27.4-18.7c-10.5-8.9-10-21.5-35.1-30.2c-25.1-8.9-10.8,7.7-21.5,21.5c-10.8,13.8-13.6,2.6-15.6-1.5
		c-2.1-4.3-4.6-2-5.2,0c-0.7,2-1,11.5-7.2,3.1c-6.2-8.4-6.2-4.6-6.6-3.1c-0.3,1.5-10.8,5.4-15.6-2.3c-4.9-7.7-9-1.5-27.1,5.4
		c-18,6.9-14.6,10.7-14.6,1.5s-6.6-6.9-16.4-8.9c-9.7-2-18.4,12.9-19.5,5.4c-1-7.7-15.6,0-14.6-2c1-2-2.5-13.8-6.6-19.2
		c-4.1-5.4-3.8-3.1-5.9-1.1c-2.1,2-1,12.3-8,17.5c-6.9,5.4-12.5,2-12.5-0.8c0-2.6-7.7-16.9-14.3-19.8c-6.6-3.1-7.2-13.8-12.8-14.6
		c-5.6-0.8-5.9,11.5-8,14.9c-2.1,3.4-5.2,2-6.2-4.9c-1-6.9-9.3-6.9-15.3-6.9c-5.9,0-8.7-4.6-14.9-12.9c-6.2-8.4-12.5-5.7-27.1,0
		c-14.6,5.7-19.5,5.7-31,4.9c-11.5-0.8-10.8,2.3-15.9,4.3c-5.2,2-4.6-1.1-10.8,0c-6.2,1.1-1.3,15.7-4.6,12.3
		c-3.1-3.4-13.6-6.1-20.8-6.6c-7.2-0.3-15.6,3.4-23.9,4.6c-8.4,1.1-10.5,3.8-16.4,10.3c-5.9,6.6-8,14.1-13.9,21
		c-2.1,2.5-5.1,5.4-8.2,7.9v65.2H543z"/>
	
		<linearGradient id="SVGID_60_" gradientUnits="userSpaceOnUse" x1="1236.1862" y1="32.8632" x2="1236.1862" y2="-335.1368" gradientTransform="matrix(-0.866 -0.5 -0.5 0.866 1441.9294 1445.868)">
		<stop  offset="0" style="stop-color:#FFFFFF"/>
		<stop  offset="1" style="stop-color:#D9D9D9;stop-opacity:0"/>
	</linearGradient>
	<path class="st60" d="M354.9,856.2L354.9,856.2c-1.9-1.1-2.6-3.6-1.5-5.5l180-311.8c1.1-1.9,3.6-2.6,5.5-1.5l0,0
		c1.9,1.1,2.6,3.6,1.5,5.5l-180,311.8C359.3,856.7,356.8,857.3,354.9,856.2z"/>
	
		<linearGradient id="SVGID_61_" gradientUnits="userSpaceOnUse" x1="1802.1852" y1="-102.1397" x2="1802.1852" y2="-470.1397" gradientTransform="matrix(-0.866 -0.5 -0.5 0.866 2430.5964 1980.7864)">
		<stop  offset="0" style="stop-color:#FFFFFF"/>
		<stop  offset="1" style="stop-color:#D9D9D9;stop-opacity:0"/>
	</linearGradient>
	<path class="st61" d="M920.9,991.2L920.9,991.2c-1.9-1.1-2.6-3.6-1.5-5.5l180-311.8c1.1-1.9,3.6-2.6,5.5-1.5l0,0
		c1.9,1.1,2.6,3.6,1.5,5.5l-180,311.8C925.3,991.7,922.8,992.3,920.9,991.2z"/>
	
		<linearGradient id="SVGID_62_" gradientUnits="userSpaceOnUse" x1="1158.1862" y1="285.8632" x2="1158.1862" y2="-82.1368" gradientTransform="matrix(-0.866 -0.5 -0.5 0.866 1422.8794 934.7637)">
		<stop  offset="0" style="stop-color:#FFFFFF"/>
		<stop  offset="1" style="stop-color:#D9D9D9;stop-opacity:0"/>
	</linearGradient>
	<path class="st62" d="M276.9,603.2L276.9,603.2c-1.9-1.1-2.6-3.6-1.5-5.5l180-311.8c1.1-1.9,3.6-2.6,5.5-1.5l0,0
		c1.9,1.1,2.6,3.6,1.5,5.5l-180,311.8C281.3,603.7,278.8,604.3,276.9,603.2z"/>
	
		<linearGradient id="SVGID_63_" gradientUnits="userSpaceOnUse" x1="1548.1862" y1="168.8632" x2="1548.1862" y2="-199.1368" gradientTransform="matrix(-0.866 -0.5 -0.5 0.866 2092.1294 1348.0886)">
		<stop  offset="0" style="stop-color:#FFFFFF"/>
		<stop  offset="1" style="stop-color:#D9D9D9;stop-opacity:0"/>
	</linearGradient>
	<path class="st63" d="M666.9,720.2L666.9,720.2c-1.9-1.1-2.6-3.6-1.5-5.5l180-311.8c1.1-1.9,3.6-2.6,5.5-1.5l0,0
		c1.9,1.1,2.6,3.6,1.5,5.5l-180,311.8C671.3,720.7,668.8,721.3,666.9,720.2z"/>
	
		<linearGradient id="SVGID_64_" gradientUnits="userSpaceOnUse" x1="1019.1862" y1="560.8632" x2="1019.1862" y2="192.8632" gradientTransform="matrix(-0.866 -0.5 -0.5 0.866 1301.0018 352.1066)">
		<stop  offset="0" style="stop-color:#FFFFFF"/>
		<stop  offset="1" style="stop-color:#D9D9D9;stop-opacity:0"/>
	</linearGradient>
	<path class="st64" d="M137.9,328.2L137.9,328.2c-1.9-1.1-2.6-3.6-1.5-5.5L316.5,11c1.1-1.9,3.6-2.6,5.5-1.5l0,0
		c1.9,1.1,2.6,3.6,1.5,5.5l-180,311.8C142.3,328.7,139.8,329.3,137.9,328.2z"/>
	
		<linearGradient id="SVGID_65_" gradientUnits="userSpaceOnUse" x1="1202.1862" y1="589.5362" x2="1202.1862" y2="397.8293" gradientTransform="matrix(-0.866 -0.5 -0.5 0.866 1656.821 390.1021)">
		<stop  offset="0" style="stop-color:#FFFFFF"/>
		<stop  offset="1" style="stop-color:#D9D9D9;stop-opacity:0"/>
	</linearGradient>
	<path class="st65" d="M320.9,299.6L320.9,299.6c-1.9-1.1-2.6-3.6-1.5-5.5L411.3,135c1.1-1.9,3.6-2.6,5.5-1.5l0,0
		c1.9,1.1,2.6,3.6,1.5,5.5l-91.9,159.1C325.3,300,322.8,300.7,320.9,299.6z"/>
	
		<linearGradient id="SVGID_66_" gradientUnits="userSpaceOnUse" x1="1114.1862" y1="24.5372" x2="1114.1862" y2="-167.1698" gradientTransform="matrix(-0.866 -0.5 -0.5 0.866 1210.1113 1400.4045)">
		<stop  offset="0" style="stop-color:#FFFFFF"/>
		<stop  offset="1" style="stop-color:#D9D9D9;stop-opacity:0"/>
	</linearGradient>
	<path class="st66" d="M232.9,864.6L232.9,864.6c-1.9-1.1-2.6-3.6-1.5-5.5L323.3,700c1.1-1.9,3.6-2.6,5.5-1.5l0,0
		c1.9,1.1,2.6,3.6,1.5,5.5l-91.9,159.1C237.3,865,234.8,865.7,232.9,864.6z"/>
	
		<linearGradient id="SVGID_67_" gradientUnits="userSpaceOnUse" x1="850.1862" y1="-211.4598" x2="850.1862" y2="-403.1668" gradientTransform="matrix(-0.866 -0.5 -0.5 0.866 599.4821 1708.781)">
		<stop  offset="0" style="stop-color:#FFFFFF"/>
		<stop  offset="1" style="stop-color:#D9D9D9;stop-opacity:0"/>
	</linearGradient>
	<path class="st67" d="M-31.1,1100.6L-31.1,1100.6c-1.9-1.1-2.6-3.6-1.5-5.5L59.3,936c1.1-1.9,3.6-2.6,5.5-1.5l0,0
		c1.9,1.1,2.6,3.6,1.5,5.5l-91.9,159.1C-26.7,1101-29.2,1101.7-31.1,1100.6z"/>
	
		<linearGradient id="SVGID_68_" gradientUnits="userSpaceOnUse" x1="1445.1862" y1="229.5372" x2="1445.1862" y2="37.8302" gradientTransform="matrix(-0.866 -0.5 -0.5 0.866 1930.2657 1183.3694)">
		<stop  offset="0" style="stop-color:#FFFFFF"/>
		<stop  offset="1" style="stop-color:#D9D9D9;stop-opacity:0"/>
	</linearGradient>
	<path class="st68" d="M563.9,659.6L563.9,659.6c-1.9-1.1-2.6-3.6-1.5-5.5L654.3,495c1.1-1.9,3.6-2.6,5.5-1.5l0,0
		c1.9,1.1,2.6,3.6,1.5,5.5l-91.9,159.1C568.3,660,565.8,660.7,563.9,659.6z"/>
	
		<linearGradient id="SVGID_69_" gradientUnits="userSpaceOnUse" x1="1400.1862" y1="491.5362" x2="1400.1862" y2="299.8293" gradientTransform="matrix(-0.866 -0.5 -0.5 0.866 1977.2941 671.9725)">
		<stop  offset="0" style="stop-color:#FFFFFF"/>
		<stop  offset="1" style="stop-color:#D9D9D9;stop-opacity:0"/>
	</linearGradient>
	<path class="st69" d="M518.9,397.6L518.9,397.6c-1.9-1.1-2.6-3.6-1.5-5.5L609.3,233c1.1-1.9,3.6-2.6,5.5-1.5l0,0
		c1.9,1.1,2.6,3.6,1.5,5.5l-91.9,159.1C523.3,398,520.8,398.7,518.9,397.6z"/>
	
		<linearGradient id="SVGID_70_" gradientUnits="userSpaceOnUse" x1="1802.1852" y1="552.5372" x2="1802.1852" y2="360.8302" gradientTransform="matrix(-0.866 -0.5 -0.5 0.866 2757.9351 759.1426)">
		<stop  offset="0" style="stop-color:#FFFFFF"/>
		<stop  offset="1" style="stop-color:#D9D9D9;stop-opacity:0"/>
	</linearGradient>
	<path class="st70" d="M920.9,336.6L920.9,336.6c-1.9-1.1-2.6-3.6-1.5-5.5l91.9-159.1c1.1-1.9,3.6-2.6,5.5-1.5l0,0
		c1.9,1.1,2.6,3.6,1.5,5.5l-91.9,159.1C925.3,337,922.8,337.7,920.9,336.6z"/>
	
		<linearGradient id="SVGID_71_" gradientUnits="userSpaceOnUse" x1="865.1862" y1="399.5362" x2="865.1862" y2="207.8292" gradientTransform="matrix(-0.866 -0.5 -0.5 0.866 932.9705 576.1469)">
		<stop  offset="0" style="stop-color:#FFFFFF"/>
		<stop  offset="1" style="stop-color:#D9D9D9;stop-opacity:0"/>
	</linearGradient>
	<path class="st71" d="M-16.1,489.6L-16.1,489.6c-1.9-1.1-2.6-3.6-1.5-5.5L74.3,325c1.1-1.9,3.6-2.6,5.5-1.5l0,0
		c1.9,1.1,2.6,3.6,1.5,5.5l-91.9,159.1C-11.7,490-14.2,490.7-16.1,489.6z"/>
	
		<linearGradient id="SVGID_72_" gradientUnits="userSpaceOnUse" x1="865.1862" y1="674.5372" x2="865.1862" y2="482.8302" gradientTransform="matrix(-0.866 -0.5 -0.5 0.866 1070.4709 62.9881)">
		<stop  offset="0" style="stop-color:#FFFFFF"/>
		<stop  offset="1" style="stop-color:#D9D9D9;stop-opacity:0"/>
	</linearGradient>
	<path class="st72" d="M-16.1,214.6L-16.1,214.6c-1.9-1.1-2.6-3.6-1.5-5.5L74.3,50c1.1-1.9,3.6-2.6,5.5-1.5l0,0
		c1.9,1.1,2.6,3.6,1.5,5.5l-91.9,159.1C-11.7,215-14.2,215.7-16.1,214.6z"/>
	
		<linearGradient id="SVGID_73_" gradientUnits="userSpaceOnUse" x1="1407.1862" y1="2.5372" x2="1407.1862" y2="-189.1698" gradientTransform="matrix(-0.866 -0.5 -0.5 0.866 1745.8567 1587.957)">
		<stop  offset="0" style="stop-color:#FFFFFF"/>
		<stop  offset="1" style="stop-color:#D9D9D9;stop-opacity:0"/>
	</linearGradient>
	<path class="st73" d="M525.9,886.6L525.9,886.6c-1.9-1.1-2.6-3.6-1.5-5.5L616.3,722c1.1-1.9,3.6-2.6,5.5-1.5l0,0
		c1.9,1.1,2.6,3.6,1.5,5.5l-91.9,159.1C530.3,887,527.8,887.7,525.9,886.6z"/>
	
		<linearGradient id="SVGID_74_" gradientUnits="userSpaceOnUse" x1="1680.1862" y1="-130.4598" x2="1680.1862" y2="-322.1668" gradientTransform="matrix(-0.866 -0.5 -0.5 0.866 2188.7832 1972.6328)">
		<stop  offset="0" style="stop-color:#FFFFFF"/>
		<stop  offset="1" style="stop-color:#D9D9D9;stop-opacity:0"/>
	</linearGradient>
	<path class="st74" d="M798.9,1019.6L798.9,1019.6c-1.9-1.1-2.6-3.6-1.5-5.5L889.3,855c1.1-1.9,3.6-2.6,5.5-1.5l0,0
		c1.9,1.1,2.6,3.6,1.5,5.5l-91.9,159.1C803.3,1020,800.8,1020.7,798.9,1019.6z"/>
	
		<linearGradient id="SVGID_75_" gradientUnits="userSpaceOnUse" x1="1011.1862" y1="126.5372" x2="1011.1862" y2="-65.1698" gradientTransform="matrix(-0.866 -0.5 -0.5 0.866 1068.9106 1158.5699)">
		<stop  offset="0" style="stop-color:#FFFFFF"/>
		<stop  offset="1" style="stop-color:#D9D9D9;stop-opacity:0"/>
	</linearGradient>
	<path class="st75" d="M129.9,762.6L129.9,762.6c-1.9-1.1-2.6-3.6-1.5-5.5L220.3,598c1.1-1.9,3.6-2.6,5.5-1.5l0,0
		c1.9,1.1,2.6,3.6,1.5,5.5l-91.9,159.1C134.3,763,131.8,763.7,129.9,762.6z"/>
	
		<linearGradient id="SVGID_76_" gradientUnits="userSpaceOnUse" x1="1592.1862" y1="508.5362" x2="1592.1862" y2="316.8293" gradientTransform="matrix(-0.866 -0.5 -0.5 0.866 2344.071 736.2501)">
		<stop  offset="0" style="stop-color:#FFFFFF"/>
		<stop  offset="1" style="stop-color:#D9D9D9;stop-opacity:0"/>
	</linearGradient>
	<path class="st76" d="M710.9,380.6L710.9,380.6c-1.9-1.1-2.6-3.6-1.5-5.5L801.3,216c1.1-1.9,3.6-2.6,5.5-1.5l0,0
		c1.9,1.1,2.6,3.6,1.5,5.5l-91.9,159.1C715.3,381,712.8,381.7,710.9,380.6z"/>
	
		<linearGradient id="SVGID_77_" gradientUnits="userSpaceOnUse" x1="1622.1862" y1="83.5372" x2="1622.1862" y2="-108.1698" gradientTransform="matrix(-0.866 -0.5 -0.5 0.866 2187.5522 1544.3091)">
		<stop  offset="0" style="stop-color:#FFFFFF"/>
		<stop  offset="1" style="stop-color:#D9D9D9;stop-opacity:0"/>
	</linearGradient>
	<path class="st77" d="M740.9,805.6L740.9,805.6c-1.9-1.1-2.6-3.6-1.5-5.5L831.3,641c1.1-1.9,3.6-2.6,5.5-1.5l0,0
		c1.9,1.1,2.6,3.6,1.5,5.5l-91.9,159.1C745.3,806,742.8,806.7,740.9,805.6z"/>
	
		<linearGradient id="SVGID_78_" gradientUnits="userSpaceOnUse" x1="1246.1862" y1="245.5372" x2="1246.1862" y2="185.894" gradientTransform="matrix(-0.866 -0.5 -0.5 0.866 1566.9266 1054.0129)">
		<stop  offset="0" style="stop-color:#FFFFFF"/>
		<stop  offset="1" style="stop-color:#D9D9D9;stop-opacity:0"/>
	</linearGradient>
	<path class="st78" d="M364.9,643.6L364.9,643.6c-1.9-1.1-2.6-3.6-1.5-5.5l25.8-44.7c1.1-1.9,3.6-2.6,5.5-1.5l0,0
		c1.9,1.1,2.6,3.6,1.5,5.5l-25.8,44.7C369.3,644,366.8,644.7,364.9,643.6z"/>
	
		<linearGradient id="SVGID_79_" gradientUnits="userSpaceOnUse" x1="1294.1862" y1="-49.0898" x2="1294.1862" y2="-108.733" gradientTransform="matrix(-0.866 -0.5 -0.5 0.866 1509.1824 1627.7944)">
		<stop  offset="0" style="stop-color:#FFFFFF"/>
		<stop  offset="1" style="stop-color:#D9D9D9;stop-opacity:0"/>
	</linearGradient>
	<path class="st79" d="M412.9,938.2L412.9,938.2c-1.9-1.1-2.6-3.6-1.5-5.5l25.8-44.7c1.1-1.9,3.6-2.6,5.5-1.5l0,0
		c1.9,1.1,2.6,3.6,1.5,5.5l-25.8,44.7C417.3,938.6,414.8,939.3,412.9,938.2z"/>
	
		<linearGradient id="SVGID_80_" gradientUnits="userSpaceOnUse" x1="1529.1862" y1="-3.0918" x2="1529.1862" y2="-62.735" gradientTransform="matrix(-0.866 -0.5 -0.5 0.866 1970.6974 1659.4609)">
		<stop  offset="0" style="stop-color:#FFFFFF"/>
		<stop  offset="1" style="stop-color:#D9D9D9;stop-opacity:0"/>
	</linearGradient>
	<path class="st80" d="M647.9,892.2L647.9,892.2c-1.9-1.1-2.6-3.6-1.5-5.5l25.8-44.7c1.1-1.9,3.6-2.6,5.5-1.5l0,0
		c1.9,1.1,2.6,3.6,1.5,5.5l-25.8,44.7C652.3,892.6,649.8,893.3,647.9,892.2z"/>
	
		<linearGradient id="SVGID_81_" gradientUnits="userSpaceOnUse" x1="1709.1852" y1="122.9082" x2="1709.1852" y2="63.265" gradientTransform="matrix(-0.866 -0.5 -0.5 0.866 2369.5801 1514.3413)">
		<stop  offset="0" style="stop-color:#FFFFFF"/>
		<stop  offset="1" style="stop-color:#D9D9D9;stop-opacity:0"/>
	</linearGradient>
	<path class="st81" d="M827.9,766.2L827.9,766.2c-1.9-1.1-2.6-3.6-1.5-5.5l25.8-44.7c1.1-1.9,3.6-2.6,5.5-1.5l0,0
		c1.9,1.1,2.6,3.6,1.5,5.5l-25.8,44.7C832.3,766.6,829.8,767.3,827.9,766.2z"/>
	
		<linearGradient id="SVGID_82_" gradientUnits="userSpaceOnUse" x1="1827.1852" y1="225.9082" x2="1827.1852" y2="166.265" gradientTransform="matrix(-0.866 -0.5 -0.5 0.866 2641.2712 1381.1406)">
		<stop  offset="0" style="stop-color:#FFFFFF"/>
		<stop  offset="1" style="stop-color:#D9D9D9;stop-opacity:0"/>
	</linearGradient>
	<path class="st82" d="M945.9,663.2L945.9,663.2c-1.9-1.1-2.6-3.6-1.5-5.5l25.8-44.7c1.1-1.9,3.6-2.6,5.5-1.5l0,0
		c1.9,1.1,2.6,3.6,1.5,5.5l-25.8,44.7C950.3,663.6,947.8,664.3,945.9,663.2z"/>
	
		<linearGradient id="SVGID_83_" gradientUnits="userSpaceOnUse" x1="1636.1862" y1="-59.0898" x2="1636.1862" y2="-118.733" gradientTransform="matrix(-0.866 -0.5 -0.5 0.866 2142.363 1817.4546)">
		<stop  offset="0" style="stop-color:#FFFFFF"/>
		<stop  offset="1" style="stop-color:#D9D9D9;stop-opacity:0"/>
	</linearGradient>
	<path class="st83" d="M754.9,948.2L754.9,948.2c-1.9-1.1-2.6-3.6-1.5-5.5l25.8-44.7c1.1-1.9,3.6-2.6,5.5-1.5l0,0
		c1.9,1.1,2.6,3.6,1.5,5.5l-25.8,44.7C759.3,948.6,756.8,949.3,754.9,948.2z"/>
	
		<linearGradient id="SVGID_84_" gradientUnits="userSpaceOnUse" x1="1636.1862" y1="233.9082" x2="1636.1862" y2="174.265" gradientTransform="matrix(-0.866 -0.5 -0.5 0.866 2288.8621 1270.7129)">
		<stop  offset="0" style="stop-color:#FFFFFF"/>
		<stop  offset="1" style="stop-color:#D9D9D9;stop-opacity:0"/>
	</linearGradient>
	<path class="st84" d="M754.9,655.2L754.9,655.2c-1.9-1.1-2.6-3.6-1.5-5.5l25.8-44.7c1.1-1.9,3.6-2.6,5.5-1.5l0,0
		c1.9,1.1,2.6,3.6,1.5,5.5l-25.8,44.7C759.3,655.6,756.8,656.3,754.9,655.2z"/>
	
		<linearGradient id="SVGID_85_" gradientUnits="userSpaceOnUse" x1="1370.1862" y1="100.9082" x2="1370.1862" y2="41.265" gradientTransform="matrix(-0.866 -0.5 -0.5 0.866 1725.9994 1385.8943)">
		<stop  offset="0" style="stop-color:#FFFFFF"/>
		<stop  offset="1" style="stop-color:#D9D9D9;stop-opacity:0"/>
	</linearGradient>
	<path class="st85" d="M488.9,788.2L488.9,788.2c-1.9-1.1-2.6-3.6-1.5-5.5l25.8-44.7c1.1-1.9,3.6-2.6,5.5-1.5l0,0
		c1.9,1.1,2.6,3.6,1.5,5.5l-25.8,44.7C493.3,788.6,490.8,789.3,488.9,788.2z"/>
	
		<linearGradient id="SVGID_86_" gradientUnits="userSpaceOnUse" x1="1135.1862" y1="178.9082" x2="1135.1862" y2="119.265" gradientTransform="matrix(-0.866 -0.5 -0.5 0.866 1326.4833 1122.8442)">
		<stop  offset="0" style="stop-color:#FFFFFF"/>
		<stop  offset="1" style="stop-color:#D9D9D9;stop-opacity:0"/>
	</linearGradient>
	<path class="st86" d="M253.9,710.2L253.9,710.2c-1.9-1.1-2.6-3.6-1.5-5.5l25.8-44.7c1.1-1.9,3.6-2.6,5.5-1.5l0,0
		c1.9,1.1,2.6,3.6,1.5,5.5l-25.8,44.7C258.3,710.6,255.8,711.3,253.9,710.2z"/>
	
		<linearGradient id="SVGID_87_" gradientUnits="userSpaceOnUse" x1="1048.1862" y1="-154.0898" x2="1048.1862" y2="-213.733" gradientTransform="matrix(-0.866 -0.5 -0.5 0.866 997.6401 1700.7271)">
		<stop  offset="0" style="stop-color:#FFFFFF"/>
		<stop  offset="1" style="stop-color:#D9D9D9;stop-opacity:0"/>
	</linearGradient>
	<path class="st87" d="M166.9,1043.2L166.9,1043.2c-1.9-1.1-2.6-3.6-1.5-5.5l25.8-44.7c1.1-1.9,3.6-2.6,5.5-1.5l0,0
		c1.9,1.1,2.6,3.6,1.5,5.5l-25.8,44.7C171.3,1043.6,168.8,1044.3,166.9,1043.2z"/>
	
		<linearGradient id="SVGID_88_" gradientUnits="userSpaceOnUse" x1="1004.1862" y1="229.9082" x2="1004.1862" y2="170.265" gradientTransform="matrix(-0.866 -0.5 -0.5 0.866 1107.5341 962.1771)">
		<stop  offset="0" style="stop-color:#FFFFFF"/>
		<stop  offset="1" style="stop-color:#D9D9D9;stop-opacity:0"/>
	</linearGradient>
	<path class="st88" d="M122.9,659.2L122.9,659.2c-1.9-1.1-2.6-3.6-1.5-5.5l25.8-44.7c1.1-1.9,3.6-2.6,5.5-1.5l0,0
		c1.9,1.1,2.6,3.6,1.5,5.5l-25.8,44.7C127.3,659.6,124.8,660.3,122.9,659.2z"/>
	
		<linearGradient id="SVGID_89_" gradientUnits="userSpaceOnUse" x1="1165.1862" y1="661.9082" x2="1165.1862" y2="602.265" gradientTransform="matrix(-0.866 -0.5 -0.5 0.866 1623.9641 236.5541)">
		<stop  offset="0" style="stop-color:#FFFFFF"/>
		<stop  offset="1" style="stop-color:#D9D9D9;stop-opacity:0"/>
	</linearGradient>
	<path class="st89" d="M283.9,227.2L283.9,227.2c-1.9-1.1-2.6-3.6-1.5-5.5l25.8-44.7c1.1-1.9,3.6-2.6,5.5-1.5l0,0
		c1.9,1.1,2.6,3.6,1.5,5.5l-25.8,44.7C288.3,227.6,285.8,228.3,283.9,227.2z"/>
	
		<linearGradient id="SVGID_90_" gradientUnits="userSpaceOnUse" x1="1154.1862" y1="447.9082" x2="1154.1862" y2="388.265" gradientTransform="matrix(-0.866 -0.5 -0.5 0.866 1496.4377 630.3835)">
		<stop  offset="0" style="stop-color:#FFFFFF"/>
		<stop  offset="1" style="stop-color:#D9D9D9;stop-opacity:0"/>
	</linearGradient>
	<path class="st90" d="M272.9,441.2L272.9,441.2c-1.9-1.1-2.6-3.6-1.5-5.5l25.8-44.7c1.1-1.9,3.6-2.6,5.5-1.5l0,0
		c1.9,1.1,2.6,3.6,1.5,5.5l-25.8,44.7C277.3,441.6,274.8,442.3,272.9,441.2z"/>
	
		<linearGradient id="SVGID_91_" gradientUnits="userSpaceOnUse" x1="1001.1862" y1="678.9082" x2="1001.1862" y2="619.265" gradientTransform="matrix(-0.866 -0.5 -0.5 0.866 1326.4359 122.8317)">
		<stop  offset="0" style="stop-color:#FFFFFF"/>
		<stop  offset="1" style="stop-color:#D9D9D9;stop-opacity:0"/>
	</linearGradient>
	<path class="st91" d="M119.9,210.2L119.9,210.2c-1.9-1.1-2.6-3.6-1.5-5.5l25.8-44.7c1.1-1.9,3.6-2.6,5.5-1.5l0,0
		c1.9,1.1,2.6,3.6,1.5,5.5l-25.8,44.7C124.3,210.6,121.8,211.3,119.9,210.2z"/>
	
		<linearGradient id="SVGID_92_" gradientUnits="userSpaceOnUse" x1="981.1862" y1="451.9082" x2="981.1862" y2="392.265" gradientTransform="matrix(-0.866 -0.5 -0.5 0.866 1175.6154 536.4194)">
		<stop  offset="0" style="stop-color:#FFFFFF"/>
		<stop  offset="1" style="stop-color:#D9D9D9;stop-opacity:0"/>
	</linearGradient>
	<path class="st92" d="M99.9,437.2L99.9,437.2c-1.9-1.1-2.6-3.6-1.5-5.5l25.8-44.7c1.1-1.9,3.6-2.6,5.5-1.5l0,0
		c1.9,1.1,2.6,3.6,1.5,5.5l-25.8,44.7C104.3,437.6,101.8,438.3,99.9,437.2z"/>
	
		<linearGradient id="SVGID_93_" gradientUnits="userSpaceOnUse" x1="1109.1862" y1="537.9082" x2="1109.1862" y2="478.265" gradientTransform="matrix(-0.866 -0.5 -0.5 0.866 1457.4667 439.9412)">
		<stop  offset="0" style="stop-color:#FFFFFF"/>
		<stop  offset="1" style="stop-color:#D9D9D9;stop-opacity:0"/>
	</linearGradient>
	<path class="st93" d="M227.9,351.2L227.9,351.2c-1.9-1.1-2.6-3.6-1.5-5.5l25.8-44.7c1.1-1.9,3.6-2.6,5.5-1.5l0,0
		c1.9,1.1,2.6,3.6,1.5,5.5l-25.8,44.7C232.3,351.6,229.8,352.3,227.9,351.2z"/>
	
		<linearGradient id="SVGID_94_" gradientUnits="userSpaceOnUse" x1="857.1862" y1="548.9082" x2="857.1862" y2="489.265" gradientTransform="matrix(-0.866 -0.5 -0.5 0.866 992.7283 293.415)">
		<stop  offset="0" style="stop-color:#FFFFFF"/>
		<stop  offset="1" style="stop-color:#D9D9D9;stop-opacity:0"/>
	</linearGradient>
	<path class="st94" d="M-24.1,340.2L-24.1,340.2c-1.9-1.1-2.6-3.6-1.5-5.5L0.3,290c1.1-1.9,3.6-2.6,5.5-1.5l0,0
		c1.9,1.1,2.6,3.6,1.5,5.5l-25.8,44.7C-19.7,340.6-22.2,341.3-24.1,340.2z"/>
	
		<linearGradient id="SVGID_95_" gradientUnits="userSpaceOnUse" x1="1592.1862" y1="642.9082" x2="1592.1862" y2="583.265" gradientTransform="matrix(-0.866 -0.5 -0.5 0.866 2411.2571 485.5086)">
		<stop  offset="0" style="stop-color:#FFFFFF"/>
		<stop  offset="1" style="stop-color:#D9D9D9;stop-opacity:0"/>
	</linearGradient>
	<path class="st95" d="M710.9,246.2L710.9,246.2c-1.9-1.1-2.6-3.6-1.5-5.5l25.8-44.7c1.1-1.9,3.6-2.6,5.5-1.5l0,0
		c1.9,1.1,2.6,3.6,1.5,5.5l-25.8,44.7C715.3,246.6,712.8,247.3,710.9,246.2z"/>
	
		<linearGradient id="SVGID_96_" gradientUnits="userSpaceOnUse" x1="1340.1862" y1="302.9082" x2="1340.1862" y2="243.265" gradientTransform="matrix(-0.866 -0.5 -0.5 0.866 1771.0186 993.9572)">
		<stop  offset="0" style="stop-color:#FFFFFF"/>
		<stop  offset="1" style="stop-color:#D9D9D9;stop-opacity:0"/>
	</linearGradient>
	<path class="st96" d="M458.9,586.2L458.9,586.2c-1.9-1.1-2.6-3.6-1.5-5.5l25.8-44.7c1.1-1.9,3.6-2.6,5.5-1.5l0,0
		c1.9,1.1,2.6,3.6,1.5,5.5l-25.8,44.7C463.3,586.6,460.8,587.3,458.9,586.2z"/>
	
		<linearGradient id="SVGID_97_" gradientUnits="userSpaceOnUse" x1="1459.1862" y1="415.9082" x2="1459.1862" y2="356.265" gradientTransform="matrix(-0.866 -0.5 -0.5 0.866 2049.5757 842.5963)">
		<stop  offset="0" style="stop-color:#FFFFFF"/>
		<stop  offset="1" style="stop-color:#D9D9D9;stop-opacity:0"/>
	</linearGradient>
	<path class="st97" d="M577.9,473.2L577.9,473.2c-1.9-1.1-2.6-3.6-1.5-5.5l25.8-44.7c1.1-1.9,3.6-2.6,5.5-1.5l0,0
		c1.9,1.1,2.6,3.6,1.5,5.5l-25.8,44.7C582.3,473.6,579.8,474.3,577.9,473.2z"/>
	
		<linearGradient id="SVGID_98_" gradientUnits="userSpaceOnUse" x1="1707.1852" y1="585.9082" x2="1707.1852" y2="526.265" gradientTransform="matrix(-0.866 -0.5 -0.5 0.866 2597.3479 649.3715)">
		<stop  offset="0" style="stop-color:#FFFFFF"/>
		<stop  offset="1" style="stop-color:#D9D9D9;stop-opacity:0"/>
	</linearGradient>
	<path class="st98" d="M825.9,303.2L825.9,303.2c-1.9-1.1-2.6-3.6-1.5-5.5l25.8-44.7c1.1-1.9,3.6-2.6,5.5-1.5l0,0
		c1.9,1.1,2.6,3.6,1.5,5.5l-25.8,44.7C830.3,303.6,827.8,304.3,825.9,303.2z"/>
	
		<linearGradient id="SVGID_99_" gradientUnits="userSpaceOnUse" x1="1739.1852" y1="289.9082" x2="1739.1852" y2="230.265" gradientTransform="matrix(-0.866 -0.5 -0.5 0.866 2509.061 1217.715)">
		<stop  offset="0" style="stop-color:#FFFFFF"/>
		<stop  offset="1" style="stop-color:#D9D9D9;stop-opacity:0"/>
	</linearGradient>
	<path class="st99" d="M857.9,599.2L857.9,599.2c-1.9-1.1-2.6-3.6-1.5-5.5l25.8-44.7c1.1-1.9,3.6-2.6,5.5-1.5l0,0
		c1.9,1.1,2.6,3.6,1.5,5.5l-25.8,44.7C862.3,599.6,859.8,600.3,857.9,599.2z"/>
	
		<linearGradient id="SVGID_100_" gradientUnits="userSpaceOnUse" x1="1784.1852" y1="419.9082" x2="1784.1852" y2="360.265" gradientTransform="matrix(-0.866 -0.5 -0.5 0.866 2658.032 997.6318)">
		<stop  offset="0" style="stop-color:#FFFFFF"/>
		<stop  offset="1" style="stop-color:#D9D9D9;stop-opacity:0"/>
	</linearGradient>
	<path class="st100" d="M902.9,469.2L902.9,469.2c-1.9-1.1-2.6-3.6-1.5-5.5l25.8-44.7c1.1-1.9,3.6-2.6,5.5-1.5l0,0
		c1.9,1.1,2.6,3.6,1.5,5.5l-25.8,44.7C907.3,469.6,904.8,470.3,902.9,469.2z"/>
	
		<linearGradient id="SVGID_101_" gradientUnits="userSpaceOnUse" x1="1172.1862" y1="-45.0898" x2="1172.1862" y2="-104.733" gradientTransform="matrix(-0.866 -0.5 -0.5 0.866 1283.5272 1559.3303)">
		<stop  offset="0" style="stop-color:#FFFFFF"/>
		<stop  offset="1" style="stop-color:#D9D9D9;stop-opacity:0"/>
	</linearGradient>
	<path class="st101" d="M290.9,934.2L290.9,934.2c-1.9-1.1-2.6-3.6-1.5-5.5l25.8-44.7c1.1-1.9,3.6-2.6,5.5-1.5l0,0
		c1.9,1.1,2.6,3.6,1.5,5.5l-25.8,44.7C295.3,934.6,292.8,935.3,290.9,934.2z"/>
	
		<linearGradient id="SVGID_102_" gradientUnits="userSpaceOnUse" x1="864.1862" y1="-7.0918" x2="864.1862" y2="-66.735" gradientTransform="matrix(-0.866 -0.5 -0.5 0.866 727.7905 1334.425)">
		<stop  offset="0" style="stop-color:#FFFFFF"/>
		<stop  offset="1" style="stop-color:#D9D9D9;stop-opacity:0"/>
	</linearGradient>
	<path class="st102" d="M-17.1,896.2L-17.1,896.2c-1.9-1.1-2.6-3.6-1.5-5.5L7.3,846c1.1-1.9,3.6-2.6,5.5-1.5l0,0
		c1.9,1.1,2.6,3.6,1.5,5.5l-25.8,44.7C-12.7,896.6-15.2,897.3-17.1,896.2z"/>
	
		<linearGradient id="SVGID_103_" gradientUnits="userSpaceOnUse" x1="1376.1862" y1="670.5372" x2="1376.1862" y2="478.8302" gradientTransform="matrix(-0.866 -0.5 -0.5 0.866 2022.0099 325.9522)">
		<stop  offset="0" style="stop-color:#FFFFFF"/>
		<stop  offset="1" style="stop-color:#D9D9D9;stop-opacity:0"/>
	</linearGradient>
	<path class="st103" d="M494.9,218.6L494.9,218.6c-1.9-1.1-2.6-3.6-1.5-5.5L585.3,54c1.1-1.9,3.6-2.6,5.5-1.5l0,0
		c1.9,1.1,2.6,3.6,1.5,5.5l-91.9,159.1C499.3,219,496.8,219.7,494.9,218.6z"/>
	
		<linearGradient id="SVGID_104_" gradientUnits="userSpaceOnUse" x1="887.1862" y1="152.8632" x2="887.1862" y2="-215.1368" gradientTransform="matrix(-0.866 -0.5 -0.5 0.866 850.6865 1047.4451)">
		<stop  offset="0" style="stop-color:#FFFFFF"/>
		<stop  offset="1" style="stop-color:#D9D9D9;stop-opacity:0"/>
	</linearGradient>
	<path class="st104" d="M5.9,736.2L5.9,736.2c-1.9-1.1-2.6-3.6-1.5-5.5l180-311.8c1.1-1.9,3.6-2.6,5.5-1.5l0,0
		c1.9,1.1,2.6,3.6,1.5,5.5l-180,311.8C10.3,736.7,7.8,737.3,5.9,736.2z"/>
</g>
<linearGradient id="SVGID_105_" gradientUnits="userSpaceOnUse" x1="533.0566" y1="646.4181" x2="533.0566" y2="142.4061" gradientTransform="matrix(6.123234e-17 -1 -1 -6.123234e-17 593.1374 1119.2677)">
	<stop  offset="0" style="stop-color:#FFFFFF"/>
	<stop  offset="1" style="stop-color:#D9D9D9;stop-opacity:0"/>
</linearGradient>
<path class="st105" d="M-53.3,586.2L-53.3,586.2c0-2.9,2.4-5.3,5.3-5.3h493.3c2.9,0,5.3,2.4,5.3,5.3v0c0,2.9-2.4,5.3-5.3,5.3H-47.9
	C-50.9,591.5-53.3,589.2-53.3,586.2z"/>
<linearGradient id="SVGID_106_" gradientUnits="userSpaceOnUse" x1="1233.8805" y1="231.4281" x2="1233.8805" y2="-272.5839" gradientTransform="matrix(6.123234e-17 -1 -1 -6.123234e-17 878.9714 2235.0815)">
	<stop  offset="0" style="stop-color:#FFFFFF"/>
	<stop  offset="1" style="stop-color:#D9D9D9;stop-opacity:0"/>
</linearGradient>
<path class="st106" d="M647.5,1001.2L647.5,1001.2c0-2.9,2.4-5.3,5.3-5.3h493.3c2.9,0,5.3,2.4,5.3,5.3v0c0,2.9-2.4,5.3-5.3,5.3
	H652.9C649.9,1006.5,647.5,1004.1,647.5,1001.2z"/>
<linearGradient id="SVGID_107_" gradientUnits="userSpaceOnUse" x1="779.7266" y1="905.3411" x2="779.7266" y2="401.3291" gradientTransform="matrix(6.123234e-17 -1 -1 -6.123234e-17 1098.7303 1107.0146)">
	<stop  offset="0" style="stop-color:#FFFFFF"/>
	<stop  offset="1" style="stop-color:#D9D9D9;stop-opacity:0"/>
</linearGradient>
<path class="st107" d="M193.4,327.3L193.4,327.3c0-2.9,2.4-5.3,5.3-5.3h493.3c2.9,0,5.3,2.4,5.3,5.3l0,0c0,2.9-2.4,5.3-5.3,5.3
	H198.7C195.8,332.6,193.4,330.2,193.4,327.3z"/>
<linearGradient id="SVGID_108_" gradientUnits="userSpaceOnUse" x1="908.0236" y1="376.6201" x2="908.0236" y2="-127.3918" gradientTransform="matrix(6.123234e-17 -1 -1 -6.123234e-17 698.3065 1764.0326)">
	<stop  offset="0" style="stop-color:#FFFFFF"/>
	<stop  offset="1" style="stop-color:#D9D9D9;stop-opacity:0"/>
</linearGradient>
<path class="st108" d="M321.7,856L321.7,856c0-2.9,2.4-5.3,5.3-5.3h493.3c2.9,0,5.3,2.4,5.3,5.3l0,0c0,2.9-2.4,5.3-5.3,5.3H327
	C324.1,861.3,321.7,859,321.7,856z"/>
<linearGradient id="SVGID_109_" gradientUnits="userSpaceOnUse" x1="1010.7196" y1="1249.4293" x2="1010.7196" y2="745.4173" gradientTransform="matrix(6.123234e-17 -1 -1 -6.123234e-17 1673.8116 993.9194)">
	<stop  offset="0" style="stop-color:#FFFFFF"/>
	<stop  offset="1" style="stop-color:#D9D9D9;stop-opacity:0"/>
</linearGradient>
<path class="st109" d="M424.4-16.8L424.4-16.8c0-2.9,2.4-5.3,5.3-5.3h493.3c2.9,0,5.3,2.4,5.3,5.3v0c0,2.9-2.4,5.3-5.3,5.3H429.7
	C426.8-11.5,424.4-13.9,424.4-16.8z"/>
<linearGradient id="SVGID_110_" gradientUnits="userSpaceOnUse" x1="1169.9211" y1="1057.0151" x2="1169.9211" y2="369.8372" gradientTransform="matrix(6.123234e-17 -1 -1 -6.123234e-17 1640.6884 1345.6246)">
	<stop  offset="0" style="stop-color:#FFFFFF"/>
	<stop  offset="1" style="stop-color:#D9D9D9;stop-opacity:0"/>
</linearGradient>
<path class="st110" d="M583.7,175.7L583.7,175.7c0-2.9,2.3-5.2,5.2-5.2h676.7c2.9,0,5.2,2.3,5.2,5.2l0,0c0,2.9-2.3,5.2-5.2,5.2
	H588.9C586,181,583.7,178.6,583.7,175.7z"/>
<linearGradient id="SVGID_111_" gradientUnits="userSpaceOnUse" x1="439.65" y1="781.8791" x2="439.65" y2="101.6261" gradientTransform="matrix(6.123234e-17 -1 -1 -6.123234e-17 635.2812 890.4894)">
	<stop  offset="0" style="stop-color:#FFFFFF"/>
	<stop  offset="1" style="stop-color:#D9D9D9;stop-opacity:0"/>
</linearGradient>
<path class="st111" d="M-146.6,450.8L-146.6,450.8c0-2.9,2.3-5.2,5.2-5.2h669.8c2.9,0,5.2,2.3,5.2,5.2l0,0c0,2.9-2.3,5.2-5.2,5.2
	h-669.8C-144.2,456.1-146.6,453.7-146.6,450.8z"/>
<linearGradient id="SVGID_112_" gradientUnits="userSpaceOnUse" x1="909.0551" y1="535.9811" x2="909.0551" y2="-330.495" gradientTransform="matrix(6.123234e-17 -1 -1 -6.123234e-17 858.7884 1605.7926)">
	<stop  offset="0" style="stop-color:#FFFFFF"/>
	<stop  offset="1" style="stop-color:#D9D9D9;stop-opacity:0"/>
</linearGradient>
<path class="st112" d="M322.8,696.7L322.8,696.7c0-2.9,2.3-5.2,5.2-5.2h856c2.9,0,5.2,2.3,5.2,5.2l0,0c0,2.9-2.3,5.2-5.2,5.2h-856
	C325.2,702,322.8,699.6,322.8,696.7z"/>
<linearGradient id="SVGID_113_" gradientUnits="userSpaceOnUse" x1="1189.1602" y1="763.1371" x2="1189.1602" y2="112.1261" gradientTransform="matrix(6.123234e-17 -1 -1 -6.123234e-17 1366.0494 1658.7417)">
	<stop  offset="0" style="stop-color:#FFFFFF"/>
	<stop  offset="1" style="stop-color:#D9D9D9;stop-opacity:0"/>
</linearGradient>
<path class="st113" d="M602.9,469.6L602.9,469.6c0-2.9,2.3-5.2,5.2-5.2h640.5c2.9,0,5.2,2.3,5.2,5.2l0,0c0,2.9-2.3,5.2-5.2,5.2
	H608.2C605.3,474.8,602.9,472.5,602.9,469.6z"/>
<linearGradient id="SVGID_114_" gradientUnits="userSpaceOnUse" x1="1537.0396" y1="339.0821" x2="1537.0396" y2="76.5201" gradientTransform="matrix(6.123234e-17 -1 -1 -6.123234e-17 1289.7844 2430.5867)">
	<stop  offset="0" style="stop-color:#FFFFFF"/>
	<stop  offset="1" style="stop-color:#D9D9D9;stop-opacity:0"/>
</linearGradient>
<path class="st114" d="M950.7,893.5L950.7,893.5c0-2.9,2.4-5.3,5.3-5.3h251.9c2.9,0,5.3,2.4,5.3,5.3l0,0c0,2.9-2.4,5.3-5.3,5.3H956
	C953.1,898.9,950.7,896.5,950.7,893.5z"/>
<linearGradient id="SVGID_115_" gradientUnits="userSpaceOnUse" x1="713.9106" y1="1319.7537" x2="713.9106" y2="1057.1917" gradientTransform="matrix(6.123234e-17 -1 -1 -6.123234e-17 1447.3269 626.7861)">
	<stop  offset="0" style="stop-color:#FFFFFF"/>
	<stop  offset="1" style="stop-color:#D9D9D9;stop-opacity:0"/>
</linearGradient>
<path class="st115" d="M127.6-87.1L127.6-87.1c0-2.9,2.4-5.3,5.3-5.3h251.9c2.9,0,5.3,2.4,5.3,5.3l0,0c0,2.9-2.4,5.3-5.3,5.3H132.9
	C130-81.8,127.6-84.2,127.6-87.1z"/>
<linearGradient id="SVGID_116_" gradientUnits="userSpaceOnUse" x1="614.3301" y1="428.7751" x2="614.3301" y2="-342.2809" gradientTransform="matrix(6.123234e-17 -1 -1 -6.123234e-17 456.8574 1418.2737)">
	<stop  offset="0" style="stop-color:#FFFFFF"/>
	<stop  offset="1" style="stop-color:#D9D9D9;stop-opacity:0"/>
</linearGradient>
<path class="st116" d="M28.1,803.9L28.1,803.9c0-2.9,2.3-5.2,5.2-5.2h760.6c2.9,0,5.2,2.3,5.2,5.2l0,0c0,2.9-2.3,5.2-5.2,5.2H33.3
	C30.4,809.2,28.1,806.8,28.1,803.9z"/>
<linearGradient id="SVGID_117_" gradientUnits="userSpaceOnUse" x1="490.0434" y1="968.5521" x2="490.0434" y2="288.2991" gradientTransform="matrix(6.123234e-17 -1 -1 -6.123234e-17 871.9728 753.835)">
	<stop  offset="0" style="stop-color:#FFFFFF"/>
	<stop  offset="1" style="stop-color:#D9D9D9;stop-opacity:0"/>
</linearGradient>
<path class="st117" d="M-96.6,263.8L-96.6,263.8c0-3.1,2.5-5.6,5.6-5.6h669c3.1,0,5.6,2.5,5.6,5.6v0c0,3.1-2.5,5.6-5.6,5.6H-91
	C-94.1,269.4-96.6,266.9-96.6,263.8z"/>
<linearGradient id="SVGID_118_" gradientUnits="userSpaceOnUse" x1="1271.4972" y1="616.9471" x2="1271.4972" y2="112.9141" gradientTransform="matrix(6.123234e-17 -1 -1 -6.123234e-17 1302.1964 1887.2686)">
	<stop  offset="0" style="stop-color:#FFFFFF"/>
	<stop  offset="1" style="stop-color:#D9D9D9;stop-opacity:0"/>
</linearGradient>
<path class="st118" d="M685.2,615.8L685.2,615.8c0-2.9,2.3-5.2,5.2-5.2H1184c2.9,0,5.2,2.3,5.2,5.2v0c0,2.9-2.3,5.2-5.2,5.2H690.5
	C687.6,621,685.2,618.7,685.2,615.8z"/>
<linearGradient id="SVGID_119_" gradientUnits="userSpaceOnUse" x1="655.1152" y1="247.3482" x2="655.1152" y2="-217.4398" gradientTransform="matrix(6.123234e-17 -1 -1 -6.123234e-17 316.2155 1640.4856)">
	<stop  offset="0" style="stop-color:#FFFFFF"/>
	<stop  offset="1" style="stop-color:#D9D9D9;stop-opacity:0"/>
</linearGradient>
<path class="st119" d="M68.9,985.4L68.9,985.4c0-2.9,2.3-5.2,5.2-5.2h454.3c2.9,0,5.2,2.3,5.2,5.2v0c0,2.9-2.3,5.2-5.2,5.2H74.1
	C71.2,990.6,68.9,988.3,68.9,985.4z"/>
<linearGradient id="SVGID_120_" gradientUnits="userSpaceOnUse" x1="655.1152" y1="1067.5111" x2="655.1152" y2="663.5151" gradientTransform="matrix(6.123234e-17 -1 -1 -6.123234e-17 1136.3784 820.3226)">
	<stop  offset="0" style="stop-color:#FFFFFF"/>
	<stop  offset="1" style="stop-color:#D9D9D9;stop-opacity:0"/>
</linearGradient>
<path class="st120" d="M68.9,165.2L68.9,165.2c0-2.9,2.3-5.2,5.2-5.2h393.5c2.9,0,5.2,2.3,5.2,5.2v0c0,2.9-2.3,5.2-5.2,5.2H74.1
	C71.2,170.5,68.9,168.1,68.9,165.2z"/>
<linearGradient id="SVGID_121_" gradientUnits="userSpaceOnUse" x1="1385.2786" y1="910.0691" x2="1385.2786" y2="647.5071" gradientTransform="matrix(6.123234e-17 -1 -1 -6.123234e-17 1709.0104 1707.8386)">
	<stop  offset="0" style="stop-color:#FFFFFF"/>
	<stop  offset="1" style="stop-color:#D9D9D9;stop-opacity:0"/>
</linearGradient>
<path class="st121" d="M798.9,322.6L798.9,322.6c0-2.9,2.4-5.3,5.3-5.3h251.9c2.9,0,5.3,2.4,5.3,5.3v0c0,2.9-2.4,5.3-5.3,5.3H804.3
	C801.3,327.9,798.9,325.5,798.9,322.6z"/>
<linearGradient id="SVGID_122_" gradientUnits="userSpaceOnUse" x1="408.1002" y1="1167.9691" x2="408.1002" y2="192.2221" gradientTransform="matrix(6.123234e-17 -1 -1 -6.123234e-17 989.8214 472.8496)">
	<stop  offset="0" style="stop-color:#FFFFFF"/>
	<stop  offset="1" style="stop-color:#D9D9D9;stop-opacity:0"/>
</linearGradient>
<path class="st122" d="M-178.1,64.7L-178.1,64.7c0-2.9,2.3-5.2,5.2-5.2h965.3c2.9,0,5.2,2.3,5.2,5.2v0c0,2.9-2.3,5.2-5.2,5.2h-965.3
	C-175.8,70-178.1,67.6-178.1,64.7z"/>
</svg>
