<?xml version="1.0" encoding="utf-8"?>
<!-- Generator: Adobe Illustrator 23.0.5, SVG Export Plug-In . SVG Version: 6.00 Build 0)  -->
<svg version="1.1" id="Слой_1" xmlns="http://www.w3.org/2000/svg" xmlns:xlink="http://www.w3.org/1999/xlink" x="0px" y="0px"
	 width="1060.6px" height="1061.3px" viewBox="0 0 1060.6 1061.3" style="enable-background:new 0 0 1060.6 1061.3;"
	 xml:space="preserve">
<style type="text/css">
	.st0{fill:url(#SVGID_1_);filter:url(#Adobe_OpacityMaskFilter);}
	.st1{mask:url(#mask0_0_1_1_);}
	.st2{fill:url(#SVGID_2_);}
	.st3{fill:url(#SVGID_3_);}
	.st4{fill:url(#SVGID_4_);}
	.st5{fill:url(#SVGID_5_);}
	.st6{fill:url(#SVGID_6_);}
	.st7{fill:url(#SVGID_7_);}
	.st8{fill:url(#SVGID_8_);}
	.st9{fill:url(#SVGID_9_);}
	.st10{fill:url(#SVGID_10_);}
	.st11{fill:url(#SVGID_11_);}
	.st12{fill:url(#SVGID_12_);}
	.st13{fill:url(#SVGID_13_);}
	.st14{fill:url(#SVGID_14_);}
	.st15{fill:url(#SVGID_15_);}
	.st16{fill:url(#SVGID_16_);}
	.st17{fill:url(#SVGID_17_);}
	.st18{fill:url(#SVGID_18_);}
	.st19{fill:url(#SVGID_19_);}
	.st20{fill:url(#SVGID_20_);}
	.st21{fill:url(#SVGID_21_);}
	.st22{fill:url(#SVGID_22_);}
	.st23{fill:url(#SVGID_23_);}
	.st24{fill:url(#SVGID_24_);}
	.st25{fill:url(#SVGID_25_);}
	.st26{fill:url(#SVGID_26_);}
	.st27{fill:url(#SVGID_27_);}
	.st28{fill:url(#SVGID_28_);}
	.st29{fill:url(#SVGID_29_);}
	.st30{fill:url(#SVGID_30_);}
	.st31{fill:url(#SVGID_31_);}
	.st32{fill:url(#SVGID_32_);}
	.st33{fill:url(#SVGID_33_);}
	.st34{fill:url(#SVGID_34_);}
	.st35{fill:url(#SVGID_35_);}
	.st36{fill:url(#SVGID_36_);}
	.st37{fill:url(#SVGID_37_);}
	.st38{fill:url(#SVGID_38_);}
	.st39{fill:url(#SVGID_39_);}
	.st40{fill:url(#SVGID_40_);}
	.st41{fill:url(#SVGID_41_);}
	.st42{fill:url(#SVGID_42_);}
	.st43{fill:url(#SVGID_43_);}
	.st44{fill:url(#SVGID_44_);}
	.st45{fill:url(#SVGID_45_);}
	.st46{fill:url(#SVGID_46_);}
	.st47{fill:url(#SVGID_47_);}
	.st48{fill:url(#SVGID_48_);}
	.st49{fill:url(#SVGID_49_);}
	.st50{fill:url(#SVGID_50_);}
	.st51{fill:url(#SVGID_51_);}
	.st52{fill:url(#SVGID_52_);}
	.st53{fill:url(#SVGID_53_);}
	.st54{fill:url(#SVGID_54_);}
	.st55{fill:url(#SVGID_55_);}
	.st56{fill:url(#SVGID_56_);}
	.st57{fill:url(#SVGID_57_);}
	.st58{fill:url(#SVGID_58_);}
	.st59{fill:url(#SVGID_59_);}
	.st60{fill:#D9D9D9;}
	.st61{fill:#FFFFFF;}
	.st62{fill:url(#SVGID_60_);}
	.st63{fill:url(#SVGID_61_);}
	.st64{fill:url(#SVGID_62_);}
	.st65{fill:url(#SVGID_63_);}
	.st66{fill:url(#SVGID_64_);}
	.st67{fill:url(#SVGID_65_);}
	.st68{fill:url(#SVGID_66_);}
	.st69{fill:url(#SVGID_67_);}
	.st70{fill:url(#SVGID_68_);}
	.st71{fill:url(#SVGID_69_);}
	.st72{fill:url(#SVGID_70_);}
	.st73{fill:url(#SVGID_71_);}
	.st74{fill:url(#SVGID_72_);}
	.st75{fill:url(#SVGID_73_);}
	.st76{fill:url(#SVGID_74_);}
	.st77{fill:url(#SVGID_75_);}
	.st78{fill:url(#SVGID_76_);}
	.st79{fill:url(#SVGID_77_);}
</style>
<defs>
	<filter id="Adobe_OpacityMaskFilter" filterUnits="userSpaceOnUse" x="-186.4" y="-252.1" width="1535" height="1320.3">
		<feColorMatrix  type="matrix" values="1 0 0 0 0  0 1 0 0 0  0 0 1 0 0  0 0 0 1 0"/>
	</filter>
</defs>
<mask maskUnits="userSpaceOnUse" x="-186.4" y="-252.1" width="1535" height="1320.3" id="mask0_0_1_1_">
	
		<linearGradient id="SVGID_1_" gradientUnits="userSpaceOnUse" x1="528.5" y1="1070.7401" x2="528.5" y2="7.7401" gradientTransform="matrix(1 0 0 -1 0 1069.5903)">
		<stop  offset="0" style="stop-color:#626D7C"/>
		<stop  offset="1" style="stop-color:#708CA7"/>
	</linearGradient>
	<rect y="-1.1" class="st0" width="1057" height="1063"/>
</mask>
<g class="st1">
	
		<linearGradient id="SVGID_2_" gradientUnits="userSpaceOnUse" x1="531.35" y1="1070.7401" x2="531.35" y2="8.0401" gradientTransform="matrix(1 0 0 -1 0 1069.5903)">
		<stop  offset="0" style="stop-color:#626D7C"/>
		<stop  offset="1" style="stop-color:#708CA7"/>
	</linearGradient>
	<rect y="-1.1" class="st2" width="1062.7" height="1062.7"/>
	
		<linearGradient id="SVGID_3_" gradientUnits="userSpaceOnUse" x1="1159.4595" y1="658.873" x2="-41.9325" y2="658.8692" gradientTransform="matrix(1 0 0 -1 0 1069.5903)">
		<stop  offset="0" style="stop-color:#FEFEFE;stop-opacity:0"/>
		<stop  offset="1" style="stop-color:#FFFFFF"/>
	</linearGradient>
	<rect x="-15.7" y="408.8" class="st3" width="1121.4" height="3.9"/>
	
		<linearGradient id="SVGID_4_" gradientUnits="userSpaceOnUse" x1="1803.1296" y1="1096.1517" x2="601.7335" y2="1096.1489" gradientTransform="matrix(-1 0 0 -1 1702.45 1241.1984)">
		<stop  offset="0" style="stop-color:#FEFEFE;stop-opacity:0"/>
		<stop  offset="1" style="stop-color:#FFFFFF"/>
	</linearGradient>
	<rect x="-47" y="142.5" class="st4" width="1121.4" height="5.2"/>
	
		<linearGradient id="SVGID_5_" gradientUnits="userSpaceOnUse" x1="1803.1295" y1="1096.8147" x2="601.7334" y2="1096.8104" gradientTransform="matrix(-1 0 0 -1 1733.79 1230.7544)">
		<stop  offset="0" style="stop-color:#FEFEFE;stop-opacity:0"/>
		<stop  offset="1" style="stop-color:#FFFFFF"/>
	</linearGradient>
	<rect x="-15.7" y="132" class="st5" width="1121.4" height="3.9"/>
	
		<linearGradient id="SVGID_6_" gradientUnits="userSpaceOnUse" x1="956.0295" y1="324.6587" x2="-162.8493" y2="324.6548" gradientTransform="matrix(1 0 0 -1 0 1069.5903)">
		<stop  offset="0" style="stop-color:#FEFEFE;stop-opacity:0"/>
		<stop  offset="1" style="stop-color:#FFFFFF"/>
	</linearGradient>
	<rect x="-138.4" y="743" class="st6" width="1044.4" height="3.9"/>
	
		<linearGradient id="SVGID_7_" gradientUnits="userSpaceOnUse" x1="3297.0305" y1="217.5277" x2="2178.1506" y2="217.5235" gradientTransform="matrix(-1 0 0 1 3551.22 344.7002)">
		<stop  offset="0" style="stop-color:#FEFEFE;stop-opacity:0"/>
		<stop  offset="1" style="stop-color:#FFFFFF"/>
	</linearGradient>
	<rect x="304.2" y="560.2" class="st7" width="1044.4" height="3.9"/>
	
		<linearGradient id="SVGID_8_" gradientUnits="userSpaceOnUse" x1="3244.5305" y1="-52.7233" x2="1985.7905" y2="-52.7273" gradientTransform="matrix(-1 0 0 1 3172.6201 885.1902)">
		<stop  offset="0" style="stop-color:#FEFEFE;stop-opacity:0"/>
		<stop  offset="1" style="stop-color:#FFFFFF"/>
	</linearGradient>
	<rect x="-15.7" y="830.5" class="st8" width="1175" height="3.9"/>
	
		<linearGradient id="SVGID_9_" gradientUnits="userSpaceOnUse" x1="3144.2805" y1="190.1111" x2="2025.4105" y2="190.1069" gradientTransform="matrix(-1 0 0 1 3245.74 399.5322)">
		<stop  offset="0" style="stop-color:#FEFEFE;stop-opacity:0"/>
		<stop  offset="1" style="stop-color:#FFFFFF"/>
	</linearGradient>
	<rect x="151.4" y="587.6" class="st9" width="1044.4" height="3.9"/>
	
		<linearGradient id="SVGID_10_" gradientUnits="userSpaceOnUse" x1="834.8864" y1="411.7131" x2="834.8864" y2="329.6041" gradientTransform="matrix(1 0 0 -1 0 1069.5903)">
		<stop  offset="0" style="stop-color:#FFFFFF"/>
		<stop  offset="1" style="stop-color:#666E83"/>
	</linearGradient>
	<path class="st10" d="M1020.4,715.9c-2.9-8.2,5.8-10,12.8-17c6.9-7,12.1-8.2,0-12.4c-12.1-4.3-12.1-8.5-7.6-12.4
		c4.6-3.9-12.1,1.5-12.1,1.5s6.9-8.8-7.5-16c-14.6-7-30.2-16.4-33.6-5.4c-3.4,11-6.4,15.5-12.1,12.8c-5.8-2.8-15.8-3.9-18.1,1.1
		c-2.3,4.9,6.9,8.5-2.9,10.6c-9.8,2.1-11-4.3-19.2-2.8c-8.2,1.5-8.2,5.7-10.5,7.5c-2.3,1.8-12.1,0-18.5,3.3
		c-6.4,3.3-9.8,2.1-12.8-1.8c-3-3.9-9.8-6.1-15.8-6.1c-5.7,0-13.3-6.7-16.2-8.2c-3-1.5-13.9-3.9-16.3,2.8c-2.3,6.7-9.3,11-12.8,8.8
		c-3.5-2.1-17.4-4.9-24.5-10.6c-6.9-5.7-18,1.5-22.1-2.8c-4.1-4.3-16.9-11.6-24.4-12.4c-7.5-0.7-27.2,3.1-29,12.4
		c-1.8,9.2,6.9,18.8-9.4,17.3c-16.2-1.5-72.7,1-77.3,9.2c-4.6,8.2,4.6,23.4,14.6,26.7c8.2,2.6,25.1,2.1,25.3,9.3h331.7
		c0.2,0,0.3,0,0.5-0.2C1014.7,728.3,1023.4,724.1,1020.4,715.9z"/>
	
		<linearGradient id="SVGID_11_" gradientUnits="userSpaceOnUse" x1="216.0661" y1="252.3801" x2="216.0661" y2="188.4091" gradientTransform="matrix(1 0 0 -1 0 1069.5903)">
		<stop  offset="0" style="stop-color:#FFFFFF"/>
		<stop  offset="1" style="stop-color:#666E83"/>
	</linearGradient>
	<path class="st11" d="M317.1,873.6c3.1-2.4-2.1-4.9,0.5-7c5.8-4.7,18.1-8.6,18.3-11.2c0.5-8.2,7.9-18.7,3.5-20.9
		c-1.8-1-3.3-5.7-9.5-4.2c-4.6,1.1-13.8,8.5-18.1,9c-3.9,0.5-7.2-5.1-8.9-3.8c-5.9,4.2-24,12.6-28.9,9.5c-4.9-3.1-9-11.1-19.2-5.9
		c-10.2,5.2-24,3.4-32.1-2.6c-5.1-3.8-5.4-1.8-15,4.9c-1.5,1.1-4.8-3.9-8.1-2.6c-3,1.1-5.8,8.6-7.4,9.9c-3.1,2.6-5.9,6.5-10,4.7
		c0,0-1.2-4.4,1.2-13.5c2.3-9,7.9-18.6,5.4-21.7c-2.3-2.9-5.8,3.9-13.2,6.8c-3.5,1.3-11-3.1-13.8-1c-4.3,3.3-7.2,11.9-7.2,11.9
		s-3.9-7.7-11.7-7.3c-6.1,0.2-15,7.5-21.9,9.9c-9.2,3.3-19.4,16-20.7,16.6c-1.5,0.8,1.5,7.8-4.4,18.6c-1.3,2.4-3,5.1-4.4,7.7h212.4
		c0.3-0.8,0.8-1.6,1.5-2.3C306.8,877,315,875.2,317.1,873.6z"/>
	
		<linearGradient id="SVGID_12_" gradientUnits="userSpaceOnUse" x1="718.6951" y1="245.4751" x2="718.6951" y2="291.241" gradientTransform="matrix(1 0 0 -1 0 1069.5903)">
		<stop  offset="0" style="stop-color:#FFFFFF"/>
		<stop  offset="1" style="stop-color:#666E83"/>
	</linearGradient>
	<path class="st12" d="M721.5,810.2c-5.5,2.5-8.5,3.1-9.4,0c-0.8-3.1-3.2-6-5.5-6s-2.3-3.1-3-5c-0.7-1.8-4.7-2.1-6.2-1.8
		c-1.5,0.3-6.2-4.1-6.7-5.6c-0.7-1.3,1.8-3.5,2.7-6c0.8-2.5,6.7-9.4,11.2-7.3c4.3,2.1,7,13.6,10.2,10.4c3.2-3.1,2-8.1,3.2-7.6
		c1.2,0.3,5,2.8,5.3,3.8c0.3,1,6.2,2.5,7-0.3c0.8-2.8,5.5-2.5,7.7,1c2,3.5-2.7,12.9,0,13.6c2.7,0.7,5.7,5,8,9.1
		c2.3,4.1-1,15.4-9.7,15.4c-0.8,0-6.5-6.6-11.4-6.6c-4.8,0-8,6.6-8.2,3.8C716.1,818.5,721.5,810.2,721.5,810.2z"/>
	
		<linearGradient id="SVGID_13_" gradientUnits="userSpaceOnUse" x1="584.8781" y1="194.3601" x2="584.8781" y2="250.6121" gradientTransform="matrix(1 0 0 -1 0 1069.5903)">
		<stop  offset="0" style="stop-color:#FFFFFF"/>
		<stop  offset="1" style="stop-color:#666E83"/>
	</linearGradient>
	<path class="st13" d="M594.3,858.4c-4.9,6.2-7.8,8.9-10.8,5.8c-2.9-3.1-7.3-4.9-10.1-3.6c-2.8,1.5-4.6-2.3-6.4-3.9
		c-1.8-1.6-6.7,0.3-8.2,1.6c-1.5,1.3-9.6-1.1-11.1-2.5c-1.5-1.3-0.2-5.1-0.7-8.5c-0.3-2,5.7-3.9,7.5-7.6c1.3-2.8-2-7.7,0.8-7.9
		c6.4-0.2,16.5,11.7,18.3,6.1c1.8-5.6-2.4-10.7-1-11c1.6-0.3,7.5,0.2,8.5,1.3c1,1,8.6-0.8,7.8-4.8c-0.7-3.8,4.9-6.2,9.5-3.4
		c4.6,2.8,4.9,16.8,8.3,15.9c3.4-0.8,9.5,2.3,14.7,5.8c3.1,2.1-0.5,10.2-2,16.4c-1,4.1,0.5,7.2,0.2,7.6c-0.3,0.2-2.4,4.8-5.1,5.4
		c-2,0.5-4.1,3-5.9,2.5c-2.4-0.5-4.2-4.1-4.2-4.1s-7,7.9-9.1,4.8C593.3,871.3,594.3,858.4,594.3,858.4z"/>
	
		<linearGradient id="SVGID_14_" gradientUnits="userSpaceOnUse" x1="1064.2461" y1="1103.875" x2="880.666" y2="909.3381" gradientTransform="matrix(1 0 0 -1 0 1069.5903)">
		<stop  offset="0" style="stop-color:#FEFEFE"/>
		<stop  offset="1" style="stop-color:#BFBFBF"/>
	</linearGradient>
	<path class="st14" d="M1152.3,0.6l26.6,12.4c3.5,1.6,5.7,5.1,5.7,9c0,5.5-4.4,9.9-9.9,9.9H848.3c-5.7,0-10.3-4.6-10.3-10.2
		c0-3.7,2-7.1,5.2-8.9l22.5-12.6c2.4-1.3,5.1-2,7.8-2h23c4.3,0,8.5,1.8,11.5,4.9l7.6,7.8c3,3.1,7.2,4.9,11.5,4.9h25.4
		c2.1,0,4.1-0.4,6-1.2L999-2l33-12.1c4.8-1.7,10-1.1,14.3,1.6l36.7,24c4,2.6,8.9,3.3,13.4,1.9l44.5-13.6
		C1144.7-1.3,1148.7-1,1152.3,0.6z"/>
	
		<linearGradient id="SVGID_15_" gradientUnits="userSpaceOnUse" x1="403.0613" y1="1158.2433" x2="367.9063" y2="772.4112" gradientTransform="matrix(1 0 0 -1 0 1069.5903)">
		<stop  offset="0" style="stop-color:#FEFEFE"/>
		<stop  offset="1" style="stop-color:#BFBFBF"/>
	</linearGradient>
	<path class="st15" d="M631.2-37.4c20.5,15.6,51.9,39.5,65.3,49.8c3.9,3,6.2,7.6,6.2,12.5v7.8c0,8.8-7.2,16-16,16H98.1
		c-8.8,0-16-7.2-16-16v-8.1c0-4.8,2.1-9.3,5.8-12.3c18.3-14.9,47.7-37.5,53.4-36.5c7.9,1.4,63.1,41.3,72.3,41.3
		c9.2,0,107.8-19.3,123.6-28.9c15.8-9.6,92-30.3,99.9-30.3c7.9,0,59.2,34.4,71,30.3c8.8-3.1,72.6-19.2,109.6-28.4
		C622.4-41.4,627.3-40.4,631.2-37.4z"/>
	
		<linearGradient id="SVGID_16_" gradientUnits="userSpaceOnUse" x1="623.6965" y1="856.6321" x2="623.6965" y2="1138.9683" gradientTransform="matrix(1 0 0 -1 0 1069.5903)">
		<stop  offset="0" style="stop-color:#FFFFFF"/>
		<stop  offset="1" style="stop-color:#666E83"/>
	</linearGradient>
	<path class="st16" d="M1265.6-99.2c5.1,1.9,9.7,3.8,14.2,5.7V79.9c-2.2,0.2-2.8,2.3-3.7,7.8c-1.2,7.6-10.3,19-22.9,19.6
		c-12.6,0.6-20.5,9.1-32.8,17.1c-12.6,8-6.7,17.9-36.7,26s-18.2-5.5-31.2-17.9c-13-12.7-6.3-2.7-8.7,1.1c-2.4,3.8-10.3,0.8-11.1-0.8
		c-0.8-1.7-6.1-9.3-13.6-1.5c-7.5,7.6-7.5,4.2-7.9,2.7c-0.4-1.5-13-4.9-18.6,2.1c-5.9,7-10.7,1.5-32.4-4.9
		c-21.7-6.3-17.4-9.7-17.4-1.5c0,8.4-7.9,6.3-19.4,8s-22.1-11.8-23.3-4.9c-1.2,7-18.6,0-17.4,1.7c1.2,1.7-0.4,5.1-5.5,9.9
		c-5.1,4.9-7.1,2.7-9.5,1.1c-2.4-1.7-1.2-3.6-9.5-8.4c-8.3-4.9-15-1.7-15,0.6c0,2.5-9.1,15.4-17,18.2c-7.9,2.7-8.7,12.7-15.4,13.3
		c-6.7,0.6-7.1-10.6-9.5-13.7c-2.4-3.2-6.3-1.7-7.5,4.6c-1.2,6.3-11.1,6.3-18.2,6.3c-7.1,0-10.3,4.2-17.8,11.8
		c-7.5,7.6-15,5.3-32.4,0c-17.4-5.3-23.3-5.3-37.1-4.6c-13.8,0.6-13-2.1-19-3.8c-6.3-1.7-5.5,1.1-13,0c-7.5-1.1-1.6-14.4-5.5-11.2
		c-3.6,3.2-16.2,5.7-24.9,5.9c-8.7,0.4-18.6-3.2-28.8-4.2c-9.9-1.1-12.6-3.6-19.4-9.5c-7.1-5.9-9.5-12.9-16.6-19.2
		c-7.1-6.3-22.9-15.8-24.5-12.7c-1.6,3.2-9.1,4.6-14.2,2.7c-5.1-1.7-14.2-1.1-21.7,0c-7.5,1.1-9.9-0.6-13-3.2
		c-2.8-2.5-3.2-2.5-9.1-3.6c-5.9-1.1-10.3,0-9.9-4.9c0.4-4.9,0-8.7-7.9-6.8c-7.9,2.1-7.5,2.5-10.3-4.6c-2.8-7-5.9-3.2-15-2.7
		c-9.1,0.4-9.5,0.6-9.5-4.6s-5.9-3.2-17-3.2c-11.1,0-13-1.7-13.8-4.9c-0.8-3.2-19,0.4-20-2.1c-0.8-2.5-8.7-1.7-16.6-0.6
		c-7.9,1.1-0.4,3.8,0,8.4c0.4,4.6-1.2,10.1-5.9,7c-4.7-3.2-2.8-7.8-10.7-6.8c-7.9,1.1-16.2,1.5-17.8,5.1c-1.6,3.6-10.3,5.7-17,7.4
		c-6.7,1.7-2,15-7.1,22.4c-5.1,7.4-14.6,13.7-22.9,12.2c-8.3-1.5-6.7-5.9-8.7-4.2c-2,1.7-5.1,3.2-11.5,0c-6.7-3.2-10.7-3.2-12.6-2.1
		c-1.6,1.1-8.7-0.4-12.6-4.2c-3.6-3.8-9.5-3.8-15-5.3s-18.2-3.8-23.3,5.3s-7.5,8.4-9.9,8.7c-2.4,0.4-9.5-4.2-9.9,1.5
		c-0.4,5.7-10.7,8.7-13.4,3.6c-2.4-5.3-15.8-2.1-20,1.5c-4.3,3.6-21.7,15-28.2,9.5c-6.7-5.7-7.1-8-7.1-8
		c-25.3-10.1-5.5-18.6-15.8-25.6c-10.3-7-15.8-34.2-19-36.3c-3.2-2.1-7.9,0-10.3-2.1c-2.4-2.1-7.1-3.8-6.7-8
		c0.4-4.2-8.3-6.3-10.7-5.9c-2.4,0.4-12.6,0.4-14.2-3.8c-1.6-4-8.7-0.4-10.7-0.2c-2,0.4-9.1,0-12.2-2.5c-2.8-2.5-4.3-6.3-7.1-7
		c-2.8-0.6-4.7-1.7-3.2-4.4c1.2-2.5-1.2-2.5-3.2-6.5c-2-3.8-5.5-3.2-14.2-3.2c-8.7,0-7.9,7.2-20,3.8c-2.2-0.6-7.1-4.6-8.7-5.5
		c-1.6-0.8-5.5-1.5-6.3-0.4c-0.8,1.1-6.3,0-6.3,0S33.8,33,33,30.2c-0.8-2.7-4.7-1.7-4.7-1.7s-3.6,0-5.5,1.5c-1.6,1.5-3.2-1.5-5.5-4
		c-2-2.5-9.1-3.4-13.4-0.6c-20,13.5-28.8,5.1-36.5,1.5V-99.2H1265.6z"/>
	
		<linearGradient id="SVGID_17_" gradientUnits="userSpaceOnUse" x1="63.5277" y1="985.6106" x2="63.5277" y2="1183.9186" gradientTransform="matrix(1 0 0 -1 0 1069.5903)">
		<stop  offset="0" style="stop-color:#FFFFFF"/>
		<stop  offset="1" style="stop-color:#666E83"/>
	</linearGradient>
	<path class="st17" d="M154.4-18.5c-1.4,11.9,2,25.5-2,30.2c-4,4.7-19.1,45-22.9,40.6c-3.8-4.5-19.3-42.1-24-36.1
		c-4.6,6.2-12.9,18.9-19.9,14.2c-6.8-4.9-18.3,2.1-26.2,13.4c-7.8,11.3-8.3,30.2-20.7,8.5c0,0-5.2,18.1-10.7,29.1
		c-5.4,11-23.3-16.1-23.3-16.1s-26,16.6-32.2-9.8v-95.4C-16.9-48.6-6-54.6,0.6-52.7c8.9,2.5,10.7-46.5,22.3-56.9
		c11.9-10.4,26.2-2.3,24.2,11.3c-2,13.4,17.5,19.5,20.1,15.9c2.6-3.8,17.9-6.2,21.9-5.3c4,0.8-7.4,18.9-3.2,38.7
		c4.2,19.8,31-22.9,47.5-22.7C150.2-71.6,155.8-30.4,154.4-18.5z"/>
	
		<linearGradient id="SVGID_18_" gradientUnits="userSpaceOnUse" x1="447.1827" y1="995.6942" x2="447.1827" y2="1108.2925" gradientTransform="matrix(1 0 0 -1 0 1069.5903)">
		<stop  offset="0" style="stop-color:#FFFFFF"/>
		<stop  offset="1" style="stop-color:#666E83"/>
	</linearGradient>
	<path class="st18" d="M429,40.3c9.5,12.4,15.4,17.7,21,11.4c5.7-6.3,14.1-9.9,19.4-7.1c5.3,2.9,8.9-4.4,12.3-8
		c3.4-3.4,12.9,0.8,15.8,3.4c2.8,2.5,18.6-2.3,21.6-4.8c3-2.5,0.2-10.3,1-17c0.6-3.8-11.1-7.8-14.5-15.1c-2.6-5.7,3.6-15.4-1.6-15.6
		c-12.3-0.4-31.7,23.3-35.2,12c-3.4-11.4,4.8-21.2,1.8-21.9c-3-0.6-14.3,0.4-16.4,2.5c-1.8,2.1-16.6-1.7-15.4-9.5
		c1.4-7.6-9.5-12.4-18.2-6.7c-8.7,5.7-9.3,33.4-16,32s-18.4,4.6-28.5,11.6c-6.1,4.2,0.8,20.4,3.8,32.8c1.8,8-1,14.5-0.2,14.9
		c0.8,0.4,4.8,9.5,9.9,10.7c3.8,1.1,7.9,5.9,11.5,5c4.6-1.1,8.1-8,8.1-8s13.7,15.8,17.6,9.7C431,66.4,429,40.3,429,40.3z"/>
	
		<linearGradient id="SVGID_19_" gradientUnits="userSpaceOnUse" x1="1018.6345" y1="946.9574" x2="1018.6345" y2="1026.0551" gradientTransform="matrix(1 0 0 -1 0 1069.5903)">
		<stop  offset="0" style="stop-color:#FFFFFF"/>
		<stop  offset="1" style="stop-color:#666E83"/>
	</linearGradient>
	<path class="st19" d="M1026.3,110.6c2.8-3.9,9.5,0.6,13.6-3.7c4-4.4,10.1-7,14-5c3.6,2.1,6.5-3.1,8.7-5.6c2.4-2.3,9.3,0.6,11.3,2.5
		c2,1.9,13.3-1.7,15.4-3.5c2-1.9,15.8-12,16.4-16.8c0.4-2.7-23.5-0.6-26.1-5.8c-1.8-3.9,2.6-10.8-1.2-11
		c-8.7-0.2-22.7,16.4-25.1,8.5c-2.4-7.9,3.4-14.9,1.4-15.3c-2.2-0.4-10.3,0.4-11.7,1.9c-1.4,1.5-11.9-1.2-10.9-6.6
		c1-5.4-6.9-8.7-13-4.8c-6.3,3.9-6.7,23.6-11.5,22.4c-4.9-1-13.2,3.3-20.2,8.1c-4.5,2.9-57.7,4.4-55.7,13.1
		c0.4,2.1,6.1,15.3,14,18.2c5.3,2.1,11.7-10.6,18-10.8c10.1,0,20.2,11.6,26.1,12.8c0.6,0.2,3.4,6.6,7.1,7.7c2.6,0.6,5.7,4.1,8.3,3.5
		c3.2-0.8,5.9-5.6,5.9-5.6s9.7,11.2,12.6,6.8C1026.6,117.3,1026.3,110.6,1026.3,110.6z"/>
	
		<linearGradient id="SVGID_20_" gradientUnits="userSpaceOnUse" x1="967.0502" y1="978.8882" x2="967.0502" y2="1151.9877" gradientTransform="matrix(1 0 0 -1 0 1069.5903)">
		<stop  offset="0" style="stop-color:#FFFFFF"/>
		<stop  offset="1" style="stop-color:#666E83"/>
	</linearGradient>
	<path class="st20" d="M1171.8,19.1c0,0,9.5,10.1-5.5,21.7s-31,26.1-36.9,12.6c-5.9-13.5-10.1-18.7-16-14.1
		c-6.1,4.6-16.8,7.8-20.5,1.7c-3.4-5.9,6.3-12-5.3-13c-11.6-1.1-11.6,7.4-21.1,6.9c-9.3-0.4-10.1-5.9-13.2-7.6
		c-2.8-1.9-13.8,2.1-21.5-0.8c-7.7-2.9-11.6-1.1-14,4.4c-2.6,5.5-9.9,9.5-16.6,10.3c-6.5,1.1-13.8,10.9-16.8,13.3
		c-3,2.3-15,7.4-18.9-0.8c-3.9-8.2-12.4-12.4-16-9c-3.4,3.4-18.7,9.3-25.6,17.9c-6.9,8.4-20.5,1.3-24.3,7.4
		c-3.9,6.1-16.8,17.9-25.1,20c-8.3,2.3-31.2,0.6-34.9-10.7c-3.7-11.4,4.5-25-13.6-20.4c-18.1,4.6-81.7,11.4-88.6,1.7
		c-6.7-9.5,1-30.5,11.6-36.4c10.5-5.7,35.5-7.8,23.5-22.5c-12.2-14.7-19.3-28-15.6-39.1c3.7-11.2,12.2-17.5,37.1-20.4
		c24.9-2.9,70.2,4.8,89.4,9.3c19.3,4.4,20.1-9,22.9-16.4c3-7.4,34.9-12.8,63.1-16.6c28.2-4,40.8,18.5,61.1,21
		c20.3,2.3,74.8-18.5,80.3-17c5.5,1.5,17.6,11.6,17.6,19.8c-0.2,8.4,6.3,6.9,20.5,8.4c14.2,1.5,24.7,5.5,23.1,16.2
		c-1.8,10.9,8.3,11.6,17.4,19.4c9.1,7.8,15.2,8.2,2.2,15.8c-13,7.6-12.2,13-6.3,17C1191.9,22.9,1171.8,19.1,1171.8,19.1z"/>
	
		<linearGradient id="SVGID_21_" gradientUnits="userSpaceOnUse" x1="509.244" y1="1052.7235" x2="509.244" y2="1146.9772" gradientTransform="matrix(1 0 0 -1 0 1069.5903)">
		<stop  offset="0" style="stop-color:#FFFFFF"/>
		<stop  offset="1" style="stop-color:#666E83"/>
	</linearGradient>
	<path class="st21" d="M459.6,5.3c0,0-4.6,6.5,8.5,2.1c13.1-4.4,5.4,0.4,11.5,2.7c5.8,2.3,16.3-1,17.9-4.8c1.6-3.8,8.5-2.1,13.7,3.3
		c5.2,5.4,8.5-5.4,18.1-9c9.7-3.6,15.3-11.3,29.4-9.6c14.1,1.7,20.2,3.1,25.4-2.3c5.2-5.4-2.2-15.5,11.3-18.2
		c13.5-2.5,16.7-2.7,18.7-11.3c2-8.8,27.2-10.2-5.8-20.7S582.2-82,557.2-74.7c-25,7.3-28.6,5.6-42.3,2.3
		c-13.7-3.3-21.8-6.9-25.2,0.6c-3.2,7.5-20.2,7.7-33.3,4.6c-12.9-3.1-20.4-6.5-24.2,0c-3.8,6.5-4.2,25.7-19.4,32.8
		c-15.3,7.1-23.2,21.1-18.1,27.4c5,6.3,20.6,23.4,24.8,18.4c4.2-4.8,12.3-15.5,14.7-0.6C436.6,25.6,456.6,8.7,459.6,5.3z"/>
	
		<linearGradient id="SVGID_22_" gradientUnits="userSpaceOnUse" x1="348.0448" y1="982.2496" x2="348.0448" y2="1078.1432" gradientTransform="matrix(1 0 0 -1 0 1069.5903)">
		<stop  offset="0" style="stop-color:#FFFFFF"/>
		<stop  offset="1" style="stop-color:#666E83"/>
	</linearGradient>
	<path class="st22" d="M473.2-8c-1.6,11.7,3.2,24.8-1.8,29.2c-5.1,4.4-32.4,12.7-37.2,8.3c-4.9-4.4-21.5-11.5-27.1-5.8
		c-5.9,5.8-12.1,18.3-21.2,13.5c-9.1-4.8-23.7,1.5-33.4,12.1c-9.7,10.6-19.6,1.9-36-19.4c0,0,3.2,44.4-3.4,55
		c-6.9,10.6-30.4-16.5-30.4-16.5s-6.1,11.9-14,13.7c-6.1,1.5-13.4-6.9-19.8-8.5c-8.5-2.3-15.6-17.7-17-18.3
		c-1.4-0.6,3.4-11.7,0.4-25.4c-2.8-12.3-8.3-27.1-9.9-38.3h250.9C473.2-8.5,473.2-8.2,473.2-8z"/>
	
		<linearGradient id="SVGID_23_" gradientUnits="userSpaceOnUse" x1="1170.9701" y1="1019.2222" x2="1170.9701" y2="1152.3733" gradientTransform="matrix(1 0 0 -1 0 1069.5903)">
		<stop  offset="0" style="stop-color:#FFFFFF"/>
		<stop  offset="1" style="stop-color:#666E83"/>
	</linearGradient>
	<path class="st23" d="M1278.2,31.8c-2.8,2.5-6.3,4.7-10.3,5.3c-3.8,0.6-8.3-4.7-13-5.3c-5.1-0.6-12.2,8.3-18.2,10.2
		c-4.1,1.3-7.7-5.3-9.9-3.6c-5.5,4.2-2,9.1-5.3,11c-6.7,3.6-11.1-3.4-20.7-13.4c-4.3-4.5-9.5,4.7-14.6,1.7c-1.2-0.6-3.4-9.8-5.7-11
		c-2.6-1.5-5.5,4.9-6.7,3.2c-3.4-4.9-1.4-9.8-3.6-8.3c-4.5,3-2.8-4.5-7.7-9.3c-2.6-2.5-10.5-0.4-14-4c-6.3-6.6-9.5-15.7-17.2-19.5
		c-4.7-2.3-10.7,0.8-20.2-2.1c-25.1-7.6-14.6-11.7-37.3-39c-22.9-27.4-0.6-14.6,5.7-21c6.1-6.4,8.9-4.7,21.7,0.6
		c12.8,5.3,11.8-7.6,19-9.3c7.3-1.7,11.7,3,22.9,12.3c11.1,9.3,20,5.9,30.2,8.3c10.1,2.3,18.4-5.3,20,2.3
		c1.6,7.6,6.7,12.9,10.1,10.6c3.5-2.3,14,0.6,17.8,5.9c3.8,5.3-5.1,5.3,8.3,8.7c13.4,3.6,6.1,6.4,6.1,6.4c4.4-1.3,30.2-4.7,24.5,9.3
		c-5.7,14,6.7,9.3,12.8,7.6c2-0.6,3.7,1.5,5.3,4.7V31.8L1278.2,31.8z"/>
	
		<linearGradient id="SVGID_24_" gradientUnits="userSpaceOnUse" x1="636.5896" y1="1321.7255" x2="636.5896" y2="1042.175" gradientTransform="matrix(1 0 0 -1 0 1069.5903)">
		<stop  offset="0" style="stop-color:#FFFFFF"/>
		<stop  offset="1" style="stop-color:#5F5E7C"/>
	</linearGradient>
	<path class="st24" d="M353.8-34.9c3.4-3.8-2.6-53.9-7.7-57.7c-26.7-21.7,3.2-35.9,7.7-44.4c4.3-8.5,3-1.5,3.8,4.5
		c0.8,5.9,2.2,7.6,3.4-1.9c1.2-9.6,1.8-12.1,4-10.2c2.2,1.9,2.4,0.6,2.8-7.4c0.4-8.1,4-19.7,8.9-20.6c4.9-0.6,7.9-9.6,12.7-18
		c4.9-8.5,4.7-20.6,16.2-28.9c11.5-8.5,5.1,7.4,9.9,20.6c5.1,13.2,6.3,2.5,7.3-1.5c1-4,8.3-1.3,8.9,0c1.8,3.6,5.1,5.1,7.3-2.1
		c2.2-7.4,4.2-1.5,12.5,5.1c8.3,6.6,6.7,10.2,6.7,1.5c0-8.7,23.9-3.4,23.3-5.1c-0.4-1.9-2.2-3.4-0.2-8.7c2-5.1,4.9-1.5,5.9,0.4
		c1,1.9,0.6,0.6,3.8,5.7c3.2,5.1,5.9,1.9,5.9-0.6c0-2.5-2.8-17,0.2-19.7c3-3,7.3-5.3,9.9-6.2c2.6-0.6,8.7,9.1,9.1,2.3
		c0.4-6.6,4.3-6.6,7.1-6.6c2.8,0,4-4.5,6.9-12.5c2.8-8.1,5.9-5.5,12.5,0c6.7,5.5,9.1,5.5,14.4,4.7c5.3-0.6,5.1,2.1,7.5,4
		c2.4,1.9,2-1.1,5.1,0c2.8,1.1,0.6,15.1,2,11.7c1.4-3.4,6.3-5.9,9.7-6.2c3.4-0.4,7.3,3.4,11.1,4.5c3.8,1.1,4.9,3.6,7.5,10
		c2.8,6.2,6.3,12.5,9.1,19.1c2.8,6.6,8.9,9.1,9.5,5.7c0.6-3.4,8.3,6.6,11.1,5.5s6.3,5.9,8.5,7c2.2,1.1,4,0,3.8,5.1
		c-0.2,5.1,7.7,8.9,8.3,12.3c1.4,7.2-1,4,2.6,3.6c3.6-0.4,8.1,6.8,12.3,6.8s5.1,1.9,5.3,5.1c0.4,3.4,7.5-0.4,7.7,2.1
		c0.4,2.5,3.4,1.9,6.5,0.6c3-1.1,2.8,0.4,2.6-4.2c-0.2-4.7,5.1-0.4,6.7,2.8c1.8,3.4-1.8,5.7,1.2,4.7c3-1.1,3.8,0.8,4.7-2.8
		c0.6-3.6,2,0.4,4.7-1.5c2.6-1.9-4.3-4-2.4-11.9c2-7.6,5.7-14.2,8.9-12.7c3.2,1.5,2.6,6.2,3.4,4.5c0.8-1.9,8.7,3.4,9.3,2.1
		c0.6-1.1,3.4,0.4,4.9,4.5c1.4,4,9.1,15.5,11.1,17c2,1.5,3-0.8,5.1-10.4c2-9.6,5.3-10.2,6.3-10.6c1-0.4,9.7-4.2,10.7,1.3
		c1,5.5,6.1,2.1,7.7-1.5c1.6-3.6,4.3-1.5,6.7,4.5c2.6,5.9,2.8,8.5,2.8,8.5c9.9,10.6,7.9-1.7,11.9,5.5c4,7.4,12.3,1.3,13.8,3.4
		c1.2,2.1,6.9,1.3,7.9,3.4s11.1,7.4,10.9,11.9c-0.2,4.5-21,13.4-20,12.9c1-0.4,4.8-0.4,5.5,3.8c0.6,4.2,3.4,0.4,4.3,0.2
		c0.8-0.4,3.6,0,4.7,2.5c1.2,2.5,1.6,6.6,2.8,7.4c1.2,0.6,1.8,1.9,1.2,4.7c-0.4,2.8,0.4,2.8,1.2,6.8c0.8,4,2,3.4,5.5,3.4
		c3.4,0,7.5-5.9,7.7-4c0.4,1.9,2.8,4.7,3.4,5.7s2,1.5,2.4,0.4c0.4-1.1,3.4,1.9,3.6,4.7c0.4,3,1.8,1.9,1.8,1.9s3.4,0,4.3,2.8
		c0.8,2.8,3.2,1.7,5.1,0.6c2-1.1,2.6-0.4,6.3,0c3.7,0.4,6.5,5.9,6.5,5.9c0.6,1.1,1.8,2.1,2.4-5.7c0.2-1.9,7.7-4.7,13.3,0
		c1.8,1.5,1.2,5.5,1.8,11.3c0.4,4,4.7,2.1,4.7,2.1c4.3-1.9,7.3-2.5,17.4,10.8c10.1,13.6,12.8,25,25.5,30.8
		c12.1,5.5-15.8,13.4-20.6,44.8H380.3c-4.7-11.3-7.7-22.9-19.4-31.4C328.5-27.3,350.4-31.1,353.8-34.9z"/>
	
		<linearGradient id="SVGID_25_" gradientUnits="userSpaceOnUse" x1="300.4902" y1="1136.7012" x2="300.4902" y2="1067.7976" gradientTransform="matrix(1 0 0 -1 0 1069.5903)">
		<stop  offset="0" style="stop-color:#FFFFFF"/>
		<stop  offset="1" style="stop-color:#5F5E7C"/>
	</linearGradient>
	<path class="st25" d="M227.4,4.3c1-7.4-1.8-16.1,1-18.8c3-2.9,18.9-8.3,21.7-5.4c2.8,2.9,12.4,7.4,15.8,3.7
		c3.4-3.7,7.1-11.8,12.4-8.7c5.3,3.1,13.8-1,19.5-7.8c5.7-7,11.4-1.2,20.9,12.6c0,0-1.8-28.7,2-35.5c3.9-6.8,17.6,10.5,17.6,10.5
		s3.4-7.6,8.1-8.9c3.7-0.8,7.7,4.5,11.6,5.6c4.9,1.4,9.1,11.6,9.7,12c0.8,0.4-2,7.6-0.2,16.5c2.2,10.7,7.1,24.2,6.1,31.6h-140
		C230.1,8.6,227,6.6,227.4,4.3z"/>
	
		<linearGradient id="SVGID_26_" gradientUnits="userSpaceOnUse" x1="653.5164" y1="993.67" x2="653.5164" y2="1099.3667" gradientTransform="matrix(1 0 0 -1 0 1069.5903)">
		<stop  offset="0" style="stop-color:#FFFFFF"/>
		<stop  offset="1" style="stop-color:#5F5E7C"/>
	</linearGradient>
	<path class="st26" d="M882.6,1.3c-3.6,10.5,7.1,12.8,15.8,21.9c8.5,9.1,15,10.5,0,16c-15,5.5-15,11-9.3,16c5.7,5.1-15-1.9-15-1.9
		s8.5,11.4-9.3,20.6c-18,9.1-37.3,21.1-41.5,6.9c-4.3-14.1-7.9-20-15-16.4c-7.1,3.6-19.5,5.1-22.3-1.5c-2.8-6.3,8.5-11-3.7-13.7
		c-12.2-2.7-13.6,5.5-23.7,3.6c-10.1-1.9-10.1-7.4-13-9.7c-2.8-2.3-15,0-22.9-4.2c-7.9-4.2-12.2-2.7-15.8,2.3
		c-3.6,5.1-12.2,7.8-19.4,7.8c-7.1,0-16.4,8.6-20.1,10.5c-3.6,1.9-17.2,5.1-20.1-3.6s-11.5-14.1-15.8-11.4
		c-4.3,2.7-21.5,6.3-30.2,13.7c-8.5,7.4-22.3-1.9-27.3,3.6c-5.1,5.5-20.9,15-30.2,16c-9.3,0.8-33.6-4-35.9-16
		c-2.2-11.8,8.5-24.2-11.5-22.3c-20.1,1.9-89.7-1.3-95.4-11.8s5.7-30.1,18-34.3c10.1-3.4,31-2.7,31.2-12h409.6c0.2,0,0.4,0,0.6,0.2
		C875.5-14.7,886.3-9.3,882.6,1.3z"/>
	
		<linearGradient id="SVGID_27_" gradientUnits="userSpaceOnUse" x1="1070.2184" y1="899.9011" x2="1070.2184" y2="1140.2235" gradientTransform="matrix(1 0 0 -1 0 1069.5903)">
		<stop  offset="0" style="stop-color:#FFFFFF"/>
		<stop  offset="1" style="stop-color:#666E83"/>
	</linearGradient>
	<path class="st27" d="M1267.8,143.2c-7.1,7.2-19,9.7-21.9-2.8c-2.8-12.5,8.5-21.4-3.4-26.7c-12.1-5.3-13.6,10.6-23.3,7.2
		c-9.9-3.6-9.9-14.2-12.8-18.6c-2.8-4.4-14.8,0-22.7-8.1c-7.7-8.1-11.9-5.3-15.6,4.5c-3.4,9.7-11.9,15-19,15
		c-7.1,0-16.2,17-19.8,20.3c-3.6,3.6-17,9.7-19.8-7.2c-2.8-17-11.3-27.5-15.6-22.3c-4.3,5.3-21.3,12.5-29.8,26.7s-21.9-3.6-26.9,7.2
		c-2,4.4-13.8,7-18.2,12.5c-6.3,7.6-6.3,17.6-11.5,18.6c-4.3,0.8-11.3-23.1-18.2-27.3c-8.3-4.9-16,8.9-17.2-3.8
		c-2-23.1,8.5-47-11.3-43.4c-9.9,1.7-32,20.3-52.4,16.7c-9.9-1.7-9.1-11.7-16.6-19.7c-4.3-4.7-11.1,4.2-16.4,0.6
		c-4.5-3-8.1-18.4-8.7-20.8c-1.8-6.6-7.3-18.4-5.7-32c0.6-5.9,8.9-12.1,8.9-18.4c0-7.8,7.1-15.7,6.7-22.7c-1-14.6-9.7-26.1-5.3-29
		c11.9-8.1,31,12.7,41.5-0.8c9.1-11.9,5.9-25.9,0.6-39.6h366.4v228.9C1276.5,143.2,1273.3,137.7,1267.8,143.2z"/>
	
		<linearGradient id="SVGID_28_" gradientUnits="userSpaceOnUse" x1="121.5596" y1="1120.1388" x2="121.5596" y2="1057.9575" gradientTransform="matrix(1 0 0 -1 0 1069.5903)">
		<stop  offset="0" style="stop-color:#FFFFFF"/>
		<stop  offset="1" style="stop-color:#666E83"/>
	</linearGradient>
	<path class="st28" d="M52.1,4.8c14.2-1.7,18-10.5,26.7-16.4c8.7-5.7,9.5-17,15.8-13c6.3,4,13.3,4,14.2,0s10.1-9.9,16.4-9
		c6.3,0.8,0,7.4,11.7,0c11.7-7.4,8.7,0,8.7,0c2.4-4,18-25.2,23.5-11.4c5.5,13.9,10.9,1.7,14.2-4c3-5.7,22,7.4,28.3,12.2
		c6.3,4.8,1.6,20.4-11.7,30.9c-6.1,4.8-8.5,11.4-9.7,17.7H28.9C32.5,6.2,39,6.2,52.1,4.8z"/>
	
		<linearGradient id="SVGID_29_" gradientUnits="userSpaceOnUse" x1="120.7533" y1="995.4211" x2="120.7533" y2="1079.45" gradientTransform="matrix(1 0 0 -1 0 1069.5903)">
		<stop  offset="0" style="stop-color:#FFFFFF"/>
		<stop  offset="1" style="stop-color:#666E83"/>
	</linearGradient>
	<path class="st29" d="M244.9,0.1c3.8,3.2-2.6,6.4,0.6,9.2c7.1,6.2,22.2,11.3,22.4,14.8c0.6,10.7,9.7,24.6,4.2,27.4
		c-2.2,1.3-4,7.5-11.7,5.6c-5.7-1.5-17-11.1-22.2-11.8c-4.8-0.6-8.9,6.6-10.9,4.9c-7.3-5.6-29.5-16.5-35.5-12.4
		c-6.1,4.1-11.1,14.6-23.6,7.7c-12.5-6.9-29.5-4.5-39.4,3.4c-6.3,4.9-6.7,2.4-18.4-6.4c-1.8-1.5-5.9,5.1-9.9,3.4
		c-3.6-1.5-7.1-11.3-9.1-13.1c-3.8-3.4-7.3-8.6-12.3-6.2c0,0-1.4,5.8,1.4,17.8c2.8,11.8,9.7,24.4,6.7,28.5c-2.8,3.9-7.1-5.1-16.2-9
		c-4.2-1.7-13.5,4.1-17,1.3c-5.3-4.3-8.9-15.6-8.9-15.6s-4.8,10.1-14.3,9.6C23.4,59,12.4,49.4,4,46.2c-11.3-4.3-23.8-21-25.4-21.8
		c-1.8-1.1,1.8-10.3-5.5-24.4c-1.6-3.2-3.6-6.6-5.5-10.1h260.9c0.4,1.1,1,2.1,1.8,3C232.2-4.4,242.3-2,244.9,0.1z"/>
	
		<linearGradient id="SVGID_30_" gradientUnits="userSpaceOnUse" x1="801.0168" y1="955.285" x2="801.0168" y2="987.2166" gradientTransform="matrix(1 0 0 -1 0 1069.5903)">
		<stop  offset="0" style="stop-color:#FFFFFF"/>
		<stop  offset="1" style="stop-color:#666E83"/>
	</linearGradient>
	<path class="st30" d="M787.6,98.8c0,0-1.6,0.4,1.2,1.5c2.8,1.1,0.8,0.9,1.6,2.1c0.6,1.3,2.9,2.1,3.7,1.9c0.8-0.4,1.6,0.9,1.8,2.6
		c0.2,1.7,2.2,0.2,4.3,1.1c2,0.9,4.1,0.4,6.3,2.8c2.2,2.4,3.1,3.4,4.7,3.4c1.6-0.2,1.8-3,4.3-1.5c2.6,1.5,3.3,1.9,4.7,0.9
		c1.4-1.3,5.9,2.4,1.8-4.5c-4.3-6.6-1.8-7.3-6.9-9.6c-5.3-2.4-5.7-3.2-7.5-5.8c-1.8-2.6-2.8-4.5-4.3-3.6c-1.6,0.9-4.5-1.7-6.3-4.1
		c-1.8-2.4-2.4-4.1-4.1-3.6c-1.6,0.6-4.3,3.8-7.7,2.8c-3.5-1.1-6.7,0.2-6.7,1.9c0,1.7,0.4,7.1,1.6,6.8c1.4-0.2,4.1-0.9,2.6,2.1
		C780.9,99,786.6,99,787.6,98.8z"/>
	
		<linearGradient id="SVGID_31_" gradientUnits="userSpaceOnUse" x1="1178.8295" y1="741.9778" x2="-216.9021" y2="741.9729" gradientTransform="matrix(1 0 0 -1 0 1069.5903)">
		<stop  offset="0" style="stop-color:#FEFEFE;stop-opacity:0"/>
		<stop  offset="1" style="stop-color:#FFFFFF"/>
	</linearGradient>
	<rect x="-186.4" y="325.1" class="st31" width="1302.9" height="5"/>
	
		<linearGradient id="SVGID_32_" gradientUnits="userSpaceOnUse" x1="74.6422" y1="667.4857" x2="256.7962" y2="471.1697" gradientTransform="matrix(1 0 0 -1 0 1069.5903)">
		<stop  offset="0" style="stop-color:#FEFEFE"/>
		<stop  offset="1" style="stop-color:#BFBFBF"/>
	</linearGradient>
	<path class="st32" d="M-15.1,437.6l-27.1,12.4c-3.5,1.6-5.7,5.1-5.7,8.9c0,5.4,4.4,9.8,9.8,9.8H292c5.6,0,10.1-4.5,10.1-10.1
		c0-3.7-2-7.1-5.2-8.9l-22.9-12.6c-2.4-1.3-5-2-7.7-2h-23.5c-4.3,0-8.4,1.7-11.4,4.8l-7.8,7.9c-3,3.1-7.1,4.8-11.4,4.8h-25.9
		c-2,0-4.1-0.4-6-1.1l-40.7-16.3L106.1,423c-4.7-1.7-9.9-1.1-14.1,1.6l-37.4,24c-3.9,2.5-8.8,3.2-13.3,1.9l-45.3-13.6
		C-7.6,435.7-11.6,436-15.1,437.6z"/>
	
		<linearGradient id="SVGID_33_" gradientUnits="userSpaceOnUse" x1="742.0414" y1="720.6492" x2="776.3844" y2="337.2902" gradientTransform="matrix(1 0 0 -1 0 1069.5903)">
		<stop  offset="0" style="stop-color:#FEFEFE"/>
		<stop  offset="1" style="stop-color:#BFBFBF"/>
	</linearGradient>
	<path class="st33" d="M511.3,399.8c-20.7,15.5-52.5,39.3-66.1,49.5c-4,3-6.3,7.6-6.3,12.6v7.5c0,8.8,7.2,16,16,16h595
		c8.8,0,16-7.2,16-16v-7.8c0-4.8-2.1-9.4-5.9-12.4c-18.5-14.8-48.2-37.2-53.9-36.2c-8,1.4-63.8,41-73.1,41
		c-9.3,0-108.9-19.1-124.9-28.7c-15.9-9.6-93-30-101-30c-8,0-59.8,34.1-71.7,30c-8.9-3.1-73.6-19.1-110.9-28.3
		C520,395.9,515.2,396.9,511.3,399.8z"/>
	
		<linearGradient id="SVGID_34_" gradientUnits="userSpaceOnUse" x1="518.783" y1="421.022" x2="518.783" y2="701.4712" gradientTransform="matrix(1 0 0 -1 0 1069.5903)">
		<stop  offset="0" style="stop-color:#FFFFFF"/>
		<stop  offset="1" style="stop-color:#666E83"/>
	</linearGradient>
	<path class="st34" d="M-129.7,338.5c-5.1,1.9-9.8,3.8-14.3,5.7v172.2c2.3,0.2,2.9,2.3,3.7,7.8c1.2,7.6,10.4,18.9,23.1,19.5
		c12.7,0.6,20.7,9,33.1,17c12.7,8,6.8,17.8,37,25.8c30.3,8,18.4-5.5,31.5-17.8c13.1-12.6,6.3-2.7,8.8,1c2.5,3.8,10.4,0.8,11.3-0.8
		c0.8-1.7,6.1-9.2,13.7-1.5c7.6,7.6,7.6,4.2,8,2.7c0.4-1.5,13.1-4.8,18.8,2.1c5.9,6.9,10.8,1.5,32.7-4.8c21.9-6.3,17.6-9.6,17.6-1.5
		c0,8.4,8,6.3,19.6,8c11.7,1.7,22.3-11.7,23.5-4.8s18.8,0,17.6,1.7c-1.2,1.7,0.4,5,5.5,9.9c5.1,4.8,7.2,2.7,9.6,1
		c2.5-1.7,1.2-3.6,9.6-8.4c8.4-4.8,15.1-1.7,15.1,0.6c0,2.5,9.2,15.3,17.2,18s8.8,12.6,15.6,13.2c6.8,0.6,7.2-10.5,9.6-13.6
		c2.5-3.1,6.3-1.7,7.6,4.6c1.2,6.3,11.3,6.3,18.4,6.3s10.4,4.2,18,11.7c7.6,7.6,15.1,5.2,32.7,0c17.6-5.2,23.5-5.2,37.4-4.6
		c13.9,0.6,13.1-2.1,19.2-3.8c6.3-1.7,5.5,1,13.1,0c7.6-1,1.6-14.3,5.5-11.1c3.7,3.1,16.4,5.7,25.2,5.9c8.8,0.4,18.8-3.1,29.1-4.2
		c10-1,12.7-3.6,19.6-9.4c7.2-5.9,9.6-12.8,16.8-19.1c7.2-6.3,23.1-15.7,24.8-12.6c1.6,3.1,9.2,4.6,14.3,2.7c5.1-1.7,14.3-1,21.9,0
		c7.6,1,10-0.6,13.1-3.1c2.9-2.5,3.3-2.5,9.2-3.6c5.9-1,10.4,0,10-4.8c-0.4-4.8,0-8.6,8-6.7c8,2.1,7.6,2.5,10.4-4.6
		c2.9-6.9,5.9-3.1,15.1-2.7c9.2,0.4,9.6,0.6,9.6-4.6s5.9-3.1,17.2-3.1c11.3,0,13.1-1.7,13.9-4.8c0.8-3.1,19.2,0.4,20.3-2.1
		c0.8-2.5,8.8-1.7,16.8-0.6c8,1,0.4,3.8,0,8.4c-0.4,4.6,1.2,10.1,5.9,6.9c4.7-3.1,2.9-7.8,10.8-6.7c8,1,16.4,1.5,18,5
		c1.6,3.6,10.4,5.7,17.2,7.3c6.8,1.7,2,14.9,7.2,22.2c5.1,7.3,14.7,13.6,23.1,12.2c8.4-1.5,6.8-5.9,8.8-4.2c2,1.7,5.1,3.1,11.7,0
		c6.8-3.1,10.8-3.1,12.7-2.1c1.6,1,8.8-0.4,12.7-4.2c3.7-3.8,9.6-3.8,15.1-5.2c5.5-1.5,18.4-3.8,23.5,5.2c5.1,9,7.6,8.4,10,8.6
		c2.5,0.4,9.6-4.2,10,1.5c0.4,5.7,10.8,8.6,13.5,3.6c2.5-5.2,16-2.1,20.3,1.5c4.3,3.6,21.9,14.9,28.4,9.4c6.8-5.7,7.2-8,7.2-8
		c25.6-10.1,5.5-18.5,16-25.4c10.4-6.9,16-34,19.2-36.1c3.3-2.1,8,0,10.4-2.1c2.5-2.1,7.2-3.8,6.8-8c-0.4-4.2,8.4-6.3,10.9-5.9
		c2.4,0.4,12.7,0.4,14.3-3.8c1.6-4,8.8-0.4,10.8-0.2c2.1,0.4,9.2,0,12.3-2.5c2.9-2.5,4.3-6.3,7.2-6.9c2.9-0.6,4.7-1.7,3.3-4.4
		c-1.2-2.5,1.2-2.5,3.3-6.5c2-3.8,5.5-3.1,14.3-3.1s8,7.1,20.3,3.8c2.3-0.6,7.2-4.6,8.8-5.5c1.6-0.8,5.5-1.5,6.3-0.4
		c0.8,1,6.3,0,6.3,0s2.5-1.7,3.3-4.4c0.8-2.7,4.7-1.7,4.7-1.7s3.7,0,5.5,1.5c1.6,1.5,3.3-1.5,5.5-4c2-2.5,9.2-3.4,13.5-0.6
		c20.3,13.4,29.1,5,36.8,1.5V338.5H-129.7z"/>
	
		<linearGradient id="SVGID_35_" gradientUnits="userSpaceOnUse" x1="1084.7156" y1="549.1383" x2="1084.7156" y2="746.1206" gradientTransform="matrix(1 0 0 -1 0 1069.5903)">
		<stop  offset="0" style="stop-color:#FFFFFF"/>
		<stop  offset="1" style="stop-color:#666E83"/>
	</linearGradient>
	<path class="st35" d="M992.9,418.7c1.4,11.8-2,25.3,2,30c4.1,4.6,19.3,44.7,23.2,40.3c3.9-4.4,19.5-41.8,24.2-35.9
		c4.7,6.1,13,18.8,20.1,14.1c6.9-4.9,18.5,2.1,26.4,13.3c7.9,11.2,8.3,30,20.9,8.4c0,0,5.3,17.9,10.8,28.9c5.5,11,23.6-16,23.6-16
		s26.2,16.5,32.5-9.7v-94.7c-10.8-8.6-21.8-14.6-28.5-12.7c-8.9,2.5-10.8-46.2-22.6-56.5c-12-10.3-26.4-2.3-24.4,11.2
		c2,13.3-17.7,19.4-20.3,15.8c-2.6-3.8-18.1-6.1-22.2-5.3c-4.1,0.8,7.5,18.8,3.3,38.4c-4.3,19.6-31.3-22.8-48-22.6
		C997.2,365.9,991.5,406.9,992.9,418.7z"/>
	
		<linearGradient id="SVGID_36_" gradientUnits="userSpaceOnUse" x1="697.1124" y1="559.1537" x2="697.1124" y2="670.9996" gradientTransform="matrix(1 0 0 -1 0 1069.5903)">
		<stop  offset="0" style="stop-color:#FFFFFF"/>
		<stop  offset="1" style="stop-color:#666E83"/>
	</linearGradient>
	<path class="st36" d="M715.5,477.1c-9.6,12.3-15.5,17.5-21.2,11.3c-5.7-6.3-14.3-9.8-19.6-7.1c-5.3,2.9-9-4.4-12.5-7.9
		c-3.5-3.3-13.1,0.8-15.9,3.3c-2.9,2.5-18.8-2.3-21.8-4.8c-3.1-2.5-0.2-10.2-1-16.9c-0.6-3.8,11.2-7.7,14.7-15
		c2.7-5.6-3.7-15.2,1.6-15.5c12.5-0.4,32,23.2,35.5,11.9c3.5-11.3-4.9-21.1-1.8-21.7c3.1-0.6,14.5,0.4,16.5,2.5
		c1.8,2.1,16.7-1.7,15.5-9.4c-1.4-7.5,9.6-12.3,18.4-6.7c8.8,5.6,9.4,33.2,16.1,31.7c6.7-1.5,18.6,4.6,28.8,11.5
		c6.1,4.2-0.8,20.3-3.9,32.6c-1.8,7.9,1,14.4,0.2,14.8c-0.8,0.4-4.9,9.4-10,10.7c-3.9,1-8,5.8-11.6,5c-4.7-1-8.2-7.9-8.2-7.9
		s-13.9,15.7-17.8,9.6C713.5,503,715.5,477.1,715.5,477.1z"/>
	
		<linearGradient id="SVGID_37_" gradientUnits="userSpaceOnUse" x1="119.7848" y1="510.7437" x2="119.7848" y2="589.3116" gradientTransform="matrix(1 0 0 -1 0 1069.5903)">
		<stop  offset="0" style="stop-color:#FFFFFF"/>
		<stop  offset="1" style="stop-color:#666E83"/>
	</linearGradient>
	<path class="st37" d="M112,546.9c-2.9-3.9-9.6,0.6-13.7-3.7c-4.1-4.3-10.2-7-14.1-4.9c-3.7,2.1-6.5-3.1-8.8-5.6
		c-2.5-2.3-9.4,0.6-11.4,2.5c-2,1.9-13.5-1.6-15.5-3.5c-2-1.9-15.9-11.9-16.6-16.7c-0.4-2.7,23.7-0.6,26.4-5.8
		c1.8-3.9-2.7-10.7,1.2-10.9c8.8-0.2,22.9,16.3,25.4,8.4c2.5-7.8-3.5-14.8-1.4-15.2c2.2-0.4,10.4,0.4,11.9,1.9
		c1.4,1.4,12.1-1.2,11-6.6c-1-5.4,7-8.6,13.1-4.7c6.3,3.9,6.7,23.5,11.7,22.2c4.9-1,13.3,3.3,20.4,8c4.5,2.9,58.3,4.3,56.2,13
		c-0.4,2.1-6.1,15.2-14.1,18.1c-5.3,2.1-11.9-10.5-18.2-10.7c-10.2,0-20.4,11.5-26.4,12.8c-0.6,0.2-3.5,6.6-7.2,7.6
		c-2.7,0.6-5.7,4.1-8.4,3.5c-3.3-0.8-5.9-5.6-5.9-5.6s-9.8,11.1-12.7,6.8C111.8,553.5,112,546.9,112,546.9z"/>
	
		<linearGradient id="SVGID_38_" gradientUnits="userSpaceOnUse" x1="171.899" y1="542.4609" x2="171.899" y2="714.4033" gradientTransform="matrix(1 0 0 -1 0 1069.5903)">
		<stop  offset="0" style="stop-color:#FFFFFF"/>
		<stop  offset="1" style="stop-color:#666E83"/>
	</linearGradient>
	<path class="st38" d="M-35,456c0,0-9.6,10,5.5,21.5c15.2,11.5,31.3,25.9,37.3,12.5c5.9-13.4,10.2-18.6,16.2-14
		c6.1,4.6,17,7.7,20.7,1.7c3.5-5.9-6.4-11.9,5.3-13c11.7-1,11.7,7.3,21.3,6.9c9.4-0.4,10.2-5.9,13.3-7.5c2.9-1.9,13.9,2.1,21.7-0.8
		c7.8-2.9,11.7-1,14.1,4.4c2.7,5.4,10,9.4,16.8,10.2c6.6,1,13.9,10.9,17,13.2c3.1,2.3,15.2,7.3,19.1-0.8s12.5-12.3,16.2-9
		c3.5,3.3,18.9,9.2,25.8,17.8c7,8.4,20.7,1.3,24.6,7.3c3.9,6.1,17,17.8,25.4,19.9c8.4,2.3,31.6,0.6,35.2-10.7
		c3.7-11.3-4.5-24.9,13.7-20.3c18.2,4.6,82.6,11.3,89.5,1.7c6.8-9.4-1-30.3-11.7-36.2c-10.7-5.6-35.9-7.7-23.8-22.4
		c12.3-14.6,19.5-27.8,15.8-38.9c-3.7-11.1-12.3-17.4-37.5-20.3c-25.2-2.9-70.9,4.8-90.4,9.2c-19.5,4.4-20.3-9-23.2-16.3
		c-3.1-7.3-35.2-12.8-63.7-16.5c-28.5-4-41.2,18.4-61.7,20.9c-20.5,2.3-75.6-18.4-81.1-16.9c-5.5,1.5-17.8,11.5-17.8,19.6
		c0.2,8.4-6.4,6.9-20.7,8.4c-14.3,1.5-25,5.4-23.4,16.1c1.8,10.9-8.4,11.5-17.6,19.2c-9.2,7.7-15.4,8.2-2.3,15.7
		c13.1,7.5,12.3,13,6.4,16.9C-55.3,459.8-35,456-35,456z"/>
	
		<linearGradient id="SVGID_39_" gradientUnits="userSpaceOnUse" x1="634.4134" y1="615.8021" x2="634.4134" y2="709.4261" gradientTransform="matrix(1 0 0 -1 0 1069.5903)">
		<stop  offset="0" style="stop-color:#FFFFFF"/>
		<stop  offset="1" style="stop-color:#666E83"/>
	</linearGradient>
	<path class="st39" d="M684.6,442.3c0,0,4.7,6.4-8.6,2.1c-13.2-4.4-5.5,0.4-11.6,2.7c-5.9,2.3-16.5-1-18.1-4.8
		c-1.6-3.7-8.6-2.1-13.8,3.3c-5.3,5.4-8.6-5.4-18.3-8.9c-9.8-3.5-15.5-11.2-29.7-9.5c-14.3,1.7-20.4,3.1-25.7-2.3
		c-5.3-5.4,2.2-15.4-11.4-18.1c-13.6-2.5-16.9-2.7-18.9-11.2c-2-8.7-27.5-10.2,5.9-20.6c33.4-10.4,26.5-19.5,51.7-12.2
		c25.3,7.3,28.9,5.6,42.8,2.3c13.8-3.3,22-6.9,25.5,0.6c3.3,7.5,20.4,7.7,33.6,4.6c13-3.1,20.6-6.4,24.4,0
		c3.9,6.4,4.3,25.5,19.6,32.6c15.5,7.1,23.4,21,18.3,27.2c-5.1,6.2-20.8,23.3-25,18.3c-4.3-4.8-12.4-15.4-14.9-0.6
		C707.8,462.5,687.6,445.6,684.6,442.3z"/>
	
		<linearGradient id="SVGID_40_" gradientUnits="userSpaceOnUse" x1="96.9846" y1="919.0421" x2="96.9846" y2="687.004" gradientTransform="matrix(1 0 0 -1 0 1069.5903)">
		<stop  offset="0" style="stop-color:#FFFFFF"/>
		<stop  offset="1" style="stop-color:#666E83"/>
	</linearGradient>
	<path class="st40" d="M219.3,220.2c-11.6-0.2-13.3,2.5-14.3,6.9c-0.8,4.4-19.8-0.4-20.6,2.9c-0.8,3.4-9,2.5-17.2,1
		c-8.2-1.5-0.4-5.5,0-11.7s-1.2-14.1-6.1-9.9c-4.7,4.4-3.1,10.9-11.2,9.4c-8.2-1.5-16.8-2.1-18.6-6.9c-1.6-4.8-10.8-7.8-17.8-10.3
		c-6.9-2.5-2.2-21-7.4-31.3c-5.1-10.3-15.1-19.1-23.7-17c-8.6,1.9-6.9,8.4-9,5.9c-2.2-2.5-5.1-4.4-12.1,0c-6.7,4.2-11,4.2-12.9,2.7
		c-1.6-1.5-9,0.4-12.9,5.9c-3.9,5.5-10,5.5-15.5,7.3c-5.5,1.9-19,5.5-24.1-7.3c-5.1-12.6-7.8-11.7-10.4-12.2
		c-2.7-0.4-10,5.9-10.4-1.9c-0.4-7.8-11.2-12.2-13.9-4.8c-2.7,7.3-16.3,2.9-20.6-1.9c-4.3-4.8-11.2-1.9-18.2,5.9
		c-6.9,7.8-7.4,11.1-7.4,11.1c-26.4,14.1-5.5,25.8-16.3,35.7c-10.8,9.9-16.3,47.8-19.8,50.8c-3.5,2.9-8.2,0-10.8,2.9
		c-2.7,2.9-7.4,5.5-6.9,11.1c0.2,3.1-2.5,5.5-5.1,6.9v105.3h475.3l6.7-9C335.8,369.3,288.2,220.8,219.3,220.2z"/>
	
		<linearGradient id="SVGID_41_" gradientUnits="userSpaceOnUse" x1="844.4975" y1="908.1631" x2="844.4975" y2="742.8982" gradientTransform="matrix(1 0 0 -1 0 1069.5903)">
		<stop  offset="0" style="stop-color:#FFFFFF"/>
		<stop  offset="1" style="stop-color:#666E83"/>
	</linearGradient>
	<path class="st41" d="M1181.6,340.2c-1.2-1-2.4-3.8-3.7-8.4c-3.1-12.8-4.7-16.1-10.8-13.6s-6.5,1-7.8-9.9
		c-1.2-10.7-10.8-26.4-23.9-27.5s-21.3-12.8-34.2-23.9c-13.1-11.3-12.5-27.5-43.8-38.6c-31.3-11.3-13.5,9.9-26.8,27.5
		c-13.5,17.6-17,3.4-19.4-1.9c-2.7-5.4-5.7-2.5-6.5,0c-0.8,2.5-1.2,14.7-9,4c-7.8-10.7-7.8-5.9-8.2-4c-0.4,1.9-13.5,6.9-19.4-2.9
		c-6.1-9.9-11.3-1.9-33.8,6.9c-22.5,8.8-18.2,13.6-18.2,1.9c0-11.7-8.2-8.8-20.4-11.3c-12.1-2.5-22.9,16.6-24.3,6.9
		c-1.2-9.9-19.4,0-18.2-2.5c1.2-2.5-3.1-17.6-8.2-24.5c-5.1-6.9-4.7-4-7.4-1.5c-2.7,2.5-1.2,15.7-10,22.4c-8.6,6.9-15.6,2.5-15.6-1
		c0-3.4-9.6-21.6-17.8-25.4c-8.2-4-9-17.6-16-18.7c-7-1-7.4,14.7-10,19.1c-2.7,4.4-6.5,2.5-7.8-6.3c-1.2-8.8-11.7-8.8-19-8.8
		s-10.8-5.9-18.6-16.6c-7.8-10.7-15.5-7.3-33.8,0s-24.3,7.3-38.7,6.3c-14.3-1-13.5,2.9-19.8,5.4c-6.5,2.5-5.7-1.5-13.5,0
		c-7.8,1.5-1.6,20.1-5.7,15.7c-3.9-4.4-17-7.8-26-8.4c-9-0.4-19.4,4.4-29.9,5.9c-10.4,1.5-13.1,4.8-20.5,13.2
		c-7.4,8.4-10,18-17.4,26.8c-2.7,3.1-6.3,6.9-10.2,10.1v83.4H1181.6z"/>
	
		<linearGradient id="SVGID_42_" gradientUnits="userSpaceOnUse" x1="797.2711" y1="545.7995" x2="797.2711" y2="641.0515" gradientTransform="matrix(1 0 0 -1 0 1069.5903)">
		<stop  offset="0" style="stop-color:#FFFFFF"/>
		<stop  offset="1" style="stop-color:#666E83"/>
	</linearGradient>
	<path class="st42" d="M670.8,429.1c1.6,11.6-3.3,24.6,1.8,29c5.1,4.3,32.7,12.6,37.6,8.3c4.9-4.3,21.7-11.4,27.4-5.8
		c5.9,5.8,12.3,18.2,21.5,13.4c9.2-4.8,23.9,1.4,33.7,12c9.8,10.6,19.8,1.9,36.4-19.2c0,0-3.3,44.1,3.5,54.6
		c7,10.6,30.7-16.3,30.7-16.3s6.1,11.8,14.1,13.7c6.1,1.4,13.5-6.8,20-8.5c8.6-2.3,15.7-17.6,17.2-18.2c1.4-0.6-3.5-11.6-0.4-25.2
		c2.9-12.2,8.4-26.9,10-38.1H670.8C670.8,428.6,670.8,428.8,670.8,429.1z"/>
	
		<linearGradient id="SVGID_43_" gradientUnits="userSpaceOnUse" x1="-34.1149" y1="582.5251" x2="-34.1149" y2="714.786" gradientTransform="matrix(1 0 0 -1 0 1069.5903)">
		<stop  offset="0" style="stop-color:#FFFFFF"/>
		<stop  offset="1" style="stop-color:#666E83"/>
	</linearGradient>
	<path class="st43" d="M-142.4,468.6c2.9,2.5,6.3,4.6,10.4,5.3c3.9,0.6,8.4-4.6,13.1-5.3c5.1-0.6,12.3,8.2,18.4,10.1
		c4.1,1.3,7.8-5.3,10-3.6c5.5,4.2,2,9.1,5.3,11c6.8,3.6,11.3-3.4,20.9-13.3c4.3-4.4,9.6,4.6,14.7,1.7c1.2-0.6,3.5-9.7,5.7-11
		c2.7-1.5,5.5,4.8,6.8,3.2c3.5-4.8,1.4-9.7,3.7-8.2c4.5,2.9,2.9-4.4,7.8-9.3c2.7-2.5,10.6-0.4,14.1-4c6.3-6.5,9.6-15.6,17.4-19.4
		c4.7-2.3,10.8,0.8,20.5-2.1c25.4-7.6,14.7-11.6,37.6-38.8c23.1-27.2,0.6-14.5-5.7-20.9c-6.1-6.3-9-4.6-21.9,0.6
		c-12.9,5.3-11.9-7.6-19.2-9.3c-7.4-1.7-11.9,2.9-23.1,12.2c-11.3,9.3-20.3,5.9-30.5,8.2c-10.2,2.3-18.6-5.3-20.3,2.3
		c-1.6,7.6-6.8,12.8-10.2,10.5c-3.5-2.3-14.1,0.6-18,5.9c-3.9,5.3,5.1,5.3-8.4,8.6c-13.5,3.6-6.1,6.3-6.1,6.3
		c-4.5-1.3-30.5-4.6-24.8,9.3c5.7,13.9-6.7,9.3-12.9,7.6c-2-0.6-3.7,1.5-5.3,4.6V468.6L-142.4,468.6z"/>
	
		<linearGradient id="SVGID_44_" gradientUnits="userSpaceOnUse" x1="505.7542" y1="883.0064" x2="505.7542" y2="605.3244" gradientTransform="matrix(1 0 0 -1 0 1069.5903)">
		<stop  offset="0" style="stop-color:#FFFFFF"/>
		<stop  offset="1" style="stop-color:#666E83"/>
	</linearGradient>
	<path class="st44" d="M791.5,402.3c-3.5-3.8,2.6-53.6,7.8-57.4c27-21.5-3.3-35.6-7.8-44.1c-4.3-8.4-3.1-1.5-3.9,4.4
		c-0.8,5.9-2.3,7.6-3.5-1.9c-1.2-9.5-1.8-12-4.1-10.1c-2.3,1.9-2.5,0.6-2.9-7.4c-0.4-8-4.1-19.6-9-20.5c-4.9-0.6-8-9.5-12.9-17.9
		c-4.9-8.4-4.7-20.5-16.4-28.7c-11.7-8.4-5.1,7.4-10,20.5c-5.1,13.1-6.3,2.5-7.4-1.5c-1-4-8.4-1.3-9,0c-1.8,3.6-5.1,5.1-7.4-2.1
		c-2.2-7.4-4.3-1.5-12.7,5.1c-8.4,6.5-6.7,10.1-6.7,1.5s-24.1-3.4-23.5-5.1c0.4-1.9,2.2-3.4,0.2-8.6c-2-5.1-4.9-1.5-5.9,0.4
		c-1,1.9-0.6,0.6-3.9,5.7c-3.3,5.1-5.9,1.9-5.9-0.6c0-2.5,2.9-16.9-0.2-19.6c-3.1-3-7.4-5.3-10-6.1c-2.7-0.6-8.8,9.1-9.2,2.3
		c-0.4-6.5-4.3-6.5-7.2-6.5c-2.9,0-4.1-4.4-7-12.4c-2.9-8-5.9-5.5-12.7,0c-6.7,5.5-9.2,5.5-14.5,4.6c-5.3-0.6-5.1,2.1-7.6,4
		s-2-1.1-5.1,0c-2.9,1.1-0.6,15-2,11.6c-1.4-3.4-6.3-5.9-9.8-6.1c-3.5-0.4-7.4,3.4-11.2,4.4c-3.9,1.1-4.9,3.6-7.6,9.9
		c-2.9,6.1-6.3,12.4-9.2,19c-2.9,6.5-9,9.1-9.6,5.7s-8.4,6.5-11.2,5.5c-2.9-1.1-6.3,5.9-8.6,7c-2.2,1.1-4.1,0-3.9,5.1
		c0.2,5.1-7.8,8.9-8.4,12.2c-1.4,7.2,1,4-2.7,3.6c-3.7-0.4-8.2,6.7-12.5,6.7c-4.3,0-5.1,1.9-5.3,5.1c-0.4,3.4-7.6-0.4-7.8,2.1
		c-0.4,2.5-3.5,1.9-6.5,0.6c-3.1-1.1-2.9,0.4-2.7-4.2c0.2-4.6-5.1-0.4-6.7,2.7c-1.8,3.4,1.8,5.7-1.2,4.6c-3.1-1.1-3.9,0.8-4.7-2.7
		c-0.6-3.6-2,0.4-4.7-1.5c-2.7-1.9,4.3-4,2.5-11.8c-2-7.6-5.7-14.1-9-12.7c-3.3,1.5-2.7,6.1-3.5,4.4c-0.8-1.9-8.8,3.4-9.4,2.1
		c-0.6-1.1-3.5,0.4-4.9,4.4c-1.4,4-9.2,15.4-11.2,16.9c-2,1.5-3.1-0.8-5.1-10.3c-2-9.5-5.3-10.1-6.3-10.5c-1-0.4-9.8-4.2-10.8,1.3
		c-1,5.5-6.1,2.1-7.8-1.5c-1.6-3.6-4.3-1.5-6.7,4.4c-2.7,5.9-2.9,8.4-2.9,8.4c-10,10.5-8-1.7-12.1,5.5c-4.1,7.4-12.5,1.3-13.9,3.4
		c-1.2,2.1-7,1.3-8,3.4c-1,2.1-11.2,7.4-11,11.8c0.2,4.4,21.3,13.3,20.2,12.9c-1-0.4-4.9-0.4-5.5,3.8c-0.6,4.2-3.5,0.4-4.3,0.2
		c-0.8-0.4-3.7,0-4.7,2.5c-1.2,2.5-1.6,6.5-2.9,7.4c-1.2,0.6-1.8,1.9-1.2,4.6c0.4,2.7-0.4,2.7-1.2,6.7c-0.8,4-2,3.4-5.5,3.4
		s-7.6-5.9-7.8-4c-0.4,1.9-2.9,4.6-3.5,5.7c-0.6,1.1-2,1.5-2.5,0.4c-0.4-1.1-3.5,1.9-3.7,4.6c-0.4,3-1.8,1.9-1.8,1.9s-3.5,0-4.3,2.7
		c-0.8,2.7-3.3,1.7-5.1,0.6c-2-1.1-2.7-0.4-6.3,0c-3.7,0.4-6.5,5.9-6.5,5.9c-0.6,1.1-1.8,2.1-2.5-5.7c-0.2-1.9-7.8-4.6-13.5,0
		c-1.8,1.5-1.2,5.5-1.8,11.2c-0.4,4-4.7,2.1-4.7,2.1c-4.3-1.9-7.4-2.5-17.6,10.8c-10.2,13.5-12.9,24.9-25.8,30.6
		c-12.3,5.5,15.9,13.3,20.9,44.5h539.5c4.7-11.2,7.8-22.8,19.6-31.2C817,409.9,794.9,406.1,791.5,402.3z"/>
	
		<linearGradient id="SVGID_45_" gradientUnits="userSpaceOnUse" x1="845.3153" y1="699.2191" x2="845.3153" y2="630.7763" gradientTransform="matrix(1 0 0 -1 0 1069.5903)">
		<stop  offset="0" style="stop-color:#FFFFFF"/>
		<stop  offset="1" style="stop-color:#666E83"/>
	</linearGradient>
	<path class="st45" d="M919.1,441.3c-1-7.4,1.8-16-1-18.7c-3.1-2.9-19.1-8.2-21.9-5.3c-2.9,2.9-12.5,7.4-16,3.7
		c-3.5-3.7-7.2-11.7-12.5-8.6c-5.3,3.1-13.9-1-19.7-7.8c-5.7-7-11.5-1.2-21.1,12.5c0,0,1.8-28.5-2.1-35.3
		c-3.9-6.8-17.8,10.5-17.8,10.5s-3.5-7.6-8.2-8.8c-3.7-0.8-7.8,4.5-11.7,5.5c-4.9,1.4-9.2,11.5-9.8,11.9c-0.8,0.4,2,7.6,0.2,16.4
		c-2.3,10.7-7.2,24-6.1,31.4h141.4C916.5,445.6,919.5,443.5,919.1,441.3z"/>
	
		<linearGradient id="SVGID_46_" gradientUnits="userSpaceOnUse" x1="488.6563" y1="557.144" x2="488.6563" y2="662.1341" gradientTransform="matrix(1 0 0 -1 0 1069.5903)">
		<stop  offset="0" style="stop-color:#FFFFFF"/>
		<stop  offset="1" style="stop-color:#666E83"/>
	</linearGradient>
	<path class="st46" d="M257.2,438.3c3.7,10.5-7.2,12.8-16,21.8c-8.6,9-15.1,10.5,0,15.9c15.1,5.4,15.1,10.9,9.4,15.9
		c-5.7,5,15.1-1.9,15.1-1.9s-8.6,11.3,9.4,20.5c18.2,9,37.7,20.9,42,6.9c4.3-14,8-19.9,15.1-16.3c7.2,3.6,19.6,5,22.5-1.5
		c2.9-6.3-8.6-10.9,3.7-13.6s13.7,5.4,23.9,3.6c10.2-1.9,10.2-7.3,13.1-9.6s15.1,0,23.1-4.2c8-4.2,12.3-2.7,16,2.3
		c3.7,5,12.3,7.7,19.6,7.7c7.2,0,16.6,8.6,20.3,10.5c3.7,1.9,17.4,5,20.3-3.6s11.7-14,16-11.3c4.3,2.7,21.7,6.3,30.5,13.6
		c8.6,7.3,22.5-1.9,27.6,3.6c5.1,5.4,21.1,14.9,30.5,15.9c9.4,0.8,34-4,36.2-15.9c2.3-11.7-8.6-24.1,11.7-22.2
		c20.3,1.9,90.7-1.3,96.4-11.7c5.7-10.5-5.7-29.9-18.2-34.1c-10.2-3.3-31.3-2.7-31.5-11.9H280.1c-0.2,0-0.4,0-0.6,0.2
		C264.3,422.4,253.5,427.8,257.2,438.3z"/>
	
		<linearGradient id="SVGID_47_" gradientUnits="userSpaceOnUse" x1="67.6702" y1="464.0022" x2="67.6702" y2="702.7181" gradientTransform="matrix(1 0 0 -1 0 1069.5903)">
		<stop  offset="0" style="stop-color:#FFFFFF"/>
		<stop  offset="1" style="stop-color:#666E83"/>
	</linearGradient>
	<path class="st47" d="M-132,579.3c7.2,7.2,19.2,9.7,22.1-2.7s-8.6-21.3,3.5-26.5c12.3-5.3,13.7,10.5,23.5,7.2
		c10-3.6,10-14.1,12.9-18.5c2.9-4.4,14.9,0,22.9-8c7.8-8,12.1-5.3,15.7,4.4c3.5,9.7,12.1,14.9,19.2,14.9c7.2,0,16.4,16.8,20,20.2
		c3.7,3.6,17.2,9.7,20-7.2c2.9-16.8,11.5-27.4,15.7-22.1c4.3,5.3,21.5,12.4,30.1,26.5c8.6,14.1,22.1-3.6,27.2,7.2
		c2,4.4,13.9,6.9,18.4,12.4c6.3,7.6,6.3,17.5,11.7,18.5c4.3,0.8,11.5-22.9,18.4-27.2c8.4-4.8,16.2,8.8,17.4-3.8
		c2-22.9-8.6-46.7,11.5-43.2c10,1.7,32.3,20.2,53,16.6c10-1.7,9.2-11.6,16.8-19.6c4.3-4.6,11.2,4.2,16.6,0.6
		c4.5-2.9,8.2-18.3,8.8-20.6c1.8-6.5,7.4-18.3,5.7-31.8c-0.6-5.9-9-12-9-18.3c0-7.8-7.2-15.6-6.7-22.5c1-14.5,9.8-25.9,5.3-28.8
		c-12.1-8-31.3,12.6-41.9-0.8c-9.2-11.8-5.9-25.7-0.6-39.4H-144v227.3C-140.8,579.3-137.5,573.8-132,579.3z"/>
	
		<linearGradient id="SVGID_48_" gradientUnits="userSpaceOnUse" x1="1026.0848" y1="682.7671" x2="1026.0848" y2="621.0017" gradientTransform="matrix(1 0 0 -1 0 1069.5903)">
		<stop  offset="0" style="stop-color:#FFFFFF"/>
		<stop  offset="1" style="stop-color:#666E83"/>
	</linearGradient>
	<path class="st48" d="M1096.2,441.8c-14.3-1.7-18.2-10.4-27-16.3c-8.8-5.6-9.6-16.9-15.9-13c-6.3,4-13.5,4-14.3,0
		c-0.8-4-10.2-9.8-16.6-9c-6.3,0.8,0,7.3-11.8,0c-11.8-7.3-8.8,0-8.8,0c-2.4-4-18.2-25.1-23.7-11.3c-5.5,13.8-11,1.7-14.3-4
		c-3.1-5.6-22.3,7.3-28.6,12.1c-6.3,4.8-1.6,20.3,11.8,30.7c6.1,4.8,8.6,11.3,9.8,17.5h162.8
		C1116.1,443.2,1109.5,443.2,1096.2,441.8z"/>
	
		<linearGradient id="SVGID_49_" gradientUnits="userSpaceOnUse" x1="1026.8982" y1="558.8831" x2="1026.8982" y2="642.3501" gradientTransform="matrix(1 0 0 -1 0 1069.5903)">
		<stop  offset="0" style="stop-color:#FFFFFF"/>
		<stop  offset="1" style="stop-color:#666E83"/>
	</linearGradient>
	<path class="st49" d="M901.5,437.2c-3.9,3.2,2.7,6.4-0.6,9.1c-7.1,6.2-22.4,11.3-22.7,14.7c-0.6,10.6-9.8,24.5-4.3,27.2
		c2.2,1.3,4.1,7.4,11.8,5.5c5.7-1.5,17.1-11.1,22.4-11.7c4.9-0.6,9,6.6,11,4.9c7.3-5.5,29.8-16.4,35.9-12.3
		c6.1,4,11.2,14.5,23.9,7.7c12.7-6.8,29.8-4.5,39.8,3.4c6.3,4.9,6.7,2.3,18.6-6.4c1.8-1.5,5.9,5.1,10,3.4c3.7-1.5,7.1-11.3,9.2-13
		c3.9-3.4,7.3-8.5,12.4-6.2c0,0,1.4,5.7-1.4,17.7c-2.9,11.7-9.8,24.2-6.7,28.3c2.9,3.8,7.1-5.1,16.3-8.9c4.3-1.7,13.7,4,17.1,1.3
		c5.3-4.3,9-15.5,9-15.5s4.9,10,14.5,9.6c7.6-0.2,18.6-9.8,27.1-13c11.4-4.3,24.1-20.8,25.7-21.7c1.8-1.1-1.8-10.2,5.5-24.3
		c1.6-3.2,3.7-6.6,5.5-10H918c-0.4,1.1-1,2.1-1.8,3C914.3,432.7,904.1,435.1,901.5,437.2z"/>
	
		<linearGradient id="SVGID_50_" gradientUnits="userSpaceOnUse" x1="851.0143" y1="652.3961" x2="851.0143" y2="709.2441" gradientTransform="matrix(1 0 0 -1 0 1069.5903)">
		<stop  offset="0" style="stop-color:#FFFFFF"/>
		<stop  offset="1" style="stop-color:#666E83"/>
	</linearGradient>
	<path class="st50" d="M854.4,399.9c-6.7,3.1-10.4,3.9-11.4,0c-1-3.9-3.9-7.4-6.7-7.4c-2.9,0-2.9-3.9-3.7-6.2
		c-0.8-2.3-5.7-2.7-7.5-2.3c-1.8,0.4-7.5-5.1-8.1-7c-0.8-1.6,2.2-4.3,3.3-7.4c1-3.1,8.1-11.7,13.6-9c5.3,2.7,8.6,16.8,12.4,12.9
		c3.9-3.9,2.4-10.1,3.9-9.4c1.4,0.4,6.1,3.5,6.5,4.7c0.4,1.2,7.5,3.1,8.5-0.4c1-3.5,6.7-3.1,9.4,1.2c2.4,4.3-3.3,16,0,16.8
		c3.3,0.8,6.9,6.2,9.8,11.3c2.9,5.1-1.2,19.1-11.8,19.1c-1,0-7.9-8.2-13.8-8.2c-5.9,0-9.8,8.2-10,4.7
		C847.9,410.2,854.4,399.9,854.4,399.9z"/>
	
		<linearGradient id="SVGID_51_" gradientUnits="userSpaceOnUse" x1="707.6987" y1="707.5101" x2="707.6987" y2="766.0291" gradientTransform="matrix(1 0 0 -1 0 1069.5903)">
		<stop  offset="0" style="stop-color:#FFFFFF"/>
		<stop  offset="1" style="stop-color:#666E83"/>
	</linearGradient>
	<path class="st51" d="M711.1,344.3c-6.7,3.2-10.4,4-11.4,0c-1-4-3.9-7.6-6.7-7.6s-2.8-4-3.7-6.3c-0.8-2.3-5.7-2.7-7.5-2.3
		c-1.8,0.4-7.5-5.3-8.1-7.2c-0.8-1.7,2.2-4.4,3.3-7.6c1-3.2,8.1-12,13.6-9.3c5.3,2.7,8.5,17.3,12.4,13.3c3.9-4,2.4-10.4,3.9-9.7
		c1.4,0.4,6.1,3.6,6.5,4.9c0.4,1.3,7.5,3.2,8.5-0.4c1-3.6,6.7-3.2,9.4,1.3c2.4,4.4-3.3,16.5,0,17.3c3.3,0.8,6.9,6.3,9.8,11.6
		c2.8,5.3-1.2,19.7-11.8,19.7c-1,0-7.9-8.5-13.8-8.5c-5.9,0-9.8,8.5-10,4.9C704.6,354.9,711.1,344.3,711.1,344.3z"/>
	
		<linearGradient id="SVGID_52_" gradientUnits="userSpaceOnUse" x1="351.0417" y1="662.2811" x2="351.0417" y2="720.8" gradientTransform="matrix(1 0 0 -1 0 1069.5903)">
		<stop  offset="0" style="stop-color:#FFFFFF"/>
		<stop  offset="1" style="stop-color:#666E83"/>
	</linearGradient>
	<path class="st52" d="M354.4,389.4c-6.7,3.2-10.4,4-11.4,0c-1-4-3.9-7.6-6.7-7.6c-2.9,0-2.9-4-3.7-6.3c-0.8-2.3-5.7-2.7-7.5-2.3
		c-1.8,0.4-7.5-5.3-8.1-7.2c-0.8-1.7,2.2-4.4,3.3-7.6c1-3.2,8.1-12,13.6-9.3c5.3,2.7,8.5,17.3,12.4,13.3c3.9-4,2.4-10.4,3.9-9.7
		c1.4,0.4,6.1,3.6,6.5,4.9c0.4,1.3,7.5,3.2,8.6-0.4s6.7-3.2,9.4,1.3c2.4,4.4-3.3,16.5,0,17.3c3.3,0.8,6.9,6.3,9.8,11.6
		c2.9,5.3-1.2,19.7-11.8,19.7c-1,0-7.9-8.5-13.8-8.5c-5.9,0-9.8,8.5-10,4.9C347.9,400.2,354.4,389.4,354.4,389.4z"/>
	
		<linearGradient id="SVGID_53_" gradientUnits="userSpaceOnUse" x1="529.369" y1="691.2371" x2="529.3711" y2="726.536" gradientTransform="matrix(1 0 0 -1 0 1069.5903)">
		<stop  offset="0" style="stop-color:#FFFFFF"/>
		<stop  offset="1" style="stop-color:#666E83"/>
	</linearGradient>
	<path class="st53" d="M549.8,371.7c0,0,2.2,1.9-2.9,1.5c-5.1-0.4-1.8,0.6-3.9,2.1c-1.8,1.2-5.9,1-6.7,0c-0.8-1.2-3.3,0-4.5,2.5
		c-1.4,2.3-3.5-1-7.1-1.5c-3.7-0.4-6.5-2.5-11.2-0.6c-4.9,1.9-6.9,2.9-9.2,1.7c-2.2-1.5-0.6-5.6-5.5-5.2c-5.1,0.4-6.1,0.6-7.6-2.3
		c-1.4-2.9-10.6-1,0.2-7.7c10.8-6.7,7.6-9.4,17.2-8.9c9.6,0.2,10.6-0.6,15.3-3.1c4.5-2.5,7.1-4.4,9-2.1c1.8,2.3,7.8,0.8,12.3-1.5
		c4.3-2.3,6.5-4.2,8.6-2.3c2,1.9,3.7,8.5,9.8,9.8c6.1,1,10,5.2,8.8,7.9c-1.2,2.7-5.3,10-7.1,8.7c-2-1.2-5.7-4.2-5.3,1
		C559.8,376.7,551.3,372.6,549.8,371.7z"/>
	
		<linearGradient id="SVGID_54_" gradientUnits="userSpaceOnUse" x1="339.6418" y1="519.0151" x2="339.6418" y2="550.7325" gradientTransform="matrix(1 0 0 -1 0 1069.5903)">
		<stop  offset="0" style="stop-color:#FFFFFF"/>
		<stop  offset="1" style="stop-color:#666E83"/>
	</linearGradient>
	<path class="st54" d="M353.2,535.2c0,0,1.6,0.4-1.2,1.5c-2.9,1.1-0.8,0.9-1.6,2.1c-0.6,1.3-2.9,2.1-3.7,1.9
		c-0.8-0.4-1.6,0.9-1.8,2.5c-0.2,1.7-2.3,0.2-4.3,1.1c-2.1,0.8-4.1,0.4-6.4,2.8c-2.3,2.3-3.1,3.4-4.7,3.4c-1.6-0.2-1.8-3-4.3-1.5
		c-2.7,1.5-3.3,1.9-4.7,0.8c-1.4-1.3-6,2.3-1.8-4.5c4.3-6.6,1.8-7.2,7-9.6c5.3-2.3,5.7-3.2,7.6-5.7c1.8-2.6,2.9-4.5,4.3-3.6
		c1.6,0.8,4.5-1.7,6.4-4c1.8-2.3,2.5-4,4.1-3.6c1.6,0.6,4.3,3.8,7.8,2.8c3.5-1.1,6.8,0.2,6.8,1.9c0,1.7-0.4,7-1.6,6.8
		c-1.4-0.2-4.1-0.8-2.7,2.1C360,535.4,354.2,535.4,353.2,535.2z"/>
	
		<linearGradient id="SVGID_55_" gradientUnits="userSpaceOnUse" x1="12.299" y1="558.985" x2="12.299" y2="590.7024" gradientTransform="matrix(1 0 0 -1 0 1069.5903)">
		<stop  offset="0" style="stop-color:#FFFFFF"/>
		<stop  offset="1" style="stop-color:#666E83"/>
	</linearGradient>
	<path class="st55" d="M25.9,495.4c0,0,1.6,0.4-1.2,1.5s-0.8,0.9-1.6,2.1c-0.6,1.3-2.9,2.1-3.7,1.7c-0.8-0.4-1.6,0.8-1.8,2.5
		c-0.2,1.7-2.3,0.2-4.3,1.1c-2.1,0.9-4.1,0.4-6.4,2.8c-2.3,2.3-3.1,3.4-4.7,3.4c-1.6-0.2-1.8-3-4.3-1.5c-2.7,1.5-3.3,1.9-4.7,0.8
		c-1.4-1.3-6,2.3-1.8-4.5c4.3-6.6,1.8-7.2,7-9.6c5.3-2.3,5.7-3.2,7.6-5.7c1.8-2.5,2.9-4.5,4.3-3.6c1.6,0.9,4.5-1.7,6.4-4
		s2.5-4,4.1-3.6c1.6,0.6,4.3,3.8,7.8,2.8c3.5-1.1,6.8,0.2,6.8,1.9c0,1.7-0.4,7-1.6,6.8c-1.4-0.2-4.1-0.9-2.7,2.1
		C32.4,495.4,26.9,495.4,25.9,495.4z"/>
	
		<linearGradient id="SVGID_56_" gradientUnits="userSpaceOnUse" x1="60.342" y1="663.8511" x2="60.341" y2="735.7791" gradientTransform="matrix(1 0 0 -1 0 1069.5903)">
		<stop  offset="0" style="stop-color:#FFFFFF"/>
		<stop  offset="1" style="stop-color:#666E83"/>
	</linearGradient>
	<path class="st56" d="M72.2,384.2c-6.2,8-9.9,11.3-13.7,7.4c-3.7-4-9.3-6.3-12.8-4.6c-3.5,1.9-5.8-2.9-8.1-5
		c-2.3-2.1-8.5,0.4-10.4,2.1c-1.9,1.7-12.2-1.5-14.1-3.1c-1.9-1.7-0.2-6.5-0.8-10.9c-0.4-2.5,7.2-5,9.5-9.7c1.7-3.6-2.5-9.9,1-10.1
		c8.1-0.2,20.9,14.9,23.2,7.8c2.3-7.1-3.1-13.7-1.2-14.1c2.1-0.4,9.5,0.2,10.8,1.7c1.2,1.3,11-1,9.9-6.1c-0.8-4.8,6.2-8,12-4.4
		c5.8,3.6,6.2,21.4,10.6,20.4c4.3-1.1,12,2.9,18.6,7.4c3.9,2.7-0.6,13-2.5,21c-1.2,5.3,0.6,9.2,0.2,9.7c-0.4,0.2-3.1,6.1-6.4,6.9
		c-2.5,0.6-5.2,3.8-7.5,3.2c-3.1-0.6-5.4-5.3-5.4-5.3s-8.9,10.1-11.6,6.1C71,400.8,72.2,384.2,72.2,384.2z"/>
	
		<linearGradient id="SVGID_57_" gradientUnits="userSpaceOnUse" x1="564.385" y1="752.506" x2="564.385" y2="824.4351" gradientTransform="matrix(1 0 0 -1 0 1069.5903)">
		<stop  offset="0" style="stop-color:#FFFFFF"/>
		<stop  offset="1" style="stop-color:#666E83"/>
	</linearGradient>
	<path class="st57" d="M575.9,295.5c-6.1,8-9.8,11.3-13.4,7.4c-3.7-4-9.2-6.3-12.4-4.6c-3.5,1.9-5.7-2.9-7.9-5
		c-2.2-2.1-8.3,0.4-10.2,2.1c-1.8,1.7-12-1.5-13.8-3.2c-1.8-1.7-0.2-6.5-0.8-10.9c-0.4-2.5,7.1-5,9.4-9.7c1.6-3.6-2.4-9.9,1-10.1
		c7.9-0.2,20.6,14.9,22.8,7.8c2.2-7.1-3.1-13.7-1.2-14.1c2-0.4,9.4,0.2,10.6,1.7c1.2,1.3,10.8-1,9.8-5.9c-0.8-4.8,6.1-8,11.8-4.4
		c5.7,3.6,6.1,21.4,10.4,20.4c4.3-1,11.8,2.9,18.3,7.4c3.9,2.7-0.6,13-2.4,21c-1.2,5.3,0.6,9.2,0.2,9.7c-0.4,0.2-3.1,6.1-6.3,6.9
		c-2.4,0.6-5.1,3.8-7.3,3.2c-3.1-0.6-5.3-5.3-5.3-5.3s-8.8,10.1-11.4,6.1C574.7,312.3,575.9,295.5,575.9,295.5z"/>
	
		<linearGradient id="SVGID_58_" gradientUnits="userSpaceOnUse" x1="1100.999" y1="655.5351" x2="1100.999" y2="727.4651" gradientTransform="matrix(1 0 0 -1 0 1069.5903)">
		<stop  offset="0" style="stop-color:#FFFFFF"/>
		<stop  offset="1" style="stop-color:#666E83"/>
	</linearGradient>
	<path class="st58" d="M1112.7,392.5c-6.2,8-9.9,11.3-13.7,7.4c-3.7-4-9.3-6.3-12.6-4.6c-3.5,1.9-5.8-2.9-8.1-5
		c-2.3-2.1-8.5,0.4-10.4,2.1c-1.9,1.7-12.2-1.5-14.1-3.2c-1.9-1.7-0.2-6.5-0.8-10.9c-0.4-2.5,7.2-5,9.5-9.7c1.7-3.6-2.5-9.9,1-10.1
		c8.1-0.2,20.9,14.9,23.2,7.8c2.3-7.1-3.1-13.7-1.2-14.1c2.1-0.4,9.5,0.2,10.8,1.7c1.2,1.3,11-1.1,9.9-6.1c-0.8-4.8,6.2-8,12-4.4
		c5.8,3.6,6.2,21.4,10.6,20.4c4.3-1,12,2.9,18.6,7.4c3.9,2.7-0.6,13-2.5,21c-1.2,5.3,0.6,9.2,0.2,9.7c-0.4,0.2-3.1,6.1-6.4,6.9
		c-2.5,0.6-5.2,3.8-7.7,3.2c-3.1-0.6-5.4-5.3-5.4-5.3s-8.9,10.1-11.6,6.1C1111.4,409.1,1112.7,392.5,1112.7,392.5z"/>
	
		<linearGradient id="SVGID_59_" gradientUnits="userSpaceOnUse" x1="272.856" y1="424.5931" x2="272.856" y2="295.3451" gradientTransform="matrix(1 0 0 -1 0 1069.5903)">
		<stop  offset="0" style="stop-color:#FFFFFF"/>
		<stop  offset="1" style="stop-color:#666E83"/>
	</linearGradient>
	<path class="st59" d="M543.1,784.8c-1-0.8-2-3-3-6.6c-2.5-10-3.8-12.6-8.7-10.7c-4.9,2-5.2,0.8-6.2-7.7c-1-8.4-8.7-20.7-19.2-21.5
		c-10.5-0.8-17.1-10-27.4-18.7c-10.5-8.9-10-21.5-35.1-30.2c-25.1-8.9-10.8,7.7-21.5,21.5c-10.8,13.8-13.6,2.6-15.6-1.5
		c-2.1-4.3-4.6-2-5.2,0c-0.7,2-1,11.5-7.2,3.1c-6.2-8.4-6.2-4.6-6.6-3.1c-0.3,1.5-10.8,5.4-15.6-2.3c-4.9-7.7-9-1.5-27.1,5.4
		c-18,6.9-14.6,10.7-14.6,1.5s-6.6-6.9-16.4-8.9c-9.7-2-18.4,12.9-19.5,5.4c-1-7.7-15.6,0-14.6-2c1-2-2.5-13.8-6.6-19.2
		c-4.1-5.4-3.8-3.1-5.9-1.1c-2.1,2-1,12.3-8,17.5c-6.9,5.4-12.5,2-12.5-0.8c0-2.6-7.7-16.9-14.3-19.8c-6.6-3.1-7.2-13.8-12.8-14.6
		c-5.6-0.8-5.9,11.5-8,14.9c-2.1,3.4-5.2,2-6.2-4.9c-1-6.9-9.3-6.9-15.3-6.9c-5.9,0-8.7-4.6-14.9-12.9c-6.2-8.4-12.5-5.7-27.1,0
		c-14.6,5.7-19.5,5.7-31,4.9c-11.5-0.8-10.8,2.3-15.9,4.3c-5.2,2-4.6-1.1-10.8,0c-6.2,1.1-1.3,15.7-4.6,12.3
		c-3.1-3.4-13.6-6.1-20.8-6.6c-7.2-0.3-15.6,3.4-23.9,4.6c-8.4,1.1-10.5,3.8-16.4,10.3c-5.9,6.6-8,14.1-13.9,21
		c-2.1,2.5-5.1,5.4-8.2,7.9v65.2H543.1z"/>
	<g>
		<circle class="st60" cx="395.5" cy="942.7" r="12.5"/>
	</g>
	<g>
		<circle class="st61" cx="395.5" cy="942.7" r="6.8"/>
	</g>
	<g>
		<circle class="st60" cx="592.9" cy="966.6" r="12.5"/>
	</g>
	<g>
		<circle class="st61" cx="592.9" cy="966.6" r="6.8"/>
	</g>
	<g>
		<circle class="st60" cx="686.4" cy="808.1" r="12.5"/>
	</g>
	<g>
		<circle class="st61" cx="686.4" cy="808.1" r="6.8"/>
	</g>
	<g>
		<circle class="st60" cx="509.6" cy="656.3" r="12.5"/>
	</g>
	<g>
		<circle class="st61" cx="509.6" cy="656.3" r="6.8"/>
	</g>
	<g>
		<circle class="st60" cx="305.4" cy="656.3" r="12.5"/>
	</g>
	<g>
		<circle class="st61" cx="305.4" cy="656.3" r="6.8"/>
	</g>
	<g>
		<circle class="st60" cx="55.6" cy="621" r="12.5"/>
	</g>
	<g>
		<circle class="st61" cx="55.6" cy="621" r="6.8"/>
	</g>
	<g>
		<circle class="st60" cx="-1.5" cy="954.1" r="12.5"/>
	</g>
	<g>
		<circle class="st61" cx="-1.5" cy="954.1" r="6.8"/>
	</g>
	<g>
		<circle class="st60" cx="863.2" cy="891.3" r="12.5"/>
	</g>
	<g>
		<circle class="st61" cx="863.2" cy="891.3" r="6.8"/>
	</g>
	<g>
		<circle class="st60" cx="767.4" cy="1008.8" r="12.5"/>
	</g>
	<g>
		<circle class="st61" cx="767.4" cy="1008.8" r="6.8"/>
	</g>
	<g>
		<circle class="st60" cx="965.9" cy="1040.8" r="12.5"/>
	</g>
	<g>
		<circle class="st61" cx="965.9" cy="1040.8" r="6.8"/>
	</g>
	<g>
		<circle class="st60" cx="1048" cy="868.5" r="12.5"/>
	</g>
	<g>
		<circle class="st61" cx="1048" cy="868.5" r="6.8"/>
	</g>
	<g>
		<circle class="st60" cx="780" cy="636.9" r="12.5"/>
	</g>
	<g>
		<circle class="st61" cx="780" cy="636.9" r="6.8"/>
	</g>
	<g>
		<circle class="st60" cx="1054.9" cy="634.7" r="12.5"/>
	</g>
	<g>
		<circle class="st61" cx="1054.9" cy="634.7" r="6.8"/>
	</g>
	<g>
		<circle class="st60" cx="693.3" cy="538.8" r="12.5"/>
	</g>
	<g>
		<circle class="st61" cx="693.3" cy="538.8" r="6.8"/>
	</g>
	<g>
		<circle class="st60" cx="302" cy="579.9" r="12.5"/>
	</g>
	<g>
		<circle class="st61" cx="302" cy="579.9" r="6.8"/>
	</g>
	<g>
		<circle class="st60" cx="467.4" cy="851.4" r="12.5"/>
	</g>
	<g>
		<circle class="st61" cx="467.4" cy="851.4" r="6.8"/>
	</g>
	<g>
		<circle class="st60" cx="163.9" cy="849.1" r="12.5"/>
	</g>
	<g>
		<circle class="st61" cx="163.9" cy="849.1" r="6.8"/>
	</g>
	<g>
		<circle class="st60" cx="122.9" cy="966.6" r="12.5"/>
	</g>
	<g>
		<circle class="st61" cx="122.9" cy="966.6" r="6.8"/>
	</g>
	<g>
		<circle class="st60" cx="349.9" cy="1039.6" r="12.5"/>
	</g>
	<g>
		<circle class="st61" cx="349.9" cy="1039.6" r="6.8"/>
	</g>
	<g>
		<circle class="st60" cx="661.3" cy="1045.3" r="12.5"/>
	</g>
	<g>
		<circle class="st61" cx="661.3" cy="1045.3" r="6.8"/>
	</g>
	<g>
		<circle class="st60" cx="1035.5" cy="946.1" r="12.5"/>
	</g>
	<g>
		<circle class="st61" cx="1035.5" cy="946.1" r="6.8"/>
	</g>
	<g>
		<circle class="st60" cx="503.9" cy="916.4" r="12.5"/>
	</g>
	<g>
		<circle class="st61" cx="503.9" cy="916.4" r="6.8"/>
	</g>
	<g>
		<circle class="st60" cx="612.3" cy="720.2" r="12.5"/>
	</g>
	<g>
		<circle class="st61" cx="612.3" cy="720.2" r="6.8"/>
	</g>
	<g>
		<circle class="st60" cx="498.2" cy="732.8" r="12.5"/>
	</g>
	<g>
		<circle class="st61" cx="498.2" cy="732.8" r="6.8"/>
	</g>
	<g>
		<circle class="st60" cx="395.5" cy="695.1" r="12.5"/>
	</g>
	<g>
		<circle class="st61" cx="395.5" cy="695.1" r="6.8"/>
	</g>
	<g>
		<circle class="st60" cx="895.2" cy="641.5" r="12.5"/>
	</g>
	<g>
		<circle class="st61" cx="895.2" cy="641.5" r="6.8"/>
	</g>
	<g>
		<circle class="st60" cx="997.8" cy="708.8" r="12.5"/>
	</g>
	<g>
		<circle class="st61" cx="997.8" cy="708.8" r="6.8"/>
	</g>
	<g>
		<circle class="st60" cx="1004.7" cy="546.8" r="12.5"/>
	</g>
	<g>
		<circle class="st61" cx="1004.7" cy="546.8" r="6.8"/>
	</g>
	<g>
		<circle class="st60" cx="915.7" cy="449.9" r="12.5"/>
	</g>
	<g>
		<circle class="st61" cx="915.7" cy="449.9" r="6.8"/>
	</g>
	<g>
		<circle class="st60" cx="1059.4" cy="360.9" r="12.5"/>
	</g>
	<g>
		<circle class="st61" cx="1059.4" cy="360.9" r="6.8"/>
	</g>
	<g>
		<circle class="st60" cx="972.7" cy="220.6" r="12.5"/>
	</g>
	<g>
		<circle class="st61" cx="972.7" cy="220.6" r="6.8"/>
	</g>
	<g>
		<circle class="st60" cx="811.9" cy="294.7" r="12.5"/>
	</g>
	<g>
		<circle class="st61" cx="811.9" cy="294.7" r="6.8"/>
	</g>
	<g>
		<circle class="st60" cx="746.9" cy="380.3" r="12.5"/>
	</g>
	<g>
		<circle class="st61" cx="746.9" cy="380.3" r="6.8"/>
	</g>
	<g>
		<circle class="st60" cx="605.4" cy="370" r="12.5"/>
	</g>
	<g>
		<circle class="st61" cx="605.4" cy="370" r="6.8"/>
	</g>
	<g>
		<circle class="st60" cx="436.6" cy="390.5" r="12.5"/>
	</g>
	<g>
		<circle class="st61" cx="436.6" cy="390.5" r="6.8"/>
	</g>
	<g>
		<circle class="st60" cx="150.3" cy="477.2" r="12.5"/>
	</g>
	<g>
		<circle class="st61" cx="150.3" cy="477.2" r="6.8"/>
	</g>
	<g>
		<circle class="st60" cx="21.3" cy="430.5" r="12.5"/>
	</g>
	<g>
		<circle class="st61" cx="21.3" cy="430.5" r="6.8"/>
	</g>
	<g>
		<circle class="st60" cx="116" cy="254.8" r="12.5"/>
	</g>
	<g>
		<circle class="st61" cx="116" cy="254.8" r="6.8"/>
	</g>
	<g>
		<circle class="st60" cx="194.7" cy="303.8" r="12.5"/>
	</g>
	<g>
		<circle class="st61" cx="194.7" cy="303.8" r="6.8"/>
	</g>
	<g>
		<circle class="st60" cx="298.6" cy="176.1" r="12.5"/>
	</g>
	<g>
		<circle class="st61" cx="298.6" cy="176.1" r="6.8"/>
	</g>
	<g>
		<circle class="st60" cx="456" cy="156.7" r="12.5"/>
	</g>
	<g>
		<circle class="st61" cx="456" cy="156.7" r="6.8"/>
	</g>
	<g>
		<circle class="st60" cx="372.7" cy="93.9" r="12.5"/>
	</g>
	<g>
		<circle class="st61" cx="372.7" cy="93.9" r="6.8"/>
	</g>
	<g>
		<circle class="st60" cx="611.1" cy="99.6" r="12.5"/>
	</g>
	<g>
		<circle class="st61" cx="611.1" cy="99.6" r="6.8"/>
	</g>
	<g>
		<circle class="st60" cx="746.9" cy="87.1" r="12.5"/>
	</g>
	<g>
		<circle class="st61" cx="746.9" cy="87.1" r="6.8"/>
	</g>
	<g>
		<circle class="st60" cx="661.3" cy="25.5" r="12.5"/>
	</g>
	<g>
		<circle class="st61" cx="661.3" cy="25.5" r="6.8"/>
	</g>
	<g>
		<circle class="st60" cx="824.4" cy="0.4" r="12.5"/>
	</g>
	<g>
		<circle class="st61" cx="824.4" cy="0.4" r="6.8"/>
	</g>
	<g>
		<circle class="st60" cx="349.9" cy="7.2" r="12.5"/>
	</g>
	<g>
		<circle class="st61" cx="349.9" cy="7.2" r="6.8"/>
	</g>
	<g>
		<circle class="st60" cx="219.8" cy="81.4" r="12.5"/>
	</g>
	<g>
		<circle class="st61" cx="219.8" cy="81.4" r="6.8"/>
	</g>
	<g>
		<circle class="st60" cx="68.1" cy="28.9" r="12.5"/>
	</g>
	<g>
		<circle class="st61" cx="68.1" cy="28.9" r="6.8"/>
	</g>
	<g>
		<circle class="st60" cx="122.9" cy="92.8" r="12.5"/>
	</g>
	<g>
		<circle class="st61" cx="122.9" cy="92.8" r="6.8"/>
	</g>
	<g>
		<circle class="st60" cx="-9.5" cy="86" r="12.5"/>
	</g>
	<g>
		<circle class="st61" cx="-9.5" cy="86" r="6.8"/>
	</g>
	<g>
		<circle class="st60" cx="-3.7" cy="269.6" r="12.5"/>
	</g>
	<g>
		<circle class="st61" cx="-3.7" cy="269.6" r="6.8"/>
	</g>
	<g>
		<circle class="st60" cx="428.6" cy="303.8" r="12.5"/>
	</g>
	<g>
		<circle class="st61" cx="428.6" cy="303.8" r="6.8"/>
	</g>
	<g>
		<circle class="st60" cx="652.2" cy="235.4" r="12.5"/>
	</g>
	<g>
		<circle class="st61" cx="652.2" cy="235.4" r="6.8"/>
	</g>
	<g>
		<circle class="st60" cx="543.8" cy="202.3" r="12.5"/>
	</g>
	<g>
		<circle class="st61" cx="543.8" cy="202.3" r="6.8"/>
	</g>
	<g>
		<circle class="st60" cx="766.3" cy="201.2" r="12.5"/>
	</g>
	<g>
		<circle class="st61" cx="766.3" cy="201.2" r="6.8"/>
	</g>
	<g>
		<circle class="st60" cx="1074.3" cy="266.2" r="12.5"/>
	</g>
	<g>
		<circle class="st60" cx="646.5" cy="444.2" r="12.5"/>
	</g>
	<g>
		<circle class="st61" cx="646.5" cy="444.2" r="6.8"/>
	</g>
	<g>
		<circle class="st60" cx="430.9" cy="505.8" r="12.5"/>
	</g>
	<g>
		<circle class="st60" cx="259.8" cy="508" r="12.5"/>
	</g>
	<g>
		<circle class="st60" cx="101.2" cy="754.4" r="12.5"/>
	</g>
	<g>
		<circle class="st60" cx="260.9" cy="794.4" r="12.5"/>
	</g>
	<g>
		<circle class="st60" cx="773.1" cy="725.9" r="12.5"/>
	</g>
	<g>
		<circle class="st60" cx="965.9" cy="861.7" r="12.5"/>
	</g>
	<g>
		<circle class="st60" cx="133.1" cy="1055.6" r="12.5"/>
	</g>
	<g>
		<circle class="st61" cx="259.8" cy="508" r="6.8"/>
	</g>
	<g>
		<circle class="st61" cx="101.2" cy="754.4" r="6.8"/>
	</g>
	<g>
		<circle class="st61" cx="260.9" cy="794.4" r="6.8"/>
	</g>
	<g>
		<circle class="st61" cx="430.9" cy="505.8" r="6.8"/>
	</g>
	<g>
		<circle class="st61" cx="965.9" cy="861.7" r="6.8"/>
	</g>
	<g>
		<circle class="st61" cx="773.1" cy="725.9" r="6.8"/>
	</g>
	<g>
		<circle class="st61" cx="133.1" cy="1055.6" r="6.8"/>
	</g>
	<g>
		
			<ellipse transform="matrix(0.1602 -0.9871 0.9871 0.1602 -767.1071 1116.0343)" class="st60" cx="272.3" cy="1008.8" rx="20.5" ry="20.5"/>
	</g>
	<g>
		<circle class="st61" cx="272.3" cy="1008.8" r="11.4"/>
	</g>
	<g>
		<circle class="st60" cx="459.4" cy="1020.2" r="20.5"/>
	</g>
	<g>
		<circle class="st61" cx="459.4" cy="1020.2" r="11.4"/>
	</g>
	<g>
		<circle class="st60" cx="568.9" cy="838.9" r="20.5"/>
	</g>
	<g>
		<circle class="st61" cx="568.9" cy="838.9" r="11.4"/>
	</g>
	<g>
		<circle class="st60" cx="194.7" cy="707.7" r="20.5"/>
	</g>
	<g>
		<circle class="st61" cx="194.7" cy="707.7" r="11.4"/>
	</g>
	<g>
		<circle class="st60" cx="428.6" cy="613" r="20.5"/>
	</g>
	<g>
		<circle class="st61" cx="428.6" cy="613" r="11.4"/>
	</g>
	<g>
		<circle class="st60" cx="653.3" cy="644.9" r="20.5"/>
	</g>
	<g>
		<circle class="st61" cx="653.3" cy="644.9" r="11.4"/>
	</g>
	<g>
		<circle class="st60" cx="903.2" cy="571.9" r="20.5"/>
	</g>
	<g>
		<circle class="st61" cx="903.2" cy="571.9" r="11.4"/>
	</g>
	<g>
		<circle class="st60" cx="871.2" cy="818.3" r="20.5"/>
	</g>
	<g>
		<circle class="st61" cx="871.2" cy="818.3" r="11.4"/>
	</g>
	<g>
		<circle class="st60" cx="746.9" cy="942.7" r="20.5"/>
	</g>
	<g>
		<circle class="st61" cx="746.9" cy="942.7" r="11.4"/>
	</g>
	<g>
		<circle class="st60" cx="914.6" cy="970" r="20.5"/>
	</g>
	<g>
		<circle class="st61" cx="914.6" cy="970" r="11.4"/>
	</g>
	<g>
		<circle class="st60" cx="1060.6" cy="806.9" r="20.5"/>
	</g>
	<g>
		<circle class="st61" cx="1060.6" cy="806.9" r="11.4"/>
	</g>
	<g>
		<circle class="st60" cx="1060.6" cy="1040.8" r="20.5"/>
	</g>
	<g>
		<circle class="st61" cx="1060.6" cy="1040.8" r="11.4"/>
	</g>
	<g>
		<circle class="st60" cx="162.8" cy="613" r="20.5"/>
	</g>
	<g>
		<circle class="st61" cx="162.8" cy="613" r="11.4"/>
	</g>
	<g>
		<circle class="st60" cx="313.4" cy="419.1" r="20.5"/>
	</g>
	<g>
		<circle class="st61" cx="313.4" cy="419.1" r="11.4"/>
	</g>
	<g>
		<circle class="st60" cx="121.7" cy="378" r="20.5"/>
	</g>
	<g>
		<circle class="st61" cx="121.7" cy="378" r="11.4"/>
	</g>
	<g>
		<circle class="st60" cx="362.4" cy="221.7" r="20.5"/>
	</g>
	<g>
		<circle class="st61" cx="362.4" cy="221.7" r="11.4"/>
	</g>
	<g>
		<circle class="st60" cx="548.4" cy="318.7" r="20.5"/>
	</g>
	<g>
		<circle class="st61" cx="548.4" cy="318.7" r="11.4"/>
	</g>
	<g>
		<circle class="st60" cx="653.3" cy="148.7" r="20.5"/>
	</g>
	<g>
		<circle class="st61" cx="653.3" cy="148.7" r="11.4"/>
	</g>
	<g>
		<circle class="st60" cx="735.5" cy="298.1" r="20.5"/>
	</g>
	<g>
		<circle class="st61" cx="735.5" cy="298.1" r="11.4"/>
	</g>
	<g>
		<circle class="st60" cx="871.2" cy="171.5" r="20.5"/>
	</g>
	<g>
		<circle class="st61" cx="871.2" cy="171.5" r="11.4"/>
	</g>
	<g>
		<circle class="st60" cx="940.8" cy="327.8" r="20.5"/>
	</g>
	<g>
		<circle class="st61" cx="940.8" cy="327.8" r="11.4"/>
	</g>
	<g>
		<circle class="st60" cx="1078.8" cy="171.5" r="20.5"/>
	</g>
	<g>
		
			<ellipse transform="matrix(0.2898 -0.9571 0.9571 0.2898 103.9423 1092.26)" class="st60" cx="787.9" cy="476.1" rx="20.5" ry="20.5"/>
	</g>
	<g>
		
			<ellipse transform="matrix(0.2898 -0.9571 0.9571 0.2898 103.9422 1092.2599)" class="st61" cx="787.9" cy="476.1" rx="11.4" ry="11.4"/>
	</g>
	<g>
		<circle class="st60" cx="568.9" cy="509.2" r="20.5"/>
	</g>
	<g>
		<circle class="st61" cx="568.9" cy="509.2" r="11.4"/>
	</g>
	<g>
		<circle class="st60" cx="22.5" cy="526.3" r="20.5"/>
	</g>
	<g>
		<circle class="st61" cx="22.5" cy="526.3" r="11.4"/>
	</g>
	<g>
		<circle class="st60" cx="194.7" cy="189.8" r="20.5"/>
	</g>
	<g>
		<circle class="st61" cx="194.7" cy="189.8" r="11.4"/>
	</g>
	<g>
		<circle class="st60" cx="479.9" cy="81.4" r="20.5"/>
	</g>
	<g>
		<circle class="st61" cx="479.9" cy="81.4" r="11.4"/>
	</g>
	<g>
		<circle class="st60" cx="972.7" cy="49.4" r="20.5"/>
	</g>
	<g>
		<circle class="st61" cx="972.7" cy="49.4" r="11.4"/>
	</g>
	<g>
		
			<ellipse transform="matrix(0.1602 -0.9871 0.9871 0.1602 -130.9116 184.5884)" class="st60" cx="43" cy="169.2" rx="20.5" ry="20.5"/>
	</g>
	<g>
		<circle class="st61" cx="43" cy="169.2" r="11.4"/>
	</g>
	<g>
		<circle class="st60" cx="54.4" cy="879.9" r="20.5"/>
	</g>
	<g>
		<circle class="st61" cx="54.4" cy="879.9" r="11.4"/>
	</g>
	<g>
		<circle class="st60" cx="371.6" cy="775" r="20.5"/>
	</g>
	<g>
		<circle class="st61" cx="371.6" cy="775" r="11.4"/>
	</g>
	<g>
		<circle class="st60" cx="734.5" cy="930.7" r="12.5"/>
	</g>
	<g>
		<circle class="st61" cx="734.5" cy="930.7" r="6.8"/>
	</g>
	<g>
		<circle class="st60" cx="537.1" cy="954.6" r="12.5"/>
	</g>
	<g>
		<circle class="st61" cx="537.1" cy="954.6" r="6.8"/>
	</g>
	<g>
		<circle class="st60" cx="443.6" cy="796.1" r="12.5"/>
	</g>
	<g>
		<circle class="st61" cx="443.6" cy="796.1" r="6.8"/>
	</g>
	<g>
		<circle class="st60" cx="620.4" cy="644.3" r="12.5"/>
	</g>
	<g>
		<circle class="st61" cx="620.4" cy="644.3" r="6.8"/>
	</g>
	<g>
		<circle class="st60" cx="824.6" cy="644.3" r="12.5"/>
	</g>
	<g>
		<circle class="st61" cx="824.6" cy="644.3" r="6.8"/>
	</g>
	<g>
		<circle class="st60" cx="1074.4" cy="609" r="12.5"/>
	</g>
	<g>
		<circle class="st60" cx="266.8" cy="879.3" r="12.5"/>
	</g>
	<g>
		<circle class="st61" cx="266.8" cy="879.3" r="6.8"/>
	</g>
	<g>
		<circle class="st60" cx="362.6" cy="996.8" r="12.5"/>
	</g>
	<g>
		<circle class="st61" cx="362.6" cy="996.8" r="6.8"/>
	</g>
	<g>
		<circle class="st60" cx="164.1" cy="1028.8" r="12.5"/>
	</g>
	<g>
		<circle class="st61" cx="164.1" cy="1028.8" r="6.8"/>
	</g>
	<g>
		<circle class="st60" cx="82" cy="856.5" r="12.5"/>
	</g>
	<g>
		<circle class="st61" cx="82" cy="856.5" r="6.8"/>
	</g>
	<g>
		<circle class="st60" cx="350" cy="624.9" r="12.5"/>
	</g>
	<g>
		<circle class="st61" cx="350" cy="624.9" r="6.8"/>
	</g>
	<g>
		<circle class="st60" cx="75.1" cy="622.7" r="12.5"/>
	</g>
	<g>
		<circle class="st61" cx="75.1" cy="622.7" r="6.8"/>
	</g>
	<g>
		<circle class="st60" cx="436.7" cy="526.8" r="12.5"/>
	</g>
	<g>
		<circle class="st61" cx="436.7" cy="526.8" r="6.8"/>
	</g>
	<g>
		<circle class="st60" cx="828" cy="567.9" r="12.5"/>
	</g>
	<g>
		<circle class="st61" cx="828" cy="567.9" r="6.8"/>
	</g>
	<g>
		<circle class="st60" cx="662.6" cy="839.4" r="12.5"/>
	</g>
	<g>
		<circle class="st61" cx="662.6" cy="839.4" r="6.8"/>
	</g>
	<g>
		<circle class="st60" cx="966.1" cy="837.1" r="12.5"/>
	</g>
	<g>
		<circle class="st61" cx="966.1" cy="837.1" r="6.8"/>
	</g>
	<g>
		<circle class="st60" cx="1007.1" cy="954.6" r="12.5"/>
	</g>
	<g>
		<circle class="st61" cx="1007.1" cy="954.6" r="6.8"/>
	</g>
	<g>
		<circle class="st60" cx="780.1" cy="1027.6" r="12.5"/>
	</g>
	<g>
		<circle class="st61" cx="780.1" cy="1027.6" r="6.8"/>
	</g>
	<g>
		<circle class="st60" cx="468.7" cy="1033.3" r="12.5"/>
	</g>
	<g>
		<circle class="st61" cx="468.7" cy="1033.3" r="6.8"/>
	</g>
	<g>
		<circle class="st60" cx="94.5" cy="934.1" r="12.5"/>
	</g>
	<g>
		<circle class="st61" cx="94.5" cy="934.1" r="6.8"/>
	</g>
	<g>
		<circle class="st60" cx="-2.5" cy="1049.3" r="12.5"/>
	</g>
	<g>
		<circle class="st61" cx="-2.5" cy="1049.3" r="6.8"/>
	</g>
	<g>
		<circle class="st60" cx="626.1" cy="904.4" r="12.5"/>
	</g>
	<g>
		<circle class="st61" cx="626.1" cy="904.4" r="6.8"/>
	</g>
	<g>
		<circle class="st60" cx="517.7" cy="708.2" r="12.5"/>
	</g>
	<g>
		<circle class="st61" cx="517.7" cy="708.2" r="6.8"/>
	</g>
	<g>
		<circle class="st60" cx="631.8" cy="720.8" r="12.5"/>
	</g>
	<g>
		<circle class="st61" cx="631.8" cy="720.8" r="6.8"/>
	</g>
	<g>
		<circle class="st60" cx="734.5" cy="683.1" r="12.5"/>
	</g>
	<g>
		<circle class="st61" cx="734.5" cy="683.1" r="6.8"/>
	</g>
	<g>
		<circle class="st60" cx="234.8" cy="629.5" r="12.5"/>
	</g>
	<g>
		<circle class="st61" cx="234.8" cy="629.5" r="6.8"/>
	</g>
	<g>
		<circle class="st60" cx="132.2" cy="696.8" r="12.5"/>
	</g>
	<g>
		<circle class="st61" cx="132.2" cy="696.8" r="6.8"/>
	</g>
	<g>
		<circle class="st60" cx="125.3" cy="534.8" r="12.5"/>
	</g>
	<g>
		<circle class="st61" cx="125.3" cy="534.8" r="6.8"/>
	</g>
	<g>
		<circle class="st60" cx="214.3" cy="437.9" r="12.5"/>
	</g>
	<g>
		<circle class="st61" cx="214.3" cy="437.9" r="6.8"/>
	</g>
	<g>
		<circle class="st60" cx="70.6" cy="348.9" r="12.5"/>
	</g>
	<g>
		<circle class="st61" cx="70.6" cy="348.9" r="6.8"/>
	</g>
	<g>
		<circle class="st60" cx="157.3" cy="208.6" r="12.5"/>
	</g>
	<g>
		<circle class="st61" cx="157.3" cy="208.6" r="6.8"/>
	</g>
	<g>
		<circle class="st60" cx="318.1" cy="282.7" r="12.5"/>
	</g>
	<g>
		<circle class="st61" cx="318.1" cy="282.7" r="6.8"/>
	</g>
	<g>
		<circle class="st60" cx="383.1" cy="368.3" r="12.5"/>
	</g>
	<g>
		<circle class="st61" cx="383.1" cy="368.3" r="6.8"/>
	</g>
	<g>
		<circle class="st60" cx="524.6" cy="358" r="12.5"/>
	</g>
	<g>
		<circle class="st61" cx="524.6" cy="358" r="6.8"/>
	</g>
	<g>
		<circle class="st60" cx="693.4" cy="378.5" r="12.5"/>
	</g>
	<g>
		<circle class="st61" cx="693.4" cy="378.5" r="6.8"/>
	</g>
	<g>
		<circle class="st60" cx="979.7" cy="465.2" r="12.5"/>
	</g>
	<g>
		<circle class="st61" cx="979.8" cy="465.2" r="6.8"/>
	</g>
	<g>
		<circle class="st60" cx="1014" cy="242.8" r="12.5"/>
	</g>
	<g>
		<circle class="st61" cx="1014" cy="242.8" r="6.8"/>
	</g>
	<g>
		<circle class="st60" cx="935.3" cy="291.8" r="12.5"/>
	</g>
	<g>
		<circle class="st61" cx="935.3" cy="291.8" r="6.8"/>
	</g>
	<g>
		<circle class="st60" cx="831.4" cy="164.1" r="12.5"/>
	</g>
	<g>
		<circle class="st61" cx="831.4" cy="164.1" r="6.8"/>
	</g>
	<g>
		<circle class="st60" cx="674" cy="144.7" r="12.5"/>
	</g>
	<g>
		<circle class="st61" cx="674" cy="144.7" r="6.8"/>
	</g>
	<g>
		<circle class="st60" cx="757.3" cy="81.9" r="12.5"/>
	</g>
	<g>
		<circle class="st61" cx="757.3" cy="81.9" r="6.8"/>
	</g>
	<g>
		<circle class="st60" cx="518.9" cy="87.6" r="12.5"/>
	</g>
	<g>
		<circle class="st61" cx="518.9" cy="87.6" r="6.8"/>
	</g>
	<g>
		<circle class="st60" cx="383.1" cy="75.1" r="12.5"/>
	</g>
	<g>
		<circle class="st61" cx="383.1" cy="75.1" r="6.8"/>
	</g>
	<g>
		<circle class="st60" cx="468.7" cy="13.5" r="12.5"/>
	</g>
	<g>
		<circle class="st61" cx="468.7" cy="13.5" r="6.8"/>
	</g>
	<g>
		<circle class="st60" cx="305.6" cy="-11.6" r="12.5"/>
	</g>
	<g>
		<circle class="st61" cx="305.6" cy="-11.6" r="6.8"/>
	</g>
	<g>
		<circle class="st60" cx="780.1" cy="-4.8" r="12.5"/>
	</g>
	<g>
		<circle class="st61" cx="780.1" cy="-4.8" r="6.8"/>
	</g>
	<g>
		<circle class="st60" cx="910.2" cy="69.4" r="12.5"/>
	</g>
	<g>
		<circle class="st61" cx="910.2" cy="69.4" r="6.8"/>
	</g>
	<g>
		<circle class="st60" cx="1061.9" cy="16.9" r="12.5"/>
	</g>
	<g>
		<circle class="st61" cx="1061.9" cy="16.9" r="6.8"/>
	</g>
	<g>
		<circle class="st60" cx="1007.1" cy="80.8" r="12.5"/>
	</g>
	<g>
		<circle class="st61" cx="1007.1" cy="80.8" r="6.8"/>
	</g>
	<g>
		<circle class="st60" cx="701.4" cy="291.8" r="12.5"/>
	</g>
	<g>
		<circle class="st61" cx="701.4" cy="291.8" r="6.8"/>
	</g>
	<g>
		<circle class="st60" cx="477.8" cy="223.4" r="12.5"/>
	</g>
	<g>
		<circle class="st61" cx="477.8" cy="223.4" r="6.8"/>
	</g>
	<g>
		<circle class="st60" cx="586.2" cy="190.3" r="12.5"/>
	</g>
	<g>
		<circle class="st61" cx="586.2" cy="190.3" r="6.8"/>
	</g>
	<g>
		<circle class="st60" cx="363.7" cy="189.2" r="12.5"/>
	</g>
	<g>
		<circle class="st61" cx="363.7" cy="189.2" r="6.8"/>
	</g>
	<g>
		<circle class="st60" cx="55.7" cy="254.2" r="12.5"/>
	</g>
	<g>
		<circle class="st61" cx="55.7" cy="254.2" r="6.8"/>
	</g>
	<g>
		<circle class="st60" cx="483.5" cy="432.2" r="12.5"/>
	</g>
	<g>
		<circle class="st61" cx="483.5" cy="432.2" r="6.8"/>
	</g>
	<g>
		<circle class="st60" cx="699.1" cy="493.8" r="12.5"/>
	</g>
	<g>
		<circle class="st60" cx="870.2" cy="496" r="12.5"/>
	</g>
	<g>
		<circle class="st60" cx="1028.8" cy="742.4" r="12.5"/>
	</g>
	<g>
		<circle class="st60" cx="869.1" cy="782.4" r="12.5"/>
	</g>
	<g>
		<circle class="st60" cx="356.9" cy="713.9" r="12.5"/>
	</g>
	<g>
		<circle class="st60" cx="164.1" cy="849.7" r="12.5"/>
	</g>
	<g>
		<circle class="st60" cx="996.9" cy="1043.6" r="12.5"/>
	</g>
	<g>
		<circle class="st61" cx="870.2" cy="496" r="6.8"/>
	</g>
	<g>
		<circle class="st61" cx="1028.8" cy="742.4" r="6.8"/>
	</g>
	<g>
		<circle class="st61" cx="869.1" cy="782.4" r="6.8"/>
	</g>
	<g>
		<circle class="st61" cx="699.1" cy="493.8" r="6.8"/>
	</g>
	<g>
		<circle class="st61" cx="164.1" cy="849.7" r="6.8"/>
	</g>
	<g>
		<circle class="st61" cx="356.9" cy="713.9" r="6.8"/>
	</g>
	<g>
		<circle class="st61" cx="996.9" cy="1043.6" r="6.8"/>
	</g>
	<g>
		<circle class="st60" cx="857.7" cy="996.8" r="20.5"/>
	</g>
	<g>
		<circle class="st61" cx="857.7" cy="996.8" r="11.4"/>
	</g>
	<g>
		<circle class="st60" cx="670.6" cy="1008.2" r="20.5"/>
	</g>
	<g>
		<circle class="st61" cx="670.6" cy="1008.2" r="11.4"/>
	</g>
	<g>
		<circle class="st60" cx="561.1" cy="826.9" r="20.5"/>
	</g>
	<g>
		<circle class="st61" cx="561.1" cy="826.9" r="11.4"/>
	</g>
	<g>
		<circle class="st60" cx="935.3" cy="695.7" r="20.5"/>
	</g>
	<g>
		<circle class="st61" cx="935.3" cy="695.7" r="11.4"/>
	</g>
	<g>
		<circle class="st60" cx="701.4" cy="601" r="20.5"/>
	</g>
	<g>
		<circle class="st61" cx="701.4" cy="601" r="11.4"/>
	</g>
	<g>
		<circle class="st60" cx="476.7" cy="632.9" r="20.5"/>
	</g>
	<g>
		<circle class="st61" cx="476.7" cy="632.9" r="11.4"/>
	</g>
	<g>
		<circle class="st60" cx="226.8" cy="559.9" r="20.5"/>
	</g>
	<g>
		<circle class="st61" cx="226.8" cy="559.9" r="11.4"/>
	</g>
	<g>
		<circle class="st60" cx="258.8" cy="806.3" r="20.5"/>
	</g>
	<g>
		<circle class="st61" cx="258.8" cy="806.3" r="11.4"/>
	</g>
	<g>
		<circle class="st60" cx="383.1" cy="930.7" r="20.5"/>
	</g>
	<g>
		<circle class="st61" cx="383.1" cy="930.7" r="11.4"/>
	</g>
	<g>
		<circle class="st60" cx="215.4" cy="958" r="20.5"/>
	</g>
	<g>
		<circle class="st61" cx="215.4" cy="958" r="11.4"/>
	</g>
	<g>
		<circle class="st60" cx="69.4" cy="794.9" r="20.5"/>
	</g>
	<g>
		<circle class="st61" cx="69.4" cy="794.9" r="11.4"/>
	</g>
	<g>
		<circle class="st60" cx="69.4" cy="1028.8" r="20.5"/>
	</g>
	<g>
		<circle class="st61" cx="69.4" cy="1028.8" r="11.4"/>
	</g>
	<g>
		<circle class="st60" cx="967.2" cy="601" r="20.5"/>
	</g>
	<g>
		<circle class="st61" cx="967.2" cy="601" r="11.4"/>
	</g>
	<g>
		<circle class="st60" cx="816.6" cy="407.1" r="20.5"/>
	</g>
	<g>
		<circle class="st61" cx="816.6" cy="407.1" r="11.4"/>
	</g>
	<g>
		<circle class="st60" cx="1008.3" cy="366" r="20.5"/>
	</g>
	<g>
		<circle class="st61" cx="1008.3" cy="366" r="11.4"/>
	</g>
	<g>
		<circle class="st60" cx="767.6" cy="209.7" r="20.5"/>
	</g>
	<g>
		<circle class="st61" cx="767.6" cy="209.7" r="11.4"/>
	</g>
	<g>
		<circle class="st60" cx="581.6" cy="306.7" r="20.5"/>
	</g>
	<g>
		<circle class="st61" cx="581.6" cy="306.7" r="11.4"/>
	</g>
	<g>
		<circle class="st60" cx="476.7" cy="136.7" r="20.5"/>
	</g>
	<g>
		<circle class="st61" cx="476.7" cy="136.7" r="11.4"/>
	</g>
	<g>
		<circle class="st60" cx="394.5" cy="286.1" r="20.5"/>
	</g>
	<g>
		<circle class="st61" cx="394.5" cy="286.1" r="11.4"/>
	</g>
	<g>
		<circle class="st60" cx="258.8" cy="159.5" r="20.5"/>
	</g>
	<g>
		<circle class="st61" cx="258.8" cy="159.5" r="11.4"/>
	</g>
	<g>
		<circle class="st60" cx="189.2" cy="315.8" r="20.5"/>
	</g>
	<g>
		<circle class="st61" cx="189.2" cy="315.8" r="11.4"/>
	</g>
	<g>
		<circle class="st60" cx="51.2" cy="159.5" r="20.5"/>
	</g>
	<g>
		<circle class="st61" cx="51.2" cy="159.5" r="11.4"/>
	</g>
	<g>
		<circle class="st60" cx="30.6" cy="473.2" r="20.5"/>
	</g>
	<g>
		<circle class="st61" cx="30.6" cy="473.2" r="11.4"/>
	</g>
	<g>
		<circle class="st60" cx="342.1" cy="464.1" r="20.5"/>
	</g>
	<g>
		<circle class="st61" cx="342.1" cy="464.1" r="11.4"/>
	</g>
	<g>
		<circle class="st60" cx="561.1" cy="497.2" r="20.5"/>
	</g>
	<g>
		<circle class="st61" cx="561.1" cy="497.2" r="11.4"/>
	</g>
	<g>
		<circle class="st60" cx="935.3" cy="177.8" r="20.5"/>
	</g>
	<g>
		<circle class="st61" cx="935.3" cy="177.8" r="11.4"/>
	</g>
	<g>
		<circle class="st60" cx="650.1" cy="69.4" r="20.5"/>
	</g>
	<g>
		<circle class="st61" cx="650.1" cy="69.4" r="11.4"/>
	</g>
	<g>
		<circle class="st60" cx="157.3" cy="37.5" r="20.5"/>
	</g>
	<g>
		<circle class="st61" cx="157.3" cy="37.5" r="11.4"/>
	</g>
	<g>
		<circle class="st60" cx="1087" cy="157.2" r="20.5"/>
	</g>
	<g>
		<circle class="st60" cx="1075.6" cy="867.9" r="20.5"/>
	</g>
	<g>
		<circle class="st61" cx="1075.6" cy="867.9" r="11.4"/>
	</g>
	<g>
		<circle class="st60" cx="758.4" cy="763" r="20.5"/>
	</g>
	<g>
		<circle class="st61" cx="758.4" cy="763" r="11.4"/>
	</g>
</g>
<linearGradient id="SVGID_60_" gradientUnits="userSpaceOnUse" x1="474.3454" y1="680.639" x2="474.3454" y2="176.627" gradientTransform="matrix(6.123234e-17 -1 -1 -6.123234e-17 579.506 1141.8184)">
	<stop  offset="0" style="stop-color:#FFFFFF"/>
	<stop  offset="1" style="stop-color:#D9D9D9;stop-opacity:0"/>
</linearGradient>
<path class="st62" d="M-101.1,667.5L-101.1,667.5c0-3,2.5-5.5,5.5-5.5h493.1c3,0,5.5,2.5,5.5,5.5l0,0c0,3-2.5,5.5-5.5,5.5H-95.7
	C-98.7,673-101.1,670.5-101.1,667.5z"/>
<linearGradient id="SVGID_61_" gradientUnits="userSpaceOnUse" x1="1175.1694" y1="254.6701" x2="1175.1694" y2="-249.3418" gradientTransform="matrix(6.123234e-17 -1 -1 -6.123234e-17 854.3611 2268.6113)">
	<stop  offset="0" style="stop-color:#FFFFFF"/>
	<stop  offset="1" style="stop-color:#D9D9D9;stop-opacity:0"/>
</linearGradient>
<path class="st63" d="M599.7,1093.4L599.7,1093.4c0-3,2.5-5.5,5.5-5.5h493.1c3,0,5.5,2.5,5.5,5.5l0,0c0,3-2.5,5.5-5.5,5.5H605.2
	C602.1,1098.9,599.7,1096.5,599.7,1093.4z"/>
<linearGradient id="SVGID_62_" gradientUnits="userSpaceOnUse" x1="721.0154" y1="946.4101" x2="721.0154" y2="442.3981" gradientTransform="matrix(6.123234e-17 -1 -1 -6.123234e-17 1091.947 1122.7173)">
	<stop  offset="0" style="stop-color:#FFFFFF"/>
	<stop  offset="1" style="stop-color:#D9D9D9;stop-opacity:0"/>
</linearGradient>
<path class="st64" d="M145.5,401.7L145.5,401.7c0-3,2.5-5.5,5.5-5.5h493.1c3,0,5.5,2.5,5.5,5.5l0,0c0,3-2.5,5.5-5.5,5.5H151
	C148,407.2,145.5,404.7,145.5,401.7z"/>
<linearGradient id="SVGID_63_" gradientUnits="userSpaceOnUse" x1="849.3124" y1="403.707" x2="849.3124" y2="-100.305" gradientTransform="matrix(6.123234e-17 -1 -1 -6.123234e-17 677.5411 1793.7174)">
	<stop  offset="0" style="stop-color:#FFFFFF"/>
	<stop  offset="1" style="stop-color:#D9D9D9;stop-opacity:0"/>
</linearGradient>
<path class="st65" d="M273.8,944.4L273.8,944.4c0-3,2.5-5.5,5.5-5.5h493.1c3,0,5.5,2.5,5.5,5.5l0,0c0,3-2.5,5.5-5.5,5.5H279.3
	C276.3,949.9,273.8,947.4,273.8,944.4z"/>
<linearGradient id="SVGID_64_" gradientUnits="userSpaceOnUse" x1="952.0084" y1="1299.599" x2="952.0084" y2="795.587" gradientTransform="matrix(6.123234e-17 -1 -1 -6.123234e-17 1676.129 1000.5214)">
	<stop  offset="0" style="stop-color:#FFFFFF"/>
	<stop  offset="1" style="stop-color:#D9D9D9;stop-opacity:0"/>
</linearGradient>
<path class="st66" d="M376.5,48.5L376.5,48.5c0-3,2.5-5.5,5.5-5.5h493.1c3,0,5.5,2.5,5.5,5.5l0,0c0,3-2.5,5.5-5.5,5.5H382
	C379,54,376.5,51.5,376.5,48.5z"/>
<linearGradient id="SVGID_65_" gradientUnits="userSpaceOnUse" x1="1111.2076" y1="1102.0961" x2="1111.2076" y2="414.918" gradientTransform="matrix(6.123234e-17 -1 -1 -6.123234e-17 1637.917 1357.3153)">
	<stop  offset="0" style="stop-color:#FFFFFF"/>
	<stop  offset="1" style="stop-color:#D9D9D9;stop-opacity:0"/>
</linearGradient>
<path class="st67" d="M535.8,246.1L535.8,246.1c0-3,2.4-5.4,5.4-5.4h676.4c3,0,5.4,2.4,5.4,5.4l0,0c0,3-2.4,5.4-5.4,5.4H541.2
	C538.2,251.5,535.8,249.1,535.8,246.1z"/>
<linearGradient id="SVGID_66_" gradientUnits="userSpaceOnUse" x1="380.9365" y1="819.683" x2="380.9365" y2="139.43" gradientTransform="matrix(6.123234e-17 -1 -1 -6.123234e-17 625.2328 909.4571)">
	<stop  offset="0" style="stop-color:#FFFFFF"/>
	<stop  offset="1" style="stop-color:#D9D9D9;stop-opacity:0"/>
</linearGradient>
<path class="st68" d="M-194.5,528.5L-194.5,528.5c0-3,2.4-5.4,5.4-5.4h669.5c3,0,5.4,2.4,5.4,5.4v0c0,3-2.4,5.4-5.4,5.4h-669.5
	C-192,533.9-194.5,531.5-194.5,528.5z"/>
<linearGradient id="SVGID_67_" gradientUnits="userSpaceOnUse" x1="850.3416" y1="567.282" x2="850.3416" y2="-299.194" gradientTransform="matrix(6.123234e-17 -1 -1 -6.123234e-17 842.2371 1631.2633)">
	<stop  offset="0" style="stop-color:#FFFFFF"/>
	<stop  offset="1" style="stop-color:#D9D9D9;stop-opacity:0"/>
</linearGradient>
<path class="st69" d="M275,780.9L275,780.9c0-3,2.4-5.4,5.4-5.4H1136c3,0,5.4,2.4,5.4,5.4l0,0c0,3-2.4,5.4-5.4,5.4H280.3
	C277.4,786.3,275,783.9,275,780.9z"/>
<linearGradient id="SVGID_68_" gradientUnits="userSpaceOnUse" x1="1130.4467" y1="800.4451" x2="1130.4467" y2="149.4342" gradientTransform="matrix(6.123234e-17 -1 -1 -6.123234e-17 1355.5051 1678.2053)">
	<stop  offset="0" style="stop-color:#FFFFFF"/>
	<stop  offset="1" style="stop-color:#D9D9D9;stop-opacity:0"/>
</linearGradient>
<path class="st70" d="M555.1,547.8L555.1,547.8c0-3,2.4-5.4,5.4-5.4h640.2c3,0,5.4,2.4,5.4,5.4l0,0c0,3-2.4,5.4-5.4,5.4H560.4
	C557.5,553.1,555.1,550.7,555.1,547.8z"/>
<linearGradient id="SVGID_69_" gradientUnits="userSpaceOnUse" x1="1478.3284" y1="365.1801" x2="1478.3284" y2="102.618" gradientTransform="matrix(6.123234e-17 -1 -1 -6.123234e-17 1268.03 2461.2603)">
	<stop  offset="0" style="stop-color:#FFFFFF"/>
	<stop  offset="1" style="stop-color:#D9D9D9;stop-opacity:0"/>
</linearGradient>
<path class="st71" d="M902.8,982.9L902.8,982.9c0-3,2.5-5.5,5.5-5.5h251.6c3,0,5.5,2.5,5.5,5.5l0,0c0,3-2.5,5.5-5.5,5.5H908.3
	C905.3,988.4,902.8,986,902.8,982.9z"/>
<linearGradient id="SVGID_70_" gradientUnits="userSpaceOnUse" x1="655.1994" y1="1371.7832" x2="655.1994" y2="1109.2213" gradientTransform="matrix(6.123234e-17 -1 -1 -6.123234e-17 1451.5043 631.5281)">
	<stop  offset="0" style="stop-color:#FFFFFF"/>
	<stop  offset="1" style="stop-color:#D9D9D9;stop-opacity:0"/>
</linearGradient>
<path class="st72" d="M79.7-23.7L79.7-23.7c0-3,2.5-5.5,5.5-5.5h251.6c3,0,5.5,2.5,5.5,5.5l0,0c0,3-2.5,5.5-5.5,5.5H85.2
	C82.2-18.2,79.7-20.6,79.7-23.7z"/>
<linearGradient id="SVGID_71_" gradientUnits="userSpaceOnUse" x1="555.6166" y1="457.241" x2="555.6166" y2="-313.815" gradientTransform="matrix(6.123234e-17 -1 -1 -6.123234e-17 437.471 1446.5793)">
	<stop  offset="0" style="stop-color:#FFFFFF"/>
	<stop  offset="1" style="stop-color:#D9D9D9;stop-opacity:0"/>
</linearGradient>
<path class="st73" d="M-19.8,891L-19.8,891c0-3,2.4-5.4,5.4-5.4h760.3c3,0,5.4,2.4,5.4,5.4l0,0c0,3-2.4,5.4-5.4,5.4H-14.4
	C-17.4,896.3-19.8,893.9-19.8,891z"/>
<linearGradient id="SVGID_72_" gradientUnits="userSpaceOnUse" x1="431.3398" y1="1011.2931" x2="431.3398" y2="331.0401" gradientTransform="matrix(6.123234e-17 -1 -1 -6.123234e-17 866.8615 767.8657)">
	<stop  offset="0" style="stop-color:#FFFFFF"/>
	<stop  offset="1" style="stop-color:#D9D9D9;stop-opacity:0"/>
</linearGradient>
<path class="st74" d="M-144.4,336.5L-144.4,336.5c0-3.2,2.6-5.8,5.8-5.8H530c3.2,0,5.8,2.6,5.8,5.8l0,0c0,3.2-2.6,5.8-5.8,5.8
	h-668.7C-141.8,342.3-144.4,339.7-144.4,336.5z"/>
<linearGradient id="SVGID_73_" gradientUnits="userSpaceOnUse" x1="1212.7836" y1="650.3901" x2="1212.7836" y2="146.3571" gradientTransform="matrix(6.123234e-17 -1 -1 -6.123234e-17 1287.7871 1910.5973)">
	<stop  offset="0" style="stop-color:#FFFFFF"/>
	<stop  offset="1" style="stop-color:#D9D9D9;stop-opacity:0"/>
</linearGradient>
<path class="st75" d="M637.4,697.8L637.4,697.8c0-3,2.4-5.4,5.4-5.4H1136c3,0,5.4,2.4,5.4,5.4l0,0c0,3-2.4,5.4-5.4,5.4H642.8
	C639.8,703.2,637.4,700.8,637.4,697.8z"/>
<linearGradient id="SVGID_74_" gradientUnits="userSpaceOnUse" x1="596.4016" y1="271.0201" x2="596.4016" y2="-193.7679" gradientTransform="matrix(6.123234e-17 -1 -1 -6.123234e-17 292.0351 1673.5853)">
	<stop  offset="0" style="stop-color:#FFFFFF"/>
	<stop  offset="1" style="stop-color:#D9D9D9;stop-opacity:0"/>
</linearGradient>
<path class="st76" d="M21,1077.2L21,1077.2c0-3,2.4-5.4,5.4-5.4h454c3,0,5.4,2.4,5.4,5.4l0,0c0,3-2.4,5.4-5.4,5.4h-454
	C23.4,1082.6,21,1080.2,21,1077.2z"/>
<linearGradient id="SVGID_75_" gradientUnits="userSpaceOnUse" x1="596.4016" y1="1112.869" x2="596.4016" y2="708.873" gradientTransform="matrix(6.123234e-17 -1 -1 -6.123234e-17 1133.884 831.7363)">
	<stop  offset="0" style="stop-color:#FFFFFF"/>
	<stop  offset="1" style="stop-color:#D9D9D9;stop-opacity:0"/>
</linearGradient>
<path class="st77" d="M21,235.3L21,235.3c0-3,2.4-5.4,5.4-5.4h393.2c3,0,5.4,2.4,5.4,5.4v0c0,3-2.4,5.4-5.4,5.4H26.4
	C23.4,240.7,21,238.3,21,235.3z"/>
<linearGradient id="SVGID_76_" gradientUnits="userSpaceOnUse" x1="1326.5674" y1="951.2631" x2="1326.5674" y2="688.701" gradientTransform="matrix(6.123234e-17 -1 -1 -6.123234e-17 1702.3521 1723.4163)">
	<stop  offset="0" style="stop-color:#FFFFFF"/>
	<stop  offset="1" style="stop-color:#D9D9D9;stop-opacity:0"/>
</linearGradient>
<path class="st78" d="M751.1,396.8L751.1,396.8c0-3,2.5-5.5,5.5-5.5h251.6c3,0,5.5,2.5,5.5,5.5l0,0c0,3-2.5,5.5-5.5,5.5H756.6
	C753.5,402.3,751.1,399.9,751.1,396.8z"/>
<linearGradient id="SVGID_77_" gradientUnits="userSpaceOnUse" x1="349.3867" y1="1215.984" x2="349.3867" y2="240.237" gradientTransform="matrix(6.123234e-17 -1 -1 -6.123234e-17 989.9841 481.6063)">
	<stop  offset="0" style="stop-color:#FFFFFF"/>
	<stop  offset="1" style="stop-color:#D9D9D9;stop-opacity:0"/>
</linearGradient>
<path class="st79" d="M-226,132.2L-226,132.2c0-3,2.4-5.4,5.4-5.4h965c3,0,5.4,2.4,5.4,5.4v0c0,3-2.4,5.4-5.4,5.4h-965
	C-223.6,137.6-226,135.2-226,132.2z"/>
</svg>
