<svg width="925" height="629" viewBox="0 0 925 629" fill="none" xmlns="http://www.w3.org/2000/svg">
<rect x="5" y="5" width="915" height="619" rx="30" fill="#DCDCDC" stroke="url(#paint0_radial_474_32)" stroke-width="10"/>
<path d="M49 498H520V575H74C60.1929 575 49 563.807 49 550V498Z" fill="#F3F3F3"/>
<rect x="49" y="328" width="471" height="77" fill="#F3F3F3"/>
<rect x="49" y="158" width="471" height="77" fill="#F3F3F3"/>
<rect x="49" y="413" width="471" height="77" fill="#F3F3F3"/>
<rect x="49" y="243" width="471" height="77" fill="#F3F3F3"/>
<path d="M49 98C49 84.1929 60.1929 73 74 73H520V150H49V98Z" fill="#F3F3F3"/>
<path d="M342 324L520 73L520 575L342 324Z" fill="#DCDCDC"/>
<path d="M372 324L457.5 198.5L543 73L543 575L372 324Z" fill="#F3F3F3"/>
<path d="M543 73H851C864.807 73 876 84.1929 876 98V550C876 563.807 864.807 575 851 575H543V73Z" fill="#F3F3F3"/>
<defs>
<radialGradient id="paint0_radial_474_32" cx="0" cy="0" r="1" gradientUnits="userSpaceOnUse" gradientTransform="translate(462.5 314.5) rotate(180) scale(462.5 8244.43)">
<stop/>
<stop offset="1" stop-opacity="0"/>
</radialGradient>
</defs>
</svg>
