<svg width="780" height="400" viewBox="0 0 780 400" fill="none" xmlns="http://www.w3.org/2000/svg">
<rect x="5" y="5" width="770" height="390" rx="30" fill="#DCDCDC" stroke="url(#paint0_radial_415_30)" stroke-width="10"/>
<mask id="mask0_415_30" style="mask-type:alpha" maskUnits="userSpaceOnUse" x="0" y="0" width="780" height="175">
<path d="M0 35C0 15.67 15.67 0 35 0H745C764.33 0 780 15.67 780 35V175H0V35Z" fill="#F3F3F3"/>
</mask>
<g mask="url(#mask0_415_30)">
<path d="M0 -119C0 -138.33 15.67 -154 35 -154H745C764.33 -154 780 -138.33 780 -119V365H0V-119Z" fill="#F3F3F3"/>
<rect x="-56" y="-272" width="1026" height="840.889" fill="#F3F3F3"/>
</g>
<path d="M279 213L279 333" stroke="url(#paint1_radial_415_30)" stroke-width="2" stroke-linecap="round"/>
<path d="M500 213L500 333" stroke="url(#paint2_radial_415_30)" stroke-width="2" stroke-linecap="round"/>
<path d="M505 38L505 158" stroke="url(#paint3_radial_415_30)" stroke-width="2" stroke-linecap="round"/>
<path d="M279 38L279 158" stroke="url(#paint4_radial_415_30)" stroke-width="2" stroke-linecap="round"/>
<rect x="5" y="5" width="770" height="390" rx="30" stroke="url(#paint5_radial_415_30)" stroke-width="10"/>
<defs>
<radialGradient id="paint0_radial_415_30" cx="0" cy="0" r="1" gradientUnits="userSpaceOnUse" gradientTransform="translate(390 200) rotate(180) scale(390 5242.88)">
<stop/>
<stop offset="1" stop-opacity="0"/>
</radialGradient>
<radialGradient id="paint1_radial_415_30" cx="0" cy="0" r="1" gradientUnits="userSpaceOnUse" gradientTransform="translate(278.5 273) rotate(-180) scale(0.5 60)">
<stop/>
<stop offset="1" stop-opacity="0"/>
</radialGradient>
<radialGradient id="paint2_radial_415_30" cx="0" cy="0" r="1" gradientUnits="userSpaceOnUse" gradientTransform="translate(499.5 273) rotate(-180) scale(0.5 60)">
<stop/>
<stop offset="1" stop-opacity="0"/>
</radialGradient>
<radialGradient id="paint3_radial_415_30" cx="0" cy="0" r="1" gradientUnits="userSpaceOnUse" gradientTransform="translate(504.5 98) rotate(-180) scale(0.5 60)">
<stop/>
<stop offset="1" stop-opacity="0"/>
</radialGradient>
<radialGradient id="paint4_radial_415_30" cx="0" cy="0" r="1" gradientUnits="userSpaceOnUse" gradientTransform="translate(278.5 98) rotate(-180) scale(0.5 60)">
<stop/>
<stop offset="1" stop-opacity="0"/>
</radialGradient>
<radialGradient id="paint5_radial_415_30" cx="0" cy="0" r="1" gradientUnits="userSpaceOnUse" gradientTransform="translate(390 200) rotate(180) scale(390 5242.88)">
<stop/>
<stop offset="1" stop-opacity="0"/>
</radialGradient>
</defs>
</svg>
