<svg xmlns="http://www.w3.org/2000/svg" fill="none" viewBox="30 30 420 480">
<path d="M410 105L410 435C410 451.569 396.569 465 380 465L100 465C83.4315 465 70 451.569 70 435L70 105C70 88.4314 83.4315 75 100 75L380 75C396.569 75 410 88.4315 410 105Z" fill="#292929" stroke="url(#paint0_radial_386_10)" stroke-width="10"/>
<path d="M394 264L86 264" stroke="url(#paint1_radial_386_10)" stroke-width="2" stroke-linecap="round"/>
<g style="mix-blend-mode:hard-light" filter="url(#filter0_f_386_10)">
<ellipse cx="240" cy="270" rx="240" ry="210" transform="rotate(90 240 270)" fill="#33E9C6" fill-opacity="0.1"/>
</g>
<g style="mix-blend-mode:hard-light" filter="url(#filter1_f_386_10)">
<path d="M380 73.25C397.535 73.25 411.75 87.465 411.75 105L411.75 435C411.75 452.535 397.535 466.75 380 466.75L100 466.75C82.465 466.75 68.25 452.535 68.25 435L68.25 105C68.25 87.4649 82.465 73.25 100 73.25L380 73.25Z" stroke="#00A8A8" stroke-width="6.5"/>
</g>
<g style="mix-blend-mode:hard-light" filter="url(#filter2_f_386_10)">
<path d="M380 74.25C396.983 74.25 410.75 88.0172 410.75 105L410.75 435C410.75 451.983 396.983 465.75 380 465.75L100 465.75C83.0173 465.75 69.25 451.983 69.25 435L69.25 105C69.25 88.0172 83.0173 74.25 100 74.25L380 74.25Z" stroke="#00A8A8" stroke-width="8.5"/>
</g>
<g style="mix-blend-mode:hard-light" filter="url(#filter3_ddi_386_10)">
<path d="M380 73.25C397.535 73.25 411.75 87.465 411.75 105L411.75 435C411.75 452.535 397.535 466.75 380 466.75L100 466.75C82.465 466.75 68.25 452.535 68.25 435L68.25 105C68.25 87.4649 82.465 73.25 100 73.25L380 73.25Z" stroke="#33E9C6" stroke-opacity="0.2" stroke-width="6.5"/>
</g>
<g filter="url(#filter4_f_386_10)">
<path d="M380 72C398.225 72 413 86.7746 413 105L413 435C413 453.225 398.225 468 380 468L100 468C81.7746 468 67 453.225 67 435L67 105C67 86.7746 81.7747 72 100 72L380 72Z" stroke="#33E9E9" stroke-width="4"/>
</g>
<g filter="url(#filter5_f_386_10)">
<path d="M380 71C398.778 71 414 86.2223 414 105L414 435C414 453.778 398.778 469 380 469L100 469C81.2223 469 66 453.778 66 435L66 105C66 86.2223 81.2224 71 100 71L380 71Z" stroke="white" stroke-width="2"/>
</g>
<defs>
<filter id="filter0_f_386_10" x="0" y="0" width="480" height="540" filterUnits="userSpaceOnUse" color-interpolation-filters="sRGB">
<feFlood flood-opacity="0" result="BackgroundImageFix"/>
<feBlend mode="normal" in="SourceGraphic" in2="BackgroundImageFix" result="shape"/>
<feGaussianBlur stdDeviation="15" result="effect1_foregroundBlur_386_10"/>
</filter>
<filter id="filter1_f_386_10" x="35" y="40" width="410" height="460" filterUnits="userSpaceOnUse" color-interpolation-filters="sRGB">
<feFlood flood-opacity="0" result="BackgroundImageFix"/>
<feBlend mode="normal" in="SourceGraphic" in2="BackgroundImageFix" result="shape"/>
<feGaussianBlur stdDeviation="15" result="effect1_foregroundBlur_386_10"/>
</filter>
<filter id="filter2_f_386_10" x="55" y="60" width="370" height="420" filterUnits="userSpaceOnUse" color-interpolation-filters="sRGB">
<feFlood flood-opacity="0" result="BackgroundImageFix"/>
<feBlend mode="normal" in="SourceGraphic" in2="BackgroundImageFix" result="shape"/>
<feGaussianBlur stdDeviation="5" result="effect1_foregroundBlur_386_10"/>
</filter>
<filter id="filter3_ddi_386_10" x="52" y="67" width="376" height="426" filterUnits="userSpaceOnUse" color-interpolation-filters="sRGB">
<feFlood flood-opacity="0" result="BackgroundImageFix"/>
<feColorMatrix in="SourceAlpha" type="matrix" values="0 0 0 0 0 0 0 0 0 0 0 0 0 0 0 0 0 0 127 0" result="hardAlpha"/>
<feOffset dy="6.5"/>
<feGaussianBlur stdDeviation="2.5"/>
<feColorMatrix type="matrix" values="0 0 0 0 0 0 0 0 0 0.3 0 0 0 0 0.275 0 0 0 0.7 0"/>
<feBlend mode="multiply" in2="BackgroundImageFix" result="effect1_dropShadow_386_10"/>
<feColorMatrix in="SourceAlpha" type="matrix" values="0 0 0 0 0 0 0 0 0 0 0 0 0 0 0 0 0 0 127 0" result="hardAlpha"/>
<feOffset dy="10"/>
<feGaussianBlur stdDeviation="6.5"/>
<feColorMatrix type="matrix" values="0 0 0 0 0 0 0 0 0 0.6 0 0 0 0 0.6 0 0 0 1 0"/>
<feBlend mode="color-dodge" in2="effect1_dropShadow_386_10" result="effect2_dropShadow_386_10"/>
<feBlend mode="normal" in="SourceGraphic" in2="effect2_dropShadow_386_10" result="shape"/>
<feColorMatrix in="SourceAlpha" type="matrix" values="0 0 0 0 0 0 0 0 0 0 0 0 0 0 0 0 0 0 127 0" result="hardAlpha"/>
<feOffset dx="-0.65" dy="1.3"/>
<feGaussianBlur stdDeviation="0.325"/>
<feComposite in2="hardAlpha" operator="arithmetic" k2="-1" k3="1"/>
<feColorMatrix type="matrix" values="0 0 0 0 1 0 0 0 0 1 0 0 0 0 1 0 0 0 0.5 0"/>
<feBlend mode="normal" in2="shape" result="effect3_innerShadow_386_10"/>
</filter>
<filter id="filter4_f_386_10" x="64" y="69" width="352" height="402" filterUnits="userSpaceOnUse" color-interpolation-filters="sRGB">
<feFlood flood-opacity="0" result="BackgroundImageFix"/>
<feBlend mode="normal" in="SourceGraphic" in2="BackgroundImageFix" result="shape"/>
<feGaussianBlur stdDeviation="0.5" result="effect1_foregroundBlur_386_10"/>
</filter>
<filter id="filter5_f_386_10" x="64.3333" y="69.3333" width="351.333" height="401.333" filterUnits="userSpaceOnUse" color-interpolation-filters="sRGB">
<feFlood flood-opacity="0" result="BackgroundImageFix"/>
<feBlend mode="normal" in="SourceGraphic" in2="BackgroundImageFix" result="shape"/>
<feGaussianBlur stdDeviation="0.333333" result="effect1_foregroundBlur_386_10"/>
</filter>
<radialGradient id="paint0_radial_386_10" cx="0" cy="0" r="1" gradientUnits="userSpaceOnUse" gradientTransform="translate(240 270) rotate(-90) scale(200 4587.52)">
<stop stop-color="#00FF19"/>
<stop offset="1" stop-color="#00FF19" stop-opacity="0"/>
</radialGradient>
<radialGradient id="paint1_radial_386_10" cx="0" cy="0" r="1" gradientUnits="userSpaceOnUse" gradientTransform="translate(240 263.5) rotate(-90) scale(0.5 154)">
<stop stop-color="#00FF19"/>
<stop offset="1" stop-color="#00FF19" stop-opacity="0"/>
</radialGradient>
</defs>
</svg>