<?xml version="1.0" encoding="UTF-8" standalone="no"?>
<svg
   xmlns:dc="http://purl.org/dc/elements/1.1/"
   xmlns:cc="http://creativecommons.org/ns#"
   xmlns:rdf="http://www.w3.org/1999/02/22-rdf-syntax-ns#"
   xmlns:svg="http://www.w3.org/2000/svg"
   xmlns="http://www.w3.org/2000/svg"
   id="svg119404"
   version="1.1"
   viewBox="0 0 210 210"
   height="210mm"
   width="210mm">
  <defs
     id="defs119398">
    <linearGradient
       id="linearGradient24624"
       spreadMethod="pad"
       gradientTransform="matrix(-0.0032501,14.206757,14.206757,0.0032501,102.17969,1068.5894)"
       gradientUnits="userSpaceOnUse"
       y2="0"
       x2="1"
       y1="0"
       x1="0">
      <stop
         id="stop24618"
         offset="0"
         style="stop-opacity:1;stop-color:#faac00" />
      <stop
         id="stop24620"
         offset="0.690903"
         style="stop-opacity:1;stop-color:#faac00" />
      <stop
         id="stop24622"
         offset="1"
         style="stop-opacity:1;stop-color:#ffb715" />
    </linearGradient>
    <linearGradient
       id="linearGradient24602"
       spreadMethod="pad"
       gradientTransform="matrix(-0.2151031,-27.180923,-27.180923,0.2151031,102.271,1141.5005)"
       gradientUnits="userSpaceOnUse"
       y2="0"
       x2="1"
       y1="0"
       x1="0">
      <stop
         id="stop24596"
         offset="0"
         style="stop-opacity:1;stop-color:#ffffff" />
      <stop
         id="stop24598"
         offset="0.527267"
         style="stop-opacity:1;stop-color:#f9ef71" />
      <stop
         id="stop24600"
         offset="1"
         style="stop-opacity:1;stop-color:#f9ec2c" />
    </linearGradient>
    <radialGradient
       id="radialGradient24580"
       spreadMethod="pad"
       gradientTransform="matrix(35.056961,0,0,-30.588043,102.11084,1108.7642)"
       gradientUnits="userSpaceOnUse"
       r="1"
       cy="0"
       cx="0"
       fy="0"
       fx="0">
      <stop
         id="stop24572"
         offset="0"
         style="stop-opacity:1;stop-color:#f9ec2c" />
      <stop
         id="stop24574"
         offset="0.393936"
         style="stop-opacity:1;stop-color:#f9ec2c" />
      <stop
         id="stop24576"
         offset="0.690903"
         style="stop-opacity:1;stop-color:#ffe000" />
      <stop
         id="stop24578"
         offset="1"
         style="stop-opacity:1;stop-color:#ffb715" />
    </radialGradient>
    <radialGradient
       id="radialGradient24556"
       spreadMethod="pad"
       gradientTransform="matrix(34.829102,0,0,-34.829102,102.11133,1108.7642)"
       gradientUnits="userSpaceOnUse"
       r="1"
       cy="0"
       cx="0"
       fy="0"
       fx="0">
      <stop
         id="stop24552"
         offset="0"
         style="stop-opacity:1;stop-color:#faac00" />
      <stop
         id="stop24554"
         offset="1"
         style="stop-opacity:1;stop-color:#ffb715" />
    </radialGradient>
    <clipPath
       id="clipPath24426"
       clipPathUnits="userSpaceOnUse">
      <path
         id="path24424"
         d="M 0,1200 H 1250 V 0 H 0 Z" />
    </clipPath>
    <radialGradient
       id="radialGradient24580-7"
       spreadMethod="pad"
       gradientTransform="matrix(35.056961,0,0,-30.588043,102.11084,1108.7642)"
       gradientUnits="userSpaceOnUse"
       r="1"
       cy="0"
       cx="0"
       fy="0"
       fx="0">
      <stop
         id="stop24572-1"
         offset="0"
         style="stop-opacity:1;stop-color:#f9ec2c" />
      <stop
         id="stop24574-2"
         offset="0.393936"
         style="stop-opacity:1;stop-color:#f9ec2c" />
      <stop
         id="stop24576-4"
         offset="0.690903"
         style="stop-opacity:1;stop-color:#ffe000" />
      <stop
         id="stop24578-3"
         offset="1"
         style="stop-opacity:1;stop-color:#ffb715" />
    </radialGradient>
    <radialGradient
       id="radialGradient24556-0"
       spreadMethod="pad"
       gradientTransform="matrix(34.829102,0,0,-34.829102,102.11133,1108.7642)"
       gradientUnits="userSpaceOnUse"
       r="1"
       cy="0"
       cx="0"
       fy="0"
       fx="0">
      <stop
         id="stop24552-7"
         offset="0"
         style="stop-opacity:1;stop-color:#faac00" />
      <stop
         id="stop24554-1"
         offset="1"
         style="stop-opacity:1;stop-color:#ffb715" />
    </radialGradient>
    <clipPath
       id="clipPath24426-0"
       clipPathUnits="userSpaceOnUse">
      <path
         id="path24424-2"
         d="M 0,1200 H 1250 V 0 H 0 Z" />
    </clipPath>
  </defs>
  <metadata
     id="metadata119401">
    <rdf:RDF>
      <cc:Work
         rdf:about="">
        <dc:format>image/svg+xml</dc:format>
        <dc:type
           rdf:resource="http://purl.org/dc/dcmitype/StillImage" />
        <dc:title></dc:title>
      </cc:Work>
    </rdf:RDF>
  </metadata>
  <g
     transform="translate(0,-87)"
     id="layer1">
    <g
       transform="matrix(4.5407368,0,0,4.5407368,-671.5291,-1093.164)"
       id="g120052">
      <g
         transform="matrix(0.35277777,0,0,-0.35277777,134.82285,674.1626)"
         id="g24420">
        <g
           id="g24422"
           clip-path="url(#clipPath24426-0)">
          <g
             id="g24428"
             transform="translate(136.8818,1110.7402)">
            <path
               d="M 0,0 25.528,14.182 -3.66,13.697 c -0.59,1.173 -1.25,2.32 -1.982,3.433 L 9.371,42.166 -15.665,27.153 c -1.113,0.732 -2.259,1.392 -3.432,1.982 l 0.483,29.187 -14.18,-25.526 c -1.318,0.075 -2.637,0.075 -3.953,0 l -14.181,25.526 0.484,-29.187 c -1.173,-0.59 -2.32,-1.25 -3.432,-1.982 L -78.912,42.166 -63.9,17.13 c -0.732,-1.113 -1.391,-2.26 -1.982,-3.433 l -29.188,0.485 25.528,-14.18 c -0.075,-1.317 -0.075,-2.639 0,-3.954 l -25.528,-14.181 29.188,0.483 c 0.591,-1.172 1.25,-2.317 1.982,-3.432 l -15.012,-25.036 25.036,15.013 c 1.112,-0.732 2.259,-1.391 3.431,-1.981 l -0.482,-29.188 14.18,25.527 c 1.316,-0.075 2.636,-0.075 3.953,0 l 14.18,-25.527 -0.483,29.188 c 1.173,0.59 2.319,1.249 3.431,1.981 L 9.371,-46.118 -5.642,-21.082 c 0.732,1.115 1.392,2.26 1.982,3.432 L 25.528,-18.133 0,-3.953 C 0.075,-2.637 0.075,-1.317 0,0"
               style="fill:#ffb715;fill-opacity:1;fill-rule:nonzero;stroke:none"
               id="path24430" />
          </g>
          <g
             id="g24432"
             transform="translate(136.8618,1111.0381)">
            <path
               d="M 0,0 24.471,13.596 -3.508,13.132 c -0.664,1.353 -1.424,2.674 -2.281,3.947 l 14.391,24.001 -24,-14.392 c -1.273,0.858 -2.592,1.617 -3.947,2.281 l 0.463,27.98 -13.595,-24.47 c -1.514,0.1 -3.035,0.1 -4.549,-10e-4 l -13.594,24.471 0.464,-27.98 c -1.354,-0.664 -2.675,-1.423 -3.948,-2.281 l -24,14.392 14.392,-24.001 c -0.858,-1.273 -1.617,-2.594 -2.282,-3.947 L -93.974,13.596 -69.501,0 c -0.103,-1.513 -0.103,-3.034 0,-4.548 l -24.473,-13.594 27.98,0.462 c 0.665,-1.353 1.424,-2.673 2.282,-3.946 l -14.392,-24.002 24,14.393 c 1.273,-0.858 2.594,-1.618 3.948,-2.281 l -0.464,-27.98 13.595,24.471 c 1.515,-0.101 3.035,-0.101 4.548,10e-4 l 13.595,-24.472 -0.463,27.98 c 1.355,0.663 2.674,1.423 3.946,2.281 L 8.602,-45.628 -5.789,-21.626 c 0.857,1.273 1.617,2.593 2.281,3.946 L 24.471,-18.142 0,-4.548 C 0.103,-3.034 0.103,-1.513 0,0"
               style="fill:#febe10;fill-opacity:1;fill-rule:nonzero;stroke:none"
               id="path24434" />
          </g>
          <g
             id="g24436"
             transform="translate(136.8408,1111.3359)">
            <path
               d="M 0,0 23.416,13.009 -3.356,12.566 c -0.739,1.537 -1.597,3.029 -2.579,4.462 L 7.836,39.995 -15.13,26.223 c -1.433,0.983 -2.927,1.841 -4.463,2.579 l 0.443,26.773 -13.008,-23.417 c -1.712,0.13 -3.431,0.13 -5.144,0 l -13.008,23.417 0.443,-26.773 c -1.537,-0.738 -3.029,-1.596 -4.463,-2.577 l -22.965,13.77 13.771,-22.967 c -0.983,-1.433 -1.841,-2.925 -2.58,-4.462 L -92.875,13.009 -69.459,0 c -0.13,-1.711 -0.13,-3.432 0,-5.144 l -23.416,-13.008 26.771,0.444 c 0.739,-1.537 1.597,-3.029 2.58,-4.464 l -13.771,-22.966 22.965,13.771 c 1.434,-0.982 2.926,-1.841 4.463,-2.577 l -0.443,-26.774 13.008,23.415 c 1.713,-0.128 3.432,-0.128 5.144,0.002 l 13.008,-23.417 -0.443,26.774 c 1.536,0.736 3.029,1.595 4.463,2.577 L 7.836,-45.138 -5.935,-22.172 c 0.982,1.435 1.84,2.927 2.579,4.463 L 23.416,-18.152 0,-5.144 C 0.129,-3.432 0.13,-1.711 0,0"
               style="fill:#fdc40a;fill-opacity:1;fill-rule:nonzero;stroke:none"
               id="path24438" />
          </g>
          <g
             id="g24440"
             transform="translate(136.8208,1111.6348)">
            <path
               d="M 0,0 22.36,12.421 -3.206,11.998 c -0.811,1.719 -1.768,3.385 -2.877,4.98 l 13.15,21.929 -21.93,-13.15 c -1.593,1.107 -3.26,2.067 -4.978,2.878 L -19.418,54.2 -31.839,31.84 c -1.91,0.155 -3.831,0.155 -5.741,0 l -12.421,22.36 0.422,-25.565 c -1.717,-0.811 -3.383,-1.771 -4.978,-2.876 l -21.93,13.148 13.149,-21.929 c -1.107,-1.595 -2.065,-3.261 -2.877,-4.98 l -25.564,0.423 22.36,-12.42 c -0.157,-1.911 -0.157,-3.832 0,-5.743 l -22.36,-12.42 25.564,0.423 c 0.812,-1.717 1.77,-3.385 2.877,-4.979 l -13.149,-21.929 21.93,13.149 c 1.595,-1.106 3.261,-2.066 4.978,-2.877 l -0.422,-25.565 12.421,22.36 c 1.91,-0.156 3.831,-0.157 5.741,0 l 12.421,-22.36 -0.423,25.565 c 1.718,0.811 3.385,1.771 4.978,2.877 l 21.93,-13.149 -13.15,21.929 c 1.109,1.594 2.066,3.262 2.877,4.979 L 22.36,-18.162 0,-5.742 C 0.156,-3.831 0.156,-1.911 0,0"
               style="fill:#fccb05;fill-opacity:1;fill-rule:nonzero;stroke:none"
               id="path24442" />
          </g>
          <g
             id="g24444"
             transform="translate(136.7832,1111.999)">
            <path
               d="M 0,0 21.06,11.698 -3.017,11.3 c -0.886,1.946 -1.967,3.827 -3.242,5.61 L 6.126,37.564 -14.528,25.179 c -1.784,1.274 -3.664,2.355 -5.609,3.242 l 0.398,24.076 -11.699,-21.058 c -2.15,0.205 -4.318,0.205 -6.469,0 l -11.698,21.058 0.398,-24.076 c -1.945,-0.887 -3.826,-1.968 -5.609,-3.242 L -75.469,37.564 -63.085,16.91 c -1.275,-1.783 -2.356,-3.664 -3.243,-5.61 L -90.404,11.698 -69.345,0 c -0.206,-2.15 -0.206,-4.318 0,-6.469 l -21.059,-11.699 24.076,0.399 c 0.887,-1.947 1.968,-3.827 3.243,-5.611 l -12.384,-20.652 20.653,12.385 c 1.783,-1.275 3.664,-2.357 5.609,-3.244 l -0.398,-24.075 11.698,21.058 c 2.151,-0.204 4.319,-0.204 6.469,0 l 11.699,-21.058 -0.398,24.075 c 1.945,0.887 3.825,1.969 5.609,3.244 L 6.126,-44.032 -6.259,-23.38 c 1.275,1.784 2.356,3.664 3.242,5.611 L 21.06,-18.168 0,-6.47 C 0.207,-4.319 0.207,-2.15 0,0"
               style="fill:#fcd509;fill-opacity:1;fill-rule:nonzero;stroke:none"
               id="path24446" />
          </g>
          <g
             id="g24448"
             transform="translate(136.7485,1112.3643)">
            <path
               d="M 0,0 19.755,10.975 -2.83,10.602 c -0.963,2.172 -2.167,4.268 -3.608,6.24 l 11.621,19.377 -19.38,-11.62 c -1.972,1.442 -4.067,2.644 -6.239,3.61 l 0.373,22.585 -10.975,-19.756 c -2.392,0.252 -4.807,0.252 -7.201,0 l -10.973,19.756 0.373,-22.585 c -2.172,-0.966 -4.267,-2.168 -6.24,-3.61 l -19.378,11.62 11.62,-19.377 c -1.441,-1.972 -2.645,-4.068 -3.608,-6.24 L -89.031,10.975 -69.276,0 c -0.252,-2.393 -0.252,-4.806 0,-7.199 l -19.755,-10.975 22.586,0.373 c 0.963,-2.173 2.167,-4.266 3.608,-6.24 l -11.62,-19.377 19.378,11.619 c 1.973,-1.442 4.068,-2.644 6.24,-3.609 l -0.373,-22.586 10.975,19.756 c 2.392,-0.252 4.807,-0.252 7.199,0 l 10.975,-19.756 -0.373,22.586 c 2.172,0.965 4.267,2.167 6.239,3.609 l 19.38,-11.62 -11.621,19.378 c 1.441,1.974 2.645,4.067 3.608,6.24 L 19.755,-18.174 0,-7.199 C 0.253,-4.808 0.253,-2.393 0,0"
               style="fill:#fdde0d;fill-opacity:1;fill-rule:nonzero;stroke:none"
               id="path24450" />
          </g>
          <g
             id="g24452"
             transform="translate(136.7129,1112.7295)">
            <path
               d="M 0,0 18.454,10.251 -2.642,9.901 c -1.042,2.402 -2.366,4.708 -3.974,6.873 l 10.853,18.1 -18.101,-10.853 c -2.163,1.607 -4.47,2.933 -6.872,3.974 l 0.351,21.096 -10.251,-18.453 c -2.635,0.3 -5.297,0.3 -7.932,0 l -10.25,18.453 0.35,-21.096 c -2.402,-1.041 -4.709,-2.367 -6.872,-3.974 l -18.1,10.853 10.852,-18.1 c -1.607,-2.165 -2.933,-4.471 -3.973,-6.873 L -87.657,10.251 -69.205,0 c -0.298,-2.634 -0.298,-5.297 0,-7.93 l -18.452,-10.251 21.096,0.349 c 1.04,-2.4 2.366,-4.708 3.973,-6.872 l -10.852,-18.101 18.1,10.855 c 2.163,-1.609 4.47,-2.934 6.871,-3.975 l -0.349,-21.096 10.25,18.454 c 2.635,-0.3 5.297,-0.3 7.931,0 l 10.252,-18.454 -0.351,21.096 c 2.402,1.041 4.709,2.366 6.872,3.975 L 4.237,-42.805 -6.616,-24.704 c 1.608,2.165 2.932,4.472 3.974,6.872 L 18.454,-18.181 0,-7.93 C 0.299,-5.297 0.299,-2.634 0,0"
               style="fill:#fde811;fill-opacity:1;fill-rule:nonzero;stroke:none"
               id="path24454" />
          </g>
          <g
             id="g24456"
             transform="translate(89.1045,1060.2217)">
            <path
               d="m 0,0 7.83,14.097 c 1.688,-0.252 3.418,-0.385 5.176,-0.383 1.758,-0.002 3.487,0.131 5.177,0.383 L 26.013,0 25.747,16.117 c 3.255,1.28 6.27,3.039 8.963,5.186 L 48.541,13.008 40.247,26.84 c 2.147,2.691 3.905,5.707 5.185,8.963 l 16.116,-0.267 -14.096,7.83 c 0.253,1.69 0.384,3.417 0.384,5.177 0,1.759 -0.131,3.488 -0.384,5.176 l 14.096,7.83 -16.116,-0.267 c -1.28,3.256 -3.038,6.272 -5.185,8.963 L 48.541,84.077 34.71,75.782 c -2.693,2.149 -5.708,3.906 -8.963,5.187 l 0.266,16.114 -7.83,-14.095 c -1.688,0.252 -3.419,0.383 -5.177,0.383 -1.758,0 -3.488,-0.131 -5.176,-0.383 L 0,97.083 0.267,80.969 c -3.256,-1.281 -6.271,-3.038 -8.963,-5.187 l -13.832,8.295 8.294,-13.833 c -2.147,-2.69 -3.904,-5.706 -5.185,-8.962 l -16.115,0.267 14.095,-7.83 c -0.253,-1.689 -0.384,-3.417 -0.384,-5.176 0,-1.76 0.131,-3.487 0.384,-5.177 l -14.095,-7.83 16.115,0.267 c 1.281,-3.256 3.038,-6.272 5.185,-8.961 l -8.294,-13.834 13.832,8.295 c 2.692,-2.147 5.707,-3.906 8.963,-5.186 z"
               style="fill:#fccb05;fill-opacity:1;fill-rule:nonzero;stroke:none"
               id="path24458" />
          </g>
          <g
             id="g24460"
             transform="translate(89.3374,1061.0908)">
            <path
               d="m 0,0 7.368,13.265 c 1.76,-0.277 3.566,-0.422 5.405,-0.42 1.84,-0.002 3.644,0.143 5.405,0.42 L 25.548,0 25.296,15.166 c 3.414,1.313 6.565,3.15 9.36,5.412 l 13.018,-7.805 -7.806,13.018 c 2.262,2.795 4.1,5.945 5.413,9.358 l 15.167,-0.25 -13.265,7.37 c 0.275,1.761 0.421,3.566 0.421,5.405 0,1.839 -0.146,3.643 -0.421,5.406 l 13.265,7.367 -15.167,-0.25 c -1.313,3.413 -3.151,6.564 -5.413,9.359 l 7.806,13.017 -13.018,-7.806 c -2.795,2.263 -5.946,4.102 -9.36,5.415 l 0.252,15.166 -7.369,-13.265 c -1.761,0.276 -3.566,0.419 -5.406,0.419 -1.839,0 -3.645,-0.143 -5.405,-0.419 L 0,95.348 0.25,80.182 C -3.162,78.869 -6.314,77.03 -9.109,74.767 l -13.018,7.806 7.807,-13.017 c -2.263,-2.795 -4.101,-5.946 -5.413,-9.359 l -15.168,0.25 13.266,-7.368 c -0.277,-1.762 -0.421,-3.566 -0.421,-5.405 0,-1.839 0.144,-3.644 0.421,-5.405 l -13.266,-7.37 15.166,0.25 c 1.314,-3.413 3.152,-6.563 5.415,-9.358 l -7.807,-13.018 13.019,7.805 c 2.794,-2.262 5.946,-4.099 9.358,-5.412 z"
               style="fill:#fcd00a;fill-opacity:1;fill-rule:nonzero;stroke:none"
               id="path24462" />
          </g>
          <g
             id="g24464"
             transform="translate(89.5693,1061.958)">
            <path
               d="m 0,0 6.907,12.434 c 1.834,-0.299 3.715,-0.456 5.635,-0.456 1.917,0 3.799,0.157 5.634,0.456 L 25.083,0 24.848,14.217 c 3.569,1.346 6.859,3.264 9.755,5.641 L 46.807,12.542 39.49,24.743 c 2.377,2.899 4.296,6.188 5.642,9.757 l 14.217,-0.234 -12.435,6.907 c 0.3,1.834 0.458,3.715 0.458,5.634 0,1.919 -0.158,3.8 -0.458,5.633 l 12.435,6.909 -14.217,-0.236 c -1.346,3.57 -3.265,6.858 -5.642,9.755 l 7.317,12.204 -12.202,-7.317 c -2.898,2.377 -6.188,4.296 -9.757,5.641 l 0.235,14.218 -6.907,-12.435 c -1.835,0.299 -3.715,0.456 -5.634,0.456 -1.92,0 -3.801,-0.157 -5.635,-0.456 L 0,93.614 0.235,79.396 C -3.334,78.05 -6.624,76.132 -9.521,73.755 l -12.203,7.317 7.317,-12.204 c -2.377,-2.897 -4.295,-6.185 -5.641,-9.755 l -14.218,0.236 12.435,-6.909 c -0.299,-1.833 -0.457,-3.714 -0.457,-5.633 0,-1.919 0.158,-3.8 0.457,-5.634 l -12.435,-6.907 14.218,0.234 c 1.346,-3.569 3.264,-6.858 5.641,-9.756 l -7.317,-12.202 12.203,7.316 c 2.897,-2.377 6.187,-4.295 9.756,-5.641 z"
               style="fill:#fdd60e;fill-opacity:1;fill-rule:nonzero;stroke:none"
               id="path24466" />
          </g>
          <g
             id="g24468"
             transform="translate(89.8013,1062.8223)">
            <path
               d="m 0,0 6.447,11.605 c 1.905,-0.322 3.864,-0.492 5.863,-0.492 1.998,0 3.956,0.17 5.862,0.492 L 24.62,0.002 24.399,13.27 c 3.727,1.379 7.153,3.378 10.153,5.871 L 45.94,12.312 39.112,23.7 c 2.493,3 4.49,6.425 5.871,10.152 l 13.267,-0.22 -11.605,6.447 c 0.324,1.905 0.495,3.865 0.495,5.863 0,1.998 -0.171,3.957 -0.494,5.864 l 11.604,6.446 -13.267,-0.22 c -1.381,3.727 -3.378,7.152 -5.871,10.153 L 45.94,79.573 34.552,72.745 c -3,2.492 -6.426,4.49 -10.153,5.869 l 0.221,13.27 -6.448,-11.606 c -1.906,0.324 -3.864,0.493 -5.862,0.493 -1.999,0 -3.957,-0.17 -5.863,-0.493 L 0,91.884 0.22,78.614 C -3.507,77.235 -6.931,75.237 -9.932,72.745 l -11.39,6.828 6.829,-11.388 c -2.492,-3.001 -4.49,-6.426 -5.87,-10.153 l -13.269,0.22 11.606,-6.446 c -0.324,-1.907 -0.494,-3.866 -0.494,-5.864 0,-1.998 0.17,-3.958 0.494,-5.863 l -11.606,-6.447 13.269,0.22 c 1.38,-3.727 3.378,-7.152 5.87,-10.152 l -6.829,-11.388 11.39,6.829 C -6.931,16.648 -3.507,14.649 0.22,13.27 Z"
               style="fill:#fddb13;fill-opacity:1;fill-rule:nonzero;stroke:none"
               id="path24470" />
          </g>
          <g
             id="g24472"
             transform="translate(90.0903,1063.9004)">
            <path
               d="m 0,0 5.877,10.58 c 1.994,-0.357 4.047,-0.545 6.144,-0.545 2.096,0 4.149,0.188 6.144,0.545 L 24.042,0 l -0.2,12.097 c 3.923,1.411 7.517,3.509 10.637,6.15 l 10.383,-6.226 -6.226,10.383 c 2.642,3.121 4.741,6.717 6.153,10.639 L 56.885,32.842 46.306,38.72 c 0.355,1.995 0.545,4.047 0.545,6.144 0,2.098 -0.19,4.15 -0.545,6.145 l 10.579,5.877 -12.096,-0.199 c -1.412,3.92 -3.511,7.515 -6.153,10.637 L 44.862,77.707 34.479,71.48 c -3.12,2.642 -6.714,4.74 -10.637,6.152 l 0.2,12.096 -5.877,-10.58 c -1.995,0.357 -4.048,0.544 -6.144,0.544 -2.097,0 -4.15,-0.187 -6.144,-0.544 L 0,89.728 0.199,77.633 C -3.723,76.22 -7.318,74.122 -10.439,71.48 l -10.382,6.227 6.224,-10.384 c -2.64,-3.121 -4.739,-6.716 -6.151,-10.636 l -12.095,0.199 10.579,-5.879 c -0.357,-1.993 -0.545,-4.045 -0.545,-6.143 0,-2.097 0.188,-4.149 0.545,-6.144 l -10.579,-5.878 12.095,0.201 c 1.413,-3.922 3.511,-7.517 6.151,-10.638 l -6.225,-10.384 10.383,6.226 c 3.121,-2.641 6.716,-4.739 10.638,-6.15 z"
               style="fill:#fce22f;fill-opacity:1;fill-rule:nonzero;stroke:none"
               id="path24474" />
          </g>
          <g
             id="g24476"
             transform="translate(90.3779,1064.9766)">
            <path
               d="m 0,0 5.307,9.556 c 2.082,-0.391 4.23,-0.597 6.426,-0.597 2.197,0 4.345,0.206 6.426,0.597 L 23.465,0 23.284,10.925 c 4.12,1.442 7.884,3.643 11.126,6.43 l 9.377,-5.622 -5.623,9.377 c 2.789,3.244 4.988,7.007 6.433,11.126 l 10.924,-0.181 -9.556,5.307 c 0.391,2.083 0.598,4.231 0.598,6.426 0,2.197 -0.207,4.343 -0.598,6.427 l 9.556,5.306 -10.924,-0.181 c -1.445,4.119 -3.644,7.883 -6.433,11.126 l 5.623,9.377 -9.377,-5.624 c -3.242,2.789 -7.006,4.989 -11.126,6.432 l 0.181,10.922 -5.306,-9.552 c -2.081,0.39 -4.229,0.595 -6.426,0.595 -2.196,0 -4.344,-0.205 -6.426,-0.595 L 0,87.573 0.18,76.651 c -4.118,-1.443 -7.882,-3.643 -11.124,-6.432 l -9.377,5.623 5.623,-9.376 c -2.789,-3.243 -4.989,-7.007 -6.433,-11.126 l -10.923,0.181 9.554,-5.306 c -0.391,-2.084 -0.596,-4.232 -0.596,-6.427 0,-2.195 0.205,-4.343 0.596,-6.426 l -9.554,-5.307 10.923,0.181 c 1.444,-4.119 3.644,-7.882 6.432,-11.126 l -5.622,-9.377 9.377,5.624 c 3.242,-2.789 7.006,-4.989 11.124,-6.432 z"
               style="fill:#fae84c;fill-opacity:1;fill-rule:nonzero;stroke:none"
               id="path24478" />
          </g>
          <g
             id="g24480"
             transform="translate(90.667,1066.0566)">
            <path
               d="M 0,0 4.737,8.525 C 6.908,8.103 9.15,7.879 11.444,7.879 c 2.294,0 4.536,0.224 6.707,0.646 L 22.888,0 22.727,9.748 c 4.315,1.478 8.249,3.776 11.611,6.713 l 8.371,-5.019 -5.02,8.371 c 2.938,3.364 5.238,7.296 6.715,11.613 l 9.749,-0.161 -8.528,4.737 c 0.423,2.17 0.649,4.411 0.649,6.706 0,2.294 -0.226,4.536 -0.649,6.707 l 8.528,4.736 -9.749,-0.162 c -1.477,4.317 -3.777,8.25 -6.715,11.614 l 5.02,8.371 -8.371,-5.02 c -3.362,2.937 -7.296,5.236 -11.611,6.712 l 0.161,9.751 -4.737,-8.526 c -2.171,0.422 -4.413,0.645 -6.707,0.645 -2.294,0 -4.536,-0.223 -6.707,-0.645 L 0,85.417 0.162,75.668 C -4.154,74.19 -8.087,71.891 -11.45,68.954 l -8.371,5.02 5.019,-8.372 c -2.936,-3.363 -5.236,-7.296 -6.714,-11.613 l -9.751,0.162 8.529,-4.737 c -0.424,-2.17 -0.647,-4.412 -0.647,-6.706 0,-2.295 0.223,-4.536 0.647,-6.706 l -8.529,-4.737 9.751,0.161 c 1.478,-4.316 3.778,-8.249 6.714,-11.613 l -5.019,-8.371 8.371,5.02 c 3.363,-2.938 7.296,-5.236 11.612,-6.714 z"
               style="fill:#f9ef68;fill-opacity:1;fill-rule:nonzero;stroke:none"
               id="path24482" />
          </g>
          <g
             id="g24484"
             transform="translate(128.0947,1085.5752)">
            <path
               d="M 0,0 28.079,-8.022 7.098,12.274 c 0.412,1.247 0.755,2.523 1.025,3.828 l 28.32,7.087 -28.32,7.089 c -0.27,1.304 -0.613,2.58 -1.025,3.826 L 28.079,54.402 0,46.38 c -0.877,0.982 -1.811,1.916 -2.794,2.794 L 5.229,77.253 -15.068,56.271 c -1.246,0.413 -2.523,0.756 -3.828,1.024 l -7.088,28.322 -7.088,-28.322 c -1.304,-0.268 -2.581,-0.611 -3.827,-1.024 l -20.298,20.982 8.023,-28.079 c -0.983,-0.879 -1.916,-1.812 -2.795,-2.795 l -28.077,8.023 20.98,-20.298 c -0.411,-1.246 -0.755,-2.522 -1.025,-3.826 l -28.32,-7.089 28.32,-7.087 c 0.27,-1.305 0.614,-2.581 1.025,-3.828 L -80.046,-8.022 -51.969,0 c 0.879,-0.984 1.812,-1.917 2.796,-2.796 l -8.024,-28.077 20.298,20.978 c 1.246,-0.41 2.523,-0.753 3.827,-1.022 l 7.088,-28.32 7.088,28.32 c 1.305,0.269 2.582,0.612 3.828,1.022 L 5.229,-30.873 -2.794,-2.796 C -1.811,-1.917 -0.877,-0.984 0,0"
               style="fill:#ffb715;fill-opacity:1;fill-rule:nonzero;stroke:none"
               id="path24486" />
          </g>
          <g
             id="g24488"
             transform="translate(128.291,1085.8008)">
            <path
               d="M 0,0 26.917,-7.691 6.805,11.766 c 0.488,1.426 0.884,2.896 1.178,4.403 l 27.149,6.795 -27.149,6.795 c -0.294,1.507 -0.69,2.977 -1.178,4.403 L 26.917,53.619 0.001,45.928 c -0.999,1.143 -2.074,2.218 -3.218,3.218 L 4.476,76.062 -14.982,55.949 c -1.427,0.488 -2.896,0.884 -4.402,1.178 l -6.796,27.148 -6.796,-27.148 c -1.506,-0.294 -2.976,-0.689 -4.402,-1.178 l -19.458,20.113 7.692,-26.918 c -1.143,-0.998 -2.218,-2.073 -3.216,-3.216 l -26.917,7.691 20.111,-19.457 c -0.488,-1.426 -0.885,-2.896 -1.178,-4.403 l -27.148,-6.795 27.148,-6.795 c 0.293,-1.507 0.69,-2.977 1.178,-4.403 L -79.277,-7.691 -52.36,0 c 0.999,-1.144 2.073,-2.218 3.216,-3.217 l -7.692,-26.917 19.458,20.113 c 1.426,-0.488 2.896,-0.884 4.402,-1.179 l 6.796,-27.148 6.796,27.148 c 1.506,0.295 2.975,0.691 4.402,1.179 L 4.476,-30.134 -3.217,-3.217 C -2.073,-2.218 -0.999,-1.144 0,0"
               style="fill:#febe10;fill-opacity:1;fill-rule:nonzero;stroke:none"
               id="path24490" />
          </g>
          <g
             id="g24492"
             transform="translate(128.4878,1086.0254)">
            <path
               d="M 0,0 25.756,-7.358 6.511,11.258 c 0.566,1.608 1.012,3.272 1.332,4.978 l 25.978,6.503 -25.978,6.502 c -0.32,1.708 -0.766,3.371 -1.332,4.98 L 25.756,52.838 0,45.478 c -1.12,1.302 -2.336,2.519 -3.639,3.639 L 3.722,74.871 -14.896,55.627 c -1.608,0.564 -3.269,1.014 -4.979,1.333 l -6.502,25.977 -6.501,-25.977 c -1.709,-0.319 -3.372,-0.769 -4.98,-1.333 l -18.618,19.244 7.361,-25.755 c -1.302,-1.119 -2.519,-2.336 -3.639,-3.638 l -25.755,7.36 19.245,-18.617 c -0.565,-1.609 -1.013,-3.272 -1.333,-4.98 l -25.978,-6.502 25.978,-6.503 c 0.32,-1.706 0.768,-3.37 1.333,-4.978 L -78.509,-7.358 -52.754,0 c 1.12,-1.302 2.337,-2.518 3.639,-3.638 l -7.361,-25.757 18.618,19.247 c 1.608,-0.566 3.271,-1.013 4.98,-1.332 l 6.501,-25.978 6.502,25.978 c 1.71,0.319 3.371,0.766 4.979,1.332 L 3.722,-29.395 -3.639,-3.639 C -2.336,-2.518 -1.12,-1.303 0,0"
               style="fill:#fdc40a;fill-opacity:1;fill-rule:nonzero;stroke:none"
               id="path24494" />
          </g>
          <g
             id="g24496"
             transform="translate(128.6841,1086.252)">
            <path
               d="M 0,0 24.594,-7.028 6.217,10.75 c 0.641,1.787 1.143,3.644 1.487,5.555 L 32.509,22.513 7.704,28.721 C 7.36,30.632 6.858,32.488 6.217,34.276 L 24.594,52.054 0,45.025 c -1.24,1.462 -2.598,2.821 -4.061,4.061 l 7.03,24.594 -17.78,-18.376 c -1.788,0.64 -3.643,1.142 -5.554,1.486 l -6.208,24.806 -6.208,-24.806 c -1.911,-0.344 -3.766,-0.846 -5.556,-1.486 l -17.778,18.376 7.03,-24.594 c -1.463,-1.24 -2.821,-2.599 -4.061,-4.061 l -24.594,7.029 18.376,-17.778 c -0.641,-1.789 -1.142,-3.644 -1.486,-5.555 l -24.807,-6.208 24.807,-6.208 c 0.344,-1.911 0.845,-3.768 1.486,-5.555 L -77.74,-7.028 -53.146,0 c 1.24,-1.463 2.598,-2.82 4.061,-4.061 l -7.03,-24.593 17.778,18.375 c 1.79,-0.64 3.645,-1.142 5.555,-1.487 l 6.209,-24.803 6.208,24.803 c 1.911,0.345 3.766,0.847 5.554,1.487 l 17.78,-18.375 -7.03,24.593 C -2.598,-2.821 -1.24,-1.463 0,0"
               style="fill:#fccb05;fill-opacity:1;fill-rule:nonzero;stroke:none"
               id="path24498" />
          </g>
          <g
             id="g24500"
             transform="translate(128.917,1086.5342)">
            <path
               d="M 0,0 23.161,-6.619 5.856,10.124 c 0.748,2.004 1.314,4.097 1.674,6.26 L 30.891,22.23 7.53,28.077 C 7.17,30.24 6.604,32.333 5.856,34.337 L 23.161,51.079 0,44.461 c -1.377,1.666 -2.91,3.199 -4.576,4.576 l 6.618,23.16 -16.741,-17.305 c -2.004,0.749 -4.097,1.314 -6.26,1.674 l -5.847,23.363 -5.848,-23.363 c -2.162,-0.36 -4.255,-0.925 -6.258,-1.674 l -16.743,17.305 6.619,-23.161 c -1.666,-1.376 -3.199,-2.909 -4.575,-4.577 l -23.162,6.62 17.307,-16.742 c -0.75,-2.004 -1.316,-4.097 -1.676,-6.26 l -23.362,-5.847 23.362,-5.846 c 0.36,-2.163 0.926,-4.256 1.676,-6.26 L -76.773,-6.619 -53.611,0 c 1.376,-1.666 2.909,-3.199 4.575,-4.575 l -6.619,-23.161 16.743,17.304 c 2.003,-0.748 4.096,-1.313 6.258,-1.674 l 5.848,-23.361 5.847,23.361 c 2.163,0.361 4.256,0.926 6.26,1.674 L 2.042,-27.736 -4.576,-4.576 C -2.91,-3.199 -1.377,-1.667 0,0"
               style="fill:#fcd509;fill-opacity:1;fill-rule:nonzero;stroke:none"
               id="path24502" />
          </g>
          <g
             id="g24504"
             transform="translate(129.1489,1086.8174)">
            <path
               d="M 0,0 21.73,-6.208 5.496,9.497 c 0.855,2.219 1.483,4.55 1.861,6.964 L 29.275,21.947 7.357,27.433 C 6.979,29.848 6.351,32.178 5.496,34.397 L 21.73,50.104 0,43.894 c -1.513,1.871 -3.221,3.579 -5.091,5.091 L 1.118,70.715 -14.588,54.48 c -2.219,0.855 -4.549,1.486 -6.964,1.862 l -5.486,21.917 -5.485,-21.917 c -2.414,-0.376 -4.746,-1.007 -6.965,-1.862 l -15.706,16.235 6.209,-21.73 c -1.871,-1.512 -3.578,-3.22 -5.092,-5.091 l -21.729,6.21 16.235,-15.707 c -0.855,-2.219 -1.485,-4.549 -1.862,-6.964 l -21.917,-5.486 21.917,-5.486 c 0.377,-2.414 1.007,-4.745 1.862,-6.964 L -75.806,-6.208 -54.077,0 c 1.514,-1.871 3.221,-3.578 5.092,-5.091 l -6.209,-21.729 15.707,16.234 c 2.218,-0.855 4.548,-1.485 6.963,-1.861 l 5.486,-21.919 5.486,21.919 c 2.415,0.376 4.745,1.006 6.964,1.861 L 1.118,-26.82 -5.091,-5.091 C -3.221,-3.578 -1.513,-1.871 0,0"
               style="fill:#fdde0d;fill-opacity:1;fill-rule:nonzero;stroke:none"
               id="path24506" />
          </g>
          <g
             id="g24508"
             transform="translate(129.3828,1087.1016)">
            <path
               d="M 0,0 20.296,-5.8 5.131,8.869 c 0.963,2.434 1.659,5.003 2.051,7.67 L 27.654,21.663 7.182,26.787 C 6.79,29.454 6.094,32.023 5.131,34.457 L 20.296,49.126 0,43.326 c -1.651,2.075 -3.534,3.958 -5.608,5.609 l 5.8,20.297 -14.671,-15.166 c -2.433,0.963 -5.002,1.658 -7.668,2.05 l -5.125,20.474 -5.124,-20.474 c -2.667,-0.392 -5.236,-1.087 -7.668,-2.049 l -14.671,15.165 5.8,-20.297 c -2.075,-1.651 -3.958,-3.534 -5.608,-5.609 l -20.297,5.8 15.163,-14.669 c -0.962,-2.434 -1.656,-5.003 -2.048,-7.67 l -20.474,-5.124 20.474,-5.124 c 0.392,-2.667 1.086,-5.236 2.048,-7.67 L -74.84,-5.8 -54.543,0 c 1.65,-2.076 3.533,-3.958 5.608,-5.608 l -5.8,-20.297 14.671,15.165 c 2.432,-0.963 5.001,-1.657 7.668,-2.051 l 5.124,-20.472 5.125,20.472 c 2.666,0.394 5.235,1.088 7.668,2.051 l 14.671,-15.165 -5.8,20.297 C -3.534,-3.958 -1.651,-2.076 0,0"
               style="fill:#fde811;fill-opacity:1;fill-rule:nonzero;stroke:none"
               id="path24510" />
          </g>
          <g
             id="g24512"
             transform="translate(127.2373,1065.2432)">
            <path
               d="m 0,0 -4.429,15.504 c 1.372,1.016 2.686,2.145 3.931,3.389 1.245,1.244 2.373,2.559 3.39,3.93 L 18.395,18.394 6.809,29.602 c 1.399,3.208 2.287,6.583 2.672,10.002 L 25.127,43.521 9.481,47.438 C 9.096,50.857 8.208,54.233 6.809,57.441 L 18.395,68.649 2.892,64.218 c -1.017,1.372 -2.145,2.688 -3.39,3.931 -1.245,1.245 -2.559,2.373 -3.931,3.39 L 0,87.043 -11.207,75.458 c -3.207,1.397 -6.583,2.287 -10.003,2.672 l -3.916,15.645 -3.917,-15.645 c -3.421,-0.385 -6.796,-1.275 -10.002,-2.672 l -11.208,11.585 4.43,-15.505 c -1.373,-1.016 -2.687,-2.144 -3.932,-3.389 -1.244,-1.243 -2.372,-2.559 -3.389,-3.931 l -15.502,4.431 11.583,-11.208 c -1.397,-3.208 -2.286,-6.584 -2.671,-10.003 l -15.646,-3.917 15.646,-3.917 c 0.385,-3.419 1.274,-6.794 2.671,-10.002 l -11.585,-11.208 15.504,4.431 c 1.017,-1.373 2.145,-2.688 3.389,-3.932 1.245,-1.244 2.559,-2.373 3.932,-3.389 L -50.253,0 -39.045,11.584 c 3.206,-1.396 6.581,-2.286 10.002,-2.671 l 3.917,-15.646 3.916,15.646 c 3.42,0.385 6.795,1.275 10.003,2.671 z"
               style="fill:#fccb05;fill-opacity:1;fill-rule:nonzero;stroke:none"
               id="path24514" />
          </g>
          <g
             id="g24516"
             transform="translate(126.7896,1066.0215)">
            <path
               d="m 0,0 -4.17,14.59 c 1.439,1.05 2.819,2.224 4.12,3.524 1.3,1.301 2.475,2.679 3.526,4.12 L 18.065,18.065 7.163,28.611 c 1.484,3.343 2.415,6.871 2.79,10.446 L 24.678,42.743 9.953,46.43 C 9.578,50.004 8.647,53.532 7.163,56.874 L 18.065,67.421 3.476,63.252 c -1.051,1.44 -2.226,2.819 -3.526,4.119 -1.301,1.301 -2.681,2.474 -4.12,3.525 L 0,85.486 -10.548,74.584 c -3.342,1.485 -6.87,2.415 -10.446,2.791 L -24.679,92.1 -28.364,77.375 c -3.575,-0.376 -7.104,-1.306 -10.446,-2.79 l -10.547,10.901 4.17,-14.59 c -1.441,-1.051 -2.819,-2.224 -4.12,-3.525 -1.3,-1.3 -2.474,-2.679 -3.526,-4.119 l -14.589,4.169 10.902,-10.546 c -1.485,-3.342 -2.415,-6.871 -2.789,-10.445 l -14.725,-3.687 14.725,-3.686 c 0.374,-3.575 1.304,-7.104 2.789,-10.446 l -10.902,-10.546 14.591,4.169 c 1.05,-1.441 2.224,-2.819 3.524,-4.12 1.301,-1.3 2.679,-2.473 4.12,-3.524 L -49.357,0 -38.81,10.902 c 3.342,-1.486 6.871,-2.414 10.445,-2.791 l 3.686,-14.725 3.687,14.725 c 3.574,0.376 7.102,1.305 10.444,2.791 z"
               style="fill:#fcd00a;fill-opacity:1;fill-rule:nonzero;stroke:none"
               id="path24518" />
          </g>
          <g
             id="g24520"
             transform="translate(126.3398,1066.7979)">
            <path
               d="m 0,0 -3.909,13.678 c 1.508,1.085 2.952,2.303 4.309,3.66 1.355,1.357 2.576,2.8 3.66,4.308 L 17.738,17.737 7.517,27.624 c 1.572,3.476 2.542,7.158 2.909,10.888 L 24.23,41.967 10.428,45.421 C 10.059,49.151 9.089,52.833 7.517,56.31 L 17.738,66.196 4.06,62.287 c -1.084,1.509 -2.305,2.951 -3.66,4.308 -1.357,1.356 -2.801,2.576 -4.309,3.661 L 0,83.934 -9.886,73.713 c -3.476,1.573 -7.159,2.541 -10.887,2.91 l -3.456,13.804 -3.455,-13.804 c -3.729,-0.369 -7.411,-1.337 -10.888,-2.908 l -9.886,10.219 3.908,-13.678 c -1.508,-1.085 -2.951,-2.305 -4.307,-3.661 -1.358,-1.357 -2.577,-2.799 -3.661,-4.308 l -13.678,3.909 10.221,-9.886 c -1.573,-3.477 -2.542,-7.159 -2.909,-10.889 l -13.804,-3.454 13.804,-3.455 c 0.367,-3.73 1.336,-7.412 2.909,-10.888 l -10.221,-9.887 13.679,3.909 c 1.083,-1.508 2.303,-2.951 3.66,-4.308 1.356,-1.357 2.799,-2.575 4.307,-3.66 L -48.458,0 l 9.886,10.22 c 3.477,-1.572 7.159,-2.542 10.888,-2.909 l 3.455,-13.804 3.456,13.804 c 3.728,0.367 7.411,1.337 10.887,2.909 z"
               style="fill:#fdd60e;fill-opacity:1;fill-rule:nonzero;stroke:none"
               id="path24522" />
          </g>
          <g
             id="g24524"
             transform="translate(125.8921,1067.5732)">
            <path
               d="m 0,0 -3.647,12.766 c 1.576,1.12 3.079,2.384 4.495,3.797 1.412,1.414 2.677,2.919 3.796,4.496 L 17.409,17.411 7.87,26.638 c 1.661,3.61 2.67,7.445 3.028,11.33 L 23.78,41.191 10.898,44.415 C 10.54,48.3 9.531,52.135 7.87,55.745 l 9.54,9.226 -12.766,-3.648 c -1.119,1.578 -2.384,3.083 -3.796,4.496 -1.416,1.414 -2.919,2.677 -4.495,3.797 L 0,82.381 -9.228,72.843 c -3.609,1.66 -7.445,2.668 -11.329,3.028 l -3.224,12.882 -3.225,-12.882 c -3.884,-0.36 -7.718,-1.368 -11.329,-3.028 l -9.227,9.538 3.648,-12.765 c -1.577,-1.12 -3.083,-2.383 -4.496,-3.797 -1.413,-1.413 -2.676,-2.918 -3.797,-4.496 l -12.764,3.648 9.538,-9.226 c -1.659,-3.61 -2.668,-7.445 -3.027,-11.33 l -12.883,-3.224 12.883,-3.223 c 0.359,-3.885 1.368,-7.72 3.027,-11.33 l -9.538,-9.227 12.765,3.648 c 1.12,-1.577 2.383,-3.082 3.796,-4.496 1.413,-1.413 2.919,-2.677 4.496,-3.797 L -47.562,0 l 9.227,9.539 c 3.611,-1.659 7.445,-2.668 11.329,-3.028 l 3.225,-12.882 3.224,12.884 c 3.884,0.358 7.72,1.367 11.329,3.026 z"
               style="fill:#fddb13;fill-opacity:1;fill-rule:nonzero;stroke:none"
               id="path24526" />
          </g>
          <g
             id="g24528"
             transform="translate(125.334,1068.54)">
            <path
               d="m 0,0 -3.325,11.637 c 1.663,1.157 3.247,2.477 4.731,3.959 1.482,1.483 2.8,3.068 3.958,4.73 l 11.638,-3.325 -8.696,8.412 c 1.776,3.772 2.833,7.798 3.173,11.872 l 11.746,2.94 -11.746,2.938 c -0.34,4.075 -1.397,8.101 -3.173,11.874 l 8.696,8.411 -11.638,-3.325 c -1.158,1.661 -2.476,3.246 -3.958,4.73 -1.484,1.483 -3.068,2.801 -4.731,3.96 L 0,80.447 -8.411,71.754 c -3.772,1.774 -7.798,2.833 -11.872,3.173 l -2.94,11.743 -2.939,-11.743 c -4.074,-0.34 -8.101,-1.399 -11.873,-3.173 l -8.412,8.693 3.325,-11.634 c -1.661,-1.159 -3.246,-2.477 -4.73,-3.96 -1.482,-1.484 -2.801,-3.069 -3.958,-4.73 l -11.636,3.324 8.694,-8.41 c -1.776,-3.773 -2.833,-7.799 -3.173,-11.874 l -11.745,-2.938 11.745,-2.94 c 0.34,-4.074 1.397,-8.1 3.173,-11.872 l -8.694,-8.412 11.636,3.325 c 1.157,-1.662 2.476,-3.247 3.958,-4.73 1.484,-1.482 3.069,-2.802 4.73,-3.959 L -46.447,0 l 8.412,8.696 c 3.772,-1.776 7.798,-2.833 11.873,-3.174 l 2.939,-11.745 2.94,11.745 c 4.074,0.341 8.1,1.398 11.871,3.174 z"
               style="fill:#fce22f;fill-opacity:1;fill-rule:nonzero;stroke:none"
               id="path24530" />
          </g>
          <g
             id="g24532"
             transform="translate(124.7764,1069.5059)">
            <path
               d="m 0,0 -3.002,10.509 c 1.748,1.196 3.412,2.569 4.965,4.121 1.552,1.554 2.925,3.218 4.121,4.966 l 10.509,-3.003 -7.852,7.595 c 1.892,3.934 2.997,8.151 3.319,12.416 l 10.606,2.655 -10.606,2.654 c -0.322,4.265 -1.427,8.482 -3.319,12.415 l 7.852,7.597 -10.509,-3.004 c -1.196,1.75 -2.568,3.413 -4.121,4.966 -1.553,1.551 -3.217,2.925 -4.965,4.121 L 0,78.517 -7.595,70.667 c -3.933,1.89 -8.151,2.996 -12.416,3.316 l -2.655,10.608 -2.653,-10.608 c -4.265,-0.32 -8.482,-1.426 -12.417,-3.316 l -7.595,7.85 3.003,-10.509 c -1.748,-1.196 -3.413,-2.57 -4.966,-4.121 -1.553,-1.553 -2.924,-3.216 -4.121,-4.966 l -10.509,3.004 7.852,-7.597 c -1.892,-3.933 -2.998,-8.15 -3.319,-12.415 l -10.606,-2.654 10.606,-2.655 c 0.323,-4.265 1.427,-8.482 3.319,-12.416 l -7.852,-7.595 10.509,3.003 c 1.197,-1.748 2.569,-3.412 4.121,-4.966 1.553,-1.552 3.218,-2.925 4.966,-4.121 L -45.331,0 l 7.595,7.852 c 3.935,-1.892 8.152,-2.997 12.417,-3.318 l 2.653,-10.607 2.655,10.607 c 4.265,0.32 8.483,1.426 12.416,3.318 z"
               style="fill:#fae84c;fill-opacity:1;fill-rule:nonzero;stroke:none"
               id="path24534" />
          </g>
          <g
             id="g24536"
             transform="translate(124.2192,1070.4727)">
            <path
               d="m 0,0 -2.681,9.38 c 1.835,1.235 3.579,2.661 5.202,4.283 1.622,1.623 3.048,3.366 4.284,5.201 l 9.379,-2.68 -7.007,6.779 c 2.006,4.096 3.16,8.504 3.463,12.959 l 9.468,2.37 -9.468,2.369 c -0.303,4.455 -1.457,8.864 -3.463,12.959 l 7.007,6.78 -9.38,-2.679 c -1.235,1.834 -2.661,3.578 -4.283,5.199 -1.623,1.622 -3.367,3.049 -5.202,4.284 L 0,76.584 -6.78,69.576 c -4.095,2.006 -8.504,3.161 -12.959,3.464 l -2.369,9.468 -2.37,-9.468 c -4.455,-0.303 -8.863,-1.458 -12.959,-3.464 l -6.779,7.008 2.68,-9.38 c -1.833,-1.235 -3.579,-2.662 -5.201,-4.284 -1.622,-1.621 -3.048,-3.365 -4.284,-5.2 l -9.379,2.68 7.007,-6.78 c -2.007,-4.095 -3.161,-8.504 -3.463,-12.959 l -9.469,-2.369 9.469,-2.37 c 0.302,-4.455 1.457,-8.863 3.463,-12.959 l -7.007,-6.779 9.379,2.68 c 1.236,-1.835 2.662,-3.578 4.284,-5.201 1.622,-1.622 3.368,-3.048 5.2,-4.283 L -44.216,0 l 6.779,7.008 c 4.096,-2.007 8.504,-3.162 12.959,-3.464 l 2.37,-9.468 2.369,9.468 c 4.455,0.302 8.864,1.457 12.959,3.464 z"
               style="fill:#f9ef68;fill-opacity:1;fill-rule:nonzero;stroke:none"
               id="path24538" />
          </g>
        </g>
      </g>
      <g
         transform="matrix(0.35277777,0,0,-0.35277777,134.82285,674.1626)"
         id="g24540">
        <g
           id="g24542">
          <g
             id="g24548">
            <g
               id="g24550">
              <path
                 d="m 67.281,1108.765 c 0,-19.237 15.594,-34.829 34.829,-34.829 v 0 c 19.236,0 34.831,15.592 34.831,34.829 v 0 c 0,19.235 -15.595,34.828 -34.831,34.828 v 0 c -19.235,0 -34.829,-15.593 -34.829,-34.828"
                 style="fill:url(#radialGradient24556-0);stroke:none"
                 id="path24558" />
            </g>
          </g>
        </g>
      </g>
      <g
         transform="matrix(0.35277777,0,0,-0.35277777,134.82285,674.1626)"
         id="g24560">
        <g
           id="g24562">
          <g
             id="g24568">
            <g
               id="g24570">
              <path
                 d="m 70.177,1108.765 c 0,-18.274 14.297,-33.09 31.933,-33.09 v 0 c 17.637,0 31.936,14.816 31.936,33.09 v 0 c 0,18.273 -14.299,33.087 -31.936,33.087 v 0 c -17.636,0 -31.933,-14.814 -31.933,-33.087"
                 style="fill:url(#radialGradient24580-7);stroke:none"
                 id="path24582" />
            </g>
          </g>
        </g>
      </g>
      <g
         transform="matrix(0.35277777,0,0,-0.35277777,134.82285,674.1626)"
         id="g24584">
        <g
           id="g24586">
          <g
             id="g24592">
            <g
               id="g24594">
              <path
                 d="m 74.247,1121.303 c 0,-11.54 12.475,-20.898 27.863,-20.898 v 0 c 15.389,0 27.864,9.358 27.864,20.898 v 0 c 0,11.541 -12.475,20.897 -27.864,20.897 v 0 c -15.388,0 -27.863,-9.356 -27.863,-20.897"
                 style="fill:url(#linearGradient24602);stroke:none"
                 id="path24604" />
            </g>
          </g>
        </g>
      </g>
      <g
         transform="matrix(0.35277777,0,0,-0.35277777,134.82285,674.1626)"
         id="g24606">
        <g
           id="g24608">
          <g
             id="g24614">
            <g
               id="g24616">
              <path
                 d="m 102.174,1081.736 c -11.388,0 -21.509,4.085 -27.927,10.414 v 0 c 5.453,-10.157 15.915,-17.031 27.927,-17.031 v 0 c 12.012,0 22.474,6.874 27.926,17.031 v 0 c -6.418,-6.329 -16.539,-10.414 -27.926,-10.414"
                 style="fill:url(#linearGradient24624);stroke:none"
                 id="path24626" />
            </g>
          </g>
        </g>
      </g>
    </g>
  </g>
</svg>
