<?xml version="1.0" encoding="utf-8"?>
<!-- Generator: Adobe Illustrator 23.0.5, SVG Export Plug-In . SVG Version: 6.00 Build 0)  -->
<svg version="1.1" id="Слой_1" xmlns="http://www.w3.org/2000/svg" xmlns:xlink="http://www.w3.org/1999/xlink" x="0px" y="0px"
	 width="1065.5px" height="1071.9px" viewBox="0 0 1065.5 1071.9" style="enable-background:new 0 0 1065.5 1071.9;"
	 xml:space="preserve">
<style type="text/css">
	.st0{fill:url(#SVGID_1_);filter:url(#Adobe_OpacityMaskFilter);}
	.st1{fill:url(#SVGID_2_);}
	.st2{mask:url(#mask0_0_1_1_);}
	.st3{fill:url(#SVGID_3_);}
	.st4{fill:url(#SVGID_4_);}
	.st5{fill:url(#SVGID_5_);}
	.st6{fill:url(#SVGID_6_);}
	.st7{fill:url(#SVGID_7_);}
	.st8{fill:url(#SVGID_8_);}
	.st9{fill:url(#SVGID_9_);}
	.st10{fill:url(#SVGID_10_);}
	.st11{fill:url(#SVGID_11_);}
	.st12{fill:url(#SVGID_12_);}
	.st13{fill:url(#SVGID_13_);}
	.st14{fill:url(#SVGID_14_);}
	.st15{fill:url(#SVGID_15_);}
	.st16{fill:url(#SVGID_16_);}
	.st17{fill:url(#SVGID_17_);}
	.st18{fill:url(#SVGID_18_);}
	.st19{fill:url(#SVGID_19_);}
	.st20{fill:url(#SVGID_20_);}
	.st21{fill:url(#SVGID_21_);}
	.st22{fill:url(#SVGID_22_);}
	.st23{fill:url(#SVGID_23_);}
	.st24{fill:url(#SVGID_24_);}
	.st25{fill:url(#SVGID_25_);}
	.st26{fill:url(#SVGID_26_);}
	.st27{fill:url(#SVGID_27_);}
	.st28{fill:url(#SVGID_28_);}
	.st29{fill:url(#SVGID_29_);}
	.st30{fill:url(#SVGID_30_);}
	.st31{fill:url(#SVGID_31_);}
	.st32{fill:url(#SVGID_32_);}
	.st33{fill:url(#SVGID_33_);}
	.st34{fill:url(#SVGID_34_);}
	.st35{fill:url(#SVGID_35_);}
	.st36{fill:url(#SVGID_36_);}
	.st37{fill:url(#SVGID_37_);}
	.st38{fill:url(#SVGID_38_);}
	.st39{fill:url(#SVGID_39_);}
	.st40{fill:url(#SVGID_40_);}
	.st41{fill:url(#SVGID_41_);}
	.st42{fill:url(#SVGID_42_);}
	.st43{fill:#FFFFFF;}
	.st44{fill:url(#SVGID_43_);}
	.st45{fill:url(#SVGID_44_);}
	.st46{fill:url(#SVGID_45_);}
	.st47{fill:url(#SVGID_46_);}
	.st48{fill:url(#SVGID_47_);}
	.st49{fill:url(#SVGID_48_);}
	.st50{fill:url(#SVGID_49_);}
	.st51{fill:url(#SVGID_50_);}
	.st52{fill:url(#SVGID_51_);}
	.st53{fill:url(#SVGID_52_);}
	.st54{fill:url(#SVGID_53_);}
	.st55{fill:url(#SVGID_54_);}
	.st56{fill:url(#SVGID_55_);}
	.st57{fill:url(#SVGID_56_);}
	.st58{fill:url(#SVGID_57_);}
	.st59{fill:url(#SVGID_58_);}
	.st60{fill:url(#SVGID_59_);}
	.st61{fill:url(#SVGID_60_);}
	.st62{fill:url(#SVGID_61_);}
	.st63{fill:url(#SVGID_62_);}
	.st64{fill:url(#SVGID_63_);}
	.st65{fill:url(#SVGID_64_);}
	.st66{fill:url(#SVGID_65_);}
	.st67{fill:url(#SVGID_66_);}
	.st68{fill:url(#SVGID_67_);}
	.st69{fill:url(#SVGID_68_);}
	.st70{fill:url(#SVGID_69_);}
	.st71{fill:url(#SVGID_70_);}
	.st72{fill:url(#SVGID_71_);}
	.st73{fill:url(#SVGID_72_);}
	.st74{fill:url(#SVGID_73_);}
	.st75{fill:url(#SVGID_74_);}
	.st76{fill:url(#SVGID_75_);}
	.st77{fill:url(#SVGID_76_);}
	.st78{fill:url(#SVGID_77_);}
	.st79{fill:url(#SVGID_78_);}
	.st80{fill:url(#SVGID_79_);}
	.st81{fill:url(#SVGID_80_);}
	.st82{fill:url(#SVGID_81_);}
	.st83{fill:url(#SVGID_82_);}
	.st84{fill:url(#SVGID_83_);}
	.st85{fill:url(#SVGID_84_);}
	.st86{fill:url(#SVGID_85_);}
	.st87{fill:url(#SVGID_86_);}
	.st88{fill:url(#SVGID_87_);}
	.st89{fill:url(#SVGID_88_);}
	.st90{fill:url(#SVGID_89_);}
</style>
<defs>
	<filter id="Adobe_OpacityMaskFilter" filterUnits="userSpaceOnUse" x="-146.3" y="-181" width="1498.6" height="1252">
		<feColorMatrix  type="matrix" values="1 0 0 0 0  0 1 0 0 0  0 0 1 0 0  0 0 0 1 0"/>
	</filter>
</defs>
<mask maskUnits="userSpaceOnUse" x="-146.3" y="-181" width="1498.6" height="1252" id="mask0_0_1_1_">
	
		<linearGradient id="SVGID_1_" gradientUnits="userSpaceOnUse" x1="531.8544" y1="1157.8898" x2="531.8544" y2="86.8898" gradientTransform="matrix(1 0 0 -1 0 1157.8898)">
		<stop  offset="0" style="stop-color:#6CA2F3"/>
		<stop  offset="1" style="stop-color:#F9F3F6"/>
	</linearGradient>
	<rect x="-4.3" y="0" class="st0" width="1072.3" height="1071"/>
	
		<linearGradient id="SVGID_2_" gradientUnits="userSpaceOnUse" x1="531.8544" y1="1157.8898" x2="531.8544" y2="86.8898" gradientTransform="matrix(1 0 0 -1 0 1157.8898)">
		<stop  offset="0" style="stop-color:#002566"/>
		<stop  offset="1" style="stop-color:#002D3E"/>
	</linearGradient>
	<rect x="-4.3" y="0" class="st1" width="1072.3" height="1071"/>
</mask>
<g class="st2">
	
		<linearGradient id="SVGID_3_" gradientUnits="userSpaceOnUse" x1="529.3215" y1="1157.8898" x2="529.3215" y2="86.8898" gradientTransform="matrix(1 0 0 -1 0 1157.8898)">
		<stop  offset="0" style="stop-color:#6CA2F3"/>
		<stop  offset="1" style="stop-color:#F9F3F6"/>
	</linearGradient>
	<rect x="-6.8" y="0" class="st3" width="1072.3" height="1071"/>
	
		<linearGradient id="SVGID_4_" gradientUnits="userSpaceOnUse" x1="529.3215" y1="1157.8898" x2="529.3215" y2="86.8898" gradientTransform="matrix(1 0 0 -1 0 1157.8898)">
		<stop  offset="0" style="stop-color:#002566"/>
		<stop  offset="1" style="stop-color:#002D3E"/>
	</linearGradient>
	<rect x="-6.8" y="0" class="st4" width="1072.3" height="1071"/>
	
		<linearGradient id="SVGID_5_" gradientUnits="userSpaceOnUse" x1="1161.6119" y1="742.8063" x2="-47.7521" y2="742.8024" gradientTransform="matrix(1 0 0 -1 0 1157.8898)">
		<stop  offset="0" style="stop-color:#FEFEFE;stop-opacity:0"/>
		<stop  offset="1" style="stop-color:#FFFFFF"/>
	</linearGradient>
	<rect x="-21.3" y="413.1" class="st5" width="1128.9" height="3.9"/>
	
		<linearGradient id="SVGID_6_" gradientUnits="userSpaceOnUse" x1="1865.2921" y1="1155.2811" x2="654.5209" y2="1155.2782" gradientTransform="matrix(-1 0 0 -1 1756.995 1302.6188)">
		<stop  offset="0" style="stop-color:#FEFEFE;stop-opacity:0"/>
		<stop  offset="1" style="stop-color:#FFFFFF"/>
	</linearGradient>
	<rect x="-54.2" y="144.7" class="st6" width="1130.2" height="5.3"/>
	
		<linearGradient id="SVGID_7_" gradientUnits="userSpaceOnUse" x1="1863.912" y1="1155.9491" x2="654.5515" y2="1155.9449" gradientTransform="matrix(-1 0 0 -1 1788.575 1292.0938)">
		<stop  offset="0" style="stop-color:#FEFEFE;stop-opacity:0"/>
		<stop  offset="1" style="stop-color:#FFFFFF"/>
	</linearGradient>
	<rect x="-21.3" y="134.2" class="st7" width="1128.9" height="3.9"/>
	
		<linearGradient id="SVGID_8_" gradientUnits="userSpaceOnUse" x1="956.6521" y1="405.9761" x2="-170.9589" y2="405.9731" gradientTransform="matrix(1 0 0 -1 0 1157.8898)">
		<stop  offset="0" style="stop-color:#FEFEFE;stop-opacity:0"/>
		<stop  offset="1" style="stop-color:#FFFFFF"/>
	</linearGradient>
	<rect x="-146.3" y="750" class="st8" width="1052.6" height="3.9"/>
	
		<linearGradient id="SVGID_9_" gradientUnits="userSpaceOnUse" x1="3309.2629" y1="270.2451" x2="2181.6531" y2="270.2411" gradientTransform="matrix(-1 0 0 1 3558.605 297.5282)">
		<stop  offset="0" style="stop-color:#FEFEFE;stop-opacity:0"/>
		<stop  offset="1" style="stop-color:#FFFFFF"/>
	</linearGradient>
	<rect x="299.7" y="565.8" class="st9" width="1052.6" height="3.9"/>
	
		<linearGradient id="SVGID_10_" gradientUnits="userSpaceOnUse" x1="3254.9731" y1="-2.1044" x2="1987.823" y2="-2.1094" gradientTransform="matrix(-1 0 0 1 3177.0449 842.2383)">
		<stop  offset="0" style="stop-color:#FEFEFE;stop-opacity:0"/>
		<stop  offset="1" style="stop-color:#FFFFFF"/>
	</linearGradient>
	<rect x="-21.3" y="838.1" class="st10" width="1182.8" height="3.9"/>
	
		<linearGradient id="SVGID_11_" gradientUnits="userSpaceOnUse" x1="3155.323" y1="242.6145" x2="2027.713" y2="242.6106" gradientTransform="matrix(-1 0 0 1 3250.7249 352.7882)">
		<stop  offset="0" style="stop-color:#FEFEFE;stop-opacity:0"/>
		<stop  offset="1" style="stop-color:#FFFFFF"/>
	</linearGradient>
	<rect x="145.8" y="593.4" class="st11" width="1052.6" height="3.9"/>
	
		<linearGradient id="SVGID_12_" gradientUnits="userSpaceOnUse" x1="834.5671" y1="450.2988" x2="834.5671" y2="367.5488" gradientTransform="matrix(1 0 0 -1 0 1157.8898)">
		<stop  offset="0" style="stop-color:#79BBDF;stop-opacity:0.69"/>
		<stop  offset="1" style="stop-color:#153E54;stop-opacity:0.78"/>
	</linearGradient>
	<path class="st12" d="M1021.6,766c-3-8.2,5.8-10.1,12.9-17.1c6.9-7.1,12.2-8.2,0-12.5c-12.2-4.3-12.2-8.6-7.6-12.5
		c4.6-4-12.2,1.5-12.2,1.5s6.9-8.9-7.6-16.2c-14.7-7.1-30.4-16.5-33.9-5.4s-6.5,15.7-12.2,12.9c-5.8-2.8-15.9-4-18.2,1.2
		c-2.3,4.9,6.9,8.6-3,10.7s-11.1-4.3-19.3-2.8c-8.3,1.5-8.3,5.8-10.6,7.6c-2.3,1.8-12.2,0-18.7,3.3c-6.4,3.3-9.9,2.1-12.9-1.8
		c-3-4-9.9-6.1-15.9-6.1c-5.8,0-13.4-6.8-16.4-8.2c-3-1.5-14-4-16.4,2.8c-2.3,6.8-9.4,11-12.9,8.9c-3.5-2.1-17.5-4.9-24.6-10.7
		c-6.9-5.8-18.2,1.5-22.3-2.8c-4.1-4.3-17-11.7-24.6-12.5c-7.6-0.7-27.4,3.1-29.3,12.5c-1.8,9.2,6.9,19-9.4,17.5
		c-16.4-1.5-73.2,1-77.9,9.2c-4.6,8.2,4.6,23.6,14.7,26.9c8.3,2.6,25.3,2.1,25.5,9.4l334.3,0c0.2,0,0.3,0,0.5-0.2
		C1015.8,778.6,1024.6,774.3,1021.6,766z"/>
	
		<linearGradient id="SVGID_13_" gradientUnits="userSpaceOnUse" x1="210.9142" y1="283.7308" x2="210.9142" y2="218.0568" gradientTransform="matrix(1 0 0 -1 0 1157.8898)">
		<stop  offset="0" style="stop-color:#79BBDF;stop-opacity:0.69"/>
		<stop  offset="1" style="stop-color:#153E54;stop-opacity:0.78"/>
	</linearGradient>
	<path class="st13" d="M312.8,924.8c3.1-2.5-2.2-5,0.5-7.2c5.8-4.9,18.2-8.9,18.4-11.6c0.5-8.4,8-19.3,3.5-21.5
		c-1.8-1-3.3-5.9-9.6-4.4c-4.6,1.2-13.9,8.7-18.2,9.2c-4,0.5-7.3-5.2-8.9-3.9c-6,4.4-24.2,12.9-29.2,9.7c-5-3.2-9.1-11.4-19.4-6
		c-10.3,5.4-24.2,3.5-32.3-2.7c-5.1-3.9-5.5-1.8-15.1,5c-1.5,1.2-4.8-4-8.1-2.7c-3,1.2-5.8,8.9-7.5,10.2c-3.1,2.7-6,6.7-10.1,4.9
		c0,0-1.2-4.5,1.2-13.9c2.3-9.2,8-19.1,5.5-22.3c-2.3-3-5.8,4-13.3,7c-3.5,1.3-11.1-3.2-13.9-1c-4.3,3.4-7.3,12.2-7.3,12.2
		s-4-7.9-11.8-7.5c-6.1,0.2-15.1,7.7-22,10.2c-9.3,3.4-19.6,16.4-20.9,17.1c-1.5,0.8,1.5,8-4.5,19.1c-1.3,2.5-3,5.2-4.5,7.9h214.1
		c0.3-0.8,0.8-1.7,1.5-2.3C302.3,928.3,310.6,926.5,312.8,924.8z"/>
	
		<linearGradient id="SVGID_14_" gradientUnits="userSpaceOnUse" x1="718.1254" y1="287.8998" x2="718.1254" y2="333.8718" gradientTransform="matrix(1 0 0 -1 0 1157.8898)">
		<stop  offset="0" style="stop-color:#79BBDF;stop-opacity:0.69"/>
		<stop  offset="1" style="stop-color:#153E54;stop-opacity:0.78"/>
	</linearGradient>
	<path class="st14" d="M720.9,861.1c-5.4,2.5-8.4,3.2-9.2,0c-0.8-3.2-3.1-6-5.4-6c-2.3,0-2.3-3.2-3-5c-0.7-1.8-4.6-2.2-6.1-1.8
		c-1.5,0.3-6.1-4.2-6.6-5.7c-0.7-1.3,1.8-3.5,2.6-6c0.8-2.5,6.6-9.5,11-7.3c4.3,2.2,6.9,13.7,10,10.5c3.1-3.2,2-8.2,3.1-7.7
		c1.2,0.3,4.9,2.8,5.3,3.8c0.3,1,6.1,2.5,6.9-0.3c0.8-2.8,5.4-2.5,7.6,1c2,3.5-2.6,13,0,13.7c2.6,0.7,5.6,5,7.9,9.2
		c2.3,4.2-1,15.5-9.5,15.5c-0.8,0-6.4-6.7-11.2-6.7c-4.8,0-7.9,6.7-8.1,3.8C715.6,869.5,720.9,861.1,720.9,861.1z"/>
	
		<linearGradient id="SVGID_15_" gradientUnits="userSpaceOnUse" x1="582.6066" y1="237.7217" x2="582.6066" y2="294.2018" gradientTransform="matrix(1 0 0 -1 0 1157.8898)">
		<stop  offset="0" style="stop-color:#79BBDF;stop-opacity:0.69"/>
		<stop  offset="1" style="stop-color:#153E54;stop-opacity:0.78"/>
	</linearGradient>
	<path class="st15" d="M592.1,909.6c-4.9,6.3-7.9,8.9-10.9,5.8c-3-3.1-7.4-5-10.2-3.6c-2.8,1.5-4.6-2.3-6.4-4
		c-1.8-1.7-6.7,0.3-8.2,1.7c-1.5,1.3-9.7-1.2-11.2-2.5c-1.5-1.3-0.2-5.1-0.7-8.6c-0.3-2,5.8-4,7.6-7.6c1.3-2.8-2-7.8,0.8-7.9
		c6.4-0.2,16.6,11.8,18.4,6.1c1.8-5.6-2.5-10.8-1-11.1c1.6-0.3,7.6,0.2,8.6,1.3c1,1,8.7-0.8,7.9-4.8c-0.7-3.8,4.9-6.3,9.5-3.5
		c4.6,2.8,4.9,16.9,8.4,16.1s9.5,2.3,14.8,5.8c3.1,2.2-0.5,10.3-2,16.6c-1,4.1,0.5,7.3,0.2,7.6c-0.3,0.2-2.5,4.8-5.1,5.5
		c-2,0.5-4.1,3-5.9,2.5c-2.5-0.5-4.3-4.1-4.3-4.1s-7.1,7.9-9.2,4.8C591.1,922.7,592.1,909.6,592.1,909.6z"/>
	
		<linearGradient id="SVGID_16_" gradientUnits="userSpaceOnUse" x1="896.3715" y1="1012.0818" x2="896.3715" y2="1057.8688" gradientTransform="matrix(1 0 0 -1 0 1157.8898)">
		<stop  offset="0" style="stop-color:#79BBDF;stop-opacity:0.69"/>
		<stop  offset="1" style="stop-color:#153E54;stop-opacity:0.78"/>
	</linearGradient>
	<path class="st16" d="M1030.9,121.4l25.2,11.6c3.3,1.5,5.4,4.8,5.4,8.5c0,5.1-4.2,9.3-9.3,9.3H740.9c-5.3,0-9.6-4.3-9.6-9.6
		c0-3.5,1.9-6.7,5-8.4l21.3-11.8c2.4-1.3,5-2,7.8-2h21.5c4.3,0,8.4,1.7,11.4,4.8l6.8,6.9c3,3.1,7.1,4.8,11.4,4.8h23.8
		c2,0,4.1-0.4,6-1.2l38.2-15.4l31.2-11.3c4.7-1.7,9.9-1.1,14.1,1.6l34.5,22.3c3.9,2.5,8.8,3.2,13.3,1.9l42-12.7
		C1023.3,119.5,1027.3,119.8,1030.9,121.4z"/>
	
		<linearGradient id="SVGID_17_" gradientUnits="userSpaceOnUse" x1="309.305" y1="1002.1158" x2="309.305" y2="1083.0056" gradientTransform="matrix(1 0 0 -1 0 1157.8898)">
		<stop  offset="0" style="stop-color:#79BBDF;stop-opacity:0.69"/>
		<stop  offset="1" style="stop-color:#153E54;stop-opacity:0.78"/>
	</linearGradient>
	<path class="st17" d="M535.3,87.7c19.1,13.7,48,34.4,61,43.8c4.1,3,6.5,7.7,6.5,12.8v4.2c0,8.8-7.2,16-16,16H31.8
		c-8.8,0-16-7.2-16-16v-4.5c0-4.9,2.2-9.6,6.1-12.5c17.4-13.3,44.5-32.9,49.8-32.1c7.5,1.2,59.7,36.8,68.4,36.8
		c8.7,0,102-17.2,116.9-25.8c14.9-8.6,87.1-27,94.5-27s56,30.7,67.2,27c8.4-2.8,68.7-17.1,103.6-25.3
		C526.9,84.1,531.6,85,535.3,87.7z"/>
	
		<linearGradient id="SVGID_18_" gradientUnits="userSpaceOnUse" x1="528.6882" y1="897.2457" x2="528.6882" y2="1153.652" gradientTransform="matrix(1 0 0 -1 0 1157.8898)">
		<stop  offset="0" style="stop-color:#79BBDF;stop-opacity:0.69"/>
		<stop  offset="1" style="stop-color:#153E54;stop-opacity:0.78"/>
	</linearGradient>
	<path class="st18" d="M1138.2,31.5c4.8,1.7,9.2,3.5,13.5,5.2v157.7c-2.1,0.2-2.7,2.1-3.5,7.1c-1.2,6.9-9.8,17.3-21.7,17.9
		c-11.9,0.6-19.4,8.3-31.2,15.6c-11.9,7.3-6.3,16.3-34.8,23.6c-28.5,7.3-17.3-5-29.6-16.3c-12.3-11.5-6-2.5-8.3,1
		c-2.3,3.5-9.8,0.8-10.6-0.8c-0.8-1.5-5.8-8.5-12.9-1.3c-7.1,6.9-7.1,3.8-7.5,2.5c-0.4-1.3-12.3-4.4-17.7,1.9
		c-5.6,6.3-10.2,1.3-30.8-4.4c-20.6-5.8-16.5-8.8-16.5-1.3c0,7.7-7.5,5.8-18.5,7.3c-11,1.5-21-10.8-22.1-4.4
		c-1.2,6.3-17.7,0-16.5,1.5c1.2,1.5-0.4,4.6-5.2,9c-4.8,4.4-6.7,2.5-9,1c-2.3-1.5-1.2-3.3-9-7.7c-7.9-4.4-14.2-1.5-14.2,0.6
		c0,2.3-8.7,14-16.2,16.5c-7.5,2.5-8.3,11.5-14.6,12.1c-6.3,0.6-6.7-9.6-9-12.5c-2.3-2.9-6-1.5-7.1,4.2c-1.2,5.8-10.6,5.8-17.3,5.8
		c-6.7,0-9.8,3.8-16.9,10.8c-7.1,6.9-14.2,4.8-30.8,0c-16.5-4.8-22.1-4.8-35.2-4.2c-13.1,0.6-12.3-1.9-18.1-3.5c-6-1.5-5.2,1-12.3,0
		c-7.1-1-1.5-13.1-5.2-10.2c-3.5,2.9-15.4,5.2-23.7,5.4c-8.3,0.4-17.7-2.9-27.3-3.8c-9.4-1-11.9-3.3-18.5-8.6
		c-6.7-5.4-9-11.7-15.8-17.5s-21.7-14.4-23.3-11.5c-1.5,2.9-8.7,4.2-13.5,2.5c-4.8-1.5-13.5-1-20.6,0c-7.1,1-9.4-0.6-12.3-2.9
		c-2.7-2.3-3.1-2.3-8.7-3.3c-5.6-1-9.8,0-9.4-4.4c0.4-4.4,0-7.9-7.5-6.1c-7.5,1.9-7.1,2.3-9.8-4.2c-2.7-6.3-5.6-2.9-14.2-2.5
		c-8.7,0.4-9,0.6-9-4.2c0-4.8-5.6-2.9-16.2-2.9c-10.6,0-12.3-1.5-13.1-4.4c-0.8-2.9-18.1,0.4-19-1.9c-0.8-2.3-8.3-1.5-15.8-0.6
		c-7.5,1-0.4,3.5,0,7.7s-1.2,9.2-5.6,6.3c-4.4-2.9-2.7-7.1-10.2-6.1c-7.5,1-15.4,1.3-16.9,4.6c-1.5,3.3-9.8,5.2-16.2,6.7
		c-6.3,1.5-1.9,13.6-6.7,20.4c-4.8,6.7-13.8,12.5-21.7,11.1c-7.9-1.3-6.3-5.4-8.3-3.8s-4.8,2.9-11,0c-6.3-2.9-10.2-2.9-11.9-1.9
		c-1.5,1-8.3-0.4-11.9-3.8c-3.5-3.5-9-3.5-14.2-4.8c-5.2-1.3-17.3-3.5-22.1,4.8c-4.8,8.3-7.1,7.7-9.4,7.9c-2.3,0.4-9-3.8-9.4,1.3
		c-0.4,5.2-10.2,7.9-12.7,3.3c-2.3-4.8-15-1.9-19,1.3c-4,3.3-20.6,13.6-26.7,8.6c-6.3-5.2-6.7-7.3-6.7-7.3c-24-9.2-5.2-16.9-15-23.2
		c-9.8-6.3-15-31.1-18.1-33c-3.1-1.9-7.5,0-9.8-1.9c-2.3-1.9-6.7-3.5-6.3-7.3c0.4-3.8-7.9-5.8-10.2-5.4c-2.3,0.4-11.9,0.4-13.5-3.5
		c-1.5-3.7-8.3-0.4-10.2-0.2c-1.9,0.4-8.7,0-11.5-2.3c-2.7-2.3-4-5.8-6.7-6.3c-2.7-0.6-4.4-1.5-3.1-4c1.2-2.3-1.2-2.3-3.1-6
		c-1.9-3.5-5.2-2.9-13.5-2.9c-8.3,0-7.5,6.5-19,3.5c-2.1-0.6-6.7-4.2-8.3-5c-1.5-0.8-5.2-1.3-6-0.4c-0.8,1-6,0-6,0s-2.3-1.5-3.1-4
		c-0.8-2.5-4.4-1.5-4.4-1.5s-3.5,0-5.2,1.3c-1.5,1.3-3.1-1.3-5.2-3.6c-1.9-2.3-8.7-3.1-12.7-0.6c-19,12.3-27.3,4.6-34.6,1.3V31.5
		H1138.2z"/>
	
		<linearGradient id="SVGID_19_" gradientUnits="userSpaceOnUse" x1="-2.5762" y1="980.5648" x2="-2.5762" y2="1159.1333" gradientTransform="matrix(1 0 0 -1 0 1157.8898)">
		<stop  offset="0" style="stop-color:#79BBDF;stop-opacity:0.69"/>
		<stop  offset="1" style="stop-color:#153E54;stop-opacity:0.78"/>
	</linearGradient>
	<path class="st19" d="M84.4,104.2c-1.3,10.7,1.9,23-1.9,27.2c-3.9,4.2-18.3,40.6-22,36.6c-3.7-4-18.5-37.9-22.9-32.6
		c-4.4,5.6-12.3,17-19.1,12.8c-6.5-4.4-17.5,1.9-25,12.1c-7.5,10.2-7.9,27.2-19.8,7.7c0,0-5,16.3-10.2,26.2
		c-5.2,10-22.3-14.6-22.3-14.6s-24.8,14.9-30.8-8.8v-86c10.2-7.9,20.6-13.2,27-11.5c8.5,2.3,10.2-42,21.4-51.3
		c11.4-9.4,25-2.1,23.1,10.2C-20.2,44.2-1.5,49.8,1,46.5c2.5-3.4,17.1-5.6,21-4.8c3.9,0.8-7.1,17-3.1,34.9
		c4,17.8,29.7-20.7,45.4-20.5C80.3,56.3,85.7,93.5,84.4,104.2z"/>
	
		<linearGradient id="SVGID_20_" gradientUnits="userSpaceOnUse" x1="362.048" y1="980.1277" x2="362.048" y2="1083.9115" gradientTransform="matrix(1 0 0 -1 0 1157.8898)">
		<stop  offset="0" style="stop-color:#79BBDF;stop-opacity:0.69"/>
		<stop  offset="1" style="stop-color:#153E54;stop-opacity:0.78"/>
	</linearGradient>
	<path class="st20" d="M344.8,158c9,11.5,14.6,16.3,19.9,10.5c5.4-5.8,13.4-9.1,18.4-6.6c5,2.7,8.4-4.1,11.7-7.4
		c3.3-3.1,12.3,0.8,14.9,3.1c2.7,2.3,17.6-2.1,20.5-4.5c2.9-2.3,0.2-9.5,1-15.7c0.6-3.5-10.5-7.2-13.8-14
		c-2.5-5.2,3.4-14.2-1.5-14.4c-11.7-0.4-30.1,21.6-33.3,11.1c-3.3-10.5,4.6-19.6,1.7-20.2c-2.9-0.6-13.6,0.4-15.5,2.3
		c-1.7,1.9-15.7-1.6-14.6-8.7c1.3-7-9-11.5-17.2-6.2c-8.2,5.2-8.8,30.9-15.1,29.5s-17.4,4.3-27,10.7c-5.7,3.9,0.8,18.8,3.6,30.3
		c1.7,7.4-1,13.4-0.2,13.8c0.8,0.4,4.6,8.7,9.4,9.9c3.6,1,7.5,5.4,10.9,4.7c4.4-1,7.7-7.4,7.7-7.4s13,14.6,16.7,8.9
		C346.7,182.1,344.8,158,344.8,158z"/>
	
		<linearGradient id="SVGID_21_" gradientUnits="userSpaceOnUse" x1="904.0191" y1="932.4938" x2="904.0191" y2="1005.7527" gradientTransform="matrix(1 0 0 -1 0 1157.8898)">
		<stop  offset="0" style="stop-color:#79BBDF;stop-opacity:0.69"/>
		<stop  offset="1" style="stop-color:#153E54;stop-opacity:0.78"/>
	</linearGradient>
	<path class="st21" d="M911.3,222.2c2.7-3.7,9,0.6,12.9-3.5c3.8-4,9.6-6.5,13.2-4.6c3.5,1.9,6.2-2.9,8.3-5.2
		c2.3-2.1,8.8,0.6,10.8,2.3c1.9,1.7,12.7-1.5,14.6-3.3c1.9-1.7,15-11.2,15.5-15.6c0.4-2.5-22.3-0.6-24.8-5.4
		c-1.7-3.7,2.5-10-1.1-10.2c-8.3-0.2-21.5,15.2-23.8,7.9c-2.3-7.3,3.3-13.9,1.3-14.2c-2.1-0.4-9.8,0.4-11.1,1.7
		c-1.3,1.3-11.3-1.2-10.4-6.2c1-5-6.5-8.1-12.3-4.4c-6,3.7-6.3,21.9-10.9,20.8c-4.6-1-12.5,3.1-19.2,7.5c-4.2,2.7-54.7,4-52.8,12.1
		c0.4,1.9,5.8,14.2,13.2,16.9c5,1.9,11.1-9.8,17.1-10c9.6,0,19.2,10.8,24.8,11.9c0.6,0.2,3.3,6.2,6.7,7.1c2.5,0.6,5.4,3.9,7.9,3.3
		c3.1-0.8,5.6-5.2,5.6-5.2s9.2,10.4,11.9,6.4C911.5,228.3,911.3,222.2,911.3,222.2z"/>
	
		<linearGradient id="SVGID_22_" gradientUnits="userSpaceOnUse" x1="855.0941" y1="970.7767" x2="855.0941" y2="1129.5044" gradientTransform="matrix(1 0 0 -1 0 1157.8898)">
		<stop  offset="0" style="stop-color:#79BBDF;stop-opacity:0.69"/>
		<stop  offset="1" style="stop-color:#153E54;stop-opacity:0.78"/>
	</linearGradient>
	<path class="st22" d="M1049.3,138.5c0,0,9,9.3-5.2,19.9s-29.4,24-35,11.6c-5.6-12.4-9.6-17.2-15.2-13c-5.8,4.3-16,7.2-19.4,1.5
		c-3.3-5.4,6-11-5-12c-11-1-11,6.8-20,6.4c-8.8-0.4-9.6-5.4-12.5-7c-2.7-1.7-13.1,1.9-20.4-0.8c-7.3-2.7-11-1-13.3,4.1
		c-2.5,5-9.4,8.7-15.8,9.5c-6.2,1-13.1,10.1-16,12.2c-2.9,2.1-14.2,6.8-17.9-0.8c-3.7-7.5-11.7-11.4-15.2-8.3
		c-3.3,3.1-17.7,8.5-24.2,16.4c-6.5,7.7-19.4,1.2-23.1,6.8c-3.7,5.6-16,16.4-23.9,18.4c-7.9,2.1-29.6,0.6-33.1-9.9
		c-3.5-10.4,4.2-23-12.9-18.8c-17.1,4.3-77.5,10.4-84.1,1.5c-6.3-8.7,1-28,11-33.4c10-5.2,33.7-7.2,22.3-20.7
		c-11.5-13.5-18.3-25.7-14.8-36c3.5-10.2,11.5-16,35.2-18.8c23.7-2.7,66.6,4.4,84.8,8.5c18.3,4.1,19-8.3,21.7-15.1
		c2.9-6.8,33.1-11.8,59.8-15.3c26.7-3.7,38.7,17,57.9,19.3c19.2,2.1,71-17,76.2-15.7c5.2,1.4,16.7,10.6,16.7,18.2
		c-0.2,7.7,6,6.4,19.4,7.7c13.5,1.4,23.5,5,21.9,14.9c-1.7,10.1,7.9,10.6,16.5,17.8c8.7,7.2,14.4,7.5,2.1,14.5
		c-12.3,7-11.5,12-6,15.7C1068.4,142,1049.3,138.5,1049.3,138.5z"/>
	
		<linearGradient id="SVGID_23_" gradientUnits="userSpaceOnUse" x1="420.1438" y1="1030.2938" x2="420.1438" y2="1117.2891" gradientTransform="matrix(1 0 0 -1 0 1157.8898)">
		<stop  offset="0" style="stop-color:#79BBDF;stop-opacity:0.69"/>
		<stop  offset="1" style="stop-color:#153E54;stop-opacity:0.78"/>
	</linearGradient>
	<path class="st23" d="M372.7,126.4c0,0-4.4,6,8.1,1.9c12.5-4.1,5.2,0.4,11,2.5c5.6,2.1,15.6-1,17.1-4.5c1.5-3.5,8.1-1.9,13.1,3.1
		c5,5,8.1-5,17.3-8.3c9.2-3.3,14.6-10.5,28.1-8.9c13.5,1.5,19.3,2.9,24.3-2.1c5-5-2.1-14.3,10.8-16.8c12.9-2.3,16-2.5,17.9-10.5
		c1.9-8.1,26-9.5-5.6-19.2c-31.6-9.7-25-18.2-48.9-11.4c-23.9,6.8-27.3,5.2-40.4,2.1c-13.1-3.1-20.8-6.4-24.1,0.6
		c-3.1,7-19.3,7.2-31.8,4.3c-12.3-2.9-19.4-6-23.1,0s-4,23.8-18.5,30.4c-14.6,6.6-22.1,19.5-17.3,25.4s19.6,21.7,23.7,17
		c4-4.5,11.7-14.3,14.1-0.6S369.9,129.5,372.7,126.4z"/>
	
		<linearGradient id="SVGID_24_" gradientUnits="userSpaceOnUse" x1="924.6539" y1="1338.8898" x2="924.6539" y2="1096.1426" gradientTransform="matrix(1 0 0 -1 0 1157.8898)">
		<stop  offset="0" style="stop-color:#79BBDF;stop-opacity:0.69"/>
		<stop  offset="1" style="stop-color:#153E54;stop-opacity:0.78"/>
	</linearGradient>
	<path class="st24" d="M809.5-112c11-0.2,12.5,2.3,13.5,6.3c0.8,4,18.7-0.4,19.4,2.7c0.8,3.1,8.5,2.3,16.2,1c7.7-1.3,0.4-5,0-10.8
		c-0.4-5.8,1.1-12.9,5.8-9c4.4,4,2.9,10,10.6,8.6c7.7-1.3,15.8-1.9,17.5-6.3c1.5-4.4,10.2-7.1,16.8-9.4c6.5-2.3,2.1-19.2,6.9-28.6
		c4.8-9.4,14.2-17.5,22.3-15.6c8.1,1.7,6.5,7.7,8.5,5.4c2.1-2.3,4.8-4,11.3,0c6.3,3.8,10.4,3.8,12.1,2.5c1.5-1.3,8.5,0.4,12.1,5.4
		c3.7,5,9.4,5,14.6,6.7c5.2,1.7,17.9,5,22.7-6.7c4.8-11.5,7.3-10.8,9.8-11.1c2.5-0.4,9.4,5.4,9.8-1.7c0.4-7.1,10.6-11.1,13.1-4.4
		c2.5,6.7,15.4,2.7,19.4-1.7c4-4.4,10.6-1.7,17.1,5.4c6.5,7.1,6.9,10.2,6.9,10.2c24.8,12.9,5.2,23.6,15.4,32.7
		c10.2,9,15.4,43.8,18.7,46.5c3.3,2.7,7.7,0,10.2,2.7s6.9,5,6.5,10.2c-0.2,2.9,2.3,5,4.8,6.3v96.4H704l-6.4-8.3
		C699.7,24.6,744.6-111.4,809.5-112z"/>
	
		<linearGradient id="SVGID_25_" gradientUnits="userSpaceOnUse" x1="223.6896" y1="1296.3197" x2="223.6896" y2="1113.4805" gradientTransform="matrix(1 0 0 -1 0 1157.8898)">
		<stop  offset="0" style="stop-color:#79BBDF;stop-opacity:0.69"/>
		<stop  offset="1" style="stop-color:#153E54;stop-opacity:0.78"/>
	</linearGradient>
	<path class="st25" d="M-92.8,33c1.2-1,2.3-3.5,3.5-7.7c2.9-11.7,4.4-14.8,10.2-12.5c5.8,2.3,6.1,1,7.3-9
		c1.2-9.8,10.2-24.2,22.5-25.1c12.3-1,20-11.7,32.1-21.9C-5-53.5-5.6-68.3,23.8-78.5c29.4-10.4,12.7,9,25.2,25.1
		c12.7,16.1,15.9,3.1,18.2-1.7c2.5-5,5.4-2.3,6.1,0c0.8,2.3,1.2,13.4,8.4,3.6c7.3-9.8,7.3-5.4,7.7-3.6c0.4,1.7,12.7,6.3,18.2-2.7
		c5.8-9,10.6-1.7,31.7,6.3c21.1,8.1,17.1,12.5,17.1,1.7c0-10.7,7.7-8.1,19.2-10.4c11.3-2.3,21.5,15.2,22.9,6.3
		c1.2-9,18.2,0,17.1-2.3c-1.2-2.3,2.9-16.1,7.7-22.5c4.8-6.3,4.4-3.6,6.9-1.3c2.5,2.3,1.2,14.4,9.4,20.5c8.1,6.3,14.6,2.3,14.6-1
		c0-3.1,9-19.8,16.7-23.2c7.7-3.6,8.4-16.1,15-17.1c6.5-1,6.9,13.4,9.4,17.5c2.5,4,6.1,2.3,7.3-5.8c1.2-8.1,10.9-8.1,17.9-8.1
		c6.9,0,10.2-5.4,17.5-15.2c7.3-9.8,14.6-6.7,31.7,0c17.1,6.7,22.9,6.7,36.3,5.8c13.4-1,12.7,2.7,18.6,5c6.1,2.3,5.4-1.3,12.7,0
		c7.3,1.3,1.5,18.4,5.4,14.4c3.6-4,15.9-7.1,24.4-7.7c8.5-0.4,18.2,4,28,5.4c9.8,1.3,12.3,4.4,19.2,12.1c6.9,7.7,9.4,16.5,16.3,24.6
		c2.5,2.9,6,6.3,9.6,9.2V33H-92.8z"/>
	
		<linearGradient id="SVGID_26_" gradientUnits="userSpaceOnUse" x1="268.0261" y1="966.2488" x2="268.0261" y2="1054.7698" gradientTransform="matrix(1 0 0 -1 0 1157.8898)">
		<stop  offset="0" style="stop-color:#79BBDF;stop-opacity:0.69"/>
		<stop  offset="1" style="stop-color:#153E54;stop-opacity:0.78"/>
	</linearGradient>
	<path class="st26" d="M386.8,112.9c-1.5,10.8,3.1,22.9-1.7,27c-4.8,4.1-30.7,11.8-35.3,7.7c-4.6-4-20.3-10.6-25.7-5.4
		c-5.6,5.4-11.5,17-20.2,12.5c-8.6-4.4-22.5,1.4-31.7,11.2s-18.6,1.7-34.2-17.9c0,0,3.1,41.1-3.3,50.9c-6.5,9.8-28.8-15.2-28.8-15.2
		s-5.8,11-13.2,12.7c-5.8,1.4-12.7-6.4-18.8-7.9c-8.1-2.1-14.8-16.4-16.1-17c-1.3-0.6,3.3-10.8,0.4-23.5
		c-2.7-11.4-7.9-25.1-9.4-35.5h238C386.8,112.5,386.8,112.7,386.8,112.9z"/>
	
		<linearGradient id="SVGID_27_" gradientUnits="userSpaceOnUse" x1="1048.4928" y1="1004.7098" x2="1048.4928" y2="1123.7554" gradientTransform="matrix(1 0 0 -1 0 1157.8898)">
		<stop  offset="0" style="stop-color:#79BBDF;stop-opacity:0.69"/>
		<stop  offset="1" style="stop-color:#153E54;stop-opacity:0.78"/>
	</linearGradient>
	<path class="st27" d="M1150.2,149.4c-2.7,2.3-6,4.2-9.8,4.8c-3.7,0.6-7.9-4.2-12.3-4.8c-4.8-0.6-11.5,7.4-17.3,9.1
		c-3.8,1.1-7.3-4.8-9.4-3.2c-5.2,3.8-1.9,8.2-5,9.9c-6.3,3.2-10.6-3-19.6-12c-4-4-9,4.2-13.8,1.5c-1.2-0.6-3.3-8.8-5.4-9.9
		c-2.5-1.3-5.2,4.4-6.3,2.9c-3.3-4.4-1.3-8.8-3.5-7.4c-4.2,2.7-2.7-4-7.3-8.4c-2.5-2.3-10-0.4-13.3-3.6c-6-5.9-9-14.1-16.3-17.5
		c-4.4-2.1-10.2,0.8-19.2-1.9c-23.8-6.9-13.8-10.5-35.3-35c-21.7-24.6-0.6-13.1,5.4-18.9c5.8-5.7,8.4-4.2,20.5,0.6
		c12.1,4.8,11.1-6.9,18.1-8.4c6.9-1.5,11.1,2.7,21.7,11c10.6,8.4,19,5.3,28.6,7.4c9.6,2.1,17.5-4.8,19,2.1c1.5,6.9,6.3,11.6,9.6,9.5
		c3.3-2.1,13.3,0.6,16.9,5.3c3.6,4.8-4.8,4.8,7.9,7.8c12.7,3.2,5.8,5.7,5.8,5.7c4.2-1.1,28.6-4.2,23.2,8.4
		c-5.4,12.6,6.3,8.4,12.1,6.9c1.9-0.6,3.5,1.3,5,4.2V149.4L1150.2,149.4z"/>
	
		<linearGradient id="SVGID_28_" gradientUnits="userSpaceOnUse" x1="541.6853" y1="1218.2603" x2="541.6853" y2="1024.2268" gradientTransform="matrix(1 0 0 -1 0 1157.8898)">
		<stop  offset="0" style="stop-color:#79BBDF;stop-opacity:0.69"/>
		<stop  offset="1" style="stop-color:#153E54;stop-opacity:0.78"/>
	</linearGradient>
	<path class="st28" d="M273.5,88.8c3.3-3.5-2.5-48.8-7.3-52.2c-25.3-19.6,3.1-32.4,7.3-40.1c4-7.7,2.9-1.3,3.6,4
		c0.8,5.4,2.1,6.9,3.3-1.7c1.2-8.6,1.7-10.9,3.8-9.2c2.1,1.7,2.3,0.6,2.7-6.7c0.4-7.3,3.8-17.9,8.4-18.6c4.6-0.6,7.5-8.6,12.1-16.3
		c4.6-7.7,4.4-18.6,15.4-26.1c10.9-7.7,4.8,6.7,9.4,18.6c4.8,11.9,6,2.3,6.9-1.3c1-3.6,7.9-1.2,8.4,0c1.7,3.3,4.8,4.6,6.9-1.9
		c2.1-6.7,4-1.3,11.9,4.6s6.3,9.2,6.3,1.3c0-7.9,22.6-3.1,22.1-4.6c-0.4-1.7-2.1-3.1-0.2-7.9c1.9-4.6,4.6-1.3,5.6,0.4
		c1,1.7,0.6,0.6,3.6,5.2c3.1,4.6,5.6,1.7,5.6-0.6c0-2.3-2.7-15.4,0.2-17.9c2.9-2.7,6.9-4.8,9.4-5.6c2.5-0.6,8.3,8.3,8.6,2.1
		c0.4-6,4-6,6.7-6c2.7,0,3.8-4,6.5-11.3c2.7-7.3,5.6-5,11.9,0c6.3,5,8.6,5,13.6,4.2c5-0.6,4.8,1.9,7.1,3.6c2.3,1.7,1.9-1,4.8,0
		c2.7,1,0.6,13.6,1.9,10.6c1.3-3.1,6-5.4,9.2-5.6c3.3-0.4,6.9,3.1,10.6,4c3.6,1,4.6,3.3,7.1,9c2.7,5.6,6,11.3,8.6,17.3
		s8.4,8.3,9,5.2c0.6-3.1,7.9,6,10.6,5c2.7-1,6,5.4,8.1,6.3c2.1,1,3.8,0,3.6,4.6s7.3,8.1,7.9,11.1c1.3,6.5-1,3.6,2.5,3.3
		c3.5-0.4,7.7,6.1,11.7,6.1c4,0,4.8,1.7,5,4.6c0.4,3.1,7.1-0.4,7.3,1.9c0.4,2.3,3.3,1.7,6.1,0.6c2.9-1,2.7,0.4,2.5-3.8
		c-0.2-4.2,4.8-0.4,6.3,2.5c1.7,3.1-1.7,5.2,1.2,4.2c2.9-1,3.6,0.8,4.4-2.5c0.6-3.3,1.9,0.4,4.4-1.3s-4-3.6-2.3-10.7
		c1.9-6.9,5.4-12.9,8.4-11.5c3.1,1.3,2.5,5.6,3.3,4c0.8-1.7,8.3,3.1,8.8,1.9c0.6-1,3.3,0.4,4.6,4c1.3,3.6,8.6,14,10.6,15.4
		c1.9,1.3,2.9-0.8,4.8-9.4c1.9-8.6,5-9.2,6-9.6c1-0.4,9.2-3.8,10.2,1.2c1,5,5.8,1.9,7.3-1.3c1.5-3.3,4-1.3,6.3,4
		c2.5,5.4,2.7,7.7,2.7,7.7c9.4,9.6,7.5-1.5,11.3,5c3.8,6.7,11.7,1.2,13.1,3.1c1.2,1.9,6.5,1.2,7.5,3.1c1,1.9,10.6,6.7,10.4,10.7
		c-0.2,4-20,12.1-19,11.7c1-0.4,4.6-0.4,5.2,3.5c0.6,3.8,3.3,0.4,4,0.2c0.8-0.4,3.5,0,4.4,2.3c1.2,2.3,1.5,6,2.7,6.7
		c1.2,0.6,1.7,1.7,1.2,4.2c-0.4,2.5,0.4,2.5,1.2,6.1c0.8,3.6,1.9,3.1,5.2,3.1c3.3,0,7.1-5.4,7.3-3.6c0.4,1.7,2.7,4.2,3.3,5.2
		c0.6,1,1.9,1.3,2.3,0.4c0.4-1,3.3,1.7,3.5,4.2c0.4,2.7,1.7,1.7,1.7,1.7s3.3,0,4,2.5c0.8,2.5,3.1,1.5,4.8,0.6c1.9-1,2.5-0.4,6,0
		c3.5,0.4,6.1,5.4,6.1,5.4c0.6,1,1.7,1.9,2.3-5.2c0.2-1.7,7.3-4.2,12.7,0c1.7,1.3,1.2,5,1.7,10.2c0.4,3.6,4.4,1.9,4.4,1.9
		c4-1.7,6.9-2.3,16.5,9.8c9.6,12.3,12.1,22.6,24.2,27.8c11.5,5-15,12.1-19.6,40.5H298.6c-4.4-10.2-7.3-20.7-18.4-28.4
		C249.5,95.7,270.2,92.2,273.5,88.8z"/>
	
		<linearGradient id="SVGID_29_" gradientUnits="userSpaceOnUse" x1="222.9249" y1="1032.4067" x2="222.9249" y2="1096.5084" gradientTransform="matrix(1 0 0 -1 0 1157.8898)">
		<stop  offset="0" style="stop-color:#79BBDF;stop-opacity:0.69"/>
		<stop  offset="1" style="stop-color:#153E54;stop-opacity:0.78"/>
	</linearGradient>
	<path class="st29" d="M153.6,125.5c1-6.9-1.7-15,1-17.5c2.9-2.7,17.9-7.7,20.6-5s11.7,6.9,15,3.5s6.7-11,11.7-8.1
		c5,2.9,13.1-1,18.5-7.3c5.4-6.5,10.8-1.2,19.8,11.7c0,0-1.7-26.7,1.9-33.1c3.7-6.4,16.7,9.8,16.7,9.8s3.3-7.1,7.7-8.3
		c3.5-0.8,7.3,4.2,11,5.2c4.6,1.3,8.7,10.8,9.2,11.2c0.8,0.4-1.9,7.1-0.2,15.4c2.1,10,6.7,22.5,5.8,29.4H159.6
		C156.1,129.5,153.3,127.6,153.6,125.5z"/>
	
		<linearGradient id="SVGID_30_" gradientUnits="userSpaceOnUse" x1="558.1125" y1="967.2401" x2="557.1445" y2="1083.4775" gradientTransform="matrix(1 0 0 -1 0 1157.8898)">
		<stop  offset="0" style="stop-color:#79BBDF;stop-opacity:0.69"/>
		<stop  offset="1" style="stop-color:#153E54;stop-opacity:0.78"/>
	</linearGradient>
	<path class="st30" d="M775,121.7c-3.5,9.7,6.7,11.9,15,20.2c8.1,8.4,14.2,9.7,0,14.8c-14.2,5.1-14.2,10.1-8.8,14.8
		c5.4,4.7-14.2-1.8-14.2-1.8s8.1,10.5-8.8,19.1c-17.1,8.4-35.3,19.5-39.4,6.4c-4-13-7.5-18.5-14.2-15.2s-18.4,4.7-21.1-1.4
		c-2.7-5.8,8.1-10.1-3.5-12.7s-12.9,5.1-22.5,3.3c-9.6-1.8-9.6-6.8-12.3-9c-2.7-2.1-14.2,0-21.7-3.9c-7.5-3.9-11.5-2.5-15,2.1
		c-3.5,4.7-11.5,7.2-18.4,7.2c-6.7,0-15.6,8-19,9.7c-3.5,1.8-16.3,4.7-19-3.3c-2.7-8-11-13-15-10.5c-4,2.5-20.4,5.8-28.6,12.6
		c-8.1,6.8-21.1-1.8-25.9,3.3s-19.8,13.8-28.6,14.8c-8.8,0.8-31.9-3.7-34-14.8c-2.1-10.9,8.1-22.4-11-20.6
		c-19,1.8-85.1-1.2-90.5-10.9c-5.4-9.7,5.4-27.8,17.1-31.7c9.6-3.1,29.4-2.5,29.6-11.1h388.5c0.2,0,0.4,0,0.6,0.2
		C768.3,106.9,778.5,111.9,775,121.7z"/>
	
		<linearGradient id="SVGID_31_" gradientUnits="userSpaceOnUse" x1="952.9375" y1="905.3538" x2="952.9375" y2="1123.604" gradientTransform="matrix(1 0 0 -1 0 1157.8898)">
		<stop  offset="0" style="stop-color:#79BBDF;stop-opacity:0.69"/>
		<stop  offset="1" style="stop-color:#153E54;stop-opacity:0.78"/>
	</linearGradient>
	<path class="st31" d="M1140.4,252c-6.7,6.6-18.1,8.9-20.7-2.5c-2.7-11.4,8.1-19.5-3.3-24.3c-11.5-4.8-12.9,9.6-22.1,6.6
		c-9.4-3.3-9.4-12.9-12.1-17c-2.7-4-14,0-21.5-7.3c-7.3-7.3-11.3-4.8-14.8,4c-3.3,8.9-11.3,13.7-18.1,13.7
		c-6.7,0-15.3,15.4-18.8,18.5c-3.5,3.3-16.1,8.9-18.8-6.6c-2.7-15.4-10.8-25.1-14.8-20.2c-4,4.8-20.1,11.4-28.2,24.3
		c-8.1,12.9-20.7-3.3-25.5,6.6c-1.9,4-13.1,6.4-17.3,11.4c-6,6.9-6,16-10.9,17c-4,0.8-10.8-21-17.3-24.9c-7.9-4.4-15.2,8.1-16.3-3.5
		c-1.9-21,8.1-42.8-10.8-39.5c-9.4,1.5-30.3,18.5-49.7,15.2c-9.4-1.5-8.6-10.6-15.7-17.9c-4-4.2-10.6,3.9-15.6,0.6
		c-4.2-2.7-7.7-16.8-8.3-18.9c-1.7-6-6.9-16.8-5.4-29.1c0.6-5.4,8.4-11,8.4-16.8c0-7.1,6.7-14.3,6.3-20.6c-1-13.3-9.2-23.7-5-26.4
		c11.3-7.3,29.4,11.6,39.4-0.8c8.6-10.8,5.6-23.5,0.6-36h347.5v208.2C1148.6,252,1145.5,247,1140.4,252z"/>
	
		<linearGradient id="SVGID_32_" gradientUnits="userSpaceOnUse" x1="53.2257" y1="1031.5828" x2="53.2257" y2="1088.0527" gradientTransform="matrix(1 0 0 -1 0 1157.8898)">
		<stop  offset="0" style="stop-color:#79BBDF;stop-opacity:0.69"/>
		<stop  offset="1" style="stop-color:#153E54;stop-opacity:0.78"/>
	</linearGradient>
	<path class="st32" d="M-12.6,126.1c13.4-1.5,17.1-9.6,25.3-14.9c8.2-5.2,9-15.5,15-11.9c5.9,3.6,12.7,3.6,13.4,0
		c0.8-3.6,9.6-9,15.5-8.2c5.9,0.8,0,6.7,11.1,0s8.2,0,8.2,0c2.3-3.6,17.1-23,22.3-10.3c5.2,12.6,10.4,1.5,13.4-3.6
		c2.9-5.2,20.9,6.7,26.9,11.1c5.9,4.4,1.5,18.6-11.1,28.1c-5.8,4.4-8.1,10.3-9.2,16.1H-34.7C-31.2,127.4-25.1,127.4-12.6,126.1z"/>
	
		<linearGradient id="SVGID_33_" gradientUnits="userSpaceOnUse" x1="51.6977" y1="978.5237" x2="51.6977" y2="1053.3087" gradientTransform="matrix(1 0 0 -1 0 1157.8898)">
		<stop  offset="0" style="stop-color:#79BBDF;stop-opacity:0.69"/>
		<stop  offset="1" style="stop-color:#153E54;stop-opacity:0.78"/>
	</linearGradient>
	<path class="st33" d="M170.1,121.7c3.7,2.9-2.5,5.7,0.6,8.2c6.7,5.5,21.2,10.1,21.4,13.2c0.6,9.5,9.2,22,4,24.4
		c-2.1,1.1-3.9,6.7-11.2,5c-5.4-1.3-16.2-9.9-21.2-10.5c-4.6-0.6-8.5,5.9-10.4,4.4c-6.9-5-28.1-14.7-33.9-11.1
		c-5.8,3.6-10.6,13-22.5,6.9c-11.9-6.1-28.1-4-37.5,3.1c-6,4.4-6.4,2.1-17.5-5.7c-1.7-1.3-5.6,4.6-9.4,3.1
		c-3.5-1.3-6.7-10.1-8.7-11.6c-3.7-3.1-6.9-7.6-11.7-5.5c0,0-1.3,5.2,1.3,15.8c2.7,10.5,9.2,21.8,6.4,25.4c-2.7,3.4-6.7-4.6-15.4-8
		c-4-1.5-12.9,3.6-16.2,1.1c-5-3.8-8.5-13.9-8.5-13.9s-4.6,9-13.7,8.6c-7.1-0.2-17.5-8.8-25.6-11.6c-10.8-3.8-22.7-18.7-24.3-19.5
		c-1.7-1,1.7-9.2-5.2-21.8c-1.5-2.9-3.5-5.9-5.2-9h248.8c0.4,1,1,1.9,1.7,2.7C157.9,117.7,167.6,119.8,170.1,121.7z"/>
	
		<linearGradient id="SVGID_34_" gradientUnits="userSpaceOnUse" x1="217.5744" y1="1060.3003" x2="217.5744" y2="1113.7181" gradientTransform="matrix(1 0 0 -1 0 1157.8898)">
		<stop  offset="0" style="stop-color:#79BBDF;stop-opacity:0.69"/>
		<stop  offset="1" style="stop-color:#153E54;stop-opacity:0.78"/>
	</linearGradient>
	<path class="st34" d="M214.4,87.3c6.3,2.9,9.7,3.7,10.7,0c1-3.7,3.6-7,6.3-7c2.7,0,2.7-3.7,3.4-5.8c0.8-2.1,5.4-2.5,7.1-2.1
		c1.7,0.4,7.1-4.8,7.6-6.6c0.8-1.5-2.1-4.1-3.1-7c-1-2.9-7.6-11-12.8-8.5c-5,2.5-8,15.9-11.7,12.2c-3.6-3.7-2.3-9.5-3.6-8.9
		c-1.3,0.4-5.7,3.3-6.1,4.5c-0.4,1.2-7.1,2.9-8-0.4c-1-3.3-6.3-2.9-8.8,1.2c-2.3,4.1,3.1,15.1,0,15.9c-3.1,0.8-6.5,5.8-9.2,10.6
		c-2.7,4.8,1.1,18,11.1,18c1,0,7.5-7.7,13-7.7c5.5,0,9.2,7.7,9.4,4.5C220.5,97,214.4,87.3,214.4,87.3z"/>
	
		<linearGradient id="SVGID_35_" gradientUnits="userSpaceOnUse" x1="352.111" y1="1110.7515" x2="352.111" y2="1164.1694" gradientTransform="matrix(1 0 0 -1 0 1157.8898)">
		<stop  offset="0" style="stop-color:#79BBDF;stop-opacity:0.69"/>
		<stop  offset="1" style="stop-color:#153E54;stop-opacity:0.78"/>
	</linearGradient>
	<path class="st35" d="M348.9,36.8c6.3,2.9,9.7,3.7,10.7,0c1-3.7,3.6-7,6.3-7c2.7,0,2.7-3.7,3.4-5.8c0.8-2.1,5.4-2.5,7.1-2.1
		c1.7,0.4,7.1-4.8,7.6-6.6c0.8-1.5-2.1-4.1-3.1-7c-1-2.9-7.6-11-12.8-8.5c-5,2.5-8,15.9-11.7,12.2c-3.6-3.7-2.3-9.5-3.6-8.9
		c-1.3,0.4-5.7,3.3-6.1,4.5c-0.4,1.2-7.1,2.9-8-0.4c-1-3.3-6.3-2.9-8.8,1.2c-2.3,4.1,3.1,15.1,0,15.9c-3.1,0.8-6.5,5.8-9.2,10.6
		c-2.7,4.8,1.1,18,11.1,18c1,0,7.5-7.7,13-7.7s9.2,7.7,9.4,4.5C355,46.5,348.9,36.8,348.9,36.8z"/>
	
		<linearGradient id="SVGID_36_" gradientUnits="userSpaceOnUse" x1="686.16" y1="1069.473" x2="686.16" y2="1122.891" gradientTransform="matrix(1 0 0 -1 0 1157.8898)">
		<stop  offset="0" style="stop-color:#79BBDF;stop-opacity:0.69"/>
		<stop  offset="1" style="stop-color:#153E54;stop-opacity:0.78"/>
	</linearGradient>
	<path class="st36" d="M682.9,78.1c6.5,2.9,10,3.7,11,0c1-3.7,3.7-7,6.5-7c2.7,0,2.7-3.7,3.5-5.8c0.8-2.1,5.5-2.5,7.2-2.1
		c1.8,0.4,7.2-4.8,7.8-6.6c0.8-1.5-2.2-4.1-3.1-7c-1-2.9-7.8-11-13.1-8.5c-5.1,2.5-8.2,15.9-11.9,12.2c-3.7-3.7-2.3-9.5-3.7-8.9
		c-1.4,0.4-5.9,3.3-6.3,4.5s-7.2,2.9-8.2-0.4c-1-3.3-6.5-2.9-9,1.2c-2.3,4.1,3.1,15.1,0,15.9c-3.1,0.8-6.7,5.8-9.4,10.6
		c-2.7,4.8,1.2,18,11.3,18c1,0,7.6-7.7,13.3-7.7c5.7,0,9.4,7.7,9.6,4.5C689.2,88,682.9,78.1,682.9,78.1z"/>
	
		<linearGradient id="SVGID_37_" gradientUnits="userSpaceOnUse" x1="518.7532" y1="1093.3192" x2="518.7532" y2="1126.8962" gradientTransform="matrix(1 0 0 -1 0 1157.8898)">
		<stop  offset="0" style="stop-color:#79BBDF;stop-opacity:0.69"/>
		<stop  offset="1" style="stop-color:#153E54;stop-opacity:0.78"/>
	</linearGradient>
	<path class="st37" d="M499.2,61.6c0,0-2.1,1.8,2.7,1.4c4.9-0.4,1.8,0.6,3.7,2c1.8,1.2,5.7,1,6.4,0c0.8-1.2,3.1,0,4.3,2.4
		c1.4,2.2,3.3-1,6.8-1.4c3.5-0.4,6.3-2.4,10.7-0.6c4.7,1.8,6.6,2.8,8.8,1.6c2.1-1.4,0.6-5.4,5.3-5c4.9,0.4,5.9,0.6,7.2-2.2
		c1.4-2.8,10.2-1-0.2-7.4s-7.2-9-16.4-8.6c-9.2,0.2-10.2-0.6-14.7-3c-4.3-2.4-6.8-4.2-8.6-2c-1.8,2.2-7.4,0.8-11.7-1.4
		c-4.1-2.2-6.3-4-8.2-2.2c-2,1.8-3.5,8.2-9.4,9.4c-5.9,1-9.6,5-8.4,7.6c1.2,2.6,5.1,9.6,6.8,8.4c2-1.2,5.5-4,5.1,1
		C489.6,66.4,497.8,62.4,499.2,61.6z"/>
	
		<linearGradient id="SVGID_38_" gradientUnits="userSpaceOnUse" x1="697.6262" y1="935.3558" x2="697.6262" y2="964.3538" gradientTransform="matrix(1 0 0 -1 0 1157.8898)">
		<stop  offset="0" style="stop-color:#79BBDF;stop-opacity:0.69"/>
		<stop  offset="1" style="stop-color:#153E54;stop-opacity:0.78"/>
	</linearGradient>
	<path class="st38" d="M684.9,211.7c0,0-1.5,0.4,1.2,1.4c2.7,1,0.8,0.8,1.5,1.9c0.6,1.2,2.7,1.9,3.5,1.8c0.8-0.4,1.5,0.8,1.7,2.3
		c0.2,1.6,2.1,0.2,4,1c1.9,0.8,3.9,0.4,6,2.5c2.1,2.1,2.9,3.1,4.4,3.1c1.5-0.2,1.7-2.7,4-1.4c2.5,1.4,3.1,1.8,4.4,0.8
		c1.3-1.2,5.6,2.1,1.7-4.1c-4-6-1.7-6.6-6.6-8.8c-5-2.1-5.4-2.9-7.1-5.3c-1.7-2.3-2.7-4.1-4-3.3c-1.5,0.8-4.2-1.6-6-3.7
		s-2.3-3.7-3.9-3.3c-1.5,0.6-4,3.5-7.3,2.5c-3.3-1-6.4,0.2-6.4,1.8c0,1.6,0.4,6.4,1.5,6.2c1.3-0.2,3.9-0.8,2.5,1.9
		C678.5,211.9,683.9,211.9,684.9,211.7z"/>
	
		<linearGradient id="SVGID_39_" gradientUnits="userSpaceOnUse" x1="1004.9171" y1="972.0478" x2="1004.9171" y2="1001.0458" gradientTransform="matrix(1 0 0 -1 0 1157.8898)">
		<stop  offset="0" style="stop-color:#79BBDF;stop-opacity:0.69"/>
		<stop  offset="1" style="stop-color:#153E54;stop-opacity:0.78"/>
	</linearGradient>
	<path class="st39" d="M992.2,175.2c0,0-1.5,0.4,1.2,1.4c2.7,1,0.8,0.8,1.5,1.9c0.6,1.2,2.7,1.9,3.5,1.6c0.8-0.4,1.5,0.8,1.7,2.3
		c0.2,1.6,2.1,0.2,4.1,1c1.9,0.8,3.8,0.4,6,2.5s2.9,3.1,4.4,3.1c1.5-0.2,1.7-2.7,4-1.4c2.5,1.4,3.1,1.8,4.4,0.8
		c1.3-1.2,5.6,2.1,1.7-4.1c-4-6-1.7-6.6-6.5-8.8c-5-2.1-5.4-2.9-7.1-5.3c-1.7-2.3-2.7-4.1-4-3.3c-1.5,0.8-4.2-1.6-6-3.7
		c-1.7-2.1-2.3-3.7-3.9-3.3c-1.5,0.6-4,3.5-7.3,2.5c-3.3-1-6.4,0.2-6.4,1.8s0.4,6.4,1.5,6.2c1.3-0.2,3.9-0.8,2.5,1.9
		C986,175.2,991.2,175.2,992.2,175.2z"/>
	
		<linearGradient id="SVGID_40_" gradientUnits="userSpaceOnUse" x1="959.8215" y1="1073.8502" x2="959.8215" y2="1139.4779" gradientTransform="matrix(1 0 0 -1 0 1157.8898)">
		<stop  offset="0" style="stop-color:#79BBDF;stop-opacity:0.69"/>
		<stop  offset="1" style="stop-color:#153E54;stop-opacity:0.78"/>
	</linearGradient>
	<path class="st40" d="M948.6,71.8c5.8,7.3,9.3,10.4,12.8,6.7c3.5-3.7,8.8-5.8,12.1-4.2c3.3,1.7,5.4-2.7,7.6-4.6s8,0.4,9.7,1.9
		c1.8,1.5,11.5-1.3,13.2-2.9c1.8-1.5,0.2-6,0.8-10c0.4-2.3-6.8-4.6-8.9-8.8c-1.6-3.3,2.3-9-1-9.2c-7.6-0.2-19.6,13.7-21.8,7.1
		c-2.1-6.5,2.9-12.5,1.2-12.9c-1.9-0.4-8.9,0.2-10.1,1.5c-1.2,1.2-10.3-1-9.3-5.6c0.8-4.4-5.8-7.3-11.3-4
		c-5.4,3.3-5.8,19.6-9.9,18.7c-4.1-1-11.3,2.7-17.5,6.7c-3.7,2.5,0.6,11.9,2.3,19.2c1.2,4.8-0.6,8.5-0.2,8.8c0.4,0.2,2.9,5.6,6,6.3
		c2.3,0.6,4.9,3.5,7,2.9c2.9-0.6,5.1-4.8,5.1-4.8s8.4,9.2,10.9,5.6C949.8,87,948.6,71.8,948.6,71.8z"/>
	
		<linearGradient id="SVGID_41_" gradientUnits="userSpaceOnUse" x1="486.6478" y1="1154.8779" x2="486.6478" y2="1220.5056" gradientTransform="matrix(1 0 0 -1 0 1157.8898)">
		<stop  offset="0" style="stop-color:#79BBDF;stop-opacity:0.69"/>
		<stop  offset="1" style="stop-color:#153E54;stop-opacity:0.78"/>
	</linearGradient>
	<path class="st41" d="M475.9-9.4c5.7,7.3,9.2,10.4,12.6,6.7c3.4-3.7,8.6-5.8,11.7-4.2c3.2,1.7,5.4-2.7,7.5-4.6
		c2.1-1.9,7.8,0.4,9.6,1.9c1.7,1.5,11.3-1.3,13-2.9c1.7-1.5,0.2-6,0.8-10c0.4-2.3-6.7-4.6-8.8-8.8c-1.5-3.3,2.3-9-1-9.2
		c-7.5-0.2-19.3,13.7-21.4,7.1c-2.1-6.5,2.9-12.5,1.1-12.9c-1.9-0.4-8.8,0.2-9.9,1.5c-1.1,1.2-10.1-1-9.2-5.4
		c0.8-4.4-5.7-7.3-11.1-4c-5.4,3.3-5.7,19.6-9.7,18.7c-4-1-11.1,2.7-17.2,6.7c-3.6,2.5,0.6,11.9,2.3,19.2c1.1,4.8-0.6,8.5-0.2,8.8
		c0.4,0.2,2.9,5.6,5.9,6.3c2.3,0.6,4.8,3.5,6.9,2.9c2.9-0.6,5-4.8,5-4.8s8.2,9.2,10.7,5.6C477,6,475.9-9.4,475.9-9.4z"/>
	
		<linearGradient id="SVGID_42_" gradientUnits="userSpaceOnUse" x1="-17.8652" y1="1064.6771" x2="-17.8652" y2="1130.3048" gradientTransform="matrix(1 0 0 -1 0 1157.8898)">
		<stop  offset="0" style="stop-color:#79BBDF;stop-opacity:0.69"/>
		<stop  offset="1" style="stop-color:#153E54;stop-opacity:0.78"/>
	</linearGradient>
	<path class="st42" d="M-28.7,81c5.7,7.3,9.2,10.4,12.6,6.7s8.6-5.8,11.7-4.2c3.2,1.7,5.4-2.7,7.5-4.6c2.1-1.9,7.8,0.4,9.6,1.9
		c1.7,1.5,11.3-1.3,13-2.9c1.7-1.5,0.2-6,0.8-10c0.4-2.3-6.7-4.6-8.8-8.8c-1.5-3.3,2.3-9-1-9.2C9.2,49.6-2.7,63.5-4.8,56.9
		C-6.9,50.4-1.9,44.4-3.6,44c-1.9-0.4-8.8,0.2-9.9,1.5c-1.1,1.2-10.1-1-9.2-5.6c0.8-4.4-5.7-7.3-11.1-4c-5.4,3.3-5.7,19.6-9.7,18.7
		c-4-1-11.1,2.7-17.2,6.7c-3.6,2.5,0.6,11.9,2.3,19.2c1.1,4.8-0.6,8.5-0.2,8.8c0.4,0.2,2.9,5.6,5.9,6.3c2.3,0.6,4.8,3.5,7.1,2.9
		c2.9-0.6,5-4.8,5-4.8s8.2,9.2,10.7,5.6C-27.5,96.2-28.7,81-28.7,81z"/>
	<g>
		<circle class="st43" cx="840" cy="237.3" r="4.3"/>
	</g>
	<circle class="st43" cx="840" cy="237.3" r="4.3"/>
	<g>
		<circle class="st43" cx="98.3" cy="209.4" r="4.3"/>
	</g>
	<circle class="st43" cx="98.3" cy="209.4" r="4.3"/>
	<g>
		<circle class="st43" cx="587" cy="76.5" r="4.3"/>
	</g>
	<circle class="st43" cx="587" cy="76.5" r="4.3"/>
	<g>
		<circle class="st43" cx="574.2" cy="691.7" r="4.3"/>
	</g>
	<circle class="st43" cx="574.2" cy="691.7" r="4.3"/>
	<g>
		<circle class="st43" cx="975" cy="668.2" r="4.3"/>
	</g>
	<circle class="st43" cx="975" cy="668.2" r="4.3"/>
	<g>
		<circle class="st43" cx="332" cy="215.9" r="4.3"/>
	</g>
	<circle class="st43" cx="332" cy="215.9" r="4.3"/>
	
		<linearGradient id="SVGID_43_" gradientUnits="userSpaceOnUse" x1="1179.292" y1="806.1293" x2="-130.9518" y2="806.1255" gradientTransform="matrix(1 0 0 -1 0 1157.8898)">
		<stop  offset="0" style="stop-color:#FEFEFE;stop-opacity:0"/>
		<stop  offset="1" style="stop-color:#FFFFFF"/>
	</linearGradient>
	<rect x="-102.3" y="349.5" class="st44" width="1223.1" height="4.6"/>
	
		<linearGradient id="SVGID_44_" gradientUnits="userSpaceOnUse" x1="192.758" y1="631.4138" x2="192.758" y2="677.2007" gradientTransform="matrix(1 0 0 -1 0 1157.8898)">
		<stop  offset="0" style="stop-color:#79BBDF;stop-opacity:0.69"/>
		<stop  offset="1" style="stop-color:#153E54;stop-opacity:0.78"/>
	</linearGradient>
	<path class="st45" d="M58.3,502.1l-25.2,11.6c-3.3,1.5-5.4,4.8-5.4,8.5c0,5.1,4.2,9.3,9.3,9.3h311.3c5.3,0,9.6-4.3,9.6-9.6
		c0-3.5-1.9-6.7-5-8.4l-21.3-11.8c-2.4-1.3-5-2-7.8-2h-21.5c-4.3,0-8.4,1.7-11.4,4.8l-6.8,6.9c-3,3.1-7.1,4.8-11.4,4.8h-23.8
		c-2,0-4.1-0.4-6-1.2l-38.2-15.4l-31.2-11.3c-4.7-1.7-9.9-1.1-14.1,1.6l-34.5,22.3c-3.9,2.5-8.8,3.2-13.3,1.9l-42-12.7
		C65.8,500.2,61.8,500.5,58.3,502.1z"/>
	
		<linearGradient id="SVGID_45_" gradientUnits="userSpaceOnUse" x1="779.8275" y1="621.4478" x2="779.8275" y2="702.3378" gradientTransform="matrix(1 0 0 -1 0 1157.8898)">
		<stop  offset="0" style="stop-color:#79BBDF;stop-opacity:0.69"/>
		<stop  offset="1" style="stop-color:#153E54;stop-opacity:0.78"/>
	</linearGradient>
	<path class="st46" d="M553.8,468.4c-19.1,13.7-48,34.4-61,43.8c-4.1,3-6.5,7.7-6.5,12.8v4.2c0,8.8,7.2,16,16,16h555.1
		c8.8,0,16-7.2,16-16v-4.5c0-4.9-2.3-9.6-6.2-12.5c-17.4-13.3-44.5-32.9-49.8-32.1c-7.5,1.2-59.7,36.8-68.4,36.8
		s-102-17.2-116.9-25.8c-14.9-8.6-87.1-27-94.5-27c-7.5,0-56,30.7-67.2,27c-8.4-2.8-68.7-17.1-103.6-25.4
		C562.2,464.8,557.5,465.7,553.8,468.4z"/>
	
		<linearGradient id="SVGID_46_" gradientUnits="userSpaceOnUse" x1="560.4384" y1="516.5778" x2="560.4384" y2="772.9838" gradientTransform="matrix(1 0 0 -1 0 1157.8898)">
		<stop  offset="0" style="stop-color:#79BBDF;stop-opacity:0.69"/>
		<stop  offset="1" style="stop-color:#153E54;stop-opacity:0.78"/>
	</linearGradient>
	<path class="st47" d="M-49.1,412.2c-4.8,1.7-9.2,3.5-13.5,5.2v157.7c2.1,0.2,2.7,2.1,3.5,7.1c1.2,6.9,9.8,17.3,21.7,17.9
		c11.9,0.6,19.4,8.3,31.2,15.6c11.9,7.3,6.3,16.3,34.8,23.6c28.5,7.3,17.3-5,29.6-16.3c12.3-11.5,6-2.5,8.3,1s9.8,0.8,10.6-0.8
		c0.8-1.5,5.8-8.5,12.9-1.3c7.1,6.9,7.1,3.8,7.5,2.5c0.4-1.3,12.3-4.4,17.7,1.9c5.6,6.3,10.2,1.3,30.8-4.4
		c20.6-5.8,16.5-8.8,16.5-1.3c0,7.7,7.5,5.8,18.5,7.3c11,1.5,21-10.8,22.1-4.4c1.2,6.3,17.7,0,16.5,1.5c-1.2,1.5,0.4,4.6,5.2,9
		c4.8,4.4,6.7,2.5,9,1c2.3-1.5,1.2-3.3,9-7.7c7.9-4.4,14.2-1.5,14.2,0.6c0,2.3,8.7,14,16.2,16.5s8.3,11.5,14.6,12.1
		c6.3,0.6,6.7-9.6,9-12.5c2.3-2.9,6-1.5,7.1,4.2s10.6,5.8,17.3,5.8c6.7,0,9.8,3.8,16.9,10.8c7.1,6.9,14.2,4.8,30.8,0
		c16.5-4.8,22.1-4.8,35.2-4.2c13.1,0.6,12.3-1.9,18.1-3.5c6-1.5,5.2,1,12.3,0c7.1-1,1.5-13.1,5.2-10.2c3.5,2.9,15.4,5.2,23.7,5.4
		c8.3,0.4,17.7-2.9,27.3-3.8c9.4-1,11.9-3.3,18.5-8.6c6.7-5.4,9-11.7,15.8-17.5c6.7-5.8,21.7-14.4,23.3-11.5
		c1.5,2.9,8.7,4.2,13.5,2.5c4.8-1.5,13.5-1,20.6,0c7.1,1,9.4-0.6,12.3-2.9c2.7-2.3,3.1-2.3,8.7-3.3c5.6-1,9.8,0,9.4-4.4
		c-0.4-4.4,0-7.9,7.5-6.1c7.5,1.9,7.1,2.3,9.8-4.2c2.7-6.3,5.6-2.9,14.2-2.5c8.7,0.4,9,0.6,9-4.2c0-4.8,5.6-2.9,16.2-2.9
		c10.6,0,12.3-1.5,13.1-4.4c0.8-2.9,18.1,0.4,19-1.9c0.8-2.3,8.3-1.5,15.8-0.6c7.5,1,0.4,3.5,0,7.7c-0.4,4.2,1.2,9.2,5.6,6.3
		c4.4-2.9,2.7-7.1,10.2-6.1c7.5,1,15.4,1.3,16.9,4.6c1.5,3.3,9.8,5.2,16.2,6.7c6.3,1.5,1.9,13.6,6.7,20.4
		c4.8,6.7,13.8,12.5,21.7,11.1c7.9-1.3,6.3-5.4,8.3-3.8c1.9,1.5,4.8,2.9,11,0c6.3-2.9,10.2-2.9,11.9-1.9c1.5,1,8.3-0.4,11.9-3.8
		c3.5-3.5,9-3.5,14.2-4.8c5.2-1.3,17.3-3.5,22.1,4.8c4.8,8.3,7.1,7.7,9.4,7.9c2.3,0.4,9-3.8,9.4,1.3c0.4,5.2,10.2,7.9,12.7,3.3
		c2.3-4.8,15-1.9,19,1.3c4,3.3,20.6,13.6,26.7,8.6c6.4-5.2,6.7-7.3,6.7-7.3c24-9.2,5.2-16.9,15-23.2c9.8-6.3,15-31.1,18.1-33
		c3.1-1.9,7.5,0,9.8-1.9c2.3-1.9,6.7-3.5,6.4-7.3c-0.4-3.8,7.9-5.8,10.2-5.4c2.3,0.4,11.9,0.4,13.5-3.5c1.5-3.7,8.3-0.4,10.2-0.2
		c1.9,0.4,8.7,0,11.5-2.3c2.7-2.3,4-5.8,6.7-6.3c2.7-0.6,4.4-1.5,3.1-4c-1.2-2.3,1.2-2.3,3.1-6c1.9-3.5,5.2-2.9,13.5-2.9
		s7.5,6.5,19,3.5c2.1-0.6,6.7-4.2,8.3-5c1.5-0.8,5.2-1.3,6-0.4c0.8,1,6,0,6,0s2.3-1.5,3.1-4c0.8-2.5,4.4-1.5,4.4-1.5s3.5,0,5.2,1.3
		c1.5,1.3,3.1-1.3,5.2-3.7c1.9-2.3,8.7-3.1,12.7-0.6c19,12.3,27.3,4.6,34.6,1.3V412.2H-49.1z"/>
	
		<linearGradient id="SVGID_47_" gradientUnits="userSpaceOnUse" x1="1091.7079" y1="599.8968" x2="1091.7079" y2="778.4658" gradientTransform="matrix(1 0 0 -1 0 1157.8898)">
		<stop  offset="0" style="stop-color:#79BBDF;stop-opacity:0.69"/>
		<stop  offset="1" style="stop-color:#153E54;stop-opacity:0.78"/>
	</linearGradient>
	<path class="st48" d="M1004.8,484.9c1.3,10.7-1.9,23,1.9,27.2c3.9,4.2,18.3,40.6,22,36.6c3.7-4,18.5-37.9,22.9-32.6
		c4.4,5.6,12.3,17,19.1,12.8c6.6-4.4,17.5,1.9,25,12.1s7.9,27.2,19.8,7.7c0,0,5,16.3,10.2,26.2c5.2,10,22.3-14.6,22.3-14.6
		s24.8,14.9,30.8-8.8v-86c-10.2-7.9-20.6-13.2-27-11.5c-8.5,2.3-10.2-42-21.4-51.3c-11.4-9.4-25-2.1-23.1,10.2
		c1.9,12.1-16.8,17.6-19.3,14.4c-2.5-3.4-17.1-5.6-21-4.8c-3.9,0.8,7.1,17.1,3.1,34.9c-4.1,17.8-29.7-20.7-45.4-20.5
		C1008.8,437,1003.4,474.1,1004.8,484.9z"/>
	
		<linearGradient id="SVGID_48_" gradientUnits="userSpaceOnUse" x1="727.0837" y1="599.4598" x2="727.0837" y2="703.2438" gradientTransform="matrix(1 0 0 -1 0 1157.8898)">
		<stop  offset="0" style="stop-color:#79BBDF;stop-opacity:0.69"/>
		<stop  offset="1" style="stop-color:#153E54;stop-opacity:0.78"/>
	</linearGradient>
	<path class="st49" d="M744.3,538.6c-9,11.5-14.6,16.3-19.9,10.5c-5.4-5.8-13.4-9.1-18.4-6.6c-5,2.7-8.4-4.1-11.7-7.4
		c-3.3-3.1-12.3,0.8-14.9,3.1c-2.7,2.3-17.6-2.1-20.5-4.5c-2.9-2.3-0.2-9.5-1-15.7c-0.6-3.5,10.5-7.2,13.8-14
		c2.5-5.2-3.4-14.2,1.5-14.4c11.7-0.4,30.1,21.6,33.3,11.1c3.3-10.5-4.6-19.6-1.7-20.2c2.9-0.6,13.6,0.4,15.5,2.3
		c1.7,1.9,15.7-1.6,14.6-8.7c-1.3-7,9-11.5,17.2-6.2c8.2,5.2,8.8,30.9,15.1,29.5c6.3-1.4,17.4,4.3,27,10.7
		c5.7,3.9-0.8,18.8-3.6,30.3c-1.7,7.4,1,13.4,0.2,13.8c-0.8,0.4-4.6,8.7-9.4,9.9c-3.6,1-7.5,5.4-10.9,4.7c-4.4-1-7.7-7.4-7.7-7.4
		s-13,14.6-16.7,8.9C742.4,562.7,744.3,538.6,744.3,538.6z"/>
	
		<linearGradient id="SVGID_49_" gradientUnits="userSpaceOnUse" x1="185.1133" y1="551.8257" x2="185.1133" y2="625.0848" gradientTransform="matrix(1 0 0 -1 0 1157.8898)">
		<stop  offset="0" style="stop-color:#79BBDF;stop-opacity:0.69"/>
		<stop  offset="1" style="stop-color:#153E54;stop-opacity:0.78"/>
	</linearGradient>
	<path class="st50" d="M177.8,602.8c-2.7-3.7-9,0.6-12.9-3.5c-3.8-4-9.6-6.5-13.2-4.6c-3.5,1.9-6.1-2.9-8.3-5.2
		c-2.3-2.1-8.8,0.6-10.7,2.3c-1.9,1.7-12.7-1.5-14.6-3.3c-1.9-1.7-15-11.2-15.5-15.6c-0.4-2.5,22.3-0.6,24.8-5.4
		c1.7-3.7-2.5-10,1.2-10.2c8.3-0.2,21.5,15.2,23.8,7.9c2.3-7.3-3.3-13.9-1.3-14.2c2.1-0.4,9.8,0.4,11.1,1.7
		c1.3,1.3,11.3-1.2,10.4-6.2c-1-5,6.5-8.1,12.3-4.4c5.9,3.7,6.3,21.9,10.9,20.8c4.6-1,12.5,3.1,19.2,7.5c4.2,2.7,54.7,4,52.8,12.1
		c-0.4,1.9-5.8,14.2-13.2,16.9c-5,1.9-11.1-9.8-17.1-10c-9.6,0-19.2,10.8-24.8,11.9c-0.6,0.2-3.3,6.2-6.7,7.1
		c-2.5,0.6-5.4,3.9-7.9,3.3c-3.1-0.8-5.6-5.2-5.6-5.2s-9.2,10.4-11.9,6.4C177.6,609,177.8,602.8,177.8,602.8z"/>
	
		<linearGradient id="SVGID_50_" gradientUnits="userSpaceOnUse" x1="234.0359" y1="590.1088" x2="234.0359" y2="748.8367" gradientTransform="matrix(1 0 0 -1 0 1157.8898)">
		<stop  offset="0" style="stop-color:#79BBDF;stop-opacity:0.69"/>
		<stop  offset="1" style="stop-color:#153E54;stop-opacity:0.78"/>
	</linearGradient>
	<path class="st51" d="M39.8,519.2c0,0-9,9.3,5.2,19.9c14.2,10.6,29.4,24,35,11.6c5.6-12.4,9.6-17.2,15.2-13
		c5.8,4.3,16,7.2,19.4,1.5c3.3-5.4-6-11,5-12c11-1,11,6.8,20,6.4c8.8-0.4,9.6-5.4,12.5-7c2.7-1.7,13.1,1.9,20.4-0.8
		c7.3-2.7,11-1,13.3,4.1c2.5,5,9.4,8.7,15.8,9.5c6.2,1,13.1,10.1,16,12.2c2.9,2.1,14.2,6.8,17.9-0.8c3.7-7.5,11.7-11.4,15.2-8.3
		c3.3,3.1,17.7,8.5,24.2,16.4c6.5,7.7,19.4,1.2,23.1,6.8c3.7,5.6,16,16.4,23.9,18.4c7.9,2.1,29.6,0.6,33.1-9.9
		c3.5-10.4-4.2-23,12.9-18.8c17.1,4.3,77.5,10.4,84.1,1.5c6.3-8.7-1-28-11-33.4c-10-5.2-33.7-7.2-22.3-20.7
		c11.5-13.5,18.3-25.7,14.8-36c-3.5-10.2-11.5-16-35.2-18.8c-23.7-2.7-66.6,4.4-84.8,8.5c-18.3,4.1-19-8.3-21.7-15.1
		c-2.9-6.8-33.1-11.8-59.8-15.3c-26.7-3.7-38.7,17-57.9,19.3c-19.2,2.1-71-17-76.2-15.7c-5.2,1.4-16.7,10.6-16.7,18.2
		c0.2,7.7-6,6.4-19.4,7.7c-13.5,1.4-23.5,5-21.9,14.9c1.7,10.1-7.9,10.6-16.5,17.8c-8.7,7.2-14.4,7.5-2.1,14.5
		c12.3,7,11.5,12,6,15.7C20.8,522.6,39.8,519.2,39.8,519.2z"/>
	
		<linearGradient id="SVGID_51_" gradientUnits="userSpaceOnUse" x1="668.9874" y1="649.6257" x2="668.9874" y2="736.6207" gradientTransform="matrix(1 0 0 -1 0 1157.8898)">
		<stop  offset="0" style="stop-color:#79BBDF;stop-opacity:0.69"/>
		<stop  offset="1" style="stop-color:#153E54;stop-opacity:0.78"/>
	</linearGradient>
	<path class="st52" d="M716.4,507.1c0,0,4.4,6-8.1,1.9c-12.5-4.1-5.2,0.4-11,2.5c-5.6,2.1-15.6-1-17.1-4.5
		c-1.5-3.5-8.1-1.9-13.1,3.1s-8.1-5-17.3-8.3c-9.2-3.3-14.6-10.5-28.1-8.9c-13.5,1.5-19.3,2.9-24.3-2.1c-5-5,2.1-14.3-10.8-16.8
		c-12.9-2.3-16-2.5-17.9-10.4c-1.9-8.1-26-9.5,5.6-19.2c31.6-9.7,25-18.2,48.9-11.4c23.9,6.8,27.3,5.2,40.4,2.1
		c13.1-3.1,20.8-6.4,24.1,0.6c3.1,7,19.3,7.2,31.8,4.3c12.3-2.9,19.4-6,23.1,0c3.7,6,4,23.8,18.5,30.4c14.6,6.6,22.1,19.5,17.3,25.4
		c-4.8,5.8-19.6,21.7-23.7,17c-4-4.5-11.7-14.3-14.1-0.6C738.3,525.8,719.3,510.2,716.4,507.1z"/>
	
		<linearGradient id="SVGID_52_" gradientUnits="userSpaceOnUse" x1="164.475" y1="958.2218" x2="164.475" y2="715.4748" gradientTransform="matrix(1 0 0 -1 0 1157.8898)">
		<stop  offset="0" style="stop-color:#79BBDF;stop-opacity:0.69"/>
		<stop  offset="1" style="stop-color:#153E54;stop-opacity:0.78"/>
	</linearGradient>
	<path class="st53" d="M279.7,268.7c-11-0.2-12.5,2.3-13.5,6.3c-0.8,4-18.7-0.4-19.4,2.7c-0.8,3.1-8.5,2.3-16.2,1s-0.4-5,0-10.8
		c0.4-5.8-1.2-12.9-5.8-9c-4.4,4-2.9,10-10.6,8.6c-7.7-1.3-15.8-1.9-17.5-6.3c-1.5-4.4-10.2-7.1-16.7-9.4
		c-6.5-2.3-2.1-19.2-6.9-28.6c-4.8-9.4-14.2-17.5-22.3-15.6c-8.1,1.7-6.5,7.7-8.5,5.4c-2.1-2.3-4.8-4-11.4,0
		c-6.4,3.8-10.4,3.8-12.1,2.5c-1.5-1.3-8.5,0.4-12.1,5.4c-3.7,5-9.4,5-14.6,6.7c-5.2,1.7-17.9,5-22.7-6.7
		c-4.8-11.5-7.3-10.8-9.8-11.1c-2.5-0.4-9.4,5.4-9.8-1.7s-10.6-11.1-13.1-4.4c-2.5,6.7-15.4,2.7-19.4-1.7c-4-4.4-10.6-1.7-17.1,5.4
		c-6.5,7.1-6.9,10.2-6.9,10.2c-24.8,12.9-5.2,23.6-15.4,32.7c-10.2,9-15.4,43.8-18.7,46.5c-3.3,2.7-7.7,0-10.2,2.7
		c-2.5,2.7-6.9,5-6.5,10.2c0.2,2.9-2.3,5-4.8,6.3v96.4h447.7l6.4-8.3C389.4,405.3,344.5,269.2,279.7,268.7z"/>
	
		<linearGradient id="SVGID_53_" gradientUnits="userSpaceOnUse" x1="865.4435" y1="915.6517" x2="865.4435" y2="732.8127" gradientTransform="matrix(1 0 0 -1 0 1157.8898)">
		<stop  offset="0" style="stop-color:#79BBDF;stop-opacity:0.69"/>
		<stop  offset="1" style="stop-color:#153E54;stop-opacity:0.78"/>
	</linearGradient>
	<path class="st54" d="M1181.9,413.7c-1.2-1-2.3-3.5-3.5-7.7c-2.9-11.7-4.4-14.8-10.2-12.5c-5.8,2.3-6.1,1-7.3-9
		c-1.2-9.8-10.2-24.2-22.5-25.1s-20-11.7-32.1-21.9c-12.3-10.4-11.7-25.1-41.1-35.3c-29.4-10.4-12.7,9-25.2,25.1
		c-12.7,16.1-15.9,3.1-18.2-1.7c-2.5-5-5.4-2.3-6.1,0c-0.8,2.3-1.2,13.4-8.5,3.6c-7.3-9.8-7.3-5.4-7.7-3.6
		c-0.4,1.7-12.7,6.3-18.2-2.7c-5.8-9-10.6-1.7-31.7,6.3c-21.1,8.1-17.1,12.5-17.1,1.7s-7.7-8.1-19.2-10.4
		c-11.3-2.3-21.5,15.2-22.8,6.3c-1.2-9-18.3,0-17.1-2.3c1.2-2.3-2.9-16.1-7.7-22.5c-4.8-6.3-4.4-3.6-6.9-1.3
		c-2.5,2.3-1.2,14.4-9.4,20.5c-8.1,6.3-14.6,2.3-14.6-1c0-3.1-9-19.8-16.7-23.2c-7.7-3.6-8.5-16.1-15-17.1c-6.5-1-6.9,13.4-9.4,17.5
		c-2.5,4-6.1,2.3-7.3-5.8c-1.2-8.1-10.9-8.1-17.9-8.1c-6.9,0-10.2-5.4-17.5-15.2c-7.3-9.8-14.6-6.7-31.7,0
		c-17.1,6.7-22.9,6.7-36.3,5.8c-13.4-1-12.7,2.7-18.6,5c-6.1,2.3-5.4-1.3-12.7,0c-7.3,1.3-1.5,18.4-5.4,14.4
		c-3.6-4-15.9-7.1-24.4-7.7c-8.4-0.4-18.2,4-28,5.4c-9.8,1.3-12.3,4.4-19.2,12.1c-6.9,7.7-9.4,16.5-16.3,24.6
		c-2.5,2.9-6,6.3-9.6,9.2v76.4H1181.9z"/>
	
		<linearGradient id="SVGID_54_" gradientUnits="userSpaceOnUse" x1="821.1046" y1="585.5807" x2="821.1046" y2="674.1017" gradientTransform="matrix(1 0 0 -1 0 1157.8898)">
		<stop  offset="0" style="stop-color:#79BBDF;stop-opacity:0.69"/>
		<stop  offset="1" style="stop-color:#153E54;stop-opacity:0.78"/>
	</linearGradient>
	<path class="st55" d="M702.4,493.6c1.5,10.8-3.1,22.9,1.7,27c4.8,4,30.7,11.8,35.3,7.7c4.6-4,20.3-10.6,25.7-5.4
		c5.6,5.4,11.5,17,20.2,12.5c8.6-4.4,22.5,1.3,31.7,11.2c9.2,9.8,18.6,1.7,34.2-17.9c0,0-3.1,41.1,3.3,50.9
		c6.5,9.8,28.8-15.2,28.8-15.2s5.8,11,13.2,12.7c5.8,1.4,12.7-6.4,18.8-7.9c8.1-2.1,14.8-16.4,16.1-17c1.3-0.6-3.3-10.8-0.4-23.5
		c2.7-11.4,7.9-25.1,9.4-35.5h-238C702.4,493.2,702.4,493.4,702.4,493.6z"/>
	
		<linearGradient id="SVGID_55_" gradientUnits="userSpaceOnUse" x1="40.6395" y1="624.0417" x2="40.6395" y2="743.0878" gradientTransform="matrix(1 0 0 -1 0 1157.8898)">
		<stop  offset="0" style="stop-color:#79BBDF;stop-opacity:0.69"/>
		<stop  offset="1" style="stop-color:#153E54;stop-opacity:0.78"/>
	</linearGradient>
	<path class="st56" d="M-61,530c2.7,2.3,6,4.2,9.8,4.8c3.6,0.6,7.9-4.2,12.3-4.8c4.8-0.6,11.5,7.4,17.3,9.1c3.8,1.1,7.3-4.8,9.4-3.2
		c5.2,3.8,1.9,8.2,5,9.9c6.3,3.2,10.6-3,19.6-12c4-4,9,4.2,13.8,1.5c1.2-0.6,3.3-8.8,5.4-9.9c2.5-1.3,5.2,4.4,6.3,2.9
		c3.3-4.4,1.3-8.8,3.5-7.4c4.2,2.7,2.7-4,7.3-8.4c2.5-2.3,10-0.4,13.3-3.6c6-5.9,9-14.1,16.3-17.5c4.4-2.1,10.2,0.8,19.2-1.9
		c23.8-6.9,13.8-10.5,35.3-35c21.7-24.6,0.6-13.1-5.4-18.9c-5.8-5.7-8.4-4.2-20.5,0.6c-12.1,4.8-11.1-6.9-18.1-8.4
		c-6.9-1.5-11.1,2.7-21.7,11c-10.6,8.4-19,5.3-28.6,7.4c-9.6,2.1-17.5-4.8-19,2.1c-1.5,6.9-6.3,11.6-9.6,9.5
		c-3.3-2.1-13.3,0.6-16.9,5.3c-3.6,4.8,4.8,4.8-7.9,7.8c-12.7,3.2-5.8,5.7-5.8,5.7c-4.2-1.1-28.6-4.2-23.2,8.4
		c5.4,12.6-6.3,8.4-12.1,6.9c-1.9-0.6-3.5,1.3-5,4.2V530L-61,530z"/>
	
		<linearGradient id="SVGID_56_" gradientUnits="userSpaceOnUse" x1="547.4449" y1="837.5928" x2="547.4449" y2="643.5588" gradientTransform="matrix(1 0 0 -1 0 1157.8898)">
		<stop  offset="0" style="stop-color:#79BBDF;stop-opacity:0.69"/>
		<stop  offset="1" style="stop-color:#153E54;stop-opacity:0.78"/>
	</linearGradient>
	<path class="st57" d="M815.6,469.5c-3.3-3.5,2.5-48.8,7.3-52.2c25.3-19.6-3.1-32.4-7.3-40.1c-4-7.7-2.9-1.3-3.6,4
		c-0.8,5.4-2.1,6.9-3.3-1.7c-1.2-8.6-1.7-10.9-3.8-9.2c-2.1,1.7-2.3,0.6-2.7-6.7c-0.4-7.3-3.8-17.9-8.4-18.6
		c-4.6-0.6-7.5-8.6-12.1-16.3c-4.6-7.7-4.4-18.6-15.4-26.1c-10.9-7.7-4.8,6.7-9.4,18.6c-4.8,11.9-6,2.3-6.9-1.3
		c-1-3.6-7.9-1.2-8.4,0c-1.7,3.3-4.8,4.6-6.9-1.9c-2.1-6.7-4-1.3-11.9,4.6c-7.9,6-6.3,9.2-6.3,1.3c0-7.9-22.6-3.1-22.1-4.6
		c0.4-1.7,2.1-3.1,0.2-7.9c-1.9-4.6-4.6-1.3-5.6,0.4c-1,1.7-0.6,0.6-3.6,5.2c-3.1,4.6-5.6,1.7-5.6-0.6c0-2.3,2.7-15.4-0.2-17.9
		c-2.9-2.7-6.9-4.8-9.4-5.6c-2.5-0.6-8.3,8.3-8.6,2.1c-0.4-5.9-4-5.9-6.7-5.9c-2.7,0-3.8-4-6.5-11.3s-5.6-5-11.9,0
		c-6.3,5-8.6,5-13.6,4.2c-5-0.6-4.8,1.9-7.1,3.6c-2.3,1.7-1.9-1-4.8,0c-2.7,1-0.6,13.6-1.9,10.6c-1.3-3.1-5.9-5.4-9.2-5.6
		c-3.3-0.4-6.9,3.1-10.6,4c-3.6,1-4.6,3.3-7.1,9c-2.7,5.6-5.9,11.3-8.6,17.3c-2.7,6-8.4,8.3-9,5.2c-0.6-3.1-7.9,6-10.6,5
		c-2.7-1-6,5.4-8.1,6.3c-2.1,1-3.8,0-3.6,4.6c0.2,4.6-7.3,8.1-7.9,11.1c-1.3,6.5,1,3.6-2.5,3.3c-3.5-0.4-7.7,6.1-11.7,6.1
		c-4,0-4.8,1.7-5,4.6c-0.4,3.1-7.1-0.4-7.3,1.9c-0.4,2.3-3.3,1.7-6.1,0.6c-2.9-1-2.7,0.4-2.5-3.8c0.2-4.2-4.8-0.4-6.3,2.5
		c-1.7,3.1,1.7,5.2-1.2,4.2c-2.9-1-3.6,0.8-4.4-2.5c-0.6-3.3-1.9,0.4-4.4-1.3c-2.5-1.7,4-3.6,2.3-10.7c-1.9-6.9-5.4-12.9-8.4-11.5
		c-3.1,1.3-2.5,5.6-3.3,4c-0.8-1.7-8.3,3.1-8.8,1.9c-0.6-1-3.3,0.4-4.6,4c-1.3,3.6-8.6,14-10.6,15.4c-1.9,1.3-2.9-0.8-4.8-9.4
		s-5-9.2-6-9.6c-1-0.4-9.2-3.8-10.2,1.2c-1,5-5.8,1.9-7.3-1.3c-1.5-3.3-4-1.3-6.3,4c-2.5,5.4-2.7,7.7-2.7,7.7
		c-9.4,9.6-7.5-1.5-11.3,5c-3.8,6.7-11.7,1.2-13.1,3.1c-1.2,1.9-6.5,1.2-7.5,3.1c-1,1.9-10.6,6.7-10.4,10.7c0.2,4,20,12.1,19,11.7
		c-1-0.4-4.6-0.4-5.2,3.5c-0.6,3.8-3.3,0.4-4,0.2c-0.8-0.4-3.5,0-4.4,2.3c-1.2,2.3-1.5,6-2.7,6.7c-1.2,0.6-1.7,1.7-1.2,4.2
		c0.4,2.5-0.4,2.5-1.2,6.1s-1.9,3.1-5.2,3.1s-7.1-5.4-7.3-3.6c-0.4,1.7-2.7,4.2-3.3,5.2s-1.9,1.3-2.3,0.4c-0.4-1-3.3,1.7-3.5,4.2
		c-0.4,2.7-1.7,1.7-1.7,1.7s-3.3,0-4,2.5c-0.8,2.5-3.1,1.5-4.8,0.6c-1.9-1-2.5-0.4-5.9,0c-3.5,0.4-6.1,5.4-6.1,5.4
		c-0.6,1-1.7,1.9-2.3-5.2c-0.2-1.7-7.3-4.2-12.7,0c-1.7,1.3-1.2,5-1.7,10.2c-0.4,3.6-4.4,1.9-4.4,1.9c-4-1.7-6.9-2.3-16.5,9.8
		c-9.6,12.3-12.1,22.6-24.2,27.8c-11.5,5,15,12.1,19.6,40.5h506.5c4.4-10.2,7.3-20.7,18.4-28.4C839.6,476.4,818.9,472.9,815.6,469.5
		z"/>
	
		<linearGradient id="SVGID_57_" gradientUnits="userSpaceOnUse" x1="866.2058" y1="651.7388" x2="866.2058" y2="715.8408" gradientTransform="matrix(1 0 0 -1 0 1157.8898)">
		<stop  offset="0" style="stop-color:#79BBDF;stop-opacity:0.69"/>
		<stop  offset="1" style="stop-color:#153E54;stop-opacity:0.78"/>
	</linearGradient>
	<path class="st58" d="M935.5,506.1c-1-6.9,1.7-15-1-17.5c-2.9-2.7-17.9-7.7-20.6-5c-2.7,2.7-11.7,6.9-15,3.5
		c-3.3-3.5-6.7-11-11.7-8.1c-5,2.9-13.1-1-18.5-7.3c-5.4-6.5-10.8-1.2-19.8,11.7c0,0,1.7-26.7-1.9-33.1c-3.7-6.4-16.7,9.8-16.7,9.8
		s-3.3-7.1-7.7-8.3c-3.5-0.8-7.3,4.2-11,5.2c-4.6,1.3-8.7,10.8-9.2,11.2c-0.8,0.4,1.9,7.1,0.2,15.4c-2.1,10-6.7,22.5-5.8,29.4h132.8
		C933,510.2,935.9,508.3,935.5,506.1z"/>
	
		<linearGradient id="SVGID_58_" gradientUnits="userSpaceOnUse" x1="531.0189" y1="586.572" x2="531.9869" y2="702.8101" gradientTransform="matrix(1 0 0 -1 0 1157.8898)">
		<stop  offset="0" style="stop-color:#79BBDF;stop-opacity:0.69"/>
		<stop  offset="1" style="stop-color:#153E54;stop-opacity:0.78"/>
	</linearGradient>
	<path class="st59" d="M314.1,502.3c3.5,9.7-6.7,11.9-15,20.2c-8.1,8.4-14.2,9.7,0,14.8c14.2,5.1,14.2,10.1,8.8,14.8
		c-5.4,4.7,14.2-1.8,14.2-1.8s-8.1,10.5,8.8,19.1c17.1,8.4,35.3,19.5,39.4,6.4c4-13,7.5-18.5,14.2-15.2c6.7,3.3,18.4,4.7,21.1-1.4
		c2.7-5.8-8.1-10.1,3.5-12.7c11.5-2.5,12.9,5.1,22.5,3.3c9.6-1.8,9.6-6.8,12.3-9c2.7-2.1,14.2,0,21.7-3.9c7.5-3.9,11.5-2.5,15,2.1
		c3.5,4.7,11.5,7.2,18.4,7.2c6.7,0,15.6,8,19,9.7s16.3,4.7,19-3.3c2.7-8,11-13,15-10.5c4,2.5,20.4,5.8,28.6,12.6
		c8.1,6.8,21.1-1.8,25.9,3.3c4.8,5.1,19.8,13.8,28.6,14.8c8.8,0.8,31.9-3.7,34-14.8c2.1-10.9-8.1-22.4,11-20.6
		c19,1.8,85.1-1.2,90.5-10.9c5.4-9.7-5.4-27.8-17.1-31.7c-9.6-3.1-29.4-2.5-29.6-11.1H335.6c-0.2,0-0.4,0-0.6,0.2
		C320.8,487.5,310.6,492.6,314.1,502.3z"/>
	
		<linearGradient id="SVGID_59_" gradientUnits="userSpaceOnUse" x1="136.1919" y1="524.6858" x2="136.1919" y2="742.9357" gradientTransform="matrix(1 0 0 -1 0 1157.8898)">
		<stop  offset="0" style="stop-color:#79BBDF;stop-opacity:0.69"/>
		<stop  offset="1" style="stop-color:#153E54;stop-opacity:0.78"/>
	</linearGradient>
	<path class="st60" d="M-51.2,632.7c6.7,6.6,18,8.9,20.7-2.5c2.7-11.4-8.1-19.5,3.3-24.3c11.5-4.8,12.9,9.6,22.1,6.6
		c9.4-3.3,9.4-12.9,12.1-17s14,0,21.5-7.3c7.3-7.3,11.3-4.8,14.8,4c3.3,8.9,11.3,13.7,18,13.7c6.7,0,15.4,15.4,18.8,18.5
		c3.5,3.3,16.1,8.9,18.8-6.6c2.7-15.4,10.8-25.1,14.8-20.2c4,4.8,20.2,11.4,28.2,24.3c8.1,12.9,20.7-3.3,25.5,6.6
		c1.9,4,13.1,6.4,17.3,11.4c6,6.9,6,16,10.9,17c4,0.8,10.8-21,17.3-24.9c7.9-4.4,15.2,8.1,16.3-3.5c1.9-21-8.1-42.8,10.8-39.5
		c9.4,1.5,30.3,18.5,49.7,15.2c9.4-1.5,8.6-10.6,15.7-17.9c4-4.2,10.6,3.9,15.6,0.6c4.2-2.7,7.7-16.8,8.3-18.9
		c1.7-6,6.9-16.8,5.4-29.1c-0.6-5.4-8.4-11-8.4-16.8c0-7.1-6.7-14.3-6.3-20.6c1-13.3,9.2-23.7,5-26.4c-11.3-7.3-29.4,11.6-39.4-0.8
		c-8.6-10.8-5.6-23.5-0.6-36H-62.6v208.2C-59.5,632.7-56.4,627.7-51.2,632.7z"/>
	
		<linearGradient id="SVGID_60_" gradientUnits="userSpaceOnUse" x1="1035.9048" y1="650.9147" x2="1035.9048" y2="707.3848" gradientTransform="matrix(1 0 0 -1 0 1157.8898)">
		<stop  offset="0" style="stop-color:#79BBDF;stop-opacity:0.69"/>
		<stop  offset="1" style="stop-color:#153E54;stop-opacity:0.78"/>
	</linearGradient>
	<path class="st61" d="M1101.8,506.8c-13.4-1.5-17.1-9.6-25.3-14.9c-8.2-5.2-9-15.5-15-11.9c-5.9,3.6-12.7,3.6-13.4,0
		c-0.8-3.6-9.6-9-15.5-8.2c-6,0.8,0,6.7-11.1,0c-11.1-6.7-8.3,0-8.3,0c-2.3-3.6-17.1-23-22.3-10.3c-5.2,12.6-10.4,1.5-13.4-3.6
		c-2.9-5.2-20.9,6.7-26.8,11.1c-5.9,4.4-1.5,18.6,11.1,28.1c5.8,4.4,8.1,10.3,9.2,16.1h152.9
		C1120.4,508.1,1114.2,508.1,1101.8,506.8z"/>
	
		<linearGradient id="SVGID_61_" gradientUnits="userSpaceOnUse" x1="1037.4304" y1="597.8558" x2="1037.4304" y2="672.6407" gradientTransform="matrix(1 0 0 -1 0 1157.8898)">
		<stop  offset="0" style="stop-color:#79BBDF;stop-opacity:0.69"/>
		<stop  offset="1" style="stop-color:#153E54;stop-opacity:0.78"/>
	</linearGradient>
	<path class="st62" d="M919.1,502.4c-3.7,2.9,2.5,5.7-0.6,8.2c-6.7,5.5-21.2,10.1-21.4,13.2c-0.6,9.5-9.3,22-4.1,24.4
		c2.1,1.1,3.8,6.7,11.2,5c5.4-1.3,16.2-9.9,21.2-10.5c4.6-0.6,8.5,5.9,10.4,4.4c6.9-5,28.1-14.7,33.9-11.1c5.8,3.6,10.6,13,22.5,6.9
		c11.9-6.1,28.1-4,37.5,3.1c6,4.4,6.3,2.1,17.5-5.7c1.7-1.3,5.6,4.6,9.4,3.1c3.5-1.3,6.7-10.1,8.7-11.6c3.6-3.1,6.9-7.6,11.7-5.5
		c0,0,1.3,5.2-1.3,15.8c-2.7,10.5-9.2,21.8-6.4,25.4c2.7,3.4,6.7-4.6,15.4-8c4.1-1.5,12.9,3.6,16.2,1.1c5-3.8,8.5-13.9,8.5-13.9
		s4.6,9,13.7,8.6c7.1-0.2,17.5-8.8,25.6-11.6c10.8-3.8,22.7-18.7,24.3-19.5c1.7-1-1.7-9.2,5.2-21.8c1.5-2.9,3.5-5.9,5.2-9H934.7
		c-0.4,1-1,1.9-1.7,2.7C931.2,498.4,921.6,500.5,919.1,502.4z"/>
	
		<linearGradient id="SVGID_62_" gradientUnits="userSpaceOnUse" x1="871.5582" y1="679.6318" x2="871.5582" y2="733.0497" gradientTransform="matrix(1 0 0 -1 0 1157.8898)">
		<stop  offset="0" style="stop-color:#79BBDF;stop-opacity:0.69"/>
		<stop  offset="1" style="stop-color:#153E54;stop-opacity:0.78"/>
	</linearGradient>
	<path class="st63" d="M874.7,468c-6.3,2.9-9.8,3.7-10.7,0c-1-3.7-3.6-7-6.3-7c-2.7,0-2.7-3.7-3.4-5.8c-0.8-2.1-5.4-2.5-7.1-2.1
		c-1.7,0.4-7.1-4.8-7.6-6.6c-0.8-1.5,2.1-4.1,3-7c1-2.9,7.6-11,12.8-8.5c5,2.5,8,15.9,11.7,12.2c3.6-3.7,2.3-9.5,3.6-8.9
		c1.3,0.4,5.7,3.3,6.1,4.5c0.4,1.2,7.1,2.9,8-0.4c0.9-3.3,6.3-2.9,8.8,1.2c2.3,4.1-3.1,15.1,0,15.9c3,0.8,6.5,5.8,9.2,10.6
		c2.7,4.8-1.2,18-11.1,18c-1,0-7.5-7.7-13-7.7s-9.2,7.7-9.4,4.5C868.6,477.6,874.7,468,874.7,468z"/>
	
		<linearGradient id="SVGID_63_" gradientUnits="userSpaceOnUse" x1="737.0207" y1="730.0837" x2="737.0207" y2="783.5018" gradientTransform="matrix(1 0 0 -1 0 1157.8898)">
		<stop  offset="0" style="stop-color:#79BBDF;stop-opacity:0.69"/>
		<stop  offset="1" style="stop-color:#153E54;stop-opacity:0.78"/>
	</linearGradient>
	<path class="st64" d="M740.2,417.5c-6.3,2.9-9.7,3.7-10.7,0c-1-3.7-3.6-7-6.3-7s-2.7-3.7-3.4-5.8c-0.8-2.1-5.4-2.5-7.1-2.1
		c-1.7,0.4-7.1-4.8-7.6-6.6c-0.8-1.5,2.1-4.1,3.1-7c1-2.9,7.6-11,12.8-8.5c5,2.5,8,15.9,11.7,12.2c3.6-3.7,2.3-9.5,3.6-8.9
		c1.3,0.4,5.7,3.3,6.1,4.5c0.4,1.2,7.1,2.9,8-0.4c1-3.3,6.3-2.9,8.8,1.2c2.3,4.1-3.1,15.1,0,15.9c3.1,0.8,6.5,5.8,9.2,10.6
		s-1.1,18-11.1,18c-1,0-7.5-7.7-13-7.7s-9.2,7.7-9.4,4.5C734.1,427.2,740.2,417.5,740.2,417.5z"/>
	
		<linearGradient id="SVGID_64_" gradientUnits="userSpaceOnUse" x1="402.972" y1="688.8047" x2="402.972" y2="742.2228" gradientTransform="matrix(1 0 0 -1 0 1157.8898)">
		<stop  offset="0" style="stop-color:#79BBDF;stop-opacity:0.69"/>
		<stop  offset="1" style="stop-color:#153E54;stop-opacity:0.78"/>
	</linearGradient>
	<path class="st65" d="M406.2,458.8c-6.5,2.9-10,3.7-11,0c-1-3.7-3.7-7-6.5-7c-2.7,0-2.7-3.7-3.5-5.8c-0.8-2.1-5.5-2.5-7.2-2.1
		c-1.8,0.4-7.2-4.8-7.8-6.6c-0.8-1.5,2.2-4.1,3.1-7c1-2.9,7.8-11,13.1-8.5c5.1,2.5,8.2,15.9,11.9,12.2c3.7-3.7,2.3-9.5,3.7-8.9
		c1.4,0.4,5.9,3.3,6.3,4.5c0.4,1.2,7.2,2.9,8.2-0.4c1-3.3,6.5-2.9,9,1.2c2.3,4.1-3.1,15.1,0,15.9c3.1,0.8,6.7,5.8,9.4,10.6
		c2.7,4.8-1.2,18-11.3,18c-1,0-7.6-7.7-13.3-7.7c-5.7,0-9.4,7.7-9.6,4.5C400,468.7,406.2,458.8,406.2,458.8z"/>
	
		<linearGradient id="SVGID_65_" gradientUnits="userSpaceOnUse" x1="570.3782" y1="712.6517" x2="570.3782" y2="746.2288" gradientTransform="matrix(1 0 0 -1 0 1157.8898)">
		<stop  offset="0" style="stop-color:#79BBDF;stop-opacity:0.69"/>
		<stop  offset="1" style="stop-color:#153E54;stop-opacity:0.78"/>
	</linearGradient>
	<path class="st66" d="M590,442.3c0,0,2.1,1.8-2.7,1.4c-4.9-0.4-1.8,0.6-3.7,2c-1.8,1.2-5.7,1-6.4,0c-0.8-1.2-3.1,0-4.3,2.4
		c-1.4,2.2-3.3-1-6.8-1.4c-3.5-0.4-6.3-2.4-10.7-0.6c-4.7,1.8-6.6,2.8-8.8,1.6c-2.1-1.4-0.6-5.4-5.3-5c-4.9,0.4-5.9,0.6-7.2-2.2
		c-1.4-2.8-10.2-1,0.2-7.4c10.4-6.4,7.2-9,16.4-8.6c9.2,0.2,10.2-0.6,14.7-3c4.3-2.4,6.8-4.2,8.6-2c1.8,2.2,7.4,0.8,11.7-1.4
		c4.1-2.2,6.3-4,8.2-2.2c2,1.8,3.5,8.2,9.4,9.4c5.9,1,9.6,5,8.4,7.6s-5.1,9.6-6.8,8.4c-2-1.2-5.5-4-5.1,1
		C599.5,447.1,591.3,443.1,590,442.3z"/>
	
		<linearGradient id="SVGID_66_" gradientUnits="userSpaceOnUse" x1="391.5052" y1="554.6877" x2="391.5052" y2="583.6858" gradientTransform="matrix(1 0 0 -1 0 1157.8898)">
		<stop  offset="0" style="stop-color:#79BBDF;stop-opacity:0.69"/>
		<stop  offset="1" style="stop-color:#153E54;stop-opacity:0.78"/>
	</linearGradient>
	<path class="st67" d="M404.2,592.3c0,0,1.5,0.4-1.2,1.4s-0.8,0.8-1.5,1.9c-0.6,1.2-2.7,1.9-3.5,1.8c-0.8-0.4-1.5,0.8-1.7,2.3
		c-0.2,1.6-2.1,0.2-4,1c-1.9,0.8-3.9,0.4-6,2.5c-2.1,2.1-2.9,3.1-4.4,3.1c-1.5-0.2-1.7-2.7-4-1.4c-2.5,1.4-3.1,1.8-4.4,0.8
		c-1.3-1.2-5.6,2.1-1.7-4.1c4-6,1.7-6.6,6.5-8.8c5-2.1,5.4-2.9,7.1-5.3c1.7-2.3,2.7-4.1,4-3.3c1.5,0.8,4.2-1.6,6-3.7
		c1.7-2.1,2.3-3.7,3.9-3.3c1.5,0.6,4,3.5,7.3,2.5c3.3-1,6.4,0.2,6.4,1.8c0,1.6-0.4,6.4-1.5,6.2c-1.3-0.2-3.9-0.8-2.5,1.9
		C410.6,592.5,405.2,592.5,404.2,592.3z"/>
	
		<linearGradient id="SVGID_67_" gradientUnits="userSpaceOnUse" x1="84.2117" y1="591.3798" x2="84.2117" y2="620.3777" gradientTransform="matrix(1 0 0 -1 0 1157.8898)">
		<stop  offset="0" style="stop-color:#79BBDF;stop-opacity:0.69"/>
		<stop  offset="1" style="stop-color:#153E54;stop-opacity:0.78"/>
	</linearGradient>
	<path class="st68" d="M96.9,555.8c0,0,1.5,0.4-1.2,1.4c-2.7,1-0.8,0.8-1.5,1.9c-0.6,1.2-2.7,1.9-3.5,1.6c-0.8-0.4-1.5,0.8-1.7,2.3
		c-0.2,1.6-2.1,0.2-4,1c-1.9,0.8-3.9,0.4-6,2.5c-2.1,2.1-2.9,3.1-4.4,3.1c-1.5-0.2-1.7-2.7-4-1.4c-2.5,1.4-3.1,1.8-4.4,0.8
		c-1.3-1.2-5.6,2.1-1.7-4.1c4-6,1.7-6.6,6.6-8.8c5-2.1,5.4-2.9,7.1-5.3c1.7-2.3,2.7-4.1,4-3.3c1.5,0.8,4.2-1.6,6-3.7
		s2.3-3.7,3.9-3.3c1.5,0.6,4,3.5,7.3,2.5c3.3-1,6.4,0.2,6.4,1.8c0,1.6-0.4,6.4-1.5,6.2c-1.3-0.2-3.9-0.8-2.5,1.9
		C103.1,555.8,97.9,555.8,96.9,555.8z"/>
	
		<linearGradient id="SVGID_68_" gradientUnits="userSpaceOnUse" x1="129.3113" y1="693.1818" x2="129.3113" y2="758.8098" gradientTransform="matrix(1 0 0 -1 0 1157.8898)">
		<stop  offset="0" style="stop-color:#79BBDF;stop-opacity:0.69"/>
		<stop  offset="1" style="stop-color:#153E54;stop-opacity:0.78"/>
	</linearGradient>
	<path class="st69" d="M140.5,452.5c-5.8,7.3-9.3,10.4-12.8,6.7c-3.5-3.7-8.7-5.8-12.1-4.2c-3.3,1.7-5.4-2.7-7.6-4.6
		c-2.1-1.9-8,0.4-9.7,1.9c-1.8,1.5-11.5-1.3-13.2-2.9s-0.2-6-0.8-10c-0.4-2.3,6.8-4.6,8.9-8.8c1.6-3.3-2.3-9,1-9.2
		c7.6-0.2,19.6,13.7,21.8,7.1c2.1-6.5-2.9-12.5-1.2-12.9c1.9-0.4,8.9,0.2,10.1,1.5c1.2,1.2,10.3-1,9.3-5.6c-0.8-4.4,5.8-7.3,11.3-4
		s5.8,19.6,9.9,18.7s11.3,2.7,17.5,6.7c3.7,2.5-0.6,11.9-2.3,19.2c-1.2,4.8,0.6,8.5,0.2,8.8c-0.4,0.2-2.9,5.6-6,6.3
		c-2.3,0.6-4.9,3.5-7,2.9c-2.9-0.6-5.1-4.8-5.1-4.8s-8.4,9.2-10.9,5.6C139.3,467.7,140.5,452.5,140.5,452.5z"/>
	
		<linearGradient id="SVGID_69_" gradientUnits="userSpaceOnUse" x1="602.4839" y1="774.2098" x2="602.4839" y2="839.8378" gradientTransform="matrix(1 0 0 -1 0 1157.8898)">
		<stop  offset="0" style="stop-color:#79BBDF;stop-opacity:0.69"/>
		<stop  offset="1" style="stop-color:#153E54;stop-opacity:0.78"/>
	</linearGradient>
	<path class="st70" d="M613.3,371.3c-5.7,7.3-9.2,10.4-12.6,6.7c-3.4-3.7-8.6-5.8-11.7-4.2c-3.2,1.7-5.4-2.7-7.5-4.6
		c-2.1-1.9-7.8,0.4-9.6,1.9c-1.7,1.5-11.3-1.3-13-2.9c-1.7-1.5-0.2-6-0.8-10c-0.4-2.3,6.7-4.6,8.8-8.8c1.5-3.3-2.3-9,1-9.2
		c7.5-0.2,19.3,13.7,21.4,7.1c2.1-6.5-2.9-12.5-1.1-12.9c1.9-0.4,8.8,0.2,9.9,1.5c1.1,1.2,10.1-1,9.2-5.4c-0.8-4.4,5.7-7.3,11.1-4
		c5.4,3.3,5.7,19.6,9.7,18.7c4-1,11.1,2.7,17.2,6.7c3.6,2.5-0.6,11.9-2.3,19.2c-1.1,4.8,0.6,8.5,0.2,8.8c-0.4,0.2-2.9,5.6-5.9,6.3
		c-2.3,0.6-4.8,3.5-6.9,2.9c-2.9-0.6-5-4.8-5-4.8s-8.2,9.2-10.7,5.6C612.1,386.6,613.3,371.3,613.3,371.3z"/>
	
		<linearGradient id="SVGID_70_" gradientUnits="userSpaceOnUse" x1="1106.9985" y1="684.0087" x2="1106.9985" y2="749.6368" gradientTransform="matrix(1 0 0 -1 0 1157.8898)">
		<stop  offset="0" style="stop-color:#79BBDF;stop-opacity:0.69"/>
		<stop  offset="1" style="stop-color:#153E54;stop-opacity:0.78"/>
	</linearGradient>
	<path class="st71" d="M1117.8,461.6c-5.7,7.3-9.2,10.4-12.6,6.7c-3.4-3.7-8.6-5.8-11.7-4.2c-3.3,1.7-5.3-2.7-7.5-4.6
		c-2.1-1.9-7.8,0.4-9.6,1.9c-1.7,1.5-11.3-1.3-13-2.9s-0.2-6-0.8-10c-0.4-2.3,6.7-4.6,8.8-8.8c1.5-3.3-2.3-9,1-9.2
		c7.4-0.2,19.3,13.7,21.4,7.1c2.1-6.5-2.9-12.5-1.1-12.9c1.9-0.4,8.8,0.2,9.9,1.5c1.1,1.2,10.1-1,9.2-5.6c-0.8-4.4,5.7-7.3,11.1-4
		c5.4,3.3,5.7,19.6,9.7,18.7c4-1,11.1,2.7,17.2,6.7c3.6,2.5-0.6,11.9-2.3,19.2c-1.1,4.8,0.6,8.5,0.2,8.8c-0.4,0.2-2.9,5.6-5.9,6.3
		c-2.3,0.6-4.8,3.5-7.1,2.9c-2.9-0.6-5-4.8-5-4.8s-8.2,9.2-10.7,5.6C1116.6,476.8,1117.8,461.6,1117.8,461.6z"/>
	
		<linearGradient id="SVGID_71_" gradientUnits="userSpaceOnUse" x1="268.1475" y1="336.4557" x2="268.1475" y2="466.4908" gradientTransform="matrix(1 0 0 -1 0 1157.8898)">
		<stop  offset="0" style="stop-color:#79BBDF;stop-opacity:0.69"/>
		<stop  offset="1" style="stop-color:#153E54;stop-opacity:0.78"/>
	</linearGradient>
	<path class="st72" d="M540.5,835.5c-1-0.8-2-3-3-6.6c-2.5-10.1-3.8-12.7-8.8-10.7c-5,2-5.3,0.8-6.3-7.8c-1-8.4-8.8-20.8-19.3-21.6
		c-10.6-0.8-17.2-10.1-27.6-18.8c-10.6-8.9-10.1-21.6-35.4-30.4c-25.3-8.9-10.9,7.8-21.7,21.6c-10.9,13.9-13.7,2.6-15.7-1.5
		c-2.1-4.3-4.6-2-5.3,0c-0.7,2-1,11.6-7.3,3.1c-6.3-8.4-6.3-4.6-6.6-3.1c-0.3,1.5-10.9,5.5-15.7-2.3c-5-7.8-9.1-1.5-27.3,5.5
		c-18.2,6.9-14.7,10.7-14.7,1.5c0-9.3-6.6-6.9-16.5-8.9c-9.8-2-18.5,13.1-19.7,5.5c-1-7.8-15.7,0-14.7-2s-2.5-13.9-6.6-19.3
		c-4.1-5.5-3.8-3.1-5.9-1.2c-2.1,2-1,12.4-8.1,17.7c-6.9,5.5-12.6,2-12.6-0.8c0-2.6-7.8-17-14.4-20c-6.6-3.1-7.3-13.9-12.9-14.7
		c-5.6-0.8-5.9,11.6-8.1,15c-2.1,3.5-5.3,2-6.3-5c-1-6.9-9.4-6.9-15.4-6.9c-6,0-8.8-4.6-15-13c-6.3-8.4-12.6-5.8-27.3,0
		c-14.7,5.8-19.7,5.8-31.2,5c-11.6-0.8-10.9,2.3-16,4.3c-5.3,2-4.6-1.2-10.9,0c-6.3,1.2-1.3,15.9-4.6,12.4c-3.1-3.5-13.7-6.1-21-6.6
		c-7.3-0.3-15.7,3.5-24.1,4.6c-8.4,1.2-10.6,3.8-16.5,10.4c-5.9,6.6-8.1,14.2-14,21.1c-2.1,2.5-5.1,5.5-8.3,7.9v65.7H540.5z"/>
</g>
<linearGradient id="SVGID_72_" gradientUnits="userSpaceOnUse" x1="542.3379" y1="693.7888" x2="542.3379" y2="189.7767" gradientTransform="matrix(6.123234e-17 -1 -1 -6.123234e-17 645.6482 1269.9604)">
	<stop  offset="0" style="stop-color:#FFFFFF"/>
	<stop  offset="1" style="stop-color:#D9D9D9;stop-opacity:0"/>
</linearGradient>
<path class="st73" d="M-48.1,727.6L-48.1,727.6c0-3,2.5-5.5,5.5-5.5h493.1c3,0,5.5,2.5,5.5,5.5l0,0c0,3-2.5,5.5-5.5,5.5H-42.7
	C-45.7,733.1-48.1,730.6-48.1,727.6z"/>
<linearGradient id="SVGID_73_" gradientUnits="userSpaceOnUse" x1="1243.1619" y1="267.8198" x2="1243.1619" y2="-236.1921" gradientTransform="matrix(6.123234e-17 -1 -1 -6.123234e-17 920.5032 2396.7534)">
	<stop  offset="0" style="stop-color:#FFFFFF"/>
	<stop  offset="1" style="stop-color:#D9D9D9;stop-opacity:0"/>
</linearGradient>
<path class="st74" d="M652.7,1153.6L652.7,1153.6c0-3,2.5-5.5,5.5-5.5h493.1c3,0,5.5,2.5,5.5,5.5l0,0c0,3-2.5,5.5-5.5,5.5H658.2
	C655.1,1159.1,652.7,1156.6,652.7,1153.6z"/>
<linearGradient id="SVGID_74_" gradientUnits="userSpaceOnUse" x1="789.0079" y1="959.5598" x2="789.0079" y2="455.5478" gradientTransform="matrix(6.123234e-17 -1 -1 -6.123234e-17 1158.0892 1250.8594)">
	<stop  offset="0" style="stop-color:#FFFFFF"/>
	<stop  offset="1" style="stop-color:#D9D9D9;stop-opacity:0"/>
</linearGradient>
<path class="st75" d="M198.5,461.9L198.5,461.9c0-3,2.5-5.5,5.5-5.5h493.1c3,0,5.5,2.5,5.5,5.5l0,0c0,3-2.5,5.5-5.5,5.5H204
	C201,467.3,198.5,464.9,198.5,461.9z"/>
<linearGradient id="SVGID_75_" gradientUnits="userSpaceOnUse" x1="917.3049" y1="416.8597" x2="917.3049" y2="-87.1522" gradientTransform="matrix(6.123234e-17 -1 -1 -6.123234e-17 743.6862 1921.8564)">
	<stop  offset="0" style="stop-color:#FFFFFF"/>
	<stop  offset="1" style="stop-color:#D9D9D9;stop-opacity:0"/>
</linearGradient>
<path class="st76" d="M326.8,1004.6L326.8,1004.6c0-3,2.5-5.5,5.5-5.5h493.1c3,0,5.5,2.5,5.5,5.5l0,0c0,3-2.5,5.5-5.5,5.5H332.3
	C329.3,1010,326.8,1007.6,326.8,1004.6z"/>
<linearGradient id="SVGID_76_" gradientUnits="userSpaceOnUse" x1="1020.0009" y1="1312.7488" x2="1020.0009" y2="808.7368" gradientTransform="matrix(6.123234e-17 -1 -1 -6.123234e-17 1742.2712 1128.6635)">
	<stop  offset="0" style="stop-color:#FFFFFF"/>
	<stop  offset="1" style="stop-color:#D9D9D9;stop-opacity:0"/>
</linearGradient>
<path class="st77" d="M429.5,108.7L429.5,108.7c0-3,2.5-5.5,5.5-5.5h493.1c3,0,5.5,2.5,5.5,5.5l0,0c0,3-2.5,5.5-5.5,5.5H435
	C432,114.1,429.5,111.7,429.5,108.7z"/>
<linearGradient id="SVGID_77_" gradientUnits="userSpaceOnUse" x1="1179.2001" y1="1115.2457" x2="1179.2001" y2="428.0677" gradientTransform="matrix(6.123234e-17 -1 -1 -6.123234e-17 1704.0592 1485.4574)">
	<stop  offset="0" style="stop-color:#FFFFFF"/>
	<stop  offset="1" style="stop-color:#D9D9D9;stop-opacity:0"/>
</linearGradient>
<path class="st78" d="M588.8,306.3L588.8,306.3c0-3,2.4-5.4,5.4-5.4h676.4c3,0,5.4,2.4,5.4,5.4l0,0c0,3-2.4,5.4-5.4,5.4H594.2
	C591.2,311.6,588.8,309.2,588.8,306.3z"/>
<linearGradient id="SVGID_78_" gradientUnits="userSpaceOnUse" x1="448.9289" y1="832.8328" x2="448.9289" y2="152.5797" gradientTransform="matrix(6.123234e-17 -1 -1 -6.123234e-17 691.375 1037.5992)">
	<stop  offset="0" style="stop-color:#FFFFFF"/>
	<stop  offset="1" style="stop-color:#D9D9D9;stop-opacity:0"/>
</linearGradient>
<path class="st79" d="M-141.5,588.7L-141.5,588.7c0-3,2.4-5.4,5.4-5.4h669.5c3,0,5.4,2.4,5.4,5.4l0,0c0,3-2.4,5.4-5.4,5.4h-669.5
	C-139,594.1-141.5,591.6-141.5,588.7z"/>
<linearGradient id="SVGID_79_" gradientUnits="userSpaceOnUse" x1="918.3341" y1="580.4318" x2="918.3341" y2="-286.0443" gradientTransform="matrix(6.123234e-17 -1 -1 -6.123234e-17 908.3792 1759.4054)">
	<stop  offset="0" style="stop-color:#FFFFFF"/>
	<stop  offset="1" style="stop-color:#D9D9D9;stop-opacity:0"/>
</linearGradient>
<path class="st80" d="M327.9,841.1L327.9,841.1c0-3,2.4-5.4,5.4-5.4H1189c3,0,5.4,2.4,5.4,5.4v0c0,3-2.4,5.4-5.4,5.4H333.3
	C330.4,846.5,327.9,844,327.9,841.1z"/>
<linearGradient id="SVGID_80_" gradientUnits="userSpaceOnUse" x1="1198.4391" y1="813.5948" x2="1198.4391" y2="162.5839" gradientTransform="matrix(6.123234e-17 -1 -1 -6.123234e-17 1421.6472 1806.3474)">
	<stop  offset="0" style="stop-color:#FFFFFF"/>
	<stop  offset="1" style="stop-color:#D9D9D9;stop-opacity:0"/>
</linearGradient>
<path class="st81" d="M608.1,607.9L608.1,607.9c0-3,2.4-5.4,5.4-5.4h640.2c3,0,5.4,2.4,5.4,5.4l0,0c0,3-2.4,5.4-5.4,5.4H613.4
	C610.5,613.3,608.1,610.9,608.1,607.9z"/>
<linearGradient id="SVGID_81_" gradientUnits="userSpaceOnUse" x1="1546.3208" y1="378.3297" x2="1546.3208" y2="115.7677" gradientTransform="matrix(6.123234e-17 -1 -1 -6.123234e-17 1334.1721 2589.4026)">
	<stop  offset="0" style="stop-color:#FFFFFF"/>
	<stop  offset="1" style="stop-color:#D9D9D9;stop-opacity:0"/>
</linearGradient>
<path class="st82" d="M955.8,1043.1L955.8,1043.1c0-3,2.5-5.5,5.5-5.5h251.6c3,0,5.5,2.5,5.5,5.5l0,0c0,3-2.5,5.5-5.5,5.5H961.3
	C958.3,1048.6,955.8,1046.1,955.8,1043.1z"/>
<linearGradient id="SVGID_82_" gradientUnits="userSpaceOnUse" x1="723.1919" y1="1384.933" x2="723.1919" y2="1122.371" gradientTransform="matrix(6.123234e-17 -1 -1 -6.123234e-17 1517.6465 759.6702)">
	<stop  offset="0" style="stop-color:#FFFFFF"/>
	<stop  offset="1" style="stop-color:#D9D9D9;stop-opacity:0"/>
</linearGradient>
<path class="st83" d="M132.7,36.5L132.7,36.5c0-3,2.5-5.5,5.5-5.5h251.6c3,0,5.5,2.5,5.5,5.5l0,0c0,3-2.5,5.5-5.5,5.5H138.2
	C135.2,42,132.7,39.5,132.7,36.5z"/>
<linearGradient id="SVGID_83_" gradientUnits="userSpaceOnUse" x1="623.6091" y1="470.3907" x2="623.6091" y2="-300.6653" gradientTransform="matrix(6.123234e-17 -1 -1 -6.123234e-17 503.6132 1574.7214)">
	<stop  offset="0" style="stop-color:#FFFFFF"/>
	<stop  offset="1" style="stop-color:#D9D9D9;stop-opacity:0"/>
</linearGradient>
<path class="st84" d="M33.2,951.1L33.2,951.1c0-3,2.4-5.4,5.4-5.4h760.3c3,0,5.4,2.4,5.4,5.4v0c0,3-2.4,5.4-5.4,5.4H38.6
	C35.6,956.5,33.2,954.1,33.2,951.1z"/>
<linearGradient id="SVGID_84_" gradientUnits="userSpaceOnUse" x1="499.3323" y1="1024.4427" x2="499.3323" y2="344.1898" gradientTransform="matrix(6.123234e-17 -1 -1 -6.123234e-17 933.0036 896.0078)">
	<stop  offset="0" style="stop-color:#FFFFFF"/>
	<stop  offset="1" style="stop-color:#D9D9D9;stop-opacity:0"/>
</linearGradient>
<path class="st85" d="M-91.4,396.7L-91.4,396.7c0-3.2,2.6-5.8,5.8-5.8H583c3.2,0,5.8,2.6,5.8,5.8v0c0,3.2-2.6,5.8-5.8,5.8H-85.7
	C-88.9,402.4-91.4,399.9-91.4,396.7z"/>
<linearGradient id="SVGID_85_" gradientUnits="userSpaceOnUse" x1="1280.776" y1="663.5398" x2="1280.776" y2="159.5068" gradientTransform="matrix(6.123234e-17 -1 -1 -6.123234e-17 1353.9292 2038.7394)">
	<stop  offset="0" style="stop-color:#FFFFFF"/>
	<stop  offset="1" style="stop-color:#D9D9D9;stop-opacity:0"/>
</linearGradient>
<path class="st86" d="M690.4,758L690.4,758c0-3,2.4-5.4,5.4-5.4H1189c3,0,5.4,2.4,5.4,5.4l0,0c0,3-2.4,5.4-5.4,5.4H695.8
	C692.8,763.3,690.4,760.9,690.4,758z"/>
<linearGradient id="SVGID_86_" gradientUnits="userSpaceOnUse" x1="664.394" y1="284.1698" x2="664.394" y2="-180.6182" gradientTransform="matrix(6.123234e-17 -1 -1 -6.123234e-17 358.1773 1801.7274)">
	<stop  offset="0" style="stop-color:#FFFFFF"/>
	<stop  offset="1" style="stop-color:#D9D9D9;stop-opacity:0"/>
</linearGradient>
<path class="st87" d="M74,1137.3L74,1137.3c0-3,2.4-5.4,5.4-5.4h454c3,0,5.4,2.4,5.4,5.4l0,0c0,3-2.4,5.4-5.4,5.4h-454
	C76.4,1142.7,74,1140.3,74,1137.3z"/>
<linearGradient id="SVGID_87_" gradientUnits="userSpaceOnUse" x1="664.394" y1="1126.0188" x2="664.394" y2="722.0228" gradientTransform="matrix(6.123234e-17 -1 -1 -6.123234e-17 1200.0262 959.8784)">
	<stop  offset="0" style="stop-color:#FFFFFF"/>
	<stop  offset="1" style="stop-color:#D9D9D9;stop-opacity:0"/>
</linearGradient>
<path class="st88" d="M74,295.5L74,295.5c0-3,2.4-5.4,5.4-5.4h393.2c3,0,5.4,2.4,5.4,5.4l0,0c0,3-2.4,5.4-5.4,5.4H79.4
	C76.4,300.9,74,298.5,74,295.5z"/>
<linearGradient id="SVGID_88_" gradientUnits="userSpaceOnUse" x1="1394.5598" y1="964.4128" x2="1394.5598" y2="701.8508" gradientTransform="matrix(6.123234e-17 -1 -1 -6.123234e-17 1768.4943 1851.5583)">
	<stop  offset="0" style="stop-color:#FFFFFF"/>
	<stop  offset="1" style="stop-color:#D9D9D9;stop-opacity:0"/>
</linearGradient>
<path class="st89" d="M804.1,457L804.1,457c0-3,2.5-5.5,5.5-5.5h251.6c3,0,5.5,2.5,5.5,5.5l0,0c0,3-2.5,5.5-5.5,5.5H809.6
	C806.5,462.5,804.1,460,804.1,457z"/>
<linearGradient id="SVGID_89_" gradientUnits="userSpaceOnUse" x1="417.3791" y1="1229.1338" x2="417.3791" y2="253.3867" gradientTransform="matrix(6.123234e-17 -1 -1 -6.123234e-17 1056.1262 609.7485)">
	<stop  offset="0" style="stop-color:#FFFFFF"/>
	<stop  offset="1" style="stop-color:#D9D9D9;stop-opacity:0"/>
</linearGradient>
<path class="st90" d="M-173,192.4L-173,192.4c0-3,2.4-5.4,5.4-5.4h965c3,0,5.4,2.4,5.4,5.4v0c0,3-2.4,5.4-5.4,5.4h-965
	C-170.6,197.8-173,195.3-173,192.4z"/>
</svg>
