<?xml version="1.0" encoding="utf-8"?>
<!-- Generator: Adobe Illustrator 23.0.5, SVG Export Plug-In . SVG Version: 6.00 Build 0)  -->
<svg version="1.1" id="Слой_1" xmlns="http://www.w3.org/2000/svg" xmlns:xlink="http://www.w3.org/1999/xlink" x="0px" y="0px"
	 width="1072.3px" height="1071px" viewBox="0 0 1072.3 1071" style="enable-background:new 0 0 1072.3 1071;" xml:space="preserve"
	>
<style type="text/css">
	.st0{fill:url(#SVGID_1_);filter:url(#Adobe_OpacityMaskFilter);}
	.st1{fill:url(#SVGID_2_);}
	.st2{mask:url(#mask0_0_1_1_);}
	.st3{fill:url(#SVGID_3_);}
	.st4{fill:url(#SVGID_4_);}
	.st5{fill:url(#SVGID_5_);}
	.st6{fill:url(#SVGID_6_);}
	.st7{fill:url(#SVGID_7_);}
	.st8{fill:url(#SVGID_8_);}
	.st9{fill:url(#SVGID_9_);}
	.st10{fill:url(#SVGID_10_);}
	.st11{fill:url(#SVGID_11_);}
	.st12{fill:url(#SVGID_12_);}
	.st13{fill:url(#SVGID_13_);}
	.st14{fill:url(#SVGID_14_);}
	.st15{fill:url(#SVGID_15_);}
	.st16{fill:url(#SVGID_16_);}
	.st17{fill:url(#SVGID_17_);}
	.st18{fill:url(#SVGID_18_);}
	.st19{fill:url(#SVGID_19_);}
	.st20{fill:url(#SVGID_20_);}
	.st21{fill:url(#SVGID_21_);}
	.st22{fill:url(#SVGID_22_);}
	.st23{fill:url(#SVGID_23_);}
	.st24{fill:url(#SVGID_24_);}
	.st25{fill:url(#SVGID_25_);}
	.st26{fill:url(#SVGID_26_);}
	.st27{fill:url(#SVGID_27_);}
	.st28{fill:url(#SVGID_28_);}
	.st29{fill:url(#SVGID_29_);}
	.st30{fill:url(#SVGID_30_);}
	.st31{fill:url(#SVGID_31_);}
	.st32{fill:url(#SVGID_32_);}
	.st33{fill:url(#SVGID_33_);}
	.st34{fill:url(#SVGID_34_);}
	.st35{fill:url(#SVGID_35_);}
	.st36{fill:url(#SVGID_36_);}
	.st37{fill:url(#SVGID_37_);}
	.st38{fill:url(#SVGID_38_);}
	.st39{fill:url(#SVGID_39_);}
	.st40{fill:url(#SVGID_40_);}
	.st41{fill:url(#SVGID_41_);}
	.st42{fill:url(#SVGID_42_);}
	.st43{fill:#FFFFFF;}
	.st44{fill:url(#SVGID_43_);}
	.st45{fill:url(#SVGID_44_);}
	.st46{fill:url(#SVGID_45_);}
	.st47{fill:url(#SVGID_46_);}
	.st48{fill:url(#SVGID_47_);}
	.st49{fill:url(#SVGID_48_);}
	.st50{fill:url(#SVGID_49_);}
	.st51{fill:url(#SVGID_50_);}
	.st52{fill:url(#SVGID_51_);}
	.st53{fill:url(#SVGID_52_);}
	.st54{fill:url(#SVGID_53_);}
	.st55{fill:url(#SVGID_54_);}
	.st56{fill:url(#SVGID_55_);}
	.st57{fill:url(#SVGID_56_);}
	.st58{fill:url(#SVGID_57_);}
	.st59{fill:url(#SVGID_58_);}
	.st60{fill:url(#SVGID_59_);}
	.st61{fill:url(#SVGID_60_);}
	.st62{fill:url(#SVGID_61_);}
	.st63{fill:url(#SVGID_62_);}
	.st64{fill:url(#SVGID_63_);}
	.st65{fill:url(#SVGID_64_);}
	.st66{fill:url(#SVGID_65_);}
	.st67{fill:url(#SVGID_66_);}
	.st68{fill:url(#SVGID_67_);}
	.st69{fill:url(#SVGID_68_);}
	.st70{fill:url(#SVGID_69_);}
	.st71{fill:url(#SVGID_70_);}
	.st72{fill:url(#SVGID_71_);}
	.st73{opacity:0.3;fill:#D9D9D9;enable-background:new    ;}
	.st74{opacity:0.66;}
	.st75{fill:#D9D9D9;}
</style>
<defs>
	<filter id="Adobe_OpacityMaskFilter" filterUnits="userSpaceOnUse" x="-139" y="-181" width="1498.6" height="1252">
		<feColorMatrix  type="matrix" values="1 0 0 0 0  0 1 0 0 0  0 0 1 0 0  0 0 0 1 0"/>
	</filter>
</defs>
<mask maskUnits="userSpaceOnUse" x="-139" y="-181" width="1498.6" height="1252" id="mask0_0_1_1_">
	
		<linearGradient id="SVGID_1_" gradientUnits="userSpaceOnUse" x1="539.114" y1="1069.8898" x2="539.114" y2="-1.1102" gradientTransform="matrix(1 0 0 -1 0 1069.8898)">
		<stop  offset="0" style="stop-color:#6CA2F3"/>
		<stop  offset="1" style="stop-color:#F9F3F6"/>
	</linearGradient>
	<rect x="3" y="0" class="st0" width="1072.3" height="1071"/>
	
		<linearGradient id="SVGID_2_" gradientUnits="userSpaceOnUse" x1="539.114" y1="1069.8898" x2="539.114" y2="-1.1102" gradientTransform="matrix(1 0 0 -1 0 1069.8898)">
		<stop  offset="0" style="stop-color:#002566"/>
		<stop  offset="1" style="stop-color:#002D3E"/>
	</linearGradient>
	<rect x="3" y="0" class="st1" width="1072.3" height="1071"/>
</mask>
<g class="st2">
	
		<linearGradient id="SVGID_3_" gradientUnits="userSpaceOnUse" x1="536.581" y1="1069.8898" x2="536.581" y2="-1.1102" gradientTransform="matrix(1 0 0 -1 0 1069.8898)">
		<stop  offset="0" style="stop-color:#6CA2F3"/>
		<stop  offset="1" style="stop-color:#F9F3F6"/>
	</linearGradient>
	<rect x="0.4" y="0" class="st3" width="1072.3" height="1071"/>
	
		<linearGradient id="SVGID_4_" gradientUnits="userSpaceOnUse" x1="536.581" y1="1069.8898" x2="536.581" y2="-1.1102" gradientTransform="matrix(1 0 0 -1 0 1069.8898)">
		<stop  offset="0" style="stop-color:#002566"/>
		<stop  offset="1" style="stop-color:#002D3E"/>
	</linearGradient>
	<rect x="0.4" y="0" class="st4" width="1072.3" height="1071"/>
	
		<linearGradient id="SVGID_5_" gradientUnits="userSpaceOnUse" x1="1168.8737" y1="654.8064" x2="-40.4924" y2="654.8026" gradientTransform="matrix(1 0 0 -1 0 1069.8898)">
		<stop  offset="0" style="stop-color:#FEFEFE;stop-opacity:0"/>
		<stop  offset="1" style="stop-color:#FFFFFF"/>
	</linearGradient>
	<rect x="-14.1" y="413.1" class="st5" width="1128.9" height="3.9"/>
	
		<linearGradient id="SVGID_6_" gradientUnits="userSpaceOnUse" x1="1787.2538" y1="1067.281" x2="576.4825" y2="1067.2781" gradientTransform="matrix(-1 0 0 -1 1686.218 1214.6188)">
		<stop  offset="0" style="stop-color:#FEFEFE;stop-opacity:0"/>
		<stop  offset="1" style="stop-color:#FFFFFF"/>
	</linearGradient>
	<rect x="-46.9" y="144.7" class="st6" width="1130.2" height="5.3"/>
	
		<linearGradient id="SVGID_7_" gradientUnits="userSpaceOnUse" x1="1785.8737" y1="1067.9489" x2="576.5132" y2="1067.9447" gradientTransform="matrix(-1 0 0 -1 1717.798 1204.0938)">
		<stop  offset="0" style="stop-color:#FEFEFE;stop-opacity:0"/>
		<stop  offset="1" style="stop-color:#FFFFFF"/>
	</linearGradient>
	<rect x="-14" y="134.2" class="st7" width="1128.9" height="3.9"/>
	
		<linearGradient id="SVGID_8_" gradientUnits="userSpaceOnUse" x1="963.9136" y1="317.9762" x2="-163.6994" y2="317.9731" gradientTransform="matrix(1 0 0 -1 0 1069.8898)">
		<stop  offset="0" style="stop-color:#FEFEFE;stop-opacity:0"/>
		<stop  offset="1" style="stop-color:#FFFFFF"/>
	</linearGradient>
	<rect x="-139" y="750" class="st8" width="1052.6" height="3.9"/>
	
		<linearGradient id="SVGID_9_" gradientUnits="userSpaceOnUse" x1="3212.5244" y1="270.2448" x2="2084.9143" y2="270.2409" gradientTransform="matrix(-1 0 0 1 3469.1279 297.5282)">
		<stop  offset="0" style="stop-color:#FEFEFE;stop-opacity:0"/>
		<stop  offset="1" style="stop-color:#FFFFFF"/>
	</linearGradient>
	<rect x="307" y="565.8" class="st9" width="1052.6" height="3.9"/>
	
		<linearGradient id="SVGID_10_" gradientUnits="userSpaceOnUse" x1="3158.2344" y1="-2.1047" x2="1891.0845" y2="-2.1097" gradientTransform="matrix(-1 0 0 1 3087.5679 842.2383)">
		<stop  offset="0" style="stop-color:#FEFEFE;stop-opacity:0"/>
		<stop  offset="1" style="stop-color:#FFFFFF"/>
	</linearGradient>
	<rect x="-14.1" y="838.1" class="st10" width="1182.8" height="3.9"/>
	
		<linearGradient id="SVGID_11_" gradientUnits="userSpaceOnUse" x1="3058.5842" y1="242.6143" x2="1930.9744" y2="242.6104" gradientTransform="matrix(-1 0 0 1 3161.248 352.7882)">
		<stop  offset="0" style="stop-color:#FEFEFE;stop-opacity:0"/>
		<stop  offset="1" style="stop-color:#FFFFFF"/>
	</linearGradient>
	<rect x="153" y="593.4" class="st11" width="1052.6" height="3.9"/>
	
		<linearGradient id="SVGID_12_" gradientUnits="userSpaceOnUse" x1="841.8276" y1="362.2988" x2="841.8276" y2="279.5488" gradientTransform="matrix(1 0 0 -1 0 1069.8898)">
		<stop  offset="0" style="stop-color:#79BBDF;stop-opacity:0.69"/>
		<stop  offset="1" style="stop-color:#153E54;stop-opacity:0.78"/>
	</linearGradient>
	<path class="st12" d="M1028.8,766c-3-8.2,5.8-10.1,12.9-17.1c6.9-7.1,12.2-8.2,0-12.5c-12.2-4.3-12.2-8.6-7.6-12.5
		c4.6-4-12.2,1.5-12.2,1.5s6.9-8.9-7.6-16.2c-14.7-7.1-30.4-16.5-33.9-5.4c-3.5,11-6.4,15.7-12.2,12.9c-5.8-2.8-15.9-4-18.2,1.2
		c-2.3,4.9,6.9,8.6-3,10.7c-9.9,2.1-11.1-4.3-19.4-2.8c-8.3,1.5-8.3,5.8-10.6,7.6c-2.3,1.8-12.2,0-18.7,3.3
		c-6.5,3.3-9.9,2.1-12.9-1.8c-3-4-9.9-6.1-15.9-6.1c-5.8,0-13.4-6.8-16.4-8.2c-3-1.5-14.1-4-16.4,2.8c-2.3,6.8-9.4,11-12.9,8.9
		s-17.5-4.9-24.6-10.7c-6.9-5.8-18.2,1.5-22.3-2.8c-4.1-4.3-17-11.7-24.6-12.5c-7.6-0.7-27.4,3.1-29.3,12.5
		c-1.8,9.2,6.9,19-9.4,17.5c-16.4-1.5-73.2,1-77.9,9.2c-4.6,8.2,4.6,23.6,14.7,26.9c8.3,2.6,25.3,2.1,25.5,9.4l334.3,0
		c0.2,0,0.3,0,0.5-0.2C1023,778.6,1031.8,774.3,1028.8,766z"/>
	
		<linearGradient id="SVGID_13_" gradientUnits="userSpaceOnUse" x1="218.1737" y1="195.7308" x2="218.1737" y2="130.0568" gradientTransform="matrix(1 0 0 -1 0 1069.8898)">
		<stop  offset="0" style="stop-color:#79BBDF;stop-opacity:0.69"/>
		<stop  offset="1" style="stop-color:#153E54;stop-opacity:0.78"/>
	</linearGradient>
	<path class="st13" d="M320,924.8c3.1-2.5-2.2-5,0.5-7.2c5.8-4.9,18.2-8.9,18.4-11.6c0.5-8.4,8-19.3,3.5-21.5
		c-1.8-1-3.3-5.9-9.6-4.4c-4.6,1.2-13.9,8.7-18.2,9.2c-4,0.5-7.3-5.2-8.9-3.9c-6,4.4-24.2,12.9-29.2,9.7c-5-3.2-9.1-11.4-19.4-6
		c-10.3,5.4-24.2,3.5-32.3-2.7c-5.1-3.9-5.5-1.8-15.1,5c-1.5,1.2-4.8-4-8.1-2.7c-3,1.2-5.8,8.9-7.5,10.2c-3.1,2.7-6,6.7-10.1,4.9
		c0,0-1.2-4.5,1.2-13.9c2.3-9.2,8-19.1,5.5-22.3c-2.3-3-5.8,4-13.3,7c-3.5,1.3-11.1-3.2-13.9-1c-4.3,3.4-7.3,12.2-7.3,12.2
		s-4-7.9-11.8-7.5c-6.1,0.2-15.1,7.7-22,10.2c-9.3,3.4-19.6,16.4-20.9,17.1c-1.5,0.8,1.5,8-4.5,19.1c-1.3,2.5-3,5.2-4.5,7.9h214.1
		c0.3-0.8,0.8-1.7,1.5-2.3C309.6,928.3,317.9,926.5,320,924.8z"/>
	
		<linearGradient id="SVGID_14_" gradientUnits="userSpaceOnUse" x1="725.385" y1="199.8998" x2="725.385" y2="245.8718" gradientTransform="matrix(1 0 0 -1 0 1069.8898)">
		<stop  offset="0" style="stop-color:#79BBDF;stop-opacity:0.69"/>
		<stop  offset="1" style="stop-color:#153E54;stop-opacity:0.78"/>
	</linearGradient>
	<path class="st14" d="M728.1,861.1c-5.4,2.5-8.4,3.2-9.2,0c-0.8-3.2-3.1-6-5.4-6c-2.3,0-2.3-3.2-3-5c-0.7-1.8-4.6-2.2-6.1-1.8
		c-1.5,0.3-6.1-4.2-6.6-5.7c-0.7-1.3,1.8-3.5,2.6-6c0.8-2.5,6.6-9.5,11-7.3c4.3,2.2,6.9,13.7,10,10.5c3.1-3.2,2-8.2,3.1-7.7
		c1.2,0.3,4.9,2.8,5.3,3.8c0.3,1,6.1,2.5,6.9-0.3c0.8-2.8,5.4-2.5,7.6,1c2,3.5-2.6,13,0,13.7c2.6,0.7,5.6,5,7.9,9.2
		c2.3,4.2-1,15.5-9.5,15.5c-0.8,0-6.4-6.7-11.2-6.7c-4.8,0-7.9,6.7-8.1,3.8C722.9,869.5,728.1,861.1,728.1,861.1z"/>
	
		<linearGradient id="SVGID_15_" gradientUnits="userSpaceOnUse" x1="589.8661" y1="149.7217" x2="589.8661" y2="206.2018" gradientTransform="matrix(1 0 0 -1 0 1069.8898)">
		<stop  offset="0" style="stop-color:#79BBDF;stop-opacity:0.69"/>
		<stop  offset="1" style="stop-color:#153E54;stop-opacity:0.78"/>
	</linearGradient>
	<path class="st15" d="M599.3,909.6c-4.9,6.3-7.9,8.9-10.9,5.8c-3-3.1-7.4-5-10.2-3.6c-2.8,1.5-4.6-2.3-6.4-4
		c-1.8-1.7-6.7,0.3-8.2,1.7c-1.5,1.3-9.7-1.2-11.2-2.5c-1.5-1.3-0.2-5.1-0.7-8.6c-0.3-2,5.8-4,7.6-7.6c1.3-2.8-2-7.8,0.8-7.9
		c6.4-0.2,16.6,11.8,18.4,6.1c1.8-5.6-2.5-10.8-1-11.1c1.6-0.3,7.6,0.2,8.6,1.3c1,1,8.7-0.8,7.9-4.8c-0.7-3.8,4.9-6.3,9.5-3.5
		c4.6,2.8,4.9,16.9,8.4,16.1c3.5-0.8,9.5,2.3,14.8,5.8c3.1,2.2-0.5,10.3-2,16.6c-1,4.1,0.5,7.3,0.2,7.6c-0.3,0.2-2.5,4.8-5.1,5.5
		c-2,0.5-4.1,3-5.9,2.5c-2.5-0.5-4.3-4.1-4.3-4.1s-7.1,7.9-9.2,4.8C598.3,922.7,599.3,909.6,599.3,909.6z"/>
	
		<linearGradient id="SVGID_16_" gradientUnits="userSpaceOnUse" x1="903.6315" y1="924.0818" x2="903.6315" y2="969.8688" gradientTransform="matrix(1 0 0 -1 0 1069.8898)">
		<stop  offset="0" style="stop-color:#79BBDF;stop-opacity:0.69"/>
		<stop  offset="1" style="stop-color:#153E54;stop-opacity:0.78"/>
	</linearGradient>
	<path class="st16" d="M1038.1,121.4l25.2,11.6c3.3,1.5,5.4,4.8,5.4,8.5c0,5.1-4.2,9.3-9.3,9.3H748.1c-5.3,0-9.6-4.3-9.6-9.6
		c0-3.5,1.9-6.7,5-8.4l21.3-11.8c2.4-1.3,5-2,7.8-2h21.5c4.3,0,8.4,1.7,11.4,4.8l6.8,6.9c3,3.1,7.1,4.8,11.4,4.8h23.8
		c2,0,4.1-0.4,6-1.2l38.2-15.4l31.2-11.3c4.7-1.7,9.9-1.1,14.1,1.6l34.5,22.3c4,2.5,8.8,3.2,13.3,1.9l41.9-12.7
		C1030.5,119.5,1034.6,119.8,1038.1,121.4z"/>
	
		<linearGradient id="SVGID_17_" gradientUnits="userSpaceOnUse" x1="316.5635" y1="914.1158" x2="316.5635" y2="995.0057" gradientTransform="matrix(1 0 0 -1 0 1069.8898)">
		<stop  offset="0" style="stop-color:#79BBDF;stop-opacity:0.69"/>
		<stop  offset="1" style="stop-color:#153E54;stop-opacity:0.78"/>
	</linearGradient>
	<path class="st17" d="M542.6,87.7c19.1,13.7,48,34.4,61,43.8c4.1,3,6.5,7.7,6.5,12.8v4.2c0,8.8-7.2,16-16,16H39
		c-8.8,0-16-7.2-16-16v-4.5c0-4.9,2.2-9.6,6.1-12.5C46.5,118.2,73.7,98.6,79,99.4c7.5,1.2,59.7,36.8,68.4,36.8s102-17.2,116.9-25.8
		c14.9-8.6,87.1-27,94.5-27c7.5,0,56,30.7,67.2,27c8.4-2.8,68.7-17.1,103.6-25.3C534.1,84.1,538.9,85,542.6,87.7z"/>
	
		<linearGradient id="SVGID_18_" gradientUnits="userSpaceOnUse" x1="535.9489" y1="809.2457" x2="535.9489" y2="1065.6519" gradientTransform="matrix(1 0 0 -1 0 1069.8898)">
		<stop  offset="0" style="stop-color:#79BBDF;stop-opacity:0.69"/>
		<stop  offset="1" style="stop-color:#153E54;stop-opacity:0.78"/>
	</linearGradient>
	<path class="st18" d="M1145.5,31.5c4.8,1.7,9.2,3.5,13.5,5.2v157.7c-2.1,0.2-2.7,2.1-3.5,7.1c-1.2,6.9-9.8,17.3-21.7,17.9
		c-11.9,0.6-19.4,8.3-31.2,15.6c-11.9,7.3-6.3,16.3-34.8,23.6c-28.5,7.3-17.3-5-29.6-16.3c-12.3-11.5-6-2.5-8.3,1
		c-2.3,3.5-9.8,0.8-10.6-0.8c-0.8-1.5-5.8-8.5-12.9-1.3c-7.1,6.9-7.1,3.8-7.5,2.5c-0.4-1.3-12.3-4.4-17.7,1.9
		c-5.6,6.3-10.2,1.3-30.8-4.4c-20.6-5.8-16.5-8.8-16.5-1.3c0,7.7-7.5,5.8-18.5,7.3c-11,1.5-21-10.8-22.1-4.4
		c-1.2,6.3-17.7,0-16.5,1.5c1.2,1.5-0.4,4.6-5.2,9s-6.7,2.5-9,1c-2.3-1.5-1.2-3.3-9-7.7c-7.9-4.4-14.2-1.5-14.2,0.6
		c0,2.3-8.7,14-16.2,16.5c-7.5,2.5-8.3,11.5-14.6,12.1c-6.3,0.6-6.7-9.6-9-12.5c-2.3-2.9-6-1.5-7.1,4.2s-10.6,5.8-17.3,5.8
		c-6.7,0-9.8,3.8-16.9,10.8c-7.1,6.9-14.2,4.8-30.8,0c-16.5-4.8-22.1-4.8-35.2-4.2s-12.3-1.9-18.1-3.5c-6-1.5-5.2,1-12.3,0
		c-7.1-1-1.5-13.1-5.2-10.2c-3.5,2.9-15.4,5.2-23.7,5.4c-8.3,0.4-17.7-2.9-27.3-3.8c-9.4-1-11.9-3.3-18.5-8.6
		c-6.7-5.4-9-11.7-15.8-17.5c-6.7-5.8-21.7-14.4-23.3-11.5c-1.5,2.9-8.7,4.2-13.5,2.5c-4.8-1.5-13.5-1-20.6,0
		c-7.1,1-9.4-0.6-12.3-2.9c-2.7-2.3-3.1-2.3-8.7-3.3c-5.6-1-9.8,0-9.4-4.4c0.4-4.4,0-7.9-7.5-6.1c-7.5,1.9-7.1,2.3-9.8-4.2
		c-2.7-6.3-5.6-2.9-14.2-2.5c-8.7,0.4-9,0.6-9-4.2c0-4.8-5.6-2.9-16.2-2.9c-10.6,0-12.3-1.5-13.1-4.4c-0.8-2.9-18.1,0.4-19-1.9
		c-0.8-2.3-8.3-1.5-15.8-0.6c-7.5,1-0.4,3.5,0,7.7c0.4,4.2-1.2,9.2-5.6,6.3c-4.4-2.9-2.7-7.1-10.2-6.1c-7.5,1-15.4,1.3-16.9,4.6
		c-1.5,3.3-9.8,5.2-16.2,6.7c-6.3,1.5-1.9,13.6-6.7,20.4c-4.8,6.7-13.8,12.5-21.7,11.1c-7.9-1.3-6.3-5.4-8.3-3.8
		c-1.9,1.5-4.8,2.9-11,0c-6.3-2.9-10.2-2.9-11.9-1.9c-1.5,1-8.3-0.4-11.9-3.8c-3.5-3.5-9-3.5-14.2-4.8c-5.2-1.3-17.3-3.5-22.1,4.8
		c-4.8,8.3-7.1,7.7-9.4,7.9c-2.3,0.4-9-3.8-9.4,1.3c-0.4,5.2-10.2,7.9-12.7,3.3c-2.3-4.8-15-1.9-19,1.3c-4,3.3-20.6,13.6-26.7,8.6
		c-6.3-5.2-6.7-7.3-6.7-7.3c-24-9.2-5.2-16.9-15-23.2c-9.8-6.3-15-31.1-18.1-33c-3.1-1.9-7.5,0-9.8-1.9c-2.3-1.9-6.7-3.5-6.3-7.3
		c0.4-3.8-7.9-5.8-10.2-5.4c-2.3,0.4-11.9,0.4-13.5-3.5c-1.5-3.7-8.3-0.4-10.2-0.2c-1.9,0.4-8.7,0-11.5-2.3c-2.7-2.3-4-5.8-6.7-6.3
		c-2.7-0.6-4.4-1.5-3.1-4c1.2-2.3-1.2-2.3-3.1-6c-1.9-3.5-5.2-2.9-13.5-2.9c-8.3,0-7.5,6.5-19,3.5c-2.1-0.6-6.7-4.2-8.3-5
		c-1.5-0.8-5.2-1.3-6-0.4c-0.8,1-6,0-6,0s-2.3-1.5-3.1-4c-0.8-2.5-4.4-1.5-4.4-1.5s-3.5,0-5.2,1.3c-1.5,1.3-3.1-1.3-5.2-3.6
		c-1.9-2.3-8.7-3.1-12.7-0.6c-19,12.3-27.3,4.6-34.6,1.3V31.5H1145.5z"/>
	
		<linearGradient id="SVGID_19_" gradientUnits="userSpaceOnUse" x1="4.6832" y1="892.5648" x2="4.6832" y2="1071.1333" gradientTransform="matrix(1 0 0 -1 0 1069.8898)">
		<stop  offset="0" style="stop-color:#79BBDF;stop-opacity:0.69"/>
		<stop  offset="1" style="stop-color:#153E54;stop-opacity:0.78"/>
	</linearGradient>
	<path class="st19" d="M91.6,104.2c-1.3,10.7,1.9,23-1.9,27.2c-3.9,4.2-18.3,40.6-22,36.6c-3.7-4-18.5-37.9-22.9-32.6
		c-4.4,5.6-12.3,17-19.1,12.8c-6.5-4.4-17.5,1.9-25,12.1c-7.5,10.2-7.9,27.2-19.8,7.7c0,0-5,16.3-10.2,26.2
		c-5.2,10-22.3-14.6-22.3-14.6s-24.8,14.9-30.8-8.8v-86c10.2-7.9,20.6-13.2,27-11.5c8.5,2.3,10.2-42,21.4-51.3
		c11.4-9.4,25-2.1,23.1,10.2C-12.9,44.2,5.7,49.8,8.2,46.5c2.5-3.4,17.1-5.6,21-4.8c3.9,0.8-7.1,17-3.1,34.9
		c4,17.8,29.7-20.7,45.4-20.5C87.6,56.3,93,93.5,91.6,104.2z"/>
	
		<linearGradient id="SVGID_20_" gradientUnits="userSpaceOnUse" x1="369.3078" y1="892.1277" x2="369.3078" y2="995.9116" gradientTransform="matrix(1 0 0 -1 0 1069.8898)">
		<stop  offset="0" style="stop-color:#79BBDF;stop-opacity:0.69"/>
		<stop  offset="1" style="stop-color:#153E54;stop-opacity:0.78"/>
	</linearGradient>
	<path class="st20" d="M352,158c9,11.5,14.6,16.3,19.9,10.5c5.4-5.8,13.4-9.1,18.4-6.6c5,2.7,8.4-4.1,11.7-7.4
		c3.3-3.1,12.3,0.8,14.9,3.1c2.7,2.3,17.6-2.1,20.5-4.5c2.9-2.3,0.2-9.5,1-15.7c0.6-3.5-10.5-7.2-13.8-14
		c-2.5-5.2,3.4-14.2-1.5-14.4c-11.7-0.4-30.1,21.6-33.3,11.1c-3.3-10.5,4.6-19.6,1.7-20.2c-2.9-0.6-13.6,0.4-15.5,2.3
		c-1.7,1.9-15.7-1.6-14.6-8.7c1.3-7-9-11.5-17.2-6.2c-8.2,5.2-8.8,30.9-15.1,29.5s-17.4,4.3-27,10.7c-5.7,3.9,0.8,18.8,3.6,30.3
		c1.7,7.4-1,13.4-0.2,13.8c0.8,0.4,4.6,8.7,9.4,9.9c3.6,1,7.5,5.4,10.9,4.7c4.4-1,7.7-7.4,7.7-7.4s13,14.6,16.7,8.9
		C354,182.1,352,158,352,158z"/>
	
		<linearGradient id="SVGID_21_" gradientUnits="userSpaceOnUse" x1="911.2748" y1="844.4938" x2="911.2748" y2="917.7527" gradientTransform="matrix(1 0 0 -1 0 1069.8898)">
		<stop  offset="0" style="stop-color:#79BBDF;stop-opacity:0.69"/>
		<stop  offset="1" style="stop-color:#153E54;stop-opacity:0.78"/>
	</linearGradient>
	<path class="st21" d="M918.6,222.2c2.7-3.7,9,0.6,12.9-3.5s9.6-6.5,13.2-4.6c3.5,1.9,6.1-2.9,8.3-5.2c2.3-2.1,8.8,0.6,10.8,2.3
		s12.7-1.5,14.6-3.3c1.9-1.7,15-11.2,15.5-15.6c0.4-2.5-22.3-0.6-24.8-5.4c-1.7-3.7,2.5-10-1.2-10.2c-8.3-0.2-21.5,15.2-23.8,7.9
		c-2.3-7.3,3.3-13.9,1.3-14.2c-2.1-0.4-9.8,0.4-11.1,1.7C933,173.5,923,171,924,166c1-5-6.5-8.1-12.3-4.4
		c-5.9,3.7-6.3,21.9-10.9,20.8c-4.6-1-12.5,3.1-19.2,7.5c-4.2,2.7-54.7,4-52.8,12.1c0.4,1.9,5.8,14.2,13.2,16.9
		c5,1.9,11.1-9.8,17.1-10c9.6,0,19.2,10.8,24.8,11.9c0.6,0.2,3.3,6.2,6.7,7.1c2.5,0.6,5.4,3.9,7.9,3.3c3.1-0.8,5.6-5.2,5.6-5.2
		s9.2,10.4,11.9,6.4C918.8,228.3,918.6,222.2,918.6,222.2z"/>
	
		<linearGradient id="SVGID_22_" gradientUnits="userSpaceOnUse" x1="862.354" y1="882.7767" x2="862.354" y2="1041.5045" gradientTransform="matrix(1 0 0 -1 0 1069.8898)">
		<stop  offset="0" style="stop-color:#79BBDF;stop-opacity:0.69"/>
		<stop  offset="1" style="stop-color:#153E54;stop-opacity:0.78"/>
	</linearGradient>
	<path class="st22" d="M1056.6,138.5c0,0,9,9.3-5.2,19.9c-14.2,10.6-29.4,24-35,11.6c-5.6-12.4-9.6-17.2-15.2-13
		c-5.8,4.3-16,7.2-19.4,1.5c-3.3-5.4,6-11-5-12c-11-1-11,6.8-20,6.4c-8.9-0.4-9.6-5.4-12.5-7c-2.7-1.7-13.1,1.9-20.4-0.8
		c-7.3-2.7-11-1-13.3,4.1c-2.5,5-9.4,8.7-15.8,9.5c-6.2,1-13.1,10.1-16,12.2c-2.9,2.1-14.2,6.8-17.9-0.8
		c-3.7-7.5-11.7-11.4-15.2-8.3c-3.3,3.1-17.7,8.5-24.2,16.4c-6.5,7.7-19.4,1.2-23.1,6.8c-3.7,5.6-16,16.4-23.9,18.4
		c-7.9,2.1-29.6,0.6-33.1-9.9c-3.5-10.4,4.2-23-12.9-18.8c-17.1,4.3-77.5,10.4-84.1,1.5c-6.3-8.7,1-28,11-33.4
		c10-5.2,33.7-7.2,22.3-20.7c-11.5-13.5-18.3-25.7-14.8-36c3.5-10.2,11.5-16,35.2-18.8c23.7-2.7,66.6,4.4,84.8,8.5
		c18.3,4.1,19-8.3,21.7-15.1c2.9-6.8,33.1-11.8,59.8-15.3c26.7-3.7,38.7,17,57.9,19.3c19.2,2.1,71-17,76.2-15.7
		c5.2,1.4,16.7,10.6,16.7,18.2c-0.2,7.7,6,6.4,19.4,7.7c13.5,1.4,23.5,5,21.9,14.9c-1.7,10.1,7.9,10.6,16.5,17.8
		c8.7,7.2,14.4,7.5,2.1,14.5c-12.3,7-11.5,12-6,15.7C1075.6,142,1056.6,138.5,1056.6,138.5z"/>
	
		<linearGradient id="SVGID_23_" gradientUnits="userSpaceOnUse" x1="427.4033" y1="942.2947" x2="427.4033" y2="1029.2892" gradientTransform="matrix(1 0 0 -1 0 1069.8898)">
		<stop  offset="0" style="stop-color:#79BBDF;stop-opacity:0.69"/>
		<stop  offset="1" style="stop-color:#153E54;stop-opacity:0.78"/>
	</linearGradient>
	<path class="st23" d="M380,126.4c0,0-4.4,6,8.1,1.9c12.5-4.1,5.2,0.4,11,2.5c5.6,2.1,15.6-1,17.1-4.5c1.5-3.5,8.1-1.9,13.1,3.1
		c5,5,8.1-5,17.3-8.3c9.2-3.3,14.6-10.4,28.1-8.9c13.5,1.5,19.3,2.9,24.3-2.1c5-5-2.1-14.3,10.8-16.8c12.9-2.3,16-2.5,17.9-10.5
		c1.9-8.1,26-9.5-5.6-19.2c-31.6-9.7-25-18.2-48.9-11.4c-23.9,6.8-27.3,5.2-40.4,2.1C419.7,51.3,412,48,408.7,55
		c-3.1,7-19.3,7.2-31.8,4.3c-12.3-2.9-19.4-6-23.1,0c-3.7,6-4,23.8-18.5,30.4c-14.6,6.6-22.1,19.5-17.3,25.4
		c4.8,5.8,19.6,21.7,23.7,17c4-4.5,11.7-14.3,14.1-0.6S377.1,129.5,380,126.4z"/>
	
		<linearGradient id="SVGID_24_" gradientUnits="userSpaceOnUse" x1="931.9145" y1="1250.8898" x2="931.9145" y2="1008.1425" gradientTransform="matrix(1 0 0 -1 0 1069.8898)">
		<stop  offset="0" style="stop-color:#79BBDF;stop-opacity:0.69"/>
		<stop  offset="1" style="stop-color:#153E54;stop-opacity:0.78"/>
	</linearGradient>
	<path class="st24" d="M816.7-112c11-0.2,12.5,2.3,13.5,6.3c0.8,4,18.7-0.4,19.4,2.7c0.8,3.1,8.5,2.3,16.2,1c7.7-1.3,0.4-5,0-10.8
		c-0.4-5.8,1.2-12.9,5.8-9c4.4,4,2.9,10,10.6,8.6c7.7-1.3,15.8-1.9,17.5-6.3c1.5-4.4,10.2-7.1,16.8-9.4c6.5-2.3,2.1-19.2,6.9-28.6
		c4.8-9.4,14.2-17.5,22.3-15.6c8.1,1.7,6.6,7.7,8.5,5.4c2.1-2.3,4.8-4,11.4,0c6.3,3.8,10.4,3.8,12.1,2.5c1.5-1.3,8.5,0.4,12.1,5.4
		c3.7,5,9.4,5,14.6,6.7c5.2,1.7,17.9,5,22.7-6.7c4.8-11.5,7.3-10.8,9.8-11.1c2.5-0.4,9.4,5.4,9.8-1.7c0.4-7.1,10.6-11.1,13.1-4.4
		c2.5,6.7,15.4,2.7,19.4-1.7c4-4.4,10.6-1.7,17.1,5.4c6.5,7.1,6.9,10.2,6.9,10.2c24.8,12.9,5.2,23.6,15.4,32.7
		c10.2,9,15.4,43.8,18.7,46.5c3.3,2.7,7.7,0,10.2,2.7c2.5,2.7,6.9,5,6.5,10.2c-0.2,2.9,2.3,5,4.8,6.3v96.4H711.2l-6.4-8.3
		C707,24.6,751.9-111.4,816.7-112z"/>
	
		<linearGradient id="SVGID_25_" gradientUnits="userSpaceOnUse" x1="230.949" y1="1208.3197" x2="230.949" y2="1025.4805" gradientTransform="matrix(1 0 0 -1 0 1069.8898)">
		<stop  offset="0" style="stop-color:#79BBDF;stop-opacity:0.69"/>
		<stop  offset="1" style="stop-color:#153E54;stop-opacity:0.78"/>
	</linearGradient>
	<path class="st25" d="M-85.5,33c1.2-1,2.3-3.5,3.5-7.7c2.9-11.7,4.4-14.8,10.2-12.5c5.8,2.3,6.1,1,7.3-9
		c1.2-9.8,10.2-24.2,22.5-25.1c12.3-1,20-11.7,32.1-21.9C2.2-53.5,1.7-68.3,31-78.5c29.4-10.4,12.7,9,25.2,25.1
		c12.7,16.1,15.9,3.1,18.2-1.7c2.5-5,5.4-2.3,6.1,0c0.8,2.3,1.2,13.4,8.4,3.6s7.3-5.4,7.7-3.6c0.4,1.7,12.7,6.3,18.2-2.7
		c5.8-9,10.6-1.7,31.7,6.3c21.1,8.1,17.1,12.5,17.1,1.7c0-10.7,7.7-8.1,19.2-10.4c11.3-2.3,21.5,15.2,22.9,6.3
		c1.2-9,18.2,0,17.1-2.3c-1.2-2.3,2.9-16.1,7.7-22.5c4.8-6.3,4.4-3.6,6.9-1.3c2.5,2.3,1.2,14.4,9.4,20.5c8.1,6.3,14.6,2.3,14.6-1
		c0-3.1,9-19.8,16.7-23.2c7.7-3.6,8.4-16.1,15-17.1c6.5-1,6.9,13.4,9.4,17.5c2.5,4,6.1,2.3,7.3-5.8c1.2-8.1,10.9-8.1,17.9-8.1
		c6.9,0,10.2-5.4,17.5-15.2c7.3-9.8,14.6-6.7,31.7,0c17.1,6.7,22.9,6.7,36.3,5.8s12.7,2.7,18.6,5c6.1,2.3,5.4-1.3,12.7,0
		c7.3,1.3,1.5,18.4,5.4,14.4c3.6-4,15.9-7.1,24.4-7.7c8.4-0.4,18.2,4,28,5.4c9.8,1.3,12.3,4.4,19.2,12.1c6.9,7.7,9.4,16.5,16.3,24.6
		c2.5,2.9,6,6.3,9.6,9.2V33H-85.5z"/>
	
		<linearGradient id="SVGID_26_" gradientUnits="userSpaceOnUse" x1="275.2856" y1="878.2488" x2="275.2856" y2="966.7698" gradientTransform="matrix(1 0 0 -1 0 1069.8898)">
		<stop  offset="0" style="stop-color:#79BBDF;stop-opacity:0.69"/>
		<stop  offset="1" style="stop-color:#153E54;stop-opacity:0.78"/>
	</linearGradient>
	<path class="st26" d="M394,112.9c-1.5,10.8,3.1,22.9-1.7,27c-4.8,4.1-30.7,11.8-35.3,7.7c-4.6-4-20.3-10.6-25.7-5.4
		c-5.6,5.4-11.5,17-20.1,12.5c-8.6-4.4-22.5,1.4-31.7,11.2c-9.2,9.8-18.6,1.7-34.2-17.9c0,0,3.1,41.1-3.3,50.9
		c-6.5,9.8-28.8-15.2-28.8-15.2s-5.8,11-13.2,12.7c-5.8,1.4-12.7-6.4-18.8-7.9c-8.1-2.1-14.8-16.4-16.1-17
		c-1.3-0.6,3.3-10.8,0.4-23.5c-2.7-11.4-7.9-25.1-9.4-35.5h238C394,112.5,394,112.7,394,112.9z"/>
	
		<linearGradient id="SVGID_27_" gradientUnits="userSpaceOnUse" x1="1055.7491" y1="916.7098" x2="1055.7491" y2="1035.7555" gradientTransform="matrix(1 0 0 -1 0 1069.8898)">
		<stop  offset="0" style="stop-color:#79BBDF;stop-opacity:0.69"/>
		<stop  offset="1" style="stop-color:#153E54;stop-opacity:0.78"/>
	</linearGradient>
	<path class="st27" d="M1157.4,149.4c-2.7,2.3-5.9,4.2-9.8,4.8c-3.7,0.6-7.9-4.2-12.3-4.8c-4.8-0.6-11.5,7.4-17.3,9.1
		c-3.8,1.1-7.3-4.8-9.4-3.2c-5.2,3.8-1.9,8.2-5,9.9c-6.3,3.2-10.6-3-19.6-12c-4-4-9,4.2-13.8,1.5c-1.2-0.6-3.3-8.8-5.4-9.9
		c-2.5-1.3-5.2,4.4-6.3,2.9c-3.3-4.4-1.3-8.8-3.5-7.4c-4.2,2.7-2.7-4-7.3-8.4c-2.5-2.3-10-0.4-13.3-3.6c-6-5.9-9-14.1-16.3-17.5
		c-4.4-2.1-10.2,0.8-19.2-1.9c-23.8-6.9-13.8-10.5-35.3-35c-21.7-24.6-0.6-13.1,5.4-18.9c5.8-5.7,8.5-4.2,20.6,0.6
		s11.1-6.9,18.1-8.4c6.9-1.5,11.1,2.7,21.7,11c10.6,8.4,19,5.3,28.6,7.4c9.6,2.1,17.5-4.8,19,2.1c1.5,6.9,6.3,11.6,9.6,9.5
		c3.3-2.1,13.3,0.6,16.9,5.3c3.7,4.8-4.8,4.8,7.9,7.8c12.7,3.2,5.8,5.7,5.8,5.7c4.2-1.1,28.6-4.2,23.2,8.4
		c-5.4,12.6,6.3,8.4,12.1,6.9c1.9-0.6,3.5,1.3,5,4.2V149.4L1157.4,149.4z"/>
	
		<linearGradient id="SVGID_28_" gradientUnits="userSpaceOnUse" x1="548.9456" y1="1130.2604" x2="548.9456" y2="936.2267" gradientTransform="matrix(1 0 0 -1 0 1069.8898)">
		<stop  offset="0" style="stop-color:#79BBDF;stop-opacity:0.69"/>
		<stop  offset="1" style="stop-color:#153E54;stop-opacity:0.78"/>
	</linearGradient>
	<path class="st28" d="M280.7,88.8c3.3-3.5-2.5-48.8-7.3-52.2c-25.3-19.6,3.1-32.4,7.3-40.1c4-7.7,2.9-1.3,3.6,4
		c0.8,5.4,2.1,6.9,3.3-1.7c1.2-8.6,1.7-10.9,3.8-9.2c2.1,1.7,2.3,0.6,2.7-6.7c0.4-7.3,3.8-17.9,8.4-18.6c4.6-0.6,7.5-8.6,12.1-16.3
		c4.6-7.7,4.4-18.6,15.4-26.1c10.9-7.7,4.8,6.7,9.4,18.6c4.8,11.9,5.9,2.3,6.9-1.3c1-3.6,7.9-1.2,8.4,0c1.7,3.3,4.8,4.6,6.9-1.9
		c2.1-6.7,4-1.3,11.9,4.6c7.9,6,6.3,9.2,6.3,1.3c0-7.9,22.6-3.1,22.1-4.6c-0.4-1.7-2.1-3.1-0.2-7.9c1.9-4.6,4.6-1.3,5.6,0.4
		c1,1.7,0.6,0.6,3.6,5.2s5.6,1.7,5.6-0.6c0-2.3-2.7-15.4,0.2-17.9c2.9-2.7,6.9-4.8,9.4-5.6c2.5-0.6,8.3,8.3,8.6,2.1c0.4-6,4-6,6.7-6
		s3.8-4,6.5-11.3s5.6-5,11.9,0c6.3,5,8.6,5,13.6,4.2c5-0.6,4.8,1.9,7.1,3.6c2.3,1.7,1.9-1,4.8,0c2.7,1,0.6,13.6,1.9,10.6
		c1.3-3.1,6-5.4,9.2-5.6c3.3-0.4,6.9,3.1,10.6,4c3.6,1,4.6,3.3,7.1,9c2.7,5.6,5.9,11.3,8.6,17.3s8.4,8.3,9,5.2c0.6-3.1,7.9,6,10.6,5
		c2.7-1,6,5.4,8.1,6.3c2.1,1,3.8,0,3.6,4.6s7.3,8.1,7.9,11.1c1.3,6.5-1,3.6,2.5,3.3c3.5-0.4,7.7,6.1,11.7,6.1c4,0,4.8,1.7,5,4.6
		c0.4,3.1,7.1-0.4,7.3,1.9c0.4,2.3,3.3,1.7,6.1,0.6c2.9-1,2.7,0.4,2.5-3.8s4.8-0.4,6.3,2.5c1.7,3.1-1.7,5.2,1.2,4.2
		c2.9-1,3.6,0.8,4.4-2.5c0.6-3.3,1.9,0.4,4.4-1.3s-4-3.6-2.3-10.7c1.9-6.9,5.4-12.9,8.4-11.5c3.1,1.3,2.5,5.6,3.3,4
		c0.8-1.7,8.3,3.1,8.8,1.9c0.6-1,3.3,0.4,4.6,4c1.3,3.6,8.6,14,10.6,15.4c1.9,1.3,2.9-0.8,4.8-9.4c1.9-8.6,5-9.2,6-9.6
		c1-0.4,9.2-3.8,10.2,1.2c1,5,5.8,1.9,7.3-1.3c1.5-3.3,4-1.3,6.3,4c2.5,5.4,2.7,7.7,2.7,7.7c9.4,9.6,7.5-1.5,11.3,5
		c3.8,6.7,11.7,1.2,13.1,3.1c1.2,1.9,6.5,1.2,7.5,3.1c1,1.9,10.6,6.7,10.4,10.7c-0.2,4-20,12.1-19,11.7c1-0.4,4.6-0.4,5.2,3.5
		c0.6,3.8,3.3,0.4,4,0.2c0.8-0.4,3.5,0,4.4,2.3c1.2,2.3,1.5,6,2.7,6.7c1.2,0.6,1.7,1.7,1.2,4.2c-0.4,2.5,0.4,2.5,1.2,6.1
		c0.8,3.6,1.9,3.1,5.2,3.1c3.3,0,7.1-5.4,7.3-3.6c0.4,1.7,2.7,4.2,3.3,5.2c0.6,1,1.9,1.3,2.3,0.4c0.4-1,3.3,1.7,3.5,4.2
		c0.4,2.7,1.7,1.7,1.7,1.7s3.3,0,4,2.5s3.1,1.5,4.8,0.6c1.9-1,2.5-0.4,6,0c3.5,0.4,6.1,5.4,6.1,5.4c0.6,1,1.7,1.9,2.3-5.2
		c0.2-1.7,7.3-4.2,12.7,0c1.7,1.3,1.2,5,1.7,10.2c0.4,3.6,4.4,1.9,4.4,1.9c4-1.7,6.9-2.3,16.5,9.8c9.6,12.3,12.1,22.6,24.2,27.8
		c11.5,5-15,12.1-19.6,40.5H305.9c-4.4-10.2-7.3-20.7-18.4-28.4C256.8,95.7,277.5,92.2,280.7,88.8z"/>
	
		<linearGradient id="SVGID_29_" gradientUnits="userSpaceOnUse" x1="230.1847" y1="944.4067" x2="230.1847" y2="1008.5085" gradientTransform="matrix(1 0 0 -1 0 1069.8898)">
		<stop  offset="0" style="stop-color:#79BBDF;stop-opacity:0.69"/>
		<stop  offset="1" style="stop-color:#153E54;stop-opacity:0.78"/>
	</linearGradient>
	<path class="st29" d="M160.9,125.5c1-6.9-1.7-15,1-17.5c2.9-2.7,17.9-7.7,20.6-5c2.7,2.7,11.7,6.9,15,3.5c3.3-3.5,6.7-11,11.7-8.1
		c5,2.9,13.1-1,18.5-7.3c5.4-6.5,10.8-1.2,19.8,11.7c0,0-1.7-26.7,1.9-33.1c3.7-6.4,16.7,9.8,16.7,9.8s3.3-7.1,7.7-8.3
		c3.5-0.8,7.3,4.2,11,5.2c4.6,1.3,8.7,10.8,9.2,11.2c0.8,0.4-1.9,7.1-0.2,15.4c2.1,10,6.7,22.5,5.8,29.4H166.9
		C163.4,129.5,160.5,127.6,160.9,125.5z"/>
	
		<linearGradient id="SVGID_30_" gradientUnits="userSpaceOnUse" x1="565.3713" y1="879.2401" x2="564.4033" y2="995.4774" gradientTransform="matrix(1 0 0 -1 0 1069.8898)">
		<stop  offset="0" style="stop-color:#79BBDF;stop-opacity:0.69"/>
		<stop  offset="1" style="stop-color:#153E54;stop-opacity:0.78"/>
	</linearGradient>
	<path class="st30" d="M782.3,121.7c-3.5,9.7,6.7,11.9,15,20.2c8.1,8.4,14.2,9.7,0,14.8c-14.2,5.1-14.2,10.1-8.8,14.8
		c5.4,4.7-14.2-1.8-14.2-1.8s8.1,10.5-8.8,19.1c-17.1,8.4-35.4,19.5-39.4,6.4c-4-13-7.5-18.5-14.2-15.2s-18.4,4.7-21.1-1.4
		c-2.7-5.8,8.1-10.1-3.5-12.7c-11.5-2.5-12.9,5.1-22.5,3.3c-9.6-1.8-9.6-6.8-12.3-9c-2.7-2.1-14.2,0-21.7-3.9
		c-7.5-3.9-11.5-2.5-15,2.1c-3.5,4.7-11.5,7.2-18.4,7.2c-6.7,0-15.6,8-19,9.7c-3.5,1.8-16.3,4.7-19-3.3c-2.7-8-11-13-15-10.5
		c-4,2.5-20.4,5.8-28.6,12.6c-8.1,6.8-21.1-1.8-25.9,3.3s-19.8,13.8-28.6,14.8c-8.8,0.8-31.9-3.7-34-14.8
		c-2.1-10.9,8.1-22.4-11-20.6c-19,1.8-85.1-1.2-90.5-10.9c-5.4-9.7,5.4-27.8,17.1-31.7c9.6-3.1,29.4-2.5,29.6-11.1h388.5
		c0.2,0,0.4,0,0.6,0.2C775.6,106.9,785.8,111.9,782.3,121.7z"/>
	
		<linearGradient id="SVGID_31_" gradientUnits="userSpaceOnUse" x1="960.1981" y1="817.3538" x2="960.1981" y2="1035.604" gradientTransform="matrix(1 0 0 -1 0 1069.8898)">
		<stop  offset="0" style="stop-color:#79BBDF;stop-opacity:0.69"/>
		<stop  offset="1" style="stop-color:#153E54;stop-opacity:0.78"/>
	</linearGradient>
	<path class="st31" d="M1147.6,252c-6.7,6.6-18.1,8.9-20.7-2.5c-2.7-11.4,8.1-19.5-3.3-24.3c-11.5-4.8-12.9,9.6-22.1,6.6
		c-9.4-3.3-9.4-12.9-12.1-17c-2.7-4-14,0-21.5-7.3c-7.3-7.3-11.3-4.8-14.8,4c-3.3,8.9-11.3,13.7-18,13.7c-6.7,0-15.4,15.4-18.8,18.5
		c-3.5,3.3-16.1,8.9-18.8-6.6c-2.7-15.4-10.8-25.1-14.8-20.2c-4,4.8-20.2,11.4-28.2,24.3c-8.1,12.9-20.7-3.3-25.5,6.6
		c-1.9,4-13.1,6.4-17.3,11.4c-5.9,6.9-5.9,16-10.9,17c-4,0.8-10.8-21-17.3-24.9c-7.9-4.4-15.2,8.1-16.3-3.5
		c-1.9-21,8.1-42.8-10.8-39.5c-9.4,1.5-30.3,18.5-49.7,15.2c-9.4-1.5-8.6-10.6-15.7-17.9c-4-4.2-10.6,3.9-15.6,0.6
		c-4.2-2.7-7.7-16.8-8.3-18.9c-1.7-6-6.9-16.8-5.4-29.1c0.6-5.4,8.4-11,8.4-16.8c0-7.1,6.7-14.3,6.3-20.6c-1-13.3-9.2-23.7-5-26.4
		c11.3-7.3,29.4,11.6,39.4-0.8c8.6-10.8,5.6-23.5,0.6-36h347.5v208.2C1155.9,252,1152.8,247,1147.6,252z"/>
	
		<linearGradient id="SVGID_32_" gradientUnits="userSpaceOnUse" x1="60.4852" y1="943.5828" x2="60.4852" y2="1000.0527" gradientTransform="matrix(1 0 0 -1 0 1069.8898)">
		<stop  offset="0" style="stop-color:#79BBDF;stop-opacity:0.69"/>
		<stop  offset="1" style="stop-color:#153E54;stop-opacity:0.78"/>
	</linearGradient>
	<path class="st32" d="M-5.4,126.1c13.4-1.5,17.1-9.6,25.3-14.9c8.2-5.2,9-15.5,15-11.9c5.9,3.6,12.7,3.6,13.4,0
		c0.8-3.6,9.6-9,15.5-8.2c5.9,0.8,0,6.7,11.1,0c11.1-6.7,8.2,0,8.2,0c2.3-3.6,17.1-23,22.2-10.3c5.2,12.6,10.4,1.5,13.4-3.6
		c2.9-5.2,20.9,6.7,26.9,11.1c5.9,4.4,1.5,18.6-11.1,28.1c-5.8,4.4-8.1,10.3-9.2,16.1H-27.4C-24,127.4-17.8,127.4-5.4,126.1z"/>
	
		<linearGradient id="SVGID_33_" gradientUnits="userSpaceOnUse" x1="58.9565" y1="890.5237" x2="58.9565" y2="965.3088" gradientTransform="matrix(1 0 0 -1 0 1069.8898)">
		<stop  offset="0" style="stop-color:#79BBDF;stop-opacity:0.69"/>
		<stop  offset="1" style="stop-color:#153E54;stop-opacity:0.78"/>
	</linearGradient>
	<path class="st33" d="M177.3,121.7c3.7,2.9-2.5,5.7,0.6,8.2c6.7,5.5,21.2,10.1,21.4,13.2c0.6,9.5,9.2,22,4,24.4
		c-2.1,1.1-3.9,6.7-11.2,5c-5.4-1.3-16.2-9.9-21.2-10.5c-4.6-0.6-8.5,5.9-10.4,4.4c-6.9-5-28.1-14.7-33.9-11.1s-10.6,13-22.5,6.9
		c-11.9-6.1-28.1-4-37.5,3.1c-6,4.4-6.4,2.1-17.5-5.7c-1.7-1.3-5.6,4.6-9.4,3.1c-3.5-1.3-6.7-10.1-8.7-11.6
		c-3.7-3.1-6.9-7.6-11.7-5.5c0,0-1.3,5.2,1.3,15.8c2.7,10.5,9.2,21.8,6.4,25.4c-2.7,3.4-6.7-4.6-15.4-8c-4-1.5-12.9,3.6-16.2,1.1
		c-5-3.8-8.5-13.9-8.5-13.9s-4.6,9-13.7,8.6c-7.1-0.2-17.5-8.8-25.6-11.6c-10.8-3.8-22.7-18.7-24.3-19.5c-1.7-1,1.7-9.2-5.2-21.8
		c-1.5-2.9-3.5-5.9-5.2-9h248.8c0.4,1,1,1.9,1.7,2.7C165.2,117.7,174.8,119.8,177.3,121.7z"/>
	
		<linearGradient id="SVGID_34_" gradientUnits="userSpaceOnUse" x1="224.8339" y1="972.3004" x2="224.8339" y2="1025.7183" gradientTransform="matrix(1 0 0 -1 0 1069.8898)">
		<stop  offset="0" style="stop-color:#79BBDF;stop-opacity:0.69"/>
		<stop  offset="1" style="stop-color:#153E54;stop-opacity:0.78"/>
	</linearGradient>
	<path class="st34" d="M221.6,87.3c6.3,2.9,9.7,3.7,10.7,0c1-3.7,3.6-7,6.3-7s2.7-3.7,3.4-5.8c0.8-2.1,5.4-2.5,7.1-2.1
		c1.7,0.4,7.1-4.8,7.6-6.6c0.8-1.5-2.1-4.1-3.1-7c-1-2.9-7.6-11-12.8-8.5c-5,2.5-8,15.9-11.7,12.2c-3.6-3.7-2.3-9.5-3.6-8.9
		c-1.3,0.4-5.7,3.3-6.1,4.5c-0.4,1.2-7.1,2.9-8-0.4c-1-3.3-6.3-2.9-8.8,1.2c-2.3,4.1,3.1,15.1,0,15.9c-3.1,0.8-6.5,5.8-9.2,10.6
		c-2.7,4.8,1.1,18,11.1,18c1,0,7.5-7.7,13-7.7c5.5,0,9.2,7.7,9.4,4.5C227.8,97,221.6,87.3,221.6,87.3z"/>
	
		<linearGradient id="SVGID_35_" gradientUnits="userSpaceOnUse" x1="359.3699" y1="1022.7515" x2="359.3699" y2="1076.1694" gradientTransform="matrix(1 0 0 -1 0 1069.8898)">
		<stop  offset="0" style="stop-color:#79BBDF;stop-opacity:0.69"/>
		<stop  offset="1" style="stop-color:#153E54;stop-opacity:0.78"/>
	</linearGradient>
	<path class="st35" d="M356.2,36.8c6.3,2.9,9.7,3.7,10.7,0c1-3.7,3.6-7,6.3-7c2.7,0,2.7-3.7,3.4-5.8c0.8-2.1,5.4-2.5,7.1-2.1
		c1.7,0.4,7.1-4.8,7.6-6.6c0.8-1.5-2.1-4.1-3.1-7c-1-2.9-7.6-11-12.8-8.5c-5,2.5-8,15.9-11.7,12.2c-3.6-3.7-2.3-9.5-3.6-8.9
		c-1.3,0.4-5.7,3.3-6.1,4.5c-0.4,1.2-7.1,2.9-8-0.4c-1-3.3-6.3-2.9-8.8,1.2c-2.3,4.1,3.1,15.1,0,15.9c-3.1,0.8-6.5,5.8-9.2,10.6
		c-2.7,4.8,1.1,18,11.1,18c1,0,7.5-7.7,13-7.7c5.5,0,9.2,7.7,9.4,4.5C362.3,46.5,356.2,36.8,356.2,36.8z"/>
	
		<linearGradient id="SVGID_36_" gradientUnits="userSpaceOnUse" x1="693.4193" y1="981.4731" x2="693.4193" y2="1034.8911" gradientTransform="matrix(1 0 0 -1 0 1069.8898)">
		<stop  offset="0" style="stop-color:#79BBDF;stop-opacity:0.69"/>
		<stop  offset="1" style="stop-color:#153E54;stop-opacity:0.78"/>
	</linearGradient>
	<path class="st36" d="M690.2,78.1c6.5,2.9,10,3.7,11,0c1-3.7,3.7-7,6.5-7s2.7-3.7,3.5-5.8c0.8-2.1,5.5-2.5,7.2-2.1
		c1.8,0.4,7.2-4.8,7.8-6.6c0.8-1.5-2.2-4.1-3.1-7c-1-2.9-7.8-11-13.1-8.5c-5.1,2.5-8.2,15.9-11.9,12.2c-3.7-3.7-2.3-9.5-3.7-8.9
		c-1.4,0.4-5.9,3.3-6.3,4.5c-0.4,1.2-7.2,2.9-8.2-0.4c-1-3.3-6.5-2.9-9,1.2c-2.3,4.1,3.1,15.1,0,15.9c-3.1,0.8-6.7,5.8-9.4,10.6
		c-2.7,4.8,1.2,18,11.3,18c1,0,7.6-7.7,13.3-7.7s9.4,7.7,9.6,4.5C696.4,88,690.2,78.1,690.2,78.1z"/>
	
		<linearGradient id="SVGID_37_" gradientUnits="userSpaceOnUse" x1="526.0126" y1="1005.3193" x2="526.0126" y2="1038.8962" gradientTransform="matrix(1 0 0 -1 0 1069.8898)">
		<stop  offset="0" style="stop-color:#79BBDF;stop-opacity:0.69"/>
		<stop  offset="1" style="stop-color:#153E54;stop-opacity:0.78"/>
	</linearGradient>
	<path class="st37" d="M506.4,61.6c0,0-2.1,1.8,2.7,1.4c4.9-0.4,1.8,0.6,3.7,2c1.8,1.2,5.7,1,6.4,0c0.8-1.2,3.1,0,4.3,2.4
		c1.4,2.2,3.3-1,6.8-1.4c3.5-0.4,6.3-2.4,10.7-0.6c4.7,1.8,6.6,2.8,8.8,1.6c2.1-1.4,0.6-5.4,5.3-5c4.9,0.4,5.9,0.6,7.2-2.2
		c1.4-2.8,10.2-1-0.2-7.4s-7.2-9-16.4-8.6c-9.2,0.2-10.2-0.6-14.7-3c-4.3-2.4-6.8-4.2-8.6-2c-1.8,2.2-7.4,0.8-11.7-1.4
		c-4.1-2.2-6.3-4-8.2-2.2c-2,1.8-3.5,8.2-9.4,9.4c-5.9,1-9.6,5-8.4,7.6c1.2,2.6,5.1,9.6,6.8,8.4c2-1.2,5.5-4,5.1,1
		C496.9,66.4,505.1,62.4,506.4,61.6z"/>
	
		<linearGradient id="SVGID_38_" gradientUnits="userSpaceOnUse" x1="704.8853" y1="847.3558" x2="704.8853" y2="876.3538" gradientTransform="matrix(1 0 0 -1 0 1069.8898)">
		<stop  offset="0" style="stop-color:#79BBDF;stop-opacity:0.69"/>
		<stop  offset="1" style="stop-color:#153E54;stop-opacity:0.78"/>
	</linearGradient>
	<path class="st38" d="M692.2,211.7c0,0-1.5,0.4,1.2,1.4c2.7,1,0.8,0.8,1.5,1.9c0.6,1.2,2.7,1.9,3.5,1.8c0.8-0.4,1.5,0.8,1.7,2.3
		c0.2,1.6,2.1,0.2,4,1c1.9,0.8,3.9,0.4,6,2.5c2.1,2.1,2.9,3.1,4.4,3.1c1.5-0.2,1.7-2.7,4-1.4c2.5,1.4,3.1,1.8,4.4,0.8
		c1.3-1.2,5.6,2.1,1.7-4.1c-4-6-1.7-6.6-6.5-8.8c-5-2.1-5.4-2.9-7.1-5.3c-1.7-2.3-2.7-4.1-4-3.3c-1.5,0.8-4.2-1.6-6-3.7
		s-2.3-3.7-3.9-3.3c-1.5,0.6-4,3.5-7.3,2.5c-3.3-1-6.4,0.2-6.4,1.8c0,1.6,0.4,6.4,1.5,6.2c1.3-0.2,3.9-0.8,2.5,1.9
		C685.8,211.9,691.2,211.9,692.2,211.7z"/>
	
		<linearGradient id="SVGID_39_" gradientUnits="userSpaceOnUse" x1="1012.1776" y1="884.0468" x2="1012.1776" y2="913.0458" gradientTransform="matrix(1 0 0 -1 0 1069.8898)">
		<stop  offset="0" style="stop-color:#79BBDF;stop-opacity:0.69"/>
		<stop  offset="1" style="stop-color:#153E54;stop-opacity:0.78"/>
	</linearGradient>
	<path class="st39" d="M999.4,175.2c0,0-1.5,0.4,1.2,1.4c2.7,1,0.8,0.8,1.5,1.9c0.6,1.2,2.7,1.9,3.5,1.6c0.8-0.4,1.5,0.8,1.7,2.3
		c0.2,1.6,2.1,0.2,4,1c1.9,0.8,3.9,0.4,6,2.5s2.9,3.1,4.4,3.1c1.5-0.2,1.7-2.7,4-1.4c2.5,1.4,3.1,1.8,4.4,0.8
		c1.3-1.2,5.6,2.1,1.7-4.1c-4.1-6-1.7-6.6-6.6-8.8c-5-2.1-5.4-2.9-7.1-5.3c-1.7-2.3-2.7-4.1-4.1-3.3c-1.5,0.8-4.2-1.6-6-3.7
		c-1.7-2.1-2.3-3.7-3.8-3.3c-1.5,0.6-4.1,3.5-7.3,2.5c-3.3-1-6.4,0.2-6.4,1.8c0,1.6,0.4,6.4,1.5,6.2c1.3-0.2,3.9-0.8,2.5,1.9
		C993.3,175.2,998.5,175.2,999.4,175.2z"/>
	
		<linearGradient id="SVGID_40_" gradientUnits="userSpaceOnUse" x1="967.0779" y1="985.8503" x2="967.0779" y2="1051.478" gradientTransform="matrix(1 0 0 -1 0 1069.8898)">
		<stop  offset="0" style="stop-color:#79BBDF;stop-opacity:0.69"/>
		<stop  offset="1" style="stop-color:#153E54;stop-opacity:0.78"/>
	</linearGradient>
	<path class="st40" d="M955.9,71.8c5.8,7.3,9.3,10.4,12.8,6.7s8.8-5.8,12.1-4.2c3.3,1.7,5.4-2.7,7.6-4.6c2.1-1.9,8,0.4,9.7,1.9
		c1.8,1.5,11.5-1.3,13.2-2.9c1.8-1.5,0.2-6,0.8-10c0.4-2.3-6.8-4.6-8.9-8.8c-1.6-3.3,2.3-9-1-9.2c-7.6-0.2-19.6,13.7-21.8,7.1
		c-2.1-6.5,2.9-12.5,1.2-12.9c-1.9-0.4-8.9,0.2-10.1,1.5c-1.2,1.2-10.3-1-9.3-5.6c0.8-4.4-5.8-7.3-11.3-4
		c-5.5,3.3-5.8,19.6-9.9,18.7c-4.1-1-11.3,2.7-17.5,6.7c-3.7,2.5,0.6,11.9,2.3,19.2c1.2,4.8-0.6,8.5-0.2,8.8c0.4,0.2,2.9,5.6,6,6.3
		c2.3,0.6,4.9,3.5,7,2.9c2.9-0.6,5-4.8,5-4.8s8.4,9.2,10.9,5.6C957.1,87,955.9,71.8,955.9,71.8z"/>
	
		<linearGradient id="SVGID_41_" gradientUnits="userSpaceOnUse" x1="493.9071" y1="1066.8778" x2="493.9071" y2="1132.5056" gradientTransform="matrix(1 0 0 -1 0 1069.8898)">
		<stop  offset="0" style="stop-color:#79BBDF;stop-opacity:0.69"/>
		<stop  offset="1" style="stop-color:#153E54;stop-opacity:0.78"/>
	</linearGradient>
	<path class="st41" d="M483.1-9.4c5.7,7.3,9.2,10.4,12.6,6.7c3.4-3.7,8.6-5.8,11.7-4.2c3.3,1.7,5.4-2.7,7.5-4.6
		c2.1-1.9,7.8,0.4,9.6,1.9c1.7,1.5,11.3-1.3,13-2.9c1.7-1.5,0.2-6,0.8-10c0.4-2.3-6.7-4.6-8.8-8.8c-1.5-3.3,2.3-9-1-9.2
		c-7.5-0.2-19.3,13.7-21.4,7.1c-2.1-6.5,2.9-12.5,1.1-12.9c-1.9-0.4-8.8,0.2-9.9,1.5c-1.1,1.2-10.1-1-9.2-5.4
		c0.8-4.4-5.7-7.3-11.1-4c-5.4,3.3-5.7,19.6-9.7,18.7c-4-1-11.1,2.7-17.2,6.7c-3.6,2.5,0.6,11.9,2.3,19.2c1.1,4.8-0.6,8.5-0.2,8.8
		c0.4,0.2,2.9,5.6,5.9,6.3c2.3,0.6,4.8,3.5,6.9,2.9c2.9-0.6,5-4.8,5-4.8s8.2,9.2,10.7,5.6C484.3,6,483.1-9.4,483.1-9.4z"/>
	
		<linearGradient id="SVGID_42_" gradientUnits="userSpaceOnUse" x1="-10.605" y1="976.6772" x2="-10.605" y2="1042.3048" gradientTransform="matrix(1 0 0 -1 0 1069.8898)">
		<stop  offset="0" style="stop-color:#79BBDF;stop-opacity:0.69"/>
		<stop  offset="1" style="stop-color:#153E54;stop-opacity:0.78"/>
	</linearGradient>
	<path class="st42" d="M-21.4,81c5.7,7.3,9.2,10.4,12.6,6.7c3.4-3.7,8.6-5.8,11.7-4.2c3.2,1.7,5.4-2.7,7.5-4.6
		c2.1-1.9,7.8,0.4,9.6,1.9c1.7,1.5,11.3-1.3,13-2.9c1.7-1.5,0.2-6,0.8-10c0.4-2.3-6.7-4.6-8.8-8.8c-1.5-3.3,2.3-9-1-9.2
		c-7.5-0.2-19.3,13.7-21.4,7.1C0.4,50.4,5.4,44.4,3.6,44c-1.9-0.4-8.8,0.2-9.9,1.5c-1.1,1.2-10.1-1-9.2-5.6c0.8-4.4-5.7-7.3-11.1-4
		c-5.4,3.3-5.7,19.6-9.7,18.7s-11.1,2.7-17.2,6.7c-3.6,2.5,0.6,11.9,2.3,19.2c1.1,4.8-0.6,8.5-0.2,8.8c0.4,0.2,2.9,5.6,5.9,6.3
		c2.3,0.6,4.8,3.5,7.1,2.9c2.9-0.6,5-4.8,5-4.8s8.2,9.2,10.7,5.6C-20.3,96.2-21.4,81-21.4,81z"/>
	<g>
		<circle class="st43" cx="847.3" cy="237.3" r="4.3"/>
	</g>
	<circle class="st43" cx="847.3" cy="237.3" r="4.3"/>
	<g>
		<circle class="st43" cx="105.6" cy="209.4" r="4.3"/>
	</g>
	<circle class="st43" cx="105.6" cy="209.4" r="4.3"/>
	<g>
		<circle class="st43" cx="594.3" cy="76.5" r="4.3"/>
	</g>
	<circle class="st43" cx="594.3" cy="76.5" r="4.3"/>
	<g>
		<circle class="st43" cx="581.4" cy="691.7" r="4.3"/>
	</g>
	<circle class="st43" cx="581.4" cy="691.7" r="4.3"/>
	<g>
		<circle class="st43" cx="982.3" cy="668.2" r="4.3"/>
	</g>
	<circle class="st43" cx="982.3" cy="668.2" r="4.3"/>
	<g>
		<circle class="st43" cx="339.2" cy="215.9" r="4.3"/>
	</g>
	<circle class="st43" cx="339.2" cy="215.9" r="4.3"/>
	
		<linearGradient id="SVGID_43_" gradientUnits="userSpaceOnUse" x1="1186.5536" y1="718.1295" x2="-123.6923" y2="718.1256" gradientTransform="matrix(1 0 0 -1 0 1069.8898)">
		<stop  offset="0" style="stop-color:#FEFEFE;stop-opacity:0"/>
		<stop  offset="1" style="stop-color:#FFFFFF"/>
	</linearGradient>
	<rect x="-95" y="349.5" class="st44" width="1223.1" height="4.6"/>
	
		<linearGradient id="SVGID_44_" gradientUnits="userSpaceOnUse" x1="200.018" y1="543.4138" x2="200.018" y2="589.2007" gradientTransform="matrix(1 0 0 -1 0 1069.8898)">
		<stop  offset="0" style="stop-color:#79BBDF;stop-opacity:0.69"/>
		<stop  offset="1" style="stop-color:#153E54;stop-opacity:0.78"/>
	</linearGradient>
	<path class="st45" d="M65.5,502.1l-25.2,11.6c-3.3,1.5-5.4,4.8-5.4,8.5c0,5.1,4.2,9.3,9.3,9.3h311.3c5.3,0,9.6-4.3,9.6-9.6
		c0-3.5-1.9-6.7-5-8.4l-21.3-11.8c-2.4-1.3-5-2-7.8-2h-21.5c-4.3,0-8.4,1.7-11.4,4.8l-6.8,6.9c-3,3.1-7.1,4.8-11.4,4.8h-23.8
		c-2,0-4.1-0.4-6-1.2l-38.2-15.4l-31.2-11.3c-4.7-1.7-9.9-1.1-14.1,1.6l-34.5,22.3c-3.9,2.5-8.8,3.2-13.3,1.9l-42-12.7
		C73.1,500.2,69.1,500.5,65.5,502.1z"/>
	
		<linearGradient id="SVGID_45_" gradientUnits="userSpaceOnUse" x1="787.088" y1="533.4478" x2="787.088" y2="614.3378" gradientTransform="matrix(1 0 0 -1 0 1069.8898)">
		<stop  offset="0" style="stop-color:#79BBDF;stop-opacity:0.69"/>
		<stop  offset="1" style="stop-color:#153E54;stop-opacity:0.78"/>
	</linearGradient>
	<path class="st46" d="M561,468.4c-19.1,13.7-48,34.4-61,43.8c-4.1,3-6.5,7.7-6.5,12.8v4.2c0,8.8,7.2,16,16,16h555.1
		c8.8,0,16-7.2,16-16v-4.5c0-4.9-2.3-9.6-6.2-12.5c-17.4-13.3-44.5-32.9-49.8-32.1c-7.5,1.2-59.7,36.8-68.4,36.8
		c-8.7,0-102-17.2-116.9-25.8c-14.9-8.6-87.1-27-94.5-27s-56,30.7-67.2,27c-8.4-2.8-68.7-17.1-103.6-25.4
		C569.5,464.8,564.8,465.7,561,468.4z"/>
	
		<linearGradient id="SVGID_46_" gradientUnits="userSpaceOnUse" x1="567.6987" y1="428.5778" x2="567.6987" y2="684.9838" gradientTransform="matrix(1 0 0 -1 0 1069.8898)">
		<stop  offset="0" style="stop-color:#79BBDF;stop-opacity:0.69"/>
		<stop  offset="1" style="stop-color:#153E54;stop-opacity:0.78"/>
	</linearGradient>
	<path class="st47" d="M-41.8,412.2c-4.8,1.7-9.2,3.5-13.5,5.2v157.7c2.1,0.2,2.7,2.1,3.5,7.1c1.2,6.9,9.8,17.3,21.7,17.9
		c11.9,0.6,19.4,8.3,31.2,15.6c11.9,7.3,6.3,16.3,34.8,23.6c28.5,7.3,17.3-5,29.6-16.3c12.3-11.5,6-2.5,8.3,1s9.8,0.8,10.6-0.8
		c0.8-1.5,5.8-8.5,12.9-1.3c7.1,6.9,7.1,3.8,7.5,2.5c0.4-1.3,12.3-4.4,17.7,1.9c5.6,6.3,10.2,1.3,30.8-4.4
		c20.6-5.8,16.5-8.8,16.5-1.3c0,7.7,7.5,5.8,18.5,7.3c11,1.5,21-10.8,22.1-4.4c1.2,6.3,17.7,0,16.5,1.5c-1.2,1.5,0.4,4.6,5.2,9
		c4.8,4.4,6.7,2.5,9,1c2.3-1.5,1.2-3.3,9-7.7c7.9-4.4,14.2-1.5,14.2,0.6c0,2.3,8.7,14,16.2,16.5s8.3,11.5,14.6,12.1s6.7-9.6,9-12.5
		c2.3-2.9,6-1.5,7.1,4.2s10.6,5.8,17.3,5.8c6.7,0,9.8,3.8,16.9,10.8c7.1,6.9,14.2,4.8,30.8,0c16.5-4.8,22.1-4.8,35.2-4.2
		c13.1,0.6,12.3-1.9,18.1-3.5c6-1.5,5.2,1,12.3,0c7.1-1,1.5-13.1,5.2-10.2c3.5,2.9,15.4,5.2,23.7,5.4c8.3,0.4,17.7-2.9,27.3-3.8
		c9.4-1,11.9-3.3,18.5-8.6c6.7-5.4,9-11.7,15.8-17.5c6.7-5.8,21.7-14.4,23.3-11.5c1.5,2.9,8.7,4.2,13.5,2.5c4.8-1.5,13.5-1,20.6,0
		c7.1,1,9.4-0.6,12.3-2.9c2.7-2.3,3.1-2.3,8.7-3.3c5.6-1,9.8,0,9.4-4.4c-0.4-4.4,0-7.9,7.5-6.1c7.5,1.9,7.1,2.3,9.8-4.2
		c2.7-6.3,5.6-2.9,14.2-2.5c8.7,0.4,9,0.6,9-4.2c0-4.8,5.6-2.9,16.2-2.9c10.6,0,12.3-1.5,13.1-4.4c0.8-2.9,18.1,0.4,19-1.9
		c0.8-2.3,8.3-1.5,15.8-0.6c7.5,1,0.4,3.5,0,7.7c-0.4,4.2,1.2,9.2,5.6,6.3c4.4-2.9,2.7-7.1,10.2-6.1c7.5,1,15.4,1.3,16.9,4.6
		c1.5,3.3,9.8,5.2,16.2,6.7c6.3,1.5,1.9,13.6,6.7,20.4c4.8,6.7,13.8,12.5,21.7,11.1c7.9-1.3,6.3-5.4,8.3-3.8c1.9,1.5,4.8,2.9,11,0
		c6.3-2.9,10.2-2.9,11.9-1.9c1.5,1,8.3-0.4,11.9-3.8c3.5-3.5,9-3.5,14.2-4.8c5.2-1.3,17.3-3.5,22.1,4.8c4.8,8.3,7.1,7.7,9.4,7.9
		c2.3,0.4,9-3.8,9.4,1.3c0.4,5.2,10.2,7.9,12.7,3.3c2.3-4.8,15-1.9,19,1.3c4,3.3,20.6,13.6,26.7,8.6c6.3-5.2,6.7-7.3,6.7-7.3
		c24-9.2,5.2-16.9,15-23.2c9.8-6.3,15-31.1,18.1-33c3.1-1.9,7.5,0,9.8-1.9c2.3-1.9,6.7-3.5,6.3-7.3c-0.4-3.8,7.9-5.8,10.2-5.4
		c2.3,0.4,11.9,0.4,13.5-3.5c1.5-3.7,8.3-0.4,10.2-0.2c1.9,0.4,8.7,0,11.5-2.3c2.7-2.3,4-5.8,6.7-6.3c2.7-0.6,4.4-1.5,3.1-4
		c-1.2-2.3,1.2-2.3,3.1-6c1.9-3.5,5.2-2.9,13.5-2.9c8.3,0,7.5,6.5,19,3.5c2.1-0.6,6.7-4.2,8.3-5c1.5-0.8,5.2-1.3,6-0.4
		c0.8,1,6,0,6,0s2.3-1.5,3.1-4c0.8-2.5,4.4-1.5,4.4-1.5s3.5,0,5.2,1.3c1.5,1.3,3.1-1.3,5.2-3.7c1.9-2.3,8.7-3.1,12.7-0.6
		c19,12.3,27.3,4.6,34.6,1.3V412.2H-41.8z"/>
	
		<linearGradient id="SVGID_47_" gradientUnits="userSpaceOnUse" x1="1098.9695" y1="511.8968" x2="1098.9695" y2="690.4658" gradientTransform="matrix(1 0 0 -1 0 1069.8898)">
		<stop  offset="0" style="stop-color:#79BBDF;stop-opacity:0.69"/>
		<stop  offset="1" style="stop-color:#153E54;stop-opacity:0.78"/>
	</linearGradient>
	<path class="st48" d="M1012,484.9c1.4,10.7-1.9,23,1.9,27.2c3.9,4.2,18.3,40.6,22,36.6c3.7-4,18.5-37.9,22.9-32.6
		c4.4,5.6,12.3,17,19.1,12.8c6.5-4.4,17.5,1.9,25,12.1s7.9,27.2,19.8,7.7c0,0,5,16.3,10.2,26.2c5.2,10,22.3-14.6,22.3-14.6
		s24.8,14.9,30.8-8.8v-86c-10.2-7.9-20.6-13.2-27-11.5c-8.5,2.3-10.2-42-21.4-51.3c-11.4-9.4-25-2.1-23.1,10.2
		c1.9,12.1-16.8,17.6-19.3,14.4c-2.5-3.4-17.1-5.6-21-4.8c-3.8,0.8,7.1,17.1,3.1,34.9c-4,17.8-29.7-20.7-45.4-20.5
		C1016.1,437,1010.7,474.1,1012,484.9z"/>
	
		<linearGradient id="SVGID_48_" gradientUnits="userSpaceOnUse" x1="734.3422" y1="511.4598" x2="734.3422" y2="615.2438" gradientTransform="matrix(1 0 0 -1 0 1069.8898)">
		<stop  offset="0" style="stop-color:#79BBDF;stop-opacity:0.69"/>
		<stop  offset="1" style="stop-color:#153E54;stop-opacity:0.78"/>
	</linearGradient>
	<path class="st49" d="M751.6,538.6c-9,11.5-14.6,16.3-19.9,10.5c-5.4-5.8-13.4-9.1-18.4-6.6c-5,2.7-8.4-4.1-11.7-7.4
		c-3.3-3.1-12.3,0.8-14.9,3.1c-2.7,2.3-17.6-2.1-20.5-4.5c-2.9-2.3-0.2-9.5-1-15.7c-0.6-3.5,10.5-7.2,13.8-14
		c2.5-5.2-3.4-14.2,1.5-14.4c11.7-0.4,30.1,21.6,33.3,11.1c3.3-10.5-4.6-19.6-1.7-20.2c2.9-0.6,13.6,0.4,15.5,2.3
		c1.7,1.9,15.7-1.6,14.6-8.7c-1.3-7,9-11.5,17.2-6.2s8.8,30.9,15.1,29.5c6.3-1.4,17.4,4.3,27,10.7c5.7,3.9-0.8,18.8-3.6,30.3
		c-1.7,7.4,1,13.4,0.2,13.8s-4.6,8.7-9.4,9.9c-3.6,1-7.5,5.4-10.9,4.7c-4.4-1-7.7-7.4-7.7-7.4s-13,14.6-16.7,8.9
		C749.7,562.7,751.6,538.6,751.6,538.6z"/>
	
		<linearGradient id="SVGID_49_" gradientUnits="userSpaceOnUse" x1="192.3738" y1="463.8257" x2="192.3738" y2="537.0848" gradientTransform="matrix(1 0 0 -1 0 1069.8898)">
		<stop  offset="0" style="stop-color:#79BBDF;stop-opacity:0.69"/>
		<stop  offset="1" style="stop-color:#153E54;stop-opacity:0.78"/>
	</linearGradient>
	<path class="st50" d="M185.1,602.8c-2.7-3.7-9,0.6-12.9-3.5c-3.8-4-9.6-6.5-13.2-4.6c-3.5,1.9-6.1-2.9-8.3-5.2
		c-2.3-2.1-8.8,0.6-10.7,2.3c-1.9,1.7-12.7-1.5-14.6-3.3c-1.9-1.7-15-11.2-15.5-15.6c-0.4-2.5,22.3-0.6,24.8-5.4
		c1.7-3.7-2.5-10,1.2-10.2c8.3-0.2,21.5,15.2,23.8,7.9c2.3-7.3-3.3-13.9-1.3-14.2c2.1-0.4,9.8,0.4,11.1,1.7
		c1.3,1.3,11.3-1.2,10.4-6.2c-1-5,6.5-8.1,12.3-4.4c6,3.7,6.3,21.9,10.9,20.8c4.6-1,12.5,3.1,19.2,7.5c4.2,2.7,54.7,4,52.8,12.1
		c-0.4,1.9-5.8,14.2-13.2,16.9c-5,1.9-11.1-9.8-17.1-10c-9.6,0-19.2,10.8-24.8,11.9c-0.6,0.2-3.3,6.2-6.7,7.1
		c-2.5,0.6-5.4,3.9-7.9,3.3c-3.1-0.8-5.6-5.2-5.6-5.2s-9.2,10.4-11.9,6.4C184.9,609,185.1,602.8,185.1,602.8z"/>
	
		<linearGradient id="SVGID_50_" gradientUnits="userSpaceOnUse" x1="241.296" y1="502.1088" x2="241.296" y2="660.8367" gradientTransform="matrix(1 0 0 -1 0 1069.8898)">
		<stop  offset="0" style="stop-color:#79BBDF;stop-opacity:0.69"/>
		<stop  offset="1" style="stop-color:#153E54;stop-opacity:0.78"/>
	</linearGradient>
	<path class="st51" d="M47.1,519.2c0,0-9,9.3,5.2,19.9c14.2,10.6,29.4,24,35,11.6c5.6-12.4,9.6-17.2,15.2-13
		c5.8,4.3,16,7.2,19.4,1.5c3.3-5.4-6-11,5-12c11-1,11,6.8,20,6.4c8.8-0.4,9.6-5.4,12.5-7c2.7-1.7,13.1,1.9,20.4-0.8
		c7.3-2.7,11-1,13.3,4.1c2.5,5,9.4,8.7,15.8,9.5c6.2,1,13.1,10.1,16,12.2c2.9,2.1,14.2,6.8,17.9-0.8c3.7-7.5,11.7-11.4,15.2-8.3
		c3.3,3.1,17.7,8.5,24.2,16.4c6.5,7.7,19.4,1.2,23.1,6.8c3.7,5.6,16,16.4,23.9,18.4c7.9,2.1,29.6,0.6,33.1-9.9
		c3.5-10.4-4.2-23,12.9-18.8c17.1,4.3,77.5,10.4,84.1,1.5c6.3-8.7-1-28-11-33.4c-10-5.2-33.7-7.2-22.3-20.7
		c11.5-13.5,18.3-25.7,14.8-36c-3.5-10.2-11.5-16-35.2-18.8c-23.7-2.7-66.6,4.4-84.8,8.5c-18.3,4.1-19-8.3-21.7-15.1
		c-2.9-6.8-33.1-11.8-59.8-15.3c-26.7-3.7-38.7,17-57.9,19.3c-19.2,2.1-71-17-76.2-15.7c-5.2,1.4-16.7,10.6-16.7,18.2
		c0.2,7.7-6,6.4-19.4,7.7c-13.5,1.4-23.5,5-21.9,14.9c1.7,10.1-7.9,10.6-16.5,17.8c-8.7,7.2-14.4,7.5-2.1,14.5
		c12.3,7,11.5,12,6,15.7C28,522.6,47.1,519.2,47.1,519.2z"/>
	
		<linearGradient id="SVGID_51_" gradientUnits="userSpaceOnUse" x1="676.2469" y1="561.6268" x2="676.2469" y2="648.6207" gradientTransform="matrix(1 0 0 -1 0 1069.8898)">
		<stop  offset="0" style="stop-color:#79BBDF;stop-opacity:0.69"/>
		<stop  offset="1" style="stop-color:#153E54;stop-opacity:0.78"/>
	</linearGradient>
	<path class="st52" d="M723.6,507.1c0,0,4.4,6-8.1,1.9c-12.5-4.1-5.2,0.4-11,2.5c-5.6,2.1-15.6-1-17.1-4.5
		c-1.5-3.5-8.1-1.9-13.1,3.1c-5,5-8.1-5-17.3-8.3c-9.2-3.3-14.6-10.4-28.1-8.9c-13.5,1.5-19.3,2.9-24.3-2.1c-5-5,2.1-14.3-10.8-16.8
		c-12.9-2.3-16-2.5-17.9-10.4c-1.9-8.1-26-9.5,5.6-19.2c31.6-9.7,25-18.2,48.9-11.4c23.9,6.8,27.3,5.2,40.4,2.1
		c13.1-3.1,20.8-6.4,24.1,0.6c3.1,7,19.3,7.2,31.8,4.3c12.3-2.9,19.4-6,23.1,0c3.7,6,4,23.8,18.5,30.4c14.6,6.6,22.1,19.5,17.3,25.4
		c-4.8,5.8-19.6,21.7-23.7,17c-4-4.5-11.7-14.3-14.1-0.6S726.5,510.2,723.6,507.1z"/>
	
		<linearGradient id="SVGID_52_" gradientUnits="userSpaceOnUse" x1="171.7342" y1="870.2218" x2="171.7342" y2="627.4748" gradientTransform="matrix(1 0 0 -1 0 1069.8898)">
		<stop  offset="0" style="stop-color:#79BBDF;stop-opacity:0.69"/>
		<stop  offset="1" style="stop-color:#153E54;stop-opacity:0.78"/>
	</linearGradient>
	<path class="st53" d="M286.9,268.7c-11-0.2-12.5,2.3-13.5,6.3c-0.8,4-18.7-0.4-19.4,2.7c-0.8,3.1-8.5,2.3-16.2,1s-0.4-5,0-10.8
		s-1.2-12.9-5.8-9c-4.4,4-2.9,10-10.6,8.6c-7.7-1.3-15.8-1.9-17.5-6.3c-1.5-4.4-10.2-7.1-16.7-9.4c-6.5-2.3-2.1-19.2-6.9-28.6
		c-4.8-9.4-14.2-17.5-22.3-15.6c-8.1,1.7-6.5,7.7-8.5,5.4c-2.1-2.3-4.8-4-11.4,0c-6.4,3.8-10.4,3.8-12.1,2.5
		c-1.5-1.3-8.5,0.4-12.1,5.4c-3.7,5-9.4,5-14.6,6.7c-5.2,1.7-17.9,5-22.7-6.7c-4.8-11.5-7.3-10.8-9.8-11.1c-2.5-0.4-9.4,5.4-9.8-1.7
		c-0.4-7.1-10.6-11.1-13.1-4.4s-15.4,2.7-19.4-1.7c-4-4.4-10.6-1.7-17.1,5.4c-6.5,7.1-6.9,10.2-6.9,10.2
		C-24.5,230.2-4.9,241-15.1,250c-10.2,9-15.4,43.8-18.7,46.5c-3.3,2.7-7.7,0-10.2,2.7c-2.5,2.7-6.9,5-6.5,10.2
		c0.2,2.9-2.3,5-4.8,6.3v96.4h447.7l6.4-8.3C396.6,405.3,351.8,269.2,286.9,268.7z"/>
	
		<linearGradient id="SVGID_53_" gradientUnits="userSpaceOnUse" x1="872.699" y1="827.6517" x2="872.699" y2="644.8127" gradientTransform="matrix(1 0 0 -1 0 1069.8898)">
		<stop  offset="0" style="stop-color:#79BBDF;stop-opacity:0.69"/>
		<stop  offset="1" style="stop-color:#153E54;stop-opacity:0.78"/>
	</linearGradient>
	<path class="st54" d="M1189.2,413.7c-1.1-1-2.3-3.5-3.4-7.7c-2.9-11.7-4.4-14.8-10.2-12.5c-5.8,2.3-6.1,1-7.3-9
		c-1.2-9.8-10.2-24.2-22.5-25.1c-12.3-1-20-11.7-32.1-21.9c-12.3-10.4-11.7-25.1-41.1-35.3c-29.4-10.4-12.7,9-25.2,25.1
		c-12.7,16.1-15.9,3.1-18.3-1.7c-2.5-5-5.4-2.3-6.1,0c-0.8,2.3-1.2,13.4-8.4,3.6c-7.3-9.8-7.3-5.4-7.7-3.6
		c-0.4,1.7-12.7,6.3-18.3-2.7c-5.8-9-10.6-1.7-31.7,6.3c-21.1,8.1-17.1,12.5-17.1,1.7s-7.7-8.1-19.2-10.4
		c-11.3-2.3-21.5,15.2-22.8,6.3c-1.2-9-18.2,0-17.1-2.3c1.1-2.3-2.9-16.1-7.7-22.5c-4.8-6.3-4.4-3.6-6.9-1.3
		c-2.5,2.3-1.1,14.4-9.4,20.5c-8.1,6.3-14.6,2.3-14.6-1c0-3.1-9-19.8-16.7-23.2c-7.7-3.6-8.5-16.1-15-17.1c-6.5-1-6.9,13.4-9.4,17.5
		c-2.5,4-6.1,2.3-7.3-5.8c-1.2-8.1-10.9-8.1-17.9-8.1c-6.9,0-10.2-5.4-17.5-15.2s-14.6-6.7-31.7,0c-17.1,6.7-22.9,6.7-36.3,5.8
		c-13.4-1-12.7,2.7-18.6,5c-6.1,2.3-5.4-1.3-12.7,0c-7.3,1.3-1.5,18.4-5.4,14.4c-3.6-4-15.9-7.1-24.4-7.7c-8.4-0.4-18.2,4-28,5.4
		c-9.8,1.3-12.3,4.4-19.2,12.1c-6.9,7.7-9.4,16.5-16.3,24.6c-2.5,2.9-6,6.3-9.6,9.2v76.4H1189.2z"/>
	
		<linearGradient id="SVGID_54_" gradientUnits="userSpaceOnUse" x1="828.3649" y1="497.5807" x2="828.3649" y2="586.1017" gradientTransform="matrix(1 0 0 -1 0 1069.8898)">
		<stop  offset="0" style="stop-color:#79BBDF;stop-opacity:0.69"/>
		<stop  offset="1" style="stop-color:#153E54;stop-opacity:0.78"/>
	</linearGradient>
	<path class="st55" d="M709.6,493.6c1.5,10.8-3.1,22.9,1.7,27c4.8,4,30.7,11.8,35.3,7.7c4.6-4,20.3-10.6,25.7-5.4
		c5.6,5.4,11.5,17,20.2,12.5c8.6-4.4,22.5,1.3,31.7,11.2c9.2,9.8,18.6,1.7,34.2-17.9c0,0-3.1,41.1,3.3,50.9
		c6.5,9.8,28.8-15.2,28.8-15.2s5.8,11,13.2,12.7c5.8,1.4,12.7-6.4,18.8-7.9c8.1-2.1,14.8-16.4,16.1-17c1.3-0.6-3.3-10.8-0.4-23.5
		c2.7-11.4,7.9-25.1,9.4-35.5h-238C709.6,493.2,709.6,493.4,709.6,493.6z"/>
	
		<linearGradient id="SVGID_55_" gradientUnits="userSpaceOnUse" x1="47.8998" y1="536.0417" x2="47.8998" y2="655.0878" gradientTransform="matrix(1 0 0 -1 0 1069.8898)">
		<stop  offset="0" style="stop-color:#79BBDF;stop-opacity:0.69"/>
		<stop  offset="1" style="stop-color:#153E54;stop-opacity:0.78"/>
	</linearGradient>
	<path class="st56" d="M-53.8,530c2.7,2.3,6,4.2,9.8,4.8c3.6,0.6,7.9-4.2,12.3-4.8c4.8-0.6,11.5,7.4,17.3,9.1
		c3.8,1.1,7.3-4.8,9.4-3.2c5.2,3.8,1.9,8.2,5,9.9c6.3,3.2,10.6-3,19.6-12c4-4,9,4.2,13.8,1.5c1.2-0.6,3.3-8.8,5.4-9.9
		c2.5-1.3,5.2,4.4,6.3,2.9c3.3-4.4,1.3-8.8,3.5-7.4c4.2,2.7,2.7-4,7.3-8.4c2.5-2.3,10-0.4,13.3-3.6c6-5.9,9-14.1,16.3-17.5
		c4.4-2.1,10.2,0.8,19.2-1.9c23.8-6.9,13.8-10.5,35.3-35c21.7-24.6,0.6-13.1-5.4-18.9c-5.8-5.7-8.4-4.2-20.5,0.6
		c-12.1,4.8-11.1-6.9-18.1-8.4c-6.9-1.5-11.1,2.7-21.7,11c-10.6,8.4-19,5.3-28.6,7.4c-9.6,2.1-17.5-4.8-19,2.1
		c-1.5,6.9-6.3,11.6-9.6,9.5c-3.3-2.1-13.3,0.6-16.9,5.3C-3.5,468,5,468-7.7,471c-12.7,3.2-5.8,5.7-5.8,5.7
		c-4.2-1.1-28.6-4.2-23.2,8.4c5.4,12.6-6.3,8.4-12.1,6.9c-1.9-0.6-3.5,1.3-5,4.2V530L-53.8,530z"/>
	
		<linearGradient id="SVGID_56_" gradientUnits="userSpaceOnUse" x1="554.7048" y1="749.5928" x2="554.7048" y2="555.5588" gradientTransform="matrix(1 0 0 -1 0 1069.8898)">
		<stop  offset="0" style="stop-color:#79BBDF;stop-opacity:0.69"/>
		<stop  offset="1" style="stop-color:#153E54;stop-opacity:0.78"/>
	</linearGradient>
	<path class="st57" d="M822.9,469.5c-3.3-3.5,2.5-48.8,7.3-52.2c25.3-19.6-3.1-32.4-7.3-40.1c-4-7.7-2.9-1.3-3.6,4
		c-0.8,5.4-2.1,6.9-3.3-1.7c-1.2-8.6-1.7-10.9-3.8-9.2c-2.1,1.7-2.3,0.6-2.7-6.7c-0.4-7.3-3.8-17.9-8.4-18.6
		c-4.6-0.6-7.5-8.6-12.1-16.3c-4.6-7.7-4.4-18.6-15.4-26.1c-10.9-7.7-4.8,6.7-9.4,18.6c-4.8,11.9-6,2.3-6.9-1.3
		c-1-3.6-7.9-1.2-8.4,0c-1.7,3.3-4.8,4.6-6.9-1.9c-2.1-6.7-4-1.3-11.9,4.6c-7.9,6-6.3,9.2-6.3,1.3c0-7.9-22.6-3.1-22.1-4.6
		c0.4-1.7,2.1-3.1,0.2-7.9c-1.9-4.6-4.6-1.3-5.6,0.4c-1,1.7-0.6,0.6-3.6,5.2c-3.1,4.6-5.6,1.7-5.6-0.6c0-2.3,2.7-15.4-0.2-17.9
		c-2.9-2.7-6.9-4.8-9.4-5.6c-2.5-0.6-8.3,8.3-8.6,2.1c-0.4-5.9-4-5.9-6.7-5.9s-3.8-4-6.5-11.3s-5.6-5-11.9,0c-6.3,5-8.6,5-13.6,4.2
		c-5-0.6-4.8,1.9-7.1,3.6c-2.3,1.7-1.9-1-4.8,0c-2.7,1-0.6,13.6-1.9,10.6c-1.3-3.1-5.9-5.4-9.2-5.6c-3.3-0.4-6.9,3.1-10.6,4
		c-3.6,1-4.6,3.3-7.1,9c-2.7,5.6-5.9,11.3-8.6,17.3c-2.7,6-8.4,8.3-9,5.2c-0.6-3.1-7.9,6-10.6,5c-2.7-1-6,5.4-8.1,6.3
		c-2.1,1-3.8,0-3.6,4.6c0.2,4.6-7.3,8.1-7.9,11.1c-1.3,6.5,1,3.6-2.5,3.3s-7.7,6.1-11.7,6.1c-4,0-4.8,1.7-5,4.6
		c-0.4,3.1-7.1-0.4-7.3,1.9c-0.4,2.3-3.3,1.7-6.1,0.6c-2.9-1-2.7,0.4-2.5-3.8c0.2-4.2-4.8-0.4-6.3,2.5c-1.7,3.1,1.7,5.2-1.2,4.2
		c-2.9-1-3.6,0.8-4.4-2.5c-0.6-3.3-1.9,0.4-4.4-1.3c-2.5-1.7,4-3.6,2.3-10.7c-1.9-6.9-5.4-12.9-8.4-11.5c-3.1,1.3-2.5,5.6-3.3,4
		c-0.8-1.7-8.3,3.1-8.8,1.9c-0.6-1-3.3,0.4-4.6,4c-1.3,3.6-8.6,14-10.6,15.4c-1.9,1.3-2.9-0.8-4.8-9.4s-5-9.2-6-9.6
		c-1-0.4-9.2-3.8-10.2,1.2c-1,5-5.8,1.9-7.3-1.3c-1.5-3.3-4-1.3-6.3,4c-2.5,5.4-2.7,7.7-2.7,7.7c-9.4,9.6-7.5-1.5-11.3,5
		c-3.8,6.7-11.7,1.2-13.1,3.1c-1.2,1.9-6.5,1.2-7.5,3.1c-1,1.9-10.6,6.7-10.4,10.7c0.2,4,20,12.1,19,11.7c-1-0.4-4.6-0.4-5.2,3.5
		c-0.6,3.8-3.3,0.4-4,0.2c-0.8-0.4-3.5,0-4.4,2.3c-1.2,2.3-1.5,6-2.7,6.7c-1.2,0.6-1.7,1.7-1.2,4.2c0.4,2.5-0.4,2.5-1.2,6.1
		s-1.9,3.1-5.2,3.1s-7.1-5.4-7.3-3.6c-0.4,1.7-2.7,4.2-3.3,5.2s-1.9,1.3-2.3,0.4c-0.4-1-3.3,1.7-3.5,4.2c-0.4,2.7-1.7,1.7-1.7,1.7
		s-3.3,0-4,2.5c-0.8,2.5-3.1,1.5-4.8,0.6c-1.9-1-2.5-0.4-5.9,0c-3.5,0.4-6.1,5.4-6.1,5.4c-0.6,1-1.7,1.9-2.3-5.2
		c-0.2-1.7-7.3-4.2-12.7,0c-1.7,1.3-1.2,5-1.7,10.2c-0.4,3.6-4.4,1.9-4.4,1.9c-4-1.7-6.9-2.3-16.5,9.8
		c-9.6,12.3-12.1,22.6-24.2,27.8c-11.5,5,15,12.1,19.6,40.5h506.5c4.4-10.2,7.3-20.7,18.4-28.4C846.9,476.4,826.2,472.9,822.9,469.5
		z"/>
	
		<linearGradient id="SVGID_57_" gradientUnits="userSpaceOnUse" x1="873.4663" y1="563.7388" x2="873.4663" y2="627.8408" gradientTransform="matrix(1 0 0 -1 0 1069.8898)">
		<stop  offset="0" style="stop-color:#79BBDF;stop-opacity:0.69"/>
		<stop  offset="1" style="stop-color:#153E54;stop-opacity:0.78"/>
	</linearGradient>
	<path class="st58" d="M942.8,506.1c-1-6.9,1.7-15-1-17.5c-2.9-2.7-17.9-7.7-20.6-5s-11.7,6.9-15,3.5s-6.7-11-11.7-8.1
		c-5,2.9-13.1-1-18.5-7.3c-5.4-6.5-10.8-1.2-19.8,11.7c0,0,1.7-26.7-1.9-33.1c-3.7-6.4-16.7,9.8-16.7,9.8s-3.3-7.1-7.7-8.3
		c-3.5-0.8-7.3,4.2-11,5.2c-4.6,1.3-8.7,10.8-9.2,11.2c-0.8,0.4,1.9,7.1,0.2,15.4c-2.1,10-6.7,22.5-5.8,29.4h132.7
		C940.3,510.2,943.1,508.3,942.8,506.1z"/>
	
		<linearGradient id="SVGID_58_" gradientUnits="userSpaceOnUse" x1="538.279" y1="498.572" x2="539.247" y2="614.8101" gradientTransform="matrix(1 0 0 -1 0 1069.8898)">
		<stop  offset="0" style="stop-color:#79BBDF;stop-opacity:0.69"/>
		<stop  offset="1" style="stop-color:#153E54;stop-opacity:0.78"/>
	</linearGradient>
	<path class="st59" d="M321.4,502.3c3.5,9.7-6.7,11.9-15,20.2c-8.1,8.4-14.2,9.7,0,14.8c14.2,5.1,14.2,10.1,8.8,14.8
		c-5.4,4.7,14.2-1.8,14.2-1.8s-8.1,10.5,8.8,19.1c17.1,8.4,35.3,19.5,39.4,6.4c4-13,7.5-18.5,14.2-15.2c6.7,3.3,18.4,4.7,21.1-1.4
		c2.7-5.8-8.1-10.1,3.5-12.7c11.5-2.5,12.9,5.1,22.5,3.3c9.6-1.8,9.6-6.8,12.3-9c2.7-2.1,14.2,0,21.7-3.9c7.5-3.9,11.5-2.5,15,2.1
		c3.5,4.7,11.5,7.2,18.4,7.2c6.7,0,15.6,8,19,9.7c3.5,1.8,16.3,4.7,19-3.3c2.7-8,11-13,15-10.5c4,2.5,20.4,5.8,28.6,12.6
		c8.1,6.8,21.1-1.8,25.9,3.3c4.8,5.1,19.8,13.8,28.6,14.8c8.8,0.8,31.9-3.7,34-14.8c2.1-10.9-8.1-22.4,11-20.6
		c19,1.8,85.1-1.2,90.5-10.9c5.4-9.7-5.4-27.8-17.1-31.7c-9.6-3.1-29.4-2.5-29.6-11.1H342.9c-0.2,0-0.4,0-0.6,0.2
		C328.1,487.5,317.9,492.6,321.4,502.3z"/>
	
		<linearGradient id="SVGID_59_" gradientUnits="userSpaceOnUse" x1="143.4507" y1="436.6858" x2="143.4507" y2="654.9357" gradientTransform="matrix(1 0 0 -1 0 1069.8898)">
		<stop  offset="0" style="stop-color:#79BBDF;stop-opacity:0.69"/>
		<stop  offset="1" style="stop-color:#153E54;stop-opacity:0.78"/>
	</linearGradient>
	<path class="st60" d="M-44,632.7c6.7,6.6,18,8.9,20.7-2.5c2.7-11.4-8.1-19.5,3.3-24.3c11.5-4.8,12.9,9.6,22.1,6.6
		c9.4-3.3,9.4-12.9,12.1-17c2.7-4,14,0,21.5-7.3c7.3-7.3,11.3-4.8,14.8,4c3.3,8.9,11.3,13.7,18,13.7c6.7,0,15.4,15.4,18.8,18.5
		c3.5,3.3,16.1,8.9,18.8-6.6c2.7-15.4,10.8-25.1,14.8-20.2c4,4.8,20.2,11.4,28.2,24.3c8.1,12.9,20.7-3.3,25.5,6.6
		c1.9,4,13.1,6.4,17.3,11.4c6,6.9,6,16,10.9,17c4,0.8,10.8-21,17.3-24.9c7.9-4.4,15.2,8.1,16.3-3.5c1.9-21-8.1-42.8,10.8-39.5
		c9.4,1.5,30.3,18.5,49.7,15.2c9.4-1.5,8.6-10.6,15.7-17.9c4-4.2,10.6,3.9,15.5,0.6c4.2-2.7,7.7-16.8,8.3-18.9
		c1.7-6,6.9-16.8,5.4-29.1c-0.6-5.4-8.4-11-8.4-16.8c0-7.1-6.7-14.3-6.3-20.6c1-13.3,9.2-23.7,5-26.4c-11.3-7.3-29.4,11.6-39.4-0.8
		c-8.6-10.8-5.6-23.5-0.6-36H-55.3v208.2C-52.2,632.7-49.2,627.7-44,632.7z"/>
	
		<linearGradient id="SVGID_60_" gradientUnits="userSpaceOnUse" x1="1043.1664" y1="562.9147" x2="1043.1664" y2="619.3848" gradientTransform="matrix(1 0 0 -1 0 1069.8898)">
		<stop  offset="0" style="stop-color:#79BBDF;stop-opacity:0.69"/>
		<stop  offset="1" style="stop-color:#153E54;stop-opacity:0.78"/>
	</linearGradient>
	<path class="st61" d="M1109,506.8c-13.4-1.5-17.1-9.6-25.3-14.9c-8.3-5.2-9-15.5-15-11.9c-6,3.6-12.7,3.6-13.4,0
		c-0.8-3.6-9.6-9-15.5-8.2c-5.9,0.8,0,6.7-11.1,0c-11.1-6.7-8.2,0-8.2,0c-2.3-3.6-17.1-23-22.3-10.3c-5.2,12.6-10.4,1.5-13.4-3.6
		c-2.9-5.2-20.9,6.7-26.8,11.1c-6,4.4-1.5,18.6,11.1,28.1c5.8,4.4,8.1,10.3,9.2,16.1h152.9C1127.6,508.1,1121.5,508.1,1109,506.8z"
		/>
	
		<linearGradient id="SVGID_61_" gradientUnits="userSpaceOnUse" x1="1044.6919" y1="509.8558" x2="1044.6919" y2="584.6407" gradientTransform="matrix(1 0 0 -1 0 1069.8898)">
		<stop  offset="0" style="stop-color:#79BBDF;stop-opacity:0.69"/>
		<stop  offset="1" style="stop-color:#153E54;stop-opacity:0.78"/>
	</linearGradient>
	<path class="st62" d="M926.3,502.4c-3.7,2.9,2.5,5.7-0.6,8.2c-6.7,5.5-21.2,10.1-21.4,13.2c-0.6,9.5-9.2,22-4,24.4
		c2.1,1.1,3.8,6.7,11.2,5c5.4-1.3,16.2-9.9,21.2-10.5c4.6-0.6,8.5,5.9,10.4,4.4c6.9-5,28.1-14.7,33.9-11.1c5.8,3.6,10.6,13,22.5,6.9
		c11.9-6.1,28.1-4,37.5,3.1c6,4.4,6.4,2.1,17.5-5.7c1.7-1.3,5.6,4.6,9.4,3.1c3.5-1.3,6.7-10.1,8.7-11.6c3.7-3.1,6.9-7.6,11.8-5.5
		c0,0,1.4,5.2-1.3,15.8c-2.7,10.5-9.2,21.8-6.3,25.4c2.7,3.4,6.7-4.6,15.4-8c4-1.5,12.9,3.6,16.2,1.1c5-3.8,8.5-13.9,8.5-13.9
		s4.6,9,13.7,8.6c7.1-0.2,17.5-8.8,25.6-11.6c10.8-3.8,22.7-18.7,24.3-19.5c1.7-1-1.7-9.2,5.2-21.8c1.5-2.9,3.5-5.9,5.2-9H941.9
		c-0.4,1-1,1.9-1.7,2.7C938.5,498.4,928.8,500.5,926.3,502.4z"/>
	
		<linearGradient id="SVGID_62_" gradientUnits="userSpaceOnUse" x1="878.816" y1="591.6328" x2="878.816" y2="645.0508" gradientTransform="matrix(1 0 0 -1 0 1069.8898)">
		<stop  offset="0" style="stop-color:#79BBDF;stop-opacity:0.69"/>
		<stop  offset="1" style="stop-color:#153E54;stop-opacity:0.78"/>
	</linearGradient>
	<path class="st63" d="M882,468c-6.3,2.9-9.8,3.7-10.7,0c-1-3.7-3.6-7-6.3-7c-2.7,0-2.7-3.7-3.4-5.8c-0.8-2.1-5.3-2.5-7.1-2.1
		c-1.7,0.4-7.1-4.8-7.6-6.6c-0.8-1.5,2.1-4.1,3.1-7c1-2.9,7.6-11,12.8-8.5c5,2.5,8,15.9,11.7,12.2c3.6-3.7,2.3-9.5,3.6-8.9
		c1.3,0.4,5.7,3.3,6.1,4.5c0.4,1.2,7.1,2.9,8-0.4c1-3.3,6.3-2.9,8.8,1.2c2.3,4.1-3.1,15.1,0,15.9c3.1,0.8,6.5,5.8,9.2,10.6
		c2.7,4.8-1.2,18-11.1,18c-1,0-7.5-7.7-13-7.7c-5.5,0-9.2,7.7-9.4,4.5C875.9,477.6,882,468,882,468z"/>
	
		<linearGradient id="SVGID_63_" gradientUnits="userSpaceOnUse" x1="744.28" y1="642.0837" x2="744.28" y2="695.5018" gradientTransform="matrix(1 0 0 -1 0 1069.8898)">
		<stop  offset="0" style="stop-color:#79BBDF;stop-opacity:0.69"/>
		<stop  offset="1" style="stop-color:#153E54;stop-opacity:0.78"/>
	</linearGradient>
	<path class="st64" d="M747.5,417.5c-6.3,2.9-9.7,3.7-10.7,0c-1-3.7-3.6-7-6.3-7s-2.7-3.7-3.4-5.8c-0.8-2.1-5.3-2.5-7.1-2.1
		c-1.7,0.4-7.1-4.8-7.6-6.6c-0.8-1.5,2.1-4.1,3.1-7c1-2.9,7.6-11,12.8-8.5c5,2.5,8,15.9,11.7,12.2c3.6-3.7,2.3-9.5,3.6-8.9
		c1.3,0.4,5.7,3.3,6.1,4.5c0.4,1.2,7.1,2.9,8-0.4c1-3.3,6.3-2.9,8.8,1.2c2.3,4.1-3.1,15.1,0,15.9c3.1,0.8,6.5,5.8,9.2,10.6
		c2.7,4.8-1.1,18-11.1,18c-1,0-7.5-7.7-13-7.7c-5.5,0-9.2,7.7-9.4,4.5C741.3,427.2,747.5,417.5,747.5,417.5z"/>
	
		<linearGradient id="SVGID_64_" gradientUnits="userSpaceOnUse" x1="410.2307" y1="600.8047" x2="410.2307" y2="654.2228" gradientTransform="matrix(1 0 0 -1 0 1069.8898)">
		<stop  offset="0" style="stop-color:#79BBDF;stop-opacity:0.69"/>
		<stop  offset="1" style="stop-color:#153E54;stop-opacity:0.78"/>
	</linearGradient>
	<path class="st65" d="M413.5,458.8c-6.5,2.9-10,3.7-11,0c-1-3.7-3.7-7-6.5-7s-2.7-3.7-3.5-5.8c-0.8-2.1-5.5-2.5-7.2-2.1
		s-7.2-4.8-7.8-6.6c-0.8-1.5,2.2-4.1,3.1-7c1-2.9,7.8-11,13.1-8.5c5.1,2.5,8.2,15.9,11.9,12.2c3.7-3.7,2.3-9.5,3.7-8.9
		c1.4,0.4,5.9,3.3,6.3,4.5c0.4,1.2,7.2,2.9,8.2-0.4c1-3.3,6.5-2.9,9,1.2c2.3,4.1-3.1,15.1,0,15.9c3.1,0.8,6.7,5.8,9.4,10.6
		c2.7,4.8-1.2,18-11.3,18c-1,0-7.6-7.7-13.3-7.7s-9.4,7.7-9.6,4.5C407.2,468.7,413.5,458.8,413.5,458.8z"/>
	
		<linearGradient id="SVGID_65_" gradientUnits="userSpaceOnUse" x1="577.6378" y1="624.6517" x2="577.6378" y2="658.2288" gradientTransform="matrix(1 0 0 -1 0 1069.8898)">
		<stop  offset="0" style="stop-color:#79BBDF;stop-opacity:0.69"/>
		<stop  offset="1" style="stop-color:#153E54;stop-opacity:0.78"/>
	</linearGradient>
	<path class="st66" d="M597.2,442.3c0,0,2.1,1.8-2.7,1.4c-4.9-0.4-1.8,0.6-3.7,2c-1.8,1.2-5.7,1-6.4,0c-0.8-1.2-3.1,0-4.3,2.4
		c-1.4,2.2-3.3-1-6.8-1.4c-3.5-0.4-6.3-2.4-10.7-0.6c-4.7,1.8-6.6,2.8-8.8,1.6c-2.1-1.4-0.6-5.4-5.3-5c-4.9,0.4-5.9,0.6-7.2-2.2
		c-1.4-2.8-10.2-1,0.2-7.4c10.4-6.4,7.2-9,16.4-8.6c9.2,0.2,10.2-0.6,14.7-3c4.3-2.4,6.8-4.2,8.6-2c1.8,2.2,7.4,0.8,11.7-1.4
		c4.1-2.2,6.3-4,8.2-2.2c2,1.8,3.5,8.2,9.4,9.4c5.9,1,9.6,5,8.4,7.6c-1.2,2.6-5.1,9.6-6.8,8.4c-2-1.2-5.5-4-5.1,1
		C606.8,447.1,598.6,443.1,597.2,442.3z"/>
	
		<linearGradient id="SVGID_66_" gradientUnits="userSpaceOnUse" x1="398.7647" y1="466.6877" x2="398.7647" y2="495.6858" gradientTransform="matrix(1 0 0 -1 0 1069.8898)">
		<stop  offset="0" style="stop-color:#79BBDF;stop-opacity:0.69"/>
		<stop  offset="1" style="stop-color:#153E54;stop-opacity:0.78"/>
	</linearGradient>
	<path class="st67" d="M411.5,592.3c0,0,1.5,0.4-1.2,1.4c-2.7,1-0.8,0.8-1.5,1.9c-0.6,1.2-2.7,1.9-3.5,1.8c-0.8-0.4-1.5,0.8-1.7,2.3
		c-0.2,1.6-2.1,0.2-4,1c-1.9,0.8-3.9,0.4-6,2.5c-2.1,2.1-2.9,3.1-4.4,3.1c-1.5-0.2-1.7-2.7-4-1.4c-2.5,1.4-3.1,1.8-4.4,0.8
		c-1.3-1.2-5.6,2.1-1.7-4.1c4-6,1.7-6.6,6.5-8.8c5-2.1,5.4-2.9,7.1-5.3c1.7-2.3,2.7-4.1,4-3.3c1.5,0.8,4.2-1.6,6-3.7
		c1.7-2.1,2.3-3.7,3.9-3.3c1.5,0.6,4,3.5,7.3,2.5c3.3-1,6.4,0.2,6.4,1.8c0,1.6-0.4,6.4-1.5,6.2c-1.3-0.2-3.9-0.8-2.5,1.9
		C417.9,592.5,412.5,592.5,411.5,592.3z"/>
	
		<linearGradient id="SVGID_67_" gradientUnits="userSpaceOnUse" x1="91.4713" y1="503.3798" x2="91.4713" y2="532.3777" gradientTransform="matrix(1 0 0 -1 0 1069.8898)">
		<stop  offset="0" style="stop-color:#79BBDF;stop-opacity:0.69"/>
		<stop  offset="1" style="stop-color:#153E54;stop-opacity:0.78"/>
	</linearGradient>
	<path class="st68" d="M104.2,555.8c0,0,1.5,0.4-1.2,1.4c-2.7,1-0.8,0.8-1.5,1.9c-0.6,1.2-2.7,1.9-3.5,1.6c-0.8-0.4-1.5,0.8-1.7,2.3
		c-0.2,1.6-2.1,0.2-4,1c-1.9,0.8-3.9,0.4-6,2.5c-2.1,2.1-2.9,3.1-4.4,3.1c-1.5-0.2-1.7-2.7-4-1.4c-2.5,1.4-3.1,1.8-4.4,0.8
		c-1.3-1.2-5.6,2.1-1.7-4.1c4-6,1.7-6.6,6.6-8.8c5-2.1,5.4-2.9,7.1-5.3c1.7-2.3,2.7-4.1,4-3.3c1.5,0.8,4.2-1.6,6-3.7
		c1.7-2.1,2.3-3.7,3.9-3.3c1.5,0.6,4,3.5,7.3,2.5s6.4,0.2,6.4,1.8c0,1.6-0.4,6.4-1.5,6.2c-1.3-0.2-3.9-0.8-2.5,1.9
		C110.4,555.8,105.2,555.8,104.2,555.8z"/>
	
		<linearGradient id="SVGID_68_" gradientUnits="userSpaceOnUse" x1="136.5715" y1="605.1827" x2="136.5715" y2="670.8098" gradientTransform="matrix(1 0 0 -1 0 1069.8898)">
		<stop  offset="0" style="stop-color:#79BBDF;stop-opacity:0.69"/>
		<stop  offset="1" style="stop-color:#153E54;stop-opacity:0.78"/>
	</linearGradient>
	<path class="st69" d="M147.7,452.5c-5.8,7.3-9.3,10.4-12.8,6.7c-3.5-3.7-8.7-5.8-12.1-4.2c-3.3,1.7-5.4-2.7-7.6-4.6
		c-2.1-1.9-8,0.4-9.7,1.9s-11.5-1.3-13.2-2.9s-0.2-6-0.8-10c-0.4-2.3,6.8-4.6,8.9-8.8c1.6-3.3-2.3-9,1-9.2
		c7.6-0.2,19.6,13.7,21.8,7.1c2.1-6.5-2.9-12.5-1.2-12.9c1.9-0.4,8.9,0.2,10.1,1.5c1.2,1.2,10.3-1,9.3-5.6c-0.8-4.4,5.8-7.3,11.3-4
		s5.8,19.6,9.9,18.7c4.1-1,11.3,2.7,17.5,6.7c3.7,2.5-0.6,11.9-2.3,19.2c-1.2,4.8,0.6,8.5,0.2,8.8c-0.4,0.2-2.9,5.6-6,6.3
		c-2.3,0.6-4.9,3.5-7,2.9c-2.9-0.6-5.1-4.8-5.1-4.8s-8.4,9.2-10.9,5.6C146.6,467.7,147.7,452.5,147.7,452.5z"/>
	
		<linearGradient id="SVGID_69_" gradientUnits="userSpaceOnUse" x1="609.743" y1="686.2098" x2="609.743" y2="751.8378" gradientTransform="matrix(1 0 0 -1 0 1069.8898)">
		<stop  offset="0" style="stop-color:#79BBDF;stop-opacity:0.69"/>
		<stop  offset="1" style="stop-color:#153E54;stop-opacity:0.78"/>
	</linearGradient>
	<path class="st70" d="M620.5,371.3c-5.7,7.3-9.2,10.4-12.6,6.7c-3.4-3.7-8.6-5.8-11.7-4.2c-3.2,1.7-5.4-2.7-7.5-4.6
		c-2.1-1.9-7.8,0.4-9.6,1.9c-1.7,1.5-11.3-1.3-13-2.9c-1.7-1.5-0.2-6-0.8-10c-0.4-2.3,6.7-4.6,8.8-8.8c1.5-3.3-2.3-9,1-9.2
		c7.5-0.2,19.3,13.7,21.4,7.1s-2.9-12.5-1.1-12.9c1.9-0.4,8.8,0.2,9.9,1.5c1.1,1.2,10.1-1,9.2-5.4c-0.8-4.4,5.7-7.3,11.1-4
		c5.4,3.3,5.7,19.6,9.7,18.7c4-1,11.1,2.7,17.2,6.7c3.6,2.5-0.6,11.9-2.3,19.2c-1.1,4.8,0.6,8.5,0.2,8.8c-0.4,0.2-2.9,5.6-5.9,6.3
		c-2.3,0.6-4.8,3.5-6.9,2.9c-2.9-0.6-5-4.8-5-4.8s-8.2,9.2-10.7,5.6C619.4,386.6,620.5,371.3,620.5,371.3z"/>
	
		<linearGradient id="SVGID_70_" gradientUnits="userSpaceOnUse" x1="1114.2528" y1="596.0087" x2="1114.2528" y2="661.6368" gradientTransform="matrix(1 0 0 -1 0 1069.8898)">
		<stop  offset="0" style="stop-color:#79BBDF;stop-opacity:0.69"/>
		<stop  offset="1" style="stop-color:#153E54;stop-opacity:0.78"/>
	</linearGradient>
	<path class="st71" d="M1125,461.6c-5.7,7.3-9.2,10.4-12.6,6.7c-3.4-3.7-8.6-5.8-11.7-4.2c-3.3,1.7-5.3-2.7-7.4-4.6
		c-2.1-1.9-7.8,0.4-9.6,1.9c-1.7,1.5-11.3-1.3-13-2.9c-1.7-1.5-0.2-6-0.8-10c-0.4-2.3,6.7-4.6,8.8-8.8c1.5-3.3-2.3-9,1-9.2
		c7.4-0.2,19.3,13.7,21.4,7.1c2.1-6.5-2.9-12.5-1.1-12.9c1.9-0.4,8.8,0.2,9.9,1.5c1.2,1.2,10.1-1,9.2-5.6c-0.8-4.4,5.7-7.3,11.1-4
		c5.4,3.3,5.7,19.6,9.8,18.7c4-1,11.1,2.7,17.2,6.7c3.6,2.5-0.6,11.9-2.3,19.2c-1.2,4.8,0.6,8.5,0.2,8.8c-0.4,0.2-2.9,5.6-5.9,6.3
		c-2.3,0.6-4.8,3.5-7.1,2.9c-2.9-0.6-5-4.8-5-4.8s-8.2,9.2-10.7,5.6C1123.9,476.8,1125,461.6,1125,461.6z"/>
	
		<linearGradient id="SVGID_71_" gradientUnits="userSpaceOnUse" x1="275.407" y1="248.4557" x2="275.407" y2="378.4908" gradientTransform="matrix(1 0 0 -1 0 1069.8898)">
		<stop  offset="0" style="stop-color:#79BBDF;stop-opacity:0.69"/>
		<stop  offset="1" style="stop-color:#153E54;stop-opacity:0.78"/>
	</linearGradient>
	<path class="st72" d="M547.8,835.5c-1-0.8-2-3-3-6.6c-2.5-10.1-3.8-12.7-8.8-10.7c-5,2-5.3,0.8-6.3-7.8c-1-8.4-8.8-20.8-19.3-21.6
		c-10.6-0.8-17.2-10.1-27.6-18.8c-10.6-8.9-10.1-21.6-35.4-30.4c-25.3-8.9-10.9,7.8-21.6,21.6c-10.9,13.9-13.7,2.6-15.7-1.5
		c-2.1-4.3-4.6-2-5.3,0s-1,11.6-7.3,3.1c-6.3-8.4-6.3-4.6-6.6-3.1c-0.3,1.5-10.9,5.5-15.7-2.3c-5-7.8-9.1-1.5-27.3,5.5
		c-18.2,6.9-14.7,10.7-14.7,1.5c0-9.3-6.6-6.9-16.5-8.9c-9.8-2-18.5,13.1-19.7,5.5c-1-7.8-15.7,0-14.7-2c1-2-2.5-13.9-6.6-19.3
		c-4.1-5.5-3.8-3.1-5.9-1.2c-2.1,2-1,12.4-8.1,17.7c-6.9,5.5-12.6,2-12.6-0.8c0-2.6-7.8-17-14.4-20c-6.6-3.1-7.3-13.9-12.9-14.7
		c-5.6-0.8-5.9,11.6-8.1,15c-2.1,3.5-5.3,2-6.3-5c-1-6.9-9.4-6.9-15.4-6.9c-6,0-8.8-4.6-15-13c-6.3-8.4-12.6-5.8-27.3,0
		c-14.7,5.8-19.7,5.8-31.2,5c-11.6-0.8-10.9,2.3-16,4.3c-5.3,2-4.6-1.2-10.9,0s-1.3,15.9-4.6,12.4c-3.1-3.5-13.7-6.1-21-6.6
		c-7.3-0.3-15.7,3.5-24.1,4.6c-8.4,1.2-10.6,3.8-16.5,10.4c-5.9,6.6-8.1,14.2-14,21.1c-2.1,2.5-5.1,5.5-8.3,7.9v65.7H547.8z"/>
</g>
<rect x="3" y="0" class="st73" width="1072" height="1071"/>
<g class="st74">
	<ellipse class="st75" cx="700.5" cy="395.5" rx="328.5" ry="88.5"/>
</g>
<g class="st74">
	<ellipse class="st75" cx="331.5" cy="250.5" rx="328.5" ry="88.5"/>
</g>
<g class="st74">
	<ellipse class="st75" cx="720.5" cy="698.5" rx="328.5" ry="88.5"/>
</g>
<g class="st74">
	<ellipse class="st75" cx="354.5" cy="572.5" rx="328.5" ry="88.5"/>
</g>
</svg>
