<?xml version="1.0" encoding="utf-8"?>
<!-- Generator: Adobe Illustrator 23.0.5, SVG Export Plug-In . SVG Version: 6.00 Build 0)  -->
<svg version="1.1" id="Слой_1" xmlns="http://www.w3.org/2000/svg" xmlns:xlink="http://www.w3.org/1999/xlink" x="0px" y="0px"
	 width="1072.7px" height="1071px" viewBox="0 0 1072.7 1071" style="enable-background:new 0 0 1072.7 1071;" xml:space="preserve"
	>
<style type="text/css">
	.st0{fill:url(#SVGID_1_);}
	.st1{fill:url(#SVGID_2_);}
	.st2{fill:url(#SVGID_3_);}
	.st3{fill:url(#SVGID_4_);}
	.st4{fill:url(#SVGID_5_);}
	.st5{fill:url(#SVGID_6_);}
	.st6{fill:url(#SVGID_7_);}
	.st7{fill:url(#SVGID_8_);}
	.st8{fill:url(#SVGID_9_);}
	.st9{fill:url(#SVGID_10_);}
	.st10{fill:#FFFFFF;}
	.st11{fill:url(#SVGID_11_);}
	.st12{fill:url(#SVGID_12_);}
	.st13{fill:url(#SVGID_13_);}
	.st14{fill:url(#SVGID_14_);}
	.st15{fill:url(#SVGID_15_);}
	.st16{fill:url(#SVGID_16_);}
	.st17{fill:url(#SVGID_17_);}
	.st18{fill:url(#SVGID_18_);}
	.st19{fill:url(#SVGID_19_);}
	.st20{fill:url(#SVGID_20_);}
	.st21{fill:url(#SVGID_21_);}
	.st22{fill:url(#SVGID_22_);}
	.st23{fill:url(#SVGID_23_);}
	.st24{fill:url(#SVGID_24_);}
	.st25{fill:url(#SVGID_25_);}
	.st26{fill:url(#SVGID_26_);}
	.st27{fill:url(#SVGID_27_);}
	.st28{fill:url(#SVGID_28_);}
</style>
<linearGradient id="SVGID_1_" gradientUnits="userSpaceOnUse" x1="536.16" y1="1223.8898" x2="536.16" y2="152.8898" gradientTransform="matrix(1 0 0 -1 0 1223.8898)">
	<stop  offset="0" style="stop-color:#6CA2F3"/>
	<stop  offset="1" style="stop-color:#F9F3F6"/>
</linearGradient>
<rect y="0" class="st0" width="1072.3" height="1071"/>
<linearGradient id="SVGID_2_" gradientUnits="userSpaceOnUse" x1="536.16" y1="1223.8898" x2="536.16" y2="152.8898" gradientTransform="matrix(1 0 0 -1 0 1223.8898)">
	<stop  offset="0" style="stop-color:#002566"/>
	<stop  offset="1" style="stop-color:#002D3E"/>
</linearGradient>
<rect y="0" class="st1" width="1072.3" height="1071"/>
<linearGradient id="SVGID_3_" gradientUnits="userSpaceOnUse" x1="1068.7523" y1="812.7562" x2="-58.8627" y2="812.7523" gradientTransform="matrix(1 0 0 -1 0 1223.8898)">
	<stop  offset="0" style="stop-color:#FEFEFE;stop-opacity:0"/>
	<stop  offset="1" style="stop-color:#FFFFFF"/>
</linearGradient>
<rect x="-34.2" y="409.2" class="st2" width="1052.6" height="3.9"/>
<linearGradient id="SVGID_4_" gradientUnits="userSpaceOnUse" x1="1168.4524" y1="808.8062" x2="-40.9137" y2="808.8023" gradientTransform="matrix(1 0 0 -1 0 1223.8898)">
	<stop  offset="0" style="stop-color:#FEFEFE;stop-opacity:0"/>
	<stop  offset="1" style="stop-color:#FFFFFF"/>
</linearGradient>
<rect x="-14.5" y="413.1" class="st3" width="1128.9" height="3.9"/>
<linearGradient id="SVGID_5_" gradientUnits="userSpaceOnUse" x1="1947.8326" y1="1221.2813" x2="737.0613" y2="1221.2783" gradientTransform="matrix(-1 0 0 -1 1846.3761 1368.6188)">
	<stop  offset="0" style="stop-color:#FEFEFE;stop-opacity:0"/>
	<stop  offset="1" style="stop-color:#FFFFFF"/>
</linearGradient>
<rect x="-47.4" y="144.7" class="st4" width="1130.2" height="5.3"/>
<linearGradient id="SVGID_6_" gradientUnits="userSpaceOnUse" x1="1946.4524" y1="1221.9492" x2="737.0919" y2="1221.9451" gradientTransform="matrix(-1 0 0 -1 1877.9561 1358.0938)">
	<stop  offset="0" style="stop-color:#FEFEFE;stop-opacity:0"/>
	<stop  offset="1" style="stop-color:#FFFFFF"/>
</linearGradient>
<rect x="-14.5" y="134.2" class="st5" width="1128.9" height="3.9"/>
<linearGradient id="SVGID_7_" gradientUnits="userSpaceOnUse" x1="963.4924" y1="471.976" x2="-164.1206" y2="471.973" gradientTransform="matrix(1 0 0 -1 0 1223.8898)">
	<stop  offset="0" style="stop-color:#FEFEFE;stop-opacity:0"/>
	<stop  offset="1" style="stop-color:#FFFFFF"/>
</linearGradient>
<rect x="-139.5" y="750" class="st6" width="1052.6" height="3.9"/>
<linearGradient id="SVGID_8_" gradientUnits="userSpaceOnUse" x1="3394.1038" y1="270.2452" x2="2266.4937" y2="270.2413" gradientTransform="matrix(-1 0 0 1 3650.2859 297.5282)">
	<stop  offset="0" style="stop-color:#FEFEFE;stop-opacity:0"/>
	<stop  offset="1" style="stop-color:#FFFFFF"/>
</linearGradient>
<rect x="306.6" y="565.8" class="st7" width="1052.6" height="3.9"/>
<linearGradient id="SVGID_9_" gradientUnits="userSpaceOnUse" x1="3339.8137" y1="-2.1129" x2="2072.6636" y2="-2.117" gradientTransform="matrix(-1 0 0 1 3268.7258 842.2383)">
	<stop  offset="0" style="stop-color:#FEFEFE;stop-opacity:0"/>
	<stop  offset="1" style="stop-color:#FFFFFF"/>
</linearGradient>
<rect x="-14.5" y="838.1" class="st8" width="1182.8" height="3.9"/>
<linearGradient id="SVGID_10_" gradientUnits="userSpaceOnUse" x1="3240.1636" y1="242.6147" x2="2112.5537" y2="242.6107" gradientTransform="matrix(-1 0 0 1 3342.406 352.7882)">
	<stop  offset="0" style="stop-color:#FEFEFE;stop-opacity:0"/>
	<stop  offset="1" style="stop-color:#FFFFFF"/>
</linearGradient>
<rect x="152.6" y="593.4" class="st9" width="1052.6" height="3.9"/>
<g>
	<circle class="st10" cx="846.8" cy="237.3" r="4.3"/>
</g>
<circle class="st10" cx="846.8" cy="237.3" r="4.3"/>
<g>
	<circle class="st10" cx="734.8" cy="508.3" r="4.3"/>
</g>
<circle class="st10" cx="734.8" cy="508.3" r="4.3"/>
<g>
	<circle class="st10" cx="105.2" cy="209.4" r="4.3"/>
</g>
<circle class="st10" cx="105.2" cy="209.4" r="4.3"/>
<g>
	<circle class="st10" cx="593.9" cy="76.5" r="4.3"/>
</g>
<circle class="st10" cx="593.9" cy="76.5" r="4.3"/>
<g>
	<circle class="st10" cx="581" cy="691.7" r="4.3"/>
</g>
<circle class="st10" cx="581" cy="691.7" r="4.3"/>
<g>
	<circle class="st10" cx="271.8" cy="504.3" r="4.3"/>
</g>
<circle class="st10" cx="271.8" cy="504.3" r="4.3"/>
<g>
	<circle class="st10" cx="584.8" cy="314.3" r="4.3"/>
</g>
<circle class="st10" cx="584.8" cy="314.3" r="4.3"/>
<g>
	<circle class="st10" cx="794.8" cy="939.3" r="4.3"/>
</g>
<circle class="st10" cx="794.8" cy="939.3" r="4.3"/>
<g>
	<circle class="st10" cx="262.8" cy="897.3" r="4.3"/>
</g>
<circle class="st10" cx="262.8" cy="897.3" r="4.3"/>
<g>
	<circle class="st10" cx="19.4" cy="721.7" r="4.3"/>
</g>
<circle class="st10" cx="19.4" cy="721.7" r="4.3"/>
<g>
	<circle class="st10" cx="981.9" cy="668.2" r="4.3"/>
</g>
<circle class="st10" cx="981.9" cy="668.2" r="4.3"/>
<g>
	<circle class="st10" cx="338.8" cy="215.9" r="4.3"/>
</g>
<circle class="st10" cx="338.8" cy="215.9" r="4.3"/>
<linearGradient id="SVGID_11_" gradientUnits="userSpaceOnUse" x1="618.8784" y1="699.7888" x2="618.8784" y2="195.7767" gradientTransform="matrix(6.123234e-17 -1 -1 -6.123234e-17 656.1888 1412.501)">
	<stop  offset="0" style="stop-color:#FFFFFF"/>
	<stop  offset="1" style="stop-color:#D9D9D9;stop-opacity:0"/>
</linearGradient>
<path class="st11" d="M-43.6,793.6L-43.6,793.6c0-3,2.5-5.5,5.5-5.5h493.1c3,0,5.5,2.5,5.5,5.5l0,0c0,3-2.5,5.5-5.5,5.5H-38.1
	C-41.1,799.1-43.6,796.6-43.6,793.6z"/>
<linearGradient id="SVGID_12_" gradientUnits="userSpaceOnUse" x1="1319.7024" y1="273.8198" x2="1319.7024" y2="-230.1921" gradientTransform="matrix(6.123234e-17 -1 -1 -6.123234e-17 931.0438 2539.2939)">
	<stop  offset="0" style="stop-color:#FFFFFF"/>
	<stop  offset="1" style="stop-color:#D9D9D9;stop-opacity:0"/>
</linearGradient>
<path class="st12" d="M657.2,1219.6L657.2,1219.6c0-3,2.5-5.5,5.5-5.5h493.1c3,0,5.5,2.5,5.5,5.5l0,0c0,3-2.5,5.5-5.5,5.5H662.7
	C659.7,1225.1,657.2,1222.6,657.2,1219.6z"/>
<linearGradient id="SVGID_13_" gradientUnits="userSpaceOnUse" x1="865.5484" y1="965.5598" x2="865.5484" y2="461.5477" gradientTransform="matrix(6.123234e-17 -1 -1 -6.123234e-17 1168.6298 1393.4)">
	<stop  offset="0" style="stop-color:#FFFFFF"/>
	<stop  offset="1" style="stop-color:#D9D9D9;stop-opacity:0"/>
</linearGradient>
<path class="st13" d="M203.1,527.9L203.1,527.9c0-3,2.5-5.5,5.5-5.5h493.1c3,0,5.5,2.5,5.5,5.5l0,0c0,3-2.5,5.5-5.5,5.5H208.5
	C205.5,533.3,203.1,530.9,203.1,527.9z"/>
<linearGradient id="SVGID_14_" gradientUnits="userSpaceOnUse" x1="993.8454" y1="422.8597" x2="993.8454" y2="-81.1522" gradientTransform="matrix(6.123234e-17 -1 -1 -6.123234e-17 754.2267 2064.397)">
	<stop  offset="0" style="stop-color:#FFFFFF"/>
	<stop  offset="1" style="stop-color:#D9D9D9;stop-opacity:0"/>
</linearGradient>
<path class="st14" d="M331.4,1070.6L331.4,1070.6c0-3,2.5-5.5,5.5-5.5h493.1c3,0,5.5,2.5,5.5,5.5l0,0c0,3-2.5,5.5-5.5,5.5H336.8
	C333.8,1076,331.4,1073.6,331.4,1070.6z"/>
<linearGradient id="SVGID_15_" gradientUnits="userSpaceOnUse" x1="1096.5414" y1="1318.7488" x2="1096.5414" y2="814.7368" gradientTransform="matrix(6.123234e-17 -1 -1 -6.123234e-17 1752.8118 1271.204)">
	<stop  offset="0" style="stop-color:#FFFFFF"/>
	<stop  offset="1" style="stop-color:#D9D9D9;stop-opacity:0"/>
</linearGradient>
<path class="st15" d="M434.1,174.7L434.1,174.7c0-3,2.5-5.5,5.5-5.5h493.1c3,0,5.5,2.5,5.5,5.5l0,0c0,3-2.5,5.5-5.5,5.5H439.5
	C436.5,180.1,434.1,177.7,434.1,174.7z"/>
<linearGradient id="SVGID_16_" gradientUnits="userSpaceOnUse" x1="1255.7406" y1="1121.2457" x2="1255.7406" y2="434.0677" gradientTransform="matrix(6.123234e-17 -1 -1 -6.123234e-17 1714.5997 1627.9979)">
	<stop  offset="0" style="stop-color:#FFFFFF"/>
	<stop  offset="1" style="stop-color:#D9D9D9;stop-opacity:0"/>
</linearGradient>
<path class="st16" d="M593.4,372.3L593.4,372.3c0-3,2.4-5.4,5.4-5.4h676.4c3,0,5.4,2.4,5.4,5.4l0,0c0,3-2.4,5.4-5.4,5.4H598.7
	C595.8,377.6,593.4,375.2,593.4,372.3z"/>
<linearGradient id="SVGID_17_" gradientUnits="userSpaceOnUse" x1="525.4695" y1="838.8328" x2="525.4695" y2="158.5797" gradientTransform="matrix(6.123234e-17 -1 -1 -6.123234e-17 701.9156 1180.1398)">
	<stop  offset="0" style="stop-color:#FFFFFF"/>
	<stop  offset="1" style="stop-color:#D9D9D9;stop-opacity:0"/>
</linearGradient>
<path class="st17" d="M-136.9,654.7L-136.9,654.7c0-3,2.4-5.4,5.4-5.4h669.5c3,0,5.4,2.4,5.4,5.4l0,0c0,3-2.4,5.4-5.4,5.4h-669.5
	C-134.5,660.1-136.9,657.6-136.9,654.7z"/>
<linearGradient id="SVGID_18_" gradientUnits="userSpaceOnUse" x1="994.8746" y1="586.4318" x2="994.8746" y2="-280.0443" gradientTransform="matrix(6.123234e-17 -1 -1 -6.123234e-17 918.9197 1901.9459)">
	<stop  offset="0" style="stop-color:#FFFFFF"/>
	<stop  offset="1" style="stop-color:#D9D9D9;stop-opacity:0"/>
</linearGradient>
<path class="st18" d="M332.5,907.1L332.5,907.1c0-3,2.4-5.4,5.4-5.4h855.7c3,0,5.4,2.4,5.4,5.4v0c0,3-2.4,5.4-5.4,5.4H337.9
	C334.9,912.5,332.5,910,332.5,907.1z"/>
<linearGradient id="SVGID_19_" gradientUnits="userSpaceOnUse" x1="1274.9796" y1="819.5948" x2="1274.9796" y2="168.5839" gradientTransform="matrix(6.123234e-17 -1 -1 -6.123234e-17 1432.1877 1948.8879)">
	<stop  offset="0" style="stop-color:#FFFFFF"/>
	<stop  offset="1" style="stop-color:#D9D9D9;stop-opacity:0"/>
</linearGradient>
<path class="st19" d="M612.6,673.9L612.6,673.9c0-3,2.4-5.4,5.4-5.4h640.2c3,0,5.4,2.4,5.4,5.4l0,0c0,3-2.4,5.4-5.4,5.4H618
	C615,679.3,612.6,676.9,612.6,673.9z"/>
<linearGradient id="SVGID_20_" gradientUnits="userSpaceOnUse" x1="1622.8613" y1="384.3297" x2="1622.8613" y2="121.7677" gradientTransform="matrix(6.123234e-17 -1 -1 -6.123234e-17 1344.7126 2731.9431)">
	<stop  offset="0" style="stop-color:#FFFFFF"/>
	<stop  offset="1" style="stop-color:#D9D9D9;stop-opacity:0"/>
</linearGradient>
<path class="st20" d="M960.4,1109.1L960.4,1109.1c0-3,2.5-5.5,5.5-5.5h251.6c3,0,5.5,2.5,5.5,5.5l0,0c0,3-2.5,5.5-5.5,5.5H965.9
	C962.8,1114.6,960.4,1112.1,960.4,1109.1z"/>
<linearGradient id="SVGID_21_" gradientUnits="userSpaceOnUse" x1="799.7324" y1="1390.9327" x2="799.7324" y2="1128.3707" gradientTransform="matrix(6.123234e-17 -1 -1 -6.123234e-17 1528.1868 902.211)">
	<stop  offset="0" style="stop-color:#FFFFFF"/>
	<stop  offset="1" style="stop-color:#D9D9D9;stop-opacity:0"/>
</linearGradient>
<path class="st21" d="M137.3,102.5L137.3,102.5c0-3,2.5-5.5,5.5-5.5h251.6c3,0,5.5,2.5,5.5,5.5l0,0c0,3-2.5,5.5-5.5,5.5H142.7
	C139.7,108,137.3,105.5,137.3,102.5z"/>
<linearGradient id="SVGID_22_" gradientUnits="userSpaceOnUse" x1="700.1497" y1="476.3898" x2="700.1497" y2="-294.6663" gradientTransform="matrix(6.123234e-17 -1 -1 -6.123234e-17 514.1528 1717.2629)">
	<stop  offset="0" style="stop-color:#FFFFFF"/>
	<stop  offset="1" style="stop-color:#D9D9D9;stop-opacity:0"/>
</linearGradient>
<path class="st22" d="M37.8,1017.1L37.8,1017.1c0-3,2.4-5.4,5.4-5.4h760.3c3,0,5.4,2.4,5.4,5.4v0c0,3-2.4,5.4-5.4,5.4H43.1
	C40.2,1022.5,37.8,1020.1,37.8,1017.1z"/>
<linearGradient id="SVGID_23_" gradientUnits="userSpaceOnUse" x1="575.8728" y1="1030.4427" x2="575.8728" y2="350.1898" gradientTransform="matrix(6.123234e-17 -1 -1 -6.123234e-17 943.5442 1038.5483)">
	<stop  offset="0" style="stop-color:#FFFFFF"/>
	<stop  offset="1" style="stop-color:#D9D9D9;stop-opacity:0"/>
</linearGradient>
<path class="st23" d="M-86.9,462.7L-86.9,462.7c0-3.2,2.6-5.8,5.8-5.8h668.7c3.2,0,5.8,2.6,5.8,5.8v0c0,3.2-2.6,5.8-5.8,5.8H-81.1
	C-84.3,468.4-86.9,465.9-86.9,462.7z"/>
<linearGradient id="SVGID_24_" gradientUnits="userSpaceOnUse" x1="1357.3165" y1="669.5398" x2="1357.3165" y2="165.5068" gradientTransform="matrix(6.123234e-17 -1 -1 -6.123234e-17 1364.4697 2181.28)">
	<stop  offset="0" style="stop-color:#FFFFFF"/>
	<stop  offset="1" style="stop-color:#D9D9D9;stop-opacity:0"/>
</linearGradient>
<path class="st24" d="M694.9,824L694.9,824c0-3,2.4-5.4,5.4-5.4h493.3c3,0,5.4,2.4,5.4,5.4l0,0c0,3-2.4,5.4-5.4,5.4H700.3
	C697.3,829.3,694.9,826.9,694.9,824z"/>
<linearGradient id="SVGID_25_" gradientUnits="userSpaceOnUse" x1="740.9346" y1="290.1698" x2="740.9346" y2="-174.6182" gradientTransform="matrix(6.123234e-17 -1 -1 -6.123234e-17 368.7178 1944.2679)">
	<stop  offset="0" style="stop-color:#FFFFFF"/>
	<stop  offset="1" style="stop-color:#D9D9D9;stop-opacity:0"/>
</linearGradient>
<path class="st25" d="M78.5,1203.3L78.5,1203.3c0-3,2.4-5.4,5.4-5.4h454c3,0,5.4,2.4,5.4,5.4l0,0c0,3-2.4,5.4-5.4,5.4h-454
	C81,1208.7,78.5,1206.3,78.5,1203.3z"/>
<linearGradient id="SVGID_26_" gradientUnits="userSpaceOnUse" x1="740.9346" y1="1132.0188" x2="740.9346" y2="728.0228" gradientTransform="matrix(6.123234e-17 -1 -1 -6.123234e-17 1210.5668 1102.4189)">
	<stop  offset="0" style="stop-color:#FFFFFF"/>
	<stop  offset="1" style="stop-color:#D9D9D9;stop-opacity:0"/>
</linearGradient>
<path class="st26" d="M78.5,361.5L78.5,361.5c0-3,2.4-5.4,5.4-5.4h393.2c3,0,5.4,2.4,5.4,5.4l0,0c0,3-2.4,5.4-5.4,5.4H83.9
	C81,366.9,78.5,364.5,78.5,361.5z"/>
<linearGradient id="SVGID_27_" gradientUnits="userSpaceOnUse" x1="1471.1003" y1="970.4128" x2="1471.1003" y2="707.8508" gradientTransform="matrix(6.123234e-17 -1 -1 -6.123234e-17 1779.0348 1994.0989)">
	<stop  offset="0" style="stop-color:#FFFFFF"/>
	<stop  offset="1" style="stop-color:#D9D9D9;stop-opacity:0"/>
</linearGradient>
<path class="st27" d="M808.6,523L808.6,523c0-3,2.5-5.5,5.5-5.5h251.6c3,0,5.5,2.5,5.5,5.5l0,0c0,3-2.5,5.5-5.5,5.5H814.1
	C811.1,528.5,808.6,526,808.6,523z"/>
<linearGradient id="SVGID_28_" gradientUnits="userSpaceOnUse" x1="493.9196" y1="1235.1338" x2="493.9196" y2="259.3867" gradientTransform="matrix(6.123234e-17 -1 -1 -6.123234e-17 1066.6667 752.289)">
	<stop  offset="0" style="stop-color:#FFFFFF"/>
	<stop  offset="1" style="stop-color:#D9D9D9;stop-opacity:0"/>
</linearGradient>
<path class="st28" d="M-168.5,258.4L-168.5,258.4c0-3,2.4-5.4,5.4-5.4h965c3,0,5.4,2.4,5.4,5.4v0c0,3-2.4,5.4-5.4,5.4h-965
	C-166.1,263.8-168.5,261.3-168.5,258.4z"/>
</svg>
