<svg width="1528" height="1226" viewBox="0 0 1528 1226" fill="none" xmlns="http://www.w3.org/2000/svg">
<rect x="168.467" width="1072.32" height="1071" fill="url(#paint0_linear_0_1)"/>
<rect x="168.467" width="1072.32" height="1071" fill="url(#paint1_linear_0_1)"/>
<rect x="134.258" y="409.19" width="1052.58" height="3.94717" fill="url(#paint2_linear_0_1)"/>
<rect x="153.994" y="413.138" width="1128.89" height="3.94717" fill="url(#paint3_linear_0_1)"/>
<rect width="1130.21" height="5.2629" transform="matrix(-1 0 0 1 1251.31 144.729)" fill="url(#paint4_linear_0_1)"/>
<rect width="1128.89" height="3.94717" transform="matrix(-1 0 0 1 1282.89 134.204)" fill="url(#paint5_linear_0_1)"/>
<rect x="29" y="749.963" width="1052.58" height="3.94717" fill="url(#paint6_linear_0_1)"/>
<rect x="1527.61" y="569.709" width="1052.58" height="3.94727" transform="rotate(180 1527.61 569.709)" fill="url(#paint7_linear_0_1)"/>
<rect x="1336.83" y="842.064" width="1182.84" height="3.94728" transform="rotate(180 1336.83 842.064)" fill="url(#paint8_linear_0_1)"/>
<rect x="1373.67" y="597.339" width="1052.58" height="3.94727" transform="rotate(180 1373.67 597.339)" fill="url(#paint9_linear_0_1)"/>
<g filter="url(#filter0_f_0_1)">
<circle cx="1015.3" cy="237.301" r="4.28715" fill="white"/>
</g>
<circle cx="1015.3" cy="237.301" r="4.28715" fill="white"/>
<g filter="url(#filter1_f_0_1)">
<circle cx="903.287" cy="508.287" r="4.28715" fill="white"/>
</g>
<circle cx="903.287" cy="508.287" r="4.28715" fill="white"/>
<g filter="url(#filter2_f_0_1)">
<circle cx="273.618" cy="209.434" r="4.28715" fill="white"/>
</g>
<circle cx="273.618" cy="209.434" r="4.28715" fill="white"/>
<g filter="url(#filter3_f_0_1)">
<circle cx="762.354" cy="76.5323" r="4.28715" fill="white"/>
</g>
<circle cx="762.354" cy="76.5323" r="4.28715" fill="white"/>
<g filter="url(#filter4_f_0_1)">
<circle cx="749.492" cy="691.738" r="4.28715" fill="white"/>
</g>
<circle cx="749.492" cy="691.738" r="4.28715" fill="white"/>
<g filter="url(#filter5_f_0_1)">
<circle cx="440.287" cy="504.287" r="4.28715" fill="white"/>
</g>
<circle cx="440.287" cy="504.287" r="4.28715" fill="white"/>
<g filter="url(#filter6_f_0_1)">
<circle cx="753.287" cy="314.287" r="4.28715" fill="white"/>
</g>
<circle cx="753.287" cy="314.287" r="4.28715" fill="white"/>
<g filter="url(#filter7_f_0_1)">
<circle cx="963.287" cy="939.287" r="4.28715" fill="white"/>
</g>
<circle cx="963.287" cy="939.287" r="4.28715" fill="white"/>
<g filter="url(#filter8_f_0_1)">
<circle cx="431.287" cy="897.287" r="4.28715" fill="white"/>
</g>
<circle cx="431.287" cy="897.287" r="4.28715" fill="white"/>
<g filter="url(#filter9_f_0_1)">
<circle cx="187.875" cy="721.748" r="4.28715" fill="white"/>
</g>
<circle cx="187.875" cy="721.748" r="4.28715" fill="white"/>
<g filter="url(#filter10_f_0_1)">
<circle cx="1150.34" cy="668.159" r="4.28715" fill="white"/>
</g>
<circle cx="1150.34" cy="668.159" r="4.28715" fill="white"/>
<g filter="url(#filter11_f_0_1)">
<circle cx="507.268" cy="215.864" r="4.28715" fill="white"/>
</g>
<circle cx="507.268" cy="215.864" r="4.28715" fill="white"/>
<rect x="124.867" y="799.101" width="10.9568" height="504.012" rx="5.4784" transform="rotate(-90 124.867 799.101)" fill="url(#paint10_linear_0_1)"/>
<rect x="825.691" y="1225.07" width="10.9568" height="504.012" rx="5.4784" transform="rotate(-90 825.691 1225.07)" fill="url(#paint11_linear_0_1)"/>
<rect x="371.537" y="533.33" width="10.9568" height="504.012" rx="5.4784" transform="rotate(-90 371.537 533.33)" fill="url(#paint12_linear_0_1)"/>
<rect x="499.834" y="1076.03" width="10.9568" height="504.012" rx="5.4784" transform="rotate(-90 499.834 1076.03)" fill="url(#paint13_linear_0_1)"/>
<rect x="602.53" y="180.141" width="10.9568" height="504.012" rx="5.4784" transform="rotate(-90 602.53 180.141)" fill="url(#paint14_linear_0_1)"/>
<rect x="761.821" y="377.644" width="10.7733" height="687.178" rx="5.38663" transform="rotate(-90 761.821 377.644)" fill="url(#paint15_linear_0_1)"/>
<rect x="31.5498" y="660.057" width="10.7733" height="680.253" rx="5.38663" transform="rotate(-90 31.5498 660.057)" fill="url(#paint16_linear_0_1)"/>
<rect x="500.955" y="912.458" width="10.7733" height="866.476" rx="5.38663" transform="rotate(-90 500.955 912.458)" fill="url(#paint17_linear_0_1)"/>
<rect x="781.06" y="679.295" width="10.7733" height="651.011" rx="5.38663" transform="rotate(-90 781.06 679.295)" fill="url(#paint18_linear_0_1)"/>
<rect x="1128.85" y="1114.56" width="10.9568" height="262.562" rx="5.4784" transform="rotate(-90 1128.85 1114.56)" fill="url(#paint19_linear_0_1)"/>
<rect x="305.721" y="107.957" width="10.9568" height="262.562" rx="5.4784" transform="rotate(-90 305.721 107.957)" fill="url(#paint20_linear_0_1)"/>
<rect x="206.23" y="1022.5" width="10.7733" height="771.056" rx="5.38663" transform="rotate(-90 206.23 1022.5)" fill="url(#paint21_linear_0_1)"/>
<rect x="81.5684" y="468.447" width="11.5428" height="680.253" rx="5.77139" transform="rotate(-90 81.5684 468.447)" fill="url(#paint22_linear_0_1)"/>
<rect x="863.397" y="829.35" width="10.7732" height="504.033" rx="5.38662" transform="rotate(-90 863.397 829.35)" fill="url(#paint23_linear_0_1)"/>
<rect x="247.015" y="1208.72" width="10.7732" height="464.788" rx="5.38662" transform="rotate(-90 247.015 1208.72)" fill="url(#paint24_linear_0_1)"/>
<rect x="247.015" y="366.871" width="10.7732" height="403.996" rx="5.38662" transform="rotate(-90 247.015 366.871)" fill="url(#paint25_linear_0_1)"/>
<rect x="977.089" y="528.477" width="10.9568" height="262.562" rx="5.4784" transform="rotate(-90 977.089 528.477)" fill="url(#paint26_linear_0_1)"/>
<rect y="263.756" width="10.7733" height="975.747" rx="5.38663" transform="rotate(-90 0 263.756)" fill="url(#paint27_linear_0_1)"/>
<defs>
<filter id="filter0_f_0_1" x="1007.01" y="229.014" width="16.5742" height="16.5742" filterUnits="userSpaceOnUse" color-interpolation-filters="sRGB">
<feFlood flood-opacity="0" result="BackgroundImageFix"/>
<feBlend mode="normal" in="SourceGraphic" in2="BackgroundImageFix" result="shape"/>
<feGaussianBlur stdDeviation="2" result="effect1_foregroundBlur_0_1"/>
</filter>
<filter id="filter1_f_0_1" x="895" y="500" width="16.5742" height="16.5742" filterUnits="userSpaceOnUse" color-interpolation-filters="sRGB">
<feFlood flood-opacity="0" result="BackgroundImageFix"/>
<feBlend mode="normal" in="SourceGraphic" in2="BackgroundImageFix" result="shape"/>
<feGaussianBlur stdDeviation="2" result="effect1_foregroundBlur_0_1"/>
</filter>
<filter id="filter2_f_0_1" x="265.331" y="201.146" width="16.5742" height="16.5742" filterUnits="userSpaceOnUse" color-interpolation-filters="sRGB">
<feFlood flood-opacity="0" result="BackgroundImageFix"/>
<feBlend mode="normal" in="SourceGraphic" in2="BackgroundImageFix" result="shape"/>
<feGaussianBlur stdDeviation="2" result="effect1_foregroundBlur_0_1"/>
</filter>
<filter id="filter3_f_0_1" x="754.066" y="68.2451" width="16.5742" height="16.5742" filterUnits="userSpaceOnUse" color-interpolation-filters="sRGB">
<feFlood flood-opacity="0" result="BackgroundImageFix"/>
<feBlend mode="normal" in="SourceGraphic" in2="BackgroundImageFix" result="shape"/>
<feGaussianBlur stdDeviation="2" result="effect1_foregroundBlur_0_1"/>
</filter>
<filter id="filter4_f_0_1" x="741.205" y="683.451" width="16.5742" height="16.5742" filterUnits="userSpaceOnUse" color-interpolation-filters="sRGB">
<feFlood flood-opacity="0" result="BackgroundImageFix"/>
<feBlend mode="normal" in="SourceGraphic" in2="BackgroundImageFix" result="shape"/>
<feGaussianBlur stdDeviation="2" result="effect1_foregroundBlur_0_1"/>
</filter>
<filter id="filter5_f_0_1" x="432" y="496" width="16.5742" height="16.5742" filterUnits="userSpaceOnUse" color-interpolation-filters="sRGB">
<feFlood flood-opacity="0" result="BackgroundImageFix"/>
<feBlend mode="normal" in="SourceGraphic" in2="BackgroundImageFix" result="shape"/>
<feGaussianBlur stdDeviation="2" result="effect1_foregroundBlur_0_1"/>
</filter>
<filter id="filter6_f_0_1" x="745" y="306" width="16.5742" height="16.5742" filterUnits="userSpaceOnUse" color-interpolation-filters="sRGB">
<feFlood flood-opacity="0" result="BackgroundImageFix"/>
<feBlend mode="normal" in="SourceGraphic" in2="BackgroundImageFix" result="shape"/>
<feGaussianBlur stdDeviation="2" result="effect1_foregroundBlur_0_1"/>
</filter>
<filter id="filter7_f_0_1" x="955" y="931" width="16.5742" height="16.5742" filterUnits="userSpaceOnUse" color-interpolation-filters="sRGB">
<feFlood flood-opacity="0" result="BackgroundImageFix"/>
<feBlend mode="normal" in="SourceGraphic" in2="BackgroundImageFix" result="shape"/>
<feGaussianBlur stdDeviation="2" result="effect1_foregroundBlur_0_1"/>
</filter>
<filter id="filter8_f_0_1" x="423" y="889" width="16.5742" height="16.5742" filterUnits="userSpaceOnUse" color-interpolation-filters="sRGB">
<feFlood flood-opacity="0" result="BackgroundImageFix"/>
<feBlend mode="normal" in="SourceGraphic" in2="BackgroundImageFix" result="shape"/>
<feGaussianBlur stdDeviation="2" result="effect1_foregroundBlur_0_1"/>
</filter>
<filter id="filter9_f_0_1" x="179.588" y="713.461" width="16.5742" height="16.5742" filterUnits="userSpaceOnUse" color-interpolation-filters="sRGB">
<feFlood flood-opacity="0" result="BackgroundImageFix"/>
<feBlend mode="normal" in="SourceGraphic" in2="BackgroundImageFix" result="shape"/>
<feGaussianBlur stdDeviation="2" result="effect1_foregroundBlur_0_1"/>
</filter>
<filter id="filter10_f_0_1" x="1142.05" y="659.872" width="16.5742" height="16.5742" filterUnits="userSpaceOnUse" color-interpolation-filters="sRGB">
<feFlood flood-opacity="0" result="BackgroundImageFix"/>
<feBlend mode="normal" in="SourceGraphic" in2="BackgroundImageFix" result="shape"/>
<feGaussianBlur stdDeviation="2" result="effect1_foregroundBlur_0_1"/>
</filter>
<filter id="filter11_f_0_1" x="498.98" y="207.577" width="16.5742" height="16.5742" filterUnits="userSpaceOnUse" color-interpolation-filters="sRGB">
<feFlood flood-opacity="0" result="BackgroundImageFix"/>
<feBlend mode="normal" in="SourceGraphic" in2="BackgroundImageFix" result="shape"/>
<feGaussianBlur stdDeviation="2" result="effect1_foregroundBlur_0_1"/>
</filter>
<linearGradient id="paint0_linear_0_1" x1="704.625" y1="0" x2="704.625" y2="1071" gradientUnits="userSpaceOnUse">
<stop stop-color="#6CA2F3"/>
<stop offset="1" stop-color="#F9F3F6"/>
</linearGradient>
<linearGradient id="paint1_linear_0_1" x1="704.625" y1="0" x2="704.625" y2="1071" gradientUnits="userSpaceOnUse">
<stop stop-color="#002566"/>
<stop offset="1" stop-color="#002D3E"/>
</linearGradient>
<linearGradient id="paint2_linear_0_1" x1="1237.22" y1="413.135" x2="109.605" y2="413.139" gradientUnits="userSpaceOnUse">
<stop stop-color="#FEFEFE" stop-opacity="0"/>
<stop offset="1" stop-color="white"/>
</linearGradient>
<linearGradient id="paint3_linear_0_1" x1="1336.92" y1="417.083" x2="127.554" y2="417.087" gradientUnits="userSpaceOnUse">
<stop stop-color="#FEFEFE" stop-opacity="0"/>
<stop offset="1" stop-color="white"/>
</linearGradient>
<linearGradient id="paint4_linear_0_1" x1="1184.3" y1="5.26002" x2="-26.4712" y2="5.26308" gradientUnits="userSpaceOnUse">
<stop stop-color="#FEFEFE" stop-opacity="0"/>
<stop offset="1" stop-color="white"/>
</linearGradient>
<linearGradient id="paint5_linear_0_1" x1="1182.92" y1="3.94501" x2="-26.4404" y2="3.94908" gradientUnits="userSpaceOnUse">
<stop stop-color="#FEFEFE" stop-opacity="0"/>
<stop offset="1" stop-color="white"/>
</linearGradient>
<linearGradient id="paint6_linear_0_1" x1="1131.96" y1="753.908" x2="4.34694" y2="753.911" gradientUnits="userSpaceOnUse">
<stop stop-color="#FEFEFE" stop-opacity="0"/>
<stop offset="1" stop-color="white"/>
</linearGradient>
<linearGradient id="paint7_linear_0_1" x1="2630.57" y1="573.654" x2="1502.96" y2="573.658" gradientUnits="userSpaceOnUse">
<stop stop-color="#FEFEFE" stop-opacity="0"/>
<stop offset="1" stop-color="white"/>
</linearGradient>
<linearGradient id="paint8_linear_0_1" x1="2576.28" y1="846.01" x2="1309.13" y2="846.014" gradientUnits="userSpaceOnUse">
<stop stop-color="#FEFEFE" stop-opacity="0"/>
<stop offset="1" stop-color="white"/>
</linearGradient>
<linearGradient id="paint9_linear_0_1" x1="2476.63" y1="601.284" x2="1349.02" y2="601.288" gradientUnits="userSpaceOnUse">
<stop stop-color="#FEFEFE" stop-opacity="0"/>
<stop offset="1" stop-color="white"/>
</linearGradient>
<linearGradient id="paint10_linear_0_1" x1="130.346" y1="799.101" x2="130.346" y2="1303.11" gradientUnits="userSpaceOnUse">
<stop stop-color="white"/>
<stop offset="1" stop-color="#D9D9D9" stop-opacity="0"/>
</linearGradient>
<linearGradient id="paint11_linear_0_1" x1="831.17" y1="1225.07" x2="831.17" y2="1729.08" gradientUnits="userSpaceOnUse">
<stop stop-color="white"/>
<stop offset="1" stop-color="#D9D9D9" stop-opacity="0"/>
</linearGradient>
<linearGradient id="paint12_linear_0_1" x1="377.016" y1="533.33" x2="377.016" y2="1037.34" gradientUnits="userSpaceOnUse">
<stop stop-color="white"/>
<stop offset="1" stop-color="#D9D9D9" stop-opacity="0"/>
</linearGradient>
<linearGradient id="paint13_linear_0_1" x1="505.312" y1="1076.03" x2="505.312" y2="1580.05" gradientUnits="userSpaceOnUse">
<stop stop-color="white"/>
<stop offset="1" stop-color="#D9D9D9" stop-opacity="0"/>
</linearGradient>
<linearGradient id="paint14_linear_0_1" x1="608.009" y1="180.141" x2="608.009" y2="684.153" gradientUnits="userSpaceOnUse">
<stop stop-color="white"/>
<stop offset="1" stop-color="#D9D9D9" stop-opacity="0"/>
</linearGradient>
<linearGradient id="paint15_linear_0_1" x1="767.208" y1="377.644" x2="767.208" y2="1064.82" gradientUnits="userSpaceOnUse">
<stop stop-color="white"/>
<stop offset="1" stop-color="#D9D9D9" stop-opacity="0"/>
</linearGradient>
<linearGradient id="paint16_linear_0_1" x1="36.9364" y1="660.057" x2="36.9364" y2="1340.31" gradientUnits="userSpaceOnUse">
<stop stop-color="white"/>
<stop offset="1" stop-color="#D9D9D9" stop-opacity="0"/>
</linearGradient>
<linearGradient id="paint17_linear_0_1" x1="506.342" y1="912.458" x2="506.342" y2="1778.93" gradientUnits="userSpaceOnUse">
<stop stop-color="white"/>
<stop offset="1" stop-color="#D9D9D9" stop-opacity="0"/>
</linearGradient>
<linearGradient id="paint18_linear_0_1" x1="786.446" y1="679.295" x2="786.446" y2="1330.31" gradientUnits="userSpaceOnUse">
<stop stop-color="white"/>
<stop offset="1" stop-color="#D9D9D9" stop-opacity="0"/>
</linearGradient>
<linearGradient id="paint19_linear_0_1" x1="1134.33" y1="1114.56" x2="1134.33" y2="1377.13" gradientUnits="userSpaceOnUse">
<stop stop-color="white"/>
<stop offset="1" stop-color="#D9D9D9" stop-opacity="0"/>
</linearGradient>
<linearGradient id="paint20_linear_0_1" x1="311.199" y1="107.957" x2="311.199" y2="370.519" gradientUnits="userSpaceOnUse">
<stop stop-color="white"/>
<stop offset="1" stop-color="#D9D9D9" stop-opacity="0"/>
</linearGradient>
<linearGradient id="paint21_linear_0_1" x1="211.617" y1="1022.5" x2="211.617" y2="1793.55" gradientUnits="userSpaceOnUse">
<stop stop-color="white"/>
<stop offset="1" stop-color="#D9D9D9" stop-opacity="0"/>
</linearGradient>
<linearGradient id="paint22_linear_0_1" x1="87.3397" y1="468.447" x2="87.3397" y2="1148.7" gradientUnits="userSpaceOnUse">
<stop stop-color="white"/>
<stop offset="1" stop-color="#D9D9D9" stop-opacity="0"/>
</linearGradient>
<linearGradient id="paint23_linear_0_1" x1="868.784" y1="829.35" x2="868.784" y2="1333.38" gradientUnits="userSpaceOnUse">
<stop stop-color="white"/>
<stop offset="1" stop-color="#D9D9D9" stop-opacity="0"/>
</linearGradient>
<linearGradient id="paint24_linear_0_1" x1="252.401" y1="1208.72" x2="252.401" y2="1673.51" gradientUnits="userSpaceOnUse">
<stop stop-color="white"/>
<stop offset="1" stop-color="#D9D9D9" stop-opacity="0"/>
</linearGradient>
<linearGradient id="paint25_linear_0_1" x1="252.401" y1="366.871" x2="252.401" y2="770.867" gradientUnits="userSpaceOnUse">
<stop stop-color="white"/>
<stop offset="1" stop-color="#D9D9D9" stop-opacity="0"/>
</linearGradient>
<linearGradient id="paint26_linear_0_1" x1="982.567" y1="528.477" x2="982.567" y2="791.039" gradientUnits="userSpaceOnUse">
<stop stop-color="white"/>
<stop offset="1" stop-color="#D9D9D9" stop-opacity="0"/>
</linearGradient>
<linearGradient id="paint27_linear_0_1" x1="5.38663" y1="263.756" x2="5.38663" y2="1239.5" gradientUnits="userSpaceOnUse">
<stop stop-color="white"/>
<stop offset="1" stop-color="#D9D9D9" stop-opacity="0"/>
</linearGradient>
</defs>
</svg>
