<svg width="1499" height="1071" viewBox="0 0 1499 1071" fill="none" xmlns="http://www.w3.org/2000/svg">
<rect x="139.467" width="1072.32" height="1071" fill="url(#paint0_linear_122_189)"/>
<rect x="139.467" width="1072.32" height="1071" fill="url(#paint1_linear_122_189)"/>
<rect x="105.258" y="409.19" width="1052.58" height="3.94717" fill="url(#paint2_linear_122_189)"/>
<rect x="124.994" y="413.138" width="1128.89" height="3.94717" fill="url(#paint3_linear_122_189)"/>
<rect width="1130.21" height="5.2629" transform="matrix(-1 0 0 1 1222.31 144.73)" fill="url(#paint4_linear_122_189)"/>
<rect width="1128.89" height="3.94717" transform="matrix(-1 0 0 1 1253.89 134.204)" fill="url(#paint5_linear_122_189)"/>
<rect y="749.963" width="1052.58" height="3.94717" fill="url(#paint6_linear_122_189)"/>
<rect x="1498.61" y="569.709" width="1052.58" height="3.94727" transform="rotate(180 1498.61 569.709)" fill="url(#paint7_linear_122_189)"/>
<rect x="1307.83" y="842.064" width="1182.84" height="3.94728" transform="rotate(180 1307.83 842.064)" fill="url(#paint8_linear_122_189)"/>
<rect x="1344.67" y="597.339" width="1052.58" height="3.94727" transform="rotate(180 1344.67 597.339)" fill="url(#paint9_linear_122_189)"/>
<path d="M242.695 540.872L221.77 550.462C218.921 551.767 217.095 554.614 217.095 557.747C217.095 562.174 220.683 565.762 225.109 565.762H493.013C497.585 565.762 501.291 562.055 501.291 557.483C501.291 554.473 499.657 551.699 497.023 550.241L479.17 540.354C476.797 539.04 474.13 538.351 471.418 538.351H454.401C450.096 538.351 445.972 540.086 442.962 543.163L438.434 547.792C435.424 550.87 431.301 552.605 426.996 552.605H407.873C405.824 552.605 403.795 552.211 401.895 551.446L369.381 538.351L343.6 528.998C338.897 527.292 333.667 527.884 329.464 530.598L301.602 548.589C297.657 551.136 292.792 551.822 288.296 550.464L253.988 540.1C250.255 538.973 246.239 539.247 242.695 540.872Z" fill="url(#paint10_linear_122_189)"/>
<path d="M669.064 512.108C653.09 523.577 629.723 540.366 618.328 548.583C614.215 551.55 611.812 556.373 611.812 561.445C611.812 570.281 618.975 577.603 627.812 577.603H1101.05C1109.89 577.603 1117.05 570.44 1117.05 561.603V561.086C1117.05 556.172 1114.8 551.525 1110.9 548.543C1095.93 537.112 1073.35 520.871 1068.88 521.605C1062.46 522.662 1017.5 553.302 1010.01 553.302C1002.52 553.302 922.234 538.51 909.389 531.114C896.544 523.718 834.459 507.87 828.037 507.87C821.614 507.87 779.868 534.284 770.234 531.114C763.118 528.773 712.251 516.641 682.026 509.528C677.53 508.47 672.816 509.414 669.064 512.108Z" fill="url(#paint11_linear_122_189)"/>
<path d="M151.052 463.135C146.915 464.623 143.108 466.111 139.467 467.599V603.326C141.287 603.492 141.784 605.145 142.446 609.443C143.439 615.395 150.887 624.322 161.148 624.818C171.41 625.314 177.864 631.926 187.96 638.209C198.222 644.491 193.422 652.261 217.917 658.543C242.412 664.825 232.812 654.245 243.405 644.491C253.997 634.572 248.535 642.342 250.522 645.317C252.508 648.293 258.962 645.979 259.624 644.656C260.286 643.334 264.59 637.382 270.713 643.499C276.837 649.45 276.837 646.805 277.168 645.648C277.499 644.491 287.76 641.846 292.395 647.301C297.194 652.757 301.167 648.458 318.876 643.499C336.585 638.539 333.109 635.894 333.109 642.342C333.109 648.954 339.564 647.301 348.998 648.624C358.432 649.946 367.038 639.366 368.031 644.821C369.024 650.277 383.258 644.821 382.265 646.144C381.272 647.466 382.596 650.112 386.733 653.914C390.871 657.716 392.526 656.063 394.512 654.741C396.498 653.418 395.505 651.93 402.291 648.128C409.077 644.325 414.538 646.805 414.538 648.624C414.538 650.608 421.986 660.692 428.441 662.841C434.896 664.99 435.558 672.76 441.019 673.256C446.481 673.752 446.812 664.99 448.798 662.511C450.784 660.031 453.929 661.188 454.922 666.148C455.915 671.107 464.025 671.107 469.817 671.107C475.61 671.107 478.258 674.414 484.382 680.365C490.506 686.317 496.629 684.498 510.863 680.365C525.097 676.232 529.896 676.232 541.151 676.728C552.405 677.224 551.743 675.075 556.708 673.752C561.839 672.43 561.177 674.579 567.301 673.752C573.424 672.926 568.625 662.511 571.769 664.99C574.749 667.47 585.01 669.454 592.127 669.619C599.243 669.95 607.353 667.14 615.629 666.313C623.738 665.486 625.89 663.502 631.517 658.874C637.31 654.245 639.296 648.789 645.089 643.829C650.881 638.87 663.791 631.431 665.115 633.91C666.439 636.39 672.563 637.547 676.7 636.059C680.838 634.737 688.286 635.233 694.41 636.059C700.533 636.886 702.519 635.564 705.002 633.58C707.319 631.596 707.65 631.596 712.45 630.769C717.25 629.943 720.891 630.769 720.56 626.967C720.229 623.165 720.56 620.189 727.014 621.677C733.469 623.33 733.138 623.66 735.455 618.04C737.772 612.584 740.255 615.56 747.703 615.89C755.15 616.221 755.481 616.386 755.481 612.253C755.481 608.12 760.281 609.774 769.384 609.774C778.487 609.774 779.976 608.451 780.638 605.971C781.3 603.492 796.196 606.302 797.023 604.318C797.686 602.334 804.14 602.996 810.595 603.822C817.05 604.649 810.926 606.798 810.595 610.435C810.264 614.072 811.588 618.37 815.395 615.89C819.201 613.411 817.712 609.774 824.167 610.6C830.621 611.427 837.407 611.757 838.731 614.568C840.055 617.378 847.172 619.032 852.634 620.354C858.095 621.677 854.289 632.092 858.426 637.878C862.564 643.664 870.343 648.624 877.129 647.466C883.914 646.309 882.59 642.838 884.245 644.16C885.9 645.483 888.383 646.64 893.679 644.16C899.141 641.68 902.451 641.68 903.941 642.507C905.265 643.334 911.057 642.176 914.202 639.201C917.181 636.225 921.981 636.225 926.45 635.068C930.918 633.91 941.345 632.092 945.483 639.201C949.62 646.309 951.606 645.813 953.593 645.979C955.579 646.309 961.371 642.672 961.702 647.136C962.033 651.599 970.474 653.914 972.626 649.946C974.612 645.813 985.535 648.293 989.011 651.104C992.487 653.914 1006.72 662.841 1012.02 658.543C1017.48 654.079 1017.81 652.261 1017.81 652.261C1038.5 644.325 1022.28 637.713 1030.72 632.257C1039.16 626.802 1043.63 605.475 1046.28 603.822C1048.92 602.169 1052.73 603.822 1054.72 602.169C1056.7 600.516 1060.51 599.193 1060.18 595.887C1059.85 592.58 1066.96 590.927 1068.95 591.258C1070.94 591.589 1079.21 591.589 1080.54 588.282C1081.86 585.141 1087.65 587.951 1089.31 588.117C1090.96 588.447 1096.76 588.117 1099.24 586.133C1101.56 584.149 1102.71 581.173 1105.03 580.677C1107.35 580.181 1108.84 579.355 1107.68 577.206C1106.69 575.222 1108.67 575.222 1110.33 572.081C1111.98 569.105 1114.8 569.601 1121.91 569.601C1129.03 569.601 1128.37 575.222 1138.3 572.577C1140.12 572.081 1144.09 568.94 1145.41 568.278C1146.74 567.617 1149.88 567.121 1150.55 567.948C1151.21 568.774 1155.68 567.948 1155.68 567.948C1155.68 567.948 1157.66 566.625 1158.32 564.476C1158.99 562.327 1162.13 563.154 1162.13 563.154C1162.13 563.154 1165.11 563.154 1166.6 564.311C1167.92 565.468 1169.25 563.154 1171.07 561.17C1172.72 559.186 1178.52 558.525 1181.99 560.674C1198.38 571.254 1205.49 564.641 1211.78 561.831V463.135H151.052Z" fill="url(#paint12_linear_122_189)"/>
<path d="M1058.01 525.699C1059.17 534.931 1056.36 545.482 1059.67 549.109C1062.99 552.736 1075.42 584.06 1078.56 580.598C1081.71 577.136 1094.47 547.955 1098.29 552.572C1102.1 557.353 1108.89 567.244 1114.69 563.617C1120.33 559.826 1129.78 565.266 1136.24 574.004C1142.7 582.742 1143.03 597.414 1153.31 580.598C1153.31 580.598 1157.62 594.612 1162.09 603.185C1166.57 611.758 1181.32 590.655 1181.32 590.655C1181.32 590.655 1202.7 603.514 1207.84 583.071V509.048C1199.05 502.288 1190.1 497.672 1184.63 499.156C1177.34 501.134 1175.85 463.051 1166.24 454.973C1156.46 446.894 1144.69 453.159 1146.35 463.71C1148.01 474.097 1131.93 478.878 1129.78 476.075C1127.62 473.108 1115.03 471.294 1111.71 471.953C1108.4 472.613 1117.84 486.626 1114.36 501.959C1110.88 517.291 1088.84 484.153 1075.25 484.318C1061.49 484.483 1056.85 516.467 1058.01 525.699Z" fill="url(#paint13_linear_122_189)"/>
<path d="M833.891 571.977C826.141 581.835 821.359 586.012 816.742 580.999C812.125 575.987 805.199 573.146 800.912 575.318C796.625 577.658 793.657 571.81 790.853 568.969C788.05 566.296 780.3 569.638 777.991 571.643C775.683 573.648 762.821 569.805 760.347 567.8C757.874 565.795 760.183 559.612 759.523 554.266C759.028 551.258 768.592 548.083 771.396 542.235C773.539 537.724 768.427 530.038 772.715 529.871C782.773 529.537 798.603 548.418 801.407 539.395C804.21 530.372 797.449 522.519 799.923 522.018C802.396 521.517 811.63 522.352 813.279 524.023C814.763 525.694 826.801 522.686 825.811 516.504C824.657 510.489 833.561 506.646 840.652 511.157C847.743 515.669 848.237 537.724 853.679 536.554C859.12 535.385 868.684 540.23 876.929 545.744C881.876 549.086 876.27 561.952 873.796 571.81C872.312 578.159 874.621 583.339 873.961 583.673C873.302 584.007 870.004 591.192 865.881 592.194C862.748 593.03 859.45 596.873 856.482 596.204C852.689 595.369 849.886 589.855 849.886 589.855C849.886 589.855 838.673 602.386 835.54 597.541C832.242 592.695 833.891 571.977 833.891 571.977Z" fill="url(#paint14_linear_122_189)"/>
<path d="M346.317 627.226C344.004 624.078 338.554 627.723 335.25 624.244C331.947 620.764 326.992 618.61 323.853 620.267C320.88 621.924 318.568 617.782 316.751 615.794C314.769 613.971 309.153 616.291 307.501 617.782C305.85 619.273 296.6 616.457 294.948 614.965C293.296 613.474 282.065 605.356 281.569 601.545C281.239 599.391 300.729 601.048 302.876 596.906C304.363 593.758 300.729 588.29 303.867 588.125C310.97 587.959 322.367 601.214 324.349 594.918C326.331 588.622 321.541 582.988 323.193 582.657C325.01 582.326 331.616 582.988 332.773 584.148C333.929 585.308 342.518 583.154 341.692 578.846C340.866 574.539 347.308 571.888 352.263 575.036C357.383 578.184 357.714 593.924 361.678 592.929C365.642 592.101 372.414 595.58 378.195 599.391C381.829 601.711 425.269 602.871 423.617 609.829C423.287 611.486 418.662 622.09 412.221 624.409C407.926 626.066 402.641 615.96 397.52 615.794C389.262 615.794 381.003 625.072 376.213 626.066C375.717 626.232 373.405 631.368 370.432 632.197C368.285 632.694 365.807 635.51 363.66 635.013C361.017 634.35 358.87 630.54 358.87 630.54C358.87 630.54 350.942 639.487 348.629 636.007C346.152 632.528 346.317 627.226 346.317 627.226Z" fill="url(#paint15_linear_122_189)"/>
<path d="M227.561 555.205C227.561 555.205 219.781 563.19 232.03 572.34C244.28 581.49 257.357 592.969 262.158 582.322C266.958 571.675 270.435 567.516 275.235 571.176C280.201 574.835 288.975 577.331 291.954 572.506C294.768 567.848 286.823 563.024 296.258 562.192C305.694 561.36 305.694 568.015 313.474 567.682C321.089 567.349 321.751 563.024 324.234 561.693C326.551 560.196 335.49 563.357 341.781 561.027C348.071 558.698 351.216 560.196 353.203 564.521C355.354 568.846 361.314 572.007 366.776 572.673C372.074 573.505 378.033 581.324 380.516 583.154C382.999 584.983 392.766 588.976 395.911 582.488C399.056 576 406.008 572.673 408.988 575.335C411.802 577.996 424.217 582.654 429.846 589.475C435.474 596.13 446.565 590.473 449.71 595.298C452.855 600.122 463.449 609.439 470.236 611.102C477.023 612.932 495.729 611.601 498.708 602.618C501.688 593.634 495.067 582.821 509.799 586.481C524.532 590.141 576.51 595.464 582.139 587.812C587.601 580.325 581.311 563.689 572.703 559.031C564.095 554.539 543.734 552.876 553.501 541.231C563.433 529.585 569.227 519.105 566.247 510.287C563.268 501.47 556.315 496.479 535.954 494.15C515.593 491.821 478.679 497.977 462.953 501.47C447.227 504.964 446.565 494.317 444.247 488.494C441.764 482.671 415.775 478.346 392.766 475.352C369.756 472.191 359.493 489.991 342.939 491.988C326.386 493.818 281.857 477.348 277.387 478.512C272.918 479.677 262.986 487.662 262.986 494.15C263.151 500.805 257.854 499.64 246.266 500.805C234.679 501.969 226.071 505.13 227.395 513.615C228.885 522.265 220.608 522.764 213.159 528.92C205.71 535.075 200.744 535.408 211.338 541.397C221.933 547.386 221.27 551.711 216.47 554.872C211.173 558.199 227.561 555.205 227.561 555.205Z" fill="url(#paint16_linear_122_189)"/>
<path d="M809.834 544.806C809.834 544.806 813.645 549.969 802.875 546.472C792.106 542.974 798.402 546.805 793.432 548.637C788.627 550.469 780.012 547.804 778.687 544.806C777.361 541.808 771.728 543.141 767.42 547.471C763.113 551.801 760.462 543.141 752.509 540.309C744.557 537.478 739.918 531.316 728.321 532.648C716.723 533.981 711.753 535.146 707.445 530.816C703.137 526.486 709.268 518.492 698.167 516.327C687.067 514.328 684.416 514.162 682.759 507.333C681.102 500.338 660.393 499.172 687.564 490.845C714.735 482.518 709.102 475.19 729.646 481.019C750.19 486.848 753.172 485.515 764.438 482.851C775.704 480.186 782.331 477.355 785.148 483.35C787.799 489.346 801.716 489.513 812.485 487.014C823.088 484.516 829.218 481.851 832.366 487.014C835.514 492.177 835.845 507.5 848.271 513.162C860.863 518.825 867.324 529.984 863.182 534.98C859.04 539.976 846.283 553.633 842.804 549.636C839.325 545.805 832.697 537.312 830.709 549.136C828.721 560.961 812.319 547.471 809.834 544.806Z" fill="url(#paint17_linear_122_189)"/>
<path d="M433.994 339.634C424.552 339.468 423.227 341.618 422.398 345.09C421.736 348.562 406.33 344.759 405.668 347.404C405.005 350.049 398.379 349.388 391.753 348.231C385.127 347.074 391.422 343.932 391.753 338.972C392.084 334.012 390.759 327.895 386.783 331.202C382.973 334.674 384.299 339.799 377.673 338.642C371.047 337.484 364.089 336.988 362.598 333.186C361.273 329.383 353.819 327.069 348.187 325.085C342.555 323.101 346.365 308.552 342.223 300.45C338.082 292.349 329.965 285.405 323.008 287.059C316.051 288.547 317.376 293.672 315.719 291.688C313.897 289.704 311.578 288.216 305.946 291.688C300.479 294.995 297.001 294.995 295.51 293.837C294.185 292.68 288.221 294.168 285.074 298.466C281.926 302.765 276.957 302.765 272.484 304.253C268.012 305.741 257.079 308.552 252.938 298.466C248.796 288.547 246.643 289.208 244.489 288.877C242.336 288.547 236.373 293.507 236.041 287.389C235.71 281.272 226.93 277.8 224.777 283.587C222.624 289.373 211.525 285.901 208.046 282.099C204.568 278.296 198.935 280.611 193.303 286.728C187.671 292.845 187.34 295.491 187.34 295.491C165.971 306.568 182.867 315.826 174.088 323.597C165.308 331.367 160.836 361.292 158.02 363.607C155.204 365.921 151.394 363.607 149.24 365.921C147.087 368.236 143.277 370.22 143.608 374.684C143.774 377.164 141.62 378.982 139.467 380.14V463.135H524.771L530.237 456.026C528.415 457.183 489.818 340.13 433.994 339.634Z" fill="url(#paint18_linear_122_189)"/>
<path d="M1210.47 464.451C1209.48 463.625 1208.48 461.477 1207.49 457.843C1205.01 447.767 1203.69 445.124 1198.73 447.106C1193.78 449.088 1193.44 447.932 1192.45 439.342C1191.46 430.917 1183.69 418.528 1173.12 417.702C1162.54 416.876 1155.93 407.625 1145.52 398.87C1134.94 389.95 1135.44 377.23 1110.15 368.475C1084.87 359.555 1099.24 376.239 1088.5 390.115C1077.59 403.991 1074.79 392.758 1072.8 388.628C1070.65 384.333 1068.17 386.646 1067.51 388.628C1066.85 390.611 1066.52 400.192 1060.24 391.767C1053.96 383.342 1053.96 387.142 1053.63 388.628C1053.3 390.115 1042.72 394.08 1037.93 386.316C1032.97 378.552 1028.84 384.829 1010.66 391.767C992.484 398.705 995.954 402.504 995.954 393.254C995.954 384.003 989.344 386.316 979.428 384.333C969.677 382.351 960.918 397.383 959.761 389.785C958.77 382.021 944.061 389.785 945.053 387.802C946.045 385.82 942.574 373.926 938.442 368.475C934.311 363.024 934.641 365.337 932.493 367.319C930.344 369.301 931.501 379.708 924.395 384.994C917.454 390.445 911.835 386.976 911.835 384.168C911.835 381.525 904.068 367.154 897.457 364.18C890.846 361.042 890.185 350.304 884.566 349.478C878.947 348.652 878.617 361.042 876.468 364.511C874.32 367.98 871.18 366.493 870.188 359.555C869.197 352.617 860.768 352.617 854.819 352.617C848.869 352.617 846.06 347.992 839.78 339.567C833.5 331.142 827.22 333.785 812.511 339.567C797.803 345.348 792.845 345.348 781.276 344.523C769.708 343.697 770.369 346.835 765.246 348.817C759.957 350.8 760.618 347.661 754.338 348.817C748.058 349.974 753.016 364.676 749.711 361.207C746.571 357.738 735.994 355.095 728.722 354.599C721.451 354.269 713.022 358.068 704.594 359.224C696.165 360.381 694.017 363.024 688.067 369.631C682.118 376.239 679.97 383.838 674.02 390.776C671.872 393.254 668.897 396.227 665.757 398.705V464.451H1210.47Z" fill="url(#paint19_linear_122_189)"/>
<path d="M686.808 835.485C685.817 834.659 684.825 832.512 683.834 828.878C681.355 818.801 680.033 816.158 675.075 818.14C670.117 820.123 669.786 818.966 668.795 810.376C667.803 801.952 660.036 789.562 649.459 788.736C638.882 787.91 632.271 778.66 621.86 769.905C611.283 760.984 611.779 748.265 586.493 739.51C561.208 730.589 575.586 747.274 564.844 761.15C553.936 775.026 551.127 763.793 549.143 759.663C546.995 755.368 544.516 757.681 543.855 759.663C543.194 761.645 542.863 771.226 536.583 762.801C530.303 754.377 530.303 758.176 529.973 759.663C529.642 761.15 519.065 765.114 514.273 757.35C509.315 749.586 505.183 755.863 487.004 762.801C468.825 769.739 472.296 773.539 472.296 764.288C472.296 755.037 465.685 757.35 455.769 755.368C446.019 753.386 437.26 768.418 436.103 760.819C435.111 753.055 420.403 760.819 421.394 758.837C422.386 756.855 418.915 744.961 414.784 739.51C410.652 734.058 410.983 736.371 408.834 738.353C406.686 740.336 407.843 750.743 400.736 756.029C393.795 761.48 388.176 758.011 388.176 755.203C388.176 752.56 380.409 738.188 373.798 735.215C367.188 732.076 366.527 721.339 360.908 720.513C355.289 719.687 354.958 732.076 352.81 735.545C350.661 739.014 347.521 737.527 346.53 730.589C345.538 723.651 337.11 723.651 331.16 723.651C325.211 723.651 322.401 719.026 316.121 710.601C309.841 702.177 303.561 704.82 288.853 710.601C274.144 716.383 269.186 716.383 257.618 715.557C246.049 714.731 246.71 717.87 241.587 719.852C236.299 721.834 236.96 718.696 230.68 719.852C224.4 721.008 229.358 735.71 226.052 732.241C222.912 728.772 212.335 726.129 205.064 725.634C197.792 725.303 189.364 729.103 180.935 730.259C172.507 731.415 170.358 734.058 164.409 740.666C158.459 747.274 156.311 754.872 150.361 761.81C148.213 764.288 145.238 767.262 142.098 769.739V835.485H686.808Z" fill="url(#paint20_linear_122_189)"/>
<path d="M797.78 533.201C799.101 542.494 795.137 552.948 799.266 556.433C803.396 559.918 825.693 566.556 829.656 563.071C833.62 559.586 847.164 553.944 851.788 558.424C856.578 563.071 861.698 573.028 869.13 569.211C876.563 565.394 888.454 570.373 896.382 578.836C904.31 587.299 912.403 580.329 925.781 563.403C925.781 563.403 923.139 598.749 928.589 607.213C934.205 615.676 953.364 594.103 953.364 594.103C953.364 594.103 958.318 603.562 964.76 605.055C969.715 606.217 975.661 599.579 980.946 598.252C987.883 596.426 993.663 584.146 994.819 583.648C995.976 583.15 992.012 574.355 994.489 563.403C996.802 553.612 1001.26 541.83 1002.58 532.869H797.78C797.78 532.869 797.78 533.035 797.78 533.201Z" fill="url(#paint21_linear_122_189)"/>
<path d="M163.755 549.973C169.738 540.533 178.113 525.793 177.6 519.334C176.917 509.232 148.542 518.34 148.542 518.34C148.542 518.34 148.884 507.575 143.927 503.104C143.756 502.938 143.585 502.773 143.414 502.607V549.807H163.755V549.973Z" fill="url(#paint22_linear_122_189)"/>
<path d="M140.783 564.573C143.096 566.54 145.906 568.179 149.211 568.67C152.351 569.162 155.987 565.064 159.788 564.573C163.919 564.081 169.703 570.965 174.661 572.44C177.966 573.423 180.941 568.342 182.759 569.654C187.221 572.932 184.411 576.701 187.056 578.176C192.509 580.963 196.145 575.554 203.912 567.851C207.383 564.409 211.68 571.457 215.811 569.162C216.803 568.67 218.621 561.622 220.438 560.639C222.587 559.492 224.9 564.409 225.892 563.098C228.701 559.328 227.049 555.558 228.867 556.705C232.502 559 231.18 553.264 235.147 549.494C237.295 547.527 243.74 549.166 246.55 546.38C251.673 541.299 254.317 534.251 260.597 531.301C264.398 529.498 269.356 531.956 277.123 529.662C297.615 523.761 289.022 520.647 307.531 499.504C326.205 478.361 308.027 488.195 302.904 483.278C297.946 478.361 295.632 479.672 285.221 483.77C274.809 487.867 275.636 477.869 269.686 476.558C263.737 475.247 260.101 478.853 251.012 486.064C241.922 493.276 234.651 490.653 226.388 492.456C218.125 494.259 211.349 488.359 210.027 494.259C208.705 500.16 204.573 504.257 201.764 502.454C198.954 500.651 190.361 502.946 187.221 507.043C184.081 511.141 191.352 511.141 180.445 513.763C169.538 516.55 175.487 518.68 175.487 518.68C171.852 517.697 150.864 515.075 155.491 525.892C160.118 536.71 150.037 533.104 145.079 531.793C143.427 531.301 142.105 532.94 140.783 535.398V564.573Z" fill="url(#paint23_linear_122_189)"/>
<path d="M895.258 512.428C892.451 509.455 897.406 470.47 901.535 467.497C923.338 450.647 898.892 439.579 895.258 432.972C891.79 426.364 892.781 431.815 892.12 436.441C891.459 441.066 890.303 442.388 889.312 434.954C888.321 427.521 887.826 425.538 886.009 427.025C884.192 428.512 884.027 427.521 883.696 421.243C883.366 414.966 880.393 405.881 876.428 405.22C872.464 404.724 869.987 397.786 866.022 391.179C862.058 384.571 862.223 375.155 852.808 368.713C843.393 362.105 848.679 374.494 844.715 384.736C840.585 394.978 839.594 386.718 838.769 383.58C837.943 380.441 831.996 382.589 831.501 383.58C830.014 386.388 827.371 387.544 825.555 381.928C823.738 376.146 822.086 380.772 815.314 385.893C808.542 391.013 809.863 393.822 809.863 387.049C809.863 380.276 790.372 384.406 790.868 383.084C791.198 381.598 792.685 380.441 791.033 376.311C789.381 372.347 787.069 375.155 786.243 376.642C785.417 378.129 785.747 377.137 783.104 381.102C780.462 385.067 778.314 382.589 778.314 380.606C778.314 378.624 780.627 367.391 778.149 365.244C775.672 362.931 772.203 361.114 770.056 360.453C767.908 359.958 762.953 367.556 762.623 362.27C762.292 357.149 759.154 357.149 756.842 357.149C754.529 357.149 753.538 353.68 751.226 347.403C748.913 341.126 746.436 343.108 740.985 347.403C735.534 351.698 733.552 351.698 729.257 351.037C724.963 350.542 725.128 352.689 723.146 354.176C721.164 355.663 721.494 353.35 719.016 354.176C716.704 355.002 718.521 365.904 717.365 363.261C716.208 360.618 712.244 358.636 709.436 358.471C706.628 358.141 703.49 361.114 700.352 361.94C697.213 362.766 696.387 364.748 694.24 369.704C691.928 374.494 689.12 379.45 686.807 384.571C684.495 389.692 679.54 391.674 679.044 389.031C678.549 386.388 672.272 394.152 669.959 393.326C667.647 392.5 664.839 397.951 663.022 398.777C661.205 399.603 659.719 398.777 659.884 402.742C660.049 406.707 653.607 409.68 653.112 412.323C651.955 417.939 653.937 415.462 650.964 415.131C647.991 414.801 644.357 420.417 640.889 420.417C637.42 420.417 636.759 421.904 636.594 424.382C636.264 427.025 630.483 424.052 630.317 426.034C629.987 428.016 627.509 427.521 625.032 426.529C622.554 425.703 622.719 426.86 622.884 423.226C623.05 419.591 618.755 422.895 617.434 425.373C615.947 428.016 618.92 429.833 616.443 429.007C613.965 428.181 613.304 429.668 612.644 426.86C612.148 424.052 610.992 427.19 608.845 425.703C606.697 424.217 612.313 422.565 610.827 416.453C609.175 410.506 606.202 405.385 603.559 406.541C600.916 407.698 601.412 411.332 600.751 410.01C600.09 408.524 593.648 412.653 593.153 411.662C592.657 410.836 590.345 411.993 589.189 415.131C588.032 418.27 581.756 427.19 580.104 428.346C578.452 429.503 577.626 427.686 575.975 420.252C574.323 412.819 571.68 412.323 570.854 411.993C570.028 411.662 562.926 408.689 562.1 412.984C561.274 417.279 557.145 414.636 555.823 411.827C554.502 409.019 552.355 410.671 550.372 415.296C548.225 419.922 548.06 421.904 548.06 421.904C539.966 430.164 541.618 420.583 538.315 426.199C535.011 431.981 528.239 427.19 527.083 428.842C526.092 430.494 521.467 429.833 520.641 431.485C519.815 433.137 511.556 437.267 511.721 440.736C511.887 444.205 528.9 451.143 528.074 450.812C527.248 450.482 524.11 450.482 523.614 453.786C523.119 457.09 520.806 454.116 520.145 453.951C519.485 453.621 517.172 453.951 516.346 455.933C515.355 457.916 515.025 461.054 514.034 461.715C513.043 462.211 512.547 463.202 513.043 465.349C513.373 467.497 512.713 467.497 512.052 470.635C511.391 473.774 510.4 473.278 507.592 473.278C504.784 473.278 501.481 468.653 501.315 470.14C500.985 471.626 499.003 473.774 498.507 474.6C498.012 475.426 496.856 475.756 496.525 474.93C496.195 474.104 493.717 476.417 493.552 478.564C493.222 480.877 492.066 480.051 492.066 480.051C492.066 480.051 489.258 480.051 488.597 482.199C487.936 484.346 485.954 483.52 484.468 482.694C482.816 481.868 482.32 482.364 479.347 482.694C476.374 483.025 474.062 487.319 474.062 487.319C473.566 488.145 472.575 488.971 472.079 482.859C471.914 481.373 465.803 479.225 461.178 482.859C459.691 484.016 460.187 487.154 459.691 491.614C459.361 494.753 455.892 493.266 455.892 493.266C452.424 491.78 449.946 491.284 441.687 501.691C433.428 512.263 431.281 521.184 420.875 525.644C410.965 529.939 433.759 536.051 437.723 560.499H873.621C877.42 551.744 879.897 542.658 889.477 536.051C915.905 518.375 898.066 515.402 895.258 512.428Z" fill="url(#paint24_linear_122_189)"/>
<path d="M998.399 544.011C997.571 538.049 999.889 531.094 997.571 528.941C995.087 526.622 982.172 522.316 979.854 524.635C977.536 526.953 969.754 530.597 966.939 527.616C964.124 524.635 961.144 518.176 956.839 520.66C952.534 523.144 945.579 519.832 940.943 514.367C936.307 508.736 931.671 513.373 923.888 524.469C923.888 524.469 925.379 501.45 922.233 495.985C919.086 490.52 907.827 504.431 907.827 504.431C907.827 504.431 905.012 498.303 901.204 497.309C898.223 496.647 894.912 500.953 891.766 501.781C887.792 502.94 884.315 511.055 883.818 511.386C883.156 511.717 885.474 517.514 883.984 524.635C882.162 533.246 878.188 544.011 879.016 549.973H993.266C996.246 547.489 998.73 545.833 998.399 544.011Z" fill="url(#paint25_linear_122_189)"/>
<path d="M463.62 540.717C466.596 549.092 457.833 550.934 450.723 558.136C443.779 565.337 438.489 566.51 450.723 570.864C462.958 575.219 462.958 579.573 458.329 583.593C453.7 587.612 470.564 582.085 470.564 582.085C470.564 582.085 463.62 591.129 478.169 598.499C492.884 605.7 508.591 615.247 512.064 604.026C515.536 592.804 518.512 588.115 524.299 590.962C530.085 593.809 540.171 594.982 542.486 589.79C544.8 584.765 535.541 581.081 545.462 578.903C555.382 576.726 556.539 583.258 564.806 581.751C573.073 580.243 573.073 575.889 575.388 574.046C577.702 572.204 587.623 574.046 594.071 570.697C600.519 567.347 603.991 568.519 606.967 572.539C609.943 576.559 616.887 578.736 622.84 578.736C628.626 578.736 636.232 585.603 639.208 587.11C642.184 588.617 653.262 591.129 655.576 584.263C657.891 577.396 665.001 573.041 668.473 575.219C671.945 577.396 685.998 580.243 693.108 586.105C700.052 591.967 711.295 584.598 715.428 588.952C719.562 593.307 732.458 600.843 740.064 601.681C747.669 602.351 767.51 598.499 769.328 588.952C771.147 579.573 762.384 569.692 778.753 571.199C795.121 572.706 851.997 570.194 856.626 561.82C861.256 553.446 851.997 537.87 841.911 534.521C833.644 531.841 816.615 532.343 816.449 524.974H482.138C481.972 524.974 481.807 524.974 481.642 525.142C469.407 527.989 460.644 532.343 463.62 540.717Z" fill="url(#paint26_linear_122_189)"/>
<path d="M1167.88 766.043C1164.9 757.8 1173.67 755.986 1180.78 748.897C1187.72 741.808 1193.01 740.654 1180.78 736.368C1168.54 732.081 1168.54 727.795 1173.17 723.838C1177.8 719.881 1160.93 725.322 1160.93 725.322C1160.93 725.322 1167.88 716.419 1153.33 709.165C1138.61 702.076 1122.91 692.678 1119.44 703.724C1115.96 714.77 1112.99 719.386 1107.2 716.584C1101.41 713.781 1091.33 712.627 1089.01 717.738C1086.7 722.684 1095.96 726.311 1086.04 728.454C1076.12 730.597 1074.96 724.168 1066.69 725.651C1058.43 727.135 1058.43 731.422 1056.11 733.235C1053.8 735.049 1043.88 733.235 1037.43 736.532C1030.98 739.83 1027.51 738.676 1024.53 734.719C1021.56 730.762 1014.61 728.619 1008.66 728.619C1002.87 728.619 995.267 721.859 992.291 720.376C989.315 718.892 978.237 716.419 975.923 723.178C973.608 729.938 966.498 734.224 963.026 732.081C959.554 729.938 945.501 727.135 938.391 721.365C931.447 715.595 920.204 722.849 916.071 718.562C911.937 714.276 899.041 706.857 891.435 706.032C883.83 705.373 863.989 709.165 862.171 718.562C860.352 727.795 869.115 737.522 852.746 736.038C836.378 734.554 779.502 737.027 774.873 745.27C770.243 753.513 779.502 768.846 789.588 772.143C797.854 774.781 814.884 774.286 815.05 781.54L1149.36 781.541C1149.53 781.541 1149.69 781.541 1149.86 781.376C1162.09 778.573 1170.86 774.286 1167.88 766.043Z" fill="url(#paint27_linear_122_189)"/>
<path d="M149.215 652.896C154.998 658.537 164.746 660.528 167.059 650.74C169.372 640.951 160.12 633.984 169.868 629.836C179.781 625.689 180.938 638.131 188.869 635.477C196.964 632.656 196.964 624.361 199.278 620.877C201.591 617.394 211.339 620.877 217.783 614.573C224.061 608.269 227.531 610.426 230.505 618.057C233.314 625.689 240.253 629.836 246.036 629.836C251.819 629.836 259.254 643.108 262.228 645.763C265.202 648.583 276.106 653.394 278.419 640.122C280.733 626.85 287.672 618.555 291.142 622.702C294.611 626.85 308.49 632.491 315.429 643.606C322.369 654.721 333.274 640.786 337.404 649.246C339.056 652.73 348.639 654.721 352.274 659.035C357.396 665.007 357.396 672.804 361.692 673.634C365.162 674.298 370.944 655.551 376.562 652.233C383.336 648.417 389.615 659.201 390.606 649.246C392.258 631.163 383.667 612.417 399.859 615.237C407.954 616.564 425.964 631.163 442.651 628.343C450.747 627.016 450.086 619.218 456.2 612.914C459.669 609.264 465.287 616.232 469.583 613.412C473.218 611.089 476.192 598.979 476.687 597.154C478.174 592.011 482.635 582.72 481.314 572.103C480.818 567.457 474.044 562.646 474.044 557.669C474.044 551.531 468.261 545.393 468.591 539.918C469.417 528.471 476.522 519.512 472.887 517.189C463.139 510.885 447.608 527.144 439.016 516.526C431.581 507.235 434.225 496.286 438.521 485.502H139.467V664.675C142.11 652.896 144.754 648.583 149.215 652.896Z" fill="url(#paint28_linear_122_189)"/>
<path d="M1141.49 544.54C1129.93 543.223 1126.79 536.308 1119.7 531.698C1112.6 527.253 1111.94 518.362 1106.82 521.49C1101.7 524.618 1095.93 524.618 1095.27 521.49C1094.61 518.362 1087.01 513.752 1081.89 514.411C1076.78 515.069 1081.89 520.173 1072.32 514.411C1062.75 508.648 1065.22 514.411 1065.22 514.411C1063.24 511.282 1050.53 494.654 1046.07 505.52C1041.62 516.386 1037.16 506.837 1034.52 502.392C1032.04 497.947 1016.53 508.154 1011.41 511.941C1006.29 515.728 1010.09 527.911 1020.98 536.143C1025.94 539.93 1027.92 545.034 1028.91 549.973H1160.47C1157.5 545.692 1152.22 545.692 1141.49 544.54Z" fill="url(#paint29_linear_122_189)"/>
<path d="M984.272 540.755C981.124 543.22 986.427 545.684 983.775 547.82C977.976 552.585 965.548 556.528 965.382 559.157C964.885 567.372 957.429 578.052 961.903 580.188C963.725 581.173 965.217 585.938 971.513 584.459C976.153 583.309 985.432 575.916 989.741 575.423C993.717 574.93 997.032 580.516 998.689 579.202C1004.65 574.93 1022.88 566.551 1027.85 569.672C1032.82 572.794 1036.97 580.845 1047.24 575.587C1057.51 570.329 1071.43 572.137 1079.55 578.216C1084.69 581.995 1085.02 580.023 1094.63 573.287C1096.12 572.137 1099.44 577.23 1102.75 575.916C1105.73 574.766 1108.55 567.208 1110.21 565.893C1113.35 563.264 1116.17 559.321 1120.31 561.129C1120.31 561.129 1121.47 565.565 1119.15 574.766C1116.83 583.802 1111.2 593.496 1113.69 596.618C1116.01 599.575 1119.49 592.675 1126.94 589.717C1130.42 588.403 1138.04 592.839 1140.86 590.703C1145.17 587.417 1148.15 578.709 1148.15 578.709C1148.15 578.709 1152.13 586.431 1159.92 586.102C1166.05 585.938 1175 578.545 1181.96 576.08C1191.24 572.794 1201.51 559.978 1202.83 559.321C1204.33 558.5 1201.34 551.435 1207.31 540.591C1208.63 538.126 1210.29 535.497 1211.78 532.869H997.694C997.363 533.69 996.866 534.512 996.203 535.169C994.712 537.305 986.427 539.112 984.272 540.755Z" fill="url(#paint30_linear_122_189)"/>
<path d="M459.078 924.801C462.226 922.287 456.923 919.772 459.575 917.592C465.374 912.73 477.802 908.707 477.968 906.024C478.465 897.641 485.921 886.744 481.447 884.564C479.625 883.558 478.133 878.696 471.837 880.205C467.197 881.379 457.918 888.923 453.609 889.426C449.633 889.929 446.318 884.229 444.661 885.57C438.696 889.929 420.469 898.48 415.498 895.294C410.527 892.109 406.384 883.894 396.11 889.259C385.837 894.624 371.918 892.779 363.798 886.576C358.662 882.72 358.33 884.732 348.719 891.606C347.228 892.779 343.914 887.582 340.6 888.923C337.617 890.097 334.8 897.809 333.143 899.15C329.995 901.833 327.178 905.856 323.036 904.012C323.036 904.012 321.876 899.486 324.195 890.097C326.515 880.876 332.149 870.984 329.664 867.799C327.344 864.781 323.864 871.822 316.407 874.84C312.928 876.182 305.305 871.655 302.488 873.834C298.18 877.187 295.197 886.073 295.197 886.073C295.197 886.073 291.221 878.193 283.432 878.529C277.302 878.696 268.354 886.241 261.394 888.756C252.115 892.109 241.841 905.186 240.515 905.856C239.024 906.695 242.007 913.904 236.042 924.969C234.716 927.484 233.059 930.166 231.568 932.849L445.656 932.849C445.987 932.011 446.484 931.172 447.147 930.502C448.638 928.322 456.923 926.478 459.078 924.801Z" fill="url(#paint31_linear_122_189)"/>
<path d="M946.115 511.149C940.688 513.647 937.728 514.314 936.906 511.149C936.083 507.984 933.781 505.152 931.479 505.152C929.176 505.152 929.176 501.987 928.518 500.155C927.86 498.323 923.913 497.99 922.433 498.323C920.953 498.656 916.348 494.159 915.855 492.66C915.197 491.327 917.664 489.162 918.486 486.663C919.309 484.164 925.065 477.168 929.505 479.334C933.781 481.499 936.412 492.993 939.537 489.828C942.662 486.663 941.511 481.666 942.662 482.166C943.813 482.499 947.596 484.997 947.925 485.997C948.253 486.996 954.01 488.495 954.832 485.664C955.654 482.832 960.259 483.165 962.397 486.663C964.371 490.161 959.766 499.655 962.397 500.322C965.028 500.988 967.989 505.319 970.291 509.483C972.594 513.647 969.304 524.974 960.752 524.974C959.93 524.974 954.338 518.311 949.569 518.311C944.8 518.311 941.675 524.974 941.511 522.143C940.853 519.477 946.115 511.149 946.115 511.149Z" fill="url(#paint32_linear_122_189)"/>
<path d="M1172.27 503.442C1177.72 500.943 1180.68 500.277 1181.51 503.442C1182.33 506.606 1184.64 509.438 1186.95 509.438C1189.26 509.438 1189.26 512.603 1189.76 514.269C1190.42 516.101 1194.37 516.434 1195.86 516.101C1197.34 515.768 1201.96 520.265 1202.46 521.764C1203.12 523.097 1200.81 525.262 1199.82 527.761C1198.99 530.259 1193.22 537.255 1188.77 535.09C1184.48 532.925 1181.84 521.431 1178.71 524.596C1175.57 527.761 1176.73 532.591 1175.57 532.258C1174.42 531.925 1170.62 529.427 1170.29 528.427C1169.96 527.428 1164.19 525.929 1163.37 528.76C1162.54 531.592 1157.92 531.259 1155.78 527.761C1153.8 524.263 1158.42 514.768 1155.78 514.102C1153.14 513.436 1150.17 509.272 1148.03 504.941C1145.72 500.776 1149.02 489.45 1157.59 489.45C1158.42 489.45 1164.03 496.113 1168.81 496.113C1173.59 496.113 1176.56 489.45 1176.89 492.281C1177.55 494.947 1172.27 503.442 1172.27 503.442Z" fill="url(#paint33_linear_122_189)"/>
<path d="M830.332 467.73C824.904 470.228 821.944 470.895 821.122 467.73C820.3 464.565 817.997 461.733 815.695 461.733C813.392 461.733 813.392 458.569 812.734 456.736C812.077 454.904 808.129 454.571 806.649 454.904C805.169 455.237 800.564 450.74 800.071 449.241C799.413 447.908 801.88 445.743 802.702 443.244C803.525 440.745 809.281 433.75 813.721 435.915C817.997 438.08 820.628 449.574 823.753 446.409C826.878 443.244 825.727 438.247 826.878 438.747C828.029 439.08 831.812 441.578 832.141 442.578C832.47 443.577 838.226 445.076 839.048 442.245C839.87 439.413 844.475 439.746 846.613 443.244C848.587 446.742 843.982 456.237 846.613 456.903C849.244 457.569 852.205 461.9 854.507 466.064C856.81 470.228 853.52 481.555 844.969 481.555C844.146 481.555 838.555 474.892 833.785 474.892C829.016 474.892 825.891 481.555 825.727 478.724C825.069 476.058 830.332 467.73 830.332 467.73Z" fill="url(#paint34_linear_122_189)"/>
<path d="M867.172 861.132C861.745 863.63 858.784 864.296 857.962 861.132C857.14 857.967 854.837 855.135 852.535 855.135C850.233 855.135 850.233 851.97 849.575 850.138C848.917 848.306 844.97 847.973 843.49 848.306C842.01 848.639 837.405 844.141 836.911 842.642C836.253 841.31 838.72 839.144 839.543 836.646C840.365 834.147 846.121 827.151 850.561 829.317C854.837 831.482 857.469 842.975 860.594 839.811C863.718 836.646 862.567 831.649 863.718 832.148C864.869 832.482 868.652 834.98 868.981 835.979C869.31 836.979 875.066 838.478 875.888 835.646C876.711 832.815 881.315 833.148 883.453 836.646C885.427 840.144 880.822 849.638 883.453 850.305C886.085 850.971 889.045 855.302 891.348 859.466C893.65 863.63 890.361 874.957 881.809 874.957C880.987 874.957 875.395 868.294 870.626 868.294C865.856 868.294 862.731 874.957 862.567 872.125C861.909 869.46 867.172 861.132 867.172 861.132Z" fill="url(#paint35_linear_122_189)"/>
<path d="M542.911 503.255C537.354 505.753 534.324 506.419 533.482 503.255C532.64 500.09 530.283 497.258 527.925 497.258C525.568 497.258 525.568 494.093 524.895 492.261C524.221 490.429 520.18 490.095 518.665 490.429C517.149 490.762 512.435 486.264 511.93 484.765C511.256 483.433 513.782 481.267 514.624 478.769C515.466 476.27 521.359 469.274 525.905 471.44C530.283 473.605 532.977 485.098 536.176 481.934C539.375 478.769 538.196 473.772 539.375 474.271C540.554 474.604 544.426 477.103 544.763 478.102C545.1 479.102 550.993 480.601 551.835 477.769C552.677 474.938 557.391 475.271 559.58 478.769C561.601 482.267 556.886 491.761 559.58 492.427C562.274 493.094 565.305 497.425 567.662 501.589C570.019 505.753 566.652 517.08 557.896 517.08C557.054 517.08 551.33 510.417 546.447 510.417C541.564 510.417 538.365 517.08 538.196 514.248C537.523 511.75 542.911 503.255 542.911 503.255Z" fill="url(#paint36_linear_122_189)"/>
<path d="M701.021 489.073C701.021 489.073 702.871 490.619 698.668 490.276C694.464 489.932 697.155 490.791 695.473 491.994C693.96 493.024 690.598 492.852 689.925 491.994C689.252 490.963 687.235 491.994 686.226 494.055C685.049 495.944 683.368 493.196 680.342 492.852C677.315 492.509 674.962 490.791 671.095 492.337C667.06 493.883 665.378 494.742 663.529 493.711C661.679 492.509 663.024 489.073 658.989 489.417C654.786 489.76 653.946 489.932 652.769 487.527C651.592 485.122 644.026 486.668 652.937 481.172C661.848 475.675 659.157 473.442 667.06 473.785C674.962 473.957 675.802 473.27 679.669 471.208C683.368 469.147 685.554 467.601 687.067 469.491C688.58 471.38 693.456 470.178 697.155 468.288C700.685 466.399 702.535 464.853 704.216 466.399C705.897 467.945 707.242 473.442 712.286 474.472C717.33 475.331 720.524 478.767 719.516 481C718.507 483.233 715.144 489.245 713.631 488.214C711.95 487.184 708.924 484.779 709.26 489.073C709.26 493.196 702.198 489.76 701.021 489.073Z" fill="url(#paint37_linear_122_189)"/>
<path d="M541.196 618.177C541.196 618.177 542.523 618.512 540.201 619.349C537.88 620.186 539.538 620.019 538.875 621.023C538.378 622.028 536.554 622.698 535.891 622.53C535.228 622.195 534.564 623.2 534.399 624.54C534.233 625.879 532.575 624.707 530.917 625.377C529.259 626.046 527.601 625.712 525.777 627.553C523.953 629.395 523.29 630.232 521.964 630.232C520.637 630.065 520.471 627.888 518.482 629.06C516.326 630.232 515.829 630.567 514.668 629.73C513.508 628.725 509.86 631.572 513.176 626.214C516.658 621.023 514.668 620.521 518.813 618.679C523.124 616.838 523.456 616.168 524.948 614.159C526.44 612.15 527.269 610.643 528.43 611.312C529.756 611.982 532.077 609.973 533.57 608.131C535.062 606.289 535.559 604.95 536.886 605.285C538.212 605.787 540.367 608.299 543.186 607.461C546.004 606.624 548.657 607.629 548.657 608.968C548.657 610.308 548.326 614.494 547.331 614.326C546.17 614.159 544.015 613.656 545.175 616C546.668 618.345 542.025 618.345 541.196 618.177Z" fill="url(#paint38_linear_122_189)"/>
<path d="M276.736 586.767C276.736 586.767 278.062 587.102 275.741 587.939C273.42 588.776 275.078 588.609 274.414 589.613C273.917 590.618 272.093 591.288 271.43 590.953C270.767 590.618 270.104 591.623 269.938 592.962C269.772 594.302 268.114 593.13 266.456 593.799C264.798 594.469 263.14 594.134 261.316 595.976C259.493 597.818 258.829 598.655 257.503 598.655C256.177 598.487 256.011 596.311 254.021 597.483C251.866 598.655 251.368 598.99 250.208 598.152C249.047 597.148 245.4 599.994 248.716 594.636C252.197 589.446 250.208 588.944 254.353 587.102C258.664 585.26 258.995 584.591 260.487 582.581C261.979 580.572 262.808 579.065 263.969 579.735C265.295 580.405 267.617 578.396 269.109 576.554C270.601 574.712 271.098 573.373 272.425 573.707C273.751 574.21 275.907 576.721 278.725 575.884C281.544 575.047 284.196 576.052 284.196 577.391C284.196 578.73 283.865 582.916 282.87 582.749C281.71 582.581 279.554 582.079 280.715 584.423C282.041 586.767 277.565 586.767 276.736 586.767Z" fill="url(#paint39_linear_122_189)"/>
<path d="M177.925 471.45C177.925 471.45 179.245 471.768 176.934 472.561C174.623 473.354 176.274 473.195 175.614 474.147C175.119 475.099 173.303 475.733 172.643 475.575C171.983 475.257 171.322 476.209 171.157 477.478C170.992 478.747 169.342 477.637 167.691 478.271C166.041 478.906 164.39 478.588 162.574 480.333C160.759 482.078 160.099 482.871 158.778 482.871C157.458 482.712 157.293 480.65 155.312 481.761C153.166 482.871 152.671 483.188 151.516 482.395C150.36 481.443 146.729 484.14 150.03 479.064C153.496 474.147 151.516 473.671 155.807 471.926C160.099 470.181 160.429 469.547 161.914 467.644C163.4 465.74 164.225 464.313 165.38 464.947C166.701 465.582 169.012 463.678 170.497 461.933C171.983 460.188 172.478 458.92 173.798 459.237C175.119 459.713 177.099 462.092 180.07 461.299C182.876 460.506 185.517 461.457 185.517 462.726C185.517 463.995 185.187 467.961 184.197 467.802C183.041 467.644 180.896 467.168 182.051 469.388C183.371 471.45 178.75 471.45 177.925 471.45Z" fill="url(#paint40_linear_122_189)"/>
<path d="M1156.96 399.934C1156.96 399.934 1158.28 400.269 1155.96 401.106C1153.64 401.943 1155.3 401.776 1154.63 402.78C1154.14 403.785 1152.31 404.455 1151.65 404.12C1150.99 403.785 1150.32 404.79 1150.16 406.129C1149.99 407.469 1148.33 406.297 1146.68 406.966C1145.02 407.636 1143.36 407.301 1141.54 409.143C1139.71 410.985 1139.05 411.822 1137.72 411.822C1136.4 411.654 1136.23 409.478 1134.24 410.65C1132.09 411.822 1131.59 412.157 1130.43 411.319C1129.27 410.315 1125.62 413.161 1128.94 407.803C1132.42 402.613 1130.43 402.111 1134.57 400.269C1138.88 398.427 1139.22 397.758 1140.71 395.748C1142.2 393.739 1143.03 392.232 1144.19 392.902C1145.52 393.572 1147.84 391.563 1149.33 389.721C1150.82 387.879 1151.32 386.54 1152.64 386.874C1153.97 387.377 1156.13 389.888 1158.95 389.051C1161.76 388.214 1164.42 389.219 1164.42 390.558C1164.42 391.897 1164.08 396.083 1163.09 395.916C1161.93 395.748 1159.77 395.246 1160.93 397.59C1162.26 399.934 1157.78 399.934 1156.96 399.934Z" fill="url(#paint41_linear_122_189)"/>
<path d="M314.205 497.82C309.186 504.11 306.174 506.759 303.162 503.614C300.15 500.468 295.633 498.647 292.788 499.972C289.944 501.462 288.103 497.654 286.262 495.999C284.422 494.343 279.402 496.33 277.896 497.654C276.39 498.978 268.024 496.495 266.518 495.171C265.012 493.847 266.351 490.039 265.849 486.563C265.514 484.576 271.705 482.589 273.546 478.948C274.884 476.133 271.538 471.167 274.382 471.001C280.908 470.836 291.282 482.755 293.123 477.127C294.963 471.498 290.613 466.366 292.119 466.035C293.792 465.704 299.816 466.201 300.82 467.359C301.824 468.353 309.688 466.532 308.851 462.559C308.182 458.751 313.871 456.268 318.556 459.082C323.241 461.896 323.576 475.968 327.089 475.14C330.603 474.312 336.794 477.458 342.148 480.934C345.328 483.086 341.647 491.198 340.141 497.489C339.137 501.627 340.643 504.772 340.308 505.104C339.973 505.269 337.798 509.904 335.121 510.567C333.113 511.063 330.938 513.546 329.097 513.05C326.587 512.553 324.747 508.911 324.747 508.911C324.747 508.911 317.552 516.857 315.377 513.712C313.202 510.898 314.205 497.82 314.205 497.82Z" fill="url(#paint42_linear_122_189)"/>
<path d="M738.364 909.641C733.429 915.932 730.468 918.581 727.508 915.435C724.547 912.29 720.106 910.469 717.309 911.793C714.513 913.283 712.704 909.476 710.894 907.82C709.085 906.165 704.15 908.151 702.67 909.476C701.19 910.8 692.965 908.317 691.485 906.993C690.005 905.668 691.32 901.861 690.827 898.384C690.498 896.398 696.584 894.411 698.393 890.769C699.709 887.955 696.42 882.989 699.216 882.823C705.631 882.658 715.829 894.577 717.638 888.948C719.448 883.32 715.171 878.188 716.652 877.857C718.296 877.526 724.218 878.022 725.205 879.181C726.192 880.174 733.923 878.353 733.1 874.38C732.442 870.573 738.035 868.09 742.641 870.904C747.246 873.718 747.575 887.789 751.029 886.962C754.484 886.134 760.57 889.279 765.833 892.756C768.959 894.908 765.34 903.02 763.859 909.31C762.873 913.449 764.353 916.594 764.024 916.925C763.695 917.091 761.557 921.726 758.925 922.388C756.951 922.885 754.813 925.368 753.003 924.872C750.536 924.375 748.727 920.733 748.727 920.733C748.727 920.733 741.654 928.679 739.515 925.534C737.377 922.719 738.364 909.641 738.364 909.641Z" fill="url(#paint43_linear_122_189)"/>
<path d="M721.095 427.921C716.16 434.211 713.199 436.86 710.239 433.715C707.278 430.569 702.837 428.748 700.205 430.073C697.409 431.563 695.599 427.755 693.79 426.1C691.981 424.444 687.046 426.431 685.566 427.755C684.085 429.079 675.861 426.596 674.38 425.272C672.9 423.948 674.216 420.14 673.722 416.664C673.393 414.677 679.48 412.691 681.289 409.049C682.605 406.234 679.315 401.268 682.111 401.102C688.526 400.937 698.725 412.856 700.534 407.228C702.343 401.599 698.067 396.467 699.547 396.136C701.192 395.805 707.113 396.302 708.1 397.46C709.087 398.454 716.818 396.633 715.996 392.825C715.338 389.018 720.93 386.534 725.536 389.349C730.142 392.163 730.471 406.234 733.925 405.407C737.379 404.579 743.465 407.724 748.729 411.201C751.854 413.353 748.235 421.464 746.755 427.755C745.768 431.894 747.248 435.039 746.919 435.37C746.59 435.536 744.452 440.171 741.82 440.833C739.846 441.33 737.708 443.813 735.899 443.316C733.431 442.82 731.622 439.178 731.622 439.178C731.622 439.178 724.549 447.124 722.411 443.979C720.108 441.164 721.095 427.921 721.095 427.921Z" fill="url(#paint44_linear_122_189)"/>
<path d="M1155.28 505.714C1150.35 512.005 1147.39 514.653 1144.43 511.508C1141.47 508.363 1137.03 506.542 1134.39 507.866C1131.6 509.356 1129.79 505.548 1127.98 503.893C1126.17 502.237 1121.24 504.224 1119.75 505.548C1118.27 506.873 1110.05 504.39 1108.57 503.065C1107.09 501.741 1108.41 497.933 1107.91 494.457C1107.58 492.47 1113.67 490.484 1115.48 486.842C1116.79 484.028 1113.5 479.061 1116.3 478.896C1122.72 478.73 1132.91 490.649 1134.72 485.021C1136.53 479.392 1132.26 474.26 1133.74 473.929C1135.38 473.598 1141.3 474.095 1142.29 475.254C1143.28 476.247 1151.01 474.426 1150.18 470.453C1149.53 466.645 1155.12 464.162 1159.73 466.976C1164.33 469.791 1164.66 483.862 1168.11 483.034C1171.57 482.207 1177.65 485.352 1182.92 488.828C1186.04 490.98 1182.42 499.092 1180.94 505.383C1179.96 509.521 1181.44 512.667 1181.11 512.998C1180.78 513.163 1178.64 517.799 1176.01 518.461C1174.04 518.957 1171.9 521.441 1169.92 520.944C1167.46 520.447 1165.65 516.805 1165.65 516.805C1165.65 516.805 1158.57 524.752 1156.44 521.606C1154.3 518.792 1155.28 505.714 1155.28 505.714Z" fill="url(#paint45_linear_122_189)"/>
<g filter="url(#filter0_f_122_189)">
<circle cx="986.296" cy="237.3" r="4.28715" fill="white"/>
</g>
<circle cx="986.296" cy="237.3" r="4.28715" fill="white"/>
<g filter="url(#filter1_f_122_189)">
<circle cx="244.618" cy="209.434" r="4.28715" fill="white"/>
</g>
<circle cx="244.618" cy="209.434" r="4.28715" fill="white"/>
<g filter="url(#filter2_f_122_189)">
<circle cx="733.354" cy="76.532" r="4.28715" fill="white"/>
</g>
<circle cx="733.354" cy="76.532" r="4.28715" fill="white"/>
<g filter="url(#filter3_f_122_189)">
<circle cx="720.492" cy="691.738" r="4.28715" fill="white"/>
</g>
<circle cx="720.492" cy="691.738" r="4.28715" fill="white"/>
<g filter="url(#filter4_f_122_189)">
<circle cx="158.875" cy="721.749" r="4.28715" fill="white"/>
</g>
<circle cx="158.875" cy="721.749" r="4.28715" fill="white"/>
<g filter="url(#filter5_f_122_189)">
<circle cx="1121.34" cy="668.159" r="4.28715" fill="white"/>
</g>
<circle cx="1121.34" cy="668.159" r="4.28715" fill="white"/>
<g filter="url(#filter6_f_122_189)">
<circle cx="478.268" cy="215.865" r="4.28715" fill="white"/>
</g>
<circle cx="478.268" cy="215.865" r="4.28715" fill="white"/>
<defs>
<filter id="filter0_f_122_189" x="978.009" y="229.013" width="16.5742" height="16.5742" filterUnits="userSpaceOnUse" color-interpolation-filters="sRGB">
<feFlood flood-opacity="0" result="BackgroundImageFix"/>
<feBlend mode="normal" in="SourceGraphic" in2="BackgroundImageFix" result="shape"/>
<feGaussianBlur stdDeviation="2" result="effect1_foregroundBlur_122_189"/>
</filter>
<filter id="filter1_f_122_189" x="236.331" y="201.146" width="16.5743" height="16.5742" filterUnits="userSpaceOnUse" color-interpolation-filters="sRGB">
<feFlood flood-opacity="0" result="BackgroundImageFix"/>
<feBlend mode="normal" in="SourceGraphic" in2="BackgroundImageFix" result="shape"/>
<feGaussianBlur stdDeviation="2" result="effect1_foregroundBlur_122_189"/>
</filter>
<filter id="filter2_f_122_189" x="725.067" y="68.2449" width="16.5742" height="16.5742" filterUnits="userSpaceOnUse" color-interpolation-filters="sRGB">
<feFlood flood-opacity="0" result="BackgroundImageFix"/>
<feBlend mode="normal" in="SourceGraphic" in2="BackgroundImageFix" result="shape"/>
<feGaussianBlur stdDeviation="2" result="effect1_foregroundBlur_122_189"/>
</filter>
<filter id="filter3_f_122_189" x="712.205" y="683.451" width="16.5742" height="16.5743" filterUnits="userSpaceOnUse" color-interpolation-filters="sRGB">
<feFlood flood-opacity="0" result="BackgroundImageFix"/>
<feBlend mode="normal" in="SourceGraphic" in2="BackgroundImageFix" result="shape"/>
<feGaussianBlur stdDeviation="2" result="effect1_foregroundBlur_122_189"/>
</filter>
<filter id="filter4_f_122_189" x="150.588" y="713.461" width="16.5743" height="16.5743" filterUnits="userSpaceOnUse" color-interpolation-filters="sRGB">
<feFlood flood-opacity="0" result="BackgroundImageFix"/>
<feBlend mode="normal" in="SourceGraphic" in2="BackgroundImageFix" result="shape"/>
<feGaussianBlur stdDeviation="2" result="effect1_foregroundBlur_122_189"/>
</filter>
<filter id="filter5_f_122_189" x="1113.05" y="659.872" width="16.5742" height="16.5743" filterUnits="userSpaceOnUse" color-interpolation-filters="sRGB">
<feFlood flood-opacity="0" result="BackgroundImageFix"/>
<feBlend mode="normal" in="SourceGraphic" in2="BackgroundImageFix" result="shape"/>
<feGaussianBlur stdDeviation="2" result="effect1_foregroundBlur_122_189"/>
</filter>
<filter id="filter6_f_122_189" x="469.981" y="207.577" width="16.5743" height="16.5742" filterUnits="userSpaceOnUse" color-interpolation-filters="sRGB">
<feFlood flood-opacity="0" result="BackgroundImageFix"/>
<feBlend mode="normal" in="SourceGraphic" in2="BackgroundImageFix" result="shape"/>
<feGaussianBlur stdDeviation="2" result="effect1_foregroundBlur_122_189"/>
</filter>
<linearGradient id="paint0_linear_122_189" x1="675.625" y1="0" x2="675.625" y2="1071" gradientUnits="userSpaceOnUse">
<stop stop-color="#6CA2F3"/>
<stop offset="1" stop-color="#F9F3F6"/>
</linearGradient>
<linearGradient id="paint1_linear_122_189" x1="675.625" y1="0" x2="675.625" y2="1071" gradientUnits="userSpaceOnUse">
<stop stop-color="#002566"/>
<stop offset="1" stop-color="#002D3E"/>
</linearGradient>
<linearGradient id="paint2_linear_122_189" x1="1208.22" y1="413.135" x2="80.6049" y2="413.139" gradientUnits="userSpaceOnUse">
<stop stop-color="#FEFEFE" stop-opacity="0"/>
<stop offset="1" stop-color="white"/>
</linearGradient>
<linearGradient id="paint3_linear_122_189" x1="1307.92" y1="417.083" x2="98.5535" y2="417.087" gradientUnits="userSpaceOnUse">
<stop stop-color="#FEFEFE" stop-opacity="0"/>
<stop offset="1" stop-color="white"/>
</linearGradient>
<linearGradient id="paint4_linear_122_189" x1="1184.3" y1="5.26002" x2="-26.4712" y2="5.26308" gradientUnits="userSpaceOnUse">
<stop stop-color="#FEFEFE" stop-opacity="0"/>
<stop offset="1" stop-color="white"/>
</linearGradient>
<linearGradient id="paint5_linear_122_189" x1="1182.92" y1="3.94501" x2="-26.4404" y2="3.94908" gradientUnits="userSpaceOnUse">
<stop stop-color="#FEFEFE" stop-opacity="0"/>
<stop offset="1" stop-color="white"/>
</linearGradient>
<linearGradient id="paint6_linear_122_189" x1="1102.96" y1="753.908" x2="-24.6531" y2="753.912" gradientUnits="userSpaceOnUse">
<stop stop-color="#FEFEFE" stop-opacity="0"/>
<stop offset="1" stop-color="white"/>
</linearGradient>
<linearGradient id="paint7_linear_122_189" x1="2601.57" y1="573.654" x2="1473.96" y2="573.658" gradientUnits="userSpaceOnUse">
<stop stop-color="#FEFEFE" stop-opacity="0"/>
<stop offset="1" stop-color="white"/>
</linearGradient>
<linearGradient id="paint8_linear_122_189" x1="2547.28" y1="846.009" x2="1280.13" y2="846.014" gradientUnits="userSpaceOnUse">
<stop stop-color="#FEFEFE" stop-opacity="0"/>
<stop offset="1" stop-color="white"/>
</linearGradient>
<linearGradient id="paint9_linear_122_189" x1="2447.63" y1="601.284" x2="1320.02" y2="601.288" gradientUnits="userSpaceOnUse">
<stop stop-color="#FEFEFE" stop-opacity="0"/>
<stop offset="1" stop-color="white"/>
</linearGradient>
<linearGradient id="paint10_linear_122_189" x1="359.133" y1="561.504" x2="359.133" y2="522.099" gradientUnits="userSpaceOnUse">
<stop stop-color="#79BBDF" stop-opacity="0.69"/>
<stop offset="1" stop-color="#153E54" stop-opacity="0.78"/>
</linearGradient>
<linearGradient id="paint11_linear_122_189" x1="864.325" y1="570.081" x2="864.325" y2="500.466" gradientUnits="userSpaceOnUse">
<stop stop-color="#79BBDF" stop-opacity="0.69"/>
<stop offset="1" stop-color="#153E54" stop-opacity="0.78"/>
</linearGradient>
<linearGradient id="paint12_linear_122_189" x1="675.399" y1="660.333" x2="675.399" y2="439.667" gradientUnits="userSpaceOnUse">
<stop stop-color="#79BBDF" stop-opacity="0.69"/>
<stop offset="1" stop-color="#153E54" stop-opacity="0.78"/>
</linearGradient>
<linearGradient id="paint13_linear_122_189" x1="1132.81" y1="588.628" x2="1132.81" y2="434.95" gradientUnits="userSpaceOnUse">
<stop stop-color="#79BBDF" stop-opacity="0.69"/>
<stop offset="1" stop-color="#153E54" stop-opacity="0.78"/>
</linearGradient>
<linearGradient id="paint14_linear_122_189" x1="819.014" y1="589.004" x2="819.014" y2="499.687" gradientUnits="userSpaceOnUse">
<stop stop-color="#79BBDF" stop-opacity="0.69"/>
<stop offset="1" stop-color="#153E54" stop-opacity="0.78"/>
</linearGradient>
<linearGradient id="paint15_linear_122_189" x1="352.584" y1="629.998" x2="352.584" y2="566.951" gradientUnits="userSpaceOnUse">
<stop stop-color="#79BBDF" stop-opacity="0.69"/>
<stop offset="1" stop-color="#153E54" stop-opacity="0.78"/>
</linearGradient>
<linearGradient id="paint16_linear_122_189" x1="394.638" y1="597.051" x2="394.638" y2="460.449" gradientUnits="userSpaceOnUse">
<stop stop-color="#79BBDF" stop-opacity="0.69"/>
<stop offset="1" stop-color="#153E54" stop-opacity="0.78"/>
</linearGradient>
<linearGradient id="paint17_linear_122_189" x1="769.001" y1="545.83" x2="769.001" y2="470.961" gradientUnits="userSpaceOnUse">
<stop stop-color="#79BBDF" stop-opacity="0.69"/>
<stop offset="1" stop-color="#153E54" stop-opacity="0.78"/>
</linearGradient>
<linearGradient id="paint18_linear_122_189" x1="334.829" y1="280.25" x2="334.829" y2="489.161" gradientUnits="userSpaceOnUse">
<stop stop-color="#79BBDF" stop-opacity="0.69"/>
<stop offset="1" stop-color="#153E54" stop-opacity="0.78"/>
</linearGradient>
<linearGradient id="paint19_linear_122_189" x1="938.952" y1="316.885" x2="938.952" y2="474.239" gradientUnits="userSpaceOnUse">
<stop stop-color="#79BBDF" stop-opacity="0.69"/>
<stop offset="1" stop-color="#153E54" stop-opacity="0.78"/>
</linearGradient>
<linearGradient id="paint20_linear_122_189" x1="414.339" y1="821.434" x2="414.339" y2="691.399" gradientUnits="userSpaceOnUse">
<stop stop-color="#79BBDF" stop-opacity="0.69"/>
<stop offset="1" stop-color="#153E54" stop-opacity="0.78"/>
</linearGradient>
<linearGradient id="paint21_linear_122_189" x1="899.912" y1="600.949" x2="899.912" y2="524.767" gradientUnits="userSpaceOnUse">
<stop stop-color="#79BBDF" stop-opacity="0.69"/>
<stop offset="1" stop-color="#153E54" stop-opacity="0.78"/>
</linearGradient>
<linearGradient id="paint22_linear_122_189" x1="160.511" y1="544.864" x2="160.511" y2="497.578" gradientUnits="userSpaceOnUse">
<stop stop-color="#79BBDF" stop-opacity="0.69"/>
<stop offset="1" stop-color="#153E54" stop-opacity="0.78"/>
</linearGradient>
<linearGradient id="paint23_linear_122_189" x1="228.241" y1="567.849" x2="228.241" y2="465.397" gradientUnits="userSpaceOnUse">
<stop stop-color="#79BBDF" stop-opacity="0.69"/>
<stop offset="1" stop-color="#153E54" stop-opacity="0.78"/>
</linearGradient>
<linearGradient id="paint24_linear_122_189" x1="664.542" y1="384.065" x2="664.542" y2="551.052" gradientUnits="userSpaceOnUse">
<stop stop-color="#79BBDF" stop-opacity="0.69"/>
<stop offset="1" stop-color="#153E54" stop-opacity="0.78"/>
</linearGradient>
<linearGradient id="paint25_linear_122_189" x1="938.745" y1="544.012" x2="938.745" y2="488.845" gradientUnits="userSpaceOnUse">
<stop stop-color="#79BBDF" stop-opacity="0.69"/>
<stop offset="1" stop-color="#153E54" stop-opacity="0.78"/>
</linearGradient>
<linearGradient id="paint26_linear_122_189" x1="650.539" y1="600.097" x2="651.371" y2="500.062" gradientUnits="userSpaceOnUse">
<stop stop-color="#79BBDF" stop-opacity="0.69"/>
<stop offset="1" stop-color="#153E54" stop-opacity="0.78"/>
</linearGradient>
<linearGradient id="paint27_linear_122_189" x1="980.96" y1="707.591" x2="980.96" y2="790.341" gradientUnits="userSpaceOnUse">
<stop stop-color="#79BBDF" stop-opacity="0.69"/>
<stop offset="1" stop-color="#153E54" stop-opacity="0.78"/>
</linearGradient>
<linearGradient id="paint28_linear_122_189" x1="310.439" y1="653.355" x2="310.439" y2="465.527" gradientUnits="userSpaceOnUse">
<stop stop-color="#79BBDF" stop-opacity="0.69"/>
<stop offset="1" stop-color="#153E54" stop-opacity="0.78"/>
</linearGradient>
<linearGradient id="paint29_linear_122_189" x1="1084.78" y1="544.722" x2="1084.78" y2="496.123" gradientUnits="userSpaceOnUse">
<stop stop-color="#79BBDF" stop-opacity="0.69"/>
<stop offset="1" stop-color="#153E54" stop-opacity="0.78"/>
</linearGradient>
<linearGradient id="paint30_linear_122_189" x1="1086.08" y1="590.385" x2="1086.08" y2="526.024" gradientUnits="userSpaceOnUse">
<stop stop-color="#79BBDF" stop-opacity="0.69"/>
<stop offset="1" stop-color="#153E54" stop-opacity="0.78"/>
</linearGradient>
<linearGradient id="paint31_linear_122_189" x1="357.272" y1="874.159" x2="357.272" y2="939.833" gradientUnits="userSpaceOnUse">
<stop stop-color="#79BBDF" stop-opacity="0.69"/>
<stop offset="1" stop-color="#153E54" stop-opacity="0.78"/>
</linearGradient>
<linearGradient id="paint32_linear_122_189" x1="943.363" y1="520.007" x2="943.363" y2="474.035" gradientUnits="userSpaceOnUse">
<stop stop-color="#79BBDF" stop-opacity="0.69"/>
<stop offset="1" stop-color="#153E54" stop-opacity="0.78"/>
</linearGradient>
<linearGradient id="paint33_linear_122_189" x1="1174.93" y1="530.533" x2="1174.93" y2="484.561" gradientUnits="userSpaceOnUse">
<stop stop-color="#79BBDF" stop-opacity="0.69"/>
<stop offset="1" stop-color="#153E54" stop-opacity="0.78"/>
</linearGradient>
<linearGradient id="paint34_linear_122_189" x1="827.579" y1="476.588" x2="827.579" y2="430.616" gradientUnits="userSpaceOnUse">
<stop stop-color="#79BBDF" stop-opacity="0.69"/>
<stop offset="1" stop-color="#153E54" stop-opacity="0.78"/>
</linearGradient>
<linearGradient id="paint35_linear_122_189" x1="864.42" y1="869.99" x2="864.42" y2="824.017" gradientUnits="userSpaceOnUse">
<stop stop-color="#79BBDF" stop-opacity="0.69"/>
<stop offset="1" stop-color="#153E54" stop-opacity="0.78"/>
</linearGradient>
<linearGradient id="paint36_linear_122_189" x1="540.093" y1="512.112" x2="540.093" y2="466.14" gradientUnits="userSpaceOnUse">
<stop stop-color="#79BBDF" stop-opacity="0.69"/>
<stop offset="1" stop-color="#153E54" stop-opacity="0.78"/>
</linearGradient>
<linearGradient id="paint37_linear_122_189" x1="684.162" y1="491.59" x2="684.162" y2="462.693" gradientUnits="userSpaceOnUse">
<stop stop-color="#79BBDF" stop-opacity="0.69"/>
<stop offset="1" stop-color="#153E54" stop-opacity="0.78"/>
</linearGradient>
<linearGradient id="paint38_linear_122_189" x1="530.229" y1="627.536" x2="530.229" y2="602.579" gradientUnits="userSpaceOnUse">
<stop stop-color="#79BBDF" stop-opacity="0.69"/>
<stop offset="1" stop-color="#153E54" stop-opacity="0.78"/>
</linearGradient>
<linearGradient id="paint39_linear_122_189" x1="265.769" y1="595.958" x2="265.769" y2="571.002" gradientUnits="userSpaceOnUse">
<stop stop-color="#79BBDF" stop-opacity="0.69"/>
<stop offset="1" stop-color="#153E54" stop-opacity="0.78"/>
</linearGradient>
<linearGradient id="paint40_linear_122_189" x1="167.089" y1="480.316" x2="167.089" y2="456.674" gradientUnits="userSpaceOnUse">
<stop stop-color="#79BBDF" stop-opacity="0.69"/>
<stop offset="1" stop-color="#153E54" stop-opacity="0.78"/>
</linearGradient>
<linearGradient id="paint41_linear_122_189" x1="1145.99" y1="409.125" x2="1145.99" y2="384.169" gradientUnits="userSpaceOnUse">
<stop stop-color="#79BBDF" stop-opacity="0.69"/>
<stop offset="1" stop-color="#153E54" stop-opacity="0.78"/>
</linearGradient>
<linearGradient id="paint42_linear_122_189" x1="304.574" y1="508.346" x2="304.574" y2="451.866" gradientUnits="userSpaceOnUse">
<stop stop-color="#79BBDF" stop-opacity="0.69"/>
<stop offset="1" stop-color="#153E54" stop-opacity="0.78"/>
</linearGradient>
<linearGradient id="paint43_linear_122_189" x1="728.896" y1="920.167" x2="728.896" y2="863.687" gradientUnits="userSpaceOnUse">
<stop stop-color="#79BBDF" stop-opacity="0.69"/>
<stop offset="1" stop-color="#153E54" stop-opacity="0.78"/>
</linearGradient>
<linearGradient id="paint44_linear_122_189" x1="711.791" y1="438.612" x2="711.791" y2="382.132" gradientUnits="userSpaceOnUse">
<stop stop-color="#79BBDF" stop-opacity="0.69"/>
<stop offset="1" stop-color="#153E54" stop-opacity="0.78"/>
</linearGradient>
<linearGradient id="paint45_linear_122_189" x1="1145.98" y1="516.24" x2="1145.98" y2="459.76" gradientUnits="userSpaceOnUse">
<stop stop-color="#79BBDF" stop-opacity="0.69"/>
<stop offset="1" stop-color="#153E54" stop-opacity="0.78"/>
</linearGradient>
</defs>
</svg>
