<?xml version="1.0" encoding="utf-8"?>
<!-- Generator: Adobe Illustrator 23.0.5, SVG Export Plug-In . SVG Version: 6.00 Build 0)  -->
<svg version="1.1" id="Слой_1" xmlns="http://www.w3.org/2000/svg" xmlns:xlink="http://www.w3.org/1999/xlink" x="0px" y="0px"
	 width="1071px" height="1071px" viewBox="0 0 1071 1071" style="enable-background:new 0 0 1071 1071;" xml:space="preserve">
<style type="text/css">
	.st0{fill:url(#SVGID_1_);}
	.st1{fill:url(#SVGID_2_);}
	.st2{fill:url(#SVGID_3_);}
	.st3{fill:url(#SVGID_4_);}
	.st4{fill:url(#SVGID_5_);}
	.st5{fill:url(#SVGID_6_);}
	.st6{fill:url(#SVGID_7_);}
	.st7{fill:url(#SVGID_8_);}
	.st8{fill:url(#SVGID_9_);}
	.st9{fill:url(#SVGID_10_);}
	.st10{fill:url(#SVGID_11_);}
	.st11{fill:url(#SVGID_12_);}
	.st12{fill:url(#SVGID_13_);}
	.st13{fill:url(#SVGID_14_);}
	.st14{fill:url(#SVGID_15_);}
	.st15{fill:url(#SVGID_16_);}
	.st16{fill:url(#SVGID_17_);}
	.st17{fill:url(#SVGID_18_);}
	.st18{fill:url(#SVGID_19_);}
	.st19{fill:url(#SVGID_20_);}
	.st20{fill:url(#SVGID_21_);}
	.st21{fill:url(#SVGID_22_);}
	.st22{fill:url(#SVGID_23_);}
	.st23{fill:url(#SVGID_24_);}
	.st24{fill:url(#SVGID_25_);}
	.st25{fill:url(#SVGID_26_);}
	.st26{fill:url(#SVGID_27_);}
	.st27{fill:url(#SVGID_28_);}
	.st28{fill:url(#SVGID_29_);}
	.st29{fill:url(#SVGID_30_);}
	.st30{fill:url(#SVGID_31_);}
	.st31{fill:url(#SVGID_32_);}
	.st32{fill:url(#SVGID_33_);}
	.st33{fill:url(#SVGID_34_);}
	.st34{fill:url(#SVGID_35_);}
	.st35{fill:url(#SVGID_36_);}
	.st36{fill:url(#SVGID_37_);}
	.st37{fill:url(#SVGID_38_);}
	.st38{fill:url(#SVGID_39_);}
	.st39{fill:url(#SVGID_40_);}
	.st40{fill:url(#SVGID_41_);}
	.st41{fill:url(#SVGID_42_);}
	.st42{fill:url(#SVGID_43_);}
	.st43{fill:url(#SVGID_44_);}
	.st44{fill:url(#SVGID_45_);}
	.st45{fill:url(#SVGID_46_);}
	.st46{fill:#FFFFFF;}
</style>
<linearGradient id="SVGID_1_" gradientUnits="userSpaceOnUse" x1="534.844" y1="1069.8898" x2="534.844" y2="-1.1102" gradientTransform="matrix(1 0 0 -1 0 1069.8898)">
	<stop  offset="0" style="stop-color:#6CA2F3"/>
	<stop  offset="1" style="stop-color:#F9F3F6"/>
</linearGradient>
<rect x="-1.3" y="0" class="st0" width="1072.3" height="1071"/>
<linearGradient id="SVGID_2_" gradientUnits="userSpaceOnUse" x1="534.844" y1="1069.8898" x2="534.844" y2="-1.1102" gradientTransform="matrix(1 0 0 -1 0 1069.8898)">
	<stop  offset="0" style="stop-color:#002566"/>
	<stop  offset="1" style="stop-color:#002D3E"/>
</linearGradient>
<rect x="-1.3" y="0" class="st1" width="1072.3" height="1071"/>
<linearGradient id="SVGID_3_" gradientUnits="userSpaceOnUse" x1="1067.4365" y1="658.7561" x2="-60.1785" y2="658.7522" gradientTransform="matrix(1 0 0 -1 0 1069.8898)">
	<stop  offset="0" style="stop-color:#FEFEFE;stop-opacity:0"/>
	<stop  offset="1" style="stop-color:#FFFFFF"/>
</linearGradient>
<rect x="-35.5" y="409.2" class="st2" width="1052.6" height="3.9"/>
<linearGradient id="SVGID_4_" gradientUnits="userSpaceOnUse" x1="1167.1367" y1="654.8062" x2="-42.2299" y2="654.8022" gradientTransform="matrix(1 0 0 -1 0 1069.8898)">
	<stop  offset="0" style="stop-color:#FEFEFE;stop-opacity:0"/>
	<stop  offset="1" style="stop-color:#FFFFFF"/>
</linearGradient>
<rect x="-15.8" y="413.1" class="st3" width="1128.9" height="3.9"/>
<linearGradient id="SVGID_5_" gradientUnits="userSpaceOnUse" x1="1947.5167" y1="1067.2811" x2="736.7455" y2="1067.2782" gradientTransform="matrix(-1 0 0 -1 1844.744 1214.6198)">
	<stop  offset="0" style="stop-color:#FEFEFE;stop-opacity:0"/>
	<stop  offset="1" style="stop-color:#FFFFFF"/>
</linearGradient>
<rect x="-48.7" y="144.7" class="st4" width="1130.2" height="5.3"/>
<linearGradient id="SVGID_6_" gradientUnits="userSpaceOnUse" x1="1946.1366" y1="1067.9492" x2="736.7762" y2="1067.9449" gradientTransform="matrix(-1 0 0 -1 1876.324 1204.0938)">
	<stop  offset="0" style="stop-color:#FEFEFE;stop-opacity:0"/>
	<stop  offset="1" style="stop-color:#FFFFFF"/>
</linearGradient>
<rect x="-15.8" y="134.2" class="st5" width="1128.9" height="3.9"/>
<linearGradient id="SVGID_7_" gradientUnits="userSpaceOnUse" x1="962.1766" y1="317.9828" x2="-165.4365" y2="317.9789" gradientTransform="matrix(1 0 0 -1 0 1069.8898)">
	<stop  offset="0" style="stop-color:#FEFEFE;stop-opacity:0"/>
	<stop  offset="1" style="stop-color:#FFFFFF"/>
</linearGradient>
<rect x="-140.8" y="750" class="st6" width="1052.6" height="3.9"/>
<linearGradient id="SVGID_8_" gradientUnits="userSpaceOnUse" x1="3364.7874" y1="270.2451" x2="2237.1772" y2="270.2411" gradientTransform="matrix(-1 0 0 1 3619.6541 297.5282)">
	<stop  offset="0" style="stop-color:#FEFEFE;stop-opacity:0"/>
	<stop  offset="1" style="stop-color:#FFFFFF"/>
</linearGradient>
<rect x="305.2" y="565.8" class="st7" width="1052.6" height="3.9"/>
<linearGradient id="SVGID_9_" gradientUnits="userSpaceOnUse" x1="3310.4976" y1="-2.1044" x2="2043.3474" y2="-2.1094" gradientTransform="matrix(-1 0 0 1 3238.094 842.2383)">
	<stop  offset="0" style="stop-color:#FEFEFE;stop-opacity:0"/>
	<stop  offset="1" style="stop-color:#FFFFFF"/>
</linearGradient>
<rect x="-15.8" y="838.1" class="st8" width="1182.8" height="3.9"/>
<linearGradient id="SVGID_10_" gradientUnits="userSpaceOnUse" x1="3210.8472" y1="242.6145" x2="2083.2373" y2="242.6106" gradientTransform="matrix(-1 0 0 1 3311.7742 352.7882)">
	<stop  offset="0" style="stop-color:#FEFEFE;stop-opacity:0"/>
	<stop  offset="1" style="stop-color:#FFFFFF"/>
</linearGradient>
<rect x="151.3" y="593.4" class="st9" width="1052.6" height="3.9"/>
<linearGradient id="SVGID_11_" gradientUnits="userSpaceOnUse" x1="218.41" y1="508.3857" x2="218.41" y2="547.7908" gradientTransform="matrix(1 0 0 -1 0 1069.8898)">
	<stop  offset="0" style="stop-color:#79BBDF;stop-opacity:0.69"/>
	<stop  offset="1" style="stop-color:#153E54;stop-opacity:0.78"/>
</linearGradient>
<path class="st10" d="M101.9,540.9L81,550.5c-2.8,1.3-4.7,4.2-4.7,7.3c0,4.4,3.6,8,8,8h267.9c4.6,0,8.3-3.7,8.3-8.3
	c0-3-1.6-5.8-4.3-7.2l-17.9-9.9c-2.4-1.3-5-2-7.8-2h-17c-4.3,0-8.4,1.7-11.4,4.8l-4.5,4.6c-3,3.1-7.1,4.8-11.4,4.8h-19.1
	c-2,0-4.1-0.4-6-1.2l-32.5-13.1l-25.8-9.4c-4.7-1.7-9.9-1.1-14.1,1.6l-27.9,18c-3.9,2.5-8.8,3.2-13.3,1.9l-34.3-10.4
	C109.5,539,105.5,539.2,101.9,540.9z"/>
<linearGradient id="SVGID_12_" gradientUnits="userSpaceOnUse" x1="723.648" y1="499.8088" x2="723.648" y2="569.4238" gradientTransform="matrix(1 0 0 -1 0 1069.8898)">
	<stop  offset="0" style="stop-color:#79BBDF;stop-opacity:0.69"/>
	<stop  offset="1" style="stop-color:#153E54;stop-opacity:0.78"/>
</linearGradient>
<path class="st11" d="M528.3,512.1c-16,11.5-39.3,28.3-50.7,36.5c-4.1,3-6.5,7.8-6.5,12.9c0,8.8,7.2,16.2,16,16.2h473.2
	c8.8,0,16-7.2,16-16v-0.5c0-4.9-2.3-9.6-6.2-12.5c-15-11.4-37.6-27.7-42-26.9c-6.4,1.1-51.4,31.7-58.9,31.7s-87.8-14.8-100.6-22.2
	c-12.8-7.4-74.9-23.2-81.4-23.2c-6.4,0-48.2,26.4-57.8,23.2c-7.1-2.3-58-14.5-88.2-21.6C536.7,508.5,532,509.4,528.3,512.1z"/>
<linearGradient id="SVGID_13_" gradientUnits="userSpaceOnUse" x1="534.8405" y1="409.5568" x2="534.8405" y2="630.2228" gradientTransform="matrix(1 0 0 -1 0 1069.8898)">
	<stop  offset="0" style="stop-color:#79BBDF;stop-opacity:0.69"/>
	<stop  offset="1" style="stop-color:#153E54;stop-opacity:0.78"/>
</linearGradient>
<path class="st12" d="M10.3,463.1c-4.1,1.5-7.9,3-11.6,4.5v135.7c1.8,0.2,2.3,1.8,3,6.1c1,6,8.4,14.9,18.7,15.4
	c10.3,0.5,16.7,7.1,26.8,13.4c10.3,6.3,5.5,14.1,30,20.3c24.5,6.3,14.9-4.3,25.5-14.1c10.6-9.9,5.1-2.1,7.1,0.8c2,3,8.4,0.7,9.1-0.7
	c0.7-1.3,5-7.3,11.1-1.2c6.1,6,6.1,3.3,6.5,2.1s10.6-3.8,15.2,1.7c4.8,5.5,8.8,1.2,26.5-3.8c17.7-5,14.2-7.6,14.2-1.2
	c0,6.6,6.5,5,15.9,6.3c9.4,1.3,18-9.3,19-3.8c1,5.5,15.2,0,14.2,1.3c-1,1.3,0.3,4,4.5,7.8c4.1,3.8,5.8,2.1,7.8,0.8
	c2-1.3,1-2.8,7.8-6.6c6.8-3.8,12.2-1.3,12.2,0.5c0,2,7.4,12.1,13.9,14.2c6.5,2.1,7.1,9.9,12.6,10.4c5.5,0.5,5.8-8.3,7.8-10.7
	c2-2.5,5.1-1.3,6.1,3.6c1,5,9.1,5,14.9,5c5.8,0,8.4,3.3,14.6,9.3c6.1,6,12.2,4.1,26.5,0c14.2-4.1,19-4.1,30.3-3.6
	c11.3,0.5,10.6-1.7,15.6-3c5.1-1.3,4.5,0.8,10.6,0c6.1-0.8,1.3-11.2,4.5-8.8c3,2.5,13.2,4.5,20.4,4.6c7.1,0.3,15.2-2.5,23.5-3.3
	c8.1-0.8,10.3-2.8,15.9-7.4c5.8-4.6,7.8-10.1,13.6-15c5.8-5,18.7-12.4,20-9.9c1.3,2.5,7.4,3.6,11.6,2.1c4.1-1.3,11.6-0.8,17.7,0
	c6.1,0.8,8.1-0.5,10.6-2.5c2.3-2,2.6-2,7.4-2.8c4.8-0.8,8.4,0,8.1-3.8s0-6.8,6.5-5.3c6.5,1.7,6.1,2,8.4-3.6
	c2.3-5.5,4.8-2.5,12.2-2.1c7.4,0.3,7.8,0.5,7.8-3.6s4.8-2.5,13.9-2.5c9.1,0,10.6-1.3,11.3-3.8c0.7-2.5,15.6,0.3,16.4-1.7
	c0.7-2,7.1-1.3,13.6-0.5c6.5,0.8,0.3,3,0,6.6c-0.3,3.6,1,7.9,4.8,5.5c3.8-2.5,2.3-6.1,8.8-5.3c6.5,0.8,13.2,1.2,14.6,4
	c1.3,2.8,8.4,4.5,13.9,5.8c5.5,1.3,1.7,11.7,5.8,17.5c4.1,5.8,11.9,10.7,18.7,9.6c6.8-1.2,5.5-4.6,7.1-3.3c1.7,1.3,4.1,2.5,9.4,0
	c5.5-2.5,8.8-2.5,10.3-1.7c1.3,0.8,7.1-0.3,10.3-3.3c3-3,7.8-3,12.2-4.1c4.5-1.2,14.9-3,19,4.1c4.1,7.1,6.1,6.6,8.1,6.8
	c2,0.3,7.8-3.3,8.1,1.2c0.3,4.5,8.8,6.8,10.9,2.8c2-4.1,12.9-1.7,16.4,1.2c3.5,2.8,17.7,11.7,23,7.4c5.5-4.5,5.8-6.3,5.8-6.3
	c20.7-7.9,4.5-14.5,12.9-20c8.4-5.5,12.9-26.8,15.6-28.4c2.6-1.7,6.4,0,8.4-1.7c2-1.7,5.8-3,5.5-6.3c-0.3-3.3,6.8-5,8.8-4.6
	s10.3,0.3,11.6-3c1.3-3.1,7.1-0.3,8.8-0.2c1.6,0.3,7.4,0,9.9-2c2.3-2,3.5-5,5.8-5.5c2.3-0.5,3.8-1.3,2.7-3.5c-1-2,1-2,2.6-5.1
	c1.7-3,4.5-2.5,11.6-2.5c7.1,0,6.5,5.6,16.4,3c1.8-0.5,5.8-3.6,7.1-4.3c1.3-0.7,4.5-1.2,5.1-0.3c0.7,0.8,5.1,0,5.1,0s2-1.3,2.6-3.5
	c0.7-2.1,3.8-1.3,3.8-1.3s3,0,4.5,1.2c1.3,1.2,2.7-1.2,4.5-3.1c1.7-2,7.5-2.6,10.9-0.5c16.4,10.6,23.5,4,29.8,1.2v-98.7H10.3z"/>
<linearGradient id="SVGID_14_" gradientUnits="userSpaceOnUse" x1="992.0566" y1="481.2618" x2="992.0566" y2="634.9398" gradientTransform="matrix(1 0 0 -1 0 1069.8898)">
	<stop  offset="0" style="stop-color:#79BBDF;stop-opacity:0.69"/>
	<stop  offset="1" style="stop-color:#153E54;stop-opacity:0.78"/>
</linearGradient>
<path class="st13" d="M917.2,525.7c1.2,9.2-1.7,19.8,1.7,23.4c3.3,3.6,15.8,35,18.9,31.5c3.1-3.5,15.9-32.6,19.7-28
	c3.8,4.8,10.6,14.7,16.4,11c5.6-3.8,15.1,1.6,21.6,10.4c6.5,8.7,6.8,23.4,17.1,6.6c0,0,4.3,14,8.8,22.6c4.5,8.6,19.2-12.5,19.2-12.5
	s21.4,12.9,26.5-7.6v-74c-8.8-6.8-17.7-11.4-23.2-9.9c-7.3,2-8.8-36.1-18.4-44.2c-9.8-8.1-21.6-1.8-19.9,8.7
	c1.7,10.4-14.4,15.2-16.6,12.4c-2.2-3-14.8-4.8-18.1-4.1c-3.3,0.7,6.1,14.7,2.7,30c-3.5,15.3-25.5-17.8-39.1-17.6
	C920.7,484.5,916.1,516.5,917.2,525.7z"/>
<linearGradient id="SVGID_15_" gradientUnits="userSpaceOnUse" x1="678.2557" y1="480.8857" x2="678.2557" y2="570.2028" gradientTransform="matrix(1 0 0 -1 0 1069.8898)">
	<stop  offset="0" style="stop-color:#79BBDF;stop-opacity:0.69"/>
	<stop  offset="1" style="stop-color:#153E54;stop-opacity:0.78"/>
</linearGradient>
<path class="st14" d="M693.1,572c-7.8,9.9-12.5,14-17.1,9c-4.6-5-11.5-7.9-15.8-5.7c-4.3,2.3-7.3-3.5-10.1-6.3
	c-2.8-2.7-10.6,0.7-12.9,2.7c-2.3,2-15.2-1.8-17.6-3.8c-2.5-2-0.2-8.2-0.8-13.5c-0.5-3,9.1-6.2,11.9-12c2.1-4.5-3-12.2,1.3-12.4
	c10.1-0.3,25.9,18.5,28.7,9.5c2.8-9-4-16.9-1.5-17.4c2.5-0.5,11.7,0.3,13.4,2c1.5,1.7,13.5-1.3,12.5-7.5c-1.2-6,7.8-9.9,14.8-5.3
	c7.1,4.5,7.6,26.6,13,25.4c5.4-1.2,15,3.7,23.3,9.2c4.9,3.3-0.7,16.2-3.1,26.1c-1.5,6.3,0.8,11.5,0.2,11.9c-0.7,0.3-4,7.5-8.1,8.5
	c-3.1,0.8-6.4,4.7-9.4,4c-3.8-0.8-6.6-6.3-6.6-6.3s-11.2,12.5-14.3,7.7C691.5,592.7,693.1,572,693.1,572z"/>
<linearGradient id="SVGID_16_" gradientUnits="userSpaceOnUse" x1="211.8309" y1="439.8918" x2="211.8309" y2="502.9388" gradientTransform="matrix(1 0 0 -1 0 1069.8898)">
	<stop  offset="0" style="stop-color:#79BBDF;stop-opacity:0.69"/>
	<stop  offset="1" style="stop-color:#153E54;stop-opacity:0.78"/>
</linearGradient>
<path class="st15" d="M205.5,627.2c-2.3-3.1-7.8,0.5-11.1-3c-3.3-3.5-8.3-5.6-11.4-4c-3,1.7-5.3-2.5-7.1-4.5c-2-1.8-7.6,0.5-9.3,2
	c-1.7,1.5-10.9-1.3-12.6-2.8c-1.7-1.5-12.9-9.6-13.4-13.4c-0.3-2.2,19.2-0.5,21.3-4.6c1.5-3.1-2.1-8.6,1-8.8
	c7.1-0.2,18.5,13.1,20.5,6.8c2-6.3-2.8-11.9-1.2-12.3c1.8-0.3,8.4,0.3,9.6,1.5c1.2,1.2,9.7-1,8.9-5.3c-0.8-4.3,5.6-7,10.6-3.8
	c5.1,3.1,5.5,18.9,9.4,17.9c4-0.8,10.7,2.7,16.5,6.5c3.6,2.3,47.1,3.5,45.4,10.4c-0.3,1.7-5,12.3-11.4,14.6
	c-4.3,1.7-9.6-8.4-14.7-8.6c-8.3,0-16.5,9.3-21.3,10.3c-0.5,0.2-2.8,5.3-5.8,6.1c-2.1,0.5-4.6,3.3-6.8,2.8c-2.6-0.7-4.8-4.5-4.8-4.5
	s-7.9,8.9-10.2,5.5C205.4,632.5,205.5,627.2,205.5,627.2z"/>
<linearGradient id="SVGID_17_" gradientUnits="userSpaceOnUse" x1="253.9344" y1="472.8387" x2="253.9344" y2="609.4407" gradientTransform="matrix(1 0 0 -1 0 1069.8898)">
	<stop  offset="0" style="stop-color:#79BBDF;stop-opacity:0.69"/>
	<stop  offset="1" style="stop-color:#153E54;stop-opacity:0.78"/>
</linearGradient>
<path class="st16" d="M86.8,555.2c0,0-7.8,8,4.5,17.1c12.3,9.1,25.3,20.6,30.1,10c4.8-10.6,8.3-14.8,13.1-11.1
	c5,3.7,13.7,6.2,16.7,1.3c2.8-4.7-5.1-9.5,4.3-10.3c9.4-0.8,9.4,5.8,17.2,5.5c7.6-0.3,8.3-4.7,10.8-6c2.3-1.5,11.3,1.7,17.5-0.7
	c6.3-2.3,9.4-0.8,11.4,3.5c2.2,4.3,8.1,7.5,13.6,8.2c5.3,0.8,11.3,8.7,13.7,10.5c2.5,1.8,12.3,5.8,15.4-0.7
	c3.1-6.5,10.1-9.8,13.1-7.2c2.8,2.7,15.2,7.3,20.9,14.1c5.6,6.7,16.7,1,19.9,5.8c3.1,4.8,13.7,14.1,20.5,15.8
	c6.8,1.8,25.5,0.5,28.5-8.5c3-9-3.6-19.8,11.1-16.1c14.7,3.7,66.7,9,72.3,1.3c5.5-7.5-0.8-24.1-9.4-28.8c-8.6-4.5-29-6.2-19.2-17.8
	c9.9-11.6,15.7-22.1,12.7-30.9c-3-8.8-9.9-13.8-30.3-16.1c-20.4-2.3-57.3,3.8-73,7.3c-15.7,3.5-16.4-7.2-18.7-13
	c-2.5-5.8-28.5-10.1-51.5-13.1c-23-3.2-33.3,14.6-49.8,16.6c-16.6,1.8-61.1-14.6-65.6-13.5c-4.5,1.2-14.4,9.1-14.4,15.6
	c0.2,6.7-5.1,5.5-16.7,6.7c-11.6,1.2-20.2,4.3-18.9,12.8c1.5,8.7-6.8,9.1-14.2,15.3c-7.4,6.2-12.4,6.5-1.8,12.5
	c10.6,6,9.9,10.3,5.1,13.5C70.4,558.2,86.8,555.2,86.8,555.2z"/>
<linearGradient id="SVGID_18_" gradientUnits="userSpaceOnUse" x1="628.2582" y1="524.0598" x2="628.2582" y2="598.9288" gradientTransform="matrix(1 0 0 -1 0 1069.8898)">
	<stop  offset="0" style="stop-color:#79BBDF;stop-opacity:0.69"/>
	<stop  offset="1" style="stop-color:#153E54;stop-opacity:0.78"/>
</linearGradient>
<path class="st17" d="M669.1,544.8c0,0,3.8,5.2-7,1.7c-10.8-3.5-4.5,0.3-9.4,2.2c-4.8,1.8-13.4-0.8-14.7-3.8c-1.3-3-7-1.7-11.3,2.7
	c-4.3,4.3-7-4.3-14.9-7.2c-8-2.8-12.6-9-24.2-7.7c-11.6,1.3-16.6,2.5-20.9-1.8c-4.3-4.3,1.8-12.3-9.3-14.5c-11.1-2-13.8-2.2-15.4-9
	c-1.7-7-22.4-8.2,4.8-16.5c27.2-8.3,21.5-15.7,42.1-9.8c20.5,5.8,23.5,4.5,34.8,1.8c11.3-2.7,17.9-5.5,20.7,0.5
	c2.7,6,16.6,6.2,27.3,3.7c10.6-2.5,16.7-5.2,19.9,0c3.1,5.2,3.5,20.5,15.9,26.1c12.6,5.7,19.1,16.8,14.9,21.8
	c-4.1,5-16.9,18.7-20.4,14.7c-3.5-3.8-10.1-12.3-12.1-0.5C687.9,561,671.5,547.5,669.1,544.8z"/>
<linearGradient id="SVGID_19_" gradientUnits="userSpaceOnUse" x1="194.069" y1="789.6403" x2="194.069" y2="580.7292" gradientTransform="matrix(1 0 0 -1 0 1069.8898)">
	<stop  offset="0" style="stop-color:#79BBDF;stop-opacity:0.69"/>
	<stop  offset="1" style="stop-color:#153E54;stop-opacity:0.78"/>
</linearGradient>
<path class="st18" d="M293.2,339.6c-9.4-0.2-10.8,2-11.6,5.5c-0.7,3.5-16.1-0.3-16.7,2.3c-0.7,2.6-7.3,2-13.9,0.8
	c-6.6-1.2-0.3-4.3,0-9.3c0.3-5-1-11.1-5-7.8c-3.8,3.5-2.5,8.6-9.1,7.4c-6.6-1.2-13.6-1.7-15.1-5.5c-1.3-3.8-8.8-6.1-14.4-8.1
	c-5.6-2-1.8-16.5-6-24.6c-4.1-8.1-12.3-15-19.2-13.4c-7,1.5-5.6,6.6-7.3,4.6c-1.8-2-4.1-3.5-9.8,0c-5.5,3.3-8.9,3.3-10.4,2.1
	c-1.3-1.2-7.3,0.3-10.4,4.6c-3.1,4.3-8.1,4.3-12.6,5.8c-4.5,1.5-15.4,4.3-19.5-5.8c-4.1-9.9-6.3-9.3-8.4-9.6
	c-2.2-0.3-8.1,4.6-8.4-1.5c-0.3-6.1-9.1-9.6-11.3-3.8c-2.2,5.8-13.3,2.3-16.7-1.5c-3.5-3.8-9.1-1.5-14.7,4.6c-5.6,6.1-6,8.8-6,8.8
	c-21.4,11.1-4.5,20.3-13.3,28.1c-8.8,7.8-13.3,37.7-16.1,40c-2.8,2.3-6.6,0-8.8,2.3c-2.2,2.3-6,4.3-5.6,8.8c0.2,2.5-2,4.3-4.1,5.5
	v83H384l5.5-7.1C387.6,457.2,349,340.1,293.2,339.6z"/>
<linearGradient id="SVGID_20_" gradientUnits="userSpaceOnUse" x1="797.3305" y1="753.0048" x2="797.3305" y2="595.6508" gradientTransform="matrix(1 0 0 -1 0 1069.8898)">
	<stop  offset="0" style="stop-color:#79BBDF;stop-opacity:0.69"/>
	<stop  offset="1" style="stop-color:#153E54;stop-opacity:0.78"/>
</linearGradient>
<path class="st19" d="M1069.7,464.5c-1-0.8-2-3-3-6.6c-2.5-10.1-3.8-12.7-8.8-10.7c-4.9,2-5.3,0.8-6.3-7.8
	c-1-8.4-8.8-20.8-19.3-21.6c-10.6-0.8-17.2-10.1-27.6-18.8c-10.6-8.9-10.1-21.6-35.4-30.4c-25.3-8.9-10.9,7.8-21.7,21.6
	c-10.9,13.9-13.7,2.6-15.7-1.5c-2.2-4.3-4.6-2-5.3,0c-0.7,2-1,11.6-7.3,3.1s-6.3-4.6-6.6-3.1c-0.3,1.5-10.9,5.5-15.7-2.3
	c-5-7.8-9.1-1.5-27.3,5.5c-18.2,6.9-14.7,10.7-14.7,1.5c0-9.3-6.6-6.9-16.5-8.9c-9.8-2-18.5,13-19.7,5.5c-1-7.8-15.7,0-14.7-2
	c1-2-2.5-13.9-6.6-19.3c-4.1-5.5-3.8-3.1-5.9-1.2c-2.1,2-1,12.4-8.1,17.7c-6.9,5.5-12.6,2-12.6-0.8c0-2.6-7.8-17-14.4-20
	c-6.6-3.1-7.3-13.9-12.9-14.7c-5.6-0.8-5.9,11.6-8.1,15c-2.1,3.5-5.3,2-6.3-5c-1-6.9-9.4-6.9-15.4-6.9c-5.9,0-8.8-4.6-15-13.1
	c-6.3-8.4-12.6-5.8-27.3,0c-14.7,5.8-19.7,5.8-31.2,5c-11.6-0.8-10.9,2.3-16,4.3c-5.3,2-4.6-1.2-10.9,0c-6.3,1.2-1.3,15.9-4.6,12.4
	c-3.1-3.5-13.7-6.1-21-6.6c-7.3-0.3-15.7,3.5-24.1,4.6c-8.4,1.2-10.6,3.8-16.5,10.4c-5.9,6.6-8.1,14.2-14,21.1
	c-2.1,2.5-5.1,5.5-8.3,7.9v65.7H1069.7z"/>
<linearGradient id="SVGID_21_" gradientUnits="userSpaceOnUse" x1="273.67" y1="248.4557" x2="273.67" y2="378.4908" gradientTransform="matrix(1 0 0 -1 0 1069.8898)">
	<stop  offset="0" style="stop-color:#79BBDF;stop-opacity:0.69"/>
	<stop  offset="1" style="stop-color:#153E54;stop-opacity:0.78"/>
</linearGradient>
<path class="st20" d="M546,835.5c-1-0.8-2-3-3-6.6c-2.5-10.1-3.8-12.7-8.8-10.7c-5,2-5.3,0.8-6.3-7.8c-1-8.4-8.8-20.8-19.3-21.6
	c-10.6-0.8-17.2-10.1-27.6-18.8c-10.6-8.9-10.1-21.6-35.4-30.4c-25.3-8.9-10.9,7.8-21.6,21.6c-10.9,13.9-13.7,2.6-15.7-1.5
	c-2.1-4.3-4.6-2-5.3,0s-1,11.6-7.3,3.1c-6.3-8.4-6.3-4.6-6.6-3.1c-0.3,1.5-10.9,5.5-15.7-2.3c-5-7.8-9.1-1.5-27.3,5.5
	c-18.2,6.9-14.7,10.7-14.7,1.5c0-9.3-6.6-6.9-16.5-8.9c-9.8-2-18.5,13.1-19.7,5.5c-1-7.8-15.7,0-14.7-2c1-2-2.5-13.9-6.6-19.3
	c-4.1-5.5-3.8-3.1-5.9-1.2c-2.1,2-1,12.4-8.1,17.7c-6.9,5.5-12.6,2-12.6-0.8c0-2.6-7.8-17-14.4-20c-6.6-3.1-7.3-13.9-12.9-14.7
	c-5.6-0.8-5.9,11.6-8.1,15c-2.1,3.5-5.3,2-6.3-5c-1-6.9-9.4-6.9-15.4-6.9c-5.9,0-8.8-4.6-15-13c-6.3-8.4-12.6-5.8-27.3,0
	c-14.7,5.8-19.7,5.8-31.2,5c-11.6-0.8-10.9,2.3-16,4.3c-5.3,2-4.6-1.2-10.9,0c-6.3,1.2-1.3,15.9-4.6,12.4c-3.1-3.5-13.7-6.1-21-6.6
	c-7.3-0.3-15.7,3.5-24.1,4.6c-8.4,1.2-10.6,3.8-16.5,10.4c-5.9,6.6-8.1,14.2-14,21.1c-2.1,2.5-5.1,5.5-8.3,7.9v65.7H546z"/>
<linearGradient id="SVGID_22_" gradientUnits="userSpaceOnUse" x1="759.1714" y1="468.9408" x2="759.1714" y2="545.1227" gradientTransform="matrix(1 0 0 -1 0 1069.8898)">
	<stop  offset="0" style="stop-color:#79BBDF;stop-opacity:0.69"/>
	<stop  offset="1" style="stop-color:#153E54;stop-opacity:0.78"/>
</linearGradient>
<path class="st21" d="M657,533.2c1.3,9.3-2.6,19.7,1.5,23.2c4.1,3.5,26.4,10.1,30.4,6.6c4-3.5,17.5-9.1,22.1-4.6
	c4.8,4.6,9.9,14.6,17.3,10.8c7.4-3.8,19.3,1.2,27.3,9.6c7.9,8.5,16,1.5,29.4-15.4c0,0-2.6,35.3,2.8,43.8
	c5.6,8.5,24.8-13.1,24.8-13.1s5,9.5,11.4,11c5,1.2,10.9-5.5,16.2-6.8c6.9-1.8,12.7-14.1,13.9-14.6c1.2-0.5-2.8-9.3-0.3-20.2
	c2.3-9.8,6.8-21.6,8.1-30.5H657C657,532.9,657,533,657,533.2z"/>
<linearGradient id="SVGID_23_" gradientUnits="userSpaceOnUse" x1="19.7352" y1="525.0258" x2="19.7352" y2="572.3118" gradientTransform="matrix(1 0 0 -1 0 1069.8898)">
	<stop  offset="0" style="stop-color:#79BBDF;stop-opacity:0.69"/>
	<stop  offset="1" style="stop-color:#153E54;stop-opacity:0.78"/>
</linearGradient>
<path class="st22" d="M23,550c6-9.4,14.4-24.2,13.8-30.6c-0.7-10.1-29.1-1-29.1-1s0.3-10.8-4.6-15.2c-0.2-0.2-0.3-0.3-0.5-0.5v47.2
	H23V550z"/>
<linearGradient id="SVGID_24_" gradientUnits="userSpaceOnUse" x1="87.4954" y1="502.0408" x2="87.4954" y2="604.4927" gradientTransform="matrix(1 0 0 -1 0 1069.8898)">
	<stop  offset="0" style="stop-color:#79BBDF;stop-opacity:0.69"/>
	<stop  offset="1" style="stop-color:#153E54;stop-opacity:0.78"/>
</linearGradient>
<path class="st23" d="M0,564.6c2.3,2,5.1,3.6,8.4,4.1c3.1,0.5,6.8-3.6,10.6-4.1c4.1-0.5,9.9,6.4,14.9,7.9c3.3,1,6.3-4.1,8.1-2.8
	c4.5,3.3,1.7,7,4.3,8.5c5.5,2.8,9.1-2.6,16.9-10.3c3.5-3.4,7.8,3.6,11.9,1.3c1-0.5,2.8-7.5,4.6-8.5c2.1-1.1,4.5,3.8,5.5,2.5
	c2.8-3.8,1.2-7.5,3-6.4c3.6,2.3,2.3-3.4,6.3-7.2c2.1-2,8.6-0.3,11.4-3.1c5.1-5.1,7.8-12.1,14-15.1c3.8-1.8,8.8,0.7,16.5-1.6
	c20.5-5.9,11.9-9,30.4-30.2c18.7-21.1,0.5-11.3-4.6-16.2c-5-4.9-7.3-3.6-17.7,0.5c-10.4,4.1-9.6-5.9-15.5-7.2
	c-5.9-1.3-9.6,2.3-18.7,9.5c-9.1,7.2-16.4,4.6-24.6,6.4c-8.3,1.8-15-4.1-16.4,1.8c-1.3,5.9-5.5,10-8.3,8.2
	c-2.8-1.8-11.4,0.5-14.5,4.6c-3.1,4.1,4.1,4.1-6.8,6.7c-10.9,2.8-5,4.9-5,4.9c-3.6-1-24.6-3.6-20,7.2c4.6,10.8-5.5,7.2-10.4,5.9
	c-1.7-0.5-3,1.1-4.3,3.6V564.6z"/>
<linearGradient id="SVGID_25_" gradientUnits="userSpaceOnUse" x1="523.658" y1="685.8248" x2="523.658" y2="518.8378" gradientTransform="matrix(1 0 0 -1 0 1069.8898)">
	<stop  offset="0" style="stop-color:#79BBDF;stop-opacity:0.69"/>
	<stop  offset="1" style="stop-color:#153E54;stop-opacity:0.78"/>
</linearGradient>
<path class="st24" d="M754.5,512.4c-2.8-3,2.1-42,6.3-44.9c21.8-16.9-2.6-27.9-6.3-34.5c-3.5-6.6-2.5-1.2-3.1,3.5
	c-0.7,4.6-1.8,5.9-2.8-1.5c-1-7.4-1.5-9.4-3.3-7.9c-1.8,1.5-2,0.5-2.3-5.8c-0.3-6.3-3.3-15.4-7.3-16c-4-0.5-6.4-7.4-10.4-14
	c-4-6.6-3.8-16-13.2-22.5c-9.4-6.6-4.1,5.8-8.1,16c-4.1,10.2-5.1,2-5.9-1.2c-0.8-3.1-6.8-1-7.3,0c-1.5,2.8-4.1,4-5.9-1.7
	c-1.8-5.8-3.5-1.2-10.2,4c-6.8,5.1-5.5,7.9-5.5,1.2c0-6.8-19.5-2.6-19-4c0.3-1.5,1.8-2.6,0.2-6.8c-1.7-4-4-1.2-4.8,0.3
	s-0.5,0.5-3.1,4.5c-2.6,4-4.8,1.5-4.8-0.5c0-2,2.3-13.2-0.2-15.4c-2.5-2.3-5.9-4.1-8.1-4.8c-2.1-0.5-7.1,7.1-7.4,1.8
	c-0.3-5.1-3.5-5.1-5.8-5.1c-2.3,0-3.3-3.5-5.6-9.7c-2.3-6.3-4.8-4.3-10.2,0c-5.5,4.3-7.4,4.3-11.7,3.6c-4.3-0.5-4.1,1.7-6.1,3.1
	s-1.7-0.8-4.1,0c-2.3,0.8-0.5,11.7-1.7,9.1c-1.2-2.6-5.1-4.6-7.9-4.8c-2.8-0.3-5.9,2.6-9.1,3.5c-3.1,0.8-4,2.8-6.1,7.8
	c-2.3,4.8-5.1,9.7-7.4,14.9c-2.3,5.1-7.3,7.1-7.8,4.5c-0.5-2.6-6.8,5.1-9.1,4.3c-2.3-0.8-5.1,4.6-6.9,5.5c-1.8,0.8-3.3,0-3.1,4
	c0.2,4-6.3,6.9-6.8,9.6c-1.2,5.6,0.8,3.1-2.1,2.8c-3-0.3-6.6,5.3-10.1,5.3c-3.5,0-4.1,1.5-4.3,4c-0.3,2.6-6.1-0.3-6.3,1.7
	c-0.3,2-2.8,1.5-5.3,0.5c-2.5-0.8-2.3,0.3-2.1-3.3c0.2-3.6-4.1-0.3-5.4,2.1c-1.5,2.6,1.5,4.5-1,3.6c-2.5-0.8-3.1,0.7-3.8-2.1
	c-0.5-2.8-1.7,0.3-3.8-1.2c-2.1-1.5,3.5-3.1,2-9.3c-1.7-5.9-4.6-11.1-7.3-9.9c-2.6,1.2-2.1,4.8-2.8,3.5c-0.7-1.5-7.1,2.6-7.6,1.7
	c-0.5-0.8-2.8,0.3-4,3.5c-1.2,3.1-7.4,12.1-9.1,13.2c-1.7,1.2-2.5-0.7-4.1-8.1c-1.7-7.4-4.3-7.9-5.1-8.3c-0.8-0.3-7.9-3.3-8.8,1
	c-0.8,4.3-5,1.7-6.3-1.2c-1.3-2.8-3.5-1.2-5.5,3.5c-2.1,4.6-2.3,6.6-2.3,6.6c-8.1,8.3-6.4-1.3-9.7,4.3c-3.3,5.8-10.1,1-11.2,2.6
	c-1,1.7-5.6,1-6.4,2.6c-0.8,1.7-9.1,5.8-8.9,9.3c0.2,3.5,17.2,10.4,16.4,10.1c-0.8-0.3-4-0.3-4.5,3c-0.5,3.3-2.8,0.3-3.5,0.2
	c-0.7-0.3-3,0-3.8,2c-1,2-1.3,5.1-2.3,5.8c-1,0.5-1.5,1.5-1,3.6c0.3,2.1-0.3,2.1-1,5.3c-0.7,3.1-1.7,2.6-4.5,2.6
	c-2.8,0-6.1-4.6-6.3-3.1c-0.3,1.5-2.3,3.6-2.8,4.5c-0.5,0.8-1.7,1.2-2,0.3c-0.3-0.8-2.8,1.5-3,3.6c-0.3,2.3-1.5,1.5-1.5,1.5
	s-2.8,0-3.5,2.1c-0.7,2.1-2.6,1.3-4.1,0.5c-1.7-0.8-2.1-0.3-5.1,0c-3,0.3-5.3,4.6-5.3,4.6c-0.5,0.8-1.5,1.7-2-4.5
	c-0.2-1.5-6.3-3.6-10.9,0c-1.5,1.2-1,4.3-1.5,8.8c-0.3,3.1-3.8,1.7-3.8,1.7c-3.5-1.5-5.9-2-14.2,8.4c-8.3,10.6-10.4,19.5-20.8,24
	c-9.9,4.3,12.9,10.4,16.8,34.9h435.9c3.8-8.8,6.3-17.8,15.9-24.4C775.1,518.4,757.3,515.4,754.5,512.4z"/>
<linearGradient id="SVGID_26_" gradientUnits="userSpaceOnUse" x1="797.9865" y1="525.8777" x2="797.9865" y2="581.0447" gradientTransform="matrix(1 0 0 -1 0 1069.8898)">
	<stop  offset="0" style="stop-color:#79BBDF;stop-opacity:0.69"/>
	<stop  offset="1" style="stop-color:#153E54;stop-opacity:0.78"/>
</linearGradient>
<path class="st25" d="M857.6,544c-0.8-6,1.5-12.9-0.8-15.1c-2.5-2.3-15.4-6.6-17.7-4.3c-2.3,2.3-10.1,6-12.9,3
	c-2.8-3-5.8-9.4-10.1-7c-4.3,2.5-11.3-0.8-15.9-6.3c-4.6-5.6-9.3-1-17.1,10.1c0,0,1.5-23-1.7-28.5c-3.1-5.5-14.4,8.4-14.4,8.4
	s-2.8-6.1-6.6-7.1c-3-0.7-6.3,3.6-9.4,4.5c-4,1.2-7.5,9.3-7.9,9.6c-0.7,0.3,1.7,6.1,0.2,13.2c-1.8,8.6-5.8,19.4-5,25.3h114.3
	C855.5,547.5,857.9,545.8,857.6,544z"/>
<linearGradient id="SVGID_27_" gradientUnits="userSpaceOnUse" x1="509.5216" y1="469.7947" x2="510.3536" y2="569.8297" gradientTransform="matrix(1 0 0 -1 0 1069.8898)">
	<stop  offset="0" style="stop-color:#79BBDF;stop-opacity:0.69"/>
	<stop  offset="1" style="stop-color:#153E54;stop-opacity:0.78"/>
</linearGradient>
<path class="st26" d="M322.8,540.7c3,8.4-5.8,10.2-12.9,17.4c-6.9,7.2-12.2,8.4,0,12.7c12.2,4.4,12.2,8.7,7.6,12.7
	c-4.6,4,12.2-1.5,12.2-1.5s-6.9,9,7.6,16.4c14.7,7.2,30.4,16.7,33.9,5.5c3.5-11.2,6.4-15.9,12.2-13.1c5.8,2.8,15.9,4,18.2-1.2
	c2.3-5-6.9-8.7,3-10.9c9.9-2.2,11.1,4.4,19.3,2.8c8.3-1.5,8.3-5.9,10.6-7.7c2.3-1.8,12.2,0,18.7-3.3c6.4-3.4,9.9-2.2,12.9,1.8
	c3,4,9.9,6.2,15.9,6.2c5.8,0,13.4,6.9,16.4,8.4c3,1.5,14.1,4,16.4-2.8c2.3-6.9,9.4-11.2,12.9-9c3.5,2.2,17.5,5,24.6,10.9
	c6.9,5.9,18.2-1.5,22.3,2.8c4.1,4.4,17,11.9,24.6,12.7c7.6,0.7,27.4-3.2,29.3-12.7c1.8-9.4-6.9-19.3,9.4-17.8
	c16.4,1.5,73.2-1,77.9-9.4c4.6-8.4-4.6-24-14.7-27.3c-8.3-2.7-25.3-2.2-25.5-9.5H341.4c-0.2,0-0.3,0-0.5,0.2
	C328.6,528,319.9,532.3,322.8,540.7z"/>
<linearGradient id="SVGID_28_" gradientUnits="userSpaceOnUse" x1="840.0906" y1="362.2988" x2="840.0906" y2="279.5488" gradientTransform="matrix(1 0 0 -1 0 1069.8898)">
	<stop  offset="0" style="stop-color:#79BBDF;stop-opacity:0.69"/>
	<stop  offset="1" style="stop-color:#153E54;stop-opacity:0.78"/>
</linearGradient>
<path class="st27" d="M1027.1,766c-3-8.2,5.8-10.1,12.9-17.1c6.9-7.1,12.2-8.2,0-12.5c-12.2-4.3-12.2-8.6-7.6-12.5
	c4.6-4-12.2,1.5-12.2,1.5s7-8.9-7.6-16.2c-14.7-7.1-30.4-16.5-33.9-5.4c-3.5,11-6.4,15.7-12.2,12.9c-5.8-2.8-15.9-4-18.2,1.2
	c-2.3,4.9,6.9,8.6-3,10.7c-9.9,2.1-11.1-4.3-19.4-2.8c-8.3,1.5-8.3,5.8-10.6,7.6c-2.3,1.8-12.2,0-18.7,3.3
	c-6.5,3.3-9.9,2.1-12.9-1.8c-3-4-9.9-6.1-15.9-6.1c-5.8,0-13.4-6.8-16.4-8.2c-3-1.5-14.1-4-16.4,2.8c-2.3,6.8-9.4,11-12.9,8.9
	s-17.5-4.9-24.6-10.7c-6.9-5.8-18.2,1.5-22.3-2.8c-4.1-4.3-17-11.7-24.6-12.5c-7.6-0.7-27.4,3.1-29.3,12.5c-1.8,9.2,6.9,19-9.4,17.5
	c-16.4-1.5-73.2,1-77.9,9.2c-4.6,8.2,4.6,23.6,14.7,26.9c8.3,2.6,25.3,2.1,25.5,9.4l334.3,0c0.2,0,0.3,0,0.5-0.2
	C1021.3,778.6,1030.1,774.3,1027.1,766z"/>
<linearGradient id="SVGID_29_" gradientUnits="userSpaceOnUse" x1="169.7282" y1="416.5348" x2="169.7282" y2="604.3627" gradientTransform="matrix(1 0 0 -1 0 1069.8898)">
	<stop  offset="0" style="stop-color:#79BBDF;stop-opacity:0.69"/>
	<stop  offset="1" style="stop-color:#153E54;stop-opacity:0.78"/>
</linearGradient>
<path class="st28" d="M8.4,652.9c5.8,5.6,15.5,7.6,17.8-2.2c2.3-9.8-6.9-16.8,2.8-20.9c9.9-4.1,11.1,8.3,19,5.6
	c8.1-2.8,8.1-11.1,10.4-14.6c2.3-3.5,12.1,0,18.5-6.3c6.3-6.3,9.7-4.1,12.7,3.5c2.8,7.6,9.7,11.8,15.5,11.8
	c5.8,0,13.2,13.3,16.2,15.9c3,2.8,13.9,7.6,16.2-5.6c2.3-13.3,9.3-21.6,12.7-17.4c3.5,4.1,17.3,9.8,24.3,20.9
	c6.9,11.1,17.8-2.8,22,5.6c1.7,3.5,11.2,5.5,14.9,9.8c5.1,6,5.1,13.8,9.4,14.6c3.5,0.7,9.3-18.1,14.9-21.4c6.8-3.8,13.1,7,14-3
	c1.7-18.1-6.9-36.8,9.3-34c8.1,1.3,26.1,15.9,42.8,13.1c8.1-1.3,7.4-9.1,13.5-15.4c3.5-3.7,9.1,3.3,13.4,0.5
	c3.6-2.3,6.6-14.4,7.1-16.3c1.5-5.1,5.9-14.4,4.6-25.1c-0.5-4.6-7.3-9.5-7.3-14.4c0-6.1-5.8-12.3-5.5-17.8
	c0.8-11.4,7.9-20.4,4.3-22.7c-9.7-6.3-25.3,10-33.9-0.7c-7.4-9.3-4.8-20.2-0.5-31H-1.3v179.2C1.3,652.9,4,648.6,8.4,652.9z"/>
<linearGradient id="SVGID_30_" gradientUnits="userSpaceOnUse" x1="944.0323" y1="525.1678" x2="944.0323" y2="573.7668" gradientTransform="matrix(1 0 0 -1 0 1069.8898)">
	<stop  offset="0" style="stop-color:#79BBDF;stop-opacity:0.69"/>
	<stop  offset="1" style="stop-color:#153E54;stop-opacity:0.78"/>
</linearGradient>
<path class="st29" d="M1000.7,544.5c-11.6-1.3-14.7-8.2-21.8-12.8c-7.1-4.4-7.8-13.3-12.9-10.2s-10.9,3.1-11.5,0s-8.3-7.7-13.4-7.1
	c-5.1,0.7,0,5.8-9.6,0c-9.6-5.8-7.1,0-7.1,0c-2-3.1-14.7-19.8-19.2-8.9c-4.4,10.9-8.9,1.3-11.5-3.1c-2.5-4.4-18,5.8-23.1,9.5
	c-5.1,3.8-1.3,16,9.6,24.2c5,3.8,6.9,8.9,7.9,13.8h131.6C1016.7,545.7,1011.4,545.7,1000.7,544.5z"/>
<linearGradient id="SVGID_31_" gradientUnits="userSpaceOnUse" x1="945.3467" y1="479.5048" x2="945.3467" y2="543.8658" gradientTransform="matrix(1 0 0 -1 0 1069.8898)">
	<stop  offset="0" style="stop-color:#79BBDF;stop-opacity:0.69"/>
	<stop  offset="1" style="stop-color:#153E54;stop-opacity:0.78"/>
</linearGradient>
<path class="st30" d="M843.5,540.8c-3.1,2.5,2.2,4.9-0.5,7.1c-5.8,4.8-18.2,8.7-18.4,11.3c-0.5,8.2-8,18.9-3.5,21
	c1.8,1,3.3,5.8,9.6,4.3c4.6-1.1,13.9-8.5,18.2-9c4-0.5,7.3,5.1,8.9,3.8c6-4.3,24.2-12.7,29.2-9.5c5,3.1,9.1,11.2,19.4,5.9
	s24.2-3.4,32.3,2.6c5.1,3.8,5.5,1.8,15.1-4.9c1.5-1.1,4.8,3.9,8.1,2.6c3-1.2,5.8-8.7,7.5-10c3.1-2.6,6-6.6,10.1-4.8
	c0,0,1.2,4.4-1.2,13.6c-2.3,9-8,18.7-5.5,21.9c2.3,3,5.8-3.9,13.3-6.9c3.5-1.3,11.1,3.1,13.9,1c4.3-3.3,7.3-12,7.3-12
	s4,7.7,11.8,7.4c6.1-0.2,15.1-7.6,22-10c9.3-3.3,19.6-16.1,20.9-16.8c1.5-0.8-1.5-7.9,4.5-18.7c1.3-2.5,3-5.1,4.5-7.7H856.9
	c-0.3,0.8-0.8,1.6-1.5,2.3C853.9,537.3,845.6,539.1,843.5,540.8z"/>
<linearGradient id="SVGID_32_" gradientUnits="userSpaceOnUse" x1="216.4363" y1="195.7308" x2="216.4363" y2="130.0568" gradientTransform="matrix(1 0 0 -1 0 1069.8898)">
	<stop  offset="0" style="stop-color:#79BBDF;stop-opacity:0.69"/>
	<stop  offset="1" style="stop-color:#153E54;stop-opacity:0.78"/>
</linearGradient>
<path class="st31" d="M318.3,924.8c3.1-2.5-2.2-5,0.5-7.2c5.8-4.9,18.2-8.9,18.4-11.6c0.5-8.4,8-19.3,3.5-21.5
	c-1.8-1-3.3-5.9-9.6-4.4c-4.6,1.2-13.9,8.7-18.2,9.2c-4,0.5-7.3-5.2-8.9-3.9c-6,4.4-24.2,12.9-29.2,9.7c-5-3.2-9.1-11.4-19.4-6
	c-10.3,5.4-24.2,3.5-32.3-2.7c-5.1-3.9-5.5-1.8-15.1,5c-1.5,1.2-4.8-4-8.1-2.7c-3,1.2-5.8,8.9-7.5,10.2c-3.1,2.7-6,6.7-10.1,4.9
	c0,0-1.2-4.5,1.2-13.9c2.3-9.2,8-19.1,5.5-22.3c-2.3-3-5.8,4-13.3,7c-3.5,1.3-11.1-3.2-13.9-1c-4.3,3.4-7.3,12.2-7.3,12.2
	s-4-7.9-11.8-7.5c-6.1,0.2-15.1,7.7-22,10.2c-9.3,3.4-19.6,16.4-20.9,17.1c-1.5,0.8,1.5,8-4.5,19.1c-1.3,2.5-3,5.2-4.5,7.9h214.1
	c0.3-0.8,0.8-1.7,1.5-2.3C307.9,928.3,316.1,926.5,318.3,924.8z"/>
<linearGradient id="SVGID_33_" gradientUnits="userSpaceOnUse" x1="802.5919" y1="549.8828" x2="802.5919" y2="595.8547" gradientTransform="matrix(1 0 0 -1 0 1069.8898)">
	<stop  offset="0" style="stop-color:#79BBDF;stop-opacity:0.69"/>
	<stop  offset="1" style="stop-color:#153E54;stop-opacity:0.78"/>
</linearGradient>
<path class="st32" d="M805.3,511.1c-5.4,2.5-8.4,3.2-9.2,0c-0.8-3.2-3.1-6-5.4-6c-2.3,0-2.3-3.2-3-5s-4.6-2.2-6.1-1.8
	c-1.5,0.3-6.1-4.2-6.6-5.7c-0.7-1.3,1.8-3.5,2.6-6c0.8-2.5,6.6-9.5,11-7.3c4.3,2.2,6.9,13.7,10,10.5s2-8.2,3.1-7.7
	c1.2,0.3,4.9,2.8,5.3,3.8c0.3,1,6.1,2.5,6.9-0.3c0.8-2.8,5.4-2.5,7.6,1c2,3.5-2.6,13,0,13.7c2.6,0.7,5.6,5,7.9,9.2
	c2.3,4.2-1,15.5-9.5,15.5c-0.8,0-6.4-6.7-11.2-6.7c-4.8,0-7.9,6.7-8.1,3.8C800.1,519.5,805.3,511.1,805.3,511.1z"/>
<linearGradient id="SVGID_34_" gradientUnits="userSpaceOnUse" x1="1034.1621" y1="539.3568" x2="1034.1621" y2="585.3287" gradientTransform="matrix(1 0 0 -1 0 1069.8898)">
	<stop  offset="0" style="stop-color:#79BBDF;stop-opacity:0.69"/>
	<stop  offset="1" style="stop-color:#153E54;stop-opacity:0.78"/>
</linearGradient>
<path class="st33" d="M1031.5,503.4c5.4-2.5,8.4-3.2,9.2,0c0.8,3.2,3.1,6,5.4,6c2.3,0,2.3,3.2,2.8,4.8c0.7,1.8,4.6,2.2,6.1,1.8
	c1.5-0.3,6.1,4.2,6.6,5.7c0.7,1.3-1.6,3.5-2.6,6c-0.8,2.5-6.6,9.5-11,7.3c-4.3-2.2-6.9-13.7-10.1-10.5c-3.1,3.2-2,8-3.1,7.7
	c-1.1-0.3-4.9-2.8-5.3-3.8c-0.3-1-6.1-2.5-6.9,0.3c-0.8,2.8-5.4,2.5-7.6-1c-2-3.5,2.6-13,0-13.7s-5.6-4.8-7.8-9.2
	c-2.3-4.2,1-15.5,9.6-15.5c0.8,0,6.4,6.7,11.2,6.7c4.8,0,7.8-6.7,8.1-3.8C1036.8,494.9,1031.5,503.4,1031.5,503.4z"/>
<linearGradient id="SVGID_35_" gradientUnits="userSpaceOnUse" x1="686.8079" y1="593.3018" x2="686.8079" y2="639.2737" gradientTransform="matrix(1 0 0 -1 0 1069.8898)">
	<stop  offset="0" style="stop-color:#79BBDF;stop-opacity:0.69"/>
	<stop  offset="1" style="stop-color:#153E54;stop-opacity:0.78"/>
</linearGradient>
<path class="st34" d="M689.5,467.7c-5.4,2.5-8.4,3.2-9.2,0c-0.8-3.2-3.1-6-5.4-6c-2.3,0-2.3-3.2-3-5c-0.7-1.8-4.6-2.2-6.1-1.8
	c-1.5,0.3-6.1-4.2-6.6-5.7c-0.7-1.3,1.8-3.5,2.6-6c0.8-2.5,6.6-9.5,11-7.3c4.3,2.2,6.9,13.7,10,10.5s2-8.2,3.1-7.7
	c1.2,0.3,4.9,2.8,5.3,3.8c0.3,1,6.1,2.5,6.9-0.3c0.8-2.8,5.4-2.5,7.6,1c2,3.5-2.6,13,0,13.7c2.6,0.7,5.6,5,7.9,9.2
	c2.3,4.2-1,15.5-9.5,15.5c-0.8,0-6.4-6.7-11.2-6.7c-4.8,0-7.9,6.7-8.1,3.8C684.3,476.1,689.5,467.7,689.5,467.7z"/>
<linearGradient id="SVGID_36_" gradientUnits="userSpaceOnUse" x1="723.6483" y1="199.8998" x2="723.6483" y2="245.8727" gradientTransform="matrix(1 0 0 -1 0 1069.8898)">
	<stop  offset="0" style="stop-color:#79BBDF;stop-opacity:0.69"/>
	<stop  offset="1" style="stop-color:#153E54;stop-opacity:0.78"/>
</linearGradient>
<path class="st35" d="M726.4,861.1c-5.4,2.5-8.4,3.2-9.2,0c-0.8-3.2-3.1-6-5.4-6s-2.3-3.2-3-5c-0.7-1.8-4.6-2.2-6.1-1.8
	c-1.5,0.3-6.1-4.2-6.6-5.7c-0.7-1.3,1.8-3.5,2.6-6c0.8-2.5,6.6-9.5,11-7.3c4.3,2.2,6.9,13.7,10,10.5c3.1-3.2,2-8.2,3.1-7.7
	c1.2,0.3,4.9,2.8,5.3,3.8c0.3,1,6.1,2.5,6.9-0.3c0.8-2.8,5.4-2.5,7.6,1c2,3.5-2.6,13,0,13.7c2.6,0.7,5.6,5,7.9,9.2
	c2.3,4.2-1,15.5-9.5,15.5c-0.8,0-6.4-6.7-11.2-6.7c-4.8,0-7.9,6.7-8.1,3.8C721.1,869.5,726.4,861.1,726.4,861.1z"/>
<linearGradient id="SVGID_37_" gradientUnits="userSpaceOnUse" x1="399.3219" y1="557.7778" x2="399.3219" y2="603.7498" gradientTransform="matrix(1 0 0 -1 0 1069.8898)">
	<stop  offset="0" style="stop-color:#79BBDF;stop-opacity:0.69"/>
	<stop  offset="1" style="stop-color:#153E54;stop-opacity:0.78"/>
</linearGradient>
<path class="st36" d="M402.1,503.3c-5.6,2.5-8.6,3.2-9.4,0c-0.8-3.2-3.2-6-5.6-6c-2.4,0-2.4-3.2-3-5c-0.7-1.8-4.7-2.2-6.2-1.8
	c-1.5,0.3-6.2-4.2-6.7-5.7c-0.7-1.3,1.9-3.5,2.7-6c0.8-2.5,6.7-9.5,11.3-7.3c4.4,2.2,7.1,13.7,10.3,10.5c3.2-3.2,2-8.2,3.2-7.7
	c1.2,0.3,5.1,2.8,5.4,3.8c0.3,1,6.2,2.5,7.1-0.3c0.8-2.8,5.6-2.5,7.7,1c2,3.5-2.7,13,0,13.7c2.7,0.7,5.7,5,8.1,9.2s-1,15.5-9.8,15.5
	c-0.8,0-6.6-6.7-11.4-6.7s-8.1,6.7-8.3,3.8C396.7,511.8,402.1,503.3,402.1,503.3z"/>
<linearGradient id="SVGID_38_" gradientUnits="userSpaceOnUse" x1="543.394" y1="578.2997" x2="543.394" y2="607.1968" gradientTransform="matrix(1 0 0 -1 0 1069.8898)">
	<stop  offset="0" style="stop-color:#79BBDF;stop-opacity:0.69"/>
	<stop  offset="1" style="stop-color:#153E54;stop-opacity:0.78"/>
</linearGradient>
<path class="st37" d="M560.2,489.1c0,0,1.8,1.5-2.4,1.2c-4.2-0.3-1.5,0.5-3.2,1.7c-1.5,1-4.9,0.9-5.5,0c-0.7-1-2.7,0-3.7,2.1
	c-1.2,1.9-2.9-0.9-5.9-1.2c-3-0.3-5.4-2.1-9.2-0.5c-4,1.5-5.7,2.4-7.6,1.4c-1.8-1.2-0.5-4.6-4.5-4.3c-4.2,0.3-5,0.5-6.2-1.9
	s-8.7-0.9,0.2-6.4c8.9-5.5,6.2-7.7,14.1-7.4c7.9,0.2,8.7-0.5,12.6-2.6c3.7-2.1,5.9-3.6,7.4-1.7c1.5,1.9,6.4,0.7,10.1-1.2
	c3.5-1.9,5.4-3.4,7.1-1.9c1.7,1.5,3,7,8.1,8.1c5,0.9,8.2,4.3,7.2,6.5c-1,2.2-4.4,8.2-5.9,7.2c-1.7-1-4.7-3.4-4.4,0.9
	C568.5,493.2,561.4,489.8,560.2,489.1z"/>
<linearGradient id="SVGID_39_" gradientUnits="userSpaceOnUse" x1="389.4538" y1="442.3538" x2="389.4538" y2="467.3108" gradientTransform="matrix(1 0 0 -1 0 1069.8898)">
	<stop  offset="0" style="stop-color:#79BBDF;stop-opacity:0.69"/>
	<stop  offset="1" style="stop-color:#153E54;stop-opacity:0.78"/>
</linearGradient>
<path class="st38" d="M400.4,618.2c0,0,1.3,0.3-1,1.2c-2.3,0.8-0.7,0.7-1.3,1.7c-0.5,1-2.3,1.7-3,1.5c-0.7-0.3-1.3,0.7-1.5,2
	c-0.2,1.3-1.8,0.2-3.5,0.8c-1.7,0.7-3.3,0.3-5.1,2.2c-1.8,1.8-2.5,2.7-3.8,2.7c-1.3-0.2-1.5-2.3-3.5-1.2c-2.2,1.2-2.7,1.5-3.8,0.7
	c-1.2-1-4.8,1.8-1.5-3.5c3.5-5.2,1.5-5.7,5.6-7.5c4.3-1.8,4.6-2.5,6.1-4.5c1.5-2,2.3-3.5,3.5-2.8c1.3,0.7,3.6-1.3,5.1-3.2
	c1.5-1.8,2-3.2,3.3-2.8c1.3,0.5,3.5,3,6.3,2.2c2.8-0.8,5.5,0.2,5.5,1.5c0,1.3-0.3,5.5-1.3,5.4c-1.2-0.2-3.3-0.7-2.2,1.7
	C405.9,618.3,401.2,618.3,400.4,618.2z"/>
<linearGradient id="SVGID_40_" gradientUnits="userSpaceOnUse" x1="124.9932" y1="473.9318" x2="124.9932" y2="498.8878" gradientTransform="matrix(1 0 0 -1 0 1069.8898)">
	<stop  offset="0" style="stop-color:#79BBDF;stop-opacity:0.69"/>
	<stop  offset="1" style="stop-color:#153E54;stop-opacity:0.78"/>
</linearGradient>
<path class="st39" d="M136,586.8c0,0,1.3,0.3-1,1.2c-2.3,0.8-0.7,0.7-1.3,1.7c-0.5,1-2.3,1.7-3,1.3s-1.3,0.7-1.5,2
	c-0.2,1.3-1.8,0.2-3.5,0.8c-1.7,0.7-3.3,0.3-5.1,2.2c-1.8,1.8-2.5,2.7-3.8,2.7c-1.3-0.2-1.5-2.3-3.5-1.2c-2.2,1.2-2.7,1.5-3.8,0.7
	c-1.2-1-4.8,1.8-1.5-3.5c3.5-5.2,1.5-5.7,5.6-7.5c4.3-1.8,4.6-2.5,6.1-4.5c1.5-2,2.3-3.5,3.5-2.8c1.3,0.7,3.6-1.3,5.1-3.2
	c1.5-1.8,2-3.2,3.3-2.8c1.3,0.5,3.5,3,6.3,2.2c2.8-0.8,5.5,0.2,5.5,1.5s-0.3,5.5-1.3,5.4c-1.2-0.2-3.3-0.7-2.2,1.7
	C141.3,586.8,136.8,586.8,136,586.8z"/>
<linearGradient id="SVGID_41_" gradientUnits="userSpaceOnUse" x1="26.3139" y1="589.5737" x2="26.3139" y2="613.2158" gradientTransform="matrix(1 0 0 -1 0 1069.8898)">
	<stop  offset="0" style="stop-color:#79BBDF;stop-opacity:0.69"/>
	<stop  offset="1" style="stop-color:#153E54;stop-opacity:0.78"/>
</linearGradient>
<path class="st40" d="M37.1,471.5c0,0,1.3,0.3-1,1.1c-2.3,0.8-0.7,0.6-1.3,1.6c-0.5,1-2.3,1.6-3,1.4c-0.7-0.3-1.3,0.6-1.5,1.9
	c-0.2,1.3-1.8,0.2-3.5,0.8c-1.6,0.6-3.3,0.3-5.1,2.1c-1.8,1.7-2.5,2.5-3.8,2.5c-1.3-0.2-1.5-2.2-3.5-1.1c-2.1,1.1-2.6,1.4-3.8,0.6
	c-1.2-1-4.8,1.7-1.5-3.3c3.5-4.9,1.5-5.4,5.8-7.1c4.3-1.7,4.6-2.4,6.1-4.3c1.5-1.9,2.3-3.3,3.5-2.7c1.3,0.6,3.6-1.3,5.1-3
	c1.5-1.7,2-3,3.3-2.7c1.3,0.5,3.3,2.9,6.3,2.1c2.8-0.8,5.4,0.2,5.4,1.4c0,1.3-0.3,5.2-1.3,5.1c-1.2-0.2-3.3-0.6-2.1,1.6
	C42.6,471.5,38,471.5,37.1,471.5z"/>
<linearGradient id="SVGID_42_" gradientUnits="userSpaceOnUse" x1="1005.2162" y1="660.7648" x2="1005.2162" y2="685.7208" gradientTransform="matrix(1 0 0 -1 0 1069.8898)">
	<stop  offset="0" style="stop-color:#79BBDF;stop-opacity:0.69"/>
	<stop  offset="1" style="stop-color:#153E54;stop-opacity:0.78"/>
</linearGradient>
<path class="st41" d="M1016.2,399.9c0,0,1.3,0.3-1,1.2c-2.3,0.8-0.7,0.7-1.3,1.7c-0.5,1-2.3,1.7-3,1.3s-1.3,0.7-1.5,2
	c-0.2,1.3-1.8,0.2-3.5,0.8c-1.7,0.7-3.3,0.3-5.1,2.2c-1.8,1.8-2.5,2.7-3.8,2.7c-1.3-0.2-1.5-2.3-3.5-1.2c-2.2,1.2-2.7,1.5-3.8,0.7
	c-1.2-1-4.8,1.8-1.5-3.5c3.5-5.2,1.5-5.7,5.6-7.5c4.3-1.8,4.7-2.5,6.1-4.5c1.5-2,2.3-3.5,3.5-2.8c1.3,0.7,3.7-1.3,5.1-3.2
	c1.5-1.8,2-3.2,3.3-2.8c1.3,0.5,3.5,3,6.3,2.2c2.8-0.8,5.5,0.2,5.5,1.5c0,1.3-0.3,5.5-1.3,5.4c-1.2-0.2-3.3-0.7-2.2,1.7
	C1021.5,399.9,1017,399.9,1016.2,399.9z"/>
<linearGradient id="SVGID_43_" gradientUnits="userSpaceOnUse" x1="163.8072" y1="561.5438" x2="163.8072" y2="618.0237" gradientTransform="matrix(1 0 0 -1 0 1069.8898)">
	<stop  offset="0" style="stop-color:#79BBDF;stop-opacity:0.69"/>
	<stop  offset="1" style="stop-color:#153E54;stop-opacity:0.78"/>
</linearGradient>
<path class="st42" d="M173.4,497.8c-5,6.3-8,8.9-11,5.8c-3-3.1-7.5-5-10.4-3.6c-2.8,1.5-4.7-2.3-6.5-4c-1.8-1.7-6.9,0.3-8.4,1.7
	c-1.5,1.3-9.9-1.2-11.4-2.5c-1.5-1.3-0.2-5.1-0.7-8.6c-0.3-2,5.9-4,7.7-7.6c1.3-2.8-2-7.8,0.8-7.9c6.5-0.2,16.9,11.8,18.7,6.1
	c1.8-5.6-2.5-10.8-1-11.1c1.7-0.3,7.7,0.2,8.7,1.3c1,1,8.9-0.8,8-4.8c-0.7-3.8,5-6.3,9.7-3.5s5,16.9,8.5,16.1
	c3.5-0.8,9.7,2.3,15.1,5.8c3.2,2.2-0.5,10.3-2,16.6c-1,4.1,0.5,7.3,0.2,7.6c-0.3,0.2-2.5,4.8-5.2,5.5c-2,0.5-4.2,3-6,2.5
	c-2.5-0.5-4.3-4.1-4.3-4.1s-7.2,7.9-9.4,4.8C172.4,510.9,173.4,497.8,173.4,497.8z"/>
<linearGradient id="SVGID_44_" gradientUnits="userSpaceOnUse" x1="588.1287" y1="149.7228" x2="588.1287" y2="206.2028" gradientTransform="matrix(1 0 0 -1 0 1069.8898)">
	<stop  offset="0" style="stop-color:#79BBDF;stop-opacity:0.69"/>
	<stop  offset="1" style="stop-color:#153E54;stop-opacity:0.78"/>
</linearGradient>
<path class="st43" d="M597.6,909.6c-4.9,6.3-7.9,8.9-10.9,5.8c-3-3.1-7.4-5-10.2-3.6c-2.8,1.5-4.6-2.3-6.4-4
	c-1.8-1.7-6.7,0.3-8.2,1.7c-1.5,1.3-9.7-1.2-11.2-2.5c-1.5-1.3-0.2-5.1-0.7-8.6c-0.3-2,5.8-4,7.6-7.6c1.3-2.8-2-7.8,0.8-7.9
	c6.4-0.2,16.6,11.8,18.4,6.1c1.8-5.6-2.5-10.8-1-11.1c1.6-0.3,7.6,0.2,8.6,1.3c1,1,8.7-0.8,7.9-4.8c-0.7-3.8,4.9-6.3,9.5-3.5
	c4.6,2.8,4.9,16.9,8.4,16.1c3.5-0.8,9.5,2.3,14.8,5.8c3.1,2.2-0.5,10.3-2,16.6c-1,4.1,0.5,7.3,0.2,7.6c-0.3,0.2-2.5,4.8-5.1,5.5
	c-2,0.5-4.1,3-5.9,2.5c-2.5-0.5-4.3-4.1-4.3-4.1s-7.1,7.9-9.2,4.8C596.6,922.7,597.6,909.6,597.6,909.6z"/>
<linearGradient id="SVGID_45_" gradientUnits="userSpaceOnUse" x1="571.0241" y1="631.2778" x2="571.0241" y2="687.7578" gradientTransform="matrix(1 0 0 -1 0 1069.8898)">
	<stop  offset="0" style="stop-color:#79BBDF;stop-opacity:0.69"/>
	<stop  offset="1" style="stop-color:#153E54;stop-opacity:0.78"/>
</linearGradient>
<path class="st44" d="M580.3,427.9c-4.9,6.3-7.9,8.9-10.9,5.8c-3-3.1-7.4-5-10-3.6c-2.8,1.5-4.6-2.3-6.4-4c-1.8-1.7-6.7,0.3-8.2,1.7
	c-1.5,1.3-9.7-1.2-11.2-2.5c-1.5-1.3-0.2-5.1-0.7-8.6c-0.3-2,5.8-4,7.6-7.6c1.3-2.8-2-7.8,0.8-7.9c6.4-0.2,16.6,11.8,18.4,6.1
	c1.8-5.6-2.5-10.8-1-11.1c1.6-0.3,7.6,0.2,8.6,1.3c1,1,8.7-0.8,7.9-4.6c-0.7-3.8,4.9-6.3,9.5-3.5c4.6,2.8,4.9,16.9,8.4,16.1
	c3.5-0.8,9.5,2.3,14.8,5.8c3.1,2.2-0.5,10.3-2,16.6c-1,4.1,0.5,7.3,0.2,7.6c-0.3,0.2-2.5,4.8-5.1,5.5c-2,0.5-4.1,3-5.9,2.5
	c-2.5-0.5-4.3-4.1-4.3-4.1s-7.1,7.9-9.2,4.8C579.3,441.2,580.3,427.9,580.3,427.9z"/>
<linearGradient id="SVGID_46_" gradientUnits="userSpaceOnUse" x1="1005.2134" y1="553.6498" x2="1005.2134" y2="610.1298" gradientTransform="matrix(1 0 0 -1 0 1069.8898)">
	<stop  offset="0" style="stop-color:#79BBDF;stop-opacity:0.69"/>
	<stop  offset="1" style="stop-color:#153E54;stop-opacity:0.78"/>
</linearGradient>
<path class="st45" d="M1014.5,505.7c-4.9,6.3-7.9,8.9-10.8,5.8c-3-3.1-7.4-5-10-3.6c-2.8,1.5-4.6-2.3-6.4-4
	c-1.8-1.7-6.7,0.3-8.2,1.7c-1.5,1.3-9.7-1.2-11.2-2.5c-1.5-1.3-0.2-5.1-0.7-8.6c-0.3-2,5.8-4,7.6-7.6c1.3-2.8-2-7.8,0.8-7.9
	c6.4-0.2,16.6,11.8,18.4,6.1c1.8-5.6-2.5-10.8-1-11.1c1.6-0.3,7.6,0.2,8.6,1.3c1,1,8.7-0.8,7.9-4.8c-0.7-3.8,4.9-6.3,9.5-3.5
	c4.6,2.8,4.9,16.9,8.4,16.1c3.5-0.8,9.5,2.3,14.8,5.8c3.1,2.2-0.5,10.3-2,16.6c-1,4.1,0.5,7.3,0.2,7.6c-0.3,0.2-2.5,4.8-5.1,5.5
	c-2,0.5-4.1,3-6.1,2.5c-2.5-0.5-4.3-4.1-4.3-4.1s-7.1,7.9-9.2,4.8C1013.5,518.8,1014.5,505.7,1014.5,505.7z"/>
<g>
	<circle class="st46" cx="845.5" cy="237.3" r="4.3"/>
</g>
<circle class="st46" cx="845.5" cy="237.3" r="4.3"/>
<g>
	<circle class="st46" cx="103.8" cy="209.4" r="4.3"/>
</g>
<circle class="st46" cx="103.8" cy="209.4" r="4.3"/>
<g>
	<circle class="st46" cx="592.6" cy="76.5" r="4.3"/>
</g>
<circle class="st46" cx="592.6" cy="76.5" r="4.3"/>
<g>
	<circle class="st46" cx="579.7" cy="691.7" r="4.3"/>
</g>
<circle class="st46" cx="579.7" cy="691.7" r="4.3"/>
<g>
	<circle class="st46" cx="18.1" cy="721.7" r="4.3"/>
</g>
<circle class="st46" cx="18.1" cy="721.7" r="4.3"/>
<g>
	<circle class="st46" cx="980.6" cy="668.2" r="4.3"/>
</g>
<circle class="st46" cx="980.6" cy="668.2" r="4.3"/>
<g>
	<circle class="st46" cx="337.5" cy="215.9" r="4.3"/>
</g>
<circle class="st46" cx="337.5" cy="215.9" r="4.3"/>
</svg>
