<?xml version="1.0" encoding="utf-8"?>
<!-- Generator: Adobe Illustrator 23.0.5, SVG Export Plug-In . SVG Version: 6.00 Build 0)  -->
<svg version="1.1" id="Слой_1" xmlns="http://www.w3.org/2000/svg" xmlns:xlink="http://www.w3.org/1999/xlink" x="0px" y="0px"
	 width="1072.3px" height="1071px" viewBox="0 0 1072.3 1071" style="enable-background:new 0 0 1072.3 1071;" xml:space="preserve"
	>
<style type="text/css">
	.st0{fill:url(#SVGID_1_);}
	.st1{fill:url(#SVGID_2_);}
	.st2{fill:url(#SVGID_3_);}
	.st3{fill:url(#SVGID_4_);}
	.st4{fill:url(#SVGID_5_);}
	.st5{fill:url(#SVGID_6_);}
	.st6{fill:url(#SVGID_7_);}
	.st7{fill:url(#SVGID_8_);}
	.st8{fill:url(#SVGID_9_);}
	.st9{fill:url(#SVGID_10_);}
	.st10{fill:url(#SVGID_11_);}
	.st11{fill:url(#SVGID_12_);}
	.st12{fill:url(#SVGID_13_);}
	.st13{fill:url(#SVGID_14_);}
	.st14{fill:url(#SVGID_15_);}
	.st15{fill:url(#SVGID_16_);}
	.st16{fill:url(#SVGID_17_);}
	.st17{fill:url(#SVGID_18_);}
	.st18{fill:url(#SVGID_19_);}
	.st19{fill:url(#SVGID_20_);}
	.st20{fill:url(#SVGID_21_);}
	.st21{fill:url(#SVGID_22_);}
	.st22{fill:url(#SVGID_23_);}
	.st23{fill:url(#SVGID_24_);}
	.st24{fill:url(#SVGID_25_);}
	.st25{fill:url(#SVGID_26_);}
	.st26{fill:url(#SVGID_27_);}
	.st27{fill:url(#SVGID_28_);}
	.st28{fill:url(#SVGID_29_);}
	.st29{fill:url(#SVGID_30_);}
	.st30{fill:url(#SVGID_31_);}
	.st31{fill:url(#SVGID_32_);}
	.st32{fill:url(#SVGID_33_);}
	.st33{fill:url(#SVGID_34_);}
	.st34{fill:url(#SVGID_35_);}
	.st35{fill:url(#SVGID_36_);}
	.st36{fill:url(#SVGID_37_);}
	.st37{fill:url(#SVGID_38_);}
	.st38{fill:url(#SVGID_39_);}
	.st39{fill:url(#SVGID_40_);}
	.st40{fill:url(#SVGID_41_);}
	.st41{fill:url(#SVGID_42_);}
	.st42{fill:url(#SVGID_43_);}
	.st43{fill:url(#SVGID_44_);}
	.st44{fill:url(#SVGID_45_);}
	.st45{fill:url(#SVGID_46_);}
	.st46{fill:#FFFFFF;}
	.st47{fill:url(#SVGID_47_);}
	.st48{fill:url(#SVGID_48_);}
	.st49{fill:url(#SVGID_49_);}
	.st50{fill:url(#SVGID_50_);}
	.st51{fill:url(#SVGID_51_);}
	.st52{fill:url(#SVGID_52_);}
	.st53{fill:url(#SVGID_53_);}
	.st54{fill:url(#SVGID_54_);}
	.st55{fill:url(#SVGID_55_);}
	.st56{fill:url(#SVGID_56_);}
	.st57{fill:url(#SVGID_57_);}
	.st58{fill:url(#SVGID_58_);}
	.st59{fill:url(#SVGID_59_);}
	.st60{fill:url(#SVGID_60_);}
	.st61{fill:url(#SVGID_61_);}
	.st62{fill:url(#SVGID_62_);}
	.st63{fill:url(#SVGID_63_);}
	.st64{fill:url(#SVGID_64_);}
</style>
<linearGradient id="SVGID_1_" gradientUnits="userSpaceOnUse" x1="536.16" y1="1197.8898" x2="536.16" y2="126.8898" gradientTransform="matrix(1 0 0 -1 0 1197.8898)">
	<stop  offset="0" style="stop-color:#6CA2F3"/>
	<stop  offset="1" style="stop-color:#F9F3F6"/>
</linearGradient>
<rect y="0" class="st0" width="1072.3" height="1071"/>
<linearGradient id="SVGID_2_" gradientUnits="userSpaceOnUse" x1="536.16" y1="1197.8898" x2="536.16" y2="126.8898" gradientTransform="matrix(1 0 0 -1 0 1197.8898)">
	<stop  offset="0" style="stop-color:#002566"/>
	<stop  offset="1" style="stop-color:#002D3E"/>
</linearGradient>
<rect y="0" class="st1" width="1072.3" height="1071"/>
<linearGradient id="SVGID_3_" gradientUnits="userSpaceOnUse" x1="1068.7523" y1="786.7562" x2="-58.8626" y2="786.7523" gradientTransform="matrix(1 0 0 -1 0 1197.8898)">
	<stop  offset="0" style="stop-color:#FEFEFE;stop-opacity:0"/>
	<stop  offset="1" style="stop-color:#FFFFFF"/>
</linearGradient>
<rect x="-34.2" y="409.2" class="st2" width="1052.6" height="3.9"/>
<linearGradient id="SVGID_4_" gradientUnits="userSpaceOnUse" x1="1168.4525" y1="782.8062" x2="-40.9136" y2="782.8023" gradientTransform="matrix(1 0 0 -1 0 1197.8898)">
	<stop  offset="0" style="stop-color:#FEFEFE;stop-opacity:0"/>
	<stop  offset="1" style="stop-color:#FFFFFF"/>
</linearGradient>
<rect x="-14.5" y="413.1" class="st3" width="1128.9" height="3.9"/>
<linearGradient id="SVGID_5_" gradientUnits="userSpaceOnUse" x1="1947.8326" y1="1195.2813" x2="737.0614" y2="1195.2783" gradientTransform="matrix(-1 0 0 -1 1846.3761 1342.6198)">
	<stop  offset="0" style="stop-color:#FEFEFE;stop-opacity:0"/>
	<stop  offset="1" style="stop-color:#FFFFFF"/>
</linearGradient>
<rect x="-47.4" y="144.7" class="st4" width="1130.2" height="5.3"/>
<linearGradient id="SVGID_6_" gradientUnits="userSpaceOnUse" x1="1946.4524" y1="1195.9492" x2="737.092" y2="1195.9451" gradientTransform="matrix(-1 0 0 -1 1877.9561 1332.0938)">
	<stop  offset="0" style="stop-color:#FEFEFE;stop-opacity:0"/>
	<stop  offset="1" style="stop-color:#FFFFFF"/>
</linearGradient>
<rect x="-14.5" y="134.2" class="st5" width="1128.9" height="3.9"/>
<linearGradient id="SVGID_7_" gradientUnits="userSpaceOnUse" x1="963.4924" y1="445.9828" x2="-164.1207" y2="445.9789" gradientTransform="matrix(1 0 0 -1 0 1197.8898)">
	<stop  offset="0" style="stop-color:#FEFEFE;stop-opacity:0"/>
	<stop  offset="1" style="stop-color:#FFFFFF"/>
</linearGradient>
<rect x="-139.5" y="750" class="st6" width="1052.6" height="3.9"/>
<linearGradient id="SVGID_8_" gradientUnits="userSpaceOnUse" x1="3394.1038" y1="270.2452" x2="2266.4937" y2="270.2413" gradientTransform="matrix(-1 0 0 1 3650.2859 297.5282)">
	<stop  offset="0" style="stop-color:#FEFEFE;stop-opacity:0"/>
	<stop  offset="1" style="stop-color:#FFFFFF"/>
</linearGradient>
<rect x="306.6" y="565.8" class="st7" width="1052.6" height="3.9"/>
<linearGradient id="SVGID_9_" gradientUnits="userSpaceOnUse" x1="3339.8137" y1="-2.1042" x2="2072.6638" y2="-2.1093" gradientTransform="matrix(-1 0 0 1 3268.7258 842.2383)">
	<stop  offset="0" style="stop-color:#FEFEFE;stop-opacity:0"/>
	<stop  offset="1" style="stop-color:#FFFFFF"/>
</linearGradient>
<rect x="-14.5" y="838.1" class="st8" width="1182.8" height="3.9"/>
<linearGradient id="SVGID_10_" gradientUnits="userSpaceOnUse" x1="3240.1636" y1="242.6147" x2="2112.5537" y2="242.6107" gradientTransform="matrix(-1 0 0 1 3342.406 352.7882)">
	<stop  offset="0" style="stop-color:#FEFEFE;stop-opacity:0"/>
	<stop  offset="1" style="stop-color:#FFFFFF"/>
</linearGradient>
<rect x="152.6" y="593.4" class="st9" width="1052.6" height="3.9"/>
<linearGradient id="SVGID_11_" gradientUnits="userSpaceOnUse" x1="219.726" y1="636.3857" x2="219.726" y2="675.7908" gradientTransform="matrix(1 0 0 -1 0 1197.8898)">
	<stop  offset="0" style="stop-color:#79BBDF;stop-opacity:0.69"/>
	<stop  offset="1" style="stop-color:#153E54;stop-opacity:0.78"/>
</linearGradient>
<path class="st10" d="M103.2,540.9l-20.9,9.6c-2.8,1.3-4.7,4.2-4.7,7.3c0,4.4,3.6,8,8,8h267.9c4.6,0,8.3-3.7,8.3-8.3
	c0-3-1.6-5.8-4.3-7.2l-17.9-9.9c-2.4-1.3-5-2-7.8-2h-17c-4.3,0-8.4,1.7-11.4,4.8l-4.5,4.6c-3,3.1-7.1,4.8-11.4,4.8h-19.1
	c-2,0-4.1-0.4-6-1.2l-32.5-13.1l-25.8-9.4c-4.7-1.7-9.9-1.1-14.1,1.6l-27.9,18c-3.9,2.5-8.8,3.2-13.3,1.9l-34.3-10.4
	C110.8,539,106.8,539.2,103.2,540.9z"/>
<linearGradient id="SVGID_12_" gradientUnits="userSpaceOnUse" x1="724.9641" y1="627.8088" x2="724.9641" y2="697.4238" gradientTransform="matrix(1 0 0 -1 0 1197.8898)">
	<stop  offset="0" style="stop-color:#79BBDF;stop-opacity:0.69"/>
	<stop  offset="1" style="stop-color:#153E54;stop-opacity:0.78"/>
</linearGradient>
<path class="st11" d="M529.6,512.1c-16,11.5-39.3,28.3-50.7,36.5c-4.1,3-6.5,7.8-6.5,12.9c0,8.8,7.2,16.2,16,16.2h473.2
	c8.8,0,16-7.2,16-16v-0.5c0-4.9-2.3-9.6-6.2-12.5c-15-11.4-37.6-27.7-42-26.9c-6.4,1.1-51.4,31.7-58.9,31.7s-87.8-14.8-100.6-22.2
	c-12.8-7.4-74.9-23.2-81.4-23.2c-6.4,0-48.2,26.4-57.8,23.2c-7.1-2.3-58-14.5-88.2-21.6C538.1,508.5,533.4,509.4,529.6,512.1z"/>
<linearGradient id="SVGID_13_" gradientUnits="userSpaceOnUse" x1="536.1565" y1="537.5568" x2="536.1565" y2="758.2228" gradientTransform="matrix(1 0 0 -1 0 1197.8898)">
	<stop  offset="0" style="stop-color:#79BBDF;stop-opacity:0.69"/>
	<stop  offset="1" style="stop-color:#153E54;stop-opacity:0.78"/>
</linearGradient>
<path class="st12" d="M11.6,463.1c-4.1,1.5-7.9,3-11.6,4.5v135.7c1.8,0.2,2.3,1.8,3,6.1c1,6,8.4,14.9,18.7,15.4
	c10.3,0.5,16.7,7.1,26.8,13.4c10.3,6.3,5.5,14.1,30,20.3c24.5,6.3,14.9-4.3,25.5-14.1c10.6-9.9,5.1-2.1,7.1,0.8c2,3,8.4,0.7,9.1-0.7
	c0.7-1.3,5-7.3,11.1-1.2c6.1,6,6.1,3.3,6.5,2.1s10.6-3.8,15.2,1.7c4.8,5.5,8.8,1.2,26.5-3.8c17.7-5,14.2-7.6,14.2-1.2
	c0,6.6,6.5,5,15.9,6.3c9.4,1.3,18-9.3,19-3.8c1,5.5,15.2,0,14.2,1.3c-1,1.3,0.3,4,4.5,7.8c4.1,3.8,5.8,2.1,7.8,0.8
	c2-1.3,1-2.8,7.8-6.6c6.8-3.8,12.2-1.3,12.2,0.5c0,2,7.4,12.1,13.9,14.2s7.1,9.9,12.6,10.4c5.5,0.5,5.8-8.3,7.8-10.7
	c2-2.5,5.1-1.3,6.1,3.6c1,5,9.1,5,14.9,5c5.8,0,8.4,3.3,14.6,9.3c6.1,6,12.2,4.1,26.5,0c14.2-4.1,19-4.1,30.3-3.6
	c11.3,0.5,10.6-1.7,15.6-3c5.1-1.3,4.5,0.8,10.6,0c6.1-0.8,1.3-11.2,4.5-8.8c3,2.5,13.2,4.5,20.4,4.6c7.1,0.3,15.2-2.5,23.5-3.3
	c8.1-0.8,10.3-2.8,15.9-7.4c5.8-4.6,7.8-10.1,13.6-15c5.8-5,18.7-12.4,20-9.9c1.3,2.5,7.4,3.6,11.6,2.1c4.1-1.3,11.6-0.8,17.7,0
	c6.1,0.8,8.1-0.5,10.6-2.5c2.3-2,2.6-2,7.4-2.8c4.8-0.8,8.4,0,8.1-3.8s0-6.8,6.5-5.3c6.5,1.7,6.1,2,8.4-3.6
	c2.3-5.5,4.8-2.5,12.2-2.1c7.4,0.3,7.8,0.5,7.8-3.6s4.8-2.5,13.9-2.5c9.1,0,10.6-1.3,11.3-3.8c0.7-2.5,15.6,0.3,16.4-1.7
	c0.7-2,7.1-1.3,13.6-0.5c6.5,0.8,0.3,3,0,6.6c-0.3,3.6,1,7.9,4.8,5.5c3.8-2.5,2.3-6.1,8.8-5.3c6.5,0.8,13.2,1.2,14.6,4
	c1.3,2.8,8.4,4.5,13.9,5.8c5.5,1.3,1.7,11.7,5.8,17.5c4.1,5.8,11.9,10.7,18.7,9.6c6.8-1.2,5.5-4.6,7.1-3.3c1.7,1.3,4.1,2.5,9.4,0
	c5.5-2.5,8.8-2.5,10.3-1.7c1.3,0.8,7.1-0.3,10.3-3.3c3-3,7.8-3,12.2-4.1c4.5-1.2,14.9-3,19,4.1c4.1,7.1,6.1,6.6,8.1,6.8
	c2,0.3,7.8-3.3,8.1,1.2c0.3,4.5,8.8,6.8,10.9,2.8c2-4.1,12.9-1.7,16.4,1.2c3.5,2.8,17.7,11.7,23,7.4c5.5-4.5,5.8-6.3,5.8-6.3
	c20.7-7.9,4.5-14.5,12.9-20c8.4-5.5,12.9-26.8,15.6-28.4c2.6-1.7,6.4,0,8.4-1.7c2-1.7,5.8-3,5.5-6.3c-0.3-3.3,6.8-5,8.8-4.6
	s10.3,0.3,11.6-3c1.3-3.1,7.1-0.3,8.8-0.2c1.6,0.3,7.4,0,9.9-2c2.3-2,3.5-5,5.8-5.5c2.3-0.5,3.8-1.3,2.7-3.5c-1-2,1-2,2.6-5.1
	c1.7-3,4.5-2.5,11.6-2.5c7.1,0,6.5,5.6,16.4,3c1.8-0.5,5.8-3.6,7.1-4.3c1.3-0.7,4.5-1.2,5.1-0.3c0.7,0.8,5.1,0,5.1,0s2-1.3,2.6-3.5
	c0.7-2.1,3.8-1.3,3.8-1.3s3,0,4.5,1.2c1.3,1.2,2.7-1.2,4.5-3.1c1.7-2,7.5-2.6,10.9-0.5c16.4,10.6,23.5,4,29.8,1.2v-98.7H11.6z"/>
<linearGradient id="SVGID_14_" gradientUnits="userSpaceOnUse" x1="993.3726" y1="609.2618" x2="993.3726" y2="762.9398" gradientTransform="matrix(1 0 0 -1 0 1197.8898)">
	<stop  offset="0" style="stop-color:#79BBDF;stop-opacity:0.69"/>
	<stop  offset="1" style="stop-color:#153E54;stop-opacity:0.78"/>
</linearGradient>
<path class="st13" d="M918.5,525.7c1.2,9.2-1.7,19.8,1.7,23.4c3.3,3.6,15.8,35,18.9,31.5c3.1-3.5,15.9-32.6,19.7-28
	c3.8,4.8,10.6,14.7,16.4,11c5.6-3.8,15.1,1.6,21.6,10.4c6.5,8.7,6.8,23.4,17.1,6.6c0,0,4.3,14,8.8,22.6c4.5,8.6,19.2-12.5,19.2-12.5
	s21.4,12.9,26.5-7.6v-74c-8.8-6.8-17.7-11.4-23.2-9.9c-7.3,2-8.8-36.1-18.4-44.2c-9.8-8.1-21.5-1.8-19.9,8.7
	c1.7,10.4-14.4,15.2-16.6,12.4c-2.2-3-14.8-4.8-18.1-4.1c-3.3,0.7,6.1,14.7,2.7,30c-3.5,15.3-25.5-17.8-39.1-17.6
	C922,484.5,917.4,516.5,918.5,525.7z"/>
<linearGradient id="SVGID_15_" gradientUnits="userSpaceOnUse" x1="679.5715" y1="608.8857" x2="679.5715" y2="698.2028" gradientTransform="matrix(1 0 0 -1 0 1197.8898)">
	<stop  offset="0" style="stop-color:#79BBDF;stop-opacity:0.69"/>
	<stop  offset="1" style="stop-color:#153E54;stop-opacity:0.78"/>
</linearGradient>
<path class="st14" d="M694.4,572c-7.8,9.9-12.5,14-17.1,9c-4.6-5-11.5-7.9-15.8-5.7c-4.3,2.3-7.3-3.5-10.1-6.3
	c-2.8-2.7-10.6,0.7-12.9,2.7c-2.3,2-15.2-1.8-17.6-3.8c-2.5-2-0.2-8.2-0.8-13.5c-0.5-3,9.1-6.2,11.9-12c2.1-4.5-3-12.2,1.3-12.4
	c10.1-0.3,25.9,18.5,28.7,9.5s-4-16.9-1.5-17.4c2.5-0.5,11.7,0.3,13.4,2c1.5,1.7,13.5-1.3,12.5-7.5c-1.2-6,7.8-9.9,14.8-5.3
	c7.1,4.5,7.6,26.6,13,25.4c5.4-1.2,15,3.7,23.3,9.2c4.9,3.3-0.7,16.2-3.1,26.1c-1.5,6.3,0.8,11.5,0.2,11.9c-0.7,0.3-4,7.5-8.1,8.5
	c-3.1,0.8-6.4,4.7-9.4,4c-3.8-0.8-6.6-6.3-6.6-6.3s-11.2,12.5-14.3,7.7C692.8,592.7,694.4,572,694.4,572z"/>
<linearGradient id="SVGID_16_" gradientUnits="userSpaceOnUse" x1="213.1479" y1="567.8918" x2="213.1479" y2="630.9388" gradientTransform="matrix(1 0 0 -1 0 1197.8898)">
	<stop  offset="0" style="stop-color:#79BBDF;stop-opacity:0.69"/>
	<stop  offset="1" style="stop-color:#153E54;stop-opacity:0.78"/>
</linearGradient>
<path class="st15" d="M206.8,627.2c-2.3-3.1-7.8,0.5-11.1-3c-3.3-3.5-8.3-5.6-11.4-4c-3,1.7-5.3-2.5-7.1-4.5c-2-1.8-7.6,0.5-9.2,2
	c-1.7,1.5-10.9-1.3-12.6-2.8c-1.7-1.5-12.9-9.6-13.4-13.4c-0.3-2.2,19.2-0.5,21.3-4.6c1.5-3.1-2.1-8.6,1-8.8
	c7.1-0.2,18.5,13.1,20.5,6.8c2-6.3-2.8-11.9-1.2-12.3c1.8-0.3,8.4,0.3,9.6,1.5c1.2,1.2,9.7-1,8.9-5.3c-0.8-4.3,5.6-7,10.6-3.8
	c5.1,3.1,5.5,18.9,9.4,17.9c4-0.8,10.7,2.7,16.5,6.5c3.6,2.3,47.1,3.5,45.4,10.4c-0.3,1.7-5,12.3-11.4,14.6
	c-4.3,1.7-9.6-8.4-14.7-8.6c-8.3,0-16.5,9.3-21.3,10.3c-0.5,0.2-2.8,5.3-5.8,6.1c-2.1,0.5-4.6,3.3-6.8,2.8c-2.6-0.7-4.8-4.5-4.8-4.5
	s-7.9,8.9-10.2,5.5C206.7,632.5,206.8,627.2,206.8,627.2z"/>
<linearGradient id="SVGID_17_" gradientUnits="userSpaceOnUse" x1="255.2502" y1="600.8387" x2="255.2502" y2="737.4407" gradientTransform="matrix(1 0 0 -1 0 1197.8898)">
	<stop  offset="0" style="stop-color:#79BBDF;stop-opacity:0.69"/>
	<stop  offset="1" style="stop-color:#153E54;stop-opacity:0.78"/>
</linearGradient>
<path class="st16" d="M88.1,555.2c0,0-7.8,8,4.5,17.1c12.3,9.1,25.3,20.6,30.1,10c4.8-10.6,8.3-14.8,13.1-11.1
	c5,3.7,13.7,6.2,16.7,1.3c2.8-4.7-5.1-9.5,4.3-10.3c9.4-0.8,9.4,5.8,17.2,5.5c7.6-0.3,8.3-4.7,10.8-6c2.3-1.5,11.3,1.7,17.5-0.7
	c6.3-2.3,9.4-0.8,11.4,3.5c2.2,4.3,8.1,7.5,13.6,8.2c5.3,0.8,11.3,8.7,13.7,10.5c2.5,1.8,12.2,5.8,15.4-0.7
	c3.1-6.5,10.1-9.8,13.1-7.2c2.8,2.7,15.2,7.3,20.9,14.1c5.6,6.7,16.7,1,19.9,5.8c3.1,4.8,13.7,14.1,20.5,15.8
	c6.8,1.8,25.5,0.5,28.5-8.5c3-9-3.6-19.8,11.1-16.1c14.7,3.7,66.7,9,72.3,1.3c5.5-7.5-0.8-24.1-9.4-28.8c-8.6-4.5-29-6.2-19.2-17.8
	c9.9-11.6,15.7-22.1,12.7-30.9c-3-8.8-9.9-13.8-30.3-16.1c-20.4-2.3-57.3,3.8-73,7.3c-15.7,3.5-16.4-7.2-18.7-13
	c-2.5-5.8-28.5-10.1-51.5-13.1c-23-3.2-33.3,14.6-49.8,16.6c-16.6,1.8-61.1-14.6-65.6-13.5c-4.5,1.2-14.4,9.1-14.4,15.6
	c0.2,6.7-5.1,5.5-16.7,6.7c-11.6,1.2-20.2,4.3-18.9,12.8c1.5,8.7-6.8,9.1-14.2,15.3c-7.4,6.2-12.4,6.5-1.8,12.5
	c10.6,6,9.9,10.3,5.1,13.5C71.7,558.2,88.1,555.2,88.1,555.2z"/>
<linearGradient id="SVGID_18_" gradientUnits="userSpaceOnUse" x1="629.5743" y1="652.0598" x2="629.5743" y2="726.9288" gradientTransform="matrix(1 0 0 -1 0 1197.8898)">
	<stop  offset="0" style="stop-color:#79BBDF;stop-opacity:0.69"/>
	<stop  offset="1" style="stop-color:#153E54;stop-opacity:0.78"/>
</linearGradient>
<path class="st17" d="M670.4,544.8c0,0,3.8,5.2-7,1.7c-10.8-3.5-4.5,0.3-9.4,2.2c-4.8,1.8-13.4-0.8-14.7-3.8c-1.3-3-7-1.7-11.3,2.7
	c-4.3,4.3-7-4.3-14.9-7.2c-8-2.8-12.6-9-24.2-7.7c-11.6,1.3-16.6,2.5-20.9-1.8c-4.3-4.3,1.8-12.3-9.3-14.5c-11.1-2-13.8-2.2-15.4-9
	c-1.7-7-22.4-8.2,4.8-16.5c27.2-8.3,21.5-15.7,42.1-9.8c20.5,5.8,23.5,4.5,34.8,1.8c11.3-2.7,17.9-5.5,20.7,0.5
	c2.7,6,16.6,6.2,27.3,3.7c10.6-2.5,16.7-5.2,19.9,0c3.1,5.2,3.5,20.5,15.9,26.1c12.6,5.7,19.1,16.8,14.9,21.8
	c-4.1,5-16.9,18.7-20.4,14.7c-3.5-3.8-10.1-12.3-12.1-0.5C689.3,561,672.9,547.5,670.4,544.8z"/>
<linearGradient id="SVGID_19_" gradientUnits="userSpaceOnUse" x1="195.385" y1="917.6403" x2="195.385" y2="708.7292" gradientTransform="matrix(1 0 0 -1 0 1197.8898)">
	<stop  offset="0" style="stop-color:#79BBDF;stop-opacity:0.69"/>
	<stop  offset="1" style="stop-color:#153E54;stop-opacity:0.78"/>
</linearGradient>
<path class="st18" d="M294.5,339.6c-9.4-0.2-10.8,2-11.6,5.5c-0.7,3.5-16.1-0.3-16.7,2.3c-0.7,2.6-7.3,2-13.9,0.8
	c-6.6-1.2-0.3-4.3,0-9.3c0.3-5-1-11.1-5-7.8c-3.8,3.5-2.5,8.6-9.1,7.4c-6.6-1.2-13.6-1.7-15.1-5.5c-1.3-3.8-8.8-6.1-14.4-8.1
	c-5.6-2-1.8-16.5-6-24.6c-4.1-8.1-12.3-15-19.2-13.4c-7,1.5-5.6,6.6-7.3,4.6c-1.8-2-4.1-3.5-9.8,0c-5.5,3.3-8.9,3.3-10.4,2.1
	c-1.3-1.2-7.3,0.3-10.4,4.6c-3.1,4.3-8.1,4.3-12.6,5.8c-4.5,1.5-15.4,4.3-19.5-5.8c-4.1-9.9-6.3-9.3-8.4-9.6
	c-2.2-0.3-8.1,4.6-8.4-1.5c-0.3-6.1-9.1-9.6-11.3-3.8c-2.2,5.8-13.3,2.3-16.7-1.5c-3.5-3.8-9.1-1.5-14.7,4.6c-5.6,6.1-6,8.8-6,8.8
	c-21.4,11.1-4.5,20.3-13.3,28.1c-8.8,7.8-13.3,37.7-16.1,40c-2.8,2.3-6.6,0-8.8,2.3c-2.2,2.3-6,4.3-5.6,8.8c0.2,2.5-2,4.3-4.1,5.5
	v83h385.3l5.5-7.1C388.9,457.2,350.4,340.1,294.5,339.6z"/>
<linearGradient id="SVGID_20_" gradientUnits="userSpaceOnUse" x1="798.6465" y1="881.0048" x2="798.6465" y2="723.6508" gradientTransform="matrix(1 0 0 -1 0 1197.8898)">
	<stop  offset="0" style="stop-color:#79BBDF;stop-opacity:0.69"/>
	<stop  offset="1" style="stop-color:#153E54;stop-opacity:0.78"/>
</linearGradient>
<path class="st19" d="M1071,464.5c-1-0.8-2-3-3-6.6c-2.5-10.1-3.8-12.7-8.8-10.7c-4.9,2-5.3,0.8-6.3-7.8c-1-8.4-8.8-20.8-19.3-21.6
	c-10.6-0.8-17.2-10.1-27.6-18.8c-10.6-8.9-10.1-21.6-35.4-30.4c-25.3-8.9-10.9,7.8-21.7,21.6c-10.9,13.9-13.7,2.6-15.7-1.5
	c-2.2-4.3-4.6-2-5.3,0c-0.7,2-1,11.6-7.3,3.1s-6.3-4.6-6.6-3.1c-0.3,1.5-10.9,5.5-15.7-2.3c-5-7.8-9.1-1.5-27.3,5.5
	c-18.2,6.9-14.7,10.7-14.7,1.5c0-9.3-6.6-6.9-16.5-8.9c-9.8-2-18.5,13-19.7,5.5c-1-7.8-15.7,0-14.7-2c1-2-2.5-13.9-6.6-19.3
	c-4.1-5.5-3.8-3.1-5.9-1.2c-2.1,2-1,12.4-8.1,17.7c-6.9,5.5-12.6,2-12.6-0.8c0-2.6-7.8-17-14.4-20c-6.6-3.1-7.3-13.9-12.9-14.7
	c-5.6-0.8-5.9,11.6-8.1,15c-2.1,3.5-5.3,2-6.3-5c-1-6.9-9.4-6.9-15.4-6.9c-5.9,0-8.8-4.6-15-13.1c-6.3-8.4-12.6-5.8-27.3,0
	c-14.7,5.8-19.7,5.8-31.2,5c-11.6-0.8-10.9,2.3-16,4.3c-5.3,2-4.6-1.2-10.9,0c-6.3,1.2-1.3,15.9-4.6,12.4c-3.1-3.5-13.7-6.1-21-6.6
	c-7.3-0.3-15.7,3.5-24.1,4.6c-8.4,1.2-10.6,3.8-16.5,10.4c-5.9,6.6-8.1,14.2-14,21.1c-2.1,2.5-5.1,5.5-8.3,7.9v65.7H1071z"/>
<linearGradient id="SVGID_21_" gradientUnits="userSpaceOnUse" x1="274.987" y1="376.4557" x2="274.987" y2="506.4908" gradientTransform="matrix(1 0 0 -1 0 1197.8898)">
	<stop  offset="0" style="stop-color:#79BBDF;stop-opacity:0.69"/>
	<stop  offset="1" style="stop-color:#153E54;stop-opacity:0.78"/>
</linearGradient>
<path class="st20" d="M547.3,835.5c-1-0.8-2-3-3-6.6c-2.5-10.1-3.8-12.7-8.8-10.7c-5,2-5.3,0.8-6.3-7.8c-1-8.4-8.8-20.8-19.3-21.6
	c-10.6-0.8-17.2-10.1-27.6-18.8c-10.6-8.9-10.1-21.6-35.4-30.4c-25.3-8.9-10.9,7.8-21.7,21.6c-10.9,13.9-13.7,2.6-15.7-1.5
	c-2.1-4.3-4.6-2-5.3,0s-1,11.6-7.3,3.1c-6.3-8.4-6.3-4.6-6.6-3.1c-0.3,1.5-10.9,5.5-15.7-2.3c-5-7.8-9.1-1.5-27.3,5.5
	c-18.2,6.9-14.7,10.7-14.7,1.5c0-9.3-6.6-6.9-16.5-8.9c-9.8-2-18.5,13.1-19.7,5.5c-1-7.8-15.7,0-14.7-2c1-2-2.5-13.9-6.6-19.3
	c-4.1-5.5-3.8-3.1-5.9-1.2c-2.1,2-1,12.4-8.1,17.7c-6.9,5.5-12.6,2-12.6-0.8c0-2.6-7.8-17-14.4-20c-6.6-3.1-7.3-13.9-12.9-14.7
	c-5.6-0.8-5.9,11.6-8.1,15c-2.1,3.5-5.3,2-6.3-5c-1-6.9-9.4-6.9-15.4-6.9c-6,0-8.8-4.6-15-13c-6.3-8.4-12.6-5.8-27.3,0
	c-14.7,5.8-19.7,5.8-31.2,5c-11.6-0.8-10.9,2.3-16,4.3c-5.3,2-4.6-1.2-10.9,0s-1.3,15.9-4.6,12.4c-3.1-3.5-13.7-6.1-21-6.6
	c-7.3-0.3-15.7,3.5-24.1,4.6c-8.4,1.2-10.6,3.8-16.5,10.4c-5.9,6.6-8.1,14.2-14,21.1c-2.1,2.5-5.1,5.5-8.3,7.9v65.7H547.3z"/>
<linearGradient id="SVGID_22_" gradientUnits="userSpaceOnUse" x1="760.4874" y1="596.9408" x2="760.4874" y2="673.1227" gradientTransform="matrix(1 0 0 -1 0 1197.8898)">
	<stop  offset="0" style="stop-color:#79BBDF;stop-opacity:0.69"/>
	<stop  offset="1" style="stop-color:#153E54;stop-opacity:0.78"/>
</linearGradient>
<path class="st21" d="M658.3,533.2c1.3,9.3-2.6,19.7,1.5,23.2c4.1,3.5,26.4,10.1,30.4,6.6c4-3.5,17.5-9.1,22.1-4.6
	c4.8,4.6,9.9,14.6,17.3,10.8c7.4-3.8,19.3,1.2,27.3,9.6c7.9,8.5,16,1.5,29.4-15.4c0,0-2.6,35.3,2.8,43.8
	c5.6,8.5,24.8-13.1,24.8-13.1s5,9.5,11.4,11c5,1.2,10.9-5.5,16.2-6.8c6.9-1.8,12.7-14.1,13.9-14.6c1.2-0.5-2.8-9.3-0.3-20.2
	c2.3-9.8,6.8-21.6,8.1-30.5H658.3C658.3,532.9,658.3,533,658.3,533.2z"/>
<linearGradient id="SVGID_23_" gradientUnits="userSpaceOnUse" x1="21.0513" y1="653.0258" x2="21.0513" y2="700.3118" gradientTransform="matrix(1 0 0 -1 0 1197.8898)">
	<stop  offset="0" style="stop-color:#79BBDF;stop-opacity:0.69"/>
	<stop  offset="1" style="stop-color:#153E54;stop-opacity:0.78"/>
</linearGradient>
<path class="st22" d="M24.3,550c6-9.4,14.4-24.2,13.8-30.6c-0.7-10.1-29.1-1-29.1-1s0.3-10.8-4.6-15.2c-0.2-0.2-0.3-0.3-0.5-0.5
	v47.2h20.3V550z"/>
<linearGradient id="SVGID_24_" gradientUnits="userSpaceOnUse" x1="88.8108" y1="630.0408" x2="88.8108" y2="732.4927" gradientTransform="matrix(1 0 0 -1 0 1197.8898)">
	<stop  offset="0" style="stop-color:#79BBDF;stop-opacity:0.69"/>
	<stop  offset="1" style="stop-color:#153E54;stop-opacity:0.78"/>
</linearGradient>
<path class="st23" d="M1.3,564.6c2.3,2,5.1,3.6,8.4,4.1c3.1,0.5,6.8-3.6,10.6-4.1c4.1-0.5,9.9,6.4,14.9,7.9c3.3,1,6.3-4.1,8.1-2.8
	c4.5,3.3,1.7,7,4.3,8.5c5.5,2.8,9.1-2.6,16.9-10.3c3.5-3.4,7.8,3.6,11.9,1.3c1-0.5,2.8-7.5,4.6-8.5c2.1-1.1,4.5,3.8,5.5,2.5
	c2.8-3.8,1.2-7.5,3-6.4c3.6,2.3,2.3-3.4,6.3-7.2c2.1-2,8.6-0.3,11.4-3.1c5.1-5.1,7.8-12.1,14-15.1c3.8-1.8,8.8,0.7,16.5-1.6
	c20.5-5.9,11.9-9,30.4-30.2c18.7-21.1,0.5-11.3-4.6-16.2c-5-4.9-7.3-3.6-17.7,0.5c-10.4,4.1-9.6-5.9-15.5-7.2
	c-6-1.3-9.6,2.3-18.7,9.5c-9.1,7.2-16.4,4.6-24.6,6.4c-8.3,1.8-15-4.1-16.4,1.8c-1.3,5.9-5.5,10-8.3,8.2c-2.8-1.8-11.4,0.5-14.5,4.6
	c-3.1,4.1,4.1,4.1-6.8,6.7c-10.9,2.8-5,4.9-5,4.9c-3.6-1-24.6-3.6-20,7.2c4.6,10.8-5.5,7.2-10.4,5.9c-1.7-0.5-3,1.1-4.3,3.6V564.6z"
	/>
<linearGradient id="SVGID_25_" gradientUnits="userSpaceOnUse" x1="524.9738" y1="813.8248" x2="524.9738" y2="646.8378" gradientTransform="matrix(1 0 0 -1 0 1197.8898)">
	<stop  offset="0" style="stop-color:#79BBDF;stop-opacity:0.69"/>
	<stop  offset="1" style="stop-color:#153E54;stop-opacity:0.78"/>
</linearGradient>
<path class="st24" d="M755.8,512.4c-2.8-3,2.1-42,6.3-44.9c21.8-16.9-2.6-27.9-6.3-34.5c-3.5-6.6-2.5-1.2-3.1,3.5
	c-0.7,4.6-1.8,5.9-2.8-1.5c-1-7.4-1.5-9.4-3.3-7.9c-1.8,1.5-2,0.5-2.3-5.8c-0.3-6.3-3.3-15.4-7.3-16c-4-0.5-6.4-7.4-10.4-14
	c-4-6.6-3.8-16-13.2-22.5c-9.4-6.6-4.1,5.8-8.1,16c-4.1,10.2-5.1,2-5.9-1.2c-0.8-3.1-6.8-1-7.3,0c-1.5,2.8-4.1,4-5.9-1.7
	c-1.8-5.8-3.5-1.2-10.2,4c-6.8,5.1-5.5,7.9-5.5,1.2c0-6.8-19.5-2.6-19-4c0.3-1.5,1.8-2.6,0.2-6.8c-1.7-4-4-1.2-4.8,0.3
	s-0.5,0.5-3.1,4.5c-2.6,4-4.8,1.5-4.8-0.5c0-2,2.3-13.2-0.2-15.4c-2.5-2.3-5.9-4.1-8.1-4.8c-2.1-0.5-7.1,7.1-7.4,1.8
	c-0.3-5.1-3.5-5.1-5.8-5.1c-2.3,0-3.3-3.5-5.6-9.7c-2.3-6.3-4.8-4.3-10.2,0c-5.5,4.3-7.4,4.3-11.7,3.6c-4.3-0.5-4.1,1.7-6.1,3.1
	s-1.7-0.8-4.1,0c-2.3,0.8-0.5,11.7-1.7,9.1c-1.2-2.6-5.1-4.6-7.9-4.8c-2.8-0.3-5.9,2.6-9.1,3.5c-3.1,0.8-4,2.8-6.1,7.8
	c-2.3,4.8-5.1,9.7-7.4,14.9c-2.3,5.1-7.3,7.1-7.8,4.5c-0.5-2.6-6.8,5.1-9.1,4.3c-2.3-0.8-5.1,4.6-6.9,5.5c-1.8,0.8-3.3,0-3.1,4
	c0.2,4-6.3,6.9-6.8,9.6c-1.2,5.6,0.8,3.1-2.1,2.8c-3-0.3-6.6,5.3-10.1,5.3c-3.5,0-4.1,1.5-4.3,4c-0.3,2.6-6.1-0.3-6.3,1.7
	c-0.3,2-2.8,1.5-5.3,0.5c-2.5-0.8-2.3,0.3-2.1-3.3c0.2-3.6-4.1-0.3-5.4,2.1c-1.5,2.6,1.5,4.5-1,3.6c-2.5-0.8-3.1,0.7-3.8-2.1
	c-0.5-2.8-1.7,0.3-3.8-1.2c-2.1-1.5,3.5-3.1,2-9.3c-1.7-5.9-4.6-11.1-7.3-9.9c-2.6,1.2-2.1,4.8-2.8,3.5c-0.7-1.5-7.1,2.6-7.6,1.7
	c-0.5-0.8-2.8,0.3-4,3.5c-1.2,3.1-7.4,12.1-9.1,13.2c-1.7,1.2-2.5-0.7-4.1-8.1c-1.7-7.4-4.3-7.9-5.1-8.3c-0.8-0.3-7.9-3.3-8.8,1
	c-0.8,4.3-5,1.7-6.3-1.2c-1.3-2.8-3.5-1.2-5.5,3.5c-2.1,4.6-2.3,6.6-2.3,6.6c-8.1,8.3-6.4-1.3-9.7,4.3c-3.3,5.8-10.1,1-11.2,2.6
	c-1,1.7-5.6,1-6.4,2.6c-0.8,1.7-9.1,5.8-8.9,9.3s17.2,10.4,16.4,10.1c-0.8-0.3-4-0.3-4.5,3c-0.5,3.3-2.8,0.3-3.5,0.2
	c-0.7-0.3-3,0-3.8,2c-1,2-1.3,5.1-2.3,5.8c-1,0.5-1.5,1.5-1,3.6c0.3,2.1-0.3,2.1-1,5.3c-0.7,3.1-1.7,2.6-4.5,2.6
	c-2.8,0-6.1-4.6-6.3-3.1c-0.3,1.5-2.3,3.6-2.8,4.5c-0.5,0.8-1.7,1.2-2,0.3c-0.3-0.8-2.8,1.5-3,3.6c-0.3,2.3-1.5,1.5-1.5,1.5
	s-2.8,0-3.5,2.1c-0.7,2.1-2.6,1.3-4.1,0.5c-1.7-0.8-2.1-0.3-5.1,0c-3,0.3-5.3,4.6-5.3,4.6c-0.5,0.8-1.5,1.7-2-4.5
	c-0.2-1.5-6.3-3.6-10.9,0c-1.5,1.2-1,4.3-1.5,8.8c-0.3,3.1-3.8,1.7-3.8,1.7c-3.5-1.5-5.9-2-14.2,8.4c-8.3,10.6-10.4,19.5-20.8,24
	c-9.9,4.3,12.9,10.4,16.8,34.9h435.9c3.8-8.8,6.3-17.8,15.9-24.4C776.4,518.4,758.6,515.4,755.8,512.4z"/>
<linearGradient id="SVGID_26_" gradientUnits="userSpaceOnUse" x1="799.3025" y1="653.8777" x2="799.3025" y2="709.0447" gradientTransform="matrix(1 0 0 -1 0 1197.8898)">
	<stop  offset="0" style="stop-color:#79BBDF;stop-opacity:0.69"/>
	<stop  offset="1" style="stop-color:#153E54;stop-opacity:0.78"/>
</linearGradient>
<path class="st25" d="M858.9,544c-0.8-6,1.5-12.9-0.8-15.1c-2.5-2.3-15.4-6.6-17.7-4.3c-2.3,2.3-10.1,6-12.9,3
	c-2.8-3-5.8-9.4-10.1-7c-4.3,2.5-11.3-0.8-15.9-6.3c-4.6-5.6-9.3-1-17.1,10.1c0,0,1.5-23-1.7-28.5c-3.1-5.5-14.4,8.4-14.4,8.4
	s-2.8-6.1-6.6-7.1c-3-0.7-6.3,3.6-9.4,4.5c-4,1.2-7.5,9.3-7.9,9.6c-0.7,0.3,1.7,6.1,0.2,13.2c-1.8,8.6-5.8,19.4-5,25.3h114.3
	C856.8,547.5,859.3,545.8,858.9,544z"/>
<linearGradient id="SVGID_27_" gradientUnits="userSpaceOnUse" x1="510.8373" y1="597.7947" x2="511.6703" y2="697.8297" gradientTransform="matrix(1 0 0 -1 0 1197.8898)">
	<stop  offset="0" style="stop-color:#79BBDF;stop-opacity:0.69"/>
	<stop  offset="1" style="stop-color:#153E54;stop-opacity:0.78"/>
</linearGradient>
<path class="st26" d="M324.2,540.7c3,8.4-5.8,10.2-12.9,17.4c-6.9,7.2-12.2,8.4,0,12.7c12.2,4.4,12.2,8.7,7.6,12.7
	c-4.6,4,12.2-1.5,12.2-1.5s-6.9,9,7.6,16.4c14.7,7.2,30.4,16.7,33.9,5.5c3.5-11.2,6.4-15.9,12.2-13.1c5.8,2.8,15.9,4,18.2-1.2
	c2.3-5-6.9-8.7,3-10.9c9.9-2.2,11.1,4.4,19.3,2.8c8.3-1.5,8.3-5.9,10.6-7.7c2.3-1.8,12.2,0,18.7-3.3c6.4-3.4,9.9-2.2,12.9,1.8
	c3,4,9.9,6.2,15.9,6.2c5.8,0,13.4,6.9,16.4,8.4c3,1.5,14.1,4,16.4-2.8c2.3-6.9,9.4-11.2,12.9-9c3.5,2.2,17.5,5,24.6,10.9
	c6.9,5.9,18.2-1.5,22.3,2.8c4.1,4.4,17,11.9,24.6,12.7c7.6,0.7,27.4-3.2,29.3-12.7c1.8-9.4-6.9-19.3,9.4-17.8
	c16.4,1.5,73.2-1,77.9-9.4c4.6-8.4-4.6-24-14.7-27.3c-8.3-2.7-25.3-2.2-25.5-9.5H342.7c-0.2,0-0.3,0-0.5,0.2
	C329.9,528,321.2,532.3,324.2,540.7z"/>
<linearGradient id="SVGID_28_" gradientUnits="userSpaceOnUse" x1="841.4066" y1="490.2988" x2="841.4066" y2="407.5488" gradientTransform="matrix(1 0 0 -1 0 1197.8898)">
	<stop  offset="0" style="stop-color:#79BBDF;stop-opacity:0.69"/>
	<stop  offset="1" style="stop-color:#153E54;stop-opacity:0.78"/>
</linearGradient>
<path class="st27" d="M1028.4,766c-3-8.2,5.8-10.1,12.9-17.1c6.9-7.1,12.2-8.2,0-12.5c-12.2-4.3-12.2-8.6-7.6-12.5
	c4.6-4-12.2,1.5-12.2,1.5s6.9-8.9-7.6-16.2c-14.7-7.1-30.4-16.5-33.9-5.4c-3.5,11-6.4,15.7-12.2,12.9c-5.8-2.8-15.9-4-18.2,1.2
	c-2.3,4.9,6.9,8.6-3,10.7c-9.9,2.1-11.1-4.3-19.4-2.8c-8.3,1.5-8.3,5.8-10.6,7.6c-2.3,1.8-12.2,0-18.7,3.3
	c-6.5,3.3-9.9,2.1-12.9-1.8c-3-4-9.9-6.1-15.9-6.1c-5.8,0-13.4-6.8-16.4-8.2c-3-1.5-14-4-16.4,2.8c-2.3,6.8-9.4,11-12.9,8.9
	s-17.5-4.9-24.6-10.7c-6.9-5.8-18.2,1.5-22.3-2.8c-4.1-4.3-17-11.7-24.6-12.5c-7.6-0.7-27.4,3.1-29.3,12.5c-1.8,9.2,6.9,19-9.4,17.5
	c-16.4-1.5-73.2,1-77.9,9.2c-4.6,8.2,4.6,23.6,14.7,26.9c8.3,2.6,25.3,2.1,25.5,9.4l334.3,0c0.2,0,0.3,0,0.5-0.2
	C1022.6,778.6,1031.4,774.3,1028.4,766z"/>
<linearGradient id="SVGID_29_" gradientUnits="userSpaceOnUse" x1="171.0442" y1="544.5348" x2="171.0442" y2="732.3627" gradientTransform="matrix(1 0 0 -1 0 1197.8898)">
	<stop  offset="0" style="stop-color:#79BBDF;stop-opacity:0.69"/>
	<stop  offset="1" style="stop-color:#153E54;stop-opacity:0.78"/>
</linearGradient>
<path class="st28" d="M9.7,652.9c5.8,5.6,15.5,7.6,17.8-2.2c2.3-9.8-6.9-16.8,2.8-20.9c9.9-4.1,11.1,8.3,19,5.6
	c8.1-2.8,8.1-11.1,10.4-14.6c2.3-3.5,12.1,0,18.5-6.3c6.3-6.3,9.7-4.1,12.7,3.5c2.8,7.6,9.7,11.8,15.5,11.8
	c5.8,0,13.2,13.3,16.2,15.9c3,2.8,13.9,7.6,16.2-5.6c2.3-13.3,9.3-21.6,12.7-17.4c3.5,4.1,17.3,9.8,24.3,20.9
	c6.9,11.1,17.8-2.8,22,5.6c1.7,3.5,11.2,5.5,14.9,9.8c5.1,6,5.1,13.8,9.4,14.6c3.5,0.7,9.3-18.1,14.9-21.4c6.8-3.8,13.1,7,14-3
	c1.7-18.1-6.9-36.8,9.3-34c8.1,1.3,26.1,15.9,42.8,13.1c8.1-1.3,7.4-9.1,13.5-15.4c3.5-3.7,9.1,3.3,13.4,0.5
	c3.6-2.3,6.6-14.4,7.1-16.3c1.5-5.1,5.9-14.4,4.6-25.1c-0.5-4.6-7.3-9.5-7.3-14.4c0-6.1-5.8-12.3-5.5-17.8
	c0.8-11.4,7.9-20.4,4.3-22.7c-9.7-6.3-25.3,10-33.9-0.7c-7.4-9.3-4.8-20.2-0.5-31H0v179.2C2.6,652.9,5.3,648.6,9.7,652.9z"/>
<linearGradient id="SVGID_30_" gradientUnits="userSpaceOnUse" x1="945.3483" y1="653.1678" x2="945.3483" y2="701.7668" gradientTransform="matrix(1 0 0 -1 0 1197.8898)">
	<stop  offset="0" style="stop-color:#79BBDF;stop-opacity:0.69"/>
	<stop  offset="1" style="stop-color:#153E54;stop-opacity:0.78"/>
</linearGradient>
<path class="st29" d="M1002,544.5c-11.6-1.3-14.7-8.2-21.8-12.8c-7.1-4.4-7.8-13.3-12.9-10.2s-10.9,3.1-11.5,0s-8.3-7.7-13.4-7.1
	c-5.1,0.7,0,5.8-9.6,0c-9.6-5.8-7.1,0-7.1,0c-2-3.1-14.7-19.8-19.2-8.9c-4.4,10.9-8.9,1.3-11.5-3.1c-2.5-4.4-18,5.8-23.1,9.5
	s-1.3,16,9.6,24.2c5,3.8,6.9,8.9,7.9,13.8H1021C1018,545.7,1012.8,545.7,1002,544.5z"/>
<linearGradient id="SVGID_31_" gradientUnits="userSpaceOnUse" x1="946.6628" y1="607.5048" x2="946.6628" y2="671.8658" gradientTransform="matrix(1 0 0 -1 0 1197.8898)">
	<stop  offset="0" style="stop-color:#79BBDF;stop-opacity:0.69"/>
	<stop  offset="1" style="stop-color:#153E54;stop-opacity:0.78"/>
</linearGradient>
<path class="st30" d="M844.8,540.8c-3.2,2.5,2.2,4.9-0.5,7.1c-5.8,4.8-18.2,8.7-18.4,11.3c-0.5,8.2-8,18.9-3.5,21
	c1.8,1,3.3,5.8,9.6,4.3c4.6-1.1,13.9-8.5,18.2-9c4-0.5,7.3,5.1,8.9,3.8c6-4.3,24.2-12.7,29.2-9.5c5,3.1,9.1,11.2,19.4,5.9
	s24.2-3.4,32.3,2.6c5.1,3.8,5.5,1.8,15.1-4.9c1.5-1.1,4.8,3.9,8.1,2.6c3-1.2,5.8-8.7,7.5-10c3.2-2.6,6-6.6,10.1-4.8
	c0,0,1.2,4.4-1.2,13.6c-2.3,9-8,18.7-5.5,21.9c2.3,3,5.8-3.9,13.3-6.9c3.5-1.3,11.1,3.1,13.9,1c4.3-3.3,7.3-12,7.3-12
	s4,7.7,11.8,7.4c6.1-0.2,15.1-7.6,22-10c9.3-3.3,19.6-16.1,20.9-16.8c1.5-0.8-1.5-7.9,4.5-18.7c1.3-2.5,3-5.1,4.5-7.7H858.2
	c-0.3,0.8-0.8,1.6-1.5,2.3C855.2,537.3,847,539.1,844.8,540.8z"/>
<linearGradient id="SVGID_32_" gradientUnits="userSpaceOnUse" x1="217.7527" y1="323.7308" x2="217.7527" y2="258.0568" gradientTransform="matrix(1 0 0 -1 0 1197.8898)">
	<stop  offset="0" style="stop-color:#79BBDF;stop-opacity:0.69"/>
	<stop  offset="1" style="stop-color:#153E54;stop-opacity:0.78"/>
</linearGradient>
<path class="st31" d="M319.6,924.8c3.1-2.5-2.2-5,0.5-7.2c5.8-4.9,18.2-8.9,18.4-11.6c0.5-8.4,8-19.3,3.5-21.5
	c-1.8-1-3.3-5.9-9.6-4.4c-4.6,1.2-13.9,8.7-18.2,9.2c-4,0.5-7.3-5.2-8.9-3.9c-6,4.4-24.2,12.9-29.2,9.7c-5-3.2-9.1-11.4-19.4-6
	c-10.3,5.4-24.2,3.5-32.3-2.7c-5.1-3.9-5.5-1.8-15.1,5c-1.5,1.2-4.8-4-8.1-2.7c-3,1.2-5.8,8.9-7.5,10.2c-3.1,2.7-6,6.7-10.1,4.9
	c0,0-1.2-4.5,1.2-13.9c2.3-9.2,8-19.1,5.5-22.3c-2.3-3-5.8,4-13.3,7c-3.5,1.3-11.1-3.2-13.9-1c-4.3,3.4-7.3,12.2-7.3,12.2
	s-4-7.9-11.8-7.5c-6.1,0.2-15.1,7.7-22,10.2c-9.3,3.4-19.6,16.4-20.9,17.1c-1.5,0.8,1.5,8-4.5,19.1c-1.3,2.5-3,5.2-4.5,7.9h214.1
	c0.3-0.8,0.8-1.7,1.5-2.3C309.2,928.3,317.5,926.5,319.6,924.8z"/>
<linearGradient id="SVGID_33_" gradientUnits="userSpaceOnUse" x1="803.9068" y1="677.8828" x2="803.9068" y2="723.8547" gradientTransform="matrix(1 0 0 -1 0 1197.8898)">
	<stop  offset="0" style="stop-color:#79BBDF;stop-opacity:0.69"/>
	<stop  offset="1" style="stop-color:#153E54;stop-opacity:0.78"/>
</linearGradient>
<path class="st32" d="M806.6,511.1c-5.4,2.5-8.4,3.2-9.2,0c-0.8-3.2-3.1-6-5.4-6c-2.3,0-2.3-3.2-3-5s-4.6-2.2-6.1-1.8
	c-1.5,0.3-6.1-4.2-6.6-5.7c-0.7-1.3,1.8-3.5,2.6-6c0.8-2.5,6.6-9.5,11-7.3c4.3,2.2,6.9,13.7,10,10.5c3.1-3.2,2-8.2,3.1-7.7
	c1.2,0.3,4.9,2.8,5.3,3.8c0.3,1,6.1,2.5,6.9-0.3c0.8-2.8,5.4-2.5,7.6,1c2,3.5-2.6,13,0,13.7c2.6,0.7,5.6,5,7.9,9.2
	c2.3,4.2-1,15.5-9.5,15.5c-0.8,0-6.4-6.7-11.2-6.7c-4.8,0-7.9,6.7-8.1,3.8C801.4,519.5,806.6,511.1,806.6,511.1z"/>
<linearGradient id="SVGID_34_" gradientUnits="userSpaceOnUse" x1="1035.4781" y1="667.3568" x2="1035.4781" y2="713.3287" gradientTransform="matrix(1 0 0 -1 0 1197.8898)">
	<stop  offset="0" style="stop-color:#79BBDF;stop-opacity:0.69"/>
	<stop  offset="1" style="stop-color:#153E54;stop-opacity:0.78"/>
</linearGradient>
<path class="st33" d="M1032.8,503.4c5.4-2.5,8.4-3.2,9.2,0c0.8,3.2,3.1,6,5.4,6c2.3,0,2.3,3.2,2.8,4.8c0.7,1.8,4.6,2.2,6.1,1.8
	c1.5-0.3,6.1,4.2,6.6,5.7c0.7,1.3-1.6,3.5-2.6,6c-0.8,2.5-6.6,9.5-11,7.3c-4.3-2.2-6.9-13.7-10.1-10.5c-3.1,3.2-2,8-3.1,7.7
	c-1.1-0.3-4.9-2.8-5.3-3.8c-0.3-1-6.1-2.5-6.9,0.3c-0.8,2.8-5.4,2.5-7.6-1c-2-3.5,2.6-13,0-13.7s-5.6-4.8-7.8-9.2
	c-2.3-4.2,1-15.5,9.6-15.5c0.8,0,6.4,6.7,11.2,6.7c4.8,0,7.8-6.7,8.1-3.8C1038.1,494.9,1032.8,503.4,1032.8,503.4z"/>
<linearGradient id="SVGID_35_" gradientUnits="userSpaceOnUse" x1="688.124" y1="721.3018" x2="688.124" y2="767.2737" gradientTransform="matrix(1 0 0 -1 0 1197.8898)">
	<stop  offset="0" style="stop-color:#79BBDF;stop-opacity:0.69"/>
	<stop  offset="1" style="stop-color:#153E54;stop-opacity:0.78"/>
</linearGradient>
<path class="st34" d="M690.9,467.7c-5.4,2.5-8.4,3.2-9.2,0c-0.8-3.2-3.1-6-5.4-6c-2.3,0-2.3-3.2-3-5c-0.7-1.8-4.6-2.2-6.1-1.8
	c-1.5,0.3-6.1-4.2-6.6-5.7c-0.7-1.3,1.8-3.5,2.6-6c0.8-2.5,6.6-9.5,11-7.3c4.3,2.2,6.9,13.7,10,10.5c3.1-3.2,2-8.2,3.1-7.7
	c1.2,0.3,4.9,2.8,5.3,3.8c0.3,1,6.1,2.5,6.9-0.3c0.8-2.8,5.4-2.5,7.6,1c2,3.5-2.6,13,0,13.7c2.6,0.7,5.6,5,7.9,9.2
	c2.3,4.2-1,15.5-9.5,15.5c-0.8,0-6.4-6.7-11.2-6.7c-4.8,0-7.9,6.7-8.1,3.8C685.6,476.1,690.9,467.7,690.9,467.7z"/>
<linearGradient id="SVGID_36_" gradientUnits="userSpaceOnUse" x1="724.964" y1="327.8998" x2="724.964" y2="373.8727" gradientTransform="matrix(1 0 0 -1 0 1197.8898)">
	<stop  offset="0" style="stop-color:#79BBDF;stop-opacity:0.69"/>
	<stop  offset="1" style="stop-color:#153E54;stop-opacity:0.78"/>
</linearGradient>
<path class="st35" d="M727.7,861.1c-5.4,2.5-8.4,3.2-9.2,0c-0.8-3.2-3.1-6-5.4-6c-2.3,0-2.3-3.2-3-5c-0.7-1.8-4.6-2.2-6.1-1.8
	c-1.5,0.3-6.1-4.2-6.6-5.7c-0.7-1.3,1.8-3.5,2.6-6c0.8-2.5,6.6-9.5,11-7.3c4.3,2.2,6.9,13.7,10,10.5c3.1-3.2,2-8.2,3.1-7.7
	c1.2,0.3,4.9,2.8,5.3,3.8c0.3,1,6.1,2.5,6.9-0.3c0.8-2.8,5.4-2.5,7.6,1c2,3.5-2.6,13,0,13.7c2.6,0.7,5.6,5,7.9,9.2
	c2.3,4.2-1,15.5-9.5,15.5c-0.8,0-6.4-6.7-11.2-6.7c-4.8,0-7.9,6.7-8.1,3.8C722.4,869.5,727.7,861.1,727.7,861.1z"/>
<linearGradient id="SVGID_37_" gradientUnits="userSpaceOnUse" x1="400.6385" y1="685.7778" x2="400.6385" y2="731.7498" gradientTransform="matrix(1 0 0 -1 0 1197.8898)">
	<stop  offset="0" style="stop-color:#79BBDF;stop-opacity:0.69"/>
	<stop  offset="1" style="stop-color:#153E54;stop-opacity:0.78"/>
</linearGradient>
<path class="st36" d="M403.4,503.3c-5.6,2.5-8.6,3.2-9.4,0c-0.8-3.2-3.2-6-5.6-6c-2.4,0-2.4-3.2-3-5c-0.7-1.8-4.7-2.2-6.2-1.8
	c-1.5,0.3-6.2-4.2-6.7-5.7c-0.7-1.3,1.9-3.5,2.7-6c0.8-2.5,6.7-9.5,11.3-7.3c4.4,2.2,7.1,13.7,10.3,10.5c3.2-3.2,2-8.2,3.2-7.7
	c1.2,0.3,5.1,2.8,5.4,3.8c0.3,1,6.2,2.5,7.1-0.3c0.8-2.8,5.6-2.5,7.7,1c2,3.5-2.7,13,0,13.7c2.7,0.7,5.7,5,8.1,9.2
	c2.4,4.2-1,15.5-9.8,15.5c-0.8,0-6.6-6.7-11.4-6.7s-8.1,6.7-8.3,3.8C398.1,511.8,403.4,503.3,403.4,503.3z"/>
<linearGradient id="SVGID_38_" gradientUnits="userSpaceOnUse" x1="544.7101" y1="706.2997" x2="544.7101" y2="735.1968" gradientTransform="matrix(1 0 0 -1 0 1197.8898)">
	<stop  offset="0" style="stop-color:#79BBDF;stop-opacity:0.69"/>
	<stop  offset="1" style="stop-color:#153E54;stop-opacity:0.78"/>
</linearGradient>
<path class="st37" d="M561.6,489.1c0,0,1.8,1.5-2.4,1.2c-4.2-0.3-1.5,0.5-3.2,1.7c-1.5,1-4.9,0.9-5.5,0c-0.7-1-2.7,0-3.7,2.1
	c-1.2,1.9-2.9-0.9-5.9-1.2c-3-0.3-5.4-2.1-9.2-0.5c-4,1.5-5.7,2.4-7.6,1.4c-1.8-1.2-0.5-4.6-4.5-4.3c-4.2,0.3-5,0.5-6.2-1.9
	s-8.7-0.9,0.2-6.4c8.9-5.5,6.2-7.7,14.1-7.4c7.9,0.2,8.7-0.5,12.6-2.6c3.7-2.1,5.9-3.6,7.4-1.7c1.5,1.9,6.4,0.7,10.1-1.2
	c3.5-1.9,5.4-3.4,7.1-1.9c1.7,1.5,3,7,8.1,8.1c5,0.9,8.2,4.3,7.2,6.5c-1,2.2-4.4,8.2-5.9,7.2c-1.7-1-4.7-3.4-4.4,0.9
	C569.8,493.2,562.7,489.8,561.6,489.1z"/>
<linearGradient id="SVGID_39_" gradientUnits="userSpaceOnUse" x1="390.7708" y1="570.3538" x2="390.7708" y2="595.3108" gradientTransform="matrix(1 0 0 -1 0 1197.8898)">
	<stop  offset="0" style="stop-color:#79BBDF;stop-opacity:0.69"/>
	<stop  offset="1" style="stop-color:#153E54;stop-opacity:0.78"/>
</linearGradient>
<path class="st38" d="M401.7,618.2c0,0,1.3,0.3-1,1.2c-2.3,0.8-0.7,0.7-1.3,1.7c-0.5,1-2.3,1.7-3,1.5c-0.7-0.3-1.3,0.7-1.5,2
	c-0.2,1.3-1.8,0.2-3.5,0.8c-1.7,0.7-3.3,0.3-5.1,2.2c-1.8,1.8-2.5,2.7-3.8,2.7c-1.3-0.2-1.5-2.3-3.5-1.2c-2.2,1.2-2.7,1.5-3.8,0.7
	c-1.2-1-4.8,1.8-1.5-3.5c3.5-5.2,1.5-5.7,5.6-7.5c4.3-1.8,4.6-2.5,6.1-4.5c1.5-2,2.3-3.5,3.5-2.8c1.3,0.7,3.6-1.3,5.1-3.2
	c1.5-1.8,2-3.2,3.3-2.8c1.3,0.5,3.5,3,6.3,2.2c2.8-0.8,5.5,0.2,5.5,1.5c0,1.3-0.3,5.5-1.3,5.4c-1.2-0.2-3.3-0.7-2.2,1.7
	C407.2,618.3,402.6,618.3,401.7,618.2z"/>
<linearGradient id="SVGID_40_" gradientUnits="userSpaceOnUse" x1="126.3097" y1="601.9318" x2="126.3097" y2="626.8878" gradientTransform="matrix(1 0 0 -1 0 1197.8898)">
	<stop  offset="0" style="stop-color:#79BBDF;stop-opacity:0.69"/>
	<stop  offset="1" style="stop-color:#153E54;stop-opacity:0.78"/>
</linearGradient>
<path class="st39" d="M137.3,586.8c0,0,1.3,0.3-1,1.2c-2.3,0.8-0.7,0.7-1.3,1.7c-0.5,1-2.3,1.7-3,1.3s-1.3,0.7-1.5,2
	c-0.2,1.3-1.8,0.2-3.5,0.8c-1.7,0.7-3.3,0.3-5.1,2.2c-1.8,1.8-2.5,2.7-3.8,2.7c-1.3-0.2-1.5-2.3-3.5-1.2c-2.2,1.2-2.7,1.5-3.8,0.7
	c-1.2-1-4.8,1.8-1.5-3.5c3.5-5.2,1.5-5.7,5.6-7.5c4.3-1.8,4.6-2.5,6.1-4.5c1.5-2,2.3-3.5,3.5-2.8c1.3,0.7,3.6-1.3,5.1-3.2
	c1.5-1.8,2-3.2,3.3-2.8c1.3,0.5,3.5,3,6.3,2.2c2.8-0.8,5.5,0.2,5.5,1.5s-0.3,5.5-1.3,5.4c-1.2-0.2-3.3-0.7-2.2,1.7
	C142.6,586.8,138.1,586.8,137.3,586.8z"/>
<linearGradient id="SVGID_41_" gradientUnits="userSpaceOnUse" x1="27.6299" y1="717.5737" x2="27.6299" y2="741.2158" gradientTransform="matrix(1 0 0 -1 0 1197.8898)">
	<stop  offset="0" style="stop-color:#79BBDF;stop-opacity:0.69"/>
	<stop  offset="1" style="stop-color:#153E54;stop-opacity:0.78"/>
</linearGradient>
<path class="st40" d="M38.5,471.5c0,0,1.3,0.3-1,1.1c-2.3,0.8-0.7,0.6-1.3,1.6c-0.5,1-2.3,1.6-3,1.4c-0.7-0.3-1.3,0.6-1.5,1.9
	c-0.2,1.3-1.8,0.2-3.5,0.8c-1.7,0.6-3.3,0.3-5.1,2.1c-1.8,1.7-2.5,2.5-3.8,2.5c-1.3-0.2-1.5-2.2-3.5-1.1c-2.1,1.1-2.6,1.4-3.8,0.6
	c-1.2-1-4.8,1.7-1.5-3.3c3.5-4.9,1.5-5.4,5.8-7.1s4.6-2.4,6.1-4.3c1.5-1.9,2.3-3.3,3.5-2.7c1.3,0.6,3.6-1.3,5.1-3
	c1.5-1.7,2-3,3.3-2.7c1.3,0.5,3.3,2.9,6.3,2.1c2.8-0.8,5.4,0.2,5.4,1.4c0,1.3-0.3,5.2-1.3,5.1c-1.2-0.2-3.3-0.6-2.1,1.6
	C43.9,471.5,39.3,471.5,38.5,471.5z"/>
<linearGradient id="SVGID_42_" gradientUnits="userSpaceOnUse" x1="1006.5322" y1="788.7648" x2="1006.5322" y2="813.7208" gradientTransform="matrix(1 0 0 -1 0 1197.8898)">
	<stop  offset="0" style="stop-color:#79BBDF;stop-opacity:0.69"/>
	<stop  offset="1" style="stop-color:#153E54;stop-opacity:0.78"/>
</linearGradient>
<path class="st41" d="M1017.5,399.9c0,0,1.3,0.3-1,1.2c-2.3,0.8-0.7,0.7-1.3,1.7c-0.5,1-2.3,1.7-3,1.3s-1.3,0.7-1.5,2
	c-0.2,1.3-1.8,0.2-3.5,0.8c-1.7,0.7-3.3,0.3-5.1,2.2c-1.8,1.8-2.5,2.7-3.8,2.7c-1.3-0.2-1.5-2.3-3.5-1.2c-2.2,1.2-2.7,1.5-3.8,0.7
	c-1.2-1-4.8,1.8-1.5-3.5c3.5-5.2,1.5-5.7,5.6-7.5c4.3-1.8,4.7-2.5,6.1-4.5c1.5-2,2.3-3.5,3.5-2.8c1.3,0.7,3.7-1.3,5.1-3.2
	c1.5-1.8,2-3.2,3.3-2.8c1.3,0.5,3.5,3,6.3,2.2c2.8-0.8,5.5,0.2,5.5,1.5c0,1.3-0.3,5.5-1.3,5.4c-1.2-0.2-3.3-0.7-2.2,1.7
	C1022.8,399.9,1018.3,399.9,1017.5,399.9z"/>
<linearGradient id="SVGID_43_" gradientUnits="userSpaceOnUse" x1="165.1232" y1="689.5438" x2="165.1232" y2="746.0237" gradientTransform="matrix(1 0 0 -1 0 1197.8898)">
	<stop  offset="0" style="stop-color:#79BBDF;stop-opacity:0.69"/>
	<stop  offset="1" style="stop-color:#153E54;stop-opacity:0.78"/>
</linearGradient>
<path class="st42" d="M174.7,497.8c-5,6.3-8,8.9-11,5.8c-3-3.1-7.5-5-10.4-3.6c-2.8,1.5-4.7-2.3-6.5-4c-1.8-1.7-6.9,0.3-8.4,1.7
	c-1.5,1.3-9.9-1.2-11.4-2.5c-1.5-1.3-0.2-5.1-0.7-8.6c-0.3-2,5.9-4,7.7-7.6c1.3-2.8-2-7.8,0.8-7.9c6.5-0.2,16.9,11.8,18.7,6.1
	c1.8-5.6-2.5-10.8-1-11.1c1.7-0.3,7.7,0.2,8.7,1.3c1,1,8.9-0.8,8-4.8c-0.7-3.8,5-6.3,9.7-3.5s5,16.9,8.5,16.1
	c3.5-0.8,9.7,2.3,15.1,5.8c3.2,2.2-0.5,10.3-2,16.6c-1,4.1,0.5,7.3,0.2,7.6c-0.3,0.2-2.5,4.8-5.2,5.5c-2,0.5-4.2,3-6,2.5
	c-2.5-0.5-4.3-4.1-4.3-4.1s-7.2,7.9-9.4,4.8C173.7,510.9,174.7,497.8,174.7,497.8z"/>
<linearGradient id="SVGID_44_" gradientUnits="userSpaceOnUse" x1="589.4451" y1="277.7228" x2="589.4451" y2="334.2028" gradientTransform="matrix(1 0 0 -1 0 1197.8898)">
	<stop  offset="0" style="stop-color:#79BBDF;stop-opacity:0.69"/>
	<stop  offset="1" style="stop-color:#153E54;stop-opacity:0.78"/>
</linearGradient>
<path class="st43" d="M598.9,909.6c-4.9,6.3-7.9,8.9-10.9,5.8c-3-3.1-7.4-5-10.2-3.6c-2.8,1.5-4.6-2.3-6.4-4
	c-1.8-1.7-6.7,0.3-8.2,1.7c-1.5,1.3-9.7-1.2-11.2-2.5c-1.5-1.3-0.2-5.1-0.7-8.6c-0.3-2,5.8-4,7.6-7.6c1.3-2.8-2-7.8,0.8-7.9
	c6.4-0.2,16.6,11.8,18.4,6.1c1.8-5.6-2.5-10.8-1-11.1c1.6-0.3,7.6,0.2,8.6,1.3c1,1,8.7-0.8,7.9-4.8c-0.7-3.8,4.9-6.3,9.5-3.5
	c4.6,2.8,4.9,16.9,8.4,16.1c3.5-0.8,9.5,2.3,14.8,5.8c3.1,2.2-0.5,10.3-2,16.6c-1,4.1,0.5,7.3,0.2,7.6c-0.3,0.2-2.5,4.8-5.1,5.5
	c-2,0.5-4.1,3-5.9,2.5c-2.5-0.5-4.3-4.1-4.3-4.1s-7.1,7.9-9.2,4.8C597.9,922.7,598.9,909.6,598.9,909.6z"/>
<linearGradient id="SVGID_45_" gradientUnits="userSpaceOnUse" x1="572.3403" y1="759.2778" x2="572.3403" y2="815.7578" gradientTransform="matrix(1 0 0 -1 0 1197.8898)">
	<stop  offset="0" style="stop-color:#79BBDF;stop-opacity:0.69"/>
	<stop  offset="1" style="stop-color:#153E54;stop-opacity:0.78"/>
</linearGradient>
<path class="st44" d="M581.6,427.9c-4.9,6.3-7.9,8.9-10.9,5.8c-3-3.1-7.4-5-10-3.6c-2.8,1.5-4.6-2.3-6.4-4c-1.8-1.7-6.7,0.3-8.2,1.7
	c-1.5,1.3-9.7-1.2-11.2-2.5c-1.5-1.3-0.2-5.1-0.7-8.6c-0.3-2,5.8-4,7.6-7.6c1.3-2.8-2-7.8,0.8-7.9c6.4-0.2,16.6,11.8,18.4,6.1
	c1.8-5.6-2.5-10.8-1-11.1c1.6-0.3,7.6,0.2,8.6,1.3c1,1,8.7-0.8,7.9-4.6c-0.7-3.8,4.9-6.3,9.5-3.5c4.6,2.8,4.9,16.9,8.4,16.1
	c3.5-0.8,9.5,2.3,14.8,5.8c3.1,2.2-0.5,10.3-2,16.6c-1,4.1,0.5,7.3,0.2,7.6c-0.3,0.2-2.5,4.8-5.1,5.5c-2,0.5-4.1,3-5.9,2.5
	c-2.5-0.5-4.3-4.1-4.3-4.1s-7.1,7.9-9.2,4.8C580.6,441.2,581.6,427.9,581.6,427.9z"/>
<linearGradient id="SVGID_46_" gradientUnits="userSpaceOnUse" x1="1006.528" y1="681.6498" x2="1006.528" y2="738.1298" gradientTransform="matrix(1 0 0 -1 0 1197.8898)">
	<stop  offset="0" style="stop-color:#79BBDF;stop-opacity:0.69"/>
	<stop  offset="1" style="stop-color:#153E54;stop-opacity:0.78"/>
</linearGradient>
<path class="st45" d="M1015.8,505.7c-4.9,6.3-7.9,8.9-10.8,5.8c-3-3.1-7.4-5-10-3.6c-2.8,1.5-4.6-2.3-6.4-4
	c-1.8-1.7-6.8,0.3-8.2,1.7c-1.5,1.3-9.7-1.2-11.2-2.5c-1.5-1.3-0.2-5.1-0.7-8.6c-0.3-2,5.8-4,7.6-7.6c1.3-2.8-2-7.8,0.8-7.9
	c6.4-0.2,16.6,11.8,18.4,6.1c1.8-5.6-2.5-10.8-1-11.1c1.6-0.3,7.6,0.2,8.6,1.3c1,1,8.7-0.8,7.9-4.8c-0.7-3.8,4.9-6.3,9.5-3.5
	c4.6,2.8,4.9,16.9,8.4,16.1c3.5-0.8,9.5,2.3,14.8,5.8c3.1,2.2-0.5,10.3-2,16.6c-1,4.1,0.5,7.3,0.2,7.6c-0.3,0.2-2.5,4.8-5.1,5.5
	c-2,0.5-4.1,3-6.1,2.5c-2.5-0.5-4.3-4.1-4.3-4.1s-7.1,7.9-9.2,4.8C1014.8,518.8,1015.8,505.7,1015.8,505.7z"/>
<g>
	<circle class="st46" cx="846.8" cy="237.3" r="4.3"/>
</g>
<circle class="st46" cx="846.8" cy="237.3" r="4.3"/>
<g>
	<circle class="st46" cx="105.2" cy="209.4" r="4.3"/>
</g>
<circle class="st46" cx="105.2" cy="209.4" r="4.3"/>
<g>
	<circle class="st46" cx="593.9" cy="76.5" r="4.3"/>
</g>
<circle class="st46" cx="593.9" cy="76.5" r="4.3"/>
<g>
	<circle class="st46" cx="581" cy="691.7" r="4.3"/>
</g>
<circle class="st46" cx="581" cy="691.7" r="4.3"/>
<g>
	<circle class="st46" cx="19.4" cy="721.7" r="4.3"/>
</g>
<circle class="st46" cx="19.4" cy="721.7" r="4.3"/>
<g>
	<circle class="st46" cx="981.9" cy="668.2" r="4.3"/>
</g>
<circle class="st46" cx="981.9" cy="668.2" r="4.3"/>
<g>
	<circle class="st46" cx="338.8" cy="215.9" r="4.3"/>
</g>
<circle class="st46" cx="338.8" cy="215.9" r="4.3"/>
<linearGradient id="SVGID_47_" gradientUnits="userSpaceOnUse" x1="605.8784" y1="712.7888" x2="605.8784" y2="208.7767" gradientTransform="matrix(6.123234e-17 -1 -1 -6.123234e-17 669.1888 1373.501)">
	<stop  offset="0" style="stop-color:#FFFFFF"/>
	<stop  offset="1" style="stop-color:#D9D9D9;stop-opacity:0"/>
</linearGradient>
<path class="st47" d="M-43.6,767.6L-43.6,767.6c0-3,2.5-5.5,5.5-5.5h493.1c3,0,5.5,2.5,5.5,5.5l0,0c0,3-2.5,5.5-5.5,5.5H-38.1
	C-41.1,773.1-43.6,770.6-43.6,767.6z"/>
<linearGradient id="SVGID_48_" gradientUnits="userSpaceOnUse" x1="1306.7024" y1="286.8198" x2="1306.7024" y2="-217.1921" gradientTransform="matrix(6.123234e-17 -1 -1 -6.123234e-17 944.0438 2500.2939)">
	<stop  offset="0" style="stop-color:#FFFFFF"/>
	<stop  offset="1" style="stop-color:#D9D9D9;stop-opacity:0"/>
</linearGradient>
<path class="st48" d="M657.2,1193.6L657.2,1193.6c0-3,2.5-5.5,5.5-5.5h493.1c3,0,5.5,2.5,5.5,5.5l0,0c0,3-2.5,5.5-5.5,5.5H662.7
	C659.7,1199.1,657.2,1196.6,657.2,1193.6z"/>
<linearGradient id="SVGID_49_" gradientUnits="userSpaceOnUse" x1="852.5484" y1="978.5598" x2="852.5484" y2="474.5478" gradientTransform="matrix(6.123234e-17 -1 -1 -6.123234e-17 1181.6298 1354.3999)">
	<stop  offset="0" style="stop-color:#FFFFFF"/>
	<stop  offset="1" style="stop-color:#D9D9D9;stop-opacity:0"/>
</linearGradient>
<path class="st49" d="M203.1,501.9L203.1,501.9c0-3,2.5-5.5,5.5-5.5h493.1c3,0,5.5,2.5,5.5,5.5l0,0c0,3-2.5,5.5-5.5,5.5H208.5
	C205.5,507.3,203.1,504.9,203.1,501.9z"/>
<linearGradient id="SVGID_50_" gradientUnits="userSpaceOnUse" x1="980.8454" y1="435.8597" x2="980.8454" y2="-68.1522" gradientTransform="matrix(6.123234e-17 -1 -1 -6.123234e-17 767.2267 2025.397)">
	<stop  offset="0" style="stop-color:#FFFFFF"/>
	<stop  offset="1" style="stop-color:#D9D9D9;stop-opacity:0"/>
</linearGradient>
<path class="st50" d="M331.4,1044.6L331.4,1044.6c0-3,2.5-5.5,5.5-5.5h493.1c3,0,5.5,2.5,5.5,5.5l0,0c0,3-2.5,5.5-5.5,5.5H336.8
	C333.8,1050,331.4,1047.6,331.4,1044.6z"/>
<linearGradient id="SVGID_51_" gradientUnits="userSpaceOnUse" x1="1083.5414" y1="1331.7488" x2="1083.5414" y2="827.7368" gradientTransform="matrix(6.123234e-17 -1 -1 -6.123234e-17 1765.8118 1232.204)">
	<stop  offset="0" style="stop-color:#FFFFFF"/>
	<stop  offset="1" style="stop-color:#D9D9D9;stop-opacity:0"/>
</linearGradient>
<path class="st51" d="M434.1,148.7L434.1,148.7c0-3,2.5-5.5,5.5-5.5h493.1c3,0,5.5,2.5,5.5,5.5l0,0c0,3-2.5,5.5-5.5,5.5H439.5
	C436.5,154.1,434.1,151.7,434.1,148.7z"/>
<linearGradient id="SVGID_52_" gradientUnits="userSpaceOnUse" x1="1242.7406" y1="1134.2457" x2="1242.7406" y2="447.0677" gradientTransform="matrix(6.123234e-17 -1 -1 -6.123234e-17 1727.5997 1588.9979)">
	<stop  offset="0" style="stop-color:#FFFFFF"/>
	<stop  offset="1" style="stop-color:#D9D9D9;stop-opacity:0"/>
</linearGradient>
<path class="st52" d="M593.4,346.3L593.4,346.3c0-3,2.4-5.4,5.4-5.4h676.4c3,0,5.4,2.4,5.4,5.4l0,0c0,3-2.4,5.4-5.4,5.4H598.7
	C595.8,351.6,593.4,349.2,593.4,346.3z"/>
<linearGradient id="SVGID_53_" gradientUnits="userSpaceOnUse" x1="512.4695" y1="851.8328" x2="512.4695" y2="171.5797" gradientTransform="matrix(6.123234e-17 -1 -1 -6.123234e-17 714.9156 1141.1398)">
	<stop  offset="0" style="stop-color:#FFFFFF"/>
	<stop  offset="1" style="stop-color:#D9D9D9;stop-opacity:0"/>
</linearGradient>
<path class="st53" d="M-136.9,628.7L-136.9,628.7c0-3,2.4-5.4,5.4-5.4h669.5c3,0,5.4,2.4,5.4,5.4l0,0c0,3-2.4,5.4-5.4,5.4h-669.5
	C-134.5,634.1-136.9,631.6-136.9,628.7z"/>
<linearGradient id="SVGID_54_" gradientUnits="userSpaceOnUse" x1="981.8746" y1="599.4318" x2="981.8746" y2="-267.0443" gradientTransform="matrix(6.123234e-17 -1 -1 -6.123234e-17 931.9197 1862.9459)">
	<stop  offset="0" style="stop-color:#FFFFFF"/>
	<stop  offset="1" style="stop-color:#D9D9D9;stop-opacity:0"/>
</linearGradient>
<path class="st54" d="M332.5,881.1L332.5,881.1c0-3,2.4-5.4,5.4-5.4h855.7c3,0,5.4,2.4,5.4,5.4v0c0,3-2.4,5.4-5.4,5.4H337.9
	C334.9,886.5,332.5,884,332.5,881.1z"/>
<linearGradient id="SVGID_55_" gradientUnits="userSpaceOnUse" x1="1261.9796" y1="832.5948" x2="1261.9796" y2="181.5839" gradientTransform="matrix(6.123234e-17 -1 -1 -6.123234e-17 1445.1877 1909.8879)">
	<stop  offset="0" style="stop-color:#FFFFFF"/>
	<stop  offset="1" style="stop-color:#D9D9D9;stop-opacity:0"/>
</linearGradient>
<path class="st55" d="M612.6,647.9L612.6,647.9c0-3,2.4-5.4,5.4-5.4h640.2c3,0,5.4,2.4,5.4,5.4l0,0c0,3-2.4,5.4-5.4,5.4H618
	C615,653.3,612.6,650.9,612.6,647.9z"/>
<linearGradient id="SVGID_56_" gradientUnits="userSpaceOnUse" x1="1609.8613" y1="397.3297" x2="1609.8613" y2="134.7677" gradientTransform="matrix(6.123234e-17 -1 -1 -6.123234e-17 1357.7126 2692.9431)">
	<stop  offset="0" style="stop-color:#FFFFFF"/>
	<stop  offset="1" style="stop-color:#D9D9D9;stop-opacity:0"/>
</linearGradient>
<path class="st56" d="M960.4,1083.1L960.4,1083.1c0-3,2.5-5.5,5.5-5.5h251.6c3,0,5.5,2.5,5.5,5.5l0,0c0,3-2.5,5.5-5.5,5.5H965.9
	C962.8,1088.6,960.4,1086.1,960.4,1083.1z"/>
<linearGradient id="SVGID_57_" gradientUnits="userSpaceOnUse" x1="786.7324" y1="1403.933" x2="786.7324" y2="1141.371" gradientTransform="matrix(6.123234e-17 -1 -1 -6.123234e-17 1541.187 863.2108)">
	<stop  offset="0" style="stop-color:#FFFFFF"/>
	<stop  offset="1" style="stop-color:#D9D9D9;stop-opacity:0"/>
</linearGradient>
<path class="st57" d="M137.3,76.5L137.3,76.5c0-3,2.5-5.5,5.5-5.5h251.6c3,0,5.5,2.5,5.5,5.5l0,0c0,3-2.5,5.5-5.5,5.5H142.7
	C139.7,82,137.3,79.5,137.3,76.5z"/>
<linearGradient id="SVGID_58_" gradientUnits="userSpaceOnUse" x1="687.1497" y1="489.3907" x2="687.1497" y2="-281.6653" gradientTransform="matrix(6.123234e-17 -1 -1 -6.123234e-17 527.1537 1678.262)">
	<stop  offset="0" style="stop-color:#FFFFFF"/>
	<stop  offset="1" style="stop-color:#D9D9D9;stop-opacity:0"/>
</linearGradient>
<path class="st58" d="M37.8,991.1L37.8,991.1c0-3,2.4-5.4,5.4-5.4h760.3c3,0,5.4,2.4,5.4,5.4v0c0,3-2.4,5.4-5.4,5.4H43.1
	C40.2,996.5,37.8,994.1,37.8,991.1z"/>
<linearGradient id="SVGID_59_" gradientUnits="userSpaceOnUse" x1="562.8728" y1="1043.4427" x2="562.8728" y2="363.1898" gradientTransform="matrix(6.123234e-17 -1 -1 -6.123234e-17 956.5442 999.5484)">
	<stop  offset="0" style="stop-color:#FFFFFF"/>
	<stop  offset="1" style="stop-color:#D9D9D9;stop-opacity:0"/>
</linearGradient>
<path class="st59" d="M-86.9,436.7L-86.9,436.7c0-3.2,2.6-5.8,5.8-5.8h668.7c3.2,0,5.8,2.6,5.8,5.8v0c0,3.2-2.6,5.8-5.8,5.8H-81.1
	C-84.3,442.4-86.9,439.9-86.9,436.7z"/>
<linearGradient id="SVGID_60_" gradientUnits="userSpaceOnUse" x1="1344.3165" y1="682.5398" x2="1344.3165" y2="178.5068" gradientTransform="matrix(6.123234e-17 -1 -1 -6.123234e-17 1377.4697 2142.28)">
	<stop  offset="0" style="stop-color:#FFFFFF"/>
	<stop  offset="1" style="stop-color:#D9D9D9;stop-opacity:0"/>
</linearGradient>
<path class="st60" d="M694.9,798L694.9,798c0-3,2.4-5.4,5.4-5.4h493.3c3,0,5.4,2.4,5.4,5.4l0,0c0,3-2.4,5.4-5.4,5.4H700.3
	C697.3,803.3,694.9,800.9,694.9,798z"/>
<linearGradient id="SVGID_61_" gradientUnits="userSpaceOnUse" x1="727.9346" y1="303.1698" x2="727.9346" y2="-161.6182" gradientTransform="matrix(6.123234e-17 -1 -1 -6.123234e-17 381.7178 1905.2679)">
	<stop  offset="0" style="stop-color:#FFFFFF"/>
	<stop  offset="1" style="stop-color:#D9D9D9;stop-opacity:0"/>
</linearGradient>
<path class="st61" d="M78.5,1177.3L78.5,1177.3c0-3,2.4-5.4,5.4-5.4h454c3,0,5.4,2.4,5.4,5.4l0,0c0,3-2.4,5.4-5.4,5.4h-454
	C81,1182.7,78.5,1180.3,78.5,1177.3z"/>
<linearGradient id="SVGID_62_" gradientUnits="userSpaceOnUse" x1="727.9346" y1="1145.0188" x2="727.9346" y2="741.0228" gradientTransform="matrix(6.123234e-17 -1 -1 -6.123234e-17 1223.5668 1063.4189)">
	<stop  offset="0" style="stop-color:#FFFFFF"/>
	<stop  offset="1" style="stop-color:#D9D9D9;stop-opacity:0"/>
</linearGradient>
<path class="st62" d="M78.5,335.5L78.5,335.5c0-3,2.4-5.4,5.4-5.4h393.2c3,0,5.4,2.4,5.4,5.4l0,0c0,3-2.4,5.4-5.4,5.4H83.9
	C81,340.9,78.5,338.5,78.5,335.5z"/>
<linearGradient id="SVGID_63_" gradientUnits="userSpaceOnUse" x1="1458.1003" y1="983.4128" x2="1458.1003" y2="720.8508" gradientTransform="matrix(6.123234e-17 -1 -1 -6.123234e-17 1792.0348 1955.0989)">
	<stop  offset="0" style="stop-color:#FFFFFF"/>
	<stop  offset="1" style="stop-color:#D9D9D9;stop-opacity:0"/>
</linearGradient>
<path class="st63" d="M808.6,497L808.6,497c0-3,2.5-5.5,5.5-5.5h251.6c3,0,5.5,2.5,5.5,5.5l0,0c0,3-2.5,5.5-5.5,5.5H814.1
	C811.1,502.5,808.6,500,808.6,497z"/>
<linearGradient id="SVGID_64_" gradientUnits="userSpaceOnUse" x1="480.9196" y1="1248.1338" x2="480.9196" y2="272.3867" gradientTransform="matrix(6.123234e-17 -1 -1 -6.123234e-17 1079.6667 713.289)">
	<stop  offset="0" style="stop-color:#FFFFFF"/>
	<stop  offset="1" style="stop-color:#D9D9D9;stop-opacity:0"/>
</linearGradient>
<path class="st64" d="M-168.5,232.4L-168.5,232.4c0-3,2.4-5.4,5.4-5.4h965c3,0,5.4,2.4,5.4,5.4v0c0,3-2.4,5.4-5.4,5.4h-965
	C-166.1,237.8-168.5,235.3-168.5,232.4z"/>
</svg>
