<svg width="1528" height="1200" viewBox="0 0 1528 1200" fill="none" xmlns="http://www.w3.org/2000/svg">
<rect x="168.467" width="1072.32" height="1071" fill="url(#paint0_linear_0_1)"/>
<rect x="168.467" width="1072.32" height="1071" fill="url(#paint1_linear_0_1)"/>
<rect x="134.258" y="409.19" width="1052.58" height="3.94717" fill="url(#paint2_linear_0_1)"/>
<rect x="153.994" y="413.138" width="1128.89" height="3.94717" fill="url(#paint3_linear_0_1)"/>
<rect width="1130.21" height="5.2629" transform="matrix(-1 0 0 1 1251.31 144.73)" fill="url(#paint4_linear_0_1)"/>
<rect width="1128.89" height="3.94717" transform="matrix(-1 0 0 1 1282.89 134.204)" fill="url(#paint5_linear_0_1)"/>
<rect x="29" y="749.963" width="1052.58" height="3.94717" fill="url(#paint6_linear_0_1)"/>
<rect x="1527.61" y="569.709" width="1052.58" height="3.94727" transform="rotate(180 1527.61 569.709)" fill="url(#paint7_linear_0_1)"/>
<rect x="1336.83" y="842.064" width="1182.84" height="3.94728" transform="rotate(180 1336.83 842.064)" fill="url(#paint8_linear_0_1)"/>
<rect x="1373.67" y="597.339" width="1052.58" height="3.94727" transform="rotate(180 1373.67 597.339)" fill="url(#paint9_linear_0_1)"/>
<path d="M271.695 540.872L250.77 550.462C247.921 551.767 246.095 554.614 246.095 557.747C246.095 562.174 249.683 565.762 254.109 565.762H522.013C526.585 565.762 530.291 562.055 530.291 557.483C530.291 554.473 528.657 551.699 526.023 550.241L508.17 540.354C505.797 539.04 503.13 538.351 500.418 538.351H483.401C479.096 538.351 474.973 540.086 471.962 543.163L467.434 547.792C464.424 550.87 460.301 552.605 455.996 552.605H436.873C434.824 552.605 432.795 552.211 430.895 551.446L398.381 538.351L372.6 528.998C367.897 527.292 362.667 527.884 358.465 530.598L330.602 548.589C326.657 551.136 321.792 551.822 317.296 550.464L282.988 540.1C279.255 538.973 275.239 539.247 271.695 540.872Z" fill="url(#paint10_linear_0_1)"/>
<path d="M698.065 512.108C682.091 523.577 658.723 540.366 647.329 548.583C643.215 551.55 640.812 556.373 640.812 561.445C640.812 570.281 647.976 577.603 656.813 577.603H1130.05C1138.89 577.603 1146.05 570.44 1146.05 561.603V561.086C1146.05 556.172 1143.8 551.525 1139.9 548.543C1124.93 537.112 1102.35 520.871 1097.88 521.605C1091.46 522.662 1046.5 553.302 1039.01 553.302C1031.52 553.302 951.234 538.51 938.389 531.114C925.544 523.718 863.46 507.87 857.037 507.87C850.615 507.87 808.868 534.284 799.235 531.114C792.118 528.773 741.252 516.641 711.026 509.528C706.53 508.47 701.817 509.414 698.065 512.108Z" fill="url(#paint11_linear_0_1)"/>
<path d="M180.052 463.135C175.915 464.623 172.108 466.111 168.467 467.599V603.326C170.287 603.492 170.784 605.145 171.446 609.443C172.439 615.395 179.887 624.322 190.148 624.818C200.41 625.314 206.864 631.926 216.96 638.209C227.222 644.491 222.422 652.261 246.917 658.543C271.412 664.825 261.812 654.245 272.405 644.491C282.997 634.572 277.535 642.342 279.522 645.317C281.508 648.293 287.962 645.979 288.624 644.656C289.286 643.334 293.59 637.382 299.713 643.499C305.837 649.45 305.837 646.805 306.168 645.648C306.499 644.491 316.76 641.846 321.395 647.301C326.194 652.757 330.167 648.458 347.876 643.499C365.585 638.539 362.109 635.894 362.109 642.342C362.109 648.954 368.564 647.301 377.998 648.624C387.432 649.946 396.038 639.366 397.031 644.821C398.024 650.277 412.258 644.821 411.265 646.144C410.272 647.466 411.596 650.112 415.733 653.914C419.871 657.716 421.526 656.063 423.512 654.741C425.498 653.418 424.505 651.93 431.291 648.128C438.077 644.325 443.538 646.805 443.538 648.624C443.538 650.608 450.986 660.692 457.441 662.841C463.896 664.99 464.558 672.76 470.019 673.256C475.481 673.752 475.812 664.99 477.798 662.511C479.784 660.031 482.929 661.188 483.922 666.148C484.915 671.107 493.025 671.107 498.817 671.107C504.61 671.107 507.258 674.414 513.382 680.365C519.506 686.317 525.629 684.498 539.863 680.365C554.097 676.232 558.896 676.232 570.151 676.728C581.405 677.224 580.743 675.075 585.708 673.752C590.839 672.43 590.177 674.579 596.301 673.752C602.424 672.926 597.625 662.511 600.769 664.99C603.749 667.47 614.01 669.454 621.127 669.619C628.243 669.95 636.353 667.14 644.629 666.313C652.738 665.486 654.89 663.502 660.517 658.874C666.31 654.245 668.296 648.789 674.089 643.829C679.881 638.87 692.791 631.431 694.115 633.91C695.439 636.39 701.563 637.547 705.7 636.059C709.838 634.737 717.286 635.233 723.41 636.059C729.533 636.886 731.519 635.564 734.002 633.58C736.319 631.596 736.65 631.596 741.45 630.769C746.25 629.943 749.891 630.769 749.56 626.967C749.229 623.165 749.56 620.189 756.014 621.677C762.469 623.33 762.138 623.66 764.455 618.04C766.772 612.584 769.255 615.56 776.703 615.89C784.15 616.221 784.481 616.386 784.481 612.253C784.481 608.12 789.281 609.774 798.384 609.774C807.487 609.774 808.976 608.451 809.638 605.971C810.3 603.492 825.196 606.302 826.023 604.318C826.686 602.334 833.14 602.996 839.595 603.822C846.05 604.649 839.926 606.798 839.595 610.435C839.264 614.072 840.588 618.37 844.395 615.89C848.201 613.411 846.712 609.774 853.167 610.6C859.621 611.427 866.407 611.757 867.731 614.568C869.055 617.378 876.172 619.032 881.634 620.354C887.095 621.677 883.289 632.092 887.426 637.878C891.564 643.664 899.343 648.624 906.129 647.466C912.914 646.309 911.59 642.838 913.245 644.16C914.9 645.483 917.383 646.64 922.679 644.16C928.141 641.68 931.451 641.68 932.941 642.507C934.265 643.334 940.057 642.176 943.202 639.201C946.181 636.225 950.981 636.225 955.45 635.068C959.918 633.91 970.345 632.092 974.483 639.201C978.62 646.309 980.606 645.813 982.593 645.979C984.579 646.309 990.371 642.672 990.702 647.136C991.033 651.599 999.474 653.914 1001.63 649.946C1003.61 645.813 1014.54 648.293 1018.01 651.104C1021.49 653.914 1035.72 662.841 1041.02 658.543C1046.48 654.079 1046.81 652.261 1046.81 652.261C1067.5 644.325 1051.28 637.713 1059.72 632.257C1068.16 626.802 1072.63 605.475 1075.28 603.822C1077.92 602.169 1081.73 603.822 1083.72 602.169C1085.7 600.516 1089.51 599.193 1089.18 595.887C1088.85 592.58 1095.96 590.927 1097.95 591.258C1099.94 591.589 1108.21 591.589 1109.54 588.282C1110.86 585.141 1116.65 587.951 1118.31 588.117C1119.96 588.447 1125.76 588.117 1128.24 586.133C1130.56 584.149 1131.71 581.173 1134.03 580.677C1136.35 580.181 1137.84 579.355 1136.68 577.206C1135.69 575.222 1137.67 575.222 1139.33 572.081C1140.98 569.105 1143.8 569.601 1150.91 569.601C1158.03 569.601 1157.37 575.222 1167.3 572.577C1169.12 572.081 1173.09 568.94 1174.41 568.278C1175.74 567.617 1178.88 567.121 1179.55 567.948C1180.21 568.774 1184.68 567.948 1184.68 567.948C1184.68 567.948 1186.66 566.625 1187.32 564.476C1187.99 562.327 1191.13 563.154 1191.13 563.154C1191.13 563.154 1194.11 563.154 1195.6 564.311C1196.92 565.468 1198.25 563.154 1200.07 561.17C1201.72 559.186 1207.52 558.525 1210.99 560.674C1227.38 571.254 1234.49 564.641 1240.78 561.831V463.135H180.052Z" fill="url(#paint12_linear_0_1)"/>
<path d="M1087.01 525.699C1088.17 534.931 1085.36 545.482 1088.67 549.109C1091.99 552.736 1104.42 584.06 1107.56 580.598C1110.71 577.136 1123.47 547.955 1127.29 552.572C1131.1 557.353 1137.89 567.244 1143.69 563.617C1149.33 559.826 1158.78 565.266 1165.24 574.004C1171.7 582.742 1172.03 597.414 1182.31 580.598C1182.31 580.598 1186.62 594.612 1191.09 603.185C1195.57 611.758 1210.32 590.655 1210.32 590.655C1210.32 590.655 1231.7 603.514 1236.84 583.071V509.048C1228.05 502.288 1219.1 497.672 1213.63 499.156C1206.34 501.134 1204.85 463.051 1195.24 454.973C1185.46 446.894 1173.69 453.159 1175.35 463.71C1177.01 474.097 1160.93 478.878 1158.78 476.075C1156.62 473.108 1144.03 471.294 1140.71 471.953C1137.4 472.613 1146.84 486.626 1143.36 501.959C1139.88 517.291 1117.84 484.153 1104.25 484.318C1090.49 484.483 1085.85 516.467 1087.01 525.699Z" fill="url(#paint13_linear_0_1)"/>
<path d="M862.891 571.977C855.141 581.835 850.359 586.012 845.742 580.999C841.124 575.987 834.199 573.146 829.912 575.318C825.624 577.658 822.656 571.81 819.853 568.969C817.05 566.296 809.299 569.638 806.991 571.643C804.682 573.648 791.82 569.805 789.347 567.8C786.874 565.795 789.182 559.612 788.523 554.266C788.028 551.258 797.592 548.083 800.395 542.235C802.539 537.724 797.427 530.038 801.714 529.871C811.773 529.537 827.603 548.418 830.406 539.395C833.209 530.372 826.449 522.519 828.922 522.018C831.396 521.517 840.63 522.352 842.279 524.023C843.763 525.694 855.8 522.686 854.811 516.504C853.657 510.489 862.561 506.646 869.652 511.157C876.742 515.669 877.237 537.724 882.678 536.554C888.12 535.385 897.684 540.23 905.929 545.744C910.876 549.086 905.269 561.952 902.796 571.81C901.312 578.159 903.62 583.339 902.961 583.673C902.301 584.007 899.003 591.192 894.881 592.194C891.748 593.03 888.45 596.873 885.482 596.204C881.689 595.369 878.886 589.855 878.886 589.855C878.886 589.855 867.673 602.386 864.54 597.541C861.242 592.695 862.891 571.977 862.891 571.977Z" fill="url(#paint14_linear_0_1)"/>
<path d="M375.317 627.226C373.005 624.078 367.554 627.723 364.251 624.244C360.947 620.764 355.992 618.61 352.854 620.267C349.881 621.924 347.568 617.782 345.751 615.794C343.769 613.971 338.153 616.291 336.502 617.782C334.85 619.273 325.6 616.457 323.949 614.965C322.297 613.474 311.065 605.356 310.57 601.545C310.239 599.391 329.73 601.048 331.877 596.906C333.363 593.758 329.73 588.29 332.868 588.125C339.97 587.959 351.367 601.214 353.349 594.918C355.331 588.622 350.541 582.988 352.193 582.657C354.01 582.326 360.617 582.988 361.773 584.148C362.929 585.308 371.518 583.154 370.692 578.846C369.866 574.539 376.308 571.888 381.263 575.036C386.384 578.184 386.714 593.924 390.678 592.929C394.642 592.101 401.414 595.58 407.195 599.391C410.829 601.711 454.27 602.871 452.618 609.829C452.287 611.486 447.663 622.09 441.221 624.409C436.926 626.066 431.641 615.96 426.521 615.794C418.262 615.794 410.003 625.072 405.213 626.066C404.718 626.232 402.405 631.368 399.432 632.197C397.285 632.694 394.807 635.51 392.66 635.013C390.017 634.35 387.87 630.54 387.87 630.54C387.87 630.54 379.942 639.487 377.63 636.007C375.152 632.528 375.317 627.226 375.317 627.226Z" fill="url(#paint15_linear_0_1)"/>
<path d="M256.561 555.205C256.561 555.205 248.781 563.19 261.03 572.34C273.28 581.49 286.357 592.969 291.158 582.322C295.958 571.675 299.434 567.516 304.235 571.176C309.201 574.835 317.975 577.331 320.954 572.506C323.768 567.848 315.823 563.024 325.258 562.192C334.694 561.36 334.694 568.015 342.474 567.682C350.088 567.349 350.751 563.024 353.234 561.693C355.551 560.196 364.49 563.357 370.78 561.027C377.071 558.698 380.216 560.196 382.202 564.521C384.354 568.846 390.314 572.007 395.776 572.673C401.073 573.505 407.033 581.324 409.516 583.154C411.999 584.983 421.765 588.976 424.911 582.488C428.056 576 435.008 572.673 437.988 575.335C440.802 577.996 453.217 582.654 458.845 589.475C464.474 596.13 475.565 590.473 478.71 595.298C481.855 600.122 492.449 609.439 499.236 611.102C506.023 612.932 524.729 611.601 527.708 602.618C530.688 593.634 524.067 582.821 538.799 586.481C553.532 590.141 605.51 595.464 611.138 587.812C616.601 580.325 610.311 563.689 601.703 559.031C593.095 554.539 572.734 552.876 582.501 541.231C592.433 529.585 598.227 519.105 595.247 510.287C592.267 501.47 585.315 496.479 564.954 494.15C544.593 491.821 507.679 497.977 491.953 501.47C476.227 504.964 475.565 494.317 473.247 488.494C470.764 482.671 444.775 478.346 421.765 475.352C398.756 472.191 388.493 489.991 371.939 491.988C355.386 493.818 310.856 477.348 306.387 478.512C301.918 479.677 291.985 487.662 291.985 494.15C292.151 500.805 286.854 499.64 275.266 500.805C263.679 501.969 255.071 505.13 256.395 513.615C257.885 522.265 249.608 522.764 242.159 528.92C234.71 535.075 229.744 535.408 240.338 541.397C250.932 547.386 250.27 551.711 245.47 554.872C240.173 558.199 256.561 555.205 256.561 555.205Z" fill="url(#paint16_linear_0_1)"/>
<path d="M838.834 544.806C838.834 544.806 842.645 549.969 831.876 546.472C821.107 542.974 827.402 546.805 822.432 548.637C817.627 550.469 809.012 547.804 807.687 544.806C806.361 541.808 800.728 543.141 796.421 547.471C792.113 551.801 789.462 543.141 781.51 540.309C773.557 537.478 768.918 531.316 757.321 532.648C745.723 533.981 740.753 535.146 736.445 530.816C732.138 526.486 738.268 518.492 727.167 516.327C716.067 514.328 713.416 514.162 711.759 507.333C710.103 500.338 689.393 499.172 716.564 490.845C743.735 482.518 738.102 475.19 758.646 481.019C779.19 486.848 782.172 485.515 793.438 482.851C804.705 480.186 811.332 477.355 814.148 483.35C816.799 489.346 830.716 489.513 841.485 487.014C852.088 484.516 858.218 481.851 861.366 487.014C864.514 492.177 864.846 507.5 877.271 513.162C889.863 518.825 896.324 529.984 892.182 534.98C888.04 539.976 875.283 553.633 871.804 549.636C868.325 545.805 861.698 537.312 859.71 549.136C857.721 560.961 841.319 547.471 838.834 544.806Z" fill="url(#paint17_linear_0_1)"/>
<path d="M462.994 339.634C453.552 339.468 452.227 341.618 451.398 345.09C450.736 348.562 435.33 344.759 434.668 347.404C434.005 350.049 427.379 349.388 420.753 348.231C414.127 347.074 420.422 343.932 420.753 338.972C421.084 334.012 419.759 327.895 415.783 331.202C411.973 334.674 413.299 339.799 406.673 338.642C400.047 337.484 393.089 336.988 391.598 333.186C390.273 329.383 382.819 327.069 377.187 325.085C371.555 323.101 375.365 308.552 371.223 300.45C367.082 292.349 358.965 285.405 352.008 287.059C345.051 288.547 346.376 293.672 344.719 291.688C342.897 289.704 340.578 288.216 334.946 291.688C329.479 294.995 326.001 294.995 324.51 293.837C323.185 292.68 317.221 294.168 314.074 298.466C310.926 302.765 305.957 302.765 301.484 304.253C297.012 305.741 286.079 308.552 281.938 298.466C277.796 288.547 275.643 289.208 273.489 288.877C271.336 288.547 265.373 293.507 265.041 287.389C264.71 281.272 255.93 277.8 253.777 283.587C251.624 289.373 240.525 285.901 237.046 282.099C233.568 278.296 227.935 280.611 222.303 286.728C216.671 292.845 216.34 295.491 216.34 295.491C194.971 306.568 211.867 315.826 203.088 323.597C194.308 331.367 189.836 361.292 187.02 363.607C184.204 365.921 180.394 363.607 178.24 365.921C176.087 368.236 172.277 370.22 172.608 374.684C172.774 377.164 170.62 378.982 168.467 380.14V463.135H553.771L559.237 456.026C557.415 457.183 518.818 340.13 462.994 339.634Z" fill="url(#paint18_linear_0_1)"/>
<path d="M1239.47 464.451C1238.48 463.625 1237.48 461.477 1236.49 457.843C1234.01 447.767 1232.69 445.124 1227.73 447.106C1222.78 449.088 1222.44 447.932 1221.45 439.342C1220.46 430.917 1212.69 418.528 1202.12 417.702C1191.54 416.876 1184.93 407.625 1174.52 398.87C1163.94 389.95 1164.44 377.23 1139.15 368.475C1113.87 359.555 1128.24 376.239 1117.5 390.115C1106.59 403.991 1103.79 392.758 1101.8 388.628C1099.65 384.333 1097.17 386.646 1096.51 388.628C1095.85 390.611 1095.52 400.192 1089.24 391.767C1082.96 383.342 1082.96 387.142 1082.63 388.628C1082.3 390.115 1071.72 394.08 1066.93 386.316C1061.97 378.552 1057.84 384.829 1039.66 391.767C1021.48 398.705 1024.95 402.504 1024.95 393.254C1024.95 384.003 1018.34 386.316 1008.43 384.333C998.677 382.351 989.918 397.383 988.761 389.785C987.77 382.021 973.061 389.785 974.053 387.802C975.045 385.82 971.574 373.926 967.442 368.475C963.311 363.024 963.641 365.337 961.493 367.319C959.344 369.301 960.501 379.708 953.395 384.994C946.454 390.445 940.835 386.976 940.835 384.168C940.835 381.525 933.068 367.154 926.457 364.18C919.846 361.042 919.185 350.304 913.566 349.478C907.947 348.652 907.617 361.042 905.468 364.511C903.32 367.98 900.18 366.493 899.188 359.555C898.197 352.617 889.768 352.617 883.819 352.617C877.869 352.617 875.06 347.992 868.78 339.567C862.5 331.142 856.22 333.785 841.511 339.567C826.803 345.348 821.845 345.348 810.276 344.523C798.708 343.697 799.369 346.835 794.246 348.817C788.957 350.8 789.618 347.661 783.338 348.817C777.058 349.974 782.016 364.676 778.711 361.207C775.571 357.738 764.994 355.095 757.722 354.599C750.451 354.269 742.022 358.068 733.594 359.224C725.165 360.381 723.017 363.024 717.067 369.631C711.118 376.239 708.97 383.838 703.02 390.776C700.872 393.254 697.897 396.227 694.757 398.705V464.451H1239.47Z" fill="url(#paint19_linear_0_1)"/>
<path d="M715.809 835.485C714.817 834.659 713.826 832.512 712.834 828.878C710.355 818.801 709.033 816.158 704.075 818.14C699.117 820.123 698.787 818.966 697.795 810.376C696.803 801.952 689.036 789.562 678.459 788.736C667.882 787.91 661.272 778.66 650.86 769.905C640.283 760.984 640.779 748.265 615.494 739.51C590.208 730.589 604.586 747.274 593.844 761.15C582.936 775.026 580.127 763.793 578.144 759.663C575.995 755.368 573.516 757.681 572.855 759.663C572.194 761.645 571.864 771.226 565.584 762.801C559.304 754.377 559.304 758.176 558.973 759.663C558.643 761.15 548.066 765.114 543.273 757.35C538.315 749.586 534.184 755.863 516.005 762.801C497.826 769.739 501.296 773.539 501.296 764.288C501.296 755.037 494.686 757.35 484.77 755.368C475.019 753.386 466.26 768.418 465.103 760.819C464.112 753.055 449.403 760.819 450.395 758.837C451.386 756.855 447.916 744.961 443.784 739.51C439.653 734.058 439.983 736.371 437.835 738.353C435.686 740.336 436.843 750.743 429.737 756.029C422.796 761.48 417.177 758.011 417.177 755.203C417.177 752.56 409.409 738.188 402.799 735.215C396.188 732.076 395.527 721.339 389.908 720.513C384.289 719.687 383.959 732.076 381.81 735.545C379.662 739.014 376.522 737.527 375.53 730.589C374.539 723.651 366.11 723.651 360.161 723.651C354.211 723.651 351.402 719.026 345.122 710.601C338.842 702.177 332.562 704.82 317.853 710.601C303.145 716.383 298.187 716.383 286.618 715.557C275.05 714.731 275.711 717.87 270.588 719.852C265.299 721.834 265.96 718.696 259.68 719.852C253.4 721.008 258.358 735.71 255.053 732.241C251.913 728.772 241.336 726.129 234.064 725.634C226.793 725.303 218.364 729.103 209.936 730.259C201.507 731.415 199.359 734.058 193.409 740.666C187.46 747.274 185.311 754.872 179.362 761.81C177.213 764.288 174.239 767.262 171.099 769.739V835.485H715.809Z" fill="url(#paint20_linear_0_1)"/>
<path d="M826.78 533.201C828.101 542.494 824.137 552.948 828.266 556.433C832.396 559.918 854.693 566.556 858.656 563.071C862.62 559.586 876.164 553.944 880.788 558.424C885.578 563.071 890.698 573.028 898.13 569.211C905.563 565.394 917.454 570.373 925.382 578.836C933.31 587.299 941.403 580.329 954.781 563.403C954.781 563.403 952.139 598.749 957.589 607.213C963.205 615.676 982.364 594.103 982.364 594.103C982.364 594.103 987.318 603.562 993.76 605.055C998.715 606.217 1004.66 599.579 1009.95 598.252C1016.88 596.426 1022.66 584.146 1023.82 583.648C1024.98 583.15 1021.01 574.355 1023.49 563.403C1025.8 553.612 1030.26 541.83 1031.58 532.869H826.78C826.78 532.869 826.78 533.035 826.78 533.201Z" fill="url(#paint21_linear_0_1)"/>
<path d="M192.755 549.973C198.738 540.533 207.113 525.793 206.6 519.334C205.917 509.232 177.542 518.34 177.542 518.34C177.542 518.34 177.884 507.575 172.927 503.104C172.756 502.938 172.585 502.773 172.414 502.607V549.807H192.755V549.973Z" fill="url(#paint22_linear_0_1)"/>
<path d="M169.782 564.573C172.096 566.54 174.905 568.179 178.211 568.67C181.35 569.162 184.986 565.064 188.787 564.573C192.919 564.081 198.703 570.965 203.661 572.44C206.966 573.423 209.941 568.342 211.759 569.654C216.221 572.932 213.411 576.701 216.055 578.176C221.509 580.963 225.145 575.554 232.912 567.851C236.382 564.409 240.679 571.457 244.811 569.162C245.802 568.67 247.62 561.622 249.438 560.639C251.586 559.492 253.9 564.409 254.892 563.098C257.701 559.328 256.048 555.558 257.866 556.705C261.502 559 260.18 553.264 264.146 549.494C266.295 547.527 272.74 549.166 275.549 546.38C280.672 541.299 283.317 534.251 289.596 531.301C293.397 529.498 298.355 531.956 306.123 529.662C326.615 523.761 318.021 520.647 336.531 499.504C355.205 478.361 337.026 488.195 331.903 483.278C326.945 478.361 324.632 479.672 314.22 483.77C303.809 487.867 304.635 477.869 298.686 476.558C292.736 475.247 289.101 478.853 280.011 486.064C270.922 493.276 263.65 490.653 255.387 492.456C247.124 494.259 240.349 488.359 239.027 494.259C237.704 500.16 233.573 504.257 230.764 502.454C227.954 500.651 219.361 502.946 216.221 507.043C213.081 511.141 220.352 511.141 209.445 513.763C198.538 516.55 204.487 518.68 204.487 518.68C200.851 517.697 179.863 515.075 184.49 525.892C189.118 536.71 179.037 533.104 174.079 531.793C172.426 531.301 171.104 532.94 169.782 535.398V564.573Z" fill="url(#paint23_linear_0_1)"/>
<path d="M924.258 512.428C921.45 509.455 926.406 470.47 930.535 467.497C952.338 450.647 927.892 439.579 924.258 432.972C920.79 426.364 921.781 431.815 921.12 436.441C920.459 441.066 919.303 442.388 918.312 434.954C917.321 427.521 916.825 425.538 915.009 427.025C913.192 428.512 913.026 427.521 912.696 421.243C912.366 414.966 909.393 405.881 905.428 405.22C901.464 404.724 898.987 397.786 895.022 391.179C891.058 384.571 891.223 375.155 881.808 368.713C872.393 362.105 877.679 374.494 873.715 384.736C869.585 394.978 868.594 386.718 867.768 383.58C866.943 380.441 860.996 382.589 860.501 383.58C859.014 386.388 856.371 387.544 854.554 381.928C852.737 376.146 851.086 380.772 844.314 385.893C837.541 391.013 838.863 393.822 838.863 387.049C838.863 380.276 819.372 384.406 819.868 383.084C820.198 381.598 821.685 380.441 820.033 376.311C818.381 372.347 816.069 375.155 815.243 376.642C814.417 378.129 814.747 377.137 812.104 381.102C809.462 385.067 807.314 382.589 807.314 380.606C807.314 378.624 809.627 367.391 807.149 365.244C804.671 362.931 801.203 361.114 799.055 360.453C796.908 359.958 791.953 367.556 791.623 362.27C791.292 357.149 788.154 357.149 785.841 357.149C783.529 357.149 782.538 353.68 780.226 347.403C777.913 341.126 775.435 343.108 769.985 347.403C764.534 351.698 762.552 351.698 758.257 351.037C753.963 350.542 754.128 352.689 752.146 354.176C750.164 355.663 750.494 353.35 748.016 354.176C745.704 355.002 747.521 365.904 746.365 363.261C745.208 360.618 741.244 358.636 738.436 358.471C735.628 358.141 732.49 361.114 729.352 361.94C726.213 362.766 725.387 364.748 723.24 369.704C720.928 374.494 718.12 379.45 715.807 384.571C713.495 389.692 708.539 391.674 708.044 389.031C707.548 386.388 701.272 394.152 698.959 393.326C696.647 392.5 693.839 397.951 692.022 398.777C690.205 399.603 688.718 398.777 688.884 402.742C689.049 406.707 682.607 409.68 682.111 412.323C680.955 417.939 682.937 415.462 679.964 415.131C676.991 414.801 673.357 420.417 669.888 420.417C666.42 420.417 665.759 421.904 665.594 424.382C665.264 427.025 659.482 424.052 659.317 426.034C658.987 428.016 656.509 427.521 654.032 426.529C651.554 425.703 651.719 426.86 651.884 423.226C652.05 419.591 647.755 422.895 646.434 425.373C644.947 428.016 647.92 429.833 645.442 429.007C642.965 428.181 642.304 429.668 641.643 426.86C641.148 424.052 639.992 427.19 637.844 425.703C635.697 424.217 641.313 422.565 639.827 416.453C638.175 410.506 635.202 405.385 632.559 406.541C629.916 407.698 630.412 411.332 629.751 410.01C629.09 408.524 622.648 412.653 622.153 411.662C621.657 410.836 619.345 411.993 618.189 415.131C617.032 418.27 610.756 427.19 609.104 428.346C607.452 429.503 606.626 427.686 604.975 420.252C603.323 412.819 600.68 412.323 599.854 411.993C599.028 411.662 591.926 408.689 591.1 412.984C590.274 417.279 586.145 414.636 584.823 411.827C583.502 409.019 581.354 410.671 579.372 415.296C577.225 419.922 577.06 421.904 577.06 421.904C568.966 430.164 570.618 420.583 567.315 426.199C564.011 431.981 557.239 427.19 556.083 428.842C555.092 430.494 550.467 429.833 549.641 431.485C548.815 433.137 540.556 437.267 540.721 440.736C540.886 444.205 557.9 451.143 557.074 450.812C556.248 450.482 553.109 450.482 552.614 453.786C552.118 457.09 549.806 454.116 549.145 453.951C548.485 453.621 546.172 453.951 545.346 455.933C544.355 457.916 544.025 461.054 543.034 461.715C542.043 462.211 541.547 463.202 542.043 465.349C542.373 467.497 541.712 467.497 541.052 470.635C540.391 473.774 539.4 473.278 536.592 473.278C533.784 473.278 530.48 468.653 530.315 470.14C529.985 471.626 528.003 473.774 527.507 474.6C527.012 475.426 525.856 475.756 525.525 474.93C525.195 474.104 522.717 476.417 522.552 478.564C522.222 480.877 521.065 480.051 521.065 480.051C521.065 480.051 518.257 480.051 517.597 482.199C516.936 484.346 514.954 483.52 513.467 482.694C511.816 481.868 511.32 482.364 508.347 482.694C505.374 483.025 503.061 487.319 503.061 487.319C502.566 488.145 501.575 488.971 501.079 482.859C500.914 481.373 494.803 479.225 490.178 482.859C488.691 484.016 489.187 487.154 488.691 491.614C488.361 494.753 484.892 493.266 484.892 493.266C481.423 491.78 478.946 491.284 470.687 501.691C462.428 512.263 460.281 521.184 449.875 525.644C439.964 529.939 462.759 536.051 466.723 560.499H902.62C906.419 551.744 908.897 542.658 918.477 536.051C944.905 518.375 927.066 515.402 924.258 512.428Z" fill="url(#paint24_linear_0_1)"/>
<path d="M1027.4 544.011C1026.57 538.049 1028.89 531.094 1026.57 528.941C1024.09 526.622 1011.17 522.316 1008.85 524.635C1006.54 526.953 998.754 530.597 995.939 527.616C993.124 524.635 990.144 518.176 985.839 520.66C981.534 523.144 974.579 519.832 969.943 514.367C965.307 508.736 960.671 513.373 952.888 524.469C952.888 524.469 954.379 501.45 951.233 495.985C948.086 490.52 936.827 504.431 936.827 504.431C936.827 504.431 934.012 498.303 930.204 497.309C927.223 496.647 923.912 500.953 920.766 501.781C916.792 502.94 913.315 511.055 912.818 511.386C912.156 511.717 914.474 517.514 912.984 524.635C911.162 533.246 907.188 544.011 908.016 549.973H1022.27C1025.25 547.489 1027.73 545.833 1027.4 544.011Z" fill="url(#paint25_linear_0_1)"/>
<path d="M492.62 540.717C495.596 549.092 486.833 550.934 479.724 558.136C472.779 565.337 467.489 566.51 479.724 570.864C491.959 575.219 491.959 579.573 487.329 583.593C482.7 587.612 499.564 582.085 499.564 582.085C499.564 582.085 492.62 591.129 507.17 598.499C521.885 605.7 537.592 615.247 541.064 604.026C544.536 592.804 547.512 588.115 553.299 590.962C559.085 593.809 569.171 594.982 571.486 589.79C573.8 584.765 564.542 581.081 574.462 578.903C584.382 576.726 585.539 583.258 593.806 581.751C602.073 580.243 602.073 575.889 604.388 574.046C606.703 572.204 616.623 574.046 623.071 570.697C629.519 567.347 632.991 568.519 635.967 572.539C638.943 576.559 645.887 578.736 651.84 578.736C657.626 578.736 665.232 585.603 668.208 587.11C671.184 588.617 682.262 591.129 684.576 584.263C686.891 577.396 694.001 573.041 697.473 575.219C700.945 577.396 714.998 580.243 722.108 586.105C729.052 591.967 740.295 584.598 744.428 588.952C748.562 593.307 761.458 600.843 769.064 601.681C776.669 602.351 796.51 598.499 798.328 588.952C800.147 579.573 791.384 569.692 807.753 571.199C824.121 572.706 880.997 570.194 885.626 561.82C890.256 553.446 880.997 537.87 870.911 534.521C862.645 531.841 845.615 532.343 845.449 524.974H511.138C510.972 524.974 510.807 524.974 510.642 525.142C498.407 527.989 489.644 532.343 492.62 540.717Z" fill="url(#paint26_linear_0_1)"/>
<path d="M1196.88 766.043C1193.9 757.8 1202.67 755.986 1209.78 748.897C1216.72 741.808 1222.01 740.654 1209.78 736.368C1197.54 732.081 1197.54 727.795 1202.17 723.838C1206.8 719.881 1189.93 725.322 1189.93 725.322C1189.93 725.322 1196.88 716.419 1182.33 709.165C1167.61 702.076 1151.91 692.678 1148.44 703.724C1144.96 714.77 1141.99 719.386 1136.2 716.584C1130.41 713.781 1120.33 712.627 1118.01 717.738C1115.7 722.684 1124.96 726.311 1115.04 728.454C1105.12 730.597 1103.96 724.168 1095.69 725.651C1087.43 727.135 1087.43 731.422 1085.11 733.235C1082.8 735.049 1072.88 733.235 1066.43 736.532C1059.98 739.83 1056.51 738.676 1053.53 734.719C1050.56 730.762 1043.61 728.619 1037.66 728.619C1031.87 728.619 1024.27 721.859 1021.29 720.376C1018.31 718.892 1007.24 716.419 1004.92 723.178C1002.61 729.938 995.498 734.224 992.026 732.081C988.554 729.938 974.501 727.135 967.391 721.365C960.447 715.595 949.204 722.849 945.071 718.562C940.937 714.276 928.041 706.857 920.435 706.032C912.83 705.373 892.989 709.165 891.171 718.562C889.352 727.795 898.115 737.522 881.746 736.038C865.378 734.554 808.502 737.027 803.873 745.27C799.243 753.513 808.502 768.846 818.588 772.143C826.854 774.781 843.884 774.286 844.05 781.54L1178.36 781.541C1178.53 781.541 1178.69 781.541 1178.86 781.376C1191.09 778.573 1199.86 774.286 1196.88 766.043Z" fill="url(#paint27_linear_0_1)"/>
<path d="M178.215 652.896C183.998 658.537 193.746 660.528 196.059 650.74C198.372 640.951 189.12 633.984 198.868 629.836C208.781 625.689 209.938 638.131 217.869 635.477C225.964 632.656 225.964 624.361 228.278 620.877C230.591 617.394 240.339 620.877 246.783 614.573C253.061 608.269 256.531 610.426 259.505 618.057C262.314 625.689 269.253 629.836 275.036 629.836C280.819 629.836 288.254 643.108 291.228 645.763C294.202 648.583 305.106 653.394 307.419 640.122C309.733 626.85 316.672 618.555 320.142 622.702C323.611 626.85 337.49 632.491 344.429 643.606C351.369 654.721 362.274 640.786 366.404 649.246C368.056 652.73 377.639 654.721 381.274 659.035C386.396 665.007 386.396 672.804 390.692 673.634C394.162 674.298 399.944 655.551 405.562 652.233C412.336 648.417 418.615 659.201 419.606 649.246C421.258 631.163 412.667 612.417 428.859 615.237C436.954 616.564 454.964 631.163 471.651 628.343C479.747 627.016 479.086 619.218 485.2 612.914C488.669 609.264 494.287 616.232 498.583 613.412C502.218 611.089 505.192 598.979 505.687 597.154C507.174 592.011 511.635 582.72 510.314 572.103C509.818 567.457 503.044 562.646 503.044 557.669C503.044 551.531 497.261 545.393 497.591 539.918C498.417 528.471 505.522 519.512 501.887 517.189C492.139 510.885 476.608 527.144 468.016 516.526C460.581 507.235 463.225 496.286 467.521 485.502H168.467V664.675C171.11 652.896 173.754 648.583 178.215 652.896Z" fill="url(#paint28_linear_0_1)"/>
<path d="M1170.49 544.54C1158.93 543.223 1155.79 536.308 1148.7 531.698C1141.6 527.253 1140.94 518.362 1135.82 521.49C1130.7 524.618 1124.93 524.618 1124.27 521.49C1123.61 518.362 1116.01 513.752 1110.9 514.411C1105.78 515.069 1110.9 520.173 1101.32 514.411C1091.75 508.648 1094.22 514.411 1094.22 514.411C1092.24 511.282 1079.53 494.654 1075.07 505.52C1070.62 516.386 1066.16 506.837 1063.52 502.392C1061.04 497.947 1045.53 508.154 1040.41 511.941C1035.29 515.728 1039.09 527.911 1049.98 536.143C1054.94 539.93 1056.92 545.034 1057.91 549.973H1189.47C1186.5 545.692 1181.22 545.692 1170.49 544.54Z" fill="url(#paint29_linear_0_1)"/>
<path d="M1013.27 540.755C1010.12 543.22 1015.43 545.684 1012.78 547.82C1006.98 552.585 994.548 556.528 994.383 559.157C993.886 567.372 986.429 578.052 990.903 580.188C992.726 581.173 994.217 585.938 1000.51 584.459C1005.15 583.309 1014.43 575.916 1018.74 575.423C1022.72 574.93 1026.03 580.516 1027.69 579.202C1033.65 574.93 1051.88 566.551 1056.85 569.672C1061.82 572.794 1065.97 580.845 1076.24 575.587C1086.51 570.329 1100.43 572.137 1108.55 578.216C1113.69 581.995 1114.02 580.023 1123.63 573.287C1125.12 572.137 1128.44 577.23 1131.75 575.916C1134.73 574.766 1137.55 567.208 1139.21 565.893C1142.36 563.264 1145.17 559.321 1149.31 561.129C1149.31 561.129 1150.47 565.565 1148.16 574.766C1145.84 583.802 1140.2 593.496 1142.69 596.618C1145.01 599.575 1148.49 592.675 1155.94 589.717C1159.42 588.403 1167.05 592.839 1169.86 590.703C1174.17 587.417 1177.15 578.709 1177.15 578.709C1177.15 578.709 1181.13 586.431 1188.92 586.102C1195.05 585.938 1204 578.545 1210.96 576.08C1220.24 572.794 1230.51 559.978 1231.84 559.321C1233.33 558.5 1230.34 551.435 1236.31 540.591C1237.63 538.126 1239.29 535.497 1240.78 532.869H1026.69C1026.36 533.69 1025.87 534.512 1025.2 535.169C1023.71 537.305 1015.43 539.112 1013.27 540.755Z" fill="url(#paint30_linear_0_1)"/>
<path d="M488.078 924.801C491.226 922.287 485.924 919.772 488.575 917.592C494.374 912.73 506.802 908.707 506.968 906.024C507.465 897.641 514.922 886.744 510.448 884.564C508.625 883.558 507.134 878.696 500.837 880.205C496.197 881.379 486.918 888.923 482.61 889.426C478.633 889.929 475.319 884.229 473.662 885.57C467.696 889.929 449.469 898.48 444.498 895.294C439.527 892.109 435.384 883.894 425.111 889.259C414.837 894.624 400.918 892.779 392.799 886.576C387.662 882.72 387.33 884.732 377.72 891.606C376.228 892.779 372.914 887.582 369.6 888.923C366.617 890.097 363.801 897.809 362.143 899.15C358.995 901.833 356.178 905.856 352.036 904.012C352.036 904.012 350.876 899.486 353.195 890.097C355.515 880.876 361.149 870.984 358.664 867.799C356.344 864.781 352.864 871.822 345.408 874.84C341.928 876.182 334.305 871.655 331.488 873.834C327.18 877.187 324.197 886.073 324.197 886.073C324.197 886.073 320.221 878.193 312.433 878.529C306.302 878.696 297.354 886.241 290.394 888.756C281.115 892.109 270.841 905.186 269.516 905.856C268.024 906.695 271.007 913.904 265.042 924.969C263.716 927.484 262.059 930.166 260.568 932.849L474.656 932.849C474.987 932.011 475.484 931.172 476.147 930.502C477.638 928.322 485.924 926.478 488.078 924.801Z" fill="url(#paint31_linear_0_1)"/>
<path d="M975.115 511.149C969.688 513.647 966.728 514.314 965.905 511.149C965.083 507.984 962.781 505.152 960.478 505.152C958.176 505.152 958.176 501.987 957.518 500.155C956.86 498.323 952.913 497.99 951.433 498.323C949.953 498.656 945.348 494.159 944.854 492.66C944.197 491.327 946.663 489.162 947.486 486.663C948.308 484.164 954.064 477.168 958.505 479.334C962.78 481.499 965.412 492.993 968.537 489.828C971.661 486.663 970.51 481.666 971.661 482.166C972.813 482.499 976.595 484.997 976.924 485.997C977.253 486.996 983.009 488.495 983.831 485.664C984.654 482.832 989.259 483.165 991.397 486.663C993.37 490.161 988.765 499.655 991.397 500.322C994.028 500.988 996.988 505.319 999.291 509.483C1001.59 513.647 998.304 524.974 989.752 524.974C988.93 524.974 983.338 518.311 978.569 518.311C973.799 518.311 970.675 524.974 970.51 522.143C969.852 519.477 975.115 511.149 975.115 511.149Z" fill="url(#paint32_linear_0_1)"/>
<path d="M1201.27 503.442C1206.72 500.943 1209.69 500.277 1210.51 503.442C1211.33 506.606 1213.64 509.438 1215.95 509.438C1218.26 509.438 1218.26 512.603 1218.76 514.269C1219.42 516.101 1223.37 516.434 1224.86 516.101C1226.34 515.768 1230.96 520.265 1231.46 521.764C1232.12 523.097 1229.81 525.262 1228.82 527.761C1227.99 530.259 1222.22 537.255 1217.77 535.09C1213.48 532.925 1210.84 521.431 1207.71 524.596C1204.57 527.761 1205.73 532.591 1204.57 532.258C1203.42 531.925 1199.62 529.427 1199.29 528.427C1198.96 527.428 1193.19 525.929 1192.37 528.76C1191.54 531.592 1186.92 531.259 1184.78 527.761C1182.8 524.263 1187.42 514.768 1184.78 514.102C1182.14 513.436 1179.17 509.272 1177.03 504.941C1174.72 500.776 1178.02 489.45 1186.59 489.45C1187.42 489.45 1193.03 496.113 1197.81 496.113C1202.59 496.113 1205.56 489.45 1205.89 492.281C1206.55 494.947 1201.27 503.442 1201.27 503.442Z" fill="url(#paint33_linear_0_1)"/>
<path d="M859.332 467.73C853.905 470.228 850.944 470.895 850.122 467.73C849.3 464.565 846.997 461.733 844.695 461.733C842.392 461.733 842.392 458.569 841.735 456.736C841.077 454.904 837.13 454.571 835.65 454.904C834.169 455.237 829.565 450.74 829.071 449.241C828.413 447.908 830.88 445.743 831.703 443.244C832.525 440.745 838.281 433.75 842.721 435.915C846.997 438.08 849.629 449.574 852.753 446.409C855.878 443.244 854.727 438.247 855.878 438.747C857.029 439.08 860.812 441.578 861.141 442.578C861.47 443.577 867.226 445.076 868.048 442.245C868.871 439.413 873.475 439.746 875.613 443.244C877.587 446.742 872.982 456.237 875.613 456.903C878.245 457.569 881.205 461.9 883.507 466.064C885.81 470.228 882.521 481.555 873.969 481.555C873.146 481.555 867.555 474.892 862.785 474.892C858.016 474.892 854.891 481.555 854.727 478.724C854.069 476.058 859.332 467.73 859.332 467.73Z" fill="url(#paint34_linear_0_1)"/>
<path d="M896.172 861.132C890.745 863.63 887.784 864.296 886.962 861.132C886.14 857.967 883.837 855.135 881.535 855.135C879.232 855.135 879.232 851.97 878.574 850.138C877.917 848.306 873.97 847.973 872.489 848.306C871.009 848.639 866.404 844.141 865.911 842.642C865.253 841.31 867.72 839.144 868.542 836.646C869.365 834.147 875.121 827.151 879.561 829.317C883.837 831.482 886.469 842.975 889.593 839.811C892.718 836.646 891.567 831.649 892.718 832.148C893.869 832.482 897.652 834.98 897.981 835.979C898.31 836.979 904.066 838.478 904.888 835.646C905.71 832.815 910.315 833.148 912.453 836.646C914.427 840.144 909.822 849.638 912.453 850.305C915.085 850.971 918.045 855.302 920.347 859.466C922.65 863.63 919.361 874.957 910.809 874.957C909.986 874.957 904.395 868.294 899.625 868.294C894.856 868.294 891.731 874.957 891.567 872.125C890.909 869.46 896.172 861.132 896.172 861.132Z" fill="url(#paint35_linear_0_1)"/>
<path d="M571.911 503.255C566.355 505.753 563.324 506.419 562.482 503.255C561.64 500.09 559.283 497.258 556.926 497.258C554.569 497.258 554.569 494.093 553.895 492.261C553.222 490.429 549.181 490.095 547.665 490.429C546.15 490.762 541.435 486.264 540.93 484.765C540.257 483.433 542.782 481.267 543.624 478.769C544.466 476.27 550.359 469.274 554.905 471.44C559.283 473.605 561.977 485.098 565.176 481.934C568.375 478.769 567.197 473.772 568.375 474.271C569.554 474.604 573.427 477.103 573.764 478.102C574.1 479.102 579.993 480.601 580.835 477.769C581.677 474.938 586.392 475.271 588.581 478.769C590.601 482.267 585.887 491.761 588.581 492.427C591.275 493.094 594.305 497.425 596.663 501.589C599.02 505.753 595.652 517.08 586.897 517.08C586.055 517.08 580.33 510.417 575.447 510.417C570.564 510.417 567.365 517.08 567.197 514.248C566.523 511.75 571.911 503.255 571.911 503.255Z" fill="url(#paint36_linear_0_1)"/>
<path d="M730.021 489.073C730.021 489.073 731.871 490.619 727.668 490.276C723.464 489.932 726.155 490.791 724.473 491.994C722.96 493.024 719.598 492.852 718.925 491.994C718.252 490.963 716.235 491.994 715.226 494.055C714.049 495.944 712.368 493.196 709.342 492.852C706.315 492.509 703.962 490.791 700.095 492.337C696.06 493.883 694.378 494.742 692.529 493.711C690.679 492.509 692.024 489.073 687.989 489.417C683.786 489.76 682.946 489.932 681.769 487.527C680.592 485.122 673.026 486.668 681.937 481.172C690.848 475.675 688.157 473.442 696.06 473.785C703.962 473.957 704.802 473.27 708.669 471.208C712.368 469.147 714.554 467.601 716.067 469.491C717.58 471.38 722.456 470.178 726.155 468.288C729.685 466.399 731.535 464.853 733.216 466.399C734.897 467.945 736.242 473.442 741.286 474.472C746.33 475.331 749.524 478.767 748.516 481C747.507 483.233 744.144 489.245 742.631 488.214C740.95 487.184 737.924 484.779 738.26 489.073C738.26 493.196 731.198 489.76 730.021 489.073Z" fill="url(#paint37_linear_0_1)"/>
<path d="M570.197 618.177C570.197 618.177 571.523 618.512 569.202 619.349C566.881 620.186 568.539 620.019 567.876 621.023C567.378 622.028 565.554 622.698 564.891 622.53C564.228 622.195 563.565 623.2 563.399 624.54C563.233 625.879 561.575 624.707 559.917 625.377C558.259 626.046 556.601 625.712 554.777 627.553C552.954 629.395 552.291 630.232 550.964 630.232C549.638 630.065 549.472 627.888 547.482 629.06C545.327 630.232 544.83 630.567 543.669 629.73C542.508 628.725 538.861 631.572 542.177 626.214C545.659 621.023 543.669 620.521 547.814 618.679C552.125 616.838 552.456 616.168 553.949 614.159C555.441 612.15 556.27 610.643 557.43 611.312C558.757 611.982 561.078 609.973 562.57 608.131C564.062 606.289 564.56 604.95 565.886 605.285C567.212 605.787 569.368 608.299 572.186 607.461C575.005 606.624 577.658 607.629 577.658 608.968C577.658 610.308 577.326 614.494 576.331 614.326C575.171 614.159 573.015 613.656 574.176 616C575.668 618.345 571.026 618.345 570.197 618.177Z" fill="url(#paint38_linear_0_1)"/>
<path d="M305.736 586.767C305.736 586.767 307.062 587.102 304.741 587.939C302.42 588.776 304.078 588.609 303.415 589.613C302.917 590.618 301.093 591.288 300.43 590.953C299.767 590.618 299.104 591.623 298.938 592.962C298.772 594.302 297.114 593.13 295.456 593.799C293.798 594.469 292.14 594.134 290.317 595.976C288.493 597.818 287.83 598.655 286.503 598.655C285.177 598.487 285.011 596.311 283.021 597.483C280.866 598.655 280.369 598.99 279.208 598.152C278.047 597.148 274.4 599.994 277.716 594.636C281.198 589.446 279.208 588.944 283.353 587.102C287.664 585.26 287.995 584.591 289.488 582.581C290.98 580.572 291.809 579.065 292.969 579.735C294.296 580.405 296.617 578.396 298.109 576.554C299.601 574.712 300.099 573.373 301.425 573.707C302.751 574.21 304.907 576.721 307.725 575.884C310.544 575.047 313.197 576.052 313.197 577.391C313.197 578.73 312.865 582.916 311.87 582.749C310.71 582.581 308.554 582.079 309.715 584.423C311.041 586.767 306.565 586.767 305.736 586.767Z" fill="url(#paint39_linear_0_1)"/>
<path d="M206.924 471.45C206.924 471.45 208.245 471.768 205.934 472.561C203.623 473.354 205.274 473.195 204.614 474.147C204.119 475.099 202.303 475.733 201.643 475.575C200.982 475.257 200.322 476.209 200.157 477.478C199.992 478.747 198.342 477.637 196.691 478.271C195.04 478.906 193.39 478.588 191.574 480.333C189.759 482.078 189.098 482.871 187.778 482.871C186.458 482.712 186.293 480.65 184.312 481.761C182.166 482.871 181.671 483.188 180.516 482.395C179.36 481.443 175.729 484.14 179.03 479.064C182.496 474.147 180.516 473.671 184.807 471.926C189.098 470.181 189.429 469.547 190.914 467.644C192.4 465.74 193.225 464.313 194.38 464.947C195.701 465.582 198.011 463.678 199.497 461.933C200.982 460.188 201.478 458.92 202.798 459.237C204.119 459.713 206.099 462.092 209.07 461.299C211.876 460.506 214.517 461.457 214.517 462.726C214.517 463.995 214.187 467.961 213.197 467.802C212.041 467.644 209.895 467.168 211.051 469.388C212.371 471.45 207.75 471.45 206.924 471.45Z" fill="url(#paint40_linear_0_1)"/>
<path d="M1185.96 399.934C1185.96 399.934 1187.28 400.269 1184.96 401.106C1182.64 401.943 1184.3 401.776 1183.63 402.78C1183.14 403.785 1181.31 404.455 1180.65 404.12C1179.99 403.785 1179.32 404.79 1179.16 406.129C1178.99 407.469 1177.33 406.297 1175.68 406.966C1174.02 407.636 1172.36 407.301 1170.54 409.143C1168.71 410.985 1168.05 411.822 1166.72 411.822C1165.4 411.654 1165.23 409.478 1163.24 410.65C1161.09 411.822 1160.59 412.157 1159.43 411.319C1158.27 410.315 1154.62 413.161 1157.94 407.803C1161.42 402.613 1159.43 402.111 1163.57 400.269C1167.88 398.427 1168.22 397.758 1169.71 395.748C1171.2 393.739 1172.03 392.232 1173.19 392.902C1174.52 393.572 1176.84 391.563 1178.33 389.721C1179.82 387.879 1180.32 386.54 1181.64 386.874C1182.97 387.377 1185.13 389.888 1187.95 389.051C1190.76 388.214 1193.42 389.219 1193.42 390.558C1193.42 391.897 1193.08 396.083 1192.09 395.916C1190.93 395.748 1188.77 395.246 1189.93 397.59C1191.26 399.934 1186.78 399.934 1185.96 399.934Z" fill="url(#paint41_linear_0_1)"/>
<path d="M343.205 497.82C338.186 504.11 335.174 506.759 332.162 503.614C329.15 500.468 324.633 498.647 321.788 499.972C318.944 501.462 317.103 497.654 315.262 495.999C313.422 494.343 308.402 496.33 306.896 497.654C305.39 498.978 297.024 496.495 295.518 495.171C294.012 493.847 295.351 490.039 294.849 486.563C294.514 484.576 300.705 482.589 302.546 478.948C303.884 476.133 300.538 471.167 303.382 471.001C309.908 470.836 320.282 482.755 322.123 477.127C323.963 471.498 319.613 466.366 321.119 466.035C322.792 465.704 328.816 466.201 329.82 467.359C330.824 468.353 338.688 466.532 337.851 462.559C337.182 458.751 342.871 456.268 347.556 459.082C352.241 461.896 352.576 475.968 356.089 475.14C359.603 474.312 365.794 477.458 371.148 480.934C374.328 483.086 370.647 491.198 369.141 497.489C368.137 501.627 369.643 504.772 369.308 505.104C368.973 505.269 366.798 509.904 364.121 510.567C362.113 511.063 359.938 513.546 358.097 513.05C355.587 512.553 353.747 508.911 353.747 508.911C353.747 508.911 346.552 516.857 344.377 513.712C342.202 510.898 343.205 497.82 343.205 497.82Z" fill="url(#paint42_linear_0_1)"/>
<path d="M767.364 909.641C762.429 915.932 759.469 918.581 756.508 915.435C753.547 912.29 749.106 910.469 746.31 911.793C743.513 913.283 741.704 909.476 739.895 907.82C738.085 906.165 733.151 908.151 731.67 909.476C730.19 910.8 721.966 908.317 720.485 906.993C719.005 905.668 720.321 901.861 719.827 898.384C719.498 896.398 725.584 894.411 727.394 890.769C728.71 887.955 725.42 882.989 728.216 882.823C734.631 882.658 744.829 894.577 746.639 888.948C748.448 883.32 744.171 878.188 745.652 877.857C747.297 877.526 753.218 878.022 754.205 879.181C755.192 880.174 762.923 878.353 762.101 874.38C761.443 870.573 767.035 868.09 771.641 870.904C776.246 873.718 776.575 887.789 780.03 886.962C783.484 886.134 789.57 889.279 794.834 892.756C797.959 894.908 794.34 903.02 792.86 909.31C791.873 913.449 793.353 916.594 793.024 916.925C792.695 917.091 790.557 921.726 787.925 922.388C785.951 922.885 783.813 925.368 782.004 924.872C779.536 924.375 777.727 920.733 777.727 920.733C777.727 920.733 770.654 928.679 768.516 925.534C766.377 922.719 767.364 909.641 767.364 909.641Z" fill="url(#paint43_linear_0_1)"/>
<path d="M750.095 427.921C745.161 434.211 742.2 436.86 739.239 433.715C736.278 430.569 731.837 428.748 729.205 430.073C726.409 431.563 724.6 427.755 722.79 426.1C720.981 424.444 716.046 426.431 714.566 427.755C713.085 429.079 704.861 426.596 703.381 425.272C701.9 423.948 703.216 420.14 702.723 416.664C702.394 414.677 708.48 412.691 710.289 409.049C711.605 406.234 708.315 401.268 711.112 401.102C717.527 400.937 727.725 412.856 729.534 407.228C731.344 401.599 727.067 396.467 728.547 396.136C730.192 395.805 736.114 396.302 737.101 397.46C738.088 398.454 745.818 396.633 744.996 392.825C744.338 389.018 749.931 386.534 754.536 389.349C759.142 392.163 759.471 406.234 762.925 405.407C766.379 404.579 772.465 407.724 777.729 411.201C780.854 413.353 777.236 421.464 775.755 427.755C774.768 431.894 776.249 435.039 775.92 435.37C775.591 435.536 773.452 440.171 770.821 440.833C768.847 441.33 766.708 443.813 764.899 443.316C762.432 442.82 760.622 439.178 760.622 439.178C760.622 439.178 753.549 447.124 751.411 443.979C749.108 441.164 750.095 427.921 750.095 427.921Z" fill="url(#paint44_linear_0_1)"/>
<path d="M1184.28 505.714C1179.35 512.005 1176.39 514.653 1173.43 511.508C1170.47 508.363 1166.03 506.542 1163.39 507.866C1160.6 509.356 1158.79 505.548 1156.98 503.893C1155.17 502.237 1150.23 504.224 1148.75 505.548C1147.27 506.873 1139.05 504.39 1137.57 503.065C1136.09 501.741 1137.4 497.933 1136.91 494.457C1136.58 492.47 1142.67 490.484 1144.48 486.842C1145.79 484.028 1142.5 479.061 1145.3 478.896C1151.72 478.73 1161.91 490.649 1163.72 485.021C1165.53 479.392 1161.26 474.26 1162.74 473.929C1164.38 473.598 1170.3 474.095 1171.29 475.254C1172.28 476.247 1180.01 474.426 1179.18 470.453C1178.53 466.645 1184.12 464.162 1188.72 466.976C1193.33 469.791 1193.66 483.862 1197.11 483.034C1200.57 482.207 1206.65 485.352 1211.92 488.828C1215.04 490.98 1211.42 499.092 1209.94 505.383C1208.96 509.521 1210.44 512.667 1210.11 512.998C1209.78 513.163 1207.64 517.799 1205.01 518.461C1203.04 518.957 1200.9 521.441 1198.92 520.944C1196.46 520.447 1194.65 516.805 1194.65 516.805C1194.65 516.805 1187.57 524.752 1185.43 521.606C1183.3 518.792 1184.28 505.714 1184.28 505.714Z" fill="url(#paint45_linear_0_1)"/>
<g filter="url(#filter0_f_0_1)">
<circle cx="1015.3" cy="237.3" r="4.28715" fill="white"/>
</g>
<circle cx="1015.3" cy="237.3" r="4.28715" fill="white"/>
<g filter="url(#filter1_f_0_1)">
<circle cx="273.618" cy="209.434" r="4.28715" fill="white"/>
</g>
<circle cx="273.618" cy="209.434" r="4.28715" fill="white"/>
<g filter="url(#filter2_f_0_1)">
<circle cx="762.354" cy="76.532" r="4.28715" fill="white"/>
</g>
<circle cx="762.354" cy="76.532" r="4.28715" fill="white"/>
<g filter="url(#filter3_f_0_1)">
<circle cx="749.492" cy="691.738" r="4.28715" fill="white"/>
</g>
<circle cx="749.492" cy="691.738" r="4.28715" fill="white"/>
<g filter="url(#filter4_f_0_1)">
<circle cx="187.875" cy="721.749" r="4.28715" fill="white"/>
</g>
<circle cx="187.875" cy="721.749" r="4.28715" fill="white"/>
<g filter="url(#filter5_f_0_1)">
<circle cx="1150.34" cy="668.159" r="4.28715" fill="white"/>
</g>
<circle cx="1150.34" cy="668.159" r="4.28715" fill="white"/>
<g filter="url(#filter6_f_0_1)">
<circle cx="507.269" cy="215.865" r="4.28715" fill="white"/>
</g>
<circle cx="507.269" cy="215.865" r="4.28715" fill="white"/>
<rect x="124.867" y="773.101" width="10.9568" height="504.012" rx="5.4784" transform="rotate(-90 124.867 773.101)" fill="url(#paint46_linear_0_1)"/>
<rect x="825.691" y="1199.07" width="10.9568" height="504.012" rx="5.4784" transform="rotate(-90 825.691 1199.07)" fill="url(#paint47_linear_0_1)"/>
<rect x="371.537" y="507.33" width="10.9568" height="504.012" rx="5.4784" transform="rotate(-90 371.537 507.33)" fill="url(#paint48_linear_0_1)"/>
<rect x="499.834" y="1050.03" width="10.9568" height="504.012" rx="5.4784" transform="rotate(-90 499.834 1050.03)" fill="url(#paint49_linear_0_1)"/>
<rect x="602.53" y="154.141" width="10.9568" height="504.012" rx="5.4784" transform="rotate(-90 602.53 154.141)" fill="url(#paint50_linear_0_1)"/>
<rect x="761.821" y="351.644" width="10.7733" height="687.178" rx="5.38663" transform="rotate(-90 761.821 351.644)" fill="url(#paint51_linear_0_1)"/>
<rect x="31.5498" y="634.057" width="10.7733" height="680.253" rx="5.38663" transform="rotate(-90 31.5498 634.057)" fill="url(#paint52_linear_0_1)"/>
<rect x="500.955" y="886.458" width="10.7733" height="866.476" rx="5.38663" transform="rotate(-90 500.955 886.458)" fill="url(#paint53_linear_0_1)"/>
<rect x="781.06" y="653.295" width="10.7733" height="651.011" rx="5.38663" transform="rotate(-90 781.06 653.295)" fill="url(#paint54_linear_0_1)"/>
<rect x="1128.85" y="1088.56" width="10.9568" height="262.562" rx="5.4784" transform="rotate(-90 1128.85 1088.56)" fill="url(#paint55_linear_0_1)"/>
<rect x="305.721" y="81.9568" width="10.9568" height="262.562" rx="5.4784" transform="rotate(-90 305.721 81.9568)" fill="url(#paint56_linear_0_1)"/>
<rect x="206.23" y="996.499" width="10.7733" height="771.056" rx="5.38663" transform="rotate(-90 206.23 996.499)" fill="url(#paint57_linear_0_1)"/>
<rect x="81.5684" y="442.447" width="11.5428" height="680.253" rx="5.77139" transform="rotate(-90 81.5684 442.447)" fill="url(#paint58_linear_0_1)"/>
<rect x="863.397" y="803.35" width="10.7732" height="504.033" rx="5.38662" transform="rotate(-90 863.397 803.35)" fill="url(#paint59_linear_0_1)"/>
<rect x="247.015" y="1182.72" width="10.7732" height="464.788" rx="5.38662" transform="rotate(-90 247.015 1182.72)" fill="url(#paint60_linear_0_1)"/>
<rect x="247.015" y="340.871" width="10.7732" height="403.996" rx="5.38662" transform="rotate(-90 247.015 340.871)" fill="url(#paint61_linear_0_1)"/>
<rect x="977.089" y="502.477" width="10.9568" height="262.562" rx="5.4784" transform="rotate(-90 977.089 502.477)" fill="url(#paint62_linear_0_1)"/>
<rect y="237.756" width="10.7733" height="975.747" rx="5.38663" transform="rotate(-90 0 237.756)" fill="url(#paint63_linear_0_1)"/>
<defs>
<filter id="filter0_f_0_1" x="1007.01" y="229.013" width="16.5742" height="16.5742" filterUnits="userSpaceOnUse" color-interpolation-filters="sRGB">
<feFlood flood-opacity="0" result="BackgroundImageFix"/>
<feBlend mode="normal" in="SourceGraphic" in2="BackgroundImageFix" result="shape"/>
<feGaussianBlur stdDeviation="2" result="effect1_foregroundBlur_0_1"/>
</filter>
<filter id="filter1_f_0_1" x="265.331" y="201.146" width="16.5742" height="16.5742" filterUnits="userSpaceOnUse" color-interpolation-filters="sRGB">
<feFlood flood-opacity="0" result="BackgroundImageFix"/>
<feBlend mode="normal" in="SourceGraphic" in2="BackgroundImageFix" result="shape"/>
<feGaussianBlur stdDeviation="2" result="effect1_foregroundBlur_0_1"/>
</filter>
<filter id="filter2_f_0_1" x="754.066" y="68.2449" width="16.5742" height="16.5742" filterUnits="userSpaceOnUse" color-interpolation-filters="sRGB">
<feFlood flood-opacity="0" result="BackgroundImageFix"/>
<feBlend mode="normal" in="SourceGraphic" in2="BackgroundImageFix" result="shape"/>
<feGaussianBlur stdDeviation="2" result="effect1_foregroundBlur_0_1"/>
</filter>
<filter id="filter3_f_0_1" x="741.205" y="683.451" width="16.5742" height="16.5743" filterUnits="userSpaceOnUse" color-interpolation-filters="sRGB">
<feFlood flood-opacity="0" result="BackgroundImageFix"/>
<feBlend mode="normal" in="SourceGraphic" in2="BackgroundImageFix" result="shape"/>
<feGaussianBlur stdDeviation="2" result="effect1_foregroundBlur_0_1"/>
</filter>
<filter id="filter4_f_0_1" x="179.588" y="713.461" width="16.5742" height="16.5743" filterUnits="userSpaceOnUse" color-interpolation-filters="sRGB">
<feFlood flood-opacity="0" result="BackgroundImageFix"/>
<feBlend mode="normal" in="SourceGraphic" in2="BackgroundImageFix" result="shape"/>
<feGaussianBlur stdDeviation="2" result="effect1_foregroundBlur_0_1"/>
</filter>
<filter id="filter5_f_0_1" x="1142.05" y="659.872" width="16.5742" height="16.5743" filterUnits="userSpaceOnUse" color-interpolation-filters="sRGB">
<feFlood flood-opacity="0" result="BackgroundImageFix"/>
<feBlend mode="normal" in="SourceGraphic" in2="BackgroundImageFix" result="shape"/>
<feGaussianBlur stdDeviation="2" result="effect1_foregroundBlur_0_1"/>
</filter>
<filter id="filter6_f_0_1" x="498.981" y="207.577" width="16.5742" height="16.5742" filterUnits="userSpaceOnUse" color-interpolation-filters="sRGB">
<feFlood flood-opacity="0" result="BackgroundImageFix"/>
<feBlend mode="normal" in="SourceGraphic" in2="BackgroundImageFix" result="shape"/>
<feGaussianBlur stdDeviation="2" result="effect1_foregroundBlur_0_1"/>
</filter>
<linearGradient id="paint0_linear_0_1" x1="704.625" y1="0" x2="704.625" y2="1071" gradientUnits="userSpaceOnUse">
<stop stop-color="#6CA2F3"/>
<stop offset="1" stop-color="#F9F3F6"/>
</linearGradient>
<linearGradient id="paint1_linear_0_1" x1="704.625" y1="0" x2="704.625" y2="1071" gradientUnits="userSpaceOnUse">
<stop stop-color="#002566"/>
<stop offset="1" stop-color="#002D3E"/>
</linearGradient>
<linearGradient id="paint2_linear_0_1" x1="1237.22" y1="413.135" x2="109.605" y2="413.139" gradientUnits="userSpaceOnUse">
<stop stop-color="#FEFEFE" stop-opacity="0"/>
<stop offset="1" stop-color="white"/>
</linearGradient>
<linearGradient id="paint3_linear_0_1" x1="1336.92" y1="417.083" x2="127.554" y2="417.087" gradientUnits="userSpaceOnUse">
<stop stop-color="#FEFEFE" stop-opacity="0"/>
<stop offset="1" stop-color="white"/>
</linearGradient>
<linearGradient id="paint4_linear_0_1" x1="1184.3" y1="5.26002" x2="-26.4712" y2="5.26308" gradientUnits="userSpaceOnUse">
<stop stop-color="#FEFEFE" stop-opacity="0"/>
<stop offset="1" stop-color="white"/>
</linearGradient>
<linearGradient id="paint5_linear_0_1" x1="1182.92" y1="3.94501" x2="-26.4404" y2="3.94908" gradientUnits="userSpaceOnUse">
<stop stop-color="#FEFEFE" stop-opacity="0"/>
<stop offset="1" stop-color="white"/>
</linearGradient>
<linearGradient id="paint6_linear_0_1" x1="1131.96" y1="753.908" x2="4.34694" y2="753.912" gradientUnits="userSpaceOnUse">
<stop stop-color="#FEFEFE" stop-opacity="0"/>
<stop offset="1" stop-color="white"/>
</linearGradient>
<linearGradient id="paint7_linear_0_1" x1="2630.57" y1="573.654" x2="1502.96" y2="573.658" gradientUnits="userSpaceOnUse">
<stop stop-color="#FEFEFE" stop-opacity="0"/>
<stop offset="1" stop-color="white"/>
</linearGradient>
<linearGradient id="paint8_linear_0_1" x1="2576.28" y1="846.009" x2="1309.13" y2="846.014" gradientUnits="userSpaceOnUse">
<stop stop-color="#FEFEFE" stop-opacity="0"/>
<stop offset="1" stop-color="white"/>
</linearGradient>
<linearGradient id="paint9_linear_0_1" x1="2476.63" y1="601.284" x2="1349.02" y2="601.288" gradientUnits="userSpaceOnUse">
<stop stop-color="#FEFEFE" stop-opacity="0"/>
<stop offset="1" stop-color="white"/>
</linearGradient>
<linearGradient id="paint10_linear_0_1" x1="388.133" y1="561.504" x2="388.133" y2="522.099" gradientUnits="userSpaceOnUse">
<stop stop-color="#79BBDF" stop-opacity="0.69"/>
<stop offset="1" stop-color="#153E54" stop-opacity="0.78"/>
</linearGradient>
<linearGradient id="paint11_linear_0_1" x1="893.325" y1="570.081" x2="893.325" y2="500.466" gradientUnits="userSpaceOnUse">
<stop stop-color="#79BBDF" stop-opacity="0.69"/>
<stop offset="1" stop-color="#153E54" stop-opacity="0.78"/>
</linearGradient>
<linearGradient id="paint12_linear_0_1" x1="704.399" y1="660.333" x2="704.399" y2="439.667" gradientUnits="userSpaceOnUse">
<stop stop-color="#79BBDF" stop-opacity="0.69"/>
<stop offset="1" stop-color="#153E54" stop-opacity="0.78"/>
</linearGradient>
<linearGradient id="paint13_linear_0_1" x1="1161.81" y1="588.628" x2="1161.81" y2="434.95" gradientUnits="userSpaceOnUse">
<stop stop-color="#79BBDF" stop-opacity="0.69"/>
<stop offset="1" stop-color="#153E54" stop-opacity="0.78"/>
</linearGradient>
<linearGradient id="paint14_linear_0_1" x1="848.013" y1="589.004" x2="848.013" y2="499.687" gradientUnits="userSpaceOnUse">
<stop stop-color="#79BBDF" stop-opacity="0.69"/>
<stop offset="1" stop-color="#153E54" stop-opacity="0.78"/>
</linearGradient>
<linearGradient id="paint15_linear_0_1" x1="381.585" y1="629.998" x2="381.585" y2="566.951" gradientUnits="userSpaceOnUse">
<stop stop-color="#79BBDF" stop-opacity="0.69"/>
<stop offset="1" stop-color="#153E54" stop-opacity="0.78"/>
</linearGradient>
<linearGradient id="paint16_linear_0_1" x1="423.637" y1="597.051" x2="423.637" y2="460.449" gradientUnits="userSpaceOnUse">
<stop stop-color="#79BBDF" stop-opacity="0.69"/>
<stop offset="1" stop-color="#153E54" stop-opacity="0.78"/>
</linearGradient>
<linearGradient id="paint17_linear_0_1" x1="798.001" y1="545.83" x2="798.001" y2="470.961" gradientUnits="userSpaceOnUse">
<stop stop-color="#79BBDF" stop-opacity="0.69"/>
<stop offset="1" stop-color="#153E54" stop-opacity="0.78"/>
</linearGradient>
<linearGradient id="paint18_linear_0_1" x1="363.829" y1="280.25" x2="363.829" y2="489.161" gradientUnits="userSpaceOnUse">
<stop stop-color="#79BBDF" stop-opacity="0.69"/>
<stop offset="1" stop-color="#153E54" stop-opacity="0.78"/>
</linearGradient>
<linearGradient id="paint19_linear_0_1" x1="967.952" y1="316.885" x2="967.952" y2="474.239" gradientUnits="userSpaceOnUse">
<stop stop-color="#79BBDF" stop-opacity="0.69"/>
<stop offset="1" stop-color="#153E54" stop-opacity="0.78"/>
</linearGradient>
<linearGradient id="paint20_linear_0_1" x1="443.339" y1="821.434" x2="443.339" y2="691.399" gradientUnits="userSpaceOnUse">
<stop stop-color="#79BBDF" stop-opacity="0.69"/>
<stop offset="1" stop-color="#153E54" stop-opacity="0.78"/>
</linearGradient>
<linearGradient id="paint21_linear_0_1" x1="928.912" y1="600.949" x2="928.912" y2="524.767" gradientUnits="userSpaceOnUse">
<stop stop-color="#79BBDF" stop-opacity="0.69"/>
<stop offset="1" stop-color="#153E54" stop-opacity="0.78"/>
</linearGradient>
<linearGradient id="paint22_linear_0_1" x1="189.511" y1="544.864" x2="189.511" y2="497.578" gradientUnits="userSpaceOnUse">
<stop stop-color="#79BBDF" stop-opacity="0.69"/>
<stop offset="1" stop-color="#153E54" stop-opacity="0.78"/>
</linearGradient>
<linearGradient id="paint23_linear_0_1" x1="257.241" y1="567.849" x2="257.241" y2="465.397" gradientUnits="userSpaceOnUse">
<stop stop-color="#79BBDF" stop-opacity="0.69"/>
<stop offset="1" stop-color="#153E54" stop-opacity="0.78"/>
</linearGradient>
<linearGradient id="paint24_linear_0_1" x1="693.542" y1="384.065" x2="693.542" y2="551.052" gradientUnits="userSpaceOnUse">
<stop stop-color="#79BBDF" stop-opacity="0.69"/>
<stop offset="1" stop-color="#153E54" stop-opacity="0.78"/>
</linearGradient>
<linearGradient id="paint25_linear_0_1" x1="967.745" y1="544.012" x2="967.745" y2="488.845" gradientUnits="userSpaceOnUse">
<stop stop-color="#79BBDF" stop-opacity="0.69"/>
<stop offset="1" stop-color="#153E54" stop-opacity="0.78"/>
</linearGradient>
<linearGradient id="paint26_linear_0_1" x1="679.539" y1="600.097" x2="680.372" y2="500.062" gradientUnits="userSpaceOnUse">
<stop stop-color="#79BBDF" stop-opacity="0.69"/>
<stop offset="1" stop-color="#153E54" stop-opacity="0.78"/>
</linearGradient>
<linearGradient id="paint27_linear_0_1" x1="1009.96" y1="707.591" x2="1009.96" y2="790.341" gradientUnits="userSpaceOnUse">
<stop stop-color="#79BBDF" stop-opacity="0.69"/>
<stop offset="1" stop-color="#153E54" stop-opacity="0.78"/>
</linearGradient>
<linearGradient id="paint28_linear_0_1" x1="339.439" y1="653.355" x2="339.439" y2="465.527" gradientUnits="userSpaceOnUse">
<stop stop-color="#79BBDF" stop-opacity="0.69"/>
<stop offset="1" stop-color="#153E54" stop-opacity="0.78"/>
</linearGradient>
<linearGradient id="paint29_linear_0_1" x1="1113.78" y1="544.722" x2="1113.78" y2="496.123" gradientUnits="userSpaceOnUse">
<stop stop-color="#79BBDF" stop-opacity="0.69"/>
<stop offset="1" stop-color="#153E54" stop-opacity="0.78"/>
</linearGradient>
<linearGradient id="paint30_linear_0_1" x1="1115.08" y1="590.385" x2="1115.08" y2="526.024" gradientUnits="userSpaceOnUse">
<stop stop-color="#79BBDF" stop-opacity="0.69"/>
<stop offset="1" stop-color="#153E54" stop-opacity="0.78"/>
</linearGradient>
<linearGradient id="paint31_linear_0_1" x1="386.272" y1="874.159" x2="386.272" y2="939.833" gradientUnits="userSpaceOnUse">
<stop stop-color="#79BBDF" stop-opacity="0.69"/>
<stop offset="1" stop-color="#153E54" stop-opacity="0.78"/>
</linearGradient>
<linearGradient id="paint32_linear_0_1" x1="972.363" y1="520.007" x2="972.363" y2="474.035" gradientUnits="userSpaceOnUse">
<stop stop-color="#79BBDF" stop-opacity="0.69"/>
<stop offset="1" stop-color="#153E54" stop-opacity="0.78"/>
</linearGradient>
<linearGradient id="paint33_linear_0_1" x1="1203.93" y1="530.533" x2="1203.93" y2="484.561" gradientUnits="userSpaceOnUse">
<stop stop-color="#79BBDF" stop-opacity="0.69"/>
<stop offset="1" stop-color="#153E54" stop-opacity="0.78"/>
</linearGradient>
<linearGradient id="paint34_linear_0_1" x1="856.58" y1="476.588" x2="856.58" y2="430.616" gradientUnits="userSpaceOnUse">
<stop stop-color="#79BBDF" stop-opacity="0.69"/>
<stop offset="1" stop-color="#153E54" stop-opacity="0.78"/>
</linearGradient>
<linearGradient id="paint35_linear_0_1" x1="893.419" y1="869.99" x2="893.419" y2="824.017" gradientUnits="userSpaceOnUse">
<stop stop-color="#79BBDF" stop-opacity="0.69"/>
<stop offset="1" stop-color="#153E54" stop-opacity="0.78"/>
</linearGradient>
<linearGradient id="paint36_linear_0_1" x1="569.094" y1="512.112" x2="569.094" y2="466.14" gradientUnits="userSpaceOnUse">
<stop stop-color="#79BBDF" stop-opacity="0.69"/>
<stop offset="1" stop-color="#153E54" stop-opacity="0.78"/>
</linearGradient>
<linearGradient id="paint37_linear_0_1" x1="713.162" y1="491.59" x2="713.162" y2="462.693" gradientUnits="userSpaceOnUse">
<stop stop-color="#79BBDF" stop-opacity="0.69"/>
<stop offset="1" stop-color="#153E54" stop-opacity="0.78"/>
</linearGradient>
<linearGradient id="paint38_linear_0_1" x1="559.23" y1="627.536" x2="559.23" y2="602.579" gradientUnits="userSpaceOnUse">
<stop stop-color="#79BBDF" stop-opacity="0.69"/>
<stop offset="1" stop-color="#153E54" stop-opacity="0.78"/>
</linearGradient>
<linearGradient id="paint39_linear_0_1" x1="294.769" y1="595.958" x2="294.769" y2="571.002" gradientUnits="userSpaceOnUse">
<stop stop-color="#79BBDF" stop-opacity="0.69"/>
<stop offset="1" stop-color="#153E54" stop-opacity="0.78"/>
</linearGradient>
<linearGradient id="paint40_linear_0_1" x1="196.089" y1="480.316" x2="196.089" y2="456.674" gradientUnits="userSpaceOnUse">
<stop stop-color="#79BBDF" stop-opacity="0.69"/>
<stop offset="1" stop-color="#153E54" stop-opacity="0.78"/>
</linearGradient>
<linearGradient id="paint41_linear_0_1" x1="1174.99" y1="409.125" x2="1174.99" y2="384.169" gradientUnits="userSpaceOnUse">
<stop stop-color="#79BBDF" stop-opacity="0.69"/>
<stop offset="1" stop-color="#153E54" stop-opacity="0.78"/>
</linearGradient>
<linearGradient id="paint42_linear_0_1" x1="333.574" y1="508.346" x2="333.574" y2="451.866" gradientUnits="userSpaceOnUse">
<stop stop-color="#79BBDF" stop-opacity="0.69"/>
<stop offset="1" stop-color="#153E54" stop-opacity="0.78"/>
</linearGradient>
<linearGradient id="paint43_linear_0_1" x1="757.896" y1="920.167" x2="757.896" y2="863.687" gradientUnits="userSpaceOnUse">
<stop stop-color="#79BBDF" stop-opacity="0.69"/>
<stop offset="1" stop-color="#153E54" stop-opacity="0.78"/>
</linearGradient>
<linearGradient id="paint44_linear_0_1" x1="740.791" y1="438.612" x2="740.791" y2="382.132" gradientUnits="userSpaceOnUse">
<stop stop-color="#79BBDF" stop-opacity="0.69"/>
<stop offset="1" stop-color="#153E54" stop-opacity="0.78"/>
</linearGradient>
<linearGradient id="paint45_linear_0_1" x1="1174.98" y1="516.24" x2="1174.98" y2="459.76" gradientUnits="userSpaceOnUse">
<stop stop-color="#79BBDF" stop-opacity="0.69"/>
<stop offset="1" stop-color="#153E54" stop-opacity="0.78"/>
</linearGradient>
<linearGradient id="paint46_linear_0_1" x1="130.346" y1="773.101" x2="130.346" y2="1277.11" gradientUnits="userSpaceOnUse">
<stop stop-color="white"/>
<stop offset="1" stop-color="#D9D9D9" stop-opacity="0"/>
</linearGradient>
<linearGradient id="paint47_linear_0_1" x1="831.17" y1="1199.07" x2="831.17" y2="1703.08" gradientUnits="userSpaceOnUse">
<stop stop-color="white"/>
<stop offset="1" stop-color="#D9D9D9" stop-opacity="0"/>
</linearGradient>
<linearGradient id="paint48_linear_0_1" x1="377.016" y1="507.33" x2="377.016" y2="1011.34" gradientUnits="userSpaceOnUse">
<stop stop-color="white"/>
<stop offset="1" stop-color="#D9D9D9" stop-opacity="0"/>
</linearGradient>
<linearGradient id="paint49_linear_0_1" x1="505.312" y1="1050.03" x2="505.312" y2="1554.05" gradientUnits="userSpaceOnUse">
<stop stop-color="white"/>
<stop offset="1" stop-color="#D9D9D9" stop-opacity="0"/>
</linearGradient>
<linearGradient id="paint50_linear_0_1" x1="608.009" y1="154.141" x2="608.009" y2="658.153" gradientUnits="userSpaceOnUse">
<stop stop-color="white"/>
<stop offset="1" stop-color="#D9D9D9" stop-opacity="0"/>
</linearGradient>
<linearGradient id="paint51_linear_0_1" x1="767.208" y1="351.644" x2="767.208" y2="1038.82" gradientUnits="userSpaceOnUse">
<stop stop-color="white"/>
<stop offset="1" stop-color="#D9D9D9" stop-opacity="0"/>
</linearGradient>
<linearGradient id="paint52_linear_0_1" x1="36.9364" y1="634.057" x2="36.9364" y2="1314.31" gradientUnits="userSpaceOnUse">
<stop stop-color="white"/>
<stop offset="1" stop-color="#D9D9D9" stop-opacity="0"/>
</linearGradient>
<linearGradient id="paint53_linear_0_1" x1="506.342" y1="886.458" x2="506.342" y2="1752.93" gradientUnits="userSpaceOnUse">
<stop stop-color="white"/>
<stop offset="1" stop-color="#D9D9D9" stop-opacity="0"/>
</linearGradient>
<linearGradient id="paint54_linear_0_1" x1="786.446" y1="653.295" x2="786.446" y2="1304.31" gradientUnits="userSpaceOnUse">
<stop stop-color="white"/>
<stop offset="1" stop-color="#D9D9D9" stop-opacity="0"/>
</linearGradient>
<linearGradient id="paint55_linear_0_1" x1="1134.33" y1="1088.56" x2="1134.33" y2="1351.13" gradientUnits="userSpaceOnUse">
<stop stop-color="white"/>
<stop offset="1" stop-color="#D9D9D9" stop-opacity="0"/>
</linearGradient>
<linearGradient id="paint56_linear_0_1" x1="311.199" y1="81.9568" x2="311.199" y2="344.519" gradientUnits="userSpaceOnUse">
<stop stop-color="white"/>
<stop offset="1" stop-color="#D9D9D9" stop-opacity="0"/>
</linearGradient>
<linearGradient id="paint57_linear_0_1" x1="211.617" y1="996.499" x2="211.617" y2="1767.55" gradientUnits="userSpaceOnUse">
<stop stop-color="white"/>
<stop offset="1" stop-color="#D9D9D9" stop-opacity="0"/>
</linearGradient>
<linearGradient id="paint58_linear_0_1" x1="87.3397" y1="442.447" x2="87.3397" y2="1122.7" gradientUnits="userSpaceOnUse">
<stop stop-color="white"/>
<stop offset="1" stop-color="#D9D9D9" stop-opacity="0"/>
</linearGradient>
<linearGradient id="paint59_linear_0_1" x1="868.784" y1="803.35" x2="868.784" y2="1307.38" gradientUnits="userSpaceOnUse">
<stop stop-color="white"/>
<stop offset="1" stop-color="#D9D9D9" stop-opacity="0"/>
</linearGradient>
<linearGradient id="paint60_linear_0_1" x1="252.401" y1="1182.72" x2="252.401" y2="1647.51" gradientUnits="userSpaceOnUse">
<stop stop-color="white"/>
<stop offset="1" stop-color="#D9D9D9" stop-opacity="0"/>
</linearGradient>
<linearGradient id="paint61_linear_0_1" x1="252.401" y1="340.871" x2="252.401" y2="744.867" gradientUnits="userSpaceOnUse">
<stop stop-color="white"/>
<stop offset="1" stop-color="#D9D9D9" stop-opacity="0"/>
</linearGradient>
<linearGradient id="paint62_linear_0_1" x1="982.567" y1="502.477" x2="982.567" y2="765.039" gradientUnits="userSpaceOnUse">
<stop stop-color="white"/>
<stop offset="1" stop-color="#D9D9D9" stop-opacity="0"/>
</linearGradient>
<linearGradient id="paint63_linear_0_1" x1="5.38663" y1="237.756" x2="5.38663" y2="1213.5" gradientUnits="userSpaceOnUse">
<stop stop-color="white"/>
<stop offset="1" stop-color="#D9D9D9" stop-opacity="0"/>
</linearGradient>
</defs>
</svg>
