<svg width="1499" height="1071" viewBox="0 0 1499 1071" fill="none" xmlns="http://www.w3.org/2000/svg">
<rect x="139.467" width="1072.32" height="1071" fill="url(#paint0_linear_0_1)"/>
<rect x="139.467" width="1072.32" height="1071" fill="url(#paint1_linear_0_1)"/>
<rect x="105.258" y="409.19" width="1052.58" height="3.94717" fill="url(#paint2_linear_0_1)"/>
<rect x="124.994" y="413.138" width="1128.89" height="3.94717" fill="url(#paint3_linear_0_1)"/>
<rect width="1130.21" height="5.2629" transform="matrix(-1 0 0 1 1222.31 144.729)" fill="url(#paint4_linear_0_1)"/>
<rect width="1128.89" height="3.94717" transform="matrix(-1 0 0 1 1253.89 134.204)" fill="url(#paint5_linear_0_1)"/>
<rect y="749.963" width="1052.58" height="3.94717" fill="url(#paint6_linear_0_1)"/>
<rect x="1498.61" y="569.709" width="1052.58" height="3.94727" transform="rotate(180 1498.61 569.709)" fill="url(#paint7_linear_0_1)"/>
<rect x="1307.83" y="842.064" width="1182.84" height="3.94728" transform="rotate(180 1307.83 842.064)" fill="url(#paint8_linear_0_1)"/>
<rect x="1344.67" y="597.339" width="1052.58" height="3.94727" transform="rotate(180 1344.67 597.339)" fill="url(#paint9_linear_0_1)"/>
<g filter="url(#filter0_f_0_1)">
<circle cx="986.296" cy="237.301" r="4.28715" fill="white"/>
</g>
<circle cx="986.296" cy="237.301" r="4.28715" fill="white"/>
<g filter="url(#filter1_f_0_1)">
<circle cx="874.287" cy="508.287" r="4.28715" fill="white"/>
</g>
<circle cx="874.287" cy="508.287" r="4.28715" fill="white"/>
<g filter="url(#filter2_f_0_1)">
<circle cx="733.354" cy="76.5323" r="4.28715" fill="white"/>
</g>
<circle cx="733.354" cy="76.5323" r="4.28715" fill="white"/>
<g filter="url(#filter3_f_0_1)">
<circle cx="720.492" cy="691.738" r="4.28715" fill="white"/>
</g>
<circle cx="720.492" cy="691.738" r="4.28715" fill="white"/>
<g filter="url(#filter4_f_0_1)">
<circle cx="724.287" cy="314.287" r="4.28715" fill="white"/>
</g>
<circle cx="724.287" cy="314.287" r="4.28715" fill="white"/>
<g filter="url(#filter5_f_0_1)">
<circle cx="934.287" cy="939.287" r="4.28715" fill="white"/>
</g>
<circle cx="934.287" cy="939.287" r="4.28715" fill="white"/>
<g filter="url(#filter6_f_0_1)">
<circle cx="1121.34" cy="668.159" r="4.28715" fill="white"/>
</g>
<circle cx="1121.34" cy="668.159" r="4.28715" fill="white"/>
<rect x="68" y="387.407" width="1128.18" height="4.23068" fill="url(#paint10_linear_0_1)"/>
<path d="M215.704 528.365L192.881 538.825C189.827 540.225 187.87 543.275 187.87 546.634C187.87 551.378 191.715 555.224 196.46 555.224H483.605C488.506 555.224 492.478 551.251 492.478 546.351C492.478 543.124 490.727 540.152 487.904 538.588L468.508 527.847C466.136 526.534 463.469 525.844 460.757 525.844H441.736C437.432 525.844 433.308 527.579 430.298 530.656L424.769 536.31C421.759 539.387 417.635 541.122 413.331 541.122H392.127C390.079 541.122 388.05 540.728 386.15 539.963L351.094 525.844L322.925 515.625C318.222 513.919 312.992 514.511 308.79 517.225L278 537.106C274.055 539.653 269.19 540.339 264.694 538.981L226.996 527.594C223.264 526.466 219.248 526.741 215.704 528.365Z" fill="url(#paint11_linear_0_1)"/>
<path d="M672.732 497.407C655.38 509.866 629.575 528.405 617.447 537.154C613.334 540.121 610.937 544.861 610.937 549.932V551.916C610.937 560.753 618.1 567.916 626.937 567.916H1136.46C1145.3 567.916 1152.46 560.753 1152.46 551.916V549.653C1152.46 544.739 1150.21 540.092 1146.31 537.106C1130.27 524.839 1105.67 507.101 1100.84 507.896C1093.95 509.028 1045.76 541.87 1037.73 541.87C1029.7 541.87 943.655 526.015 929.887 518.088C916.119 510.161 849.576 493.174 842.692 493.174C835.808 493.174 791.064 521.485 780.738 518.088C773.07 515.565 718.02 502.44 685.688 494.832C681.192 493.775 676.484 494.713 672.732 497.407Z" fill="url(#paint12_linear_0_1)"/>
<path d="M117.084 445.226C112.649 446.821 108.569 448.416 104.666 450.011V595.487C106.617 595.664 107.15 597.436 107.859 602.043C108.923 608.422 116.906 617.99 127.905 618.522C138.903 619.053 145.821 626.141 156.642 632.874C167.641 639.608 162.496 647.936 188.751 654.669C215.005 661.402 204.716 650.062 216.069 639.608C227.422 628.976 221.568 637.304 223.697 640.494C225.826 643.683 232.744 641.202 233.454 639.785C234.163 638.367 238.776 631.988 245.339 638.545C251.903 644.924 251.903 642.088 252.258 640.848C252.612 639.608 263.611 636.773 268.578 642.62C273.722 648.467 277.98 643.86 296.961 638.545C315.942 633.229 312.217 630.394 312.217 637.304C312.217 644.392 319.135 642.62 329.246 644.038C339.358 645.455 348.582 634.115 349.647 639.962C350.711 645.809 365.967 639.962 364.903 641.38C363.838 642.797 365.257 645.632 369.692 649.708C374.127 653.783 375.901 652.011 378.03 650.594C380.158 649.176 379.094 647.581 386.367 643.506C393.64 639.43 399.494 642.088 399.494 644.038C399.494 646.164 407.477 656.973 414.395 659.276C421.314 661.58 422.023 669.908 427.877 670.439C433.731 670.971 434.086 661.58 436.215 658.922C438.344 656.264 441.714 657.504 442.778 662.82C443.843 668.136 452.535 668.136 458.744 668.136C464.953 668.136 467.791 671.68 474.355 678.059C480.918 684.438 487.482 682.489 502.738 678.059C517.993 673.629 523.138 673.629 535.201 674.16C547.263 674.692 546.554 672.388 551.876 670.971C557.375 669.553 556.665 671.857 563.229 670.971C569.792 670.085 564.648 658.922 568.018 661.58C571.212 664.238 582.21 666.364 589.838 666.541C597.466 666.895 606.158 663.883 615.028 662.997C623.72 662.111 626.026 659.985 632.058 655.024C638.266 650.062 640.395 644.215 646.604 638.899C652.813 633.583 666.649 625.609 668.068 628.267C669.488 630.925 676.051 632.166 680.486 630.571C684.921 629.153 692.904 629.685 699.467 630.571C706.031 631.457 708.159 630.039 710.82 627.913C713.304 625.787 713.659 625.787 718.803 624.901C723.948 624.015 727.85 624.901 727.495 620.825C727.141 616.75 727.495 613.56 734.414 615.155C741.332 616.927 740.977 617.281 743.461 611.257C745.944 605.409 748.605 608.599 756.588 608.953C764.571 609.308 764.925 609.485 764.925 605.055C764.925 600.625 770.07 602.397 779.827 602.397C789.583 602.397 791.18 600.98 791.889 598.322C792.599 595.664 808.564 598.676 809.451 596.55C810.161 594.423 817.079 595.132 823.998 596.018C830.916 596.904 824.352 599.208 823.998 603.106C823.643 607.004 825.062 611.611 829.142 608.953C833.222 606.295 831.626 602.397 838.544 603.283C845.462 604.169 852.735 604.523 854.154 607.536C855.574 610.548 863.202 612.32 869.056 613.737C874.91 615.155 870.829 626.318 875.264 632.52C879.699 638.722 888.037 644.038 895.31 642.797C902.583 641.557 901.164 637.836 902.938 639.253C904.712 640.671 907.373 641.911 913.049 639.253C918.903 636.595 922.451 636.595 924.048 637.481C925.467 638.367 931.676 637.127 935.046 633.938C938.239 630.748 943.384 630.748 948.173 629.508C952.963 628.267 964.139 626.318 968.573 633.938C973.008 641.557 975.137 641.025 977.266 641.202C979.394 641.557 985.603 637.659 985.958 642.443C986.313 647.227 995.36 649.708 997.666 645.455C999.795 641.025 1011.5 643.683 1015.23 646.695C1018.95 649.708 1034.21 659.276 1039.89 654.669C1045.74 649.885 1046.09 647.936 1046.09 647.936C1068.27 639.43 1050.88 632.343 1059.93 626.495C1068.98 620.648 1073.77 597.79 1076.61 596.018C1079.44 594.246 1083.52 596.018 1085.65 594.246C1087.78 592.474 1091.86 591.057 1091.51 587.513C1091.15 583.969 1098.78 582.197 1100.91 582.551C1103.04 582.906 1111.91 582.906 1113.33 579.362C1114.75 575.995 1120.95 579.008 1122.73 579.185C1124.5 579.539 1130.71 579.185 1133.37 577.058C1135.86 574.932 1137.1 571.743 1139.58 571.211C1142.06 570.679 1143.66 569.793 1142.42 567.49C1141.35 565.364 1143.48 565.364 1145.26 561.997C1147.03 558.807 1150.05 559.339 1157.68 559.339C1165.3 559.339 1164.59 565.364 1175.24 562.529C1177.19 561.997 1181.45 558.63 1182.87 557.922C1184.28 557.213 1187.65 556.681 1188.36 557.567C1189.07 558.453 1193.86 557.567 1193.86 557.567C1193.86 557.567 1195.99 556.15 1196.7 553.846C1197.41 551.543 1200.78 552.428 1200.78 552.428C1200.78 552.428 1203.97 552.428 1205.57 553.669C1206.99 554.909 1208.41 552.429 1210.36 550.302C1212.14 548.176 1218.34 547.467 1222.07 549.771C1239.63 561.111 1247.26 554.023 1254 551.011V445.226H117.084Z" fill="url(#paint13_linear_0_1)"/>
<path d="M1089.19 512.284C1090.43 522.179 1087.41 533.488 1090.96 537.376C1094.52 541.263 1107.84 574.837 1111.21 571.126C1114.59 567.416 1128.27 536.139 1132.35 541.087C1136.44 546.211 1143.72 556.813 1149.94 552.926C1155.98 548.862 1166.1 554.693 1173.03 564.058C1179.96 573.423 1180.31 589.15 1191.33 571.126C1191.33 571.126 1195.95 586.146 1200.74 595.335C1205.54 604.523 1221.35 581.905 1221.35 581.905C1221.35 581.905 1244.26 595.688 1249.77 573.777V494.437C1240.35 487.192 1230.76 482.244 1224.9 483.834C1217.08 485.955 1215.49 445.136 1205.18 436.478C1194.7 427.819 1182.09 434.534 1183.87 445.843C1185.64 456.975 1168.41 462.1 1166.1 459.096C1163.79 455.915 1150.29 453.971 1146.74 454.678C1143.19 455.385 1153.31 470.405 1149.58 486.838C1145.85 503.272 1122.23 467.754 1107.66 467.931C1092.92 468.108 1087.94 502.388 1089.19 512.284Z" fill="url(#paint14_linear_0_1)"/>
<path d="M848.967 561.885C840.661 572.452 835.535 576.929 830.586 571.556C825.638 566.184 818.215 563.139 813.619 565.467C809.024 567.974 805.843 561.706 802.838 558.662C799.834 555.796 791.527 559.378 789.052 561.527C786.578 563.676 772.792 559.557 770.141 557.408C767.49 555.259 769.965 548.633 769.258 542.902C768.727 539.679 778.978 536.276 781.983 530.008C784.28 525.173 778.802 516.935 783.397 516.756C794.178 516.397 811.145 536.634 814.15 526.963C817.154 517.293 809.908 508.876 812.559 508.338C815.21 507.801 825.107 508.697 826.875 510.487C828.466 512.278 841.367 509.055 840.307 502.429C839.07 495.981 848.614 491.862 856.214 496.698C863.813 501.533 864.344 525.173 870.176 523.919C876.009 522.665 886.259 527.859 895.096 533.769C900.399 537.351 894.39 551.14 891.738 561.706C890.148 568.512 892.622 574.063 891.915 574.422C891.208 574.78 887.673 582.48 883.255 583.555C879.897 584.45 876.362 588.569 873.181 587.853C869.116 586.958 866.111 581.048 866.111 581.048C866.111 581.048 854.093 594.479 850.735 589.286C847.2 584.092 848.967 561.885 848.967 561.885Z" fill="url(#paint15_linear_0_1)"/>
<path d="M326.373 621.103C323.894 617.729 318.052 621.636 314.511 617.907C310.971 614.177 305.66 611.869 302.296 613.645C299.109 615.42 296.631 610.981 294.683 608.85C292.559 606.896 286.54 609.383 284.769 610.981C282.999 612.579 273.085 609.56 271.315 607.962C269.544 606.364 257.506 597.662 256.975 593.578C256.621 591.269 277.511 593.045 279.812 588.605C281.406 585.231 277.511 579.371 280.874 579.193C288.487 579.016 300.702 593.222 302.827 586.474C304.951 579.726 299.817 573.688 301.588 573.333C303.535 572.978 310.616 573.688 311.856 574.931C313.095 576.174 322.301 573.866 321.416 569.249C320.53 564.631 327.435 561.79 332.746 565.164C338.234 568.538 338.588 585.409 342.837 584.343C347.086 583.455 354.344 587.185 360.541 591.269C364.435 593.755 410.996 594.998 409.225 602.457C408.871 604.233 403.914 615.598 397.01 618.084C392.407 619.86 386.742 609.027 381.254 608.85C372.402 608.85 363.55 618.795 358.416 619.86C357.885 620.038 355.407 625.543 352.22 626.431C349.918 626.963 347.263 629.982 344.961 629.45C342.129 628.739 339.827 624.655 339.827 624.655C339.827 624.655 331.33 634.244 328.851 630.515C326.196 626.786 326.373 621.103 326.373 621.103Z" fill="url(#paint16_linear_0_1)"/>
<path d="M199.087 543.909C199.087 543.909 190.748 552.468 203.878 562.275C217.007 572.082 231.024 584.386 236.169 572.974C241.315 561.562 245.04 557.104 250.186 561.027C255.509 564.95 264.912 567.624 268.106 562.453C271.122 557.461 262.606 552.29 272.719 551.398C282.832 550.507 282.832 557.639 291.171 557.282C299.333 556.926 300.042 552.29 302.704 550.863C305.188 549.259 314.769 552.646 321.511 550.15C328.253 547.654 331.624 549.259 333.753 553.895C336.06 558.531 342.447 561.918 348.302 562.632C353.98 563.523 360.367 571.904 363.028 573.865C365.69 575.827 376.158 580.106 379.529 573.152C382.9 566.198 390.352 562.632 393.545 565.485C396.562 568.338 409.869 573.33 415.901 580.641C421.933 587.773 433.821 581.711 437.192 586.882C440.563 592.053 451.918 602.038 459.193 603.821C466.467 605.783 486.516 604.356 489.71 594.727C492.904 585.099 485.807 573.509 501.597 577.431C517.388 581.354 573.1 587.06 579.132 578.858C584.987 570.834 578.245 553.003 569.019 548.01C559.793 543.196 537.97 541.413 548.438 528.931C559.083 516.45 565.293 505.216 562.1 495.766C558.906 486.315 551.454 480.966 529.631 478.47C507.807 475.973 468.242 482.571 451.386 486.315C434.531 490.06 433.821 478.648 431.337 472.407C428.676 466.166 400.82 461.53 376.158 458.321C351.496 454.933 340.495 474.012 322.753 476.152C305.01 478.113 257.283 460.46 252.492 461.708C247.702 462.957 237.056 471.515 237.056 478.47C237.234 485.602 231.556 484.354 219.136 485.602C206.717 486.85 197.49 490.238 198.91 499.332C200.507 508.604 191.635 509.139 183.651 515.736C175.667 522.334 170.344 522.69 181.7 529.11C193.055 535.529 192.345 540.165 187.2 543.553C181.522 547.119 199.087 543.909 199.087 543.909Z" fill="url(#paint17_linear_0_1)"/>
<path d="M823.182 532.764C823.182 532.764 827.266 538.297 815.724 534.549C804.181 530.8 810.929 534.906 805.602 536.869C800.452 538.833 791.218 535.977 789.797 532.764C788.377 529.55 782.339 530.978 777.722 535.62C773.105 540.261 770.264 530.978 761.74 527.944C753.216 524.909 748.244 518.304 735.814 519.732C723.383 521.16 718.056 522.41 713.439 517.769C708.822 513.128 715.392 504.559 703.495 502.238C691.597 500.096 688.756 499.918 686.98 492.599C685.204 485.102 663.007 483.852 692.13 474.927C721.252 466.001 715.215 458.147 737.234 464.394C759.254 470.642 762.45 469.214 774.526 466.358C786.601 463.502 793.704 460.467 796.723 466.894C799.564 473.32 814.481 473.498 826.023 470.821C837.388 468.143 843.958 465.287 847.332 470.821C850.706 476.355 851.062 492.777 864.38 498.847C877.876 504.916 884.801 516.876 880.362 522.231C875.922 527.587 862.249 542.224 858.52 537.94C854.791 533.835 847.688 524.731 845.557 537.405C843.426 550.079 825.845 535.62 823.182 532.764Z" fill="url(#paint18_linear_0_1)"/>
<path d="M420.347 312.854C410.227 312.677 408.807 314.981 407.919 318.702C407.209 322.424 390.697 318.348 389.987 321.183C389.276 324.018 382.174 323.31 375.072 322.069C367.971 320.829 374.717 317.462 375.072 312.146C375.428 306.83 374.007 300.273 369.746 303.817C365.662 307.538 367.083 313.032 359.981 311.791C352.879 310.551 345.422 310.019 343.824 305.943C342.404 301.868 334.414 299.387 328.377 297.26C322.341 295.134 326.424 279.54 321.985 270.857C317.547 262.174 308.847 254.731 301.39 256.503C293.933 258.098 295.353 263.592 293.578 261.465C291.625 259.339 289.139 257.744 283.102 261.465C277.243 265.009 273.515 265.009 271.917 263.769C270.496 262.528 264.105 264.123 260.731 268.73C257.358 273.338 252.031 273.338 247.238 274.933C242.444 276.527 230.725 279.54 226.287 268.73C221.848 258.098 219.54 258.807 217.232 258.453C214.924 258.098 208.532 263.414 208.177 256.858C207.822 250.301 198.412 246.58 196.104 252.782C193.795 258.984 181.9 255.263 178.171 251.187C174.443 247.111 168.406 249.592 162.369 256.149C156.333 262.706 155.978 265.541 155.978 265.541C133.074 277.414 151.184 287.337 141.774 295.666C132.364 303.994 127.57 336.068 124.551 338.549C121.533 341.03 117.45 338.549 115.141 341.03C112.833 343.511 108.75 345.637 109.105 350.422C109.282 353.08 106.974 355.029 104.666 356.27V445.226H517.644L523.503 437.607C521.55 438.847 480.181 313.386 420.347 312.854Z" fill="url(#paint19_linear_0_1)"/>
<path d="M1252.59 446.637C1251.53 445.751 1250.46 443.45 1249.4 439.555C1246.74 428.754 1245.33 425.921 1240.01 428.046C1234.7 430.171 1234.35 428.931 1233.28 419.724C1232.22 410.694 1223.89 397.415 1212.56 396.53C1201.22 395.645 1194.14 385.73 1182.98 376.346C1171.64 366.785 1172.17 353.152 1145.07 343.768C1117.97 334.207 1133.38 352.089 1121.87 366.962C1110.17 381.834 1107.16 369.795 1105.04 365.368C1102.74 360.765 1100.08 363.244 1099.37 365.368C1098.66 367.493 1098.31 377.762 1091.58 368.732C1084.84 359.703 1084.84 363.775 1084.49 365.368C1084.14 366.962 1072.8 371.211 1067.66 362.89C1062.35 354.568 1057.92 361.296 1038.44 368.732C1018.95 376.169 1022.67 380.241 1022.67 370.326C1022.67 360.411 1015.59 362.89 1004.96 360.765C994.506 358.64 985.118 374.752 983.878 366.608C982.815 358.286 967.05 366.608 968.113 364.483C969.176 362.358 965.456 349.61 961.028 343.768C956.6 337.925 956.954 340.404 954.651 342.528C952.348 344.653 953.588 355.807 945.971 361.473C938.532 367.316 932.509 363.598 932.509 360.588C932.509 357.755 924.184 342.351 917.099 339.164C910.013 335.8 909.305 324.292 903.282 323.406C897.26 322.521 896.905 335.8 894.603 339.518C892.3 343.236 888.934 341.643 887.872 334.207C886.809 326.77 877.775 326.77 871.398 326.77C865.021 326.77 862.01 321.813 855.279 312.783C848.548 303.753 841.817 306.586 826.052 312.783C810.287 318.98 804.973 318.98 792.573 318.095C780.174 317.209 780.883 320.573 775.392 322.698C769.723 324.823 770.432 321.459 763.701 322.698C756.97 323.937 762.284 339.695 758.741 335.977C755.375 332.259 744.039 329.426 736.245 328.895C728.451 328.541 719.417 332.613 710.383 333.853C701.349 335.092 699.047 337.925 692.67 345.007C686.293 352.089 683.99 360.234 677.614 367.67C675.311 370.326 672.122 373.513 668.757 376.169V446.637H1252.59Z" fill="url(#paint20_linear_0_1)"/>
<path d="M810.262 520.324C811.678 530.285 807.43 541.49 811.855 545.225C816.281 548.96 840.179 556.075 844.428 552.34C848.677 548.605 863.193 542.557 868.149 547.36C873.283 552.34 878.771 563.012 886.737 558.921C894.703 554.83 907.449 560.166 915.946 569.237C924.444 578.308 933.118 570.838 947.457 552.696C947.457 552.696 944.625 590.581 950.466 599.652C956.485 608.723 977.02 585.601 977.02 585.601C977.02 585.601 982.331 595.739 989.235 597.34C994.546 598.585 1000.92 591.47 1006.58 590.047C1014.02 588.091 1020.21 574.929 1021.45 574.395C1022.69 573.862 1018.44 564.435 1021.1 552.696C1023.58 542.202 1028.36 529.573 1029.77 519.968H810.262C810.262 519.968 810.262 520.146 810.262 520.324Z" fill="url(#paint21_linear_0_1)"/>
<path d="M130.699 538.301C137.111 528.183 146.088 512.385 145.539 505.462C144.806 494.634 114.393 504.397 114.393 504.397C114.393 504.397 114.76 492.859 109.447 488.066C109.263 487.888 109.08 487.711 108.897 487.533V538.124H130.699V538.301Z" fill="url(#paint22_linear_0_1)"/>
<path d="M106.077 553.95C108.556 556.058 111.568 557.814 115.11 558.341C118.476 558.868 122.373 554.477 126.447 553.95C130.875 553.422 137.075 560.801 142.388 562.382C145.931 563.436 149.119 557.99 151.068 559.395C155.85 562.909 152.839 566.949 155.673 568.53C161.519 571.517 165.415 565.72 173.741 557.463C177.46 553.774 182.066 561.328 186.494 558.868C187.557 558.341 189.505 550.787 191.454 549.733C193.756 548.504 196.236 553.774 197.299 552.368C200.31 548.328 198.539 544.287 200.487 545.517C204.384 547.977 202.967 541.828 207.218 537.788C209.521 535.68 216.429 537.436 219.44 534.45C224.931 529.004 227.765 521.45 234.496 518.288C238.57 516.355 243.884 518.991 252.21 516.531C274.174 510.207 264.963 506.869 284.802 484.207C304.817 461.546 285.333 472.086 279.842 466.816C274.528 461.546 272.048 462.951 260.889 467.343C249.73 471.735 250.615 461.018 244.239 459.613C237.862 458.208 233.965 462.073 224.223 469.802C214.481 477.532 206.687 474.721 197.83 476.653C188.974 478.586 181.711 472.262 180.294 478.586C178.877 484.91 174.449 489.302 171.438 487.369C168.427 485.437 159.216 487.896 155.85 492.288C152.485 496.68 160.279 496.68 148.588 499.491C136.897 502.477 143.274 504.761 143.274 504.761C139.377 503.707 116.882 500.896 121.841 512.491C126.801 524.085 115.996 520.22 110.682 518.815C108.911 518.288 107.494 520.045 106.077 522.68V553.95V553.95Z" fill="url(#paint23_linear_0_1)"/>
<path d="M914.742 498.06C911.732 494.873 917.043 453.088 921.469 449.901C944.838 431.841 918.637 419.979 914.742 412.897C911.024 405.814 912.086 411.657 911.378 416.615C910.67 421.572 909.431 422.989 908.368 415.021C907.306 407.054 906.775 404.929 904.828 406.523C902.88 408.116 902.703 407.054 902.349 400.326C901.995 393.598 898.808 383.86 894.559 383.151C890.31 382.62 887.655 375.184 883.406 368.102C879.157 361.019 879.334 350.927 869.243 344.022C859.152 336.94 864.817 350.219 860.568 361.196C856.142 372.174 855.08 363.321 854.194 359.957C853.309 356.593 846.936 358.895 846.405 359.957C844.811 362.967 841.979 364.206 840.031 358.187C838.084 351.99 836.314 356.947 829.055 362.436C821.796 367.925 823.213 370.934 823.213 363.675C823.213 356.416 802.322 360.842 802.853 359.426C803.207 357.832 804.801 356.593 803.03 352.167C801.26 347.917 798.781 350.927 797.896 352.521C797.011 354.114 797.365 353.052 794.532 357.301C791.7 361.551 789.398 358.895 789.398 356.77C789.398 354.645 791.877 342.606 789.221 340.304C786.566 337.825 782.848 335.878 780.546 335.169C778.245 334.638 772.934 342.783 772.58 337.117C772.225 331.628 768.862 331.628 766.383 331.628C763.905 331.628 762.842 327.91 760.364 321.182C757.885 314.454 755.23 316.579 749.387 321.182C743.545 325.785 741.421 325.785 736.818 325.077C732.215 324.546 732.392 326.848 730.267 328.441C728.143 330.035 728.497 327.556 725.841 328.441C723.363 329.327 725.31 341.012 724.071 338.179C722.832 335.346 718.583 333.222 715.573 333.045C712.563 332.691 709.2 335.878 705.836 336.763C702.472 337.648 701.587 339.773 699.285 345.084C696.807 350.219 693.797 355.531 691.319 361.019C688.84 366.508 683.529 368.633 682.998 365.8C682.467 362.967 675.739 371.289 673.261 370.403C670.782 369.518 667.773 375.361 665.825 376.246C663.878 377.131 662.284 376.246 662.461 380.495C662.638 384.745 655.734 387.932 655.203 390.765C653.963 396.785 656.088 394.129 652.901 393.775C649.715 393.42 645.82 399.44 642.102 399.44C638.384 399.44 637.676 401.034 637.499 403.69C637.145 406.523 630.948 403.336 630.771 405.46C630.417 407.585 627.762 407.054 625.106 405.991C622.451 405.106 622.628 406.346 622.805 402.45C622.982 398.555 618.379 402.096 616.962 404.752C615.369 407.585 618.556 409.533 615.9 408.647C613.245 407.762 612.536 409.355 611.828 406.346C611.297 403.336 610.058 406.7 607.756 405.106C605.455 403.513 611.474 401.742 609.881 395.191C608.11 388.817 604.924 383.328 602.091 384.568C599.258 385.807 599.79 389.702 599.081 388.286C598.373 386.692 591.469 391.119 590.938 390.056C590.407 389.171 587.928 390.411 586.689 393.775C585.449 397.139 578.722 406.7 576.952 407.939C575.181 409.178 574.296 407.231 572.526 399.263C570.755 391.296 567.923 390.765 567.037 390.411C566.152 390.056 558.54 386.869 557.654 391.473C556.769 396.076 552.343 393.243 550.927 390.233C549.511 387.224 547.209 388.994 545.085 393.952C542.783 398.909 542.606 401.034 542.606 401.034C533.931 409.887 535.702 399.617 532.161 405.637C528.62 411.834 521.361 406.7 520.122 408.47C519.06 410.241 514.103 409.533 513.218 411.303C512.332 413.074 503.48 417.5 503.657 421.218C503.834 424.936 522.07 432.373 521.184 432.019C520.299 431.664 516.935 431.664 516.404 435.206C515.873 438.747 513.395 435.56 512.686 435.383C511.978 435.028 509.5 435.383 508.615 437.507C507.552 439.632 507.198 442.996 506.136 443.704C505.074 444.235 504.543 445.298 505.074 447.599C505.428 449.901 504.72 449.901 504.012 453.265C503.303 456.629 502.241 456.098 499.231 456.098C496.222 456.098 492.681 451.14 492.504 452.734C492.15 454.327 490.025 456.629 489.494 457.514C488.963 458.4 487.724 458.754 487.37 457.869C487.016 456.983 484.36 459.462 484.183 461.764C483.829 464.243 482.59 463.357 482.59 463.357C482.59 463.357 479.58 463.357 478.872 465.659C478.164 467.961 476.039 467.075 474.446 466.19C472.676 465.305 472.145 465.836 468.958 466.19C465.771 466.544 463.293 471.148 463.293 471.148C462.761 472.033 461.699 472.918 461.168 466.367C460.991 464.774 454.441 462.472 449.484 466.367C447.89 467.607 448.421 470.971 447.89 475.751C447.536 479.115 443.818 477.522 443.818 477.522C440.1 475.928 437.445 475.397 428.593 486.552C419.741 497.883 417.439 507.444 406.286 512.225C395.664 516.828 420.095 523.379 424.344 549.583H891.55C895.622 540.199 898.277 530.461 908.545 523.379C936.872 504.434 917.751 501.247 914.742 498.06Z" fill="url(#paint24_linear_0_1)"/>
<path d="M1025.29 531.911C1024.4 525.521 1026.89 518.066 1024.4 515.759C1021.74 513.273 1007.9 508.658 1005.41 511.143C1002.93 513.629 994.588 517.534 991.571 514.339C988.554 511.143 985.359 504.221 980.745 506.883C976.13 509.546 968.677 505.996 963.707 500.138C958.738 494.103 953.769 499.073 945.428 510.966C945.428 510.966 947.025 486.293 943.653 480.435C940.281 474.578 928.213 489.488 928.213 489.488C928.213 489.488 925.196 482.921 921.114 481.856C917.92 481.146 914.37 485.761 910.998 486.648C906.739 487.891 903.012 496.588 902.48 496.943C901.77 497.298 904.254 503.511 902.657 511.143C900.705 520.374 896.446 531.911 897.333 538.301H1019.79C1022.98 535.639 1025.65 533.864 1025.29 531.911Z" fill="url(#paint25_linear_0_1)"/>
<path d="M452.102 528.381C455.291 537.357 445.899 539.331 438.279 547.05C430.836 554.769 425.165 556.026 438.279 560.693C451.393 565.36 451.393 570.028 446.431 574.336C441.469 578.644 459.544 572.72 459.544 572.72C459.544 572.72 452.102 582.414 467.696 590.312C483.468 598.031 500.303 608.264 504.025 596.236C507.746 584.209 510.936 579.183 517.138 582.234C523.341 585.286 534.151 586.543 536.632 580.978C539.113 575.592 529.189 571.643 539.822 569.31C550.454 566.976 551.695 573.977 560.556 572.361C569.416 570.746 569.416 566.078 571.897 564.104C574.378 562.129 585.011 564.104 591.922 560.514C598.833 556.923 602.555 558.18 605.745 562.488C608.935 566.796 616.377 569.13 622.757 569.13C628.96 569.13 637.111 576.49 640.301 578.106C643.491 579.721 655.364 582.414 657.845 575.054C660.326 567.694 667.946 563.027 671.668 565.36C675.389 567.694 690.452 570.746 698.072 577.029C705.515 583.311 717.566 575.413 721.996 580.08C726.426 584.748 740.249 592.826 748.401 593.723C756.552 594.441 777.818 590.312 779.767 580.08C781.717 570.028 772.324 559.436 789.868 561.052C807.412 562.668 868.374 559.975 873.335 550.999C878.297 542.024 868.374 525.329 857.564 521.739C848.703 518.867 830.45 519.405 830.273 511.507H471.949C471.772 511.507 471.595 511.507 471.418 511.686C458.304 514.738 448.912 519.405 452.102 528.381Z" fill="url(#paint26_linear_0_1)"/>
<path d="M115.114 648.617C121.312 654.663 131.761 656.797 134.24 646.306C136.719 635.814 126.802 628.346 137.251 623.901C147.876 619.455 149.116 632.791 157.616 629.946C166.293 626.924 166.293 618.033 168.773 614.299C171.252 610.564 181.7 614.299 188.607 607.542C195.336 600.784 199.055 603.096 202.243 611.276C205.253 619.455 212.691 623.901 218.889 623.901C225.087 623.901 233.056 638.126 236.244 640.971C239.432 643.994 251.12 649.151 253.599 634.925C256.078 620.7 263.516 611.809 267.235 616.255C270.954 620.7 285.829 626.746 293.267 638.659C300.705 650.573 312.393 635.637 316.82 644.705C318.591 648.439 328.862 650.573 332.758 655.196C338.248 661.598 338.248 669.955 342.852 670.844C346.571 671.555 352.769 651.462 358.79 647.906C366.051 643.816 372.781 655.374 373.843 644.705C375.614 625.323 366.405 605.23 383.76 608.253C392.438 609.675 411.74 625.323 429.627 622.3C438.304 620.878 437.596 612.52 444.148 605.763C447.867 601.851 453.888 609.32 458.492 606.297C462.388 603.807 465.576 590.827 466.107 588.871C467.701 583.358 472.482 573.401 471.066 562.021C470.534 557.042 463.274 551.885 463.274 546.55C463.274 539.971 457.076 533.392 457.43 527.524C458.315 515.255 465.93 505.653 462.034 503.163C451.586 496.406 434.939 513.832 425.731 502.452C417.762 492.494 420.595 480.758 425.199 469.2H104.666V661.242C107.499 648.617 110.333 643.994 115.114 648.617Z" fill="url(#paint27_linear_0_1)"/>
<path d="M1178.65 532.478C1166.27 531.066 1162.91 523.655 1155.3 518.714C1147.69 513.949 1146.98 504.42 1141.5 507.773C1136.02 511.125 1129.82 511.125 1129.11 507.773C1128.41 504.42 1120.27 499.479 1114.78 500.185C1109.3 500.89 1114.78 506.361 1104.52 500.185C1094.26 494.008 1096.91 500.185 1096.91 500.185C1094.79 496.832 1081.17 479.009 1076.39 490.655C1071.61 502.302 1066.84 492.067 1064.01 487.303C1061.35 482.538 1044.72 493.479 1039.24 497.538C1033.75 501.596 1037.82 514.655 1049.5 523.478C1054.81 527.537 1056.93 533.007 1057.99 538.301H1199C1195.82 533.713 1190.16 533.713 1178.65 532.478Z" fill="url(#paint28_linear_0_1)"/>
<path d="M1010.15 528.421C1006.77 531.063 1012.46 533.704 1009.62 535.994C1003.4 541.101 990.08 545.327 989.902 548.145C989.37 556.95 981.377 568.397 986.173 570.686C988.126 571.743 989.725 576.85 996.474 575.265C1001.45 574.032 1011.39 566.107 1016.01 565.579C1020.27 565.051 1023.82 571.038 1025.6 569.629C1031.99 565.051 1051.53 556.069 1056.86 559.415C1062.19 562.761 1066.63 571.39 1077.64 565.755C1088.65 560.12 1103.57 562.057 1112.27 568.573C1117.78 572.623 1118.13 570.51 1128.43 563.29C1130.03 562.057 1133.58 567.516 1137.14 566.107C1140.33 564.875 1143.35 556.774 1145.13 555.365C1148.5 552.547 1151.52 548.321 1155.96 550.258C1155.96 550.258 1157.21 555.013 1154.72 564.875C1152.23 574.56 1146.19 584.95 1148.86 588.296C1151.34 591.466 1155.07 584.07 1163.07 580.9C1166.8 579.491 1174.97 584.246 1177.99 581.957C1182.6 578.434 1185.8 569.101 1185.8 569.101C1185.8 569.101 1190.06 577.378 1198.41 577.026C1204.98 576.85 1214.57 568.925 1222.03 566.283C1231.98 562.761 1242.99 549.025 1244.41 548.321C1246.01 547.44 1242.81 539.868 1249.2 528.245C1250.63 525.604 1252.4 522.786 1254 519.968H1024.54C1024.18 520.849 1023.65 521.729 1022.94 522.434C1021.34 524.723 1012.46 526.66 1010.15 528.421Z" fill="url(#paint29_linear_0_1)"/>
<path d="M969.251 496.689C963.434 499.367 960.262 500.081 959.38 496.689C958.499 493.297 956.031 490.261 953.563 490.261C951.095 490.261 951.095 486.869 950.39 484.905C949.685 482.942 945.455 482.585 943.868 482.942C942.282 483.299 937.346 478.478 936.817 476.871C936.112 475.443 938.756 473.122 939.638 470.444C940.519 467.766 946.689 460.268 951.448 462.589C956.031 464.91 958.851 477.228 962.201 473.836C965.55 470.444 964.316 465.088 965.55 465.624C966.784 465.981 970.838 468.659 971.19 469.73C971.543 470.801 977.713 472.408 978.594 469.373C979.475 466.338 984.411 466.695 986.702 470.444C988.818 474.193 983.882 484.37 986.702 485.084C989.523 485.798 992.696 490.44 995.163 494.903C997.631 499.367 994.106 511.507 984.94 511.507C984.058 511.507 978.065 504.366 972.953 504.366C967.841 504.366 964.492 511.507 964.316 508.472C963.611 505.615 969.251 496.689 969.251 496.689Z" fill="url(#paint30_linear_0_1)"/>
<path d="M1211.65 488.428C1217.49 485.75 1220.67 485.036 1221.55 488.428C1222.44 491.82 1224.91 494.855 1227.39 494.855C1229.86 494.855 1229.86 498.247 1230.39 500.033C1231.1 501.997 1235.34 502.354 1236.93 501.997C1238.52 501.64 1243.47 506.46 1244 508.067C1244.71 509.495 1242.24 511.816 1241.17 514.494C1240.29 517.172 1234.1 524.67 1229.33 522.349C1224.73 520.029 1221.91 507.71 1218.55 511.102C1215.19 514.494 1216.43 519.671 1215.19 519.314C1213.95 518.957 1209.89 516.279 1209.53 515.208C1209.18 514.137 1202.99 512.53 1202.11 515.565C1201.22 518.6 1196.27 518.243 1193.97 514.494C1191.85 510.745 1196.8 500.568 1193.97 499.854C1191.15 499.14 1187.96 494.677 1185.67 490.035C1183.19 485.571 1186.73 473.431 1195.92 473.431C1196.8 473.431 1202.81 480.572 1207.94 480.572C1213.07 480.572 1216.25 473.431 1216.6 476.466C1217.31 479.323 1211.65 488.428 1211.65 488.428Z" fill="url(#paint31_linear_0_1)"/>
<path d="M845.152 450.151C839.335 452.829 836.162 453.543 835.281 450.151C834.4 446.759 831.932 443.724 829.464 443.724C826.996 443.724 826.996 440.332 826.291 438.368C825.586 436.404 821.356 436.047 819.769 436.404C818.183 436.761 813.247 431.941 812.718 430.334C812.013 428.906 814.657 426.585 815.539 423.907C816.42 421.229 822.59 413.73 827.349 416.051C831.932 418.372 834.752 430.691 838.101 427.299C841.451 423.907 840.217 418.551 841.451 419.086C842.685 419.443 846.739 422.121 847.091 423.193C847.444 424.264 853.613 425.871 854.495 422.836C855.376 419.8 860.312 420.157 862.603 423.907C864.719 427.656 859.783 437.832 862.603 438.547C865.424 439.261 868.597 443.903 871.064 448.366C873.532 452.829 870.007 464.97 860.841 464.97C859.959 464.97 853.966 457.828 848.854 457.828C843.742 457.828 840.393 464.97 840.217 461.935C839.512 459.078 845.152 450.151 845.152 450.151Z" fill="url(#paint32_linear_0_1)"/>
<path d="M537.087 488.227C531.132 490.905 527.883 491.62 526.981 488.227C526.078 484.835 523.552 481.8 521.025 481.8C518.499 481.8 518.499 478.408 517.777 476.444C517.055 474.48 512.724 474.123 511.1 474.48C509.475 474.837 504.422 470.017 503.881 468.41C503.159 466.982 505.866 464.661 506.768 461.983C507.671 459.305 513.987 451.806 518.86 454.127C523.552 456.448 526.439 468.767 529.868 465.375C533.297 461.983 532.034 456.627 533.297 457.163C534.561 457.52 538.711 460.198 539.072 461.269C539.433 462.34 545.75 463.947 546.652 460.912C547.554 457.877 552.607 458.234 554.954 461.983C557.119 465.732 552.066 475.909 554.954 476.623C557.841 477.337 561.089 481.979 563.616 486.442C566.143 490.905 562.533 503.046 553.149 503.046C552.246 503.046 546.111 495.904 540.877 495.904C535.643 495.904 532.214 503.046 532.034 500.011C531.312 497.333 537.087 488.227 537.087 488.227Z" fill="url(#paint33_linear_0_1)"/>
<path d="M706.554 473.028C706.554 473.028 708.536 474.685 704.031 474.317C699.526 473.948 702.409 474.869 700.607 476.158C698.985 477.262 695.381 477.078 694.66 476.158C693.94 475.053 691.777 476.158 690.696 478.367C689.434 480.392 687.632 477.447 684.389 477.078C681.145 476.71 678.622 474.869 674.477 476.526C670.153 478.183 668.351 479.104 666.368 477.999C664.386 476.71 665.828 473.028 661.503 473.396C656.998 473.764 656.097 473.948 654.835 471.371C653.574 468.793 645.465 470.45 655.015 464.558C664.566 458.667 661.683 456.273 670.153 456.641C678.622 456.826 679.523 456.089 683.668 453.88C687.632 451.67 689.975 450.013 691.597 452.039C693.219 454.064 698.445 452.775 702.409 450.75C706.193 448.724 708.176 447.067 709.978 448.724C711.78 450.381 713.221 456.273 718.628 457.378C724.034 458.298 727.458 461.981 726.376 464.374C725.295 466.768 721.691 473.212 720.069 472.107C718.267 471.002 715.023 468.425 715.384 473.028C715.384 477.447 707.815 473.764 706.554 473.028Z" fill="url(#paint34_linear_0_1)"/>
<path d="M535.249 611.404C535.249 611.404 536.671 611.763 534.183 612.66C531.695 613.558 533.472 613.378 532.761 614.455C532.228 615.532 530.273 616.249 529.563 616.07C528.852 615.711 528.141 616.788 527.963 618.224C527.786 619.659 526.009 618.403 524.231 619.121C522.454 619.839 520.677 619.48 518.723 621.454C516.768 623.428 516.057 624.325 514.635 624.325C513.214 624.146 513.036 621.813 510.903 623.069C508.593 624.325 508.06 624.684 506.816 623.787C505.572 622.71 501.663 625.761 505.217 620.018C508.949 614.455 506.816 613.917 511.259 611.943C515.879 609.968 516.235 609.251 517.834 607.097C519.433 604.944 520.322 603.329 521.566 604.046C522.988 604.764 525.475 602.611 527.075 600.637C528.674 598.663 529.207 597.227 530.629 597.586C532.051 598.124 534.361 600.816 537.382 599.919C540.403 599.022 543.246 600.098 543.246 601.534C543.246 602.97 542.891 607.456 541.824 607.277C540.581 607.097 538.27 606.559 539.514 609.071C541.114 611.584 536.138 611.584 535.249 611.404Z" fill="url(#paint35_linear_0_1)"/>
<path d="M251.795 577.738C251.795 577.738 253.216 578.097 250.728 578.994C248.241 579.892 250.018 579.712 249.307 580.789C248.774 581.866 246.819 582.584 246.108 582.225C245.397 581.866 244.686 582.943 244.509 584.378C244.331 585.814 242.554 584.558 240.777 585.275C239 585.993 237.223 585.634 235.268 587.608C233.313 589.582 232.602 590.48 231.181 590.48C229.759 590.3 229.581 587.967 227.449 589.224C225.139 590.48 224.606 590.839 223.362 589.941C222.118 588.865 218.208 591.915 221.762 586.173C225.494 580.61 223.362 580.071 227.804 578.097C232.425 576.123 232.78 575.405 234.379 573.252C235.979 571.098 236.867 569.483 238.111 570.201C239.533 570.919 242.021 568.765 243.62 566.791C245.22 564.817 245.753 563.382 247.174 563.741C248.596 564.279 250.906 566.971 253.927 566.074C256.948 565.176 259.792 566.253 259.792 567.689C259.792 569.124 259.436 573.611 258.37 573.431C257.126 573.252 254.816 572.713 256.06 575.226C257.481 577.738 252.683 577.738 251.795 577.738Z" fill="url(#paint36_linear_0_1)"/>
<path d="M145.886 454.139C145.886 454.139 147.301 454.479 144.825 455.329C142.348 456.179 144.117 456.009 143.409 457.029C142.879 458.049 140.933 458.729 140.225 458.559C139.517 458.219 138.81 459.239 138.633 460.599C138.456 461.96 136.687 460.769 134.918 461.45C133.148 462.13 131.379 461.79 129.433 463.66C127.487 465.53 126.78 466.38 125.364 466.38C123.949 466.21 123.772 464 121.649 465.19C119.349 466.38 118.819 466.72 117.58 465.87C116.342 464.85 112.45 467.74 115.988 462.3C119.703 457.029 117.58 456.519 122.18 454.649C126.78 452.779 127.133 452.099 128.726 450.059C130.318 448.019 131.202 446.488 132.441 447.168C133.856 447.849 136.333 445.808 137.925 443.938C139.517 442.068 140.048 440.708 141.463 441.048C142.879 441.558 145.001 444.108 148.186 443.258C151.193 442.408 154.024 443.428 154.024 444.788C154.024 446.148 153.67 450.399 152.609 450.229C151.37 450.059 149.07 449.549 150.309 451.929C151.724 454.139 146.771 454.139 145.886 454.139Z" fill="url(#paint37_linear_0_1)"/>
<path d="M1195.24 377.486C1195.24 377.486 1196.66 377.845 1194.17 378.742C1191.68 379.64 1193.46 379.46 1192.75 380.537C1192.21 381.614 1190.26 382.332 1189.55 381.973C1188.84 381.614 1188.13 382.691 1187.95 384.126C1187.77 385.562 1185.99 384.306 1184.22 385.024C1182.44 385.741 1180.66 385.382 1178.71 387.356C1176.75 389.33 1176.04 390.228 1174.62 390.228C1173.2 390.048 1173.02 387.715 1170.89 388.972C1168.58 390.228 1168.05 390.587 1166.8 389.689C1165.56 388.613 1161.65 391.663 1165.2 385.921C1168.93 380.358 1166.8 379.819 1171.24 377.845C1175.87 375.871 1176.22 375.153 1177.82 373C1179.42 370.846 1180.31 369.231 1181.55 369.949C1182.97 370.667 1185.46 368.513 1187.06 366.539C1188.66 364.565 1189.19 363.13 1190.61 363.489C1192.04 364.027 1194.35 366.719 1197.37 365.822C1200.39 364.924 1203.23 366.001 1203.23 367.437C1203.23 368.872 1202.88 373.359 1201.81 373.179C1200.57 373 1198.26 372.461 1199.5 374.974C1200.92 377.486 1196.12 377.486 1195.24 377.486Z" fill="url(#paint38_linear_0_1)"/>
<path d="M291.955 482.402C286.575 489.144 283.347 491.983 280.119 488.612C276.891 485.241 272.048 483.289 269 484.709C265.951 486.305 263.978 482.224 262.005 480.45C260.033 478.676 254.652 480.805 253.038 482.224C251.424 483.644 242.457 480.982 240.843 479.563C239.229 478.143 240.664 474.062 240.126 470.336C239.767 468.207 246.403 466.078 248.375 462.174C249.81 459.158 246.223 453.835 249.272 453.657C256.266 453.48 267.386 466.255 269.358 460.223C271.331 454.19 266.668 448.689 268.282 448.334C270.076 447.98 276.532 448.512 277.608 449.754C278.684 450.819 287.113 448.867 286.216 444.608C285.499 440.527 291.597 437.866 296.618 440.882C301.64 443.899 301.998 458.981 305.765 458.093C309.531 457.206 316.166 460.577 321.905 464.304C325.313 466.61 321.367 475.305 319.753 482.047C318.677 486.483 320.291 489.854 319.933 490.209C319.574 490.386 317.242 495.355 314.373 496.064C312.221 496.597 309.889 499.258 307.917 498.726C305.227 498.194 303.254 494.29 303.254 494.29C303.254 494.29 295.542 502.807 293.211 499.436C290.879 496.419 291.955 482.402 291.955 482.402Z" fill="url(#paint39_linear_0_1)"/>
<path d="M728.069 407.483C722.78 414.225 719.607 417.064 716.433 413.693C713.26 410.322 708.5 408.37 705.679 409.789C702.682 411.386 700.742 407.305 698.803 405.531C696.864 403.756 691.575 405.886 689.988 407.305C688.401 408.725 679.586 406.063 677.999 404.644C676.413 403.224 677.823 399.143 677.294 395.417C676.942 393.288 683.465 391.159 685.404 387.255C686.815 384.239 683.288 378.916 686.286 378.738C693.161 378.561 704.092 391.336 706.031 385.303C707.971 379.27 703.387 373.77 704.974 373.415C706.737 373.06 713.084 373.593 714.141 374.835C715.199 375.899 723.485 373.947 722.604 369.866C721.899 365.785 727.893 363.124 732.829 366.14C737.766 369.157 738.118 384.239 741.821 383.351C745.523 382.464 752.046 385.836 757.688 389.562C761.038 391.868 757.159 400.563 755.572 407.305C754.514 411.741 756.101 415.112 755.748 415.467C755.396 415.645 753.104 420.613 750.283 421.323C748.168 421.855 745.876 424.516 743.936 423.984C741.292 423.452 739.352 419.548 739.352 419.548C739.352 419.548 731.771 428.065 729.48 424.694C727.011 421.677 728.069 407.483 728.069 407.483Z" fill="url(#paint40_linear_0_1)"/>
<path d="M1193.44 490.863C1188.15 497.606 1184.98 500.445 1181.81 497.074C1178.63 493.702 1173.87 491.751 1171.05 493.17C1168.06 494.767 1166.12 490.686 1164.18 488.912C1162.24 487.137 1156.95 489.267 1155.36 490.686C1153.78 492.106 1144.96 489.444 1143.37 488.025C1141.79 486.605 1143.2 482.524 1142.67 478.798C1142.32 476.669 1148.84 474.539 1150.78 470.636C1152.19 467.62 1148.66 462.296 1151.66 462.119C1158.54 461.942 1169.47 474.717 1171.41 468.684C1173.35 462.651 1168.76 457.151 1170.35 456.796C1172.11 456.441 1178.46 456.973 1179.52 458.215C1180.57 459.28 1188.86 457.328 1187.98 453.07C1187.27 448.989 1193.27 446.327 1198.2 449.344C1203.14 452.36 1203.49 467.442 1207.2 466.555C1210.9 465.668 1217.42 469.039 1223.06 472.765C1226.41 475.072 1222.53 483.766 1220.95 490.509C1219.89 494.944 1221.48 498.316 1221.12 498.671C1220.77 498.848 1218.48 503.816 1215.66 504.526C1213.54 505.058 1211.25 507.72 1209.13 507.187C1206.49 506.655 1204.55 502.752 1204.55 502.752C1204.55 502.752 1196.97 511.268 1194.68 507.897C1192.39 504.881 1193.44 490.863 1193.44 490.863Z" fill="url(#paint41_linear_0_1)"/>
<path d="M207.792 532.291C208.526 531.558 212.193 530.091 219.16 527.891C226.861 524.957 230.895 523.49 230.895 523.49C271.599 509.555 315.971 505.155 315.971 505.155C360.709 500.754 369.51 508.455 434.417 508.455C480.989 508.455 509.225 508.455 547.729 500.754C570.465 495.987 605.302 489.02 645.273 468.484C681.21 450.149 685.977 438.781 718.248 428.88C727.782 425.946 754.918 417.879 790.122 420.446C823.492 422.646 826.793 432.18 856.863 432.18C870.798 432.18 896.1 432.18 921.403 416.779C958.074 394.409 967.975 356.639 969.442 350.771C972.009 340.504 976.409 322.168 968.708 300.899C959.174 274.13 937.538 261.662 933.138 259.461C924.703 254.694 904.535 244.06 882.532 252.494C865.664 259.095 857.229 273.03 854.662 278.53C851.362 285.131 843.295 301.266 851.362 314.101C856.129 321.802 865.664 326.569 874.831 326.569C876.298 326.569 885.099 326.202 890.966 319.601C893.9 316.301 896.467 310.8 895 309.334C893.167 307.133 885.832 312.267 884.732 310.8C883.632 309.334 888.033 300.533 894.267 300.533C900.134 300.533 904.535 307.133 905.268 313.001C906.368 321.435 899.401 327.669 896.834 329.869C885.466 340.137 869.697 337.937 867.13 337.57C851.362 335.37 841.828 324.369 839.994 322.168C827.893 307.133 830.46 289.531 830.827 285.864C833.76 264.229 850.262 251.761 856.863 246.993C877.398 231.592 900.134 231.592 911.135 231.592C919.57 231.592 947.806 231.959 973.842 251.761C994.744 267.529 1003.18 286.598 1007.58 296.499C1011.61 305.666 1020.78 328.036 1016.75 356.639C1013.08 380.475 1002.08 396.61 992.911 409.811C987.41 417.512 972.742 436.947 947.439 453.082C925.07 467.384 906.001 472.518 885.832 477.652C864.93 483.152 851.729 486.453 834.127 484.619C816.158 482.786 814.691 478.018 789.389 473.618C779.488 471.784 762.986 468.851 742.084 470.318C715.314 472.151 695.512 480.219 683.777 485.353C659.208 495.62 660.675 500.388 632.805 513.956C603.835 527.891 579.633 533.758 573.399 535.225C549.563 539.258 531.227 539.992 505.558 540.725C480.255 541.459 461.92 540.725 439.551 539.258C381.244 535.958 374.277 531.558 343.84 534.858C331.006 536.325 319.638 538.158 297.269 542.559C297.269 542.559 270.866 547.693 240.429 555.027C230.895 557.227 225.761 558.694 224.294 559.061C214.393 561.994 212.559 563.828 209.993 562.728C202.292 559.427 200.091 539.258 207.792 532.291Z" fill="url(#paint42_linear_0_1)"/>
<path d="M212.56 608.2C214.027 604.899 217.694 604.166 245.93 597.565C267.199 592.431 262.799 593.165 267.933 592.065C267.933 592.065 299.103 585.464 328.806 582.164C376.844 577.396 450.919 590.965 538.562 596.465C593.568 599.766 621.804 601.232 657.742 593.898C687.811 587.664 692.945 581.797 762.62 553.927C830.46 526.791 865.297 512.856 912.603 503.322C986.677 488.653 1017.85 498.921 1031.78 504.789C1046.45 511.023 1084.59 526.424 1088.62 557.961C1094.49 601.599 1030.32 636.436 1026.65 633.136C1023.71 630.202 1060.02 603.066 1053.78 572.263C1049.02 549.527 1022.98 534.858 1004.65 529.725C985.944 524.224 970.175 526.791 940.106 534.858C885.1 549.16 857.23 556.494 813.225 577.396C761.519 601.966 767.387 607.466 729.249 622.868C718.615 626.902 676.81 643.037 619.237 647.437C582.2 650.371 555.064 646.704 500.058 639.737C439.185 631.669 398.48 621.768 355.209 622.868C340.907 623.235 316.705 625.068 293.602 629.469C283.334 631.302 277.467 632.402 269.033 634.969C252.531 639.737 250.331 642.67 244.097 642.303C225.761 640.837 208.16 618.101 212.56 608.2Z" fill="url(#paint43_linear_0_1)"/>
<path d="M238.596 447.948C264.999 431.447 294.702 425.946 332.106 425.579C388.946 425.579 391.146 438.414 446.152 439.881C476.955 440.614 508.859 441.714 545.896 427.78C584.4 413.111 588.434 397.71 632.806 382.308C670.21 369.473 700.28 372.04 706.147 370.94C702.48 374.607 681.211 378.274 647.474 396.976C612.27 416.778 611.903 428.146 580 446.848C571.932 451.616 541.862 468.484 499.324 475.451C458.62 482.052 425.616 475.818 405.081 471.784C366.943 464.45 367.677 457.116 333.206 453.449C315.971 450.882 289.202 448.315 257.298 456.383C231.629 462.983 219.161 471.418 212.927 470.684C217.694 467.751 225.028 456.016 238.596 447.948Z" fill="url(#paint44_linear_0_1)"/>
<path d="M287.734 652.938C291.768 651.104 335.406 640.103 390.045 646.337C457.519 653.671 461.553 675.673 527.194 687.041C553.23 691.442 619.604 702.81 684.877 673.107C724.482 655.138 746.851 636.803 751.985 633.135C749.051 639.736 736.95 667.973 709.447 690.342C676.076 717.478 639.039 725.546 618.87 728.112C579.999 733.246 549.929 724.445 523.16 716.745C487.223 706.477 486.123 699.509 438.084 684.108C431.483 681.907 404.347 673.473 367.676 666.139C315.604 655.871 293.235 654.404 287.734 652.938Z" fill="url(#paint45_linear_0_1)"/>
<path d="M442 347C466.491 335.223 483.666 315.487 546.961 300.845C602.622 288.113 631.565 304.028 660.827 278.245C680.547 261.056 684.364 239.73 685 234C682.137 238.138 664.644 265.194 626.794 280.473C603.894 289.704 600.395 281.428 548.869 288.431C496.071 295.434 477.941 306.893 469.035 313.896C453.45 325.355 451.542 336.814 442 347Z" fill="url(#paint46_linear_0_1)"/>
<path d="M596 767C647.261 740.83 688.758 735.596 718.398 735.945C750.828 736.294 766.52 743.272 810.458 739.085C863.811 734.2 884.734 719.545 893.103 712.915C910.539 698.957 918.21 691.979 921 685C921.697 689.885 918.908 717.102 898.682 737.689C874.273 762.464 838.704 763.86 819.176 764.906C780.818 766.651 775.936 754.438 734.788 756.532C710.029 757.928 701.311 755.136 671.671 758.974C637.845 763.162 615.528 767 596 767Z" fill="url(#paint47_linear_0_1)"/>
<defs>
<filter id="filter0_f_0_1" x="978.009" y="229.014" width="16.5742" height="16.5743" filterUnits="userSpaceOnUse" color-interpolation-filters="sRGB">
<feFlood flood-opacity="0" result="BackgroundImageFix"/>
<feBlend mode="normal" in="SourceGraphic" in2="BackgroundImageFix" result="shape"/>
<feGaussianBlur stdDeviation="2" result="effect1_foregroundBlur_0_1"/>
</filter>
<filter id="filter1_f_0_1" x="866" y="500" width="16.5742" height="16.5743" filterUnits="userSpaceOnUse" color-interpolation-filters="sRGB">
<feFlood flood-opacity="0" result="BackgroundImageFix"/>
<feBlend mode="normal" in="SourceGraphic" in2="BackgroundImageFix" result="shape"/>
<feGaussianBlur stdDeviation="2" result="effect1_foregroundBlur_0_1"/>
</filter>
<filter id="filter2_f_0_1" x="725.066" y="68.2451" width="16.5742" height="16.5743" filterUnits="userSpaceOnUse" color-interpolation-filters="sRGB">
<feFlood flood-opacity="0" result="BackgroundImageFix"/>
<feBlend mode="normal" in="SourceGraphic" in2="BackgroundImageFix" result="shape"/>
<feGaussianBlur stdDeviation="2" result="effect1_foregroundBlur_0_1"/>
</filter>
<filter id="filter3_f_0_1" x="712.205" y="683.451" width="16.5742" height="16.5743" filterUnits="userSpaceOnUse" color-interpolation-filters="sRGB">
<feFlood flood-opacity="0" result="BackgroundImageFix"/>
<feBlend mode="normal" in="SourceGraphic" in2="BackgroundImageFix" result="shape"/>
<feGaussianBlur stdDeviation="2" result="effect1_foregroundBlur_0_1"/>
</filter>
<filter id="filter4_f_0_1" x="716" y="306" width="16.5742" height="16.5743" filterUnits="userSpaceOnUse" color-interpolation-filters="sRGB">
<feFlood flood-opacity="0" result="BackgroundImageFix"/>
<feBlend mode="normal" in="SourceGraphic" in2="BackgroundImageFix" result="shape"/>
<feGaussianBlur stdDeviation="2" result="effect1_foregroundBlur_0_1"/>
</filter>
<filter id="filter5_f_0_1" x="926" y="931" width="16.5742" height="16.5743" filterUnits="userSpaceOnUse" color-interpolation-filters="sRGB">
<feFlood flood-opacity="0" result="BackgroundImageFix"/>
<feBlend mode="normal" in="SourceGraphic" in2="BackgroundImageFix" result="shape"/>
<feGaussianBlur stdDeviation="2" result="effect1_foregroundBlur_0_1"/>
</filter>
<filter id="filter6_f_0_1" x="1113.05" y="659.872" width="16.5742" height="16.5743" filterUnits="userSpaceOnUse" color-interpolation-filters="sRGB">
<feFlood flood-opacity="0" result="BackgroundImageFix"/>
<feBlend mode="normal" in="SourceGraphic" in2="BackgroundImageFix" result="shape"/>
<feGaussianBlur stdDeviation="2" result="effect1_foregroundBlur_0_1"/>
</filter>
<linearGradient id="paint0_linear_0_1" x1="675.625" y1="0" x2="675.625" y2="1071" gradientUnits="userSpaceOnUse">
<stop stop-color="#6CA2F3"/>
<stop offset="1" stop-color="#F9F3F6"/>
</linearGradient>
<linearGradient id="paint1_linear_0_1" x1="675.625" y1="0" x2="675.625" y2="1071" gradientUnits="userSpaceOnUse">
<stop stop-color="#002566"/>
<stop offset="1" stop-color="#002D3E"/>
</linearGradient>
<linearGradient id="paint2_linear_0_1" x1="1208.22" y1="413.135" x2="80.6047" y2="413.139" gradientUnits="userSpaceOnUse">
<stop stop-color="#FEFEFE" stop-opacity="0"/>
<stop offset="1" stop-color="white"/>
</linearGradient>
<linearGradient id="paint3_linear_0_1" x1="1307.92" y1="417.083" x2="98.5537" y2="417.087" gradientUnits="userSpaceOnUse">
<stop stop-color="#FEFEFE" stop-opacity="0"/>
<stop offset="1" stop-color="white"/>
</linearGradient>
<linearGradient id="paint4_linear_0_1" x1="1184.3" y1="5.26002" x2="-26.4712" y2="5.26308" gradientUnits="userSpaceOnUse">
<stop stop-color="#FEFEFE" stop-opacity="0"/>
<stop offset="1" stop-color="white"/>
</linearGradient>
<linearGradient id="paint5_linear_0_1" x1="1182.92" y1="3.94501" x2="-26.4404" y2="3.94908" gradientUnits="userSpaceOnUse">
<stop stop-color="#FEFEFE" stop-opacity="0"/>
<stop offset="1" stop-color="white"/>
</linearGradient>
<linearGradient id="paint6_linear_0_1" x1="1102.96" y1="753.908" x2="-24.6531" y2="753.911" gradientUnits="userSpaceOnUse">
<stop stop-color="#FEFEFE" stop-opacity="0"/>
<stop offset="1" stop-color="white"/>
</linearGradient>
<linearGradient id="paint7_linear_0_1" x1="2601.57" y1="573.654" x2="1473.96" y2="573.658" gradientUnits="userSpaceOnUse">
<stop stop-color="#FEFEFE" stop-opacity="0"/>
<stop offset="1" stop-color="white"/>
</linearGradient>
<linearGradient id="paint8_linear_0_1" x1="2547.28" y1="846.01" x2="1280.13" y2="846.014" gradientUnits="userSpaceOnUse">
<stop stop-color="#FEFEFE" stop-opacity="0"/>
<stop offset="1" stop-color="white"/>
</linearGradient>
<linearGradient id="paint9_linear_0_1" x1="2447.63" y1="601.284" x2="1320.02" y2="601.288" gradientUnits="userSpaceOnUse">
<stop stop-color="#FEFEFE" stop-opacity="0"/>
<stop offset="1" stop-color="white"/>
</linearGradient>
<linearGradient id="paint10_linear_0_1" x1="1250.18" y1="391.636" x2="41.5762" y2="391.639" gradientUnits="userSpaceOnUse">
<stop stop-color="#FEFEFE" stop-opacity="0"/>
<stop offset="1" stop-color="white"/>
</linearGradient>
<linearGradient id="paint11_linear_0_1" x1="340.11" y1="550.66" x2="340.11" y2="508.426" gradientUnits="userSpaceOnUse">
<stop stop-color="#79BBDF" stop-opacity="0.69"/>
<stop offset="1" stop-color="#153E54" stop-opacity="0.78"/>
</linearGradient>
<linearGradient id="paint12_linear_0_1" x1="881.586" y1="559.854" x2="881.586" y2="485.239" gradientUnits="userSpaceOnUse">
<stop stop-color="#79BBDF" stop-opacity="0.69"/>
<stop offset="1" stop-color="#153E54" stop-opacity="0.78"/>
</linearGradient>
<linearGradient id="paint13_linear_0_1" x1="679.091" y1="656.588" x2="679.091" y2="420.073" gradientUnits="userSpaceOnUse">
<stop stop-color="#79BBDF" stop-opacity="0.69"/>
<stop offset="1" stop-color="#153E54" stop-opacity="0.78"/>
</linearGradient>
<linearGradient id="paint14_linear_0_1" x1="1169.35" y1="579.733" x2="1169.35" y2="415.017" gradientUnits="userSpaceOnUse">
<stop stop-color="#79BBDF" stop-opacity="0.69"/>
<stop offset="1" stop-color="#153E54" stop-opacity="0.78"/>
</linearGradient>
<linearGradient id="paint15_linear_0_1" x1="833.021" y1="580.135" x2="833.021" y2="484.403" gradientUnits="userSpaceOnUse">
<stop stop-color="#79BBDF" stop-opacity="0.69"/>
<stop offset="1" stop-color="#153E54" stop-opacity="0.78"/>
</linearGradient>
<linearGradient id="paint16_linear_0_1" x1="333.09" y1="624.074" x2="333.09" y2="556.499" gradientUnits="userSpaceOnUse">
<stop stop-color="#79BBDF" stop-opacity="0.69"/>
<stop offset="1" stop-color="#153E54" stop-opacity="0.78"/>
</linearGradient>
<linearGradient id="paint17_linear_0_1" x1="378.164" y1="588.761" x2="378.164" y2="442.347" gradientUnits="userSpaceOnUse">
<stop stop-color="#79BBDF" stop-opacity="0.69"/>
<stop offset="1" stop-color="#153E54" stop-opacity="0.78"/>
</linearGradient>
<linearGradient id="paint18_linear_0_1" x1="779.416" y1="533.861" x2="779.416" y2="453.615" gradientUnits="userSpaceOnUse">
<stop stop-color="#79BBDF" stop-opacity="0.69"/>
<stop offset="1" stop-color="#153E54" stop-opacity="0.78"/>
</linearGradient>
<linearGradient id="paint19_linear_0_1" x1="314.06" y1="249.205" x2="314.06" y2="473.121" gradientUnits="userSpaceOnUse">
<stop stop-color="#79BBDF" stop-opacity="0.69"/>
<stop offset="1" stop-color="#153E54" stop-opacity="0.78"/>
</linearGradient>
<linearGradient id="paint20_linear_0_1" x1="961.574" y1="288.472" x2="961.574" y2="457.128" gradientUnits="userSpaceOnUse">
<stop stop-color="#79BBDF" stop-opacity="0.69"/>
<stop offset="1" stop-color="#153E54" stop-opacity="0.78"/>
</linearGradient>
<linearGradient id="paint21_linear_0_1" x1="919.73" y1="592.938" x2="919.73" y2="511.284" gradientUnits="userSpaceOnUse">
<stop stop-color="#79BBDF" stop-opacity="0.69"/>
<stop offset="1" stop-color="#153E54" stop-opacity="0.78"/>
</linearGradient>
<linearGradient id="paint22_linear_0_1" x1="127.222" y1="532.825" x2="127.222" y2="482.143" gradientUnits="userSpaceOnUse">
<stop stop-color="#79BBDF" stop-opacity="0.69"/>
<stop offset="1" stop-color="#153E54" stop-opacity="0.78"/>
</linearGradient>
<linearGradient id="paint23_linear_0_1" x1="199.817" y1="557.461" x2="199.817" y2="447.65" gradientUnits="userSpaceOnUse">
<stop stop-color="#79BBDF" stop-opacity="0.69"/>
<stop offset="1" stop-color="#153E54" stop-opacity="0.78"/>
</linearGradient>
<linearGradient id="paint24_linear_0_1" x1="667.454" y1="360.477" x2="667.454" y2="539.458" gradientUnits="userSpaceOnUse">
<stop stop-color="#79BBDF" stop-opacity="0.69"/>
<stop offset="1" stop-color="#153E54" stop-opacity="0.78"/>
</linearGradient>
<linearGradient id="paint25_linear_0_1" x1="961.351" y1="531.912" x2="961.351" y2="472.784" gradientUnits="userSpaceOnUse">
<stop stop-color="#79BBDF" stop-opacity="0.69"/>
<stop offset="1" stop-color="#153E54" stop-opacity="0.78"/>
</linearGradient>
<linearGradient id="paint26_linear_0_1" x1="652.446" y1="592.026" x2="653.338" y2="484.806" gradientUnits="userSpaceOnUse">
<stop stop-color="#79BBDF" stop-opacity="0.69"/>
<stop offset="1" stop-color="#153E54" stop-opacity="0.78"/>
</linearGradient>
<linearGradient id="paint27_linear_0_1" x1="287.918" y1="649.109" x2="287.918" y2="447.79" gradientUnits="userSpaceOnUse">
<stop stop-color="#79BBDF" stop-opacity="0.69"/>
<stop offset="1" stop-color="#153E54" stop-opacity="0.78"/>
</linearGradient>
<linearGradient id="paint28_linear_0_1" x1="1117.88" y1="532.673" x2="1117.88" y2="480.583" gradientUnits="userSpaceOnUse">
<stop stop-color="#79BBDF" stop-opacity="0.69"/>
<stop offset="1" stop-color="#153E54" stop-opacity="0.78"/>
</linearGradient>
<linearGradient id="paint29_linear_0_1" x1="1119.27" y1="581.616" x2="1119.27" y2="512.632" gradientUnits="userSpaceOnUse">
<stop stop-color="#79BBDF" stop-opacity="0.69"/>
<stop offset="1" stop-color="#153E54" stop-opacity="0.78"/>
</linearGradient>
<linearGradient id="paint30_linear_0_1" x1="966.301" y1="506.183" x2="966.301" y2="456.909" gradientUnits="userSpaceOnUse">
<stop stop-color="#79BBDF" stop-opacity="0.69"/>
<stop offset="1" stop-color="#153E54" stop-opacity="0.78"/>
</linearGradient>
<linearGradient id="paint31_linear_0_1" x1="1214.5" y1="517.465" x2="1214.5" y2="468.191" gradientUnits="userSpaceOnUse">
<stop stop-color="#79BBDF" stop-opacity="0.69"/>
<stop offset="1" stop-color="#153E54" stop-opacity="0.78"/>
</linearGradient>
<linearGradient id="paint32_linear_0_1" x1="842.202" y1="459.645" x2="842.202" y2="410.371" gradientUnits="userSpaceOnUse">
<stop stop-color="#79BBDF" stop-opacity="0.69"/>
<stop offset="1" stop-color="#153E54" stop-opacity="0.78"/>
</linearGradient>
<linearGradient id="paint33_linear_0_1" x1="534.067" y1="497.722" x2="534.067" y2="448.448" gradientUnits="userSpaceOnUse">
<stop stop-color="#79BBDF" stop-opacity="0.69"/>
<stop offset="1" stop-color="#153E54" stop-opacity="0.78"/>
</linearGradient>
<linearGradient id="paint34_linear_0_1" x1="688.483" y1="475.725" x2="688.483" y2="444.753" gradientUnits="userSpaceOnUse">
<stop stop-color="#79BBDF" stop-opacity="0.69"/>
<stop offset="1" stop-color="#153E54" stop-opacity="0.78"/>
</linearGradient>
<linearGradient id="paint35_linear_0_1" x1="523.495" y1="621.435" x2="523.495" y2="594.686" gradientUnits="userSpaceOnUse">
<stop stop-color="#79BBDF" stop-opacity="0.69"/>
<stop offset="1" stop-color="#153E54" stop-opacity="0.78"/>
</linearGradient>
<linearGradient id="paint36_linear_0_1" x1="240.04" y1="587.589" x2="240.04" y2="560.841" gradientUnits="userSpaceOnUse">
<stop stop-color="#79BBDF" stop-opacity="0.69"/>
<stop offset="1" stop-color="#153E54" stop-opacity="0.78"/>
</linearGradient>
<linearGradient id="paint37_linear_0_1" x1="134.272" y1="463.642" x2="134.272" y2="438.301" gradientUnits="userSpaceOnUse">
<stop stop-color="#79BBDF" stop-opacity="0.69"/>
<stop offset="1" stop-color="#153E54" stop-opacity="0.78"/>
</linearGradient>
<linearGradient id="paint38_linear_0_1" x1="1183.48" y1="387.337" x2="1183.48" y2="360.589" gradientUnits="userSpaceOnUse">
<stop stop-color="#79BBDF" stop-opacity="0.69"/>
<stop offset="1" stop-color="#153E54" stop-opacity="0.78"/>
</linearGradient>
<linearGradient id="paint39_linear_0_1" x1="281.632" y1="493.684" x2="281.632" y2="433.147" gradientUnits="userSpaceOnUse">
<stop stop-color="#79BBDF" stop-opacity="0.69"/>
<stop offset="1" stop-color="#153E54" stop-opacity="0.78"/>
</linearGradient>
<linearGradient id="paint40_linear_0_1" x1="718.097" y1="418.942" x2="718.097" y2="358.405" gradientUnits="userSpaceOnUse">
<stop stop-color="#79BBDF" stop-opacity="0.69"/>
<stop offset="1" stop-color="#153E54" stop-opacity="0.78"/>
</linearGradient>
<linearGradient id="paint41_linear_0_1" x1="1183.47" y1="502.145" x2="1183.47" y2="441.609" gradientUnits="userSpaceOnUse">
<stop stop-color="#79BBDF" stop-opacity="0.69"/>
<stop offset="1" stop-color="#153E54" stop-opacity="0.78"/>
</linearGradient>
<linearGradient id="paint42_linear_0_1" x1="974.885" y1="362.969" x2="221.608" y2="402.807" gradientUnits="userSpaceOnUse">
<stop stop-color="#020C11"/>
<stop offset="1" stop-color="#002563" stop-opacity="0"/>
</linearGradient>
<linearGradient id="paint43_linear_0_1" x1="1042.85" y1="556.302" x2="241.88" y2="655.315" gradientUnits="userSpaceOnUse">
<stop stop-color="#020C11"/>
<stop offset="1" stop-color="#002563" stop-opacity="0"/>
</linearGradient>
<linearGradient id="paint44_linear_0_1" x1="680.198" y1="413.509" x2="227.337" y2="458.255" gradientUnits="userSpaceOnUse">
<stop stop-color="#020C11"/>
<stop offset="1" stop-color="#002563" stop-opacity="0"/>
</linearGradient>
<linearGradient id="paint45_linear_0_1" x1="727.56" y1="671.387" x2="301.698" y2="715.464" gradientUnits="userSpaceOnUse">
<stop stop-color="#020C11"/>
<stop offset="1" stop-color="#002563" stop-opacity="0"/>
</linearGradient>
<linearGradient id="paint46_linear_0_1" x1="672.215" y1="278.789" x2="447.403" y2="289.19" gradientUnits="userSpaceOnUse">
<stop stop-color="#020C11"/>
<stop offset="1" stop-color="#002563" stop-opacity="0"/>
</linearGradient>
<linearGradient id="paint47_linear_0_1" x1="903.99" y1="717.502" x2="604.761" y2="743.025" gradientUnits="userSpaceOnUse">
<stop stop-color="#020C11"/>
<stop offset="1" stop-color="#002563" stop-opacity="0"/>
</linearGradient>
</defs>
</svg>
