<?xml version="1.0" encoding="utf-8"?>
<!-- Generator: Adobe Illustrator 23.0.5, SVG Export Plug-In . SVG Version: 6.00 Build 0)  -->
<svg version="1.1" id="Слой_1" xmlns="http://www.w3.org/2000/svg" xmlns:xlink="http://www.w3.org/1999/xlink" x="0px" y="0px"
	 width="1072.3px" height="1071px" viewBox="0 0 1072.3 1071" style="enable-background:new 0 0 1072.3 1071;" xml:space="preserve"
	>
<style type="text/css">
	.st0{fill:url(#SVGID_1_);}
	.st1{fill:url(#SVGID_2_);}
	.st2{fill:url(#SVGID_3_);}
	.st3{fill:url(#SVGID_4_);}
	.st4{fill:url(#SVGID_5_);}
	.st5{fill:url(#SVGID_6_);}
	.st6{fill:url(#SVGID_7_);}
	.st7{fill:url(#SVGID_8_);}
	.st8{fill:url(#SVGID_9_);}
	.st9{fill:url(#SVGID_10_);}
	.st10{fill:#FFFFFF;}
	.st11{fill:url(#SVGID_11_);}
	.st12{fill:url(#SVGID_12_);}
	.st13{fill:url(#SVGID_13_);}
	.st14{fill:url(#SVGID_14_);}
	.st15{fill:url(#SVGID_15_);}
	.st16{fill:url(#SVGID_16_);}
	.st17{fill:url(#SVGID_17_);}
	.st18{fill:url(#SVGID_18_);}
	.st19{fill:url(#SVGID_19_);}
	.st20{fill:url(#SVGID_20_);}
	.st21{fill:url(#SVGID_21_);}
	.st22{fill:url(#SVGID_22_);}
	.st23{fill:url(#SVGID_23_);}
	.st24{fill:url(#SVGID_24_);}
	.st25{fill:url(#SVGID_25_);}
	.st26{fill:url(#SVGID_26_);}
	.st27{fill:url(#SVGID_27_);}
	.st28{fill:url(#SVGID_28_);}
	.st29{fill:url(#SVGID_29_);}
	.st30{fill:url(#SVGID_30_);}
	.st31{fill:url(#SVGID_31_);}
	.st32{fill:url(#SVGID_32_);}
	.st33{fill:url(#SVGID_33_);}
	.st34{fill:url(#SVGID_34_);}
	.st35{fill:url(#SVGID_35_);}
	.st36{fill:url(#SVGID_36_);}
	.st37{fill:url(#SVGID_37_);}
	.st38{fill:url(#SVGID_38_);}
	.st39{fill:url(#SVGID_39_);}
	.st40{fill:url(#SVGID_40_);}
	.st41{fill:url(#SVGID_41_);}
	.st42{fill:url(#SVGID_42_);}
	.st43{fill:url(#SVGID_43_);}
	.st44{fill:url(#SVGID_44_);}
	.st45{fill:url(#SVGID_45_);}
	.st46{fill:url(#SVGID_46_);}
	.st47{fill:url(#SVGID_47_);}
	.st48{fill:url(#SVGID_48_);}
</style>
<linearGradient id="SVGID_1_" gradientUnits="userSpaceOnUse" x1="536.16" y1="1069.8898" x2="536.16" y2="-1.1102" gradientTransform="matrix(1 0 0 -1 0 1069.8898)">
	<stop  offset="0" style="stop-color:#6CA2F3"/>
	<stop  offset="1" style="stop-color:#F9F3F6"/>
</linearGradient>
<rect y="0" class="st0" width="1072.3" height="1071"/>
<linearGradient id="SVGID_2_" gradientUnits="userSpaceOnUse" x1="536.16" y1="1069.8898" x2="536.16" y2="-1.1102" gradientTransform="matrix(1 0 0 -1 0 1069.8898)">
	<stop  offset="0" style="stop-color:#002566"/>
	<stop  offset="1" style="stop-color:#002D3E"/>
</linearGradient>
<rect y="0" class="st1" width="1072.3" height="1071"/>
<linearGradient id="SVGID_3_" gradientUnits="userSpaceOnUse" x1="1068.7526" y1="658.7561" x2="-58.8627" y2="658.7522" gradientTransform="matrix(1 0 0 -1 0 1069.8898)">
	<stop  offset="0" style="stop-color:#FEFEFE;stop-opacity:0"/>
	<stop  offset="1" style="stop-color:#FFFFFF"/>
</linearGradient>
<rect x="-34.2" y="409.2" class="st2" width="1052.6" height="3.9"/>
<linearGradient id="SVGID_4_" gradientUnits="userSpaceOnUse" x1="1168.4526" y1="654.8062" x2="-40.9137" y2="654.8022" gradientTransform="matrix(1 0 0 -1 0 1069.8898)">
	<stop  offset="0" style="stop-color:#FEFEFE;stop-opacity:0"/>
	<stop  offset="1" style="stop-color:#FFFFFF"/>
</linearGradient>
<rect x="-14.5" y="413.1" class="st3" width="1128.9" height="3.9"/>
<linearGradient id="SVGID_5_" gradientUnits="userSpaceOnUse" x1="1948.8328" y1="1067.2811" x2="738.0615" y2="1067.2782" gradientTransform="matrix(-1 0 0 -1 1847.3761 1214.6188)">
	<stop  offset="0" style="stop-color:#FEFEFE;stop-opacity:0"/>
	<stop  offset="1" style="stop-color:#FFFFFF"/>
</linearGradient>
<rect x="-47.4" y="144.7" class="st4" width="1130.2" height="5.3"/>
<linearGradient id="SVGID_6_" gradientUnits="userSpaceOnUse" x1="1947.4526" y1="1067.9492" x2="738.0922" y2="1067.9449" gradientTransform="matrix(-1 0 0 -1 1878.9561 1204.0938)">
	<stop  offset="0" style="stop-color:#FEFEFE;stop-opacity:0"/>
	<stop  offset="1" style="stop-color:#FFFFFF"/>
</linearGradient>
<rect x="-14.5" y="134.2" class="st5" width="1128.9" height="3.9"/>
<linearGradient id="SVGID_7_" gradientUnits="userSpaceOnUse" x1="963.4927" y1="317.9759" x2="-164.1204" y2="317.9729" gradientTransform="matrix(1 0 0 -1 0 1069.8898)">
	<stop  offset="0" style="stop-color:#FEFEFE;stop-opacity:0"/>
	<stop  offset="1" style="stop-color:#FFFFFF"/>
</linearGradient>
<rect x="-139.5" y="750" class="st6" width="1052.6" height="3.9"/>
<linearGradient id="SVGID_8_" gradientUnits="userSpaceOnUse" x1="3366.1035" y1="270.2451" x2="2238.4934" y2="270.2411" gradientTransform="matrix(-1 0 0 1 3622.2859 297.5282)">
	<stop  offset="0" style="stop-color:#FEFEFE;stop-opacity:0"/>
	<stop  offset="1" style="stop-color:#FFFFFF"/>
</linearGradient>
<rect x="306.6" y="565.8" class="st7" width="1052.6" height="3.9"/>
<linearGradient id="SVGID_9_" gradientUnits="userSpaceOnUse" x1="3311.8135" y1="-2.1131" x2="2044.6633" y2="-2.1171" gradientTransform="matrix(-1 0 0 1 3240.7258 842.2383)">
	<stop  offset="0" style="stop-color:#FEFEFE;stop-opacity:0"/>
	<stop  offset="1" style="stop-color:#FFFFFF"/>
</linearGradient>
<rect x="-14.5" y="838.1" class="st8" width="1182.8" height="3.9"/>
<linearGradient id="SVGID_10_" gradientUnits="userSpaceOnUse" x1="3212.1633" y1="242.6145" x2="2084.5535" y2="242.6106" gradientTransform="matrix(-1 0 0 1 3314.406 352.7882)">
	<stop  offset="0" style="stop-color:#FEFEFE;stop-opacity:0"/>
	<stop  offset="1" style="stop-color:#FFFFFF"/>
</linearGradient>
<rect x="152.6" y="593.4" class="st9" width="1052.6" height="3.9"/>
<g>
	<circle class="st10" cx="846.8" cy="237.3" r="4.3"/>
</g>
<circle class="st10" cx="846.8" cy="237.3" r="4.3"/>
<g>
	<circle class="st10" cx="734.8" cy="508.3" r="4.3"/>
</g>
<circle class="st10" cx="734.8" cy="508.3" r="4.3"/>
<g>
	<circle class="st10" cx="593.9" cy="76.5" r="4.3"/>
</g>
<circle class="st10" cx="593.9" cy="76.5" r="4.3"/>
<g>
	<circle class="st10" cx="581" cy="691.7" r="4.3"/>
</g>
<circle class="st10" cx="581" cy="691.7" r="4.3"/>
<g>
	<circle class="st10" cx="584.8" cy="314.3" r="4.3"/>
</g>
<circle class="st10" cx="584.8" cy="314.3" r="4.3"/>
<g>
	<circle class="st10" cx="794.8" cy="939.3" r="4.3"/>
</g>
<circle class="st10" cx="794.8" cy="939.3" r="4.3"/>
<g>
	<circle class="st10" cx="981.9" cy="668.2" r="4.3"/>
</g>
<circle class="st10" cx="981.9" cy="668.2" r="4.3"/>
<linearGradient id="SVGID_11_" gradientUnits="userSpaceOnUse" x1="1110.7128" y1="680.3882" x2="-97.8911" y2="680.3854" gradientTransform="matrix(1 0 0 -1 0 1069.8898)">
	<stop  offset="0" style="stop-color:#FEFEFE;stop-opacity:0"/>
	<stop  offset="1" style="stop-color:#FFFFFF"/>
</linearGradient>
<rect x="-71.5" y="387.4" class="st11" width="1128.2" height="4.2"/>
<linearGradient id="SVGID_12_" gradientUnits="userSpaceOnUse" x1="200.707" y1="519.2298" x2="200.707" y2="561.4637" gradientTransform="matrix(1 0 0 -1 0 1069.8898)">
	<stop  offset="0" style="stop-color:#79BBDF;stop-opacity:0.69"/>
	<stop  offset="1" style="stop-color:#153E54;stop-opacity:0.78"/>
</linearGradient>
<path class="st12" d="M76.2,528.4l-22.8,10.5c-3.1,1.4-5,4.5-5,7.8c0,4.7,3.8,8.6,8.6,8.6h287.1c4.9,0,8.9-4,8.9-8.9
	c0-3.2-1.8-6.2-4.6-7.8L329,527.8c-2.4-1.3-5-2-7.8-2h-19c-4.3,0-8.4,1.7-11.4,4.8l-5.5,5.7c-3,3.1-7.1,4.8-11.4,4.8h-21.2
	c-2,0-4.1-0.4-6-1.2l-35.1-14.1l-28.2-10.2c-4.7-1.7-9.9-1.1-14.1,1.6l-30.8,19.9c-3.9,2.5-8.8,3.2-13.3,1.9l-37.7-11.4
	C83.8,526.5,79.8,526.7,76.2,528.4z"/>
<linearGradient id="SVGID_13_" gradientUnits="userSpaceOnUse" x1="742.2315" y1="510.0358" x2="742.2315" y2="584.6508" gradientTransform="matrix(1 0 0 -1 0 1069.8898)">
	<stop  offset="0" style="stop-color:#79BBDF;stop-opacity:0.69"/>
	<stop  offset="1" style="stop-color:#153E54;stop-opacity:0.78"/>
</linearGradient>
<path class="st13" d="M533.3,497.4c-17.4,12.5-43.2,31-55.3,39.7c-4.1,3-6.5,7.7-6.5,12.8v2c0,8.8,7.2,16,16,16H997
	c8.8,0,16-7.2,16-16v-2.3c0-4.9-2.3-9.6-6.1-12.5c-16-12.3-40.6-30-45.5-29.2c-6.9,1.1-55.1,34-63.1,34s-94.1-15.9-107.8-23.8
	s-80.3-24.9-87.2-24.9c-6.9,0-51.6,28.3-62,24.9c-7.7-2.5-62.7-15.6-95-23.3C541.7,493.8,537,494.7,533.3,497.4z"/>
<linearGradient id="SVGID_14_" gradientUnits="userSpaceOnUse" x1="539.866" y1="413.3018" x2="539.866" y2="649.8168" gradientTransform="matrix(1 0 0 -1 0 1069.8898)">
	<stop  offset="0" style="stop-color:#79BBDF;stop-opacity:0.69"/>
	<stop  offset="1" style="stop-color:#153E54;stop-opacity:0.78"/>
</linearGradient>
<path class="st14" d="M-22.4,445.2c-4.4,1.6-8.5,3.2-12.4,4.8v145.5c2,0.2,2.5,1.9,3.2,6.6c1.1,6.4,9,15.9,20,16.5
	c11,0.5,17.9,7.6,28.7,14.4c11,6.7,5.9,15.1,32.1,21.8c26.3,6.7,16-4.6,27.3-15.1c11.4-10.6,5.5-2.3,7.6,0.9c2.1,3.2,9,0.7,9.8-0.7
	c0.7-1.4,5.3-7.8,11.9-1.2c6.6,6.4,6.6,3.5,6.9,2.3c0.4-1.2,11.4-4.1,16.3,1.8c5.1,5.8,9.4,1.2,28.4-4.1c19-5.3,15.3-8.2,15.3-1.2
	c0,7.1,6.9,5.3,17,6.7c10.1,1.4,19.3-9.9,20.4-4.1c1.1,5.8,16.3,0,15.3,1.4c-1.1,1.4,0.4,4.3,4.8,8.3c4.4,4.1,6.2,2.3,8.3,0.9
	c2.1-1.4,1.1-3,8.3-7.1c7.3-4.1,13.1-1.4,13.1,0.5c0,2.1,8,12.9,14.9,15.2c6.9,2.3,7.6,10.6,13.5,11.2c5.9,0.5,6.2-8.9,8.3-11.5
	c2.1-2.7,5.5-1.4,6.6,3.9c1.1,5.3,9.8,5.3,16,5.3c6.2,0,9,3.5,15.6,9.9c6.6,6.4,13.1,4.4,28.4,0c15.3-4.4,20.4-4.4,32.5-3.9
	c12.1,0.5,11.4-1.8,16.7-3.2c5.5-1.4,4.8,0.9,11.4,0c6.6-0.9,1.4-12,4.8-9.4c3.2,2.7,14.2,4.8,21.8,5c7.6,0.4,16.3-2.7,25.2-3.5
	c8.7-0.9,11-3,17-8c6.2-5,8.3-10.8,14.5-16.1c6.2-5.3,20-13.3,21.5-10.6c1.4,2.7,8,3.9,12.4,2.3c4.4-1.4,12.4-0.9,19,0
	c6.6,0.9,8.7-0.5,11.4-2.7c2.5-2.1,2.8-2.1,8-3c5.1-0.9,9,0,8.7-4.1c-0.4-4.1,0-7.3,6.9-5.7c6.9,1.8,6.6,2.1,9-3.9
	c2.5-5.8,5.1-2.7,13.1-2.3c8,0.4,8.3,0.5,8.3-3.9s5.1-2.7,14.9-2.7c9.8,0,11.4-1.4,12.1-4.1c0.7-2.7,16.7,0.4,17.6-1.8
	c0.7-2.1,7.6-1.4,14.5-0.5c6.9,0.9,0.4,3.2,0,7.1c-0.4,3.9,1.1,8.5,5.1,5.8c4.1-2.7,2.5-6.6,9.4-5.7c6.9,0.9,14.2,1.2,15.6,4.3
	c1.4,3,9,4.8,14.9,6.2c5.9,1.4,1.8,12.6,6.2,18.8c4.4,6.2,12.8,11.5,20,10.3c7.3-1.2,5.9-5,7.6-3.5c1.8,1.4,4.4,2.7,10.1,0
	c5.9-2.7,9.4-2.7,11-1.8c1.4,0.9,7.6-0.4,11-3.5c3.2-3.2,8.3-3.2,13.1-4.4c4.8-1.2,16-3.2,20.4,4.4c4.4,7.6,6.6,7.1,8.7,7.3
	c2.1,0.4,8.3-3.5,8.7,1.2s9.4,7.3,11.7,3c2.1-4.4,13.8-1.8,17.6,1.2c3.7,3,19,12.6,24.7,8c5.8-4.8,6.2-6.7,6.2-6.7
	c22.2-8.5,4.8-15.6,13.8-21.4c9-5.8,13.8-28.7,16.7-30.5c2.8-1.8,6.9,0,9-1.8c2.1-1.8,6.2-3.2,5.9-6.7c-0.4-3.5,7.3-5.3,9.4-5
	c2.1,0.4,11,0.4,12.4-3.2c1.4-3.4,7.6-0.4,9.4-0.2c1.8,0.4,8,0,10.6-2.1c2.5-2.1,3.7-5.3,6.2-5.8c2.5-0.5,4.1-1.4,2.8-3.7
	c-1.1-2.1,1.1-2.1,2.8-5.5c1.8-3.2,4.8-2.7,12.4-2.7c7.6,0,6.9,6,17.6,3.2c1.9-0.5,6.2-3.9,7.6-4.6c1.4-0.7,4.8-1.2,5.5-0.4
	s5.5,0,5.5,0s2.1-1.4,2.8-3.7c0.7-2.3,4.1-1.4,4.1-1.4s3.2,0,4.8,1.2c1.4,1.2,2.8-1.2,4.8-3.4c1.8-2.1,8-2.8,11.7-0.5
	c17.6,11.3,25.2,4.3,31.9,1.2V445.2H-22.4z"/>
<linearGradient id="SVGID_15_" gradientUnits="userSpaceOnUse" x1="1029.9207" y1="490.1568" x2="1029.9207" y2="654.8727" gradientTransform="matrix(1 0 0 -1 0 1069.8898)">
	<stop  offset="0" style="stop-color:#79BBDF;stop-opacity:0.69"/>
	<stop  offset="1" style="stop-color:#153E54;stop-opacity:0.78"/>
</linearGradient>
<path class="st15" d="M949.7,512.3c1.2,9.9-1.8,21.2,1.8,25.1c3.6,3.9,16.9,37.5,20.3,33.8c3.4-3.7,17.1-35,21.1-30
	c4.1,5.1,11.4,15.7,17.6,11.8c6-4.1,16.2,1.8,23.1,11.1c6.9,9.4,7.3,25.1,18.3,7.1c0,0,4.6,15,9.4,24.2c4.8,9.2,20.6-13.4,20.6-13.4
	s22.9,13.8,28.4-8.1v-79.3c-9.4-7.2-19-12.2-24.9-10.6c-7.8,2.1-9.4-38.7-19.7-47.4c-10.5-8.7-23.1-1.9-21.3,9.4
	c1.8,11.1-15.5,16.3-17.8,13.3c-2.3-3.2-15.8-5.1-19.4-4.4s6.6,15.7,2.8,32.2c-3.7,16.4-27.3-19.1-41.9-18.9
	C953.5,468.1,948.5,502.4,949.7,512.3z"/>
<linearGradient id="SVGID_16_" gradientUnits="userSpaceOnUse" x1="693.5811" y1="489.7548" x2="693.5811" y2="585.4868" gradientTransform="matrix(1 0 0 -1 0 1069.8898)">
	<stop  offset="0" style="stop-color:#79BBDF;stop-opacity:0.69"/>
	<stop  offset="1" style="stop-color:#153E54;stop-opacity:0.78"/>
</linearGradient>
<path class="st16" d="M709.5,561.9c-8.3,10.6-13.4,15-18.4,9.7c-4.9-5.4-12.4-8.4-17-6.1c-4.6,2.5-7.8-3.8-10.8-6.8
	c-3-2.9-11.3,0.7-13.8,2.9c-2.5,2.1-16.3-2-18.9-4.1c-2.7-2.1-0.2-8.8-0.9-14.5c-0.5-3.2,9.7-6.6,12.7-12.9
	c2.3-4.8-3.2-13.1,1.4-13.3c10.8-0.4,27.7,19.9,30.8,10.2c3-9.7-4.2-18.1-1.6-18.6c2.7-0.5,12.5,0.4,14.3,2.1
	c1.6,1.8,14.5-1.4,13.4-8.1c-1.2-6.4,8.3-10.6,15.9-5.7c7.6,4.8,8.1,28.5,14,27.2c5.8-1.3,16.1,3.9,24.9,9.8
	c5.3,3.6-0.7,17.4-3.4,27.9c-1.6,6.8,0.9,12.4,0.2,12.7c-0.7,0.4-4.2,8.1-8.7,9.1c-3.4,0.9-6.9,5-10.1,4.3c-4.1-0.9-7.1-6.8-7.1-6.8
	s-12,13.4-15.4,8.2C707.7,584.1,709.5,561.9,709.5,561.9z"/>
<linearGradient id="SVGID_17_" gradientUnits="userSpaceOnUse" x1="193.6554" y1="445.8158" x2="193.6554" y2="513.3907" gradientTransform="matrix(1 0 0 -1 0 1069.8898)">
	<stop  offset="0" style="stop-color:#79BBDF;stop-opacity:0.69"/>
	<stop  offset="1" style="stop-color:#153E54;stop-opacity:0.78"/>
</linearGradient>
<path class="st17" d="M186.9,621.1c-2.5-3.4-8.3,0.5-11.9-3.2c-3.5-3.7-8.9-6-12.2-4.3c-3.2,1.8-5.7-2.7-7.6-4.8
	c-2.1-2-8.1,0.5-9.9,2.1c-1.8,1.6-11.7-1.4-13.5-3c-1.8-1.6-13.8-10.3-14.3-14.4c-0.4-2.3,20.5-0.5,22.8-5c1.6-3.4-2.3-9.2,1.1-9.4
	c7.6-0.2,19.8,14,22,7.3c2.1-6.7-3-12.8-1.2-13.1c1.9-0.4,9,0.4,10.3,1.6c1.2,1.2,10.4-1.1,9.6-5.7c-0.9-4.6,6-7.5,11.3-4.1
	c5.5,3.4,5.8,20.2,10.1,19.2c4.2-0.9,11.5,2.8,17.7,6.9c3.9,2.5,50.5,3.7,48.7,11.2c-0.4,1.8-5.3,13.1-12.2,15.6
	c-4.6,1.8-10.3-9.1-15.8-9.2c-8.9,0-17.7,9.9-22.8,11c-0.5,0.2-3,5.7-6.2,6.6c-2.3,0.5-5,3.6-7.3,3c-2.8-0.7-5.1-4.8-5.1-4.8
	s-8.5,9.6-11,5.9C186.7,626.8,186.9,621.1,186.9,621.1z"/>
<linearGradient id="SVGID_18_" gradientUnits="userSpaceOnUse" x1="238.7826" y1="481.1288" x2="238.7826" y2="627.5428" gradientTransform="matrix(1 0 0 -1 0 1069.8898)">
	<stop  offset="0" style="stop-color:#79BBDF;stop-opacity:0.69"/>
	<stop  offset="1" style="stop-color:#153E54;stop-opacity:0.78"/>
</linearGradient>
<path class="st18" d="M59.6,543.9c0,0-8.3,8.6,4.8,18.4c13.1,9.8,27.1,22.1,32.3,10.7c5.1-11.4,8.9-15.9,14-11.9
	c5.3,3.9,14.7,6.6,17.9,1.4c3-5-5.5-10.2,4.6-11.1c10.1-0.9,10.1,6.2,18.5,5.9c8.2-0.4,8.9-5,11.5-6.4c2.5-1.6,12.1,1.8,18.8-0.7
	c6.7-2.5,10.1-0.9,12.2,3.7c2.3,4.6,8.7,8,14.5,8.7c5.7,0.9,12.1,9.3,14.7,11.2c2.7,2,13.1,6.2,16.5-0.7c3.4-7,10.8-10.5,14-7.7
	c3,2.9,16.3,7.8,22.4,15.2c6,7.1,17.9,1.1,21.3,6.2c3.4,5.2,14.7,15.2,22,16.9c7.3,2,27.3,0.5,30.5-9.1c3.2-9.6-3.9-21.2,11.9-17.3
	c15.8,3.9,71.5,9.6,77.5,1.4c5.9-8-0.9-25.9-10.1-30.8c-9.2-4.8-31-6.6-20.6-19.1c10.6-12.5,16.9-23.7,13.7-33.2
	c-3.2-9.5-10.6-14.8-32.5-17.3c-21.8-2.5-61.4,4.1-78.2,7.8c-16.9,3.7-17.6-7.7-20-13.9c-2.7-6.2-30.5-10.9-55.2-14.1
	c-24.7-3.4-35.7,15.7-53.4,17.8c-17.7,2-65.5-15.7-70.3-14.4c-4.8,1.2-15.4,9.8-15.4,16.8c0.2,7.1-5.5,5.9-17.9,7.1
	c-12.4,1.2-21.6,4.6-20.2,13.7c1.6,9.3-7.3,9.8-15.3,16.4c-8,6.6-13.3,7-2,13.4c11.4,6.4,10.6,11.1,5.5,14.4
	C42.1,547.1,59.6,543.9,59.6,543.9z"/>
<linearGradient id="SVGID_19_" gradientUnits="userSpaceOnUse" x1="639.9922" y1="536.0287" x2="639.9922" y2="616.2748" gradientTransform="matrix(1 0 0 -1 0 1069.8898)">
	<stop  offset="0" style="stop-color:#79BBDF;stop-opacity:0.69"/>
	<stop  offset="1" style="stop-color:#153E54;stop-opacity:0.78"/>
</linearGradient>
<path class="st19" d="M683.7,532.8c0,0,4.1,5.5-7.5,1.8c-11.5-3.7-4.8,0.4-10.1,2.3c-5.1,2-14.4-0.9-15.8-4.1
	c-1.4-3.2-7.5-1.8-12.1,2.9c-4.6,4.6-7.5-4.6-16-7.7c-8.5-3-13.5-9.6-25.9-8.2c-12.4,1.4-17.8,2.7-22.4-2s2-13.2-9.9-15.5
	c-11.9-2.1-14.7-2.3-16.5-9.6c-1.8-7.5-24-8.7,5.2-17.7c29.1-8.9,23.1-16.8,45.1-10.5c22,6.2,25.2,4.8,37.3,2
	c12.1-2.9,19.2-5.9,22.2,0.5c2.8,6.4,17.8,6.6,29.3,3.9c11.4-2.7,17.9-5.5,21.3,0c3.4,5.5,3.7,22,17,28c13.5,6.1,20.4,18,16,23.4
	c-4.4,5.4-18.1,20-21.8,15.7c-3.7-4.1-10.8-13.2-13-0.5C704,550.1,686.4,535.6,683.7,532.8z"/>
<linearGradient id="SVGID_20_" gradientUnits="userSpaceOnUse" x1="174.6175" y1="820.6851" x2="174.6175" y2="596.769" gradientTransform="matrix(1 0 0 -1 0 1069.8898)">
	<stop  offset="0" style="stop-color:#79BBDF;stop-opacity:0.69"/>
	<stop  offset="1" style="stop-color:#153E54;stop-opacity:0.78"/>
</linearGradient>
<path class="st20" d="M280.9,312.9c-10.1-0.2-11.5,2.1-12.4,5.8c-0.7,3.7-17.2-0.4-17.9,2.5c-0.7,2.8-7.8,2.1-14.9,0.9
	c-7.1-1.2-0.4-4.6,0-9.9c0.4-5.3-1.1-11.9-5.3-8.3c-4.1,3.7-2.7,9.2-9.8,8c-7.1-1.2-14.6-1.8-16.2-5.8c-1.4-4.1-9.4-6.6-15.4-8.7
	c-6-2.1-2-17.7-6.4-26.4c-4.4-8.7-13.1-16.1-20.6-14.4c-7.5,1.6-6,7.1-7.8,5c-2-2.1-4.4-3.7-10.5,0c-5.9,3.5-9.6,3.5-11.2,2.3
	c-1.4-1.2-7.8,0.4-11.2,5c-3.4,4.6-8.7,4.6-13.5,6.2c-4.8,1.6-16.5,4.6-21-6.2c-4.4-10.6-6.7-9.9-9.1-10.3c-2.3-0.4-8.7,5-9.1-1.6
	c-0.4-6.6-9.8-10.3-12.1-4.1c-2.3,6.2-14.2,2.5-17.9-1.6c-3.7-4.1-9.8-1.6-15.8,5c-6,6.6-6.4,9.4-6.4,9.4
	c-22.9,11.9-4.8,21.8-14.2,30.1c-9.4,8.3-14.2,40.4-17.2,42.9c-3,2.5-7.1,0-9.4,2.5c-2.3,2.5-6.4,4.6-6,9.4c0.2,2.7-2.1,4.6-4.4,5.8
	v89h413l5.9-7.6C382.1,438.8,340.7,313.4,280.9,312.9z"/>
<linearGradient id="SVGID_21_" gradientUnits="userSpaceOnUse" x1="821.2065" y1="781.4178" x2="821.2065" y2="612.7618" gradientTransform="matrix(1 0 0 -1 0 1069.8898)">
	<stop  offset="0" style="stop-color:#79BBDF;stop-opacity:0.69"/>
	<stop  offset="1" style="stop-color:#153E54;stop-opacity:0.78"/>
</linearGradient>
<path class="st21" d="M1113.1,446.6c-1.1-0.9-2.1-3.2-3.2-7.1c-2.7-10.8-4.1-13.6-9.4-11.5c-5.3,2.1-5.7,0.9-6.7-8.3
	c-1.1-9-9.4-22.3-20.7-23.2c-11.3-0.9-18.4-10.8-29.6-20.2c-11.3-9.6-10.8-23.2-37.9-32.6c-27.1-9.6-11.7,8.3-23.2,23.2
	c-11.7,14.9-14.7,2.8-16.8-1.6c-2.3-4.6-5-2.1-5.7,0c-0.7,2.1-1.1,12.4-7.8,3.4c-6.7-9-6.7-5-7.1-3.4c-0.3,1.6-11.7,5.8-16.8-2.5
	c-5.3-8.3-9.7-1.6-29.2,5.8c-19.5,7.4-15.8,11.5-15.8,1.6c0-9.9-7.1-7.4-17.7-9.6c-10.5-2.1-19.8,14-21.1,5.8
	c-1.1-8.3-16.8,0-15.8-2.1c1.1-2.1-2.7-14.9-7.1-20.7c-4.4-5.8-4.1-3.4-6.4-1.2c-2.3,2.1-1.1,13.3-8.7,18.9
	c-7.4,5.8-13.5,2.1-13.5-0.9c0-2.8-8.3-18.2-15.4-21.4c-7.1-3.4-7.8-14.9-13.8-15.8c-6-0.9-6.4,12.4-8.7,16.1
	c-2.3,3.7-5.7,2.1-6.7-5.3c-1.1-7.4-10.1-7.4-16.5-7.4s-9.4-5-16.1-14s-13.5-6.2-29.2,0c-15.8,6.2-21.1,6.2-33.5,5.3
	c-12.4-0.9-11.7,2.5-17.2,4.6c-5.7,2.1-5-1.2-11.7,0c-6.7,1.2-1.4,17-5,13.3c-3.4-3.7-14.7-6.6-22.5-7.1c-7.8-0.4-16.8,3.7-25.9,5
	c-9,1.2-11.3,4.1-17.7,11.2c-6.4,7.1-8.7,15.2-15.1,22.7c-2.3,2.7-5.5,5.8-8.9,8.5v70.5H1113.1z"/>
<linearGradient id="SVGID_22_" gradientUnits="userSpaceOnUse" x1="780.3074" y1="476.9518" x2="780.3074" y2="558.6058" gradientTransform="matrix(1 0 0 -1 0 1069.8898)">
	<stop  offset="0" style="stop-color:#79BBDF;stop-opacity:0.69"/>
	<stop  offset="1" style="stop-color:#153E54;stop-opacity:0.78"/>
</linearGradient>
<path class="st22" d="M670.8,520.3c1.4,10-2.8,21.2,1.6,24.9c4.4,3.7,28.3,10.9,32.6,7.1c4.2-3.7,18.8-9.8,23.7-5
	c5.1,5,10.6,15.7,18.6,11.6s20.7,1.2,29.2,10.3c8.5,9.1,17.2,1.6,31.5-16.5c0,0-2.8,37.9,3,47c6,9.1,26.6-14.1,26.6-14.1
	s5.3,10.1,12.2,11.7c5.3,1.2,11.7-5.9,17.3-7.3c7.4-2,13.6-15.1,14.9-15.7c1.2-0.5-3-10-0.4-21.7c2.5-10.5,7.3-23.1,8.7-32.7H670.8
	C670.8,520,670.8,520.1,670.8,520.3z"/>
<linearGradient id="SVGID_23_" gradientUnits="userSpaceOnUse" x1="-12.237" y1="537.0648" x2="-12.237" y2="587.7468" gradientTransform="matrix(1 0 0 -1 0 1069.8898)">
	<stop  offset="0" style="stop-color:#79BBDF;stop-opacity:0.69"/>
	<stop  offset="1" style="stop-color:#153E54;stop-opacity:0.78"/>
</linearGradient>
<path class="st23" d="M-8.8,538.3c6.4-10.1,15.4-25.9,14.8-32.8c-0.7-10.8-31.1-1.1-31.1-1.1s0.4-11.5-4.9-16.3
	c-0.2-0.2-0.4-0.4-0.5-0.5v50.6h21.8V538.3z"/>
<linearGradient id="SVGID_24_" gradientUnits="userSpaceOnUse" x1="60.3898" y1="512.4288" x2="60.3898" y2="622.2397" gradientTransform="matrix(1 0 0 -1 0 1069.8898)">
	<stop  offset="0" style="stop-color:#79BBDF;stop-opacity:0.69"/>
	<stop  offset="1" style="stop-color:#153E54;stop-opacity:0.78"/>
</linearGradient>
<path class="st24" d="M-33.4,554c2.5,2.1,5.5,3.9,9,4.4c3.4,0.5,7.3-3.9,11.3-4.4c4.4-0.5,10.6,6.9,15.9,8.4c3.5,1.1,6.7-4.4,8.7-3
	c4.8,3.5,1.8,7.6,4.6,9.1c5.8,3,9.7-2.8,18.1-11.1c3.7-3.7,8.3,3.9,12.8,1.4c1.1-0.5,3-8.1,5-9.1c2.3-1.2,4.8,4,5.8,2.6
	c3-4,1.2-8.1,3.2-6.9c3.9,2.5,2.5-3.7,6.7-7.7c2.3-2.1,9.2-0.4,12.2-3.3c5.5-5.4,8.3-13,15.1-16.2c4.1-1.9,9.4,0.7,17.7-1.8
	c22-6.3,12.8-9.7,32.6-32.3c20-22.7,0.5-12.1-5-17.4c-5.3-5.3-7.8-3.9-19,0.5c-11.2,4.4-10.3-6.3-16.7-7.7
	c-6.4-1.4-10.3,2.5-20,10.2c-9.7,7.7-17.5,4.9-26.4,6.9c-8.9,1.9-16.1-4.4-17.5,1.9c-1.4,6.3-5.8,10.7-8.9,8.8
	c-3-1.9-12.2,0.5-15.6,4.9c-3.4,4.4,4.4,4.4-7.3,7.2c-11.7,3-5.3,5.3-5.3,5.3c-3.9-1.1-26.4-3.9-21.4,7.7c5,11.6-5.8,7.7-11.2,6.3
	c-1.8-0.5-3.2,1.2-4.6,3.9V554L-33.4,554z"/>
<linearGradient id="SVGID_25_" gradientUnits="userSpaceOnUse" x1="527.879" y1="709.4128" x2="527.879" y2="530.4318" gradientTransform="matrix(1 0 0 -1 0 1069.8898)">
	<stop  offset="0" style="stop-color:#79BBDF;stop-opacity:0.69"/>
	<stop  offset="1" style="stop-color:#153E54;stop-opacity:0.78"/>
</linearGradient>
<path class="st25" d="M775.3,498.1c-3-3.2,2.3-45,6.7-48.2c23.4-18.1-2.8-29.9-6.7-37c-3.7-7.1-2.7-1.2-3.4,3.7
	c-0.7,5-1.9,6.4-3-1.6c-1.1-8-1.6-10.1-3.5-8.5c-1.9,1.6-2.1,0.5-2.5-6.2s-3.5-16.5-7.8-17.2c-4.2-0.5-6.9-8-11.2-15
	c-4.2-7.1-4.1-17.2-14.2-24.1c-10.1-7.1-4.4,6.2-8.7,17.2c-4.4,11-5.5,2.1-6.4-1.2c-0.9-3.4-7.3-1.1-7.8,0c-1.6,3-4.4,4.2-6.4-1.8
	c-1.9-6.2-3.7-1.2-11,4.2c-7.3,5.5-5.8,8.5-5.8,1.2s-20.9-2.8-20.4-4.2c0.4-1.6,1.9-2.8,0.2-7.3c-1.8-4.3-4.2-1.2-5.1,0.4
	c-0.9,1.6-0.5,0.5-3.4,4.8c-2.8,4.3-5.1,1.6-5.1-0.5s2.5-14.2-0.2-16.5c-2.7-2.5-6.4-4.4-8.7-5.1c-2.3-0.5-7.6,7.6-8,1.9
	c-0.4-5.5-3.7-5.5-6.2-5.5c-2.5,0-3.5-3.7-6-10.4c-2.5-6.7-5.1-4.6-11,0c-5.8,4.6-8,4.6-12.6,3.9c-4.6-0.5-4.4,1.8-6.6,3.4
	c-2.1,1.6-1.8-0.9-4.4,0c-2.5,0.9-0.5,12.6-1.8,9.7c-1.2-2.8-5.5-5-8.5-5.1c-3-0.4-6.4,2.8-9.7,3.7s-4.2,3-6.6,8.3
	c-2.5,5.1-5.5,10.4-8,15.9c-2.5,5.5-7.8,7.6-8.3,4.8c-0.5-2.8-7.3,5.5-9.7,4.6c-2.5-0.9-5.5,5-7.4,5.8c-1.9,0.9-3.5,0-3.4,4.2
	c0.2,4.3-6.7,7.4-7.3,10.3c-1.2,6,0.9,3.4-2.3,3c-3.2-0.4-7.1,5.7-10.8,5.7s-4.4,1.6-4.6,4.3c-0.4,2.8-6.6-0.4-6.7,1.8
	c-0.4,2.1-3,1.6-5.7,0.5c-2.7-0.9-2.5,0.4-2.3-3.5c0.2-3.9-4.4-0.4-5.8,2.3c-1.6,2.8,1.6,4.8-1.1,3.9c-2.7-0.9-3.4,0.7-4.1-2.3
	c-0.5-3-1.8,0.4-4.1-1.2c-2.3-1.6,3.7-3.4,2.1-9.9c-1.8-6.4-5-11.9-7.8-10.6c-2.8,1.2-2.3,5.1-3,3.7c-0.7-1.6-7.6,2.8-8.1,1.8
	c-0.5-0.9-3,0.4-4.2,3.7c-1.2,3.4-8,12.9-9.7,14.2c-1.8,1.2-2.7-0.7-4.4-8.7c-1.8-8-4.6-8.5-5.5-8.9c-0.9-0.4-8.5-3.5-9.4,1.1
	c-0.9,4.6-5.3,1.8-6.7-1.2c-1.4-3-3.7-1.2-5.8,3.7c-2.3,5-2.5,7.1-2.5,7.1c-8.7,8.9-6.9-1.4-10.4,4.6c-3.5,6.2-10.8,1.1-12,2.8
	c-1.1,1.8-6,1.1-6.9,2.8c-0.9,1.8-9.7,6.2-9.6,9.9c0.2,3.7,18.4,11.2,17.5,10.8c-0.9-0.4-4.2-0.4-4.8,3.2c-0.5,3.5-3,0.4-3.7,0.2
	c-0.7-0.4-3.2,0-4.1,2.1c-1.1,2.1-1.4,5.5-2.5,6.2c-1.1,0.5-1.6,1.6-1.1,3.9c0.4,2.3-0.4,2.3-1.1,5.7c-0.7,3.4-1.8,2.8-4.8,2.8
	c-3,0-6.5-5-6.7-3.4c-0.4,1.6-2.5,3.9-3,4.8c-0.5,0.9-1.8,1.2-2.1,0.4c-0.4-0.9-3,1.6-3.2,3.9c-0.4,2.5-1.6,1.6-1.6,1.6
	s-3,0-3.7,2.3c-0.7,2.3-2.8,1.4-4.4,0.5c-1.8-0.9-2.3-0.4-5.5,0c-3.2,0.4-5.7,5-5.7,5c-0.5,0.9-1.6,1.8-2.1-4.8
	c-0.2-1.6-6.7-3.9-11.7,0c-1.6,1.2-1.1,4.6-1.6,9.4c-0.4,3.4-4.1,1.8-4.1,1.8c-3.7-1.6-6.4-2.1-15.2,9
	c-8.9,11.3-11.2,20.9-22.3,25.7c-10.6,4.6,13.8,11.2,18.1,37.4h467.2c4.1-9.4,6.7-19.1,17-26.2C797.4,504.4,778.3,501.2,775.3,498.1
	z"/>
<linearGradient id="SVGID_26_" gradientUnits="userSpaceOnUse" x1="821.9111" y1="537.9778" x2="821.9111" y2="597.1058" gradientTransform="matrix(1 0 0 -1 0 1069.8898)">
	<stop  offset="0" style="stop-color:#79BBDF;stop-opacity:0.69"/>
	<stop  offset="1" style="stop-color:#153E54;stop-opacity:0.78"/>
</linearGradient>
<path class="st26" d="M885.8,531.9c-0.9-6.4,1.6-13.8-0.9-16.2c-2.7-2.5-16.5-7.1-19-4.6c-2.5,2.5-10.8,6.4-13.8,3.2
	c-3-3.2-6.2-10.1-10.8-7.5c-4.6,2.7-12.1-0.9-17-6.7c-5-6-9.9-1.1-18.3,10.8c0,0,1.6-24.7-1.8-30.5c-3.4-5.9-15.4,9.1-15.4,9.1
	s-3-6.6-7.1-7.6c-3.2-0.7-6.7,3.9-10.1,4.8c-4.3,1.2-8,9.9-8.5,10.3c-0.7,0.4,1.8,6.6,0.2,14.2c-2,9.2-6.2,20.8-5.3,27.2h122.5
	C883.5,535.6,886.2,533.9,885.8,531.9z"/>
<linearGradient id="SVGID_27_" gradientUnits="userSpaceOnUse" x1="512.7275" y1="477.8658" x2="513.6196" y2="585.0859" gradientTransform="matrix(1 0 0 -1 0 1069.8898)">
	<stop  offset="0" style="stop-color:#79BBDF;stop-opacity:0.69"/>
	<stop  offset="1" style="stop-color:#153E54;stop-opacity:0.78"/>
</linearGradient>
<path class="st27" d="M312.6,528.4c3.2,9-6.2,11-13.8,18.7c-7.4,7.7-13.1,9,0,13.6s13.1,9.3,8.2,13.6c-5,4.3,13.1-1.6,13.1-1.6
	s-7.4,9.7,8.2,17.6c15.8,7.7,32.6,18,36.3,5.9c3.7-12,6.9-17.1,13.1-14c6.2,3.1,17,4.3,19.5-1.3c2.5-5.4-7.4-9.3,3.2-11.7
	c10.6-2.3,11.9,4.7,20.7,3.1c8.9-1.6,8.9-6.3,11.3-8.3c2.5-2,13.1,0,20-3.6c6.9-3.6,10.6-2.3,13.8,2c3.2,4.3,10.6,6.6,17,6.6
	c6.2,0,14.4,7.4,17.5,9c3.2,1.6,15.1,4.3,17.5-3.1c2.5-7.4,10.1-12,13.8-9.7c3.7,2.3,18.8,5.4,26.4,11.7c7.4,6.3,19.5-1.6,23.9,3.1
	c4.4,4.7,18.3,12.7,26.4,13.6c8.2,0.7,29.4-3.4,31.4-13.6c1.9-10.1-7.4-20.6,10.1-19s78.5-1.1,83.5-10.1c5-9-5-25.7-15.8-29.3
	c-8.9-2.9-27.1-2.3-27.3-10.2H332.5c-0.2,0-0.4,0-0.5,0.2C318.8,514.7,309.4,519.4,312.6,528.4z"/>
<linearGradient id="SVGID_28_" gradientUnits="userSpaceOnUse" x1="148.5284" y1="420.7808" x2="148.5284" y2="622.0997" gradientTransform="matrix(1 0 0 -1 0 1069.8898)">
	<stop  offset="0" style="stop-color:#79BBDF;stop-opacity:0.69"/>
	<stop  offset="1" style="stop-color:#153E54;stop-opacity:0.78"/>
</linearGradient>
<path class="st28" d="M-24.4,648.6c6.2,6,16.6,8.2,19.1-2.3c2.5-10.5-7.4-18,3-22.4c10.6-4.4,11.9,8.9,20.4,6
	c8.7-3,8.7-11.9,11.2-15.6c2.5-3.7,12.9,0,19.8-6.8c6.7-6.8,10.4-4.4,13.6,3.7c3,8.2,10.4,12.6,16.6,12.6c6.2,0,14.2,14.2,17.4,17.1
	c3.2,3,14.9,8.2,17.4-6c2.5-14.2,9.9-23.1,13.6-18.7c3.7,4.4,18.6,10.5,26,22.4c7.4,11.9,19.1-3,23.6,6c1.8,3.7,12,5.9,15.9,10.5
	c5.5,6.4,5.5,14.8,10.1,15.6c3.7,0.7,9.9-19.4,15.9-22.9c7.3-4.1,14,7.5,15.1-3.2c1.8-19.4-7.4-39.5,9.9-36.5
	c8.7,1.4,28,17.1,45.9,14c8.7-1.4,8-9.8,14.5-16.5c3.7-3.9,9.7,3.6,14.3,0.5c3.9-2.5,7.1-15.5,7.6-17.4c1.6-5.5,6.4-15.5,5-26.8
	c-0.5-5-7.8-10.1-7.8-15.5c0-6.6-6.2-13.2-5.8-19c0.9-12.3,8.5-21.9,4.6-24.4c-10.4-6.8-27.1,10.7-36.3-0.7c-8-10-5.1-21.7-0.5-33.3
	H-34.8v192C-32,648.6-29.1,644-24.4,648.6z"/>
<linearGradient id="SVGID_29_" gradientUnits="userSpaceOnUse" x1="978.4466" y1="537.2168" x2="978.4466" y2="589.3068" gradientTransform="matrix(1 0 0 -1 0 1069.8898)">
	<stop  offset="0" style="stop-color:#79BBDF;stop-opacity:0.69"/>
	<stop  offset="1" style="stop-color:#153E54;stop-opacity:0.78"/>
</linearGradient>
<path class="st29" d="M1039.2,532.5c-12.4-1.4-15.7-8.8-23.3-13.8c-7.6-4.8-8.3-14.3-13.8-10.9c-5.5,3.4-11.7,3.4-12.4,0
	c-0.7-3.4-8.8-8.3-14.3-7.6c-5.5,0.7,0,6.2-10.3,0c-10.3-6.2-7.6,0-7.6,0c-2.1-3.4-15.7-21.2-20.5-9.5c-4.8,11.6-9.6,1.4-12.4-3.4
	c-2.7-4.8-19.3,6.2-24.8,10.2c-5.5,4.1-1.4,17.1,10.3,25.9c5.3,4.1,7.4,9.5,8.5,14.8h141C1056.4,533.7,1050.7,533.7,1039.2,532.5z"
	/>
<linearGradient id="SVGID_30_" gradientUnits="userSpaceOnUse" x1="979.8565" y1="488.2737" x2="979.8565" y2="557.2578" gradientTransform="matrix(1 0 0 -1 0 1069.8898)">
	<stop  offset="0" style="stop-color:#79BBDF;stop-opacity:0.69"/>
	<stop  offset="1" style="stop-color:#153E54;stop-opacity:0.78"/>
</linearGradient>
<path class="st30" d="M870.7,528.4c-3.4,2.6,2.3,5.3-0.5,7.6c-6.2,5.1-19.5,9.3-19.7,12.2c-0.5,8.8-8.5,20.3-3.7,22.5
	c2,1.1,3.6,6.2,10.3,4.6c5-1.2,14.9-9.2,19.5-9.7c4.3-0.5,7.8,5.5,9.6,4.1c6.4-4.6,25.9-13.6,31.3-10.2s9.8,12,20.8,6.3
	s25.9-3.7,34.6,2.8c5.5,4,5.9,1.9,16.2-5.3c1.6-1.2,5.1,4.2,8.7,2.8c3.2-1.2,6.2-9.3,8-10.7c3.4-2.8,6.4-7,10.8-5.1
	c0,0,1.3,4.8-1.2,14.6c-2.5,9.7-8.5,20.1-5.9,23.4c2.5,3.2,6.2-4.2,14.2-7.4c3.7-1.4,11.9,3.3,14.9,1.1c4.6-3.5,7.8-12.9,7.8-12.9
	s4.3,8.3,12.6,7.9c6.6-0.2,16.2-8.1,23.6-10.7c9.9-3.5,21-17.3,22.4-18c1.6-0.9-1.6-8.5,4.8-20.1c1.4-2.6,3.2-5.5,4.8-8.3H885.1
	c-0.4,0.9-0.9,1.8-1.6,2.5C881.9,524.7,873,526.7,870.7,528.4z"/>
<linearGradient id="SVGID_31_" gradientUnits="userSpaceOnUse" x1="826.8466" y1="563.7067" x2="826.8466" y2="612.9808" gradientTransform="matrix(1 0 0 -1 0 1069.8898)">
	<stop  offset="0" style="stop-color:#79BBDF;stop-opacity:0.69"/>
	<stop  offset="1" style="stop-color:#153E54;stop-opacity:0.78"/>
</linearGradient>
<path class="st31" d="M829.8,496.7c-5.8,2.7-9,3.4-9.9,0c-0.9-3.4-3.3-6.4-5.8-6.4s-2.5-3.4-3.2-5.4c-0.7-2-4.9-2.3-6.5-2
	c-1.6,0.4-6.5-4.5-7.1-6.1c-0.7-1.4,1.9-3.7,2.8-6.4c0.9-2.7,7.1-10.2,11.8-7.9c4.6,2.3,7.4,14.6,10.8,11.2c3.3-3.4,2.1-8.7,3.3-8.2
	c1.2,0.4,5.3,3,5.6,4.1c0.4,1.1,6.5,2.7,7.4-0.4c0.9-3,5.8-2.7,8.1,1.1c2.1,3.7-2.8,13.9,0,14.6c2.8,0.7,6,5.4,8.5,9.8
	c2.5,4.5-1.1,16.6-10.2,16.6c-0.9,0-6.9-7.1-12-7.1s-8.5,7.1-8.6,4.1C824.1,505.6,829.8,496.7,829.8,496.7z"/>
<linearGradient id="SVGID_32_" gradientUnits="userSpaceOnUse" x1="1075.0464" y1="552.4247" x2="1075.0464" y2="601.6987" gradientTransform="matrix(1 0 0 -1 0 1069.8898)">
	<stop  offset="0" style="stop-color:#79BBDF;stop-opacity:0.69"/>
	<stop  offset="1" style="stop-color:#153E54;stop-opacity:0.78"/>
</linearGradient>
<path class="st32" d="M1072.2,488.4c5.8-2.7,9-3.4,9.9,0c0.9,3.4,3.4,6.4,5.8,6.4c2.5,0,2.5,3.4,3,5.2c0.7,2,4.9,2.3,6.5,2
	c1.6-0.4,6.5,4.5,7.1,6.1c0.7,1.4-1.8,3.7-2.8,6.4c-0.9,2.7-7.1,10.2-11.8,7.9c-4.6-2.3-7.4-14.6-10.8-11.2
	c-3.4,3.4-2.1,8.6-3.4,8.2c-1.2-0.4-5.3-3-5.7-4.1c-0.3-1.1-6.5-2.7-7.4,0.4c-0.9,3-5.8,2.7-8.1-1.1c-2.1-3.7,2.8-13.9,0-14.6
	c-2.8-0.7-6-5.2-8.3-9.8c-2.5-4.5,1.1-16.6,10.3-16.6c0.9,0,6.9,7.1,12,7.1c5.1,0,8.3-7.1,8.7-4.1
	C1077.8,479.3,1072.2,488.4,1072.2,488.4z"/>
<linearGradient id="SVGID_33_" gradientUnits="userSpaceOnUse" x1="702.7476" y1="610.2448" x2="702.7476" y2="659.5187" gradientTransform="matrix(1 0 0 -1 0 1069.8898)">
	<stop  offset="0" style="stop-color:#79BBDF;stop-opacity:0.69"/>
	<stop  offset="1" style="stop-color:#153E54;stop-opacity:0.78"/>
</linearGradient>
<path class="st33" d="M705.7,450.2c-5.8,2.7-9,3.4-9.9,0s-3.3-6.4-5.8-6.4s-2.5-3.4-3.2-5.4c-0.7-2-4.9-2.3-6.5-2
	c-1.6,0.4-6.5-4.5-7.1-6.1c-0.7-1.4,1.9-3.7,2.8-6.4c0.9-2.7,7.1-10.2,11.8-7.9c4.6,2.3,7.4,14.6,10.8,11.2c3.3-3.4,2.1-8.7,3.3-8.2
	c1.2,0.4,5.3,3,5.6,4.1c0.4,1.1,6.5,2.7,7.4-0.4c0.9-3,5.8-2.7,8.1,1.1c2.1,3.7-2.8,13.9,0,14.6c2.8,0.7,6,5.4,8.5,9.8
	c2.5,4.5-1.1,16.6-10.2,16.6c-0.9,0-6.9-7.1-12-7.1s-8.5,7.1-8.6,4.1C700,459.1,705.7,450.2,705.7,450.2z"/>
<linearGradient id="SVGID_34_" gradientUnits="userSpaceOnUse" x1="394.6128" y1="572.1678" x2="394.6128" y2="621.4418" gradientTransform="matrix(1 0 0 -1 0 1069.8898)">
	<stop  offset="0" style="stop-color:#79BBDF;stop-opacity:0.69"/>
	<stop  offset="1" style="stop-color:#153E54;stop-opacity:0.78"/>
</linearGradient>
<path class="st34" d="M397.6,488.2c-6,2.7-9.2,3.4-10.1,0c-0.9-3.4-3.4-6.4-6-6.4c-2.5,0-2.5-3.4-3.2-5.4c-0.7-2-5.1-2.3-6.7-2
	c-1.6,0.4-6.7-4.5-7.2-6.1c-0.7-1.4,2-3.7,2.9-6.4c0.9-2.7,7.2-10.2,12.1-7.9c4.7,2.3,7.6,14.6,11,11.2c3.4-3.4,2.2-8.7,3.4-8.2
	c1.3,0.4,5.4,3,5.8,4.1c0.4,1.1,6.7,2.7,7.6-0.4c0.9-3,6-2.7,8.3,1.1c2.2,3.7-2.9,13.9,0,14.6c2.9,0.7,6.1,5.4,8.7,9.8
	c2.5,4.5-1.1,16.6-10.5,16.6c-0.9,0-7-7.1-12.3-7.1s-8.7,7.1-8.8,4.1C391.8,497.3,397.6,488.2,397.6,488.2z"/>
<linearGradient id="SVGID_35_" gradientUnits="userSpaceOnUse" x1="549.0325" y1="594.1647" x2="549.0325" y2="625.1368" gradientTransform="matrix(1 0 0 -1 0 1069.8898)">
	<stop  offset="0" style="stop-color:#79BBDF;stop-opacity:0.69"/>
	<stop  offset="1" style="stop-color:#153E54;stop-opacity:0.78"/>
</linearGradient>
<path class="st35" d="M567.1,473c0,0,2,1.7-2.5,1.3c-4.5-0.4-1.6,0.6-3.4,1.8c-1.6,1.1-5.2,0.9-5.9,0c-0.7-1.1-2.9,0-4,2.2
	c-1.3,2-3.1-0.9-6.3-1.3c-3.2-0.4-5.8-2.2-9.9-0.6c-4.3,1.7-6.1,2.6-8.1,1.5c-2-1.3-0.5-5-4.9-4.6c-4.5,0.4-5.4,0.6-6.7-2
	c-1.3-2.6-9.4-0.9,0.2-6.8c9.6-5.9,6.7-8.3,15.1-7.9c8.5,0.2,9.4-0.6,13.5-2.8c4-2.2,6.3-3.9,7.9-1.8c1.6,2,6.8,0.7,10.8-1.3
	c3.8-2,5.8-3.7,7.6-2s3.2,7.5,8.6,8.7c5.4,0.9,8.8,4.6,7.7,7c-1.1,2.4-4.7,8.8-6.3,7.7c-1.8-1.1-5-3.7-4.7,0.9
	C575.9,477.4,568.3,473.8,567.1,473z"/>
<linearGradient id="SVGID_36_" gradientUnits="userSpaceOnUse" x1="384.0359" y1="448.4548" x2="384.0359" y2="475.2038" gradientTransform="matrix(1 0 0 -1 0 1069.8898)">
	<stop  offset="0" style="stop-color:#79BBDF;stop-opacity:0.69"/>
	<stop  offset="1" style="stop-color:#153E54;stop-opacity:0.78"/>
</linearGradient>
<path class="st36" d="M395.8,611.4c0,0,1.4,0.4-1.1,1.3c-2.5,0.9-0.7,0.7-1.4,1.8c-0.5,1.1-2.5,1.8-3.2,1.6
	c-0.7-0.4-1.4,0.7-1.6,2.2c-0.2,1.4-2,0.2-3.7,0.9c-1.8,0.7-3.6,0.4-5.5,2.3c-2,2-2.7,2.9-4.1,2.9c-1.4-0.2-1.6-2.5-3.7-1.3
	c-2.3,1.3-2.8,1.6-4.1,0.7c-1.2-1.1-5.2,2-1.6-3.8c3.7-5.6,1.6-6.1,6-8.1c4.6-2,5-2.7,6.6-4.8c1.6-2.2,2.5-3.8,3.7-3.1
	c1.4,0.7,3.9-1.4,5.5-3.4c1.6-2,2.1-3.4,3.6-3.1c1.4,0.5,3.7,3.2,6.8,2.3c3-0.9,5.9,0.2,5.9,1.6s-0.4,5.9-1.4,5.7
	c-1.2-0.2-3.6-0.7-2.3,1.8C401.6,611.6,396.7,611.6,395.8,611.4z"/>
<linearGradient id="SVGID_37_" gradientUnits="userSpaceOnUse" x1="100.5816" y1="482.3008" x2="100.5816" y2="509.0488" gradientTransform="matrix(1 0 0 -1 0 1069.8898)">
	<stop  offset="0" style="stop-color:#79BBDF;stop-opacity:0.69"/>
	<stop  offset="1" style="stop-color:#153E54;stop-opacity:0.78"/>
</linearGradient>
<path class="st37" d="M112.3,577.7c0,0,1.4,0.4-1.1,1.3c-2.5,0.9-0.7,0.7-1.4,1.8c-0.5,1.1-2.5,1.8-3.2,1.4
	c-0.7-0.4-1.4,0.7-1.6,2.2c-0.2,1.4-2,0.2-3.7,0.9c-1.8,0.7-3.6,0.4-5.5,2.3s-2.7,2.9-4.1,2.9c-1.4-0.2-1.6-2.5-3.7-1.3
	c-2.3,1.3-2.8,1.6-4.1,0.7c-1.2-1.1-5.2,2-1.6-3.8c3.7-5.6,1.6-6.1,6-8.1c4.6-2,5-2.7,6.6-4.8c1.6-2.2,2.5-3.8,3.7-3.1
	c1.4,0.7,3.9-1.4,5.5-3.4c1.6-2,2.1-3.4,3.6-3c1.4,0.5,3.7,3.2,6.8,2.3c3-0.9,5.9,0.2,5.9,1.6c0,1.4-0.4,5.9-1.4,5.7
	c-1.2-0.2-3.6-0.7-2.3,1.8C118,577.7,113.2,577.7,112.3,577.7z"/>
<linearGradient id="SVGID_38_" gradientUnits="userSpaceOnUse" x1="-5.1862" y1="606.2477" x2="-5.1862" y2="631.5887" gradientTransform="matrix(1 0 0 -1 0 1069.8898)">
	<stop  offset="0" style="stop-color:#79BBDF;stop-opacity:0.69"/>
	<stop  offset="1" style="stop-color:#153E54;stop-opacity:0.78"/>
</linearGradient>
<path class="st38" d="M6.4,454.1c0,0,1.4,0.3-1.1,1.2c-2.5,0.8-0.7,0.7-1.4,1.7c-0.5,1-2.5,1.7-3.2,1.5c-0.7-0.3-1.4,0.7-1.6,2
	c-0.2,1.4-1.9,0.2-3.7,0.9c-1.8,0.7-3.5,0.3-5.5,2.2s-2.7,2.7-4.1,2.7c-1.4-0.2-1.6-2.4-3.7-1.2c-2.3,1.2-2.8,1.5-4.1,0.7
	c-1.2-1-5.1,1.9-1.6-3.6c3.7-5.3,1.6-5.8,6.2-7.7c4.6-1.9,5-2.5,6.5-4.6c1.6-2,2.5-3.6,3.7-2.9c1.4,0.7,3.9-1.4,5.5-3.2
	c1.6-1.9,2.1-3.2,3.5-2.9c1.4,0.5,3.5,3.1,6.7,2.2c3-0.9,5.8,0.2,5.8,1.5c0,1.4-0.4,5.6-1.4,5.4c-1.2-0.2-3.5-0.7-2.3,1.7
	C12.3,454.1,7.3,454.1,6.4,454.1z"/>
<linearGradient id="SVGID_39_" gradientUnits="userSpaceOnUse" x1="1044.0209" y1="682.5527" x2="1044.0209" y2="709.3008" gradientTransform="matrix(1 0 0 -1 0 1069.8898)">
	<stop  offset="0" style="stop-color:#79BBDF;stop-opacity:0.69"/>
	<stop  offset="1" style="stop-color:#153E54;stop-opacity:0.78"/>
</linearGradient>
<path class="st39" d="M1055.8,377.5c0,0,1.4,0.4-1.1,1.3c-2.5,0.9-0.7,0.7-1.4,1.8c-0.5,1.1-2.5,1.8-3.2,1.4
	c-0.7-0.4-1.4,0.7-1.6,2.2c-0.2,1.4-2,0.2-3.7,0.9c-1.8,0.7-3.6,0.4-5.5,2.3c-2,2-2.7,2.9-4.1,2.9c-1.4-0.2-1.6-2.5-3.7-1.3
	c-2.3,1.3-2.8,1.6-4.1,0.7c-1.2-1.1-5.1,2-1.6-3.8c3.7-5.6,1.6-6.1,6-8.1c4.6-2,5-2.7,6.6-4.8c1.6-2.2,2.5-3.8,3.7-3.1
	c1.4,0.7,3.9-1.4,5.5-3.4c1.6-2,2.1-3.4,3.5-3c1.4,0.5,3.7,3.2,6.8,2.3c3-0.9,5.9,0.2,5.9,1.6c0,1.4-0.3,5.9-1.4,5.7
	c-1.2-0.2-3.6-0.7-2.3,1.8C1061.5,377.5,1056.7,377.5,1055.8,377.5z"/>
<linearGradient id="SVGID_40_" gradientUnits="userSpaceOnUse" x1="142.1825" y1="576.2057" x2="142.1825" y2="636.7427" gradientTransform="matrix(1 0 0 -1 0 1069.8898)">
	<stop  offset="0" style="stop-color:#79BBDF;stop-opacity:0.69"/>
	<stop  offset="1" style="stop-color:#153E54;stop-opacity:0.78"/>
</linearGradient>
<path class="st40" d="M152.5,482.4c-5.4,6.7-8.6,9.6-11.8,6.2s-8.1-5.3-11.1-3.9c-3,1.6-5-2.5-7-4.3c-2-1.8-7.4,0.4-9,1.8
	c-1.6,1.4-10.6-1.2-12.2-2.7c-1.6-1.4-0.2-5.5-0.7-9.2c-0.4-2.1,6.3-4.3,8.2-8.2c1.4-3-2.2-8.3,0.9-8.5c7-0.2,18.1,12.6,20.1,6.6
	c2-6-2.7-11.5-1.1-11.9c1.8-0.4,8.3,0.2,9.3,1.4c1.1,1.1,9.5-0.9,8.6-5.1c-0.7-4.1,5.4-6.7,10.4-3.7c5,3,5.4,18.1,9.1,17.2
	c3.8-0.9,10.4,2.5,16.1,6.2c3.4,2.3-0.5,11-2.2,17.7c-1.1,4.4,0.5,7.8,0.2,8.2c-0.4,0.2-2.7,5.1-5.6,5.9c-2.2,0.5-4.5,3.2-6.5,2.7
	c-2.7-0.5-4.7-4.4-4.7-4.4s-7.7,8.5-10,5.1C151.4,496.4,152.5,482.4,152.5,482.4z"/>
<linearGradient id="SVGID_41_" gradientUnits="userSpaceOnUse" x1="578.6475" y1="650.9478" x2="578.6475" y2="711.4847" gradientTransform="matrix(1 0 0 -1 0 1069.8898)">
	<stop  offset="0" style="stop-color:#79BBDF;stop-opacity:0.69"/>
	<stop  offset="1" style="stop-color:#153E54;stop-opacity:0.78"/>
</linearGradient>
<path class="st41" d="M588.6,407.5c-5.3,6.7-8.5,9.6-11.6,6.2c-3.2-3.4-7.9-5.3-10.8-3.9c-3,1.6-4.9-2.5-6.9-4.3
	c-1.9-1.8-7.2,0.4-8.8,1.8c-1.6,1.4-10.4-1.2-12-2.7c-1.6-1.4-0.2-5.5-0.7-9.2c-0.4-2.1,6.2-4.3,8.1-8.2c1.4-3-2.1-8.3,0.9-8.5
	c6.9-0.2,17.8,12.6,19.7,6.6c1.9-6-2.6-11.5-1.1-11.9c1.8-0.4,8.1,0.2,9.2,1.4c1.1,1.1,9.3-0.9,8.5-5c-0.7-4.1,5.3-6.7,10.2-3.7
	c4.9,3,5.3,18.1,9,17.2c3.7-0.9,10.2,2.5,15.9,6.2c3.4,2.3-0.5,11-2.1,17.7c-1.1,4.4,0.5,7.8,0.2,8.2c-0.4,0.2-2.6,5.1-5.5,5.9
	c-2.1,0.5-4.4,3.2-6.3,2.7c-2.6-0.5-4.6-4.4-4.6-4.4s-7.6,8.5-9.9,5.1C587.5,421.7,588.6,407.5,588.6,407.5z"/>
<linearGradient id="SVGID_42_" gradientUnits="userSpaceOnUse" x1="1044.0212" y1="567.7448" x2="1044.0212" y2="628.2808" gradientTransform="matrix(1 0 0 -1 0 1069.8898)">
	<stop  offset="0" style="stop-color:#79BBDF;stop-opacity:0.69"/>
	<stop  offset="1" style="stop-color:#153E54;stop-opacity:0.78"/>
</linearGradient>
<path class="st42" d="M1054,490.9c-5.3,6.7-8.5,9.6-11.6,6.2c-3.2-3.4-7.9-5.3-10.8-3.9c-3,1.6-4.9-2.5-6.9-4.3
	c-1.9-1.8-7.2,0.4-8.8,1.8c-1.6,1.4-10.4-1.2-12-2.7c-1.6-1.4-0.2-5.5-0.7-9.2c-0.4-2.1,6.2-4.3,8.1-8.2c1.4-3-2.1-8.3,0.9-8.5
	c6.9-0.2,17.8,12.6,19.7,6.6c1.9-6-2.7-11.5-1.1-11.9c1.8-0.4,8.1,0.2,9.2,1.4c1,1.1,9.3-0.9,8.5-5.1c-0.7-4.1,5.3-6.7,10.2-3.7
	c4.9,3,5.3,18.1,9,17.2c3.7-0.9,10.2,2.5,15.9,6.2c3.3,2.3-0.5,11-2.1,17.7c-1.1,4.4,0.5,7.8,0.2,8.2c-0.3,0.2-2.6,5.1-5.5,5.9
	c-2.1,0.5-4.4,3.2-6.5,2.7c-2.6-0.5-4.6-4.4-4.6-4.4s-7.6,8.5-9.9,5.1C1052.9,504.9,1054,490.9,1054,490.9z"/>
<linearGradient id="SVGID_43_" gradientUnits="userSpaceOnUse" x1="836.0684" y1="694.6235" x2="82.7914" y2="654.7854" gradientTransform="matrix(1 0 0 -1 0 1069.8898)">
	<stop  offset="0" style="stop-color:#020C11"/>
	<stop  offset="1" style="stop-color:#002563;stop-opacity:0"/>
</linearGradient>
<path class="st43" d="M68.3,532.3c0.7-0.7,4.4-2.2,11.4-4.4c7.7-2.9,11.7-4.4,11.7-4.4c40.7-13.9,85.1-18.3,85.1-18.3
	c44.7-4.4,53.5,3.3,118.4,3.3c46.6,0,74.8,0,113.3-7.7c22.7-4.8,57.6-11.7,97.5-32.3c35.9-18.3,40.7-29.7,73-39.6
	c9.5-2.9,36.7-11,71.9-8.4c33.4,2.2,36.7,11.7,66.7,11.7c13.9,0,39.2,0,64.5-15.4c36.7-22.4,46.6-60.1,48-66
	c2.6-10.3,7-28.6-0.7-49.9c-9.5-26.8-31.2-39.2-35.6-41.4c-8.4-4.8-28.6-15.4-50.6-7c-16.9,6.6-25.3,20.5-27.9,26
	c-3.3,6.6-11.4,22.7-3.3,35.6c4.8,7.7,14.3,12.5,23.5,12.5c1.5,0,10.3-0.4,16.1-7c2.9-3.3,5.5-8.8,4-10.3c-1.8-2.2-9.2,2.9-10.3,1.5
	c-1.1-1.5,3.3-10.3,9.5-10.3c5.9,0,10.3,6.6,11,12.5c1.1,8.4-5.9,14.7-8.4,16.9c-11.4,10.3-27.1,8.1-29.7,7.7
	c-15.8-2.2-25.3-13.2-27.1-15.4c-12.1-15-9.5-32.6-9.2-36.3c2.9-21.6,19.4-34.1,26-38.9c20.5-15.4,43.3-15.4,54.3-15.4
	c8.4,0,36.7,0.4,62.7,20.2c20.9,15.8,29.3,34.8,33.7,44.7c4,9.2,13.2,31.5,9.2,60.1c-3.7,23.8-14.7,40-23.8,53.2
	c-5.5,7.7-20.2,27.1-45.5,43.3c-22.4,14.3-41.4,19.4-61.6,24.6c-20.9,5.5-34.1,8.8-51.7,7c-18-1.8-19.4-6.6-44.7-11
	c-9.9-1.8-26.4-4.8-47.3-3.3c-26.8,1.8-46.6,9.9-58.3,15c-24.6,10.3-23.1,15-51,28.6c-29,13.9-53.2,19.8-59.4,21.3
	c-23.8,4-42.2,4.8-67.8,5.5c-25.3,0.7-43.6,0-66-1.5c-58.3-3.3-65.3-7.7-95.7-4.4c-12.8,1.5-24.2,3.3-46.6,7.7
	c0,0-26.4,5.1-56.8,12.5c-9.5,2.2-14.7,3.7-16.1,4c-9.9,2.9-11.7,4.8-14.3,3.7C62.8,559.4,60.6,539.3,68.3,532.3z"/>
<linearGradient id="SVGID_44_" gradientUnits="userSpaceOnUse" x1="903.6784" y1="511.1979" x2="102.7084" y2="412.1848" gradientTransform="matrix(1 0 0 -1 0 1069.8898)">
	<stop  offset="0" style="stop-color:#020C11"/>
	<stop  offset="1" style="stop-color:#002563;stop-opacity:0"/>
</linearGradient>
<path class="st44" d="M73.1,608.2c1.5-3.3,5.1-4,33.4-10.6c21.3-5.1,16.9-4.4,22-5.5c0,0,31.2-6.6,60.9-9.9
	c48-4.8,122.1,8.8,209.8,14.3c55,3.3,83.2,4.8,119.2-2.6c30.1-6.2,35.2-12.1,104.9-40c67.8-27.1,102.7-41.1,150-50.6
	c74.1-14.7,105.2-4.4,119.2,1.5c14.7,6.2,52.8,21.6,56.8,53.2c5.9,43.6-58.3,78.5-62,75.2c-2.9-2.9,33.4-30.1,27.1-60.9
	c-4.8-22.7-30.8-37.4-49.1-42.5c-18.7-5.5-34.5-2.9-64.5,5.1c-55,14.3-82.9,21.6-126.9,42.5c-51.7,24.6-45.8,30.1-84,45.5
	c-10.6,4-52.4,20.2-110,24.6c-37,2.9-64.2-0.7-119.2-7.7c-60.9-8.1-101.6-18-144.8-16.9c-14.3,0.4-38.5,2.2-61.6,6.6
	c-10.3,1.8-16.1,2.9-24.6,5.5c-16.5,4.8-18.7,7.7-24.9,7.3C86.3,640.8,68.7,618.1,73.1,608.2z"/>
<linearGradient id="SVGID_45_" gradientUnits="userSpaceOnUse" x1="540.8928" y1="654.7429" x2="88.0319" y2="609.9969" gradientTransform="matrix(1 0 0 -1 0 1069.8898)">
	<stop  offset="0" style="stop-color:#020C11"/>
	<stop  offset="1" style="stop-color:#002563;stop-opacity:0"/>
</linearGradient>
<path class="st45" d="M99.1,447.9c26.4-16.5,56.1-22,93.5-22.4c56.8,0,59,12.8,114,14.3c30.8,0.7,62.7,1.8,99.7-12.1
	c38.5-14.7,42.5-30.1,86.9-45.5c37.4-12.8,67.5-10.3,73.3-11.4c-3.7,3.7-24.9,7.3-58.7,26c-35.2,19.8-35.6,31.2-67.5,49.9
	c-8.1,4.8-38.1,21.6-80.7,28.6c-40.7,6.6-73.7,0.4-94.2-3.7c-38.1-7.3-37.4-14.7-71.9-18.3c-17.2-2.6-44-5.1-75.9,2.9
	c-25.7,6.6-38.1,15-44.4,14.3C78.2,467.8,85.6,456,99.1,447.9z"/>
<linearGradient id="SVGID_46_" gradientUnits="userSpaceOnUse" x1="586.9942" y1="409.1194" x2="161.1322" y2="365.0424" gradientTransform="matrix(1 0 0 -1 0 1069.8898)">
	<stop  offset="0" style="stop-color:#020C11"/>
	<stop  offset="1" style="stop-color:#002563;stop-opacity:0"/>
</linearGradient>
<path class="st46" d="M148.3,652.9c4-1.8,47.7-12.8,102.3-6.6c67.5,7.3,71.5,29.3,137.1,40.7c26,4.4,92.4,15.8,157.7-13.9
	c39.6-18,62-36.3,67.1-40c-2.9,6.6-15,34.8-42.5,57.2c-33.4,27.1-70.4,35.2-90.6,37.8c-38.9,5.1-68.9-3.7-95.7-11.4
	c-35.9-10.3-37-17.2-85.1-32.6c-6.6-2.2-33.7-10.6-70.4-18C176.1,655.9,153.8,654.4,148.3,652.9z"/>
<linearGradient id="SVGID_47_" gradientUnits="userSpaceOnUse" x1="533.0565" y1="784.4338" x2="308.2445" y2="774.0328" gradientTransform="matrix(1 0 0 -1 0 1069.8898)">
	<stop  offset="0" style="stop-color:#020C11"/>
	<stop  offset="1" style="stop-color:#002563;stop-opacity:0"/>
</linearGradient>
<path class="st47" d="M302.5,347c24.5-11.8,41.7-31.5,105-46.2c55.7-12.7,84.6,3.2,113.9-22.6c19.7-17.2,23.5-38.5,24.2-44.2
	c-2.9,4.1-20.4,31.2-58.2,46.5c-22.9,9.2-26.4,1-77.9,8c-52.8,7-70.9,18.5-79.8,25.5C314,325.4,312.1,336.8,302.5,347z"/>
<linearGradient id="SVGID_48_" gradientUnits="userSpaceOnUse" x1="764.9214" y1="347.7168" x2="465.6924" y2="322.1938" gradientTransform="matrix(1 0 0 -1 0 1069.8898)">
	<stop  offset="0" style="stop-color:#020C11"/>
	<stop  offset="1" style="stop-color:#002563;stop-opacity:0"/>
</linearGradient>
<path class="st48" d="M456.5,767c51.3-26.2,92.8-31.4,122.4-31.1c32.4,0.3,48.1,7.3,92.1,3.1c53.4-4.9,74.3-19.5,82.6-26.2
	c17.4-14,25.1-20.9,27.9-27.9c0.7,4.9-2.1,32.1-22.3,52.7c-24.4,24.8-60,26.2-79.5,27.2c-38.4,1.7-43.2-10.5-84.4-8.4
	c-24.8,1.4-33.5-1.4-63.1,2.4C498.4,763.2,476.1,767,456.5,767z"/>
</svg>
