<?xml version="1.0" encoding="utf-8"?>
<!-- Generator: Adobe Illustrator 23.0.5, SVG Export Plug-In . SVG Version: 6.00 Build 0)  -->
<svg version="1.1" id="Слой_1" xmlns="http://www.w3.org/2000/svg" xmlns:xlink="http://www.w3.org/1999/xlink" x="0px" y="0px"
	 width="1072.3px" height="1071px" viewBox="0 0 1072.3 1071" style="enable-background:new 0 0 1072.3 1071;" xml:space="preserve"
	>
<style type="text/css">
	.st0{fill:url(#SVGID_1_);}
	.st1{fill:url(#SVGID_2_);}
	.st2{fill:url(#SVGID_3_);}
	.st3{fill:url(#SVGID_4_);}
	.st4{fill:url(#SVGID_5_);}
	.st5{fill:url(#SVGID_6_);}
	.st6{fill:url(#SVGID_7_);}
	.st7{fill:url(#SVGID_8_);}
	.st8{fill:url(#SVGID_9_);}
	.st9{fill:url(#SVGID_10_);}
	.st10{fill:#FFFFFF;}
</style>
<linearGradient id="SVGID_1_" gradientUnits="userSpaceOnUse" x1="536.16" y1="1069.8898" x2="536.16" y2="-1.1102" gradientTransform="matrix(1 0 0 -1 0 1069.8898)">
	<stop  offset="0" style="stop-color:#6CA2F3"/>
	<stop  offset="1" style="stop-color:#F9F3F6"/>
</linearGradient>
<rect y="0" class="st0" width="1072.3" height="1071"/>
<linearGradient id="SVGID_2_" gradientUnits="userSpaceOnUse" x1="536.16" y1="1069.8898" x2="536.16" y2="-1.1102" gradientTransform="matrix(1 0 0 -1 0 1069.8898)">
	<stop  offset="0" style="stop-color:#002566"/>
	<stop  offset="1" style="stop-color:#002D3E"/>
</linearGradient>
<rect y="0" class="st1" width="1072.3" height="1071"/>
<linearGradient id="SVGID_3_" gradientUnits="userSpaceOnUse" x1="1068.7526" y1="658.7561" x2="-58.8627" y2="658.7522" gradientTransform="matrix(1 0 0 -1 0 1069.8898)">
	<stop  offset="0" style="stop-color:#FEFEFE;stop-opacity:0"/>
	<stop  offset="1" style="stop-color:#FFFFFF"/>
</linearGradient>
<rect x="-34.2" y="409.2" class="st2" width="1052.6" height="3.9"/>
<linearGradient id="SVGID_4_" gradientUnits="userSpaceOnUse" x1="1168.4526" y1="654.8062" x2="-40.9139" y2="654.8022" gradientTransform="matrix(1 0 0 -1 0 1069.8898)">
	<stop  offset="0" style="stop-color:#FEFEFE;stop-opacity:0"/>
	<stop  offset="1" style="stop-color:#FFFFFF"/>
</linearGradient>
<rect x="-14.5" y="413.1" class="st3" width="1128.9" height="3.9"/>
<linearGradient id="SVGID_5_" gradientUnits="userSpaceOnUse" x1="1948.8328" y1="1067.2811" x2="738.0615" y2="1067.2782" gradientTransform="matrix(-1 0 0 -1 1847.3761 1214.6188)">
	<stop  offset="0" style="stop-color:#FEFEFE;stop-opacity:0"/>
	<stop  offset="1" style="stop-color:#FFFFFF"/>
</linearGradient>
<rect x="-47.4" y="144.7" class="st4" width="1130.2" height="5.3"/>
<linearGradient id="SVGID_6_" gradientUnits="userSpaceOnUse" x1="1947.4526" y1="1067.9492" x2="738.0922" y2="1067.9449" gradientTransform="matrix(-1 0 0 -1 1878.9561 1204.0938)">
	<stop  offset="0" style="stop-color:#FEFEFE;stop-opacity:0"/>
	<stop  offset="1" style="stop-color:#FFFFFF"/>
</linearGradient>
<rect x="-14.5" y="134.2" class="st5" width="1128.9" height="3.9"/>
<linearGradient id="SVGID_7_" gradientUnits="userSpaceOnUse" x1="963.4927" y1="317.9759" x2="-164.1204" y2="317.9729" gradientTransform="matrix(1 0 0 -1 0 1069.8898)">
	<stop  offset="0" style="stop-color:#FEFEFE;stop-opacity:0"/>
	<stop  offset="1" style="stop-color:#FFFFFF"/>
</linearGradient>
<rect x="-139.5" y="750" class="st6" width="1052.6" height="3.9"/>
<linearGradient id="SVGID_8_" gradientUnits="userSpaceOnUse" x1="3366.1035" y1="270.2451" x2="2238.4934" y2="270.2411" gradientTransform="matrix(-1 0 0 1 3622.2859 297.5282)">
	<stop  offset="0" style="stop-color:#FEFEFE;stop-opacity:0"/>
	<stop  offset="1" style="stop-color:#FFFFFF"/>
</linearGradient>
<rect x="306.6" y="565.8" class="st7" width="1052.6" height="3.9"/>
<linearGradient id="SVGID_9_" gradientUnits="userSpaceOnUse" x1="3311.8135" y1="-2.1131" x2="2044.6633" y2="-2.1171" gradientTransform="matrix(-1 0 0 1 3240.7258 842.2383)">
	<stop  offset="0" style="stop-color:#FEFEFE;stop-opacity:0"/>
	<stop  offset="1" style="stop-color:#FFFFFF"/>
</linearGradient>
<rect x="-14.5" y="838.1" class="st8" width="1182.8" height="3.9"/>
<linearGradient id="SVGID_10_" gradientUnits="userSpaceOnUse" x1="3212.1633" y1="242.6145" x2="2084.5535" y2="242.6106" gradientTransform="matrix(-1 0 0 1 3314.406 352.7882)">
	<stop  offset="0" style="stop-color:#FEFEFE;stop-opacity:0"/>
	<stop  offset="1" style="stop-color:#FFFFFF"/>
</linearGradient>
<rect x="152.6" y="593.4" class="st9" width="1052.6" height="3.9"/>
<g>
	<circle class="st10" cx="846.8" cy="237.3" r="4.3"/>
</g>
<circle class="st10" cx="846.8" cy="237.3" r="4.3"/>
<g>
	<circle class="st10" cx="734.8" cy="508.3" r="4.3"/>
</g>
<circle class="st10" cx="734.8" cy="508.3" r="4.3"/>
<g>
	<circle class="st10" cx="593.9" cy="76.5" r="4.3"/>
</g>
<circle class="st10" cx="593.9" cy="76.5" r="4.3"/>
<g>
	<circle class="st10" cx="581" cy="691.7" r="4.3"/>
</g>
<circle class="st10" cx="581" cy="691.7" r="4.3"/>
<g>
	<circle class="st10" cx="271.8" cy="504.3" r="4.3"/>
</g>
<circle class="st10" cx="271.8" cy="504.3" r="4.3"/>
<g>
	<circle class="st10" cx="584.8" cy="314.3" r="4.3"/>
</g>
<circle class="st10" cx="584.8" cy="314.3" r="4.3"/>
<g>
	<circle class="st10" cx="794.8" cy="939.3" r="4.3"/>
</g>
<circle class="st10" cx="794.8" cy="939.3" r="4.3"/>
<g>
	<circle class="st10" cx="262.8" cy="897.3" r="4.3"/>
</g>
<circle class="st10" cx="262.8" cy="897.3" r="4.3"/>
<g>
	<circle class="st10" cx="981.9" cy="668.2" r="4.3"/>
</g>
<circle class="st10" cx="981.9" cy="668.2" r="4.3"/>
<g>
	<circle class="st10" cx="338.8" cy="215.9" r="4.3"/>
</g>
<circle class="st10" cx="338.8" cy="215.9" r="4.3"/>
</svg>
