<svg width="242" height="110" viewBox="0 0 242 110" fill="none" xmlns="http://www.w3.org/2000/svg">
<g style="mix-blend-mode:hard-light" filter="url(#filter0_f_181_9337)">
<ellipse cx="121" cy="55" rx="72.6" ry="33" fill="#33E9C6" fill-opacity="0.1"/>
</g>
<g style="mix-blend-mode:hard-light" filter="url(#filter1_f_181_9337)">
<path d="M95.1914 28.9912H97.5747V26.6079H95.1914V28.9912ZM95.1914 60.5V62.8833H97.5747V60.5H95.1914ZM90.687 60.5H88.3037V62.8833H90.687V60.5ZM90.687 33.4956H93.0703V31.1123H90.687V33.4956ZM85.2817 33.4956H82.8984V35.8789H85.2817V33.4956ZM85.2817 28.9912V26.6079H82.8984V28.9912H85.2817ZM92.8081 28.9912V60.5H97.5747V28.9912H92.8081ZM95.1914 58.1167H90.687V62.8833H95.1914V58.1167ZM93.0703 60.5V33.4956H88.3037V60.5H93.0703ZM90.687 31.1123H85.2817V35.8789H90.687V31.1123ZM87.6651 33.4956V28.9912H82.8984V33.4956H87.6651ZM85.2817 31.3745H95.1914V26.6079H85.2817V31.3745ZM125.733 52.8535L128.116 52.8944L128.117 52.8739V52.8535H125.733ZM123.8 58.6104L125.495 60.2858L125.505 60.2759L123.8 58.6104ZM101.959 50.9639V48.5805H99.5756V50.9639H101.959ZM106.375 50.9639H108.759V48.5805H106.375V50.9639ZM120.526 45.8003L118.796 47.4394L118.807 47.4509L118.818 47.4623L120.526 45.8003ZM102.86 44.9653H100.477V47.3487H102.86V44.9653ZM102.86 28.9912V26.6079H100.477V28.9912H102.86ZM124.92 28.9912H127.304V26.6079H124.92V28.9912ZM124.92 33.4956V35.8789H127.304V33.4956H124.92ZM107.364 33.4956V31.1123H104.981V33.4956H107.364ZM107.364 40.5708H104.981V42.9541H107.364V40.5708ZM123.844 42.4604L122.158 44.1458L122.168 44.1555L123.844 42.4604ZM123.35 52.8127C123.312 55.0338 122.76 56.2644 122.095 56.9448L125.505 60.2759C127.33 58.4075 128.067 55.8002 128.116 52.8944L123.35 52.8127ZM122.105 56.935C121.475 57.5723 120.299 58.1167 118.087 58.1167V62.8833C121.001 62.8833 123.635 62.1679 125.495 60.2857L122.105 56.935ZM118.087 58.1167H109.627V62.8833H118.087V58.1167ZM109.627 58.1167C107.437 58.1167 106.232 57.572 105.559 56.9007C104.887 56.2306 104.342 55.0332 104.342 52.8535H99.5756C99.5756 55.7715 100.309 58.3973 102.193 60.2761C104.076 62.1536 106.706 62.8833 109.627 62.8833V58.1167ZM104.342 52.8535V50.9639H99.5756V52.8535H104.342ZM101.959 53.3472H106.375V48.5805H101.959V53.3472ZM103.992 50.9639V52.6338H108.759V50.9639H103.992ZM103.992 52.6338C103.992 54.107 104.31 55.6992 105.436 56.8877L108.897 53.6094C108.968 53.6846 108.759 53.5336 108.759 52.6338H103.992ZM105.436 56.8877C106.614 58.1306 108.267 58.4668 109.759 58.4668V53.7002C109.332 53.7002 109.075 53.6493 108.941 53.6062C108.819 53.567 108.839 53.5482 108.897 53.6094L105.436 56.8877ZM109.759 58.4668H117.933V53.7002H109.759V58.4668ZM117.933 58.4668C119.426 58.4668 121.079 58.1306 122.256 56.8877L118.796 53.6094C118.854 53.5482 118.873 53.567 118.752 53.6062C118.618 53.6493 118.361 53.7002 117.933 53.7002V58.4668ZM122.256 56.8877C123.382 55.6992 123.7 54.107 123.7 52.6338H118.934C118.934 53.5336 118.724 53.6846 118.796 53.6094L122.256 56.8877ZM123.7 52.6338V48.3931H118.934V52.6338H123.7ZM123.7 48.3931C123.7 46.9271 123.385 45.3211 122.234 44.1383L118.818 47.4623C118.77 47.4131 118.797 47.4111 118.84 47.5505C118.885 47.6993 118.934 47.9662 118.934 48.3931H123.7ZM122.256 44.1612C121.079 42.9182 119.426 42.582 117.933 42.582V47.3487C118.361 47.3487 118.618 47.3996 118.752 47.4427C118.873 47.4818 118.854 47.5007 118.796 47.4394L122.256 44.1612ZM117.933 42.582H102.86V47.3487H117.933V42.582ZM105.243 44.9653V28.9912H100.477V44.9653H105.243ZM102.86 31.3745H124.92V26.6079H102.86V31.3745ZM122.537 28.9912V33.4956H127.304V28.9912H122.537ZM124.92 31.1123H107.364V35.8789H124.92V31.1123ZM104.981 33.4956V40.5708H109.748V33.4956H104.981ZM107.364 42.9541H118.087V38.1875H107.364V42.9541ZM118.087 42.9541C120.316 42.9541 121.512 43.4997 122.158 44.1457L125.529 40.7752C123.655 38.9017 121.014 38.1875 118.087 38.1875V42.9541ZM122.168 44.1555C122.801 44.781 123.35 45.9662 123.35 48.2173H128.117C128.117 45.2829 127.406 42.6301 125.519 40.7654L122.168 44.1555ZM123.35 48.2173V52.8535H128.117V48.2173H123.35ZM131.732 32.9463L133.913 33.9074L133.916 33.9007L133.919 33.8939L131.732 32.9463ZM135.533 29.123L134.586 26.9362L134.579 26.9391L134.572 26.9421L135.533 29.123ZM143.355 30.6611L141.67 32.3464L141.68 32.3559L141.689 32.3652L143.355 30.6611ZM144.894 32.9463L142.694 33.863L142.703 33.8853L142.713 33.9074L144.894 32.9463ZM144.894 38.4834L142.713 37.5223L142.706 37.5379L142.699 37.5535L144.894 38.4834ZM143.355 40.7466L141.689 39.0425L141.68 39.0518L141.67 39.0613L143.355 40.7466ZM135.533 42.2847L134.572 44.4656L134.579 44.4686L134.586 44.4715L135.533 42.2847ZM134.94 37.187L132.708 38.0239L132.724 38.0666L132.742 38.1087L134.94 37.187ZM135.709 38.3955L133.952 40.006L133.987 40.0442L134.024 40.0808L135.709 38.3955ZM136.874 39.2085L135.866 41.3682L135.896 41.3822L135.926 41.3953L136.874 39.2085ZM139.752 39.2085L140.7 41.3953L140.716 41.3881L140.733 41.3806L139.752 39.2085ZM140.917 38.3955L142.639 40.0429L142.656 40.0246L142.673 40.006L140.917 38.3955ZM141.664 37.187L139.455 36.29L139.448 36.3083L139.441 36.3266L141.664 37.187ZM141.664 34.2427L139.441 35.103L139.453 35.1339L139.466 35.1644L141.664 34.2427ZM140.917 33.0562L139.16 34.6666L139.177 34.6853L139.194 34.7036L140.917 33.0562ZM139.752 32.2432L138.744 34.4029L138.787 34.4228L138.83 34.4411L139.752 32.2432ZM136.874 32.2432L137.821 34.43L137.851 34.4169L137.881 34.4029L136.874 32.2432ZM135.709 33.0562L133.988 31.4071L133.987 31.4087L135.709 33.0562ZM134.94 34.2427L132.742 33.321L132.729 33.3515L132.717 33.3823L134.94 34.2427ZM133.544 35.7148C133.544 35.0511 133.671 34.4569 133.913 33.9074L129.551 31.9852C129.031 33.1642 128.777 34.4157 128.777 35.7148H133.544ZM133.919 33.8939C134.187 33.2761 134.534 32.7681 134.955 32.3464L131.585 28.9759C130.717 29.8432 130.039 30.8587 129.545 31.9987L133.919 33.8939ZM134.955 32.3464C135.384 31.918 135.89 31.5703 136.494 31.304L134.572 26.9421C133.448 27.4376 132.445 28.1152 131.585 28.9759L134.955 32.3464ZM136.481 31.3099C137.053 31.0619 137.66 30.9351 138.324 30.9351V26.1684C137.025 26.1684 135.771 26.4225 134.586 26.9362L136.481 31.3099ZM138.324 30.9351C138.987 30.9351 139.582 31.0618 140.131 31.304L142.053 26.9421C140.874 26.4225 139.623 26.1684 138.324 26.1684V30.9351ZM140.131 31.304C140.735 31.5703 141.242 31.918 141.67 32.3464L145.041 28.9759C144.18 28.1152 143.178 27.4376 142.053 26.9421L140.131 31.304ZM141.689 32.3652C142.112 32.7784 142.446 33.2698 142.694 33.863L147.094 32.0296C146.608 30.8649 145.917 29.8329 145.022 28.957L141.689 32.3652ZM142.713 33.9074C142.955 34.4569 143.082 35.0511 143.082 35.7148H147.848C147.848 34.4157 147.594 33.1642 147.075 31.9852L142.713 33.9074ZM143.082 35.7148C143.082 36.3786 142.955 36.9728 142.713 37.5223L147.075 39.4445C147.594 38.2655 147.848 37.014 147.848 35.7148H143.082ZM142.699 37.5535C142.454 38.1327 142.119 38.6226 141.689 39.0425L145.022 42.4507C145.911 41.5815 146.601 40.5626 147.088 39.4133L142.699 37.5535ZM141.67 39.0613C141.242 39.4897 140.735 39.8375 140.131 40.1037L142.053 44.4656C143.178 43.9702 144.18 43.2925 145.041 42.4319L141.67 39.0613ZM140.131 40.1037C139.582 40.3459 138.987 40.4726 138.324 40.4726V45.2393C139.623 45.2393 140.874 44.9852 142.053 44.4656L140.131 40.1037ZM138.324 40.4726C137.66 40.4726 137.053 40.3458 136.481 40.0978L134.586 44.4715C135.771 44.9852 137.025 45.2393 138.324 45.2393V40.4726ZM136.494 40.1037C135.89 39.8375 135.384 39.4897 134.955 39.0613L131.585 42.4319C132.445 43.2925 133.448 43.9702 134.572 44.4656L136.494 40.1037ZM134.955 39.0613C134.527 38.6329 134.179 38.1265 133.913 37.5223L129.551 39.4445C130.046 40.5688 130.724 41.5712 131.585 42.4319L134.955 39.0613ZM133.913 37.5223C133.671 36.9728 133.544 36.3786 133.544 35.7148H128.777C128.777 37.014 129.031 38.2655 129.551 39.4445L133.913 37.5223ZM132.293 35.7148C132.293 36.5063 132.43 37.281 132.708 38.0239L137.172 36.3502C137.099 36.1555 137.06 35.9488 137.06 35.7148H132.293ZM132.742 38.1087C133.035 38.8078 133.438 39.4454 133.952 40.006L137.466 36.785C137.335 36.6425 137.226 36.4745 137.138 36.2653L132.742 38.1087ZM134.024 40.0808C134.561 40.6176 135.179 41.0478 135.866 41.3682L137.881 37.0488C137.689 36.959 137.531 36.8472 137.394 36.7102L134.024 40.0808ZM135.926 41.3953C136.693 41.7279 137.504 41.8775 138.324 41.8775V37.1108C138.089 37.1108 137.933 37.0699 137.821 37.0217L135.926 41.3953ZM138.324 41.8775C139.139 41.8775 139.94 41.7243 140.7 41.3953L138.804 37.0217C138.685 37.0735 138.534 37.1108 138.324 37.1108V41.8775ZM140.733 41.3806C141.446 41.0585 142.091 40.6155 142.639 40.0429L139.194 36.7481C139.097 36.8494 138.966 36.9483 138.771 37.0364L140.733 41.3806ZM142.673 40.006C143.201 39.4309 143.606 38.7724 143.886 38.0474L139.441 36.3266C139.37 36.5098 139.277 36.657 139.16 36.785L142.673 40.006ZM143.872 38.084C144.179 37.3265 144.333 36.5309 144.333 35.7148H139.566C139.566 35.9242 139.529 36.11 139.455 36.29L143.872 38.084ZM144.333 35.7148C144.333 34.8937 144.183 34.0872 143.861 33.321L139.466 35.1644C139.525 35.3064 139.566 35.4813 139.566 35.7148H144.333ZM143.886 33.3823C143.602 32.6487 143.188 31.9825 142.639 31.4087L139.194 34.7036C139.29 34.8036 139.373 34.9284 139.441 35.103L143.886 33.3823ZM142.673 31.4457C142.111 30.8319 141.435 30.3644 140.674 30.0453L138.83 34.4411C138.977 34.5028 139.078 34.5773 139.16 34.6666L142.673 31.4457ZM140.76 30.0834C139.987 29.7227 139.164 29.5522 138.324 29.5522V34.3189C138.509 34.3189 138.638 34.3535 138.744 34.4029L140.76 30.0834ZM138.324 29.5522C137.479 29.5522 136.648 29.7186 135.866 30.0834L137.881 34.4029C137.978 34.3576 138.114 34.3189 138.324 34.3189V29.5522ZM135.926 30.0563C135.191 30.375 134.541 30.8306 133.988 31.4071L137.43 34.7052C137.551 34.5786 137.678 34.4922 137.821 34.43L135.926 30.0563ZM133.987 31.4087C133.452 31.9681 133.039 32.6132 132.742 33.321L137.138 35.1644C137.222 34.964 137.322 34.8181 137.431 34.7036L133.987 31.4087ZM132.717 33.3823C132.427 34.1328 132.293 34.9178 132.293 35.7148H137.06C137.06 35.4572 137.102 35.2607 137.163 35.103L132.717 33.3823ZM152.584 31.7598L154.772 32.7057L154.776 32.6952L154.781 32.6846L152.584 31.7598ZM153.551 30.3315L155.205 32.0472L155.221 32.0321L155.236 32.0168L153.551 30.3315ZM154.979 29.3647L155.925 31.5523L155.939 31.5464L155.952 31.5403L154.979 29.3647ZM175.567 29.3647L174.572 31.5304L174.607 31.5464L174.643 31.5613L175.567 29.3647ZM177.018 30.3315L175.332 32.0168L175.348 32.0321L175.363 32.0472L177.018 30.3315ZM177.984 31.7598L175.788 32.6846L175.792 32.6952L175.797 32.7057L177.984 31.7598ZM178.336 37.5605V39.9439H180.719V37.5605H178.336ZM173.832 37.5605H171.448V39.9439H173.832V37.5605ZM173.832 33.4956H176.215V31.1123H173.832V33.4956ZM156.737 33.4956V31.1123H154.353V33.4956H156.737ZM156.737 55.9956H154.353V58.3789H156.737V55.9956ZM173.832 55.9956V58.3789H176.215V55.9956H173.832ZM173.832 51.9526V49.5693H171.448V51.9526H173.832ZM178.336 51.9526H180.719V49.5693H178.336V51.9526ZM177.984 57.7534L180.172 58.6994L180.176 58.6889L180.181 58.6783L177.984 57.7534ZM175.567 60.1484L174.643 57.9519L174.632 57.9563L174.621 57.9609L175.567 60.1484ZM154.979 60.1484L154.033 62.336L154.044 62.3405L154.054 62.345L154.979 60.1484ZM152.584 57.7534L150.387 58.6783L150.392 58.6889L150.396 58.6994L152.584 57.7534ZM154.616 33.4956C154.616 33.1918 154.672 32.9366 154.772 32.7057L150.396 30.8138C150.027 31.667 149.849 32.5689 149.849 33.4956H154.616ZM154.781 32.6846C154.897 32.4074 155.041 32.2053 155.205 32.0472L151.896 28.6159C151.24 29.2488 150.739 29.9988 150.387 30.8349L154.781 32.6846ZM155.236 32.0168C155.43 31.8231 155.654 31.6696 155.925 31.5523L154.033 27.1772C153.22 27.5287 152.492 28.0197 151.866 28.6463L155.236 32.0168ZM155.952 31.5403C156.2 31.4295 156.454 31.3745 156.737 31.3745V26.6079C155.789 26.6079 154.871 26.8019 154.006 27.1892L155.952 31.5403ZM156.737 31.3745H173.832V26.6079H156.737V31.3745ZM173.832 31.3745C174.114 31.3745 174.352 31.4294 174.572 31.5304L176.562 27.1991C175.698 26.8021 174.779 26.6079 173.832 26.6079V31.3745ZM174.643 31.5613C174.927 31.6811 175.149 31.8336 175.332 32.0168L178.703 28.6463C178.066 28.0091 177.321 27.5172 176.492 27.1682L174.643 31.5613ZM175.363 32.0472C175.527 32.2053 175.671 32.4074 175.788 32.6846L180.181 30.8349C179.829 29.9988 179.328 29.2488 178.672 28.6159L175.363 32.0472ZM175.797 32.7057C175.897 32.9366 175.953 33.1918 175.953 33.4956H180.719C180.719 32.5689 180.541 31.667 180.172 30.8138L175.797 32.7057ZM175.953 33.4956V37.5605H180.719V33.4956H175.953ZM178.336 35.1772H173.832V39.9439H178.336V35.1772ZM176.215 37.5605V33.4956H171.448V37.5605H176.215ZM173.832 31.1123H156.737V35.8789H173.832V31.1123ZM154.353 33.4956V55.9956H159.12V33.4956H154.353ZM156.737 58.3789H173.832V53.6123H156.737V58.3789ZM176.215 55.9956V51.9526H171.448V55.9956H176.215ZM173.832 54.336H178.336V49.5693H173.832V54.336ZM175.953 51.9526V55.9956H180.719V51.9526H175.953ZM175.953 55.9956C175.953 56.2993 175.897 56.5702 175.788 56.8285L180.181 58.6783C180.541 57.8233 180.719 56.9224 180.719 55.9956H175.953ZM175.797 56.8074C175.68 57.0786 175.526 57.3026 175.332 57.4964L178.703 60.8669C179.329 60.2403 179.82 59.5122 180.172 58.6994L175.797 56.8074ZM175.332 57.4964C175.149 57.6795 174.927 57.8321 174.643 57.9519L176.492 62.345C177.321 61.996 178.066 61.504 178.703 60.8669L175.332 57.4964ZM174.621 57.9609C174.391 58.0607 174.135 58.1167 173.832 58.1167V62.8833C174.758 62.8833 175.66 62.7049 176.513 62.336L174.621 57.9609ZM173.832 58.1167H156.737V62.8833H173.832V58.1167ZM156.737 58.1167C156.433 58.1167 156.162 58.0606 155.904 57.9519L154.054 62.345C154.909 62.705 155.81 62.8833 156.737 62.8833V58.1167ZM155.925 57.9609C155.654 57.8436 155.43 57.6901 155.236 57.4964L151.866 60.8669C152.492 61.4935 153.22 61.9845 154.033 62.336L155.925 57.9609ZM155.236 57.4964C155.042 57.3026 154.889 57.0786 154.772 56.8074L150.396 58.6994C150.748 59.5122 151.239 60.2403 151.866 60.8669L155.236 57.4964ZM154.781 56.8285C154.672 56.5702 154.616 56.2993 154.616 55.9956H149.849C149.849 56.9224 150.027 57.8233 150.387 58.6783L154.781 56.8285ZM154.616 55.9956V33.4956H149.849V55.9956H154.616Z" fill="#00A8A8"/>
</g>
<g style="mix-blend-mode:hard-light" filter="url(#filter2_f_181_9337)">
<path d="M95.1914 28.9912H98.3081V25.8745H95.1914V28.9912ZM95.1914 60.5V63.6167H98.3081V60.5H95.1914ZM90.687 60.5H87.5703V63.6167H90.687V60.5ZM90.687 33.4956H93.8037V30.3789H90.687V33.4956ZM85.2817 33.4956H82.1651V36.6123H85.2817V33.4956ZM85.2817 28.9912V25.8745H82.1651V28.9912H85.2817ZM92.0747 28.9912V60.5H98.3081V28.9912H92.0747ZM95.1914 57.3833H90.687V63.6167H95.1914V57.3833ZM93.8037 60.5V33.4956H87.5703V60.5H93.8037ZM90.687 30.3789H85.2817V36.6123H90.687V30.3789ZM88.3984 33.4956V28.9912H82.1651V33.4956H88.3984ZM85.2817 32.1079H95.1914V25.8745H85.2817V32.1079ZM125.733 52.8535L128.85 52.9069L128.85 52.8802V52.8535H125.733ZM123.8 58.6104L126.016 60.8012L126.023 60.7948L126.029 60.7884L123.8 58.6104ZM101.959 50.9639V47.8472H98.8423V50.9639H101.959ZM106.375 50.9639H109.492V47.8472H106.375V50.9639ZM120.526 45.8003L118.263 47.9438L118.278 47.9588L118.292 47.9737L120.526 45.8003ZM102.86 44.9653H99.7432V48.082H102.86V44.9653ZM102.86 28.9912V25.8745H99.7432V28.9912H102.86ZM124.92 28.9912H128.037V25.8745H124.92V28.9912ZM124.92 33.4956V36.6123H128.037V33.4956H124.92ZM107.364 33.4956V30.3789H104.248V33.4956H107.364ZM107.364 40.5708H104.248V43.6875H107.364V40.5708ZM123.844 42.4604L121.64 44.6643L121.646 44.6707L121.653 44.6771L123.844 42.4604ZM122.617 52.8001C122.581 54.9158 122.057 55.9347 121.571 56.4323L126.029 60.7884C128.033 58.7372 128.798 55.9181 128.85 52.9069L122.617 52.8001ZM121.583 56.4195C121.142 56.8653 120.192 57.3833 118.087 57.3833V63.6167C121.109 63.6167 123.967 62.8749 126.016 60.8012L121.583 56.4195ZM118.087 57.3833H109.627V63.6167H118.087V57.3833ZM109.627 57.3833C107.549 57.3833 106.564 56.8671 106.077 56.3814C105.591 55.8973 105.076 54.9197 105.076 52.8535H98.8423C98.8423 55.885 99.6048 58.7306 101.675 60.7954C103.744 62.8584 106.593 63.6167 109.627 63.6167V57.3833ZM105.076 52.8535V50.9639H98.8423V52.8535H105.076ZM101.959 54.0805H106.375V47.8472H101.959V54.0805ZM103.259 50.9639V52.6338H109.492V50.9639H103.259ZM103.259 52.6338C103.259 54.1952 103.594 56.0091 104.904 57.392L109.429 53.1051C109.556 53.2389 109.574 53.333 109.556 53.2749C109.535 53.2049 109.492 53.0084 109.492 52.6338H103.259ZM104.904 57.392C106.282 58.8461 108.177 59.2002 109.759 59.2002V52.9668C109.385 52.9668 109.208 52.9217 109.166 52.9081C109.14 52.8998 109.272 52.9393 109.429 53.1051L104.904 57.392ZM109.759 59.2002H117.933V52.9668H109.759V59.2002ZM117.933 59.2002C119.515 59.2002 121.411 58.8461 122.788 57.392L118.263 53.1051C118.42 52.9393 118.553 52.8998 118.527 52.9081C118.485 52.9217 118.308 52.9668 117.933 52.9668V59.2002ZM122.788 57.392C124.099 56.0091 124.434 54.1952 124.434 52.6338H118.2C118.2 53.0084 118.157 53.2049 118.136 53.2749C118.118 53.333 118.137 53.2389 118.263 53.1051L122.788 57.392ZM124.434 52.6338V48.3931H118.2V52.6338H124.434ZM124.434 48.3931C124.434 46.8411 124.102 45.007 122.76 43.6269L118.292 47.9737C118.148 47.8259 118.123 47.7152 118.138 47.7644C118.157 47.8262 118.2 48.0174 118.2 48.3931H124.434ZM122.788 43.6568C121.411 42.2027 119.515 41.8487 117.933 41.8487V48.082C118.308 48.082 118.485 48.1271 118.527 48.1407C118.553 48.1491 118.42 48.1095 118.263 47.9438L122.788 43.6568ZM117.933 41.8487H102.86V48.082H117.933V41.8487ZM105.977 44.9653V28.9912H99.7432V44.9653H105.977ZM102.86 32.1079H124.92V25.8745H102.86V32.1079ZM121.804 28.9912V33.4956H128.037V28.9912H121.804ZM124.92 30.3789H107.364V36.6123H124.92V30.3789ZM104.248 33.4956V40.5708H110.481V33.4956H104.248ZM107.364 43.6875H118.087V37.4541H107.364V43.6875ZM118.087 43.6875C120.209 43.6875 121.183 44.2071 121.64 44.6643L126.048 40.2566C123.985 38.1943 121.121 37.4541 118.087 37.4541V43.6875ZM121.653 44.6771C122.093 45.1119 122.617 46.0713 122.617 48.2173H128.85C128.85 45.1777 128.114 42.2992 126.035 40.2438L121.653 44.6771ZM122.617 48.2173V52.8535H128.85V48.2173H122.617ZM131.732 32.9463L134.584 34.2031L134.588 34.1943L134.592 34.1855L131.732 32.9463ZM135.533 29.123L134.294 26.2633L134.285 26.2672L134.276 26.271L135.533 29.123ZM143.355 30.6611L141.152 32.8649L141.164 32.8773L141.177 32.8896L143.355 30.6611ZM144.894 32.9463L142.017 34.145L142.029 34.1742L142.042 34.2031L144.894 32.9463ZM144.894 38.4834L142.042 37.2266L142.033 37.2469L142.024 37.2674L144.894 38.4834ZM143.355 40.7466L141.177 38.5181L141.164 38.5304L141.152 38.5428L143.355 40.7466ZM135.533 42.2847L134.276 45.1367L134.285 45.1406L134.294 45.1444L135.533 42.2847ZM134.94 37.187L132.022 38.2813L132.043 38.3372L132.066 38.3923L134.94 37.187ZM135.709 38.3955L133.412 40.5015L133.457 40.5514L133.505 40.5993L135.709 38.3955ZM136.874 39.2085L135.556 42.0328L135.595 42.051L135.634 42.0682L136.874 39.2085ZM139.752 39.2085L140.991 42.0682L141.013 42.0587L141.035 42.0489L139.752 39.2085ZM140.917 38.3955L143.169 40.5498L143.192 40.5259L143.214 40.5015L140.917 38.3955ZM141.664 37.187L138.776 36.014L138.766 36.0379L138.757 36.0619L141.664 37.187ZM141.664 34.2427L138.757 35.3678L138.773 35.4081L138.789 35.448L141.664 34.2427ZM140.917 33.0562L138.619 35.1622L138.641 35.1866L138.664 35.2105L140.917 33.0562ZM139.752 32.2432L138.434 35.0674L138.49 35.0935L138.547 35.1173L139.752 32.2432ZM136.874 32.2432L138.113 35.1029L138.152 35.0857L138.192 35.0674L136.874 32.2432ZM135.709 33.0562L133.459 30.8997L133.457 30.9018L135.709 33.0562ZM134.94 34.2427L132.066 33.0374L132.049 33.0773L132.033 33.1176L134.94 34.2427ZM134.277 35.7148C134.277 35.1488 134.384 34.6558 134.584 34.2031L128.88 31.6895C128.318 32.9653 128.044 34.318 128.044 35.7148H134.277ZM134.592 34.1855C134.825 33.648 135.121 33.2181 135.474 32.8649L131.066 28.4573C130.13 29.3932 129.401 30.4868 128.872 31.7071L134.592 34.1855ZM135.474 32.8649C135.836 32.5031 136.266 32.2061 136.79 31.9751L134.276 26.271C133.072 26.8018 131.993 27.5301 131.066 28.4573L135.474 32.8649ZM136.772 31.9828C137.25 31.7756 137.758 31.6684 138.324 31.6684V25.4351C136.927 25.4351 135.574 25.7087 134.294 26.2633L136.772 31.9828ZM138.324 31.6684C138.89 31.6684 139.383 31.7756 139.835 31.9751L142.349 26.271C141.073 25.7088 139.721 25.4351 138.324 25.4351V31.6684ZM139.835 31.9751C140.36 32.2061 140.79 32.5031 141.152 32.8649L145.559 28.4573C144.632 27.5301 143.553 26.8018 142.349 26.271L139.835 31.9751ZM141.177 32.8896C141.526 33.2316 141.806 33.6398 142.017 34.145L147.77 31.7476C147.249 30.495 146.503 29.3797 145.534 28.4327L141.177 32.8896ZM142.042 34.2031C142.241 34.6558 142.348 35.1488 142.348 35.7148H148.582C148.582 34.318 148.308 32.9653 147.746 31.6895L142.042 34.2031ZM142.348 35.7148C142.348 36.2809 142.241 36.7739 142.042 37.2266L147.746 39.7402C148.308 38.4644 148.582 37.1117 148.582 35.7148H142.348ZM142.024 37.2674C141.816 37.7589 141.535 38.1674 141.177 38.5181L145.534 42.975C146.494 42.0367 147.239 40.9364 147.763 39.6994L142.024 37.2674ZM141.152 38.5428C140.79 38.9046 140.36 39.2017 139.835 39.4326L142.349 45.1367C143.553 44.606 144.632 43.8776 145.559 42.9504L141.152 38.5428ZM139.835 39.4326C139.383 39.6321 138.89 39.7393 138.324 39.7393V45.9726C139.721 45.9726 141.073 45.6989 142.349 45.1367L139.835 39.4326ZM138.324 39.7393C137.758 39.7393 137.25 39.6321 136.772 39.425L134.294 45.1444C135.574 45.699 136.927 45.9726 138.324 45.9726V39.7393ZM136.79 39.4326C136.266 39.2017 135.836 38.9046 135.474 38.5428L131.066 42.9504C131.993 43.8776 133.072 44.606 134.276 45.1367L136.79 39.4326ZM135.474 38.5428C135.112 38.1809 134.815 37.7507 134.584 37.2266L128.88 39.7402C129.411 40.9446 130.139 42.0232 131.066 42.9504L135.474 38.5428ZM134.584 37.2266C134.384 36.7739 134.277 36.2809 134.277 35.7148H128.044C128.044 37.1117 128.318 38.4644 128.88 39.7402L134.584 37.2266ZM131.56 35.7148C131.56 36.5921 131.712 37.4542 132.022 38.2813L137.858 36.0927C137.817 35.9823 137.793 35.863 137.793 35.7148H131.56ZM132.066 38.3923C132.391 39.1667 132.839 39.8766 133.412 40.5015L138.006 36.2895C137.935 36.2113 137.87 36.1155 137.814 35.9817L132.066 38.3923ZM133.505 40.5993C134.104 41.1977 134.793 41.6769 135.556 42.0328L138.192 36.3842C138.075 36.33 137.988 36.2671 137.913 36.1917L133.505 40.5993ZM135.634 42.0682C136.503 42.4446 137.413 42.6108 138.324 42.6108V36.3775C138.179 36.3775 138.123 36.3533 138.113 36.3488L135.634 42.0682ZM138.324 42.6108C139.232 42.6108 140.134 42.4398 140.991 42.0682L138.513 36.3488C138.491 36.358 138.441 36.3775 138.324 36.3775V42.6108ZM141.035 42.0489C141.828 41.6908 142.552 41.1949 143.169 40.5498L138.664 36.2412C138.637 36.27 138.584 36.316 138.469 36.3681L141.035 42.0489ZM143.214 40.5015C143.804 39.8577 144.257 39.1205 144.57 38.3121L138.757 36.0619C138.718 36.1617 138.673 36.2302 138.619 36.2895L143.214 40.5015ZM144.551 38.3601C144.895 37.5137 145.066 36.6242 145.066 35.7148H138.833C138.833 35.8309 138.813 35.9228 138.776 36.014L144.551 38.3601ZM145.066 35.7148C145.066 34.8033 144.899 33.8996 144.538 33.0374L138.789 35.448C138.809 35.4939 138.833 35.5717 138.833 35.7148H145.066ZM144.57 33.1176C144.253 32.298 143.787 31.5485 143.169 30.9018L138.664 35.2105C138.69 35.2376 138.723 35.2792 138.757 35.3678L144.57 33.1176ZM143.214 30.9501C142.577 30.2557 141.813 29.7278 140.957 29.369L138.547 35.1173C138.599 35.1394 138.611 35.1535 138.619 35.1622L143.214 30.9501ZM141.07 29.4189C140.194 29.0103 139.265 28.8189 138.324 28.8189V35.0522C138.408 35.0522 138.431 35.0659 138.434 35.0674L141.07 29.4189ZM138.324 28.8189C137.381 28.8189 136.443 29.0049 135.556 29.4189L138.192 35.0674C138.193 35.0669 138.198 35.0644 138.212 35.0613C138.228 35.058 138.263 35.0522 138.324 35.0522V28.8189ZM135.634 29.3834C134.808 29.7415 134.078 30.2539 133.459 30.8997L137.959 35.2126C138.014 35.1552 138.06 35.1257 138.113 35.1029L135.634 29.3834ZM133.457 30.9018C132.856 31.5296 132.395 32.2515 132.066 33.0374L137.814 35.448C137.865 35.3256 137.917 35.2565 137.961 35.2105L133.457 30.9018ZM132.033 33.1176C131.708 33.9593 131.56 34.8348 131.56 35.7148H137.793C137.793 35.5402 137.821 35.4343 137.846 35.3678L132.033 33.1176ZM152.584 31.7598L155.445 32.9968L155.451 32.983L155.456 32.9692L152.584 31.7598ZM153.551 30.3315L155.714 32.5751L155.735 32.5554L155.755 32.5354L153.551 30.3315ZM154.979 29.3647L156.216 32.2254L156.234 32.2177L156.252 32.2097L154.979 29.3647ZM175.567 29.3647L174.266 32.1968L174.312 32.2177L174.358 32.2372L175.567 29.3647ZM177.018 30.3315L174.814 32.5354L174.834 32.5554L174.854 32.5751L177.018 30.3315ZM177.984 31.7598L175.112 32.9692L175.118 32.983L175.124 32.9968L177.984 31.7598ZM178.336 37.5605V40.6772H181.453V37.5605H178.336ZM173.832 37.5605H170.715V40.6772H173.832V37.5605ZM173.832 33.4956H176.948V30.3789H173.832V33.4956ZM156.737 33.4956V30.3789H153.62V33.4956H156.737ZM156.737 55.9956H153.62V59.1123H156.737V55.9956ZM173.832 55.9956V59.1123H176.948V55.9956H173.832ZM173.832 51.9526V48.836H170.715V51.9526H173.832ZM178.336 51.9526H181.453V48.836H178.336V51.9526ZM177.984 57.7534L180.845 58.9905L180.851 58.9767L180.857 58.9629L177.984 57.7534ZM175.567 60.1484L174.358 57.276L174.344 57.2818L174.33 57.2878L175.567 60.1484ZM154.979 60.1484L153.742 63.0091L153.756 63.015L153.77 63.0209L154.979 60.1484ZM152.584 57.7534L149.712 58.9629L149.717 58.9767L149.723 58.9905L152.584 57.7534ZM155.349 33.4956C155.349 33.2877 155.386 33.1319 155.445 32.9968L149.723 30.5227C149.313 31.4716 149.116 32.4731 149.116 33.4956H155.349ZM155.456 32.9692C155.537 32.778 155.626 32.6601 155.714 32.5751L151.387 28.088C150.655 28.794 150.1 29.6282 149.712 30.5503L155.456 32.9692ZM155.755 32.5354C155.882 32.4082 156.028 32.3066 156.216 32.2254L153.742 26.5041C152.846 26.8916 152.04 27.4345 151.347 28.1277L155.755 32.5354ZM156.252 32.2097C156.404 32.1414 156.556 32.1079 156.737 32.1079V25.8745C155.687 25.8745 154.667 26.09 153.706 26.5198L156.252 32.2097ZM156.737 32.1079H173.832V25.8745H156.737V32.1079ZM173.832 32.1079C174.012 32.1079 174.145 32.1413 174.266 32.1968L176.869 26.5327C175.905 26.0902 174.881 25.8745 173.832 25.8745V32.1079ZM174.358 32.2372C174.559 32.3217 174.7 32.422 174.814 32.5354L179.221 28.1277C178.514 27.4207 177.689 26.8766 176.777 26.4923L174.358 32.2372ZM174.854 32.5751C174.942 32.6601 175.031 32.778 175.112 32.9692L180.857 30.5503C180.469 29.6282 179.913 28.794 179.181 28.088L174.854 32.5751ZM175.124 32.9968C175.182 33.1319 175.219 33.2877 175.219 33.4956H181.453C181.453 32.4731 181.255 31.4716 180.845 30.5227L175.124 32.9968ZM175.219 33.4956V37.5605H181.453V33.4956H175.219ZM178.336 34.4439H173.832V40.6772H178.336V34.4439ZM176.948 37.5605V33.4956H170.715V37.5605H176.948ZM173.832 30.3789H156.737V36.6123H173.832V30.3789ZM153.62 33.4956V55.9956H159.853V33.4956H153.62ZM156.737 59.1123H173.832V52.8789H156.737V59.1123ZM176.948 55.9956V51.9526H170.715V55.9956H176.948ZM173.832 55.0693H178.336V48.836H173.832V55.0693ZM175.219 51.9526V55.9956H181.453V51.9526H175.219ZM175.219 55.9956C175.219 56.2034 175.182 56.3774 175.112 56.544L180.857 58.9629C181.255 58.0161 181.453 57.0183 181.453 55.9956H175.219ZM175.124 56.5164C175.042 56.7042 174.941 56.8507 174.814 56.9778L179.221 61.3855C179.915 60.6923 180.458 59.8866 180.845 58.9905L175.124 56.5164ZM174.814 56.9778C174.7 57.0912 174.559 57.1915 174.358 57.276L176.777 63.0209C177.689 62.6366 178.514 62.0924 179.221 61.3855L174.814 56.9778ZM174.33 57.2878C174.195 57.3462 174.039 57.3833 173.832 57.3833V63.6167C174.854 63.6167 175.856 63.4194 176.804 63.0091L174.33 57.2878ZM173.832 57.3833H156.737V63.6167H173.832V57.3833ZM156.737 57.3833C156.529 57.3833 156.355 57.3461 156.188 57.276L153.77 63.0209C154.716 63.4195 155.714 63.6167 156.737 63.6167V57.3833ZM156.216 57.2878C156.028 57.2066 155.882 57.105 155.755 56.9778L151.347 61.3855C152.04 62.0786 152.846 62.6216 153.742 63.0091L156.216 57.2878ZM155.755 56.9778C155.627 56.8507 155.526 56.7042 155.445 56.5164L149.723 58.9905C150.111 59.8866 150.654 60.6923 151.347 61.3855L155.755 56.9778ZM155.456 56.544C155.386 56.3774 155.349 56.2034 155.349 55.9956H149.116C149.116 57.0183 149.313 58.0161 149.712 58.9629L155.456 56.544ZM155.349 55.9956V33.4956H149.116V55.9956H155.349Z" fill="#00A8A8"/>
</g>
<g style="mix-blend-mode:hard-light" filter="url(#filter3_ddi_181_9337)">
<path d="M95.1914 28.9912H97.5747V26.6079H95.1914V28.9912ZM95.1914 60.5V62.8833H97.5747V60.5H95.1914ZM90.687 60.5H88.3037V62.8833H90.687V60.5ZM90.687 33.4956H93.0703V31.1123H90.687V33.4956ZM85.2817 33.4956H82.8984V35.8789H85.2817V33.4956ZM85.2817 28.9912V26.6079H82.8984V28.9912H85.2817ZM92.8081 28.9912V60.5H97.5747V28.9912H92.8081ZM95.1914 58.1167H90.687V62.8833H95.1914V58.1167ZM93.0703 60.5V33.4956H88.3037V60.5H93.0703ZM90.687 31.1123H85.2817V35.8789H90.687V31.1123ZM87.6651 33.4956V28.9912H82.8984V33.4956H87.6651ZM85.2817 31.3745H95.1914V26.6079H85.2817V31.3745ZM125.733 52.8535L128.116 52.8944L128.117 52.8739V52.8535H125.733ZM123.8 58.6104L125.495 60.2858L125.505 60.2759L123.8 58.6104ZM101.959 50.9639V48.5805H99.5757V50.9639H101.959ZM106.375 50.9639H108.759V48.5805H106.375V50.9639ZM120.526 45.8003L118.796 47.4394L118.807 47.4509L118.818 47.4623L120.526 45.8003ZM102.86 44.9653H100.477V47.3487H102.86V44.9653ZM102.86 28.9912V26.6079H100.477V28.9912H102.86ZM124.92 28.9912H127.304V26.6079H124.92V28.9912ZM124.92 33.4956V35.8789H127.304V33.4956H124.92ZM107.364 33.4956V31.1123H104.981V33.4956H107.364ZM107.364 40.5708H104.981V42.9541H107.364V40.5708ZM123.844 42.4604L122.158 44.1457L122.168 44.1555L123.844 42.4604ZM123.35 52.8127C123.312 55.0338 122.76 56.2644 122.095 56.9448L125.505 60.2759C127.33 58.4075 128.067 55.8002 128.116 52.8944L123.35 52.8127ZM122.105 56.935C121.475 57.5723 120.299 58.1167 118.087 58.1167V62.8833C121.001 62.8833 123.635 62.1679 125.495 60.2857L122.105 56.935ZM118.087 58.1167H109.627V62.8833H118.087V58.1167ZM109.627 58.1167C107.437 58.1167 106.232 57.572 105.559 56.9007C104.887 56.2306 104.342 55.0332 104.342 52.8535H99.5757C99.5757 55.7715 100.309 58.3973 102.193 60.2761C104.076 62.1536 106.706 62.8833 109.627 62.8833V58.1167ZM104.342 52.8535V50.9639H99.5757V52.8535H104.342ZM101.959 53.3472H106.375V48.5805H101.959V53.3472ZM103.992 50.9639V52.6338H108.759V50.9639H103.992ZM103.992 52.6338C103.992 54.107 104.31 55.6992 105.436 56.8877L108.897 53.6094C108.968 53.6846 108.759 53.5337 108.759 52.6338H103.992ZM105.436 56.8877C106.614 58.1306 108.267 58.4668 109.759 58.4668V53.7002C109.332 53.7002 109.075 53.6493 108.941 53.6062C108.819 53.567 108.839 53.5482 108.897 53.6094L105.436 56.8877ZM109.759 58.4668H117.933V53.7002H109.759V58.4668ZM117.933 58.4668C119.426 58.4668 121.079 58.1306 122.256 56.8877L118.796 53.6094C118.854 53.5482 118.873 53.567 118.752 53.6062C118.618 53.6493 118.361 53.7002 117.933 53.7002V58.4668ZM122.256 56.8877C123.382 55.6992 123.7 54.107 123.7 52.6338H118.934C118.934 53.5337 118.724 53.6846 118.796 53.6094L122.256 56.8877ZM123.7 52.6338V48.3931H118.934V52.6338H123.7ZM123.7 48.3931C123.7 46.9271 123.385 45.3211 122.234 44.1383L118.818 47.4623C118.77 47.4131 118.797 47.4111 118.84 47.5505C118.885 47.6993 118.934 47.9662 118.934 48.3931H123.7ZM122.256 44.1612C121.079 42.9182 119.426 42.582 117.933 42.582V47.3487C118.361 47.3487 118.618 47.3996 118.752 47.4427C118.873 47.4818 118.854 47.5007 118.796 47.4394L122.256 44.1612ZM117.933 42.582H102.86V47.3487H117.933V42.582ZM105.243 44.9653V28.9912H100.477V44.9653H105.243ZM102.86 31.3745H124.92V26.6079H102.86V31.3745ZM122.537 28.9912V33.4956H127.304V28.9912H122.537ZM124.92 31.1123H107.364V35.8789H124.92V31.1123ZM104.981 33.4956V40.5708H109.748V33.4956H104.981ZM107.364 42.9541H118.087V38.1875H107.364V42.9541ZM118.087 42.9541C120.316 42.9541 121.512 43.4997 122.158 44.1457L125.529 40.7752C123.655 38.9017 121.014 38.1875 118.087 38.1875V42.9541ZM122.168 44.1555C122.801 44.781 123.35 45.9662 123.35 48.2173H128.117C128.117 45.2829 127.406 42.6301 125.519 40.7654L122.168 44.1555ZM123.35 48.2173V52.8535H128.117V48.2173H123.35ZM131.732 32.9463L133.913 33.9074L133.916 33.9007L133.919 33.8939L131.732 32.9463ZM135.533 29.123L134.586 26.9362L134.579 26.9391L134.572 26.9421L135.533 29.123ZM143.355 30.6611L141.67 32.3464L141.68 32.3559L141.689 32.3652L143.355 30.6611ZM144.894 32.9463L142.694 33.863L142.703 33.8853L142.713 33.9074L144.894 32.9463ZM144.894 38.4834L142.713 37.5223L142.706 37.5379L142.699 37.5535L144.894 38.4834ZM143.355 40.7466L141.689 39.0425L141.68 39.0518L141.67 39.0613L143.355 40.7466ZM135.533 42.2847L134.572 44.4656L134.579 44.4686L134.586 44.4715L135.533 42.2847ZM134.94 37.187L132.708 38.0239L132.724 38.0666L132.742 38.1087L134.94 37.187ZM135.709 38.3955L133.952 40.006L133.987 40.0442L134.024 40.0808L135.709 38.3955ZM136.874 39.2085L135.866 41.3682L135.896 41.3822L135.926 41.3953L136.874 39.2085ZM139.752 39.2085L140.7 41.3953L140.716 41.3881L140.733 41.3806L139.752 39.2085ZM140.917 38.3955L142.639 40.0429L142.656 40.0246L142.673 40.006L140.917 38.3955ZM141.664 37.187L139.455 36.29L139.448 36.3083L139.441 36.3266L141.664 37.187ZM141.664 34.2427L139.441 35.103L139.453 35.1339L139.466 35.1644L141.664 34.2427ZM140.917 33.0562L139.16 34.6666L139.177 34.6853L139.194 34.7036L140.917 33.0562ZM139.752 32.2432L138.744 34.4029L138.787 34.4228L138.83 34.4411L139.752 32.2432ZM136.874 32.2432L137.821 34.43L137.851 34.4169L137.881 34.4029L136.874 32.2432ZM135.709 33.0562L133.988 31.4071L133.987 31.4087L135.709 33.0562ZM134.94 34.2427L132.742 33.321L132.729 33.3515L132.717 33.3823L134.94 34.2427ZM133.544 35.7148C133.544 35.0511 133.671 34.4569 133.913 33.9074L129.551 31.9852C129.031 33.1642 128.777 34.4157 128.777 35.7148H133.544ZM133.919 33.8939C134.187 33.2761 134.534 32.7681 134.955 32.3464L131.585 28.9759C130.717 29.8432 130.039 30.8587 129.545 31.9987L133.919 33.8939ZM134.955 32.3464C135.384 31.918 135.89 31.5703 136.494 31.304L134.572 26.9421C133.448 27.4376 132.445 28.1152 131.585 28.9759L134.955 32.3464ZM136.481 31.3099C137.053 31.0619 137.66 30.9351 138.324 30.9351V26.1684C137.025 26.1684 135.771 26.4225 134.586 26.9362L136.481 31.3099ZM138.324 30.9351C138.987 30.9351 139.582 31.0618 140.131 31.304L142.053 26.9421C140.874 26.4225 139.623 26.1684 138.324 26.1684V30.9351ZM140.131 31.304C140.735 31.5703 141.242 31.918 141.67 32.3464L145.041 28.9759C144.18 28.1152 143.178 27.4376 142.053 26.9421L140.131 31.304ZM141.689 32.3652C142.112 32.7784 142.446 33.2698 142.694 33.863L147.094 32.0296C146.608 30.8649 145.917 29.8329 145.022 28.957L141.689 32.3652ZM142.713 33.9074C142.955 34.4569 143.082 35.0511 143.082 35.7148H147.848C147.848 34.4157 147.594 33.1642 147.075 31.9852L142.713 33.9074ZM143.082 35.7148C143.082 36.3786 142.955 36.9728 142.713 37.5223L147.075 39.4445C147.594 38.2655 147.848 37.014 147.848 35.7148H143.082ZM142.699 37.5535C142.454 38.1327 142.119 38.6226 141.689 39.0425L145.022 42.4507C145.911 41.5815 146.601 40.5626 147.088 39.4133L142.699 37.5535ZM141.67 39.0613C141.242 39.4897 140.735 39.8375 140.131 40.1037L142.053 44.4656C143.178 43.9702 144.18 43.2925 145.041 42.4319L141.67 39.0613ZM140.131 40.1037C139.582 40.3459 138.987 40.4726 138.324 40.4726V45.2393C139.623 45.2393 140.874 44.9852 142.053 44.4656L140.131 40.1037ZM138.324 40.4726C137.66 40.4726 137.053 40.3458 136.481 40.0978L134.586 44.4715C135.771 44.9852 137.025 45.2393 138.324 45.2393V40.4726ZM136.494 40.1037C135.89 39.8375 135.384 39.4897 134.955 39.0613L131.585 42.4319C132.445 43.2925 133.448 43.9702 134.572 44.4656L136.494 40.1037ZM134.955 39.0613C134.527 38.6329 134.179 38.1265 133.913 37.5223L129.551 39.4445C130.046 40.5688 130.724 41.5712 131.585 42.4319L134.955 39.0613ZM133.913 37.5223C133.671 36.9728 133.544 36.3786 133.544 35.7148H128.777C128.777 37.014 129.031 38.2655 129.551 39.4445L133.913 37.5223ZM132.293 35.7148C132.293 36.5063 132.43 37.281 132.708 38.0239L137.172 36.3502C137.099 36.1555 137.06 35.9488 137.06 35.7148H132.293ZM132.742 38.1087C133.035 38.8078 133.438 39.4454 133.952 40.006L137.466 36.785C137.335 36.6425 137.226 36.4745 137.138 36.2653L132.742 38.1087ZM134.024 40.0808C134.561 40.6176 135.179 41.0478 135.866 41.3682L137.881 37.0488C137.689 36.959 137.531 36.8472 137.394 36.7102L134.024 40.0808ZM135.926 41.3953C136.693 41.7279 137.504 41.8775 138.324 41.8775V37.1108C138.089 37.1108 137.933 37.0699 137.821 37.0217L135.926 41.3953ZM138.324 41.8775C139.139 41.8775 139.94 41.7243 140.7 41.3953L138.804 37.0217C138.685 37.0735 138.534 37.1108 138.324 37.1108V41.8775ZM140.733 41.3806C141.446 41.0585 142.091 40.6155 142.639 40.0429L139.194 36.7481C139.097 36.8494 138.966 36.9483 138.771 37.0364L140.733 41.3806ZM142.673 40.006C143.201 39.4309 143.606 38.7724 143.886 38.0474L139.441 36.3266C139.37 36.5098 139.277 36.657 139.16 36.785L142.673 40.006ZM143.872 38.084C144.179 37.3265 144.333 36.5309 144.333 35.7148H139.566C139.566 35.9242 139.529 36.11 139.455 36.29L143.872 38.084ZM144.333 35.7148C144.333 34.8937 144.183 34.0872 143.861 33.321L139.466 35.1644C139.525 35.3064 139.566 35.4813 139.566 35.7148H144.333ZM143.886 33.3823C143.602 32.6487 143.188 31.9825 142.639 31.4087L139.194 34.7036C139.29 34.8036 139.373 34.9284 139.441 35.103L143.886 33.3823ZM142.673 31.4457C142.111 30.8319 141.435 30.3644 140.674 30.0453L138.83 34.4411C138.977 34.5028 139.078 34.5773 139.16 34.6666L142.673 31.4457ZM140.76 30.0834C139.987 29.7227 139.164 29.5522 138.324 29.5522V34.3189C138.509 34.3189 138.638 34.3535 138.744 34.4029L140.76 30.0834ZM138.324 29.5522C137.479 29.5522 136.648 29.7186 135.866 30.0834L137.881 34.4029C137.978 34.3576 138.114 34.3189 138.324 34.3189V29.5522ZM135.926 30.0563C135.191 30.375 134.541 30.8306 133.988 31.4071L137.43 34.7052C137.551 34.5786 137.678 34.4922 137.821 34.43L135.926 30.0563ZM133.987 31.4087C133.452 31.9681 133.039 32.6132 132.742 33.321L137.138 35.1644C137.222 34.964 137.322 34.8181 137.431 34.7036L133.987 31.4087ZM132.717 33.3823C132.427 34.1328 132.293 34.9178 132.293 35.7148H137.06C137.06 35.4572 137.102 35.2607 137.163 35.103L132.717 33.3823ZM152.584 31.7598L154.772 32.7057L154.776 32.6952L154.781 32.6846L152.584 31.7598ZM153.551 30.3315L155.205 32.0472L155.221 32.0321L155.236 32.0168L153.551 30.3315ZM154.979 29.3647L155.925 31.5523L155.939 31.5464L155.952 31.5403L154.979 29.3647ZM175.567 29.3647L174.572 31.5304L174.607 31.5464L174.643 31.5613L175.567 29.3647ZM177.018 30.3315L175.332 32.0168L175.348 32.0321L175.363 32.0472L177.018 30.3315ZM177.984 31.7598L175.788 32.6846L175.792 32.6952L175.797 32.7057L177.984 31.7598ZM178.336 37.5605V39.9439H180.719V37.5605H178.336ZM173.832 37.5605H171.448V39.9439H173.832V37.5605ZM173.832 33.4956H176.215V31.1123H173.832V33.4956ZM156.737 33.4956V31.1123H154.353V33.4956H156.737ZM156.737 55.9956H154.353V58.3789H156.737V55.9956ZM173.832 55.9956V58.3789H176.215V55.9956H173.832ZM173.832 51.9526V49.5693H171.448V51.9526H173.832ZM178.336 51.9526H180.719V49.5693H178.336V51.9526ZM177.984 57.7534L180.172 58.6994L180.176 58.6889L180.181 58.6783L177.984 57.7534ZM175.567 60.1484L174.643 57.9519L174.632 57.9563L174.621 57.9609L175.567 60.1484ZM154.979 60.1484L154.033 62.336L154.044 62.3406L154.054 62.345L154.979 60.1484ZM152.584 57.7534L150.387 58.6783L150.392 58.6889L150.396 58.6994L152.584 57.7534ZM154.616 33.4956C154.616 33.1918 154.672 32.9366 154.772 32.7057L150.396 30.8138C150.027 31.667 149.849 32.5689 149.849 33.4956H154.616ZM154.781 32.6846C154.897 32.4074 155.041 32.2053 155.205 32.0472L151.896 28.6159C151.24 29.2488 150.739 29.9988 150.387 30.8349L154.781 32.6846ZM155.236 32.0168C155.43 31.8231 155.654 31.6696 155.925 31.5523L154.033 27.1772C153.22 27.5287 152.492 28.0197 151.866 28.6463L155.236 32.0168ZM155.952 31.5403C156.2 31.4295 156.454 31.3745 156.737 31.3745V26.6079C155.789 26.6079 154.871 26.8019 154.006 27.1892L155.952 31.5403ZM156.737 31.3745H173.832V26.6079H156.737V31.3745ZM173.832 31.3745C174.114 31.3745 174.352 31.4294 174.572 31.5304L176.562 27.1991C175.698 26.8021 174.779 26.6079 173.832 26.6079V31.3745ZM174.643 31.5613C174.927 31.6811 175.149 31.8336 175.332 32.0168L178.703 28.6463C178.066 28.0091 177.321 27.5172 176.492 27.1682L174.643 31.5613ZM175.363 32.0472C175.527 32.2053 175.671 32.4074 175.788 32.6846L180.181 30.8349C179.829 29.9988 179.328 29.2488 178.672 28.6159L175.363 32.0472ZM175.797 32.7057C175.897 32.9366 175.953 33.1918 175.953 33.4956H180.719C180.719 32.5689 180.541 31.667 180.172 30.8138L175.797 32.7057ZM175.953 33.4956V37.5605H180.719V33.4956H175.953ZM178.336 35.1772H173.832V39.9439H178.336V35.1772ZM176.215 37.5605V33.4956H171.448V37.5605H176.215ZM173.832 31.1123H156.737V35.8789H173.832V31.1123ZM154.353 33.4956V55.9956H159.12V33.4956H154.353ZM156.737 58.3789H173.832V53.6123H156.737V58.3789ZM176.215 55.9956V51.9526H171.448V55.9956H176.215ZM173.832 54.336H178.336V49.5693H173.832V54.336ZM175.953 51.9526V55.9956H180.719V51.9526H175.953ZM175.953 55.9956C175.953 56.2993 175.897 56.5702 175.788 56.8285L180.181 58.6783C180.541 57.8233 180.719 56.9224 180.719 55.9956H175.953ZM175.797 56.8074C175.68 57.0786 175.526 57.3026 175.332 57.4964L178.703 60.8669C179.329 60.2403 179.82 59.5122 180.172 58.6994L175.797 56.8074ZM175.332 57.4964C175.149 57.6795 174.927 57.8321 174.643 57.9519L176.492 62.345C177.321 61.996 178.066 61.504 178.703 60.8669L175.332 57.4964ZM174.621 57.9609C174.391 58.0607 174.135 58.1167 173.832 58.1167V62.8833C174.758 62.8833 175.66 62.7049 176.513 62.336L174.621 57.9609ZM173.832 58.1167H156.737V62.8833H173.832V58.1167ZM156.737 58.1167C156.433 58.1167 156.162 58.0606 155.904 57.9519L154.054 62.345C154.909 62.705 155.81 62.8833 156.737 62.8833V58.1167ZM155.925 57.9609C155.654 57.8436 155.43 57.6901 155.236 57.4964L151.866 60.8669C152.492 61.4935 153.22 61.9845 154.033 62.336L155.925 57.9609ZM155.236 57.4964C155.042 57.3026 154.889 57.0786 154.772 56.8074L150.396 58.6994C150.748 59.5122 151.239 60.2403 151.866 60.8669L155.236 57.4964ZM154.781 56.8285C154.672 56.5702 154.616 56.2993 154.616 55.9956H149.849C149.849 56.9224 150.027 57.8233 150.387 58.6783L154.781 56.8285ZM154.616 55.9956V33.4956H149.849V55.9956H154.616Z" fill="#33E9C6" fill-opacity="0.2"/>
</g>
<g filter="url(#filter4_f_181_9337)">
<path d="M95.1914 28.9912H96.6581V27.5245H95.1914V28.9912ZM95.1914 60.5V61.9667H96.6581V60.5H95.1914ZM90.687 60.5H89.2203V61.9667H90.687V60.5ZM90.687 33.4956H92.1537V32.0289H90.687V33.4956ZM85.2817 33.4956H83.8151V34.9623H85.2817V33.4956ZM85.2817 28.9912V27.5245H83.8151V28.9912H85.2817ZM93.7247 28.9912V60.5H96.6581V28.9912H93.7247ZM95.1914 59.0333H90.687V61.9667H95.1914V59.0333ZM92.1537 60.5V33.4956H89.2203V60.5H92.1537ZM90.687 32.0289H85.2817V34.9623H90.687V32.0289ZM86.7484 33.4956V28.9912H83.8151V33.4956H86.7484ZM85.2817 30.4579H95.1914V27.5245H85.2817V30.4579ZM125.733 52.8535L127.2 52.8787L127.2 52.8661V52.8535H125.733ZM123.8 58.6104L124.843 59.6414L124.849 59.6353L123.8 58.6104ZM101.959 50.9639V49.4972H100.492V50.9639H101.959ZM106.375 50.9639H107.842V49.4972H106.375V50.9639ZM120.526 45.8003L119.461 46.809L119.468 46.8161L119.475 46.8231L120.526 45.8003ZM102.86 44.9653H101.393V46.432H102.86V44.9653ZM102.86 28.9912V27.5245H101.393V28.9912H102.86ZM124.92 28.9912H126.387V27.5245H124.92V28.9912ZM124.92 33.4956V34.9623H126.387V33.4956H124.92ZM107.364 33.4956V32.0289H105.898V33.4956H107.364ZM107.364 40.5708H105.898V42.0375H107.364V40.5708ZM123.844 42.4604L122.807 43.4976L122.813 43.5036L123.844 42.4604ZM124.267 52.8284C124.227 55.1812 123.639 56.6765 122.751 57.5854L124.849 59.6353C126.451 57.9954 127.152 55.6528 127.2 52.8787L124.267 52.8284ZM122.757 57.5793C121.89 58.4561 120.434 59.0333 118.087 59.0333V61.9667C120.866 61.9667 123.219 61.2841 124.843 59.6414L122.757 57.5793ZM118.087 59.0333H109.627V61.9667H118.087V59.0333ZM109.627 59.0333C107.296 59.0333 105.818 58.4531 104.912 57.5498C104.007 56.6473 103.426 55.1752 103.426 52.8535H100.492C100.492 55.6295 101.189 57.9806 102.84 59.627C104.491 61.2725 106.846 61.9667 109.627 61.9667V59.0333ZM103.426 52.8535V50.9639H100.492V52.8535H103.426ZM101.959 52.4305H106.375V49.4972H101.959V52.4305ZM104.909 50.9639V52.6338H107.842V50.9639H104.909ZM104.909 52.6338C104.909 53.9967 105.206 55.3118 106.102 56.2572L108.231 54.2398C108.072 54.072 107.842 53.6439 107.842 52.6338H104.909ZM106.102 56.2572C107.029 57.2362 108.379 57.5502 109.759 57.5502V54.6168C108.737 54.6168 108.358 54.3741 108.231 54.2398L106.102 56.2572ZM109.759 57.5502H117.933V54.6168H109.759V57.5502ZM117.933 57.5502C119.314 57.5502 120.663 57.2362 121.591 56.2572L119.461 54.2398C119.334 54.3741 118.955 54.6168 117.933 54.6168V57.5502ZM121.591 56.2572C122.486 55.3118 122.784 53.9967 122.784 52.6338H119.85C119.85 53.6439 119.62 54.072 119.461 54.2398L121.591 56.2572ZM122.784 52.6338V48.3931H119.85V52.6338H122.784ZM122.784 48.3931C122.784 47.0346 122.488 45.7139 121.577 44.7775L119.475 46.8231C119.618 46.9707 119.85 47.3785 119.85 48.3931H122.784ZM121.591 44.7916C120.663 43.8126 119.314 43.4987 117.933 43.4987V46.432C118.955 46.432 119.334 46.6747 119.461 46.809L121.591 44.7916ZM117.933 43.4987H102.86V46.432H117.933V43.4987ZM104.327 44.9653V28.9912H101.393V44.9653H104.327ZM102.86 30.4579H124.92V27.5245H102.86V30.4579ZM123.454 28.9912V33.4956H126.387V28.9912H123.454ZM124.92 32.0289H107.364V34.9623H124.92V32.0289ZM105.898 33.4956V40.5708H108.831V33.4956H105.898ZM107.364 42.0375H118.087V39.1041H107.364V42.0375ZM118.087 42.0375C120.45 42.0375 121.925 42.6155 122.807 43.4975L124.881 41.4234C123.243 39.7859 120.88 39.1041 118.087 39.1041V42.0375ZM122.813 43.5036C123.687 44.3674 124.267 45.8348 124.267 48.2173H127.2C127.2 45.4143 126.52 43.0438 124.875 41.4173L122.813 43.5036ZM124.267 48.2173V52.8535H127.2V48.2173H124.267ZM131.732 32.9463L133.074 33.5377L133.078 33.5294L131.732 32.9463ZM135.533 29.123L134.95 27.7773L134.942 27.7809L135.533 29.123ZM143.355 30.6611L142.318 31.6982L142.324 31.704L142.33 31.7098L143.355 30.6611ZM144.894 32.9463L143.54 33.5104L143.545 33.5241L143.551 33.5377L144.894 32.9463ZM144.894 38.4834L143.551 37.892L143.547 37.9015L143.543 37.9112L144.894 38.4834ZM143.355 40.7466L142.33 39.6979L142.324 39.7037L142.318 39.7095L143.355 40.7466ZM135.533 42.2847L134.942 43.6268L134.95 43.6304L135.533 42.2847ZM134.94 37.187L133.567 37.702L133.577 37.7283L133.587 37.7542L134.94 37.187ZM135.709 38.3955L134.628 39.3866L134.649 39.4101L134.672 39.4326L135.709 38.3955ZM136.874 39.2085L136.253 40.5376L136.272 40.5462L136.29 40.5542L136.874 39.2085ZM139.752 39.2085L140.335 40.5542L140.345 40.5498L140.356 40.5452L139.752 39.2085ZM140.917 38.3955L141.976 39.4093L141.987 39.398L141.998 39.3866L140.917 38.3955ZM141.664 37.187L140.305 36.635L140.3 36.6462L140.296 36.6576L141.664 37.187ZM141.664 34.2427L140.296 34.7721L140.303 34.7911L140.311 34.8099L141.664 34.2427ZM140.917 33.0562L139.835 34.0472L139.846 34.0587L139.857 34.0699L140.917 33.0562ZM139.752 32.2432L139.132 33.5722L139.158 33.5845L139.185 33.5957L139.752 32.2432ZM136.874 32.2432L137.457 33.5889L137.475 33.5808L137.494 33.5722L136.874 32.2432ZM135.709 33.0562L134.65 32.0414L134.649 32.0424L135.709 33.0562ZM134.94 34.2427L133.587 33.6755L133.58 33.6942L133.572 33.7132L134.94 34.2427ZM132.627 35.7148C132.627 34.9289 132.779 34.2083 133.074 33.5377L130.39 32.3548C129.924 33.4128 129.694 34.5379 129.694 35.7148H132.627ZM133.078 33.5294C133.389 32.8112 133.8 32.2056 134.307 31.6982L132.233 29.624C131.451 30.4057 130.837 31.3236 130.386 32.3631L133.078 33.5294ZM134.307 31.6982C134.819 31.1867 135.42 30.7755 136.125 30.4652L134.942 27.7809C133.917 28.2323 133.01 28.8465 132.233 29.624L134.307 31.6982ZM136.116 30.4688C136.807 30.1697 137.538 30.0184 138.324 30.0184V27.0851C137.147 27.0851 136.018 27.3147 134.95 27.7773L136.116 30.4688ZM138.324 30.0184C139.11 30.0184 139.83 30.1697 140.501 30.4652L141.684 27.7809C140.626 27.3147 139.501 27.0851 138.324 27.0851V30.0184ZM140.501 30.4652C141.205 30.7755 141.807 31.1867 142.318 31.6982L144.393 29.624C143.615 28.8465 142.708 28.2323 141.684 27.7809L140.501 30.4652ZM142.33 31.7098C142.844 32.212 143.247 32.8073 143.54 33.5104L146.247 32.3822C145.808 31.3274 145.186 30.3993 144.381 29.6125L142.33 31.7098ZM143.551 33.5377C143.847 34.2083 143.998 34.9289 143.998 35.7148H146.932C146.932 34.5379 146.702 33.4128 146.236 32.3548L143.551 33.5377ZM143.998 35.7148C143.998 36.5008 143.847 37.2214 143.551 37.892L146.236 39.0748C146.702 38.0169 146.932 36.8918 146.932 35.7148H143.998ZM143.543 37.9112C143.251 38.6 142.848 39.1916 142.33 39.6979L144.381 41.7953C145.181 41.0125 145.803 40.0953 146.244 39.0556L143.543 37.9112ZM142.318 39.7095C141.807 40.221 141.205 40.6322 140.501 40.9425L141.684 43.6268C142.708 43.1754 143.615 42.5612 144.393 41.7837L142.318 39.7095ZM140.501 40.9425C139.83 41.238 139.11 41.3893 138.324 41.3893V44.3226C139.501 44.3226 140.626 44.093 141.684 43.6268L140.501 40.9425ZM138.324 41.3893C137.538 41.3893 136.807 41.238 136.116 40.9389L134.95 43.6304C136.018 44.093 137.147 44.3226 138.324 44.3226V41.3893ZM136.125 40.9425C135.42 40.6322 134.819 40.221 134.307 39.7095L132.233 41.7837C133.01 42.5612 133.917 43.1754 134.942 43.6268L136.125 40.9425ZM134.307 39.7095C133.796 39.198 133.384 38.5962 133.074 37.892L130.39 39.0748C130.841 40.0991 131.455 41.0061 132.233 41.7837L134.307 39.7095ZM133.074 37.892C132.779 37.2214 132.627 36.5008 132.627 35.7148H129.694C129.694 36.8918 129.924 38.0169 130.39 39.0748L133.074 37.892ZM133.21 35.7148C133.21 36.3991 133.328 37.0646 133.567 37.702L136.313 36.672C136.201 36.3719 136.143 36.056 136.143 35.7148H133.21ZM133.587 37.7542C133.841 38.359 134.188 38.9064 134.628 39.3866L136.79 37.4044C136.586 37.1815 136.42 36.9232 136.292 36.6198L133.587 37.7542ZM134.672 39.4326C135.132 39.8926 135.662 40.2615 136.253 40.5376L137.494 37.8794C137.206 37.7453 136.96 37.5723 136.746 37.3584L134.672 39.4326ZM136.29 40.5542C136.932 40.8322 137.616 40.9608 138.324 40.9608V38.0275C137.977 38.0275 137.694 37.9657 137.457 37.8627L136.29 40.5542ZM138.324 40.9608C139.023 40.9608 139.699 40.8299 140.335 40.5542L139.169 37.8627C138.926 37.9679 138.65 38.0275 138.324 38.0275V40.9608ZM140.356 40.5452C140.969 40.2681 141.515 39.8912 141.976 39.4093L139.857 37.3817C139.673 37.5736 139.443 37.7388 139.148 37.8718L140.356 40.5452ZM141.998 39.3866C142.446 38.8975 142.791 38.3373 143.031 37.7165L140.296 36.6576C140.185 36.9449 140.032 37.1904 139.835 37.4044L141.998 39.3866ZM143.022 37.739C143.285 37.0926 143.416 36.4142 143.416 35.7148H140.483C140.483 36.0409 140.423 36.3439 140.305 36.635L143.022 37.739ZM143.416 35.7148C143.416 35.0067 143.287 34.3217 143.016 33.6755L140.311 34.8099C140.421 35.0719 140.483 35.3683 140.483 35.7148H143.416ZM143.031 33.7132C142.789 33.0871 142.438 32.525 141.976 32.0424L139.857 34.0699C140.039 34.2611 140.187 34.49 140.296 34.7721L143.031 33.7132ZM141.998 32.0651C141.527 31.5522 140.962 31.1603 140.319 30.8906L139.185 33.5957C139.45 33.7069 139.661 33.857 139.835 34.0472L141.998 32.0651ZM140.372 30.9141C139.727 30.6132 139.038 30.4689 138.324 30.4689V33.4022C138.635 33.4022 138.898 33.4629 139.132 33.5722L140.372 30.9141ZM138.324 30.4689C137.601 30.4689 136.903 30.6107 136.253 30.9141L137.494 33.5722C137.723 33.4655 137.992 33.4022 138.324 33.4022V30.4689ZM136.29 30.8974C135.669 31.1667 135.12 31.5513 134.65 32.0414L136.768 34.0709C136.972 33.8578 137.199 33.7004 137.457 33.5889L136.29 30.8974ZM134.649 32.0424C134.196 32.5161 133.843 33.0653 133.587 33.6755L136.292 34.8099C136.417 34.5119 136.578 34.27 136.769 34.0699L134.649 32.0424ZM133.572 33.7132C133.326 34.3497 133.21 35.0215 133.21 35.7148H136.143C136.143 35.3535 136.203 35.0438 136.308 34.7721L133.572 33.7132ZM152.584 31.7598L153.93 32.3419L153.936 32.3289L152.584 31.7598ZM153.551 30.3315L154.569 31.3873L154.578 31.3781L154.588 31.3686L153.551 30.3315ZM154.979 29.3647L155.561 30.7109L155.57 30.7073L155.578 30.7035L154.979 29.3647ZM175.567 29.3647L174.955 30.6975L174.976 30.7073L174.998 30.7165L175.567 29.3647ZM177.018 30.3315L175.98 31.3686L175.99 31.3781L176 31.3873L177.018 30.3315ZM177.984 31.7598L176.633 32.3289L176.638 32.3419L177.984 31.7598ZM178.336 37.5605V39.0272H179.803V37.5605H178.336ZM173.832 37.5605H172.365V39.0272H173.832V37.5605ZM173.832 33.4956H175.298V32.0289H173.832V33.4956ZM156.737 33.4956V32.0289H155.27V33.4956H156.737ZM156.737 55.9956H155.27V57.4623H156.737V55.9956ZM173.832 55.9956V57.4623H175.298V55.9956H173.832ZM173.832 51.9526V50.486H172.365V51.9526H173.832ZM178.336 51.9526H179.803V50.486H178.336V51.9526ZM177.984 57.7534L179.331 58.3356L179.336 58.3226L177.984 57.7534ZM175.567 60.1484L174.998 58.7966L174.985 58.8022L175.567 60.1484ZM154.979 60.1484L154.397 61.4947L154.41 61.5002L154.979 60.1484ZM152.584 57.7534L151.232 58.3226L151.238 58.3356L152.584 57.7534ZM153.699 33.4956C153.699 33.072 153.779 32.6924 153.93 32.3419L151.238 31.1776C150.921 31.9111 150.766 32.6887 150.766 33.4956H153.699ZM153.936 32.3289C154.098 31.9442 154.31 31.6367 154.569 31.3873L152.533 29.2758C151.971 29.8174 151.539 30.462 151.232 31.1906L153.936 32.3289ZM154.588 31.3686C154.865 31.0917 155.186 30.8732 155.561 30.7109L154.397 28.0186C153.688 28.325 153.057 28.7511 152.514 29.2945L154.588 31.3686ZM155.578 30.7035C155.944 30.5396 156.326 30.4579 156.737 30.4579V27.5245C155.917 27.5245 155.127 27.6919 154.38 28.0259L155.578 30.7035ZM156.737 30.4579H173.832V27.5245H156.737V30.4579ZM173.832 30.4579C174.242 30.4579 174.611 30.5395 174.955 30.6975L176.18 28.032C175.44 27.6919 174.651 27.5245 173.832 27.5245V30.4579ZM174.998 30.7165C175.387 30.8803 175.71 31.0982 175.98 31.3686L178.055 29.2945C177.505 28.7446 176.861 28.3179 176.137 28.013L174.998 30.7165ZM176 31.3873C176.258 31.6367 176.471 31.9442 176.633 32.3289L179.336 31.1906C179.029 30.462 178.597 29.8174 178.036 29.2758L176 31.3873ZM176.638 32.3419C176.79 32.6924 176.869 33.072 176.869 33.4956H179.803C179.803 32.6887 179.648 31.9111 179.331 31.1776L176.638 32.3419ZM176.869 33.4956V37.5605H179.803V33.4956H176.869ZM178.336 36.0939H173.832V39.0272H178.336V36.0939ZM175.298 37.5605V33.4956H172.365V37.5605H175.298ZM173.832 32.0289H156.737V34.9623H173.832V32.0289ZM155.27 33.4956V55.9956H158.203V33.4956H155.27ZM156.737 57.4623H173.832V54.5289H156.737V57.4623ZM175.298 55.9956V51.9526H172.365V55.9956H175.298ZM173.832 53.4193H178.336V50.486H173.832V53.4193ZM176.869 51.9526V55.9956H179.803V51.9526H176.869ZM176.869 55.9956C176.869 56.4191 176.79 56.8112 176.633 57.1843L179.336 58.3226C179.648 57.5824 179.803 56.8026 179.803 55.9956H176.869ZM176.638 57.1713C176.476 57.5466 176.257 57.8676 175.98 58.1446L178.055 60.2187C178.598 59.6754 179.024 59.0442 179.331 58.3356L176.638 57.1713ZM175.98 58.1446C175.71 58.415 175.387 58.6329 174.998 58.7967L176.137 61.5002C176.861 61.1953 177.505 60.7686 178.055 60.2187L175.98 58.1446ZM174.985 58.8022C174.635 58.9538 174.255 59.0333 173.832 59.0333V61.9667C174.638 61.9667 175.416 61.8118 176.15 61.4946L174.985 58.8022ZM173.832 59.0333H156.737V61.9667H173.832V59.0333ZM156.737 59.0333C156.313 59.0333 155.921 58.9538 155.548 58.7967L154.41 61.5002C155.15 61.8118 155.93 61.9667 156.737 61.9667V59.0333ZM155.561 58.8022C155.186 58.6399 154.865 58.4215 154.588 58.1446L152.514 60.2187C153.057 60.7621 153.688 61.1882 154.397 61.4946L155.561 58.8022ZM154.588 58.1446C154.311 57.8676 154.092 57.5466 153.93 57.1713L151.238 58.3356C151.544 59.0442 151.97 59.6754 152.514 60.2187L154.588 58.1446ZM153.936 57.1843C153.779 56.8112 153.699 56.4191 153.699 55.9956H150.766C150.766 56.8026 150.921 57.5824 151.232 58.3226L153.936 57.1843ZM153.699 55.9956V33.4956H150.766V55.9956H153.699Z" fill="#33E9E9"/>
</g>
<g filter="url(#filter5_f_181_9337)">
<path d="M95.1914 28.9912H95.9247V28.2579H95.1914V28.9912ZM95.1914 60.5V61.2333H95.9247V60.5H95.1914ZM90.687 60.5H89.9537V61.2333H90.687V60.5ZM90.687 33.4956H91.4203V32.7623H90.687V33.4956ZM85.2817 33.4956H84.5484V34.2289H85.2817V33.4956ZM85.2817 28.9912V28.2579H84.5484V28.9912H85.2817ZM94.4581 28.9912V60.5H95.9247V28.9912H94.4581ZM95.1914 59.7667H90.687V61.2333H95.1914V59.7667ZM91.4203 60.5V33.4956H89.9537V60.5H91.4203ZM90.687 32.7623H85.2817V34.2289H90.687V32.7623ZM86.0151 33.4956V28.9912H84.5484V33.4956H86.0151ZM85.2817 29.7245H95.1914V28.2579H85.2817V29.7245ZM125.733 52.8535L126.467 52.8661V52.8535H125.733ZM123.8 58.6104L124.321 59.1259L124.324 59.1228L123.8 58.6104ZM101.959 50.9639V50.2305H101.226V50.9639H101.959ZM106.375 50.9639H107.109V50.2305H106.375V50.9639ZM120.526 45.8003L119.993 46.3047L120 46.3117L120.526 45.8003ZM102.86 44.9653H102.127V45.6987H102.86V44.9653ZM102.86 28.9912V28.2579H102.127V28.9912H102.86ZM124.92 28.9912H125.654V28.2579H124.92V28.9912ZM124.92 33.4956V34.2289H125.654V33.4956H124.92ZM107.364 33.4956V32.7623H106.631V33.4956H107.364ZM107.364 40.5708H106.631V41.3041H107.364V40.5708ZM123.844 42.4604L123.325 42.979L123.328 42.982L123.844 42.4604ZM125 52.8409C124.958 55.2991 124.342 57.0062 123.275 58.0979L124.324 59.1228C125.748 57.6656 126.421 55.5349 126.467 52.8661L125 52.8409ZM123.278 58.0948C122.222 59.1631 120.542 59.7667 118.087 59.7667V61.2333C120.758 61.2333 122.887 60.5771 124.321 59.1259L123.278 58.0948ZM118.087 59.7667H109.627V61.2333H118.087V59.7667ZM109.627 59.7667C107.184 59.7667 105.486 59.1579 104.394 58.0691C103.302 56.9806 102.692 55.2888 102.692 52.8535H101.226C101.226 55.5159 101.894 57.6473 103.358 59.1077C104.822 60.5677 106.959 61.2333 109.627 61.2333V59.7667ZM102.692 52.8535V50.9639H101.226V52.8535H102.692ZM101.959 51.6972H106.375V50.2305H101.959V51.6972ZM105.642 50.9639V52.6338H107.109V50.9639H105.642ZM105.642 52.6338C105.642 53.9085 105.923 55.0018 106.634 55.7529L107.699 54.7442C107.356 54.382 107.109 53.7321 107.109 52.6338H105.642ZM106.634 55.7529C107.362 56.5207 108.468 56.8168 109.759 56.8168V55.3502C108.648 55.3502 108.026 55.0897 107.699 54.7442L106.634 55.7529ZM109.759 56.8168H117.933V55.3502H109.759V56.8168ZM117.933 56.8168C119.224 56.8168 120.331 56.5207 121.058 55.7529L119.994 54.7442C119.666 55.0897 119.045 55.3502 117.933 55.3502V56.8168ZM121.058 55.7529C121.77 55.0018 122.05 53.9085 122.05 52.6338H120.584C120.584 53.7321 120.337 54.382 119.994 54.7442L121.058 55.7529ZM122.05 52.6338V48.3931H120.584V52.6338H122.05ZM122.05 48.3931C122.05 47.1206 121.771 46.0281 121.051 45.2889L120 46.3117C120.336 46.6565 120.584 47.2925 120.584 48.3931H122.05ZM121.058 45.2959C120.331 44.5281 119.224 44.232 117.933 44.232V45.6987C119.045 45.6987 119.666 45.9592 119.994 46.3046L121.058 45.2959ZM117.933 44.232H102.86V45.6987H117.933V44.232ZM103.593 44.9653V28.9912H102.127V44.9653H103.593ZM102.86 29.7245H124.92V28.2579H102.86V29.7245ZM124.187 28.9912V33.4956H125.654V28.9912H124.187ZM124.92 32.7623H107.364V34.2289H124.92V32.7623ZM106.631 33.4956V40.5708H108.098V33.4956H106.631ZM107.364 41.3041H118.087V39.8375H107.364V41.3041ZM118.087 41.3041C120.558 41.3041 122.254 41.9081 123.325 42.979L124.362 41.9419C122.914 40.4933 120.772 39.8375 118.087 39.8375V41.3041ZM123.328 42.982C124.395 44.0365 125 45.7296 125 48.2173H126.467C126.467 45.5194 125.812 43.3747 124.359 41.9389L123.328 42.982ZM125 48.2173V52.8535H126.467V48.2173H125ZM131.732 32.9463L132.403 33.242L132.405 33.2379L131.732 32.9463ZM135.533 29.123L135.242 28.4502L135.237 28.452L135.533 29.123ZM143.355 30.6611L142.837 31.1797L142.843 31.1855L143.355 30.6611ZM144.894 32.9463L144.217 33.2283L144.219 33.2352L144.222 33.242L144.894 32.9463ZM144.894 38.4834L144.222 38.1876L144.218 38.1973L144.894 38.4834ZM143.355 40.7466L142.843 40.2222L142.837 40.228L143.355 40.7466ZM135.533 42.2847L135.237 42.9557L135.242 42.9575L135.533 42.2847ZM134.94 37.187L134.253 37.4445L134.258 37.4577L134.264 37.4706L134.94 37.187ZM135.709 38.3955L135.168 38.891L135.179 38.9028L135.19 38.9141L135.709 38.3955ZM136.874 39.2085L136.563 39.873L136.573 39.8773L136.582 39.8814L136.874 39.2085ZM139.752 39.2085L140.044 39.8814L140.054 39.8768L139.752 39.2085ZM140.917 38.3955L141.446 38.9024L141.452 38.8968L141.457 38.891L140.917 38.3955ZM141.664 37.187L140.984 36.911L140.98 36.9223L141.664 37.187ZM141.664 34.2427L140.98 34.5074L140.983 34.5169L140.987 34.5263L141.664 34.2427ZM140.917 33.0562L140.376 33.5517L140.381 33.5574L140.387 33.563L140.917 33.0562ZM139.752 32.2432L139.442 32.9077L139.455 32.9138L139.468 32.9194L139.752 32.2432ZM136.874 32.2432L137.165 32.916L137.174 32.912L137.184 32.9077L136.874 32.2432ZM135.709 33.0562L135.18 32.5488L135.179 32.5493L135.709 33.0562ZM134.94 34.2427L134.264 33.9591L134.26 33.9685L134.256 33.9779L134.94 34.2427ZM131.894 35.7148C131.894 34.8311 132.065 34.0094 132.403 33.242L131.061 32.6506C130.637 33.6117 130.427 34.6356 130.427 35.7148H131.894ZM132.405 33.2379C132.751 32.4393 133.213 31.7557 133.789 31.1797L132.751 30.1426C132.038 30.8557 131.475 31.6955 131.059 32.6547L132.405 33.2379ZM133.789 31.1797C134.367 30.6017 135.045 30.1397 135.829 29.7941L135.237 28.452C134.293 28.8681 133.463 29.4315 132.751 30.1426L133.789 31.1797ZM135.825 29.7959C136.609 29.4559 137.44 29.2851 138.324 29.2851V27.8184C137.245 27.8184 136.215 28.0284 135.242 28.4502L135.825 29.7959ZM138.324 29.2851C139.207 29.2851 140.029 29.4559 140.797 29.7941L141.388 28.452C140.427 28.0284 139.403 27.8184 138.324 27.8184V29.2851ZM140.797 29.7941C141.581 30.1397 142.259 30.6017 142.837 31.1797L143.874 30.1426C143.163 29.4315 142.332 28.8681 141.388 28.452L140.797 29.7941ZM142.843 31.1855C143.429 31.7588 143.887 32.4374 144.217 33.2283L145.57 32.6642C145.168 31.6974 144.6 30.8525 143.868 30.1368L142.843 31.1855ZM144.222 33.242C144.561 34.0094 144.732 34.8311 144.732 35.7148H146.198C146.198 34.6356 145.988 33.6117 145.565 32.6506L144.222 33.242ZM144.732 35.7148C144.732 36.5985 144.561 37.4203 144.222 38.1877L145.565 38.7791C145.988 37.818 146.198 36.794 146.198 35.7148H144.732ZM144.218 38.1973C143.889 38.9738 143.431 39.6468 142.843 40.2222L143.868 41.2709C144.598 40.5573 145.165 39.7215 145.569 38.7695L144.218 38.1973ZM142.837 40.228C142.259 40.8061 141.581 41.268 140.797 41.6136L141.388 42.9557C142.332 42.5396 143.163 41.9762 143.874 41.2651L142.837 40.228ZM140.797 41.6136C140.029 41.9518 139.207 42.1226 138.324 42.1226V43.5893C139.403 43.5893 140.427 43.3793 141.388 42.9557L140.797 41.6136ZM138.324 42.1226C137.44 42.1226 136.609 41.9518 135.825 41.6118L135.242 42.9575C136.215 43.3793 137.245 43.5893 138.324 43.5893V42.1226ZM135.829 41.6136C135.045 41.268 134.367 40.8061 133.789 40.228L132.751 41.2651C133.463 41.9762 134.293 42.5396 135.237 42.9557L135.829 41.6136ZM133.789 40.228C133.211 39.65 132.749 38.9719 132.403 38.1877L131.061 38.7791C131.477 39.7234 132.04 40.5541 132.751 41.2651L133.789 40.228ZM132.403 38.1877C132.065 37.4203 131.894 36.5985 131.894 35.7148H130.427C130.427 36.794 130.637 37.818 131.061 38.7791L132.403 38.1877ZM133.943 35.7148C133.943 36.3133 134.046 36.8914 134.253 37.4445L135.627 36.9295C135.482 36.5451 135.41 36.1418 135.41 35.7148H133.943ZM134.264 37.4706C134.486 38.0001 134.787 38.4752 135.168 38.891L136.25 37.9C135.986 37.6127 135.775 37.2821 135.616 36.9034L134.264 37.4706ZM135.19 38.9141C135.589 39.3125 136.048 39.6325 136.563 39.873L137.184 38.544C136.82 38.3744 136.503 38.1524 136.228 37.877L135.19 38.9141ZM136.582 39.8814C137.122 40.1155 137.706 40.2275 138.324 40.2275V38.7608C137.886 38.7608 137.504 38.6823 137.165 38.5356L136.582 39.8814ZM138.324 40.2275C138.93 40.2275 139.506 40.1144 140.044 39.8814L139.46 38.5356C139.119 38.6834 138.743 38.7608 138.324 38.7608V40.2275ZM140.054 39.8768C140.588 39.6357 141.055 39.3118 141.446 38.9024L140.387 37.8886C140.134 38.153 139.824 38.3711 139.45 38.5402L140.054 39.8768ZM141.457 38.891C141.842 38.4707 142.139 37.9892 142.347 37.4517L140.98 36.9223C140.836 37.293 140.635 37.6172 140.376 37.9L141.457 38.891ZM142.343 37.463C142.57 36.9054 142.683 36.3209 142.683 35.7148H141.216C141.216 36.1342 141.138 36.5311 140.984 36.911L142.343 37.463ZM142.683 35.7148C142.683 35.0971 142.571 34.5092 142.34 33.9591L140.987 34.5263C141.137 34.8843 141.216 35.2779 141.216 35.7148H142.683ZM142.347 33.9779C142.138 33.4378 141.838 32.9591 141.446 32.5493L140.387 33.563C140.639 33.8271 140.837 34.1393 140.98 34.5074L142.347 33.9779ZM141.457 32.5606C141.061 32.1284 140.584 31.7969 140.036 31.5669L139.468 32.9194C139.828 33.0703 140.128 33.2808 140.376 33.5517L141.457 32.5606ZM140.062 31.5786C139.52 31.3257 138.937 31.2022 138.324 31.2022V32.6689C138.736 32.6689 139.105 32.7505 139.442 32.9077L140.062 31.5786ZM138.324 31.2022C137.699 31.2022 137.108 31.3244 136.563 31.5786L137.184 32.9077C137.518 32.7518 137.894 32.6689 138.324 32.6689V31.2022ZM136.582 31.5703C136.051 31.8002 135.583 32.128 135.18 32.5488L136.238 33.5635C136.509 33.2812 136.817 33.067 137.165 32.916L136.582 31.5703ZM135.179 32.5493C134.791 32.9546 134.487 33.4269 134.264 33.9591L135.616 34.5263C135.774 34.1502 135.982 33.8315 136.239 33.563L135.179 32.5493ZM134.256 33.9779C134.045 34.5232 133.943 35.1045 133.943 35.7148H135.41C135.41 35.2705 135.483 34.8703 135.624 34.5074L134.256 33.9779ZM152.584 31.7598L153.257 32.0508L153.26 32.0443L152.584 31.7598ZM153.551 30.3315L154.06 30.8595L154.069 30.8501L153.551 30.3315ZM154.979 29.3647L155.27 30.0379L155.278 30.0341L154.979 29.3647ZM175.567 29.3647L175.261 30.0311L175.272 30.036L175.283 30.0406L175.567 29.3647ZM177.018 30.3315L176.499 30.8502L176.509 30.8594L177.018 30.3315ZM177.984 31.7598L177.308 32.0444L177.311 32.0508L177.984 31.7598ZM178.336 37.5605V38.2939H179.069V37.5605H178.336ZM173.832 37.5605H173.098V38.2939H173.832V37.5605ZM173.832 33.4956H174.565V32.7623H173.832V33.4956ZM156.737 33.4956V32.7623H156.003V33.4956H156.737ZM156.737 55.9956H156.003V56.7289H156.737V55.9956ZM173.832 55.9956V56.7289H174.565V55.9956H173.832ZM173.832 51.9526V51.2193H173.098V51.9526H173.832ZM178.336 51.9526H179.069V51.2193H178.336V51.9526ZM177.984 57.7534L178.658 58.0445L178.66 58.038L177.984 57.7534ZM175.567 60.1484L175.283 59.4725L175.276 59.4753L175.567 60.1484ZM154.979 60.1484L154.688 60.8216L154.694 60.8243L154.979 60.1484ZM152.584 57.7534L151.908 58.038L151.911 58.0445L152.584 57.7534ZM152.966 33.4956C152.966 32.9762 153.064 32.4971 153.257 32.0508L151.911 31.4687C151.635 32.1064 151.499 32.7845 151.499 33.4956H152.966ZM153.26 32.0443C153.458 31.5737 153.725 31.1819 154.06 30.8594L153.042 29.8037C152.556 30.2722 152.179 30.8326 151.908 31.4752L153.26 32.0443ZM154.069 30.8501C154.413 30.5065 154.811 30.2362 155.27 30.0378L154.688 28.6917C154.063 28.9621 153.509 29.3362 153.032 29.813L154.069 30.8501ZM155.278 30.0341C155.74 29.8277 156.224 29.7245 156.737 29.7245V28.2579C156.019 28.2579 155.331 28.4038 154.68 28.6953L155.278 30.0341ZM156.737 29.7245H173.832V28.2579H156.737V29.7245ZM173.832 29.7245C174.345 29.7245 174.818 29.8276 175.261 30.0311L175.874 28.6984C175.232 28.4038 174.549 28.2579 173.832 28.2579V29.7245ZM175.283 30.0406C175.756 30.2397 176.159 30.5098 176.499 30.8501L177.536 29.813C177.056 29.333 176.492 28.9585 175.852 28.6889L175.283 30.0406ZM176.509 30.8594C176.843 31.1819 177.11 31.5737 177.309 32.0443L178.66 31.4752C178.39 30.8326 178.013 30.2722 177.527 29.8037L176.509 30.8594ZM177.311 32.0508C177.504 32.4971 177.603 32.9762 177.603 33.4956H179.069C179.069 32.7845 178.933 32.1064 178.657 31.4687L177.311 32.0508ZM177.603 33.4956V37.5605H179.069V33.4956H177.603ZM178.336 36.8272H173.832V38.2939H178.336V36.8272ZM174.565 37.5605V33.4956H173.098V37.5605H174.565ZM173.832 32.7623H156.737V34.2289H173.832V32.7623ZM156.003 33.4956V55.9956H157.47V33.4956H156.003ZM156.737 56.7289H173.832V55.2623H156.737V56.7289ZM174.565 55.9956V51.9526H173.098V55.9956H174.565ZM173.832 52.686H178.336V51.2193H173.832V52.686ZM177.603 51.9526V55.9956H179.069V51.9526H177.603ZM177.603 55.9956C177.603 56.515 177.504 57.004 177.309 57.4688L178.66 58.038C178.933 57.3896 179.069 56.7067 179.069 55.9956H177.603ZM177.311 57.4623C177.113 57.921 176.843 58.3195 176.499 58.6631L177.536 59.7002C178.013 59.2234 178.387 58.6698 178.657 58.0445L177.311 57.4623ZM176.499 58.6631C176.159 59.0034 175.756 59.2735 175.283 59.4726L175.852 60.8243C176.492 60.5547 177.056 60.1802 177.536 59.7002L176.499 58.6631ZM175.276 59.4753C174.83 59.6683 174.351 59.7667 173.832 59.7667V61.2333C174.543 61.2333 175.221 61.0973 175.858 60.8215L175.276 59.4753ZM173.832 59.7667H156.737V61.2333H173.832V59.7667ZM156.737 59.7667C156.217 59.7667 155.728 59.6683 155.264 59.4726L154.694 60.8243C155.343 61.0973 156.026 61.2333 156.737 61.2333V59.7667ZM155.27 59.4753C154.811 59.277 154.413 59.0067 154.069 58.6631L153.032 59.7002C153.509 60.1769 154.063 60.5511 154.688 60.8215L155.27 59.4753ZM154.069 58.6631C153.726 58.3195 153.455 57.921 153.257 57.4623L151.911 58.0445C152.181 58.6698 152.555 59.2234 153.032 59.7002L154.069 58.6631ZM153.26 57.4688C153.064 57.004 152.966 56.515 152.966 55.9956H151.499C151.499 56.7067 151.635 57.3896 151.908 58.038L153.26 57.4688ZM152.966 55.9956V33.4956H151.499V55.9956H152.966Z" fill="white"/>
</g>
<defs>
<filter id="filter0_f_181_9337" x="37.4004" y="11" width="167.199" height="88" filterUnits="userSpaceOnUse" color-interpolation-filters="sRGB">
<feFlood flood-opacity="0" result="BackgroundImageFix"/>
<feBlend mode="normal" in="SourceGraphic" in2="BackgroundImageFix" result="shape"/>
<feGaussianBlur stdDeviation="5.5" result="effect1_foregroundBlur_181_9337"/>
</filter>
<filter id="filter1_f_181_9337" x="74.2812" y="17.5518" width="115.055" height="53.9482" filterUnits="userSpaceOnUse" color-interpolation-filters="sRGB">
<feFlood flood-opacity="0" result="BackgroundImageFix"/>
<feBlend mode="normal" in="SourceGraphic" in2="BackgroundImageFix" result="shape"/>
<feGaussianBlur stdDeviation="5.5" result="effect1_foregroundBlur_181_9337"/>
</filter>
<filter id="filter2_f_181_9337" x="81.6146" y="24.8851" width="100.388" height="39.2816" filterUnits="userSpaceOnUse" color-interpolation-filters="sRGB">
<feFlood flood-opacity="0" result="BackgroundImageFix"/>
<feBlend mode="normal" in="SourceGraphic" in2="BackgroundImageFix" result="shape"/>
<feGaussianBlur stdDeviation="1.83333" result="effect1_foregroundBlur_181_9337"/>
</filter>
<filter id="filter3_ddi_181_9337" x="80.5146" y="27.4518" width="102.588" height="41.4816" filterUnits="userSpaceOnUse" color-interpolation-filters="sRGB">
<feFlood flood-opacity="0" result="BackgroundImageFix"/>
<feColorMatrix in="SourceAlpha" type="matrix" values="0 0 0 0 0 0 0 0 0 0 0 0 0 0 0 0 0 0 127 0" result="hardAlpha"/>
<feOffset dy="2.38333"/>
<feGaussianBlur stdDeviation="0.916667"/>
<feColorMatrix type="matrix" values="0 0 0 0 0 0 0 0 0 0.3 0 0 0 0 0.275 0 0 0 0.7 0"/>
<feBlend mode="multiply" in2="BackgroundImageFix" result="effect1_dropShadow_181_9337"/>
<feColorMatrix in="SourceAlpha" type="matrix" values="0 0 0 0 0 0 0 0 0 0 0 0 0 0 0 0 0 0 127 0" result="hardAlpha"/>
<feOffset dy="3.66667"/>
<feGaussianBlur stdDeviation="2.38333"/>
<feColorMatrix type="matrix" values="0 0 0 0 0 0 0 0 0 0.6 0 0 0 0 0.6 0 0 0 1 0"/>
<feBlend mode="color-dodge" in2="effect1_dropShadow_181_9337" result="effect2_dropShadow_181_9337"/>
<feBlend mode="normal" in="SourceGraphic" in2="effect2_dropShadow_181_9337" result="shape"/>
<feColorMatrix in="SourceAlpha" type="matrix" values="0 0 0 0 0 0 0 0 0 0 0 0 0 0 0 0 0 0 127 0" result="hardAlpha"/>
<feOffset dx="-0.238333" dy="0.476667"/>
<feGaussianBlur stdDeviation="0.119167"/>
<feComposite in2="hardAlpha" operator="arithmetic" k2="-1" k3="1"/>
<feColorMatrix type="matrix" values="0 0 0 0 1 0 0 0 0 1 0 0 0 0 1 0 0 0 0.5 0"/>
<feBlend mode="normal" in2="shape" result="effect3_innerShadow_181_9337"/>
</filter>
<filter id="filter4_f_181_9337" x="84.9146" y="28.1851" width="93.788" height="32.6816" filterUnits="userSpaceOnUse" color-interpolation-filters="sRGB">
<feFlood flood-opacity="0" result="BackgroundImageFix"/>
<feBlend mode="normal" in="SourceGraphic" in2="BackgroundImageFix" result="shape"/>
<feGaussianBlur stdDeviation="0.183333" result="effect1_foregroundBlur_181_9337"/>
</filter>
<filter id="filter5_f_181_9337" x="85.0368" y="28.3073" width="93.5436" height="32.4371" filterUnits="userSpaceOnUse" color-interpolation-filters="sRGB">
<feFlood flood-opacity="0" result="BackgroundImageFix"/>
<feBlend mode="normal" in="SourceGraphic" in2="BackgroundImageFix" result="shape"/>
<feGaussianBlur stdDeviation="0.122222" result="effect1_foregroundBlur_181_9337"/>
</filter>
</defs>
</svg>
