<svg width="226" height="108" viewBox="0 0 226 108" fill="none" xmlns="http://www.w3.org/2000/svg">
<g style="mix-blend-mode:hard-light" filter="url(#filter0_f_181_9345)">
<ellipse cx="112.999" cy="54" rx="67.8" ry="32.4" fill="#33E9C6" fill-opacity="0.1"/>
</g>
<g style="mix-blend-mode:hard-light" filter="url(#filter1_f_181_9345)">
<path d="M86.2676 52.3535L88.5287 52.3923L88.529 52.3729V52.3535H86.2676ZM84.334 58.1104L85.9424 59.7001L85.9516 59.6907L84.334 58.1104ZM62.4932 50.4639V48.2024H60.2317V50.4639H62.4932ZM66.9097 50.4639H69.1711V48.2024H66.9097V50.4639ZM81.0601 45.3003L79.4183 46.8556L79.4287 46.8665L79.4392 46.8773L81.0601 45.3003ZM63.394 44.4653H61.1326V46.7268H63.394V44.4653ZM63.394 28.4912V26.2298H61.1326V28.4912H63.394ZM85.4546 28.4912H87.716V26.2298H85.4546V28.4912ZM85.4546 32.9956V35.2571H87.716V32.9956H85.4546ZM67.8984 32.9956V30.7341H65.637V32.9956H67.8984ZM67.8984 40.0708H65.637V42.3323H67.8984V40.0708ZM84.3779 41.9604L82.7788 43.5596L82.7882 43.5689L84.3779 41.9604ZM84.0065 52.3148C83.9681 54.5534 83.4109 55.8192 82.7164 56.53L85.9516 59.6907C87.7474 57.8527 88.4792 55.2806 88.5287 52.3923L84.0065 52.3148ZM82.7256 56.5206C82.0642 57.1898 80.8516 57.7385 78.6211 57.7385V62.2615C81.5175 62.2615 84.1136 61.5504 85.9424 59.7001L82.7256 56.5206ZM78.6211 57.7385H70.1616V62.2615H78.6211V57.7385ZM70.1616 57.7385C67.9524 57.7385 66.7112 57.1891 66.0071 56.487C65.3041 55.786 64.7546 54.5521 64.7546 52.3535H60.2317C60.2317 55.2526 60.9603 57.8419 62.8135 59.6898C64.6655 61.5364 67.2585 62.2615 70.1616 62.2615V57.7385ZM64.7546 52.3535V50.4639H60.2317V52.3535H64.7546ZM62.4932 52.7253H66.9097V48.2024H62.4932V52.7253ZM64.6482 50.4639V52.1338H69.1711V50.4639H64.6482ZM64.6482 52.1338C64.6482 53.5923 64.9637 55.1477 66.059 56.3038L69.3424 53.1932C69.383 53.2361 69.1711 53.0483 69.1711 52.1338H64.6482ZM66.059 56.3038C67.2033 57.5117 68.8157 57.845 70.2935 57.845V53.322C69.8569 53.322 69.5867 53.2702 69.4376 53.2222C69.3002 53.1779 69.3008 53.1493 69.3424 53.1932L66.059 56.3038ZM70.2935 57.845H78.4673V53.322H70.2935V57.845ZM78.4673 57.845C79.945 57.845 81.5575 57.5117 82.7018 56.3038L79.4183 53.1932C79.4599 53.1493 79.4606 53.1779 79.3231 53.2222C79.174 53.2702 78.9038 53.322 78.4673 53.322V57.845ZM82.7018 56.3038C83.7971 55.1477 84.1125 53.5923 84.1125 52.1338H79.5896C79.5896 53.0483 79.3777 53.2361 79.4183 53.1932L82.7018 56.3038ZM84.1125 52.1338V47.8931H79.5896V52.1338H84.1125ZM84.1125 47.8931C84.1125 46.4414 83.7999 44.8734 82.6809 43.7233L79.4392 46.8773C79.3749 46.8112 79.5896 46.9717 79.5896 47.8931H84.1125ZM82.7018 43.745C81.5575 42.5371 79.945 42.2039 78.4673 42.2039V46.7268C78.9038 46.7268 79.174 46.7786 79.3231 46.8267C79.4606 46.8709 79.4599 46.8995 79.4183 46.8556L82.7018 43.745ZM78.4673 42.2039H63.394V46.7268H78.4673V42.2039ZM65.6555 44.4653V28.4912H61.1326V44.4653H65.6555ZM63.394 30.7527H85.4546V26.2298H63.394V30.7527ZM83.1931 28.4912V32.9956H87.716V28.4912H83.1931ZM85.4546 30.7341H67.8984V35.2571H85.4546V30.7341ZM65.637 32.9956V40.0708H70.1599V32.9956H65.637ZM67.8984 42.3323H78.6211V37.8093H67.8984V42.3323ZM78.6211 42.3323C80.8682 42.3323 82.1014 42.8821 82.7788 43.5595L85.977 40.3614C84.1349 38.5192 81.5302 37.8093 78.6211 37.8093V42.3323ZM82.7882 43.5689C83.4531 44.226 84.0061 45.4487 84.0061 47.7173H88.529C88.529 44.8003 87.8223 42.1851 85.9676 40.352L82.7882 43.5689ZM84.0061 47.7173V52.3535H88.529V47.7173H84.0061ZM116.084 57.2534L118.16 58.151L118.164 58.141L118.169 58.131L116.084 57.2534ZM113.667 59.6484L112.79 57.5642L112.78 57.5684L112.77 57.5727L113.667 59.6484ZM95.7817 59.6484L94.8841 61.7241L94.8941 61.7285L94.9042 61.7327L95.7817 59.6484ZM93.3867 57.2534L91.3025 58.131L91.3067 58.141L91.311 58.151L93.3867 57.2534ZM93.0352 51.4526V49.1912H90.7737V51.4526H93.0352ZM97.5396 51.4526H99.801V49.1912H97.5396V51.4526ZM97.5396 55.4956H95.2781V57.7571H97.5396V55.4956ZM111.932 55.4956V57.7571H114.193V55.4956H111.932ZM111.932 46.5088H114.193V44.2473H111.932V46.5088ZM95.7817 46.1572L94.8376 48.2122L94.8706 48.2274L94.9042 48.2415L95.7817 46.1572ZM94.3535 45.1904L92.7544 46.7895L92.769 46.8041L92.7838 46.8183L94.3535 45.1904ZM93.3867 43.7622L91.3025 44.6398L91.3067 44.6498L91.311 44.6598L93.3867 43.7622ZM93.3867 31.2598L95.4624 32.1574L95.4667 32.1474L95.471 32.1373L93.3867 31.2598ZM94.3535 29.8315L95.9233 31.4594L95.9381 31.4452L95.9526 31.4306L94.3535 29.8315ZM95.7817 28.8647L96.6793 30.9404L96.6923 30.9348L96.7052 30.929L95.7817 28.8647ZM113.667 28.8647L112.723 30.9197L112.756 30.9349L112.79 30.949L113.667 28.8647ZM115.118 29.8315L113.519 31.4306L113.533 31.4452L113.548 31.4594L115.118 29.8315ZM116.084 31.2598L114 32.1373L114.004 32.1474L114.009 32.1574L116.084 31.2598ZM111.932 42.0044V44.2659H114.193V42.0044H111.932ZM111.932 32.9956H114.193V30.7341H111.932V32.9956ZM97.5396 32.9956V30.7341H95.2781V32.9956H97.5396ZM97.5396 42.0044H95.2781V44.2659H97.5396V42.0044ZM114.175 55.4956C114.175 55.8152 114.115 56.1023 114 56.3758L118.169 58.131C118.522 57.2913 118.697 56.4065 118.697 55.4956H114.175ZM114.009 56.3558C113.886 56.6408 113.723 56.8778 113.519 57.0825L116.717 60.2807C117.332 59.6652 117.815 58.95 118.16 58.151L114.009 56.3558ZM113.519 57.0825C113.324 57.2773 113.088 57.4386 112.79 57.5642L114.545 61.7327C115.36 61.3895 116.091 60.9063 116.717 60.2807L113.519 57.0825ZM112.77 57.5727C112.523 57.6794 112.251 57.7385 111.932 57.7385V62.2615C112.842 62.2615 113.728 62.0862 114.565 61.7241L112.77 57.5727ZM111.932 57.7385H97.5396V62.2615H111.932V57.7385ZM97.5396 57.7385C97.22 57.7385 96.9329 57.6794 96.6593 57.5642L94.9042 61.7327C95.7439 62.0862 96.6287 62.2615 97.5396 62.2615V57.7385ZM96.6793 57.5727C96.3943 57.4495 96.1574 57.2873 95.9526 57.0825L92.7544 60.2807C93.3699 60.8963 94.0852 61.3786 94.8841 61.7241L96.6793 57.5727ZM95.9526 57.0825C95.7478 56.8778 95.5857 56.6408 95.4624 56.3558L91.311 58.151C91.6565 58.95 92.1389 59.6652 92.7544 60.2807L95.9526 57.0825ZM95.471 56.3758C95.3558 56.1023 95.2966 55.8152 95.2966 55.4956H90.7737C90.7737 56.4065 90.9489 57.2913 91.3025 58.131L95.471 56.3758ZM95.2966 55.4956V51.4526H90.7737V55.4956H95.2966ZM93.0352 53.7141H97.5396V49.1912H93.0352V53.7141ZM95.2781 51.4526V55.4956H99.801V51.4526H95.2781ZM97.5396 57.7571H111.932V53.2341H97.5396V57.7571ZM114.193 55.4956V46.5088H109.67V55.4956H114.193ZM111.932 44.2473H97.5396V48.7702H111.932V44.2473ZM97.5396 44.2473C97.22 44.2473 96.9329 44.1882 96.6593 44.073L94.9042 48.2415C95.7439 48.595 96.6287 48.7702 97.5396 48.7702V44.2473ZM96.7259 44.1023C96.404 43.9544 96.1419 43.7734 95.9233 43.5625L92.7838 46.8183C93.3854 47.3985 94.0755 47.862 94.8376 48.2122L96.7259 44.1023ZM95.9526 43.5913C95.7478 43.3865 95.5857 43.1496 95.4624 42.8646L91.311 44.6598C91.6565 45.4588 92.1389 46.174 92.7544 46.7895L95.9526 43.5913ZM95.471 42.8846C95.3558 42.611 95.2966 42.324 95.2966 42.0044H90.7737C90.7737 42.9153 90.9489 43.8001 91.3025 44.6398L95.471 42.8846ZM95.2966 42.0044V32.9956H90.7737V42.0044H95.2966ZM95.2966 32.9956C95.2966 32.6759 95.3557 32.4041 95.4624 32.1574L91.311 30.3622C90.949 31.1994 90.7737 32.0848 90.7737 32.9956H95.2966ZM95.471 32.1373C95.5937 31.8459 95.7467 31.6297 95.9233 31.4594L92.7838 28.2036C92.14 28.8244 91.6485 29.5604 91.3025 30.3822L95.471 32.1373ZM95.9526 31.4306C96.1574 31.2258 96.3943 31.0637 96.6793 30.9404L94.8841 26.7891C94.0852 27.1345 93.3699 27.6169 92.7544 28.2325L95.9526 31.4306ZM96.7052 30.929C96.9687 30.8112 97.2397 30.7527 97.5396 30.7527V26.2298C96.609 26.2298 95.7081 26.4203 94.8582 26.8004L96.7052 30.929ZM97.5396 30.7527H111.932V26.2298H97.5396V30.7527ZM111.932 30.7527C112.231 30.7527 112.487 30.8111 112.723 30.9197L114.612 26.8098C113.764 26.4204 112.862 26.2298 111.932 26.2298V30.7527ZM112.79 30.949C113.088 31.0746 113.324 31.2359 113.519 31.4306L116.717 28.2325C116.091 27.6069 115.36 27.1236 114.545 26.7805L112.79 30.949ZM113.548 31.4594C113.724 31.6297 113.878 31.8459 114 32.1373L118.169 30.3822C117.823 29.5604 117.331 28.8244 116.687 28.2036L113.548 31.4594ZM114.009 32.1574C114.115 32.4041 114.175 32.6759 114.175 32.9956H118.697C118.697 32.0848 118.522 31.1994 118.16 30.3622L114.009 32.1574ZM114.175 32.9956V55.4956H118.697V32.9956H114.175ZM114.193 42.0044V32.9956H109.67V42.0044H114.193ZM111.932 30.7341H97.5396V35.2571H111.932V30.7341ZM95.2781 32.9956V42.0044H99.801V32.9956H95.2781ZM97.5396 44.2659H111.932V39.7429H97.5396V44.2659ZM123.775 32.4463L125.844 33.3583L125.85 33.3455L123.775 32.4463ZM127.576 28.623L126.677 26.548L126.664 26.5536L127.576 28.623ZM135.398 30.1611L133.799 31.7602L133.808 31.7692L133.817 31.7781L135.398 30.1611ZM136.937 32.4463L134.849 33.3161L134.858 33.3373L134.867 33.3582L136.937 32.4463ZM136.937 37.9834L134.867 37.0714L134.861 37.0862L134.854 37.1011L136.937 37.9834ZM135.398 40.2466L133.817 38.6296L133.808 38.6385L133.799 38.6475L135.398 40.2466ZM127.576 41.7847L126.664 43.8541L126.677 43.8597L127.576 41.7847ZM126.983 36.687L124.865 37.4811L124.881 37.5216L124.897 37.5616L126.983 36.687ZM127.752 37.8955L126.085 39.4236L126.118 39.4599L126.153 39.4946L127.752 37.8955ZM128.917 38.7085L127.96 40.7578L127.989 40.771L128.017 40.7835L128.917 38.7085ZM131.795 38.7085L132.694 40.7835L132.71 40.7766L132.726 40.7695L131.795 38.7085ZM132.959 37.8955L134.594 39.4587L134.61 39.4413L134.627 39.4236L132.959 37.8955ZM133.707 36.687L131.611 35.8359L131.604 35.8532L131.598 35.8706L133.707 36.687ZM133.707 33.7427L131.598 34.559L131.609 34.5883L131.621 34.6172L133.707 33.7427ZM132.959 32.5562L131.292 34.0843L131.309 34.102L131.325 34.1193L132.959 32.5562ZM131.795 31.7432L130.839 33.7925L130.879 33.8114L130.92 33.8287L131.795 31.7432ZM128.917 31.7432L129.816 33.8182L129.844 33.8057L129.873 33.7925L128.917 31.7432ZM127.752 32.5562L126.119 30.9914L126.118 30.993L127.752 32.5562ZM126.983 33.7427L124.897 32.8681L124.885 32.897L124.874 32.9263L126.983 33.7427ZM125.465 35.2148C125.465 34.5348 125.595 33.9238 125.844 33.3582L121.705 31.5343C121.193 32.6972 120.942 33.932 120.942 35.2148H125.465ZM125.85 33.3455C126.123 32.7143 126.479 32.1934 126.912 31.7602L123.714 28.562C122.858 29.418 122.188 30.4205 121.7 31.5471L125.85 33.3455ZM126.912 31.7602C127.352 31.3208 127.871 30.9646 128.488 30.6925L126.664 26.5536C125.553 27.0432 124.564 27.7124 123.714 28.562L126.912 31.7602ZM128.475 30.6981C129.063 30.4433 129.687 30.3132 130.367 30.3132V25.7903C129.084 25.7903 127.847 26.0411 126.677 26.548L128.475 30.6981ZM130.367 30.3132C131.047 30.3132 131.658 30.4432 132.223 30.6925L134.047 26.5536C132.884 26.0412 131.65 25.7903 130.367 25.7903V30.3132ZM132.223 30.6925C132.841 30.9646 133.36 31.3208 133.799 31.7602L136.998 28.562C136.148 27.7124 135.158 27.0432 134.047 26.5536L132.223 30.6925ZM133.817 31.7781C134.252 32.2031 134.596 32.7083 134.849 33.3161L139.024 31.5765C138.545 30.4264 137.863 29.4082 136.979 28.5442L133.817 31.7781ZM134.867 33.3582C135.116 33.9238 135.246 34.5348 135.246 35.2148H139.769C139.769 33.932 139.518 32.6972 139.006 31.5343L134.867 33.3582ZM135.246 35.2148C135.246 35.8949 135.116 36.5058 134.867 37.0714L139.006 38.8954C139.518 37.7324 139.769 36.4977 139.769 35.2148H135.246ZM134.854 37.1011C134.603 37.6948 134.259 38.1982 133.817 38.6296L136.979 41.8635C137.857 41.0059 138.538 40.0005 139.019 38.8657L134.854 37.1011ZM133.799 38.6475C133.36 39.0869 132.841 39.4431 132.223 39.7152L134.047 43.8541C135.158 43.3645 136.148 42.6953 136.998 41.8457L133.799 38.6475ZM132.223 39.7152C131.658 39.9645 131.047 40.0945 130.367 40.0945V44.6174C131.65 44.6174 132.884 44.3666 134.047 43.8541L132.223 39.7152ZM130.367 40.0945C129.687 40.0945 129.063 39.9645 128.475 39.7097L126.677 43.8597C127.847 44.3666 129.084 44.6174 130.367 44.6174V40.0945ZM128.488 39.7152C127.871 39.4431 127.352 39.0869 126.912 38.6475L123.714 41.8457C124.564 42.6953 125.553 43.3645 126.664 43.8541L128.488 39.7152ZM126.912 38.6475C126.473 38.2081 126.116 37.6889 125.844 37.0714L121.705 38.8954C122.195 40.0064 122.864 40.996 123.714 41.8457L126.912 38.6475ZM125.844 37.0714C125.595 36.5058 125.465 35.8949 125.465 35.2148H120.942C120.942 36.4977 121.193 37.7324 121.705 38.8954L125.844 37.0714ZM124.458 35.2148C124.458 35.9921 124.592 36.7522 124.865 37.4811L129.1 35.893C129.022 35.6843 128.981 35.463 128.981 35.2148H124.458ZM124.897 37.5616C125.185 38.2481 125.581 38.8737 126.085 39.4236L129.419 36.3674C129.279 36.2142 129.161 36.0341 129.068 35.8124L124.897 37.5616ZM126.153 39.4946C126.68 40.0212 127.286 40.4433 127.96 40.7578L129.873 36.6592C129.668 36.5636 129.498 36.4436 129.351 36.2964L126.153 39.4946ZM128.017 40.7835C128.768 41.1088 129.561 41.2556 130.367 41.2556V36.7327C130.117 36.7327 129.944 36.689 129.816 36.6335L128.017 40.7835ZM130.367 41.2556C131.167 41.2556 131.951 41.1054 132.694 40.7835L130.896 36.6335C130.76 36.6924 130.592 36.7327 130.367 36.7327V41.2556ZM132.726 40.7695C133.426 40.4534 134.058 40.0192 134.594 39.4587L131.325 36.3323C131.217 36.4457 131.072 36.5534 130.864 36.6475L132.726 40.7695ZM134.627 39.4236C135.143 38.86 135.54 38.2146 135.816 37.5034L131.598 35.8706C131.521 36.0677 131.42 36.2279 131.292 36.3674L134.627 39.4236ZM135.802 37.5382C136.103 36.7954 136.254 36.0153 136.254 35.2148H131.731C131.731 35.4397 131.69 35.6411 131.611 35.8359L135.802 37.5382ZM136.254 35.2148C136.254 34.4087 136.107 33.6184 135.792 32.8681L131.621 34.6172C131.687 34.7752 131.731 34.9663 131.731 35.2148H136.254ZM135.816 32.9263C135.537 32.207 135.131 31.5547 134.594 30.993L131.325 34.1193C131.433 34.2315 131.524 34.3701 131.598 34.559L135.816 32.9263ZM134.627 31.028C134.076 30.4277 133.415 29.9702 132.669 29.6577L130.92 33.8287C131.083 33.897 131.198 33.9815 131.292 34.0843L134.627 31.028ZM132.751 29.6939C131.995 29.3411 131.191 29.1741 130.367 29.1741V33.697C130.568 33.697 130.716 33.7351 130.839 33.7925L132.751 29.6939ZM130.367 29.1741C129.538 29.1741 128.725 29.3372 127.96 29.6939L129.873 33.7925C129.987 33.739 130.141 33.697 130.367 33.697V29.1741ZM128.017 29.6682C127.297 29.9802 126.661 30.4264 126.119 30.9914L129.385 34.1209C129.517 33.9828 129.657 33.887 129.816 33.8182L128.017 29.6682ZM126.118 30.993C125.594 31.5409 125.189 32.1733 124.897 32.8681L129.068 34.6172C129.158 34.4039 129.266 34.2452 129.386 34.1193L126.118 30.993ZM124.874 32.9263C124.589 33.6616 124.458 34.4316 124.458 35.2148H128.981C128.981 34.9434 129.025 34.7319 129.092 34.559L124.874 32.9263ZM144.275 28.4912V26.2298H142.014V28.4912H144.275ZM167.237 28.4912H169.498V26.2298H167.237V28.4912ZM167.237 32.9956V35.2571H169.498V32.9956H167.237ZM148.78 32.9956V30.7341H146.518V32.9956H148.78ZM148.78 42.0044H146.518V44.2659H148.78V42.0044ZM164.534 42.0044H166.796V39.7429H164.534V42.0044ZM164.534 46.5088V48.7702H166.796V46.5088H164.534ZM148.78 46.5088V44.2473H146.518V46.5088H148.78ZM148.78 60V62.2615H151.041V60H148.78ZM144.275 60H142.014V62.2615H144.275V60ZM144.275 30.7527H167.237V26.2298H144.275V30.7527ZM164.975 28.4912V32.9956H169.498V28.4912H164.975ZM167.237 30.7341H148.78V35.2571H167.237V30.7341ZM146.518 32.9956V42.0044H151.041V32.9956H146.518ZM148.78 44.2659H164.534V39.7429H148.78V44.2659ZM162.273 42.0044V46.5088H166.796V42.0044H162.273ZM164.534 44.2473H148.78V48.7702H164.534V44.2473ZM146.518 46.5088V60H151.041V46.5088H146.518ZM148.78 57.7385H144.275V62.2615H148.78V57.7385ZM146.537 60V28.4912H142.014V60H146.537Z" fill="#00A8A8"/>
</g>
<g style="mix-blend-mode:hard-light" filter="url(#filter2_f_181_9345)">
<path d="M86.2676 52.3535L89.2244 52.4042L89.2249 52.3789V52.3535H86.2676ZM84.334 58.1104L86.4373 60.1892L86.4433 60.1831L86.4493 60.177L84.334 58.1104ZM62.4932 50.4639V47.5066H59.5359V50.4639H62.4932ZM66.9097 50.4639H69.867V47.5066H66.9097V50.4639ZM81.0601 45.3003L78.9132 47.3342L78.9268 47.3485L78.9405 47.3626L81.0601 45.3003ZM63.394 44.4653H60.4368V47.4226H63.394V44.4653ZM63.394 28.4912V25.5339H60.4368V28.4912H63.394ZM85.4546 28.4912H88.4119V25.5339H85.4546V28.4912ZM85.4546 32.9956V35.9529H88.4119V32.9956H85.4546ZM67.8984 32.9956V30.0383H64.9411V32.9956H67.8984ZM67.8984 40.0708H64.9411V43.0281H67.8984V40.0708ZM84.3779 41.9604L82.2868 44.0516L82.2929 44.0577L82.2991 44.0638L84.3779 41.9604ZM83.3107 52.3028C83.2741 54.4415 82.7437 55.5063 82.2187 56.0437L86.4493 60.177C88.4145 58.1655 89.1732 55.3925 89.2244 52.4042L83.3107 52.3028ZM82.2307 56.0315C81.7489 56.519 80.7491 57.0427 78.6211 57.0427V62.9573C81.62 62.9573 84.4289 62.2213 86.4373 60.1892L82.2307 56.0315ZM78.6211 57.0427H70.1616V62.9573H78.6211V57.0427ZM70.1616 57.0427C68.0592 57.0427 67.026 56.5203 66.4984 55.9943C65.9724 55.4697 65.4505 54.4443 65.4505 52.3535H59.5359C59.5359 55.3603 60.292 58.1582 62.3222 60.1825C64.3507 62.2053 67.1518 62.9573 70.1616 62.9573V57.0427ZM65.4505 52.3535V50.4639H59.5359V52.3535H65.4505ZM62.4932 53.4212H66.9097V47.5066H62.4932V53.4212ZM63.9524 50.4639V52.1338H69.867V50.4639H63.9524ZM63.9524 52.1338C63.9524 53.676 64.2837 55.4418 65.5538 56.7824L69.8475 52.7147C69.9544 52.8274 69.9615 52.8985 69.938 52.8211C69.9112 52.7323 69.867 52.5196 69.867 52.1338H63.9524ZM65.5538 56.7824C66.888 58.1906 68.7306 58.5408 70.2935 58.5408V52.6262C69.9074 52.6262 69.7129 52.5798 69.6509 52.5598C69.6042 52.5448 69.712 52.5717 69.8475 52.7147L65.5538 56.7824ZM70.2935 58.5408H78.4673V52.6262H70.2935V58.5408ZM78.4673 58.5408C80.0301 58.5408 81.8728 58.1906 83.2069 56.7824L78.9132 52.7147C79.0487 52.5717 79.1566 52.5448 79.1099 52.5598C79.0478 52.5798 78.8533 52.6262 78.4673 52.6262V58.5408ZM83.2069 56.7824C84.477 55.4418 84.8084 53.676 84.8084 52.1338H78.8938C78.8938 52.5196 78.8496 52.7323 78.8227 52.8211C78.7993 52.8985 78.8064 52.8274 78.9132 52.7147L83.2069 56.7824ZM84.8084 52.1338V47.8931H78.8938V52.1338H84.8084ZM84.8084 47.8931C84.8084 46.3598 84.4807 44.5752 83.1796 43.238L78.9405 47.3626C78.8175 47.2362 78.8037 47.1491 78.8247 47.2179C78.8493 47.2986 78.8938 47.5063 78.8938 47.8931H84.8084ZM83.2069 43.2664C81.8728 41.8582 80.0301 41.508 78.4673 41.508V47.4226C78.8533 47.4226 79.0478 47.469 79.1099 47.489C79.1566 47.5041 79.0487 47.4772 78.9132 47.3342L83.2069 43.2664ZM78.4673 41.508H63.394V47.4226H78.4673V41.508ZM66.3513 44.4653V28.4912H60.4368V44.4653H66.3513ZM63.394 31.4485H85.4546V25.5339H63.394V31.4485ZM82.4973 28.4912V32.9956H88.4119V28.4912H82.4973ZM85.4546 30.0383H67.8984V35.9529H85.4546V30.0383ZM64.9411 32.9956V40.0708H70.8557V32.9956H64.9411ZM67.8984 43.0281H78.6211V37.1135H67.8984V43.0281ZM78.6211 43.0281C80.7664 43.0281 81.7886 43.5534 82.2868 44.0516L86.4691 39.8693C84.4477 37.848 81.6321 37.1135 78.6211 37.1135V43.0281ZM82.2991 44.0638C82.7809 44.54 83.3103 45.5484 83.3103 47.7173H89.2249C89.2249 44.7006 88.4945 41.8711 86.4568 39.8571L82.2991 44.0638ZM83.3103 47.7173V52.3535H89.2249V47.7173H83.3103ZM116.084 57.2534L118.799 58.4272L118.804 58.4141L118.81 58.401L116.084 57.2534ZM113.667 59.6484L112.52 56.9229L112.507 56.9284L112.494 56.9341L113.667 59.6484ZM95.7817 59.6484L94.608 62.3628L94.621 62.3685L94.6341 62.374L95.7817 59.6484ZM93.3867 57.2534L90.6612 58.401L90.6667 58.4141L90.6723 58.4272L93.3867 57.2534ZM93.0352 51.4526V48.4953H90.0779V51.4526H93.0352ZM97.5396 51.4526H100.497V48.4953H97.5396V51.4526ZM97.5396 55.4956H94.5823V58.4529H97.5396V55.4956ZM111.932 55.4956V58.4529H114.889V55.4956H111.932ZM111.932 46.5088H114.889V43.5515H111.932V46.5088ZM95.7817 46.1572L94.5471 48.8444L94.5903 48.8643L94.6341 48.8828L95.7817 46.1572ZM94.3535 45.1904L92.2624 47.2816L92.2814 47.3006L92.3008 47.3192L94.3535 45.1904ZM93.3867 43.7622L90.6612 44.9098L90.6667 44.9229L90.6723 44.936L93.3867 43.7622ZM93.3867 31.2598L96.1011 32.4335L96.1067 32.4205L96.1123 32.4074L93.3867 31.2598ZM94.3535 29.8315L96.4063 31.9603L96.4256 31.9417L96.4446 31.9227L94.3535 29.8315ZM95.7817 28.8647L96.9555 31.5791L96.9725 31.5718L96.9894 31.5642L95.7817 28.8647ZM113.667 28.8647L112.433 31.552L112.476 31.5718L112.52 31.5903L113.667 28.8647ZM115.118 29.8315L113.027 31.9227L113.046 31.9417L113.065 31.9603L115.118 29.8315ZM116.084 31.2598L113.359 32.4074L113.364 32.4205L113.37 32.4335L116.084 31.2598ZM111.932 42.0044V44.9617H114.889V42.0044H111.932ZM111.932 32.9956H114.889V30.0383H111.932V32.9956ZM97.5396 32.9956V30.0383H94.5823V32.9956H97.5396ZM97.5396 42.0044H94.5823V44.9617H97.5396V42.0044ZM113.479 55.4956C113.479 55.7242 113.437 55.9193 113.359 56.1058L118.81 58.401C119.2 57.4742 119.393 56.4975 119.393 55.4956H113.479ZM113.37 56.0796C113.281 56.2856 113.168 56.4489 113.027 56.5905L117.209 60.7728C117.888 60.0941 118.419 59.3052 118.799 58.4272L113.37 56.0796ZM113.027 56.5905C112.898 56.719 112.739 56.8307 112.52 56.9229L114.815 62.374C115.709 61.9974 116.517 61.4646 117.209 60.7728L113.027 56.5905ZM112.494 56.9341C112.338 57.0015 112.16 57.0427 111.932 57.0427V62.9573C112.933 62.9573 113.913 62.7641 114.841 62.3628L112.494 56.9341ZM111.932 57.0427H97.5396V62.9573H111.932V57.0427ZM97.5396 57.0427C97.3109 57.0427 97.1158 57.0014 96.9293 56.9229L94.6341 62.374C95.5609 62.7642 96.5377 62.9573 97.5396 62.9573V57.0427ZM96.9555 56.9341C96.7496 56.845 96.5862 56.7321 96.4446 56.5905L92.2624 60.7728C92.9411 61.4515 93.7299 61.9831 94.608 62.3628L96.9555 56.9341ZM96.4446 56.5905C96.303 56.4489 96.1902 56.2856 96.1011 56.0796L90.6723 58.4272C91.052 59.3052 91.5837 60.0941 92.2624 60.7728L96.4446 56.5905ZM96.1123 56.1058C96.0337 55.9193 95.9924 55.7242 95.9924 55.4956H90.0779C90.0779 56.4975 90.2709 57.4742 90.6612 58.401L96.1123 56.1058ZM95.9924 55.4956V51.4526H90.0779V55.4956H95.9924ZM93.0352 54.4099H97.5396V48.4953H93.0352V54.4099ZM94.5823 51.4526V55.4956H100.497V51.4526H94.5823ZM97.5396 58.4529H111.932V52.5383H97.5396V58.4529ZM114.889 55.4956V46.5088H108.974V55.4956H114.889ZM111.932 43.5515H97.5396V49.4661H111.932V43.5515ZM97.5396 43.5515C97.3109 43.5515 97.1158 43.5102 96.9293 43.4317L94.6341 48.8828C95.5609 49.273 96.5377 49.4661 97.5396 49.4661V43.5515ZM97.0164 43.47C96.7623 43.3532 96.566 43.2157 96.4063 43.0616L92.3008 47.3192C92.9613 47.9562 93.7172 48.4632 94.5471 48.8444L97.0164 43.47ZM96.4446 43.0993C96.303 42.9577 96.1902 42.7944 96.1011 42.5884L90.6723 44.936C91.052 45.814 91.5837 46.6028 92.2624 47.2816L96.4446 43.0993ZM96.1123 42.6146C96.0337 42.4281 95.9924 42.233 95.9924 42.0044H90.0779C90.0779 43.0062 90.2709 43.983 90.6612 44.9098L96.1123 42.6146ZM95.9924 42.0044V32.9956H90.0779V42.0044H95.9924ZM95.9924 32.9956C95.9924 32.7668 96.0337 32.5894 96.1011 32.4335L90.6723 30.086C90.271 31.0141 90.0779 31.9939 90.0779 32.9956H95.9924ZM96.1123 32.4074C96.2006 32.1975 96.3016 32.0613 96.4063 31.9603L92.3008 27.7028C91.5851 28.3928 91.0415 29.2088 90.6612 30.1122L96.1123 32.4074ZM96.4446 31.9227C96.5862 31.7811 96.7496 31.6682 96.9555 31.5791L94.608 26.1504C93.7299 26.5301 92.9411 27.0617 92.2624 27.7404L96.4446 31.9227ZM96.9894 31.5642C97.1626 31.4867 97.3367 31.4485 97.5396 31.4485V25.5339C96.5119 25.5339 95.5141 25.7447 94.5741 26.1653L96.9894 31.5642ZM97.5396 31.4485H111.932V25.5339H97.5396V31.4485ZM111.932 31.4485C112.134 31.4485 112.29 31.4866 112.433 31.552L114.902 26.1775C113.961 25.7449 112.959 25.5339 111.932 25.5339V31.4485ZM112.52 31.5903C112.739 31.6824 112.898 31.7942 113.027 31.9227L117.209 27.7404C116.517 27.0486 115.709 26.5158 114.815 26.1392L112.52 31.5903ZM113.065 31.9603C113.17 32.0613 113.271 32.1975 113.359 32.4074L118.81 30.1122C118.43 29.2088 117.886 28.3928 117.17 27.7028L113.065 31.9603ZM113.37 32.4335C113.438 32.5894 113.479 32.7668 113.479 32.9956H119.393C119.393 31.9939 119.2 31.0141 118.799 30.086L113.37 32.4335ZM113.479 32.9956V55.4956H119.393V32.9956H113.479ZM114.889 42.0044V32.9956H108.974V42.0044H114.889ZM111.932 30.0383H97.5396V35.9529H111.932V30.0383ZM94.5823 32.9956V42.0044H100.497V32.9956H94.5823ZM97.5396 44.9617H111.932V39.0471H97.5396V44.9617ZM123.775 32.4463L126.481 33.6388L126.485 33.6305L126.488 33.6221L123.775 32.4463ZM127.576 28.623L126.4 25.9096L126.392 25.9132L126.384 25.9169L127.576 28.623ZM135.398 30.1611L133.307 32.2523L133.319 32.264L133.331 32.2756L135.398 30.1611ZM136.937 32.4463L134.207 33.5837L134.218 33.6114L134.23 33.6388L136.937 32.4463ZM136.937 37.9834L134.23 36.7908L134.222 36.8102L134.214 36.8296L136.937 37.9834ZM135.398 40.2466L133.331 38.1321L133.319 38.1437L133.307 38.1555L135.398 40.2466ZM127.576 41.7847L126.384 44.4908L126.392 44.4945L126.4 44.4981L127.576 41.7847ZM126.983 36.687L124.214 37.7254L124.234 37.7784L124.256 37.8307L126.983 36.687ZM127.752 37.8955L125.572 39.8938L125.615 39.9412L125.661 39.9866L127.752 37.8955ZM128.917 38.7085L127.666 41.3883L127.703 41.4057L127.741 41.422L128.917 38.7085ZM131.795 38.7085L132.971 41.422L132.992 41.413L133.012 41.4037L131.795 38.7085ZM132.959 37.8955L135.097 39.9397L135.118 39.917L135.139 39.8938L132.959 37.8955ZM133.707 36.687L130.967 35.574L130.958 35.5966L130.949 35.6194L133.707 36.687ZM133.707 33.7427L130.949 34.8102L130.963 34.8485L130.979 34.8863L133.707 33.7427ZM132.959 32.5562L130.779 34.5545L130.801 34.5776L130.822 34.6003L132.959 32.5562ZM131.795 31.7432L130.544 34.423L130.597 34.4477L130.651 34.4704L131.795 31.7432ZM128.917 31.7432L130.092 34.4566L130.13 34.4403L130.167 34.423L128.917 31.7432ZM127.752 32.5562L125.617 30.51L125.615 30.512L127.752 32.5562ZM126.983 33.7427L124.256 32.599L124.24 32.6368L124.225 32.6751L126.983 33.7427ZM126.161 35.2148C126.161 34.6276 126.272 34.1126 126.481 33.6388L121.069 31.2537C120.516 32.5085 120.246 33.8392 120.246 35.2148H126.161ZM126.488 33.6221C126.729 33.0671 127.036 32.6203 127.404 32.2523L123.222 28.07C122.301 28.991 121.583 30.0676 121.061 31.2704L126.488 33.6221ZM127.404 32.2523C127.78 31.8759 128.227 31.5679 128.769 31.3292L126.384 25.9169C125.197 26.4399 124.135 27.1573 123.222 28.07L127.404 32.2523ZM128.752 31.3365C129.251 31.1205 129.78 31.009 130.367 31.009V25.0945C128.991 25.0945 127.66 25.3639 126.4 25.9096L128.752 31.3365ZM130.367 31.009C130.954 31.009 131.469 31.1205 131.943 31.3292L134.328 25.9169C133.073 25.3639 131.742 25.0945 130.367 25.0945V31.009ZM131.943 31.3292C132.484 31.5679 132.931 31.8759 133.307 32.2523L137.49 28.07C136.577 27.1573 135.515 26.4399 134.328 25.9169L131.943 31.3292ZM133.331 32.2756C133.697 32.6331 133.988 33.0594 134.207 33.5837L139.666 31.3089C139.152 30.0754 138.419 28.9782 137.466 28.0466L133.331 32.2756ZM134.23 33.6388C134.439 34.1126 134.551 34.6276 134.551 35.2148H140.465C140.465 33.8392 140.196 32.5085 139.643 31.2537L134.23 33.6388ZM134.551 35.2148C134.551 35.8021 134.439 36.3171 134.23 36.7908L139.643 39.176C140.196 37.9212 140.465 36.5905 140.465 35.2148H134.551ZM134.214 36.8296C133.997 37.3401 133.705 37.7663 133.331 38.1321L137.466 42.3611C138.41 41.4378 139.143 40.3552 139.659 39.1372L134.214 36.8296ZM133.307 38.1555C132.931 38.5318 132.484 38.8398 131.943 39.0785L134.328 44.4908C135.515 43.9678 136.577 43.2505 137.49 42.3377L133.307 38.1555ZM131.943 39.0785C131.469 39.2872 130.954 39.3987 130.367 39.3987V45.3132C131.742 45.3132 133.073 45.0438 134.328 44.4908L131.943 39.0785ZM130.367 39.3987C129.78 39.3987 129.251 39.2872 128.752 39.0712L126.4 44.4981C127.66 45.0438 128.991 45.3132 130.367 45.3132V39.3987ZM128.769 39.0785C128.227 38.8398 127.78 38.5318 127.404 38.1555L123.222 42.3377C124.135 43.2505 125.197 43.9678 126.384 44.4908L128.769 39.0785ZM127.404 38.1555C127.028 37.7791 126.72 37.3324 126.481 36.7908L121.069 39.176C121.592 40.3629 122.309 41.425 123.222 42.3377L127.404 38.1555ZM126.481 36.7908C126.272 36.3171 126.161 35.8021 126.161 35.2148H120.246C120.246 36.5905 120.516 37.9212 121.069 39.176L126.481 36.7908ZM123.762 35.2148C123.762 36.0734 123.911 36.9165 124.214 37.7254L129.752 35.6486C129.704 35.52 129.677 35.3816 129.677 35.2148H123.762ZM124.256 37.8307C124.574 38.5887 125.012 39.2829 125.572 39.8938L129.932 35.8972C129.847 35.805 129.773 35.6935 129.71 35.5433L124.256 37.8307ZM125.661 39.9866C126.246 40.5716 126.92 41.0401 127.666 41.3883L130.167 36.0286C130.034 35.9667 129.932 35.8932 129.843 35.8044L125.661 39.9866ZM127.741 41.422C128.587 41.7888 129.476 41.9514 130.367 41.9514V36.0368C130.203 36.0368 130.125 36.009 130.092 35.995L127.741 41.422ZM130.367 41.9514C131.255 41.9514 132.135 41.7843 132.971 41.422L130.619 35.995C130.576 36.0135 130.504 36.0368 130.367 36.0368V41.9514ZM133.012 41.4037C133.788 41.0534 134.495 40.5689 135.097 39.9397L130.822 35.8514C130.78 35.8959 130.71 35.9534 130.578 36.0133L133.012 41.4037ZM135.139 39.8938C135.716 39.2649 136.159 38.5448 136.464 37.7546L130.949 35.6194C130.903 35.7374 130.848 35.8229 130.779 35.8972L135.139 39.8938ZM136.446 37.8001C136.782 36.973 136.949 36.1039 136.949 35.2148H131.035C131.035 35.3512 131.012 35.4635 130.967 35.574L136.446 37.8001ZM136.949 35.2148C136.949 34.323 136.787 33.4404 136.434 32.599L130.979 34.8863C131.007 34.9532 131.035 35.052 131.035 35.2148H136.949ZM136.464 32.6751C136.154 31.8742 135.7 31.1428 135.097 30.512L130.822 34.6003C130.864 34.6433 130.907 34.7029 130.949 34.8102L136.464 32.6751ZM135.139 30.5578C134.519 29.881 133.774 29.3661 132.939 29.016L130.651 34.4704C130.724 34.5011 130.755 34.5282 130.779 34.5545L135.139 30.5578ZM133.046 29.0633C132.192 28.6651 131.286 28.4783 130.367 28.4783V34.3928C130.473 34.3928 130.519 34.4111 130.544 34.423L133.046 29.0633ZM130.367 28.4783C129.446 28.4783 128.53 28.66 127.666 29.0633L130.167 34.423C130.182 34.4162 130.233 34.3928 130.367 34.3928V28.4783ZM127.741 29.0297C126.934 29.3792 126.221 29.8793 125.617 30.51L129.887 34.6023C129.956 34.5299 130.02 34.488 130.092 34.4566L127.741 29.0297ZM125.615 30.512C125.029 31.1249 124.578 31.8301 124.256 32.599L129.71 34.8863C129.769 34.747 129.831 34.6612 129.889 34.6003L125.615 30.512ZM124.225 32.6751C123.907 33.497 123.762 34.3528 123.762 35.2148H129.677C129.677 35.0222 129.707 34.8966 129.741 34.8102L124.225 32.6751ZM144.275 28.4912V25.5339H141.318V28.4912H144.275ZM167.237 28.4912H170.194V25.5339H167.237V28.4912ZM167.237 32.9956V35.9529H170.194V32.9956H167.237ZM148.78 32.9956V30.0383H145.822V32.9956H148.78ZM148.78 42.0044H145.822V44.9617H148.78V42.0044ZM164.534 42.0044H167.491V39.0471H164.534V42.0044ZM164.534 46.5088V49.4661H167.491V46.5088H164.534ZM148.78 46.5088V43.5515H145.822V46.5088H148.78ZM148.78 60V62.9573H151.737V60H148.78ZM144.275 60H141.318V62.9573H144.275V60ZM144.275 31.4485H167.237V25.5339H144.275V31.4485ZM164.28 28.4912V32.9956H170.194V28.4912H164.28ZM167.237 30.0383H148.78V35.9529H167.237V30.0383ZM145.822 32.9956V42.0044H151.737V32.9956H145.822ZM148.78 44.9617H164.534V39.0471H148.78V44.9617ZM161.577 42.0044V46.5088H167.491V42.0044H161.577ZM164.534 43.5515H148.78V49.4661H164.534V43.5515ZM145.822 46.5088V60H151.737V46.5088H145.822ZM148.78 57.0427H144.275V62.9573H148.78V57.0427ZM147.233 60V28.4912H141.318V60H147.233Z" fill="#00A8A8"/>
</g>
<g style="mix-blend-mode:hard-light" filter="url(#filter3_ddi_181_9345)">
<path d="M86.2676 52.3535L88.5287 52.3923L88.529 52.3729V52.3535H86.2676ZM84.334 58.1104L85.9424 59.7001L85.9516 59.6907L84.334 58.1104ZM62.4932 50.4639V48.2024H60.2317V50.4639H62.4932ZM66.9097 50.4639H69.1711V48.2024H66.9097V50.4639ZM81.0601 45.3003L79.4183 46.8556L79.4287 46.8665L79.4392 46.8773L81.0601 45.3003ZM63.394 44.4653H61.1326V46.7268H63.394V44.4653ZM63.394 28.4912V26.2298H61.1326V28.4912H63.394ZM85.4546 28.4912H87.716V26.2298H85.4546V28.4912ZM85.4546 32.9956V35.2571H87.716V32.9956H85.4546ZM67.8984 32.9956V30.7341H65.637V32.9956H67.8984ZM67.8984 40.0708H65.637V42.3323H67.8984V40.0708ZM84.3779 41.9604L82.7788 43.5596L82.7882 43.5689L84.3779 41.9604ZM84.0065 52.3148C83.9681 54.5534 83.4109 55.8192 82.7164 56.53L85.9516 59.6907C87.7474 57.8527 88.4792 55.2806 88.5287 52.3923L84.0065 52.3148ZM82.7256 56.5206C82.0642 57.1898 80.8516 57.7385 78.6211 57.7385V62.2615C81.5175 62.2615 84.1136 61.5504 85.9424 59.7001L82.7256 56.5206ZM78.6211 57.7385H70.1616V62.2615H78.6211V57.7385ZM70.1616 57.7385C67.9524 57.7385 66.7112 57.1891 66.0071 56.487C65.3041 55.786 64.7546 54.5521 64.7546 52.3535H60.2317C60.2317 55.2526 60.9603 57.8419 62.8135 59.6898C64.6655 61.5364 67.2585 62.2615 70.1616 62.2615V57.7385ZM64.7546 52.3535V50.4639H60.2317V52.3535H64.7546ZM62.4932 52.7253H66.9097V48.2024H62.4932V52.7253ZM64.6482 50.4639V52.1338H69.1711V50.4639H64.6482ZM64.6482 52.1338C64.6482 53.5923 64.9637 55.1477 66.059 56.3038L69.3424 53.1932C69.383 53.2361 69.1711 53.0483 69.1711 52.1338H64.6482ZM66.059 56.3038C67.2033 57.5117 68.8157 57.845 70.2935 57.845V53.322C69.8569 53.322 69.5867 53.2702 69.4376 53.2222C69.3002 53.1779 69.3008 53.1493 69.3424 53.1932L66.059 56.3038ZM70.2935 57.845H78.4673V53.322H70.2935V57.845ZM78.4673 57.845C79.945 57.845 81.5575 57.5117 82.7018 56.3038L79.4183 53.1932C79.4599 53.1493 79.4606 53.1779 79.3231 53.2222C79.174 53.2702 78.9038 53.322 78.4673 53.322V57.845ZM82.7018 56.3038C83.7971 55.1477 84.1125 53.5923 84.1125 52.1338H79.5896C79.5896 53.0483 79.3777 53.2361 79.4183 53.1932L82.7018 56.3038ZM84.1125 52.1338V47.8931H79.5896V52.1338H84.1125ZM84.1125 47.8931C84.1125 46.4414 83.7999 44.8734 82.6809 43.7233L79.4392 46.8773C79.3749 46.8112 79.5896 46.9717 79.5896 47.8931H84.1125ZM82.7018 43.745C81.5575 42.5371 79.945 42.2039 78.4673 42.2039V46.7268C78.9038 46.7268 79.174 46.7786 79.3231 46.8267C79.4606 46.8709 79.4599 46.8995 79.4183 46.8556L82.7018 43.745ZM78.4673 42.2039H63.394V46.7268H78.4673V42.2039ZM65.6555 44.4653V28.4912H61.1326V44.4653H65.6555ZM63.394 30.7527H85.4546V26.2298H63.394V30.7527ZM83.1931 28.4912V32.9956H87.716V28.4912H83.1931ZM85.4546 30.7341H67.8984V35.2571H85.4546V30.7341ZM65.637 32.9956V40.0708H70.1599V32.9956H65.637ZM67.8984 42.3323H78.6211V37.8093H67.8984V42.3323ZM78.6211 42.3323C80.8682 42.3323 82.1014 42.8821 82.7788 43.5595L85.977 40.3614C84.1349 38.5192 81.5302 37.8093 78.6211 37.8093V42.3323ZM82.7882 43.5689C83.4531 44.226 84.0061 45.4487 84.0061 47.7173H88.529C88.529 44.8003 87.8223 42.1851 85.9676 40.352L82.7882 43.5689ZM84.0061 47.7173V52.3535H88.529V47.7173H84.0061ZM116.084 57.2534L118.16 58.151L118.164 58.141L118.169 58.131L116.084 57.2534ZM113.667 59.6484L112.79 57.5642L112.78 57.5684L112.77 57.5727L113.667 59.6484ZM95.7817 59.6484L94.8841 61.7241L94.8941 61.7285L94.9042 61.7327L95.7817 59.6484ZM93.3867 57.2534L91.3025 58.131L91.3067 58.141L91.311 58.151L93.3867 57.2534ZM93.0352 51.4526V49.1912H90.7737V51.4526H93.0352ZM97.5396 51.4526H99.801V49.1912H97.5396V51.4526ZM97.5396 55.4956H95.2781V57.7571H97.5396V55.4956ZM111.932 55.4956V57.7571H114.193V55.4956H111.932ZM111.932 46.5088H114.193V44.2473H111.932V46.5088ZM95.7817 46.1572L94.8376 48.2122L94.8706 48.2274L94.9042 48.2415L95.7817 46.1572ZM94.3535 45.1904L92.7544 46.7895L92.769 46.8041L92.7838 46.8183L94.3535 45.1904ZM93.3867 43.7622L91.3025 44.6398L91.3067 44.6498L91.311 44.6598L93.3867 43.7622ZM93.3867 31.2598L95.4624 32.1574L95.4667 32.1474L95.471 32.1373L93.3867 31.2598ZM94.3535 29.8315L95.9233 31.4594L95.9381 31.4452L95.9526 31.4306L94.3535 29.8315ZM95.7817 28.8647L96.6793 30.9404L96.6923 30.9348L96.7052 30.929L95.7817 28.8647ZM113.667 28.8647L112.723 30.9197L112.756 30.9349L112.79 30.949L113.667 28.8647ZM115.118 29.8315L113.519 31.4306L113.533 31.4452L113.548 31.4594L115.118 29.8315ZM116.084 31.2598L114 32.1373L114.004 32.1474L114.009 32.1574L116.084 31.2598ZM111.932 42.0044V44.2659H114.193V42.0044H111.932ZM111.932 32.9956H114.193V30.7341H111.932V32.9956ZM97.5396 32.9956V30.7341H95.2781V32.9956H97.5396ZM97.5396 42.0044H95.2781V44.2659H97.5396V42.0044ZM114.175 55.4956C114.175 55.8152 114.115 56.1023 114 56.3758L118.169 58.131C118.522 57.2913 118.697 56.4065 118.697 55.4956H114.175ZM114.009 56.3558C113.886 56.6408 113.723 56.8778 113.519 57.0825L116.717 60.2807C117.332 59.6652 117.815 58.95 118.16 58.151L114.009 56.3558ZM113.519 57.0825C113.324 57.2773 113.088 57.4386 112.79 57.5642L114.545 61.7327C115.36 61.3895 116.091 60.9063 116.717 60.2807L113.519 57.0825ZM112.77 57.5727C112.523 57.6794 112.251 57.7385 111.932 57.7385V62.2615C112.842 62.2615 113.728 62.0862 114.565 61.7241L112.77 57.5727ZM111.932 57.7385H97.5396V62.2615H111.932V57.7385ZM97.5396 57.7385C97.22 57.7385 96.9329 57.6794 96.6593 57.5642L94.9042 61.7327C95.7439 62.0862 96.6287 62.2615 97.5396 62.2615V57.7385ZM96.6793 57.5727C96.3943 57.4495 96.1574 57.2873 95.9526 57.0825L92.7544 60.2807C93.3699 60.8963 94.0852 61.3786 94.8841 61.7241L96.6793 57.5727ZM95.9526 57.0825C95.7478 56.8778 95.5857 56.6408 95.4624 56.3558L91.311 58.151C91.6565 58.95 92.1389 59.6652 92.7544 60.2807L95.9526 57.0825ZM95.471 56.3758C95.3558 56.1023 95.2966 55.8152 95.2966 55.4956H90.7737C90.7737 56.4065 90.9489 57.2913 91.3025 58.131L95.471 56.3758ZM95.2966 55.4956V51.4526H90.7737V55.4956H95.2966ZM93.0352 53.7141H97.5396V49.1912H93.0352V53.7141ZM95.2781 51.4526V55.4956H99.801V51.4526H95.2781ZM97.5396 57.7571H111.932V53.2341H97.5396V57.7571ZM114.193 55.4956V46.5088H109.67V55.4956H114.193ZM111.932 44.2473H97.5396V48.7702H111.932V44.2473ZM97.5396 44.2473C97.22 44.2473 96.9329 44.1882 96.6593 44.073L94.9042 48.2415C95.7439 48.595 96.6287 48.7702 97.5396 48.7702V44.2473ZM96.7259 44.1023C96.404 43.9544 96.1419 43.7734 95.9233 43.5625L92.7838 46.8183C93.3854 47.3985 94.0755 47.862 94.8376 48.2122L96.7259 44.1023ZM95.9526 43.5913C95.7478 43.3865 95.5857 43.1496 95.4624 42.8646L91.311 44.6598C91.6565 45.4588 92.1389 46.174 92.7544 46.7895L95.9526 43.5913ZM95.471 42.8846C95.3558 42.611 95.2966 42.324 95.2966 42.0044H90.7737C90.7737 42.9153 90.9489 43.8001 91.3025 44.6398L95.471 42.8846ZM95.2966 42.0044V32.9956H90.7737V42.0044H95.2966ZM95.2966 32.9956C95.2966 32.6759 95.3557 32.4041 95.4624 32.1574L91.311 30.3622C90.949 31.1994 90.7737 32.0848 90.7737 32.9956H95.2966ZM95.471 32.1373C95.5937 31.8459 95.7467 31.6297 95.9233 31.4594L92.7838 28.2036C92.14 28.8244 91.6485 29.5604 91.3025 30.3822L95.471 32.1373ZM95.9526 31.4306C96.1574 31.2258 96.3943 31.0637 96.6793 30.9404L94.8841 26.7891C94.0852 27.1345 93.3699 27.6169 92.7544 28.2325L95.9526 31.4306ZM96.7052 30.929C96.9687 30.8112 97.2397 30.7527 97.5396 30.7527V26.2298C96.609 26.2298 95.7081 26.4203 94.8582 26.8004L96.7052 30.929ZM97.5396 30.7527H111.932V26.2298H97.5396V30.7527ZM111.932 30.7527C112.231 30.7527 112.487 30.8111 112.723 30.9197L114.612 26.8098C113.764 26.4204 112.862 26.2298 111.932 26.2298V30.7527ZM112.79 30.949C113.088 31.0746 113.324 31.2359 113.519 31.4306L116.717 28.2325C116.091 27.6069 115.36 27.1236 114.545 26.7805L112.79 30.949ZM113.548 31.4594C113.724 31.6297 113.878 31.8459 114 32.1373L118.169 30.3822C117.823 29.5604 117.331 28.8244 116.687 28.2036L113.548 31.4594ZM114.009 32.1574C114.115 32.4041 114.175 32.6759 114.175 32.9956H118.697C118.697 32.0848 118.522 31.1994 118.16 30.3622L114.009 32.1574ZM114.175 32.9956V55.4956H118.697V32.9956H114.175ZM114.193 42.0044V32.9956H109.67V42.0044H114.193ZM111.932 30.7341H97.5396V35.2571H111.932V30.7341ZM95.2781 32.9956V42.0044H99.801V32.9956H95.2781ZM97.5396 44.2659H111.932V39.7429H97.5396V44.2659ZM123.775 32.4463L125.844 33.3583L125.85 33.3455L123.775 32.4463ZM127.576 28.623L126.677 26.548L126.664 26.5536L127.576 28.623ZM135.398 30.1611L133.799 31.7602L133.808 31.7692L133.817 31.7781L135.398 30.1611ZM136.937 32.4463L134.849 33.3161L134.858 33.3373L134.867 33.3582L136.937 32.4463ZM136.937 37.9834L134.867 37.0714L134.861 37.0862L134.854 37.1011L136.937 37.9834ZM135.398 40.2466L133.817 38.6296L133.808 38.6385L133.799 38.6475L135.398 40.2466ZM127.576 41.7847L126.664 43.8541L126.677 43.8597L127.576 41.7847ZM126.983 36.687L124.865 37.4811L124.881 37.5216L124.897 37.5616L126.983 36.687ZM127.752 37.8955L126.085 39.4236L126.118 39.4599L126.153 39.4946L127.752 37.8955ZM128.917 38.7085L127.96 40.7578L127.989 40.771L128.017 40.7835L128.917 38.7085ZM131.795 38.7085L132.694 40.7835L132.71 40.7766L132.726 40.7695L131.795 38.7085ZM132.959 37.8955L134.594 39.4587L134.61 39.4413L134.627 39.4236L132.959 37.8955ZM133.707 36.687L131.611 35.8359L131.604 35.8532L131.598 35.8706L133.707 36.687ZM133.707 33.7427L131.598 34.559L131.609 34.5883L131.621 34.6172L133.707 33.7427ZM132.959 32.5562L131.292 34.0843L131.309 34.102L131.325 34.1193L132.959 32.5562ZM131.795 31.7432L130.839 33.7925L130.879 33.8114L130.92 33.8287L131.795 31.7432ZM128.917 31.7432L129.816 33.8182L129.844 33.8057L129.873 33.7925L128.917 31.7432ZM127.752 32.5562L126.119 30.9914L126.118 30.993L127.752 32.5562ZM126.983 33.7427L124.897 32.8681L124.885 32.897L124.874 32.9263L126.983 33.7427ZM125.465 35.2148C125.465 34.5348 125.595 33.9238 125.844 33.3582L121.705 31.5343C121.193 32.6972 120.942 33.932 120.942 35.2148H125.465ZM125.85 33.3455C126.123 32.7143 126.479 32.1934 126.912 31.7602L123.714 28.562C122.858 29.418 122.188 30.4205 121.7 31.5471L125.85 33.3455ZM126.912 31.7602C127.352 31.3208 127.871 30.9646 128.488 30.6925L126.664 26.5536C125.553 27.0432 124.564 27.7124 123.714 28.562L126.912 31.7602ZM128.475 30.6981C129.063 30.4433 129.687 30.3132 130.367 30.3132V25.7903C129.084 25.7903 127.847 26.0411 126.677 26.548L128.475 30.6981ZM130.367 30.3132C131.047 30.3132 131.658 30.4432 132.223 30.6925L134.047 26.5536C132.884 26.0412 131.65 25.7903 130.367 25.7903V30.3132ZM132.223 30.6925C132.841 30.9646 133.36 31.3208 133.799 31.7602L136.998 28.562C136.148 27.7124 135.158 27.0432 134.047 26.5536L132.223 30.6925ZM133.817 31.7781C134.252 32.2031 134.596 32.7083 134.849 33.3161L139.024 31.5765C138.545 30.4264 137.863 29.4082 136.979 28.5442L133.817 31.7781ZM134.867 33.3582C135.116 33.9238 135.246 34.5348 135.246 35.2148H139.769C139.769 33.932 139.518 32.6972 139.006 31.5343L134.867 33.3582ZM135.246 35.2148C135.246 35.8949 135.116 36.5058 134.867 37.0714L139.006 38.8954C139.518 37.7324 139.769 36.4977 139.769 35.2148H135.246ZM134.854 37.1011C134.603 37.6948 134.259 38.1982 133.817 38.6296L136.979 41.8635C137.857 41.0059 138.538 40.0005 139.019 38.8657L134.854 37.1011ZM133.799 38.6475C133.36 39.0869 132.841 39.4431 132.223 39.7152L134.047 43.8541C135.158 43.3645 136.148 42.6953 136.998 41.8457L133.799 38.6475ZM132.223 39.7152C131.658 39.9645 131.047 40.0945 130.367 40.0945V44.6174C131.65 44.6174 132.884 44.3666 134.047 43.8541L132.223 39.7152ZM130.367 40.0945C129.687 40.0945 129.063 39.9645 128.475 39.7097L126.677 43.8597C127.847 44.3666 129.084 44.6174 130.367 44.6174V40.0945ZM128.488 39.7152C127.871 39.4431 127.352 39.0869 126.912 38.6475L123.714 41.8457C124.564 42.6953 125.553 43.3645 126.664 43.8541L128.488 39.7152ZM126.912 38.6475C126.473 38.2081 126.116 37.6889 125.844 37.0714L121.705 38.8954C122.195 40.0064 122.864 40.996 123.714 41.8457L126.912 38.6475ZM125.844 37.0714C125.595 36.5058 125.465 35.8949 125.465 35.2148H120.942C120.942 36.4977 121.193 37.7324 121.705 38.8954L125.844 37.0714ZM124.458 35.2148C124.458 35.9921 124.592 36.7522 124.865 37.4811L129.1 35.893C129.022 35.6843 128.981 35.463 128.981 35.2148H124.458ZM124.897 37.5616C125.185 38.2481 125.581 38.8737 126.085 39.4236L129.419 36.3674C129.279 36.2142 129.161 36.0341 129.068 35.8124L124.897 37.5616ZM126.153 39.4946C126.68 40.0212 127.286 40.4433 127.96 40.7578L129.873 36.6592C129.668 36.5636 129.498 36.4436 129.351 36.2964L126.153 39.4946ZM128.017 40.7835C128.768 41.1088 129.561 41.2556 130.367 41.2556V36.7327C130.117 36.7327 129.944 36.689 129.816 36.6335L128.017 40.7835ZM130.367 41.2556C131.167 41.2556 131.951 41.1054 132.694 40.7835L130.896 36.6335C130.76 36.6924 130.592 36.7327 130.367 36.7327V41.2556ZM132.726 40.7695C133.426 40.4534 134.058 40.0192 134.594 39.4587L131.325 36.3323C131.217 36.4457 131.072 36.5534 130.864 36.6475L132.726 40.7695ZM134.627 39.4236C135.143 38.86 135.54 38.2146 135.816 37.5034L131.598 35.8706C131.521 36.0677 131.42 36.2279 131.292 36.3674L134.627 39.4236ZM135.802 37.5382C136.103 36.7954 136.254 36.0153 136.254 35.2148H131.731C131.731 35.4397 131.69 35.6411 131.611 35.8359L135.802 37.5382ZM136.254 35.2148C136.254 34.4087 136.107 33.6184 135.792 32.8681L131.621 34.6172C131.687 34.7752 131.731 34.9663 131.731 35.2148H136.254ZM135.816 32.9263C135.537 32.207 135.131 31.5547 134.594 30.993L131.325 34.1193C131.433 34.2315 131.524 34.3701 131.598 34.559L135.816 32.9263ZM134.627 31.028C134.076 30.4277 133.415 29.9702 132.669 29.6577L130.92 33.8287C131.083 33.897 131.198 33.9815 131.292 34.0843L134.627 31.028ZM132.751 29.6939C131.995 29.3411 131.191 29.1741 130.367 29.1741V33.697C130.568 33.697 130.716 33.7351 130.839 33.7925L132.751 29.6939ZM130.367 29.1741C129.538 29.1741 128.725 29.3372 127.96 29.6939L129.873 33.7925C129.987 33.739 130.141 33.697 130.367 33.697V29.1741ZM128.017 29.6682C127.297 29.9802 126.661 30.4264 126.119 30.9914L129.385 34.1209C129.517 33.9828 129.657 33.887 129.816 33.8182L128.017 29.6682ZM126.118 30.993C125.594 31.5409 125.189 32.1733 124.897 32.8681L129.068 34.6172C129.158 34.4039 129.266 34.2452 129.386 34.1193L126.118 30.993ZM124.874 32.9263C124.589 33.6616 124.458 34.4316 124.458 35.2148H128.981C128.981 34.9434 129.025 34.7319 129.092 34.559L124.874 32.9263ZM144.275 28.4912V26.2298H142.014V28.4912H144.275ZM167.237 28.4912H169.498V26.2298H167.237V28.4912ZM167.237 32.9956V35.2571H169.498V32.9956H167.237ZM148.78 32.9956V30.7341H146.518V32.9956H148.78ZM148.78 42.0044H146.518V44.2659H148.78V42.0044ZM164.534 42.0044H166.796V39.7429H164.534V42.0044ZM164.534 46.5088V48.7702H166.796V46.5088H164.534ZM148.78 46.5088V44.2473H146.518V46.5088H148.78ZM148.78 60V62.2615H151.041V60H148.78ZM144.275 60H142.014V62.2615H144.275V60ZM144.275 30.7527H167.237V26.2298H144.275V30.7527ZM164.975 28.4912V32.9956H169.498V28.4912H164.975ZM167.237 30.7341H148.78V35.2571H167.237V30.7341ZM146.518 32.9956V42.0044H151.041V32.9956H146.518ZM148.78 44.2659H164.534V39.7429H148.78V44.2659ZM162.273 42.0044V46.5088H166.796V42.0044H162.273ZM164.534 44.2473H148.78V48.7702H164.534V44.2473ZM146.518 46.5088V60H151.041V46.5088H146.518ZM148.78 57.7385H144.275V62.2615H148.78V57.7385ZM146.537 60V28.4912H142.014V60H146.537Z" fill="#33E9C6" fill-opacity="0.2"/>
</g>
<g filter="url(#filter4_f_181_9345)">
<path d="M86.2676 52.3535L87.659 52.3774L87.6592 52.3654V52.3535H86.2676ZM84.334 58.1104L85.3238 59.0887L85.3294 59.0829L84.334 58.1104ZM62.4932 50.4639V49.0722H61.1015V50.4639H62.4932ZM66.9097 50.4639H68.3013V49.0722H66.9097V50.4639ZM81.0601 45.3003L80.0498 46.2574L80.0562 46.2641L80.0626 46.2708L81.0601 45.3003ZM63.394 44.4653H62.0024V45.857H63.394V44.4653ZM63.394 28.4912V27.0995H62.0024V28.4912H63.394ZM85.4546 28.4912H86.8463V27.0995H85.4546V28.4912ZM85.4546 32.9956V34.3873H86.8463V32.9956H85.4546ZM67.8984 32.9956V31.6039H66.5068V32.9956H67.8984ZM67.8984 40.0708H66.5068V41.4625H67.8984V40.0708ZM84.3779 41.9604L83.3939 42.9445L83.3996 42.9502L84.3779 41.9604ZM84.8761 52.3297C84.8356 54.6932 84.2448 56.2102 83.3386 57.1378L85.3294 59.0829C86.9134 57.4616 87.6117 55.1408 87.659 52.3774L84.8761 52.3297ZM83.3442 57.1321C82.4583 58.0284 80.9797 58.6083 78.6211 58.6083V61.3917C81.3895 61.3917 83.7195 60.7118 85.3238 59.0886L83.3442 57.1321ZM78.6211 58.6083H70.1616V61.3917H78.6211V58.6083ZM70.1616 58.6083C67.819 58.6083 66.3178 58.0252 65.3929 57.1029C64.4688 56.1814 63.8848 54.6868 63.8848 52.3535H61.1015C61.1015 55.1179 61.7956 57.4465 63.4276 59.0738C65.0589 60.7004 67.392 61.3917 70.1616 61.3917V58.6083ZM63.8848 52.3535V50.4639H61.1015V52.3535H63.8848ZM62.4932 51.8555H66.9097V49.0722H62.4932V51.8555ZM65.518 50.4639V52.1338H68.3013V50.4639H65.518ZM65.518 52.1338C65.518 53.4877 65.8135 54.7801 66.6904 55.7056L68.711 53.7914C68.5331 53.6037 68.3013 53.1529 68.3013 52.1338H65.518ZM66.6904 55.7056C67.5974 56.663 68.9221 56.9752 70.2935 56.9752V54.1918C69.2625 54.1918 68.8586 53.9473 68.711 53.7914L66.6904 55.7056ZM70.2935 56.9752H78.4673V54.1918H70.2935V56.9752ZM78.4673 56.9752C79.8386 56.9752 81.1633 56.663 82.0703 55.7056L80.0498 53.7914C79.9021 53.9473 79.4983 54.1918 78.4673 54.1918V56.9752ZM82.0703 55.7056C82.9472 54.7801 83.2427 53.4877 83.2427 52.1338H80.4594C80.4594 53.1529 80.2276 53.6037 80.0498 53.7914L82.0703 55.7056ZM83.2427 52.1338V47.8931H80.4594V52.1338H83.2427ZM83.2427 47.8931C83.2427 46.5434 82.949 45.246 82.0575 44.3298L80.0626 46.2708C80.2258 46.4385 80.4594 46.8697 80.4594 47.8931H83.2427ZM82.0703 44.3432C81.1633 43.3858 79.8386 43.0737 78.4673 43.0737V45.857C79.4983 45.857 79.9021 46.1015 80.0498 46.2574L82.0703 44.3432ZM78.4673 43.0737H63.394V45.857H78.4673V43.0737ZM64.7857 44.4653V28.4912H62.0024V44.4653H64.7857ZM63.394 29.8829H85.4546V27.0995H63.394V29.8829ZM84.0629 28.4912V32.9956H86.8463V28.4912H84.0629ZM85.4546 31.6039H67.8984V34.3873H85.4546V31.6039ZM66.5068 32.9956V40.0708H69.2901V32.9956H66.5068ZM67.8984 41.4625H78.6211V38.6791H67.8984V41.4625ZM78.6211 41.4625C80.9955 41.4625 82.4925 42.0431 83.3939 42.9445L85.362 40.9764C83.7438 39.3582 81.4029 38.6791 78.6211 38.6791V41.4625ZM83.3996 42.9502C84.2933 43.8335 84.8759 45.324 84.8759 47.7173H87.6592C87.6592 44.925 86.9821 42.5776 85.3562 40.9707L83.3996 42.9502ZM84.8759 47.7173V52.3535H87.6592V47.7173H84.8759ZM116.084 57.2534L117.362 57.8058L117.367 57.7935L116.084 57.2534ZM113.667 59.6484L113.127 58.3658L113.115 58.3711L113.667 59.6484ZM95.7817 59.6484L95.2293 60.9258L95.2417 60.931L95.7817 59.6484ZM93.3867 57.2534L92.104 57.7935L92.1094 57.8058L93.3867 57.2534ZM93.0352 51.4526V50.061H91.6435V51.4526H93.0352ZM97.5396 51.4526H98.9312V50.061H97.5396V51.4526ZM97.5396 55.4956H96.1479V56.8873H97.5396V55.4956ZM111.932 55.4956V56.8873H113.323V55.4956H111.932ZM111.932 46.5088H113.323V45.1171H111.932V46.5088ZM95.7817 46.1572L95.2007 47.4218L95.2211 47.4311L95.2417 47.4398L95.7817 46.1572ZM94.3535 45.1904L93.3695 46.1745L93.3784 46.1834L93.3875 46.1922L94.3535 45.1904ZM93.3867 43.7622L92.104 44.3023L92.1094 44.3146L93.3867 43.7622ZM93.3867 31.2598L94.6641 31.8122L94.6693 31.7998L93.3867 31.2598ZM94.3535 29.8315L95.3195 30.8333L95.3286 30.8245L95.3376 30.8156L94.3535 29.8315ZM95.7817 28.8647L96.3341 30.1421L96.3421 30.1386L96.35 30.1351L95.7817 28.8647ZM113.667 28.8647L113.086 30.1293L113.107 30.1387L113.127 30.1474L113.667 28.8647ZM115.118 29.8315L114.134 30.8156L114.143 30.8245L114.152 30.8333L115.118 29.8315ZM116.084 31.2598L114.802 31.7998L114.807 31.8121L116.084 31.2598ZM111.932 42.0044V43.3961H113.323V42.0044H111.932ZM111.932 32.9956H113.323V31.6039H111.932V32.9956ZM97.5396 32.9956V31.6039H96.1479V32.9956H97.5396ZM97.5396 42.0044H96.1479V43.3961H97.5396V42.0044ZM115.044 55.4956C115.044 55.9289 114.963 56.3309 114.802 56.7134L117.367 57.7935C117.675 57.0626 117.828 56.2928 117.828 55.4956H115.044ZM114.807 56.701C114.641 57.0849 114.417 57.4138 114.134 57.6976L116.102 59.6657C116.638 59.1292 117.059 58.5059 117.362 57.8058L114.807 56.701ZM114.134 57.6976C113.856 57.9752 113.525 58.1984 113.127 58.3658L114.208 60.931C114.923 60.6297 115.559 60.2084 116.102 59.6657L114.134 57.6976ZM113.115 58.3711C112.755 58.5269 112.365 58.6083 111.932 58.6083V61.3917C112.729 61.3917 113.496 61.2387 114.22 60.9258L113.115 58.3711ZM111.932 58.6083H97.5396V61.3917H111.932V58.6083ZM97.5396 58.6083C97.1063 58.6083 96.7042 58.5269 96.3218 58.3658L95.2417 60.931C95.9725 61.2388 96.7424 61.3917 97.5396 61.3917V58.6083ZM96.3341 58.3711C95.9503 58.2051 95.6213 57.9814 95.3376 57.6976L93.3695 59.6657C93.906 60.2022 94.5292 60.623 95.2294 60.9258L96.3341 58.3711ZM95.3376 57.6976C95.0538 57.4138 94.8301 57.0849 94.6641 56.701L92.1094 57.8058C92.4121 58.5059 92.8329 59.1292 93.3695 59.6657L95.3376 57.6976ZM94.6693 56.7134C94.5083 56.3309 94.4268 55.9289 94.4268 55.4956H91.6435C91.6435 56.2928 91.7964 57.0626 92.1041 57.7935L94.6693 56.7134ZM94.4268 55.4956V51.4526H91.6435V55.4956H94.4268ZM93.0352 52.8443H97.5396V50.061H93.0352V52.8443ZM96.1479 51.4526V55.4956H98.9312V51.4526H96.1479ZM97.5396 56.8873H111.932V54.1039H97.5396V56.8873ZM113.323 55.4956V46.5088H110.54V55.4956H113.323ZM111.932 45.1171H97.5396V47.9005H111.932V45.1171ZM97.5396 45.1171C97.1063 45.1171 96.7042 45.0357 96.3218 44.8746L95.2417 47.4398C95.9725 47.7476 96.7424 47.9005 97.5396 47.9005V45.1171ZM96.3628 44.8927C95.9562 44.7059 95.6118 44.4705 95.3195 44.1886L93.3875 46.1922C93.9155 46.7014 94.5233 47.1105 95.2007 47.4218L96.3628 44.8927ZM95.3376 44.2064C95.0538 43.9226 94.8301 43.5937 94.6641 43.2098L92.1094 44.3146C92.4121 45.0147 92.8329 45.638 93.3695 46.1745L95.3376 44.2064ZM94.6693 43.2222C94.5083 42.8397 94.4268 42.4377 94.4268 42.0044H91.6435C91.6435 42.8016 91.7964 43.5714 92.1041 44.3023L94.6693 43.2222ZM94.4268 42.0044V32.9956H91.6435V42.0044H94.4268ZM94.4268 32.9956C94.4268 32.5622 94.5083 32.1724 94.6641 31.8121L92.1094 30.7074C91.7964 31.4311 91.6435 32.1985 91.6435 32.9956H94.4268ZM94.6693 31.7998C94.835 31.4063 95.0531 31.0902 95.3195 30.8333L93.3875 28.8298C92.8336 29.3639 92.4072 29.9999 92.1041 30.7197L94.6693 31.7998ZM95.3376 30.8156C95.6213 30.5318 95.9503 30.3081 96.3341 30.1421L95.2294 27.5874C94.5292 27.8902 93.906 28.311 93.3695 28.8475L95.3376 30.8156ZM96.35 30.1351C96.7263 29.9668 97.1184 29.8829 97.5396 29.8829V27.0995C96.7303 27.0995 95.9505 27.2647 95.2134 27.5944L96.35 30.1351ZM97.5396 29.8829H111.932V27.0995H97.5396V29.8829ZM111.932 29.8829C112.353 29.8829 112.733 29.9667 113.086 30.1293L114.249 27.6002C113.518 27.2647 112.741 27.0995 111.932 27.0995V29.8829ZM113.127 30.1474C113.525 30.3148 113.856 30.538 114.134 30.8156L116.102 28.8475C115.559 28.3048 114.923 27.8834 114.208 27.5821L113.127 30.1474ZM114.152 30.8333C114.418 31.0902 114.636 31.4063 114.802 31.7998L117.367 30.7197C117.064 29.9999 116.638 29.3639 116.084 28.8298L114.152 30.8333ZM114.807 31.8121C114.963 32.1724 115.044 32.5622 115.044 32.9956H117.828C117.828 32.1985 117.675 31.4311 117.362 30.7074L114.807 31.8121ZM115.044 32.9956V55.4956H117.828V32.9956H115.044ZM113.323 42.0044V32.9956H110.54V42.0044H113.323ZM111.932 31.6039H97.5396V34.3873H111.932V31.6039ZM96.1479 32.9956V42.0044H98.9312V32.9956H96.1479ZM97.5396 43.3961H111.932V40.6127H97.5396V43.3961ZM123.775 32.4463L125.048 33.0075L125.052 32.9996L123.775 32.4463ZM127.576 28.623L127.023 27.3461L127.015 27.3496L127.576 28.623ZM135.398 30.1611L134.414 31.1452L134.42 31.1507L134.425 31.1562L135.398 30.1611ZM136.937 32.4463L135.652 32.9815L135.657 32.9946L135.663 33.0075L136.937 32.4463ZM136.937 37.9834L135.663 37.4222L135.659 37.4313L135.655 37.4404L136.937 37.9834ZM135.398 40.2466L134.425 39.2515L134.42 39.257L134.414 39.2625L135.398 40.2466ZM127.576 41.7847L127.015 43.0582L127.023 43.0616L127.576 41.7847ZM126.983 36.687L125.68 37.1757L125.689 37.2006L125.7 37.2252L126.983 36.687ZM127.752 37.8955L126.726 38.8359L126.747 38.8582L126.768 38.8796L127.752 37.8955ZM128.917 38.7085L128.328 39.9696L128.345 39.9778L128.363 39.9854L128.917 38.7085ZM131.795 38.7085L132.348 39.9854L132.358 39.9812L132.368 39.9768L131.795 38.7085ZM132.959 37.8955L133.965 38.8575L133.975 38.8468L133.985 38.8359L132.959 37.8955ZM133.707 36.687L132.417 36.1632L132.413 36.1739L132.409 36.1846L133.707 36.687ZM133.707 33.7427L132.409 34.2451L132.416 34.2631L132.423 34.2809L133.707 33.7427ZM132.959 32.5562L131.934 33.4965L131.944 33.5074L131.954 33.5181L132.959 32.5562ZM131.795 31.7432L131.206 33.0043L131.231 33.0159L131.257 33.0266L131.795 31.7432ZM128.917 31.7432L129.47 33.0201L129.488 33.0124L129.505 33.0043L128.917 31.7432ZM127.752 32.5562L126.747 31.5933L126.746 31.5942L127.752 32.5562ZM126.983 33.7427L125.7 33.2045L125.692 33.2223L125.685 33.2403L126.983 33.7427ZM124.595 35.2148C124.595 34.4189 124.749 33.688 125.048 33.0075L122.501 31.8851C122.04 32.9331 121.812 34.0479 121.812 35.2148H124.595ZM125.052 32.9996C125.367 32.2732 125.783 31.6596 126.297 31.1452L124.329 29.1771C123.554 29.9517 122.945 30.8616 122.498 31.893L125.052 32.9996ZM126.297 31.1452C126.815 30.6269 127.425 30.2105 128.137 29.8965L127.015 27.3496C125.999 27.7973 125.1 28.4063 124.329 29.1771L126.297 31.1452ZM128.13 29.9C128.829 29.5967 129.571 29.4434 130.367 29.4434V26.6601C129.2 26.6601 128.081 26.8877 127.023 27.3461L128.13 29.9ZM130.367 29.4434C131.163 29.4434 131.894 29.5967 132.574 29.8965L133.696 27.3496C132.648 26.8877 131.534 26.6601 130.367 26.6601V29.4434ZM132.574 29.8965C133.286 30.2105 133.896 30.6269 134.414 31.1452L136.382 29.1771C135.612 28.4063 134.713 27.7973 133.696 27.3496L132.574 29.8965ZM134.425 31.1562C134.947 31.6656 135.355 32.2695 135.652 32.9815L138.221 31.911C137.785 30.8653 137.169 29.9457 136.371 29.1661L134.425 31.1562ZM135.663 33.0075C135.963 33.688 136.116 34.4189 136.116 35.2148H138.899C138.899 34.0479 138.672 32.9331 138.21 31.8851L135.663 33.0075ZM136.116 35.2148C136.116 36.0108 135.963 36.7417 135.663 37.4222L138.21 38.5446C138.672 37.4966 138.899 36.3818 138.899 35.2148H136.116ZM135.655 37.4404C135.359 38.1382 134.951 38.7382 134.425 39.2515L136.371 41.2416C137.165 40.4659 137.781 39.5571 138.218 38.5264L135.655 37.4404ZM134.414 39.2625C133.896 39.7808 133.286 40.1972 132.574 40.5112L133.696 43.0582C134.713 42.6104 135.612 42.0014 136.382 41.2306L134.414 39.2625ZM132.574 40.5112C131.894 40.811 131.163 40.9643 130.367 40.9643V43.7476C131.534 43.7476 132.648 43.52 133.696 43.0582L132.574 40.5112ZM130.367 40.9643C129.571 40.9643 128.829 40.811 128.13 40.5077L127.023 43.0616C128.081 43.52 129.2 43.7476 130.367 43.7476V40.9643ZM128.137 40.5112C127.425 40.1972 126.815 39.7808 126.297 39.2625L124.329 41.2306C125.1 42.0014 125.999 42.6104 127.015 43.0582L128.137 40.5112ZM126.297 39.2625C125.779 38.7442 125.362 38.1346 125.048 37.4222L122.501 38.5446C122.949 39.5607 123.558 40.4599 124.329 41.2306L126.297 39.2625ZM125.048 37.4222C124.749 36.7417 124.595 36.0108 124.595 35.2148H121.812C121.812 36.3818 122.04 37.4966 122.501 38.5446L125.048 37.4222ZM125.328 35.2148C125.328 35.8903 125.444 36.5469 125.68 37.1757L128.286 36.1984C128.17 35.8897 128.111 35.5648 128.111 35.2148H125.328ZM125.7 37.2252C125.95 37.8223 126.292 38.3623 126.726 38.8359L128.778 36.9551C128.567 36.7256 128.397 36.4599 128.266 36.1488L125.7 37.2252ZM126.768 38.8796C127.222 39.3332 127.744 39.6972 128.328 39.9696L129.505 37.4474C129.21 37.3097 128.956 37.1316 128.736 36.9115L126.768 38.8796ZM128.363 39.9854C128.994 40.2589 129.668 40.3858 130.367 40.3858V37.6025C130.01 37.6025 129.718 37.539 129.47 37.4316L128.363 39.9854ZM130.367 40.3858C131.056 40.3858 131.722 40.2568 132.348 39.9854L131.242 37.4316C130.989 37.5411 130.703 37.6025 130.367 37.6025V40.3858ZM132.368 39.9768C132.973 39.7034 133.511 39.332 133.965 38.8575L131.954 36.9336C131.763 37.1329 131.525 37.3034 131.222 37.4402L132.368 39.9768ZM133.985 38.8359C134.427 38.3538 134.767 37.8017 135.004 37.1894L132.409 36.1846C132.294 36.4805 132.136 36.7341 131.934 36.9551L133.985 38.8359ZM134.996 37.2108C135.255 36.5734 135.384 35.9047 135.384 35.2148H132.601C132.601 35.5504 132.539 35.8631 132.417 36.1632L134.996 37.2108ZM135.384 35.2148C135.384 34.516 135.257 33.8408 134.99 33.2045L132.423 34.2809C132.537 34.5527 132.601 34.859 132.601 35.2148H135.384ZM135.004 33.2403C134.765 32.623 134.42 32.0694 133.965 31.5942L131.954 33.5181C132.144 33.7167 132.296 33.9542 132.409 34.2451L135.004 33.2403ZM133.985 31.6158C133.523 31.1111 132.966 30.7254 132.333 30.4598L131.257 33.0266C131.532 33.1418 131.752 33.2981 131.934 33.4965L133.985 31.6158ZM132.383 30.4821C131.749 30.1861 131.071 30.0439 130.367 30.0439V32.8272C130.688 32.8272 130.962 32.8901 131.206 33.0043L132.383 30.4821ZM130.367 30.0439C129.654 30.0439 128.967 30.1837 128.328 30.4821L129.505 33.0043C129.745 32.8925 130.025 32.8272 130.367 32.8272V30.0439ZM128.363 30.4662C127.751 30.7315 127.21 31.1103 126.747 31.5933L128.757 33.5191C128.968 33.2989 129.203 33.1357 129.47 33.0201L128.363 30.4662ZM126.746 31.5942C126.3 32.061 125.952 32.6022 125.7 33.2045L128.266 34.2809C128.395 33.9749 128.56 33.7251 128.758 33.5181L126.746 31.5942ZM125.685 33.2403C125.442 33.8675 125.328 34.53 125.328 35.2148H128.111C128.111 34.845 128.172 34.5261 128.281 34.2451L125.685 33.2403ZM144.275 28.4912V27.0995H142.884V28.4912H144.275ZM167.237 28.4912H168.628V27.0995H167.237V28.4912ZM167.237 32.9956V34.3873H168.628V32.9956H167.237ZM148.78 32.9956V31.6039H147.388V32.9956H148.78ZM148.78 42.0044H147.388V43.3961H148.78V42.0044ZM164.534 42.0044H165.926V40.6127H164.534V42.0044ZM164.534 46.5088V47.9005H165.926V46.5088H164.534ZM148.78 46.5088V45.1171H147.388V46.5088H148.78ZM148.78 60V61.3917H150.171V60H148.78ZM144.275 60H142.884V61.3917H144.275V60ZM144.275 29.8829H167.237V27.0995H144.275V29.8829ZM165.845 28.4912V32.9956H168.628V28.4912H165.845ZM167.237 31.6039H148.78V34.3873H167.237V31.6039ZM147.388 32.9956V42.0044H150.171V32.9956H147.388ZM148.78 43.3961H164.534V40.6127H148.78V43.3961ZM163.143 42.0044V46.5088H165.926V42.0044H163.143ZM164.534 45.1171H148.78V47.9005H164.534V45.1171ZM147.388 46.5088V60H150.171V46.5088H147.388ZM148.78 58.6083H144.275V61.3917H148.78V58.6083ZM145.667 60V28.4912H142.884V60H145.667Z" fill="#33E9E9"/>
</g>
<g filter="url(#filter5_f_181_9345)">
<path d="M86.2676 52.3535L86.9634 52.3654V52.3535H86.2676ZM84.334 58.1104L84.8289 58.5995L84.8317 58.5966L84.334 58.1104ZM62.4932 50.4639V49.768H61.7973V50.4639H62.4932ZM66.9097 50.4639H67.6055V49.768H66.9097V50.4639ZM81.0601 45.3003L80.5549 45.7789L80.5613 45.7855L81.0601 45.3003ZM63.394 44.4653H62.6982V45.1612H63.394V44.4653ZM63.394 28.4912V27.7954H62.6982V28.4912H63.394ZM85.4546 28.4912H86.1504V27.7954H85.4546V28.4912ZM85.4546 32.9956V33.6914H86.1504V32.9956H85.4546ZM67.8984 32.9956V32.2998H67.2026V32.9956H67.8984ZM67.8984 40.0708H67.2026V40.7666H67.8984V40.0708ZM84.3779 41.9604L83.8859 42.4525L83.8888 42.4553L84.3779 41.9604ZM85.5718 52.3416C85.5296 54.8051 84.9119 56.5231 83.8363 57.6241L84.8317 58.5966C86.2463 57.1488 86.9177 55.0289 86.9633 52.3654L85.5718 52.3416ZM83.8391 57.6212C82.7736 58.6993 81.0821 59.3042 78.6211 59.3042V60.6958C81.287 60.6958 83.4042 60.041 84.8289 58.5995L83.8391 57.6212ZM78.6211 59.3042H70.1616V60.6958H78.6211V59.3042ZM70.1616 59.3042C67.7122 59.3042 66.0031 58.694 64.9016 57.5956C63.8005 56.4977 63.189 54.7946 63.189 52.3535H61.7973C61.7973 55.0101 62.4639 57.1303 63.919 58.5811C65.3736 60.0316 67.4987 60.6958 70.1616 60.6958V59.3042ZM63.189 52.3535V50.4639H61.7973V52.3535H63.189ZM62.4932 51.1597H66.9097V49.768H62.4932V51.1597ZM66.2138 50.4639V52.1338H67.6055V50.4639H66.2138ZM66.2138 52.1338C66.2138 53.404 66.4934 54.486 67.1955 55.2271L68.2058 54.27C67.8532 53.8978 67.6055 53.2366 67.6055 52.1338H66.2138ZM67.1955 55.2271C67.9127 55.9841 69.0072 56.2793 70.2935 56.2793V54.8877C69.1774 54.8877 68.5433 54.6262 68.2058 54.27L67.1955 55.2271ZM70.2935 56.2793H78.4673V54.8877H70.2935V56.2793ZM78.4673 56.2793C79.7536 56.2793 80.848 55.9841 81.5652 55.2271L80.5549 54.27C80.2174 54.6262 79.5834 54.8877 78.4673 54.8877V56.2793ZM81.5652 55.2271C82.2673 54.486 82.5469 53.404 82.5469 52.1338H81.1552C81.1552 53.2366 80.9075 53.8978 80.5549 54.27L81.5652 55.2271ZM82.5469 52.1338V47.8931H81.1552V52.1338H82.5469ZM82.5469 47.8931C82.5469 46.625 82.2682 45.5442 81.5588 44.8151L80.5613 45.7855C80.9066 46.1404 81.1552 46.7881 81.1552 47.8931H82.5469ZM81.5652 44.8217C80.848 44.0647 79.7536 43.7695 78.4673 43.7695V45.1612C79.5834 45.1612 80.2174 45.4226 80.5549 45.7788L81.5652 44.8217ZM78.4673 43.7695H63.394V45.1612H78.4673V43.7695ZM64.0899 44.4653V28.4912H62.6982V44.4653H64.0899ZM63.394 29.187H85.4546V27.7954H63.394V29.187ZM84.7588 28.4912V32.9956H86.1504V28.4912H84.7588ZM85.4546 32.2998H67.8984V33.6914H85.4546V32.2998ZM67.2026 32.9956V40.0708H68.5943V32.9956H67.2026ZM67.8984 40.7666H78.6211V39.375H67.8984V40.7666ZM78.6211 40.7666C81.0974 40.7666 82.8053 41.3719 83.8859 42.4525L84.87 41.4684C83.431 40.0295 81.3011 39.375 78.6211 39.375V40.7666ZM83.8888 42.4553C84.9655 43.5196 85.5717 45.2243 85.5717 47.7173H86.9634C86.9634 45.0248 86.3099 42.8916 84.8671 41.4656L83.8888 42.4553ZM85.5717 47.7173V52.3535H86.9634V47.7173H85.5717ZM116.084 57.2534L116.723 57.5296L116.726 57.5234L116.084 57.2534ZM113.667 59.6484L113.397 59.0071L113.391 59.0098L113.667 59.6484ZM95.7817 59.6484L95.5055 60.2871L95.5117 60.2897L95.7817 59.6484ZM93.3867 57.2534L92.7454 57.5235L92.748 57.5296L93.3867 57.2534ZM93.0352 51.4526V50.7568H92.3393V51.4526H93.0352ZM97.5396 51.4526H98.2354V50.7568H97.5396V51.4526ZM97.5396 55.4956H96.8437V56.1914H97.5396V55.4956ZM111.932 55.4956V56.1914H112.627V55.4956H111.932ZM111.932 46.5088H112.627V45.813H111.932V46.5088ZM95.7817 46.1572L95.4912 46.7895L95.5014 46.7942L95.5117 46.7985L95.7817 46.1572ZM94.3535 45.1904L93.8614 45.6825L93.8705 45.6913L94.3535 45.1904ZM93.3867 43.7622L92.7454 44.0322L92.748 44.0384L93.3867 43.7622ZM93.3867 31.2598L94.0254 31.536L94.028 31.5298L93.3867 31.2598ZM94.3535 29.8315L94.8366 30.3325L94.8455 30.3236L94.3535 29.8315ZM95.7817 28.8647L96.0579 29.5035L96.0659 29.4999L95.7817 28.8647ZM113.667 28.8647L113.377 29.497L113.387 29.5017L113.397 29.5061L113.667 28.8647ZM115.118 29.8315L114.626 30.3237L114.635 30.3324L115.118 29.8315ZM116.084 31.2598L115.443 31.5298L115.446 31.5359L116.084 31.2598ZM111.932 42.0044V42.7002H112.627V42.0044H111.932ZM111.932 32.9956H112.627V32.2998H111.932V32.9956ZM97.5396 32.9956V32.2998H96.8437V32.9956H97.5396ZM97.5396 42.0044H96.8437V42.7002H97.5396V42.0044ZM115.74 55.4956C115.74 56.0199 115.641 56.5138 115.443 56.9834L116.726 57.5234C116.997 56.8797 117.132 56.2018 117.132 55.4956H115.74ZM115.446 56.9772C115.246 57.4402 114.973 57.8426 114.626 58.1896L115.61 59.1737C116.083 58.7003 116.455 58.1507 116.723 57.5296L115.446 56.9772ZM114.626 58.1896C114.282 58.5335 113.875 58.8062 113.397 59.0071L113.938 60.2897C114.574 60.0219 115.133 59.6501 115.61 59.1737L114.626 58.1896ZM113.391 59.0098C112.94 59.2048 112.456 59.3042 111.932 59.3042V60.6958C112.638 60.6958 113.311 60.5608 113.944 60.2871L113.391 59.0098ZM111.932 59.3042H97.5396V60.6958H111.932V59.3042ZM97.5396 59.3042C97.0153 59.3042 96.5213 59.2048 96.0518 59.0071L95.5117 60.2897C96.1554 60.5608 96.8333 60.6958 97.5396 60.6958V59.3042ZM96.0579 59.0098C95.595 58.8096 95.1925 58.5366 94.8455 58.1896L93.8615 59.1737C94.3348 59.647 94.8845 60.0185 95.5056 60.2871L96.0579 59.0098ZM94.8455 58.1896C94.4986 57.8426 94.2256 57.4402 94.0254 56.9772L92.748 57.5296C93.0166 58.1507 93.3881 58.7003 93.8615 59.1737L94.8455 58.1896ZM94.028 56.9834C93.8303 56.5138 93.731 56.0199 93.731 55.4956H92.3393C92.3393 56.2018 92.4744 56.8797 92.7454 57.5234L94.028 56.9834ZM93.731 55.4956V51.4526H92.3393V55.4956H93.731ZM93.0352 52.1485H97.5396V50.7568H93.0352V52.1485ZM96.8437 51.4526V55.4956H98.2354V51.4526H96.8437ZM97.5396 56.1914H111.932V54.7998H97.5396V56.1914ZM112.627 55.4956V46.5088H111.236V55.4956H112.627ZM111.932 45.813H97.5396V47.2046H111.932V45.813ZM97.5396 45.813C97.0153 45.813 96.5213 45.7136 96.0518 45.5159L95.5117 46.7985C96.1554 47.0696 96.8333 47.2046 97.5396 47.2046V45.813ZM96.0723 45.5249C95.598 45.307 95.1878 45.0282 94.8365 44.6895L93.8705 45.6913C94.3396 46.1436 94.8815 46.5094 95.4912 46.7895L96.0723 45.5249ZM94.8455 44.6984C94.4986 44.3514 94.2256 43.9489 94.0254 43.486L92.748 44.0384C93.0166 44.6595 93.3881 45.2091 93.8615 45.6825L94.8455 44.6984ZM94.028 43.4922C93.8303 43.0226 93.731 42.5287 93.731 42.0044H92.3393C92.3393 42.7106 92.4744 43.3885 92.7454 44.0322L94.028 43.4922ZM93.731 42.0044V32.9956H92.3393V42.0044H93.731ZM93.731 32.9956C93.731 32.4713 93.8303 31.9871 94.0254 31.5359L92.748 30.9836C92.4744 31.6164 92.3393 32.2894 92.3393 32.9956H93.731ZM94.028 31.5298C94.228 31.0547 94.4982 30.6586 94.8365 30.3324L93.8705 29.3307C93.3885 29.7955 93.0141 30.3515 92.7454 30.9897L94.028 31.5298ZM94.8455 30.3236C95.1925 29.9766 95.595 29.7036 96.0579 29.5034L95.5056 28.2261C94.8845 28.4946 94.3348 28.8662 93.8615 29.3395L94.8455 30.3236ZM96.0659 29.4999C96.5323 29.2912 97.0213 29.187 97.5396 29.187V27.7954C96.8273 27.7954 96.1444 27.9402 95.4976 28.2296L96.0659 29.4999ZM97.5396 29.187H111.932V27.7954H97.5396V29.187ZM111.932 29.187C112.45 29.187 112.929 29.2912 113.377 29.497L113.958 28.2325C113.322 27.9402 112.644 27.7954 111.932 27.7954V29.187ZM113.397 29.5061C113.875 29.707 114.282 29.9797 114.626 30.3236L115.61 29.3395C115.133 28.8631 114.574 28.4913 113.938 28.2234L113.397 29.5061ZM114.635 30.3324C114.973 30.6586 115.243 31.0547 115.443 31.5298L116.726 30.9897C116.457 30.3515 116.083 29.7955 115.601 29.3307L114.635 30.3324ZM115.446 31.5359C115.641 31.9871 115.74 32.4713 115.74 32.9956H117.132C117.132 32.2894 116.997 31.6164 116.723 30.9836L115.446 31.5359ZM115.74 32.9956V55.4956H117.132V32.9956H115.74ZM112.627 42.0044V32.9956H111.236V42.0044H112.627ZM111.932 32.2998H97.5396V33.6914H111.932V32.2998ZM96.8437 32.9956V42.0044H98.2354V32.9956H96.8437ZM97.5396 42.7002H111.932V41.3086H97.5396V42.7002ZM123.775 32.4463L124.412 32.7269L124.413 32.723L123.775 32.4463ZM127.576 28.623L127.299 27.9846L127.296 27.9863L127.576 28.623ZM135.398 30.1611L134.906 30.6532L134.912 30.6587L135.398 30.1611ZM136.937 32.4463L136.294 32.714L136.3 32.7269L136.937 32.4463ZM136.937 37.9834L136.3 37.7028L136.296 37.7119L136.937 37.9834ZM135.398 40.2466L134.912 39.749L134.906 39.7546L135.398 40.2466ZM127.576 41.7847L127.296 42.4214L127.3 42.4231L127.576 41.7847ZM126.983 36.687L126.331 36.9313L126.336 36.9438L126.341 36.9561L126.983 36.687ZM127.752 37.8955L127.239 38.3657L127.249 38.3768L127.26 38.3875L127.752 37.8955ZM128.917 38.7085L128.622 39.339L128.631 39.3431L128.64 39.347L128.917 38.7085ZM131.795 38.7085L132.072 39.347L132.081 39.3427L131.795 38.7085ZM132.959 37.8955L133.462 38.3765L133.467 38.3711L133.472 38.3657L132.959 37.8955ZM133.707 36.687L133.062 36.4251L133.058 36.4358L133.707 36.687ZM133.707 33.7427L133.058 33.9939L133.061 34.0029L133.065 34.0118L133.707 33.7427ZM132.959 32.5562L132.447 33.0263L132.452 33.0318L132.457 33.0371L132.959 32.5562ZM131.795 31.7432L131.501 32.3737L131.513 32.3795L131.526 32.3849L131.795 31.7432ZM128.917 31.7432L129.193 32.3816L129.202 32.3778L129.211 32.3737L128.917 31.7432ZM127.752 32.5562L127.25 32.0747L127.249 32.0752L127.752 32.5562ZM126.983 33.7427L126.341 33.4736L126.337 33.4825L126.334 33.4915L126.983 33.7427ZM123.899 35.2148C123.899 34.3261 124.071 33.4993 124.412 32.7269L123.138 32.1657C122.717 33.1218 122.508 34.1406 122.508 35.2148H123.899ZM124.413 32.723C124.761 31.9203 125.226 31.2326 125.805 30.6532L124.821 29.6691C124.111 30.3787 123.55 31.2145 123.136 32.1696L124.413 32.723ZM125.805 30.6532C126.386 30.0717 127.068 29.6072 127.857 29.2598L127.296 27.9863C126.355 28.4006 125.529 28.9615 124.821 29.6691L125.805 30.6532ZM127.853 29.2615C128.642 28.9194 129.478 28.7476 130.367 28.7476V27.3559C129.292 27.3559 128.268 27.5649 127.3 27.9846L127.853 29.2615ZM130.367 28.7476C131.255 28.7476 132.082 28.9194 132.855 29.2598L133.416 27.9863C132.46 27.5649 131.441 27.3559 130.367 27.3559V28.7476ZM132.855 29.2598C133.643 29.6072 134.325 30.0717 134.906 30.6532L135.89 29.6691C135.183 28.9615 134.356 28.4006 133.416 27.9863L132.855 29.2598ZM134.912 30.6587C135.502 31.2357 135.963 31.9184 136.294 32.7139L137.579 32.1787C137.178 31.2163 136.613 30.3757 135.885 29.6636L134.912 30.6587ZM136.3 32.7269C136.64 33.4993 136.812 34.3261 136.812 35.2148H138.204C138.204 34.1406 137.995 33.1218 137.573 32.1657L136.3 32.7269ZM136.812 35.2148C136.812 36.1035 136.64 36.9304 136.3 37.7028L137.573 38.264C137.995 37.3078 138.204 36.289 138.204 35.2148H136.812ZM136.296 37.7119C135.965 38.4929 135.504 39.1701 134.912 39.7491L135.885 40.7441C136.611 40.034 137.176 39.2024 137.577 38.2549L136.296 37.7119ZM134.906 39.7546C134.325 40.336 133.643 40.8005 132.855 41.1479L133.416 42.4214C134.356 42.0071 135.183 41.4463 135.89 40.7386L134.906 39.7546ZM132.855 41.1479C132.082 41.4883 131.255 41.6601 130.367 41.6601V43.0518C131.441 43.0518 132.46 42.8428 133.416 42.4214L132.855 41.1479ZM130.367 41.6601C129.478 41.6601 128.642 41.4883 127.853 41.1462L127.3 42.4231C128.268 42.8428 129.292 43.0518 130.367 43.0518V41.6601ZM127.857 41.1479C127.068 40.8005 126.386 40.336 125.805 39.7546L124.821 40.7386C125.529 41.4463 126.355 42.0071 127.296 42.4214L127.857 41.1479ZM125.805 39.7546C125.224 39.1731 124.759 38.4911 124.412 37.7028L123.138 38.264C123.552 39.2042 124.113 40.031 124.821 40.7386L125.805 39.7546ZM124.412 37.7028C124.071 36.9304 123.899 36.1035 123.899 35.2148H122.508C122.508 36.289 122.717 37.3078 123.138 38.264L124.412 37.7028ZM126.023 35.2148C126.023 35.8089 126.126 36.3826 126.331 36.9313L127.634 36.4427C127.489 36.054 127.415 35.6461 127.415 35.2148H126.023ZM126.341 36.9561C126.562 37.4817 126.861 37.9531 127.239 38.3657L128.265 37.4253C127.999 37.1348 127.785 36.8005 127.625 36.4179L126.341 36.9561ZM127.26 38.3875C127.655 38.7828 128.111 39.1003 128.622 39.339L129.211 38.0779C128.843 37.9065 128.523 37.682 128.244 37.4035L127.26 38.3875ZM128.64 39.347C129.175 39.5789 129.754 39.69 130.367 39.69V38.2983C129.925 38.2983 129.537 38.219 129.193 38.07L128.64 39.347ZM130.367 39.69C130.968 39.69 131.539 39.5778 132.072 39.347L131.518 38.07C131.172 38.22 130.791 38.2983 130.367 38.2983V39.69ZM132.081 39.3427C132.611 39.1034 133.074 38.7822 133.462 38.3765L132.457 37.4145C132.2 37.6827 131.887 37.9034 131.509 38.0743L132.081 39.3427ZM133.472 38.3657C133.854 37.9489 134.149 37.4714 134.355 36.9382L133.058 36.4358C132.912 36.8108 132.709 37.139 132.447 37.4253L133.472 38.3657ZM134.351 36.9489C134.576 36.3958 134.688 35.8161 134.688 35.2148H133.296C133.296 35.639 133.218 36.0407 133.062 36.4251L134.351 36.9489ZM134.688 35.2148C134.688 34.6017 134.577 34.0188 134.348 33.4736L133.065 34.0118C133.217 34.3747 133.296 34.7733 133.296 35.2148H134.688ZM134.355 33.4915C134.148 32.9558 133.851 32.4812 133.462 32.0752L132.457 33.0371C132.713 33.3049 132.913 33.6214 133.058 33.9939L134.355 33.4915ZM133.472 32.086C133.08 31.6579 132.608 31.3295 132.064 31.1015L131.526 32.3849C131.89 32.5377 132.194 32.7513 132.447 33.0263L133.472 32.086ZM132.089 31.1126C131.552 30.8621 130.975 30.7397 130.367 30.7397V32.1314C130.784 32.1314 131.159 32.2141 131.501 32.3737L132.089 31.1126ZM130.367 30.7397C129.747 30.7397 129.162 30.8609 128.622 31.1126L129.211 32.3737C129.55 32.2153 129.932 32.1314 130.367 32.1314V30.7397ZM128.64 31.1047C128.114 31.3326 127.649 31.6575 127.25 32.0747L128.254 33.0376C128.528 32.7517 128.84 32.5346 129.193 32.3816L128.64 31.1047ZM127.249 32.0752C126.865 32.477 126.563 32.9454 126.341 33.4736L127.625 34.0118C127.784 33.6317 127.995 33.3091 128.255 33.0371L127.249 32.0752ZM126.334 33.4915C126.125 34.0321 126.023 34.6088 126.023 35.2148H127.415C127.415 34.7662 127.49 34.3614 127.632 33.9939L126.334 33.4915ZM144.275 28.4912V27.7954H143.58V28.4912H144.275ZM167.237 28.4912H167.933V27.7954H167.237V28.4912ZM167.237 32.9956V33.6914H167.933V32.9956H167.237ZM148.78 32.9956V32.2998H148.084V32.9956H148.78ZM148.78 42.0044H148.084V42.7002H148.78V42.0044ZM164.534 42.0044H165.23V41.3086H164.534V42.0044ZM164.534 46.5088V47.2046H165.23V46.5088H164.534ZM148.78 46.5088V45.813H148.084V46.5088H148.78ZM148.78 60V60.6958H149.476V60H148.78ZM144.275 60H143.58V60.6958H144.275V60ZM144.275 29.187H167.237V27.7954H144.275V29.187ZM166.541 28.4912V32.9956H167.933V28.4912H166.541ZM167.237 32.2998H148.78V33.6914H167.237V32.2998ZM148.084 32.9956V42.0044H149.476V32.9956H148.084ZM148.78 42.7002H164.534V41.3086H148.78V42.7002ZM163.838 42.0044V46.5088H165.23V42.0044H163.838ZM164.534 45.813H148.78V47.2046H164.534V45.813ZM148.084 46.5088V60H149.476V46.5088H148.084ZM148.78 59.3042H144.275V60.6958H148.78V59.3042ZM144.971 60V28.4912H143.58V60H144.971Z" fill="white"/>
</g>
<defs>
<filter id="filter0_f_181_9345" x="34.7617" y="11.1625" width="156.475" height="85.675" filterUnits="userSpaceOnUse" color-interpolation-filters="sRGB">
<feFlood flood-opacity="0" result="BackgroundImageFix"/>
<feBlend mode="normal" in="SourceGraphic" in2="BackgroundImageFix" result="shape"/>
<feGaussianBlur stdDeviation="5.21875" result="effect1_foregroundBlur_181_9345"/>
</filter>
<filter id="filter1_f_181_9345" x="52.0547" y="17.6143" width="125.619" height="52.8232" filterUnits="userSpaceOnUse" color-interpolation-filters="sRGB">
<feFlood flood-opacity="0" result="BackgroundImageFix"/>
<feBlend mode="normal" in="SourceGraphic" in2="BackgroundImageFix" result="shape"/>
<feGaussianBlur stdDeviation="5.21875" result="effect1_foregroundBlur_181_9345"/>
</filter>
<filter id="filter2_f_181_9345" x="59.013" y="24.5726" width="111.702" height="38.9066" filterUnits="userSpaceOnUse" color-interpolation-filters="sRGB">
<feFlood flood-opacity="0" result="BackgroundImageFix"/>
<feBlend mode="normal" in="SourceGraphic" in2="BackgroundImageFix" result="shape"/>
<feGaussianBlur stdDeviation="1.73958" result="effect1_foregroundBlur_181_9345"/>
</filter>
<filter id="filter3_ddi_181_9345" x="57.9693" y="27.008" width="113.79" height="40.9941" filterUnits="userSpaceOnUse" color-interpolation-filters="sRGB">
<feFlood flood-opacity="0" result="BackgroundImageFix"/>
<feColorMatrix in="SourceAlpha" type="matrix" values="0 0 0 0 0 0 0 0 0 0 0 0 0 0 0 0 0 0 127 0" result="hardAlpha"/>
<feOffset dy="2.26146"/>
<feGaussianBlur stdDeviation="0.869792"/>
<feColorMatrix type="matrix" values="0 0 0 0 0 0 0 0 0 0.3 0 0 0 0 0.275 0 0 0 0.7 0"/>
<feBlend mode="multiply" in2="BackgroundImageFix" result="effect1_dropShadow_181_9345"/>
<feColorMatrix in="SourceAlpha" type="matrix" values="0 0 0 0 0 0 0 0 0 0 0 0 0 0 0 0 0 0 127 0" result="hardAlpha"/>
<feOffset dy="3.47917"/>
<feGaussianBlur stdDeviation="2.26146"/>
<feColorMatrix type="matrix" values="0 0 0 0 0 0 0 0 0 0.6 0 0 0 0 0.6 0 0 0 1 0"/>
<feBlend mode="color-dodge" in2="effect1_dropShadow_181_9345" result="effect2_dropShadow_181_9345"/>
<feBlend mode="normal" in="SourceGraphic" in2="effect2_dropShadow_181_9345" result="shape"/>
<feColorMatrix in="SourceAlpha" type="matrix" values="0 0 0 0 0 0 0 0 0 0 0 0 0 0 0 0 0 0 127 0" result="hardAlpha"/>
<feOffset dx="-0.226146" dy="0.452292"/>
<feGaussianBlur stdDeviation="0.113073"/>
<feComposite in2="hardAlpha" operator="arithmetic" k2="-1" k3="1"/>
<feColorMatrix type="matrix" values="0 0 0 0 1 0 0 0 0 1 0 0 0 0 1 0 0 0 0.5 0"/>
<feBlend mode="normal" in2="shape" result="effect3_innerShadow_181_9345"/>
</filter>
<filter id="filter4_f_181_9345" x="62.1443" y="27.7038" width="105.44" height="32.6441" filterUnits="userSpaceOnUse" color-interpolation-filters="sRGB">
<feFlood flood-opacity="0" result="BackgroundImageFix"/>
<feBlend mode="normal" in="SourceGraphic" in2="BackgroundImageFix" result="shape"/>
<feGaussianBlur stdDeviation="0.173958" result="effect1_foregroundBlur_181_9345"/>
</filter>
<filter id="filter5_f_181_9345" x="62.2602" y="27.8198" width="105.208" height="32.4121" filterUnits="userSpaceOnUse" color-interpolation-filters="sRGB">
<feFlood flood-opacity="0" result="BackgroundImageFix"/>
<feBlend mode="normal" in="SourceGraphic" in2="BackgroundImageFix" result="shape"/>
<feGaussianBlur stdDeviation="0.115972" result="effect1_foregroundBlur_181_9345"/>
</filter>
</defs>
</svg>
