<svg width="214" height="172" viewBox="0 0 214 172" fill="none" xmlns="http://www.w3.org/2000/svg">
<path d="M193.999 57.2783C194.037 56.0785 193.303 54.9911 192.173 54.5705C191.057 54.1546 189.783 54.4916 189.023 55.4189C184.733 60.6506 178.404 63.65 171.648 63.65C159.263 63.65 149.187 53.5739 149.187 41.1914C149.187 34.956 151.703 29.1555 156.268 24.8536C157.145 24.029 157.399 22.7408 156.904 21.6486C156.404 20.5564 155.274 19.8944 154.074 20.0139C136.099 21.7585 122.402 36.1796 121.315 53.9802C116.485 51.1146 110.854 49.4846 104.865 49.4846C104.58 49.4846 104.296 49.5133 104.011 49.5205C101.695 49.5826 99.3987 49.8766 97.1736 50.4287C93.1274 51.4301 89.2891 53.2058 85.9049 55.6794C79.0672 51.6212 71.3093 49.4846 63.3364 49.4846C38.8893 49.4846 19 69.374 19 93.8234C19 118.273 38.8893 138.162 63.3364 138.162C66.5987 138.162 69.8992 137.78 73.1807 137.025C79.0528 146.333 89.2795 152.029 100.381 152.029C113.88 152.029 125.774 143.635 130.432 131.222C134.811 133.363 139.61 134.482 144.497 134.482C162.226 134.482 176.645 120.061 176.645 102.332C176.645 97.5541 175.581 93.0299 173.701 88.955C185.462 83.2119 193.611 71.3409 193.999 57.2783ZM144.495 128.87C139.471 128.87 134.567 127.436 130.296 124.723C129.84 124.434 129.316 124.286 128.788 124.286C128.439 124.286 128.088 124.351 127.751 124.482C126.914 124.817 126.291 125.531 126.066 126.403C123.083 138.188 112.52 146.417 100.379 146.417C90.6036 146.417 81.6507 141.068 77.007 132.45C76.3809 131.298 75.0472 130.725 73.7758 131.081C70.2984 132.053 66.7875 132.548 63.334 132.548C41.982 132.548 24.614 115.178 24.614 93.8258C24.614 72.4738 41.9844 55.1034 63.334 55.1034C70.8815 55.1034 78.2164 57.2998 84.5402 61.4512C85.5775 62.1276 86.9302 62.0487 87.8766 61.2576C90.1041 59.4054 92.6088 57.9547 95.276 56.9222C97.2358 56.1622 99.2816 55.6412 101.378 55.3616C102.53 55.2086 103.693 55.1058 104.865 55.1058C111.153 55.1058 116.967 57.2688 121.547 60.9708C126.052 64.6107 129.362 69.742 130.719 75.7791C130.906 76.5821 131.429 77.2657 132.163 77.6457C132.897 78.0304 133.759 78.0711 134.519 77.758C134.789 77.6481 135.069 77.5716 135.341 77.4688C138.291 76.379 141.359 75.803 144.495 75.803C153.001 75.803 160.563 79.8397 165.422 86.0847C166.617 87.6166 167.64 89.2824 168.474 91.0558C170.094 94.4854 171.026 98.2998 171.026 102.339C171.029 116.968 159.124 128.87 144.495 128.87ZM170.902 84.0771C165.99 77.0147 158.335 71.9958 149.471 70.6096C147.846 70.3586 146.194 70.1842 144.495 70.1842C144.201 70.1842 143.912 70.2081 143.618 70.2176C140.812 70.2917 138.049 70.7171 135.365 71.5154C133.661 66.3244 130.717 61.8049 126.922 58.22C126.883 57.5699 126.824 56.9198 126.824 56.2578C126.824 42.8907 135.232 31.4618 147.291 27.2196C144.863 31.4212 143.57 36.1916 143.57 41.1938C143.57 56.6784 156.165 69.2688 171.648 69.2688C177.305 69.2688 182.725 67.5839 187.3 64.5056C184.929 73.2194 178.87 80.2985 170.902 84.0771Z" fill="#00FF19"/>
<g style="mix-blend-mode:hard-light" filter="url(#filter0_f_181_9293)">
<path d="M74.8364 133.097L74.8358 133.097C71.1852 134.118 67.486 134.641 63.834 134.641C41.3337 134.641 23.0352 116.34 23.0352 93.8402C23.0352 71.3401 41.3362 53.039 63.834 53.039C71.7865 53.039 79.5162 55.3536 86.177 59.7251C86.4518 59.9035 86.8017 59.879 87.0434 59.677L87.0475 59.6736C89.4541 57.6724 92.1556 56.1089 95.0255 54.998M74.8364 133.097L173.605 102.353C173.605 97.9907 172.598 93.8752 170.854 90.1846M74.8364 133.097C75.1648 133.005 75.5113 133.149 75.6792 133.455C80.6857 142.743 90.3395 148.51 100.879 148.51C113.971 148.51 125.362 139.637 128.58 126.934C128.641 126.701 128.804 126.517 129.015 126.43C129.107 126.395 129.199 126.379 129.288 126.379C129.427 126.379 129.563 126.418 129.682 126.493M74.8364 133.097L129.682 126.493M95.0255 54.998L95.7739 56.9312L95.0243 54.9984C95.0247 54.9983 95.0251 54.9981 95.0255 54.998ZM95.0255 54.998C97.1414 54.1775 99.3471 53.6163 101.603 53.3154L101.604 53.3152C102.814 53.1545 104.074 53.0414 105.365 53.0414C112.136 53.0414 118.41 55.3726 123.353 59.3682C128.213 63.295 131.782 68.8288 133.245 75.3281C133.297 75.5463 133.436 75.7197 133.619 75.8141L133.628 75.819C133.821 75.92 134.04 75.9274 134.228 75.8503L134.236 75.847C134.44 75.7636 134.635 75.6984 134.775 75.6521C134.932 75.5997 135.021 75.571 135.108 75.5381L135.121 75.5332C138.289 74.3625 141.601 73.7386 144.995 73.7386C154.175 73.7386 162.329 78.0973 167.561 84.8205C168.851 86.475 169.955 88.2728 170.854 90.1846M170.854 90.1846C170.855 90.1849 170.855 90.1851 170.855 90.1854L168.975 91.0694L170.853 90.1821C170.854 90.183 170.854 90.1838 170.854 90.1846ZM129.682 126.493C134.283 129.415 139.573 130.963 144.995 130.963C160.772 130.963 173.607 118.131 173.605 102.353L129.682 126.493ZM192.421 57.2265L192.421 57.2355C192.055 70.5032 184.373 81.6884 173.288 87.1014L171.461 87.9939L172.313 89.8406C174.073 93.6529 175.066 97.8807 175.066 102.346C175.066 118.927 161.578 132.417 144.997 132.417C140.428 132.417 135.941 131.372 131.846 129.369L129.79 128.363L128.986 130.506C124.63 142.115 113.506 149.964 100.881 149.964C90.4969 149.964 80.9323 144.638 75.4389 135.93L74.6519 134.682L73.2144 135.013C70.0804 135.734 66.9362 136.098 63.8364 136.098C40.5375 136.098 21.5788 117.139 21.5788 93.8378C21.5788 70.5364 40.5375 51.5779 63.8364 51.5779C71.4351 51.5779 78.8265 53.6135 85.3439 57.4815L86.5239 58.1818L87.6316 57.3721C90.7942 55.0605 94.3848 53.3986 98.173 52.461L98.1742 52.4607C100.242 51.9477 102.388 51.6715 104.565 51.613C104.724 51.609 104.883 51.5998 105.002 51.5928C105.021 51.5917 105.039 51.5907 105.056 51.5898C105.195 51.5818 105.286 51.5779 105.365 51.5779C110.972 51.5779 116.238 53.1031 120.754 55.7824L123.682 57.5196L123.89 54.1213C124.915 37.3319 137.826 23.7425 154.775 22.0974L154.78 22.0969C155.08 22.067 155.375 22.2293 155.512 22.5247C155.638 22.8066 155.572 23.1391 155.344 23.3533L155.342 23.3551C150.364 28.0466 147.608 34.3929 147.608 41.2058C147.608 54.7365 158.615 65.7432 172.148 65.7432C179.528 65.7432 186.446 62.4635 191.13 56.7515L191.13 56.7511C191.323 56.5162 191.657 56.4249 191.947 56.5329L191.948 56.5332C192.248 56.6449 192.43 56.9259 192.421 57.2265ZM169.695 85.2784L170.701 86.7246L172.293 85.9698C180.8 81.9356 187.273 74.3752 189.805 65.0658L191.271 59.678L186.639 62.7953C182.406 65.644 177.389 67.2044 172.148 67.2044C157.813 67.2044 146.149 55.5444 146.149 41.2082C146.149 36.5694 147.347 32.158 149.591 28.2742L152.404 23.4079L147.102 25.273C134.221 29.804 125.245 42.0111 125.245 56.2722C125.245 56.838 125.285 57.4255 125.318 57.9208C125.329 58.0763 125.338 58.2226 125.346 58.3564L125.395 59.1795L125.994 59.7456C129.545 63.0994 132.297 67.3246 133.89 72.1782L134.521 74.0986L136.458 73.5224C138.96 72.7781 141.542 72.3796 144.173 72.3102L144.186 72.3098C144.393 72.303 144.523 72.2957 144.629 72.2897C144.755 72.2826 144.847 72.2774 144.995 72.2774C146.553 72.2774 148.091 72.4372 149.651 72.6781C157.933 73.9736 165.096 78.6648 169.695 85.2784Z" stroke="#00A8A8" stroke-width="4.15768"/>
</g>
<g style="mix-blend-mode:hard-light" filter="url(#filter1_f_181_9293)">
<path d="M191.341 61.8592C189.545 72.8195 182.566 81.8593 173.008 86.5266L170.618 87.6937L171.732 90.1087C173.455 93.8402 174.427 97.9768 174.427 102.346C174.427 118.574 161.225 131.778 144.997 131.778C140.526 131.778 136.135 130.755 132.127 128.794L129.439 127.479L128.387 130.281C124.124 141.643 113.237 149.325 100.881 149.325C90.7177 149.325 81.3568 144.112 75.9799 135.589L74.9508 133.957L73.0709 134.39C69.9822 135.101 66.8862 135.458 63.8364 135.458C40.8908 135.458 22.2185 116.786 22.2185 93.8378C22.2185 70.8897 40.8908 52.2175 63.8364 52.2175C71.3199 52.2175 78.5987 54.222 85.0174 58.0316L86.5605 58.9474L88.0091 57.8885C91.1035 55.6267 94.6178 53.9998 98.3267 53.0819L98.3283 53.0815C100.348 52.5805 102.448 52.3098 104.582 52.2524C104.583 52.2524 104.584 52.2524 104.584 52.2524L104.511 49.5349M191.341 61.8592L192.673 54.5849C191.557 54.169 190.283 54.506 189.523 55.4333C185.233 60.665 178.904 63.6644 172.148 63.6644C159.763 63.6644 149.687 53.5883 149.687 41.2058C149.687 34.9704 152.203 29.1699 156.768 24.868C157.645 24.0434 157.899 22.7552 157.404 21.663C156.904 20.5708 155.774 19.9088 154.574 20.0283C137.606 21.6753 124.45 34.6187 122.115 51.0376C122.481 51.2376 122.843 51.4439 123.202 51.6566L121.815 53.9946L119.101 53.8288C119.126 53.4175 119.158 53.0078 119.195 52.5999C114.994 50.6063 110.301 49.499 105.365 49.499C105.202 49.499 105.04 49.5084 104.877 49.5177C104.755 49.5248 104.633 49.5318 104.511 49.5349M191.341 61.8592L190.423 65.2337C187.84 74.7264 181.24 82.4349 172.567 86.5478L170.485 87.5348L169.17 85.6436C164.667 79.1683 157.656 74.578 149.553 73.3102C148.013 73.0724 146.509 72.9171 144.995 72.9171C144.857 72.9171 144.785 72.9213 144.678 72.9276C144.579 72.9335 144.448 72.9412 144.206 72.9491L144.198 72.9494L144.19 72.9496C141.613 73.0176 139.087 73.4078 136.64 74.1355L134.107 74.889L133.283 72.3777C131.723 67.628 129.03 63.4933 125.555 60.2106L124.771 59.4703L124.708 58.394C124.701 58.2704 124.691 58.1313 124.681 57.9809C124.647 57.4833 124.605 56.8622 124.605 56.2722C124.605 41.736 133.756 29.2894 146.889 24.6696L150.186 23.5098L191.341 61.8592ZM104.511 49.5349C102.195 49.597 99.8987 49.891 97.6736 50.4431C93.6274 51.4445 89.7891 53.2202 86.4049 55.6938L104.511 49.5349ZM75.0089 133.713L75.0081 133.713C71.3042 134.749 67.5471 135.281 63.834 135.281C40.9804 135.281 22.3956 116.693 22.3956 93.8402C22.3956 70.9869 40.9829 52.3994 63.834 52.3994C71.9132 52.3994 79.7664 54.7516 86.5321 59.193L85.0404 61.4653L86.5251 59.1885C86.5656 59.2149 86.6078 59.2074 86.6332 59.1862L86.6385 59.1818C89.0998 57.1351 91.8613 55.5371 94.7931 54.402C94.7936 54.4018 94.7941 54.4016 94.7946 54.4014L95.776 56.9366L75.0089 133.713ZM75.0089 133.713C75.0239 133.709 75.034 133.708 75.0414 133.709C75.0497 133.709 75.059 133.711 75.0687 133.716C75.0875 133.724 75.1049 133.738 75.1186 133.763L77.507 132.465M75.0089 133.713L129.252 127.025C129.23 127.036 129.209 127.059 129.199 127.094C125.909 140.079 114.263 149.15 100.879 149.15C90.1023 149.15 80.2311 143.251 75.1138 133.754L77.507 132.465M77.507 132.465C76.8809 131.313 75.5472 130.739 74.2758 131.095C70.7984 132.068 67.2875 132.563 63.834 132.563C42.482 132.563 25.114 115.192 25.114 93.8402C25.114 72.4882 42.4844 55.1178 63.834 55.1178C71.3815 55.1178 78.7164 57.3142 85.0402 61.4656C86.0775 62.142 87.4302 62.0631 88.3766 61.272L77.507 132.465ZM133.913 75.2461L133.925 75.2525C133.951 75.2662 133.973 75.2634 133.984 75.2588L133.994 75.2545C134.22 75.1625 134.433 75.0915 134.573 75.045L134.622 75.0289C134.752 74.9856 134.818 74.9639 134.882 74.9397L134.891 74.9364L134.899 74.9333C138.135 73.7377 141.522 73.0989 144.995 73.0989C154.382 73.0989 162.719 77.5568 168.065 84.4271C169.385 86.119 170.513 87.9569 171.433 89.911C173.214 93.6821 174.245 97.8907 174.245 102.353L133.913 75.2461ZM133.913 75.2461C133.899 75.2388 133.878 75.221 133.868 75.182C132.371 68.5421 128.724 62.8856 123.756 58.8712L133.913 75.2461ZM191.781 57.2061L191.781 57.2179C191.768 57.684 191.746 58.1476 191.715 58.6083L186.282 62.2646C182.153 65.0427 177.261 66.5647 172.148 66.5647C158.166 66.5647 146.789 55.191 146.789 41.2082C146.789 36.6812 147.957 32.3803 150.145 28.5943L153.437 22.8987C153.9 22.8346 154.367 22.7797 154.837 22.734L154.844 22.7334C154.86 22.7317 154.873 22.7345 154.888 22.7429C154.902 22.7513 154.918 22.7654 154.929 22.7887C154.942 22.8216 154.934 22.8606 154.906 22.8873L154.904 22.8896C149.798 27.7009 146.968 34.2152 146.968 41.2058C146.968 55.0898 158.262 66.3829 172.148 66.3829C179.72 66.3829 186.82 63.0169 191.625 57.1571L191.625 57.1565C191.628 57.153 191.632 57.1492 191.637 57.1456C191.644 57.1401 191.654 57.1349 191.668 57.1313C191.691 57.1249 191.711 57.1275 191.723 57.1323L191.725 57.1327C191.769 57.1493 191.782 57.1822 191.781 57.2061Z" stroke="#00A8A8" stroke-width="5.43697"/>
</g>
<g filter="url(#filter2_f_181_9293)">
<path d="M104.545 50.8137C104.689 50.8101 104.834 50.8017 104.954 50.7947C104.973 50.7936 104.992 50.7925 105.01 50.7915C105.151 50.7835 105.262 50.7783 105.365 50.7783C111.119 50.7783 116.525 52.3438 121.162 55.0948L122.964 56.1638L123.092 54.0726C124.141 36.8942 137.354 22.985 154.698 21.3016L154.701 21.3013C155.347 21.2369 155.963 21.5912 156.239 22.1928C156.507 22.7865 156.37 23.4868 155.892 23.9359L155.891 23.937C151.071 28.4786 148.407 34.615 148.407 41.2058C148.407 54.2949 159.056 64.9437 172.148 64.9437C179.288 64.9437 185.979 61.7718 190.512 56.2445L190.512 56.2442C190.923 55.743 191.618 55.5573 192.226 55.7837L192.227 55.7839C192.846 56.0144 193.241 56.6055 193.22 57.252L193.22 57.2575C192.846 70.8309 184.984 82.2799 173.639 87.8199L172.514 88.3691L173.039 89.5056C174.845 93.4188 175.866 97.7607 175.866 102.346C175.866 119.368 162.02 133.217 144.997 133.217C140.306 133.217 135.699 132.143 131.495 130.087L130.229 129.468L129.735 130.787C125.262 142.705 113.842 150.764 100.881 150.764C90.221 150.764 80.4017 145.296 74.7627 136.356L74.2784 135.589L73.3937 135.792C70.203 136.527 66.9987 136.897 63.8364 136.897C40.0959 136.897 20.7793 117.581 20.7793 93.8378C20.7793 70.0949 40.0959 50.7783 63.8364 50.7783C71.579 50.7783 79.1114 52.8528 85.752 56.7939L86.4781 57.2249L87.1598 56.7266C90.4076 54.3527 94.0935 52.647 97.981 51.6849L97.9817 51.6847C100.11 51.1566 102.314 50.8736 104.545 50.8137ZM104.545 50.8137C104.544 50.8137 104.544 50.8137 104.544 50.8137L104.511 49.5372L104.546 50.8137C104.545 50.8137 104.545 50.8137 104.545 50.8137ZM76.382 133.073C81.2489 142.104 90.6332 147.711 100.879 147.711C113.605 147.711 124.678 139.085 127.805 126.735C127.929 126.256 128.27 125.868 128.723 125.686C128.909 125.614 129.1 125.58 129.288 125.58C129.577 125.58 129.862 125.661 130.112 125.818C134.585 128.66 139.727 130.164 144.995 130.164C160.33 130.164 172.808 117.689 172.805 102.353C172.805 98.1146 171.827 94.1143 170.13 90.5237C169.256 88.6662 168.184 86.9201 166.931 85.3135C161.843 78.7735 153.916 74.5381 144.995 74.5381C141.701 74.5381 138.482 75.1436 135.398 76.2832L135.39 76.2862C135.297 76.3215 135.202 76.3528 135.078 76.3939L135.027 76.4109C134.888 76.457 134.715 76.5151 134.537 76.5875L134.532 76.5895C134.125 76.7574 133.658 76.7372 133.257 76.5271L133.251 76.5241C132.857 76.3199 132.57 75.9506 132.466 75.5075C131.043 69.186 127.574 63.8069 122.851 59.9904C118.048 56.1075 111.95 53.8409 105.365 53.8409C104.12 53.8409 102.897 53.9501 101.709 54.1078L101.708 54.1079C99.5142 54.4006 97.37 54.9464 95.3142 55.7436C92.5222 56.8244 89.8964 58.3445 87.5587 60.2884L87.5562 60.2905C87.0436 60.7189 86.3083 60.7644 85.7404 60.3949C79.209 56.1078 71.631 53.8386 63.834 53.8386C41.7778 53.8386 23.8348 71.7817 23.8348 93.8402C23.8348 115.899 41.7753 133.842 63.834 133.842C67.4097 133.842 71.0364 133.33 74.6204 132.327L74.6208 132.327C75.3117 132.133 76.0377 132.442 76.382 133.073ZM76.382 133.073C76.3816 133.073 76.3812 133.072 76.3808 133.071L77.507 132.465M76.382 133.073C76.3823 133.074 76.3827 133.075 76.3831 133.075L77.507 132.465M77.507 132.465C76.8809 131.313 75.5472 130.739 74.2758 131.095L128.251 124.496C127.414 124.831 126.791 125.546 126.566 126.418C123.583 138.203 113.02 146.432 100.879 146.432C91.1036 146.432 82.1507 141.083 77.507 132.465ZM170.352 84.8219L170.971 85.7119L171.95 85.2474C180.25 81.3115 186.563 73.9362 189.034 64.8559L189.936 61.5403L187.085 63.4586C182.721 66.3957 177.549 68.0039 172.148 68.0039C157.372 68.0039 145.349 55.9861 145.349 41.2082C145.349 36.4296 146.584 31.8802 148.899 27.8742L150.63 24.8795L147.367 26.0272C134.802 30.4472 126.044 42.3549 126.044 56.2722C126.044 56.808 126.081 57.3542 126.114 57.8451C126.125 58.0067 126.136 58.1622 126.145 58.3095L126.174 58.816L126.543 59.1644C130.188 62.6071 133.014 66.9454 134.65 71.9288L135.038 73.1106L136.23 72.756C138.802 71.991 141.454 71.5821 144.152 71.5109L144.16 71.5106C144.327 71.5052 144.453 71.4984 144.564 71.4924C144.712 71.4844 144.834 71.4779 144.995 71.4779C146.607 71.4779 148.189 71.6434 149.775 71.8881C158.281 73.2187 165.632 78.0359 170.352 84.8219Z" stroke="#33E9E9" stroke-width="2.55857"/>
</g>
<g filter="url(#filter3_f_181_9293)">
<path d="M104.528 50.1743C104.661 50.1709 104.794 50.1632 104.915 50.1562C104.935 50.1551 104.955 50.154 104.974 50.1529C105.116 50.1449 105.242 50.1387 105.365 50.1387C111.236 50.1387 116.755 51.7364 121.488 54.5447L122.389 55.0792L122.453 54.0336C123.522 36.5441 136.977 22.379 154.636 20.6649L154.637 20.6648C155.56 20.5729 156.434 21.081 156.822 21.9279C157.203 22.7708 157.007 23.7651 156.33 24.4019L156.329 24.4025C151.637 28.8243 149.047 34.7927 149.047 41.2058C149.047 53.9416 159.41 64.304 172.148 64.304C179.096 64.304 185.606 61.2184 190.017 55.8389L190.017 55.8388C190.603 55.1245 191.587 54.8632 192.449 55.1843L192.45 55.1844C193.325 55.5099 193.889 56.3492 193.859 57.2723L193.859 57.2751C193.479 71.0931 185.473 82.7531 173.92 88.3946L173.358 88.6693L173.62 89.2375C175.463 93.2316 176.505 97.6646 176.505 102.346C176.505 119.722 162.373 133.856 144.997 133.856C140.208 133.856 135.505 132.76 131.214 130.661L130.581 130.352L130.334 131.011C125.768 143.177 114.111 151.404 100.881 151.404C90.0003 151.404 79.9773 145.822 74.2217 136.698L73.9795 136.314L73.5372 136.416C70.3011 137.16 67.0487 137.537 63.8364 137.537C39.7426 137.537 20.1396 117.934 20.1396 93.8378C20.1396 69.7416 39.7426 50.1387 63.8364 50.1387C71.6942 50.1387 79.3393 52.2442 86.0784 56.2439L86.4415 56.4594L86.7823 56.2102C90.0984 53.7864 93.8604 52.0457 97.8273 51.064L97.8277 51.0639C100.004 50.5238 102.255 50.2353 104.528 50.1743ZM104.528 50.1743C104.528 50.1743 104.528 50.1743 104.527 50.1743L104.511 49.5372L104.528 50.1743C104.528 50.1743 104.528 50.1743 104.528 50.1743ZM74.4483 131.711L74.4481 131.711C70.9174 132.699 67.3486 133.202 63.834 133.202C42.1287 133.202 24.4744 115.545 24.4744 93.8402C24.4744 72.1349 42.1311 54.4782 63.834 54.4782C71.5061 54.4782 78.9623 56.7109 85.3898 60.93C86.1925 61.4532 87.2368 61.3911 87.9664 60.7812L87.9677 60.7802C90.2501 58.8822 92.8153 57.3969 95.5447 56.3402C97.5526 55.5616 99.6477 55.0281 101.793 54.7419L101.793 54.7419C102.963 54.5865 104.157 54.4806 105.365 54.4806C111.801 54.4806 117.758 56.6953 122.449 60.4877C127.063 64.216 130.453 69.4712 131.843 75.6507C131.988 76.2737 132.393 76.8 132.957 77.0921L132.96 77.0936C133.527 77.391 134.192 77.4215 134.776 77.181L134.778 77.18C134.935 77.1163 135.09 77.0639 135.228 77.018L135.279 77.0011C135.402 76.9606 135.509 76.9249 135.616 76.8847L135.62 76.8832C138.636 75.7685 141.78 75.1777 144.995 75.1777C153.709 75.1777 161.453 79.3138 166.427 85.7063C167.651 87.2758 168.698 88.9821 169.552 90.798C171.211 94.3078 172.166 98.2148 172.166 102.353C172.168 117.336 159.977 129.524 144.995 129.524C139.849 129.524 134.826 128.055 130.453 125.278M74.4483 131.711L135.841 77.4832C138.791 76.3934 141.859 75.8174 144.995 75.8174C153.501 75.8174 161.063 79.8541 165.922 86.0991C167.117 87.631 168.14 89.2968 168.974 91.0702C170.594 94.4998 171.526 98.3142 171.526 102.353C171.529 116.982 159.624 128.884 144.995 128.884C139.971 128.884 135.067 127.45 130.796 124.738C130.34 124.449 129.816 124.3 129.288 124.3C128.939 124.3 128.588 124.365 128.251 124.496M74.4483 131.711C75.4293 131.436 76.4589 131.877 76.9442 132.769M74.4483 131.711L127.186 126.576M130.453 125.278L130.795 124.739L130.454 125.278C130.454 125.278 130.454 125.278 130.453 125.278ZM130.453 125.278C130.101 125.054 129.696 124.94 129.288 124.94C129.019 124.94 128.748 124.99 128.486 125.091M128.486 125.091C128.487 125.091 128.488 125.091 128.488 125.09L128.251 124.496M128.486 125.091C127.842 125.35 127.36 125.901 127.186 126.576M128.486 125.091C128.485 125.091 128.484 125.092 128.483 125.092L128.251 124.496M128.251 124.496C127.414 124.831 126.791 125.546 126.566 126.418C123.583 138.203 113.02 146.432 100.879 146.432C91.1036 146.432 82.1507 141.083 77.507 132.465C76.8809 131.313 75.5472 130.739 74.2758 131.095C70.7984 132.068 67.2875 132.563 63.834 132.563C42.482 132.563 25.114 115.192 25.114 93.8402C25.114 72.4882 42.4844 55.1178 63.834 55.1178C71.3815 55.1178 78.7164 57.3142 85.0402 61.4656L127.186 126.576M127.186 126.576C127.186 126.576 127.186 126.575 127.186 126.575L126.567 126.418L127.185 126.577C127.186 126.577 127.186 126.577 127.186 126.576ZM127.186 126.576C124.131 138.644 113.312 147.071 100.879 147.071C90.8682 147.071 81.6995 141.593 76.9442 132.769M76.9442 132.769C76.9445 132.769 76.9448 132.77 76.945 132.77L77.5062 132.465L76.9439 132.768C76.944 132.768 76.9441 132.768 76.9442 132.769ZM170.877 84.4567L171.186 84.9017L171.676 84.6694C179.81 80.8122 185.996 73.585 188.417 64.6879L188.868 63.0301L187.442 63.9893C182.973 66.997 177.677 68.6436 172.148 68.6436C157.018 68.6436 144.71 56.3395 144.71 41.2082C144.71 36.3178 145.973 31.6579 148.345 27.5541L149.21 26.0568L147.579 26.6306C135.267 30.9617 126.684 42.63 126.684 56.2722C126.684 56.7842 126.719 57.2981 126.752 57.7843C126.763 57.9504 126.774 58.1134 126.783 58.2719L126.798 58.5252L126.982 58.6994C130.702 62.2132 133.588 66.6421 135.258 71.7293L135.452 72.3202L136.048 72.1429C138.676 71.3613 141.383 70.9441 144.135 70.8715L144.139 70.8713C144.277 70.8668 144.396 70.8606 144.508 70.8548C144.674 70.8461 144.823 70.8382 144.995 70.8382C146.651 70.8382 148.267 71.0082 149.873 71.256C158.558 72.6143 166.061 77.5324 170.877 84.4567Z" stroke="white" stroke-width="1.27929"/>
</g>
<defs>
<filter id="filter0_f_181_9293" x="0.310703" y="0.825108" width="213.379" height="170.407" filterUnits="userSpaceOnUse" color-interpolation-filters="sRGB">
<feFlood flood-opacity="0" result="BackgroundImageFix"/>
<feBlend mode="normal" in="SourceGraphic" in2="BackgroundImageFix" result="shape"/>
<feGaussianBlur stdDeviation="9.59465" result="effect1_foregroundBlur_181_9293"/>
</filter>
<filter id="filter1_f_181_9293" x="13.1036" y="13.618" width="187.793" height="144.822" filterUnits="userSpaceOnUse" color-interpolation-filters="sRGB">
<feFlood flood-opacity="0" result="BackgroundImageFix"/>
<feBlend mode="normal" in="SourceGraphic" in2="BackgroundImageFix" result="shape"/>
<feGaussianBlur stdDeviation="3.19822" result="effect1_foregroundBlur_181_9293"/>
</filter>
<filter id="filter2_f_181_9293" x="18.8604" y="19.3748" width="176.279" height="133.308" filterUnits="userSpaceOnUse" color-interpolation-filters="sRGB">
<feFlood flood-opacity="0" result="BackgroundImageFix"/>
<feBlend mode="normal" in="SourceGraphic" in2="BackgroundImageFix" result="shape"/>
<feGaussianBlur stdDeviation="0.319822" result="effect1_foregroundBlur_181_9293"/>
</filter>
<filter id="filter3_f_181_9293" x="19.0736" y="19.588" width="175.853" height="132.882" filterUnits="userSpaceOnUse" color-interpolation-filters="sRGB">
<feFlood flood-opacity="0" result="BackgroundImageFix"/>
<feBlend mode="normal" in="SourceGraphic" in2="BackgroundImageFix" result="shape"/>
<feGaussianBlur stdDeviation="0.213214" result="effect1_foregroundBlur_181_9293"/>
</filter>
</defs>
</svg>
