<svg width="72" height="41" viewBox="0 0 72 41" fill="none" xmlns="http://www.w3.org/2000/svg">
<path d="M60.5185 16.3909C60.1039 15.2773 59.4223 14.2826 58.5335 13.4941C57.6446 12.7056 56.5757 12.1474 55.4207 11.8687C54.2794 11.5906 53.0881 11.5906 51.9468 11.8687C50.474 8.81501 48.2484 6.18636 45.4794 4.23012C42.7105 2.27388 39.4893 1.05438 36.119 0.686439C35.4363 0.611216 34.7503 0.570059 34.0635 0.56311C30.2638 0.578089 26.5466 1.67178 23.3443 3.71689C20.142 5.762 17.5863 8.67444 15.9746 12.1153C12.6128 11.7899 9.24553 12.6784 6.48195 14.6201C3.71836 16.5618 1.74092 19.4284 0.907346 22.7015C0.604149 23.8624 0.452149 25.0577 0.455121 26.2576C0.460541 30.014 1.95378 33.6153 4.60806 36.2734C7.26233 38.9316 10.8615 40.43 14.6179 40.4409H59.1001C62.1693 40.4136 65.1127 39.2178 67.3313 37.0967C69.5498 34.9757 70.8766 32.0889 71.0416 29.024C71.2066 25.9592 70.1975 22.9466 68.2196 20.5996C66.2416 18.2526 63.4436 16.7476 60.3951 16.3909H60.5185ZM59.2235 36.9464H14.7001C13.2097 36.9504 11.7349 36.642 10.3709 36.0411C9.0069 35.4403 7.78395 34.5603 6.78087 33.4578C5.7778 32.3554 5.01687 31.055 4.54711 29.6405C4.07736 28.226 3.90921 26.7287 4.05352 25.2452C4.19783 23.7618 4.65138 22.325 5.38494 21.0275C6.11851 19.7301 7.11581 18.6007 8.31255 17.7123C9.50929 16.8238 10.8789 16.196 12.3331 15.8693C13.7874 15.5426 15.2939 15.5242 16.7557 15.8153L18.1946 16.0826L18.7085 14.7053C19.8936 11.5968 21.9938 8.9208 24.7316 7.03076C27.4694 5.14072 30.7161 4.1255 34.0429 4.11921C34.5774 4.11921 35.1323 4.11921 35.7901 4.11921C37.5402 4.30834 39.248 4.78043 40.8468 5.51701C44.8037 7.31953 47.8856 10.6158 49.4185 14.6848L50.1379 16.617L51.9262 15.5892C52.4519 15.2934 53.0414 15.129 53.6443 15.1102C54.2472 15.0914 54.8458 15.2186 55.3889 15.4811C55.932 15.7436 56.4037 16.1335 56.7635 16.6176C57.1234 17.1017 57.3609 17.6657 57.4557 18.2614L57.7023 19.762H59.3262C61.5941 19.762 63.7691 20.6629 65.3728 22.2666C66.9764 23.8702 67.8773 26.0452 67.8773 28.3131C67.8773 30.581 66.9764 32.756 65.3728 34.3596C63.7691 35.9633 61.5941 36.8642 59.3262 36.8642L59.2235 36.9464Z" fill="#00FF19"/>
</svg>
