<svg width="70" height="53" viewBox="0 0 70 53" fill="none" xmlns="http://www.w3.org/2000/svg">
<path d="M28.0176 31.7991C28.8168 31.6255 29.6439 31.6255 30.4431 31.7991C32.0087 28.748 34.5581 26.3144 37.6787 24.8924C39.1636 24.2184 40.745 23.7815 42.3653 23.5974H42.5298C41.9022 22.7554 41.0867 22.0715 40.1481 21.6005C39.2095 21.1294 38.1739 20.8841 37.1237 20.8841C37.0121 20.1842 36.6974 19.5326 36.2187 19.01C35.74 18.4874 35.1183 18.117 34.4309 17.9446C34.1545 17.8802 33.8719 17.8457 33.5881 17.8418C32.9605 17.8369 32.343 18.0002 31.7998 18.3146C30.704 15.3725 28.4864 12.9849 25.6331 11.6752C24.4776 11.1393 23.2412 10.799 21.9742 10.668C21.5631 10.668 21.1315 10.668 20.7203 10.668C18.3081 10.6684 15.953 11.4019 13.967 12.7711C11.981 14.1404 10.458 16.0808 9.59979 18.3352C9.11092 18.2517 8.61575 18.2103 8.11979 18.2118C6.31015 18.2147 4.5536 18.8235 3.13039 19.9412C1.70718 21.0589 0.699307 22.6211 0.267568 24.3785C0.0835547 25.048 -0.00637654 25.7398 0.000351323 26.434C0.027002 28.5792 0.890983 30.629 2.40794 32.1459C3.92489 33.6629 5.97466 34.5269 8.11979 34.5535H24.5642C25.3084 33.217 26.5491 32.2275 28.0176 31.7991Z" fill="#00FF19"/>
<path d="M62.3655 14.4299C60.781 12.1654 58.5284 10.4528 55.9227 9.53141C53.317 8.61002 50.4886 8.52598 47.8328 9.29099C50.4333 9.40683 52.9138 10.4181 54.854 12.1536C56.7942 13.889 58.0748 16.2418 58.4788 18.8134C58.8828 21.385 58.3854 24.0171 57.0708 26.2639C55.7562 28.5107 53.7053 30.2339 51.2655 31.1415C50.6019 31.4034 49.9131 31.5962 49.21 31.7171C46.4302 32.1799 43.5779 31.586 41.2139 30.0521C43.3332 32.7393 46.4136 34.4982 49.8051 34.9574C53.1965 35.4166 56.6337 34.5403 59.3914 32.5134C62.149 30.4865 64.0114 27.4675 64.5855 24.0936C65.1595 20.7197 64.4004 17.2547 62.4683 14.4299H62.3655Z" fill="#00FF19"/>
<path d="M42.0774 28.5723C44.0726 29.8613 46.4742 30.3665 48.8196 29.9907C49.4453 29.8919 50.0586 29.7266 50.649 29.4973C51.3751 29.2172 52.0652 28.8515 52.7046 28.4079C51.0404 26.9913 49.0589 25.9971 46.9285 25.5096C45.9564 25.2942 44.9641 25.1839 43.9685 25.1807C43.4957 25.1807 43.0229 25.1807 42.5502 25.1807C41.3456 25.3242 40.1643 25.6212 39.0352 26.0645L40.2274 27.1129L42.0774 28.5723Z" fill="#00FF19"/>
<path d="M67.0934 40.5972C66.6773 38.9955 65.8373 37.5354 64.6617 36.3707C63.4861 35.2059 62.0184 34.3795 60.4128 33.9783C58.5029 35.3921 56.283 36.3294 53.9378 36.7122C53.1369 36.852 52.3253 36.9208 51.5123 36.9178C49.2401 36.9082 46.9996 36.3834 44.9595 35.3829C42.9194 34.3825 41.1327 32.9323 39.7339 31.1417L38.48 29.2094L37.8634 28.0378L37.4934 26.9072C34.6593 28.4327 32.47 30.9286 31.3267 33.9373C30.7002 33.5821 29.9913 33.3978 29.2712 33.4028C28.9519 33.402 28.634 33.4435 28.3256 33.5261C27.5482 33.7194 26.8441 34.1355 26.3 34.7235C25.7559 35.3114 25.3954 36.0455 25.2628 36.8356C23.8313 36.838 22.4294 37.2443 21.2186 38.008C20.0077 38.7716 19.0369 39.8614 18.4178 41.1522C17.9133 42.1822 17.6531 43.3147 17.6573 44.4617C17.6573 46.4807 18.4579 48.4173 19.8836 49.8469C21.3094 51.2765 23.2438 52.0823 25.2628 52.0878H58.1517C60.5886 52.0878 62.9257 51.1197 64.6488 49.3966C66.372 47.6734 67.3401 45.3363 67.3401 42.8994C67.3628 42.1244 67.2799 41.3499 67.0934 40.5972Z" fill="#00FF19"/>
<path d="M41.3167 11.8397L45.3045 11.2231L41.3167 10.5858L42.8995 8.40695L40.7206 9.98974L40.1039 6.00195L39.4667 9.98974L37.2878 8.40695L38.8706 10.5858L34.8828 11.2231L38.8706 11.8397L37.2878 13.9981L39.4667 12.4153L40.1039 16.4236L40.7206 12.4153L42.8995 13.9981L41.3167 11.8397Z" fill="#00FF19"/>
<path d="M20.2886 3.18612L21.3781 1.66499L19.8775 2.77501L19.4459 0L19.0142 2.77501L17.5136 1.66499L18.6031 3.18612L15.8486 3.61777L18.6031 4.04945L17.5136 5.54999L19.0142 4.46055L19.4459 7.21499L19.8775 4.46055L21.3781 5.54999L20.2886 4.04945L23.0636 3.61777L20.2886 3.18612Z" fill="#00FF19"/>
<path d="M69.3748 8.46861L67.4837 8.18084L68.2237 7.13251L67.1959 7.89306L66.8876 6.00195L66.5998 7.89306L65.572 7.13251L66.312 8.18084L64.4209 8.46861L66.312 8.77697L65.572 9.80474L66.5998 9.04417L66.8876 10.9558L67.1959 9.04417L68.2237 9.80474L67.4837 8.77697L69.3748 8.46861Z" fill="#00FF19"/>
</svg>
