<svg width="350" height="265" viewBox="0 0 350 265" fill="none" xmlns="http://www.w3.org/2000/svg">
<g style="mix-blend-mode:hard-light" filter="url(#filter0_ddi_181_9295)">
<path d="M142.836 179.097L142.836 179.097C139.185 180.118 135.486 180.641 131.834 180.641C109.334 180.641 91.0352 162.34 91.0352 139.84C91.0352 117.34 109.336 99.039 131.834 99.039C139.787 99.039 147.516 101.354 154.177 105.725C154.452 105.904 154.802 105.879 155.043 105.677L155.047 105.674C157.454 103.672 160.156 102.109 163.026 100.998M142.836 179.097L241.605 148.353C241.605 143.991 240.598 139.875 238.854 136.185M142.836 179.097C143.165 179.005 143.511 179.149 143.679 179.455C148.686 188.743 158.34 194.51 168.879 194.51C181.971 194.51 193.362 185.637 196.58 172.934C196.641 172.701 196.804 172.517 197.015 172.43C197.107 172.395 197.199 172.379 197.288 172.379C197.427 172.379 197.563 172.418 197.682 172.493M142.836 179.097L197.682 172.493M163.026 100.998L163.774 102.931L163.024 100.998C163.025 100.998 163.025 100.998 163.026 100.998ZM163.026 100.998C165.141 100.178 167.347 99.6163 169.603 99.3154L169.604 99.3152C170.814 99.1545 172.074 99.0414 173.365 99.0414C180.136 99.0414 186.41 101.373 191.353 105.368C196.213 109.295 199.782 114.829 201.245 121.328C201.297 121.546 201.436 121.72 201.619 121.814L201.628 121.819C201.821 121.92 202.04 121.927 202.228 121.85L202.236 121.847C202.44 121.764 202.635 121.698 202.775 121.652C202.932 121.6 203.021 121.571 203.108 121.538L203.121 121.533C206.289 120.363 209.601 119.739 212.995 119.739C222.175 119.739 230.329 124.097 235.561 130.82C236.851 132.475 237.955 134.273 238.854 136.185M238.854 136.185C238.855 136.185 238.855 136.185 238.855 136.185L236.975 137.069L238.853 136.182C238.854 136.183 238.854 136.184 238.854 136.185ZM197.682 172.493C202.283 175.415 207.573 176.963 212.995 176.963C228.772 176.963 241.607 164.131 241.605 148.353L197.682 172.493ZM260.421 103.226L260.421 103.236C260.055 116.503 252.373 127.688 241.288 133.101L239.461 133.994L240.313 135.841C242.073 139.653 243.066 143.881 243.066 148.346C243.066 164.927 229.578 178.417 212.997 178.417C208.428 178.417 203.941 177.372 199.846 175.369L197.79 174.363L196.986 176.506C192.63 188.115 181.506 195.964 168.881 195.964C158.497 195.964 148.932 190.638 143.439 181.93L142.652 180.682L141.214 181.013C138.08 181.734 134.936 182.098 131.836 182.098C108.538 182.098 89.5788 163.139 89.5788 139.838C89.5788 116.536 108.538 97.5779 131.836 97.5779C139.435 97.5779 146.827 99.6135 153.344 103.482L154.524 104.182L155.632 103.372C158.794 101.06 162.385 99.3986 166.173 98.461L166.174 98.4607C168.242 97.9477 170.388 97.6715 172.565 97.613C172.724 97.609 172.883 97.5998 173.002 97.5928C173.021 97.5917 173.039 97.5907 173.056 97.5898C173.195 97.5818 173.286 97.5779 173.365 97.5779C178.972 97.5779 184.238 99.1031 188.754 101.782L191.682 103.52L191.89 100.121C192.915 83.3319 205.826 69.7425 222.775 68.0974L222.78 68.0969C223.08 68.067 223.375 68.2293 223.512 68.5247C223.638 68.8066 223.572 69.1391 223.344 69.3533L223.342 69.3551C218.364 74.0466 215.608 80.3929 215.608 87.2058C215.608 100.737 226.615 111.743 240.148 111.743C247.528 111.743 254.446 108.464 259.13 102.751L259.13 102.751C259.323 102.516 259.657 102.425 259.947 102.533L259.948 102.533C260.248 102.645 260.43 102.926 260.421 103.226ZM237.695 131.278L238.701 132.725L240.293 131.97C248.8 127.936 255.273 120.375 257.805 111.066L259.271 105.678L254.639 108.795C250.406 111.644 245.389 113.204 240.148 113.204C225.813 113.204 214.149 101.544 214.149 87.2082C214.149 82.5694 215.347 78.158 217.591 74.2742L220.404 69.4079L215.102 71.273C202.221 75.804 193.245 88.0111 193.245 102.272C193.245 102.838 193.285 103.425 193.318 103.921C193.329 104.076 193.338 104.223 193.346 104.356L193.395 105.179L193.994 105.746C197.545 109.099 200.297 113.325 201.89 118.178L202.521 120.099L204.458 119.522C206.96 118.778 209.542 118.38 212.173 118.31L212.186 118.31C212.393 118.303 212.523 118.296 212.629 118.29C212.755 118.283 212.847 118.277 212.995 118.277C214.553 118.277 216.091 118.437 217.651 118.678C225.933 119.974 233.096 124.665 237.695 131.278Z" stroke="#33E9C6" stroke-opacity="0.2" stroke-width="4.15768"/>
</g>
<g filter="url(#filter1_f_181_9295)">
<path d="M172.545 96.8137C172.689 96.8101 172.834 96.8017 172.954 96.7947C172.973 96.7936 172.992 96.7925 173.01 96.7915C173.151 96.7835 173.262 96.7783 173.365 96.7783C179.119 96.7783 184.525 98.3438 189.162 101.095L190.964 102.164L191.092 100.073C192.141 82.8942 205.354 68.985 222.698 67.3016L222.701 67.3013C223.347 67.2369 223.963 67.5912 224.239 68.1928C224.507 68.7865 224.37 69.4868 223.892 69.9359L223.891 69.937C219.071 74.4786 216.407 80.615 216.407 87.2058C216.407 100.295 227.056 110.944 240.148 110.944C247.288 110.944 253.979 107.772 258.512 102.244L258.512 102.244C258.923 101.743 259.618 101.557 260.226 101.784L260.227 101.784C260.846 102.014 261.241 102.606 261.22 103.252L261.22 103.258C260.846 116.831 252.984 128.28 241.639 133.82L240.514 134.369L241.039 135.506C242.845 139.419 243.866 143.761 243.866 148.346C243.866 165.368 230.02 179.217 212.997 179.217C208.306 179.217 203.699 178.143 199.495 176.087L198.229 175.468L197.735 176.787C193.262 188.705 181.842 196.764 168.881 196.764C158.221 196.764 148.402 191.296 142.763 182.356L142.278 181.589L141.394 181.792C138.203 182.527 134.999 182.897 131.836 182.897C108.096 182.897 88.7793 163.581 88.7793 139.838C88.7793 116.095 108.096 96.7783 131.836 96.7783C139.579 96.7783 147.111 98.8528 153.752 102.794L154.478 103.225L155.16 102.727C158.408 100.353 162.093 98.647 165.981 97.6849L165.982 97.6847C168.11 97.1566 170.314 96.8736 172.545 96.8137ZM172.545 96.8137C172.544 96.8137 172.544 96.8137 172.544 96.8137L172.511 95.5372L172.546 96.8137C172.545 96.8137 172.545 96.8137 172.545 96.8137ZM144.382 179.073C149.249 188.104 158.633 193.711 168.879 193.711C181.605 193.711 192.678 185.085 195.805 172.735C195.929 172.256 196.27 171.868 196.723 171.686C196.909 171.614 197.1 171.58 197.288 171.58C197.577 171.58 197.862 171.661 198.112 171.818C202.585 174.66 207.727 176.164 212.995 176.164C228.33 176.164 240.808 163.689 240.805 148.353C240.805 144.115 239.827 140.114 238.13 136.524C237.256 134.666 236.184 132.92 234.931 131.313C229.843 124.774 221.916 120.538 212.995 120.538C209.701 120.538 206.482 121.144 203.398 122.283L203.39 122.286C203.297 122.321 203.202 122.353 203.078 122.394L203.027 122.411C202.888 122.457 202.715 122.515 202.537 122.588L202.532 122.59C202.125 122.757 201.658 122.737 201.257 122.527L201.251 122.524C200.857 122.32 200.57 121.951 200.466 121.507C199.043 115.186 195.574 109.807 190.851 105.99C186.048 102.107 179.95 99.8409 173.365 99.8409C172.12 99.8409 170.897 99.9501 169.709 100.108L169.708 100.108C167.514 100.401 165.37 100.946 163.314 101.744C160.522 102.824 157.896 104.344 155.559 106.288L155.556 106.29C155.044 106.719 154.308 106.764 153.74 106.395C147.209 102.108 139.631 99.8386 131.834 99.8386C109.778 99.8386 91.8348 117.782 91.8348 139.84C91.8348 161.899 109.775 179.842 131.834 179.842C135.41 179.842 139.036 179.33 142.62 178.327L142.621 178.327C143.312 178.133 144.038 178.442 144.382 179.073ZM144.382 179.073C144.382 179.073 144.381 179.072 144.381 179.071L145.507 178.465M144.382 179.073C144.382 179.074 144.383 179.075 144.383 179.075L145.507 178.465M145.507 178.465C144.881 177.313 143.547 176.739 142.276 177.095L196.251 170.496C195.414 170.831 194.791 171.546 194.566 172.418C191.583 184.203 181.02 192.432 168.879 192.432C159.104 192.432 150.151 187.083 145.507 178.465ZM238.352 130.822L238.971 131.712L239.95 131.247C248.25 127.312 254.563 119.936 257.034 110.856L257.936 107.54L255.085 109.459C250.721 112.396 245.549 114.004 240.148 114.004C225.372 114.004 213.349 101.986 213.349 87.2082C213.349 82.4296 214.584 77.8802 216.899 73.8742L218.63 70.8795L215.367 72.0272C202.802 76.4472 194.044 88.3549 194.044 102.272C194.044 102.808 194.081 103.354 194.114 103.845C194.125 104.007 194.136 104.162 194.145 104.309L194.174 104.816L194.543 105.164C198.188 108.607 201.014 112.945 202.65 117.929L203.038 119.111L204.23 118.756C206.802 117.991 209.454 117.582 212.152 117.511L212.16 117.511C212.327 117.505 212.453 117.498 212.564 117.492C212.712 117.484 212.834 117.478 212.995 117.478C214.607 117.478 216.189 117.643 217.775 117.888C226.281 119.219 233.632 124.036 238.352 130.822Z" stroke="#33E9E9" stroke-width="2.55857"/>
</g>
<g filter="url(#filter2_f_181_9295)">
<path d="M172.528 96.1743C172.661 96.1709 172.794 96.1632 172.915 96.1562C172.935 96.1551 172.955 96.154 172.974 96.1529C173.116 96.1449 173.242 96.1387 173.365 96.1387C179.236 96.1387 184.755 97.7364 189.488 100.545L190.389 101.079L190.453 100.034C191.522 82.5441 204.977 68.379 222.636 66.6649L222.637 66.6648C223.56 66.5729 224.434 67.081 224.822 67.9279C225.203 68.7708 225.007 69.7651 224.33 70.4019L224.329 70.4025C219.637 74.8243 217.047 80.7927 217.047 87.2058C217.047 99.9416 227.41 110.304 240.148 110.304C247.096 110.304 253.606 107.218 258.017 101.839L258.017 101.839C258.603 101.125 259.587 100.863 260.449 101.184L260.45 101.184C261.325 101.51 261.889 102.349 261.859 103.272L261.859 103.275C261.479 117.093 253.473 128.753 241.92 134.395L241.358 134.669L241.62 135.237C243.463 139.232 244.505 143.665 244.505 148.346C244.505 165.722 230.373 179.856 212.997 179.856C208.208 179.856 203.505 178.76 199.214 176.661L198.581 176.352L198.334 177.011C193.768 189.177 182.111 197.404 168.881 197.404C158 197.404 147.977 191.822 142.222 182.698L141.98 182.314L141.537 182.416C138.301 183.16 135.049 183.537 131.836 183.537C107.743 183.537 88.1396 163.934 88.1396 139.838C88.1396 115.742 107.743 96.1387 131.836 96.1387C139.694 96.1387 147.339 98.2442 154.078 102.244L154.441 102.459L154.782 102.21C158.098 99.7864 161.86 98.0457 165.827 97.064L165.828 97.0639C168.004 96.5238 170.255 96.2353 172.528 96.1743ZM172.528 96.1743C172.528 96.1743 172.528 96.1743 172.527 96.1743L172.511 95.5372L172.528 96.1743C172.528 96.1743 172.528 96.1743 172.528 96.1743ZM142.448 177.711L142.448 177.711C138.917 178.699 135.349 179.202 131.834 179.202C110.129 179.202 92.4744 161.545 92.4744 139.84C92.4744 118.135 110.131 100.478 131.834 100.478C139.506 100.478 146.962 102.711 153.39 106.93C154.193 107.453 155.237 107.391 155.966 106.781L155.968 106.78C158.25 104.882 160.815 103.397 163.545 102.34C165.553 101.562 167.648 101.028 169.793 100.742L169.793 100.742C170.963 100.587 172.157 100.481 173.365 100.481C179.801 100.481 185.758 102.695 190.449 106.488C195.063 110.216 198.453 115.471 199.843 121.651C199.988 122.274 200.393 122.8 200.957 123.092L200.96 123.094C201.527 123.391 202.192 123.421 202.776 123.181L202.778 123.18C202.935 123.116 203.09 123.064 203.228 123.018L203.279 123.001C203.402 122.961 203.509 122.925 203.616 122.885L203.62 122.883C206.636 121.769 209.78 121.178 212.995 121.178C221.709 121.178 229.453 125.314 234.427 131.706C235.651 133.276 236.698 134.982 237.552 136.798C239.211 140.308 240.166 144.215 240.166 148.353C240.168 163.336 227.977 175.524 212.995 175.524C207.849 175.524 202.826 174.055 198.453 171.278M142.448 177.711L203.841 123.483C206.791 122.393 209.859 121.817 212.995 121.817C221.501 121.817 229.063 125.854 233.922 132.099C235.117 133.631 236.14 135.297 236.974 137.07C238.594 140.5 239.526 144.314 239.526 148.353C239.529 162.982 227.624 174.884 212.995 174.884C207.971 174.884 203.067 173.45 198.796 170.738C198.34 170.449 197.816 170.3 197.288 170.3C196.939 170.3 196.588 170.365 196.251 170.496M142.448 177.711C143.429 177.436 144.459 177.877 144.944 178.769M142.448 177.711L195.186 172.576M198.453 171.278L198.795 170.739L198.454 171.278C198.454 171.278 198.454 171.278 198.453 171.278ZM198.453 171.278C198.101 171.054 197.696 170.94 197.288 170.94C197.019 170.94 196.748 170.99 196.486 171.091M196.486 171.091C196.487 171.091 196.488 171.091 196.488 171.09L196.251 170.496M196.486 171.091C195.842 171.35 195.36 171.901 195.186 172.576M196.486 171.091C196.485 171.091 196.484 171.092 196.483 171.092L196.251 170.496M196.251 170.496C195.414 170.831 194.791 171.546 194.566 172.418C191.583 184.203 181.02 192.432 168.879 192.432C159.104 192.432 150.151 187.083 145.507 178.465C144.881 177.313 143.547 176.739 142.276 177.095C138.798 178.068 135.288 178.563 131.834 178.563C110.482 178.563 93.114 161.192 93.114 139.84C93.114 118.488 110.484 101.118 131.834 101.118C139.382 101.118 146.716 103.314 153.04 107.466L195.186 172.576M195.186 172.576C195.186 172.576 195.186 172.575 195.186 172.575L194.567 172.418L195.185 172.577C195.186 172.577 195.186 172.577 195.186 172.576ZM195.186 172.576C192.131 184.644 181.312 193.071 168.879 193.071C158.868 193.071 149.699 187.593 144.944 178.769M144.944 178.769C144.945 178.769 144.945 178.77 144.945 178.77L145.506 178.465L144.944 178.768C144.944 178.768 144.944 178.768 144.944 178.769ZM238.877 130.457L239.186 130.902L239.676 130.669C247.81 126.812 253.996 119.585 256.417 110.688L256.868 109.03L255.442 109.989C250.973 112.997 245.677 114.644 240.148 114.644C225.018 114.644 212.71 102.339 212.71 87.2082C212.71 82.3178 213.973 77.6579 216.345 73.5541L217.21 72.0568L215.579 72.6306C203.267 76.9617 194.684 88.63 194.684 102.272C194.684 102.784 194.719 103.298 194.752 103.784C194.763 103.95 194.774 104.113 194.783 104.272L194.798 104.525L194.982 104.699C198.702 108.213 201.588 112.642 203.258 117.729L203.452 118.32L204.048 118.143C206.676 117.361 209.383 116.944 212.135 116.871L212.139 116.871C212.277 116.867 212.396 116.861 212.508 116.855C212.674 116.846 212.823 116.838 212.995 116.838C214.651 116.838 216.267 117.008 217.873 117.256C226.558 118.614 234.061 123.532 238.877 130.457Z" stroke="white" stroke-width="1.27929"/>
</g>
<defs>
<filter id="filter0_ddi_181_9295" x="79.1846" y="64.0955" width="191.631" height="148.659" filterUnits="userSpaceOnUse" color-interpolation-filters="sRGB">
<feFlood flood-opacity="0" result="BackgroundImageFix"/>
<feColorMatrix in="SourceAlpha" type="matrix" values="0 0 0 0 0 0 0 0 0 0 0 0 0 0 0 0 0 0 127 0" result="hardAlpha"/>
<feOffset dy="4.15768"/>
<feGaussianBlur stdDeviation="1.59911"/>
<feColorMatrix type="matrix" values="0 0 0 0 0 0 0 0 0 0.3 0 0 0 0 0.275 0 0 0 0.7 0"/>
<feBlend mode="multiply" in2="BackgroundImageFix" result="effect1_dropShadow_181_9295"/>
<feColorMatrix in="SourceAlpha" type="matrix" values="0 0 0 0 0 0 0 0 0 0 0 0 0 0 0 0 0 0 127 0" result="hardAlpha"/>
<feOffset dy="6.39643"/>
<feGaussianBlur stdDeviation="4.15768"/>
<feColorMatrix type="matrix" values="0 0 0 0 0 0 0 0 0 0.6 0 0 0 0 0.6 0 0 0 1 0"/>
<feBlend mode="color-dodge" in2="effect1_dropShadow_181_9295" result="effect2_dropShadow_181_9295"/>
<feBlend mode="normal" in="SourceGraphic" in2="effect2_dropShadow_181_9295" result="shape"/>
<feColorMatrix in="SourceAlpha" type="matrix" values="0 0 0 0 0 0 0 0 0 0 0 0 0 0 0 0 0 0 127 0" result="hardAlpha"/>
<feOffset dx="-0.415768" dy="0.831536"/>
<feGaussianBlur stdDeviation="0.207884"/>
<feComposite in2="hardAlpha" operator="arithmetic" k2="-1" k3="1"/>
<feColorMatrix type="matrix" values="0 0 0 0 1 0 0 0 0 1 0 0 0 0 1 0 0 0 0.5 0"/>
<feBlend mode="normal" in2="shape" result="effect3_innerShadow_181_9295"/>
</filter>
<filter id="filter1_f_181_9295" x="86.8604" y="65.3748" width="176.279" height="133.308" filterUnits="userSpaceOnUse" color-interpolation-filters="sRGB">
<feFlood flood-opacity="0" result="BackgroundImageFix"/>
<feBlend mode="normal" in="SourceGraphic" in2="BackgroundImageFix" result="shape"/>
<feGaussianBlur stdDeviation="0.319822" result="effect1_foregroundBlur_181_9295"/>
</filter>
<filter id="filter2_f_181_9295" x="87.0736" y="65.588" width="175.853" height="132.882" filterUnits="userSpaceOnUse" color-interpolation-filters="sRGB">
<feFlood flood-opacity="0" result="BackgroundImageFix"/>
<feBlend mode="normal" in="SourceGraphic" in2="BackgroundImageFix" result="shape"/>
<feGaussianBlur stdDeviation="0.213214" result="effect1_foregroundBlur_181_9295"/>
</filter>
</defs>
</svg>
