<svg width="16" height="16" viewBox="0 0 16 16" fill="none" xmlns="http://www.w3.org/2000/svg">
<path fill-rule="evenodd" clip-rule="evenodd" d="M8 16C12.4183 16 16 12.4183 16 8C16 3.58172 12.4183 0 8 0C3.58172 0 0 3.58172 0 8C0 12.4183 3.58172 16 8 16ZM4.63122 7.65796C6.15706 5.92242 7.90496 4.35871 9.83787 3C9.83787 3 10.1026 5.19514 9.95551 7.28318C9.94598 8.07411 9.85737 8.86258 9.69078 9.6389C9.01421 11.8073 7.16099 12.3426 5.74902 11.8072C5.16099 11.6189 4.66611 11.2459 4.35336 10.7552C4.0406 10.2645 3.93052 9.68826 4.04291 9.13026C4.12019 8.60665 4.32087 8.10445 4.63122 7.65796ZM7.07275 7.01547C6.71976 6.80131 6.10201 7.01545 5.74902 7.49731C5.39603 8.00593 5.39603 8.59488 5.74902 8.80904C6.10201 9.0232 6.71976 8.83583 7.07275 8.3272C7.42575 7.81858 7.42575 7.22963 7.07275 7.01547Z" fill="#00FF19"/>
</svg>
