<svg width="43" height="32" viewBox="0 0 43 32" fill="none" xmlns="http://www.w3.org/2000/svg">
<path d="M42.153 21.7545H0V23.7545H42.153V21.7545Z" fill="#00FF19"/>
<path d="M42.153 25.7545H0V27.7545H42.153V25.7545Z" fill="#00FF19"/>
<path d="M42.153 29.7545H0V31.7545H42.153V29.7545Z" fill="#00FF19"/>
<path d="M13.8678 5.6828C14.9598 4.5908 16.2398 3.8078 17.6028 3.3088C17.3388 6.7238 18.4848 10.2268 21.0538 12.8578L21.0498 12.8618C21.0648 12.8778 21.0798 12.8888 21.0948 12.9028C21.1148 12.9228 21.1298 12.9438 21.1498 12.9638L21.1558 12.9578C23.7858 15.5278 27.2908 16.6728 30.7048 16.4088C30.4108 17.2128 30.0058 17.9808 29.5088 18.7058H31.8478C32.3068 17.8498 32.6718 16.9548 32.9158 16.0318C33.1078 15.3048 33.2348 14.5668 33.2928 13.8208C32.6188 14.0678 31.9268 14.2398 31.2248 14.3418C28.1398 14.7848 24.8908 13.8418 22.5098 11.4898C20.1678 9.1108 19.2298 5.8698 19.6718 2.7898C19.7728 2.0868 19.9448 1.3948 20.1908 0.721802C19.4458 0.779802 18.7078 0.906801 17.9808 1.0978C15.9558 1.6348 14.0398 2.6828 12.4548 4.2678C8.55078 8.1708 7.83578 14.0608 10.2878 18.7048H12.6138C9.91877 14.7038 10.3318 9.2198 13.8678 5.6828Z" fill="#00FF19"/>
</svg>
