<svg width="69" height="58" viewBox="0 0 69 58" fill="none" xmlns="http://www.w3.org/2000/svg">
<path d="M14.7215 31.6714C14.8562 31.0708 14.9251 30.4574 14.9271 29.8419C14.9271 28.3208 14.9271 26.6353 14.9271 26.6353C13.5645 27.6797 12.3356 28.8878 11.2682 30.2325C11.0629 30.5716 10.93 30.9495 10.8776 31.3425C10.7947 31.7713 10.8697 32.2157 11.0889 32.5935C11.308 32.9713 11.6565 33.2571 12.0699 33.398C12.3584 33.4877 12.6631 33.5126 12.9624 33.471C13.2617 33.4294 13.5481 33.3224 13.8013 33.1575C14.0545 32.9927 14.2682 32.774 14.4272 32.5172C14.5863 32.2603 14.6868 31.9715 14.7215 31.6714ZM11.9876 30.0475C12.0681 29.8817 12.2075 29.7519 12.3785 29.6835C12.5496 29.6151 12.7401 29.6129 12.9126 29.6775C13.1593 29.8625 13.1593 30.2941 12.9126 30.6847C12.666 31.0753 12.2343 31.2192 11.9876 31.0547C11.741 30.8903 11.7204 30.4792 11.9876 30.0475Z" fill="#00FF19"/>
<path d="M0.435799 32.9047C0.231499 33.2462 0.0921245 33.6225 0.0246944 34.0147C-0.0454938 34.4424 0.035016 34.8812 0.252469 35.2561C0.469922 35.631 0.810826 35.9188 1.21692 36.0702C1.50696 36.178 1.81757 36.2188 2.1256 36.1898C2.43364 36.1607 2.73114 36.0625 2.99593 35.9024C3.26071 35.7424 3.48594 35.5246 3.65483 35.2654C3.82373 35.0061 3.93193 34.7121 3.97136 34.4052C4.09792 33.8107 4.15995 33.2042 4.15637 32.5964C4.15637 31.0753 4.15637 29.3691 4.15637 29.3691C2.7762 30.391 1.52667 31.5784 0.435799 32.9047ZM1.21692 32.7814C1.48414 32.3908 1.89525 32.2264 2.14191 32.4114C2.38858 32.5964 2.38858 33.028 2.14191 33.398C1.89525 33.768 1.48414 33.953 1.21692 33.768C0.949698 33.583 0.970254 33.1514 1.21692 32.7814Z" fill="#00FF19"/>
<path d="M13.0153 42.3808C12.8164 42.7229 12.6839 43.0995 12.6247 43.4908C12.5418 43.9196 12.6168 44.3639 12.8359 44.7418C13.0551 45.1196 13.4035 45.4054 13.8169 45.5463C14.1058 45.6503 14.4143 45.6882 14.7198 45.6573C15.0253 45.6264 15.3199 45.5275 15.5822 45.3678C15.8444 45.2081 16.0675 44.9917 16.2351 44.7345C16.4028 44.4772 16.5106 44.1857 16.5508 43.8813C16.6868 43.281 16.7557 42.6674 16.7564 42.0519C16.7564 40.5513 16.7564 38.8452 16.7564 38.8452C15.3733 39.8709 14.1174 41.0578 13.0153 42.3808ZM13.8169 42.2574C14.0636 41.8669 14.4747 41.7024 14.7419 41.8669C14.8648 42.0059 14.9326 42.185 14.9326 42.3705C14.9326 42.556 14.8648 42.7351 14.7419 42.8741C14.4747 43.2441 14.0636 43.4085 13.8169 43.2441C13.5703 43.0797 13.5703 42.6274 13.8992 42.2574H13.8169Z" fill="#00FF19"/>
<path d="M20.6213 51.7133C20.4139 52.0532 20.2743 52.4302 20.2102 52.8233C20.1401 53.251 20.2206 53.6898 20.438 54.0647C20.6555 54.4396 20.9964 54.7274 21.4025 54.8788C21.6925 54.9866 22.0031 55.0274 22.3112 54.9983C22.6192 54.9693 22.9167 54.8711 23.1815 54.711C23.4463 54.551 23.6715 54.3332 23.8404 54.074C24.0093 53.8147 24.1175 53.5207 24.1569 53.2138C24.2834 52.6123 24.3454 51.9991 24.3419 51.3844C24.3419 49.8838 24.3419 48.1777 24.3419 48.1777C22.9617 49.1996 21.7122 50.387 20.6213 51.7133ZM21.4025 51.5899C21.6697 51.1994 22.0808 51.0349 22.3275 51.2199C22.5741 51.4049 22.5947 51.8161 22.3275 52.2066C22.247 52.3724 22.1076 52.5021 21.9366 52.5706C21.7655 52.639 21.575 52.6412 21.4025 52.5766C21.1558 52.4122 21.1558 51.9599 21.4025 51.5899Z" fill="#00FF19"/>
<path d="M32.9958 47.2729C32.7828 47.6101 32.6427 47.9882 32.5847 48.3828C32.5061 48.8113 32.5831 49.2538 32.8016 49.6306C33.0202 50.0074 33.366 50.2938 33.7769 50.4384C34.0669 50.5461 34.3776 50.587 34.6856 50.5579C34.9936 50.5289 35.2911 50.4307 35.5559 50.2706C35.8207 50.1105 36.0459 49.8928 36.2148 49.6335C36.3837 49.3743 36.4919 49.0803 36.5313 48.7734C36.6487 48.1705 36.7106 47.5581 36.7163 46.944C36.7163 45.4434 36.7163 43.7373 36.7163 43.7373C35.3362 44.7592 34.0867 45.9466 32.9958 47.2729ZM33.7769 47.1495C34.0236 46.759 34.4552 46.5945 34.7019 46.7795C34.9486 46.9645 34.9486 47.3962 34.7019 47.7662C34.4552 48.1362 34.0236 48.3212 33.7769 48.1362C33.5302 47.9512 33.5302 47.5195 33.7769 47.1495Z" fill="#00FF19"/>
<path d="M41.7112 54.0151C41.4947 54.3506 41.3544 54.7295 41.3001 55.125C41.2299 55.5527 41.3104 55.9915 41.5279 56.3664C41.7453 56.7414 42.0862 57.0291 42.4923 57.1806C42.7824 57.2883 43.093 57.3292 43.401 57.3001C43.709 57.2711 44.0065 57.1728 44.2713 57.0128C44.5361 56.8527 44.7613 56.635 44.9302 56.3757C45.0991 56.1165 45.2073 55.8225 45.2467 55.5156C45.3641 54.9127 45.426 54.3003 45.4317 53.6862C45.4317 52.1856 45.4317 50.4795 45.4317 50.4795C44.0516 51.5014 42.8021 52.6888 41.7112 54.0151ZM42.4923 53.8917C42.7595 53.5217 43.1706 53.3367 43.4173 53.5217C43.664 53.7067 43.664 54.1384 43.4173 54.5084C43.1706 54.8784 42.7595 55.0634 42.4923 54.8784C42.2251 54.6934 42.2456 54.2617 42.4923 53.8917Z" fill="#00FF19"/>
<path d="M56.8802 44.1484C55.5295 45.1917 54.3081 46.3925 53.2419 47.7251C53.025 48.068 52.8848 48.4536 52.8308 48.8556C52.7522 49.2841 52.8292 49.7265 53.0477 50.1034C53.2663 50.4802 53.6121 50.7666 54.023 50.9112C55.0096 51.3223 56.3046 50.9112 56.7774 49.2462C56.8938 48.6501 56.9558 48.0447 56.9624 47.4373C57.0652 45.834 56.8802 44.1484 56.8802 44.1484ZM54.023 47.6018C54.2696 47.2318 54.7013 47.0673 54.948 47.2318C55.1947 47.3962 55.1947 47.8484 54.948 48.239C54.7013 48.6296 54.2696 48.7734 54.023 48.609C53.7763 48.4445 53.7763 47.9923 54.023 47.6018Z" fill="#00FF19"/>
<path d="M68.6795 29.8415C68.1267 27.6294 66.7641 25.7052 64.861 24.4492C62.958 23.1932 60.653 22.6968 58.4017 23.0582H58.0317C57.2399 20.9823 55.9473 19.1341 54.269 17.6782C52.5907 16.2222 50.5786 15.2035 48.4117 14.7127C47.4464 14.4984 46.461 14.3882 45.4722 14.3838C44.9789 14.3838 44.5061 14.3838 44.0334 14.3838C41.5562 14.6579 39.2029 15.6111 37.2333 17.1382C35.2636 18.6653 33.7543 20.7069 32.8717 23.0377C32.2486 22.674 31.5374 22.4891 30.8161 22.5032C30.4969 22.5024 30.1789 22.5439 29.8706 22.6266C29.0931 22.8198 28.3891 23.2359 27.845 23.8239C27.3008 24.4118 26.9404 25.146 26.8078 25.936C25.3727 25.9345 23.9666 26.3391 22.7517 27.1029C21.5368 27.8668 20.5628 28.9587 19.9423 30.2527C19.4378 31.2827 19.1775 32.4152 19.1817 33.5621C19.1817 35.5792 19.983 37.5137 21.4093 38.9401C22.8356 40.3664 24.7701 41.1677 26.7872 41.1677H59.6761C60.8818 41.1704 62.0761 40.9352 63.1908 40.4757C64.3055 40.0162 65.3185 39.3413 66.172 38.4898C67.0255 37.6382 67.7027 36.6266 68.1647 35.513C68.6267 34.3994 68.8645 33.2055 68.8645 31.9999C68.8861 31.2757 68.824 30.5515 68.6795 29.8415Z" fill="#00FF19"/>
<path d="M29.5828 21.0443C30.383 20.8803 31.2082 20.8803 32.0084 21.0443C33.574 17.9932 36.1234 15.5597 39.244 14.1376C40.7255 13.4544 42.3085 13.017 43.9306 12.8426H44.0951C43.4707 12.0022 42.6587 11.3192 41.7237 10.8481C40.7886 10.377 39.7565 10.1309 38.7095 10.1293C38.6031 9.4274 38.2901 8.77308 37.8106 8.24962C37.3311 7.72616 36.7066 7.35725 36.0167 7.18985C35.7366 7.15976 35.4541 7.15976 35.174 7.18985C34.5463 7.18495 33.9288 7.34818 33.3856 7.66261C32.2898 4.72052 30.0722 2.33293 27.219 1.02318C26.0669 0.477946 24.8288 0.13712 23.5601 0.0159451C23.1424 -0.00531505 22.7239 -0.00531505 22.3062 0.0159451C19.9052 -0.0237665 17.5484 0.663728 15.5453 1.9881C13.5422 3.31247 11.9866 5.21178 11.0828 7.4365C10.5946 7.34586 10.0994 7.2977 9.60285 7.2926C7.79873 7.31654 6.05257 7.93325 4.63357 9.04764C3.21458 10.162 2.20153 11.7122 1.75062 13.4593C1.57667 14.1307 1.48692 14.8212 1.4834 15.5148C1.4834 17.6955 2.34968 19.7868 3.89164 21.3288C5.43361 22.8708 7.52495 23.737 9.70562 23.737H26.1501C26.9098 22.4352 28.1375 21.4721 29.5828 21.0443Z" fill="#00FF19"/>
</svg>
