<svg width="174" height="113" viewBox="0 0 174 113" fill="none" xmlns="http://www.w3.org/2000/svg">
<g style="mix-blend-mode:hard-light" filter="url(#filter0_f_181_4949)">
<ellipse cx="86.7403" cy="56.4227" rx="52.044" ry="33.8536" fill="#33E9C6" fill-opacity="0.1"/>
</g>
<g style="mix-blend-mode:hard-light" filter="url(#filter1_f_181_4949)">
<path fill-rule="evenodd" clip-rule="evenodd" d="M68.6391 42.675C70.1514 35.9791 76.0018 31.3016 82.8674 31.3016C86.2746 31.3016 89.5937 32.5048 92.2118 34.6891C92.7339 35.1243 93.4795 35.1664 94.0489 34.7943C97.5284 32.5088 101.564 31.3016 105.717 31.3016C117.465 31.3016 127.022 40.859 127.022 52.6072C127.022 64.3554 117.465 73.9129 105.717 73.9129C103.818 73.9129 101.885 73.642 99.9716 73.1054C99.2734 72.9095 98.537 73.2238 98.1938 73.8603C95.6374 78.6008 90.7114 81.5451 85.3344 81.5451C78.6529 81.5451 72.8406 77.0163 71.1994 70.532C71.0772 70.052 70.7326 69.6588 70.2724 69.476C70.0883 69.4011 69.895 69.3656 69.7017 69.3656C69.4124 69.3656 69.1244 69.4471 68.8732 69.6089C66.5246 71.1001 63.8236 71.8917 61.0608 71.8917C53.0104 71.8917 46.4617 65.3404 46.4617 57.2913C46.4617 49.2382 53.0104 42.6895 61.0608 42.6895C62.9465 42.6895 64.7928 43.0511 66.5496 43.7665C66.9704 43.9374 67.4451 43.9138 67.8475 43.7047C68.2499 43.4956 68.5392 43.1182 68.6391 42.675ZM68.7969 73.1843C68.2141 73.4695 67.6177 73.7218 67.0102 73.9405C65.108 74.625 63.0977 74.9793 61.0595 74.9793C51.3061 74.9793 43.3701 67.042 43.3701 57.2899C43.3701 47.5353 51.3048 39.6006 61.0595 39.6006C62.769 39.6006 64.4522 39.8452 66.0828 40.3304C68.4524 33.1163 75.126 28.2114 82.8661 28.2114C86.6191 28.2114 90.2801 29.4146 93.2993 31.6198C97.0615 29.3883 101.33 28.2114 105.716 28.2114C119.167 28.2114 130.11 39.1548 130.11 52.6072C130.11 66.0597 119.168 77.0031 105.717 77.0031C103.922 77.0031 102.105 76.794 100.3 76.3759C97.0694 81.5004 91.4412 84.634 85.3344 84.634C78.5697 84.634 72.5389 80.8031 69.5777 74.9604C69.2872 74.3872 69.0262 73.7946 68.7969 73.1843Z" fill="#00A8A8"/>
</g>
<g style="mix-blend-mode:hard-light" filter="url(#filter2_f_181_4949)">
<path fill-rule="evenodd" clip-rule="evenodd" d="M92.2118 34.6891C89.5937 32.5048 86.2746 31.3016 82.8674 31.3016C76.0018 31.3016 70.1514 35.9791 68.6391 42.675C68.5392 43.1182 68.2499 43.4956 67.8475 43.7047C67.4451 43.9138 66.9704 43.9374 66.5496 43.7665C64.7928 43.0511 62.9465 42.6895 61.0608 42.6895C53.0104 42.6895 46.4617 49.2382 46.4617 57.2913C46.4617 65.3404 53.0104 71.8917 61.0608 71.8917C63.8236 71.8917 66.5246 71.1001 68.8732 69.6089C69.1244 69.4471 69.4124 69.3656 69.7017 69.3656C69.895 69.3656 70.0883 69.4011 70.2724 69.476C70.7326 69.6588 71.0772 70.052 71.1994 70.532C72.8406 77.0163 78.6529 81.5451 85.3344 81.5451C90.7114 81.5451 95.6374 78.6008 98.1938 73.8603C98.537 73.2238 99.2734 72.9095 99.9716 73.1054C101.885 73.642 103.818 73.9129 105.717 73.9129C117.465 73.9129 127.022 64.3554 127.022 52.6072C127.022 40.859 117.465 31.3016 105.717 31.3016C101.564 31.3016 97.5284 32.5088 94.0489 34.7943C93.4795 35.1664 92.7339 35.1243 92.2118 34.6891ZM68.7969 73.1843C68.0344 73.5575 67.2486 73.8743 66.4453 74.133C64.7119 74.6913 62.897 74.9793 61.0595 74.9793C51.3061 74.9793 43.3701 67.042 43.3701 57.2899C43.3701 47.5353 51.3048 39.6006 61.0595 39.6006C62.769 39.6006 64.4522 39.8452 66.0828 40.3304C68.4524 33.1163 75.126 28.2114 82.8661 28.2114C86.6191 28.2114 90.2801 29.4146 93.2993 31.6198C97.0615 29.3883 101.33 28.2114 105.716 28.2114C119.167 28.2114 130.11 39.1548 130.11 52.6072C130.11 66.0597 119.168 77.0031 105.717 77.0031C103.922 77.0031 102.105 76.794 100.3 76.3759C97.0694 81.5004 91.4412 84.634 85.3344 84.634C78.7755 84.634 72.9066 81.0327 69.8565 75.4882C69.4521 74.7531 69.0973 73.9839 68.7969 73.1843Z" fill="#00A8A8"/>
</g>
<g style="mix-blend-mode:hard-light" filter="url(#filter3_ddi_181_4949)">
<path fill-rule="evenodd" clip-rule="evenodd" d="M68.6391 42.675C70.1514 35.9791 76.0018 31.3016 82.8674 31.3016C86.2746 31.3016 89.5937 32.5048 92.2118 34.6891C92.7339 35.1243 93.4795 35.1664 94.0489 34.7943C97.5284 32.5088 101.564 31.3016 105.717 31.3016C117.465 31.3016 127.022 40.859 127.022 52.6072C127.022 64.3554 117.465 73.9129 105.717 73.9129C103.818 73.9129 101.885 73.642 99.9716 73.1054C99.2734 72.9095 98.537 73.2238 98.1938 73.8603C95.6374 78.6008 90.7114 81.5451 85.3344 81.5451C78.6529 81.5451 72.8406 77.0163 71.1994 70.532C71.0772 70.052 70.7326 69.6588 70.2724 69.476C70.0883 69.4011 69.895 69.3656 69.7017 69.3656C69.4124 69.3656 69.1244 69.4471 68.8732 69.6089C66.5246 71.1001 63.8236 71.8917 61.0608 71.8917C53.0104 71.8917 46.4617 65.3404 46.4617 57.2913C46.4617 49.2382 53.0104 42.6895 61.0608 42.6895C62.9465 42.6895 64.7928 43.0511 66.5496 43.7665C66.9704 43.9374 67.4451 43.9138 67.8475 43.7047C68.2499 43.4956 68.5392 43.1182 68.6391 42.675ZM68.7969 73.1843C68.2141 73.4695 67.6177 73.7218 67.0102 73.9405C65.108 74.625 63.0977 74.9793 61.0595 74.9793C51.3061 74.9793 43.3701 67.042 43.3701 57.2899C43.3701 47.5353 51.3048 39.6006 61.0595 39.6006C62.769 39.6006 64.4522 39.8452 66.0828 40.3304C68.4524 33.1163 75.126 28.2114 82.8661 28.2114C86.6191 28.2114 90.2801 29.4146 93.2993 31.6198C97.0615 29.3883 101.33 28.2114 105.716 28.2114C119.167 28.2114 130.11 39.1548 130.11 52.6072C130.11 66.0597 119.168 77.0031 105.717 77.0031C103.922 77.0031 102.105 76.794 100.3 76.3759C97.0694 81.5004 91.4412 84.634 85.3344 84.634C78.5697 84.634 72.5389 80.8031 69.5777 74.9604C69.2872 74.3872 69.0262 73.7946 68.7969 73.1843Z" fill="#33E9C6" fill-opacity="0.2"/>
</g>
<g filter="url(#filter4_f_181_4949)">
<path fill-rule="evenodd" clip-rule="evenodd" d="M69.1245 72.36L69.3554 72.9746C71.8344 79.5742 78.1568 84.0375 85.3344 84.0375C91.2354 84.0375 96.6735 81.0099 99.7958 76.0577L100.022 75.699L100.435 75.7947C102.196 76.2029 103.968 76.4066 105.717 76.4066C118.838 76.4066 129.514 65.7303 129.514 52.6072C129.514 39.4842 118.837 28.8079 105.716 28.8079C101.438 28.8079 97.2741 29.9558 93.6036 32.1329L93.2652 32.3336L92.9475 32.1015C90.0299 29.9705 86.492 28.8079 82.8661 28.8079C75.3848 28.8079 68.939 33.5463 66.6495 40.5166L66.4685 41.0676L65.9127 40.9021C64.3375 40.4334 62.7116 40.1971 61.0595 40.1971C51.6343 40.1971 43.9666 47.8647 43.9666 57.2899C43.9666 66.7126 51.6356 74.3828 61.0595 74.3828C63.6571 74.3828 66.208 73.7871 68.5348 72.6485L69.1245 72.36ZM70.0522 70.0304L70.0474 70.0285C69.9381 69.984 69.8216 69.9621 69.7017 69.9621C69.5244 69.9621 69.349 70.012 69.1962 70.1104L69.193 70.1124C66.7499 71.6636 63.9382 72.4882 61.0608 72.4882C52.6808 72.4882 45.8652 65.6697 45.8652 57.2913C45.8652 48.9088 52.6809 42.093 61.0608 42.093C63.0237 42.093 64.9462 42.4696 66.7741 43.2138C67.0318 43.3185 67.324 43.3045 67.5725 43.1754C67.8177 43.048 67.9956 42.817 68.0572 42.5438L68.0573 42.5436C69.6309 35.5757 75.723 30.7051 82.8674 30.7051C86.4143 30.7051 89.8685 31.9574 92.5938 34.2309C92.9135 34.4974 93.3712 34.5242 93.722 34.2953C97.2984 31.9463 101.448 30.7051 105.717 30.7051C117.795 30.7051 127.619 40.5296 127.619 52.6072C127.619 64.6849 117.795 74.5094 105.717 74.5094C103.761 74.5094 101.774 74.2304 99.8106 73.6798L99.8105 73.6798C99.3816 73.5594 98.9299 73.7519 98.7188 74.1434C96.0586 79.0765 90.9312 82.1416 85.3344 82.1416C78.3793 82.1416 72.3292 77.4269 70.6212 70.6783C70.5457 70.3832 70.3338 70.1423 70.0522 70.0304ZM71.1994 70.532C72.8406 77.0163 78.6529 81.5451 85.3344 81.5451C90.7114 81.5451 95.6374 78.6008 98.1938 73.8603C98.537 73.2238 99.2734 72.9095 99.9716 73.1054C101.885 73.642 103.818 73.9129 105.717 73.9129C117.465 73.9129 127.022 64.3554 127.022 52.6072C127.022 40.859 117.465 31.3016 105.717 31.3016C101.564 31.3016 97.5284 32.5088 94.0489 34.7943C93.4795 35.1664 92.7339 35.1243 92.2118 34.6891C89.5937 32.5048 86.2746 31.3016 82.8674 31.3016C76.0018 31.3016 70.1514 35.9791 68.6391 42.675C68.5392 43.1182 68.2499 43.4956 67.8475 43.7047C67.4451 43.9138 66.9704 43.9374 66.5496 43.7665C64.7928 43.0511 62.9465 42.6895 61.0608 42.6895C53.0104 42.6895 46.4617 49.2382 46.4617 57.2913C46.4617 65.3404 53.0104 71.8917 61.0608 71.8917C63.8236 71.8917 66.5246 71.1001 68.8732 69.6089C69.1244 69.4471 69.4124 69.3656 69.7017 69.3656C69.895 69.3656 70.0883 69.4011 70.2724 69.476C70.7326 69.6588 71.0772 70.052 71.1994 70.532ZM68.7969 73.1843C68.6176 73.2721 68.437 73.3567 68.2552 73.4382C65.9956 74.451 63.5484 74.9793 61.0595 74.9793C51.3061 74.9793 43.3701 67.042 43.3701 57.2899C43.3701 47.5353 51.3048 39.6006 61.0595 39.6006C62.769 39.6006 64.4522 39.8452 66.0828 40.3304C68.4524 33.1163 75.126 28.2114 82.8661 28.2114C86.6191 28.2114 90.2801 29.4146 93.2993 31.6198C97.0615 29.3883 101.33 28.2114 105.716 28.2114C119.167 28.2114 130.11 39.1548 130.11 52.6072C130.11 66.0597 119.168 77.0031 105.717 77.0031C103.922 77.0031 102.105 76.794 100.3 76.3759C97.0694 81.5004 91.4412 84.634 85.3344 84.634C78.1095 84.634 71.7218 80.2642 69.0168 73.7408C68.9405 73.557 68.8673 73.3715 68.7969 73.1843Z" fill="white"/>
</g>
<defs>
<filter id="filter0_f_181_4949" x="25.7486" y="13.6214" width="121.983" height="85.6025" filterUnits="userSpaceOnUse" color-interpolation-filters="sRGB">
<feFlood flood-opacity="0" result="BackgroundImageFix"/>
<feBlend mode="normal" in="SourceGraphic" in2="BackgroundImageFix" result="shape"/>
<feGaussianBlur stdDeviation="4.47383" result="effect1_foregroundBlur_181_4949"/>
</filter>
<filter id="filter1_f_181_4949" x="34.4225" y="19.2637" width="104.636" height="74.318" filterUnits="userSpaceOnUse" color-interpolation-filters="sRGB">
<feFlood flood-opacity="0" result="BackgroundImageFix"/>
<feBlend mode="normal" in="SourceGraphic" in2="BackgroundImageFix" result="shape"/>
<feGaussianBlur stdDeviation="4.47383" result="effect1_foregroundBlur_181_4949"/>
</filter>
<filter id="filter2_f_181_4949" x="40.3876" y="25.2288" width="92.7053" height="62.3878" filterUnits="userSpaceOnUse" color-interpolation-filters="sRGB">
<feFlood flood-opacity="0" result="BackgroundImageFix"/>
<feBlend mode="normal" in="SourceGraphic" in2="BackgroundImageFix" result="shape"/>
<feGaussianBlur stdDeviation="1.49128" result="effect1_foregroundBlur_181_4949"/>
</filter>
<filter id="filter3_ddi_181_4949" x="39.4928" y="27.3166" width="94.4949" height="64.1773" filterUnits="userSpaceOnUse" color-interpolation-filters="sRGB">
<feFlood flood-opacity="0" result="BackgroundImageFix"/>
<feColorMatrix in="SourceAlpha" type="matrix" values="0 0 0 0 0 0 0 0 0 0 0 0 0 0 0 0 0 0 127 0" result="hardAlpha"/>
<feOffset dy="1.93866"/>
<feGaussianBlur stdDeviation="0.745639"/>
<feColorMatrix type="matrix" values="0 0 0 0 0 0 0 0 0 0.3 0 0 0 0 0.275 0 0 0 0.7 0"/>
<feBlend mode="multiply" in2="BackgroundImageFix" result="effect1_dropShadow_181_4949"/>
<feColorMatrix in="SourceAlpha" type="matrix" values="0 0 0 0 0 0 0 0 0 0 0 0 0 0 0 0 0 0 127 0" result="hardAlpha"/>
<feOffset dy="2.98256"/>
<feGaussianBlur stdDeviation="1.93866"/>
<feColorMatrix type="matrix" values="0 0 0 0 0 0 0 0 0 0.6 0 0 0 0 0.6 0 0 0 1 0"/>
<feBlend mode="color-dodge" in2="effect1_dropShadow_181_4949" result="effect2_dropShadow_181_4949"/>
<feBlend mode="normal" in="SourceGraphic" in2="effect2_dropShadow_181_4949" result="shape"/>
<feColorMatrix in="SourceAlpha" type="matrix" values="0 0 0 0 0 0 0 0 0 0 0 0 0 0 0 0 0 0 127 0" result="hardAlpha"/>
<feOffset dx="-0.193866" dy="0.387732"/>
<feGaussianBlur stdDeviation="0.0969331"/>
<feComposite in2="hardAlpha" operator="arithmetic" k2="-1" k3="1"/>
<feColorMatrix type="matrix" values="0 0 0 0 1 0 0 0 0 1 0 0 0 0 1 0 0 0 0.5 0"/>
<feBlend mode="normal" in2="shape" result="effect3_innerShadow_181_4949"/>
</filter>
<filter id="filter4_f_181_4949" x="43.1713" y="28.0125" width="87.1379" height="56.8203" filterUnits="userSpaceOnUse" color-interpolation-filters="sRGB">
<feFlood flood-opacity="0" result="BackgroundImageFix"/>
<feBlend mode="normal" in="SourceGraphic" in2="BackgroundImageFix" result="shape"/>
<feGaussianBlur stdDeviation="0.0994185" result="effect1_foregroundBlur_181_4949"/>
</filter>
</defs>
</svg>
