<svg width="342" height="228" viewBox="0 0 342 228" fill="none" xmlns="http://www.w3.org/2000/svg">
<path d="M255.785 125.102C255.329 115.793 248.82 107.935 239.607 105.159C239.666 104.411 239.704 103.61 239.704 102.839C239.696 95.8472 236.919 89.1441 231.982 84.2001C227.046 79.2562 220.352 76.4752 213.371 76.4672C208.477 76.4527 203.678 77.8196 199.524 80.411C196.961 65.3917 183.226 54.1589 167.138 55.0495C151.834 55.7978 139.706 67.0231 137.726 81.4213C134.99 80.4395 132.107 79.9333 129.2 79.9246C122.215 79.9305 115.518 82.7115 110.578 87.6571C105.639 92.6026 102.86 99.3088 102.852 106.304C102.852 106.618 102.852 106.925 102.897 107.262C95.5364 109.275 84.9627 113.533 85.0001 128.597C85.0001 139.822 94.3034 149.409 106.962 150L107.134 149.731C108.551 150.066 109.998 150.266 111.453 150.329L123.319 150.277L124.365 151.302L121.907 151.841L123.401 153.607H120.016L117.887 151.444L118.91 154.101L117.887 156.735L120.016 154.49H123.401L121.907 156.458L124.365 156.855L121.974 159.25H118.985L121.765 160.215L122.662 162.879V159.938L124.963 157.626L125.382 160.005L127.362 158.509V161.906L125.232 163.987L127.833 162.842L130.381 163.987L128.303 161.906V158.509L130.261 159.841L130.62 157.513L132.996 159.916L133.056 162.857L133.915 160.245L136.673 159.227H133.766L131.375 156.915L133.684 156.241L132.324 154.468H135.709L137.794 156.713L136.65 153.996L137.794 151.422L135.701 153.607H132.316L133.534 151.714L131.367 151.302L132.421 150.232L156.736 150.12L157.528 150.389L158.104 152.08V150.217L158.208 150.112H159.8V150.277L160.024 150.112H161.055V151.504L159.703 152.821L161.347 152.073L162.968 152.821L161.653 151.504V150.112H162.759L162.894 150.202V150.112H164.478L164.612 150.247V152.11L165.158 150.464L166.137 150.105L191.984 149.985C192.388 150.062 192.798 150.104 193.21 150.112L193.464 150.202L194.63 153.667L194.674 149.97H200.779V152.462L198.015 155.164L201.377 153.667L204.695 155.164L202.005 152.462V149.963H208.088L208.155 153.704L209.276 150.329L210.322 149.933L237.156 149.805C237.783 149.596 238.404 149.349 239.009 149.057L239.136 149.416C244.143 147.68 248.461 144.381 251.458 140.005C254.455 135.629 255.971 130.405 255.785 125.102ZM130.411 152.268L130.919 153.615H128.968L130.411 152.268ZM128.386 152.934V150.995L129.775 151.579L128.386 152.934ZM125.143 150.277L125.09 150.636L124.732 150.277H125.143ZM125.262 152.268L126.712 153.615H124.799L125.262 152.268ZM125.359 156.009L124.761 154.513H126.712L125.359 156.009ZM127.392 157.214L126.084 156.668L127.392 155.223V157.214ZM127.392 152.956L126.084 151.601L127.392 151.018V152.956ZM128.386 157.259V155.223L129.775 156.578L128.386 157.259ZM130.336 156.009L128.968 154.513H131.053L130.336 156.009ZM130.65 150.659L130.59 150.269H131.016L130.65 150.659Z" fill="#00FF19"/>
<path d="M127.293 163.996L128.102 165.613L128.92 163.996L128.102 162.36L127.293 163.996Z" fill="#00FF19"/>
<path d="M120.787 160.733H119.16V162.36H120.787V160.733Z" fill="#00FF19"/>
<path d="M116.72 152.6L115.907 154.251L116.725 155.853L117.533 154.251L116.72 152.6Z" fill="#00FF19"/>
<path d="M138.68 152.6L137.053 153.411L138.68 154.227L140.307 153.411L138.68 152.6Z" fill="#00FF19"/>
<path d="M135.426 160.733H133.8V162.36H135.426V160.733Z" fill="#00FF19"/>
<path d="M211.88 150.973H210.253V152.6H211.88V150.973Z" fill="#00FF19"/>
<path d="M193.987 150.973H190.733V152.6H193.987V150.973Z" fill="#00FF19"/>
<path d="M203.746 155.876L202.109 154.227L200.493 155.876L202.109 157.48L203.746 155.876Z" fill="#00FF19"/>
<path d="M159.826 204.883L158.318 201.321L159.826 197.97L157.104 200.8H152.669L154.268 198.31L151.425 197.782L154.562 194.59H158.409L154.879 193.307L153.552 189.775V193.692L150.482 196.891L150.015 193.873L147.458 195.616V191.3L150.248 188.387L146.923 190.047L143.446 188.538L146.229 191.315V195.631L143.634 194.061L143.212 196.929L140.075 193.729V189.775L138.853 193.307L135.218 194.718H139.124L142.254 197.782L139.041 198.483L141.017 200.8H136.583L133.8 197.97L135.142 201.434L133.8 204.883L136.583 201.97H141.017L139.041 204.551L142.254 205.056L139.124 208.188H135.24L138.875 209.448L140.044 212.934L140.097 209.078L143.114 206.06L143.664 209.184L146.259 207.252V211.697L143.476 214.413L146.87 212.904L150.211 214.413L147.488 211.697V207.252L150.045 208.995L150.512 205.977L153.635 209.101L153.703 212.957L154.834 209.546L158.439 208.21H154.592L151.455 205.192L154.472 204.302L152.692 201.985H157.127L159.826 204.883ZM143.468 199.057L145.354 200.83H142.812L143.468 199.057ZM143.589 203.917L142.835 202H145.376L143.589 203.917ZM146.251 205.509L144.539 204.754L146.251 202.86V205.509ZM146.251 199.925L144.539 198.159L146.251 197.404V199.925ZM150.203 199.057L150.867 200.83H148.303L150.203 199.057ZM147.548 197.397L149.374 198.151L147.548 199.917V197.397ZM147.548 205.562V202.898L149.374 204.679L147.548 205.562ZM150.09 203.917L148.303 202H151.033L150.09 203.917Z" fill="#00FF19"/>
<path d="M137.053 190.013H135.427V193.267H137.053V190.013Z" fill="#00FF19"/>
<path d="M156.573 190.013H154.947V193.267H156.573V190.013Z" fill="#00FF19"/>
<path d="M132.166 199.773L130.547 201.423L132.181 203.027L133.8 201.423L132.166 199.773Z" fill="#00FF19"/>
<path d="M138.68 209.533H135.427V212.787H138.68V209.533Z" fill="#00FF19"/>
<path d="M145.187 214.425L146.821 216.04L148.44 214.425L146.821 212.787L145.187 214.425Z" fill="#00FF19"/>
<path d="M156.573 209.533H154.947V212.787H156.573V209.533Z" fill="#00FF19"/>
<path d="M146.809 185.133L145.187 186.756L146.809 188.387L148.44 186.756L146.809 185.133Z" fill="#00FF19"/>
<path d="M158.2 201.393L159.823 203.027L161.454 201.393L159.823 199.773L158.2 201.393Z" fill="#00FF19"/>
<path d="M172.84 167.24H171.213V168.867H172.84V167.24Z" fill="#00FF19"/>
<path d="M189.107 176.967L188.085 174.526L189.107 172.25L187.235 174.19H184.193L185.289 172.488L183.344 172.115L185.498 169.928H188.145L185.714 169.047L184.797 166.621V169.264L182.65 171.503L182.33 169.413L180.578 170.6V167.614L182.494 165.613L180.212 166.748L177.819 165.703L179.728 167.614V170.6L177.923 169.51L177.633 171.481L175.5 169.264V166.569L174.665 168.995L172.16 170.01H174.852L176.999 172.115L174.762 172.6L176.119 174.19H173.077L171.213 172.25L172.13 174.631L171.213 176.967L173.122 174.967H176.164L174.792 176.728L177.029 177.087L174.881 179.229H172.19L174.695 180.088L175.5 182.491V179.841L177.573 177.774L177.946 179.916L179.728 178.587V181.64L177.819 183.507L180.153 182.484L182.441 183.507L180.578 181.64V178.595L182.33 179.789L182.65 177.706L184.79 179.849L184.835 182.499L185.618 180.162L188.108 179.237H185.461L183.306 177.169L185.379 176.557L184.156 174.967H187.198L189.107 176.967ZM177.856 172.944L179.154 174.161H177.409L177.856 172.944ZM177.938 176.281L177.409 174.967H179.154L177.938 176.281ZM179.765 177.37L178.587 176.885L179.765 175.586V177.37ZM179.765 173.541L178.587 172.324L179.765 171.802V173.541ZM182.479 172.944L182.933 174.161H181.181L182.479 172.944ZM180.66 171.802L181.912 172.324L180.66 173.541V171.802ZM180.66 177.423V175.586L181.912 176.803L180.66 177.423ZM182.397 176.281L181.174 174.967H183.045L182.397 176.281Z" fill="#00FF19"/>
<path d="M187.48 180.253H185.854V181.88H187.48V180.253Z" fill="#00FF19"/>
<path d="M179.338 164.331L178.209 165.459L179.338 166.588L180.467 165.459L179.338 164.331Z" fill="#00FF19"/>
<path d="M187.48 175.368L189.112 177L190.733 175.368L189.112 173.747L187.48 175.368Z" fill="#00FF19"/>
<path d="M187.48 167.24H185.854V168.867H187.48V167.24Z" fill="#00FF19"/>
<path d="M177.72 184.323L179.347 185.134L180.974 184.323L179.347 183.507L177.72 184.323Z" fill="#00FF19"/>
<path d="M172.84 180.253H171.213V181.88H172.84V180.253Z" fill="#00FF19"/>
<path d="M169.581 173.747L167.96 175.406L169.592 177L171.213 175.406L169.581 173.747Z" fill="#00FF19"/>
<path d="M159.827 153.413L160.636 154.227L161.453 153.413L160.636 152.6L159.827 153.413Z" fill="#00FF19"/>
<path d="M216.76 180.39L216.015 178.61L216.76 176.932L215.405 178.346H213.176L213.982 177.101L212.553 176.837L214.125 175.233H216.062L214.287 174.597L213.61 172.831V174.786L212.079 176.397L211.842 174.868L210.561 175.741V173.582L211.957 172.12L210.291 172.959L208.543 172.188L209.945 173.582V175.741L208.644 174.956L208.428 176.397L206.849 174.786V172.831L206.246 174.597L204.424 175.274H206.375L207.947 176.817L206.334 177.168L207.323 178.326H205.101L203.747 176.911L204.424 178.644L203.747 180.369L205.101 178.914H207.323L206.334 180.2L207.947 180.457L206.375 182.014H204.424L206.246 182.65L206.829 184.403V182.474L208.346 180.965L208.624 182.528L209.925 181.554V183.78L208.522 185.133L210.236 184.382L211.903 185.133L210.548 183.78V181.554L211.828 182.433L212.065 180.904L213.63 182.474L213.664 184.403L214.226 182.69L216.042 182.014H214.104L212.533 180.511L214.05 180.072L213.156 178.914H215.385L216.76 180.39ZM208.543 177.459L209.498 178.346H208.204L208.543 177.459ZM208.604 179.896L208.218 178.935H209.498L208.604 179.896ZM209.959 180.687L209.091 180.335L209.959 179.381V180.687ZM209.959 177.899L209.091 177.006L209.959 176.627V177.899ZM211.937 177.459L212.269 178.346H210.981L211.937 177.459ZM210.582 176.627L211.496 177.006L210.582 177.899V176.627ZM210.582 180.687V179.334L211.496 180.22L210.582 180.687ZM211.855 179.862L210.954 178.901H212.309L211.855 179.862Z" fill="#00FF19"/>
<path d="M202.927 178.626L202.12 179.45L202.933 180.253L203.747 179.45L202.927 178.626Z" fill="#00FF19"/>
<path d="M216.76 183.507H215.133V185.134H216.76V183.507Z" fill="#00FF19"/>
<path d="M208.626 185.953L209.443 186.76L210.253 185.953L209.443 185.133L208.626 185.953Z" fill="#00FF19"/>
<path d="M205.373 183.507H203.747V185.134H205.373V183.507Z" fill="#00FF19"/>
<path d="M216.76 172.12H215.133V173.747H216.76V172.12Z" fill="#00FF19"/>
<path d="M216.76 178.607L217.576 180.253L218.386 178.607L217.576 177L216.76 178.607Z" fill="#00FF19"/>
<path d="M205.373 172.12H203.747V173.747H205.373V172.12Z" fill="#00FF19"/>
<path d="M209.44 172.12L210.253 171.3L209.44 170.493L208.626 171.3L209.44 172.12Z" fill="#00FF19"/>
<g style="mix-blend-mode:hard-light" filter="url(#filter0_f_179_4116)">
<mask id="path-38-inside-1_179_4116" fill="white">
<path d="M256.185 124.596C255.729 115.286 249.22 107.428 240.007 104.652C240.066 103.904 240.104 103.103 240.104 102.332C240.096 95.3404 237.319 88.6372 232.382 83.6933C227.445 78.7493 220.752 75.9683 213.771 75.9604C208.877 75.9459 204.078 77.3128 199.924 79.9042C197.361 64.8848 183.626 53.6521 167.538 54.5426C152.234 55.291 140.106 66.5162 138.126 80.9145C135.39 79.9327 132.506 79.4265 129.6 79.4178C122.615 79.4237 115.918 82.2047 110.978 87.1502C106.039 92.0958 103.26 98.802 103.252 105.797C103.252 106.111 103.252 106.418 103.297 106.755C95.9363 108.768 85.3626 113.026 85.4 128.09C85.4 139.316 94.7033 148.902 107.362 149.493L107.534 149.224C108.951 149.559 110.397 149.759 111.853 149.822L123.719 149.77L124.765 150.795L122.307 151.334L123.801 153.1H120.416L118.287 150.937L119.31 153.594L118.287 156.228L120.416 153.983H123.801L122.307 155.951L124.765 156.348L122.374 158.743H119.385L122.165 159.708L123.062 162.372V159.431L125.363 157.119L125.782 159.499L127.762 158.002V161.399L125.632 163.48L128.233 162.335L130.781 163.48L128.703 161.399V158.002L130.661 159.334L131.02 157.007L133.396 159.409L133.456 162.35L134.315 159.738L137.073 158.72H134.166L131.774 156.408L134.084 155.734L132.724 153.961H136.109L138.193 156.206L137.05 153.489L138.193 150.915L136.101 153.1H132.716L133.934 151.207L131.767 150.795L132.821 149.725L157.136 149.613L157.928 149.882L158.504 151.574V149.71L158.608 149.605H160.2V149.77L160.424 149.605H161.455V150.997L160.103 152.314L161.747 151.566L163.368 152.314L162.053 150.997V149.605H163.159L163.294 149.695V149.605H164.878L165.012 149.74V151.604L165.558 149.957L166.537 149.598L192.384 149.478C192.788 149.555 193.198 149.598 193.61 149.605L193.864 149.695L195.029 153.16L195.074 149.463H201.179V151.955L198.414 154.657L201.777 153.16L205.095 154.657L202.405 151.955V149.456H208.487L208.555 153.198L209.676 149.822L210.722 149.426L237.556 149.299C238.183 149.089 238.804 148.842 239.409 148.55L239.536 148.91C244.543 147.173 248.861 143.874 251.858 139.498C254.854 135.122 256.371 129.899 256.185 124.596ZM130.811 151.761L131.319 153.108H129.368L130.811 151.761ZM128.785 152.427V150.489L130.175 151.072L128.785 152.427ZM125.542 149.77L125.49 150.129L125.131 149.77H125.542ZM125.662 151.761L127.112 153.108H125.199L125.662 151.761ZM125.759 155.502L125.161 154.006H127.112L125.759 155.502ZM127.792 156.707L126.484 156.161L127.792 154.717V156.707ZM127.792 152.449L126.484 151.095L127.792 150.511V152.449ZM128.785 156.752V154.717L130.175 156.071L128.785 156.752ZM130.736 155.502L129.368 154.006H131.453L130.736 155.502ZM131.05 150.152L130.99 149.763H131.416L131.05 150.152Z"/>
</mask>
<path d="M256.185 124.596C255.729 115.286 249.22 107.428 240.007 104.652C240.066 103.904 240.104 103.103 240.104 102.332C240.096 95.3404 237.319 88.6372 232.382 83.6933C227.445 78.7493 220.752 75.9683 213.771 75.9604C208.877 75.9459 204.078 77.3128 199.924 79.9042C197.361 64.8848 183.626 53.6521 167.538 54.5426C152.234 55.291 140.106 66.5162 138.126 80.9145C135.39 79.9327 132.506 79.4265 129.6 79.4178C122.615 79.4237 115.918 82.2047 110.978 87.1502C106.039 92.0958 103.26 98.802 103.252 105.797C103.252 106.111 103.252 106.418 103.297 106.755C95.9363 108.768 85.3626 113.026 85.4 128.09C85.4 139.316 94.7033 148.902 107.362 149.493L107.534 149.224C108.951 149.559 110.397 149.759 111.853 149.822L123.719 149.77L124.765 150.795L122.307 151.334L123.801 153.1H120.416L118.287 150.937L119.31 153.594L118.287 156.228L120.416 153.983H123.801L122.307 155.951L124.765 156.348L122.374 158.743H119.385L122.165 159.708L123.062 162.372V159.431L125.363 157.119L125.782 159.499L127.762 158.002V161.399L125.632 163.48L128.233 162.335L130.781 163.48L128.703 161.399V158.002L130.661 159.334L131.02 157.007L133.396 159.409L133.456 162.35L134.315 159.738L137.073 158.72H134.166L131.774 156.408L134.084 155.734L132.724 153.961H136.109L138.193 156.206L137.05 153.489L138.193 150.915L136.101 153.1H132.716L133.934 151.207L131.767 150.795L132.821 149.725L157.136 149.613L157.928 149.882L158.504 151.574V149.71L158.608 149.605H160.2V149.77L160.424 149.605H161.455V150.997L160.103 152.314L161.747 151.566L163.368 152.314L162.053 150.997V149.605H163.159L163.294 149.695V149.605H164.878L165.012 149.74V151.604L165.558 149.957L166.537 149.598L192.384 149.478C192.788 149.555 193.198 149.598 193.61 149.605L193.864 149.695L195.029 153.16L195.074 149.463H201.179V151.955L198.414 154.657L201.777 153.16L205.095 154.657L202.405 151.955V149.456H208.487L208.555 153.198L209.676 149.822L210.722 149.426L237.556 149.299C238.183 149.089 238.804 148.842 239.409 148.55L239.536 148.91C244.543 147.173 248.861 143.874 251.858 139.498C254.854 135.122 256.371 129.899 256.185 124.596ZM130.811 151.761L131.319 153.108H129.368L130.811 151.761ZM128.785 152.427V150.489L130.175 151.072L128.785 152.427ZM125.542 149.77L125.49 150.129L125.131 149.77H125.542ZM125.662 151.761L127.112 153.108H125.199L125.662 151.761ZM125.759 155.502L125.161 154.006H127.112L125.759 155.502ZM127.792 156.707L126.484 156.161L127.792 154.717V156.707ZM127.792 152.449L126.484 151.095L127.792 150.511V152.449ZM128.785 156.752V154.717L130.175 156.071L128.785 156.752ZM130.736 155.502L129.368 154.006H131.453L130.736 155.502ZM131.05 150.152L130.99 149.763H131.416L131.05 150.152Z" stroke="#00A8A8" stroke-width="7.57756" mask="url(#path-38-inside-1_179_4116)"/>
</g>
<g style="mix-blend-mode:hard-light" filter="url(#filter1_f_179_4116)">
<mask id="path-39-inside-2_179_4116" fill="white">
<path d="M256.185 124.596C255.729 115.286 249.22 107.428 240.007 104.652C240.066 103.904 240.104 103.103 240.104 102.332C240.096 95.3404 237.319 88.6372 232.382 83.6933C227.445 78.7493 220.752 75.9683 213.771 75.9604C208.877 75.9459 204.078 77.3128 199.924 79.9042C197.361 64.8848 183.626 53.6521 167.538 54.5426C152.234 55.291 140.106 66.5162 138.126 80.9145C135.39 79.9327 132.506 79.4265 129.6 79.4178C122.615 79.4237 115.918 82.2047 110.978 87.1502C106.039 92.0958 103.26 98.802 103.252 105.797C103.252 106.111 103.252 106.418 103.297 106.755C95.9363 108.768 85.3626 113.026 85.4 128.09C85.4 139.316 94.7033 148.902 107.362 149.493L107.534 149.224C108.951 149.559 110.397 149.759 111.853 149.822L123.719 149.77L124.765 150.795L122.307 151.334L123.801 153.1H120.416L118.287 150.937L119.31 153.594L118.287 156.228L120.416 153.983H123.801L122.307 155.951L124.765 156.348L122.374 158.743H119.385L122.165 159.708L123.062 162.372V159.431L125.363 157.119L125.782 159.499L127.762 158.002V161.399L125.632 163.48L128.233 162.335L130.781 163.48L128.703 161.399V158.002L130.661 159.334L131.02 157.007L133.396 159.409L133.456 162.35L134.315 159.738L137.073 158.72H134.166L131.774 156.408L134.084 155.734L132.724 153.961H136.109L138.193 156.206L137.05 153.489L138.193 150.915L136.101 153.1H132.716L133.934 151.207L131.767 150.795L132.821 149.725L157.136 149.613L157.928 149.882L158.504 151.574V149.71L158.608 149.605H160.2V149.77L160.424 149.605H161.455V150.997L160.103 152.314L161.747 151.566L163.368 152.314L162.053 150.997V149.605H163.159L163.294 149.695V149.605H164.878L165.012 149.74V151.604L165.558 149.957L166.537 149.598L192.384 149.478C192.788 149.555 193.198 149.598 193.61 149.605L193.864 149.695L195.029 153.16L195.074 149.463H201.179V151.955L198.414 154.657L201.777 153.16L205.095 154.657L202.405 151.955V149.456H208.487L208.555 153.198L209.676 149.822L210.722 149.426L237.556 149.299C238.183 149.089 238.804 148.842 239.409 148.55L239.536 148.91C244.543 147.173 248.861 143.874 251.858 139.498C254.854 135.122 256.371 129.899 256.185 124.596ZM130.811 151.761L131.319 153.108H129.368L130.811 151.761ZM128.785 152.427V150.489L130.175 151.072L128.785 152.427ZM125.542 149.77L125.49 150.129L125.131 149.77H125.542ZM125.662 151.761L127.112 153.108H125.199L125.662 151.761ZM125.759 155.502L125.161 154.006H127.112L125.759 155.502ZM127.792 156.707L126.484 156.161L127.792 154.717V156.707ZM127.792 152.449L126.484 151.095L127.792 150.511V152.449ZM128.785 156.752V154.717L130.175 156.071L128.785 156.752ZM130.736 155.502L129.368 154.006H131.453L130.736 155.502ZM131.05 150.152L130.99 149.763H131.416L131.05 150.152Z"/>
</mask>
<path d="M256.185 124.596C255.729 115.286 249.22 107.428 240.007 104.652C240.066 103.904 240.104 103.103 240.104 102.332C240.096 95.3404 237.319 88.6372 232.382 83.6933C227.445 78.7493 220.752 75.9683 213.771 75.9604C208.877 75.9459 204.078 77.3128 199.924 79.9042C197.361 64.8848 183.626 53.6521 167.538 54.5426C152.234 55.291 140.106 66.5162 138.126 80.9145C135.39 79.9327 132.506 79.4265 129.6 79.4178C122.615 79.4237 115.918 82.2047 110.978 87.1502C106.039 92.0958 103.26 98.802 103.252 105.797C103.252 106.111 103.252 106.418 103.297 106.755C95.9363 108.768 85.3626 113.026 85.4 128.09C85.4 139.316 94.7033 148.902 107.362 149.493L107.534 149.224C108.951 149.559 110.397 149.759 111.853 149.822L123.719 149.77L124.765 150.795L122.307 151.334L123.801 153.1H120.416L118.287 150.937L119.31 153.594L118.287 156.228L120.416 153.983H123.801L122.307 155.951L124.765 156.348L122.374 158.743H119.385L122.165 159.708L123.062 162.372V159.431L125.363 157.119L125.782 159.499L127.762 158.002V161.399L125.632 163.48L128.233 162.335L130.781 163.48L128.703 161.399V158.002L130.661 159.334L131.02 157.007L133.396 159.409L133.456 162.35L134.315 159.738L137.073 158.72H134.166L131.774 156.408L134.084 155.734L132.724 153.961H136.109L138.193 156.206L137.05 153.489L138.193 150.915L136.101 153.1H132.716L133.934 151.207L131.767 150.795L132.821 149.725L157.136 149.613L157.928 149.882L158.504 151.574V149.71L158.608 149.605H160.2V149.77L160.424 149.605H161.455V150.997L160.103 152.314L161.747 151.566L163.368 152.314L162.053 150.997V149.605H163.159L163.294 149.695V149.605H164.878L165.012 149.74V151.604L165.558 149.957L166.537 149.598L192.384 149.478C192.788 149.555 193.198 149.598 193.61 149.605L193.864 149.695L195.029 153.16L195.074 149.463H201.179V151.955L198.414 154.657L201.777 153.16L205.095 154.657L202.405 151.955V149.456H208.487L208.555 153.198L209.676 149.822L210.722 149.426L237.556 149.299C238.183 149.089 238.804 148.842 239.409 148.55L239.536 148.91C244.543 147.173 248.861 143.874 251.858 139.498C254.854 135.122 256.371 129.899 256.185 124.596ZM130.811 151.761L131.319 153.108H129.368L130.811 151.761ZM128.785 152.427V150.489L130.175 151.072L128.785 152.427ZM125.542 149.77L125.49 150.129L125.131 149.77H125.542ZM125.662 151.761L127.112 153.108H125.199L125.662 151.761ZM125.759 155.502L125.161 154.006H127.112L125.759 155.502ZM127.792 156.707L126.484 156.161L127.792 154.717V156.707ZM127.792 152.449L126.484 151.095L127.792 150.511V152.449ZM128.785 156.752V154.717L130.175 156.071L128.785 156.752ZM130.736 155.502L129.368 154.006H131.453L130.736 155.502ZM131.05 150.152L130.99 149.763H131.416L131.05 150.152Z" stroke="#00A8A8" stroke-width="9.90911" mask="url(#path-39-inside-2_179_4116)"/>
</g>
<g style="mix-blend-mode:hard-light" filter="url(#filter2_ddi_179_4116)">
<mask id="path-40-inside-3_179_4116" fill="white">
<path d="M256.185 124.596C255.729 115.286 249.22 107.428 240.007 104.652C240.066 103.904 240.104 103.103 240.104 102.332C240.096 95.3404 237.319 88.6372 232.382 83.6933C227.445 78.7493 220.752 75.9683 213.771 75.9604C208.877 75.9459 204.078 77.3128 199.924 79.9042C197.361 64.8848 183.626 53.6521 167.538 54.5426C152.234 55.291 140.106 66.5162 138.126 80.9145C135.39 79.9327 132.506 79.4265 129.6 79.4178C122.615 79.4237 115.918 82.2047 110.978 87.1502C106.039 92.0958 103.26 98.802 103.252 105.797C103.252 106.111 103.252 106.418 103.297 106.755C95.9363 108.768 85.3626 113.026 85.4 128.09C85.4 139.316 94.7033 148.902 107.362 149.493L107.534 149.224C108.951 149.559 110.397 149.759 111.853 149.822L123.719 149.77L124.765 150.795L122.307 151.334L123.801 153.1H120.416L118.287 150.937L119.31 153.594L118.287 156.228L120.416 153.983H123.801L122.307 155.951L124.765 156.348L122.374 158.743H119.385L122.165 159.708L123.062 162.372V159.431L125.363 157.119L125.782 159.499L127.762 158.002V161.399L125.632 163.48L128.233 162.335L130.781 163.48L128.703 161.399V158.002L130.661 159.334L131.02 157.007L133.396 159.409L133.456 162.35L134.315 159.738L137.073 158.72H134.166L131.774 156.408L134.084 155.734L132.724 153.961H136.109L138.193 156.206L137.05 153.489L138.193 150.915L136.101 153.1H132.716L133.934 151.207L131.767 150.795L132.821 149.725L157.136 149.613L157.928 149.882L158.504 151.574V149.71L158.608 149.605H160.2V149.77L160.424 149.605H161.455V150.997L160.103 152.314L161.747 151.566L163.368 152.314L162.053 150.997V149.605H163.159L163.294 149.695V149.605H164.878L165.012 149.74V151.604L165.558 149.957L166.537 149.598L192.384 149.478C192.788 149.555 193.198 149.598 193.61 149.605L193.864 149.695L195.029 153.16L195.074 149.463H201.179V151.955L198.414 154.657L201.777 153.16L205.095 154.657L202.405 151.955V149.456H208.487L208.555 153.198L209.676 149.822L210.722 149.426L237.556 149.299C238.183 149.089 238.804 148.842 239.409 148.55L239.536 148.91C244.543 147.173 248.861 143.874 251.858 139.498C254.854 135.122 256.371 129.899 256.185 124.596ZM130.811 151.761L131.319 153.108H129.368L130.811 151.761ZM128.785 152.427V150.489L130.175 151.072L128.785 152.427ZM125.542 149.77L125.49 150.129L125.131 149.77H125.542ZM125.662 151.761L127.112 153.108H125.199L125.662 151.761ZM125.759 155.502L125.161 154.006H127.112L125.759 155.502ZM127.792 156.707L126.484 156.161L127.792 154.717V156.707ZM127.792 152.449L126.484 151.095L127.792 150.511V152.449ZM128.785 156.752V154.717L130.175 156.071L128.785 156.752ZM130.736 155.502L129.368 154.006H131.453L130.736 155.502ZM131.05 150.152L130.99 149.763H131.416L131.05 150.152Z"/>
</mask>
<path d="M256.185 124.596C255.729 115.286 249.22 107.428 240.007 104.652C240.066 103.904 240.104 103.103 240.104 102.332C240.096 95.3404 237.319 88.6372 232.382 83.6933C227.445 78.7493 220.752 75.9683 213.771 75.9604C208.877 75.9459 204.078 77.3128 199.924 79.9042C197.361 64.8848 183.626 53.6521 167.538 54.5426C152.234 55.291 140.106 66.5162 138.126 80.9145C135.39 79.9327 132.506 79.4265 129.6 79.4178C122.615 79.4237 115.918 82.2047 110.978 87.1502C106.039 92.0958 103.26 98.802 103.252 105.797C103.252 106.111 103.252 106.418 103.297 106.755C95.9363 108.768 85.3626 113.026 85.4 128.09C85.4 139.316 94.7033 148.902 107.362 149.493L107.534 149.224C108.951 149.559 110.397 149.759 111.853 149.822L123.719 149.77L124.765 150.795L122.307 151.334L123.801 153.1H120.416L118.287 150.937L119.31 153.594L118.287 156.228L120.416 153.983H123.801L122.307 155.951L124.765 156.348L122.374 158.743H119.385L122.165 159.708L123.062 162.372V159.431L125.363 157.119L125.782 159.499L127.762 158.002V161.399L125.632 163.48L128.233 162.335L130.781 163.48L128.703 161.399V158.002L130.661 159.334L131.02 157.007L133.396 159.409L133.456 162.35L134.315 159.738L137.073 158.72H134.166L131.774 156.408L134.084 155.734L132.724 153.961H136.109L138.193 156.206L137.05 153.489L138.193 150.915L136.101 153.1H132.716L133.934 151.207L131.767 150.795L132.821 149.725L157.136 149.613L157.928 149.882L158.504 151.574V149.71L158.608 149.605H160.2V149.77L160.424 149.605H161.455V150.997L160.103 152.314L161.747 151.566L163.368 152.314L162.053 150.997V149.605H163.159L163.294 149.695V149.605H164.878L165.012 149.74V151.604L165.558 149.957L166.537 149.598L192.384 149.478C192.788 149.555 193.198 149.598 193.61 149.605L193.864 149.695L195.029 153.16L195.074 149.463H201.179V151.955L198.414 154.657L201.777 153.16L205.095 154.657L202.405 151.955V149.456H208.487L208.555 153.198L209.676 149.822L210.722 149.426L237.556 149.299C238.183 149.089 238.804 148.842 239.409 148.55L239.536 148.91C244.543 147.173 248.861 143.874 251.858 139.498C254.854 135.122 256.371 129.899 256.185 124.596ZM130.811 151.761L131.319 153.108H129.368L130.811 151.761ZM128.785 152.427V150.489L130.175 151.072L128.785 152.427ZM125.542 149.77L125.49 150.129L125.131 149.77H125.542ZM125.662 151.761L127.112 153.108H125.199L125.662 151.761ZM125.759 155.502L125.161 154.006H127.112L125.759 155.502ZM127.792 156.707L126.484 156.161L127.792 154.717V156.707ZM127.792 152.449L126.484 151.095L127.792 150.511V152.449ZM128.785 156.752V154.717L130.175 156.071L128.785 156.752ZM130.736 155.502L129.368 154.006H131.453L130.736 155.502ZM131.05 150.152L130.99 149.763H131.416L131.05 150.152Z" stroke="#33E9C6" stroke-opacity="0.2" stroke-width="7.57756" mask="url(#path-40-inside-3_179_4116)"/>
</g>
<g filter="url(#filter3_f_179_4116)">
<mask id="path-41-inside-4_179_4116" fill="white">
<path d="M256.185 124.596C255.729 115.286 249.22 107.428 240.007 104.652C240.066 103.904 240.104 103.103 240.104 102.332C240.096 95.3404 237.319 88.6372 232.382 83.6933C227.445 78.7493 220.752 75.9683 213.771 75.9604C208.877 75.9459 204.078 77.3128 199.924 79.9042C197.361 64.8848 183.626 53.6521 167.538 54.5426C152.234 55.291 140.106 66.5162 138.126 80.9145C135.39 79.9327 132.506 79.4265 129.6 79.4178C122.615 79.4237 115.918 82.2047 110.978 87.1502C106.039 92.0958 103.26 98.802 103.252 105.797C103.252 106.111 103.252 106.418 103.297 106.755C95.9363 108.768 85.3626 113.026 85.4 128.09C85.4 139.316 94.7033 148.902 107.362 149.493L107.534 149.224C108.951 149.559 110.397 149.759 111.853 149.822L123.719 149.77L124.765 150.795L122.307 151.334L123.801 153.1H120.416L118.287 150.937L119.31 153.594L118.287 156.228L120.416 153.983H123.801L122.307 155.951L124.765 156.348L122.374 158.743H119.385L122.165 159.708L123.062 162.372V159.431L125.363 157.119L125.782 159.499L127.762 158.002V161.399L125.632 163.48L128.233 162.335L130.781 163.48L128.703 161.399V158.002L130.661 159.334L131.02 157.007L133.396 159.409L133.456 162.35L134.315 159.738L137.073 158.72H134.166L131.774 156.408L134.084 155.734L132.724 153.961H136.109L138.193 156.206L137.05 153.489L138.193 150.915L136.101 153.1H132.716L133.934 151.207L131.767 150.795L132.821 149.725L157.136 149.613L157.928 149.882L158.504 151.574V149.71L158.608 149.605H160.2V149.77L160.424 149.605H161.455V150.997L160.103 152.314L161.747 151.566L163.368 152.314L162.053 150.997V149.605H163.159L163.294 149.695V149.605H164.878L165.012 149.74V151.604L165.558 149.957L166.537 149.598L192.384 149.478C192.788 149.555 193.198 149.598 193.61 149.605L193.864 149.695L195.029 153.16L195.074 149.463H201.179V151.955L198.414 154.657L201.777 153.16L205.095 154.657L202.405 151.955V149.456H208.487L208.555 153.198L209.676 149.822L210.722 149.426L237.556 149.299C238.183 149.089 238.804 148.842 239.409 148.55L239.536 148.91C244.543 147.173 248.861 143.874 251.858 139.498C254.854 135.122 256.371 129.899 256.185 124.596ZM130.811 151.761L131.319 153.108H129.368L130.811 151.761ZM128.785 152.427V150.489L130.175 151.072L128.785 152.427ZM125.542 149.77L125.49 150.129L125.131 149.77H125.542ZM125.662 151.761L127.112 153.108H125.199L125.662 151.761ZM125.759 155.502L125.161 154.006H127.112L125.759 155.502ZM127.792 156.707L126.484 156.161L127.792 154.717V156.707ZM127.792 152.449L126.484 151.095L127.792 150.511V152.449ZM128.785 156.752V154.717L130.175 156.071L128.785 156.752ZM130.736 155.502L129.368 154.006H131.453L130.736 155.502ZM131.05 150.152L130.99 149.763H131.416L131.05 150.152Z"/>
</mask>
<path d="M256.185 124.596C255.729 115.286 249.22 107.428 240.007 104.652C240.066 103.904 240.104 103.103 240.104 102.332C240.096 95.3404 237.319 88.6372 232.382 83.6933C227.445 78.7493 220.752 75.9683 213.771 75.9604C208.877 75.9459 204.078 77.3128 199.924 79.9042C197.361 64.8848 183.626 53.6521 167.538 54.5426C152.234 55.291 140.106 66.5162 138.126 80.9145C135.39 79.9327 132.506 79.4265 129.6 79.4178C122.615 79.4237 115.918 82.2047 110.978 87.1502C106.039 92.0958 103.26 98.802 103.252 105.797C103.252 106.111 103.252 106.418 103.297 106.755C95.9363 108.768 85.3626 113.026 85.4 128.09C85.4 139.316 94.7033 148.902 107.362 149.493L107.534 149.224C108.951 149.559 110.397 149.759 111.853 149.822L123.719 149.77L124.765 150.795L122.307 151.334L123.801 153.1H120.416L118.287 150.937L119.31 153.594L118.287 156.228L120.416 153.983H123.801L122.307 155.951L124.765 156.348L122.374 158.743H119.385L122.165 159.708L123.062 162.372V159.431L125.363 157.119L125.782 159.499L127.762 158.002V161.399L125.632 163.48L128.233 162.335L130.781 163.48L128.703 161.399V158.002L130.661 159.334L131.02 157.007L133.396 159.409L133.456 162.35L134.315 159.738L137.073 158.72H134.166L131.774 156.408L134.084 155.734L132.724 153.961H136.109L138.193 156.206L137.05 153.489L138.193 150.915L136.101 153.1H132.716L133.934 151.207L131.767 150.795L132.821 149.725L157.136 149.613L157.928 149.882L158.504 151.574V149.71L158.608 149.605H160.2V149.77L160.424 149.605H161.455V150.997L160.103 152.314L161.747 151.566L163.368 152.314L162.053 150.997V149.605H163.159L163.294 149.695V149.605H164.878L165.012 149.74V151.604L165.558 149.957L166.537 149.598L192.384 149.478C192.788 149.555 193.198 149.598 193.61 149.605L193.864 149.695L195.029 153.16L195.074 149.463H201.179V151.955L198.414 154.657L201.777 153.16L205.095 154.657L202.405 151.955V149.456H208.487L208.555 153.198L209.676 149.822L210.722 149.426L237.556 149.299C238.183 149.089 238.804 148.842 239.409 148.55L239.536 148.91C244.543 147.173 248.861 143.874 251.858 139.498C254.854 135.122 256.371 129.899 256.185 124.596ZM130.811 151.761L131.319 153.108H129.368L130.811 151.761ZM128.785 152.427V150.489L130.175 151.072L128.785 152.427ZM125.542 149.77L125.49 150.129L125.131 149.77H125.542ZM125.662 151.761L127.112 153.108H125.199L125.662 151.761ZM125.759 155.502L125.161 154.006H127.112L125.759 155.502ZM127.792 156.707L126.484 156.161L127.792 154.717V156.707ZM127.792 152.449L126.484 151.095L127.792 150.511V152.449ZM128.785 156.752V154.717L130.175 156.071L128.785 156.752ZM130.736 155.502L129.368 154.006H131.453L130.736 155.502ZM131.05 150.152L130.99 149.763H131.416L131.05 150.152Z" stroke="#33E9E9" stroke-width="4.66311" mask="url(#path-41-inside-4_179_4116)"/>
</g>
<g filter="url(#filter4_f_179_4116)">
<mask id="path-42-inside-5_179_4116" fill="white">
<path d="M256.185 124.596C255.729 115.286 249.22 107.428 240.007 104.652C240.066 103.904 240.104 103.103 240.104 102.332C240.096 95.3404 237.319 88.6372 232.382 83.6933C227.445 78.7493 220.752 75.9683 213.771 75.9604C208.877 75.9459 204.078 77.3128 199.924 79.9042C197.361 64.8848 183.626 53.6521 167.538 54.5426C152.234 55.291 140.106 66.5162 138.126 80.9145C135.39 79.9327 132.506 79.4265 129.6 79.4178C122.615 79.4237 115.918 82.2047 110.978 87.1502C106.039 92.0958 103.26 98.802 103.252 105.797C103.252 106.111 103.252 106.418 103.297 106.755C95.9363 108.768 85.3626 113.026 85.4 128.09C85.4 139.316 94.7033 148.902 107.362 149.493L107.534 149.224C108.951 149.559 110.397 149.759 111.853 149.822L123.719 149.77L124.765 150.795L122.307 151.334L123.801 153.1H120.416L118.287 150.937L119.31 153.594L118.287 156.228L120.416 153.983H123.801L122.307 155.951L124.765 156.348L122.374 158.743H119.385L122.165 159.708L123.062 162.372V159.431L125.363 157.119L125.782 159.499L127.762 158.002V161.399L125.632 163.48L128.233 162.335L130.781 163.48L128.703 161.399V158.002L130.661 159.334L131.02 157.007L133.396 159.409L133.456 162.35L134.315 159.738L137.073 158.72H134.166L131.774 156.408L134.084 155.734L132.724 153.961H136.109L138.193 156.206L137.05 153.489L138.193 150.915L136.101 153.1H132.716L133.934 151.207L131.767 150.795L132.821 149.725L157.136 149.613L157.928 149.882L158.504 151.574V149.71L158.608 149.605H160.2V149.77L160.424 149.605H161.455V150.997L160.103 152.314L161.747 151.566L163.368 152.314L162.053 150.997V149.605H163.159L163.294 149.695V149.605H164.878L165.012 149.74V151.604L165.558 149.957L166.537 149.598L192.384 149.478C192.788 149.555 193.198 149.598 193.61 149.605L193.864 149.695L195.029 153.16L195.074 149.463H201.179V151.955L198.414 154.657L201.777 153.16L205.095 154.657L202.405 151.955V149.456H208.487L208.555 153.198L209.676 149.822L210.722 149.426L237.556 149.299C238.183 149.089 238.804 148.842 239.409 148.55L239.536 148.91C244.543 147.173 248.861 143.874 251.858 139.498C254.854 135.122 256.371 129.899 256.185 124.596ZM130.811 151.761L131.319 153.108H129.368L130.811 151.761ZM128.785 152.427V150.489L130.175 151.072L128.785 152.427ZM125.542 149.77L125.49 150.129L125.131 149.77H125.542ZM125.662 151.761L127.112 153.108H125.199L125.662 151.761ZM125.759 155.502L125.161 154.006H127.112L125.759 155.502ZM127.792 156.707L126.484 156.161L127.792 154.717V156.707ZM127.792 152.449L126.484 151.095L127.792 150.511V152.449ZM128.785 156.752V154.717L130.175 156.071L128.785 156.752ZM130.736 155.502L129.368 154.006H131.453L130.736 155.502ZM131.05 150.152L130.99 149.763H131.416L131.05 150.152Z"/>
</mask>
<path d="M256.185 124.596C255.729 115.286 249.22 107.428 240.007 104.652C240.066 103.904 240.104 103.103 240.104 102.332C240.096 95.3404 237.319 88.6372 232.382 83.6933C227.445 78.7493 220.752 75.9683 213.771 75.9604C208.877 75.9459 204.078 77.3128 199.924 79.9042C197.361 64.8848 183.626 53.6521 167.538 54.5426C152.234 55.291 140.106 66.5162 138.126 80.9145C135.39 79.9327 132.506 79.4265 129.6 79.4178C122.615 79.4237 115.918 82.2047 110.978 87.1502C106.039 92.0958 103.26 98.802 103.252 105.797C103.252 106.111 103.252 106.418 103.297 106.755C95.9363 108.768 85.3626 113.026 85.4 128.09C85.4 139.316 94.7033 148.902 107.362 149.493L107.534 149.224C108.951 149.559 110.397 149.759 111.853 149.822L123.719 149.77L124.765 150.795L122.307 151.334L123.801 153.1H120.416L118.287 150.937L119.31 153.594L118.287 156.228L120.416 153.983H123.801L122.307 155.951L124.765 156.348L122.374 158.743H119.385L122.165 159.708L123.062 162.372V159.431L125.363 157.119L125.782 159.499L127.762 158.002V161.399L125.632 163.48L128.233 162.335L130.781 163.48L128.703 161.399V158.002L130.661 159.334L131.02 157.007L133.396 159.409L133.456 162.35L134.315 159.738L137.073 158.72H134.166L131.774 156.408L134.084 155.734L132.724 153.961H136.109L138.193 156.206L137.05 153.489L138.193 150.915L136.101 153.1H132.716L133.934 151.207L131.767 150.795L132.821 149.725L157.136 149.613L157.928 149.882L158.504 151.574V149.71L158.608 149.605H160.2V149.77L160.424 149.605H161.455V150.997L160.103 152.314L161.747 151.566L163.368 152.314L162.053 150.997V149.605H163.159L163.294 149.695V149.605H164.878L165.012 149.74V151.604L165.558 149.957L166.537 149.598L192.384 149.478C192.788 149.555 193.198 149.598 193.61 149.605L193.864 149.695L195.029 153.16L195.074 149.463H201.179V151.955L198.414 154.657L201.777 153.16L205.095 154.657L202.405 151.955V149.456H208.487L208.555 153.198L209.676 149.822L210.722 149.426L237.556 149.299C238.183 149.089 238.804 148.842 239.409 148.55L239.536 148.91C244.543 147.173 248.861 143.874 251.858 139.498C254.854 135.122 256.371 129.899 256.185 124.596ZM130.811 151.761L131.319 153.108H129.368L130.811 151.761ZM128.785 152.427V150.489L130.175 151.072L128.785 152.427ZM125.542 149.77L125.49 150.129L125.131 149.77H125.542ZM125.662 151.761L127.112 153.108H125.199L125.662 151.761ZM125.759 155.502L125.161 154.006H127.112L125.759 155.502ZM127.792 156.707L126.484 156.161L127.792 154.717V156.707ZM127.792 152.449L126.484 151.095L127.792 150.511V152.449ZM128.785 156.752V154.717L130.175 156.071L128.785 156.752ZM130.736 155.502L129.368 154.006H131.453L130.736 155.502ZM131.05 150.152L130.99 149.763H131.416L131.05 150.152Z" stroke="white" stroke-width="2.33156" mask="url(#path-42-inside-5_179_4116)"/>
</g>
<g style="mix-blend-mode:hard-light" filter="url(#filter5_f_179_4116)">
<circle cx="147.027" cy="201.027" r="15.616" fill="#33E9C6" fill-opacity="0.1"/>
</g>
<g style="mix-blend-mode:hard-light" filter="url(#filter6_f_179_4116)">
<path d="M152.626 201.826L154.093 203.735L151.569 204.48L150.987 204.652L151.424 205.072L154.562 208.091L154.664 208.189H154.806H156.686L154.925 208.842L154.766 208.901L154.713 209.062L154.232 210.511L154.2 208.721L154.198 208.579L154.097 208.478L150.975 205.354L150.484 204.863L150.377 205.549L149.995 208.016L147.9 206.587L147.349 206.212V206.879V211.323V211.469L147.453 211.573L148.804 212.921L147.228 212.209L147.084 212.144L146.94 212.209L145.342 212.919L146.718 211.575L146.825 211.472V211.323V206.879V206.177L146.262 206.596L144.126 208.186L143.674 205.625L143.557 204.958L143.078 205.437L140.061 208.456L139.96 208.557L139.958 208.7L139.934 210.486L139.423 208.962L139.368 208.798L139.204 208.742L137.546 208.167H139.338H139.484L139.587 208.063L142.717 204.932L143.206 204.442L142.522 204.334L139.895 203.921L141.511 201.811L141.944 201.244H141.231H136.796H136.645L136.541 201.353L134.987 202.98L135.684 201.188L135.734 201.061L135.684 200.933L134.959 199.061L136.545 200.674L136.648 200.779H136.796H141.231H141.995L141.499 200.198L139.905 198.329L142.543 197.752L143.181 197.613L142.714 197.156L139.584 194.093L139.481 193.992H139.338H137.313L139.194 193.262L139.346 193.203L139.399 193.049L139.935 191.498V193.356V193.5L140.036 193.603L143.174 196.802L143.671 197.309L143.774 196.607L144.119 194.264L146.26 195.559L146.794 195.883V195.258V190.941V190.795L146.691 190.692L145.224 189.228L146.996 189.997L147.146 190.062L147.293 189.989L148.803 189.235L147.417 190.682L147.319 190.784V190.926V195.242V195.909L147.87 195.534L149.965 194.105L150.347 196.572L150.456 197.276L150.95 196.762L154.019 193.562L154.118 193.46V193.318V191.341L154.763 193.057L154.82 193.209L154.972 193.265L156.621 193.864H154.776H154.628L154.524 193.969L151.387 197.161L150.922 197.634L151.574 197.755L153.902 198.187L152.586 200.236L152.238 200.779H152.883H157.317H157.467L157.571 200.671L158.883 199.307L158.21 200.803L158.147 200.943L158.207 201.085L158.937 202.808L157.598 201.371L157.493 201.259H157.34H152.905H152.19L152.626 201.826ZM143.923 198.427L143.536 198.062L143.351 198.561L142.695 200.334L142.519 200.809H143.026H145.567H146.456L145.809 200.2L143.923 198.427ZM143.474 203.672L143.679 204.192L144.06 203.784L145.848 201.867L146.4 201.274H145.59H143.048H142.531L142.72 201.756L143.474 203.672ZM146.323 205.458L146.817 205.676V205.135V202.487V201.571L146.203 202.25L144.491 204.144L144.164 204.506L144.611 204.703L146.323 205.458ZM146.212 199.797L146.817 200.421V199.551V197.031V196.49L146.323 196.708L144.611 197.463L144.147 197.667L144.5 198.031L146.212 199.797ZM150.747 198.56L150.562 198.066L150.176 198.426L148.276 200.199L147.622 200.809H148.516H151.08H151.588L151.41 200.333L150.747 198.56ZM147.896 196.698L147.409 196.496V197.023V199.544V200.375L148.007 199.797L149.832 198.031L150.218 197.658L149.722 197.452L147.896 196.698ZM147.409 205.188V205.75L147.915 205.506L149.74 204.623L150.193 204.404L149.833 204.053L148.008 202.272L147.409 201.688V202.524V205.188ZM150.046 203.784L150.394 204.157L150.62 203.699L151.562 201.782L151.812 201.274H151.246H148.516H147.705L148.258 201.867L150.046 203.784Z" stroke="#00A8A8" stroke-width="0.704889"/>
</g>
<g style="mix-blend-mode:hard-light" filter="url(#filter7_f_179_4116)">
<path d="M152.54 201.892L153.91 203.676L151.538 204.376L150.778 204.601L151.349 205.151L154.486 208.169L154.62 208.298H154.806H156.082L154.887 208.74L154.679 208.817L154.61 209.028L154.329 209.873L154.309 208.719L154.306 208.533L154.174 208.402L151.052 205.277L150.409 204.635L150.27 205.533L149.915 207.83L147.961 206.498L147.241 206.007V206.879V211.323V211.514L147.376 211.65L148.306 212.577L147.273 212.111L147.085 212.026L146.896 212.109L145.85 212.574L146.794 211.653L146.933 211.517V211.323V206.879V205.961L146.197 206.509L144.202 207.994L143.781 205.606L143.627 204.734L143.001 205.36L139.985 208.379L139.852 208.511L139.85 208.698L139.834 209.847L139.526 208.928L139.454 208.713L139.24 208.639L138.19 208.275H139.338H139.529L139.664 208.14L142.794 205.008L143.434 204.368L142.539 204.227L140.092 203.842L141.597 201.876L142.164 201.135H141.231H136.796H136.599L136.463 201.278L135.286 202.509L135.785 201.228L135.85 201.061L135.785 200.894L135.249 199.511L136.467 200.75L136.603 200.887H136.796H141.231H142.23L141.581 200.128L140.105 198.396L142.566 197.858L143.4 197.676L142.79 197.079L139.66 194.015L139.526 193.884H139.338H137.892L139.233 193.363L139.432 193.286L139.502 193.084L139.827 192.144V193.356V193.544L139.959 193.679L143.096 196.878L143.746 197.541L143.881 196.623L144.203 194.441L146.203 195.652L146.903 196.075V195.258V190.941V190.75L146.768 190.615L145.705 189.555L146.952 190.096L147.149 190.182L147.342 190.086L148.293 189.611L147.339 190.607L147.21 190.741V190.926V195.242V196.114L147.931 195.623L149.884 194.291L150.24 196.588L150.383 197.509L151.028 196.837L154.098 193.637L154.226 193.503V193.318V191.938L154.661 193.095L154.736 193.294L154.935 193.366L156.005 193.755H154.776H154.582L154.447 193.893L151.31 197.085L150.702 197.703L151.554 197.861L153.723 198.264L152.495 200.178L152.039 200.887H152.883H157.317H157.513L157.649 200.746L158.527 199.834L158.111 200.758L158.029 200.942L158.107 201.127L158.597 202.285L157.677 201.297L157.54 201.15H157.34H152.905H151.97L151.982 201.166H151.246H148.516H147.456L148.179 201.941L149.966 203.858L150.422 204.346L150.717 203.747L151.66 201.83L151.985 201.169L152.54 201.892ZM143.998 198.348L143.491 197.871L143.249 198.524L142.593 200.297L142.364 200.918H143.026H145.567H146.73L145.883 200.121L143.998 198.348ZM143.374 203.712L143.641 204.392L144.139 203.858L145.927 201.941L146.65 201.166H145.59H143.048H142.372L142.619 201.795L143.374 203.712ZM146.279 205.557L146.926 205.842V205.135V202.487V201.289L146.123 202.178L144.411 204.072L143.983 204.545L144.567 204.803L146.279 205.557ZM146.134 199.872L146.926 200.689V199.551V197.031V196.324L146.279 196.609L144.567 197.364L143.961 197.631L144.422 198.106L146.134 199.872ZM150.848 198.522L150.606 197.876L150.102 198.346L148.202 200.12L147.346 200.918H148.516H151.08H151.745L151.512 200.295L150.848 198.522ZM147.938 196.597L147.301 196.334V197.023V199.544V200.631L148.082 199.875L149.907 198.109L150.412 197.62L149.763 197.352L147.938 196.597ZM147.301 205.188V205.923L147.963 205.603L149.788 204.72L150.379 204.434L149.909 203.975L148.084 202.195L147.301 201.431V202.524V205.188Z" stroke="#00A8A8" stroke-width="0.921778"/>
</g>
<g style="mix-blend-mode:hard-light" filter="url(#filter8_ddi_179_4116)">
<path d="M152.626 201.826L154.093 203.735L151.569 204.48L150.987 204.652L151.424 205.072L154.562 208.091L154.664 208.189H154.806H156.686L154.925 208.842L154.766 208.901L154.713 209.062L154.232 210.511L154.2 208.721L154.198 208.579L154.097 208.478L150.975 205.354L150.484 204.863L150.377 205.549L149.995 208.016L147.9 206.587L147.349 206.212V206.879V211.323V211.469L147.453 211.573L148.804 212.921L147.228 212.209L147.084 212.144L146.94 212.209L145.342 212.919L146.718 211.575L146.825 211.472V211.323V206.879V206.177L146.262 206.596L144.126 208.186L143.674 205.625L143.557 204.958L143.078 205.437L140.061 208.456L139.96 208.557L139.958 208.7L139.934 210.486L139.423 208.962L139.368 208.798L139.204 208.742L137.546 208.167H139.338H139.484L139.587 208.063L142.717 204.932L143.206 204.442L142.522 204.334L139.895 203.921L141.511 201.811L141.944 201.244H141.231H136.796H136.645L136.541 201.353L134.987 202.98L135.684 201.188L135.734 201.061L135.684 200.933L134.959 199.061L136.545 200.674L136.648 200.779H136.796H141.231H141.995L141.499 200.198L139.905 198.329L142.543 197.752L143.181 197.613L142.714 197.156L139.584 194.093L139.481 193.992H139.338H137.313L139.194 193.262L139.346 193.203L139.399 193.049L139.935 191.498V193.356V193.5L140.036 193.603L143.174 196.802L143.671 197.309L143.774 196.607L144.119 194.264L146.26 195.559L146.794 195.883V195.258V190.941V190.795L146.691 190.692L145.224 189.228L146.996 189.997L147.146 190.062L147.293 189.989L148.803 189.235L147.417 190.682L147.319 190.784V190.926V195.242V195.909L147.87 195.534L149.965 194.105L150.347 196.572L150.456 197.276L150.95 196.762L154.019 193.562L154.118 193.46V193.318V191.341L154.763 193.057L154.82 193.209L154.972 193.265L156.621 193.864H154.776H154.628L154.524 193.969L151.387 197.161L150.922 197.634L151.574 197.755L153.902 198.187L152.586 200.236L152.238 200.779H152.883H157.317H157.467L157.571 200.671L158.883 199.307L158.21 200.803L158.147 200.943L158.207 201.085L158.937 202.808L157.598 201.371L157.493 201.259H157.34H152.905H152.19L152.626 201.826ZM143.923 198.427L143.536 198.062L143.351 198.561L142.695 200.334L142.519 200.809H143.026H145.567H146.456L145.809 200.2L143.923 198.427ZM143.474 203.672L143.679 204.192L144.06 203.784L145.848 201.867L146.4 201.274H145.59H143.048H142.531L142.72 201.756L143.474 203.672ZM146.323 205.458L146.817 205.676V205.135V202.487V201.571L146.203 202.25L144.491 204.144L144.164 204.506L144.611 204.703L146.323 205.458ZM146.212 199.797L146.817 200.421V199.551V197.031V196.49L146.323 196.708L144.611 197.463L144.147 197.667L144.5 198.031L146.212 199.797ZM150.747 198.56L150.562 198.066L150.176 198.426L148.276 200.199L147.622 200.809H148.516H151.08H151.588L151.41 200.333L150.747 198.56ZM147.896 196.698L147.409 196.496V197.023V199.544V200.375L148.007 199.797L149.832 198.031L150.218 197.658L149.722 197.452L147.896 196.698ZM147.409 205.188V205.75L147.915 205.506L149.74 204.623L150.193 204.404L149.833 204.053L148.008 202.272L147.409 201.688V202.524V205.188ZM150.046 203.784L150.394 204.157L150.62 203.699L151.562 201.782L151.812 201.274H151.246H148.516H147.705L148.258 201.867L150.046 203.784Z" stroke="#33E9C6" stroke-opacity="0.2" stroke-width="0.704889"/>
</g>
<g filter="url(#filter9_f_179_4116)">
<path d="M152.733 201.743L154.321 203.81L151.607 204.61L151.249 204.716L151.518 204.975L154.655 207.993L154.718 208.054H154.806H157.443L154.972 208.969L154.874 209.005L154.841 209.104L154.11 211.308L154.065 208.724L154.063 208.636L154.001 208.574L150.879 205.45L150.577 205.147L150.511 205.57L150.096 208.249L147.824 206.699L147.485 206.468V206.879V211.323V211.413L147.548 211.477L149.427 213.352L147.172 212.333L147.084 212.293L146.995 212.332L144.706 213.35L146.624 211.478L146.689 211.415V211.323V206.879V206.447L146.343 206.705L144.03 208.426L143.541 205.649L143.469 205.238L143.174 205.533L140.157 208.551L140.095 208.614L140.094 208.702L140.058 211.284L139.294 209.006L139.261 208.905L139.16 208.87L136.741 208.031H139.338H139.428L139.491 207.968L142.621 204.836L142.922 204.535L142.501 204.468L139.649 204.019L141.403 201.728L141.67 201.379H141.231H136.796H136.703L136.639 201.446L134.612 203.568L135.558 201.139L135.588 201.061L135.558 200.982L134.595 198.498L136.641 200.579L136.705 200.643H136.796H141.231H141.701L141.396 200.286L139.655 198.245L142.514 197.62L142.906 197.534L142.619 197.253L139.489 194.189L139.426 194.128H139.338H136.589L139.145 193.135L139.238 193.099L139.271 193.004L140.071 190.692V193.356V193.444L140.133 193.508L143.27 196.707L143.576 197.019L143.64 196.587L144.015 194.042L146.33 195.443L146.659 195.642V195.258V190.941V190.851L146.595 190.788L144.622 188.819L147.05 189.872L147.142 189.913L147.233 189.867L149.441 188.765L147.515 190.776L147.454 190.839V190.926V195.242V195.653L147.794 195.422L150.066 193.872L150.481 196.551L150.548 196.984L150.852 196.668L153.922 193.468L153.982 193.405V193.318V190.595L154.889 193.01L154.925 193.103L155.018 193.137L157.39 193.999H154.776H154.685L154.621 194.064L151.484 197.256L151.198 197.547L151.599 197.621L154.125 198.091L152.7 200.309L152.486 200.643H152.883H157.317H157.41L157.474 200.577L159.328 198.649L158.334 200.858L158.295 200.945L158.332 201.032L159.361 203.462L157.499 201.464L157.434 201.394H157.34H152.905H152.465L152.733 201.743ZM143.83 198.525L143.592 198.301L143.478 198.608L142.822 200.382L142.714 200.674H143.026H145.567H146.114L145.716 200.299L143.83 198.525ZM143.601 203.623L143.726 203.943L143.961 203.691L145.748 201.774L146.089 201.41H145.59H143.048H142.73L142.846 201.706L143.601 203.623ZM146.377 205.334L146.682 205.468V205.135V202.487V201.923L146.304 202.341L144.592 204.235L144.39 204.458L144.665 204.579L146.377 205.334ZM146.309 199.702L146.682 200.087V199.551V197.031V196.698L146.377 196.832L144.665 197.587L144.38 197.713L144.597 197.936L146.309 199.702ZM150.62 198.607L150.506 198.303L150.269 198.525L148.368 200.298L147.966 200.674H148.516H151.08H151.393L151.283 200.381L150.62 198.607ZM147.845 196.823L147.545 196.699V197.023V199.544V200.055L147.913 199.7L149.738 197.934L149.975 197.704L149.67 197.577L147.845 196.823ZM147.545 205.188V205.534L147.856 205.383L149.681 204.501L149.96 204.366L149.738 204.15L147.913 202.369L147.545 202.01V202.524V205.188ZM150.145 203.691L150.359 203.921L150.498 203.639L151.441 201.722L151.595 201.41H151.246H148.516H148.017L148.357 201.774L150.145 203.691Z" stroke="#33E9E9" stroke-width="0.433778"/>
</g>
<g filter="url(#filter10_f_179_4116)">
<path d="M152.819 201.677L154.503 203.869L151.638 204.714L151.459 204.767L151.593 204.897L154.731 207.915L154.762 207.945H154.806H158.047L155.01 209.071L154.961 209.089L154.944 209.138L154.013 211.946L153.956 208.725L153.956 208.682L153.925 208.651L150.802 205.527L150.651 205.375L150.619 205.587L150.177 208.435L147.763 206.789L147.593 206.673V206.879V211.323V211.368L147.625 211.4L149.926 213.696L147.128 212.432L147.083 212.412L147.039 212.432L144.198 213.695L146.548 211.401L146.581 211.369V211.323V206.879V206.663L146.407 206.792L143.954 208.618L143.434 205.667L143.398 205.462L143.251 205.61L140.234 208.628L140.203 208.659L140.202 208.703L140.158 211.922L139.192 209.04L139.175 208.99L139.124 208.972L136.098 207.923H139.338H139.383L139.414 207.891L142.544 204.759L142.695 204.609L142.484 204.576L139.452 204.098L141.317 201.662L141.45 201.488H141.231H136.796H136.75L136.718 201.521L134.313 204.039L135.457 201.1L135.472 201.061L135.457 201.021L134.304 198.047L136.719 200.503L136.751 200.535H136.796H141.231H141.466L141.313 200.356L139.455 198.177L142.491 197.514L142.687 197.471L142.543 197.331L139.414 194.267L139.382 194.236H139.338H136.01L139.105 193.034L139.152 193.016L139.169 192.969L140.18 190.047V193.356V193.4L140.211 193.432L143.348 196.631L143.501 196.787L143.533 196.571L143.931 193.865L146.386 195.35L146.55 195.45V195.258V190.941V190.896L146.519 190.864L144.141 188.491L147.093 189.773L147.139 189.793L147.184 189.77L149.951 188.389L147.593 190.851L147.563 190.882V190.926V195.242V195.448L147.732 195.332L150.147 193.686L150.588 196.534L150.622 196.751L150.774 196.593L153.843 193.393L153.874 193.362V193.318V189.998L154.991 192.971L155.008 193.018L155.055 193.035L158.006 194.108H154.776H154.73L154.698 194.14L151.561 197.332L151.418 197.478L151.618 197.515L154.303 198.014L152.791 200.368L152.684 200.535H152.883H157.317H157.363L157.395 200.502L159.684 198.123L158.433 200.903L158.413 200.946L158.432 200.99L159.7 203.986L157.419 201.537L157.387 201.503H157.34H152.905H152.685L152.819 201.677ZM143.756 198.604L143.637 198.492L143.58 198.646L142.924 200.419L142.87 200.565H143.026H145.567H145.841L145.641 200.378L143.756 198.604ZM143.701 203.583L143.764 203.743L143.882 203.617L145.669 201.7L145.839 201.518H145.59H143.048H142.889L142.947 201.666L143.701 203.583ZM146.421 205.235L146.573 205.302V205.135V202.487V202.205L146.384 202.414L144.672 204.308L144.572 204.419L144.709 204.48L146.421 205.235ZM146.387 199.627L146.573 199.819V199.551V197.031V196.865L146.421 196.932L144.709 197.686L144.566 197.749L144.675 197.861L146.387 199.627ZM150.518 198.645L150.461 198.493L150.343 198.604L148.442 200.377L148.241 200.565H148.516H151.08H151.237L151.182 200.419L150.518 198.645ZM147.803 196.923L147.653 196.861V197.023V199.544V199.8L147.837 199.622L149.662 197.856L149.781 197.741L149.628 197.678L147.803 196.923ZM147.653 205.188V205.361L147.809 205.286L149.634 204.403L149.773 204.336L149.663 204.228L147.838 202.447L147.653 202.267V202.524V205.188ZM150.224 203.617L150.331 203.732L150.401 203.591L151.343 201.674L151.42 201.518H151.246H148.516H148.267L148.437 201.7L150.224 203.617Z" stroke="white" stroke-width="0.216889"/>
</g>
<g style="mix-blend-mode:hard-light" filter="url(#filter11_f_179_4116)">
<circle cx="179.893" cy="174.893" r="10.736" fill="#33E9C6" fill-opacity="0.1"/>
</g>
<g style="mix-blend-mode:hard-light" filter="url(#filter12_f_179_4116)">
<path d="M183.698 175.448L184.705 176.758L182.971 177.27L182.571 177.388L182.872 177.677L185.027 179.745L185.097 179.812H185.194H186.494L185.266 180.269L185.158 180.309L185.121 180.419L184.787 181.418L184.766 180.178L184.764 180.08L184.695 180.011L182.555 177.869L182.217 177.53L182.144 178.003L181.882 179.706L180.447 178.728L180.069 178.47V178.928V181.974V182.074L180.14 182.145L181.078 183.085L179.985 182.596L179.887 182.552L179.789 182.595L178.671 183.085L179.63 182.147L179.703 182.076V181.974V178.921V178.438L179.316 178.726L177.85 179.82L177.545 178.066L177.465 177.606L177.135 177.936L175.063 180.003L174.991 180.074V180.175V181.339L174.658 180.344L174.62 180.231L174.507 180.192L173.378 179.805H174.615H174.715L174.786 179.734L176.933 177.592L177.27 177.256L176.8 177.181L174.968 176.888L176.088 175.449L176.393 175.058H175.897H172.855H172.752L172.68 175.133L171.623 176.241L172.089 175.053L172.124 174.965L172.09 174.877L171.605 173.618L172.636 174.692L172.707 174.766H172.811H175.853H176.378L176.037 174.367L174.943 173.085L176.784 172.685L177.223 172.59L176.902 172.276L174.755 170.171L174.684 170.101H174.585H173.137L174.49 169.553L174.592 169.512L174.628 169.407L174.991 168.351V169.597V169.695L175.059 169.765L177.191 171.982L177.534 172.338L177.606 171.85L177.843 170.239L179.336 171.141L179.703 171.363V170.933V167.947V167.847L179.632 167.776L178.628 166.77L179.849 167.304L179.952 167.349L180.054 167.298L181.091 166.782L180.136 167.78L180.069 167.85V167.947V170.933V171.39L180.447 171.134L181.882 170.162L182.144 171.873L182.219 172.359L182.559 172.004L184.706 169.765L184.773 169.695V169.597V168.281L185.221 169.466L185.261 169.571L185.365 169.608L186.499 170.019H185.232H185.13L185.059 170.091L182.904 172.279L182.586 172.601L183.031 172.687L184.625 172.992L183.723 174.393L183.483 174.766H183.927H186.969H187.072L187.143 174.692L188.051 173.751L187.598 174.761L187.555 174.856L187.595 174.953L188.111 176.185L187.107 175.133L187.035 175.058H186.931H183.89H183.398L183.698 175.448ZM177.755 173.101L177.489 172.85L177.362 173.194L176.915 174.41L176.795 174.736H177.142H178.887H179.499L179.053 174.317L177.755 173.101ZM177.447 176.705L177.59 177.059L177.85 176.779L179.065 175.465L179.441 175.058H178.887H177.142H176.783L176.918 175.391L177.447 176.705ZM179.406 177.928L179.741 178.066V177.704V175.92V175.292L179.319 175.757L178.141 177.056L177.909 177.311L178.228 177.443L179.406 177.928ZM179.324 174.043L179.741 174.473V173.874V172.135V171.763L179.4 171.914L178.222 172.436L177.905 172.577L178.146 172.826L179.324 174.043ZM182.439 173.192L182.312 172.852L182.046 173.101L180.749 174.317L180.302 174.736H180.915H182.667H183.016L182.894 174.409L182.439 173.192ZM180.486 171.912L180.151 171.772V172.135V173.874V174.448L180.562 174.048L181.814 172.831L182.078 172.576L181.739 172.434L180.486 171.912ZM180.151 177.756V178.146L180.5 177.973L181.753 177.354L182.06 177.202L181.814 176.963L180.562 175.746L180.151 175.347V175.92V177.756ZM181.953 176.779L182.192 177.036L182.347 176.721L182.996 175.408L183.169 175.058H182.779H180.907H180.351L180.73 175.465L181.953 176.779Z" stroke="#00A8A8" stroke-width="0.484611"/>
</g>
<g style="mix-blend-mode:hard-light" filter="url(#filter13_f_179_4116)">
<path d="M183.638 175.493L184.58 176.717L182.95 177.199L182.426 177.353L182.82 177.731L184.975 179.799L185.067 179.887H185.194H186.079L185.241 180.199L185.099 180.252L185.05 180.395L184.854 180.982L184.84 180.177L184.838 180.049L184.748 179.958L182.608 177.816L182.166 177.373L182.07 177.992L181.826 179.578L180.489 178.666L179.994 178.329V178.928V181.974V182.105L180.087 182.198L180.74 182.852L180.015 182.528L179.887 182.471L179.759 182.527L179.015 182.853L179.683 182.2L179.778 182.107V181.974V178.921V178.289L179.272 178.667L177.903 179.687L177.619 178.053L177.514 177.452L177.083 177.883L175.01 179.951L174.917 180.043V180.175V180.881L174.729 180.321L174.679 180.172L174.531 180.121L173.825 179.88H174.615H174.746L174.839 179.787L176.986 177.645L177.426 177.206L176.812 177.107L175.105 176.834L176.147 175.495L176.546 174.983H175.897H172.855H172.72L172.626 175.082L171.831 175.915L172.159 175.08L172.204 174.965L172.159 174.85L171.808 173.937L172.582 174.743L172.676 174.841H172.811H175.853H176.54L176.094 174.318L175.081 173.131L176.799 172.758L177.374 172.634L176.954 172.222L174.807 170.117L174.715 170.027H174.585H173.519L174.518 169.622L174.651 169.568L174.698 169.432L174.917 168.797V169.597V169.725L175.005 169.817L177.138 172.034L177.585 172.499L177.679 171.86L177.901 170.361L179.297 171.205L179.778 171.495V170.933V167.947V167.816L179.685 167.723L178.959 166.996L179.819 167.372L179.954 167.431L180.087 167.365L180.742 167.039L180.082 167.728L179.994 167.82V167.947V170.933V171.531L180.489 171.196L181.826 170.29L182.07 171.885L182.168 172.52L182.612 172.056L184.759 169.816L184.848 169.724V169.597V168.689L185.151 169.493L185.203 169.629L185.34 169.679L186.074 169.945H185.232H185.099L185.006 170.039L182.851 172.226L182.436 172.648L183.017 172.76L184.503 173.045L183.66 174.352L183.346 174.841H183.927H186.969H187.103L187.197 174.744L187.808 174.11L187.53 174.73L187.473 174.855L187.526 174.982L187.886 175.842L187.161 175.082L187.067 174.983H186.931H183.89H183.289H183.246H182.779H180.907H180.18L180.675 175.516L181.898 176.83L182.211 177.166L182.414 176.754L183.063 175.441L183.272 175.017L183.638 175.493ZM177.806 173.046L177.457 172.719L177.292 173.168L176.845 174.385L176.688 174.811H177.142H178.887H179.688L179.104 174.263L177.806 173.046ZM177.378 176.733L177.565 177.196L177.904 176.829L179.12 175.515L179.612 174.983H178.887H177.142H176.673L176.848 175.419L177.378 176.733ZM179.378 177.997L179.815 178.177V177.704V175.92V175.099L179.264 175.707L178.086 177.006L177.783 177.34L178.2 177.512L179.378 177.997ZM179.271 174.095L179.815 174.657V173.874V172.135V171.648L179.37 171.846L178.192 172.368L177.777 172.552L178.093 172.878L179.271 174.095ZM182.509 173.166L182.342 172.721L181.995 173.046L180.698 174.263L180.114 174.811H180.915H182.667H183.124L182.964 174.383L182.509 173.166ZM180.515 171.843L180.076 171.66V172.135V173.874V174.624L180.614 174.102L181.866 172.885L182.211 172.55L181.767 172.365L180.515 171.843ZM180.076 177.756V178.266L180.533 178.04L181.786 177.421L182.188 177.222L181.866 176.909L180.614 175.693L180.076 175.17V175.92V177.756Z" stroke="#00A8A8" stroke-width="0.633722"/>
</g>
<g style="mix-blend-mode:hard-light" filter="url(#filter14_ddi_179_4116)">
<path d="M183.698 175.448L184.705 176.758L182.971 177.27L182.571 177.388L182.872 177.677L185.027 179.745L185.097 179.812H185.194H186.494L185.266 180.269L185.158 180.309L185.121 180.419L184.787 181.418L184.766 180.178L184.764 180.08L184.695 180.011L182.555 177.869L182.217 177.53L182.144 178.003L181.882 179.706L180.447 178.728L180.069 178.47V178.928V181.974V182.074L180.14 182.145L181.078 183.085L179.985 182.596L179.887 182.552L179.789 182.595L178.671 183.085L179.63 182.147L179.703 182.076V181.974V178.921V178.438L179.316 178.726L177.85 179.82L177.545 178.066L177.465 177.606L177.135 177.936L175.063 180.003L174.991 180.074V180.175V181.339L174.658 180.344L174.62 180.231L174.507 180.192L173.378 179.805H174.615H174.715L174.786 179.734L176.933 177.592L177.27 177.256L176.8 177.181L174.968 176.888L176.088 175.449L176.393 175.058H175.897H172.855H172.752L172.68 175.133L171.623 176.241L172.089 175.053L172.124 174.965L172.09 174.877L171.605 173.618L172.636 174.692L172.707 174.766H172.811H175.853H176.378L176.037 174.367L174.943 173.085L176.784 172.685L177.223 172.59L176.902 172.276L174.755 170.171L174.684 170.101H174.585H173.137L174.49 169.553L174.592 169.512L174.628 169.407L174.991 168.351V169.597V169.695L175.059 169.765L177.191 171.982L177.534 172.338L177.606 171.85L177.843 170.239L179.336 171.141L179.703 171.363V170.933V167.947V167.847L179.632 167.776L178.628 166.77L179.849 167.304L179.952 167.349L180.054 167.298L181.091 166.782L180.136 167.78L180.069 167.85V167.947V170.933V171.39L180.447 171.134L181.882 170.162L182.144 171.873L182.219 172.359L182.559 172.004L184.706 169.765L184.773 169.695V169.597V168.281L185.221 169.466L185.261 169.571L185.365 169.608L186.499 170.019H185.232H185.13L185.059 170.091L182.904 172.279L182.586 172.601L183.031 172.687L184.625 172.992L183.723 174.393L183.483 174.766H183.927H186.969H187.072L187.143 174.692L188.051 173.751L187.598 174.761L187.555 174.856L187.595 174.953L188.111 176.185L187.107 175.133L187.035 175.058H186.931H183.89H183.398L183.698 175.448ZM177.755 173.101L177.489 172.85L177.362 173.194L176.915 174.41L176.795 174.736H177.142H178.887H179.499L179.053 174.317L177.755 173.101ZM177.447 176.705L177.59 177.059L177.85 176.779L179.065 175.465L179.441 175.058H178.887H177.142H176.783L176.918 175.391L177.447 176.705ZM179.406 177.928L179.741 178.066V177.704V175.92V175.292L179.319 175.757L178.141 177.056L177.909 177.311L178.228 177.443L179.406 177.928ZM179.324 174.043L179.741 174.473V173.874V172.135V171.763L179.4 171.914L178.222 172.436L177.905 172.577L178.146 172.826L179.324 174.043ZM182.439 173.192L182.312 172.852L182.046 173.101L180.749 174.317L180.302 174.736H180.915H182.667H183.016L182.894 174.409L182.439 173.192ZM180.486 171.912L180.151 171.772V172.135V173.874V174.448L180.562 174.048L181.814 172.831L182.078 172.576L181.739 172.434L180.486 171.912ZM180.151 177.756V178.146L180.5 177.973L181.753 177.354L182.06 177.202L181.814 176.963L180.562 175.746L180.151 175.347V175.92V177.756ZM181.953 176.779L182.192 177.036L182.347 176.721L182.996 175.408L183.169 175.058H182.779H180.907H180.351L180.73 175.465L181.953 176.779Z" stroke="#33E9C6" stroke-opacity="0.2" stroke-width="0.484611"/>
</g>
<g filter="url(#filter15_f_179_4116)">
<path d="M183.771 175.391L184.862 176.809L182.997 177.359L182.751 177.432L182.936 177.61L185.091 179.678L185.134 179.719H185.194H187.012L185.299 180.356L185.232 180.381L185.21 180.448L184.703 181.962L184.672 180.18L184.671 180.12L184.629 180.077L182.489 177.935L182.281 177.726L182.236 178.017L181.952 179.866L180.395 178.805L180.162 178.646V178.928V181.974V182.036L180.205 182.079L181.5 183.375L179.947 182.681L179.887 182.654L179.826 182.681L178.241 183.376L179.565 182.081L179.61 182.037V181.974V178.921V178.624L179.372 178.801L177.784 179.985L177.453 178.082L177.404 177.799L177.201 178.002L175.128 180.069L175.085 180.113V180.175V181.91L174.57 180.374L174.547 180.304L174.477 180.28L172.819 179.712H174.615H174.677L174.72 179.668L176.867 177.526L177.074 177.319L176.786 177.273L174.798 176.955L176.015 175.392L176.202 175.151H175.897H172.855H172.792L172.748 175.197L171.363 176.649L172.003 175.019L172.024 174.965L172.003 174.911L171.352 173.22L172.703 174.627L172.747 174.673H172.811H175.853H176.176L175.966 174.427L174.771 173.027L176.764 172.594L177.034 172.536L176.837 172.342L174.689 170.237L174.646 170.194H174.585H172.659L174.455 169.467L174.518 169.441L174.54 169.377L175.085 167.794V169.597V169.657L175.126 169.7L177.259 171.918L177.469 172.137L177.514 171.836L177.772 170.087L179.384 171.061L179.61 171.198V170.933V167.947V167.886L179.567 167.842L178.214 166.488L179.886 167.218L179.95 167.246L180.012 167.215L181.528 166.461L180.203 167.844L180.162 167.887V167.947V170.933V171.214L180.395 171.057L181.951 170.002L182.236 171.859L182.282 172.158L182.491 171.94L184.638 169.7L184.68 169.657V169.597V167.771L185.308 169.433L185.333 169.497L185.397 169.521L187.029 170.112H185.232H185.169L185.125 170.157L182.971 172.344L182.775 172.543L183.049 172.595L184.778 172.927L183.802 174.443L183.654 174.673H183.927H186.969H187.032L187.076 174.627L188.354 173.302L187.683 174.799L187.656 174.858L187.681 174.917L188.391 176.614L187.039 175.197L186.995 175.151H186.931H183.89H183.587L183.771 175.391ZM177.692 173.169L177.527 173.014L177.45 173.226L177.002 174.443L176.929 174.643H177.142H178.887H179.264L178.989 174.385L177.692 173.169ZM177.533 176.67L177.621 176.888L177.781 176.715L178.996 175.402L179.228 175.151H178.887H177.142H176.922L177.004 175.356L177.533 176.67ZM179.441 177.842L179.647 177.927V177.704V175.92V175.533L179.388 175.82L178.21 177.119L178.067 177.276L178.264 177.357L179.441 177.842ZM179.391 173.978L179.647 174.243V173.874V172.135V171.906L179.438 171.999L178.26 172.521L178.065 172.608L178.213 172.761L179.391 173.978ZM182.352 173.225L182.273 173.015L182.11 173.169L180.813 174.385L180.538 174.643H180.915H182.667H182.882L182.807 174.442L182.352 173.225ZM180.45 171.998L180.244 171.911V172.135V173.874V174.227L180.497 173.981L181.749 172.765L181.912 172.607L181.703 172.52L180.45 171.998ZM180.244 177.756V177.996L180.459 177.89L181.712 177.27L181.901 177.177L181.749 177.03L180.497 175.813L180.244 175.567V175.92V177.756ZM182.021 176.716L182.168 176.874L182.264 176.68L182.912 175.366L183.019 175.151H182.779H180.907H180.565L180.798 175.402L182.021 176.716Z" stroke="#33E9E9" stroke-width="0.298222"/>
</g>
<g filter="url(#filter16_f_179_4116)">
<path d="M183.831 175.346L184.987 176.85L183.019 177.431L182.895 177.467L182.988 177.556L185.143 179.624L185.164 179.645H185.194H187.427L185.325 180.426L185.292 180.438L185.28 180.472L184.635 182.397L184.598 180.181L184.597 180.151L184.576 180.13L182.436 177.987L182.332 177.883L182.31 178.029L182.007 179.994L180.353 178.867L180.236 178.787V178.928V181.974V182.005L180.258 182.027L181.837 183.608L179.916 182.749L179.886 182.736L179.856 182.749L177.897 183.608L179.513 182.027L179.536 182.005V181.974V178.921V178.772L179.416 178.861L177.732 180.117L177.38 178.094L177.355 177.953L177.254 178.054L175.181 180.122L175.159 180.144V180.175V182.368L174.499 180.398L174.488 180.363L174.453 180.351L172.371 179.637H174.615H174.646L174.668 179.615L176.815 177.473L176.918 177.37L176.774 177.347L174.662 177.008L175.956 175.346L176.05 175.226H175.897H172.855H172.823L172.801 175.249L171.155 176.975L171.933 174.992L171.944 174.965L171.933 174.938L171.149 172.902L172.757 174.576L172.779 174.598H172.811H175.853H176.014L175.909 174.476L174.633 172.98L176.748 172.522L176.883 172.492L176.784 172.395L174.637 170.29L174.616 170.269H174.585H172.276L174.427 169.397L174.458 169.385L174.469 169.353L175.159 167.348V169.597V169.627L175.18 169.649L177.312 171.866L177.418 171.975L177.44 171.825L177.714 169.965L179.422 170.997L179.536 171.065V170.933V167.947V167.917L179.514 167.895L177.883 166.262L179.916 167.15L179.948 167.164L179.979 167.148L181.878 166.204L180.257 167.896L180.236 167.917V167.947V170.933V171.074L180.353 170.995L182.007 169.874L182.31 171.848L182.333 171.997L182.437 171.888L184.585 169.649L184.605 169.627V169.597V167.363L185.378 169.407L185.39 169.439L185.422 169.451L187.454 170.187H185.232H185.2L185.178 170.209L183.024 172.396L182.926 172.496L183.063 172.522L184.9 172.874L183.864 174.484L183.79 174.598H183.927H186.969H187L187.022 174.576L188.597 172.942L187.751 174.829L187.737 174.859L187.75 174.889L188.616 176.958L186.985 175.249L186.963 175.226H186.931H183.89H183.738L183.831 175.346ZM177.641 173.223L177.559 173.146L177.52 173.252L177.072 174.468L177.036 174.569H177.142H178.887H179.075L178.938 174.44L177.641 173.223ZM177.603 176.642L177.647 176.751L177.726 176.665L178.942 175.351L179.057 175.226H178.887H177.142H177.032L177.073 175.328L177.603 176.642ZM179.47 177.773L179.573 177.815V177.704V175.92V175.727L179.443 175.87L178.265 177.169L178.194 177.247L178.292 177.288L179.47 177.773ZM179.445 173.926L179.573 174.059V173.874V172.135V172.021L179.468 172.067L178.29 172.59L178.193 172.633L178.267 172.71L179.445 173.926ZM182.282 173.251L182.243 173.146L182.161 173.223L180.864 174.44L180.726 174.569H180.915H182.667H182.774L182.737 174.468L182.282 173.251ZM180.422 172.066L180.318 172.023V172.135V173.874V174.051L180.445 173.928L181.697 172.711L181.779 172.632L181.674 172.589L180.422 172.066ZM180.318 177.756V177.876L180.426 177.823L181.679 177.203L181.773 177.157L181.697 177.083L180.445 175.866L180.318 175.743V175.92V177.756ZM182.076 176.665L182.149 176.744L182.197 176.647L182.846 175.333L182.899 175.226H182.779H180.907H180.736L180.853 175.351L182.076 176.665Z" stroke="white" stroke-width="0.149111"/>
</g>
<g style="mix-blend-mode:hard-light" filter="url(#filter17_f_179_4116)">
<ellipse cx="210.5" cy="178.514" rx="8.1" ry="8.108" fill="#33E9C6" fill-opacity="0.1"/>
</g>
<g style="mix-blend-mode:hard-light" filter="url(#filter18_f_179_4116)">
<path d="M213.372 178.92L214.141 179.917L212.816 180.301L212.522 180.387L212.743 180.598L214.373 182.158L214.424 182.207H214.495H215.529L214.56 182.568L214.481 182.598L214.454 182.678L214.196 183.465L214.179 182.505L214.178 182.434L214.128 182.384L212.505 180.754L212.259 180.507L212.206 180.851L212.003 182.162L210.906 181.408L210.629 181.218V181.553V183.865V183.938L210.681 183.989L211.405 184.713L210.555 184.33L210.483 184.297L210.412 184.329L209.534 184.714L210.282 183.991L210.335 183.94V183.865V181.553V181.2L210.053 181.412L208.933 182.252L208.695 180.911L208.636 180.579L208.397 180.816L206.823 182.384L206.771 182.435V182.508V183.421L206.51 182.636L206.483 182.553L206.401 182.525L205.491 182.207H206.477H206.549L206.601 182.156L208.231 180.539L208.478 180.295L208.135 180.24L206.755 180.02L207.6 178.92L207.818 178.636H207.461H205.156H205.079L205.026 178.692L204.253 179.524L204.617 178.595L204.642 178.531L204.617 178.467L204.238 177.497L205.028 178.323L205.08 178.377H205.156H207.461H207.843L207.595 178.086L206.76 177.108L208.145 176.806L208.463 176.736L208.231 176.508L206.6 174.906L206.549 174.855H206.477H205.433L206.405 174.494L206.483 174.465L206.51 174.386L206.792 173.557V174.526V174.597L206.843 174.649L208.48 176.321L208.728 176.574L208.78 176.224L208.966 174.989L210.089 175.667L210.356 175.829V175.516V173.275V173.201L210.305 173.15L209.523 172.372L210.467 172.789L210.544 172.823L210.618 172.786L211.436 172.373L210.692 173.153L210.644 173.204V173.275V175.516V175.85L210.919 175.662L212.017 174.913L212.22 176.225L212.275 176.579L212.522 176.319L214.11 174.647L214.158 174.596V174.526V173.447L214.52 174.392L214.549 174.467L214.625 174.495L215.513 174.813H214.516H214.442L214.39 174.866L212.76 176.532L212.528 176.768L212.854 176.828L214.078 177.054L213.384 178.126L213.209 178.398H213.532H215.844H215.92L215.972 178.344L216.68 177.604L216.316 178.424L216.285 178.494L216.314 178.564L216.707 179.502L215.952 178.692L215.9 178.636H215.823H213.511H213.153L213.372 178.92ZM208.845 177.172L208.654 176.994L208.561 177.238L208.21 178.159L208.118 178.398H208.374H209.716H210.165L209.836 178.093L208.845 177.172ZM208.625 179.897L208.729 180.155L208.918 179.951L209.845 178.953L210.121 178.657H209.716H208.388H208.128L208.225 178.899L208.625 179.897ZM210.128 180.817L210.371 180.915V180.653V179.297V178.841L210.064 179.179L209.164 180.169L208.995 180.356L209.228 180.451L210.128 180.817ZM210.068 177.881L210.371 178.193V177.758V176.437V176.168L210.124 176.275L209.224 176.669L208.991 176.771L209.168 176.953L210.068 177.881ZM212.411 177.24L212.319 176.993L212.126 177.172L211.136 178.093L210.807 178.398H211.255H212.591H212.845L212.756 178.16L212.411 177.24ZM210.908 176.274L210.665 176.173V176.437V177.758V178.177L210.964 177.884L211.913 176.956L212.104 176.77L211.857 176.668L210.908 176.274ZM210.665 180.653V180.941L210.921 180.81L211.87 180.325L212.089 180.213L211.912 180.042L210.964 179.121L210.665 178.831V179.248V180.653ZM212.033 179.916L212.211 180.106L212.321 179.871L212.792 178.873L212.911 178.622H212.633H211.227H210.821L211.099 178.919L212.033 179.916Z" stroke="#00A8A8" stroke-width="0.352444"/>
</g>
<g style="mix-blend-mode:hard-light" filter="url(#filter19_f_179_4116)">
<path d="M213.329 178.953L214.05 179.887L212.801 180.249L212.417 180.361L212.705 180.637L214.336 182.197L214.403 182.261H214.495H215.228L214.541 182.517L214.437 182.556L214.403 182.662L214.245 183.143L214.234 182.504L214.232 182.412L214.167 182.346L212.543 180.716L212.222 180.393L212.152 180.843L211.962 182.069L210.936 181.363L210.575 181.115V181.553V183.865V183.96L210.643 184.028L211.157 184.542L210.577 184.28L210.484 184.238L210.39 184.279L209.789 184.543L210.319 184.03L210.39 183.963V183.865V181.553V181.092L210.021 181.368L208.971 182.156L208.749 180.901L208.672 180.467L208.359 180.778L206.785 182.345L206.717 182.413V182.508V183.086L206.562 182.619L206.526 182.511L206.419 182.474L205.811 182.261H206.477H206.572L206.639 182.194L208.269 180.578L208.592 180.258L208.143 180.187L206.853 179.981L207.643 178.953L207.928 178.582H207.461H205.156H205.055L204.987 178.655L204.407 179.278L204.667 178.615L204.7 178.531L204.667 178.447L204.388 177.732L204.989 178.36L205.057 178.431H205.156H207.461H207.96L207.636 178.051L206.86 177.142L208.156 176.859L208.572 176.768L208.269 176.469L206.638 174.867L206.571 174.801H206.477H205.734L206.423 174.545L206.526 174.507L206.561 174.403L206.738 173.884V174.526V174.62L206.804 174.687L208.441 176.359L208.765 176.69L208.834 176.232L209.008 175.077L210.061 175.714L210.411 175.925V175.516V173.275V173.179L210.343 173.111L209.768 172.54L210.446 172.839L210.545 172.883L210.642 172.834L211.18 172.563L210.653 173.116L210.589 173.182V173.275V175.516V175.953L210.95 175.707L211.976 175.006L212.166 176.233L212.238 176.697L212.561 176.357L214.149 174.684L214.213 174.618V174.526V173.74L214.47 174.411L214.508 174.51L214.607 174.546L215.201 174.759H214.516H214.419L214.352 174.828L212.721 176.494L212.419 176.803L212.844 176.881L213.988 177.093L213.339 178.097L213.109 178.452H213.532H215.844H215.943L216.011 178.381L216.505 177.865L216.266 178.402L216.226 178.493L216.264 178.585L216.54 179.243L215.992 178.655L215.924 178.582H215.823H213.511H213.042L213.329 178.953ZM208.882 177.132L208.632 176.9L208.51 177.219L208.159 178.14L208.04 178.452H208.374H209.716H210.303L209.873 178.053L208.882 177.132ZM208.575 179.917L208.71 180.254L208.958 179.988L209.885 178.99L210.245 178.603H209.716H208.388H208.047L208.174 178.919L208.575 179.917ZM210.108 180.867L210.425 180.996V180.653V179.297V178.7L210.024 179.142L209.124 180.133L208.902 180.377L209.208 180.501L210.108 180.867ZM210.029 177.918L210.425 178.327V177.758V176.437V176.085L210.102 176.226L209.202 176.619L208.898 176.752L209.129 176.991L210.029 177.918ZM212.462 177.221L212.342 176.898L212.09 177.132L211.099 178.053L210.669 178.452H211.255H212.591H212.923L212.807 178.141L212.462 177.221ZM210.929 176.224L210.61 176.092V176.437V177.758V178.306L211.002 177.923L211.951 176.995L212.2 176.751L211.878 176.618L210.929 176.224ZM210.61 180.653V181.03L210.946 180.858L211.894 180.374L212.181 180.227L211.95 180.003L211.001 179.082L210.61 178.703V179.248V180.653ZM211.994 179.953L212.226 180.201L212.37 179.894L212.841 178.896L212.996 178.568H212.633H211.227H210.696L211.059 178.956L211.994 179.953Z" stroke="#00A8A8" stroke-width="0.460889"/>
</g>
<g style="mix-blend-mode:hard-light" filter="url(#filter20_ddi_179_4116)">
<path d="M213.372 178.92L214.141 179.917L212.816 180.301L212.522 180.387L212.743 180.598L214.373 182.158L214.424 182.207H214.495H215.529L214.56 182.568L214.481 182.598L214.454 182.678L214.196 183.465L214.179 182.505L214.178 182.434L214.128 182.384L212.505 180.754L212.259 180.507L212.206 180.851L212.003 182.162L210.906 181.408L210.629 181.218V181.553V183.865V183.938L210.681 183.989L211.405 184.713L210.555 184.33L210.483 184.297L210.412 184.329L209.534 184.714L210.282 183.991L210.335 183.94V183.865V181.553V181.2L210.053 181.412L208.933 182.252L208.695 180.911L208.636 180.579L208.397 180.816L206.823 182.384L206.771 182.435V182.508V183.421L206.51 182.636L206.483 182.553L206.401 182.525L205.491 182.207H206.477H206.549L206.601 182.156L208.231 180.539L208.478 180.295L208.135 180.24L206.755 180.02L207.6 178.92L207.818 178.636H207.461H205.156H205.079L205.026 178.692L204.253 179.524L204.617 178.595L204.642 178.531L204.617 178.467L204.238 177.497L205.028 178.323L205.08 178.377H205.156H207.461H207.843L207.595 178.086L206.76 177.108L208.145 176.806L208.463 176.736L208.231 176.508L206.6 174.906L206.549 174.855H206.477H205.433L206.405 174.494L206.483 174.465L206.51 174.386L206.792 173.557V174.526V174.597L206.843 174.649L208.48 176.321L208.728 176.574L208.78 176.224L208.966 174.989L210.089 175.667L210.356 175.829V175.516V173.275V173.201L210.305 173.15L209.523 172.372L210.467 172.789L210.544 172.823L210.618 172.786L211.436 172.373L210.692 173.153L210.644 173.204V173.275V175.516V175.85L210.919 175.662L212.017 174.913L212.22 176.225L212.275 176.579L212.522 176.319L214.11 174.647L214.158 174.596V174.526V173.447L214.52 174.392L214.549 174.467L214.625 174.495L215.513 174.813H214.516H214.442L214.39 174.866L212.76 176.532L212.528 176.768L212.854 176.828L214.078 177.054L213.384 178.126L213.209 178.398H213.532H215.844H215.92L215.972 178.344L216.68 177.604L216.316 178.424L216.285 178.494L216.314 178.564L216.707 179.502L215.952 178.692L215.9 178.636H215.823H213.511H213.153L213.372 178.92ZM208.845 177.172L208.654 176.994L208.561 177.238L208.21 178.159L208.118 178.398H208.374H209.716H210.165L209.836 178.093L208.845 177.172ZM208.625 179.897L208.729 180.155L208.918 179.951L209.845 178.953L210.121 178.657H209.716H208.388H208.128L208.225 178.899L208.625 179.897ZM210.128 180.817L210.371 180.915V180.653V179.297V178.841L210.064 179.179L209.164 180.169L208.995 180.356L209.228 180.451L210.128 180.817ZM210.068 177.881L210.371 178.193V177.758V176.437V176.168L210.124 176.275L209.224 176.669L208.991 176.771L209.168 176.953L210.068 177.881ZM212.411 177.24L212.319 176.993L212.126 177.172L211.136 178.093L210.807 178.398H211.255H212.591H212.845L212.756 178.16L212.411 177.24ZM210.908 176.274L210.665 176.173V176.437V177.758V178.177L210.964 177.884L211.913 176.956L212.104 176.77L211.857 176.668L210.908 176.274ZM210.665 180.653V180.941L210.921 180.81L211.87 180.325L212.089 180.213L211.912 180.042L210.964 179.121L210.665 178.831V179.248V180.653ZM212.033 179.916L212.211 180.106L212.321 179.871L212.792 178.873L212.911 178.622H212.633H211.227H210.821L211.099 178.919L212.033 179.916Z" stroke="#33E9C6" stroke-opacity="0.2" stroke-width="0.352444"/>
</g>
<g filter="url(#filter21_f_179_4116)">
<path d="M213.425 178.878L214.256 179.954L212.835 180.366L212.654 180.419L212.79 180.549L214.42 182.109L214.452 182.139H214.495H215.904L214.584 182.632L214.535 182.65L214.519 182.7L214.136 183.867L214.112 182.507L214.111 182.463L214.08 182.432L212.457 180.802L212.306 180.65L212.273 180.862L212.053 182.279L210.867 181.463L210.697 181.347V181.553V183.865V183.91L210.729 183.941L211.715 184.927L210.527 184.391L210.483 184.371L210.439 184.391L209.215 184.928L210.235 183.943L210.268 183.911V183.865V181.553V181.336L210.094 181.466L208.886 182.372L208.629 180.922L208.592 180.718L208.445 180.865L206.871 182.432L206.839 182.463V182.508V183.841L206.446 182.657L206.429 182.606L206.379 182.589L205.092 182.139H206.477H206.521L206.553 182.108L208.183 180.491L208.335 180.341L208.124 180.307L206.632 180.069L207.547 178.878L207.681 178.704H207.461H205.156H205.108L205.076 178.738L204.059 179.831L204.554 178.571L204.569 178.531L204.554 178.492L204.05 177.203L205.077 178.276L205.109 178.309H205.156H207.461H207.696L207.543 178.13L206.635 177.066L208.13 176.74L208.326 176.697L208.183 176.556L206.553 174.954L206.521 174.923H206.477H205.056L206.381 174.43L206.429 174.412L206.446 174.364L206.86 173.149V174.526V174.57L206.891 174.601L208.529 176.274L208.681 176.429L208.713 176.214L208.914 174.878L210.124 175.609L210.289 175.709V175.516V173.275V173.23L210.257 173.198L209.216 172.163L210.495 172.727L210.542 172.748L210.587 172.725L211.756 172.136L210.741 173.2L210.711 173.231V173.275V175.516V175.722L210.881 175.606L212.067 174.796L212.287 176.215L212.321 176.433L212.473 176.273L214.061 174.6L214.091 174.569V174.526V173.081L214.584 174.368L214.601 174.414L214.648 174.431L215.903 174.881H214.516H214.471L214.439 174.913L212.808 176.579L212.666 176.724L212.866 176.761L214.19 177.006L213.441 178.163L213.333 178.33H213.532H215.844H215.891L215.923 178.297L216.899 177.277L216.378 178.452L216.359 178.495L216.377 178.538L216.916 179.826L215.903 178.738L215.871 178.704H215.823H213.511H213.291L213.425 178.878ZM208.799 177.222L208.682 177.112L208.624 177.263L208.273 178.183L208.217 178.33H208.374H209.716H209.992L209.79 178.142L208.799 177.222ZM208.688 179.872L208.752 180.03L208.868 179.905L209.796 178.907L209.965 178.725H209.716H208.388H208.228L208.288 178.874L208.688 179.872ZM210.154 180.754L210.303 180.814V180.653V179.297V179.016L210.114 179.224L209.214 180.215L209.11 180.33L209.254 180.388L210.154 180.754ZM210.116 177.834L210.303 178.026V177.758V176.437V176.271L210.151 176.338L209.251 176.731L209.108 176.794L209.217 176.906L210.116 177.834ZM212.348 177.263L212.291 177.112L212.173 177.222L211.182 178.142L210.979 178.33H211.255H212.591H212.747L212.692 178.184L212.348 177.263ZM210.882 176.337L210.732 176.275V176.437V177.758V178.016L210.917 177.836L211.865 176.908L211.983 176.793L211.831 176.73L210.882 176.337ZM210.732 180.653V180.83L210.89 180.75L211.839 180.265L211.974 180.196L211.865 180.091L210.916 179.17L210.732 178.992V179.248V180.653ZM212.083 179.87L212.192 179.987L212.26 179.842L212.731 178.844L212.804 178.69H212.633H211.227H210.977L211.148 178.872L212.083 179.87Z" stroke="#33E9E9" stroke-width="0.216889"/>
</g>
<g filter="url(#filter22_f_179_4116)">
<path d="M213.468 178.845L214.347 179.984L212.85 180.418L212.759 180.445L212.827 180.51L214.458 182.07L214.473 182.085H214.495H216.205L214.603 182.683L214.578 182.692L214.57 182.716L214.087 184.189L214.057 182.508L214.057 182.486L214.042 182.47L212.418 180.84L212.343 180.764L212.326 180.87L212.094 182.373L210.836 181.508L210.751 181.45V181.553V183.865V183.887L210.767 183.903L211.963 185.099L210.505 184.441L210.483 184.431L210.461 184.441L208.96 185.099L210.197 183.904L210.213 183.888V183.865V181.553V181.444L210.127 181.509L208.848 182.468L208.575 180.932L208.557 180.83L208.484 180.903L206.909 182.47L206.893 182.486V182.508V184.176L206.395 182.674L206.386 182.649L206.361 182.64L204.772 182.085H206.477H206.499L206.515 182.069L208.145 180.453L208.221 180.378L208.116 180.361L206.533 180.108L207.504 178.845L207.571 178.758H207.461H205.156H205.132L205.116 178.775L203.905 180.077L204.503 178.551L204.511 178.531L204.503 178.511L203.9 176.967L205.116 178.238L205.132 178.255H205.156H207.461H207.578L207.502 178.166L206.535 177.033L208.119 176.687L208.217 176.665L208.145 176.595L206.515 174.993L206.499 174.977H206.477H204.754L206.362 174.38L206.386 174.371L206.394 174.346L206.914 172.822V174.526V174.548L206.93 174.563L208.567 176.236L208.644 176.314L208.66 176.206L208.873 174.79L210.152 175.563L210.234 175.612V175.516V173.275V173.252L210.219 173.236L208.971 171.995L210.517 172.678L210.54 172.688L210.563 172.677L212.012 171.947L210.781 173.237L210.766 173.253V173.275V175.516V175.619L210.85 175.561L212.108 174.703L212.34 176.206L212.357 176.315L212.433 176.235L214.021 174.563L214.036 174.547V174.526V172.788L214.634 174.348L214.643 174.371L214.667 174.38L216.214 174.935H214.516H214.493L214.478 174.951L212.847 176.617L212.776 176.69L212.876 176.708L214.279 176.967L213.487 178.192L213.433 178.276H213.532H215.844H215.868L215.884 178.259L217.075 177.015L216.427 178.474L216.418 178.495L216.427 178.517L217.083 180.085L215.863 178.775L215.847 178.758H215.823H213.511H213.401L213.468 178.845ZM208.762 177.262L208.704 177.207L208.675 177.282L208.324 178.203L208.295 178.276H208.374H209.716H209.854L209.753 178.182L208.762 177.262ZM208.738 179.851L208.77 179.931L208.829 179.868L209.756 178.87L209.841 178.779H209.716H208.388H208.308L208.338 178.853L208.738 179.851ZM210.174 180.704L210.249 180.734V180.653V179.297V179.157L210.154 179.261L209.255 180.251L209.202 180.309L209.274 180.338L210.174 180.704ZM210.155 177.796L210.249 177.892V177.758V176.437V176.354L210.173 176.387L209.273 176.781L209.201 176.812L209.256 176.868L210.155 177.796ZM212.297 177.282L212.269 177.206L212.209 177.262L211.219 178.182L211.117 178.276H211.255H212.591H212.669L212.641 178.203L212.297 177.282ZM210.862 176.387L210.787 176.356V176.437V177.758V177.887L210.879 177.797L211.827 176.869L211.886 176.812L211.81 176.78L210.862 176.387ZM210.787 180.653V180.742L210.866 180.702L211.814 180.217L211.882 180.182L211.827 180.129L210.879 179.209L210.787 179.12V179.248V180.653ZM212.122 179.833L212.177 179.891L212.211 179.819L212.682 178.821L212.718 178.744H212.633H211.227H211.102L211.188 178.835L212.122 179.833Z" stroke="white" stroke-width="0.108444"/>
</g>
<defs>
<filter id="filter0_f_179_4116" x="67.9132" y="37.0065" width="205.773" height="143.96" filterUnits="userSpaceOnUse" color-interpolation-filters="sRGB">
<feFlood flood-opacity="0" result="BackgroundImageFix"/>
<feBlend mode="normal" in="SourceGraphic" in2="BackgroundImageFix" result="shape"/>
<feGaussianBlur stdDeviation="8.74333" result="effect1_foregroundBlur_179_4116"/>
</filter>
<filter id="filter1_f_179_4116" x="79.571" y="48.6643" width="182.458" height="120.644" filterUnits="userSpaceOnUse" color-interpolation-filters="sRGB">
<feFlood flood-opacity="0" result="BackgroundImageFix"/>
<feBlend mode="normal" in="SourceGraphic" in2="BackgroundImageFix" result="shape"/>
<feGaussianBlur stdDeviation="2.91444" result="effect1_foregroundBlur_179_4116"/>
</filter>
<filter id="filter2_ddi_179_4116" x="77.8223" y="52.7445" width="185.955" height="124.142" filterUnits="userSpaceOnUse" color-interpolation-filters="sRGB">
<feFlood flood-opacity="0" result="BackgroundImageFix"/>
<feColorMatrix in="SourceAlpha" type="matrix" values="0 0 0 0 0 0 0 0 0 0 0 0 0 0 0 0 0 0 127 0" result="hardAlpha"/>
<feOffset dy="3.78878"/>
<feGaussianBlur stdDeviation="1.45722"/>
<feColorMatrix type="matrix" values="0 0 0 0 0 0 0 0 0 0.3 0 0 0 0 0.275 0 0 0 0.7 0"/>
<feBlend mode="multiply" in2="BackgroundImageFix" result="effect1_dropShadow_179_4116"/>
<feColorMatrix in="SourceAlpha" type="matrix" values="0 0 0 0 0 0 0 0 0 0 0 0 0 0 0 0 0 0 127 0" result="hardAlpha"/>
<feOffset dy="5.82889"/>
<feGaussianBlur stdDeviation="3.78878"/>
<feColorMatrix type="matrix" values="0 0 0 0 0 0 0 0 0 0.6 0 0 0 0 0.6 0 0 0 1 0"/>
<feBlend mode="color-dodge" in2="effect1_dropShadow_179_4116" result="effect2_dropShadow_179_4116"/>
<feBlend mode="normal" in="SourceGraphic" in2="effect2_dropShadow_179_4116" result="shape"/>
<feColorMatrix in="SourceAlpha" type="matrix" values="0 0 0 0 0 0 0 0 0 0 0 0 0 0 0 0 0 0 127 0" result="hardAlpha"/>
<feOffset dx="-0.378878" dy="0.757756"/>
<feGaussianBlur stdDeviation="0.189439"/>
<feComposite in2="hardAlpha" operator="arithmetic" k2="-1" k3="1"/>
<feColorMatrix type="matrix" values="0 0 0 0 1 0 0 0 0 1 0 0 0 0 1 0 0 0 0.5 0"/>
<feBlend mode="normal" in2="shape" result="effect3_innerShadow_179_4116"/>
</filter>
<filter id="filter3_f_179_4116" x="84.817" y="53.9103" width="171.966" height="110.152" filterUnits="userSpaceOnUse" color-interpolation-filters="sRGB">
<feFlood flood-opacity="0" result="BackgroundImageFix"/>
<feBlend mode="normal" in="SourceGraphic" in2="BackgroundImageFix" result="shape"/>
<feGaussianBlur stdDeviation="0.291444" result="effect1_foregroundBlur_179_4116"/>
</filter>
<filter id="filter4_f_179_4116" x="85.0113" y="54.1046" width="171.577" height="109.764" filterUnits="userSpaceOnUse" color-interpolation-filters="sRGB">
<feFlood flood-opacity="0" result="BackgroundImageFix"/>
<feBlend mode="normal" in="SourceGraphic" in2="BackgroundImageFix" result="shape"/>
<feGaussianBlur stdDeviation="0.194296" result="effect1_foregroundBlur_179_4116"/>
</filter>
<filter id="filter5_f_179_4116" x="128.157" y="182.157" width="37.7386" height="37.7386" filterUnits="userSpaceOnUse" color-interpolation-filters="sRGB">
<feFlood flood-opacity="0" result="BackgroundImageFix"/>
<feBlend mode="normal" in="SourceGraphic" in2="BackgroundImageFix" result="shape"/>
<feGaussianBlur stdDeviation="1.62667" result="effect1_foregroundBlur_179_4116"/>
</filter>
<filter id="filter6_f_179_4116" x="130.76" y="184.76" width="32.5335" height="32.5333" filterUnits="userSpaceOnUse" color-interpolation-filters="sRGB">
<feFlood flood-opacity="0" result="BackgroundImageFix"/>
<feBlend mode="normal" in="SourceGraphic" in2="BackgroundImageFix" result="shape"/>
<feGaussianBlur stdDeviation="1.62667" result="effect1_foregroundBlur_179_4116"/>
</filter>
<filter id="filter7_f_179_4116" x="132.929" y="186.929" width="28.1957" height="28.1955" filterUnits="userSpaceOnUse" color-interpolation-filters="sRGB">
<feFlood flood-opacity="0" result="BackgroundImageFix"/>
<feBlend mode="normal" in="SourceGraphic" in2="BackgroundImageFix" result="shape"/>
<feGaussianBlur stdDeviation="0.542222" result="effect1_foregroundBlur_179_4116"/>
</filter>
<filter id="filter8_ddi_179_4116" x="132.603" y="187.688" width="28.8464" height="28.8462" filterUnits="userSpaceOnUse" color-interpolation-filters="sRGB">
<feFlood flood-opacity="0" result="BackgroundImageFix"/>
<feColorMatrix in="SourceAlpha" type="matrix" values="0 0 0 0 0 0 0 0 0 0 0 0 0 0 0 0 0 0 127 0" result="hardAlpha"/>
<feOffset dy="0.704889"/>
<feGaussianBlur stdDeviation="0.271111"/>
<feColorMatrix type="matrix" values="0 0 0 0 0 0 0 0 0 0.3 0 0 0 0 0.275 0 0 0 0.7 0"/>
<feBlend mode="multiply" in2="BackgroundImageFix" result="effect1_dropShadow_179_4116"/>
<feColorMatrix in="SourceAlpha" type="matrix" values="0 0 0 0 0 0 0 0 0 0 0 0 0 0 0 0 0 0 127 0" result="hardAlpha"/>
<feOffset dy="1.08444"/>
<feGaussianBlur stdDeviation="0.704889"/>
<feColorMatrix type="matrix" values="0 0 0 0 0 0 0 0 0 0.6 0 0 0 0 0.6 0 0 0 1 0"/>
<feBlend mode="color-dodge" in2="effect1_dropShadow_179_4116" result="effect2_dropShadow_179_4116"/>
<feBlend mode="normal" in="SourceGraphic" in2="effect2_dropShadow_179_4116" result="shape"/>
<feColorMatrix in="SourceAlpha" type="matrix" values="0 0 0 0 0 0 0 0 0 0 0 0 0 0 0 0 0 0 127 0" result="hardAlpha"/>
<feOffset dx="-0.0704889" dy="0.140978"/>
<feGaussianBlur stdDeviation="0.0352444"/>
<feComposite in2="hardAlpha" operator="arithmetic" k2="-1" k3="1"/>
<feColorMatrix type="matrix" values="0 0 0 0 1 0 0 0 0 1 0 0 0 0 1 0 0 0 0.5 0"/>
<feBlend mode="normal" in2="shape" result="effect3_innerShadow_179_4116"/>
</filter>
<filter id="filter9_f_179_4116" x="133.905" y="187.905" width="26.2437" height="26.2435" filterUnits="userSpaceOnUse" color-interpolation-filters="sRGB">
<feFlood flood-opacity="0" result="BackgroundImageFix"/>
<feBlend mode="normal" in="SourceGraphic" in2="BackgroundImageFix" result="shape"/>
<feGaussianBlur stdDeviation="0.0542222" result="effect1_foregroundBlur_179_4116"/>
</filter>
<filter id="filter10_f_179_4116" x="133.941" y="187.941" width="26.1714" height="26.1712" filterUnits="userSpaceOnUse" color-interpolation-filters="sRGB">
<feFlood flood-opacity="0" result="BackgroundImageFix"/>
<feBlend mode="normal" in="SourceGraphic" in2="BackgroundImageFix" result="shape"/>
<feGaussianBlur stdDeviation="0.0361481" result="effect1_foregroundBlur_179_4116"/>
</filter>
<filter id="filter11_f_179_4116" x="166.921" y="161.921" width="25.9455" height="25.9453" filterUnits="userSpaceOnUse" color-interpolation-filters="sRGB">
<feFlood flood-opacity="0" result="BackgroundImageFix"/>
<feBlend mode="normal" in="SourceGraphic" in2="BackgroundImageFix" result="shape"/>
<feGaussianBlur stdDeviation="1.11833" result="effect1_foregroundBlur_179_4116"/>
</filter>
<filter id="filter12_f_179_4116" x="168.71" y="163.71" width="22.3669" height="22.3666" filterUnits="userSpaceOnUse" color-interpolation-filters="sRGB">
<feFlood flood-opacity="0" result="BackgroundImageFix"/>
<feBlend mode="normal" in="SourceGraphic" in2="BackgroundImageFix" result="shape"/>
<feGaussianBlur stdDeviation="1.11833" result="effect1_foregroundBlur_179_4116"/>
</filter>
<filter id="filter13_f_179_4116" x="170.201" y="165.201" width="19.3847" height="19.3844" filterUnits="userSpaceOnUse" color-interpolation-filters="sRGB">
<feFlood flood-opacity="0" result="BackgroundImageFix"/>
<feBlend mode="normal" in="SourceGraphic" in2="BackgroundImageFix" result="shape"/>
<feGaussianBlur stdDeviation="0.372778" result="effect1_foregroundBlur_179_4116"/>
</filter>
<filter id="filter14_ddi_179_4116" x="169.978" y="165.723" width="19.832" height="19.8318" filterUnits="userSpaceOnUse" color-interpolation-filters="sRGB">
<feFlood flood-opacity="0" result="BackgroundImageFix"/>
<feColorMatrix in="SourceAlpha" type="matrix" values="0 0 0 0 0 0 0 0 0 0 0 0 0 0 0 0 0 0 127 0" result="hardAlpha"/>
<feOffset dy="0.484611"/>
<feGaussianBlur stdDeviation="0.186389"/>
<feColorMatrix type="matrix" values="0 0 0 0 0 0 0 0 0 0.3 0 0 0 0 0.275 0 0 0 0.7 0"/>
<feBlend mode="multiply" in2="BackgroundImageFix" result="effect1_dropShadow_179_4116"/>
<feColorMatrix in="SourceAlpha" type="matrix" values="0 0 0 0 0 0 0 0 0 0 0 0 0 0 0 0 0 0 127 0" result="hardAlpha"/>
<feOffset dy="0.745556"/>
<feGaussianBlur stdDeviation="0.484611"/>
<feColorMatrix type="matrix" values="0 0 0 0 0 0 0 0 0 0.6 0 0 0 0 0.6 0 0 0 1 0"/>
<feBlend mode="color-dodge" in2="effect1_dropShadow_179_4116" result="effect2_dropShadow_179_4116"/>
<feBlend mode="normal" in="SourceGraphic" in2="effect2_dropShadow_179_4116" result="shape"/>
<feColorMatrix in="SourceAlpha" type="matrix" values="0 0 0 0 0 0 0 0 0 0 0 0 0 0 0 0 0 0 127 0" result="hardAlpha"/>
<feOffset dx="-0.0484611" dy="0.0969222"/>
<feGaussianBlur stdDeviation="0.0242306"/>
<feComposite in2="hardAlpha" operator="arithmetic" k2="-1" k3="1"/>
<feColorMatrix type="matrix" values="0 0 0 0 1 0 0 0 0 1 0 0 0 0 1 0 0 0 0.5 0"/>
<feBlend mode="normal" in2="shape" result="effect3_innerShadow_179_4116"/>
</filter>
<filter id="filter15_f_179_4116" x="170.872" y="165.872" width="18.0427" height="18.0424" filterUnits="userSpaceOnUse" color-interpolation-filters="sRGB">
<feFlood flood-opacity="0" result="BackgroundImageFix"/>
<feBlend mode="normal" in="SourceGraphic" in2="BackgroundImageFix" result="shape"/>
<feGaussianBlur stdDeviation="0.0372778" result="effect1_foregroundBlur_179_4116"/>
</filter>
<filter id="filter16_f_179_4116" x="170.897" y="165.897" width="17.993" height="17.9927" filterUnits="userSpaceOnUse" color-interpolation-filters="sRGB">
<feFlood flood-opacity="0" result="BackgroundImageFix"/>
<feBlend mode="normal" in="SourceGraphic" in2="BackgroundImageFix" result="shape"/>
<feGaussianBlur stdDeviation="0.0248519" result="effect1_foregroundBlur_179_4116"/>
</filter>
<filter id="filter17_f_179_4116" x="200.774" y="168.779" width="19.4535" height="19.4694" filterUnits="userSpaceOnUse" color-interpolation-filters="sRGB">
<feFlood flood-opacity="0" result="BackgroundImageFix"/>
<feBlend mode="normal" in="SourceGraphic" in2="BackgroundImageFix" result="shape"/>
<feGaussianBlur stdDeviation="0.813333" result="effect1_foregroundBlur_179_4116"/>
</filter>
<filter id="filter18_f_179_4116" x="202.123" y="170.13" width="16.7533" height="16.7668" filterUnits="userSpaceOnUse" color-interpolation-filters="sRGB">
<feFlood flood-opacity="0" result="BackgroundImageFix"/>
<feBlend mode="normal" in="SourceGraphic" in2="BackgroundImageFix" result="shape"/>
<feGaussianBlur stdDeviation="0.813333" result="effect1_foregroundBlur_179_4116"/>
</filter>
<filter id="filter19_f_179_4116" x="203.208" y="171.215" width="14.5844" height="14.5979" filterUnits="userSpaceOnUse" color-interpolation-filters="sRGB">
<feFlood flood-opacity="0" result="BackgroundImageFix"/>
<feBlend mode="normal" in="SourceGraphic" in2="BackgroundImageFix" result="shape"/>
<feGaussianBlur stdDeviation="0.271111" result="effect1_foregroundBlur_179_4116"/>
</filter>
<filter id="filter20_ddi_179_4116" x="203.045" y="171.594" width="14.9098" height="14.9232" filterUnits="userSpaceOnUse" color-interpolation-filters="sRGB">
<feFlood flood-opacity="0" result="BackgroundImageFix"/>
<feColorMatrix in="SourceAlpha" type="matrix" values="0 0 0 0 0 0 0 0 0 0 0 0 0 0 0 0 0 0 127 0" result="hardAlpha"/>
<feOffset dy="0.352444"/>
<feGaussianBlur stdDeviation="0.135556"/>
<feColorMatrix type="matrix" values="0 0 0 0 0 0 0 0 0 0.3 0 0 0 0 0.275 0 0 0 0.7 0"/>
<feBlend mode="multiply" in2="BackgroundImageFix" result="effect1_dropShadow_179_4116"/>
<feColorMatrix in="SourceAlpha" type="matrix" values="0 0 0 0 0 0 0 0 0 0 0 0 0 0 0 0 0 0 127 0" result="hardAlpha"/>
<feOffset dy="0.542222"/>
<feGaussianBlur stdDeviation="0.352444"/>
<feColorMatrix type="matrix" values="0 0 0 0 0 0 0 0 0 0.6 0 0 0 0 0.6 0 0 0 1 0"/>
<feBlend mode="color-dodge" in2="effect1_dropShadow_179_4116" result="effect2_dropShadow_179_4116"/>
<feBlend mode="normal" in="SourceGraphic" in2="effect2_dropShadow_179_4116" result="shape"/>
<feColorMatrix in="SourceAlpha" type="matrix" values="0 0 0 0 0 0 0 0 0 0 0 0 0 0 0 0 0 0 127 0" result="hardAlpha"/>
<feOffset dx="-0.0352444" dy="0.0704889"/>
<feGaussianBlur stdDeviation="0.0176222"/>
<feComposite in2="hardAlpha" operator="arithmetic" k2="-1" k3="1"/>
<feColorMatrix type="matrix" values="0 0 0 0 1 0 0 0 0 1 0 0 0 0 1 0 0 0 0.5 0"/>
<feBlend mode="normal" in2="shape" result="effect3_innerShadow_179_4116"/>
</filter>
<filter id="filter21_f_179_4116" x="203.696" y="171.703" width="13.6084" height="13.6219" filterUnits="userSpaceOnUse" color-interpolation-filters="sRGB">
<feFlood flood-opacity="0" result="BackgroundImageFix"/>
<feBlend mode="normal" in="SourceGraphic" in2="BackgroundImageFix" result="shape"/>
<feGaussianBlur stdDeviation="0.0271111" result="effect1_foregroundBlur_179_4116"/>
</filter>
<filter id="filter22_f_179_4116" x="203.714" y="171.721" width="13.5723" height="13.5857" filterUnits="userSpaceOnUse" color-interpolation-filters="sRGB">
<feFlood flood-opacity="0" result="BackgroundImageFix"/>
<feBlend mode="normal" in="SourceGraphic" in2="BackgroundImageFix" result="shape"/>
<feGaussianBlur stdDeviation="0.0180741" result="effect1_foregroundBlur_179_4116"/>
</filter>
</defs>
</svg>
