<svg width="507" height="297" viewBox="0 0 507 297" fill="none" xmlns="http://www.w3.org/2000/svg">
<path d="M348.857 43.8818C349.701 44.1499 350.591 44.2487 351.474 44.1726C352.357 44.0965 353.217 43.8471 354.003 43.4385C354.79 43.0299 355.488 42.4703 356.058 41.7915C356.628 41.1128 357.059 40.3283 357.325 39.483L362.3 23.8196C362.845 22.1105 362.689 20.2549 361.866 18.6609C361.043 17.0669 359.62 15.8651 357.911 15.3199C356.202 14.7747 354.347 14.9308 352.753 15.7539C351.159 16.5769 349.957 17.9994 349.412 19.7085L344.458 35.3718C344.294 35.899 344.198 36.4445 344.17 36.9957C344.071 38.5019 344.478 39.9981 345.327 41.246C346.177 42.4939 347.419 43.4217 348.857 43.8818Z" fill="#00FF19"/>
<path d="M385.137 64.8278L398.354 55.0845C399.796 54.0183 400.755 52.4234 401.021 50.6503C401.287 48.8772 400.838 47.071 399.773 45.6289C399.629 45.4439 399.465 45.3 399.3 45.115C398.186 43.8776 396.65 43.0995 394.994 42.9323C393.337 42.7651 391.677 43.2208 390.338 44.2106L377.121 53.9539C376.358 54.4608 375.706 55.1174 375.205 55.8838C374.704 56.6502 374.363 57.5104 374.204 58.4123C374.045 59.3142 374.071 60.2389 374.28 61.1305C374.489 62.0221 374.878 62.8619 375.421 63.599C375.964 64.3361 376.652 64.9552 377.442 65.4186C378.232 65.8821 379.107 66.1804 380.016 66.2953C380.924 66.4102 381.847 66.3393 382.727 66.0871C383.608 65.8348 384.427 65.4064 385.137 64.8278Z" fill="#00FF19"/>
<path d="M413.997 90.2346C413.362 89.5348 412.588 88.9757 411.724 88.5933C410.86 88.211 409.926 88.0139 408.981 88.0147L392.537 88.138C390.83 88.1608 389.195 88.8281 387.96 90.0062C386.725 91.1842 385.981 92.7858 385.877 94.4896C385.877 94.6541 385.877 94.798 385.877 94.9419C385.893 96.7338 386.618 98.4464 387.893 99.7058C389.167 100.965 390.889 101.669 392.681 101.664L409.125 101.54C410.434 101.54 411.715 101.157 412.809 100.438C413.904 99.7202 414.765 98.6981 415.287 97.4974C415.808 96.2968 415.968 94.9699 415.746 93.6797C415.525 92.3895 414.931 91.1921 414.038 90.2346H413.997Z" fill="#00FF19"/>
<path d="M266.141 55.2283L279.502 64.7867C280.857 65.7783 282.534 66.2282 284.204 66.0484C285.874 65.8686 287.417 65.072 288.53 63.8146C289.644 62.5572 290.248 60.9294 290.224 59.2501C290.2 57.5707 289.551 55.9606 288.402 54.735C288.087 54.3898 287.736 54.0797 287.354 53.81L273.993 44.2517C273.273 43.7327 272.458 43.3612 271.595 43.1588C270.731 42.9564 269.835 42.9269 268.96 43.0721C268.085 43.2173 267.247 43.5344 266.495 44.005C265.743 44.4755 265.092 45.0903 264.578 45.8139C263.83 46.8464 263.401 48.0756 263.345 49.3494C263.277 50.4857 263.498 51.6207 263.986 52.6486C264.475 53.6766 265.216 54.5641 266.141 55.2283Z" fill="#00FF19"/>
<path d="M305.854 35.4134L307.231 39.5245C307.833 41.1798 309.058 42.5347 310.644 43.3008C312.23 44.067 314.053 44.184 315.724 43.6269C317.395 43.0699 318.783 41.8827 319.592 40.3181C320.402 38.7534 320.569 36.9347 320.057 35.2489L314.857 19.6678C314.75 19.38 314.626 19.0986 314.487 18.8251C313.741 17.2785 312.433 16.0747 310.83 15.4594C309.227 14.8442 307.45 14.8637 305.86 15.514C304.271 16.1644 302.99 17.3965 302.278 18.9591C301.567 20.5217 301.478 22.297 302.03 23.9228L305.854 35.4134Z" fill="#00FF19"/>
<path d="M398.333 134.429L384.972 124.871C384.251 124.356 383.434 123.988 382.57 123.788C381.706 123.589 380.811 123.562 379.937 123.709C379.062 123.856 378.225 124.174 377.474 124.645C376.723 125.116 376.071 125.731 375.558 126.454C374.81 127.486 374.381 128.715 374.325 129.989C374.256 131.125 374.477 132.26 374.966 133.288C375.455 134.316 376.196 135.204 377.12 135.868L390.481 145.426C391.837 146.418 393.514 146.868 395.184 146.688C396.853 146.508 398.396 145.712 399.51 144.454C400.623 143.197 401.227 141.569 401.203 139.89C401.18 138.21 400.53 136.6 399.382 135.375C399.067 135.023 398.716 134.706 398.333 134.429Z" fill="#00FF19"/>
<path d="M341.744 137.204C339.398 131.29 335.017 126.407 329.391 123.434C323.766 120.461 317.263 119.593 311.055 120.986C303.664 106.127 291.403 94.2502 276.316 87.3364C269.316 84.1032 261.841 82.0208 254.178 81.1697C251.632 80.8869 249.072 80.7427 246.51 80.738C232.9 80.7802 219.578 84.6601 208.074 91.9321C196.57 99.2041 187.35 109.573 181.473 121.849C174.555 121.298 167.598 122.153 161.02 124.363C154.442 126.574 148.38 130.093 143.2 134.71C138.019 139.327 133.827 144.945 130.877 151.226C127.926 157.506 126.278 164.32 126.032 171.255C125.786 178.189 126.948 185.102 129.446 191.576C131.944 198.05 135.728 203.951 140.568 208.923C145.409 213.895 151.206 217.835 157.611 220.506C164.016 223.177 170.895 224.523 177.834 224.462H336.523C347.509 224.185 357.99 219.795 365.894 212.159C373.797 204.524 378.547 194.2 379.204 183.231C379.86 172.261 376.375 161.445 369.438 152.922C362.502 144.399 352.619 138.789 341.744 137.204ZM336.523 210.485H177.834C167.972 210.485 158.514 206.567 151.541 199.593C144.567 192.62 140.649 183.162 140.649 173.3C140.649 163.438 144.567 153.979 151.541 147.006C158.514 140.032 167.972 136.115 177.834 136.115C180.102 136.116 182.366 136.322 184.597 136.731L190.435 137.821L192.49 132.271C196.685 121.347 204.085 111.946 213.718 105.303C223.351 98.6594 234.768 95.0836 246.469 95.0447C248.53 95.0503 250.589 95.1738 252.636 95.4147C258.782 96.0703 264.781 97.7227 270.396 100.307C284.301 106.67 295.136 118.258 300.551 132.559L303.47 140.349L310.705 136.238C313.463 134.655 316.725 134.199 319.811 134.964C322.225 135.546 324.411 136.834 326.088 138.665C327.765 140.496 328.857 142.786 329.226 145.241L330.151 151.244H336.729C344.595 151.276 352.127 154.433 357.667 160.019C363.206 165.604 366.3 173.162 366.267 181.029C366.234 188.895 363.078 196.427 357.492 201.966C351.906 207.506 344.349 210.6 336.482 210.567L336.523 210.485Z" fill="#00FF19"/>
<path d="M314.96 113.36C318.289 113.176 321.627 113.481 324.868 114.264C329.44 115.37 333.731 117.418 337.465 120.278C341.2 123.138 344.295 126.747 346.554 130.873C348.055 131.161 349.514 131.531 350.953 131.942C357.298 128.751 362.72 123.988 366.701 118.107C370.682 112.225 373.089 105.422 373.694 98.3454C374.298 91.269 373.079 84.1558 370.153 77.6845C367.226 71.2132 362.691 65.5997 356.979 61.3794C351.266 57.1592 344.568 54.4731 337.523 53.5775C330.477 52.6818 323.32 53.6064 316.733 56.2631C310.147 58.9198 304.351 63.22 299.899 68.7533C295.446 74.2866 292.486 80.8684 291.301 87.8709C300.975 94.5131 309.056 103.218 314.96 113.36ZM307.211 71.7348C312.021 66.2876 318.599 64.232 321.887 67.1509C325.176 70.0698 323.943 76.812 319.112 82.2593C314.282 87.7065 307.725 89.762 304.436 86.8431C301.147 83.9242 302.401 77.182 307.211 71.7348Z" fill="#00FF19"/>
<g style="mix-blend-mode:hard-light" filter="url(#filter0_f_179_2898)">
<path d="M339.887 138.321L340.46 139.765L341.998 139.989C352.206 141.477 361.483 146.743 367.995 154.744C374.506 162.745 377.778 172.898 377.161 183.195C376.545 193.493 372.087 203.184 364.667 210.351C357.256 217.511 347.43 221.631 337.13 221.9H178.475H178.464L178.452 221.9C171.876 221.957 165.357 220.681 159.287 218.15C153.217 215.619 147.723 211.885 143.135 207.173C138.548 202.461 134.962 196.869 132.595 190.734C130.227 184.598 129.127 178.047 129.36 171.475C129.593 164.903 131.154 158.446 133.951 152.494C136.747 146.541 140.719 141.217 145.629 136.842C150.539 132.467 156.284 129.131 162.517 127.036C168.751 124.942 175.345 124.131 181.9 124.654L183.741 124.801L184.538 123.135C190.197 111.315 199.074 101.331 210.151 94.3294C221.226 87.3288 234.051 83.5931 247.153 83.5512C249.615 83.556 252.075 83.6946 254.522 83.9665L254.522 83.9665C261.898 84.7857 269.093 86.7899 275.83 89.9018L275.837 89.9052C290.365 96.5629 302.172 107.999 309.289 122.308L310.228 124.195L312.284 123.734C317.869 122.481 323.717 123.261 328.777 125.935C333.836 128.609 337.776 133.001 339.887 138.321ZM310.008 134.032L305.523 136.581L303.709 131.741L303.706 131.732C298.041 116.771 286.705 104.646 272.158 97.989C266.283 95.2854 260.007 93.5559 253.577 92.8685C251.433 92.6167 249.276 92.4876 247.118 92.4818L247.11 92.4818L247.101 92.4818C234.858 92.5225 222.912 96.2639 212.833 103.215C202.754 110.166 195.011 120.002 190.622 131.432L190.616 131.447L190.611 131.462L189.342 134.888L185.731 134.214L185.723 134.212C183.332 133.774 180.907 133.553 178.477 133.552H178.475C167.9 133.552 157.759 137.753 150.281 145.23C142.803 152.708 138.602 162.85 138.602 173.425C138.602 184 142.803 194.142 150.281 201.619C157.759 209.097 167.9 213.298 178.475 213.298H332.816L332.784 213.362L337.112 213.38C345.692 213.416 353.934 210.042 360.026 204C366.118 197.959 369.561 189.745 369.596 181.165C369.632 172.585 366.258 164.343 360.216 158.251C354.175 152.159 345.961 148.716 337.381 148.681H337.37H333.098L332.525 144.968C332.525 144.966 332.525 144.964 332.525 144.962C332.076 141.979 330.748 139.199 328.711 136.975C326.674 134.752 324.021 133.186 321.091 132.478C317.337 131.549 313.369 132.105 310.014 134.029C310.012 134.03 310.01 134.031 310.008 134.032Z" stroke="#00A8A8" stroke-width="5.37616"/>
</g>
<g style="mix-blend-mode:hard-light" filter="url(#filter1_f_179_2898)">
<path d="M339.118 138.626L339.867 140.515L341.878 140.808C351.881 142.266 360.972 147.426 367.353 155.266C373.734 163.106 376.94 173.056 376.336 183.146C375.732 193.237 371.363 202.733 364.093 209.756C356.833 216.77 347.209 220.807 337.119 221.072H178.475H178.46L178.445 221.073C171.981 221.129 165.572 219.875 159.605 217.387C153.639 214.899 148.238 211.228 143.728 206.596C139.218 201.964 135.694 196.467 133.366 190.436C131.039 184.405 129.957 177.965 130.186 171.504C130.415 165.044 131.951 158.697 134.699 152.845C137.448 146.994 141.353 141.76 146.179 137.459C151.006 133.159 156.653 129.88 162.781 127.821C168.909 125.761 175.39 124.965 181.834 125.478L184.242 125.67L185.284 123.492C190.876 111.813 199.648 101.947 210.593 95.0286C221.536 88.1114 234.208 84.4201 247.154 84.3783C249.585 84.3831 252.014 84.5201 254.431 84.7885L254.431 84.7885C261.718 85.5979 268.827 87.5781 275.483 90.6527L275.493 90.6571C289.849 97.236 301.516 108.537 308.549 122.676L309.776 125.144L312.466 124.541C317.858 123.331 323.504 124.085 328.39 126.667C333.276 129.249 337.08 133.489 339.118 138.626ZM305.957 135.382L304.484 131.45L304.479 131.439C298.737 116.274 287.248 103.985 272.503 97.2373C266.548 94.497 260.187 92.7438 253.669 92.0465C251.495 91.7914 249.309 91.6606 247.12 91.6547L247.109 91.6546L247.099 91.6547C234.688 91.6959 222.58 95.4883 212.363 102.534C202.147 109.58 194.299 119.55 189.85 131.136L189.842 131.155L189.835 131.175L188.809 133.947L185.883 133.401L185.872 133.399C183.433 132.952 180.957 132.726 178.477 132.725H178.475C167.681 132.725 157.329 137.013 149.696 144.645C142.063 152.278 137.775 162.63 137.775 173.425C137.775 184.219 142.063 194.571 149.696 202.204C157.329 209.837 167.681 214.125 178.475 214.125H331.478L331.449 214.184L337.109 214.207C345.908 214.244 354.361 210.783 360.608 204.587C366.856 198.392 370.387 189.967 370.423 181.168C370.46 172.369 367 163.916 360.804 157.668C354.608 151.421 346.183 147.89 337.384 147.854L337.377 147.854H337.37H333.807L333.343 144.845C333.343 144.842 333.343 144.84 333.342 144.837C332.869 141.693 331.469 138.761 329.321 136.416C327.174 134.072 324.377 132.421 321.287 131.674C317.327 130.696 313.143 131.282 309.604 133.31C309.602 133.312 309.599 133.313 309.597 133.314L305.957 135.382Z" stroke="#00A8A8" stroke-width="7.03036"/>
</g>
<g style="mix-blend-mode:hard-light" filter="url(#filter2_ddi_179_2898)">
<path d="M339.887 138.321L340.46 139.765L341.998 139.989C352.206 141.477 361.483 146.743 367.995 154.744C374.506 162.745 377.778 172.898 377.161 183.195C376.545 193.493 372.087 203.184 364.667 210.351C357.256 217.511 347.43 221.631 337.13 221.9H178.475H178.464L178.452 221.9C171.876 221.957 165.357 220.681 159.287 218.15C153.217 215.619 147.723 211.885 143.135 207.173C138.548 202.461 134.962 196.869 132.595 190.734C130.227 184.598 129.127 178.047 129.36 171.475C129.593 164.903 131.154 158.446 133.951 152.494C136.747 146.541 140.719 141.217 145.629 136.842C150.539 132.467 156.284 129.131 162.517 127.036C168.751 124.942 175.345 124.131 181.9 124.654L183.741 124.801L184.538 123.135C190.197 111.315 199.074 101.331 210.151 94.3294C221.226 87.3288 234.051 83.5931 247.153 83.5512C249.615 83.556 252.075 83.6946 254.522 83.9665L254.522 83.9665C261.898 84.7857 269.093 86.7899 275.83 89.9018L275.837 89.9052C290.365 96.5629 302.172 107.999 309.289 122.308L310.228 124.195L312.284 123.734C317.869 122.481 323.717 123.261 328.777 125.935C333.836 128.609 337.776 133.001 339.887 138.321ZM310.008 134.032L305.523 136.581L303.709 131.741L303.706 131.732C298.041 116.771 286.705 104.646 272.158 97.989C266.283 95.2854 260.007 93.5559 253.577 92.8685C251.433 92.6167 249.276 92.4876 247.118 92.4818L247.11 92.4818L247.101 92.4818C234.858 92.5225 222.912 96.2639 212.833 103.215C202.754 110.166 195.011 120.002 190.622 131.432L190.616 131.447L190.611 131.462L189.342 134.888L185.731 134.214L185.723 134.212C183.332 133.774 180.907 133.553 178.477 133.552H178.475C167.9 133.552 157.759 137.753 150.281 145.23C142.803 152.708 138.602 162.85 138.602 173.425C138.602 184 142.803 194.142 150.281 201.619C157.759 209.097 167.9 213.298 178.475 213.298H332.816L332.784 213.362L337.112 213.38C345.692 213.416 353.934 210.042 360.026 204C366.118 197.959 369.561 189.745 369.596 181.165C369.632 172.585 366.258 164.343 360.216 158.251C354.175 152.159 345.961 148.716 337.381 148.681H337.37H333.098L332.525 144.968C332.525 144.966 332.525 144.964 332.525 144.962C332.076 141.979 330.748 139.199 328.711 136.975C326.674 134.752 324.021 133.186 321.091 132.478C317.337 131.549 313.369 132.105 310.014 134.029C310.012 134.03 310.01 134.031 310.008 134.032Z" stroke="#33E9C6" stroke-opacity="0.2" stroke-width="5.37616"/>
</g>
<g filter="url(#filter3_f_179_2898)">
<path d="M340.848 137.939L341.201 138.828L342.147 138.966C352.611 140.492 362.121 145.889 368.797 154.091C375.472 162.293 378.825 172.701 378.194 183.257C377.562 193.813 372.991 203.748 365.386 211.095C357.785 218.437 347.707 222.662 337.143 222.933H178.475H178.468L178.461 222.933C171.745 222.992 165.088 221.689 158.889 219.104C152.69 216.52 147.079 212.706 142.395 207.894C137.71 203.082 134.048 197.371 131.63 191.106C129.212 184.84 128.089 178.15 128.327 171.438C128.565 164.727 130.159 158.133 133.015 152.054C135.87 145.976 139.927 140.538 144.941 136.07C149.955 131.602 155.822 128.196 162.188 126.056C168.554 123.917 175.288 123.09 181.982 123.623L183.115 123.714L183.606 122.689C189.348 110.694 198.358 100.561 209.599 93.4555C220.839 86.3505 233.855 82.5593 247.153 82.5174C249.653 82.5221 252.151 82.6628 254.636 82.9389L254.636 82.9389C262.122 83.7704 269.425 85.8047 276.263 88.9632L276.268 88.9653C291.011 95.7215 302.992 107.327 310.215 121.848L310.792 123.009L312.058 122.725C317.882 121.418 323.982 122.232 329.26 125.021C334.537 127.81 338.646 132.391 340.848 137.939ZM310.523 134.928L304.98 138.078L302.741 132.103L302.739 132.098C297.17 117.391 286.027 105.473 271.727 98.9286C265.952 96.2709 259.783 94.5711 253.462 93.8959C251.355 93.6483 249.236 93.5214 247.115 93.5156L247.105 93.5156C235.07 93.5556 223.328 97.2333 213.42 104.066C203.512 110.899 195.902 120.567 191.587 131.803L191.584 131.812L191.58 131.821L190.009 136.064L185.542 135.23L185.536 135.229C183.207 134.802 180.844 134.587 178.476 134.586H178.475C168.175 134.586 158.296 138.678 151.012 145.961C143.728 153.245 139.636 163.124 139.636 173.425C139.636 183.726 143.728 193.605 151.012 200.888C158.296 208.172 168.175 212.264 178.475 212.264H334.489L334.453 212.335L337.116 212.346C345.422 212.381 353.401 209.115 359.298 203.266C365.195 197.418 368.528 189.466 368.562 181.161C368.597 172.855 365.331 164.876 359.482 158.979C353.634 153.082 345.682 149.749 337.377 149.715H337.37H332.211L331.503 145.121C331.503 145.12 331.503 145.118 331.502 145.117C331.084 142.338 329.847 139.746 327.949 137.673C326.05 135.601 323.577 134.141 320.845 133.482C317.348 132.617 313.652 133.134 310.527 134.926C310.526 134.927 310.524 134.928 310.523 134.928Z" stroke="#33E9E9" stroke-width="3.3084"/>
</g>
<g filter="url(#filter4_f_179_2898)">
<path d="M341.617 137.634L341.793 138.079L342.266 138.148C352.935 139.703 362.632 145.206 369.438 153.569C376.244 161.931 379.663 172.544 379.019 183.307C378.375 194.069 373.715 204.198 365.96 211.69C358.208 219.179 347.928 223.486 337.154 223.76L178.475 223.76L178.468 223.761C171.641 223.82 164.872 222.496 158.571 219.868C152.269 217.24 146.565 213.363 141.802 208.471C137.039 203.579 133.317 197.773 130.859 191.404C128.401 185.034 127.258 178.232 127.5 171.409C127.742 164.586 129.363 157.882 132.266 151.702C135.169 145.523 139.294 139.995 144.391 135.453C149.488 130.91 155.453 127.447 161.925 125.272C168.397 123.098 175.242 122.256 182.048 122.799L182.614 122.844L182.86 122.331C188.67 110.196 197.784 99.9453 209.157 92.7564C220.529 85.5678 233.698 81.7323 247.152 81.6903C249.683 81.695 252.212 81.8374 254.727 82.1169C262.302 82.9582 269.691 85.0165 276.61 88.2124L276.612 88.2134C291.527 95.0484 303.649 106.79 310.955 121.479L311.244 122.06L311.877 121.918C317.894 120.568 324.194 121.409 329.646 124.29C335.098 127.171 339.342 131.903 341.617 137.634ZM304.545 139.276L301.967 132.394L301.966 132.391C296.474 117.887 285.484 106.134 271.382 99.6803C265.687 97.0593 259.603 95.3832 253.369 94.7179C251.292 94.4736 249.204 94.3484 247.113 94.3427L247.108 94.3427C235.239 94.3822 223.66 98.0089 213.889 104.747C204.119 111.485 196.614 121.02 192.359 132.099L192.356 132.109L190.542 137.005L185.39 136.043L185.387 136.043C183.107 135.625 180.794 135.414 178.476 135.413H178.475C168.394 135.413 158.725 139.418 151.597 146.546C144.468 153.675 140.463 163.343 140.463 173.425C140.463 183.506 144.468 193.175 151.597 200.303C158.725 207.432 168.394 211.437 178.475 211.437H335.826L335.788 211.514L337.12 211.519C345.206 211.553 352.974 208.373 358.716 202.679C364.457 196.985 367.702 189.243 367.735 181.157C367.769 173.071 364.589 165.303 358.895 159.561C353.201 153.82 345.459 150.575 337.373 150.542H337.37H331.501L330.685 145.244C330.685 145.243 330.685 145.243 330.685 145.242C330.292 142.624 329.127 140.184 327.339 138.232C325.551 136.28 323.222 134.906 320.649 134.285C317.358 133.47 313.879 133.957 310.937 135.645L310.938 135.644L311.346 136.363L310.935 135.646L304.545 139.276Z" stroke="white" stroke-width="1.6542"/>
</g>
<g style="mix-blend-mode:hard-light" filter="url(#filter5_f_179_2898)">
<ellipse cx="333.543" cy="92.6964" rx="49.5261" ry="47.2178" fill="#33E9C6" fill-opacity="0.15"/>
</g>
<g style="mix-blend-mode:hard-light" filter="url(#filter6_f_179_2898)">
<path d="M326.096 113.306C322.968 112.549 319.752 112.225 316.539 112.342C310.704 102.507 302.839 94.03 293.469 87.4753C294.696 80.9111 297.529 74.7487 301.72 69.5403C306.056 64.1524 311.699 59.9651 318.113 57.3782C324.526 54.7913 331.496 53.891 338.356 54.7631C345.216 55.6353 351.739 58.2508 357.301 62.3602C362.863 66.4696 367.28 71.9357 370.129 78.237C372.978 84.5383 374.165 91.4647 373.577 98.3552C372.988 105.246 370.644 111.87 366.768 117.597C362.97 123.208 357.826 127.773 351.809 130.878C350.642 130.552 349.452 130.253 348.233 130.003C345.925 125.931 342.819 122.363 339.1 119.514C335.245 116.562 330.815 114.447 326.096 113.306ZM323.583 66.437C321.541 64.6251 318.619 64.4746 315.765 65.3661C312.888 66.2649 309.878 68.267 307.363 71.1148C304.85 73.9608 303.229 77.184 302.684 80.1418C302.142 83.0772 302.642 85.9514 304.682 87.7623C306.723 89.5741 309.641 89.7249 312.493 88.8331C315.367 87.9344 318.376 85.9325 320.9 83.0863C323.425 80.2396 325.047 77.0155 325.59 74.0566C326.128 71.1198 325.622 68.2468 323.583 66.437Z" stroke="#00A8A8" stroke-width="2.18346"/>
</g>
<g style="mix-blend-mode:hard-light" filter="url(#filter7_f_179_2898)">
<path d="M326.174 112.979C323.082 112.231 319.904 111.902 316.726 111.999C310.914 102.259 303.116 93.8514 293.84 87.3248C295.078 80.8946 297.871 74.8599 301.982 69.7509C306.281 64.4077 311.878 60.2552 318.238 57.6898C324.599 55.1243 331.51 54.2315 338.314 55.0964C345.117 55.9613 351.585 58.5551 357.101 62.6304C362.617 66.7056 366.997 72.1264 369.823 78.3754C372.648 84.6244 373.826 91.4933 373.242 98.3266C372.659 105.16 370.334 111.73 366.489 117.409C362.748 122.937 357.689 127.441 351.772 130.519C350.687 130.218 349.582 129.941 348.45 129.705C346.127 125.648 343.019 122.093 339.304 119.248C335.412 116.267 330.94 114.132 326.174 112.979L325.839 114.367L326.174 112.979ZM323.806 66.1858C321.642 64.2654 318.58 64.135 315.665 65.0455C312.72 65.9654 309.66 68.0064 307.112 70.8925C304.565 73.7761 302.911 77.0534 302.353 80.0809C301.8 83.0791 302.297 86.0945 304.459 88.0136C306.623 89.9337 309.68 90.0646 312.593 89.1537C315.535 88.2338 318.594 86.1931 321.152 83.3091C323.709 80.4247 325.364 77.1461 325.92 74.1172C326.47 71.1171 325.967 68.1034 323.806 66.1858Z" stroke="#00A8A8" stroke-width="2.85529"/>
</g>
<g style="mix-blend-mode:hard-light" filter="url(#filter8_ddi_179_2898)">
<path d="M326.096 113.306C322.968 112.549 319.752 112.225 316.539 112.342C310.704 102.507 302.839 94.03 293.469 87.4753C294.696 80.9111 297.529 74.7487 301.72 69.5403C306.056 64.1524 311.699 59.9651 318.113 57.3782C324.526 54.7913 331.496 53.891 338.356 54.7631C345.216 55.6353 351.739 58.2508 357.301 62.3602C362.863 66.4696 367.28 71.9357 370.129 78.237C372.978 84.5383 374.165 91.4647 373.577 98.3552C372.988 105.246 370.644 111.87 366.768 117.597C362.97 123.208 357.826 127.773 351.809 130.878C350.642 130.552 349.452 130.253 348.233 130.003C345.925 125.931 342.819 122.363 339.1 119.514C335.245 116.562 330.815 114.447 326.096 113.306ZM323.583 66.437C321.541 64.6251 318.619 64.4746 315.765 65.3661C312.888 66.2649 309.878 68.267 307.363 71.1148C304.85 73.9608 303.229 77.184 302.684 80.1418C302.142 83.0772 302.642 85.9514 304.682 87.7623C306.723 89.5741 309.641 89.7249 312.493 88.8331C315.367 87.9344 318.376 85.9325 320.9 83.0863C323.425 80.2396 325.047 77.0155 325.59 74.0566C326.128 71.1198 325.622 68.2468 323.583 66.437Z" stroke="#33E9C6" stroke-opacity="0.2" stroke-width="2.18346"/>
</g>
<g filter="url(#filter9_f_179_2898)">
<path d="M325.997 113.714C322.826 112.947 319.563 112.63 316.305 112.771C310.442 102.819 302.494 94.2543 293.008 87.6653C294.22 80.9331 297.102 74.6101 301.393 69.2771C305.773 63.8332 311.476 59.6026 317.956 56.9888C324.436 54.3751 331.477 53.4654 338.409 54.3466C345.34 55.2278 351.931 57.8705 357.55 62.0225C363.17 66.1745 367.633 71.6973 370.511 78.064C373.39 84.4307 374.59 91.4289 373.995 98.3909C373.401 105.353 371.032 112.046 367.115 117.833C363.247 123.547 357.997 128.189 351.855 131.327C350.583 130.968 349.289 130.642 347.961 130.377C345.672 126.284 342.57 122.701 338.845 119.848C335.036 116.931 330.66 114.841 325.997 113.714ZM323.304 66.7511C321.416 65.0747 318.668 64.8991 315.89 65.7669C313.098 66.6392 310.151 68.5927 307.678 71.3928C305.207 74.1917 303.626 77.3472 303.096 80.2179C302.57 83.0748 303.073 85.7726 304.961 87.4483C306.85 89.1245 309.591 89.3004 312.367 88.4324C315.157 87.5601 318.104 85.6067 320.586 82.8077C323.068 80.0083 324.65 76.8522 325.176 73.9808C325.701 71.123 325.192 68.4261 323.304 66.7511Z" stroke="#33E9E9" stroke-width="1.34367"/>
</g>
<g filter="url(#filter10_f_179_2898)">
<path d="M325.918 114.04C322.712 113.265 319.412 112.954 316.118 113.116C310.234 103.07 302.22 94.4346 292.639 87.8188C293.839 80.9516 296.76 74.4995 301.131 69.0665C305.548 63.5779 311.297 59.3125 317.83 56.6773C324.363 54.0421 331.463 53.1249 338.451 54.0134C345.44 54.9018 352.084 57.5662 357.75 61.7523C363.416 65.9384 367.915 71.5066 370.817 77.9256C373.72 84.3446 374.929 91.4003 374.33 98.4195C373.73 105.439 371.342 112.187 367.394 118.021C363.469 123.819 358.133 128.521 351.89 131.686C350.535 131.301 349.158 130.953 347.743 130.676C345.469 126.567 342.37 122.971 338.64 120.114C334.869 117.226 330.535 115.157 325.918 114.04ZM323.081 67.0023C321.315 65.4344 318.708 65.2387 315.99 66.0876C313.266 66.9387 310.369 68.8533 307.93 71.6151C305.492 74.3764 303.943 77.4778 303.427 80.2788C302.912 83.073 303.417 85.6295 305.184 87.197C306.95 88.7649 309.552 88.9607 312.267 88.1118C314.989 87.2607 317.886 85.3461 320.335 82.5848C322.784 79.8233 324.332 76.7216 324.846 73.9202C325.359 71.1257 324.847 68.5696 323.081 67.0023Z" stroke="white" stroke-width="0.671833"/>
</g>
<g style="mix-blend-mode:hard-light" filter="url(#filter11_f_179_2898)">
<ellipse cx="276.892" cy="55.1057" rx="16.1349" ry="13.8634" fill="#33E9C6" fill-opacity="0.1"/>
</g>
<g style="mix-blend-mode:hard-light" filter="url(#filter12_f_179_2898)">
<path d="M279.814 65.0848L279.812 65.0828L266.451 55.5248C266.451 55.5248 266.451 55.5247 266.451 55.5246C265.573 54.8937 264.869 54.0509 264.405 53.0747C263.941 52.0983 263.731 51.0203 263.796 49.9411L263.796 49.9411L263.796 49.9358C263.85 48.7282 264.256 47.5628 264.965 46.5839L264.965 46.5839L264.967 46.5812C265.455 45.894 266.073 45.3102 266.788 44.8633C267.502 44.4165 268.297 44.1154 269.129 43.9775C269.96 43.8396 270.81 43.8676 271.63 44.0598C272.45 44.252 273.224 44.6048 273.908 45.0976L273.909 45.0984L287.27 54.6567L287.271 54.6579C287.633 54.9135 287.966 55.2075 288.265 55.5347L288.265 55.5347L288.268 55.5379C289.359 56.7019 289.976 58.2312 289.998 59.8262C290.021 61.4213 289.447 62.9673 288.389 64.1616C287.332 65.3559 285.867 66.1125 284.281 66.2832C282.695 66.454 281.102 66.0267 279.814 65.0848Z" stroke="#00A8A8" stroke-width="0.677047"/>
</g>
<g style="mix-blend-mode:hard-light" filter="url(#filter13_f_179_2898)">
<path d="M279.876 65.0008L279.872 64.998L266.512 55.4402C266.512 55.4402 266.512 55.4401 266.511 55.44C265.648 54.8194 264.956 53.9903 264.499 53.0299C264.042 52.0695 263.836 51.009 263.9 49.9474L263.9 49.9474L263.9 49.9404C263.953 48.7532 264.352 47.6074 265.05 46.6451L265.05 46.6451L265.052 46.6414C265.532 45.9655 266.14 45.3912 266.843 44.9516C267.545 44.5121 268.328 44.2159 269.146 44.0802C269.963 43.9446 270.799 43.9721 271.606 44.1612C272.413 44.3503 273.175 44.6973 273.847 45.1821L273.848 45.1831L287.209 54.7415L287.211 54.7429C287.567 54.9943 287.895 55.2833 288.188 55.6049L288.188 55.6049L288.192 55.6091C289.265 56.7542 289.872 58.2586 289.894 59.8277C289.916 61.3968 289.352 62.9177 288.311 64.0925C287.271 65.2674 285.83 66.0117 284.27 66.1797C282.709 66.3477 281.143 65.9273 279.876 65.0008Z" stroke="#00A8A8" stroke-width="0.885369"/>
</g>
<g style="mix-blend-mode:hard-light" filter="url(#filter14_ddi_179_2898)">
<path d="M279.814 65.0848L279.812 65.0828L266.451 55.5248C266.451 55.5248 266.451 55.5247 266.451 55.5246C265.573 54.8937 264.869 54.0509 264.405 53.0747C263.941 52.0983 263.731 51.0203 263.796 49.9411L263.796 49.9411L263.796 49.9358C263.85 48.7282 264.256 47.5628 264.965 46.5839L264.965 46.5839L264.967 46.5812C265.455 45.894 266.073 45.3102 266.788 44.8633C267.502 44.4165 268.297 44.1154 269.129 43.9775C269.96 43.8396 270.81 43.8676 271.63 44.0598C272.45 44.252 273.224 44.6048 273.908 45.0976L273.909 45.0984L287.27 54.6567L287.271 54.6579C287.633 54.9135 287.966 55.2075 288.265 55.5347L288.265 55.5347L288.268 55.5379C289.359 56.7019 289.976 58.2312 289.998 59.8262C290.021 61.4213 289.447 62.9673 288.389 64.1616C287.332 65.3559 285.867 66.1125 284.281 66.2832C282.695 66.454 281.102 66.0267 279.814 65.0848Z" stroke="#33E9C6" stroke-opacity="0.2" stroke-width="0.677047"/>
</g>
<g filter="url(#filter15_f_179_2898)">
<path d="M279.738 65.1899L279.736 65.1887L266.375 55.6306C266.375 55.6305 266.375 55.6304 266.375 55.6303C265.479 54.9866 264.761 54.1267 264.287 53.1306C263.814 52.1344 263.6 51.0344 263.666 49.9333L263.666 49.9301C263.721 48.697 264.136 47.507 264.86 46.5075L264.86 46.5075L264.861 46.5058C265.359 45.8047 265.99 45.209 266.719 44.753C267.447 44.297 268.259 43.9898 269.107 43.849C269.955 43.7083 270.823 43.7369 271.66 43.933C272.497 44.1292 273.287 44.4891 273.984 44.992L273.984 44.9925L287.346 54.5508L287.347 54.5515C287.716 54.8126 288.056 55.1128 288.361 55.4469L288.361 55.4469L288.363 55.4488C289.476 56.6366 290.105 58.1969 290.128 59.8244C290.151 61.4519 289.566 63.0293 288.487 64.2479C287.408 65.4665 285.913 66.2384 284.295 66.4127C282.676 66.5869 281.051 66.1509 279.738 65.1899Z" stroke="#33E9E9" stroke-width="0.416644"/>
</g>
<g filter="url(#filter16_f_179_2898)">
<path d="M279.676 65.274L279.675 65.2734L266.314 55.7151C265.404 55.0611 264.675 54.1874 264.193 53.1753C263.712 52.1632 263.495 51.0458 263.562 49.9271L263.562 49.9255C263.617 48.672 264.039 47.4624 264.776 46.4464L264.776 46.4464L264.776 46.4456C265.282 45.7332 265.923 45.1279 266.663 44.6647C267.404 44.2014 268.229 43.8893 269.09 43.7463C269.952 43.6033 270.833 43.6323 271.684 43.8316C272.534 44.0309 273.336 44.3966 274.045 44.9075L274.045 44.9078L287.406 54.4661L287.407 54.4665C287.782 54.7319 288.128 55.037 288.438 55.3766L288.439 55.3776C289.57 56.5843 290.209 58.1695 290.233 59.8229C290.256 61.4764 289.661 63.079 288.565 64.317C287.469 65.555 285.95 66.3392 284.306 66.5162C282.662 66.6933 281.011 66.2503 279.676 65.274Z" stroke="white" stroke-width="0.208322"/>
</g>
<g style="mix-blend-mode:hard-light" filter="url(#filter17_f_179_2898)">
<ellipse cx="310.677" cy="28.9623" rx="11.2059" ry="17.3774" fill="#33E9C6" fill-opacity="0.1"/>
</g>
<g style="mix-blend-mode:hard-light" filter="url(#filter18_f_179_2898)">
<path d="M313.863 18.4345L313.863 18.4346L313.866 18.4409C313.999 18.7018 314.117 18.9701 314.219 19.2446L319.417 34.8161C319.902 36.4203 319.742 38.1505 318.972 39.6392C318.202 41.1293 316.88 42.2598 315.289 42.7903C313.697 43.3208 311.962 43.2094 310.451 42.4797C308.942 41.7507 307.776 40.462 307.202 38.8874L305.826 34.7809L305.826 34.7803L302.003 23.2903L302.002 23.2884C301.476 21.7404 301.561 20.05 302.238 18.5622C302.916 17.0743 304.136 15.9011 305.649 15.2819C307.162 14.6627 308.855 14.6441 310.381 15.2299C311.907 15.8158 313.153 16.9619 313.863 18.4345Z" stroke="#00A8A8" stroke-width="0.645109"/>
</g>
<g style="mix-blend-mode:hard-light" filter="url(#filter19_f_179_2898)">
<path d="M313.773 18.4776L313.773 18.4777L313.778 18.4859C313.909 18.743 314.025 19.0073 314.126 19.2776L319.322 34.8462C319.799 36.4253 319.642 38.1283 318.884 39.5937C318.126 41.0607 316.824 42.1738 315.257 42.6961C313.69 43.2185 311.981 43.1088 310.494 42.3904C309.009 41.6728 307.861 40.4044 307.296 38.8546L305.92 34.7496L305.92 34.7488L302.097 23.259L302.097 23.259L302.096 23.2565C301.578 21.7324 301.662 20.0682 302.329 18.6033C302.996 17.1385 304.197 15.9834 305.687 15.3738C307.176 14.7641 308.843 14.7458 310.345 15.3226C311.848 15.8994 313.074 17.0278 313.773 18.4776Z" stroke="#00A8A8" stroke-width="0.843604"/>
</g>
<g style="mix-blend-mode:hard-light" filter="url(#filter20_ddi_179_2898)">
<path d="M313.863 18.4345L313.863 18.4346L313.866 18.4409C313.999 18.7018 314.117 18.9701 314.219 19.2446L319.417 34.8161C319.902 36.4203 319.742 38.1505 318.972 39.6392C318.202 41.1293 316.88 42.2598 315.289 42.7903C313.697 43.3208 311.962 43.2094 310.451 42.4797C308.942 41.7507 307.776 40.462 307.202 38.8874L305.826 34.7809L305.826 34.7803L302.003 23.2903L302.002 23.2884C301.476 21.7404 301.561 20.05 302.238 18.5622C302.916 17.0743 304.136 15.9011 305.649 15.2819C307.162 14.6627 308.855 14.6441 310.381 15.2299C311.907 15.8158 313.153 16.9619 313.863 18.4345Z" stroke="#33E9C6" stroke-opacity="0.2" stroke-width="0.645109"/>
</g>
<g filter="url(#filter21_f_179_2898)">
<path d="M313.975 18.3806L313.975 18.3807L313.977 18.3845C314.112 18.6503 314.232 18.9237 314.336 19.2032L319.535 34.7785C320.03 36.4141 319.868 38.1783 319.083 39.6962C318.297 41.215 316.95 42.3673 315.328 42.908C313.706 43.4487 311.937 43.3351 310.397 42.5915C308.858 41.8481 307.67 40.534 307.085 38.9283L305.708 34.8201L305.708 34.8197L301.885 23.3295L301.885 23.3283C301.349 21.7504 301.435 20.0274 302.126 18.5108C302.816 16.9942 304.06 15.7983 305.602 15.1671C307.145 14.5359 308.87 14.517 310.425 15.1141C311.981 15.7113 313.251 16.8796 313.975 18.3806Z" stroke="#33E9E9" stroke-width="0.39699"/>
</g>
<g filter="url(#filter22_f_179_2898)">
<path d="M314.064 18.3375L314.064 18.3375L314.065 18.3395C314.202 18.6092 314.324 18.8865 314.43 19.1702L319.629 34.7484C320.133 36.4091 319.968 38.2005 319.171 39.7418C318.373 41.2835 317.006 42.4533 315.359 43.0021C313.713 43.551 311.917 43.4357 310.354 42.6808C308.791 41.9261 307.585 40.5916 306.991 38.9611L305.614 34.8514L305.614 34.8512L301.791 23.3608L301.791 23.3603C301.247 21.7584 301.334 20.0092 302.035 18.4696C302.737 16.93 303.999 15.716 305.565 15.0752C307.13 14.4345 308.882 14.4152 310.461 15.0215C312.04 15.6277 313.329 16.8137 314.064 18.3375Z" stroke="white" stroke-width="0.198495"/>
</g>
<g style="mix-blend-mode:hard-light" filter="url(#filter23_f_179_2898)">
<ellipse cx="353.465" cy="30.1975" rx="11.0788" ry="17.5185" fill="#33E9C6" fill-opacity="0.1"/>
</g>
<g style="mix-blend-mode:hard-light" filter="url(#filter24_f_179_2898)">
<path d="M349.031 44.1731C349.032 44.1732 349.032 44.1732 349.032 44.1732L348.934 44.4806C349.778 44.7486 350.668 44.8474 351.551 44.7714C352.434 44.6953 353.294 44.4458 354.08 44.0373C354.867 43.6287 355.565 43.069 356.135 42.3903C356.705 41.7116 357.136 40.9271 357.402 40.0817L362.377 24.4184C362.922 22.7093 362.766 20.8536 361.943 19.2596C361.12 17.6656 359.697 16.4638 357.988 15.9187C356.279 15.3735 354.423 15.5296 352.829 16.3526C351.235 17.1756 350.034 18.5982 349.488 20.3073L349.796 20.4046L349.796 20.4051C350.315 18.7776 351.46 17.4231 352.978 16.6394C354.495 15.8556 356.263 15.707 357.89 16.2261C359.518 16.7453 360.872 17.8897 361.656 19.4077C362.44 20.9256 362.589 22.6927 362.069 24.3203L362.069 24.3207L357.095 39.984L357.095 39.9847C356.841 40.7895 356.431 41.5365 355.888 42.1827C355.345 42.829 354.68 43.3619 353.931 43.7509C353.182 44.1399 352.364 44.3774 351.523 44.4499C350.683 44.5223 349.836 44.4282 349.031 44.1731ZM349.031 44.1731C347.663 43.7349 346.48 42.8514 345.671 41.6632C344.862 40.4748 344.474 39.0501 344.569 37.6157L344.569 37.6157L344.569 37.6107C344.595 37.0867 344.687 36.5681 344.843 36.0671C344.843 36.0668 344.843 36.0665 344.843 36.0662L349.796 20.4053L349.031 44.1731Z" stroke="#00A8A8" stroke-width="0.645424"/>
</g>
<g style="mix-blend-mode:hard-light" filter="url(#filter25_f_179_2898)">
<path d="M357 39.954L357 39.9548C356.75 40.7472 356.346 41.4826 355.812 42.1189C355.278 42.7551 354.623 43.2798 353.886 43.6628C353.148 44.0458 352.343 44.2796 351.515 44.3509C350.687 44.4222 349.854 44.3297 349.062 44.0786C347.714 43.6471 346.549 42.7772 345.753 41.6073C344.957 40.4373 344.575 39.0345 344.668 37.6223L344.668 37.6223L344.668 37.6156C344.694 37.1 344.785 36.5898 344.937 36.0967C344.937 36.0963 344.938 36.096 344.938 36.0956L349.891 20.4355C349.891 20.4353 349.891 20.4351 349.891 20.4349C350.402 18.8327 351.529 17.4992 353.023 16.7276C354.518 15.9559 356.258 15.8096 357.86 16.3207C359.462 16.8319 360.796 17.9587 361.568 19.4532C362.34 20.9478 362.486 22.6877 361.975 24.2901L361.975 24.2906L357 39.954Z" stroke="#00A8A8" stroke-width="0.844016"/>
</g>
<g style="mix-blend-mode:hard-light" filter="url(#filter26_ddi_179_2898)">
<path d="M349.031 44.1731C349.032 44.1732 349.032 44.1732 349.032 44.1732L348.934 44.4806C349.778 44.7486 350.668 44.8474 351.551 44.7714C352.434 44.6953 353.294 44.4458 354.08 44.0373C354.867 43.6287 355.565 43.069 356.135 42.3903C356.705 41.7116 357.136 40.9271 357.402 40.0817L362.377 24.4184C362.922 22.7093 362.766 20.8536 361.943 19.2596C361.12 17.6656 359.697 16.4638 357.988 15.9187C356.279 15.3735 354.423 15.5296 352.829 16.3526C351.235 17.1756 350.034 18.5982 349.488 20.3073L349.796 20.4046L349.796 20.4051C350.315 18.7776 351.46 17.4231 352.978 16.6394C354.495 15.8556 356.263 15.707 357.89 16.2261C359.518 16.7453 360.872 17.8897 361.656 19.4077C362.44 20.9256 362.589 22.6927 362.069 24.3203L362.069 24.3207L357.095 39.984L357.095 39.9847C356.841 40.7895 356.431 41.5365 355.888 42.1827C355.345 42.829 354.68 43.3619 353.931 43.7509C353.182 44.1399 352.364 44.3774 351.523 44.4499C350.683 44.5223 349.836 44.4282 349.031 44.1731ZM349.031 44.1731C347.663 43.7349 346.48 42.8514 345.671 41.6632C344.862 40.4748 344.474 39.0501 344.569 37.6157L344.569 37.6157L344.569 37.6107C344.595 37.0867 344.687 36.5681 344.843 36.0671C344.843 36.0668 344.843 36.0665 344.843 36.0662L349.796 20.4053L349.031 44.1731Z" stroke="#33E9C6" stroke-opacity="0.2" stroke-width="0.645424"/>
</g>
<g filter="url(#filter27_f_179_2898)">
<path d="M357.213 40.0216L357.213 40.022C356.954 40.8424 356.536 41.6038 355.983 42.2626C355.43 42.9213 354.752 43.4645 353.989 43.861C353.225 44.2576 352.391 44.4997 351.534 44.5735C350.677 44.6473 349.814 44.5514 348.994 44.2913C347.598 43.8446 346.393 42.9441 345.568 41.733C344.744 40.5218 344.349 39.0695 344.445 37.6076L344.445 37.6044C344.472 37.07 344.566 36.541 344.724 36.0299C344.724 36.0298 344.724 36.0296 344.724 36.0294L349.678 20.3676C349.678 20.3675 349.678 20.3675 349.678 20.3674C350.207 18.7086 351.373 17.3279 352.921 16.5291C354.468 15.7302 356.269 15.5787 357.928 16.1079C359.587 16.637 360.968 17.8035 361.766 19.3507C362.565 20.8979 362.717 22.6991 362.188 24.358L362.188 24.3583L357.213 40.0216Z" stroke="#33E9E9" stroke-width="0.397184"/>
</g>
<g filter="url(#filter28_f_179_2898)">
<path d="M357.308 40.0517L357.308 40.0518C357.045 40.8848 356.621 41.6577 356.059 42.3264C355.497 42.9952 354.809 43.5466 354.034 43.9492C353.259 44.3517 352.413 44.5975 351.542 44.6724C350.672 44.7474 349.796 44.6501 348.964 44.386C347.547 43.9327 346.323 43.0184 345.486 41.7889C344.649 40.5593 344.248 39.0851 344.346 37.601L344.346 37.5995C344.373 37.0567 344.468 36.5194 344.629 36.0003C344.629 36.0002 344.629 36.0001 344.629 36L349.583 20.3374C349.583 20.3374 349.583 20.3373 349.583 20.3373C350.12 18.6533 351.304 17.2518 352.875 16.4408C354.446 15.6299 356.274 15.4761 357.958 16.0133C359.642 16.5504 361.044 17.7346 361.855 19.3052C362.666 20.8758 362.819 22.7042 362.282 24.3882L362.282 24.3883L357.308 40.0517Z" stroke="white" stroke-width="0.198592"/>
</g>
<g style="mix-blend-mode:hard-light" filter="url(#filter29_f_179_2898)">
<ellipse cx="387.995" cy="54.4503" rx="16.1967" ry="14.0702" fill="#33E9C6" fill-opacity="0.1"/>
</g>
<g style="mix-blend-mode:hard-light" filter="url(#filter30_f_179_2898)">
<path d="M385.33 64.3795L385.324 64.3844L385.317 64.3897C384.643 64.9391 383.865 65.3459 383.029 65.5854C382.193 65.8249 381.317 65.8922 380.454 65.7831C379.592 65.674 378.76 65.3908 378.01 64.9507C377.26 64.5106 376.608 63.9228 376.092 63.2229C375.576 62.5231 375.207 61.7257 375.009 60.8791C374.81 60.0326 374.785 59.1546 374.936 58.2982C375.087 57.4419 375.41 56.6251 375.886 55.8974C376.362 55.1698 376.981 54.5463 377.705 54.065L377.712 54.0604L377.719 54.0555L390.936 44.3121L390.937 44.3119C392.207 43.3726 393.783 42.9401 395.355 43.0988C396.927 43.2575 398.384 43.9956 399.441 45.1695C399.512 45.2493 399.584 45.3232 399.649 45.3892C399.665 45.4053 399.68 45.421 399.695 45.4362C399.771 45.5155 399.837 45.586 399.896 45.662C400.906 47.0307 401.331 48.7442 401.079 50.4263C400.827 52.1098 399.916 53.6242 398.547 54.6365L385.33 64.3795Z" stroke="#00A8A8" stroke-width="0.683106"/>
</g>
<g style="mix-blend-mode:hard-light" filter="url(#filter31_f_179_2898)">
<path d="M385.268 64.2949L385.259 64.3014L385.251 64.3082C384.588 64.8486 383.822 65.2488 383 65.4844C382.178 65.72 381.316 65.7861 380.468 65.6788C379.619 65.5715 378.801 65.2929 378.064 64.8601C377.326 64.4272 376.684 63.849 376.176 63.1606C375.669 62.4721 375.306 61.6878 375.111 60.8551C374.916 60.0225 374.891 59.1588 375.04 58.3165C375.188 57.4741 375.506 56.6707 375.974 55.955C376.443 55.2392 377.051 54.626 377.764 54.1525L377.773 54.1465L377.781 54.1401L390.999 44.3967L390.999 44.3964C392.249 43.4726 393.798 43.0473 395.344 43.2034C396.89 43.3594 398.323 44.0852 399.363 45.2396C399.436 45.3212 399.51 45.3973 399.574 45.4633C399.59 45.4792 399.605 45.4946 399.619 45.5094C399.695 45.5876 399.757 45.6546 399.813 45.7256C400.805 47.0717 401.223 48.7566 400.975 50.4107C400.727 52.0666 399.831 53.5562 398.485 54.5519C398.485 54.5519 398.485 54.552 398.485 54.552L385.268 64.2949Z" stroke="#00A8A8" stroke-width="0.893292"/>
</g>
<g style="mix-blend-mode:hard-light" filter="url(#filter32_ddi_179_2898)">
<path d="M385.33 64.3795L385.324 64.3844L385.317 64.3897C384.643 64.9391 383.865 65.3459 383.029 65.5854C382.193 65.8249 381.317 65.8922 380.454 65.7831C379.592 65.674 378.76 65.3908 378.01 64.9507C377.26 64.5106 376.608 63.9228 376.092 63.2229C375.576 62.5231 375.207 61.7257 375.009 60.8791C374.81 60.0326 374.785 59.1546 374.936 58.2982C375.087 57.4419 375.41 56.6251 375.886 55.8974C376.362 55.1698 376.981 54.5463 377.705 54.065L377.712 54.0604L377.719 54.0555L390.936 44.3121L390.937 44.3119C392.207 43.3726 393.783 42.9401 395.355 43.0988C396.927 43.2575 398.384 43.9956 399.441 45.1695C399.512 45.2493 399.584 45.3232 399.649 45.3892C399.665 45.4053 399.68 45.421 399.695 45.4362C399.771 45.5155 399.837 45.586 399.896 45.662C400.906 47.0307 401.331 48.7442 401.079 50.4263C400.827 52.1098 399.916 53.6242 398.547 54.6365L385.33 64.3795Z" stroke="#33E9C6" stroke-opacity="0.2" stroke-width="0.683106"/>
</g>
<g filter="url(#filter33_f_179_2898)">
<path d="M385.408 64.4852L385.408 64.485L385.4 64.4915C384.712 65.0521 383.918 65.4673 383.065 65.7117C382.212 65.9561 381.318 66.0247 380.438 65.9134C379.558 65.8021 378.709 65.5131 377.944 65.064C377.179 64.6149 376.512 64.0151 375.986 63.3009C375.459 62.5867 375.083 61.773 374.881 60.9091C374.678 60.0453 374.653 59.1493 374.807 58.2754C374.961 57.4016 375.291 56.5681 375.777 55.8255C376.262 55.083 376.894 54.4468 377.633 53.9556L377.633 53.9558L377.641 53.9497L390.858 44.2064L390.858 44.2063C392.156 43.2475 393.763 42.8061 395.368 42.9681C396.973 43.13 398.46 43.8836 399.539 45.0819C399.608 45.1593 399.678 45.2306 399.742 45.2965C399.758 45.3129 399.774 45.329 399.789 45.3448C399.867 45.4253 399.937 45.5002 400.001 45.5826C401.032 46.9795 401.467 48.7286 401.209 50.4458C400.951 52.1638 400.022 53.7091 398.625 54.7421L385.408 64.4852Z" stroke="#33E9E9" stroke-width="0.420373"/>
</g>
<g filter="url(#filter34_f_179_2898)">
<path d="M385.471 64.5698L385.471 64.5697L385.467 64.573C384.768 65.1426 383.961 65.5644 383.094 65.8127C382.227 66.061 381.319 66.1308 380.425 66.0177C379.53 65.9045 378.668 65.6109 377.891 65.1546C377.113 64.6984 376.436 64.0889 375.901 63.3633C375.366 62.6376 374.984 61.8109 374.778 60.9331C374.572 60.0554 374.547 59.1451 374.703 58.2572C374.86 57.3693 375.195 56.5225 375.689 55.768C376.182 55.0135 376.824 54.3672 377.575 53.8681L377.575 53.8682L377.579 53.8651L390.796 44.1218L390.796 44.1217C392.114 43.1475 393.748 42.699 395.379 42.8635C397.009 43.0281 398.521 43.7939 399.617 45.0117C399.685 45.0872 399.752 45.1565 399.816 45.2223C399.833 45.239 399.849 45.2554 399.864 45.2717C399.943 45.3531 400.017 45.4316 400.085 45.519C401.133 46.9386 401.575 48.7162 401.313 50.4614C401.051 52.2069 400.107 53.7771 398.688 54.8266L385.471 64.5698Z" stroke="white" stroke-width="0.210186"/>
</g>
<g style="mix-blend-mode:hard-light" filter="url(#filter35_f_179_2898)">
<ellipse cx="400.967" cy="94.6489" rx="17.98" ry="8.18935" fill="#33E9C6" fill-opacity="0.1"/>
</g>
<g style="mix-blend-mode:hard-light" filter="url(#filter36_f_179_2898)">
<path d="M413.885 90.2428L413.973 90.3398H414.014C414.82 91.239 415.357 92.3478 415.562 93.5395C415.774 94.773 415.621 96.0416 415.122 97.1895C414.623 98.3374 413.8 99.3147 412.754 100.001C411.707 100.688 410.483 101.054 409.232 101.055L409.23 101.055L392.786 101.178C392.786 101.178 392.786 101.178 392.786 101.178C391.072 101.183 389.426 100.51 388.207 99.3056C386.988 98.1013 386.295 96.4637 386.279 94.7503V94.3085C386.38 92.6824 387.091 91.1543 388.27 90.0297C389.451 88.9033 391.015 88.2651 392.646 88.2431C392.647 88.2431 392.647 88.2431 392.647 88.2431L409.088 88.1198C409.088 88.1198 409.089 88.1198 409.089 88.1198C409.992 88.1191 410.885 88.3077 411.711 88.6732C412.537 89.0389 413.278 89.5735 413.885 90.2428Z" stroke="#00A8A8" stroke-width="0.590627"/>
</g>
<g style="mix-blend-mode:hard-light" filter="url(#filter37_f_179_2898)">
<path d="M413.817 90.3038L413.932 90.4306H413.974C414.753 91.3117 415.273 92.3934 415.472 93.5549C415.681 94.771 415.531 96.0216 415.039 97.1533C414.547 98.285 413.736 99.2484 412.704 99.9253C411.672 100.602 410.465 100.963 409.232 100.964L409.229 100.964L392.786 101.087C392.786 101.087 392.785 101.087 392.785 101.087C391.096 101.092 389.473 100.428 388.271 99.2409C387.069 98.0536 386.385 96.4392 386.37 94.7499V94.3114C386.47 92.7092 387.171 91.2036 388.333 90.0955C389.497 88.9849 391.038 88.3557 392.647 88.334C392.648 88.3339 392.648 88.3339 392.649 88.3339L409.088 88.2106C409.089 88.2106 409.089 88.2106 409.089 88.2106C409.98 88.2101 410.86 88.3959 411.674 88.7563C412.489 89.1168 413.219 89.644 413.817 90.3038Z" stroke="#00A8A8" stroke-width="0.772358"/>
</g>
<g style="mix-blend-mode:hard-light" filter="url(#filter38_ddi_179_2898)">
<path d="M413.885 90.2428L413.973 90.3398H414.014C414.82 91.239 415.357 92.3478 415.562 93.5395C415.774 94.773 415.621 96.0416 415.122 97.1895C414.623 98.3374 413.8 99.3147 412.754 100.001C411.707 100.688 410.483 101.054 409.232 101.055L409.23 101.055L392.786 101.178C392.786 101.178 392.786 101.178 392.786 101.178C391.072 101.183 389.426 100.51 388.207 99.3056C386.988 98.1013 386.295 96.4637 386.279 94.7503V94.3085C386.38 92.6824 387.091 91.1543 388.27 90.0297C389.451 88.9033 391.015 88.2651 392.646 88.2431C392.647 88.2431 392.647 88.2431 392.647 88.2431L409.088 88.1198C409.088 88.1198 409.089 88.1198 409.089 88.1198C409.992 88.1191 410.885 88.3077 411.711 88.6732C412.537 89.0389 413.278 89.5735 413.885 90.2428Z" stroke="#33E9C6" stroke-opacity="0.2" stroke-width="0.590627"/>
</g>
<g filter="url(#filter39_f_179_2898)">
<path d="M413.969 90.1665L414.023 90.2262H414.065C414.904 91.1479 415.462 92.2908 415.674 93.5203C415.89 94.7756 415.734 96.0666 415.226 97.2348C414.719 98.403 413.881 99.3975 412.816 100.096C411.751 100.795 410.505 101.168 409.232 101.168L409.23 101.168L392.787 101.292C392.787 101.292 392.786 101.292 392.786 101.292C391.042 101.297 389.367 100.612 388.127 99.3864C386.886 98.1609 386.181 96.4945 386.165 94.7508V94.305C386.267 92.649 386.991 91.0927 388.192 89.9475C389.394 88.8012 390.985 88.1518 392.645 88.1295C392.645 88.1295 392.646 88.1295 392.646 88.1295L409.088 88.0062C409.088 88.0062 409.088 88.0062 409.089 88.0062C410.008 88.0055 410.917 88.1973 411.757 88.5693C412.598 88.9414 413.351 89.4855 413.969 90.1665Z" stroke="#33E9E9" stroke-width="0.363463"/>
</g>
<g filter="url(#filter40_f_179_2898)">
<path d="M414.036 90.1055L414.063 90.1353H414.103H414.105C414.971 91.075 415.547 92.2451 415.763 93.5049C415.982 94.7776 415.824 96.0866 415.31 97.271C414.795 98.4554 413.946 99.4638 412.866 100.172C411.786 100.881 410.523 101.258 409.232 101.259L409.231 101.259L392.787 101.382C392.787 101.382 392.787 101.382 392.787 101.382C391.019 101.388 389.321 100.693 388.063 99.451C386.805 98.2086 386.09 96.519 386.074 94.7513V94.3022C386.177 92.6223 386.911 91.0434 388.129 89.8818C389.348 88.7196 390.961 88.0612 392.644 88.0387C392.644 88.0387 392.645 88.0387 392.645 88.0387L409.088 87.9153C409.088 87.9153 409.088 87.9153 409.088 87.9153C410.02 87.9146 410.942 88.1091 411.794 88.4862C412.646 88.8635 413.41 89.4151 414.036 90.1055Z" stroke="white" stroke-width="0.181731"/>
</g>
<g style="mix-blend-mode:hard-light" filter="url(#filter41_f_179_2898)">
<ellipse cx="387.892" cy="135.111" rx="16.1349" ry="13.8667" fill="#33E9C6" fill-opacity="0.1"/>
</g>
<g style="mix-blend-mode:hard-light" filter="url(#filter42_f_179_2898)">
<path d="M375.965 126.592L375.965 126.592C375.256 127.571 374.85 128.736 374.796 129.944L374.796 129.949L374.796 129.949C374.731 131.028 374.941 132.106 375.405 133.083C375.869 134.059 376.573 134.902 377.451 135.533C377.451 135.533 377.451 135.533 377.451 135.533L390.812 145.091L390.814 145.093C392.102 146.035 393.695 146.462 395.281 146.291C396.867 146.121 398.332 145.364 399.389 144.17C400.447 142.975 401.021 141.429 400.998 139.834C400.976 138.239 400.359 136.71 399.268 135.546L399.263 135.54L399.263 135.54C398.964 135.207 398.631 134.906 398.269 134.644C398.269 134.644 398.268 134.643 398.268 134.643L384.909 125.086L375.965 126.592ZM375.965 126.592L375.967 126.589M375.965 126.592L375.967 126.589M375.967 126.589C376.455 125.903 377.073 125.319 377.787 124.872C378.501 124.424 379.296 124.122 380.126 123.983C380.957 123.843 381.807 123.869 382.627 124.058C383.448 124.247 384.223 124.597 384.909 125.086L375.967 126.589Z" stroke="#00A8A8" stroke-width="0.67712"/>
</g>
<g style="mix-blend-mode:hard-light" filter="url(#filter43_f_179_2898)">
<path d="M376.05 126.653L376.05 126.653C375.352 127.616 374.953 128.761 374.9 129.949L374.9 129.955L374.9 129.955C374.836 131.017 375.042 132.078 375.499 133.038C375.956 133.998 376.648 134.827 377.511 135.448C377.512 135.448 377.512 135.448 377.512 135.448L390.872 145.006L390.876 145.009C392.142 145.935 393.709 146.356 395.269 146.188C396.83 146.02 398.271 145.275 399.311 144.101C400.352 142.926 400.916 141.405 400.894 139.836C400.872 138.267 400.265 136.762 399.192 135.617L399.185 135.61L399.185 135.61C398.892 135.282 398.564 134.986 398.208 134.728C398.208 134.728 398.207 134.728 398.207 134.728L384.848 125.171L376.05 126.653ZM376.05 126.653L376.052 126.65M376.05 126.653L376.052 126.65M376.052 126.65C376.532 125.974 377.14 125.4 377.842 124.96C378.544 124.52 379.326 124.223 380.143 124.085C380.961 123.948 381.797 123.973 382.604 124.16C383.411 124.346 384.174 124.689 384.848 125.171L376.052 126.65Z" stroke="#00A8A8" stroke-width="0.885464"/>
</g>
<g style="mix-blend-mode:hard-light" filter="url(#filter44_ddi_179_2898)">
<path d="M375.965 126.592L375.965 126.592C375.256 127.571 374.85 128.736 374.796 129.944L374.796 129.949L374.796 129.949C374.731 131.028 374.941 132.106 375.405 133.083C375.869 134.059 376.573 134.902 377.451 135.533C377.451 135.533 377.451 135.533 377.451 135.533L390.812 145.091L390.814 145.093C392.102 146.035 393.695 146.462 395.281 146.291C396.867 146.121 398.332 145.364 399.389 144.17C400.447 142.975 401.021 141.429 400.998 139.834C400.976 138.239 400.359 136.71 399.268 135.546L399.263 135.54L399.263 135.54C398.964 135.207 398.631 134.906 398.269 134.644C398.269 134.644 398.268 134.643 398.268 134.643L384.909 125.086L375.965 126.592ZM375.965 126.592L375.967 126.589M375.965 126.592L375.967 126.589M375.967 126.589C376.455 125.903 377.073 125.319 377.787 124.872C378.501 124.424 379.296 124.122 380.126 123.983C380.957 123.843 381.807 123.869 382.627 124.058C383.448 124.247 384.223 124.597 384.909 125.086L375.967 126.589Z" stroke="#33E9C6" stroke-opacity="0.2" stroke-width="0.67712"/>
</g>
<g filter="url(#filter45_f_179_2898)">
<path d="M375.86 126.516L375.86 126.516L375.861 126.514C376.359 125.813 376.99 125.218 377.718 124.761C378.446 124.305 379.257 123.997 380.105 123.854C380.952 123.712 381.819 123.738 382.657 123.931C383.494 124.124 384.285 124.481 384.984 124.98C384.984 124.98 384.985 124.98 384.985 124.98L398.345 134.538C398.345 134.538 398.345 134.538 398.345 134.538C398.715 134.806 399.055 135.113 399.36 135.453L399.36 135.453L399.363 135.457C400.476 136.645 401.105 138.205 401.128 139.833C401.151 141.46 400.566 143.037 399.487 144.256C398.408 145.475 396.913 146.247 395.295 146.421C393.676 146.595 392.051 146.159 390.738 145.198L390.736 145.197L377.375 135.639C377.375 135.639 377.375 135.639 377.375 135.639C376.479 134.995 375.761 134.135 375.287 133.139C374.814 132.142 374.6 131.043 374.666 129.941L374.666 129.938C374.721 128.705 375.136 127.515 375.86 126.516Z" stroke="#33E9E9" stroke-width="0.416689"/>
</g>
<g filter="url(#filter46_f_179_2898)">
<path d="M375.776 126.455L375.776 126.455L375.776 126.454C376.282 125.742 376.923 125.137 377.663 124.673C378.402 124.21 379.226 123.896 380.087 123.752C380.948 123.607 381.829 123.633 382.68 123.83C383.531 124.026 384.335 124.388 385.045 124.895L398.406 134.453C398.406 134.453 398.406 134.453 398.406 134.453C398.782 134.726 399.128 135.038 399.437 135.384L399.437 135.384L399.439 135.386C400.57 136.592 401.209 138.178 401.233 139.831C401.256 141.484 400.661 143.087 399.565 144.325C398.469 145.563 396.95 146.347 395.306 146.524C393.662 146.701 392.011 146.258 390.676 145.282L390.675 145.281L377.314 135.723C376.404 135.069 375.674 134.196 375.193 133.183C374.712 132.171 374.495 131.054 374.562 129.935L374.562 129.934C374.617 128.68 375.039 127.47 375.776 126.455Z" stroke="white" stroke-width="0.208345"/>
</g>
<defs>
<filter id="filter0_f_179_2898" x="101.828" y="56.0501" width="302.908" height="193.352" filterUnits="userSpaceOnUse" color-interpolation-filters="sRGB">
<feFlood flood-opacity="0" result="BackgroundImageFix"/>
<feBlend mode="normal" in="SourceGraphic" in2="BackgroundImageFix" result="shape"/>
<feGaussianBlur stdDeviation="12.4065" result="effect1_foregroundBlur_179_2898"/>
</filter>
<filter id="filter1_f_179_2898" x="118.37" y="72.5922" width="269.824" height="160.268" filterUnits="userSpaceOnUse" color-interpolation-filters="sRGB">
<feFlood flood-opacity="0" result="BackgroundImageFix"/>
<feBlend mode="normal" in="SourceGraphic" in2="BackgroundImageFix" result="shape"/>
<feGaussianBlur stdDeviation="4.1355" result="effect1_foregroundBlur_179_2898"/>
</filter>
<filter id="filter2_ddi_179_2898" x="115.889" y="78.3819" width="274.787" height="165.231" filterUnits="userSpaceOnUse" color-interpolation-filters="sRGB">
<feFlood flood-opacity="0" result="BackgroundImageFix"/>
<feColorMatrix in="SourceAlpha" type="matrix" values="0 0 0 0 0 0 0 0 0 0 0 0 0 0 0 0 0 0 127 0" result="hardAlpha"/>
<feOffset dy="5.37616"/>
<feGaussianBlur stdDeviation="2.06775"/>
<feColorMatrix type="matrix" values="0 0 0 0 0 0 0 0 0 0.3 0 0 0 0 0.275 0 0 0 0.7 0"/>
<feBlend mode="multiply" in2="BackgroundImageFix" result="effect1_dropShadow_179_2898"/>
<feColorMatrix in="SourceAlpha" type="matrix" values="0 0 0 0 0 0 0 0 0 0 0 0 0 0 0 0 0 0 127 0" result="hardAlpha"/>
<feOffset dy="8.27101"/>
<feGaussianBlur stdDeviation="5.37616"/>
<feColorMatrix type="matrix" values="0 0 0 0 0 0 0 0 0 0.6 0 0 0 0 0.6 0 0 0 1 0"/>
<feBlend mode="color-dodge" in2="effect1_dropShadow_179_2898" result="effect2_dropShadow_179_2898"/>
<feBlend mode="normal" in="SourceGraphic" in2="effect2_dropShadow_179_2898" result="shape"/>
<feColorMatrix in="SourceAlpha" type="matrix" values="0 0 0 0 0 0 0 0 0 0 0 0 0 0 0 0 0 0 127 0" result="hardAlpha"/>
<feOffset dx="-0.537616" dy="1.07523"/>
<feGaussianBlur stdDeviation="0.268808"/>
<feComposite in2="hardAlpha" operator="arithmetic" k2="-1" k3="1"/>
<feColorMatrix type="matrix" values="0 0 0 0 1 0 0 0 0 1 0 0 0 0 1 0 0 0 0.5 0"/>
<feBlend mode="normal" in2="shape" result="effect3_innerShadow_179_2898"/>
</filter>
<filter id="filter3_f_179_2898" x="125.814" y="80.0361" width="254.936" height="145.381" filterUnits="userSpaceOnUse" color-interpolation-filters="sRGB">
<feFlood flood-opacity="0" result="BackgroundImageFix"/>
<feBlend mode="normal" in="SourceGraphic" in2="BackgroundImageFix" result="shape"/>
<feGaussianBlur stdDeviation="0.41355" result="effect1_foregroundBlur_179_2898"/>
</filter>
<filter id="filter4_f_179_2898" x="126.09" y="80.3118" width="254.385" height="144.829" filterUnits="userSpaceOnUse" color-interpolation-filters="sRGB">
<feFlood flood-opacity="0" result="BackgroundImageFix"/>
<feBlend mode="normal" in="SourceGraphic" in2="BackgroundImageFix" result="shape"/>
<feGaussianBlur stdDeviation="0.2757" result="effect1_foregroundBlur_179_2898"/>
</filter>
<filter id="filter5_f_179_2898" x="268.901" y="30.3623" width="129.285" height="124.668" filterUnits="userSpaceOnUse" color-interpolation-filters="sRGB">
<feFlood flood-opacity="0" result="BackgroundImageFix"/>
<feBlend mode="normal" in="SourceGraphic" in2="BackgroundImageFix" result="shape"/>
<feGaussianBlur stdDeviation="7.55812" result="effect1_foregroundBlur_179_2898"/>
</filter>
<filter id="filter6_f_179_2898" x="277.155" y="38.232" width="112.776" height="108.929" filterUnits="userSpaceOnUse" color-interpolation-filters="sRGB">
<feFlood flood-opacity="0" result="BackgroundImageFix"/>
<feBlend mode="normal" in="SourceGraphic" in2="BackgroundImageFix" result="shape"/>
<feGaussianBlur stdDeviation="7.55812" result="effect1_foregroundBlur_179_2898"/>
</filter>
<filter id="filter7_f_179_2898" x="287.233" y="48.3095" width="92.621" height="88.7739" filterUnits="userSpaceOnUse" color-interpolation-filters="sRGB">
<feFlood flood-opacity="0" result="BackgroundImageFix"/>
<feBlend mode="normal" in="SourceGraphic" in2="BackgroundImageFix" result="shape"/>
<feGaussianBlur stdDeviation="2.51937" result="effect1_foregroundBlur_179_2898"/>
</filter>
<filter id="filter8_ddi_179_2898" x="285.721" y="51.8366" width="95.6442" height="91.7972" filterUnits="userSpaceOnUse" color-interpolation-filters="sRGB">
<feFlood flood-opacity="0" result="BackgroundImageFix"/>
<feColorMatrix in="SourceAlpha" type="matrix" values="0 0 0 0 0 0 0 0 0 0 0 0 0 0 0 0 0 0 127 0" result="hardAlpha"/>
<feOffset dy="2.18346"/>
<feGaussianBlur stdDeviation="0.839791"/>
<feColorMatrix type="matrix" values="0 0 0 0 0 0 0 0 0 0.3 0 0 0 0 0.275 0 0 0 0.7 0"/>
<feBlend mode="multiply" in2="BackgroundImageFix" result="effect1_dropShadow_179_2898"/>
<feColorMatrix in="SourceAlpha" type="matrix" values="0 0 0 0 0 0 0 0 0 0 0 0 0 0 0 0 0 0 127 0" result="hardAlpha"/>
<feOffset dy="5.03875"/>
<feGaussianBlur stdDeviation="3.27519"/>
<feColorMatrix type="matrix" values="0 0 0 0 0 0 0 0 0 0.6 0 0 0 0 0.6 0 0 0 1 0"/>
<feBlend mode="color-dodge" in2="effect1_dropShadow_179_2898" result="effect2_dropShadow_179_2898"/>
<feBlend mode="normal" in="SourceGraphic" in2="effect2_dropShadow_179_2898" result="shape"/>
<feColorMatrix in="SourceAlpha" type="matrix" values="0 0 0 0 0 0 0 0 0 0 0 0 0 0 0 0 0 0 127 0" result="hardAlpha"/>
<feOffset dx="-0.218346" dy="0.436691"/>
<feGaussianBlur stdDeviation="0.109173"/>
<feComposite in2="hardAlpha" operator="arithmetic" k2="-1" k3="1"/>
<feColorMatrix type="matrix" values="0 0 0 0 1 0 0 0 0 1 0 0 0 0 1 0 0 0 0.5 0"/>
<feBlend mode="normal" in2="shape" result="effect3_innerShadow_179_2898"/>
</filter>
<filter id="filter9_f_179_2898" x="291.936" y="53.0124" width="83.2153" height="79.3682" filterUnits="userSpaceOnUse" color-interpolation-filters="sRGB">
<feFlood flood-opacity="0" result="BackgroundImageFix"/>
<feBlend mode="normal" in="SourceGraphic" in2="BackgroundImageFix" result="shape"/>
<feGaussianBlur stdDeviation="0.167958" result="effect1_foregroundBlur_179_2898"/>
</filter>
<filter id="filter10_f_179_2898" x="292.048" y="53.1243" width="82.9913" height="79.1443" filterUnits="userSpaceOnUse" color-interpolation-filters="sRGB">
<feFlood flood-opacity="0" result="BackgroundImageFix"/>
<feBlend mode="normal" in="SourceGraphic" in2="BackgroundImageFix" result="shape"/>
<feGaussianBlur stdDeviation="0.111972" result="effect1_foregroundBlur_179_2898"/>
</filter>
<filter id="filter11_f_179_2898" x="257.632" y="38.1175" width="38.5194" height="33.9765" filterUnits="userSpaceOnUse" color-interpolation-filters="sRGB">
<feFlood flood-opacity="0" result="BackgroundImageFix"/>
<feBlend mode="normal" in="SourceGraphic" in2="BackgroundImageFix" result="shape"/>
<feGaussianBlur stdDeviation="1.56242" result="effect1_foregroundBlur_179_2898"/>
</filter>
<filter id="filter12_f_179_2898" x="260.321" y="40.428" width="33.1413" height="29.3554" filterUnits="userSpaceOnUse" color-interpolation-filters="sRGB">
<feFlood flood-opacity="0" result="BackgroundImageFix"/>
<feBlend mode="normal" in="SourceGraphic" in2="BackgroundImageFix" result="shape"/>
<feGaussianBlur stdDeviation="1.56242" result="effect1_foregroundBlur_179_2898"/>
</filter>
<filter id="filter13_f_179_2898" x="262.404" y="42.5112" width="28.9748" height="25.1889" filterUnits="userSpaceOnUse" color-interpolation-filters="sRGB">
<feFlood flood-opacity="0" result="BackgroundImageFix"/>
<feBlend mode="normal" in="SourceGraphic" in2="BackgroundImageFix" result="shape"/>
<feGaussianBlur stdDeviation="0.520805" result="effect1_foregroundBlur_179_2898"/>
</filter>
<filter id="filter14_ddi_179_2898" x="262.092" y="43.2404" width="29.5998" height="25.8139" filterUnits="userSpaceOnUse" color-interpolation-filters="sRGB">
<feFlood flood-opacity="0" result="BackgroundImageFix"/>
<feColorMatrix in="SourceAlpha" type="matrix" values="0 0 0 0 0 0 0 0 0 0 0 0 0 0 0 0 0 0 127 0" result="hardAlpha"/>
<feOffset dy="0.677047"/>
<feGaussianBlur stdDeviation="0.260403"/>
<feColorMatrix type="matrix" values="0 0 0 0 0 0 0 0 0 0.3 0 0 0 0 0.275 0 0 0 0.7 0"/>
<feBlend mode="multiply" in2="BackgroundImageFix" result="effect1_dropShadow_179_2898"/>
<feColorMatrix in="SourceAlpha" type="matrix" values="0 0 0 0 0 0 0 0 0 0 0 0 0 0 0 0 0 0 127 0" result="hardAlpha"/>
<feOffset dy="1.04161"/>
<feGaussianBlur stdDeviation="0.677047"/>
<feColorMatrix type="matrix" values="0 0 0 0 0 0 0 0 0 0.6 0 0 0 0 0.6 0 0 0 1 0"/>
<feBlend mode="color-dodge" in2="effect1_dropShadow_179_2898" result="effect2_dropShadow_179_2898"/>
<feBlend mode="normal" in="SourceGraphic" in2="effect2_dropShadow_179_2898" result="shape"/>
<feColorMatrix in="SourceAlpha" type="matrix" values="0 0 0 0 0 0 0 0 0 0 0 0 0 0 0 0 0 0 127 0" result="hardAlpha"/>
<feOffset dx="-0.0677047" dy="0.135409"/>
<feGaussianBlur stdDeviation="0.0338523"/>
<feComposite in2="hardAlpha" operator="arithmetic" k2="-1" k3="1"/>
<feColorMatrix type="matrix" values="0 0 0 0 1 0 0 0 0 1 0 0 0 0 1 0 0 0 0.5 0"/>
<feBlend mode="normal" in2="shape" result="effect3_innerShadow_179_2898"/>
</filter>
<filter id="filter15_f_179_2898" x="263.342" y="43.4487" width="27.0999" height="23.314" filterUnits="userSpaceOnUse" color-interpolation-filters="sRGB">
<feFlood flood-opacity="0" result="BackgroundImageFix"/>
<feBlend mode="normal" in="SourceGraphic" in2="BackgroundImageFix" result="shape"/>
<feGaussianBlur stdDeviation="0.0520805" result="effect1_foregroundBlur_179_2898"/>
</filter>
<filter id="filter16_f_179_2898" x="263.376" y="43.4834" width="27.0305" height="23.2446" filterUnits="userSpaceOnUse" color-interpolation-filters="sRGB">
<feFlood flood-opacity="0" result="BackgroundImageFix"/>
<feBlend mode="normal" in="SourceGraphic" in2="BackgroundImageFix" result="shape"/>
<feGaussianBlur stdDeviation="0.0347203" result="effect1_foregroundBlur_179_2898"/>
</filter>
<filter id="filter17_f_179_2898" x="296.493" y="8.60754" width="28.3667" height="40.7096" filterUnits="userSpaceOnUse" color-interpolation-filters="sRGB">
<feFlood flood-opacity="0" result="BackgroundImageFix"/>
<feBlend mode="normal" in="SourceGraphic" in2="BackgroundImageFix" result="shape"/>
<feGaussianBlur stdDeviation="1.48871" result="effect1_foregroundBlur_179_2898"/>
</filter>
<filter id="filter18_f_179_2898" x="298.361" y="11.5037" width="24.6314" height="34.9171" filterUnits="userSpaceOnUse" color-interpolation-filters="sRGB">
<feFlood flood-opacity="0" result="BackgroundImageFix"/>
<feBlend mode="normal" in="SourceGraphic" in2="BackgroundImageFix" result="shape"/>
<feGaussianBlur stdDeviation="1.48871" result="effect1_foregroundBlur_179_2898"/>
</filter>
<filter id="filter19_f_179_2898" x="300.346" y="13.4886" width="20.6615" height="30.9472" filterUnits="userSpaceOnUse" color-interpolation-filters="sRGB">
<feFlood flood-opacity="0" result="BackgroundImageFix"/>
<feBlend mode="normal" in="SourceGraphic" in2="BackgroundImageFix" result="shape"/>
<feGaussianBlur stdDeviation="0.496237" result="effect1_foregroundBlur_179_2898"/>
</filter>
<filter id="filter20_ddi_179_2898" x="300.048" y="14.1833" width="21.2569" height="31.5427" filterUnits="userSpaceOnUse" color-interpolation-filters="sRGB">
<feFlood flood-opacity="0" result="BackgroundImageFix"/>
<feColorMatrix in="SourceAlpha" type="matrix" values="0 0 0 0 0 0 0 0 0 0 0 0 0 0 0 0 0 0 127 0" result="hardAlpha"/>
<feOffset dy="0.645109"/>
<feGaussianBlur stdDeviation="0.248119"/>
<feColorMatrix type="matrix" values="0 0 0 0 0 0 0 0 0 0.3 0 0 0 0 0.275 0 0 0 0.7 0"/>
<feBlend mode="multiply" in2="BackgroundImageFix" result="effect1_dropShadow_179_2898"/>
<feColorMatrix in="SourceAlpha" type="matrix" values="0 0 0 0 0 0 0 0 0 0 0 0 0 0 0 0 0 0 127 0" result="hardAlpha"/>
<feOffset dy="0.992475"/>
<feGaussianBlur stdDeviation="0.645109"/>
<feColorMatrix type="matrix" values="0 0 0 0 0 0 0 0 0 0.6 0 0 0 0 0.6 0 0 0 1 0"/>
<feBlend mode="color-dodge" in2="effect1_dropShadow_179_2898" result="effect2_dropShadow_179_2898"/>
<feBlend mode="normal" in="SourceGraphic" in2="effect2_dropShadow_179_2898" result="shape"/>
<feColorMatrix in="SourceAlpha" type="matrix" values="0 0 0 0 0 0 0 0 0 0 0 0 0 0 0 0 0 0 127 0" result="hardAlpha"/>
<feOffset dx="-0.0645109" dy="0.129022"/>
<feGaussianBlur stdDeviation="0.0322554"/>
<feComposite in2="hardAlpha" operator="arithmetic" k2="-1" k3="1"/>
<feColorMatrix type="matrix" values="0 0 0 0 1 0 0 0 0 1 0 0 0 0 1 0 0 0 0.5 0"/>
<feBlend mode="normal" in2="shape" result="effect3_innerShadow_179_2898"/>
</filter>
<filter id="filter21_f_179_2898" x="301.239" y="14.3818" width="18.875" height="29.1608" filterUnits="userSpaceOnUse" color-interpolation-filters="sRGB">
<feFlood flood-opacity="0" result="BackgroundImageFix"/>
<feBlend mode="normal" in="SourceGraphic" in2="BackgroundImageFix" result="shape"/>
<feGaussianBlur stdDeviation="0.0496237" result="effect1_foregroundBlur_179_2898"/>
</filter>
<filter id="filter22_f_179_2898" x="301.272" y="14.4149" width="18.8088" height="29.0946" filterUnits="userSpaceOnUse" color-interpolation-filters="sRGB">
<feFlood flood-opacity="0" result="BackgroundImageFix"/>
<feBlend mode="normal" in="SourceGraphic" in2="BackgroundImageFix" result="shape"/>
<feGaussianBlur stdDeviation="0.0330825" result="effect1_foregroundBlur_179_2898"/>
</filter>
<filter id="filter23_f_179_2898" x="339.407" y="9.70007" width="28.1152" height="40.9947" filterUnits="userSpaceOnUse" color-interpolation-filters="sRGB">
<feFlood flood-opacity="0" result="BackgroundImageFix"/>
<feBlend mode="normal" in="SourceGraphic" in2="BackgroundImageFix" result="shape"/>
<feGaussianBlur stdDeviation="1.48944" result="effect1_foregroundBlur_179_2898"/>
</filter>
<filter id="filter24_f_179_2898" x="341.253" y="12.6199" width="24.4224" height="35.1553" filterUnits="userSpaceOnUse" color-interpolation-filters="sRGB">
<feFlood flood-opacity="0" result="BackgroundImageFix"/>
<feBlend mode="normal" in="SourceGraphic" in2="BackgroundImageFix" result="shape"/>
<feGaussianBlur stdDeviation="1.48944" result="effect1_foregroundBlur_179_2898"/>
</filter>
<filter id="filter25_f_179_2898" x="343.239" y="14.6058" width="20.4505" height="31.1834" filterUnits="userSpaceOnUse" color-interpolation-filters="sRGB">
<feFlood flood-opacity="0" result="BackgroundImageFix"/>
<feBlend mode="normal" in="SourceGraphic" in2="BackgroundImageFix" result="shape"/>
<feGaussianBlur stdDeviation="0.49648" result="effect1_foregroundBlur_179_2898"/>
</filter>
<filter id="filter26_ddi_179_2898" x="342.941" y="15.3009" width="21.0463" height="31.7792" filterUnits="userSpaceOnUse" color-interpolation-filters="sRGB">
<feFlood flood-opacity="0" result="BackgroundImageFix"/>
<feColorMatrix in="SourceAlpha" type="matrix" values="0 0 0 0 0 0 0 0 0 0 0 0 0 0 0 0 0 0 127 0" result="hardAlpha"/>
<feOffset dy="0.645424"/>
<feGaussianBlur stdDeviation="0.24824"/>
<feColorMatrix type="matrix" values="0 0 0 0 0 0 0 0 0 0.3 0 0 0 0 0.275 0 0 0 0.7 0"/>
<feBlend mode="multiply" in2="BackgroundImageFix" result="effect1_dropShadow_179_2898"/>
<feColorMatrix in="SourceAlpha" type="matrix" values="0 0 0 0 0 0 0 0 0 0 0 0 0 0 0 0 0 0 127 0" result="hardAlpha"/>
<feOffset dy="0.99296"/>
<feGaussianBlur stdDeviation="0.645424"/>
<feColorMatrix type="matrix" values="0 0 0 0 0 0 0 0 0 0.6 0 0 0 0 0.6 0 0 0 1 0"/>
<feBlend mode="color-dodge" in2="effect1_dropShadow_179_2898" result="effect2_dropShadow_179_2898"/>
<feBlend mode="normal" in="SourceGraphic" in2="effect2_dropShadow_179_2898" result="shape"/>
<feColorMatrix in="SourceAlpha" type="matrix" values="0 0 0 0 0 0 0 0 0 0 0 0 0 0 0 0 0 0 127 0" result="hardAlpha"/>
<feOffset dx="-0.0645424" dy="0.129085"/>
<feGaussianBlur stdDeviation="0.0322712"/>
<feComposite in2="hardAlpha" operator="arithmetic" k2="-1" k3="1"/>
<feColorMatrix type="matrix" values="0 0 0 0 1 0 0 0 0 1 0 0 0 0 1 0 0 0 0.5 0"/>
<feBlend mode="normal" in2="shape" result="effect3_innerShadow_179_2898"/>
</filter>
<filter id="filter27_f_179_2898" x="344.133" y="15.4995" width="18.6632" height="29.3961" filterUnits="userSpaceOnUse" color-interpolation-filters="sRGB">
<feFlood flood-opacity="0" result="BackgroundImageFix"/>
<feBlend mode="normal" in="SourceGraphic" in2="BackgroundImageFix" result="shape"/>
<feGaussianBlur stdDeviation="0.049648" result="effect1_foregroundBlur_179_2898"/>
</filter>
<filter id="filter28_f_179_2898" x="344.166" y="15.5326" width="18.597" height="29.3299" filterUnits="userSpaceOnUse" color-interpolation-filters="sRGB">
<feFlood flood-opacity="0" result="BackgroundImageFix"/>
<feBlend mode="normal" in="SourceGraphic" in2="BackgroundImageFix" result="shape"/>
<feGaussianBlur stdDeviation="0.0330987" result="effect1_foregroundBlur_179_2898"/>
</filter>
<filter id="filter29_f_179_2898" x="368.645" y="37.2273" width="38.6989" height="34.4459" filterUnits="userSpaceOnUse" color-interpolation-filters="sRGB">
<feFlood flood-opacity="0" result="BackgroundImageFix"/>
<feBlend mode="normal" in="SourceGraphic" in2="BackgroundImageFix" result="shape"/>
<feGaussianBlur stdDeviation="1.5764" result="effect1_foregroundBlur_179_2898"/>
</filter>
<filter id="filter30_f_179_2898" x="371.345" y="39.5723" width="33.3" height="29.7559" filterUnits="userSpaceOnUse" color-interpolation-filters="sRGB">
<feFlood flood-opacity="0" result="BackgroundImageFix"/>
<feBlend mode="normal" in="SourceGraphic" in2="BackgroundImageFix" result="shape"/>
<feGaussianBlur stdDeviation="1.5764" result="effect1_foregroundBlur_179_2898"/>
</filter>
<filter id="filter31_f_179_2898" x="373.446" y="41.6742" width="29.0962" height="25.5522" filterUnits="userSpaceOnUse" color-interpolation-filters="sRGB">
<feFlood flood-opacity="0" result="BackgroundImageFix"/>
<feBlend mode="normal" in="SourceGraphic" in2="BackgroundImageFix" result="shape"/>
<feGaussianBlur stdDeviation="0.525466" result="effect1_foregroundBlur_179_2898"/>
</filter>
<filter id="filter32_ddi_179_2898" x="373.131" y="42.4098" width="29.7268" height="26.1827" filterUnits="userSpaceOnUse" color-interpolation-filters="sRGB">
<feFlood flood-opacity="0" result="BackgroundImageFix"/>
<feColorMatrix in="SourceAlpha" type="matrix" values="0 0 0 0 0 0 0 0 0 0 0 0 0 0 0 0 0 0 127 0" result="hardAlpha"/>
<feOffset dy="0.683106"/>
<feGaussianBlur stdDeviation="0.262733"/>
<feColorMatrix type="matrix" values="0 0 0 0 0 0 0 0 0 0.3 0 0 0 0 0.275 0 0 0 0.7 0"/>
<feBlend mode="multiply" in2="BackgroundImageFix" result="effect1_dropShadow_179_2898"/>
<feColorMatrix in="SourceAlpha" type="matrix" values="0 0 0 0 0 0 0 0 0 0 0 0 0 0 0 0 0 0 127 0" result="hardAlpha"/>
<feOffset dy="1.05093"/>
<feGaussianBlur stdDeviation="0.683106"/>
<feColorMatrix type="matrix" values="0 0 0 0 0 0 0 0 0 0.6 0 0 0 0 0.6 0 0 0 1 0"/>
<feBlend mode="color-dodge" in2="effect1_dropShadow_179_2898" result="effect2_dropShadow_179_2898"/>
<feBlend mode="normal" in="SourceGraphic" in2="effect2_dropShadow_179_2898" result="shape"/>
<feColorMatrix in="SourceAlpha" type="matrix" values="0 0 0 0 0 0 0 0 0 0 0 0 0 0 0 0 0 0 127 0" result="hardAlpha"/>
<feOffset dx="-0.0683106" dy="0.136621"/>
<feGaussianBlur stdDeviation="0.0341553"/>
<feComposite in2="hardAlpha" operator="arithmetic" k2="-1" k3="1"/>
<feColorMatrix type="matrix" values="0 0 0 0 1 0 0 0 0 1 0 0 0 0 1 0 0 0 0.5 0"/>
<feBlend mode="normal" in2="shape" result="effect3_innerShadow_179_2898"/>
</filter>
<filter id="filter33_f_179_2898" x="374.392" y="42.62" width="27.2046" height="23.6605" filterUnits="userSpaceOnUse" color-interpolation-filters="sRGB">
<feFlood flood-opacity="0" result="BackgroundImageFix"/>
<feBlend mode="normal" in="SourceGraphic" in2="BackgroundImageFix" result="shape"/>
<feGaussianBlur stdDeviation="0.0525466" result="effect1_foregroundBlur_179_2898"/>
</filter>
<filter id="filter34_f_179_2898" x="374.427" y="42.655" width="27.1345" height="23.5904" filterUnits="userSpaceOnUse" color-interpolation-filters="sRGB">
<feFlood flood-opacity="0" result="BackgroundImageFix"/>
<feBlend mode="normal" in="SourceGraphic" in2="BackgroundImageFix" result="shape"/>
<feGaussianBlur stdDeviation="0.0350311" result="effect1_foregroundBlur_179_2898"/>
</filter>
<filter id="filter35_f_179_2898" x="380.261" y="83.7336" width="41.4119" height="21.8306" filterUnits="userSpaceOnUse" color-interpolation-filters="sRGB">
<feFlood flood-opacity="0" result="BackgroundImageFix"/>
<feBlend mode="normal" in="SourceGraphic" in2="BackgroundImageFix" result="shape"/>
<feGaussianBlur stdDeviation="1.36298" result="effect1_foregroundBlur_179_2898"/>
</filter>
<filter id="filter36_f_179_2898" x="383.257" y="85.0985" width="35.4185" height="19.1009" filterUnits="userSpaceOnUse" color-interpolation-filters="sRGB">
<feFlood flood-opacity="0" result="BackgroundImageFix"/>
<feBlend mode="normal" in="SourceGraphic" in2="BackgroundImageFix" result="shape"/>
<feGaussianBlur stdDeviation="1.36298" result="effect1_foregroundBlur_179_2898"/>
</filter>
<filter id="filter37_f_179_2898" x="385.075" y="86.9158" width="31.7839" height="15.4662" filterUnits="userSpaceOnUse" color-interpolation-filters="sRGB">
<feFlood flood-opacity="0" result="BackgroundImageFix"/>
<feBlend mode="normal" in="SourceGraphic" in2="BackgroundImageFix" result="shape"/>
<feGaussianBlur stdDeviation="0.454328" result="effect1_foregroundBlur_179_2898"/>
</filter>
<filter id="filter38_ddi_179_2898" x="384.802" y="87.5519" width="32.3291" height="16.0114" filterUnits="userSpaceOnUse" color-interpolation-filters="sRGB">
<feFlood flood-opacity="0" result="BackgroundImageFix"/>
<feColorMatrix in="SourceAlpha" type="matrix" values="0 0 0 0 0 0 0 0 0 0 0 0 0 0 0 0 0 0 127 0" result="hardAlpha"/>
<feOffset dy="0.590627"/>
<feGaussianBlur stdDeviation="0.227164"/>
<feColorMatrix type="matrix" values="0 0 0 0 0 0 0 0 0 0.3 0 0 0 0 0.275 0 0 0 0.7 0"/>
<feBlend mode="multiply" in2="BackgroundImageFix" result="effect1_dropShadow_179_2898"/>
<feColorMatrix in="SourceAlpha" type="matrix" values="0 0 0 0 0 0 0 0 0 0 0 0 0 0 0 0 0 0 127 0" result="hardAlpha"/>
<feOffset dy="0.908657"/>
<feGaussianBlur stdDeviation="0.590627"/>
<feColorMatrix type="matrix" values="0 0 0 0 0 0 0 0 0 0.6 0 0 0 0 0.6 0 0 0 1 0"/>
<feBlend mode="color-dodge" in2="effect1_dropShadow_179_2898" result="effect2_dropShadow_179_2898"/>
<feBlend mode="normal" in="SourceGraphic" in2="effect2_dropShadow_179_2898" result="shape"/>
<feColorMatrix in="SourceAlpha" type="matrix" values="0 0 0 0 0 0 0 0 0 0 0 0 0 0 0 0 0 0 127 0" result="hardAlpha"/>
<feOffset dx="-0.0590627" dy="0.118125"/>
<feGaussianBlur stdDeviation="0.0295313"/>
<feComposite in2="hardAlpha" operator="arithmetic" k2="-1" k3="1"/>
<feColorMatrix type="matrix" values="0 0 0 0 1 0 0 0 0 1 0 0 0 0 1 0 0 0 0.5 0"/>
<feBlend mode="normal" in2="shape" result="effect3_innerShadow_179_2898"/>
</filter>
<filter id="filter39_f_179_2898" x="385.893" y="87.7336" width="30.1483" height="13.8307" filterUnits="userSpaceOnUse" color-interpolation-filters="sRGB">
<feFlood flood-opacity="0" result="BackgroundImageFix"/>
<feBlend mode="normal" in="SourceGraphic" in2="BackgroundImageFix" result="shape"/>
<feGaussianBlur stdDeviation="0.0454328" result="effect1_foregroundBlur_179_2898"/>
</filter>
<filter id="filter40_f_179_2898" x="385.923" y="87.7639" width="30.0877" height="13.7701" filterUnits="userSpaceOnUse" color-interpolation-filters="sRGB">
<feFlood flood-opacity="0" result="BackgroundImageFix"/>
<feBlend mode="normal" in="SourceGraphic" in2="BackgroundImageFix" result="shape"/>
<feGaussianBlur stdDeviation="0.0302886" result="effect1_foregroundBlur_179_2898"/>
</filter>
<filter id="filter41_f_179_2898" x="368.631" y="118.119" width="38.5201" height="33.9837" filterUnits="userSpaceOnUse" color-interpolation-filters="sRGB">
<feFlood flood-opacity="0" result="BackgroundImageFix"/>
<feBlend mode="normal" in="SourceGraphic" in2="BackgroundImageFix" result="shape"/>
<feGaussianBlur stdDeviation="1.56258" result="effect1_foregroundBlur_179_2898"/>
</filter>
<filter id="filter42_f_179_2898" x="371.321" y="120.43" width="33.1419" height="29.3614" filterUnits="userSpaceOnUse" color-interpolation-filters="sRGB">
<feFlood flood-opacity="0" result="BackgroundImageFix"/>
<feBlend mode="normal" in="SourceGraphic" in2="BackgroundImageFix" result="shape"/>
<feGaussianBlur stdDeviation="1.56258" result="effect1_foregroundBlur_179_2898"/>
</filter>
<filter id="filter43_f_179_2898" x="373.404" y="122.514" width="28.975" height="25.1945" filterUnits="userSpaceOnUse" color-interpolation-filters="sRGB">
<feFlood flood-opacity="0" result="BackgroundImageFix"/>
<feBlend mode="normal" in="SourceGraphic" in2="BackgroundImageFix" result="shape"/>
<feGaussianBlur stdDeviation="0.520861" result="effect1_foregroundBlur_179_2898"/>
</filter>
<filter id="filter44_ddi_179_2898" x="373.092" y="123.243" width="29.6001" height="25.8196" filterUnits="userSpaceOnUse" color-interpolation-filters="sRGB">
<feFlood flood-opacity="0" result="BackgroundImageFix"/>
<feColorMatrix in="SourceAlpha" type="matrix" values="0 0 0 0 0 0 0 0 0 0 0 0 0 0 0 0 0 0 127 0" result="hardAlpha"/>
<feOffset dy="0.67712"/>
<feGaussianBlur stdDeviation="0.260431"/>
<feColorMatrix type="matrix" values="0 0 0 0 0 0 0 0 0 0.3 0 0 0 0 0.275 0 0 0 0.7 0"/>
<feBlend mode="multiply" in2="BackgroundImageFix" result="effect1_dropShadow_179_2898"/>
<feColorMatrix in="SourceAlpha" type="matrix" values="0 0 0 0 0 0 0 0 0 0 0 0 0 0 0 0 0 0 127 0" result="hardAlpha"/>
<feOffset dy="1.04172"/>
<feGaussianBlur stdDeviation="0.67712"/>
<feColorMatrix type="matrix" values="0 0 0 0 0 0 0 0 0 0.6 0 0 0 0 0.6 0 0 0 1 0"/>
<feBlend mode="color-dodge" in2="effect1_dropShadow_179_2898" result="effect2_dropShadow_179_2898"/>
<feBlend mode="normal" in="SourceGraphic" in2="effect2_dropShadow_179_2898" result="shape"/>
<feColorMatrix in="SourceAlpha" type="matrix" values="0 0 0 0 0 0 0 0 0 0 0 0 0 0 0 0 0 0 127 0" result="hardAlpha"/>
<feOffset dx="-0.067712" dy="0.135424"/>
<feGaussianBlur stdDeviation="0.033856"/>
<feComposite in2="hardAlpha" operator="arithmetic" k2="-1" k3="1"/>
<feColorMatrix type="matrix" values="0 0 0 0 1 0 0 0 0 1 0 0 0 0 1 0 0 0 0.5 0"/>
<feBlend mode="normal" in2="shape" result="effect3_innerShadow_179_2898"/>
</filter>
<filter id="filter45_f_179_2898" x="374.342" y="123.451" width="27.0999" height="23.3194" filterUnits="userSpaceOnUse" color-interpolation-filters="sRGB">
<feFlood flood-opacity="0" result="BackgroundImageFix"/>
<feBlend mode="normal" in="SourceGraphic" in2="BackgroundImageFix" result="shape"/>
<feGaussianBlur stdDeviation="0.0520861" result="effect1_foregroundBlur_179_2898"/>
</filter>
<filter id="filter46_f_179_2898" x="374.376" y="123.486" width="27.0305" height="23.25" filterUnits="userSpaceOnUse" color-interpolation-filters="sRGB">
<feFlood flood-opacity="0" result="BackgroundImageFix"/>
<feBlend mode="normal" in="SourceGraphic" in2="BackgroundImageFix" result="shape"/>
<feGaussianBlur stdDeviation="0.0347241" result="effect1_foregroundBlur_179_2898"/>
</filter>
</defs>
</svg>
