<svg width="63" height="62" viewBox="0 0 63 62" fill="none" xmlns="http://www.w3.org/2000/svg">
<path d="M31.8688 46.3012C23.3516 46.3012 16.4215 39.3724 16.4215 30.8526C16.4215 22.3353 23.3529 15.4053 31.8688 15.4053C40.3887 15.4053 47.3174 22.3353 47.3174 30.8526C47.3174 39.3724 40.3874 46.3012 31.8688 46.3012ZM31.8688 18.4955C25.0545 18.4955 19.5118 24.0409 19.5118 30.8539C19.5118 37.6708 25.0558 43.2122 31.8688 43.2122C38.6818 43.2122 44.2272 37.6708 44.2272 30.8539C44.2272 24.0409 38.6831 18.4955 31.8688 18.4955Z" fill="#00FF19"/>
<path d="M31.8692 9.52849C31.0171 9.52849 30.3254 8.8368 30.3254 7.98336V1.54512C30.3254 0.691689 31.0158 0 31.8692 0C32.7226 0 33.4156 0.691689 33.4156 1.54512V7.98336C33.4156 8.8368 32.7213 9.52849 31.8692 9.52849Z" fill="#00FF19"/>
<path d="M47.2455 17.3802C46.8497 17.3802 46.4538 17.229 46.1527 16.9278C45.5491 16.3256 45.5491 15.3472 46.1527 14.7436L51.6875 9.20879C52.2911 8.60521 53.2682 8.60521 53.8717 9.20879C54.4753 9.81106 54.4753 10.7894 53.8717 11.393L48.3369 16.9278C48.0358 17.229 47.6413 17.3802 47.2455 17.3802Z" fill="#00FF19"/>
<path d="M14.0313 17.3802C13.6355 17.3802 13.2396 17.229 12.9398 16.9278L7.40367 11.393C6.8014 10.7894 6.8014 9.81238 7.40367 9.20879C8.00725 8.60521 8.9843 8.60521 9.58788 9.20879L15.124 14.7436C15.7263 15.3472 15.7263 16.3243 15.124 16.9278C14.8229 17.229 14.4271 17.3802 14.0313 17.3802Z" fill="#00FF19"/>
<path d="M30.6381 61.471C29.786 61.471 29.093 60.7793 29.093 59.9259V53.489C29.093 52.6355 29.7846 51.9438 30.6381 51.9438C31.4915 51.9438 32.1832 52.6355 32.1832 53.489V59.9259C32.1832 60.7806 31.4915 61.471 30.6381 61.471Z" fill="#00FF19"/>
<path d="M9.72694 52.7171C9.33244 52.7171 8.93794 52.5672 8.63549 52.2648C8.0319 51.6625 8.0319 50.6841 8.63549 50.0805L14.1703 44.5457C14.7739 43.9421 15.7523 43.9421 16.3559 44.5457C16.9594 45.148 16.9594 46.1263 16.3559 46.7299L10.821 52.2648C10.5186 52.5672 10.1228 52.7171 9.72694 52.7171Z" fill="#00FF19"/>
<path d="M54.0114 52.7171C53.6169 52.7171 53.2211 52.5672 52.92 52.2648L47.3851 46.7299C46.7815 46.1263 46.7815 45.1493 47.3851 44.5457C47.9887 43.9421 48.9644 43.9421 49.568 44.5457L55.1055 50.0805C55.7078 50.6841 55.7078 51.6625 55.1055 52.2648C54.8017 52.5672 54.4072 52.7171 54.0114 52.7171Z" fill="#00FF19"/>
<path d="M8.49621 32.3988H1.54381C0.691689 32.3988 0 31.7085 0 30.8537C0 30.0016 0.690374 29.3086 1.54381 29.3086H8.49621C9.34833 29.3086 10.04 30.0016 10.04 30.8537C10.04 31.7072 9.34965 32.3988 8.49621 32.3988Z" fill="#00FF19"/>
<path d="M61.0198 32.3988H52.78C51.9279 32.3988 51.2336 31.7085 51.2336 30.8537C51.2336 30.0016 51.9266 29.3086 52.78 29.3086H61.0198C61.8719 29.3086 62.5636 30.0016 62.5636 30.8537C62.5636 31.7072 61.8719 32.3988 61.0198 32.3988Z" fill="#00FF19"/>
</svg>
