<svg width="72" height="52" viewBox="0 0 72 52" fill="none" xmlns="http://www.w3.org/2000/svg">
<path d="M55.2822 7.1638C55.6992 7.28649 56.1477 7.24119 56.5318 7.03762C56.9159 6.83405 57.2051 6.48835 57.3377 6.07436L58.5711 2.18935C58.6596 1.91024 58.6719 1.61258 58.6069 1.3271C58.5418 1.04162 58.4017 0.778684 58.2011 0.565457C58.0151 0.338136 57.7641 0.173166 57.4816 0.0926879C57.2751 0.0291733 57.0581 0.00697131 56.8431 0.027354C56.628 0.0477368 56.419 0.110294 56.2281 0.211468C56.0372 0.312643 55.8681 0.450456 55.7305 0.617006C55.5929 0.783555 55.4894 0.975584 55.4261 1.18213L54.1927 5.06713C54.1831 5.19714 54.1831 5.32768 54.1927 5.45769C54.1717 5.82054 54.2656 6.18079 54.4612 6.48713C54.6568 6.79347 54.9441 7.03028 55.2822 7.1638Z" fill="#00FF19"/>
<path d="M64.2654 12.3644L67.5338 9.93886C67.8918 9.67586 68.1315 9.28216 68.2008 8.84334C68.2701 8.40451 68.1633 7.95606 67.9038 7.59553L67.7804 7.4722C67.5066 7.16226 67.1261 6.96688 66.7146 6.92497C66.3032 6.88307 65.8911 6.99772 65.5604 7.24609L62.2715 9.69221C61.9145 9.96479 61.6803 10.3681 61.6205 10.8133C61.5608 11.2585 61.6803 11.7093 61.9529 12.0664C62.2255 12.4235 62.6288 12.6576 63.074 12.7174C63.5193 12.7771 63.97 12.6576 64.3271 12.385L64.2654 12.3644Z" fill="#00FF19"/>
<path d="M71.4186 18.6546C71.2625 18.482 71.0723 18.3435 70.86 18.248C70.6477 18.1525 70.418 18.1019 70.1852 18.0996H66.0741C65.6534 18.104 65.2498 18.2676 64.9448 18.5574C64.6397 18.8472 64.4556 19.2418 64.4297 19.6619V19.7852C64.4351 20.2286 64.6151 20.6521 64.9306 20.9638C65.2461 21.2754 65.6717 21.4502 66.1152 21.4502H70.2264C70.6698 21.4448 71.0933 21.2648 71.405 20.9493C71.7166 20.6338 71.8914 20.2081 71.8914 19.7646C71.8801 19.3481 71.7111 18.9514 71.4186 18.6546Z" fill="#00FF19"/>
<path d="M34.7477 9.98044L38.016 12.3443C38.3538 12.5655 38.7597 12.6582 39.16 12.6054C39.5603 12.5527 39.9283 12.3579 40.1971 12.0567C40.466 11.7555 40.6178 11.3678 40.6249 10.9642C40.6321 10.5605 40.4941 10.1676 40.236 9.85711C40.1858 9.79789 40.1308 9.74289 40.0716 9.69267L36.7621 7.30821C36.3991 7.05075 35.949 6.94733 35.51 7.0205C35.071 7.09367 34.6787 7.33749 34.4188 7.69877C34.2354 7.95738 34.1351 8.26568 34.131 8.58268C34.1148 8.84797 34.1623 9.11329 34.2696 9.35646C34.3769 9.59964 34.5408 9.81359 34.7477 9.98044Z" fill="#00FF19"/>
<path d="M44.615 5.06751L44.9439 6.07475C44.9947 6.30479 45.0932 6.52162 45.233 6.71124C45.3728 6.90087 45.5508 7.05908 45.7556 7.17567C45.9603 7.29226 46.1872 7.36464 46.4216 7.38814C46.656 7.41164 46.8928 7.38574 47.1166 7.31211C47.3403 7.23847 47.5462 7.11873 47.7209 6.96063C47.8955 6.80253 48.0351 6.60957 48.1306 6.3942C48.2261 6.17883 48.2754 5.94584 48.2753 5.71025C48.2752 5.47466 48.2257 5.2417 48.13 5.02641L46.835 1.16195C46.8135 1.08777 46.7787 1.01812 46.7322 0.956402C46.557 0.583799 46.2499 0.289339 45.8703 0.129895C45.4906 -0.029549 45.0654 -0.0426619 44.6767 0.093072C44.2695 0.234149 43.9319 0.525787 43.7331 0.908083C43.5343 1.29038 43.4894 1.7343 43.6078 2.14863L44.615 5.06751Z" fill="#00FF19"/>
<path d="M67.5339 29.6106L64.2244 27.2467C63.8614 26.9892 63.4113 26.8858 62.9722 26.959C62.5332 27.0321 62.141 27.276 61.8811 27.6373C61.7007 27.8988 61.5942 28.2042 61.5727 28.5212C61.5612 28.803 61.6188 29.0834 61.7406 29.3378C61.8625 29.5922 62.0448 29.8129 62.2716 29.9806L65.5811 32.3445C65.9188 32.5657 66.3247 32.6584 66.725 32.6056C67.1253 32.5528 67.4933 32.3581 67.7622 32.0569C68.031 31.7557 68.1828 31.368 68.19 30.9643C68.1971 30.5606 68.0591 30.1678 67.8011 29.8573C67.7222 29.7646 67.6325 29.6818 67.5339 29.6106Z" fill="#00FF19"/>
<path d="M53.495 30.248C52.9342 28.7622 51.8564 27.5285 50.4593 26.7733C49.0623 26.0182 47.4397 25.7922 45.8895 26.1369C44.5525 23.4437 42.5609 21.1291 40.0972 19.4052C37.6336 17.6814 34.7767 16.6035 31.7883 16.2703C31.0689 16.2703 30.4728 16.1675 29.8767 16.1675C26.4944 16.1856 23.1863 17.1603 20.3346 18.979C17.4829 20.7977 15.204 23.3862 13.7611 26.4453C12.0454 26.308 10.3197 26.5196 8.68803 27.0675C7.05636 27.6153 5.55258 28.4879 4.26737 29.6328C2.98216 30.7776 1.94217 32.171 1.21013 33.7287C0.478093 35.2865 0.0691765 36.9764 0.00804237 38.6964C-0.0530917 40.4165 0.234814 42.1312 0.854419 43.7369C1.47402 45.3427 2.41248 46.8064 3.61317 48.0396C4.81386 49.2728 6.25189 50.25 7.84055 50.9123C9.42921 51.5746 11.1356 51.9082 12.8567 51.893H52.2206C54.9837 51.8781 57.6376 50.8117 59.6428 48.9106C61.6481 47.0095 62.8545 44.4163 63.0167 41.6579C63.179 38.8994 62.285 36.1826 60.5165 34.0596C58.7479 31.9365 56.2374 30.5663 53.495 30.2275V30.248ZM52.2 48.3986H12.8567C10.4105 48.3932 8.06614 47.4191 6.33646 45.6894C4.60678 43.9597 3.63265 41.6153 3.62722 39.1692C3.63045 38.3862 3.72708 37.6065 3.91501 36.8464C4.4367 34.8728 5.59659 33.1272 7.21395 31.8816C8.83131 30.6361 10.8153 29.9605 12.8567 29.9603C13.4217 29.958 13.9858 30.0061 14.5422 30.1041L15.9811 30.3714L16.495 28.9942C17.5431 26.3145 19.3706 24.0106 21.7413 22.38C24.112 20.7495 26.9172 19.8671 29.7945 19.8469C30.2672 19.8469 30.74 19.8469 31.3361 19.8469C32.8598 20.0159 34.3456 20.4324 35.735 21.0803C39.1855 22.6553 41.8745 25.529 43.2172 29.0764L43.9367 31.0086L45.725 29.9808C46.0632 29.7834 46.4369 29.6546 46.8249 29.6017C47.2128 29.5488 47.6074 29.5728 47.9861 29.6725C48.6052 29.81 49.1659 30.1375 49.5897 30.6092C50.0136 31.081 50.2794 31.6734 50.35 32.3036L50.5761 33.7836H52.2C54.1517 33.7836 56.0235 34.5589 57.4035 35.939C58.7836 37.319 59.5589 39.1908 59.5589 41.1425C59.5589 43.0942 58.7836 44.9659 57.4035 46.346C56.0235 47.7261 54.1517 48.5014 52.2 48.5014V48.3986Z" fill="#00FF19"/>
<path d="M46.8544 24.3896C48.4362 24.2989 50.0113 24.6582 51.3974 25.4258C52.7834 26.1934 53.9237 27.3379 54.6861 28.7268L55.7961 28.994C57.3546 28.1973 58.6838 27.0157 59.6578 25.5613C60.6317 24.1069 61.218 22.4279 61.3612 20.6834C61.5043 18.9389 61.1996 17.1867 60.4759 15.593C59.7521 13.9993 58.6333 12.6168 57.2255 11.5766C55.8178 10.5365 54.1677 9.87303 52.4317 9.64927C50.6957 9.42551 48.9313 9.64882 47.3058 10.298C45.6803 10.9472 44.2475 12.0009 43.1433 13.359C42.039 14.7171 41.3 16.3347 40.9961 18.0585C43.3941 19.7084 45.3952 21.871 46.8544 24.3896ZM44.9428 14.1118C46.135 12.7551 47.7589 12.2413 48.5811 12.9813C49.4033 13.7213 49.0744 15.3657 47.8822 16.7224C46.69 18.079 45.0661 18.5724 44.2439 17.8529C43.4217 17.1335 43.7506 15.4274 44.9428 14.0707V14.1118Z" fill="#00FF19"/>
</svg>
