<svg width="59" height="56" viewBox="0 0 59 56" fill="none" xmlns="http://www.w3.org/2000/svg">
<path d="M38.2139 16.6336C35.6278 14.5005 32.378 13.3372 29.0256 13.3448C25.2094 13.3448 21.5496 14.8607 18.8511 17.5592C16.1527 20.2576 14.6367 23.9175 14.6367 27.7337C14.6689 31.5399 16.1952 35.181 18.8867 37.8725C21.5782 40.564 25.2194 42.0903 29.0256 42.1225C32.0295 42.1679 34.9723 41.2718 37.4412 39.56C39.9101 37.8482 41.7813 35.4066 42.7923 32.5776C43.8033 29.7485 43.9035 26.674 43.0787 23.7851C42.2539 20.8963 40.5456 18.338 38.1934 16.4692L38.2139 16.6336ZM20.3512 19.7787C22.0162 17.8875 24.2978 17.1681 25.4489 18.1753C26.6001 19.1825 26.1684 21.5464 24.4828 23.4375C22.7973 25.3287 20.5362 26.0481 19.385 25.0409C18.2339 24.0336 18.7478 21.6698 20.3512 19.7787Z" fill="#00FF19"/>
<path d="M13.7725 38.5668C13.3797 38.1419 12.8447 37.8759 12.2689 37.819C11.6931 37.7622 11.1164 37.9186 10.6481 38.2585L6.06421 41.6502C5.78508 41.8513 5.55503 42.1129 5.39129 42.4155C5.22754 42.718 5.13435 43.0537 5.11866 43.3974C5.07843 43.846 5.16952 44.2967 5.38084 44.6945C5.59217 45.0923 5.9146 45.4201 6.30888 45.638C6.70316 45.8558 7.15228 45.9543 7.60154 45.9214C8.05079 45.8886 8.48081 45.7258 8.83921 45.4529L13.4437 42.0613C13.6929 41.8784 13.9035 41.648 14.0633 41.3834C14.2231 41.1188 14.329 40.8252 14.3749 40.5195C14.4207 40.2138 14.4057 39.902 14.3305 39.6022C14.2553 39.3023 14.1216 39.0203 13.937 38.7724L13.7725 38.5668Z" fill="#00FF19"/>
<path d="M10.4012 27.7749C10.3938 27.1963 10.1744 26.6404 9.78455 26.2127C9.56049 25.9736 9.28994 25.7828 8.98948 25.652C8.68903 25.5212 8.36501 25.4532 8.03733 25.4521H2.32288C1.72909 25.4562 1.15899 25.6856 0.727818 26.0939C0.296644 26.5022 0.0365442 27.0589 9.66041e-05 27.6516C9.66041e-05 27.6516 9.66041e-05 27.7749 9.66041e-05 27.816C-0.00550483 28.436 0.232683 29.0333 0.663316 29.4793C1.09395 29.9254 1.68256 30.1843 2.30232 30.2005H8.01677C8.33339 30.2005 8.64685 30.1375 8.93886 30.0151C9.23087 29.8927 9.49557 29.7134 9.71753 29.4876C9.9395 29.2618 10.1143 28.9941 10.2316 28.7C10.349 28.406 10.4067 28.0915 10.4012 27.7749Z" fill="#00FF19"/>
<path d="M34.8624 10.1178C35.1566 10.2101 35.4662 10.2434 35.7733 10.2158C36.0804 10.1882 36.3791 10.1003 36.6521 9.95712C36.9252 9.8139 37.1673 9.61819 37.3646 9.38121C37.5619 9.14423 37.7105 8.87065 37.8018 8.57614L39.5285 3.12892C39.6545 2.73737 39.6733 2.31923 39.5829 1.91797C39.4925 1.51671 39.2963 1.14699 39.0146 0.847256C38.7444 0.541068 38.3964 0.313756 38.0074 0.18947C37.7132 0.0936329 37.403 0.0570024 37.0945 0.0816915C36.7861 0.106381 36.4857 0.191902 36.2105 0.33332C35.9353 0.474737 35.6908 0.669256 35.4912 0.905642C35.2916 1.14203 35.1407 1.4156 35.0474 1.71059L33.3207 7.15781C33.2993 7.34907 33.2993 7.54211 33.3207 7.73336C33.2848 8.24416 33.4156 8.75283 33.6937 9.18284C33.9717 9.61285 34.3818 9.94096 34.8624 10.1178Z" fill="#00FF19"/>
<path d="M47.5249 17.3944L52.1088 13.9822C52.358 13.7993 52.5686 13.569 52.7284 13.3044C52.8883 13.0398 52.9942 12.7461 53.04 12.4404C53.0859 12.1347 53.0708 11.823 52.9956 11.5231C52.9205 11.2233 52.7867 10.9412 52.6021 10.6933C52.5526 10.6334 52.4975 10.5784 52.4377 10.5289C52.0536 10.0983 51.523 9.82617 50.9492 9.76538C50.3754 9.70458 49.7996 9.8595 49.3338 10.2L44.7293 13.5916C44.4554 13.7978 44.2291 14.0606 44.0659 14.3621C43.9028 14.6636 43.8065 14.9968 43.7838 15.3389C43.7388 15.891 43.8999 16.4402 44.236 16.8805C44.6057 17.3826 45.1587 17.7183 45.7747 17.8145C46.3906 17.9108 47.0197 17.7598 47.5249 17.3944Z" fill="#00FF19"/>
<path d="M57.4944 26.2128C57.2726 25.9707 57.0025 25.7779 56.7016 25.6469C56.4006 25.5159 56.0754 25.4495 55.7471 25.4522H50.0327C49.441 25.4566 48.8733 25.6867 48.4454 26.0954C48.0176 26.5042 47.7619 27.0608 47.7305 27.6517C47.7305 27.6517 47.7305 27.775 47.7305 27.8161C47.7359 28.4395 47.9873 29.0355 48.4301 29.4744C48.8728 29.9132 49.471 30.1595 50.0944 30.1595H55.8088C56.2657 30.1589 56.7124 30.0248 57.0941 29.7737C57.4757 29.5225 57.7756 29.1653 57.9569 28.746C58.1382 28.3266 58.1929 27.8634 58.1144 27.4133C58.0359 26.9633 57.8275 26.546 57.5149 26.2128H57.4944Z" fill="#00FF19"/>
<path d="M37.7613 47.1177C37.7217 47.0179 37.6735 46.9216 37.6174 46.83C37.3499 46.3042 36.8939 45.8987 36.3405 45.6943C35.7871 45.49 35.177 45.502 34.632 45.7278C34.087 45.9535 33.6472 46.3766 33.4004 46.9124C33.1537 47.4482 33.1181 48.0574 33.3007 48.6183L34.6163 52.6061L35.1096 54.0244C35.2051 54.3175 35.3574 54.589 35.558 54.8231C35.7585 55.0573 36.0033 55.2495 36.2782 55.3889C36.5532 55.5283 36.853 55.6121 37.1604 55.6354C37.4678 55.6588 37.7768 55.6212 38.0696 55.525C38.6599 55.3232 39.1476 54.8981 39.4282 54.3409C39.7087 53.7837 39.7597 53.1388 39.5702 52.5444L37.7613 47.1177Z" fill="#00FF19"/>
<path d="M23.2492 45.5556C22.6577 45.3683 22.0161 45.4233 21.465 45.7084C20.914 45.9936 20.4985 46.4856 20.3098 47.0767L18.5831 52.5239C18.5634 52.7152 18.5634 52.9081 18.5831 53.0995C18.5388 53.6766 18.7098 54.2497 19.0629 54.7084C19.4161 55.167 19.9265 55.4787 20.4958 55.5834C21.0652 55.688 21.6531 55.5783 22.1463 55.2753C22.6395 54.9722 23.0031 54.4974 23.167 53.9422L24.8937 48.495C25.0092 48.1024 25.0227 47.6868 24.9328 47.2875C24.8428 46.8882 24.6525 46.5185 24.3798 46.2133C24.073 45.8912 23.6809 45.6631 23.2492 45.5556Z" fill="#00FF19"/>
<path d="M13.4434 13.5509L8.79788 10.2209C8.5462 10.0394 8.26097 9.90974 7.95877 9.83937C7.65657 9.76901 7.34339 9.75936 7.03743 9.81099C6.73147 9.86262 6.43881 9.9745 6.17644 10.1401C5.91406 10.3058 5.68718 10.5219 5.50898 10.7759C5.26116 11.1353 5.11229 11.5535 5.07732 11.9887C5.05702 12.3864 5.13668 12.783 5.30903 13.142C5.48138 13.5011 5.74094 13.8113 6.06399 14.0442L10.7095 17.3742C11.1796 17.7334 11.7681 17.9015 12.3569 17.8447C12.9458 17.788 13.4914 17.5107 13.8842 17.0684C14.2771 16.6261 14.4881 16.0516 14.475 15.4602C14.4618 14.8688 14.2255 14.3042 13.8134 13.8798C13.7006 13.7589 13.5767 13.6487 13.4434 13.5509Z" fill="#00FF19"/>
<path d="M19.8783 7.15765L20.351 8.57598C20.4482 8.87562 20.6035 9.15318 20.8079 9.39281C21.0124 9.63245 21.262 9.82947 21.5426 9.97263C21.8232 10.1158 22.1292 10.2023 22.4432 10.2272C22.7572 10.252 23.0731 10.2148 23.3727 10.1177C23.6723 10.0205 23.9499 9.86523 24.1895 9.66078C24.4292 9.45634 24.6262 9.2067 24.7693 8.92611C24.9125 8.64552 24.999 8.33948 25.0239 8.02547C25.0488 7.71146 25.0116 7.39562 24.9144 7.09598L23.1055 1.66932C23.0732 1.56985 23.0319 1.47353 22.9821 1.38154C22.733 0.828093 22.2789 0.392879 21.7154 0.167523C21.1519 -0.0578328 20.5229 -0.0557494 19.9608 0.173326C19.3988 0.402401 18.9476 0.840605 18.7021 1.39569C18.4567 1.95077 18.4362 2.57942 18.6449 3.14932L19.8783 7.15765Z" fill="#00FF19"/>
<path d="M52.0468 41.6086L47.4013 38.2786C46.8968 37.9165 46.2693 37.7694 45.6565 37.8696C45.0437 37.9698 44.4957 38.3091 44.1329 38.8131C43.8729 39.1739 43.723 39.6022 43.7012 40.0464C43.6728 40.4431 43.7468 40.8404 43.9159 41.2003C44.0851 41.5602 44.3438 41.8707 44.6674 42.102L49.3129 45.4114C49.783 45.7705 50.3715 45.9386 50.9603 45.8819C51.5492 45.8252 52.0947 45.5478 52.4876 45.1055C52.8804 44.6633 53.0915 44.0888 53.0784 43.4973C53.0652 42.9059 52.8289 42.3414 52.4168 41.917C52.3132 41.7926 52.1878 41.6881 52.0468 41.6086Z" fill="#00FF19"/>
</svg>
