<svg width="43" height="32" viewBox="0 0 43 32" fill="none" xmlns="http://www.w3.org/2000/svg">
<path d="M33.3743 22.49H31.3743C31.3743 16.812 26.7553 12.192 21.0773 12.192C15.3993 12.192 10.7793 16.812 10.7793 22.49H8.7793C8.7793 15.709 14.2963 10.192 21.0773 10.192C27.8573 10.192 33.3743 15.708 33.3743 22.49Z" fill="#00FF19"/>
<path d="M22.0771 0.400024H20.0771V7.80302H22.0771V0.400024Z" fill="#00FF19"/>
<path d="M12.1147 11.1005L6.88 5.86584L5.4658 7.28004L10.7005 12.5147L12.1147 11.1005Z" fill="#00FF19"/>
<path d="M36.6869 7.27907L35.2727 5.86487L30.038 11.0995L31.4522 12.5137L36.6869 7.27907Z" fill="#00FF19"/>
<path d="M42.153 20.4767H34.75V22.4767H42.153V20.4767Z" fill="#00FF19"/>
<path d="M7.402 20.4767H0V22.4767H7.402V20.4767Z" fill="#00FF19"/>
<path d="M33.3743 24.9908H8.7793V26.9908H33.3743V24.9908Z" fill="#00FF19"/>
<path d="M33.3743 29.15H8.7793V31.15H33.3743V29.15Z" fill="#00FF19"/>
</svg>
