<svg width="323" height="249" viewBox="0 0 323 249" fill="none" xmlns="http://www.w3.org/2000/svg">
<path d="M226.779 91.2288C226.851 90.5053 226.887 89.7786 226.884 89.0515C226.874 82.466 224.254 76.1531 219.598 71.4964C214.942 66.8397 208.63 64.2192 202.045 64.2092C197.428 64.1977 192.901 65.4867 188.983 67.9288C186.571 53.7915 173.615 43.2075 158.444 44.0466C144.013 44.8026 132.584 55.3262 130.709 68.8738C128.13 67.9532 125.412 67.4802 122.674 67.4752C116.086 67.4832 109.771 70.1038 105.113 74.7624C100.455 79.4209 97.8348 85.7369 97.8268 92.325C97.8268 92.6198 97.8268 92.9071 97.8721 93.2171C90.9328 95.1071 80.9698 99.1214 81.0001 113.312C81.0001 123.85 89.7687 132.9 101.697 133.467L226.423 132.885C231.121 131.233 235.169 128.123 237.975 124.01C240.782 119.896 242.201 114.993 242.025 110.015C241.64 101.246 235.479 93.8521 226.779 91.2288Z" fill="#00FF19"/>
<path d="M115.16 205.04L115.995 203.733L145.228 158.021L116.829 157.968L141.004 118.827H143.343L126.976 152.9L157.453 153.051L115.16 205.04Z" fill="#00FF19"/>
<path d="M160.707 187.147L161.441 185.964L187.295 144.558L162.184 144.513L183.562 109.067H185.627L171.149 139.927L198.12 140.064L160.707 187.147Z" fill="#00FF19"/>
<g style="mix-blend-mode:hard-light" filter="url(#filter0_f_179_4251)">
<ellipse cx="161.04" cy="89.4666" rx="96.624" ry="53.68" fill="#33E9C6" fill-opacity="0.1"/>
</g>
<g style="mix-blend-mode:hard-light" filter="url(#filter1_f_179_4251)">
<mask id="path-5-inside-1_179_4251" fill="white">
<path d="M226.299 91.9622C226.371 91.2387 226.407 90.512 226.404 89.7849C226.394 83.1994 223.774 76.8865 219.118 72.2298C214.462 67.5731 208.15 64.9526 201.565 64.9426C196.948 64.9311 192.421 66.2201 188.503 68.6622C186.091 54.5249 173.135 43.9409 157.964 44.78C143.533 45.536 132.104 56.0596 130.229 69.6072C127.65 68.6866 124.932 68.2136 122.194 68.2086C115.606 68.2166 109.291 70.8372 104.633 75.4958C99.9752 80.1543 97.3548 86.4703 97.3468 93.0584C97.3468 93.3532 97.3468 93.6405 97.3922 93.9505C90.4528 95.8405 80.4899 99.8548 80.5201 114.045C80.5201 124.584 89.2887 133.633 101.217 134.2L225.943 133.618C230.641 131.966 234.689 128.857 237.495 124.743C240.302 120.629 241.721 115.726 241.546 110.749C241.16 101.979 234.999 94.5855 226.299 91.9622Z"/>
</mask>
<path d="M226.299 91.9622L222.923 91.6226L222.644 94.4033L225.319 95.21L226.299 91.9622ZM226.404 89.7849L223.012 89.79L223.012 89.7955L226.404 89.7849ZM201.565 64.9426L201.557 68.3349L201.56 68.3349L201.565 64.9426ZM188.503 68.6622L185.159 69.2325L186.008 74.2138L190.297 71.5411L188.503 68.6622ZM157.964 44.78L158.141 48.1677L158.151 48.1671L157.964 44.78ZM130.229 69.6072L129.089 72.8021L133.018 74.2043L133.589 70.0722L130.229 69.6072ZM122.194 68.2086L122.2 64.8163L122.19 64.8163L122.194 68.2086ZM97.3468 93.0584L93.9545 93.0543V93.0584H97.3468ZM97.3922 93.9505L98.2836 97.2235L101.184 96.4336L100.749 93.4593L97.3922 93.9505ZM80.5201 114.045H83.9124L83.9124 114.038L80.5201 114.045ZM101.217 134.2L101.056 137.589L101.144 137.593L101.233 137.592L101.217 134.2ZM225.943 133.618L225.959 137.01L226.53 137.008L227.068 136.818L225.943 133.618ZM241.546 110.749L244.936 110.629L244.935 110.615L244.934 110.6L241.546 110.749ZM229.674 92.3017C229.758 91.4618 229.799 90.6182 229.797 89.7743L223.012 89.7955C223.014 90.4058 222.984 91.0156 222.923 91.6226L229.674 92.3017ZM229.797 89.7797C229.785 82.2965 226.808 75.1229 221.517 69.8312L216.719 74.6284C220.741 78.6501 223.004 84.1023 223.012 89.79L229.797 89.7797ZM221.517 69.8312C216.226 64.5396 209.053 61.5617 201.57 61.5504L201.56 68.3349C207.247 68.3435 212.698 70.6067 216.719 74.6284L221.517 69.8312ZM201.574 61.5504C196.319 61.5372 191.168 63.0042 186.709 65.7832L190.297 71.5411C193.675 69.4361 197.577 68.3249 201.557 68.3349L201.574 61.5504ZM191.847 68.0918C189.142 52.2354 174.65 40.4596 157.776 41.3929L158.151 48.1671C171.62 47.4221 183.041 56.8145 185.159 69.2325L191.847 68.0918ZM157.786 41.3924C141.782 42.2309 128.973 53.9339 126.869 69.1422L133.589 70.0722C135.234 58.1853 145.285 48.8412 158.141 48.1677L157.786 41.3924ZM131.369 66.4123C128.426 65.3618 125.325 64.822 122.2 64.8163L122.188 71.6008C124.54 71.6052 126.874 72.0114 129.089 72.8021L131.369 66.4123ZM122.19 64.8163C114.704 64.8254 107.527 67.8035 102.234 73.0972L107.032 77.8943C111.055 73.871 116.509 71.6078 122.198 71.6008L122.19 64.8163ZM102.234 73.0972C96.9412 78.3909 93.9636 85.568 93.9545 93.0543L100.739 93.0625C100.746 87.3725 103.009 81.9176 107.032 77.8943L102.234 73.0972ZM93.9545 93.0584C93.9545 93.326 93.9493 93.8516 94.0356 94.4416L100.749 93.4593C100.748 93.4539 100.745 93.4297 100.742 93.3684C100.739 93.2968 100.739 93.2162 100.739 93.0584H93.9545ZM96.5007 90.6774C92.904 91.657 88.0395 93.3004 84.0754 96.8617C79.9655 100.554 77.1108 106.044 77.1278 114.052L83.9124 114.038C83.8992 107.856 86.0108 104.243 88.6096 101.909C91.3543 99.4428 94.941 98.1339 98.2836 97.2235L96.5007 90.6774ZM77.1278 114.045C77.1278 126.568 87.4975 136.944 101.056 137.589L101.378 130.812C91.08 130.322 83.9124 122.599 83.9124 114.045H77.1278ZM101.233 137.592L225.959 137.01L225.928 130.226L101.201 130.808L101.233 137.592ZM227.068 136.818C232.448 134.927 237.083 131.366 240.298 126.655L234.693 122.831C232.294 126.348 228.834 129.006 224.818 130.418L227.068 136.818ZM240.298 126.655C243.512 121.944 245.137 116.329 244.936 110.629L238.155 110.868C238.305 115.123 237.092 119.314 234.693 122.831L240.298 126.655ZM244.934 110.6C244.48 100.257 237.226 91.7139 227.278 88.7143L225.319 95.21C232.772 97.4572 237.84 103.702 238.156 110.898L244.934 110.6Z" fill="#00A8A8" mask="url(#path-5-inside-1_179_4251)"/>
</g>
<g style="mix-blend-mode:hard-light" filter="url(#filter2_f_179_4251)">
<mask id="path-7-inside-2_179_4251" fill="white">
<path d="M226.299 91.9622C226.371 91.2387 226.407 90.512 226.404 89.7849C226.394 83.1994 223.774 76.8865 219.118 72.2298C214.462 67.5731 208.15 64.9526 201.565 64.9426C196.948 64.9311 192.421 66.2201 188.503 68.6622C186.091 54.5249 173.135 43.9409 157.964 44.78C143.533 45.536 132.104 56.0596 130.229 69.6072C127.65 68.6866 124.932 68.2136 122.194 68.2086C115.606 68.2166 109.291 70.8372 104.633 75.4958C99.9752 80.1543 97.3548 86.4703 97.3468 93.0584C97.3468 93.3532 97.3468 93.6405 97.3922 93.9505C90.4528 95.8405 80.4899 99.8548 80.5201 114.045C80.5201 124.584 89.2887 133.633 101.217 134.2L225.943 133.618C230.641 131.966 234.689 128.857 237.495 124.743C240.302 120.629 241.721 115.726 241.546 110.749C241.16 101.979 234.999 94.5855 226.299 91.9622Z"/>
</mask>
<path d="M226.299 91.9622L221.885 91.5182L221.519 95.1544L225.018 96.2094L226.299 91.9622ZM226.404 89.7849L221.968 89.7916L221.968 89.7987L226.404 89.7849ZM201.565 64.9426L201.554 69.3787L201.558 69.3787L201.565 64.9426ZM188.503 68.6622L184.13 69.408L185.241 75.922L190.849 72.427L188.503 68.6622ZM157.964 44.78L158.196 49.21L158.209 49.2093L157.964 44.78ZM130.229 69.6072L128.738 73.7851L133.876 75.6188L134.623 70.2152L130.229 69.6072ZM122.194 68.2086L122.202 63.7725L122.188 63.7725L122.194 68.2086ZM97.3468 93.0584L92.9107 93.053V93.0584H97.3468ZM97.3922 93.9505L98.5579 98.2306L102.351 97.1976L101.781 93.3082L97.3922 93.9505ZM80.5201 114.045H84.9562L84.9561 114.036L80.5201 114.045ZM101.217 134.2L101.006 138.631L101.122 138.637L101.238 138.636L101.217 134.2ZM225.943 133.618L225.964 138.054L226.71 138.05L227.415 137.803L225.943 133.618ZM241.546 110.749L245.979 110.593L245.978 110.573L245.977 110.554L241.546 110.749ZM230.712 92.4062C230.801 91.5305 230.843 90.6509 230.84 89.771L221.968 89.7987C221.97 90.3731 221.942 90.947 221.885 91.5182L230.712 92.4062ZM230.841 89.7782C230.829 82.0186 227.741 74.5802 222.255 69.0932L215.981 75.3664C219.807 79.1927 221.96 84.3801 221.968 89.7916L230.841 89.7782ZM222.255 69.0932C216.769 63.6062 209.331 60.5184 201.572 60.5066L201.558 69.3787C206.969 69.3869 212.155 71.5401 215.981 75.3664L222.255 69.0932ZM201.576 60.5066C196.126 60.493 190.782 62.0147 186.157 64.8974L190.849 72.427C194.06 70.4256 197.77 69.3692 201.554 69.3787L201.576 60.5066ZM192.876 67.9163C190.081 51.5309 175.116 39.3884 157.719 40.3507L158.209 49.2093C171.154 48.4933 182.102 57.5189 184.13 69.408L192.876 67.9163ZM157.732 40.35C141.243 41.2139 128.01 53.2798 125.835 68.9991L134.623 70.2152C136.198 58.8394 145.824 49.8582 158.196 49.21L157.732 40.35ZM131.72 65.4293C128.665 64.3388 125.446 63.7785 122.202 63.7725L122.186 72.6446C124.419 72.6487 126.635 73.0344 128.738 73.7851L131.72 65.4293ZM122.188 63.7725C114.426 63.7819 106.985 66.87 101.496 72.3592L107.77 78.6323C111.598 74.8045 116.787 72.6512 122.199 72.6446L122.188 63.7725ZM101.496 72.3592C96.0077 77.8483 92.9202 85.2904 92.9108 93.053L101.783 93.0638C101.789 87.6501 103.943 82.4602 107.77 78.6323L101.496 72.3592ZM92.9107 93.0584C92.9107 93.3176 92.9039 93.9166 93.0028 94.5927L101.781 93.3082C101.787 93.3488 101.787 93.3631 101.785 93.3283C101.785 93.3097 101.784 93.2812 101.783 93.2357C101.783 93.1875 101.783 93.1357 101.783 93.0584H92.9107ZM96.2264 89.6703C92.5906 90.6606 87.5296 92.3554 83.3779 96.0853C79.0355 99.9865 76.0664 105.765 76.084 114.054L84.9561 114.036C84.9436 108.135 86.9408 104.811 89.3072 102.685C91.8643 100.388 95.2544 99.1304 98.5579 98.2306L96.2264 89.6703ZM76.084 114.045C76.084 127.179 86.9463 137.963 101.006 138.631L101.428 129.769C91.6312 129.303 84.9561 121.989 84.9561 114.045H76.084ZM101.238 138.636L225.964 138.054L225.923 129.182L101.196 129.764L101.238 138.636ZM227.415 137.803C233.005 135.838 237.82 132.138 241.16 127.243L233.831 122.243C231.557 125.576 228.278 128.095 224.472 129.433L227.415 137.803ZM241.16 127.243C244.499 122.348 246.188 116.514 245.979 110.593L237.112 110.905C237.254 114.938 236.105 118.91 233.831 122.243L241.16 127.243ZM245.977 110.554C245.501 99.7269 237.912 90.8303 227.579 87.715L225.018 96.2094C232.087 98.3407 236.819 104.232 237.114 110.944L245.977 110.554Z" fill="#00A8A8" mask="url(#path-7-inside-2_179_4251)"/>
</g>
<g style="mix-blend-mode:hard-light" filter="url(#filter3_ddi_179_4251)">
<mask id="path-9-inside-3_179_4251" fill="white">
<path d="M226.299 91.9622C226.371 91.2387 226.407 90.512 226.404 89.7849C226.394 83.1994 223.774 76.8865 219.118 72.2298C214.462 67.5731 208.15 64.9526 201.565 64.9426C196.948 64.9311 192.421 66.2201 188.503 68.6622C186.091 54.5249 173.135 43.9409 157.964 44.78C143.533 45.536 132.104 56.0596 130.229 69.6072C127.65 68.6866 124.932 68.2136 122.194 68.2086C115.606 68.2166 109.291 70.8372 104.633 75.4958C99.9752 80.1543 97.3548 86.4703 97.3468 93.0584C97.3468 93.3532 97.3468 93.6405 97.3922 93.9505C90.4528 95.8405 80.4899 99.8548 80.5201 114.045C80.5201 124.584 89.2887 133.633 101.217 134.2L225.943 133.618C230.641 131.966 234.689 128.857 237.495 124.743C240.302 120.629 241.721 115.726 241.546 110.749C241.16 101.979 234.999 94.5855 226.299 91.9622Z"/>
</mask>
<path d="M226.299 91.9622L222.923 91.6226L222.644 94.4033L225.319 95.21L226.299 91.9622ZM226.404 89.7849L223.012 89.79L223.012 89.7955L226.404 89.7849ZM201.565 64.9426L201.557 68.3349L201.56 68.3349L201.565 64.9426ZM188.503 68.6622L185.159 69.2325L186.008 74.2138L190.297 71.5411L188.503 68.6622ZM157.964 44.78L158.141 48.1677L158.151 48.1671L157.964 44.78ZM130.229 69.6072L129.089 72.8021L133.018 74.2043L133.589 70.0722L130.229 69.6072ZM122.194 68.2086L122.2 64.8163L122.19 64.8163L122.194 68.2086ZM97.3468 93.0584L93.9545 93.0543V93.0584H97.3468ZM97.3922 93.9505L98.2836 97.2235L101.184 96.4336L100.749 93.4593L97.3922 93.9505ZM80.5201 114.045H83.9124L83.9124 114.038L80.5201 114.045ZM101.217 134.2L101.056 137.589L101.144 137.593L101.233 137.592L101.217 134.2ZM225.943 133.618L225.959 137.01L226.53 137.008L227.068 136.818L225.943 133.618ZM241.546 110.749L244.936 110.629L244.935 110.615L244.934 110.6L241.546 110.749ZM229.674 92.3017C229.758 91.4618 229.799 90.6182 229.797 89.7743L223.012 89.7955C223.014 90.4058 222.984 91.0156 222.923 91.6226L229.674 92.3017ZM229.797 89.7797C229.785 82.2965 226.808 75.1229 221.517 69.8312L216.719 74.6284C220.741 78.6501 223.004 84.1023 223.012 89.79L229.797 89.7797ZM221.517 69.8312C216.226 64.5396 209.053 61.5617 201.57 61.5504L201.56 68.3349C207.247 68.3435 212.698 70.6067 216.719 74.6284L221.517 69.8312ZM201.574 61.5504C196.319 61.5372 191.168 63.0042 186.709 65.7832L190.297 71.5411C193.675 69.4361 197.577 68.3249 201.557 68.3349L201.574 61.5504ZM191.847 68.0918C189.142 52.2354 174.65 40.4596 157.776 41.3929L158.151 48.1671C171.62 47.4221 183.041 56.8145 185.159 69.2325L191.847 68.0918ZM157.786 41.3924C141.782 42.2309 128.973 53.9339 126.869 69.1422L133.589 70.0722C135.234 58.1853 145.285 48.8412 158.141 48.1677L157.786 41.3924ZM131.369 66.4123C128.426 65.3618 125.325 64.822 122.2 64.8163L122.188 71.6008C124.54 71.6052 126.874 72.0114 129.089 72.8021L131.369 66.4123ZM122.19 64.8163C114.704 64.8254 107.527 67.8035 102.234 73.0972L107.032 77.8943C111.055 73.871 116.509 71.6078 122.198 71.6008L122.19 64.8163ZM102.234 73.0972C96.9412 78.3909 93.9636 85.568 93.9545 93.0543L100.739 93.0625C100.746 87.3725 103.009 81.9176 107.032 77.8943L102.234 73.0972ZM93.9545 93.0584C93.9545 93.326 93.9493 93.8516 94.0356 94.4416L100.749 93.4593C100.748 93.4539 100.745 93.4297 100.742 93.3684C100.739 93.2968 100.739 93.2162 100.739 93.0584H93.9545ZM96.5007 90.6774C92.904 91.657 88.0395 93.3004 84.0754 96.8617C79.9655 100.554 77.1108 106.044 77.1278 114.052L83.9124 114.038C83.8992 107.856 86.0108 104.243 88.6096 101.909C91.3543 99.4428 94.941 98.1339 98.2836 97.2235L96.5007 90.6774ZM77.1278 114.045C77.1278 126.568 87.4975 136.944 101.056 137.589L101.378 130.812C91.08 130.322 83.9124 122.599 83.9124 114.045H77.1278ZM101.233 137.592L225.959 137.01L225.928 130.226L101.201 130.808L101.233 137.592ZM227.068 136.818C232.448 134.927 237.083 131.366 240.298 126.655L234.693 122.831C232.294 126.348 228.834 129.006 224.818 130.418L227.068 136.818ZM240.298 126.655C243.512 121.944 245.137 116.329 244.936 110.629L238.155 110.868C238.305 115.123 237.092 119.314 234.693 122.831L240.298 126.655ZM244.934 110.6C244.48 100.257 237.226 91.7139 227.278 88.7143L225.319 95.21C232.772 97.4572 237.84 103.702 238.156 110.898L244.934 110.6Z" fill="#33E9C6" fill-opacity="0.2" mask="url(#path-9-inside-3_179_4251)"/>
</g>
<g filter="url(#filter4_f_179_4251)">
<mask id="path-11-inside-4_179_4251" fill="white">
<path d="M226.299 91.9622C226.371 91.2387 226.407 90.512 226.404 89.7849C226.394 83.1994 223.774 76.8865 219.118 72.2298C214.462 67.5731 208.15 64.9526 201.565 64.9426C196.948 64.9311 192.421 66.2201 188.503 68.6622C186.091 54.5249 173.135 43.9409 157.964 44.78C143.533 45.536 132.104 56.0596 130.229 69.6072C127.65 68.6866 124.932 68.2136 122.194 68.2086C115.606 68.2166 109.291 70.8372 104.633 75.4958C99.9752 80.1543 97.3548 86.4703 97.3468 93.0584C97.3468 93.3532 97.3468 93.6405 97.3922 93.9505C90.4528 95.8405 80.4899 99.8548 80.5201 114.045C80.5201 124.584 89.2887 133.633 101.217 134.2L225.943 133.618C230.641 131.966 234.689 128.857 237.495 124.743C240.302 120.629 241.721 115.726 241.546 110.749C241.16 101.979 234.999 94.5855 226.299 91.9622Z"/>
</mask>
<path d="M226.299 91.9622L224.222 91.7532L224.049 93.4644L225.696 93.9609L226.299 91.9622ZM226.404 89.7849L224.317 89.7881V89.7914L226.404 89.7849ZM201.565 64.9426L201.56 67.0302L201.562 67.0302L201.565 64.9426ZM188.503 68.6622L186.445 69.0132L186.968 72.0786L189.607 70.4338L188.503 68.6622ZM157.964 44.78L158.073 46.8647L158.079 46.8644L157.964 44.78ZM130.229 69.6072L129.527 71.5733L131.945 72.4362L132.297 69.8933L130.229 69.6072ZM122.194 68.2086L122.198 66.121L122.191 66.121L122.194 68.2086ZM97.3468 93.0584L95.2592 93.0559V93.0584H97.3468ZM97.3922 93.9505L97.9407 95.9647L99.7255 95.4785L99.4577 93.6482L97.3922 93.9505ZM80.5201 114.045H82.6076L82.6076 114.041L80.5201 114.045ZM101.217 134.2L101.118 136.285L101.172 136.288L101.227 136.288L101.217 134.2ZM225.943 133.618L225.953 135.705L226.304 135.704L226.636 135.587L225.943 133.618ZM241.546 110.749L243.632 110.675L243.631 110.666L243.631 110.657L241.546 110.749ZM228.376 92.1711C228.456 91.376 228.495 90.5774 228.492 89.7784L224.317 89.7914C224.319 90.4466 224.287 91.1014 224.222 91.7532L228.376 92.1711ZM228.492 89.7817C228.481 82.6437 225.641 75.8012 220.594 70.7538L217.642 73.7058C221.907 77.9718 224.308 83.755 224.317 89.7881L228.492 89.7817ZM220.594 70.7538C215.548 65.7064 208.706 62.8659 201.568 62.8551L201.562 67.0302C207.594 67.0393 213.377 69.4399 217.642 73.7058L220.594 70.7538ZM201.57 62.8551C196.561 62.8426 191.65 64.2411 187.399 66.8905L189.607 70.4338C193.193 68.1992 197.335 67.0196 201.56 67.0302L201.57 62.8551ZM190.561 68.3112C187.969 53.116 174.067 41.7985 157.848 42.6957L158.079 46.8644C172.203 46.0832 184.214 55.9339 186.445 69.0132L190.561 68.3112ZM157.855 42.6953C142.455 43.5021 130.177 54.7515 128.161 69.321L132.297 69.8933C134.03 57.3677 144.611 47.57 158.073 46.8647L157.855 42.6953ZM130.931 67.6411C128.128 66.6406 125.174 66.1265 122.198 66.121L122.19 70.2961C124.691 70.3007 127.172 70.7326 129.527 71.5733L130.931 67.6411ZM122.191 66.121C115.051 66.1297 108.206 68.9703 103.157 74.0197L106.109 76.9718C110.376 72.7042 116.162 70.3035 122.196 70.2961L122.191 66.121ZM103.157 74.0197C98.1081 79.0691 95.2679 85.915 95.2592 93.0559L99.4344 93.0609C99.4417 87.0255 101.842 81.2394 106.109 76.9718L103.157 74.0197ZM95.2592 93.0584C95.2592 93.3365 95.256 93.7704 95.3266 94.2527L99.4577 93.6482C99.4376 93.5106 99.4344 93.37 99.4344 93.0584H95.2592ZM96.8436 91.9363C93.2957 92.9026 88.677 94.4816 84.9474 97.8323C81.1281 101.264 78.4162 106.392 78.4325 114.049L82.6076 114.041C82.5937 107.508 84.8482 103.534 87.7377 100.938C90.7169 98.2616 94.5493 96.8884 97.9407 95.9647L96.8436 91.9363ZM78.4325 114.045C78.4325 125.805 88.1864 135.671 101.118 136.285L101.316 132.115C90.391 131.596 82.6076 123.362 82.6076 114.045H78.4325ZM101.227 136.288L225.953 135.705L225.934 131.53L101.207 132.113L101.227 136.288ZM226.636 135.587C231.753 133.788 236.162 130.401 239.22 125.919L235.771 123.566C233.215 127.313 229.529 130.145 225.251 131.649L226.636 135.587ZM239.22 125.919C242.277 121.438 243.823 116.097 243.632 110.675L239.459 110.822C239.619 115.355 238.327 119.82 235.771 123.566L239.22 125.919ZM243.631 110.657C243.203 100.919 236.37 92.8183 226.901 89.9635L225.696 93.9609C233.629 96.3527 239.117 103.039 239.46 110.841L243.631 110.657Z" fill="#33E9E9" mask="url(#path-11-inside-4_179_4251)"/>
</g>
<g filter="url(#filter5_f_179_4251)">
<mask id="path-13-inside-5_179_4251" fill="white">
<path d="M226.299 91.9622C226.371 91.2387 226.407 90.512 226.404 89.7849C226.394 83.1994 223.774 76.8865 219.118 72.2298C214.462 67.5731 208.15 64.9526 201.565 64.9426C196.948 64.9311 192.421 66.2201 188.503 68.6622C186.091 54.5249 173.135 43.9409 157.964 44.78C143.533 45.536 132.104 56.0596 130.229 69.6072C127.65 68.6866 124.932 68.2136 122.194 68.2086C115.606 68.2166 109.291 70.8372 104.633 75.4958C99.9752 80.1543 97.3548 86.4703 97.3468 93.0584C97.3468 93.3532 97.3468 93.6405 97.3922 93.9505C90.4528 95.8405 80.4899 99.8548 80.5201 114.045C80.5201 124.584 89.2887 133.633 101.217 134.2L225.943 133.618C230.641 131.966 234.689 128.857 237.495 124.743C240.302 120.629 241.721 115.726 241.546 110.749C241.16 101.979 234.999 94.5855 226.299 91.9622Z"/>
</mask>
<path d="M226.299 91.9622L225.26 91.8577L225.174 92.7133L225.997 92.9615L226.299 91.9622ZM226.404 89.7849L225.361 89.7865V89.7882L226.404 89.7849ZM201.565 64.9426L201.562 65.9864L201.563 65.9864L201.565 64.9426ZM188.503 68.6622L187.474 68.8377L187.735 70.3704L189.055 69.548L188.503 68.6622ZM157.964 44.78L158.018 45.8224L158.021 45.8222L157.964 44.78ZM130.229 69.6072L129.878 70.5902L131.087 71.0217L131.263 69.7502L130.229 69.6072ZM122.194 68.2086L122.196 67.1648L122.193 67.1648L122.194 68.2086ZM97.3468 93.0584L96.303 93.0571V93.0584H97.3468ZM97.3922 93.9505L97.6665 94.9576L98.5588 94.7145L98.4249 93.7994L97.3922 93.9505ZM80.5201 114.045H81.5639L81.5639 114.043L80.5201 114.045ZM101.217 134.2L101.168 135.243L101.195 135.244L101.222 135.244L101.217 134.2ZM225.943 133.618L225.948 134.662L226.124 134.661L226.29 134.603L225.943 133.618ZM241.546 110.749L242.589 110.712L242.588 110.703L241.546 110.749ZM227.337 92.0667C227.414 91.3074 227.451 90.5447 227.448 89.7816L225.361 89.7882C225.363 90.4793 225.329 91.1701 225.26 91.8577L227.337 92.0667ZM227.448 89.7833C227.438 82.9216 224.708 76.3438 219.856 71.4918L218.38 72.9678C222.841 77.4291 225.351 83.4772 225.361 89.7865L227.448 89.7833ZM219.856 71.4918C215.005 66.6398 208.428 63.9093 201.567 63.8989L201.563 65.9864C207.872 65.996 213.919 68.5065 218.38 72.9678L219.856 71.4918ZM201.568 63.8989C196.755 63.8868 192.036 65.2306 187.951 67.7763L189.055 69.548C192.807 67.2097 197.142 65.9754 201.562 65.9864L201.568 63.8989ZM189.532 68.4867C187.03 53.8204 173.601 42.8697 157.906 43.7378L158.021 45.8222C172.669 45.012 185.153 55.2294 187.474 68.8377L189.532 68.4867ZM157.909 43.7377C142.994 44.5191 131.141 55.4055 129.195 69.4641L131.263 69.7502C133.067 56.7137 144.072 46.553 158.018 45.8224L157.909 43.7377ZM130.58 68.6241C127.889 67.6636 125.053 67.17 122.196 67.1648L122.192 69.2523C124.812 69.2572 127.411 69.7096 129.878 70.5902L130.58 68.6241ZM122.193 67.1648C115.329 67.1731 108.748 69.9038 103.895 74.7577L105.371 76.2338C109.834 71.7707 115.884 69.26 122.195 69.2523L122.193 67.1648ZM103.895 74.7577C99.0417 79.6117 96.3114 86.1926 96.303 93.0571L98.3906 93.0597C98.3982 86.7479 100.909 80.6968 105.371 76.2338L103.895 74.7577ZM96.303 93.0584C96.303 93.3448 96.3014 93.7055 96.3594 94.1016L98.4249 93.7994C98.3922 93.5756 98.3906 93.3616 98.3906 93.0584H96.303ZM97.1179 92.9434C93.6091 93.899 89.187 95.4266 85.645 98.6087C82.0581 101.831 79.4606 106.671 79.4763 114.047L81.5639 114.043C81.5493 107.229 83.9182 102.966 87.0401 100.162C90.2069 97.3166 94.2359 95.8919 97.6665 94.9576L97.1179 92.9434ZM79.4763 114.045C79.4763 125.194 88.7376 134.652 101.168 135.243L101.267 133.157C89.8399 132.614 81.5639 123.973 81.5639 114.045H79.4763ZM101.222 135.244L225.948 134.662L225.938 132.574L101.212 133.156L101.222 135.244ZM226.29 134.603C231.197 132.877 235.426 129.629 238.357 125.331L236.633 124.155C233.952 128.085 230.085 131.055 225.597 132.633L226.29 134.603ZM238.357 125.331C241.289 121.034 242.772 115.912 242.589 110.712L240.502 110.786C240.67 115.541 239.314 120.225 236.633 124.155L238.357 125.331ZM242.588 110.703C242.181 101.449 235.685 93.7019 226.6 90.9628L225.997 92.9615C234.314 95.4691 240.138 102.509 240.503 110.795L242.588 110.703Z" fill="white" mask="url(#path-13-inside-5_179_4251)"/>
</g>
<g style="mix-blend-mode:hard-light" filter="url(#filter6_f_179_4251)">
<path d="M187.296 142.75L163.567 142.706L184.003 108.822H184.396L170.441 138.568L169.922 139.675L171.145 139.682L196.506 139.811L168.657 174.858L187.958 143.946L188.704 142.752L187.296 142.75Z" stroke="#00A8A8" stroke-width="1.56397"/>
</g>
<g style="mix-blend-mode:hard-light" filter="url(#filter7_f_179_4251)">
<path d="M171.144 139.922L196.01 140.049L171.108 171.387L188.162 144.073L189.137 142.512L187.297 142.509L163.993 142.467L183.591 109.971L170.224 138.465L169.544 139.914L171.144 139.922Z" stroke="#00A8A8" stroke-width="2.04519"/>
</g>
<g style="mix-blend-mode:hard-light" filter="url(#filter8_ddi_179_4251)">
<path d="M187.296 142.75L163.567 142.706L184.003 108.822H184.396L170.441 138.568L169.922 139.675L171.145 139.682L196.506 139.811L168.657 174.858L187.958 143.946L188.704 142.752L187.296 142.75Z" stroke="#33E9C6" stroke-opacity="0.2" stroke-width="1.56397"/>
</g>
<g filter="url(#filter9_f_179_4251)">
<path d="M187.296 143.05L163.035 143.006L183.833 108.521H184.869L170.714 138.695L170.394 139.377L171.147 139.381L197.127 139.513L165.592 179.198L187.703 143.787L188.162 143.052L187.296 143.05Z" stroke="#33E9E9" stroke-width="0.962444"/>
</g>
<g filter="url(#filter10_f_179_4251)">
<path d="M187.295 143.291L162.609 143.246L183.698 108.281H185.248L170.932 138.797L170.772 139.138L171.148 139.14L197.623 139.275L163.141 182.67L187.499 143.659L187.728 143.292L187.295 143.291Z" stroke="white" stroke-width="0.481222"/>
</g>
<g style="mix-blend-mode:hard-light" filter="url(#filter11_f_179_4251)">
<path d="M145.216 157.43L118.374 157.38L141.476 119.977H141.946L126.178 152.803L125.582 154.043L126.958 154.049L155.618 154.192L124.092 192.945L145.947 158.769L146.802 157.433L145.216 157.43Z" stroke="#00A8A8" stroke-width="1.74019"/>
</g>
<g style="mix-blend-mode:hard-light" filter="url(#filter12_f_179_4251)">
<path d="M126.956 154.317L155.057 154.456L126.846 189.135L146.173 158.914L147.29 157.167L145.217 157.163L118.853 157.114L141.156 121.003L125.936 152.687L125.158 154.308L126.956 154.317Z" stroke="#00A8A8" stroke-width="2.27564"/>
</g>
<g style="mix-blend-mode:hard-light" filter="url(#filter13_ddi_179_4251)">
<path d="M145.216 157.43L118.374 157.38L141.476 119.977H141.946L126.178 152.803L125.582 154.043L126.958 154.049L155.618 154.192L124.092 192.945L145.947 158.769L146.802 157.433L145.216 157.43Z" stroke="#33E9C6" stroke-opacity="0.2" stroke-width="1.74019"/>
</g>
<g filter="url(#filter14_f_179_4251)">
<path d="M145.215 157.765L117.774 157.714L141.289 119.642H142.478L126.479 152.948L126.113 153.711L126.959 153.715L156.319 153.86L120.649 197.707L145.666 158.589L146.191 157.767L145.215 157.765Z" stroke="#33E9E9" stroke-width="1.07089"/>
</g>
<g filter="url(#filter15_f_179_4251)">
<path d="M145.215 158.033L117.295 157.981L141.14 119.374H142.904L126.721 153.063L126.537 153.445L126.961 153.447L156.879 153.595L117.895 201.517L145.44 158.445L145.703 158.034L145.215 158.033Z" stroke="white" stroke-width="0.535444"/>
</g>
<g style="mix-blend-mode:hard-light" filter="url(#filter16_f_179_4251)">
<mask id="path-25-inside-6_179_4251" fill="white">
<path d="M226.299 91.9622C226.371 91.2387 226.407 90.512 226.404 89.7849C226.394 83.1994 223.774 76.8865 219.118 72.2298C214.462 67.5731 208.15 64.9526 201.565 64.9426C196.948 64.9311 192.421 66.2201 188.503 68.6622C186.091 54.5249 173.135 43.9409 157.964 44.78C143.533 45.536 132.104 56.0596 130.229 69.6072C127.65 68.6866 124.932 68.2136 122.194 68.2086C115.606 68.2166 109.291 70.8372 104.633 75.4958C99.9752 80.1543 97.3548 86.4703 97.3468 93.0584C97.3468 93.3532 97.3468 93.6405 97.3922 93.9505C90.4528 95.8405 80.4899 99.8548 80.5201 114.045C80.5201 124.584 89.2887 133.633 101.217 134.2L225.943 133.618C230.641 131.966 234.689 128.857 237.495 124.743C240.302 120.629 241.721 115.726 241.546 110.749C241.16 101.979 234.999 94.5855 226.299 91.9622Z"/>
</mask>
<path d="M226.299 91.9622L222.923 91.6226L222.644 94.4033L225.319 95.21L226.299 91.9622ZM226.404 89.7849L223.012 89.79L223.012 89.7955L226.404 89.7849ZM201.565 64.9426L201.557 68.3349L201.56 68.3349L201.565 64.9426ZM188.503 68.6622L185.159 69.2325L186.008 74.2138L190.297 71.5411L188.503 68.6622ZM157.964 44.78L158.141 48.1677L158.151 48.1671L157.964 44.78ZM130.229 69.6072L129.089 72.8021L133.018 74.2043L133.589 70.0722L130.229 69.6072ZM122.194 68.2086L122.2 64.8163L122.19 64.8163L122.194 68.2086ZM97.3468 93.0584L93.9545 93.0543V93.0584H97.3468ZM97.3922 93.9505L98.2836 97.2235L101.184 96.4336L100.749 93.4593L97.3922 93.9505ZM80.5201 114.045H83.9124L83.9124 114.038L80.5201 114.045ZM101.217 134.2L101.056 137.589L101.144 137.593L101.233 137.592L101.217 134.2ZM225.943 133.618L225.959 137.01L226.53 137.008L227.068 136.818L225.943 133.618ZM241.546 110.749L244.936 110.629L244.935 110.615L244.934 110.6L241.546 110.749ZM229.674 92.3017C229.758 91.4618 229.799 90.6182 229.797 89.7743L223.012 89.7955C223.014 90.4058 222.984 91.0156 222.923 91.6226L229.674 92.3017ZM229.797 89.7797C229.785 82.2965 226.808 75.1229 221.517 69.8312L216.719 74.6284C220.741 78.6501 223.004 84.1023 223.012 89.79L229.797 89.7797ZM221.517 69.8312C216.226 64.5396 209.053 61.5617 201.57 61.5504L201.56 68.3349C207.247 68.3435 212.698 70.6067 216.719 74.6284L221.517 69.8312ZM201.574 61.5504C196.319 61.5372 191.168 63.0042 186.709 65.7832L190.297 71.5411C193.675 69.4361 197.577 68.3249 201.557 68.3349L201.574 61.5504ZM191.847 68.0918C189.142 52.2354 174.65 40.4596 157.776 41.3929L158.151 48.1671C171.62 47.4221 183.041 56.8145 185.159 69.2325L191.847 68.0918ZM157.786 41.3924C141.782 42.2309 128.973 53.9339 126.869 69.1422L133.589 70.0722C135.234 58.1853 145.285 48.8412 158.141 48.1677L157.786 41.3924ZM131.369 66.4123C128.426 65.3618 125.325 64.822 122.2 64.8163L122.188 71.6008C124.54 71.6052 126.874 72.0114 129.089 72.8021L131.369 66.4123ZM122.19 64.8163C114.704 64.8254 107.527 67.8035 102.234 73.0972L107.032 77.8943C111.055 73.871 116.509 71.6078 122.198 71.6008L122.19 64.8163ZM102.234 73.0972C96.9412 78.3909 93.9636 85.568 93.9545 93.0543L100.739 93.0625C100.746 87.3725 103.009 81.9176 107.032 77.8943L102.234 73.0972ZM93.9545 93.0584C93.9545 93.326 93.9493 93.8516 94.0356 94.4416L100.749 93.4593C100.748 93.4539 100.745 93.4297 100.742 93.3684C100.739 93.2968 100.739 93.2162 100.739 93.0584H93.9545ZM96.5007 90.6774C92.904 91.657 88.0395 93.3004 84.0754 96.8617C79.9655 100.554 77.1108 106.044 77.1278 114.052L83.9124 114.038C83.8992 107.856 86.0108 104.243 88.6096 101.909C91.3543 99.4428 94.941 98.1339 98.2836 97.2235L96.5007 90.6774ZM77.1278 114.045C77.1278 126.568 87.4975 136.944 101.056 137.589L101.378 130.812C91.08 130.322 83.9124 122.599 83.9124 114.045H77.1278ZM101.233 137.592L225.959 137.01L225.928 130.226L101.201 130.808L101.233 137.592ZM227.068 136.818C232.448 134.927 237.083 131.366 240.298 126.655L234.693 122.831C232.294 126.348 228.834 129.006 224.818 130.418L227.068 136.818ZM240.298 126.655C243.512 121.944 245.137 116.329 244.936 110.629L238.155 110.868C238.305 115.123 237.092 119.314 234.693 122.831L240.298 126.655ZM244.934 110.6C244.48 100.257 237.226 91.7139 227.278 88.7143L225.319 95.21C232.772 97.4572 237.84 103.702 238.156 110.898L244.934 110.6Z" fill="#00A8A8" mask="url(#path-25-inside-6_179_4251)"/>
</g>
<g style="mix-blend-mode:hard-light" filter="url(#filter17_f_179_4251)">
<mask id="path-27-inside-7_179_4251" fill="white">
<path d="M226.299 91.9622C226.371 91.2387 226.407 90.512 226.404 89.7849C226.394 83.1994 223.774 76.8865 219.118 72.2298C214.462 67.5731 208.15 64.9526 201.565 64.9426C196.948 64.9311 192.421 66.2201 188.503 68.6622C186.091 54.5249 173.135 43.9409 157.964 44.78C143.533 45.536 132.104 56.0596 130.229 69.6072C127.65 68.6866 124.932 68.2136 122.194 68.2086C115.606 68.2166 109.291 70.8372 104.633 75.4958C99.9752 80.1543 97.3548 86.4703 97.3468 93.0584C97.3468 93.3532 97.3468 93.6405 97.3922 93.9505C90.4528 95.8405 80.4899 99.8548 80.5201 114.045C80.5201 124.584 89.2887 133.633 101.217 134.2L225.943 133.618C230.641 131.966 234.689 128.857 237.495 124.743C240.302 120.629 241.721 115.726 241.546 110.749C241.16 101.979 234.999 94.5855 226.299 91.9622Z"/>
</mask>
<path d="M226.299 91.9622L221.885 91.5182L221.519 95.1544L225.018 96.2094L226.299 91.9622ZM226.404 89.7849L221.968 89.7916L221.968 89.7987L226.404 89.7849ZM201.565 64.9426L201.554 69.3787L201.558 69.3787L201.565 64.9426ZM188.503 68.6622L184.13 69.408L185.241 75.922L190.849 72.427L188.503 68.6622ZM157.964 44.78L158.196 49.21L158.209 49.2093L157.964 44.78ZM130.229 69.6072L128.738 73.7851L133.876 75.6188L134.623 70.2152L130.229 69.6072ZM122.194 68.2086L122.202 63.7725L122.188 63.7725L122.194 68.2086ZM97.3468 93.0584L92.9107 93.053V93.0584H97.3468ZM97.3922 93.9505L98.5579 98.2306L102.351 97.1976L101.781 93.3082L97.3922 93.9505ZM80.5201 114.045H84.9562L84.9561 114.036L80.5201 114.045ZM101.217 134.2L101.006 138.631L101.122 138.637L101.238 138.636L101.217 134.2ZM225.943 133.618L225.964 138.054L226.71 138.05L227.415 137.803L225.943 133.618ZM241.546 110.749L245.979 110.593L245.978 110.573L245.977 110.554L241.546 110.749ZM230.712 92.4062C230.801 91.5305 230.843 90.6509 230.84 89.771L221.968 89.7987C221.97 90.3731 221.942 90.947 221.885 91.5182L230.712 92.4062ZM230.841 89.7782C230.829 82.0186 227.741 74.5802 222.255 69.0932L215.981 75.3664C219.807 79.1927 221.96 84.3801 221.968 89.7916L230.841 89.7782ZM222.255 69.0932C216.769 63.6062 209.331 60.5184 201.572 60.5066L201.558 69.3787C206.969 69.3869 212.155 71.5401 215.981 75.3664L222.255 69.0932ZM201.576 60.5066C196.126 60.493 190.782 62.0147 186.157 64.8974L190.849 72.427C194.06 70.4256 197.77 69.3692 201.554 69.3787L201.576 60.5066ZM192.876 67.9163C190.081 51.5309 175.116 39.3884 157.719 40.3507L158.209 49.2093C171.154 48.4933 182.102 57.5189 184.13 69.408L192.876 67.9163ZM157.732 40.35C141.243 41.2139 128.01 53.2798 125.835 68.9991L134.623 70.2152C136.198 58.8394 145.824 49.8582 158.196 49.21L157.732 40.35ZM131.72 65.4293C128.665 64.3388 125.446 63.7785 122.202 63.7725L122.186 72.6446C124.419 72.6487 126.635 73.0344 128.738 73.7851L131.72 65.4293ZM122.188 63.7725C114.426 63.7819 106.985 66.87 101.496 72.3592L107.77 78.6323C111.598 74.8045 116.787 72.6512 122.199 72.6446L122.188 63.7725ZM101.496 72.3592C96.0077 77.8483 92.9202 85.2904 92.9108 93.053L101.783 93.0638C101.789 87.6501 103.943 82.4602 107.77 78.6323L101.496 72.3592ZM92.9107 93.0584C92.9107 93.3176 92.9039 93.9166 93.0028 94.5927L101.781 93.3082C101.787 93.3488 101.787 93.3631 101.785 93.3283C101.785 93.3097 101.784 93.2812 101.783 93.2357C101.783 93.1875 101.783 93.1357 101.783 93.0584H92.9107ZM96.2264 89.6703C92.5906 90.6606 87.5296 92.3554 83.3779 96.0853C79.0355 99.9865 76.0664 105.765 76.084 114.054L84.9561 114.036C84.9436 108.135 86.9408 104.811 89.3072 102.685C91.8643 100.388 95.2544 99.1304 98.5579 98.2306L96.2264 89.6703ZM76.084 114.045C76.084 127.179 86.9463 137.963 101.006 138.631L101.428 129.769C91.6312 129.303 84.9561 121.989 84.9561 114.045H76.084ZM101.238 138.636L225.964 138.054L225.923 129.182L101.196 129.764L101.238 138.636ZM227.415 137.803C233.005 135.838 237.82 132.138 241.16 127.243L233.831 122.243C231.557 125.576 228.278 128.095 224.472 129.433L227.415 137.803ZM241.16 127.243C244.499 122.348 246.188 116.514 245.979 110.593L237.112 110.905C237.254 114.938 236.105 118.91 233.831 122.243L241.16 127.243ZM245.977 110.554C245.501 99.7269 237.912 90.8303 227.579 87.715L225.018 96.2094C232.087 98.3407 236.819 104.232 237.114 110.944L245.977 110.554Z" fill="#00A8A8" mask="url(#path-27-inside-7_179_4251)"/>
</g>
<g style="mix-blend-mode:hard-light" filter="url(#filter18_ddi_179_4251)">
<mask id="path-29-inside-8_179_4251" fill="white">
<path d="M226.299 91.9622C226.371 91.2387 226.407 90.512 226.404 89.7849C226.394 83.1994 223.774 76.8865 219.118 72.2298C214.462 67.5731 208.15 64.9526 201.565 64.9426C196.948 64.9311 192.421 66.2201 188.503 68.6622C186.091 54.5249 173.135 43.9409 157.964 44.78C143.533 45.536 132.104 56.0596 130.229 69.6072C127.65 68.6866 124.932 68.2136 122.194 68.2086C115.606 68.2166 109.291 70.8372 104.633 75.4958C99.9752 80.1543 97.3548 86.4703 97.3468 93.0584C97.3468 93.3532 97.3468 93.6405 97.3922 93.9505C90.4528 95.8405 80.4899 99.8548 80.5201 114.045C80.5201 124.584 89.2887 133.633 101.217 134.2L225.943 133.618C230.641 131.966 234.689 128.857 237.495 124.743C240.302 120.629 241.721 115.726 241.546 110.749C241.16 101.979 234.999 94.5855 226.299 91.9622Z"/>
</mask>
<path d="M226.299 91.9622L222.923 91.6226L222.644 94.4033L225.319 95.21L226.299 91.9622ZM226.404 89.7849L223.012 89.79L223.012 89.7955L226.404 89.7849ZM201.565 64.9426L201.557 68.3349L201.56 68.3349L201.565 64.9426ZM188.503 68.6622L185.159 69.2325L186.008 74.2138L190.297 71.5411L188.503 68.6622ZM157.964 44.78L158.141 48.1677L158.151 48.1671L157.964 44.78ZM130.229 69.6072L129.089 72.8021L133.018 74.2043L133.589 70.0722L130.229 69.6072ZM122.194 68.2086L122.2 64.8163L122.19 64.8163L122.194 68.2086ZM97.3468 93.0584L93.9545 93.0543V93.0584H97.3468ZM97.3922 93.9505L98.2836 97.2235L101.184 96.4336L100.749 93.4593L97.3922 93.9505ZM80.5201 114.045H83.9124L83.9124 114.038L80.5201 114.045ZM101.217 134.2L101.056 137.589L101.144 137.593L101.233 137.592L101.217 134.2ZM225.943 133.618L225.959 137.01L226.53 137.008L227.068 136.818L225.943 133.618ZM241.546 110.749L244.936 110.629L244.935 110.615L244.934 110.6L241.546 110.749ZM229.674 92.3017C229.758 91.4618 229.799 90.6182 229.797 89.7743L223.012 89.7955C223.014 90.4058 222.984 91.0156 222.923 91.6226L229.674 92.3017ZM229.797 89.7797C229.785 82.2965 226.808 75.1229 221.517 69.8312L216.719 74.6284C220.741 78.6501 223.004 84.1023 223.012 89.79L229.797 89.7797ZM221.517 69.8312C216.226 64.5396 209.053 61.5617 201.57 61.5504L201.56 68.3349C207.247 68.3435 212.698 70.6067 216.719 74.6284L221.517 69.8312ZM201.574 61.5504C196.319 61.5372 191.168 63.0042 186.709 65.7832L190.297 71.5411C193.675 69.4361 197.577 68.3249 201.557 68.3349L201.574 61.5504ZM191.847 68.0918C189.142 52.2354 174.65 40.4596 157.776 41.3929L158.151 48.1671C171.62 47.4221 183.041 56.8145 185.159 69.2325L191.847 68.0918ZM157.786 41.3924C141.782 42.2309 128.973 53.9339 126.869 69.1422L133.589 70.0722C135.234 58.1853 145.285 48.8412 158.141 48.1677L157.786 41.3924ZM131.369 66.4123C128.426 65.3618 125.325 64.822 122.2 64.8163L122.188 71.6008C124.54 71.6052 126.874 72.0114 129.089 72.8021L131.369 66.4123ZM122.19 64.8163C114.704 64.8254 107.527 67.8035 102.234 73.0972L107.032 77.8943C111.055 73.871 116.509 71.6078 122.198 71.6008L122.19 64.8163ZM102.234 73.0972C96.9412 78.3909 93.9636 85.568 93.9545 93.0543L100.739 93.0625C100.746 87.3725 103.009 81.9176 107.032 77.8943L102.234 73.0972ZM93.9545 93.0584C93.9545 93.326 93.9493 93.8516 94.0356 94.4416L100.749 93.4593C100.748 93.4539 100.745 93.4297 100.742 93.3684C100.739 93.2968 100.739 93.2162 100.739 93.0584H93.9545ZM96.5007 90.6774C92.904 91.657 88.0395 93.3004 84.0754 96.8617C79.9655 100.554 77.1108 106.044 77.1278 114.052L83.9124 114.038C83.8992 107.856 86.0108 104.243 88.6096 101.909C91.3543 99.4428 94.941 98.1339 98.2836 97.2235L96.5007 90.6774ZM77.1278 114.045C77.1278 126.568 87.4975 136.944 101.056 137.589L101.378 130.812C91.08 130.322 83.9124 122.599 83.9124 114.045H77.1278ZM101.233 137.592L225.959 137.01L225.928 130.226L101.201 130.808L101.233 137.592ZM227.068 136.818C232.448 134.927 237.083 131.366 240.298 126.655L234.693 122.831C232.294 126.348 228.834 129.006 224.818 130.418L227.068 136.818ZM240.298 126.655C243.512 121.944 245.137 116.329 244.936 110.629L238.155 110.868C238.305 115.123 237.092 119.314 234.693 122.831L240.298 126.655ZM244.934 110.6C244.48 100.257 237.226 91.7139 227.278 88.7143L225.319 95.21C232.772 97.4572 237.84 103.702 238.156 110.898L244.934 110.6Z" fill="#33E9C6" fill-opacity="0.2" mask="url(#path-29-inside-8_179_4251)"/>
</g>
<g filter="url(#filter19_f_179_4251)">
<mask id="path-31-inside-9_179_4251" fill="white">
<path d="M226.299 91.9622C226.371 91.2387 226.407 90.512 226.404 89.7849C226.394 83.1994 223.774 76.8865 219.118 72.2298C214.462 67.5731 208.15 64.9526 201.565 64.9426C196.948 64.9311 192.421 66.2201 188.503 68.6622C186.091 54.5249 173.135 43.9409 157.964 44.78C143.533 45.536 132.104 56.0596 130.229 69.6072C127.65 68.6866 124.932 68.2136 122.194 68.2086C115.606 68.2166 109.291 70.8372 104.633 75.4958C99.9752 80.1543 97.3548 86.4703 97.3468 93.0584C97.3468 93.3532 97.3468 93.6405 97.3922 93.9505C90.4528 95.8405 80.4899 99.8548 80.5201 114.045C80.5201 124.584 89.2887 133.633 101.217 134.2L225.943 133.618C230.641 131.966 234.689 128.857 237.495 124.743C240.302 120.629 241.721 115.726 241.546 110.749C241.16 101.979 234.999 94.5855 226.299 91.9622Z"/>
</mask>
<path d="M226.299 91.9622L224.222 91.7532L224.049 93.4644L225.696 93.9609L226.299 91.9622ZM226.404 89.7849L224.317 89.7881V89.7914L226.404 89.7849ZM201.565 64.9426L201.56 67.0302L201.562 67.0302L201.565 64.9426ZM188.503 68.6622L186.445 69.0132L186.968 72.0786L189.607 70.4338L188.503 68.6622ZM157.964 44.78L158.073 46.8647L158.079 46.8644L157.964 44.78ZM130.229 69.6072L129.527 71.5733L131.945 72.4362L132.297 69.8933L130.229 69.6072ZM122.194 68.2086L122.198 66.121L122.191 66.121L122.194 68.2086ZM97.3468 93.0584L95.2592 93.0559V93.0584H97.3468ZM97.3922 93.9505L97.9407 95.9647L99.7255 95.4785L99.4577 93.6482L97.3922 93.9505ZM80.5201 114.045H82.6076L82.6076 114.041L80.5201 114.045ZM101.217 134.2L101.118 136.285L101.172 136.288L101.227 136.288L101.217 134.2ZM225.943 133.618L225.953 135.705L226.304 135.704L226.636 135.587L225.943 133.618ZM241.546 110.749L243.632 110.675L243.631 110.666L243.631 110.657L241.546 110.749ZM228.376 92.1711C228.456 91.376 228.495 90.5774 228.492 89.7784L224.317 89.7914C224.319 90.4466 224.287 91.1014 224.222 91.7532L228.376 92.1711ZM228.492 89.7817C228.481 82.6437 225.641 75.8012 220.594 70.7538L217.642 73.7058C221.907 77.9718 224.308 83.755 224.317 89.7881L228.492 89.7817ZM220.594 70.7538C215.548 65.7064 208.706 62.8659 201.568 62.8551L201.562 67.0302C207.594 67.0393 213.377 69.4399 217.642 73.7058L220.594 70.7538ZM201.57 62.8551C196.561 62.8426 191.65 64.2411 187.399 66.8905L189.607 70.4338C193.193 68.1992 197.335 67.0196 201.56 67.0302L201.57 62.8551ZM190.561 68.3112C187.969 53.116 174.067 41.7985 157.848 42.6957L158.079 46.8644C172.203 46.0832 184.214 55.9339 186.445 69.0132L190.561 68.3112ZM157.855 42.6953C142.455 43.5021 130.177 54.7515 128.161 69.321L132.297 69.8933C134.03 57.3677 144.611 47.57 158.073 46.8647L157.855 42.6953ZM130.931 67.6411C128.128 66.6406 125.174 66.1265 122.198 66.121L122.19 70.2961C124.691 70.3007 127.172 70.7326 129.527 71.5733L130.931 67.6411ZM122.191 66.121C115.051 66.1297 108.206 68.9703 103.157 74.0197L106.109 76.9718C110.376 72.7042 116.162 70.3035 122.196 70.2961L122.191 66.121ZM103.157 74.0197C98.1081 79.0691 95.2679 85.915 95.2592 93.0559L99.4344 93.0609C99.4417 87.0255 101.842 81.2394 106.109 76.9718L103.157 74.0197ZM95.2592 93.0584C95.2592 93.3365 95.256 93.7704 95.3266 94.2527L99.4577 93.6482C99.4376 93.5106 99.4344 93.37 99.4344 93.0584H95.2592ZM96.8436 91.9363C93.2957 92.9026 88.677 94.4816 84.9474 97.8323C81.1281 101.264 78.4162 106.392 78.4325 114.049L82.6076 114.041C82.5937 107.508 84.8482 103.534 87.7377 100.938C90.7169 98.2616 94.5493 96.8884 97.9407 95.9647L96.8436 91.9363ZM78.4325 114.045C78.4325 125.805 88.1864 135.671 101.118 136.285L101.316 132.115C90.391 131.596 82.6076 123.362 82.6076 114.045H78.4325ZM101.227 136.288L225.953 135.705L225.934 131.53L101.207 132.113L101.227 136.288ZM226.636 135.587C231.753 133.788 236.162 130.401 239.22 125.919L235.771 123.566C233.215 127.313 229.529 130.145 225.251 131.649L226.636 135.587ZM239.22 125.919C242.277 121.438 243.823 116.097 243.632 110.675L239.459 110.822C239.619 115.355 238.327 119.82 235.771 123.566L239.22 125.919ZM243.631 110.657C243.203 100.919 236.37 92.8183 226.901 89.9635L225.696 93.9609C233.629 96.3527 239.117 103.039 239.46 110.841L243.631 110.657Z" fill="#33E9E9" mask="url(#path-31-inside-9_179_4251)"/>
</g>
<g filter="url(#filter20_f_179_4251)">
<mask id="path-33-inside-10_179_4251" fill="white">
<path d="M226.299 91.9622C226.371 91.2387 226.407 90.512 226.404 89.7849C226.394 83.1994 223.774 76.8865 219.118 72.2298C214.462 67.5731 208.15 64.9526 201.565 64.9426C196.948 64.9311 192.421 66.2201 188.503 68.6622C186.091 54.5249 173.135 43.9409 157.964 44.78C143.533 45.536 132.104 56.0596 130.229 69.6072C127.65 68.6866 124.932 68.2136 122.194 68.2086C115.606 68.2166 109.291 70.8372 104.633 75.4958C99.9752 80.1543 97.3548 86.4703 97.3468 93.0584C97.3468 93.3532 97.3468 93.6405 97.3922 93.9505C90.4528 95.8405 80.4899 99.8548 80.5201 114.045C80.5201 124.584 89.2887 133.633 101.217 134.2L225.943 133.618C230.641 131.966 234.689 128.857 237.495 124.743C240.302 120.629 241.721 115.726 241.546 110.749C241.16 101.979 234.999 94.5855 226.299 91.9622Z"/>
</mask>
<path d="M226.299 91.9622L225.26 91.8577L225.174 92.7133L225.997 92.9615L226.299 91.9622ZM226.404 89.7849L225.361 89.7865V89.7882L226.404 89.7849ZM201.565 64.9426L201.562 65.9864L201.563 65.9864L201.565 64.9426ZM188.503 68.6622L187.474 68.8377L187.735 70.3704L189.055 69.548L188.503 68.6622ZM157.964 44.78L158.018 45.8224L158.021 45.8222L157.964 44.78ZM130.229 69.6072L129.878 70.5902L131.087 71.0217L131.263 69.7502L130.229 69.6072ZM122.194 68.2086L122.196 67.1648L122.193 67.1648L122.194 68.2086ZM97.3468 93.0584L96.303 93.0571V93.0584H97.3468ZM97.3922 93.9505L97.6665 94.9576L98.5588 94.7145L98.4249 93.7994L97.3922 93.9505ZM80.5201 114.045H81.5639L81.5639 114.043L80.5201 114.045ZM101.217 134.2L101.168 135.243L101.195 135.244L101.222 135.244L101.217 134.2ZM225.943 133.618L225.948 134.662L226.124 134.661L226.29 134.603L225.943 133.618ZM241.546 110.749L242.589 110.712L242.588 110.703L241.546 110.749ZM227.337 92.0667C227.414 91.3074 227.451 90.5447 227.448 89.7816L225.361 89.7882C225.363 90.4793 225.329 91.1701 225.26 91.8577L227.337 92.0667ZM227.448 89.7833C227.438 82.9216 224.708 76.3438 219.856 71.4918L218.38 72.9678C222.841 77.4291 225.351 83.4772 225.361 89.7865L227.448 89.7833ZM219.856 71.4918C215.005 66.6398 208.428 63.9093 201.567 63.8989L201.563 65.9864C207.872 65.996 213.919 68.5065 218.38 72.9678L219.856 71.4918ZM201.568 63.8989C196.755 63.8868 192.036 65.2306 187.951 67.7763L189.055 69.548C192.807 67.2097 197.142 65.9754 201.562 65.9864L201.568 63.8989ZM189.532 68.4867C187.03 53.8204 173.601 42.8697 157.906 43.7378L158.021 45.8222C172.669 45.012 185.153 55.2294 187.474 68.8377L189.532 68.4867ZM157.909 43.7377C142.994 44.5191 131.141 55.4055 129.195 69.4641L131.263 69.7502C133.067 56.7137 144.072 46.553 158.018 45.8224L157.909 43.7377ZM130.58 68.6241C127.889 67.6636 125.053 67.17 122.196 67.1648L122.192 69.2523C124.812 69.2572 127.411 69.7096 129.878 70.5902L130.58 68.6241ZM122.193 67.1648C115.329 67.1731 108.748 69.9038 103.895 74.7577L105.371 76.2338C109.834 71.7707 115.884 69.26 122.195 69.2523L122.193 67.1648ZM103.895 74.7577C99.0417 79.6117 96.3114 86.1926 96.303 93.0571L98.3906 93.0597C98.3982 86.7479 100.909 80.6968 105.371 76.2338L103.895 74.7577ZM96.303 93.0584C96.303 93.3448 96.3014 93.7055 96.3594 94.1016L98.4249 93.7994C98.3922 93.5756 98.3906 93.3616 98.3906 93.0584H96.303ZM97.1179 92.9434C93.6091 93.899 89.187 95.4266 85.645 98.6087C82.0581 101.831 79.4606 106.671 79.4763 114.047L81.5639 114.043C81.5493 107.229 83.9182 102.966 87.0401 100.162C90.2069 97.3166 94.2359 95.8919 97.6665 94.9576L97.1179 92.9434ZM79.4763 114.045C79.4763 125.194 88.7376 134.652 101.168 135.243L101.267 133.157C89.8399 132.614 81.5639 123.973 81.5639 114.045H79.4763ZM101.222 135.244L225.948 134.662L225.938 132.574L101.212 133.156L101.222 135.244ZM226.29 134.603C231.197 132.877 235.426 129.629 238.357 125.331L236.633 124.155C233.952 128.085 230.085 131.055 225.597 132.633L226.29 134.603ZM238.357 125.331C241.289 121.034 242.772 115.912 242.589 110.712L240.502 110.786C240.67 115.541 239.314 120.225 236.633 124.155L238.357 125.331ZM242.588 110.703C242.181 101.449 235.685 93.7019 226.6 90.9628L225.997 92.9615C234.314 95.4691 240.138 102.509 240.503 110.795L242.588 110.703Z" fill="white" mask="url(#path-33-inside-10_179_4251)"/>
</g>
<defs>
<filter id="filter0_f_179_4251" x="48.7593" y="20.13" width="224.561" height="138.673" filterUnits="userSpaceOnUse" color-interpolation-filters="sRGB">
<feFlood flood-opacity="0" result="BackgroundImageFix"/>
<feBlend mode="normal" in="SourceGraphic" in2="BackgroundImageFix" result="shape"/>
<feGaussianBlur stdDeviation="7.82833" result="effect1_foregroundBlur_179_4251"/>
</filter>
<filter id="filter1_f_179_4251" x="64.8634" y="29.0767" width="192.353" height="120.78" filterUnits="userSpaceOnUse" color-interpolation-filters="sRGB">
<feFlood flood-opacity="0" result="BackgroundImageFix"/>
<feBlend mode="normal" in="SourceGraphic" in2="BackgroundImageFix" result="shape"/>
<feGaussianBlur stdDeviation="7.82833" result="effect1_foregroundBlur_179_4251"/>
</filter>
<filter id="filter2_f_179_4251" x="75.3011" y="39.5145" width="171.478" height="99.9043" filterUnits="userSpaceOnUse" color-interpolation-filters="sRGB">
<feFlood flood-opacity="0" result="BackgroundImageFix"/>
<feBlend mode="normal" in="SourceGraphic" in2="BackgroundImageFix" result="shape"/>
<feGaussianBlur stdDeviation="2.60944" result="effect1_foregroundBlur_179_4251"/>
</filter>
<filter id="filter3_ddi_179_4251" x="73.7355" y="43.1677" width="174.609" height="103.036" filterUnits="userSpaceOnUse" color-interpolation-filters="sRGB">
<feFlood flood-opacity="0" result="BackgroundImageFix"/>
<feColorMatrix in="SourceAlpha" type="matrix" values="0 0 0 0 0 0 0 0 0 0 0 0 0 0 0 0 0 0 127 0" result="hardAlpha"/>
<feOffset dy="3.39228"/>
<feGaussianBlur stdDeviation="1.30472"/>
<feColorMatrix type="matrix" values="0 0 0 0 0 0 0 0 0 0.3 0 0 0 0 0.275 0 0 0 0.7 0"/>
<feBlend mode="multiply" in2="BackgroundImageFix" result="effect1_dropShadow_179_4251"/>
<feColorMatrix in="SourceAlpha" type="matrix" values="0 0 0 0 0 0 0 0 0 0 0 0 0 0 0 0 0 0 127 0" result="hardAlpha"/>
<feOffset dy="5.21889"/>
<feGaussianBlur stdDeviation="3.39228"/>
<feColorMatrix type="matrix" values="0 0 0 0 0 0 0 0 0 0.6 0 0 0 0 0.6 0 0 0 1 0"/>
<feBlend mode="color-dodge" in2="effect1_dropShadow_179_4251" result="effect2_dropShadow_179_4251"/>
<feBlend mode="normal" in="SourceGraphic" in2="effect2_dropShadow_179_4251" result="shape"/>
<feColorMatrix in="SourceAlpha" type="matrix" values="0 0 0 0 0 0 0 0 0 0 0 0 0 0 0 0 0 0 127 0" result="hardAlpha"/>
<feOffset dx="-0.339228" dy="0.678456"/>
<feGaussianBlur stdDeviation="0.169614"/>
<feComposite in2="hardAlpha" operator="arithmetic" k2="-1" k3="1"/>
<feColorMatrix type="matrix" values="0 0 0 0 1 0 0 0 0 1 0 0 0 0 1 0 0 0 0.5 0"/>
<feBlend mode="normal" in2="shape" result="effect3_innerShadow_179_4251"/>
</filter>
<filter id="filter4_f_179_4251" x="79.9981" y="44.2115" width="162.084" height="90.5103" filterUnits="userSpaceOnUse" color-interpolation-filters="sRGB">
<feFlood flood-opacity="0" result="BackgroundImageFix"/>
<feBlend mode="normal" in="SourceGraphic" in2="BackgroundImageFix" result="shape"/>
<feGaussianBlur stdDeviation="0.260944" result="effect1_foregroundBlur_179_4251"/>
</filter>
<filter id="filter5_f_179_4251" x="80.1721" y="44.3855" width="161.736" height="90.1624" filterUnits="userSpaceOnUse" color-interpolation-filters="sRGB">
<feFlood flood-opacity="0" result="BackgroundImageFix"/>
<feBlend mode="normal" in="SourceGraphic" in2="BackgroundImageFix" result="shape"/>
<feGaussianBlur stdDeviation="0.173963" result="effect1_foregroundBlur_179_4251"/>
</filter>
<filter id="filter6_f_179_4251" x="153.488" y="100.822" width="51.8502" height="92.5167" filterUnits="userSpaceOnUse" color-interpolation-filters="sRGB">
<feFlood flood-opacity="0" result="BackgroundImageFix"/>
<feBlend mode="normal" in="SourceGraphic" in2="BackgroundImageFix" result="shape"/>
<feGaussianBlur stdDeviation="3.60917" result="effect1_foregroundBlur_179_4251"/>
</filter>
<filter id="filter7_f_179_4251" x="158.3" y="105.634" width="42.2258" height="82.8923" filterUnits="userSpaceOnUse" color-interpolation-filters="sRGB">
<feFlood flood-opacity="0" result="BackgroundImageFix"/>
<feBlend mode="normal" in="SourceGraphic" in2="BackgroundImageFix" result="shape"/>
<feGaussianBlur stdDeviation="1.20306" result="effect1_foregroundBlur_179_4251"/>
</filter>
<filter id="filter8_ddi_179_4251" x="157.579" y="107.318" width="43.6695" height="84.336" filterUnits="userSpaceOnUse" color-interpolation-filters="sRGB">
<feFlood flood-opacity="0" result="BackgroundImageFix"/>
<feColorMatrix in="SourceAlpha" type="matrix" values="0 0 0 0 0 0 0 0 0 0 0 0 0 0 0 0 0 0 127 0" result="hardAlpha"/>
<feOffset dy="1.56397"/>
<feGaussianBlur stdDeviation="0.601528"/>
<feColorMatrix type="matrix" values="0 0 0 0 0 0 0 0 0 0.3 0 0 0 0 0.275 0 0 0 0.7 0"/>
<feBlend mode="multiply" in2="BackgroundImageFix" result="effect1_dropShadow_179_4251"/>
<feColorMatrix in="SourceAlpha" type="matrix" values="0 0 0 0 0 0 0 0 0 0 0 0 0 0 0 0 0 0 127 0" result="hardAlpha"/>
<feOffset dy="2.40611"/>
<feGaussianBlur stdDeviation="1.56397"/>
<feColorMatrix type="matrix" values="0 0 0 0 0 0 0 0 0 0.6 0 0 0 0 0.6 0 0 0 1 0"/>
<feBlend mode="color-dodge" in2="effect1_dropShadow_179_4251" result="effect2_dropShadow_179_4251"/>
<feBlend mode="normal" in="SourceGraphic" in2="effect2_dropShadow_179_4251" result="shape"/>
<feColorMatrix in="SourceAlpha" type="matrix" values="0 0 0 0 0 0 0 0 0 0 0 0 0 0 0 0 0 0 127 0" result="hardAlpha"/>
<feOffset dx="-0.156397" dy="0.312794"/>
<feGaussianBlur stdDeviation="0.0781986"/>
<feComposite in2="hardAlpha" operator="arithmetic" k2="-1" k3="1"/>
<feColorMatrix type="matrix" values="0 0 0 0 1 0 0 0 0 1 0 0 0 0 1 0 0 0 0.5 0"/>
<feBlend mode="normal" in2="shape" result="effect3_innerShadow_179_4251"/>
</filter>
<filter id="filter9_f_179_4251" x="160.466" y="107.799" width="37.8948" height="78.5613" filterUnits="userSpaceOnUse" color-interpolation-filters="sRGB">
<feFlood flood-opacity="0" result="BackgroundImageFix"/>
<feBlend mode="normal" in="SourceGraphic" in2="BackgroundImageFix" result="shape"/>
<feGaussianBlur stdDeviation="0.120306" result="effect1_foregroundBlur_179_4251"/>
</filter>
<filter id="filter10_f_179_4251" x="160.546" y="107.88" width="37.7344" height="78.4009" filterUnits="userSpaceOnUse" color-interpolation-filters="sRGB">
<feFlood flood-opacity="0" result="BackgroundImageFix"/>
<feBlend mode="normal" in="SourceGraphic" in2="BackgroundImageFix" result="shape"/>
<feGaussianBlur stdDeviation="0.0802037" result="effect1_foregroundBlur_179_4251"/>
</filter>
<filter id="filter11_f_179_4251" x="107.115" y="111.075" width="58.3568" height="102.277" filterUnits="userSpaceOnUse" color-interpolation-filters="sRGB">
<feFlood flood-opacity="0" result="BackgroundImageFix"/>
<feBlend mode="normal" in="SourceGraphic" in2="BackgroundImageFix" result="shape"/>
<feGaussianBlur stdDeviation="4.01583" result="effect1_foregroundBlur_179_4251"/>
</filter>
<filter id="filter12_f_179_4251" x="112.469" y="116.429" width="47.6479" height="91.5678" filterUnits="userSpaceOnUse" color-interpolation-filters="sRGB">
<feFlood flood-opacity="0" result="BackgroundImageFix"/>
<feBlend mode="normal" in="SourceGraphic" in2="BackgroundImageFix" result="shape"/>
<feGaussianBlur stdDeviation="1.33861" result="effect1_foregroundBlur_179_4251"/>
</filter>
<filter id="filter13_ddi_179_4251" x="111.666" y="118.303" width="49.2542" height="93.1742" filterUnits="userSpaceOnUse" color-interpolation-filters="sRGB">
<feFlood flood-opacity="0" result="BackgroundImageFix"/>
<feColorMatrix in="SourceAlpha" type="matrix" values="0 0 0 0 0 0 0 0 0 0 0 0 0 0 0 0 0 0 127 0" result="hardAlpha"/>
<feOffset dy="1.74019"/>
<feGaussianBlur stdDeviation="0.669306"/>
<feColorMatrix type="matrix" values="0 0 0 0 0 0 0 0 0 0.3 0 0 0 0 0.275 0 0 0 0.7 0"/>
<feBlend mode="multiply" in2="BackgroundImageFix" result="effect1_dropShadow_179_4251"/>
<feColorMatrix in="SourceAlpha" type="matrix" values="0 0 0 0 0 0 0 0 0 0 0 0 0 0 0 0 0 0 127 0" result="hardAlpha"/>
<feOffset dy="2.67722"/>
<feGaussianBlur stdDeviation="1.74019"/>
<feColorMatrix type="matrix" values="0 0 0 0 0 0 0 0 0 0.6 0 0 0 0 0.6 0 0 0 1 0"/>
<feBlend mode="color-dodge" in2="effect1_dropShadow_179_4251" result="effect2_dropShadow_179_4251"/>
<feBlend mode="normal" in="SourceGraphic" in2="effect2_dropShadow_179_4251" result="shape"/>
<feColorMatrix in="SourceAlpha" type="matrix" values="0 0 0 0 0 0 0 0 0 0 0 0 0 0 0 0 0 0 127 0" result="hardAlpha"/>
<feOffset dx="-0.174019" dy="0.348039"/>
<feGaussianBlur stdDeviation="0.0870097"/>
<feComposite in2="hardAlpha" operator="arithmetic" k2="-1" k3="1"/>
<feColorMatrix type="matrix" values="0 0 0 0 1 0 0 0 0 1 0 0 0 0 1 0 0 0 0.5 0"/>
<feBlend mode="normal" in2="shape" result="effect3_innerShadow_179_4251"/>
</filter>
<filter id="filter14_f_179_4251" x="114.879" y="118.839" width="42.8289" height="86.7488" filterUnits="userSpaceOnUse" color-interpolation-filters="sRGB">
<feFlood flood-opacity="0" result="BackgroundImageFix"/>
<feBlend mode="normal" in="SourceGraphic" in2="BackgroundImageFix" result="shape"/>
<feGaussianBlur stdDeviation="0.133861" result="effect1_foregroundBlur_179_4251"/>
</filter>
<filter id="filter15_f_179_4251" x="114.968" y="118.928" width="42.6504" height="86.5703" filterUnits="userSpaceOnUse" color-interpolation-filters="sRGB">
<feFlood flood-opacity="0" result="BackgroundImageFix"/>
<feBlend mode="normal" in="SourceGraphic" in2="BackgroundImageFix" result="shape"/>
<feGaussianBlur stdDeviation="0.0892407" result="effect1_foregroundBlur_179_4251"/>
</filter>
<filter id="filter16_f_179_4251" x="59.6184" y="23.8317" width="202.843" height="131.27" filterUnits="userSpaceOnUse" color-interpolation-filters="sRGB">
<feFlood flood-opacity="0" result="BackgroundImageFix"/>
<feBlend mode="normal" in="SourceGraphic" in2="BackgroundImageFix" result="shape"/>
<feGaussianBlur stdDeviation="10.4508" result="effect1_foregroundBlur_179_4251"/>
</filter>
<filter id="filter17_f_179_4251" x="73.5528" y="37.7662" width="174.974" height="103.401" filterUnits="userSpaceOnUse" color-interpolation-filters="sRGB">
<feFlood flood-opacity="0" result="BackgroundImageFix"/>
<feBlend mode="normal" in="SourceGraphic" in2="BackgroundImageFix" result="shape"/>
<feGaussianBlur stdDeviation="3.48361" result="effect1_foregroundBlur_179_4251"/>
</filter>
<filter id="filter18_ddi_179_4251" x="71.4626" y="42.6432" width="179.155" height="107.581" filterUnits="userSpaceOnUse" color-interpolation-filters="sRGB">
<feFlood flood-opacity="0" result="BackgroundImageFix"/>
<feColorMatrix in="SourceAlpha" type="matrix" values="0 0 0 0 0 0 0 0 0 0 0 0 0 0 0 0 0 0 127 0" result="hardAlpha"/>
<feOffset dy="3.39228"/>
<feGaussianBlur stdDeviation="1.30472"/>
<feColorMatrix type="matrix" values="0 0 0 0 0 0 0 0 0 0.3 0 0 0 0 0.275 0 0 0 0.7 0"/>
<feBlend mode="multiply" in2="BackgroundImageFix" result="effect1_dropShadow_179_4251"/>
<feColorMatrix in="SourceAlpha" type="matrix" values="0 0 0 0 0 0 0 0 0 0 0 0 0 0 0 0 0 0 127 0" result="hardAlpha"/>
<feOffset dy="6.96722"/>
<feGaussianBlur stdDeviation="4.52869"/>
<feColorMatrix type="matrix" values="0 0 0 0 0 0 0 0 0 0.6 0 0 0 0 0.6 0 0 0 1 0"/>
<feBlend mode="color-dodge" in2="effect1_dropShadow_179_4251" result="effect2_dropShadow_179_4251"/>
<feBlend mode="normal" in="SourceGraphic" in2="effect2_dropShadow_179_4251" result="shape"/>
<feColorMatrix in="SourceAlpha" type="matrix" values="0 0 0 0 0 0 0 0 0 0 0 0 0 0 0 0 0 0 127 0" result="hardAlpha"/>
<feOffset dx="-0.339228" dy="0.678456"/>
<feGaussianBlur stdDeviation="0.169614"/>
<feComposite in2="hardAlpha" operator="arithmetic" k2="-1" k3="1"/>
<feColorMatrix type="matrix" values="0 0 0 0 1 0 0 0 0 1 0 0 0 0 1 0 0 0 0.5 0"/>
<feBlend mode="normal" in2="shape" result="effect3_innerShadow_179_4251"/>
</filter>
<filter id="filter19_f_179_4251" x="79.9981" y="44.2115" width="162.084" height="90.5103" filterUnits="userSpaceOnUse" color-interpolation-filters="sRGB">
<feFlood flood-opacity="0" result="BackgroundImageFix"/>
<feBlend mode="normal" in="SourceGraphic" in2="BackgroundImageFix" result="shape"/>
<feGaussianBlur stdDeviation="0.260944" result="effect1_foregroundBlur_179_4251"/>
</filter>
<filter id="filter20_f_179_4251" x="80.1721" y="44.3855" width="161.736" height="90.1624" filterUnits="userSpaceOnUse" color-interpolation-filters="sRGB">
<feFlood flood-opacity="0" result="BackgroundImageFix"/>
<feBlend mode="normal" in="SourceGraphic" in2="BackgroundImageFix" result="shape"/>
<feGaussianBlur stdDeviation="0.173963" result="effect1_foregroundBlur_179_4251"/>
</filter>
</defs>
</svg>
