<svg width="89" height="76" viewBox="0 0 89 76" fill="none" xmlns="http://www.w3.org/2000/svg">
<path d="M89 16.9043C89 7.58471 81.3601 0 71.9699 0C69.1114 0 66.2963 0.719802 63.7931 2.08364C61.7413 0.738091 59.2947 0 56.8389 0C51.6654 0 47.0789 3.10129 45.1758 7.79504C44.2664 7.58994 43.3359 7.48674 42.4002 7.48674C35.4579 7.48674 29.8106 13.0936 29.8106 19.9834C29.8106 20.8913 29.9145 21.7757 30.1014 22.6274C26.6901 24.7516 24.0461 28.0162 22.7314 31.9901C21.0994 31.508 19.4148 31.2612 17.7039 31.2612C7.94255 31.2612 0 39.145 0 48.8356C0 58.5248 7.94123 66.4074 17.7039 66.4074C20.3953 66.4074 23.0367 65.796 25.4477 64.6282C28.0154 71.4121 34.5629 76 41.9988 76C48.1107 76 53.7435 72.8856 56.9758 67.8C58.7828 68.2089 60.6003 68.4205 62.3967 68.4205C75.8589 68.4205 86.8113 57.549 86.8113 44.1849C86.8113 39.0079 85.1531 34.2148 82.3551 30.2735C86.3876 27.1775 89 22.3453 89 16.9043ZM83.7199 44.1849C83.7199 55.8559 74.1533 65.3506 62.3967 65.3506C60.4963 65.3506 58.5604 65.0815 56.6468 64.5471C55.9479 64.3551 55.2122 64.6673 54.8674 65.297C52.3103 70.0051 47.3789 72.9314 41.9975 72.9314C35.3105 72.9314 29.4934 68.4323 27.8509 61.9906C27.7298 61.5151 27.385 61.1245 26.9231 60.9416C26.7388 60.8698 26.5454 60.8332 26.3519 60.8332C26.0624 60.8332 25.7741 60.9155 25.5228 61.0735C23.1722 62.5576 20.469 63.3401 17.7039 63.3401C9.64688 63.3401 3.09279 56.8344 3.09279 48.8356C3.09279 40.8368 9.64688 34.3298 17.7039 34.3298C19.5912 34.3298 21.4376 34.689 23.1972 35.3997C23.6171 35.5708 24.0935 35.5499 24.4962 35.3396C24.8989 35.1306 25.1885 34.757 25.2885 34.318C26.1203 30.6576 28.2707 27.6138 31.1753 25.6072C32.2111 24.8927 33.3416 24.3074 34.5458 23.8776C36.1054 23.3211 37.7847 23.018 39.5298 23.018C42.9398 23.018 46.2616 24.2147 48.8819 26.3819C49.4031 26.8156 50.1506 26.8574 50.7205 26.4864C54.2028 24.2173 58.2405 23.018 62.398 23.018C68.1401 23.018 73.3505 25.2937 77.1869 28.9724C78.1305 29.8738 78.9846 30.864 79.7479 31.9274C82.238 35.3892 83.7199 39.6153 83.7199 44.1849ZM62.3967 19.9507C58.0076 19.9507 53.7343 21.1173 49.969 23.3342C46.9486 21.146 43.2833 19.9507 39.5285 19.9507C37.4767 19.9507 35.5052 20.3008 33.664 20.9357C33.6298 20.6222 33.6088 20.306 33.6088 19.9834C33.6088 15.1707 37.5517 11.2569 42.4002 11.2569C43.5333 11.2569 44.6454 11.4737 45.7036 11.8996C45.9326 11.9924 46.1734 12.0394 46.4195 12.0394C46.7248 12.0394 47.0288 11.9649 47.2973 11.8252C47.7922 11.5691 48.1475 11.1106 48.2725 10.5697C49.182 6.56706 52.7051 3.77015 56.8389 3.77015C58.8894 3.77015 60.8885 4.48995 62.4638 5.7937C62.8047 6.07718 63.2377 6.23263 63.6825 6.23263C64.0524 6.23263 64.4117 6.12682 64.7249 5.92433C66.8859 4.51608 69.3917 3.77145 71.9699 3.77145C79.2649 3.77145 85.2018 9.66443 85.2018 16.9056C85.2018 21.1774 83.1276 24.9697 79.9375 27.3682C75.4944 22.8025 69.2798 19.9507 62.3967 19.9507Z" fill="#00FF19"/>
</svg>
