<svg width="62" height="54" viewBox="0 0 62 54" fill="none" xmlns="http://www.w3.org/2000/svg">
<path d="M62 12.0109C62 5.38914 56.6779 0 50.1363 0C48.145 0 46.1839 0.511439 44.4401 1.48048C43.0108 0.524433 41.3064 0 39.5957 0C35.9916 0 32.7965 2.20355 31.4708 5.53858C30.8373 5.39285 30.1891 5.31952 29.5372 5.31952C24.701 5.31952 20.7669 9.30337 20.7669 14.1987C20.7669 14.8438 20.8393 15.4722 20.9695 16.0774C18.5931 17.5866 16.7512 19.9062 15.8353 22.7298C14.6985 22.3873 13.5249 22.2119 12.3331 22.2119C5.53301 22.2119 0 27.8136 0 34.699C0 41.5834 5.5321 47.1842 12.3331 47.1842C14.208 47.1842 16.048 46.7498 17.7276 45.92C19.5164 50.7402 24.0775 54 29.2576 54C33.5153 54 37.4393 51.7872 39.691 48.1737C40.9498 48.4642 42.2159 48.6146 43.4674 48.6146C52.8455 48.6146 60.4753 40.8901 60.4753 31.3946C60.4753 27.7161 59.3201 24.3105 57.371 21.5101C60.1801 19.3103 62 15.8769 62 12.0109ZM58.3217 31.3946C58.3217 39.6871 51.6573 46.4333 43.4674 46.4333C42.1435 46.4333 40.7949 46.2421 39.4618 45.8624C38.975 45.726 38.4625 45.9478 38.2223 46.3952C36.4409 49.7405 33.0055 51.8197 29.2567 51.8197C24.5983 51.8197 20.5459 48.6229 19.4018 44.046C19.3174 43.7081 19.0772 43.4306 18.7554 43.3006C18.627 43.2496 18.4923 43.2236 18.3575 43.2236C18.1558 43.2236 17.955 43.2821 17.7799 43.3944C16.1425 44.4488 14.2593 45.0048 12.3331 45.0048C6.7203 45.0048 2.15453 40.3824 2.15453 34.699C2.15453 29.0156 6.7203 24.3922 12.3331 24.3922C13.6478 24.3922 14.9341 24.6475 16.1599 25.1524C16.4523 25.274 16.7842 25.2592 17.0648 25.1097C17.3453 24.9612 17.547 24.6957 17.6167 24.3839C18.1961 21.783 19.6942 19.6203 21.7176 18.1946C22.4392 17.6869 23.2267 17.2711 24.0656 16.9657C25.1521 16.5703 26.3219 16.3549 27.5376 16.3549C29.9131 16.3549 32.2272 17.2051 34.0526 18.745C34.4156 19.0532 34.9364 19.0829 35.3334 18.8193C37.7593 17.207 40.5721 16.3549 43.4683 16.3549C47.4684 16.3549 51.0981 17.9718 53.7706 20.5857C54.428 21.2261 55.023 21.9297 55.5548 22.6853C57.2894 25.145 58.3217 28.1477 58.3217 31.3946ZM43.4674 14.1755C40.4098 14.1755 37.4329 15.0044 34.8098 16.5795C32.7057 15.0248 30.1524 14.1755 27.5367 14.1755C26.1074 14.1755 24.734 14.4243 23.4514 14.8754C23.4275 14.6526 23.4128 14.428 23.4128 14.1987C23.4128 10.7792 26.1596 7.99832 29.5372 7.99832C30.3266 7.99832 31.1013 8.1524 31.8384 8.45499C31.998 8.52089 32.1657 8.55431 32.3372 8.55431C32.5499 8.55431 32.7617 8.5014 32.9487 8.40208C33.2934 8.22016 33.541 7.89436 33.6281 7.51008C34.2616 4.66607 36.7159 2.67879 39.5957 2.67879C41.0241 2.67879 42.4167 3.19023 43.5141 4.11657C43.7516 4.31799 44.0532 4.42845 44.3631 4.42845C44.6207 4.42845 44.871 4.35327 45.0892 4.2094C46.5947 3.20879 48.3403 2.67972 50.1363 2.67972C55.2183 2.67972 59.3541 6.86684 59.3541 12.0119C59.3541 15.0471 57.9091 17.7417 55.6868 19.4458C52.5916 16.2018 48.2624 14.1755 43.4674 14.1755Z" fill="#00FF19"/>
</svg>
