<svg width="178" height="152" viewBox="0 0 178 152" fill="none" xmlns="http://www.w3.org/2000/svg">
<g style="mix-blend-mode:hard-light" filter="url(#filter0_f_179_1236)">
<ellipse cx="89.0002" cy="75.9999" rx="53.4" ry="45.6" fill="#33E9C6" fill-opacity="0.1"/>
</g>
<g style="mix-blend-mode:hard-light" filter="url(#filter1_f_179_1236)">
<path d="M70.6186 100.019C68.0904 101.615 65.1808 102.457 62.2042 102.457C53.5379 102.457 46.4758 95.4592 46.4758 86.8356C46.4758 78.2121 53.5377 71.2126 62.2042 71.2126C64.2354 71.2126 66.2239 71.5997 68.1159 72.3638L68.1192 72.3651C68.2371 72.4132 68.37 72.4064 68.4793 72.3493L68.4818 72.348C68.5952 72.2891 68.673 72.1861 68.6995 72.0698L69.7887 72.318C70.6205 68.6576 72.771 65.6138 75.6756 63.6072L100.851 103.624C100.851 103.624 100.85 103.624 100.85 103.624C100.649 103.569 100.443 103.66 100.348 103.833C97.5941 108.901 92.2858 112.049 86.4977 112.049C79.3043 112.049 73.0383 107.207 71.2686 100.267L71.2685 100.266C71.237 100.143 71.1456 100.034 71.0146 99.9814C70.9586 99.9599 70.9036 99.9504 70.8521 99.9504C70.774 99.9504 70.6922 99.9727 70.6186 100.019ZM70.6186 100.019C70.6183 100.019 70.618 100.019 70.6177 100.019L70.023 99.0735L70.6194 100.018C70.6191 100.018 70.6189 100.019 70.6186 100.019ZM122.459 66.1646C118.424 62.2965 112.941 59.9008 106.898 59.9008C102.524 59.9008 98.2746 61.163 94.6108 63.5504M94.6108 63.5504C94.6109 63.5503 94.611 63.5502 94.6112 63.5502L95.2207 64.4864L94.6108 63.5504ZM107.681 41.0179L108.24 41.3848L108.828 41.0647C111.167 39.79 113.799 39.1172 116.47 39.1172C125.251 39.1172 132.383 46.2095 132.383 54.9043C132.383 59.9775 129.949 64.49 126.175 67.3874L125.321 68.0428L125.944 68.9203C128.615 72.682 130.194 77.2508 130.194 82.1849C130.194 94.9242 119.75 105.303 106.897 105.303C105.188 105.303 103.453 105.102 101.723 104.71L100.955 104.537L100.533 105.201C97.5061 109.963 92.2292 112.883 86.499 112.883C79.5279 112.883 73.3962 108.582 70.9928 102.233L70.5604 101.09L69.461 101.623C67.2007 102.718 64.7258 103.29 62.2042 103.29C53.0506 103.29 45.6174 95.9 45.6174 86.8356C45.6174 77.7698 53.052 70.3783 62.2042 70.3783C63.8068 70.3783 65.3848 70.6095 66.9151 71.0615L67.9525 71.3679L68.2922 70.341C69.5231 66.6207 71.9975 63.5651 75.1922 61.5758L75.862 61.1587L75.6929 60.388C75.5221 59.6098 75.428 58.8057 75.428 57.9834C75.428 51.7184 80.5674 46.6039 86.9004 46.6039C87.754 46.6039 88.602 46.6981 89.4303 46.8849L90.3551 47.0934L90.7114 46.2148C92.4421 41.9462 96.6168 39.1172 101.339 39.1172C103.575 39.1172 105.809 39.7905 107.681 41.0179Z" stroke="#00A8A8" stroke-width="2.23438"/>
</g>
<g style="mix-blend-mode:hard-light" filter="url(#filter2_f_179_1236)">
<path d="M70.9355 100.352L70.9354 100.351C70.9314 100.335 70.9175 100.314 70.8887 100.301C70.8727 100.296 70.8604 100.294 70.8521 100.294C70.8388 100.294 70.8201 100.298 70.8009 100.31C70.8009 100.31 70.8008 100.31 70.8007 100.31L70.023 99.0735L70.9355 100.352ZM70.9355 100.352C72.7444 107.446 79.1485 112.392 86.4977 112.392C92.4111 112.392 97.8357 109.176 100.65 103.997M70.9355 100.352L72.3512 99.9906C73.9936 106.432 79.8107 110.931 86.4977 110.931C91.8792 110.931 96.8105 108.005 99.3677 103.297M74.8452 62.4052L74.8459 62.4047C75.9838 61.6197 77.2278 60.9754 78.555 60.5017L78.5551 60.5017C80.2697 59.8898 82.1149 59.5571 84.0301 59.5571C87.7797 59.5571 91.4308 60.8721 94.3133 63.2561L94.3167 63.2589C94.3417 63.2798 94.3867 63.2861 94.4236 63.2621C98.1432 60.8385 102.458 59.5571 106.898 59.5571C113.034 59.5571 118.602 61.9904 122.698 65.9179C123.709 66.8839 124.622 67.9424 125.435 69.0755M74.8452 62.4052L95.2207 64.4864C98.7031 62.2173 102.741 61.018 106.898 61.018C112.64 61.018 117.851 63.2937 121.687 66.9724C122.631 67.8738 123.485 68.864 124.248 69.9274C126.738 73.3892 128.22 77.6153 128.22 82.1849C128.22 93.8559 118.654 103.351 106.897 103.351C104.997 103.351 103.061 103.081 101.147 102.547C100.448 102.355 99.7125 102.667 99.3677 103.297M74.8452 62.4052C71.6481 64.6139 69.2794 67.9669 68.3642 71.9939L74.8452 62.4052ZM125.435 69.0755L124.249 69.9269L125.434 69.0743C125.434 69.0747 125.435 69.0751 125.435 69.0755ZM125.435 69.0755C128.094 72.7726 129.681 77.294 129.681 82.1849C129.681 94.6731 119.45 104.812 106.897 104.812C104.859 104.812 102.791 104.523 100.754 103.954L101.147 102.547L100.76 103.956C100.712 103.943 100.669 103.965 100.65 103.997M100.65 103.997C100.651 103.996 100.651 103.995 100.651 103.994L99.3677 103.297M100.65 103.997C100.65 103.997 100.649 103.998 100.649 103.999L99.3677 103.297M107.492 41.3053L108.224 41.7852L108.992 41.3665C111.282 40.1192 113.856 39.4609 116.47 39.4609C125.064 39.4609 132.039 46.4017 132.039 54.9043C132.039 59.8644 129.66 64.2785 125.966 67.1148L124.849 67.9718L125.664 69.1192C128.295 72.8257 129.851 77.3256 129.851 82.1849C129.851 94.732 119.562 104.96 106.897 104.96C105.215 104.96 103.506 104.761 101.798 104.375L100.795 104.148L100.243 105.016C97.2792 109.68 92.1117 112.539 86.499 112.539C79.6708 112.539 73.6671 108.327 71.3143 102.111L70.7488 100.617L69.3111 101.313C67.0973 102.386 64.6735 102.946 62.2042 102.946C53.238 102.946 45.9612 95.7077 45.9612 86.8356C45.9612 77.962 53.2395 70.7221 62.2042 70.7221C63.7735 70.7221 65.3187 70.9484 66.8177 71.3912L68.1743 71.7919L68.6186 70.449C69.8236 66.8068 72.2458 63.8154 75.3739 61.8676L76.2498 61.3222L76.0287 60.3143C75.8629 59.5587 75.7717 58.7794 75.7717 57.9834C75.7717 51.9106 80.7548 46.9477 86.9004 46.9477C87.7287 46.9477 88.5513 47.039 89.3546 47.2202L90.5641 47.4929L91.0299 46.344C92.7076 42.2061 96.7556 39.4609 101.339 39.4609C103.508 39.4609 105.676 40.1143 107.492 41.3053ZM93.6121 62.5173L94.3865 63.0782L95.2104 62.5931C98.751 60.5085 102.768 59.4116 106.897 59.4116C113.368 59.4116 119.21 62.0909 123.391 66.3871L124.288 67.3088L125.316 66.5359C128.851 63.8778 131.163 59.6632 131.163 54.9056C131.163 46.8474 124.562 40.3105 116.47 40.3105C113.61 40.3105 110.828 41.1369 108.43 42.6984C108.353 42.7478 108.27 42.7717 108.183 42.7717C108.076 42.7717 107.974 42.7338 107.898 42.6704L107.896 42.6682C106.058 41.1473 103.729 40.3092 101.339 40.3092C96.5314 40.3092 92.4124 43.5698 91.349 48.2423C91.3201 48.3652 91.2397 48.4689 91.1262 48.5276L91.1229 48.5293C91.0635 48.5602 90.991 48.5785 90.9197 48.5785C90.8624 48.5785 90.8077 48.568 90.7522 48.5455L90.7493 48.5443C89.5195 48.0494 88.2224 47.796 86.9004 47.796C81.2554 47.796 76.6481 52.3537 76.6481 57.9834C76.6481 58.3696 76.6733 58.7398 76.712 59.0942L76.9105 60.9134L78.6405 60.3168C80.3336 59.733 82.1444 59.4116 84.0287 59.4116C87.4749 59.4116 90.8403 60.5092 93.6121 62.5173Z" stroke="#00A8A8" stroke-width="2.92188"/>
</g>
<g style="mix-blend-mode:hard-light" filter="url(#filter3_ddi_179_1236)">
<path d="M70.6186 100.019C68.0904 101.615 65.1808 102.457 62.2042 102.457C53.5379 102.457 46.4758 95.4592 46.4758 86.8356C46.4758 78.2121 53.5377 71.2126 62.2042 71.2126C64.2354 71.2126 66.2239 71.5997 68.1159 72.3638L68.1192 72.3651C68.2371 72.4132 68.37 72.4064 68.4793 72.3493L68.4818 72.348C68.5952 72.2891 68.673 72.1861 68.6995 72.0698L69.7887 72.318C70.6205 68.6576 72.771 65.6138 75.6756 63.6072L100.851 103.624C100.851 103.624 100.85 103.624 100.85 103.624C100.649 103.569 100.443 103.66 100.348 103.833C97.5941 108.901 92.2858 112.049 86.4977 112.049C79.3043 112.049 73.0383 107.207 71.2686 100.267L71.2685 100.266C71.237 100.143 71.1456 100.034 71.0146 99.9814C70.9586 99.9599 70.9036 99.9504 70.8521 99.9504C70.774 99.9504 70.6922 99.9727 70.6186 100.019ZM70.6186 100.019C70.6183 100.019 70.618 100.019 70.6177 100.019L70.023 99.0735L70.6194 100.018C70.6191 100.018 70.6189 100.019 70.6186 100.019ZM122.459 66.1646C118.424 62.2965 112.941 59.9008 106.898 59.9008C102.524 59.9008 98.2746 61.163 94.6108 63.5504M94.6108 63.5504C94.6109 63.5503 94.611 63.5502 94.6112 63.5502L95.2207 64.4864L94.6108 63.5504ZM107.681 41.0179L108.24 41.3848L108.828 41.0647C111.167 39.79 113.799 39.1172 116.47 39.1172C125.251 39.1172 132.383 46.2095 132.383 54.9043C132.383 59.9775 129.949 64.49 126.175 67.3874L125.321 68.0428L125.944 68.9203C128.615 72.682 130.194 77.2508 130.194 82.1849C130.194 94.9242 119.75 105.303 106.897 105.303C105.188 105.303 103.453 105.102 101.723 104.71L100.955 104.537L100.533 105.201C97.5061 109.963 92.2292 112.883 86.499 112.883C79.5279 112.883 73.3962 108.582 70.9928 102.233L70.5604 101.09L69.461 101.623C67.2007 102.718 64.7258 103.29 62.2042 103.29C53.0506 103.29 45.6174 95.9 45.6174 86.8356C45.6174 77.7698 53.052 70.3783 62.2042 70.3783C63.8068 70.3783 65.3848 70.6095 66.9151 71.0615L67.9525 71.3679L68.2922 70.341C69.5231 66.6207 71.9975 63.5651 75.1922 61.5758L75.862 61.1587L75.6929 60.388C75.5221 59.6098 75.428 58.8057 75.428 57.9834C75.428 51.7184 80.5674 46.6039 86.9004 46.6039C87.754 46.6039 88.602 46.6981 89.4303 46.8849L90.3551 47.0934L90.7114 46.2148C92.4421 41.9462 96.6168 39.1172 101.339 39.1172C103.575 39.1172 105.809 39.7905 107.681 41.0179Z" stroke="#33E9C6" stroke-opacity="0.2" stroke-width="2.23438"/>
</g>
<g filter="url(#filter4_f_179_1236)">
<path d="M128.908 82.1849C128.908 94.2405 119.028 104.038 106.897 104.038C104.932 104.038 102.935 103.76 100.964 103.21C100.572 103.102 100.162 103.278 99.9712 103.626C99.9711 103.627 99.9709 103.627 99.9707 103.627L128.908 82.1849ZM128.908 82.1849C128.908 77.4641 127.376 73.099 124.807 69.5265M128.908 82.1849L124.807 69.5265M122.163 66.476C118.204 62.6803 112.826 60.3305 106.898 60.3305C102.608 60.3305 98.4394 61.5685 94.8454 63.9104L122.163 66.4762C122.163 66.4761 122.163 66.4761 122.163 66.476ZM122.163 66.476C123.138 67.4078 124.02 68.4302 124.807 69.5265M122.163 66.476L124.807 69.5265M107.916 40.6585L108.261 40.8844L108.622 40.6873C111.025 39.3784 113.727 38.6875 116.47 38.6875C125.485 38.6875 132.813 45.9692 132.813 54.9043C132.813 60.119 130.31 64.7544 126.437 67.7282L125.911 68.1315L126.295 68.6715C129.014 72.5023 130.624 77.1574 130.624 82.1849C130.624 95.1645 119.984 105.733 106.897 105.733C105.154 105.733 103.388 105.528 101.628 105.129L101.156 105.023L100.896 105.431C97.7898 110.318 92.376 113.312 86.499 113.312C79.3491 113.312 73.0575 108.902 70.591 102.385L70.3249 101.682L69.6483 102.009C67.33 103.132 64.7911 103.72 62.2042 103.72C52.8163 103.72 45.1877 96.1403 45.1877 86.8356C45.1877 77.5295 52.8177 69.9487 62.2042 69.9487C63.8484 69.9487 65.4675 70.1859 67.0368 70.6494L67.6752 70.838L67.8843 70.206C69.1474 66.3882 71.6871 63.2522 74.9651 61.211L75.3772 60.9544L75.2732 60.4801C75.0962 59.6736 74.9983 58.8386 74.9983 57.9834C74.9983 51.4781 80.333 46.1742 86.9004 46.1742C87.7856 46.1742 88.6653 46.2719 89.5248 46.4657L90.094 46.5941L90.3132 46.0534C92.1102 41.6212 96.4433 38.6875 101.339 38.6875C103.66 38.6875 105.975 39.3857 107.916 40.6585ZM71.6849 100.16L71.685 100.16L69.7887 72.318L69.1184 72.1653C69.1184 72.1654 69.1184 72.1656 69.1183 72.1657C69.0635 72.4059 68.9043 72.6128 68.6798 72.7294L68.6782 72.7302C68.4561 72.8462 68.191 72.8584 67.957 72.763L67.955 72.7622C66.1139 72.0187 64.18 71.6423 62.2042 71.6423C53.7721 71.6423 46.9055 78.4524 46.9055 86.8356C46.9055 95.2189 53.7722 102.028 62.2042 102.028C65.0992 102.028 67.9292 101.208 70.389 99.6555C70.5311 99.5662 70.6925 99.5207 70.8521 99.5207C70.9582 99.5207 71.0665 99.5406 71.1719 99.5815C71.4302 99.6844 71.619 99.9014 71.6849 100.16ZM94.0659 61.8909L94.4303 62.1549L109.225 43.9243L108.852 43.347C108.852 43.3472 108.851 43.3474 108.851 43.3477C108.649 43.478 108.419 43.5451 108.183 43.5451C107.897 43.5451 107.62 43.445 107.404 43.2651L107.402 43.2641C105.704 41.8581 103.549 41.0826 101.339 41.0826C96.888 41.0826 93.0844 44.098 92.1027 48.4162C92.0228 48.7601 91.7969 49.0514 91.4816 49.2145L91.4801 49.2154C91.31 49.3039 91.1149 49.3519 90.9197 49.3519C90.7625 49.3519 90.6092 49.3221 90.4619 49.2624L90.4605 49.2618C89.3216 48.8035 88.1224 48.5694 86.9004 48.5694C81.6771 48.5694 77.4215 52.7862 77.4215 57.9834C77.4215 58.336 77.4445 58.6775 77.4808 59.0103L77.5743 59.8664L78.3884 59.5856C80.1599 58.9748 82.0558 58.6382 84.0287 58.6382C87.6383 58.6382 91.1625 59.7875 94.0659 61.8909Z" stroke="#33E9E9" stroke-width="1.375"/>
</g>
<g filter="url(#filter5_f_179_1236)">
<path d="M75.4802 63.3244L75.4804 63.3243C76.5402 62.5931 77.6974 61.994 78.9305 61.5539L79.0461 61.8776L78.9305 61.5539C80.5266 60.9843 82.2449 60.6743 84.0301 60.6743C87.52 60.6743 90.9192 61.8988 93.6012 64.117L93.602 64.1177C94.0064 64.4542 94.5886 64.4877 95.033 64.1984C98.5712 61.8929 102.674 60.6743 106.898 60.6743C112.733 60.6743 118.027 62.9869 121.925 66.7238C122.884 67.6405 123.752 68.647 124.527 69.7269C127.057 73.2441 128.564 77.5397 128.564 82.1849C128.564 94.0482 118.841 103.694 106.897 103.694C104.964 103.694 102.997 103.421 101.055 102.878C100.509 102.729 99.9373 102.973 99.6695 103.462C99.6694 103.462 99.6693 103.462 99.6692 103.462L99.3677 103.297L75.4802 63.3244ZM75.4802 63.3244C72.5068 65.3785 70.305 68.495 69.4536 72.2417L75.4802 63.3244ZM108.105 40.3711L108.277 40.484L108.458 40.3855C110.911 39.0491 113.669 38.3438 116.47 38.3438C125.673 38.3438 133.156 45.7769 133.156 54.9043C133.156 60.2321 130.599 64.9659 126.646 68.0009L126.383 68.2025L126.575 68.4725C129.334 72.3586 130.968 77.0826 130.968 82.1849C130.968 95.3568 120.172 106.077 106.897 106.077C105.128 106.077 103.335 105.868 101.552 105.465L101.316 105.411L101.186 105.616C98.0168 110.602 92.4934 113.656 86.499 113.656C79.2062 113.656 72.7866 109.157 70.2695 102.506L70.1364 102.155L69.7981 102.319C67.4335 103.464 64.8433 104.064 62.2042 104.064C52.6289 104.064 44.844 96.3326 44.844 86.8356C44.844 77.3372 52.6303 69.6049 62.2042 69.6049C63.8818 69.6049 65.5336 69.847 67.1342 70.3198L67.4534 70.414L67.558 70.0981C68.8469 66.2022 71.4387 63.0019 74.7834 60.9192L74.9895 60.7909L74.9374 60.5538C74.7555 59.7246 74.6546 58.8649 74.6546 57.9834C74.6546 51.2859 80.1456 45.8305 86.9004 45.8305C87.8109 45.8305 88.716 45.9309 89.6004 46.1304L89.885 46.1945L89.9946 45.9242C91.8446 41.3612 96.3045 38.3438 101.339 38.3438C103.727 38.3438 106.109 39.0619 108.105 40.3711ZM72.018 100.075L72.0181 100.076L70.023 99.0735L70.206 99.3645C70.2061 99.3645 70.2062 99.3644 70.2063 99.3644C70.4029 99.2408 70.6277 99.1769 70.8521 99.1769C71.0019 99.1769 71.1528 99.2052 71.2976 99.2616C71.6577 99.4044 71.9245 99.7082 72.018 100.075ZM94.2675 61.6125L94.4497 61.7445L94.6436 61.6304C98.356 59.4446 102.569 58.2945 106.897 58.2945C113.683 58.2945 119.81 61.1056 124.191 65.6079L124.402 65.8248L124.644 65.643C127.916 63.1834 130.046 59.2917 130.046 54.9056C130.046 47.4722 123.953 41.4277 116.47 41.4277C113.826 41.4277 111.255 42.1915 109.038 43.6357C108.781 43.8023 108.486 43.8889 108.183 43.8889C107.818 43.8889 107.462 43.7611 107.184 43.5294L107.183 43.5289C105.546 42.174 103.47 41.4264 101.339 41.4264C97.0467 41.4264 93.3833 44.3325 92.4377 48.493C92.3353 48.9353 92.0447 49.3103 91.6396 49.5199L91.6388 49.5203C91.4195 49.6344 91.17 49.6956 90.9197 49.6956C90.7181 49.6956 90.521 49.6572 90.3328 49.581L90.3321 49.5807C89.2336 49.1386 88.078 48.9131 86.9004 48.9131C81.8646 48.9131 77.7653 52.9785 77.7653 57.9834C77.7653 58.321 77.7873 58.6498 77.8226 58.973L77.8693 59.401L78.2763 59.2607C80.0827 58.6378 82.0164 58.2945 84.0287 58.2945C87.7109 58.2945 91.3056 59.4668 94.2675 61.6125Z" stroke="white" stroke-width="0.6875"/>
</g>
<defs>
<filter id="filter0_f_179_1236" x="25.2877" y="20.0874" width="127.425" height="111.825" filterUnits="userSpaceOnUse" color-interpolation-filters="sRGB">
<feFlood flood-opacity="0" result="BackgroundImageFix"/>
<feBlend mode="normal" in="SourceGraphic" in2="BackgroundImageFix" result="shape"/>
<feGaussianBlur stdDeviation="5.15625" result="effect1_foregroundBlur_179_1236"/>
</filter>
<filter id="filter1_f_179_1236" x="34.1877" y="27.6875" width="109.625" height="96.625" filterUnits="userSpaceOnUse" color-interpolation-filters="sRGB">
<feFlood flood-opacity="0" result="BackgroundImageFix"/>
<feBlend mode="normal" in="SourceGraphic" in2="BackgroundImageFix" result="shape"/>
<feGaussianBlur stdDeviation="5.15625" result="effect1_foregroundBlur_179_1236"/>
</filter>
<filter id="filter2_f_179_1236" x="41.0627" y="34.5625" width="95.875" height="82.875" filterUnits="userSpaceOnUse" color-interpolation-filters="sRGB">
<feFlood flood-opacity="0" result="BackgroundImageFix"/>
<feBlend mode="normal" in="SourceGraphic" in2="BackgroundImageFix" result="shape"/>
<feGaussianBlur stdDeviation="1.71875" result="effect1_foregroundBlur_179_1236"/>
</filter>
<filter id="filter3_ddi_179_1236" x="40.0315" y="36.9688" width="97.9375" height="84.9375" filterUnits="userSpaceOnUse" color-interpolation-filters="sRGB">
<feFlood flood-opacity="0" result="BackgroundImageFix"/>
<feColorMatrix in="SourceAlpha" type="matrix" values="0 0 0 0 0 0 0 0 0 0 0 0 0 0 0 0 0 0 127 0" result="hardAlpha"/>
<feOffset dy="2.23438"/>
<feGaussianBlur stdDeviation="0.859375"/>
<feColorMatrix type="matrix" values="0 0 0 0 0 0 0 0 0 0.3 0 0 0 0 0.275 0 0 0 0.7 0"/>
<feBlend mode="multiply" in2="BackgroundImageFix" result="effect1_dropShadow_179_1236"/>
<feColorMatrix in="SourceAlpha" type="matrix" values="0 0 0 0 0 0 0 0 0 0 0 0 0 0 0 0 0 0 127 0" result="hardAlpha"/>
<feOffset dy="3.4375"/>
<feGaussianBlur stdDeviation="2.23438"/>
<feColorMatrix type="matrix" values="0 0 0 0 0 0 0 0 0 0.6 0 0 0 0 0.6 0 0 0 1 0"/>
<feBlend mode="color-dodge" in2="effect1_dropShadow_179_1236" result="effect2_dropShadow_179_1236"/>
<feBlend mode="normal" in="SourceGraphic" in2="effect2_dropShadow_179_1236" result="shape"/>
<feColorMatrix in="SourceAlpha" type="matrix" values="0 0 0 0 0 0 0 0 0 0 0 0 0 0 0 0 0 0 127 0" result="hardAlpha"/>
<feOffset dx="-0.223438" dy="0.446875"/>
<feGaussianBlur stdDeviation="0.111719"/>
<feComposite in2="hardAlpha" operator="arithmetic" k2="-1" k3="1"/>
<feColorMatrix type="matrix" values="0 0 0 0 1 0 0 0 0 1 0 0 0 0 1 0 0 0 0.5 0"/>
<feBlend mode="normal" in2="shape" result="effect3_innerShadow_179_1236"/>
</filter>
<filter id="filter4_f_179_1236" x="44.1565" y="37.6562" width="89.6875" height="76.6875" filterUnits="userSpaceOnUse" color-interpolation-filters="sRGB">
<feFlood flood-opacity="0" result="BackgroundImageFix"/>
<feBlend mode="normal" in="SourceGraphic" in2="BackgroundImageFix" result="shape"/>
<feGaussianBlur stdDeviation="0.171875" result="effect1_foregroundBlur_179_1236"/>
</filter>
<filter id="filter5_f_179_1236" x="44.2711" y="37.7708" width="89.4583" height="76.4583" filterUnits="userSpaceOnUse" color-interpolation-filters="sRGB">
<feFlood flood-opacity="0" result="BackgroundImageFix"/>
<feBlend mode="normal" in="SourceGraphic" in2="BackgroundImageFix" result="shape"/>
<feGaussianBlur stdDeviation="0.114583" result="effect1_foregroundBlur_179_1236"/>
</filter>
</defs>
</svg>
