<svg width="33" height="24" viewBox="0 0 33 24" fill="none" xmlns="http://www.w3.org/2000/svg">
<path d="M0.845618 7.16326H16.5263C16.6242 7.17119 16.7179 7.1928 16.8173 7.1928C18.8031 7.1928 20.413 5.58295 20.413 3.5964C20.413 1.60984 18.8031 0 16.8173 0C14.8307 0 13.2209 1.60984 13.2209 3.5964C13.2209 4.28643 13.4247 4.92389 13.7618 5.47131H0.845618C0.378871 5.47131 0 5.85018 0 6.31765C0 6.78511 0.378871 7.16326 0.845618 7.16326Z" fill="#00FF19"/>
<path d="M21.5416 15.8508C21.5171 15.8494 21.4962 15.8364 21.471 15.8364H1.37496C0.908218 15.8364 0.528625 16.2153 0.528625 16.6828C0.528625 17.1502 0.907498 17.5291 1.37496 17.5291H18.3608C18.0136 18.0823 17.8047 18.7313 17.8047 19.4328C17.8047 21.4187 19.4146 23.0292 21.4011 23.0292C23.387 23.0292 24.9968 21.4194 24.9968 19.4328C24.9968 17.4952 23.4604 15.9265 21.5416 15.8508Z" fill="#00FF19"/>
<path d="M33.0001 9.06686C33.0001 7.08102 31.3902 5.47046 29.4044 5.47046C27.4179 5.47046 25.808 7.0803 25.808 9.06686C25.808 9.76842 26.0169 10.4174 26.3641 10.9706H0.917018C0.449551 10.9706 0.0706787 11.3494 0.0706787 11.8169C0.0706787 12.2844 0.448831 12.6633 0.917018 12.6633H29.4743C29.4995 12.6633 29.5197 12.651 29.5449 12.6488C31.4637 12.5732 33.0001 11.0044 33.0001 9.06686Z" fill="#00FF19"/>
</svg>
