<svg width="33" height="24" viewBox="0 0 33 24" fill="none" xmlns="http://www.w3.org/2000/svg">
<path d="M0.845618 7.16326H16.5263C16.6242 7.17119 16.7179 7.1928 16.8173 7.1928C18.8031 7.1928 20.413 5.58295 20.413 3.5964C20.413 1.60984 18.8031 0 16.8173 0C14.8307 0 13.2209 1.60984 13.2209 3.5964C13.2209 4.28643 13.4247 4.92389 13.7618 5.47131H0.845618C0.378871 5.47131 0 5.85018 0 6.31765C0 6.78511 0.378871 7.16326 0.845618 7.16326Z" fill="black"/>
<path d="M21.5418 15.8508C21.5173 15.8494 21.4964 15.8364 21.4712 15.8364H1.37515C0.908401 15.8364 0.528809 16.2153 0.528809 16.6828C0.528809 17.1502 0.907681 17.5291 1.37515 17.5291H18.361C18.0138 18.0823 17.8049 18.7313 17.8049 19.4328C17.8049 21.4187 19.4148 23.0292 21.4013 23.0292C23.3871 23.0292 24.997 21.4194 24.997 19.4328C24.997 17.4952 23.4606 15.9265 21.5418 15.8508Z" fill="black"/>
<path d="M33.0002 9.06686C33.0002 7.08102 31.3904 5.47046 29.4045 5.47046C27.418 5.47046 25.8081 7.0803 25.8081 9.06686C25.8081 9.76842 26.017 10.4174 26.3642 10.9706H0.91714C0.449673 10.9706 0.0708008 11.3494 0.0708008 11.8169C0.0708008 12.2844 0.448953 12.6633 0.91714 12.6633H29.4744C29.4996 12.6633 29.5198 12.651 29.545 12.6488C31.4638 12.5732 33.0002 11.0044 33.0002 9.06686Z" fill="black"/>
</svg>
