<svg width="73" height="45" viewBox="0 0 73 45" fill="none" xmlns="http://www.w3.org/2000/svg">
<path d="M44.4979 13.6902C45.3975 12.2926 45.8756 10.6656 45.8751 9.0035C45.8751 8.75683 45.8751 8.51016 45.8751 8.26349C45.6922 6.10242 44.7045 4.0888 43.1076 2.62132C41.5106 1.15384 39.4209 0.339478 37.2521 0.339478C35.0833 0.339478 32.9935 1.15384 31.3966 2.62132C29.7996 4.0888 28.8119 6.10242 28.629 8.26349H32.6168C32.7826 7.15276 33.3418 6.13852 34.1926 5.40538C35.0433 4.67224 36.129 4.26897 37.2521 4.26897C38.3751 4.26897 39.4608 4.67224 40.3116 5.40538C41.1623 6.13852 41.7215 7.15276 41.8873 8.26349C41.8873 8.51016 41.8873 8.75683 41.8873 9.0035C41.8819 10.2484 41.3836 11.4404 40.5014 12.3187C39.6192 13.1971 38.425 13.6902 37.1801 13.6902H8.40234V17.6779H37.1801C38.6366 17.681 40.0704 17.3173 41.3493 16.6204C42.6282 15.9235 43.711 14.9158 44.4979 13.6902Z" fill="#00FF19"/>
<path d="M45.5258 27.1745H16.748V31.1212H45.5258C46.7726 31.1266 47.9667 31.6243 48.8483 32.5059C49.73 33.3875 50.2276 34.5817 50.233 35.8284C50.233 36.0751 50.233 36.3012 50.233 36.5479C50.0672 37.6586 49.508 38.6729 48.6573 39.406C47.8065 40.1391 46.7208 40.5424 45.5978 40.5424C44.4747 40.5424 43.389 40.1391 42.5383 39.406C41.6875 38.6729 41.1283 37.6586 40.9625 36.5479H36.8514C37.0343 38.7089 38.022 40.7226 39.6189 42.19C41.2159 43.6575 43.3056 44.4719 45.4744 44.4719C47.6432 44.4719 49.733 43.6575 51.3299 42.19C52.9269 40.7226 53.9146 38.7089 54.0975 36.5479C54.0975 36.3012 54.0975 36.0751 54.0975 35.8284C54.1029 34.6905 53.8828 33.5627 53.4498 32.5103C53.0169 31.4579 52.3796 30.5017 51.575 29.6971C50.7703 28.8924 49.8141 28.2552 48.7617 27.8222C47.7093 27.3892 46.5816 27.1691 45.4436 27.1745H45.5258Z" fill="#00FF19"/>
<path d="M60.6552 0.226196C59.0716 0.226194 57.5036 0.538443 56.0408 1.14507C54.578 1.7517 53.2492 2.64081 52.1304 3.76152C51.0116 4.88223 50.1248 6.21255 49.5206 7.67636C48.9165 9.14017 48.6069 10.7087 48.6096 12.2923C48.6107 13.2756 48.728 14.2554 48.9591 15.2112H53.0702C52.6901 14.285 52.4946 13.2935 52.4946 12.2923C52.4946 10.6954 52.9679 9.1344 53.8547 7.80637C54.7414 6.47835 56.0019 5.44292 57.4768 4.83089C58.9517 4.21886 60.5749 4.05767 62.1414 4.36772C63.7079 4.67776 65.1474 5.44512 66.278 6.57284C67.4085 7.70056 68.1796 9.13805 68.4936 10.7037C68.8076 12.2694 68.6505 13.8931 68.0423 15.3695C67.434 16.846 66.4018 18.1091 65.076 18.9992C63.7502 19.8893 62.1904 20.3666 60.5935 20.3706H0.982422V24.3173H60.5935C63.2775 24.3232 65.8861 23.4294 68.0025 21.7787C70.1189 20.1281 71.6211 17.8158 72.2691 15.2112C72.5172 14.2582 72.6416 13.2771 72.6391 12.2923C72.6392 9.10636 71.3792 6.0497 69.1341 3.78921C66.889 1.52873 63.8411 0.247906 60.6552 0.226196Z" fill="#00FF19"/>
</svg>
