<svg width="290" height="210" viewBox="0 0 290 210" fill="none" xmlns="http://www.w3.org/2000/svg">
<path d="M222.857 28.8818C223.701 29.1499 224.591 29.2487 225.474 29.1726C226.357 29.0965 227.217 28.8471 228.003 28.4385C228.79 28.0299 229.488 27.4703 230.058 26.7915C230.628 26.1128 231.059 25.3283 231.325 24.483L236.3 8.81962C236.845 7.11052 236.689 5.25487 235.866 3.66086C235.043 2.06685 233.62 0.865075 231.911 0.319908C230.202 -0.225259 228.347 -0.0691616 226.753 0.753863C225.159 1.57689 223.957 2.99941 223.412 4.70851L218.458 20.3718C218.294 20.899 218.198 21.4445 218.17 21.9957C218.071 23.5019 218.478 24.9981 219.327 26.246C220.177 27.4939 221.419 28.4217 222.857 28.8818Z" fill="white"/>
<path d="M259.137 49.828L272.354 40.0847C273.796 39.0186 274.755 37.4236 275.021 35.6505C275.287 33.8774 274.838 32.0713 273.773 30.6291C273.629 30.4441 273.465 30.3002 273.3 30.1152C272.186 28.8779 270.65 28.0998 268.994 27.9326C267.337 27.7654 265.677 28.221 264.338 29.2108L251.121 38.9541C250.358 39.4611 249.706 40.1177 249.205 40.884C248.704 41.6504 248.363 42.5106 248.204 43.4125C248.045 44.3144 248.071 45.2392 248.28 46.1307C248.489 47.0223 248.878 47.8621 249.421 48.5992C249.964 49.3363 250.652 49.9554 251.442 50.4189C252.232 50.8823 253.107 51.1806 254.016 51.2955C254.924 51.4104 255.847 51.3396 256.727 51.0873C257.608 50.8351 258.427 50.4066 259.137 49.828Z" fill="white"/>
<path d="M287.997 75.2346C287.362 74.5348 286.588 73.9757 285.724 73.5933C284.86 73.211 283.926 73.0139 282.981 73.0147L266.537 73.138C264.83 73.1608 263.195 73.8281 261.96 75.0062C260.725 76.1842 259.981 77.7858 259.877 79.4896C259.877 79.6541 259.877 79.798 259.877 79.9419C259.893 81.7338 260.618 83.4464 261.893 84.7058C263.167 85.9652 264.889 86.669 266.681 86.6635L283.125 86.5402C284.434 86.5395 285.715 86.1566 286.809 85.4384C287.904 84.7202 288.765 83.6981 289.287 82.4974C289.808 81.2968 289.968 79.9699 289.746 78.6797C289.525 77.3895 288.931 76.1921 288.038 75.2346H287.997Z" fill="white"/>
<path d="M140.141 40.2286L153.502 49.7869C154.857 50.7785 156.534 51.2284 158.204 51.0486C159.874 50.8688 161.417 50.0723 162.53 48.8148C163.644 47.5574 164.248 45.9297 164.224 44.2503C164.2 42.5709 163.551 40.9608 162.402 39.7352C162.087 39.3901 161.736 39.08 161.354 38.8102L147.993 29.2519C147.273 28.7329 146.458 28.3615 145.595 28.159C144.731 27.9566 143.835 27.9271 142.96 28.0724C142.085 28.2176 141.247 28.5346 140.495 29.0052C139.743 29.4758 139.092 30.0906 138.578 30.8141C137.83 31.8466 137.401 33.0759 137.345 34.3497C137.277 35.4859 137.498 36.6209 137.986 37.6489C138.475 38.6768 139.216 39.5643 140.141 40.2286Z" fill="white"/>
<path d="M179.854 20.4131L181.231 24.5243C181.834 26.1796 183.058 27.5344 184.645 28.3006C186.231 29.0668 188.054 29.1837 189.725 28.6267C191.396 28.0696 192.784 26.8825 193.593 25.3178C194.402 23.7532 194.569 21.9345 194.058 20.2487L188.857 4.66758C188.75 4.37978 188.627 4.0984 188.487 3.82481C187.741 2.27822 186.434 1.07449 184.831 0.459204C183.227 -0.15608 181.45 -0.136564 179.861 0.513779C178.272 1.16412 176.991 2.39628 176.279 3.95888C175.567 5.52148 175.478 7.29678 176.031 8.92258L179.854 20.4131Z" fill="white"/>
<path d="M272.333 119.429L258.972 109.871C258.251 109.356 257.434 108.988 256.57 108.788C255.706 108.589 254.811 108.562 253.937 108.709C253.062 108.856 252.225 109.174 251.474 109.645C250.723 110.116 250.071 110.731 249.558 111.454C248.81 112.486 248.381 113.715 248.325 114.989C248.256 116.125 248.477 117.26 248.966 118.288C249.455 119.316 250.196 120.204 251.12 120.868L264.481 130.426C265.837 131.418 267.514 131.868 269.184 131.688C270.853 131.508 272.396 130.712 273.51 129.454C274.623 128.197 275.227 126.569 275.203 124.89C275.18 123.21 274.53 121.6 273.382 120.375C273.067 120.023 272.716 119.706 272.333 119.429Z" fill="white"/>
<path d="M215.744 122.204C213.398 116.29 209.017 111.407 203.391 108.434C197.766 105.461 191.263 104.593 185.055 105.986C177.664 91.1268 165.403 79.2502 150.316 72.3364C143.316 69.1032 135.841 67.0208 128.178 66.1697C125.632 65.8869 123.072 65.7427 120.51 65.738C106.9 65.7802 93.5784 69.6601 82.074 76.9321C70.5697 84.2041 61.3496 94.5734 55.4726 106.849C48.5553 106.298 41.5979 107.153 35.0201 109.363C28.4423 111.574 22.3803 115.093 17.1996 119.71C12.019 124.327 7.827 129.945 4.87652 136.226C1.92604 142.506 0.278163 149.32 0.0322738 156.255C-0.213615 163.189 0.947582 170.102 3.44582 176.576C5.94406 183.05 9.7276 188.951 14.5683 193.923C19.4089 198.895 25.2065 202.835 31.6112 205.506C38.016 208.177 44.8952 209.523 51.8342 209.462H210.523C221.509 209.185 231.99 204.795 239.894 197.159C247.797 189.524 252.547 179.2 253.204 168.231C253.86 157.261 250.375 146.445 243.438 137.922C236.502 129.399 226.619 123.789 215.744 122.204ZM210.523 195.485H51.8342C41.9722 195.485 32.5141 191.567 25.5405 184.593C18.567 177.62 14.6493 168.162 14.6493 158.3C14.6493 148.438 18.567 138.979 25.5405 132.006C32.5141 125.032 41.9722 121.115 51.8342 121.115C54.1025 121.116 56.366 121.322 58.597 121.731L64.4348 122.821L66.4904 117.271C70.6852 106.347 78.0848 96.9462 87.7179 90.3028C97.351 83.6594 108.768 80.0836 120.469 80.0447C122.53 80.0503 124.589 80.1738 126.636 80.4147C132.782 81.0703 138.781 82.7227 144.396 85.3069C158.301 91.6695 169.136 103.258 174.551 117.559L177.47 125.349L184.705 121.238C187.463 119.655 190.725 119.199 193.811 119.964C196.225 120.546 198.411 121.834 200.088 123.665C201.765 125.496 202.857 127.786 203.226 130.241L204.151 136.244H210.729C218.595 136.276 226.127 139.433 231.667 145.019C237.206 150.604 240.3 158.162 240.267 166.029C240.234 173.895 237.078 181.427 231.492 186.966C225.906 192.506 218.349 195.6 210.482 195.567L210.523 195.485Z" fill="white"/>
<path d="M188.96 98.3598C192.289 98.1759 195.627 98.4806 198.868 99.2642C203.44 100.37 207.731 102.418 211.465 105.278C215.2 108.138 218.295 111.747 220.554 115.873C222.055 116.161 223.514 116.531 224.953 116.942C231.298 113.751 236.72 108.988 240.701 103.107C244.682 97.2252 247.089 90.4217 247.694 83.3454C248.298 76.269 247.079 69.1558 244.153 62.6845C241.226 56.2132 236.691 50.5997 230.979 46.3794C225.266 42.1592 218.568 39.4731 211.523 38.5775C204.477 37.6818 197.32 38.6064 190.733 41.2631C184.147 43.9198 178.351 48.22 173.899 53.7533C169.446 59.2866 166.486 65.8684 165.301 72.8709C174.975 79.5131 183.056 88.2184 188.96 98.3598ZM181.211 56.7348C186.021 51.2876 192.599 49.232 195.887 52.1509C199.176 55.0698 197.943 61.812 193.112 67.2593C188.282 72.7065 181.725 74.762 178.436 71.8431C175.147 68.9242 176.401 62.182 181.211 56.7348Z" fill="white"/>
</svg>
