<svg width="310" height="234" viewBox="0 0 310 234" fill="none" xmlns="http://www.w3.org/2000/svg">
<path d="M309.997 66.0359C310.065 63.9106 308.766 61.9843 306.763 61.2391C304.786 60.5025 302.529 61.0994 301.183 62.7421C293.584 72.0096 282.373 77.3228 270.404 77.3228C248.465 77.3228 230.616 59.4737 230.616 37.5391C230.616 26.4934 235.074 16.2183 243.161 8.59774C244.714 7.13712 245.163 4.85517 244.287 2.92038C243.402 0.985599 241.399 -0.187122 239.274 0.0245612C207.433 3.11514 183.17 28.6611 181.243 60.1934C172.687 55.1173 162.712 52.2299 152.103 52.2299C151.599 52.2299 151.095 52.2807 150.591 52.2934C146.489 52.4035 142.421 52.9242 138.479 53.9022C131.311 55.6761 124.512 58.8217 118.517 63.2035C106.405 56.0148 92.6622 52.2299 78.5387 52.2299C35.2326 52.2299 0 87.4625 0 130.773C0 174.083 35.2326 209.316 78.5387 209.316C84.3177 209.316 90.1644 208.638 95.9772 207.301C106.379 223.791 124.495 233.88 144.161 233.88C168.072 233.88 189.143 219.011 197.395 197.021C205.151 200.815 213.652 202.796 222.31 202.796C253.715 202.796 279.257 177.25 279.257 145.845C279.257 137.382 277.373 129.367 274.041 122.149C294.875 111.975 309.312 90.9468 309.997 66.0359ZM222.306 192.855C213.406 192.855 204.719 190.315 197.153 185.51C196.345 184.998 195.418 184.735 194.482 184.735C193.864 184.735 193.241 184.849 192.645 185.082C191.163 185.675 190.058 186.941 189.66 188.486C184.376 209.362 165.663 223.939 144.156 223.939C126.841 223.939 110.981 214.464 102.755 199.197C101.646 197.157 99.2837 196.141 97.0314 196.771C90.8714 198.495 84.6521 199.371 78.5345 199.371C40.7109 199.371 9.94488 168.601 9.94488 130.777C9.94488 92.9535 40.7152 62.1832 78.5345 62.1832C91.9044 62.1832 104.898 66.074 116.1 73.4278C117.937 74.626 120.333 74.4863 122.01 73.0849C125.956 69.8038 130.393 67.234 135.117 65.4051C138.589 64.0587 142.213 63.1358 145.926 62.6405C147.967 62.3695 150.028 62.1875 152.103 62.1875C163.242 62.1875 173.542 66.0189 181.654 72.5769C189.634 79.0247 195.498 88.1144 197.903 98.8087C198.233 100.231 199.16 101.442 200.46 102.115C201.76 102.797 203.288 102.869 204.634 102.314C205.113 102.119 205.608 101.984 206.091 101.802C211.315 99.8713 216.751 98.851 222.306 98.851C237.373 98.851 250.768 106.002 259.376 117.064C261.492 119.778 263.304 122.729 264.782 125.87C267.652 131.946 269.303 138.702 269.303 145.857C269.308 171.772 248.22 192.855 222.306 192.855ZM269.083 113.508C260.383 100.997 246.823 92.1068 231.12 89.6513C228.241 89.2067 225.316 88.8977 222.306 88.8977C221.785 88.8977 221.273 88.94 220.752 88.9569C215.781 89.0882 210.887 89.8418 206.133 91.2558C203.114 82.0603 197.898 74.0544 191.175 67.7039C191.108 66.5524 191.002 65.4008 191.002 64.2281C191.002 40.5492 205.896 20.3038 227.259 12.7891C222.958 20.2318 220.667 28.6822 220.667 37.5433C220.667 64.9732 242.979 87.2762 270.404 87.2762C280.425 87.2762 290.027 84.2914 298.131 78.8385C293.931 94.2744 283.198 106.815 269.083 113.508Z" fill="black"/>
</svg>
