<svg width="128" height="96" viewBox="0 0 128 96" fill="none" xmlns="http://www.w3.org/2000/svg">
<path d="M127.244 27.1056C127.272 26.2332 126.738 25.4425 125.916 25.1367C125.105 24.8343 124.179 25.0793 123.626 25.7536C120.507 29.5576 115.905 31.7385 110.992 31.7385C101.987 31.7385 94.6605 24.412 94.6605 15.4086C94.6605 10.8747 96.4904 6.6571 99.8096 3.52909C100.447 2.92956 100.632 1.99289 100.272 1.19872C99.9086 0.404557 99.0867 -0.0768076 98.2143 0.0100816C85.1444 1.27866 75.1852 11.7644 74.3945 24.7075C70.8824 22.6239 66.7882 21.4387 62.4333 21.4387C62.2265 21.4387 62.0197 21.4595 61.8129 21.4648C60.129 21.5099 58.459 21.7237 56.8411 22.1251C53.8991 22.8532 51.1082 24.1444 48.6475 25.943C43.6757 22.9923 38.0349 21.4387 32.2376 21.4387C14.4618 21.4387 0 35.9005 0 53.678C0 71.4556 14.4618 85.9174 32.2376 85.9174C34.6097 85.9174 37.0096 85.6393 39.3955 85.0902C43.6653 91.8589 51.1012 96 59.1733 96C68.9883 96 77.6372 89.8969 81.0241 80.8709C84.2078 82.4279 87.6972 83.2412 91.251 83.2412C104.142 83.2412 114.626 72.7554 114.626 59.8645C114.626 56.3907 113.853 53.1011 112.485 50.1382C121.037 45.9623 126.962 37.3307 127.244 27.1056ZM91.2493 79.1609C87.5964 79.1609 84.0305 78.1182 80.9251 76.1458C80.5932 75.9356 80.2126 75.8278 79.8285 75.8278C79.5748 75.8278 79.3194 75.8747 79.0743 75.9703C78.4661 76.2136 78.0126 76.7332 77.8492 77.3675C75.6805 85.9365 67.9995 91.9197 59.1715 91.9197C52.064 91.9197 45.5542 88.0305 42.1777 81.7641C41.7224 80.9265 40.7528 80.5094 39.8283 80.7683C37.2998 81.4756 34.747 81.8353 32.2359 81.8353C16.7105 81.8353 4.08205 69.2051 4.08205 53.6798C4.08205 38.1544 16.7123 25.5242 32.2359 25.5242C37.7238 25.5242 43.0571 27.1212 47.6552 30.1398C48.4094 30.6316 49.393 30.5742 50.0812 29.999C51.7008 28.6522 53.522 27.5974 55.4614 26.8467C56.8863 26.2941 58.3739 25.9152 59.8979 25.7119C60.7355 25.6007 61.5818 25.5259 62.4333 25.5259C67.0054 25.5259 71.2335 27.0986 74.5631 29.7905C77.8388 32.4371 80.2456 36.1681 81.2327 40.5578C81.3682 41.1417 81.7488 41.6387 82.2823 41.915C82.8158 42.1948 83.4431 42.2243 83.9958 41.9967C84.1921 41.9167 84.3954 41.8611 84.5936 41.7864C86.738 40.994 88.9693 40.5751 91.2493 40.5751C97.434 40.5751 102.932 43.5103 106.465 48.0511C107.334 49.165 108.078 50.3762 108.684 51.6657C109.863 54.1594 110.54 56.9329 110.54 59.8698C110.542 70.5067 101.886 79.1609 91.2493 79.1609ZM110.45 46.5914C106.879 41.4562 101.313 37.8069 94.8673 36.7989C93.6856 36.6165 92.4848 36.4896 91.2493 36.4896C91.0355 36.4896 90.8252 36.507 90.6115 36.514C88.5713 36.5678 86.5625 36.8772 84.6109 37.4576C83.3719 33.6831 81.2309 30.397 78.4713 27.7903C78.4435 27.3176 78.4001 26.8449 78.4001 26.3636C78.4001 16.6441 84.5136 8.33406 93.2825 5.2495C91.5169 8.30452 90.5767 11.7731 90.5767 15.4103C90.5767 26.6694 99.7348 35.8241 110.992 35.8241C115.106 35.8241 119.047 34.5989 122.373 32.3606C120.649 38.6966 116.244 43.8439 110.45 46.5914Z" fill="black"/>
</svg>
