<svg width="8" height="12" viewBox="0 0 8 12" fill="none" xmlns="http://www.w3.org/2000/svg">
<path d="M7.78382 0C5.20662 1.81161 2.87608 3.89656 0.841624 6.21061C0.427824 6.80593 0.160256 7.47553 0.0572087 8.17369C-0.0926411 8.91768 0.0541349 9.68594 0.471141 10.3402C0.888147 10.9945 1.54799 11.4919 2.33203 11.743C4.21465 12.4569 6.68561 11.743 7.5877 8.85186C7.80983 7.81678 7.92797 6.76548 7.94068 5.71091C8.13679 2.92685 7.78382 0 7.78382 0ZM2.33203 5.99641C2.80268 5.35393 3.62635 5.06841 4.097 5.35396C4.56766 5.6395 4.56766 6.42477 4.097 7.10294C3.62635 7.78111 2.80268 8.03093 2.33203 7.74539C1.86137 7.45984 1.86137 6.67458 2.33203 5.99641Z" fill="white"/>
</svg>
