<svg width="197" height="168" viewBox="0 0 197 168" fill="none" xmlns="http://www.w3.org/2000/svg">
<path d="M197 37.3673C197 16.7662 180.089 0 159.304 0C152.977 0 146.746 1.59114 141.205 4.60594C136.663 1.63157 131.248 0 125.812 0C114.361 0 104.208 6.85549 99.9959 17.2311C97.9829 16.7778 95.9233 16.5496 93.8521 16.5496C78.4854 16.5496 65.9852 28.9438 65.9852 44.1737C65.9852 46.1807 66.2153 48.1357 66.629 50.0185C59.0782 54.714 53.2257 61.9304 50.3155 70.715C46.7032 69.6494 42.9744 69.1036 39.1873 69.1036C17.5807 69.1036 0 86.5311 0 107.952C0 129.371 17.5778 146.795 39.1873 146.795C45.1447 146.795 50.9913 145.444 56.3282 142.862C62.0117 157.858 76.5045 168 92.9636 168C106.492 168 118.96 161.116 126.115 149.874C130.115 150.778 134.138 151.245 138.114 151.245C167.912 151.245 192.155 127.214 192.155 97.672C192.155 86.2279 188.485 75.6328 182.292 66.9205C191.217 60.0765 197 49.3948 197 37.3673ZM185.313 97.672C185.313 123.471 164.137 144.459 138.114 144.459C133.908 144.459 129.622 143.864 125.387 142.683C123.84 142.259 122.211 142.949 121.448 144.341C115.788 154.748 104.872 161.217 92.9607 161.217C78.1591 161.217 65.2831 151.271 61.6475 137.032C61.3795 135.981 60.6163 135.117 59.5938 134.713C59.1859 134.554 58.7577 134.473 58.3295 134.473C57.6886 134.473 57.0506 134.655 56.4942 135.005C51.2914 138.285 45.3078 140.015 39.1873 140.015C21.3532 140.015 6.84584 125.634 6.84584 107.952C6.84584 90.2707 21.3532 75.8869 39.1873 75.8869C43.3648 75.8869 47.4519 76.681 51.3467 78.2519C52.276 78.6302 53.3306 78.584 54.222 78.1191C55.1134 77.6571 55.7543 76.8312 55.9757 75.8609C57.8168 67.7695 62.5768 61.041 69.0061 56.6055C71.2987 55.0259 73.8011 53.7322 76.4666 52.7821C79.9186 51.5519 83.6358 50.882 87.4986 50.882C95.0465 50.882 102.399 53.5271 108.199 58.3179C109.353 59.2766 111.007 59.369 112.269 58.5489C119.977 53.5329 128.914 50.882 138.117 50.882C150.827 50.882 162.36 55.9124 170.852 64.0443C172.941 66.0368 174.831 68.2257 176.521 70.5763C182.032 78.2288 185.313 87.5707 185.313 97.672ZM138.114 44.1015C128.399 44.1015 118.94 46.6803 110.605 51.5808C103.92 46.7438 95.8068 44.1015 87.4957 44.1015C82.9541 44.1015 78.5902 44.8755 74.5148 46.2789C74.439 45.5858 74.3924 44.887 74.3924 44.1737C74.3924 33.5353 83.1202 24.8836 93.8521 24.8836C96.3603 24.8836 98.8219 25.363 101.164 26.3044C101.671 26.5094 102.204 26.6134 102.749 26.6134C103.425 26.6134 104.098 26.4488 104.692 26.1398C105.787 25.5738 106.574 24.5602 106.85 23.3647C108.863 14.5167 116.662 8.33401 125.812 8.33401C130.351 8.33401 134.776 9.92516 138.263 12.8071C139.017 13.4338 139.976 13.7774 140.96 13.7774C141.779 13.7774 142.574 13.5435 143.267 13.0959C148.051 9.98291 153.597 8.3369 159.304 8.3369C175.452 8.3369 188.593 21.3635 188.593 37.3702C188.593 46.8131 184.002 55.1962 176.94 60.4981C167.106 50.4055 153.35 44.1015 138.114 44.1015Z" fill="black"/>
</svg>
