<svg width="70" height="53" viewBox="0 0 70 53" fill="none" xmlns="http://www.w3.org/2000/svg">
<path d="M28.2529 32.0354C29.0521 31.8618 29.8793 31.8618 30.6785 32.0354C32.2441 28.9843 34.7934 26.5508 37.914 25.1287C39.399 24.4548 40.9804 24.0178 42.6007 23.8338H42.7651C42.1376 22.9917 41.322 22.3079 40.3834 21.8368C39.4449 21.3657 38.4092 21.1204 37.359 21.1204C37.2474 20.4206 36.9327 19.7689 36.454 19.2463C35.9753 18.7238 35.3537 18.3533 34.6663 18.1809C34.3898 18.1165 34.1073 18.082 33.8235 18.0782C33.1958 18.0733 32.5783 18.2365 32.0351 18.551C30.9393 15.6089 28.7218 13.2213 25.8685 11.9115C24.713 11.3756 23.4765 11.0353 22.2096 10.9043C21.7985 10.9043 21.3668 10.9043 20.9557 10.9043C18.5435 10.9048 16.1883 11.6382 14.2024 13.0075C12.2164 14.3767 10.6934 16.3171 9.83514 18.5715C9.34627 18.488 8.8511 18.4467 8.35514 18.4482C6.5455 18.451 4.78895 19.0599 3.36574 20.1776C1.94253 21.2953 0.934659 22.8574 0.502919 24.6148C0.318906 25.2843 0.228975 25.9761 0.235703 26.6704C0.262354 28.8155 1.12633 30.8653 2.64329 32.3822C4.16024 33.8992 6.21001 34.7632 8.35514 34.7898H24.7996C25.5438 33.4534 26.7844 32.4638 28.2529 32.0354Z" fill="white"/>
<path d="M62.6014 14.6662C61.0168 12.4018 58.7642 10.6891 56.1585 9.76774C53.5529 8.84635 50.7244 8.76231 48.0686 9.52732C50.6691 9.64316 53.1496 10.6545 55.0899 12.3899C57.0301 14.1253 58.3107 16.4782 58.7147 19.0497C59.1187 21.6213 58.6212 24.2535 57.3066 26.5002C55.992 28.747 53.9411 30.4702 51.5014 31.3779C50.8377 31.6397 50.1489 31.8326 49.4458 31.9534C46.666 32.4163 43.8137 31.8223 41.4497 30.2884C43.569 32.9757 46.6495 34.7345 50.0409 35.1937C53.4324 35.6529 56.8696 34.7766 59.6272 32.7497C62.3849 30.7228 64.2472 27.7039 64.8213 24.3299C65.3954 20.956 64.6363 17.4911 62.7042 14.6662H62.6014Z" fill="white"/>
<path d="M42.3127 28.8086C44.3079 30.0976 46.7095 30.6028 49.055 30.227C49.6806 30.1283 50.2939 29.9629 50.8844 29.7337C51.6105 29.4536 52.3005 29.0878 52.94 28.6442C51.2757 27.2276 49.2943 26.2334 47.1638 25.7459C46.1918 25.5305 45.1994 25.4203 44.2038 25.417C43.7311 25.417 43.2583 25.417 42.7855 25.417C41.5809 25.5605 40.3997 25.8576 39.2705 26.3009L40.4627 27.3492L42.3127 28.8086Z" fill="white"/>
<path d="M67.3287 40.8336C66.9127 39.2318 66.0727 37.7718 64.8971 36.607C63.7215 35.4423 62.2537 34.6159 60.6482 34.2147C58.7383 35.6285 56.5184 36.5657 54.1732 36.9485C53.3723 37.0883 52.5606 37.1571 51.7476 37.1541C49.4754 37.1445 47.235 36.6198 45.1948 35.6193C43.1547 34.6188 41.368 33.1687 39.9693 31.378L38.7154 29.4458L38.0987 28.2741L37.7287 27.1436C34.8946 28.669 32.7053 31.1649 31.5621 34.1736C30.9355 33.8185 30.2267 33.6341 29.5065 33.6391C29.1873 33.6383 28.8693 33.6798 28.561 33.7624C27.7835 33.9557 27.0795 34.3718 26.5354 34.9598C25.9912 35.5477 25.6307 36.2819 25.4982 37.0719C24.0666 37.0743 22.6648 37.4807 21.4539 38.2443C20.243 39.0079 19.2722 40.0977 18.6532 41.3885C18.1487 42.4186 17.8884 43.5511 17.8926 44.698C17.8926 46.717 18.6933 48.6537 20.119 50.0832C21.5447 51.5128 23.4792 52.3187 25.4982 52.3241H58.3871C60.824 52.3241 63.1611 51.3561 64.8842 49.6329C66.6073 47.9098 67.5754 45.5727 67.5754 43.1358C67.5982 42.3607 67.5152 41.5862 67.3287 40.8336Z" fill="white"/>
<path d="M41.5521 12.0761L45.5398 11.4594L41.5521 10.8222L43.1348 8.64328L40.956 10.2261L40.3393 6.23828L39.7021 10.2261L37.5232 8.64328L39.1059 10.8222L35.1182 11.4594L39.1059 12.0761L37.5232 14.2344L39.7021 12.6516L40.3393 16.66L40.956 12.6516L43.1348 14.2344L41.5521 12.0761Z" fill="white"/>
<path d="M20.524 3.42245L21.6134 1.90132L20.1129 3.01134L19.6812 0.236328L19.2495 3.01134L17.749 1.90132L18.8384 3.42245L16.084 3.85409L18.8384 4.28578L17.749 5.78632L19.2495 4.69688L19.6812 7.45132L20.1129 4.69688L21.6134 5.78632L20.524 4.28578L23.299 3.85409L20.524 3.42245Z" fill="white"/>
<path d="M69.6106 8.70494L67.7195 8.41717L68.4595 7.36884L67.4317 8.12939L67.1234 6.23828L66.8356 8.12939L65.8078 7.36884L66.5478 8.41717L64.6567 8.70494L66.5478 9.01329L65.8078 10.0411L66.8356 9.28049L67.1234 11.1922L67.4317 9.28049L68.4595 10.0411L67.7195 9.01329L69.6106 8.70494Z" fill="white"/>
</svg>
