<svg width="70" height="58" viewBox="0 0 70 58" fill="none" xmlns="http://www.w3.org/2000/svg">
<path d="M15.118 31.8462C15.2526 31.2456 15.3216 30.6322 15.3236 30.0167C15.3236 28.4956 15.3236 26.8101 15.3236 26.8101C13.961 27.8545 12.7321 29.0627 11.6647 30.4073C11.4594 30.7464 11.3265 31.1243 11.2741 31.5173C11.1912 31.9461 11.2662 32.3905 11.4854 32.7683C11.7045 33.1461 12.0529 33.4319 12.4663 33.5729C12.7549 33.6625 13.0596 33.6874 13.3589 33.6458C13.6582 33.6042 13.9446 33.4972 14.1978 33.3323C14.4509 33.1675 14.6647 32.9488 14.8237 32.692C14.9828 32.4351 15.0833 32.1463 15.118 31.8462ZM12.3841 30.2223C12.4646 30.0565 12.604 29.9268 12.775 29.8583C12.9461 29.7899 13.1365 29.7878 13.3091 29.8523C13.5558 30.0373 13.5558 30.469 13.3091 30.8595C13.0624 31.2501 12.6308 31.394 12.3841 31.2295C12.1375 31.0651 12.1169 30.654 12.3841 30.2223Z" fill="black"/>
<path d="M0.831795 33.0795C0.627495 33.421 0.488121 33.7973 0.42069 34.1895C0.350502 34.6172 0.431012 35.056 0.648465 35.4309C0.865918 35.8058 1.20682 36.0936 1.61292 36.245C1.90296 36.3528 2.21357 36.3936 2.5216 36.3646C2.82963 36.3355 3.12714 36.2373 3.39192 36.0772C3.65671 35.9172 3.88194 35.6994 4.05083 35.4402C4.21973 35.1809 4.32792 34.8869 4.36735 34.58C4.49392 33.9855 4.55595 33.379 4.55236 32.7712C4.55236 31.2501 4.55236 29.5439 4.55236 29.5439C3.1722 30.5658 1.92266 31.7532 0.831795 33.0795ZM1.61292 32.9562C1.88014 32.5656 2.29124 32.4012 2.53791 32.5862C2.78458 32.7712 2.78458 33.2028 2.53791 33.5728C2.29124 33.9428 1.88014 34.1278 1.61292 33.9428C1.34569 33.7578 1.36625 33.3262 1.61292 32.9562Z" fill="black"/>
<path d="M13.4117 42.5556C13.2129 42.8977 13.0804 43.2743 13.0212 43.6656C12.9383 44.0944 13.0133 44.5387 13.2324 44.9166C13.4516 45.2944 13.8 45.5802 14.2134 45.7211C14.5023 45.8251 14.8108 45.863 15.1163 45.8321C15.4217 45.8012 15.7164 45.7023 15.9786 45.5426C16.2409 45.3829 16.464 45.1665 16.6316 44.9093C16.7992 44.652 16.9071 44.3605 16.9473 44.0561C17.0832 43.4558 17.1522 42.8422 17.1529 42.2267C17.1529 40.7261 17.1529 39.02 17.1529 39.02C15.7698 40.0457 14.5139 41.2326 13.4117 42.5556ZM14.2134 42.4322C14.4601 42.0417 14.8712 41.8772 15.1384 42.0417C15.2613 42.1807 15.329 42.3598 15.329 42.5453C15.329 42.7308 15.2613 42.9099 15.1384 43.0489C14.8712 43.4189 14.4601 43.5834 14.2134 43.4189C13.9667 43.2545 13.9667 42.8022 14.2956 42.4322H14.2134Z" fill="black"/>
<path d="M21.0173 51.8881C20.8099 52.228 20.6703 52.605 20.6062 52.9981C20.536 53.4258 20.6166 53.8646 20.834 54.2395C21.0515 54.6144 21.3924 54.9022 21.7985 55.0536C22.0885 55.1614 22.3991 55.2022 22.7071 55.1731C23.0152 55.1441 23.3127 55.0459 23.5775 54.8858C23.8423 54.7258 24.0675 54.508 24.2364 54.2488C24.4053 53.9895 24.5135 53.6955 24.5529 53.3886C24.6794 52.7871 24.7414 52.1739 24.7379 51.5592C24.7379 50.0586 24.7379 48.3525 24.7379 48.3525C23.3577 49.3744 22.1082 50.5618 21.0173 51.8881ZM21.7985 51.7647C22.0657 51.3742 22.4768 51.2098 22.7235 51.3948C22.9701 51.5798 22.9907 51.9909 22.7235 52.3814C22.643 52.5472 22.5036 52.6769 22.3326 52.7454C22.1615 52.8138 21.971 52.816 21.7985 52.7514C21.5518 52.587 21.5518 52.1347 21.7985 51.7647Z" fill="black"/>
<path d="M33.3918 47.4477C33.1788 47.7849 33.0387 48.163 32.9807 48.5577C32.9021 48.9861 32.9791 49.4286 33.1976 49.8054C33.4162 50.1822 33.762 50.4686 34.1729 50.6132C34.4629 50.7209 34.7736 50.7618 35.0816 50.7327C35.3896 50.7037 35.6871 50.6055 35.9519 50.4454C36.2167 50.2853 36.4419 50.0676 36.6108 49.8083C36.7797 49.5491 36.8879 49.2551 36.9273 48.9482C37.0447 48.3453 37.1066 47.733 37.1123 47.1188C37.1123 45.6182 37.1123 43.9121 37.1123 43.9121C35.7322 44.934 34.4826 46.1214 33.3918 47.4477ZM34.1729 47.3243C34.4196 46.9338 34.8512 46.7693 35.0979 46.9543C35.3446 47.1393 35.3446 47.571 35.0979 47.941C34.8512 48.311 34.4196 48.496 34.1729 48.311C33.9262 48.126 33.9262 47.6943 34.1729 47.3243Z" fill="black"/>
<path d="M42.1072 54.1899C41.8907 54.5254 41.7504 54.9043 41.6961 55.2998C41.6259 55.7275 41.7064 56.1663 41.9239 56.5412C42.1413 56.9162 42.4822 57.2039 42.8883 57.3554C43.1784 57.4631 43.489 57.504 43.797 57.4749C44.105 57.4459 44.4025 57.3476 44.6673 57.1876C44.9321 57.0275 45.1573 56.8098 45.3262 56.5505C45.4951 56.2913 45.6033 55.9973 45.6427 55.6904C45.7601 55.0875 45.822 54.4751 45.8277 53.861C45.8277 52.3604 45.8277 50.6543 45.8277 50.6543C44.4476 51.6762 43.1981 52.8636 42.1072 54.1899ZM42.8883 54.0665C43.1555 53.6965 43.5666 53.5115 43.8133 53.6965C44.06 53.8815 44.06 54.3132 43.8133 54.6832C43.5666 55.0532 43.1555 55.2382 42.8883 55.0532C42.6211 54.8682 42.6416 54.4365 42.8883 54.0665Z" fill="black"/>
<path d="M57.2772 44.3232C55.9265 45.3665 54.7051 46.5673 53.6388 47.8999C53.422 48.2428 53.2817 48.6284 53.2277 49.0305C53.1492 49.4589 53.2261 49.9014 53.4447 50.2782C53.6632 50.655 54.009 50.9414 54.4199 51.086C55.4066 51.4971 56.7016 51.086 57.1744 49.421C57.2908 48.8249 57.3527 48.2195 57.3594 47.6121C57.4622 46.0088 57.2772 44.3232 57.2772 44.3232ZM54.4199 47.7766C54.6666 47.4066 55.0983 47.2421 55.345 47.4066C55.5916 47.571 55.5916 48.0233 55.345 48.4138C55.0983 48.8044 54.6666 48.9482 54.4199 48.7838C54.1733 48.6193 54.1733 48.1671 54.4199 47.7766Z" fill="black"/>
<path d="M69.076 30.0163C68.5232 27.8042 67.1606 25.88 65.2575 24.624C63.3545 23.368 61.0495 22.8716 58.7982 23.233H58.4282C57.6363 21.1571 56.3438 19.309 54.6655 17.853C52.9872 16.397 50.9751 15.3783 48.8082 14.8875C47.8429 14.6733 46.8575 14.563 45.8687 14.5586C45.3754 14.5586 44.9026 14.5586 44.4299 14.5586C41.9527 14.8327 39.5994 15.7859 37.6298 17.313C35.6601 18.8401 34.1507 20.8817 33.2682 23.2125C32.6451 22.8488 31.9339 22.6639 31.2126 22.678C30.8934 22.6772 30.5754 22.7187 30.2671 22.8014C29.4896 22.9946 28.7856 23.4108 28.2415 23.9987C27.6973 24.5866 27.3368 25.3208 27.2043 26.1108C25.7692 26.1093 24.363 26.5139 23.1482 27.2777C21.9333 28.0416 20.9593 29.1335 20.3387 30.4275C19.8342 31.4575 19.574 32.59 19.5782 33.7369C19.5782 35.754 20.3795 37.6885 21.8058 39.1149C23.2321 40.5412 25.1666 41.3425 27.1837 41.3425H60.0726C61.2783 41.3452 62.4726 41.11 63.5873 40.6505C64.7019 40.191 65.715 39.5162 66.5685 38.6646C67.422 37.813 68.0991 36.8014 68.5611 35.6878C69.0232 34.5742 69.261 33.3804 69.261 32.1747C69.2825 31.4505 69.2205 30.7263 69.076 30.0163Z" fill="black"/>
<path d="M29.9793 21.2191C30.7795 21.0552 31.6047 21.0552 32.4049 21.2191C33.9705 18.168 36.5199 15.7345 39.6404 14.3124C41.122 13.6292 42.7049 13.1918 44.3271 13.0174H44.4916C43.8672 12.177 43.0552 11.494 42.1201 11.0229C41.1851 10.5518 40.153 10.3057 39.106 10.3041C38.9995 9.6022 38.6866 8.94788 38.2071 8.42442C37.7276 7.90096 37.1031 7.53206 36.4132 7.36465C36.1331 7.33457 35.8506 7.33457 35.5704 7.36465C34.9428 7.35975 34.3253 7.52299 33.7821 7.83742C32.6863 4.89533 30.4687 2.50773 27.6154 1.19798C26.4634 0.652751 25.2253 0.311925 23.9565 0.19075C23.5389 0.16949 23.1203 0.16949 22.7027 0.19075C20.3017 0.151038 17.9449 0.838533 15.9418 2.16291C13.9387 3.48728 12.3831 5.38658 11.4793 7.61131C10.9911 7.52067 10.4959 7.47251 9.99934 7.4674C8.19522 7.49134 6.44905 8.10805 5.03006 9.22245C3.61106 10.3368 2.59801 11.887 2.1471 13.6341C1.97316 14.3055 1.8834 14.996 1.87988 15.6896C1.87988 17.8703 2.74616 19.9617 4.28813 21.5036C5.83009 23.0456 7.92144 23.9118 10.1021 23.9118H26.5466C27.3063 22.61 28.534 21.6469 29.9793 21.2191Z" fill="black"/>
</svg>
