<svg width="72" height="41" viewBox="0 0 72 41" fill="none" xmlns="http://www.w3.org/2000/svg">
<path d="M60.518 15.9909C60.1035 14.8773 59.4218 13.8826 58.533 13.0941C57.6441 12.3056 56.5752 11.7474 55.4202 11.4686C54.2789 11.1906 53.0876 11.1906 51.9463 11.4686C50.4735 8.41499 48.2479 5.78634 45.4789 3.8301C42.71 1.87385 39.4888 0.654354 36.1185 0.286414C35.4358 0.211191 34.7498 0.170034 34.063 0.163086C30.2633 0.178064 26.5461 1.27175 23.3438 3.31687C20.1415 5.36198 17.5858 8.27441 15.9741 11.7153C12.6123 11.3899 9.24505 12.2784 6.48146 14.2201C3.71787 16.1618 1.74043 19.0284 0.906857 22.3014C0.603661 23.4624 0.45166 24.6576 0.454633 25.8575C0.460053 29.614 1.9533 33.2153 4.60757 35.8734C7.26184 38.5315 10.861 40.03 14.6174 40.0409H59.0996C62.1688 40.0136 65.1123 38.8177 67.3308 36.6967C69.5493 34.5756 70.8761 31.6889 71.0411 28.624C71.2062 25.5591 70.197 22.5466 68.2191 20.1996C66.2411 17.8526 63.4432 16.3475 60.3946 15.9909H60.518ZM59.223 36.5464H14.6996C13.2092 36.5504 11.7344 36.242 10.3704 35.6411C9.00642 35.0402 7.78346 34.1602 6.78038 33.0578C5.77731 31.9554 5.01638 30.655 4.54663 29.2405C4.07687 27.826 3.90872 26.3287 4.05303 24.8452C4.19734 23.3617 4.65089 21.925 5.38446 20.6275C6.11802 19.3301 7.11532 18.2007 8.31206 17.3122C9.5088 16.4238 10.8784 15.796 12.3327 15.4693C13.7869 15.1425 15.2934 15.1242 16.7552 15.4153L18.1941 15.6825L18.708 14.3053C19.8932 11.1968 21.9933 8.52077 24.7311 6.63073C27.4689 4.7407 30.7156 3.72548 34.0424 3.71919C34.5769 3.71919 35.1319 3.71919 35.7896 3.71919C37.5397 3.90832 39.2475 4.3804 40.8463 5.11698C44.8032 6.9195 47.8851 10.2158 49.418 14.2847L50.1374 16.217L51.9257 15.1892C52.4514 14.8933 53.0409 14.729 53.6438 14.7102C54.2467 14.6914 54.8453 14.8186 55.3884 15.0811C55.9316 15.3436 56.4032 15.7335 56.763 16.2176C57.1229 16.7017 57.3604 17.2657 57.4552 17.8614L57.7019 19.362H59.3257C61.5936 19.362 63.7687 20.2629 65.3723 21.8665C66.9759 23.4702 67.8769 25.6452 67.8769 27.9131C67.8769 30.181 66.9759 32.356 65.3723 33.9596C63.7687 35.5633 61.5936 36.4642 59.3257 36.4642L59.223 36.5464Z" fill="black"/>
</svg>
