<svg width="192" height="125" viewBox="0 0 192 125" fill="none" xmlns="http://www.w3.org/2000/svg">
<path d="M92.8872 124.891C76.4445 124.891 61.9607 114.665 56.2819 99.5469C50.9523 102.155 45.1076 103.52 39.1551 103.52C17.5662 103.52 0 85.9509 0 64.365C0 42.7732 17.5633 25.2098 39.1551 25.2098C42.9391 25.2098 46.6648 25.7512 50.2741 26.8253C55.5192 10.857 70.2912 0 87.4237 0C95.7309 0 103.834 2.66333 110.517 7.54462C118.845 2.60511 128.293 0 138.001 0C167.774 0 191.997 24.2231 191.997 53.9998C191.997 83.7766 167.777 108 138.003 108C134.03 108 130.008 107.537 126.014 106.611C118.863 117.954 106.405 124.891 92.8872 124.891ZM58.2844 91.0942C58.7123 91.0942 59.1402 91.1728 59.5477 91.3387C60.5664 91.7433 61.3291 92.6136 61.5998 93.676C65.2323 108.029 78.0978 118.053 92.8872 118.053C104.789 118.053 115.693 111.536 121.351 101.043C122.111 99.6343 123.741 98.9386 125.286 99.3723C129.522 100.56 133.8 101.159 138.003 101.159C164.008 101.159 185.163 80.0043 185.163 53.9998C185.163 27.9954 164.008 6.84022 138.003 6.84022C128.811 6.84022 119.878 9.51226 112.177 14.5711C110.916 15.3948 109.266 15.3017 108.11 14.3383C102.315 9.50354 94.9683 6.84022 87.4267 6.84022C72.2297 6.84022 59.2799 17.1937 55.9326 32.0151C55.7113 32.996 55.071 33.8314 54.1803 34.2942C53.2896 34.757 52.2388 34.8094 51.3074 34.431C47.4187 32.8476 43.332 32.0471 39.158 32.0471C21.3385 32.0471 6.84312 46.5426 6.84312 64.3679C6.84312 82.1844 21.3385 96.6857 39.158 96.6857C45.2735 96.6857 51.2521 94.9334 56.4507 91.6327C57.0066 91.2746 57.6441 91.0942 58.2844 91.0942Z" fill="black"/>
</svg>
