<svg width="19" height="26" viewBox="0 0 19 26" fill="none" xmlns="http://www.w3.org/2000/svg">
<path d="M9.5 0.000136918C6.99556 -0.0133788 4.58822 0.974233 2.80691 2.74597C1.0256 4.51772 0.0160183 6.92866 0 9.44909C0 17.2318 9.5 26 9.5 26C9.5 26 19 17.181 19 9.44909C18.984 6.92866 17.9744 4.51772 16.1931 2.74597C14.4118 0.974233 12.0044 -0.0133788 9.5 0.000136918ZM9.5 14.9864C8.4038 14.9864 7.33221 14.6592 6.42075 14.0463C5.50929 13.4334 4.79889 12.5623 4.37939 11.543C3.95989 10.5238 3.85012 9.40226 4.06398 8.32025C4.27784 7.23824 4.80572 6.24435 5.58085 5.46426C6.35599 4.68418 7.34357 4.15293 8.41871 3.9377C9.49385 3.72248 10.6083 3.83294 11.621 4.25512C12.6338 4.6773 13.4994 5.39223 14.1084 6.30952C14.7174 7.22681 15.0425 8.30524 15.0425 9.40845C15.0372 10.8843 14.4509 12.2978 13.412 13.3395C12.3732 14.3812 10.9665 14.9661 9.5 14.9661V14.9864Z" fill="black"/>
</svg>
