<svg width="16" height="16" viewBox="0 0 16 16" fill="none" xmlns="http://www.w3.org/2000/svg">
<path d="M8 0C3.58864 0 0 3.58848 0 8C0 12.4115 3.58864 16 8 16C12.4114 16 16 12.4115 16 8C16 3.58848 12.4114 0 8 0ZM8.00029 15.0587C6.91362 15.0587 6.0437 14.1779 6.0437 13.0909C6.0437 12.311 6.58471 11.6395 7.16737 11.3207V1.79672C7.16737 1.32416 7.56883 0.941039 8.04166 0.941039C8.51391 0.941039 8.91537 1.32386 8.91537 1.79672V11.3207C9.49803 11.6395 9.99767 12.311 9.99767 13.0909C9.99796 14.1779 9.08696 15.0587 8.00029 15.0587Z" fill="black"/>
</svg>
