<svg width="63" height="62" viewBox="0 0 63 62" fill="none" xmlns="http://www.w3.org/2000/svg">
<path d="M31.8692 46.3011C23.3519 46.3011 16.4219 39.3724 16.4219 30.8525C16.4219 22.3352 23.3532 15.4052 31.8692 15.4052C40.3891 15.4052 47.3178 22.3352 47.3178 30.8525C47.3178 39.3724 40.3877 46.3011 31.8692 46.3011ZM31.8692 18.4954C25.0548 18.4954 19.5121 24.0408 19.5121 30.8538C19.5121 37.6708 25.0562 43.2122 31.8692 43.2122C38.6822 43.2122 44.2275 37.6708 44.2275 30.8538C44.2275 24.0408 38.6835 18.4954 31.8692 18.4954Z" fill="black"/>
<path d="M31.87 9.52849C31.0179 9.52849 30.3262 8.83679 30.3262 7.98336V1.54512C30.3262 0.691689 31.0165 0 31.87 0C32.7234 0 33.4164 0.691689 33.4164 1.54512V7.98336C33.4164 8.83679 32.7221 9.52849 31.87 9.52849Z" fill="black"/>
<path d="M47.2447 17.3803C46.8489 17.3803 46.453 17.229 46.1519 16.9279C45.5483 16.3256 45.5483 15.3473 46.1519 14.7437L51.6867 9.20885C52.2903 8.60527 53.2674 8.60527 53.871 9.20885C54.4745 9.81112 54.4745 10.7895 53.871 11.3931L48.3361 16.9279C48.035 17.229 47.6405 17.3803 47.2447 17.3803Z" fill="black"/>
<path d="M14.0305 17.3803C13.6347 17.3803 13.2388 17.229 12.939 16.9279L7.40287 11.3931C6.8006 10.7895 6.8006 9.81244 7.40287 9.20885C8.00646 8.60527 8.9835 8.60527 9.58709 9.20885L15.1232 14.7437C15.7255 15.3473 15.7255 16.3243 15.1232 16.9279C14.8221 17.229 14.4263 17.3803 14.0305 17.3803Z" fill="black"/>
<path d="M30.6389 61.4709C29.7868 61.4709 29.0938 60.7792 29.0938 59.9258V53.4889C29.0938 52.6354 29.7854 51.9438 30.6389 51.9438C31.4923 51.9438 32.184 52.6354 32.184 53.4889V59.9258C32.184 60.7806 31.4923 61.4709 30.6389 61.4709Z" fill="black"/>
<path d="M9.72773 52.7171C9.33323 52.7171 8.93873 52.5671 8.63628 52.2647C8.0327 51.6624 8.0327 50.6841 8.63628 50.0805L14.1711 44.5456C14.7747 43.9421 15.7531 43.9421 16.3566 44.5456C16.9602 45.1479 16.9602 46.1263 16.3566 46.7299L10.8218 52.2647C10.5194 52.5671 10.1235 52.7171 9.72773 52.7171Z" fill="black"/>
<path d="M54.0106 52.7171C53.6161 52.7171 53.2203 52.5671 52.9192 52.2647L47.3843 46.7299C46.7807 46.1263 46.7807 45.1492 47.3843 44.5456C47.9879 43.9421 48.9636 43.9421 49.5672 44.5456L55.1047 50.0805C55.707 50.6841 55.707 51.6624 55.1047 52.2647C54.8009 52.5671 54.4064 52.7171 54.0106 52.7171Z" fill="black"/>
<path d="M8.49621 32.3989H1.54381C0.691689 32.3989 0 31.7086 0 30.8538C0 30.0017 0.690374 29.3087 1.54381 29.3087H8.49621C9.34833 29.3087 10.04 30.0017 10.04 30.8538C10.04 31.7072 9.34965 32.3989 8.49621 32.3989Z" fill="black"/>
<path d="M61.0206 32.3989H52.7808C51.9287 32.3989 51.2344 31.7086 51.2344 30.8538C51.2344 30.0017 51.9274 29.3087 52.7808 29.3087H61.0206C61.8727 29.3087 62.5644 30.0017 62.5644 30.8538C62.5644 31.7072 61.8727 32.3989 61.0206 32.3989Z" fill="black"/>
</svg>
