<svg width="73" height="53" viewBox="0 0 73 53" fill="none" xmlns="http://www.w3.org/2000/svg">
<path d="M56.1733 7.69359C56.5903 7.81627 57.0388 7.77098 57.4229 7.56741C57.807 7.36384 58.0963 7.01814 58.2289 6.60415L59.4622 2.71913C59.5507 2.44003 59.563 2.14236 59.498 1.85689C59.4329 1.57141 59.2928 1.30847 59.0922 1.09524C58.9062 0.867921 58.6552 0.702951 58.3727 0.622473C58.1662 0.558958 57.9492 0.536756 57.7342 0.557139C57.5191 0.577522 57.3101 0.640079 57.1192 0.741253C56.9283 0.842428 56.7592 0.980242 56.6216 1.14679C56.484 1.31334 56.3806 1.50537 56.3172 1.71192L55.0839 5.59691C55.0743 5.72692 55.0743 5.85747 55.0839 5.98747C55.0628 6.35033 55.1567 6.71058 55.3523 7.01691C55.5479 7.32325 55.8352 7.56006 56.1733 7.69359Z" fill="black"/>
<path d="M65.156 12.8942L68.4244 10.4686C68.7824 10.2056 69.0222 9.81194 69.0914 9.37312C69.1607 8.9343 69.054 8.48584 68.7944 8.12532L68.6711 8.00199C68.3972 7.69205 68.0167 7.49666 67.6053 7.45476C67.1938 7.41285 66.7817 7.52751 66.4511 7.77587L63.1622 10.222C62.8051 10.4946 62.5709 10.8978 62.5112 11.3431C62.4514 11.7883 62.571 12.2391 62.8435 12.5962C63.1161 12.9532 63.5194 13.1874 63.9646 13.2472C64.4099 13.3069 64.8606 13.1873 65.2177 12.9148L65.156 12.8942Z" fill="black"/>
<path d="M72.3097 19.1844C72.1536 19.0117 71.9634 18.8733 71.7511 18.7778C71.5389 18.6823 71.3091 18.6317 71.0764 18.6294H66.9653C66.5445 18.6338 66.141 18.7974 65.8359 19.0872C65.5308 19.377 65.3468 19.7716 65.3208 20.1916V20.315C65.3262 20.7584 65.5062 21.1819 65.8217 21.4935C66.1372 21.8052 66.5629 21.98 67.0064 21.98H71.1175C71.5609 21.9746 71.9844 21.7946 72.2961 21.4791C72.6077 21.1635 72.7825 20.7379 72.7825 20.2944C72.7712 19.8779 72.6022 19.4811 72.3097 19.1844Z" fill="black"/>
<path d="M35.6383 10.5102L38.9067 12.8741C39.2444 13.0953 39.6503 13.188 40.0506 13.1352C40.4509 13.0824 40.8189 12.8877 41.0878 12.5865C41.3566 12.2853 41.5084 11.8976 41.5156 11.4939C41.5227 11.0903 41.3847 10.6974 41.1267 10.3869C41.0764 10.3277 41.0214 10.2727 40.9622 10.2225L37.6528 7.838C37.2897 7.58054 36.8396 7.47712 36.4006 7.55029C35.9616 7.62345 35.5694 7.86728 35.3094 8.22856C35.1261 8.48716 35.0257 8.79546 35.0217 9.11247C35.0054 9.37776 35.0529 9.64307 35.1602 9.88625C35.2675 10.1294 35.4314 10.3434 35.6383 10.5102Z" fill="black"/>
<path d="M45.5051 5.5973L45.834 6.60453C45.8849 6.83457 45.9834 7.0514 46.1232 7.24103C46.263 7.43065 46.441 7.58886 46.6457 7.70545C46.8504 7.82204 47.0773 7.89442 47.3117 7.91792C47.5461 7.94142 47.7829 7.91553 48.0067 7.84189C48.2305 7.76826 48.4363 7.64851 48.611 7.49041C48.7857 7.33231 48.9253 7.13936 49.0207 6.92399C49.1162 6.70861 49.1655 6.47563 49.1654 6.24004C49.1653 6.00444 49.1158 5.77148 49.0201 5.55619L47.7251 1.69174C47.7036 1.61756 47.6688 1.54791 47.6224 1.48619C47.4471 1.11358 47.14 0.819124 46.7604 0.65968C46.3808 0.500236 45.9555 0.487123 45.5668 0.622857C45.1597 0.763934 44.822 1.05557 44.6232 1.43787C44.4244 1.82016 44.3796 2.26409 44.4979 2.67841L45.5051 5.5973Z" fill="black"/>
<path d="M68.4245 30.1404L65.115 27.7765C64.752 27.519 64.3019 27.4156 63.8629 27.4888C63.4239 27.5619 63.0316 27.8058 62.7717 28.167C62.5914 28.4286 62.4849 28.734 62.4634 29.0509C62.4518 29.3328 62.5094 29.6132 62.6313 29.8676C62.7531 30.122 62.9354 30.3427 63.1623 30.5104L66.4717 32.8743C66.8094 33.0955 67.2154 33.1881 67.6156 33.1354C68.0159 33.0826 68.384 32.8879 68.6528 32.5867C68.9217 32.2855 69.0735 31.8978 69.0806 31.4941C69.0877 31.0904 68.9497 30.6976 68.6917 30.387C68.6128 30.2944 68.5231 30.2116 68.4245 30.1404Z" fill="black"/>
<path d="M54.3851 30.7778C53.8244 29.292 52.7465 28.0583 51.3495 27.3031C49.9524 26.548 48.3298 26.322 46.7796 26.6667C45.4426 23.9735 43.451 21.6588 40.9874 19.935C38.5237 18.2112 35.6668 17.1332 32.6785 16.8C31.959 16.8 31.3629 16.6973 30.7668 16.6973C27.3846 16.7154 24.0765 17.6901 21.2248 19.5088C18.3731 21.3275 16.0941 23.9159 14.6512 26.975C12.9356 26.8377 11.2098 27.0494 9.57816 27.5972C7.9465 28.1451 6.44271 29.0177 5.15751 30.1626C3.8723 31.3074 2.83231 32.7008 2.10027 34.2585C1.36823 35.8162 0.959313 37.5061 0.898179 39.2262C0.837045 40.9463 1.12495 42.6609 1.74456 44.2667C2.36416 45.8725 3.30262 47.3362 4.50331 48.5694C5.70399 49.8026 7.14203 50.7798 8.73069 51.4421C10.3193 52.1044 12.0257 52.438 13.7468 52.4228H53.1107C55.8739 52.4079 58.5277 51.3415 60.533 49.4404C62.5383 47.5393 63.7446 44.9461 63.9069 42.1876C64.0691 39.4292 63.1752 36.7124 61.4066 34.5893C59.638 32.4663 57.1275 31.0961 54.3851 30.7573V30.7778ZM53.0901 48.9284H13.7468C11.3007 48.923 8.95628 47.9488 7.2266 46.2192C5.49692 44.4895 4.52279 42.1451 4.51736 39.6989C4.52059 38.916 4.61721 38.1362 4.80515 37.3762C5.32684 35.4026 6.48673 33.657 8.10409 32.4114C9.72145 31.1659 11.7054 30.4903 13.7468 30.4901C14.3118 30.4878 14.8759 30.5359 15.4324 30.6339L16.8713 30.9012L17.3851 29.5239C18.4332 26.8443 20.2607 24.5404 22.6314 22.9098C25.0022 21.2793 27.8073 20.3969 30.6846 20.3767C31.1574 20.3767 31.6301 20.3767 32.2263 20.3767C33.7499 20.5456 35.2358 20.9622 36.6251 21.61C40.0756 23.1851 42.7647 26.0588 44.1074 29.6062L44.8268 31.5384L46.6151 30.5106C46.9533 30.3132 47.327 30.1844 47.715 30.1315C48.103 30.0786 48.4976 30.1026 48.8762 30.2023C49.4954 30.3397 50.056 30.6673 50.4799 31.139C50.9037 31.6108 51.1695 32.2032 51.2401 32.8334L51.4663 34.3134H53.0901C55.0418 34.3134 56.9136 35.0887 58.2937 36.4688C59.6737 37.8488 60.449 39.7206 60.449 41.6723C60.449 43.624 59.6737 45.4957 58.2937 46.8758C56.9136 48.2558 55.0418 49.0312 53.0901 49.0312V48.9284Z" fill="black"/>
<path d="M47.7456 24.9194C49.3274 24.8287 50.9025 25.188 52.2885 25.9556C53.6745 26.7232 54.8148 27.8677 55.5772 29.2566L56.6872 29.5238C58.2457 28.7271 59.575 27.5455 60.5489 26.0911C61.5228 24.6367 62.1091 22.9577 62.2523 21.2132C62.3954 19.4687 62.0907 17.7165 61.367 16.1228C60.6432 14.5291 59.5244 13.1466 58.1167 12.1064C56.7089 11.0662 55.0588 10.4028 53.3228 10.1791C51.5868 9.9553 49.8224 10.1786 48.1969 10.8278C46.5714 11.477 45.1386 12.5306 44.0344 13.8888C42.9302 15.2469 42.1911 16.8645 41.8872 18.5883C44.2852 20.2382 46.2863 22.4008 47.7456 24.9194ZM45.8339 14.6416C47.0261 13.2849 48.65 12.7711 49.4722 13.5111C50.2944 14.2511 49.9656 15.8955 48.7733 17.2521C47.5811 18.6088 45.9572 19.1022 45.135 18.3827C44.3128 17.6633 44.6417 15.9572 45.8339 14.6005V14.6416Z" fill="black"/>
</svg>
