<svg width="59" height="57" viewBox="0 0 59 57" fill="none" xmlns="http://www.w3.org/2000/svg">
<path d="M39.0396 17.1825C36.4535 15.0493 33.2037 13.886 29.8513 13.8936C26.0351 13.8936 22.3753 15.4096 19.6768 18.108C16.9784 20.8064 15.4624 24.4663 15.4624 28.2825C15.4946 32.0887 17.0209 35.7299 19.7124 38.4214C22.4039 41.1128 26.0451 42.6392 29.8513 42.6714C32.8552 42.7167 35.798 41.8206 38.2669 40.1088C40.7358 38.3971 42.607 35.9554 43.618 33.1264C44.629 30.2973 44.7291 27.2228 43.9044 24.3339C43.0796 21.4451 41.3713 18.8869 39.0191 17.018L39.0396 17.1825ZM21.1768 20.3275C22.8418 18.4364 25.1235 17.7169 26.2746 18.7241C27.4257 19.7314 26.9941 22.0953 25.3085 23.9864C23.623 25.8775 21.3618 26.5969 20.2107 25.5897C19.0596 24.5825 19.5735 22.2186 21.1768 20.3275Z" fill="white"/>
<path d="M14.5992 39.1157C14.2064 38.6908 13.6714 38.4247 13.0956 38.3679C12.5197 38.3111 11.943 38.4674 11.4748 38.8073L6.89087 42.199C6.61174 42.4001 6.38169 42.6617 6.21795 42.9643C6.0542 43.2669 5.96101 43.6025 5.94532 43.9462C5.90509 44.3949 5.99618 44.8455 6.2075 45.2434C6.41883 45.6412 6.74126 45.9689 7.13554 46.1868C7.52982 46.4046 7.97894 46.5031 8.4282 46.4703C8.87745 46.4374 9.30747 46.2746 9.66587 46.0018L14.2703 42.6101C14.5196 42.4272 14.7302 42.1969 14.89 41.9323C15.0498 41.6677 15.1557 41.374 15.2015 41.0683C15.2474 40.7626 15.2323 40.4509 15.1572 40.151C15.082 39.8512 14.9483 39.5692 14.7637 39.3212L14.5992 39.1157Z" fill="white"/>
<path d="M11.2279 28.3238C11.2205 27.7451 11.0011 27.1892 10.6112 26.7615C10.3871 26.5224 10.1166 26.3316 9.81614 26.2008C9.51569 26.07 9.19167 26.002 8.86399 26.001H3.14954C2.55575 26.0051 1.98565 26.2344 1.55448 26.6427C1.1233 27.051 0.863204 27.6077 0.826757 28.2004C0.826757 28.2004 0.826757 28.3238 0.826757 28.3649C0.821155 28.9848 1.05934 29.5822 1.48998 30.0282C1.92061 30.4742 2.50922 30.7332 3.12898 30.7493H8.84343C9.16005 30.7494 9.47351 30.6864 9.76552 30.564C10.0575 30.4416 10.3222 30.2622 10.5442 30.0365C10.7662 29.8107 10.9409 29.5429 11.0583 29.2489C11.1757 28.9548 11.2333 28.6403 11.2279 28.3238Z" fill="white"/>
<path d="M35.6891 10.6666C35.9833 10.7589 36.2928 10.7922 36.5999 10.7647C36.907 10.7371 37.2057 10.6492 37.4788 10.5059C37.7519 10.3627 37.994 10.167 38.1913 9.93004C38.3886 9.69306 38.5371 9.41948 38.6285 9.12497L40.3552 3.67774C40.4811 3.2862 40.4999 2.86806 40.4095 2.4668C40.3192 2.06554 40.1229 1.69582 39.8413 1.39608C39.5711 1.0899 39.223 0.862584 38.8341 0.738299C38.5399 0.642461 38.2296 0.605831 37.9212 0.63052C37.6128 0.655209 37.3123 0.740731 37.0371 0.882148C36.7619 1.02356 36.5175 1.21808 36.3179 1.45447C36.1182 1.69086 35.9674 1.96443 35.8741 2.25941L34.1474 7.70664C34.126 7.89789 34.126 8.09094 34.1474 8.28219C34.1114 8.79299 34.2423 9.30165 34.5203 9.73167C34.7984 10.1617 35.2085 10.4898 35.6891 10.6666Z" fill="white"/>
<path d="M48.3511 17.9432L52.935 14.531C53.1842 14.3482 53.3948 14.1178 53.5546 13.8532C53.7144 13.5886 53.8203 13.295 53.8662 12.9893C53.912 12.6836 53.897 12.3718 53.8218 12.0719C53.7466 11.7721 53.6129 11.4901 53.4283 11.2421C53.3788 11.1823 53.3237 11.1272 53.2638 11.0777C52.8797 10.6472 52.3491 10.375 51.7754 10.3142C51.2016 10.2534 50.6258 10.4083 50.1599 10.7488L45.5555 14.1405C45.2816 14.3466 45.0553 14.6094 44.8921 14.9109C44.7289 15.2124 44.6327 15.5456 44.61 15.8877C44.5649 16.4398 44.726 16.989 45.0622 17.4294C45.4318 17.9314 45.9849 18.2671 46.6008 18.3634C47.2168 18.4596 47.8459 18.3086 48.3511 17.9432Z" fill="white"/>
<path d="M58.3205 26.7616C58.0988 26.5195 57.8287 26.3267 57.5277 26.1957C57.2267 26.0647 56.9016 25.9984 56.5733 26.0011H50.8589C50.2672 26.0055 49.6995 26.2355 49.2716 26.6443C48.8438 27.053 48.588 27.6096 48.5566 28.2005C48.5566 28.2005 48.5566 28.3238 48.5566 28.3649C48.5621 28.9883 48.8135 29.5843 49.2562 30.0232C49.699 30.4621 50.2971 30.7083 50.9205 30.7083H56.635C57.0918 30.7077 57.5386 30.5736 57.9202 30.3225C58.3019 30.0714 58.6018 29.7141 58.7831 29.2948C58.9644 28.8754 59.0191 28.4122 58.9406 27.9622C58.8621 27.5121 58.6537 27.0948 58.3411 26.7616H58.3205Z" fill="white"/>
<path d="M38.5875 47.6666C38.5479 47.5667 38.4997 47.4704 38.4436 47.3788C38.176 46.853 37.7201 46.4475 37.1667 46.2432C36.6133 46.0389 36.0032 46.0508 35.4582 46.2766C34.9132 46.5024 34.4734 46.9254 34.2266 47.4612C33.9798 47.997 33.9442 48.6062 34.1269 49.1671L35.4425 53.1549L35.9358 54.5732C36.0312 54.8664 36.1836 55.1378 36.3841 55.3719C36.5847 55.6061 36.8294 55.7984 37.1044 55.9378C37.3794 56.0772 37.6791 56.1609 37.9865 56.1843C38.2939 56.2076 38.6029 56.1701 38.8958 56.0738C39.4861 55.872 39.9738 55.4469 40.2543 54.8897C40.5349 54.3325 40.5858 53.6876 40.3963 53.0932L38.5875 47.6666Z" fill="white"/>
<path d="M24.0749 46.1044C23.4834 45.9171 22.8418 45.9721 22.2907 46.2573C21.7397 46.5424 21.3242 47.0345 21.1355 47.6255L19.4088 53.0727C19.3891 53.2641 19.3891 53.4569 19.4088 53.6483C19.3645 54.2254 19.5354 54.7986 19.8886 55.2572C20.2418 55.7158 20.7522 56.0275 21.3215 56.1322C21.8908 56.2369 22.4788 56.1271 22.972 55.8241C23.4652 55.5211 23.8288 55.0462 23.9927 54.4911L25.7193 49.0438C25.8349 48.6512 25.8484 48.2356 25.7584 47.8363C25.6685 47.4371 25.4782 47.0673 25.2055 46.7622C24.8987 46.44 24.5066 46.2119 24.0749 46.1044Z" fill="white"/>
<path d="M14.2701 14.0995L9.62454 10.7695C9.37286 10.588 9.08763 10.4583 8.78543 10.388C8.48323 10.3176 8.17005 10.3079 7.86409 10.3596C7.55813 10.4112 7.26547 10.5231 7.0031 10.6887C6.74072 10.8544 6.51384 11.0705 6.33564 11.3245C6.08782 11.6839 5.93895 12.1021 5.90398 12.5373C5.88368 12.935 5.96334 13.3315 6.13569 13.6906C6.30804 14.0497 6.5676 14.3598 6.89065 14.5928L11.5362 17.9228C12.0063 18.282 12.5948 18.45 13.1836 18.3933C13.7724 18.3366 14.318 18.0592 14.7109 17.617C15.1037 17.1747 15.3148 16.6002 15.3016 16.0088C15.2885 15.4173 15.0522 14.8528 14.6401 14.4284C14.5273 14.3074 14.4034 14.1973 14.2701 14.0995Z" fill="white"/>
<path d="M20.704 7.70673L21.1767 9.12506C21.2739 9.42469 21.4291 9.70225 21.6336 9.94189C21.838 10.1815 22.0877 10.3785 22.3683 10.5217C22.6489 10.6649 22.9549 10.7513 23.2689 10.7762C23.5829 10.8011 23.8988 10.7639 24.1984 10.6667C24.498 10.5695 24.7756 10.4143 25.0152 10.2099C25.2549 10.0054 25.4519 9.75577 25.595 9.47518C25.7382 9.19459 25.8247 8.88855 25.8496 8.57454C25.8745 8.26053 25.8372 7.94469 25.7401 7.64505L23.9312 2.21839C23.8989 2.11893 23.8576 2.02261 23.8078 1.93061C23.5587 1.37717 23.1046 0.941952 22.5411 0.716596C21.9775 0.491239 21.3486 0.493323 20.7865 0.722398C20.2245 0.951473 19.7732 1.38968 19.5278 1.94476C19.2824 2.49984 19.2619 3.1285 19.4706 3.69839L20.704 7.70673Z" fill="white"/>
<path d="M52.8735 42.1574L48.2279 38.8274C47.7235 38.4653 47.096 38.3182 46.4832 38.4184C45.8703 38.5186 45.3224 38.858 44.9596 39.3619C44.6996 39.7227 44.5497 40.1511 44.5279 40.5952C44.4995 40.9919 44.5734 41.3892 44.7426 41.7491C44.9117 42.1091 45.1705 42.4195 45.494 42.6508L50.1396 45.9602C50.6096 46.3194 51.1981 46.4874 51.787 46.4307C52.3758 46.374 52.9214 46.0966 53.3142 45.6544C53.7071 45.2121 53.9181 44.6376 53.905 44.0462C53.8919 43.4548 53.6555 42.8902 53.2435 42.4658C53.1398 42.3414 53.0144 42.237 52.8735 42.1574Z" fill="white"/>
</svg>
