<svg width="73" height="46" viewBox="0 0 73 46" fill="none" xmlns="http://www.w3.org/2000/svg">
<path d="M44.4979 14.2901C45.3975 12.8926 45.8756 11.2655 45.8751 9.60347C45.8751 9.3568 45.8751 9.11014 45.8751 8.86347C45.6922 6.70239 44.7045 4.68878 43.1076 3.22129C41.5106 1.75381 39.4209 0.939453 37.2521 0.939453C35.0833 0.939453 32.9935 1.75381 31.3966 3.22129C29.7996 4.68878 28.8119 6.70239 28.629 8.86347H32.6168C32.7826 7.75273 33.3418 6.73849 34.1926 6.00535C35.0433 5.27222 36.129 4.86894 37.2521 4.86894C38.3751 4.86894 39.4608 5.27222 40.3116 6.00535C41.1623 6.73849 41.7215 7.75273 41.8873 8.86347C41.8873 9.11014 41.8873 9.3568 41.8873 9.60347C41.8819 10.8483 41.3836 12.0404 40.5014 12.9187C39.6192 13.797 38.425 14.2901 37.1801 14.2901H8.40234V18.2779H37.1801C38.6366 18.281 40.0704 17.9173 41.3493 17.2204C42.6282 16.5235 43.711 15.5157 44.4979 14.2901Z" fill="white"/>
<path d="M45.5258 27.7745H16.748V31.7212H45.5258C46.7726 31.7266 47.9667 32.2243 48.8483 33.1059C49.73 33.9875 50.2276 35.1816 50.233 36.4284C50.233 36.6751 50.233 36.9012 50.233 37.1478C50.0672 38.2586 49.508 39.2728 48.6573 40.006C47.8065 40.7391 46.7208 41.1424 45.5978 41.1424C44.4747 41.1424 43.389 40.7391 42.5383 40.006C41.6875 39.2728 41.1283 38.2586 40.9625 37.1478H36.8514C37.0343 39.3089 38.022 41.3225 39.6189 42.79C41.2159 44.2575 43.3056 45.0719 45.4744 45.0719C47.6432 45.0719 49.733 44.2575 51.3299 42.79C52.9269 41.3225 53.9146 39.3089 54.0975 37.1478C54.0975 36.9012 54.0975 36.6751 54.0975 36.4284C54.1029 35.2904 53.8828 34.1627 53.4498 33.1103C53.0169 32.0579 52.3796 31.1017 51.575 30.297C50.7703 29.4924 49.8141 28.8551 48.7617 28.4222C47.7093 27.9892 46.5816 27.7691 45.4436 27.7745H45.5258Z" fill="white"/>
<path d="M60.6547 0.826172C59.0711 0.82617 57.5031 1.13842 56.0403 1.74505C54.5775 2.35168 53.2487 3.24078 52.1299 4.36149C51.0111 5.48221 50.1243 6.81253 49.5202 8.27634C48.916 9.74015 48.6064 11.3087 48.6092 12.8923C48.6102 13.8756 48.7275 14.8554 48.9586 15.8112H53.0697C52.6896 14.885 52.4941 13.8934 52.4942 12.8923C52.4942 11.2954 52.9674 9.73437 53.8542 8.40635C54.7409 7.07832 56.0014 6.04289 57.4763 5.43086C58.9512 4.81883 60.5745 4.65765 62.1409 4.96769C63.7074 5.27773 65.1469 6.04509 66.2775 7.17281C67.4081 8.30053 68.1791 9.73803 68.4931 11.3037C68.8071 12.8694 68.65 14.493 68.0418 15.9695C67.4335 17.446 66.4013 18.7091 65.0755 19.5992C63.7497 20.4893 62.1899 20.9665 60.593 20.9706H0.981934V24.9173H60.593C63.277 24.9232 65.8856 24.0294 68.002 22.3787C70.1184 20.7281 71.6206 18.4158 72.2686 15.8112C72.5167 14.8581 72.6411 13.8771 72.6386 12.8923C72.6387 9.70634 71.3787 6.64968 69.1336 4.38919C66.8885 2.1287 63.8406 0.847882 60.6547 0.826172Z" fill="white"/>
</svg>
