<svg width="16" height="16" viewBox="0 0 16 16" fill="none" xmlns="http://www.w3.org/2000/svg">
<path fill-rule="evenodd" clip-rule="evenodd" d="M8 16C12.4183 16 16 12.4183 16 8C16 3.58172 12.4183 0 8 0C3.58172 0 0 3.58172 0 8C0 12.4183 3.58172 16 8 16ZM9.01303 4.41547L12.7631 5.35297C12.9022 5.38766 12.9998 5.51266 13 5.65625V6.59375C13 6.73719 12.9023 6.86203 12.7633 6.89688L9.01319 7.83437L9.01037 7.83469C8.98741 7.84016 8.96397 7.84312 8.94038 7.84344L8.93725 7.84375C8.90381 7.84375 8.87038 7.83812 8.83803 7.82734C8.83072 7.82491 8.82408 7.82095 8.81745 7.81699C8.81302 7.81436 8.8086 7.81172 8.80397 7.80953C8.79952 7.8074 8.79503 7.80538 8.79054 7.80336C8.7766 7.79709 8.76268 7.79082 8.74991 7.78125L7.37493 6.75V12.375H10.8124C10.9849 12.375 11.1249 12.515 11.1249 12.6875C11.1249 12.86 10.9849 13 10.8124 13H3.3125C3.14 13 3 12.86 3 12.6875C3 12.515 3.14 12.375 3.3125 12.375H6.74994V4.49625C6.47448 4.37547 6.2812 4.10078 6.2812 3.78125C6.2812 3.35047 6.63166 3 7.06244 3C7.49321 3 7.84367 3.35047 7.84367 3.78125C7.84367 4.10078 7.6504 4.37531 7.37493 4.49625V5.5L8.74991 4.46875C8.76757 4.45547 8.78632 4.44453 8.80569 4.43547L8.80897 4.43422C8.8285 4.42531 8.84866 4.41891 8.86913 4.41438C8.87275 4.41347 8.8765 4.41302 8.8803 4.41256C8.8824 4.41231 8.88451 4.41205 8.88663 4.41172C8.90241 4.40922 8.91819 4.40734 8.93413 4.40703C8.94179 4.40703 8.9493 4.40763 8.95695 4.40825L8.95741 4.40828C8.97162 4.40922 8.98569 4.41094 8.99959 4.41375C9.00165 4.41419 9.00378 4.41436 9.00592 4.41452C9.00832 4.4147 9.01072 4.41489 9.01303 4.41547ZM7.58321 6.12484L8.62491 6.90609V5.34359L7.58321 6.12484ZM7.21868 3.78109C7.21868 3.69484 7.14853 3.62484 7.06244 3.62484C6.97634 3.62484 6.90619 3.69484 6.90619 3.78109C6.90619 3.86734 6.97634 3.93734 7.06244 3.93734C7.14853 3.93734 7.21868 3.86734 7.21868 3.78109ZM10.4999 5.43125L9.2499 5.11875V7.13078L10.4999 6.81828V5.43125ZM11.1249 6.66203L12.3749 6.34953V5.9L11.1249 5.5875V6.66203Z" fill="black"/>
</svg>
