<svg width="0" height="0" class="hidden">

    <symbol fill="none" xmlns="http://www.w3.org/2000/svg" viewBox="0 0 16 16" id="degree-b">
        <path d="M8 0C3.58864 0 0 3.58848 0 8C0 12.4115 3.58864 16 8 16C12.4114 16 16 12.4115 16 8C16 3.58848 12.4114 0 8 0ZM9.08725 8.77002L5.20845 10.7092L6.99111 7.00157L10.7921 5.29021L9.08725 8.77002Z" fill="#ffffff"></path>
    </symbol>
    <symbol fill="none" xmlns="http://www.w3.org/2000/svg" viewBox="0 0 16 16" id="wind-route-2">
        <path fill-rule="evenodd" clip-rule="evenodd" d="M8 16C12.4183 16 16 12.4183 16 8C16 3.58172 12.4183 0 8 0C3.58172 0 0 3.58172 0 8C0 12.4183 3.58172 16 8 16ZM9.01303 4.41547L12.7631 5.35297C12.9022 5.38766 12.9998 5.51266 13 5.65625V6.59375C13 6.73719 12.9023 6.86203 12.7633 6.89688L9.01319 7.83437L9.01037 7.83469C8.98741 7.84016 8.96397 7.84312 8.94038 7.84344L8.93725 7.84375C8.90381 7.84375 8.87038 7.83812 8.83803 7.82734C8.83072 7.82491 8.82408 7.82095 8.81744 7.81699C8.81302 7.81436 8.8086 7.81172 8.80397 7.80953C8.79952 7.8074 8.79503 7.80538 8.79054 7.80336C8.7766 7.79709 8.76267 7.79082 8.74991 7.78125L7.37493 6.75V12.375H10.8124C10.9849 12.375 11.1249 12.515 11.1249 12.6875C11.1249 12.86 10.9849 13 10.8124 13H3.3125C3.14 13 3 12.86 3 12.6875C3 12.515 3.14 12.375 3.3125 12.375H6.74994V4.49625C6.47448 4.37547 6.2812 4.10078 6.2812 3.78125C6.2812 3.35047 6.63166 3 7.06244 3C7.49321 3 7.84367 3.35047 7.84367 3.78125C7.84367 4.10078 7.6504 4.37531 7.37493 4.49625V5.5L8.74991 4.46875C8.76757 4.45547 8.78632 4.44453 8.80569 4.43547L8.80897 4.43422C8.8285 4.42531 8.84866 4.41891 8.86913 4.41438C8.87275 4.41347 8.8765 4.41302 8.8803 4.41256C8.8824 4.41231 8.88451 4.41205 8.88663 4.41172C8.90241 4.40922 8.91819 4.40734 8.93413 4.40703C8.94179 4.40703 8.9493 4.40763 8.95695 4.40825L8.95741 4.40828C8.97163 4.40922 8.98569 4.41094 8.99959 4.41375C9.00165 4.41419 9.00379 4.41436 9.00592 4.41452C9.00832 4.4147 9.01072 4.41489 9.01303 4.41547ZM7.58321 6.12484L8.62491 6.90609V5.34359L7.58321 6.12484ZM7.21868 3.78109C7.21868 3.69484 7.14853 3.62484 7.06244 3.62484C6.97634 3.62484 6.90619 3.69484 6.90619 3.78109C6.90619 3.86734 6.97634 3.93734 7.06244 3.93734C7.14853 3.93734 7.21868 3.86734 7.21868 3.78109ZM10.4999 5.43125L9.2499 5.11875V7.13078L10.4999 6.81828V5.43125ZM11.1249 6.66203L12.3749 6.34953V5.9L11.1249 5.5875V6.66203Z" fill="#ffffff"></path>
    </symbol>



    <symbol fill="none" xmlns="http://www.w3.org/2000/svg" viewBox="0 0 8 13" id="wet">
        <path d="M8 8.72906C8 11.0878 6.20814 13 3.99941 13C1.79067 13 0 11.0878 0 8.72906C0 6.37037 3.99941 0 3.99941 0C3.99941 0 8 6.37037 8 8.72906Z" fill="white"></path>
    </symbol>
    <symbol fill="none" xmlns="http://www.w3.org/2000/svg" viewBox="0 0 563 257" id="back">
        <g opacity="0.4">
            <mask id="mask0_180_4387" maskUnits="userSpaceOnUse" x="4" y="0" width="555" height="249">
                <path d="M64 0.5H499C531.861 0.5 558.5 27.1391 558.5 60V248.5H4.5V60C4.5 27.1391 31.1391 0.5 64 0.5Z" fill="#F5F5F5" stroke="black"></path>
            </mask>
            <g mask="url(#mask0_180_4387)">
                <path d="M-18 -38C-18 -71.1371 8.86292 -98 42 -98H502.273C535.41 -98 562.273 -71.1371 562.273 -38V332.398H-18V-38Z" fill="#F5F5F5"></path>
            </g>
        </g>
    </symbol>
    <symbol fill="none" xmlns="http://www.w3.org/2000/svg" viewBox="0 0 310 234" id="cloudy-night-2">
        <path d="M309.997 66.0359C310.065 63.9106 308.766 61.9843 306.763 61.2391C304.786 60.5025 302.529 61.0994 301.183 62.7421C293.584 72.0096 282.373 77.3228 270.404 77.3228C248.465 77.3228 230.616 59.4737 230.616 37.5391C230.616 26.4934 235.074 16.2183 243.161 8.59774C244.714 7.13712 245.163 4.85517 244.287 2.92038C243.402 0.985599 241.399 -0.187122 239.274 0.0245612C207.433 3.11514 183.17 28.6611 181.243 60.1934C172.687 55.1173 162.712 52.2299 152.103 52.2299C151.599 52.2299 151.095 52.2807 150.591 52.2934C146.489 52.4035 142.421 52.9242 138.479 53.9022C131.311 55.6761 124.512 58.8217 118.517 63.2035C106.405 56.0148 92.6622 52.2299 78.5387 52.2299C35.2326 52.2299 0 87.4625 0 130.773C0 174.083 35.2326 209.316 78.5387 209.316C84.3177 209.316 90.1644 208.638 95.9772 207.301C106.379 223.791 124.495 233.88 144.161 233.88C168.072 233.88 189.143 219.011 197.395 197.021C205.151 200.815 213.652 202.796 222.31 202.796C253.715 202.796 279.257 177.25 279.257 145.845C279.257 137.382 277.373 129.367 274.041 122.149C294.875 111.975 309.312 90.9468 309.997 66.0359ZM222.306 192.855C213.406 192.855 204.719 190.315 197.153 185.51C196.345 184.998 195.418 184.735 194.482 184.735C193.864 184.735 193.241 184.849 192.645 185.082C191.163 185.675 190.058 186.941 189.66 188.486C184.376 209.362 165.663 223.939 144.156 223.939C126.841 223.939 110.981 214.464 102.755 199.197C101.646 197.157 99.2837 196.141 97.0314 196.771C90.8714 198.495 84.6521 199.371 78.5345 199.371C40.7109 199.371 9.94488 168.601 9.94488 130.777C9.94488 92.9535 40.7152 62.1832 78.5345 62.1832C91.9044 62.1832 104.898 66.074 116.1 73.4278C117.937 74.626 120.333 74.4863 122.01 73.0849C125.956 69.8038 130.393 67.234 135.117 65.4051C138.589 64.0587 142.213 63.1358 145.926 62.6405C147.967 62.3695 150.028 62.1875 152.103 62.1875C163.242 62.1875 173.542 66.0189 181.654 72.5769C189.634 79.0247 195.498 88.1144 197.903 98.8087C198.233 100.231 199.16 101.442 200.46 102.115C201.76 102.797 203.288 102.869 204.634 102.314C205.113 102.119 205.608 101.984 206.091 101.802C211.315 99.8713 216.751 98.851 222.306 98.851C237.373 98.851 250.768 106.002 259.376 117.064C261.492 119.778 263.304 122.729 264.782 125.87C267.652 131.946 269.303 138.702 269.303 145.857C269.308 171.772 248.22 192.855 222.306 192.855ZM269.083 113.508C260.383 100.997 246.823 92.1068 231.12 89.6513C228.241 89.2067 225.316 88.8977 222.306 88.8977C221.785 88.8977 221.273 88.94 220.752 88.9569C215.781 89.0882 210.887 89.8418 206.133 91.2558C203.114 82.0603 197.898 74.0544 191.175 67.7039C191.108 66.5524 191.002 65.4008 191.002 64.2281C191.002 40.5492 205.896 20.3038 227.259 12.7891C222.958 20.2318 220.667 28.6822 220.667 37.5433C220.667 64.9732 242.979 87.2762 270.404 87.2762C280.425 87.2762 290.027 84.2914 298.131 78.8385C293.931 94.2744 283.198 106.815 269.083 113.508Z" fill="white"></path>
    </symbol>
    <symbol fill="none" xmlns="http://www.w3.org/2000/svg" viewBox="0 0 175 133" id="cloudy-night">
        <path d="M174.999 37.2783C175.037 36.0785 174.303 34.9911 173.173 34.5705C172.057 34.1546 170.783 34.4916 170.023 35.4189C165.733 40.6506 159.404 43.65 152.648 43.65C140.263 43.65 130.187 33.5739 130.187 21.1914C130.187 14.956 132.703 9.15551 137.268 4.85356C138.145 4.02902 138.399 2.74082 137.904 1.6486C137.404 0.556387 136.274 -0.105633 135.074 0.0138652C117.099 1.75855 103.402 16.1796 102.315 33.9802C97.4846 31.1146 91.8538 29.4846 85.8645 29.4846C85.5801 29.4846 85.2957 29.5133 85.0113 29.5205C82.6954 29.5826 80.3987 29.8766 78.1736 30.4287C74.1274 31.4301 70.2891 33.2058 66.9049 35.6794C60.0672 31.6212 52.3093 29.4846 44.3364 29.4846C19.8893 29.4846 0 49.374 0 73.8234C0 98.2728 19.8893 118.162 44.3364 118.162C47.5987 118.162 50.8992 117.78 54.1807 117.025C60.0528 126.333 70.2795 132.029 81.381 132.029C94.8795 132.029 106.774 123.635 111.432 111.222C115.811 113.363 120.61 114.482 125.497 114.482C143.226 114.482 157.645 100.061 157.645 82.3317C157.645 77.5541 156.581 73.0299 154.701 68.955C166.462 63.2119 174.611 51.3409 174.999 37.2783ZM125.495 108.87C120.471 108.87 115.567 107.436 111.296 104.723C110.84 104.434 110.316 104.286 109.788 104.286C109.439 104.286 109.088 104.351 108.751 104.482C107.914 104.817 107.291 105.531 107.066 106.403C104.083 118.188 93.5196 126.417 81.3786 126.417C71.6036 126.417 62.6507 121.068 58.007 112.45C57.3809 111.298 56.0472 110.725 54.7758 111.081C51.2984 112.053 47.7875 112.548 44.334 112.548C22.982 112.548 5.61405 95.1778 5.61405 73.8258C5.61405 52.4738 22.9844 35.1034 44.334 35.1034C51.8815 35.1034 59.2164 37.2998 65.5402 41.4512C66.5775 42.1276 67.9302 42.0487 68.8766 41.2576C71.1041 39.4054 73.6088 37.9547 76.276 36.9222C78.2358 36.1622 80.2816 35.6412 82.3776 35.3616C83.5295 35.2086 84.6935 35.1058 85.8645 35.1058C92.1526 35.1058 97.9674 37.2687 102.547 40.9708C107.052 44.6107 110.362 49.742 111.719 55.7791C111.906 56.5821 112.429 57.2657 113.163 57.6457C113.897 58.0304 114.759 58.0711 115.519 57.758C115.789 57.6481 116.069 57.5716 116.341 57.4688C119.291 56.379 122.359 55.803 125.495 55.803C134.001 55.803 141.563 59.8397 146.422 66.0847C147.617 67.6166 148.64 69.2824 149.474 71.0558C151.094 74.4854 152.026 78.2998 152.026 82.3389C152.029 96.9679 140.124 108.87 125.495 108.87ZM151.902 64.0771C146.99 57.0147 139.335 51.9958 130.471 50.6096C128.846 50.3586 127.194 50.1842 125.495 50.1842C125.201 50.1842 124.912 50.2081 124.618 50.2176C121.812 50.2917 119.049 50.7171 116.365 51.5154C114.661 46.3244 111.717 41.8049 107.922 38.22C107.883 37.5699 107.824 36.9198 107.824 36.2578C107.824 22.8907 116.232 11.4618 128.291 7.21963C125.863 11.4212 124.57 16.1916 124.57 21.1938C124.57 36.6784 137.165 49.2688 152.648 49.2688C158.305 49.2688 163.725 47.5839 168.299 44.5056C165.929 53.2194 159.87 60.2985 151.902 64.0771Z" fill="white"></path>
    </symbol>
    <symbol fill="none" xmlns="http://www.w3.org/2000/svg" viewBox="0 0 71 41" id="cloudy">
        <path d="M60.1103 15.9909C59.6957 14.8773 59.0141 13.8826 58.1253 13.0941C57.2364 12.3056 56.1675 11.7474 55.0125 11.4686C53.8712 11.1906 52.6799 11.1906 51.5386 11.4686C50.0658 8.41499 47.8402 5.78634 45.0712 3.8301C42.3023 1.87385 39.0811 0.654354 35.7108 0.286414C35.0281 0.211191 34.3421 0.170034 33.6553 0.163086C29.8556 0.178064 26.1384 1.27175 22.9361 3.31687C19.7338 5.36198 17.1781 8.27441 15.5664 11.7153C12.2046 11.3899 8.83733 12.2784 6.07374 14.2201C3.31015 16.1618 1.33272 19.0284 0.499142 22.3014C0.195946 23.4624 0.0439455 24.6576 0.0469178 25.8575C0.0523383 29.614 1.54558 33.2153 4.19985 35.8734C6.85413 38.5315 10.4533 40.03 14.2097 40.0409H58.6919C61.7611 40.0136 64.7045 38.8177 66.9231 36.6967C69.1416 34.5756 70.4684 31.6889 70.6334 28.624C70.7984 25.5591 69.7893 22.5466 67.8114 20.1996C65.8334 17.8526 63.0354 16.3475 59.9869 15.9909H60.1103ZM58.8153 36.5464H14.2919C12.8014 36.5504 11.3267 36.242 9.96269 35.6411C8.5987 35.0402 7.37574 34.1602 6.37267 33.0578C5.36959 31.9554 4.60867 30.655 4.13891 29.2405C3.66916 27.826 3.50101 26.3287 3.64532 24.8452C3.78962 23.3617 4.24318 21.925 4.97674 20.6275C5.71031 19.3301 6.70761 18.2007 7.90435 17.3122C9.10109 16.4238 10.4707 15.796 11.9249 15.4693C13.3792 15.1425 14.8857 15.1242 16.3475 15.4153L17.7864 15.6825L18.3003 14.3053C19.4854 11.1968 21.5856 8.52077 24.3234 6.63073C27.0612 4.7407 30.3079 3.72548 33.6347 3.71919C34.1691 3.71919 34.7241 3.71919 35.3819 3.71919C37.132 3.90832 38.8398 4.3804 40.4386 5.11698C44.3955 6.9195 47.4774 10.2158 49.0103 14.2847L49.7297 16.217L51.518 15.1892C52.0437 14.8933 52.6332 14.729 53.2361 14.7102C53.839 14.6914 54.4376 14.8186 54.9807 15.0811C55.5238 15.3436 55.9955 15.7335 56.3553 16.2176C56.7152 16.7017 56.9527 17.2657 57.0475 17.8614L57.2941 19.362H58.918C61.1859 19.362 63.3609 20.2629 64.9646 21.8665C66.5682 23.4702 67.4691 25.6452 67.4691 27.9131C67.4691 30.181 66.5682 32.356 64.9646 33.9596C63.3609 35.5633 61.1859 36.4642 58.918 36.4642L58.8153 36.5464Z" fill="white"></path>
    </symbol>
    <symbol fill="none" xmlns="http://www.w3.org/2000/svg" viewBox="0 0 16 16" id="dpf-2">
        <path fill-rule="evenodd" clip-rule="evenodd" d="M8 16C12.4183 16 16 12.4183 16 8C16 3.58172 12.4183 0 8 0C3.58172 0 0 3.58172 0 8C0 12.4183 3.58172 16 8 16ZM4.63122 7.65796C6.15706 5.92242 7.90496 4.35871 9.83787 3C9.83787 3 10.1026 5.19514 9.95551 7.28318C9.94598 8.07411 9.85737 8.86258 9.69078 9.6389C9.01421 11.8073 7.16099 12.3426 5.74902 11.8072C5.16099 11.6189 4.66611 11.2459 4.35336 10.7552C4.0406 10.2645 3.93052 9.68826 4.04291 9.13026C4.12019 8.60665 4.32087 8.10445 4.63122 7.65796ZM7.07275 7.01547C6.71976 6.80131 6.10201 7.01545 5.74902 7.49731C5.39603 8.00593 5.39603 8.59488 5.74902 8.80904C6.10201 9.0232 6.71976 8.83583 7.07275 8.3272C7.42575 7.81858 7.42575 7.22963 7.07275 7.01547Z" fill="white"></path>
    </symbol>
    <symbol fill="none" xmlns="http://www.w3.org/2000/svg" viewBox="0 0 1246 1246" id="hours">
        <line x1="630.498" y1="180.499" x2="630.498" y2="225.499" stroke="white" stroke-width="15" stroke-linecap="round"></line>
        <line x1="630.498" y1="1020.5" x2="630.498" y2="1065.5" stroke="white" stroke-width="15" stroke-linecap="round"></line>
        <line x1="1065.5" y1="630.499" x2="1020.5" y2="630.499" stroke="white" stroke-width="15" stroke-linecap="round"></line>
        <line x1="225.498" y1="630.499" x2="180.498" y2="630.499" stroke="white" stroke-width="15" stroke-linecap="round"></line>
        <line x1="851.946" y1="231.448" x2="824.042" y2="279.78" stroke="white" stroke-width="5" stroke-linecap="round"></line>
        <line x1="426.286" y1="968.717" x2="398.382" y2="1017.05" stroke="white" stroke-width="5" stroke-linecap="round"></line>
        <line x1="1014.55" y1="851.947" x2="966.216" y2="824.042" stroke="white" stroke-width="5" stroke-linecap="round"></line>
        <line x1="277.28" y1="426.285" x2="228.948" y2="398.38" stroke="white" stroke-width="5" stroke-linecap="round"></line>
        <line x1="1017.05" y1="398.381" x2="968.718" y2="426.285" stroke="white" stroke-width="5" stroke-linecap="round"></line>
        <line x1="279.782" y1="824.043" x2="231.45" y2="851.947" stroke="white" stroke-width="5" stroke-linecap="round"></line>
        <line x1="847.618" y1="1017.05" x2="819.714" y2="968.717" stroke="white" stroke-width="5" stroke-linecap="round"></line>
        <line x1="421.956" y1="279.78" x2="394.052" y2="231.448" stroke="white" stroke-width="5" stroke-linecap="round"></line>
    </symbol>
    <symbol fill="none" xmlns="http://www.w3.org/2000/svg" viewBox="0 0 8 12" id="dpf">
        <path d="M7.78382 0C5.20662 1.81161 2.87608 3.89656 0.841624 6.21061C0.427824 6.80593 0.160256 7.47553 0.0572087 8.17369C-0.0926411 8.91768 0.0541349 9.68594 0.471141 10.3402C0.888147 10.9945 1.54799 11.4919 2.33203 11.743C4.21465 12.4569 6.68561 11.743 7.5877 8.85186C7.80983 7.81678 7.92797 6.76548 7.94068 5.71091C8.13679 2.92685 7.78382 0 7.78382 0ZM2.33203 5.99641C2.80268 5.35393 3.62635 5.06841 4.097 5.35396C4.56766 5.6395 4.56766 6.42477 4.097 7.10294C3.62635 7.78111 2.80268 8.03093 2.33203 7.74539C1.86137 7.45984 1.86137 6.67457 2.33203 5.99641Z" fill="white"></path>
    </symbol>
    <symbol fill="none" xmlns="http://www.w3.org/2000/svg" viewBox="0 0 15 14" id="grade">
        <path d="M7.5 0C3.36435 0 0 3.13992 0 7C0 10.8601 3.36435 14 7.5 14C11.6357 14 15 10.8601 15 7C15 3.13992 11.6357 0 7.5 0ZM8.5193 7.67377L4.88292 9.37055L6.55417 6.12637L10.1176 4.62894L8.5193 7.67377Z" fill="white"></path>
    </symbol>
    <symbol fill="none" xmlns="http://www.w3.org/2000/svg" viewBox="0 0 191 144" id="night-cloud-2">
        <path d="M190.999 40.6289C191.04 39.3213 190.241 38.1362 189.009 37.6777C187.792 37.2245 186.404 37.5918 185.576 38.6024C180.9 44.3042 174.003 47.5732 166.639 47.5732C153.141 47.5732 142.16 36.5915 142.16 23.0963C142.16 16.3005 144.902 9.97878 149.877 5.29023C150.833 4.39159 151.11 2.98762 150.57 1.79725C150.026 0.606876 148.794 -0.114638 147.486 0.0155995C127.896 1.91707 112.968 17.6342 111.783 37.0344C106.519 33.9113 100.382 32.1348 93.8544 32.1348C93.5445 32.1348 93.2345 32.1661 92.9245 32.1739C90.4005 32.2416 87.8974 32.562 85.4723 33.1637C81.0625 34.2551 76.8792 36.1904 73.1909 38.8863C65.7387 34.4635 57.2837 32.1348 48.5942 32.1348C21.9502 32.1348 0.273438 53.8116 0.273438 80.4582C0.273438 107.105 21.9502 128.782 48.5942 128.782C52.1497 128.782 55.7469 128.365 59.3232 127.542C65.7231 137.687 76.8688 143.894 88.9679 143.894C103.68 143.894 116.643 134.746 121.72 121.217C126.492 123.551 131.722 124.77 137.049 124.77C156.371 124.77 172.086 109.053 172.086 89.7311C172.086 84.5242 170.927 79.5934 168.877 75.1523C181.695 68.8931 190.577 55.9553 190.999 40.6289ZM137.046 118.654C131.571 118.654 126.226 117.091 121.572 114.135C121.074 113.82 120.504 113.658 119.928 113.658C119.548 113.658 119.165 113.729 118.798 113.872C117.886 114.237 117.206 115.015 116.961 115.966C113.71 128.81 102.197 137.778 88.9653 137.778C78.3119 137.778 68.5545 131.949 63.4934 122.556C62.811 121.301 61.3575 120.676 59.9718 121.064C56.1819 122.124 52.3555 122.663 48.5916 122.663C25.3207 122.663 6.392 103.732 6.392 80.4608C6.392 57.1899 25.3234 38.2586 48.5916 38.2586C56.8174 38.2586 64.8114 40.6524 71.7036 45.1768C72.8341 45.914 74.3084 45.828 75.3398 44.9658C77.7675 42.9472 80.4973 41.3661 83.4042 40.2408C85.5401 39.4125 87.7697 38.8447 90.0541 38.5399C91.3096 38.3732 92.5781 38.2612 93.8544 38.2612C100.708 38.2612 107.045 40.6185 112.036 44.6533C116.946 48.6203 120.553 54.2127 122.033 60.7923C122.236 61.6675 122.806 62.4125 123.606 62.8266C124.406 63.246 125.346 63.2903 126.174 62.9491C126.469 62.8292 126.773 62.7459 127.07 62.6339C130.285 61.4461 133.629 60.8184 137.046 60.8184C146.317 60.8184 154.558 65.2178 159.854 72.024C161.156 73.6937 162.271 75.5092 163.18 77.4419C164.946 81.1797 165.962 85.3369 165.962 89.7389C165.964 105.683 152.99 118.654 137.046 118.654ZM165.826 69.836C160.474 62.139 152.131 56.669 142.47 55.1582C140.698 54.8847 138.898 54.6946 137.046 54.6946C136.726 54.6946 136.411 54.7206 136.091 54.7311C133.033 54.8118 130.021 55.2755 127.096 56.1454C125.239 50.4879 122.03 45.5623 117.894 41.6552C117.852 40.9467 117.787 40.2382 117.787 39.5167C117.787 24.9483 126.95 12.4924 140.094 7.86893C137.448 12.4481 136.038 17.6472 136.038 23.0989C136.038 39.9751 149.765 53.697 166.639 53.697C172.805 53.697 178.712 51.8606 183.698 48.5057C181.114 58.0026 174.511 65.7179 165.826 69.836Z" fill="white"></path>
    </symbol>
    <symbol fill="none" xmlns="http://www.w3.org/2000/svg" viewBox="0 0 120 90" id="night-cloud">
        <path d="M119.291 25.4115C119.317 24.5937 118.817 23.8524 118.047 23.5656C117.286 23.2822 116.417 23.5119 115.899 24.144C112.975 27.7103 108.661 29.7549 104.055 29.7549C95.6128 29.7549 88.7442 22.8863 88.7442 14.4455C88.7442 10.195 90.4598 6.24103 93.5715 3.30853C94.1694 2.74646 94.3421 1.86833 94.0048 1.1238C93.6643 0.379272 92.8937 -0.0720071 92.0759 0.00945148C79.8229 1.19875 70.4861 11.0292 69.7448 23.1632C66.4523 21.2099 62.614 20.0988 58.5312 20.0988C58.3374 20.0988 58.1435 20.1183 57.9496 20.1232C56.371 20.1656 54.8053 20.366 53.2886 20.7423C50.5304 21.4249 47.9139 22.6354 45.607 24.3216C40.946 21.5552 35.6577 20.0988 30.2228 20.0988C13.558 20.0988 0 33.6567 0 50.3232C0 66.9896 13.558 80.5476 30.2228 80.5476C32.4466 80.5476 34.6965 80.2869 36.9333 79.7721C40.9362 86.1177 47.9074 90 55.4749 90C64.6765 90 72.7849 84.2784 75.9601 75.8164C78.9448 77.2762 82.2161 78.0386 85.5478 78.0386C97.633 78.0386 107.462 68.2082 107.462 56.123C107.462 52.8663 106.737 49.7823 105.455 47.0045C113.472 43.0896 119.027 34.9975 119.291 25.4115ZM85.5462 74.2133C82.1217 74.2133 78.7786 73.2358 75.8673 71.3867C75.5561 71.1896 75.1993 71.0886 74.8393 71.0886C74.6014 71.0886 74.3619 71.1326 74.1322 71.2222C73.562 71.4503 73.1368 71.9374 72.9836 72.532C70.9504 80.5655 63.7495 86.1747 55.4733 86.1747C48.81 86.1747 42.7071 82.5286 39.5416 76.6538C39.1148 75.8686 38.2057 75.4776 37.339 75.7203C34.9685 76.3834 32.5753 76.7206 30.2211 76.7206C15.6661 76.7206 3.82692 64.8798 3.82692 50.3248C3.82692 35.7698 15.6677 23.9289 30.2211 23.9289C35.3661 23.9289 40.366 25.4262 44.6768 28.256C45.3838 28.7171 46.306 28.6633 46.9511 28.1241C48.4695 26.8615 50.1769 25.8726 51.995 25.1687C53.3309 24.6507 54.7255 24.2955 56.1543 24.1049C56.9395 24.0006 57.733 23.9306 58.5312 23.9306C62.8176 23.9306 66.7814 25.405 69.9029 27.9286C72.9739 30.4098 75.2303 33.9076 76.1556 38.0229C76.2827 38.5703 76.6395 39.0363 77.1396 39.2953C77.6398 39.5576 78.2279 39.5853 78.746 39.3719C78.9301 39.2969 79.1207 39.2448 79.3064 39.1747C81.3168 38.4318 83.4087 38.0392 85.5462 38.0392C91.3444 38.0392 96.4991 40.7909 99.8112 45.0479C100.626 46.0922 101.323 47.2277 101.892 48.4366C102.996 50.7744 103.632 53.3746 103.632 56.1279C103.633 66.1001 95.5183 74.2133 85.5462 74.2133ZM103.547 43.6794C100.199 38.8652 94.9807 35.4439 88.9381 34.499C87.8303 34.3279 86.7045 34.209 85.5462 34.209C85.3458 34.209 85.1487 34.2253 84.9483 34.2318C83.0356 34.2823 81.1523 34.5723 79.3227 35.1165C78.1611 31.5779 76.154 28.4971 73.5669 26.0534C73.5408 25.6103 73.5001 25.1671 73.5001 24.7158C73.5001 15.6039 79.2315 7.81318 87.4523 4.9214C85.7971 7.78549 84.9157 11.0373 84.9157 14.4472C84.9157 25.0026 93.5014 33.585 104.055 33.585C107.911 33.585 111.606 32.4365 114.725 30.3381C113.109 36.2781 108.979 41.1037 103.547 43.6794Z" fill="white"></path>
    </symbol>
    <symbol fill="none" xmlns="http://www.w3.org/2000/svg" viewBox="0 0 71 53" id="night">
        <path d="M28.8457 32.0354C29.6449 31.8618 30.472 31.8618 31.2712 32.0354C32.8368 28.9843 35.3862 26.5508 38.5068 25.1287C39.9917 24.4548 41.5732 24.0178 43.1935 23.8338H43.3579C42.7304 22.9917 41.9148 22.3079 40.9762 21.8368C40.0376 21.3657 39.002 21.1204 37.9518 21.1204C37.8402 20.4206 37.5255 19.7689 37.0468 19.2463C36.5681 18.7238 35.9464 18.3533 35.259 18.1809C34.9826 18.1165 34.7001 18.082 34.4162 18.0782C33.7886 18.0733 33.1711 18.2365 32.6279 18.551C31.5321 15.6089 29.3145 13.2213 26.4612 11.9115C25.3057 11.3756 24.0693 11.0353 22.8024 10.9043C22.3912 10.9043 21.9596 10.9043 21.5485 10.9043C19.1362 10.9048 16.7811 11.6382 14.7951 13.0075C12.8092 14.3767 11.2862 16.3171 10.4279 18.5715C9.93904 18.488 9.44387 18.4467 8.94792 18.4482C7.13828 18.451 5.38172 19.0599 3.95851 20.1776C2.5353 21.2953 1.52743 22.8574 1.09569 24.6148C0.91168 25.2843 0.821748 25.9761 0.828476 26.6704C0.855127 28.8155 1.71911 30.8653 3.23606 32.3822C4.75301 33.8992 6.80279 34.7632 8.94792 34.7898H25.3924C26.1365 33.4534 27.3772 32.4638 28.8457 32.0354Z" fill="white"></path>
        <path d="M63.1946 14.6662C61.6101 12.4018 59.3575 10.6891 56.7518 9.76774C54.1461 8.84635 51.3177 8.76231 48.6619 9.52732C51.2624 9.64316 53.7429 10.6545 55.6831 12.3899C57.6233 14.1253 58.9039 16.4782 59.3079 19.0497C59.7119 21.6213 59.2145 24.2535 57.8999 26.5002C56.5853 28.747 54.5344 30.4702 52.0946 31.3779C51.431 31.6397 50.7422 31.8326 50.0391 31.9534C47.2593 32.4163 44.407 31.8223 42.043 30.2884C44.1623 32.9757 47.2427 34.7345 50.6342 35.1937C54.0256 35.6529 57.4628 34.7766 60.2205 32.7497C62.9781 30.7228 64.8405 27.7039 65.4146 24.3299C65.9886 20.956 65.2295 17.4911 63.2974 14.6662H63.1946Z" fill="white"></path>
        <path d="M67.9225 40.8336C67.5064 39.2318 66.6664 37.7718 65.4908 36.607C64.3152 35.4423 62.8475 34.6159 61.2419 34.2147C59.3321 35.6285 57.1121 36.5657 54.7669 36.9485C53.966 37.0883 53.1544 37.1571 52.3414 37.1541C50.0692 37.1445 47.8287 36.6198 45.7886 35.6193C43.7485 34.6188 41.9618 33.1687 40.563 31.378L39.3092 29.4458L38.6925 28.2741L38.3225 27.1436C35.4884 28.669 33.2991 31.1649 32.1558 34.1736C31.5293 33.8185 30.8204 33.6341 30.1003 33.6391C29.781 33.6383 29.4631 33.6798 29.1547 33.7624C28.3773 33.9557 27.6732 34.3718 27.1291 34.9598C26.585 35.5477 26.2245 36.2819 26.0919 37.0719C24.6604 37.0743 23.2585 37.4807 22.0477 38.2443C20.8368 39.0079 19.866 40.0977 19.2469 41.3885C18.7424 42.4186 18.4822 43.5511 18.4864 44.698C18.4864 46.717 19.287 48.6537 20.7127 50.0832C22.1385 51.5128 24.0729 52.3187 26.0919 52.3241H58.9808C61.4177 52.3241 63.7548 51.3561 65.478 49.6329C67.2011 47.9098 68.1692 45.5727 68.1692 43.1358C68.1919 42.3607 68.109 41.5862 67.9225 40.8336Z" fill="white"></path>
        <path d="M42.1448 12.0761L46.1326 11.4594L42.1448 10.8222L43.7276 8.64328L41.5487 10.2261L40.9321 6.23828L40.2948 10.2261L38.1159 8.64328L39.6987 10.8222L35.7109 11.4594L39.6987 12.0761L38.1159 14.2344L40.2948 12.6516L40.9321 16.66L41.5487 12.6516L43.7276 14.2344L42.1448 12.0761Z" fill="white"></path>
        <path d="M21.1177 3.42245L22.2072 1.90132L20.7066 3.01134L20.275 0.236328L19.8433 3.01134L18.3427 1.90132L19.4322 3.42245L16.6777 3.85409L19.4322 4.28578L18.3427 5.78632L19.8433 4.69688L20.275 7.45132L20.7066 4.69688L22.2072 5.78632L21.1177 4.28578L23.8927 3.85409L21.1177 3.42245Z" fill="white"></path>
        <path d="M70.2039 8.70494L68.3128 8.41717L69.0528 7.36884L68.025 8.12939L67.7167 6.23828L67.4289 8.12939L66.4011 7.36884L67.1411 8.41717L65.25 8.70494L67.1411 9.01329L66.4011 10.0411L67.4289 9.28049L67.7167 11.1922L68.025 9.28049L69.0528 10.0411L68.3128 9.01329L70.2039 8.70494Z" fill="white"></path>
    </symbol>
    <symbol fill="none" xmlns="http://www.w3.org/2000/svg" viewBox="0 0 87 57" id="one-cloud-3">
        <path d="M41.9643 56.4227C34.5358 56.4227 27.9924 51.8031 25.4268 44.973C23.0191 46.1512 20.3785 46.7679 17.6894 46.7679C7.93602 46.7679 0 38.8306 0 29.0786C0 19.3239 7.93471 11.3892 17.6894 11.3892C19.3989 11.3892 21.0821 11.6338 22.7127 12.119C25.0823 4.90495 31.7559 0 39.496 0C43.249 0 46.91 1.20323 49.9292 3.40848C53.6914 1.17693 57.9599 0 62.3454 0C75.7966 0 86.74 10.9434 86.74 24.3959C86.74 37.8483 75.7979 48.7917 62.3468 48.7917C60.5518 48.7917 58.7344 48.5827 56.9303 48.1645C53.6993 53.289 48.0711 56.4227 41.9643 56.4227ZM26.3315 41.1542C26.5249 41.1542 26.7182 41.1897 26.9023 41.2647C27.3625 41.4475 27.707 41.8407 27.8293 42.3206C29.4705 48.8049 35.2827 53.3337 41.9643 53.3337C47.3413 53.3337 52.2673 50.3895 54.8236 45.6489C55.1669 45.0124 55.9033 44.6981 56.6015 44.8941C58.5148 45.4306 60.4479 45.7015 62.3468 45.7015C74.095 45.7015 83.6524 36.1441 83.6524 24.3959C83.6524 12.6477 74.095 3.09025 62.3468 3.09025C58.194 3.09025 54.1582 4.29742 50.6788 6.58289C50.1094 6.95503 49.3638 6.91295 48.8417 6.47769C46.2235 4.29348 42.9045 3.09025 39.4973 3.09025C32.6317 3.09025 26.7813 7.7677 25.269 14.4637C25.1691 14.9068 24.8798 15.2842 24.4774 15.4933C24.075 15.7024 23.6003 15.7261 23.1795 15.5551C21.4227 14.8398 19.5764 14.4781 17.6907 14.4781C9.64026 14.4781 3.09156 21.0268 3.09156 29.0799C3.09156 37.129 9.64026 43.6803 17.6907 43.6803C20.4535 43.6803 23.1545 42.8887 25.5031 41.3975C25.7543 41.2357 26.0422 41.1542 26.3315 41.1542Z" fill="white"></path>
    </symbol>
    <symbol fill="none" xmlns="http://www.w3.org/2000/svg" viewBox="0 0 192 125" id="one-cloud-2">
        <path d="M92.8872 124.891C76.4445 124.891 61.9607 114.665 56.2819 99.5469C50.9523 102.155 45.1076 103.52 39.1551 103.52C17.5662 103.52 0 85.9509 0 64.365C0 42.7732 17.5633 25.2098 39.1551 25.2098C42.9391 25.2098 46.6648 25.7512 50.2741 26.8253C55.5192 10.857 70.2912 0 87.4237 0C95.7309 0 103.834 2.66333 110.517 7.54462C118.845 2.60511 128.293 0 138.001 0C167.774 0 191.997 24.2231 191.997 53.9998C191.997 83.7766 167.777 108 138.003 108C134.03 108 130.008 107.537 126.014 106.611C118.863 117.954 106.405 124.891 92.8872 124.891ZM58.2844 91.0942C58.7123 91.0942 59.1402 91.1728 59.5477 91.3387C60.5664 91.7433 61.3291 92.6136 61.5998 93.676C65.2323 108.029 78.0978 118.053 92.8872 118.053C104.789 118.053 115.693 111.536 121.351 101.043C122.111 99.6343 123.741 98.9386 125.286 99.3723C129.522 100.56 133.8 101.159 138.003 101.159C164.008 101.159 185.163 80.0043 185.163 53.9998C185.163 27.9954 164.008 6.84022 138.003 6.84022C128.811 6.84022 119.878 9.51226 112.177 14.5711C110.916 15.3948 109.266 15.3017 108.11 14.3383C102.315 9.50354 94.9683 6.84022 87.4267 6.84022C72.2297 6.84022 59.2799 17.1937 55.9326 32.0151C55.7113 32.996 55.071 33.8314 54.1803 34.2942C53.2896 34.757 52.2388 34.8094 51.3074 34.431C47.4187 32.8476 43.332 32.0471 39.158 32.0471C21.3385 32.0471 6.84312 46.5426 6.84312 64.3679C6.84312 82.1844 21.3385 96.6857 39.158 96.6857C45.2735 96.6857 51.2521 94.9334 56.4507 91.6327C57.0066 91.2746 57.6441 91.0942 58.2844 91.0942Z" fill="white"></path>
    </symbol>
    <symbol fill="none" xmlns="http://www.w3.org/2000/svg" viewBox="0 0 61 40" id="one-cloud">
        <path d="M29.4461 39.5915C24.2336 39.5915 19.6421 36.35 17.8419 31.5573C16.1524 32.3841 14.2995 32.8168 12.4125 32.8168C5.56867 32.8168 0 27.2472 0 20.4043C0 13.5595 5.56774 7.99175 12.4125 7.99175C13.6121 7.99175 14.7932 8.16338 15.9374 8.50387C17.6001 3.44178 22.283 0 27.7141 0C30.3476 0 32.9165 0.844299 35.0351 2.39171C37.675 0.825845 40.6702 0 43.7475 0C53.1861 0 60.865 7.67895 60.865 17.1185C60.865 26.558 53.187 34.2369 43.7484 34.2369C42.4889 34.2369 41.2137 34.0902 39.9477 33.7968C37.6805 37.3926 33.7313 39.5915 29.4461 39.5915ZM18.4767 28.8777C18.6124 28.8777 18.748 28.9026 18.8772 28.9552C19.2001 29.0835 19.4419 29.3594 19.5277 29.6962C20.6793 34.2461 24.7577 37.424 29.4461 37.424C33.2191 37.424 36.6757 35.358 38.4695 32.0316C38.7103 31.585 39.227 31.3645 39.717 31.5019C41.0596 31.8784 42.416 32.0685 43.7484 32.0685C51.9921 32.0685 58.6984 25.3621 58.6984 17.1185C58.6984 8.8748 51.9921 2.16841 43.7484 2.16841C40.8344 2.16841 38.0026 3.01548 35.561 4.61918C35.1615 4.88031 34.6383 4.85079 34.272 4.54536C32.4348 3.01271 30.1059 2.16841 27.7151 2.16841C22.8975 2.16841 18.7923 5.45056 17.7311 10.1491C17.661 10.46 17.458 10.7249 17.1757 10.8716C16.8933 11.0183 16.5602 11.0349 16.2649 10.915C15.0322 10.413 13.7367 10.1592 12.4135 10.1592C6.76452 10.1592 2.16933 14.7544 2.16933 20.4052C2.16933 26.0532 6.76452 30.6503 12.4135 30.6503C14.3521 30.6503 16.2474 30.0948 17.8954 29.0484C18.0716 28.9349 18.2737 28.8777 18.4767 28.8777Z" fill="white"></path>
    </symbol>
    <symbol fill="none" xmlns="http://www.w3.org/2000/svg" viewBox="0 0 26 36" id="place">
        <path d="M13 0.000189578C9.57287 -0.0185244 6.27862 1.34894 3.84103 3.80212C1.40345 6.2553 0.0219198 9.59353 0 13.0834C0 23.8594 13 36 13 36C13 36 26 23.789 26 13.0834C25.9781 9.59353 24.5965 6.2553 22.159 3.80212C19.7214 1.34894 16.4271 -0.0185244 13 0.000189578ZM13 20.7504C11.4999 20.7504 10.0336 20.2974 8.78629 19.4488C7.53903 18.6001 6.56691 17.3939 5.99285 15.9827C5.4188 14.5714 5.26859 13.0185 5.56124 11.5203C5.85389 10.0222 6.57625 8.64602 7.63696 7.5659C8.69767 6.48578 10.0491 5.75021 11.5203 5.45221C12.9916 5.1542 14.5166 5.30714 15.9024 5.8917C17.2883 6.47626 18.4729 7.46617 19.3063 8.73626C20.1396 10.0063 20.5845 11.4996 20.5845 13.0271C20.5772 15.0705 19.7749 17.0278 18.3533 18.4701C16.9317 19.9124 15.0068 20.7223 13 20.7222V20.7504Z" fill="white"></path>
    </symbol>
    <symbol fill="none" xmlns="http://www.w3.org/2000/svg" viewBox="0 0 16 16" id="pressure-2">
        <path d="M8 0C3.58864 0 0 3.58848 0 8C0 12.4115 3.58864 16 8 16C12.4114 16 16 12.4115 16 8C16 3.58848 12.4114 0 8 0ZM8.00029 15.0587C6.91362 15.0587 6.0437 14.1779 6.0437 13.0909C6.0437 12.311 6.58471 11.6395 7.16737 11.3207V1.79672C7.16737 1.32416 7.56883 0.941039 8.04166 0.941039C8.51391 0.941039 8.91537 1.32386 8.91537 1.79672V11.3207C9.49803 11.6395 9.99767 12.311 9.99767 13.0909C9.99796 14.1779 9.08696 15.0587 8.00029 15.0587Z" fill="white"></path>
    </symbol>
    <symbol fill="none" xmlns="http://www.w3.org/2000/svg" viewBox="0 0 5 17" id="pressure">
        <path d="M3.58697 12.499V1.03036C3.58697 0.461327 3.10067 0 2.5 0C1.89933 0 1.41303 0.460976 1.41303 1.03036V12.499C0.57735 12.8821 0 13.6907 0 14.6302C0 15.9384 1.11917 17 2.5 17C3.88083 17 5 15.9388 5 14.6302C5 13.6911 4.42265 12.8821 3.58697 12.499Z" fill="white"></path>
    </symbol>
    <symbol fill="none" xmlns="http://www.w3.org/2000/svg" viewBox="0 0 70 58" id="rainy">
        <path d="M15.7108 31.8462C15.8454 31.2456 15.9143 30.6322 15.9163 30.0167C15.9163 28.4956 15.9163 26.8101 15.9163 26.8101C14.5538 27.8545 13.3249 29.0627 12.2575 30.4073C12.0522 30.7464 11.9192 31.1243 11.8669 31.5173C11.784 31.9461 11.859 32.3905 12.0781 32.7683C12.2973 33.1461 12.6457 33.4319 13.0591 33.5729C13.3477 33.6625 13.6524 33.6874 13.9517 33.6458C14.2509 33.6042 14.5373 33.4972 14.7905 33.3323C15.0437 33.1675 15.2574 32.9488 15.4165 32.692C15.5756 32.4351 15.676 32.1463 15.7108 31.8462ZM12.9769 30.2223C13.0573 30.0565 13.1967 29.9268 13.3678 29.8583C13.5389 29.7899 13.7293 29.7878 13.9019 29.8523C14.1486 30.0373 14.1486 30.469 13.9019 30.8595C13.6552 31.2501 13.2236 31.394 12.9769 31.2295C12.7302 31.0651 12.7097 30.654 12.9769 30.2223Z" fill="white"></path>
        <path d="M1.42408 33.0795C1.21978 33.421 1.08041 33.7973 1.01298 34.1895C0.942787 34.6172 1.0233 35.056 1.24075 35.4309C1.4582 35.8058 1.79911 36.0936 2.2052 36.245C2.49524 36.3528 2.80585 36.3936 3.11389 36.3646C3.42192 36.3355 3.71943 36.2373 3.98421 36.0772C4.24899 35.9172 4.47422 35.6994 4.64312 35.4402C4.81201 35.1809 4.92021 34.8869 4.95964 34.58C5.0862 33.9855 5.14824 33.379 5.14465 32.7712C5.14465 31.2501 5.14465 29.5439 5.14465 29.5439C3.76448 30.5658 2.51495 31.7532 1.42408 33.0795ZM2.2052 32.9562C2.47242 32.5656 2.88353 32.4012 3.1302 32.5862C3.37686 32.7712 3.37686 33.2028 3.1302 33.5728C2.88353 33.9428 2.47242 34.1278 2.2052 33.9428C1.93798 33.7578 1.95854 33.3262 2.2052 32.9562Z" fill="white"></path>
        <path d="M14.0055 42.5556C13.8066 42.8977 13.6741 43.2743 13.6149 43.6656C13.532 44.0944 13.607 44.5387 13.8262 44.9166C14.0453 45.2944 14.3938 45.5802 14.8072 45.7211C15.0961 45.8251 15.4046 45.863 15.71 45.8321C16.0155 45.8012 16.3102 45.7023 16.5724 45.5426C16.8346 45.3829 17.0577 45.1665 17.2254 44.9093C17.393 44.652 17.5009 44.3605 17.5411 44.0561C17.677 43.4558 17.7459 42.8422 17.7466 42.2267C17.7466 40.7261 17.7466 39.02 17.7466 39.02C16.3635 40.0457 15.1076 41.2326 14.0055 42.5556ZM14.8072 42.4322C15.0538 42.0417 15.465 41.8772 15.7322 42.0417C15.855 42.1807 15.9228 42.3598 15.9228 42.5453C15.9228 42.7308 15.855 42.9099 15.7322 43.0489C15.465 43.4189 15.0538 43.5834 14.8072 43.4189C14.5605 43.2545 14.5605 42.8022 14.8894 42.4322H14.8072Z" fill="white"></path>
        <path d="M21.6116 51.8881C21.4041 52.228 21.2645 52.605 21.2005 52.9981C21.1303 53.4258 21.2108 53.8646 21.4283 54.2395C21.6457 54.6144 21.9866 54.9022 22.3927 55.0536C22.6827 55.1614 22.9934 55.2022 23.3014 55.1731C23.6094 55.1441 23.9069 55.0459 24.1717 54.8858C24.4365 54.7258 24.6617 54.508 24.8306 54.2488C24.9995 53.9895 25.1077 53.6955 25.1471 53.3886C25.2736 52.7871 25.3356 52.1739 25.3321 51.5592C25.3321 50.0586 25.3321 48.3525 25.3321 48.3525C23.952 49.3744 22.7024 50.5618 21.6116 51.8881ZM22.3927 51.7647C22.6599 51.3742 23.071 51.2098 23.3177 51.3948C23.5644 51.5798 23.5849 51.9909 23.3177 52.3814C23.2372 52.5472 23.0979 52.6769 22.9268 52.7454C22.7557 52.8138 22.5653 52.816 22.3927 52.7514C22.146 52.587 22.146 52.1347 22.3927 51.7647Z" fill="white"></path>
        <path d="M33.9841 47.4477C33.7711 47.7849 33.631 48.163 33.5729 48.5577C33.4944 48.9861 33.5714 49.4286 33.7899 49.8054C34.0085 50.1822 34.3543 50.4686 34.7652 50.6132C35.0552 50.7209 35.3658 50.7618 35.6739 50.7327C35.9819 50.7037 36.2794 50.6055 36.5442 50.4454C36.809 50.2853 37.0342 50.0676 37.2031 49.8083C37.372 49.5491 37.4802 49.2551 37.5196 48.9482C37.6369 48.3453 37.6989 47.733 37.7046 47.1188C37.7046 45.6182 37.7046 43.9121 37.7046 43.9121C36.3245 44.934 35.0749 46.1214 33.9841 47.4477ZM34.7652 47.3243C35.0118 46.9338 35.4435 46.7693 35.6902 46.9543C35.9369 47.1393 35.9369 47.571 35.6902 47.941C35.4435 48.311 35.0118 48.496 34.7652 48.311C34.5185 48.126 34.5185 47.6943 34.7652 47.3243Z" fill="white"></path>
        <path d="M42.7014 54.1899C42.485 54.5254 42.3447 54.9043 42.2903 55.2998C42.2201 55.7275 42.3006 56.1663 42.5181 56.5412C42.7355 56.9162 43.0765 57.2039 43.4825 57.3554C43.7726 57.4631 44.0832 57.504 44.3912 57.4749C44.6993 57.4459 44.9968 57.3476 45.2616 57.1876C45.5263 57.0275 45.7516 56.8098 45.9205 56.5505C46.0894 56.2913 46.1976 55.9973 46.237 55.6904C46.3543 55.0875 46.4162 54.4751 46.422 53.861C46.422 52.3604 46.422 50.6543 46.422 50.6543C45.0418 51.6762 43.7923 52.8636 42.7014 54.1899ZM43.4825 54.0665C43.7498 53.6965 44.1609 53.5115 44.4075 53.6965C44.6542 53.8815 44.6542 54.3132 44.4075 54.6832C44.1609 55.0532 43.7498 55.2382 43.4825 55.0532C43.2153 54.8682 43.2359 54.4365 43.4825 54.0665Z" fill="white"></path>
        <path d="M57.8704 44.3232C56.5198 45.3665 55.2983 46.5673 54.2321 47.8999C54.0152 48.2428 53.875 48.6284 53.821 49.0305C53.7425 49.4589 53.8194 49.9014 54.0379 50.2782C54.2565 50.655 54.6023 50.9414 55.0132 51.086C55.9999 51.4971 57.2949 51.086 57.7677 49.421C57.8841 48.8249 57.946 48.2195 57.9527 47.6121C58.0554 46.0088 57.8704 44.3232 57.8704 44.3232ZM55.0132 47.7766C55.2599 47.4066 55.6916 47.2421 55.9382 47.4066C56.1849 47.571 56.1849 48.0233 55.9382 48.4138C55.6916 48.8044 55.2599 48.9482 55.0132 48.7838C54.7665 48.6193 54.7665 48.1671 55.0132 47.7766Z" fill="white"></path>
        <path d="M69.6697 30.0163C69.1169 27.8042 67.7543 25.88 65.8513 24.624C63.9482 23.368 61.6433 22.8716 59.3919 23.233H59.0219C58.2301 21.1571 56.9375 19.309 55.2592 17.853C53.5809 16.397 51.5689 15.3783 49.4019 14.8875C48.4367 14.6733 47.4512 14.563 46.4625 14.5586C45.9692 14.5586 45.4964 14.5586 45.0236 14.5586C42.5464 14.8327 40.1931 15.7859 38.2235 17.313C36.2539 18.8401 34.7445 20.8817 33.8619 23.2125C33.2389 22.8488 32.5277 22.6639 31.8064 22.678C31.4871 22.6772 31.1692 22.7187 30.8608 22.8014C30.0834 22.9946 29.3793 23.4108 28.8352 23.9987C28.2911 24.5866 27.9306 25.3208 27.798 26.1108C26.363 26.1093 24.9568 26.5139 23.7419 27.2777C22.527 28.0416 21.5531 29.1335 20.9325 30.4275C20.428 31.4575 20.1677 32.59 20.1719 33.7369C20.1719 35.754 20.9732 37.6885 22.3995 39.1149C23.8259 40.5412 25.7604 41.3425 27.7775 41.3425H60.6664C61.872 41.3452 63.0664 41.11 64.181 40.6505C65.2957 40.191 66.3088 39.5162 67.1623 38.6646C68.0157 37.813 68.6929 36.8014 69.1549 35.6878C69.6169 34.5742 69.8547 33.3804 69.8547 32.1747C69.8763 31.4505 69.8142 30.7263 69.6697 30.0163Z" fill="white"></path>
        <path d="M30.5721 21.2191C31.3723 21.0552 32.1974 21.0552 32.9977 21.2191C34.5632 18.168 37.1126 15.7345 40.2332 14.3124C41.7148 13.6292 43.2977 13.1918 44.9199 13.0174H45.0843C44.46 12.177 43.6479 11.494 42.7129 11.0229C41.7779 10.5518 40.7458 10.3057 39.6988 10.3041C39.5923 9.6022 39.2794 8.94788 38.7999 8.42442C38.3203 7.90096 37.6959 7.53206 37.006 7.36465C36.7259 7.33457 36.4433 7.33457 36.1632 7.36465C35.5356 7.35975 34.9181 7.52299 34.3749 7.83742C33.2791 4.89533 31.0615 2.50773 28.2082 1.19798C27.0562 0.652751 25.8181 0.311925 24.5493 0.19075C24.1316 0.16949 23.7131 0.16949 23.2954 0.19075C20.8945 0.151038 18.5376 0.838533 16.5346 2.16291C14.5315 3.48728 12.9759 5.38658 12.0721 7.61131C11.5838 7.52067 11.0887 7.47251 10.5921 7.4674C8.78799 7.49134 7.04182 8.10805 5.62283 9.22245C4.20383 10.3368 3.19078 11.887 2.73987 13.6341C2.56593 14.3055 2.47617 14.996 2.47266 15.6896C2.47266 17.8703 3.33893 19.9617 4.8809 21.5036C6.42286 23.0456 8.51421 23.9118 10.6949 23.9118H27.1393C27.899 22.61 29.1268 21.6469 30.5721 21.2191Z" fill="white"></path>
    </symbol>
    <symbol fill="none" xmlns="http://www.w3.org/2000/svg" viewBox="0 0 33 24" id="speed-2">
        <path d="M0.845618 7.16326H16.5263C16.6242 7.17119 16.7179 7.1928 16.8173 7.1928C18.8031 7.1928 20.413 5.58295 20.413 3.5964C20.413 1.60984 18.8031 0 16.8173 0C14.8307 0 13.2209 1.60984 13.2209 3.5964C13.2209 4.28643 13.4247 4.92389 13.7618 5.47131H0.845618C0.378871 5.47131 0 5.85018 0 6.31765C0 6.78511 0.378871 7.16326 0.845618 7.16326Z" fill="white"></path>
        <path d="M21.5415 15.8507C21.517 15.8493 21.4962 15.8363 21.4709 15.8363H1.3749C0.908157 15.8363 0.528564 16.2152 0.528564 16.6826C0.528564 17.1501 0.907437 17.529 1.3749 17.529H18.3607C18.0136 18.0822 17.8047 18.7311 17.8047 19.4327C17.8047 21.4185 19.4145 23.0291 21.4011 23.0291C23.3869 23.0291 24.9968 21.4193 24.9968 19.4327C24.9968 17.4951 23.4604 15.9263 21.5415 15.8507Z" fill="white"></path>
        <path d="M33.0002 9.06698C33.0002 7.08115 31.3904 5.47058 29.4045 5.47058C27.418 5.47058 25.8081 7.08043 25.8081 9.06698C25.8081 9.76854 26.017 10.4175 26.3642 10.9707H0.91714C0.449673 10.9707 0.0708008 11.3496 0.0708008 11.817C0.0708008 12.2845 0.448953 12.6634 0.91714 12.6634H29.4744C29.4996 12.6634 29.5198 12.6511 29.545 12.649C31.4638 12.5733 33.0002 11.0046 33.0002 9.06698Z" fill="white"></path>
    </symbol>
    <symbol fill="none" xmlns="http://www.w3.org/2000/svg" viewBox="0 0 33 24" id="speed-3">
        <path d="M0.845618 7.16326H16.5263C16.6242 7.17119 16.7179 7.1928 16.8173 7.1928C18.8031 7.1928 20.413 5.58295 20.413 3.5964C20.413 1.60984 18.8031 0 16.8173 0C14.8307 0 13.2209 1.60984 13.2209 3.5964C13.2209 4.28643 13.4247 4.92389 13.7618 5.47131H0.845618C0.378871 5.47131 0 5.85018 0 6.31765C0 6.78511 0.378871 7.16326 0.845618 7.16326Z" fill="white"></path>
        <path d="M21.5418 15.8507C21.5173 15.8493 21.4964 15.8363 21.4712 15.8363H1.37515C0.908401 15.8363 0.528809 16.2152 0.528809 16.6826C0.528809 17.1501 0.907681 17.529 1.37515 17.529H18.361C18.0138 18.0822 17.8049 18.7311 17.8049 19.4327C17.8049 21.4185 19.4148 23.0291 21.4013 23.0291C23.3872 23.0291 24.997 21.4193 24.997 19.4327C24.997 17.4951 23.4606 15.9263 21.5418 15.8507Z" fill="white"></path>
        <path d="M33.0002 9.06698C33.0002 7.08115 31.3904 5.47058 29.4045 5.47058C27.418 5.47058 25.8081 7.08043 25.8081 9.06698C25.8081 9.76854 26.017 10.4175 26.3642 10.9707H0.91714C0.449673 10.9707 0.0708008 11.3496 0.0708008 11.817C0.0708008 12.2845 0.448953 12.6634 0.91714 12.6634H29.4744C29.4996 12.6634 29.5198 12.6511 29.545 12.649C31.4638 12.5733 33.0002 11.0046 33.0002 9.06698Z" fill="white"></path>
    </symbol>
    <symbol fill="none" xmlns="http://www.w3.org/2000/svg" viewBox="0 0 150 147" id="sunny-2">
        <path d="M76.1631 110.654C55.808 110.654 39.2461 94.0953 39.2461 73.7339C39.2461 53.3788 55.8111 36.8169 76.1631 36.8169C96.5245 36.8169 113.083 53.3788 113.083 73.7339C113.083 94.0953 96.5214 110.654 76.1631 110.654ZM76.1631 44.2022C59.8778 44.2022 46.6314 57.4548 46.6314 73.737C46.6314 90.0287 59.8809 103.272 76.1631 103.272C92.4453 103.272 105.698 90.0287 105.698 73.737C105.698 57.4548 92.4484 44.2022 76.1631 44.2022Z" fill="white"></path>
        <path d="M76.1626 22.7718C74.1262 22.7718 72.4731 21.1188 72.4731 19.0792V3.69264C72.4731 1.65304 74.123 0 76.1626 0C78.2022 0 79.8584 1.65304 79.8584 3.69264V19.0792C79.8584 21.1188 78.1991 22.7718 76.1626 22.7718Z" fill="white"></path>
        <path d="M112.91 41.5368C111.964 41.5368 111.018 41.1753 110.299 40.4557C108.856 39.0163 108.856 36.6782 110.299 35.2357L123.526 22.0082C124.969 20.5657 127.304 20.5657 128.746 22.0082C130.189 23.4475 130.189 25.7857 128.746 27.2282L115.519 40.4557C114.799 41.1753 113.856 41.5368 112.91 41.5368Z" fill="white"></path>
        <path d="M33.5333 41.5375C32.5874 41.5375 31.6414 41.1761 30.9249 40.4564L17.6943 27.2289C16.2549 25.7864 16.2549 23.4514 17.6943 22.0089C19.1367 20.5664 21.4718 20.5664 22.9142 22.0089L36.1449 35.2364C37.5842 36.6789 37.5842 39.0139 36.1449 40.4564C35.4252 41.1761 34.4793 41.5375 33.5333 41.5375Z" fill="white"></path>
        <path d="M73.2205 146.907C71.184 146.907 69.5278 145.254 69.5278 143.215V127.831C69.5278 125.792 71.1809 124.139 73.2205 124.139C75.2601 124.139 76.9131 125.792 76.9131 127.831V143.215C76.9131 145.258 75.2601 146.907 73.2205 146.907Z" fill="white"></path>
        <path d="M23.2459 125.986C22.3031 125.986 21.3603 125.628 20.6375 124.905C19.195 123.466 19.195 121.128 20.6375 119.685L33.865 106.458C35.3075 105.015 37.6457 105.015 39.0882 106.458C40.5307 107.897 40.5307 110.235 39.0882 111.678L25.8607 124.905C25.1378 125.628 24.1919 125.986 23.2459 125.986Z" fill="white"></path>
        <path d="M129.081 125.986C128.138 125.986 127.192 125.628 126.472 124.905L113.245 111.678C111.802 110.235 111.802 107.9 113.245 106.458C114.687 105.015 117.019 105.015 118.462 106.458L131.696 119.685C133.135 121.128 133.135 123.466 131.696 124.905C130.97 125.628 130.027 125.986 129.081 125.986Z" fill="white"></path>
        <path d="M20.3048 77.4289H3.6895C1.65305 77.4289 0 75.779 0 73.7363C0 71.6998 1.6499 70.0436 3.6895 70.0436H20.3048C22.3413 70.0436 23.9943 71.6998 23.9943 73.7363C23.9943 75.7759 22.3444 77.4289 20.3048 77.4289Z" fill="white"></path>
        <path d="M145.827 77.4292H126.135C124.099 77.4292 122.439 75.7793 122.439 73.7366C122.439 71.7002 124.096 70.044 126.135 70.044H145.827C147.864 70.044 149.517 71.7002 149.517 73.7366C149.517 75.7762 147.864 77.4292 145.827 77.4292Z" fill="white"></path>
    </symbol>
    <symbol fill="none" xmlns="http://www.w3.org/2000/svg" viewBox="0 0 22 14" id="speed">
        <path d="M13.3309 4.14606C13.6068 3.71648 13.7541 3.21698 13.7556 2.70643C13.7556 2.62725 13.7556 2.55526 13.7556 2.48327C13.6958 1.82294 13.3913 1.20883 12.9018 0.761608C12.4123 0.314389 11.7733 0.0664062 11.1102 0.0664062C10.4472 0.0664062 9.80814 0.314389 9.31865 0.761608C8.82915 1.20883 8.52462 1.82294 8.4649 2.48327H9.667C9.72545 2.14962 9.89967 1.84726 10.159 1.62938C10.4184 1.4115 10.7463 1.29207 11.085 1.29207C11.4238 1.29207 11.7517 1.4115 12.011 1.62938C12.2704 1.84726 12.4446 2.14962 12.5031 2.48327C12.5105 2.55747 12.5105 2.63223 12.5031 2.70643C12.5031 3.08824 12.3514 3.45442 12.0814 3.7244C11.8114 3.99439 11.4453 4.14606 11.0634 4.14606H2.20972V5.36254H11.1066C11.5491 5.35993 11.9841 5.24739 12.3723 5.03505C12.7605 4.82272 13.0899 4.51724 13.3309 4.14606Z" fill="white"></path>
        <path d="M13.6477 8.27795H4.79395V9.49444H13.6477C14.0295 9.49444 14.3957 9.64612 14.6656 9.9161C14.9356 10.1861 15.0873 10.5523 15.0873 10.9341C15.0948 11.0083 15.0948 11.083 15.0873 11.1572C15.0289 11.4909 14.8546 11.7932 14.5953 12.0111C14.3359 12.229 14.008 12.3484 13.6693 12.3484C13.3305 12.3484 13.0026 12.229 12.7433 12.0111C12.4839 11.7932 12.3097 11.4909 12.2512 11.1572H11.0276C11.0873 11.8176 11.3918 12.4317 11.8813 12.8789C12.3708 13.3261 13.0098 13.5741 13.6729 13.5741C14.3359 13.5741 14.9749 13.3261 15.4644 12.8789C15.9539 12.4317 16.2585 11.8176 16.3182 11.1572C16.3182 11.0852 16.3182 11.0061 16.3182 10.9341C16.3182 10.2296 16.0383 9.55404 15.5402 9.05592C15.0421 8.5578 14.3665 8.27795 13.6621 8.27795H13.6477Z" fill="white"></path>
        <path d="M18.3049 0.0144002C17.7428 0.014505 17.1881 0.142432 16.6827 0.38851C16.1773 0.634587 15.7346 0.992367 15.3878 1.43479C15.0411 1.87721 14.7995 2.39269 14.6814 2.94223C14.5632 3.49178 14.5716 4.061 14.7058 4.60683H15.9871C15.7965 4.11372 15.7688 3.57255 15.9079 3.06254C16.0471 2.55252 16.3458 2.10044 16.7604 1.77241C17.1749 1.44439 17.6836 1.25766 18.212 1.23955C18.7403 1.22143 19.2606 1.37288 19.6967 1.67175C20.1327 1.97061 20.4617 2.4012 20.6354 2.90049C20.8092 3.39977 20.8186 3.94155 20.6622 4.44656C20.5059 4.95156 20.192 5.39328 19.7665 5.70706C19.3411 6.02084 18.8264 6.19023 18.2977 6.19042H0V7.39251H18.3049C18.8207 7.39284 19.3307 7.2847 19.8019 7.07512C20.2732 6.86555 20.695 6.55922 21.0402 6.17602C21.5214 5.64648 21.8384 4.98854 21.9526 4.2822C22.0669 3.57586 21.9734 2.85154 21.6837 2.19731C21.3939 1.54308 20.9204 0.987132 20.3205 0.597043C19.7207 0.206954 19.0204 -0.00046937 18.3049 7.97527e-07V0.0144002Z" fill="white"></path>
    </symbol>
    <symbol fill="none" xmlns="http://www.w3.org/2000/svg" viewBox="0 0 73 53" id="sunny-cloudy">
        <path d="M55.7666 7.69359C56.1836 7.81627 56.6321 7.77098 57.0162 7.56741C57.4003 7.36384 57.6895 7.01814 57.8221 6.60415L59.0554 2.71913C59.1439 2.44003 59.1563 2.14236 59.0912 1.85689C59.0262 1.57141 58.8861 1.30847 58.6854 1.09524C58.4995 0.867921 58.2485 0.702951 57.966 0.622473C57.7595 0.558958 57.5425 0.536756 57.3274 0.557139C57.1123 0.577522 56.9034 0.640079 56.7125 0.741253C56.5216 0.842428 56.3525 0.980242 56.2149 1.14679C56.0773 1.31334 55.9738 1.50537 55.9105 1.71192L54.6771 5.59691C54.6675 5.72692 54.6675 5.85747 54.6771 5.98747C54.656 6.35033 54.75 6.71058 54.9456 7.01691C55.1412 7.32325 55.4285 7.56006 55.7666 7.69359Z" fill="white"></path>
        <path d="M64.7498 12.8942L68.0181 10.4686C68.3762 10.2056 68.6159 9.81194 68.6852 9.37312C68.7545 8.9343 68.6477 8.48584 68.3881 8.12532L68.2648 8.00199C67.991 7.69205 67.6104 7.49666 67.199 7.45476C66.7876 7.41285 66.3755 7.52751 66.0448 7.77587L62.7559 10.222C62.3988 10.4946 62.1647 10.8978 62.1049 11.3431C62.0451 11.7883 62.1647 12.2391 62.4373 12.5962C62.7099 12.9532 63.1132 13.1874 63.5584 13.2472C64.0036 13.3069 64.4544 13.1873 64.8115 12.9148L64.7498 12.8942Z" fill="white"></path>
        <path d="M71.903 19.1844C71.7468 19.0117 71.5567 18.8733 71.3444 18.7778C71.1321 18.6823 70.9024 18.6317 70.6696 18.6294H66.5585C66.1377 18.6338 65.7342 18.7974 65.4291 19.0872C65.124 19.377 64.94 19.7716 64.9141 20.1916V20.315C64.9195 20.7584 65.0994 21.1819 65.415 21.4935C65.7305 21.8052 66.1561 21.98 66.5996 21.98H70.7107C71.1542 21.9746 71.5777 21.7946 71.8893 21.4791C72.201 21.1635 72.3758 20.7379 72.3757 20.2944C72.3645 19.8779 72.1955 19.4811 71.903 19.1844Z" fill="white"></path>
        <path d="M35.2311 10.5102L38.4994 12.8741C38.8372 13.0953 39.2431 13.188 39.6434 13.1352C40.0437 13.0824 40.4117 12.8877 40.6805 12.5865C40.9494 12.2853 41.1012 11.8976 41.1083 11.4939C41.1155 11.0903 40.9775 10.6974 40.7194 10.3869C40.6692 10.3277 40.6142 10.2727 40.555 10.2225L37.2455 7.838C36.8825 7.58054 36.4324 7.47712 35.9934 7.55029C35.5544 7.62345 35.1621 7.86728 34.9022 8.22856C34.7188 8.48716 34.6185 8.79546 34.6144 9.11247C34.5982 9.37776 34.6457 9.64307 34.753 9.88625C34.8603 10.1294 35.0242 10.3434 35.2311 10.5102Z" fill="white"></path>
        <path d="M45.0994 5.5973L45.4283 6.60453C45.4791 6.83457 45.5776 7.0514 45.7174 7.24103C45.8572 7.43065 46.0352 7.58886 46.2399 7.70545C46.4447 7.82204 46.6715 7.89442 46.906 7.91792C47.1404 7.94142 47.3771 7.91553 47.6009 7.84189C47.8247 7.76826 48.0306 7.64851 48.2052 7.49041C48.3799 7.33231 48.5195 7.13936 48.615 6.92399C48.7105 6.70861 48.7598 6.47563 48.7597 6.24004C48.7596 6.00444 48.7101 5.77148 48.6144 5.55619L47.3194 1.69174C47.2979 1.61756 47.263 1.54791 47.2166 1.48619C47.0414 1.11358 46.7343 0.819124 46.3546 0.65968C45.975 0.500236 45.5498 0.487123 45.161 0.622857C44.7539 0.763934 44.4162 1.05557 44.2174 1.43787C44.0187 1.82016 43.9738 2.26409 44.0922 2.67841L45.0994 5.5973Z" fill="white"></path>
        <path d="M68.0173 30.1404L64.7078 27.7765C64.3448 27.519 63.8947 27.4156 63.4556 27.4888C63.0166 27.5619 62.6244 27.8058 62.3645 28.167C62.1841 28.4286 62.0776 28.734 62.0561 29.0509C62.0446 29.3328 62.1022 29.6132 62.224 29.8676C62.3459 30.122 62.5282 30.3427 62.755 30.5104L66.0645 32.8743C66.4022 33.0955 66.8081 33.1881 67.2084 33.1354C67.6087 33.0826 67.9767 32.8879 68.2456 32.5867C68.5144 32.2855 68.6662 31.8978 68.6734 31.4941C68.6805 31.0904 68.5425 30.6976 68.2845 30.387C68.2056 30.2944 68.1159 30.2116 68.0173 30.1404Z" fill="white"></path>
        <path d="M53.9794 30.7778C53.4186 29.292 52.3408 28.0583 50.9437 27.3031C49.5466 26.548 47.9241 26.322 46.3738 26.6667C45.0368 23.9735 43.0453 21.6588 40.5816 19.935C38.118 18.2112 35.2611 17.1332 32.2727 16.8C31.5533 16.8 30.9572 16.6973 30.361 16.6973C26.9788 16.7154 23.6707 17.6901 20.819 19.5088C17.9673 21.3275 15.6883 23.9159 14.2455 26.975C12.5298 26.8377 10.8041 27.0494 9.1724 27.5972C7.54073 28.1451 6.03695 29.0177 4.75175 30.1626C3.46654 31.3074 2.42655 32.7008 1.69451 34.2585C0.962468 35.8162 0.553551 37.5061 0.492417 39.2262C0.431283 40.9463 0.719189 42.6609 1.33879 44.2667C1.9584 45.8725 2.89686 47.3362 4.09754 48.5694C5.29823 49.8026 6.73627 50.7798 8.32493 51.4421C9.91358 52.1044 11.6199 52.438 13.3411 52.4228H52.7049C55.4681 52.4079 58.1219 51.3415 60.1272 49.4404C62.1325 47.5393 63.3388 44.9461 63.5011 42.1876C63.6634 39.4292 62.7694 36.7124 61.0008 34.5893C59.2323 32.4663 56.7217 31.0961 53.9794 30.7573V30.7778ZM52.6844 48.9284H13.3411C10.8949 48.923 8.55052 47.9488 6.82083 46.2192C5.09115 44.4895 4.11703 42.1451 4.1116 39.6989C4.11483 38.916 4.21145 38.1362 4.39939 37.3762C4.92108 35.4026 6.08096 33.657 7.69833 32.4114C9.31569 31.1659 11.2997 30.4903 13.3411 30.4901C13.9061 30.4878 14.4702 30.5359 15.0266 30.6339L16.4655 30.9012L16.9794 29.5239C18.0275 26.8443 19.8549 24.5404 22.2257 22.9098C24.5964 21.2793 27.4015 20.3969 30.2788 20.3767C30.7516 20.3767 31.2244 20.3767 31.8205 20.3767C33.3442 20.5456 34.83 20.9622 36.2194 21.61C39.6699 23.1851 42.3589 26.0588 43.7016 29.6062L44.421 31.5384L46.2094 30.5106C46.5475 30.3132 46.9213 30.1844 47.3092 30.1315C47.6972 30.0786 48.0918 30.1026 48.4705 30.2023C49.0896 30.3397 49.6503 30.6673 50.0741 31.139C50.4979 31.6108 50.7638 32.2032 50.8344 32.8334L51.0605 34.3134H52.6844C54.6361 34.3134 56.5078 35.0887 57.8879 36.4688C59.268 37.8488 60.0433 39.7206 60.0433 41.6723C60.0433 43.624 59.268 45.4957 57.8879 46.8758C56.5078 48.2558 54.6361 49.0312 52.6844 49.0312V48.9284Z" fill="white"></path>
        <path d="M47.3388 24.9194C48.9206 24.8287 50.4957 25.188 51.8818 25.9556C53.2678 26.7232 54.4081 27.8677 55.1705 29.2566L56.2805 29.5238C57.839 28.7271 59.1682 27.5455 60.1421 26.0911C61.116 24.6367 61.7024 22.9577 61.8455 21.2132C61.9887 19.4687 61.684 17.7165 60.9602 16.1228C60.2365 14.5291 59.1177 13.1466 57.7099 12.1064C56.3022 11.0662 54.6521 10.4028 52.9161 10.1791C51.1801 9.9553 49.4157 10.1786 47.7902 10.8278C46.1646 11.477 44.7319 12.5306 43.6276 13.8888C42.5234 15.2469 41.7843 16.8645 41.4805 18.5883C43.8785 20.2382 45.8796 22.4008 47.3388 24.9194ZM45.4271 14.6416C46.6194 13.2849 48.2433 12.7711 49.0655 13.5111C49.8877 14.2511 49.5588 15.8955 48.3666 17.2521C47.1744 18.6088 45.5505 19.1022 44.7283 18.3827C43.906 17.6633 44.2349 15.9572 45.4271 14.6005V14.6416Z" fill="white"></path>
    </symbol>
    <symbol fill="none" xmlns="http://www.w3.org/2000/svg" viewBox="0 0 63 62" id="sun">
        <path d="M31.8688 46.3011C23.3515 46.3011 16.4215 39.3723 16.4215 30.8524C16.4215 22.3352 23.3528 15.4052 31.8688 15.4052C40.3887 15.4052 47.3174 22.3352 47.3174 30.8524C47.3174 39.3723 40.3873 46.3011 31.8688 46.3011ZM31.8688 18.4954C25.0545 18.4954 19.5117 24.0408 19.5117 30.8538C19.5117 37.6707 25.0558 43.2121 31.8688 43.2121C38.6818 43.2121 44.2271 37.6707 44.2271 30.8538C44.2271 24.0408 38.6831 18.4954 31.8688 18.4954Z" fill="white"></path>
        <path d="M31.8692 9.52849C31.0171 9.52849 30.3254 8.83679 30.3254 7.98336V1.54512C30.3254 0.691689 31.0158 0 31.8692 0C32.7226 0 33.4156 0.691689 33.4156 1.54512V7.98336C33.4156 8.83679 32.7213 9.52849 31.8692 9.52849Z" fill="white"></path>
        <path d="M47.2455 17.3802C46.8497 17.3802 46.4538 17.229 46.1527 16.9278C45.5491 16.3256 45.5491 15.3472 46.1527 14.7436L51.6875 9.20879C52.2911 8.60521 53.2682 8.60521 53.8717 9.20879C54.4753 9.81106 54.4753 10.7894 53.8717 11.393L48.3369 16.9278C48.0358 17.229 47.6413 17.3802 47.2455 17.3802Z" fill="white"></path>
        <path d="M14.0313 17.3802C13.6354 17.3802 13.2396 17.229 12.9398 16.9278L7.40365 11.393C6.80138 10.7894 6.80138 9.81238 7.40365 9.20879C8.00724 8.60521 8.98428 8.60521 9.58787 9.20879L15.124 14.7436C15.7263 15.3472 15.7263 16.3243 15.124 16.9278C14.8229 17.229 14.4271 17.3802 14.0313 17.3802Z" fill="white"></path>
        <path d="M30.6381 61.4709C29.786 61.4709 29.093 60.7792 29.093 59.9258V53.4888C29.093 52.6354 29.7847 51.9437 30.6381 51.9437C31.4915 51.9437 32.1832 52.6354 32.1832 53.4888V59.9258C32.1832 60.7805 31.4915 61.4709 30.6381 61.4709Z" fill="white"></path>
        <path d="M9.72695 52.7171C9.33245 52.7171 8.93795 52.5672 8.6355 52.2648C8.03192 51.6625 8.03192 50.6841 8.6355 50.0805L14.1703 44.5457C14.7739 43.9421 15.7523 43.9421 16.3559 44.5457C16.9595 45.148 16.9595 46.1263 16.3559 46.7299L10.821 52.2648C10.5186 52.5672 10.1228 52.7171 9.72695 52.7171Z" fill="white"></path>
        <path d="M54.0114 52.7171C53.6169 52.7171 53.2211 52.5672 52.92 52.2648L47.3851 46.7299C46.7815 46.1263 46.7815 45.1493 47.3851 44.5457C47.9887 43.9421 48.9644 43.9421 49.568 44.5457L55.1055 50.0805C55.7078 50.6841 55.7078 51.6625 55.1055 52.2648C54.8017 52.5672 54.4072 52.7171 54.0114 52.7171Z" fill="white"></path>
        <path d="M8.49621 32.399H1.54381C0.691689 32.399 0 31.7086 0 30.8538C0 30.0017 0.690374 29.3087 1.54381 29.3087H8.49621C9.34833 29.3087 10.04 30.0017 10.04 30.8538C10.04 31.7073 9.34965 32.399 8.49621 32.399Z" fill="white"></path>
        <path d="M61.0198 32.399H52.78C51.9279 32.399 51.2336 31.7086 51.2336 30.8538C51.2336 30.0017 51.9266 29.3087 52.78 29.3087H61.0198C61.8719 29.3087 62.5636 30.0017 62.5636 30.8538C62.5636 31.7073 61.8719 32.399 61.0198 32.399Z" fill="white"></path>
    </symbol>
    <symbol fill="none" xmlns="http://www.w3.org/2000/svg" viewBox="0 0 59 57" id="sunny">
        <path d="M38.6319 17.1825C36.0458 15.0493 32.796 13.886 29.4436 13.8936C25.6274 13.8936 21.9675 15.4096 19.2691 18.108C16.5707 20.8064 15.0547 24.4663 15.0547 28.2825C15.0869 32.0887 16.6132 35.7299 19.3047 38.4214C21.9962 41.1128 25.6374 42.6392 29.4436 42.6714C32.4475 42.7167 35.3903 41.8206 37.8592 40.1088C40.3281 38.3971 42.1992 35.9554 43.2103 33.1264C44.2213 30.2973 44.3214 27.2228 43.4967 24.3339C42.6719 21.4451 40.9636 18.8869 38.6114 17.018L38.6319 17.1825ZM20.7691 20.3275C22.4341 18.4364 24.7158 17.7169 25.8669 18.7241C27.018 19.7314 26.5864 22.0953 24.9008 23.9864C23.2152 25.8775 20.9541 26.5969 19.803 25.5897C18.6519 24.5825 19.1658 22.2186 20.7691 20.3275Z" fill="white"></path>
        <path d="M14.1925 39.1157C13.7997 38.6908 13.2647 38.4247 12.6888 38.3679C12.113 38.3111 11.5363 38.4674 11.068 38.8073L6.48413 42.199C6.205 42.4001 5.97495 42.6617 5.81121 42.9643C5.64747 43.2669 5.55427 43.6025 5.53858 43.9462C5.49835 44.3949 5.58944 44.8455 5.80076 45.2434C6.01209 45.6412 6.33452 45.9689 6.7288 46.1868C7.12308 46.4046 7.5722 46.5031 8.02146 46.4703C8.47071 46.4374 8.90073 46.2746 9.25913 46.0018L13.8636 42.6101C14.1128 42.4272 14.3234 42.1969 14.4832 41.9323C14.6431 41.6677 14.749 41.374 14.7948 41.0683C14.8407 40.7626 14.8256 40.4509 14.7504 40.151C14.6753 39.8512 14.5415 39.5692 14.3569 39.3212L14.1925 39.1157Z" fill="white"></path>
        <path d="M10.8211 28.3238C10.8137 27.7451 10.5943 27.1892 10.2045 26.7615C9.98041 26.5224 9.70986 26.3316 9.4094 26.2008C9.10895 26.07 8.78493 26.002 8.45725 26.001H2.74281C2.14902 26.0051 1.57891 26.2344 1.14774 26.6427C0.716566 27.051 0.456466 27.6077 0.420018 28.2004C0.420018 28.2004 0.420018 28.3238 0.420018 28.3649C0.414417 28.9848 0.652605 29.5822 1.08324 30.0282C1.51387 30.4742 2.10248 30.7332 2.72225 30.7493H8.43669C8.75331 30.7494 9.06677 30.6864 9.35878 30.564C9.65079 30.4416 9.91549 30.2622 10.1375 30.0365C10.3594 29.8107 10.5342 29.5429 10.6516 29.2489C10.7689 28.9548 10.8266 28.6403 10.8211 28.3238V28.3238Z" fill="white"></path>
        <path d="M35.2823 10.6666C35.5765 10.7589 35.8861 10.7922 36.1932 10.7647C36.5003 10.7371 36.799 10.6492 37.072 10.5059C37.3451 10.3627 37.5872 10.167 37.7845 9.93004C37.9818 9.69306 38.1304 9.41948 38.2218 9.12497L39.9484 3.67774C40.0744 3.2862 40.0932 2.86806 40.0028 2.4668C39.9124 2.06554 39.7162 1.69582 39.4345 1.39608C39.1644 1.0899 38.8163 0.862584 38.4273 0.738299C38.1331 0.642461 37.8229 0.605831 37.5145 0.63052C37.2061 0.655209 36.9056 0.740731 36.6304 0.882148C36.3552 1.02356 36.1107 1.21808 35.9111 1.45447C35.7115 1.69086 35.5607 1.96443 35.4673 2.25941L33.7406 7.70664C33.7193 7.89789 33.7193 8.09094 33.7406 8.28219C33.7047 8.79299 33.8356 9.30165 34.1136 9.73167C34.3916 10.1617 34.8018 10.4898 35.2823 10.6666V10.6666Z" fill="white"></path>
        <path d="M47.9438 17.9432L52.5277 14.531C52.777 14.3482 52.9876 14.1178 53.1474 13.8532C53.3072 13.5886 53.4131 13.295 53.459 12.9893C53.5048 12.6836 53.4897 12.3718 53.4146 12.0719C53.3394 11.7721 53.2057 11.4901 53.0211 11.2421C52.9716 11.1823 52.9165 11.1272 52.8566 11.0777C52.4725 10.6472 51.9419 10.375 51.3681 10.3142C50.7944 10.2534 50.2185 10.4083 49.7527 10.7488L45.1483 14.1405C44.8743 14.3466 44.6481 14.6094 44.4849 14.9109C44.3217 15.2124 44.2255 15.5456 44.2027 15.8877C44.1577 16.4398 44.3188 16.989 44.655 17.4294C45.0246 17.9314 45.5776 18.2671 46.1936 18.3634C46.8096 18.4596 47.4387 18.3086 47.9438 17.9432Z" fill="white"></path>
        <path d="M57.9143 26.7616C57.6926 26.5195 57.4225 26.3267 57.1215 26.1957C56.8205 26.0647 56.4953 25.9984 56.1671 26.0011H50.4526C49.8609 26.0055 49.2932 26.2355 48.8654 26.6443C48.4375 27.053 48.1818 27.6096 48.1504 28.2005C48.1504 28.2005 48.1504 28.3238 48.1504 28.3649C48.1558 28.9883 48.4073 29.5843 48.85 30.0232C49.2927 30.4621 49.8909 30.7083 50.5143 30.7083H56.2287C56.6856 30.7077 57.1323 30.5736 57.514 30.3225C57.8956 30.0714 58.1956 29.7141 58.3768 29.2948C58.5581 28.8754 58.6129 28.4122 58.5343 27.9622C58.4558 27.5121 58.2474 27.0948 57.9348 26.7616H57.9143Z" fill="white"></path>
        <path d="M38.1812 47.6666C38.1416 47.5667 38.0935 47.4704 38.0373 47.3788C37.7698 46.853 37.3138 46.4475 36.7604 46.2432C36.207 46.0389 35.5969 46.0508 35.0519 46.2766C34.5069 46.5024 34.0671 46.9254 33.8204 47.4612C33.5736 47.997 33.538 48.6062 33.7207 49.1671L35.0362 53.1549L35.5295 54.5732C35.625 54.8664 35.7774 55.1378 35.9779 55.3719C36.1784 55.6061 36.4232 55.7984 36.6981 55.9378C36.9731 56.0772 37.2729 56.1609 37.5803 56.1843C37.8877 56.2076 38.1967 56.1701 38.4895 56.0738C39.0798 55.872 39.5676 55.4469 39.8481 54.8897C40.1286 54.3325 40.1796 53.6876 39.9901 53.0932L38.1812 47.6666Z" fill="white"></path>
        <path d="M23.6691 46.1044C23.0776 45.9171 22.436 45.9721 21.885 46.2573C21.3339 46.5424 20.9185 47.0345 20.7297 47.6255L19.003 53.0727C18.9834 53.2641 18.9834 53.4569 19.003 53.6483C18.9588 54.2254 19.1297 54.7986 19.4829 55.2572C19.836 55.7158 20.3464 56.0275 20.9158 56.1322C21.4851 56.2369 22.073 56.1271 22.5662 55.8241C23.0594 55.5211 23.423 55.0462 23.5869 54.4911L25.3136 49.0438C25.4291 48.6512 25.4426 48.2356 25.3527 47.8363C25.2627 47.4371 25.0724 47.0673 24.7997 46.7622C24.4929 46.44 24.1008 46.2119 23.6691 46.1044V46.1044Z" fill="white"></path>
        <path d="M13.8634 14.0997L9.21781 10.7697C8.96612 10.5882 8.68089 10.4586 8.37869 10.3882C8.07649 10.3178 7.76331 10.3082 7.45735 10.3598C7.15139 10.4114 6.85874 10.5233 6.59636 10.689C6.33398 10.8546 6.1071 11.0707 5.92891 11.3247C5.68108 11.6841 5.53221 12.1024 5.49724 12.5375C5.47694 12.9353 5.5566 13.3318 5.72895 13.6909C5.9013 14.0499 6.16086 14.3601 6.48391 14.5931L11.1295 17.9231C11.5995 18.2822 12.188 18.4503 12.7769 18.3935C13.3657 18.3368 13.9113 18.0595 14.3041 17.6172C14.697 17.1749 14.908 16.6004 14.8949 16.009C14.8818 15.4176 14.6454 14.853 14.2334 14.4286C14.1205 14.3077 13.9967 14.1976 13.8634 14.0997V14.0997Z" fill="white"></path>
        <path d="M20.2982 7.70648L20.771 9.12481C20.8681 9.42445 21.0234 9.70201 21.2278 9.94164C21.4323 10.1813 21.6819 10.3783 21.9625 10.5215C22.2431 10.6646 22.5491 10.7511 22.8632 10.776C23.1772 10.8009 23.493 10.7637 23.7926 10.6665C24.0923 10.5693 24.3698 10.4141 24.6095 10.2096C24.8491 10.0052 25.0461 9.75552 25.1893 9.47494C25.3324 9.19435 25.4189 8.88831 25.4438 8.5743C25.4687 8.26028 25.4315 7.94444 25.3343 7.64481L23.5254 2.21815C23.4931 2.11868 23.4518 2.02236 23.4021 1.93037C23.153 1.37692 22.6989 0.941708 22.1353 0.716351C21.5718 0.490995 20.9428 0.493079 20.3808 0.722154C19.8187 0.951229 19.3675 1.38943 19.122 1.94451C18.8766 2.4996 18.8561 3.12825 19.0648 3.69815L20.2982 7.70648Z" fill="white"></path>
        <path d="M52.4667 42.1574L47.8212 38.8274C47.3168 38.4653 46.6892 38.3182 46.0764 38.4184C45.4636 38.5186 44.9156 38.858 44.5528 39.3619C44.2928 39.7227 44.1429 40.1511 44.1212 40.5952C44.0928 40.9919 44.1667 41.3892 44.3358 41.7491C44.505 42.1091 44.7637 42.4195 45.0873 42.6508L49.7328 45.9602C50.2029 46.3194 50.7914 46.4874 51.3802 46.4307C51.9691 46.374 52.5147 46.0966 52.9075 45.6544C53.3004 45.2121 53.5114 44.6376 53.4983 44.0462C53.4851 43.4548 53.2488 42.8902 52.8367 42.4658C52.7331 42.3414 52.6077 42.237 52.4667 42.1574Z" fill="white"></path>
    </symbol>
    <symbol fill="none" xmlns="http://www.w3.org/2000/svg" viewBox="0 0 43 31" id="sunrise">
        <path d="M33.3743 22.09H31.3743C31.3743 16.412 26.7553 11.792 21.0773 11.792C15.3993 11.792 10.7793 16.412 10.7793 22.09H8.7793C8.7793 15.309 14.2963 9.79199 21.0773 9.79199C27.8573 9.79199 33.3743 15.308 33.3743 22.09Z" fill="white"></path>
        <path d="M22.0771 0H20.0771V7.403H22.0771V0Z" fill="white"></path>
        <path d="M12.1148 10.7005L6.88013 5.46582L5.46593 6.88002L10.7006 12.1147L12.1148 10.7005Z" fill="white"></path>
        <path d="M36.6869 6.87904L35.2727 5.46484L30.038 10.6995L31.4522 12.1137L36.6869 6.87904Z" fill="white"></path>
        <path d="M42.153 20.0767H34.75V22.0767H42.153V20.0767Z" fill="white"></path>
        <path d="M7.402 20.0767H0V22.0767H7.402V20.0767Z" fill="white"></path>
        <path d="M33.3743 24.5908H8.7793V26.5908H33.3743V24.5908Z" fill="white"></path>
        <path d="M33.3743 28.75H8.7793V30.75H33.3743V28.75Z" fill="white"></path>
    </symbol>
    <symbol fill="none" xmlns="http://www.w3.org/2000/svg" viewBox="0 0 197 168" id="two-clouds-2">
        <path d="M197 37.3673C197 16.7662 180.089 0 159.304 0C152.977 0 146.746 1.59114 141.205 4.60594C136.663 1.63157 131.248 0 125.812 0C114.361 0 104.208 6.85549 99.9959 17.2311C97.9829 16.7778 95.9233 16.5496 93.8521 16.5496C78.4854 16.5496 65.9852 28.9438 65.9852 44.1737C65.9852 46.1807 66.2153 48.1357 66.629 50.0185C59.0782 54.714 53.2257 61.9304 50.3155 70.715C46.7032 69.6494 42.9744 69.1036 39.1873 69.1036C17.5807 69.1036 0 86.5311 0 107.952C0 129.371 17.5778 146.795 39.1873 146.795C45.1447 146.795 50.9913 145.444 56.3282 142.862C62.0117 157.858 76.5045 168 92.9636 168C106.492 168 118.96 161.116 126.115 149.874C130.115 150.778 134.138 151.245 138.114 151.245C167.912 151.245 192.155 127.214 192.155 97.672C192.155 86.2279 188.485 75.6328 182.292 66.9205C191.217 60.0765 197 49.3948 197 37.3673ZM185.313 97.672C185.313 123.471 164.137 144.459 138.114 144.459C133.908 144.459 129.622 143.864 125.387 142.683C123.84 142.259 122.211 142.949 121.448 144.341C115.788 154.748 104.872 161.217 92.9607 161.217C78.1591 161.217 65.2831 151.271 61.6475 137.032C61.3795 135.981 60.6163 135.117 59.5938 134.713C59.1859 134.554 58.7577 134.473 58.3295 134.473C57.6886 134.473 57.0506 134.655 56.4942 135.005C51.2914 138.285 45.3078 140.015 39.1873 140.015C21.3532 140.015 6.84584 125.634 6.84584 107.952C6.84584 90.2707 21.3532 75.8869 39.1873 75.8869C43.3648 75.8869 47.4519 76.681 51.3467 78.2519C52.276 78.6302 53.3306 78.584 54.222 78.1191C55.1134 77.6571 55.7543 76.8312 55.9757 75.8609C57.8168 67.7695 62.5768 61.041 69.0061 56.6055C71.2987 55.0259 73.8011 53.7322 76.4666 52.7821C79.9186 51.5519 83.6358 50.882 87.4986 50.882C95.0465 50.882 102.399 53.5271 108.199 58.3179C109.353 59.2766 111.007 59.369 112.269 58.5489C119.977 53.5329 128.914 50.882 138.117 50.882C150.827 50.882 162.36 55.9124 170.852 64.0443C172.941 66.0368 174.831 68.2257 176.521 70.5763C182.032 78.2288 185.313 87.5707 185.313 97.672ZM138.114 44.1015C128.399 44.1015 118.94 46.6803 110.605 51.5808C103.92 46.7438 95.8068 44.1015 87.4957 44.1015C82.9541 44.1015 78.5902 44.8755 74.5148 46.2789C74.439 45.5858 74.3924 44.887 74.3924 44.1737C74.3924 33.5353 83.1202 24.8836 93.8521 24.8836C96.3603 24.8836 98.8219 25.363 101.164 26.3044C101.671 26.5094 102.204 26.6134 102.749 26.6134C103.425 26.6134 104.098 26.4488 104.692 26.1398C105.787 25.5738 106.574 24.5602 106.85 23.3647C108.863 14.5167 116.662 8.33401 125.812 8.33401C130.351 8.33401 134.776 9.92516 138.263 12.8071C139.017 13.4338 139.976 13.7774 140.96 13.7774C141.779 13.7774 142.574 13.5435 143.267 13.0959C148.051 9.98291 153.597 8.3369 159.304 8.3369C175.452 8.3369 188.593 21.3635 188.593 37.3702C188.593 46.8131 184.002 55.1962 176.94 60.4981C167.106 50.4055 153.35 44.1015 138.114 44.1015Z" fill="white"></path>
    </symbol>
    <symbol fill="none" xmlns="http://www.w3.org/2000/svg" viewBox="0 0 43 32" id="sunset">
        <path d="M42.153 21.3545H0V23.3545H42.153V21.3545Z" fill="white"></path>
        <path d="M42.153 25.3545H0V27.3545H42.153V25.3545Z" fill="white"></path>
        <path d="M42.153 29.3545H0V31.3545H42.153V29.3545Z" fill="white"></path>
        <path d="M13.8678 5.28278C14.9598 4.19078 16.2398 3.40778 17.6028 2.90878C17.3388 6.32378 18.4848 9.82677 21.0538 12.4578L21.0498 12.4618C21.0648 12.4778 21.0798 12.4888 21.0948 12.5028C21.1148 12.5228 21.1298 12.5438 21.1498 12.5638L21.1558 12.5578C23.7858 15.1278 27.2908 16.2728 30.7048 16.0088C30.4108 16.8128 30.0058 17.5808 29.5088 18.3058H31.8478C32.3068 17.4498 32.6718 16.5548 32.9158 15.6318C33.1078 14.9048 33.2348 14.1668 33.2928 13.4208C32.6188 13.6678 31.9268 13.8398 31.2248 13.9418C28.1398 14.3848 24.8908 13.4418 22.5098 11.0898C20.1678 8.71078 19.2298 5.46977 19.6718 2.38977C19.7728 1.68677 19.9448 0.994777 20.1908 0.321777C19.4458 0.379777 18.7078 0.506777 17.9808 0.697777C15.9558 1.23478 14.0398 2.28277 12.4548 3.86777C8.55078 7.77077 7.83578 13.6608 10.2878 18.3048H12.6138C9.91877 14.3038 10.3318 8.81978 13.8678 5.28278Z" fill="white"></path>
    </symbol>
    <symbol fill="none" xmlns="http://www.w3.org/2000/svg" viewBox="0 0 16 16" id="wet-3">
        <path fill-rule="evenodd" clip-rule="evenodd" d="M8 16C12.4183 16 16 12.4183 16 8C16 3.58172 12.4183 0 8 0C3.58172 0 0 3.58172 0 8C0 12.4183 3.58172 16 8 16ZM7.99955 12C9.65611 12 11 10.6761 11 9.0432C11 7.41025 7.99955 3 7.99955 3C7.99955 3 5 7.41025 5 9.0432C5 10.6761 6.343 12 7.99955 12Z" fill="white"></path>
    </symbol>
    <symbol fill="none" xmlns="http://www.w3.org/2000/svg" viewBox="0 0 12 18" id="wet-2">
        <path d="M12 12.0864C12 15.3523 9.31221 18 5.99911 18C2.68601 18 0 15.3523 0 12.0864C0 8.82051 5.99911 0 5.99911 0C5.99911 0 12 8.82051 12 12.0864Z" fill="white"></path>
    </symbol>
    <symbol fill="none" xmlns="http://www.w3.org/2000/svg" viewBox="0 0 17 17" id="wind-route">
        <path d="M16.5973 4.00005L10.2222 2.4063C10.2147 2.40444 10.2067 2.40497 10.1993 2.40337C10.1757 2.39859 10.1518 2.39567 10.1276 2.39408C10.1143 2.39302 10.1013 2.39195 10.088 2.39195C10.0609 2.39248 10.0341 2.39567 10.0073 2.39992C9.99717 2.40152 9.98708 2.40205 9.97752 2.40444C9.94272 2.41214 9.90845 2.42303 9.87525 2.43817C9.87339 2.43923 9.87153 2.4395 9.86967 2.4403C9.83674 2.4557 9.80486 2.4743 9.77485 2.49687L7.43738 4.25V2.54362C7.90567 2.33803 8.23425 1.87133 8.23425 1.32812C8.23425 0.595797 7.63846 0 6.90614 0C6.17383 0 5.57804 0.595797 5.57804 1.32812C5.57804 1.87133 5.90661 2.3383 6.3749 2.54362V15.9375H0.531242C0.237996 15.9375 0 16.1755 0 16.4688C0 16.762 0.237996 17 0.531242 17H13.281C13.5743 17 13.8123 16.762 13.8123 16.4688C13.8123 16.1755 13.5743 15.9375 13.281 15.9375H7.43738V6.375L9.77485 8.12813C9.80353 8.14964 9.83567 8.16133 9.86675 8.1762C9.88641 8.1855 9.90394 8.19958 9.92466 8.20648C9.97964 8.22481 10.0365 8.23437 10.0933 8.23437C10.0933 8.23437 10.0933 8.23437 10.0936 8.23437C10.0952 8.23437 10.0968 8.23384 10.0986 8.23384C10.1387 8.23331 10.1786 8.22827 10.2176 8.21897C10.2192 8.2187 10.2208 8.2187 10.2224 8.21844L16.5976 6.62469C16.834 6.56545 17 6.35322 17 6.10937V4.51562C16.9997 4.27151 16.8337 4.05902 16.5973 4.00005ZM9.56235 6.64036L7.79146 5.31223L9.56235 3.98411V6.64036ZM6.90614 1.06223C7.0525 1.06223 7.17176 1.18123 7.17176 1.32786C7.17176 1.47448 7.0525 1.59348 6.90614 1.59348C6.75979 1.59348 6.64052 1.47448 6.64052 1.32786C6.64052 1.18123 6.75979 1.06223 6.90614 1.06223ZM10.6248 3.60187L12.7498 4.13312V6.49108L10.6248 7.02233V3.60187ZM15.9373 5.6942L13.8123 6.22545V4.39875L15.9373 4.93V5.6942Z" fill="white"></path>
    </symbol>
    <symbol fill="none" xmlns="http://www.w3.org/2000/svg" viewBox="0 0 73 46" id="windy">
        <path d="M44.0916 14.2901C44.9913 12.8926 45.4694 11.2655 45.4689 9.60347C45.4689 9.3568 45.4689 9.11014 45.4689 8.86347C45.2859 6.70239 44.2982 4.68878 42.7013 3.22129C41.1044 1.75381 39.0146 0.939453 36.8458 0.939453C34.677 0.939453 32.5873 1.75381 30.9903 3.22129C29.3934 4.68878 28.4057 6.70239 28.2228 8.86347H32.2105C32.3764 7.75273 32.9356 6.73849 33.7863 6.00535C34.637 5.27222 35.7228 4.86894 36.8458 4.86894C37.9689 4.86894 39.0546 5.27222 39.9053 6.00535C40.756 6.73849 41.3152 7.75273 41.4811 8.86347C41.4811 9.11014 41.4811 9.3568 41.4811 9.60347C41.4756 10.8483 40.9773 12.0404 40.0951 12.9187C39.2129 13.797 38.0188 14.2901 36.7739 14.2901H7.99609V18.2779H36.7739C38.2303 18.281 39.6641 17.9173 40.943 17.2204C42.2219 16.5235 43.3047 15.5157 44.0916 14.2901Z" fill="white"></path>
        <path d="M45.1196 27.7745H16.3418V31.7212H45.1196C46.3663 31.7266 47.5605 32.2243 48.4421 33.1059C49.3237 33.9875 49.8214 35.1816 49.8268 36.4284C49.8268 36.6751 49.8268 36.9012 49.8268 37.1478C49.6609 38.2586 49.1018 39.2728 48.251 40.006C47.4003 40.7391 46.3146 41.1424 45.1915 41.1424C44.0685 41.1424 42.9827 40.7391 42.132 40.006C41.2813 39.2728 40.7221 38.2586 40.5562 37.1478H36.4451C36.628 39.3089 37.6157 41.3225 39.2127 42.79C40.8096 44.2575 42.8994 45.0719 45.0682 45.0719C47.237 45.0719 49.3267 44.2575 50.9237 42.79C52.5206 41.3225 53.5083 39.3089 53.6912 37.1478C53.6912 36.9012 53.6912 36.6751 53.6912 36.4284C53.6967 35.2904 53.4766 34.1627 53.0436 33.1103C52.6106 32.0579 51.9734 31.1017 51.1687 30.297C50.364 29.4924 49.4079 28.8551 48.3555 28.4222C47.3031 27.9892 46.1753 27.7691 45.0373 27.7745H45.1196Z" fill="white"></path>
        <path d="M60.247 0.826172C58.6634 0.82617 57.0954 1.13842 55.6326 1.74505C54.1698 2.35168 52.841 3.24078 51.7222 4.36149C50.6034 5.48221 49.7166 6.81253 49.1124 8.27634C48.5083 9.74015 48.1987 11.3087 48.2014 12.8923C48.2025 13.8756 48.3198 14.8554 48.5509 15.8112H52.662C52.2819 14.885 52.0864 13.8934 52.0864 12.8923C52.0864 11.2954 52.5597 9.73437 53.4465 8.40635C54.3332 7.07832 55.5937 6.04289 57.0686 5.43086C58.5435 4.81883 60.1667 4.65765 61.7332 4.96769C63.2997 5.27773 64.7392 6.04509 65.8698 7.17281C67.0003 8.30053 67.7713 9.73803 68.0854 11.3037C68.3994 12.8694 68.2423 14.493 67.6341 15.9695C67.0258 17.446 65.9936 18.7091 64.6678 19.5992C63.342 20.4893 61.7822 20.9665 60.1853 20.9706H0.574219V24.9173H60.1853C62.8693 24.9232 65.4779 24.0294 67.5943 22.3787C69.7107 20.7281 71.2129 18.4158 71.8609 15.8112C72.109 14.8581 72.2334 13.8771 72.2309 12.8923C72.231 9.70634 70.971 6.64968 68.7259 4.38919C66.4808 2.1287 63.4329 0.847882 60.247 0.826172Z" fill="white"></path>
    </symbol>
</svg>