<?xml version="1.0" encoding="UTF-8" standalone="no"?>
<svg
   xmlns:dc="http://purl.org/dc/elements/1.1/"
   xmlns:cc="http://creativecommons.org/ns#"
   xmlns:rdf="http://www.w3.org/1999/02/22-rdf-syntax-ns#"
   xmlns:svg="http://www.w3.org/2000/svg"
   xmlns="http://www.w3.org/2000/svg"
   xml:space="preserve"
   style="enable-background:new 0 0 456.383 456.383;"
   viewBox="0 0 456.383 456.383"
   y="0px"
   x="0px"
   id="Layer_1"
   version="1.1"><metadata
   id="metadata47"><rdf:RDF><cc:Work
       rdf:about=""><dc:format>image/svg+xml</dc:format><dc:type
         rdf:resource="http://purl.org/dc/dcmitype/StillImage" /><dc:title></dc:title></cc:Work></rdf:RDF></metadata><defs
   id="defs45" />
<g
   id="g10">
	<path
   style="fill:#015f79;fill-opacity:0.78431374"
   id="path2"
   d="M318.383,100.191c0-31.981-26.019-58-58-58h-10v30h10c15.439,0,28,12.561,28,28s-12.561,28-28,28h-259v30h259   C292.364,158.191,318.383,132.173,318.383,100.191z" />
	<path
   style="fill:#015f79;fill-opacity:0.78431374"
   id="path4"
   d="M335.383,298.191h-334v30h334c15.439,0,28,12.561,28,28s-12.561,28-28,28h-10v30h10c31.981,0,58-26.019,58-58   S367.364,298.191,335.383,298.191z" />
	<rect
   style="fill:#015f79;fill-opacity:0.78431374"
   id="rect6"
   height="30"
   width="319"
   y="213.191"
   x="137.383" />
	<rect
   style="fill:#015f79;fill-opacity:0.78431374"
   id="rect8"
   height="30"
   width="107.383"
   y="213.191" />
</g>
<g
   id="g12">
</g>
<g
   id="g14">
</g>
<g
   id="g16">
</g>
<g
   id="g18">
</g>
<g
   id="g20">
</g>
<g
   id="g22">
</g>
<g
   id="g24">
</g>
<g
   id="g26">
</g>
<g
   id="g28">
</g>
<g
   id="g30">
</g>
<g
   id="g32">
</g>
<g
   id="g34">
</g>
<g
   id="g36">
</g>
<g
   id="g38">
</g>
<g
   id="g40">
</g>
</svg>